<?xml version="1.0" encoding="utf-8" standalone="no"?>
<!DOCTYPE svg PUBLIC "-//W3C//DTD SVG 1.1//EN"
  "http://www.w3.org/Graphics/SVG/1.1/DTD/svg11.dtd">
<svg xmlns:xlink="http://www.w3.org/1999/xlink" width="432pt" height="288pt" viewBox="0 0 432 288" xmlns="http://www.w3.org/2000/svg" version="1.1">
 <metadata>
  <rdf:RDF xmlns:dc="http://purl.org/dc/elements/1.1/" xmlns:cc="http://creativecommons.org/ns#" xmlns:rdf="http://www.w3.org/1999/02/22-rdf-syntax-ns#">
   <cc:Work>
    <dc:type rdf:resource="http://purl.org/dc/dcmitype/StillImage"/>
    <dc:date>2022-03-30T13:16:46.919872</dc:date>
    <dc:format>image/svg+xml</dc:format>
    <dc:creator>
     <cc:Agent>
      <dc:title>Matplotlib v3.5.1, https://matplotlib.org/</dc:title>
     </cc:Agent>
    </dc:creator>
   </cc:Work>
  </rdf:RDF>
 </metadata>
 <defs>
  <style type="text/css">*{stroke-linejoin: round; stroke-linecap: butt}</style>
 </defs>
 <g id="figure_1">
  <g id="patch_1">
   <path d="M 0 288 
L 432 288 
L 432 0 
L 0 0 
z
" style="fill: #ffffff"/>
  </g>
  <g id="axes_1">
   <g id="patch_2">
    <path d="M 54 252 
L 388.8 252 
L 388.8 34.56 
L 54 34.56 
z
" style="fill: #ffffff"/>
   </g>
   <g id="matplotlib.axis_1">
    <g id="xtick_1">
     <g id="line2d_1">
      <path d="M 69.218182 252 
L 69.218182 34.56 
" clip-path="url(#pe002c4cb17)" style="fill: none; stroke: #b0b0b0; stroke-width: 0.8; stroke-linecap: square"/>
     </g>
     <g id="line2d_2">
      <defs>
       <path id="mda175bdfb7" d="M 0 0 
L 0 3.5 
" style="stroke: #000000; stroke-width: 0.8"/>
      </defs>
      <g>
       <use xlink:href="#mda175bdfb7" x="69.218182" y="252" style="stroke: #000000; stroke-width: 0.8"/>
      </g>
     </g>
     <g id="text_1">
      <!-- 0 -->
      <g transform="translate(66.036932 266.598437)scale(0.1 -0.1)">
       <defs>
        <path id="DejaVuSans-30" d="M 2034 4250 
Q 1547 4250 1301 3770 
Q 1056 3291 1056 2328 
Q 1056 1369 1301 889 
Q 1547 409 2034 409 
Q 2525 409 2770 889 
Q 3016 1369 3016 2328 
Q 3016 3291 2770 3770 
Q 2525 4250 2034 4250 
z
M 2034 4750 
Q 2819 4750 3233 4129 
Q 3647 3509 3647 2328 
Q 3647 1150 3233 529 
Q 2819 -91 2034 -91 
Q 1250 -91 836 529 
Q 422 1150 422 2328 
Q 422 3509 836 4129 
Q 1250 4750 2034 4750 
z
" transform="scale(0.015625)"/>
       </defs>
       <use xlink:href="#DejaVuSans-30"/>
      </g>
     </g>
    </g>
    <g id="xtick_2">
     <g id="line2d_3">
      <path d="M 128.780537 252 
L 128.780537 34.56 
" clip-path="url(#pe002c4cb17)" style="fill: none; stroke: #b0b0b0; stroke-width: 0.8; stroke-linecap: square"/>
     </g>
     <g id="line2d_4">
      <g>
       <use xlink:href="#mda175bdfb7" x="128.780537" y="252" style="stroke: #000000; stroke-width: 0.8"/>
      </g>
     </g>
     <g id="text_2">
      <!-- 100 -->
      <g transform="translate(119.236787 266.598437)scale(0.1 -0.1)">
       <defs>
        <path id="DejaVuSans-31" d="M 794 531 
L 1825 531 
L 1825 4091 
L 703 3866 
L 703 4441 
L 1819 4666 
L 2450 4666 
L 2450 531 
L 3481 531 
L 3481 0 
L 794 0 
L 794 531 
z
" transform="scale(0.015625)"/>
       </defs>
       <use xlink:href="#DejaVuSans-31"/>
       <use xlink:href="#DejaVuSans-30" x="63.623047"/>
       <use xlink:href="#DejaVuSans-30" x="127.246094"/>
      </g>
     </g>
    </g>
    <g id="xtick_3">
     <g id="line2d_5">
      <path d="M 188.342893 252 
L 188.342893 34.56 
" clip-path="url(#pe002c4cb17)" style="fill: none; stroke: #b0b0b0; stroke-width: 0.8; stroke-linecap: square"/>
     </g>
     <g id="line2d_6">
      <g>
       <use xlink:href="#mda175bdfb7" x="188.342893" y="252" style="stroke: #000000; stroke-width: 0.8"/>
      </g>
     </g>
     <g id="text_3">
      <!-- 200 -->
      <g transform="translate(178.799143 266.598437)scale(0.1 -0.1)">
       <defs>
        <path id="DejaVuSans-32" d="M 1228 531 
L 3431 531 
L 3431 0 
L 469 0 
L 469 531 
Q 828 903 1448 1529 
Q 2069 2156 2228 2338 
Q 2531 2678 2651 2914 
Q 2772 3150 2772 3378 
Q 2772 3750 2511 3984 
Q 2250 4219 1831 4219 
Q 1534 4219 1204 4116 
Q 875 4013 500 3803 
L 500 4441 
Q 881 4594 1212 4672 
Q 1544 4750 1819 4750 
Q 2544 4750 2975 4387 
Q 3406 4025 3406 3419 
Q 3406 3131 3298 2873 
Q 3191 2616 2906 2266 
Q 2828 2175 2409 1742 
Q 1991 1309 1228 531 
z
" transform="scale(0.015625)"/>
       </defs>
       <use xlink:href="#DejaVuSans-32"/>
       <use xlink:href="#DejaVuSans-30" x="63.623047"/>
       <use xlink:href="#DejaVuSans-30" x="127.246094"/>
      </g>
     </g>
    </g>
    <g id="xtick_4">
     <g id="line2d_7">
      <path d="M 247.905248 252 
L 247.905248 34.56 
" clip-path="url(#pe002c4cb17)" style="fill: none; stroke: #b0b0b0; stroke-width: 0.8; stroke-linecap: square"/>
     </g>
     <g id="line2d_8">
      <g>
       <use xlink:href="#mda175bdfb7" x="247.905248" y="252" style="stroke: #000000; stroke-width: 0.8"/>
      </g>
     </g>
     <g id="text_4">
      <!-- 300 -->
      <g transform="translate(238.361498 266.598437)scale(0.1 -0.1)">
       <defs>
        <path id="DejaVuSans-33" d="M 2597 2516 
Q 3050 2419 3304 2112 
Q 3559 1806 3559 1356 
Q 3559 666 3084 287 
Q 2609 -91 1734 -91 
Q 1441 -91 1130 -33 
Q 819 25 488 141 
L 488 750 
Q 750 597 1062 519 
Q 1375 441 1716 441 
Q 2309 441 2620 675 
Q 2931 909 2931 1356 
Q 2931 1769 2642 2001 
Q 2353 2234 1838 2234 
L 1294 2234 
L 1294 2753 
L 1863 2753 
Q 2328 2753 2575 2939 
Q 2822 3125 2822 3475 
Q 2822 3834 2567 4026 
Q 2313 4219 1838 4219 
Q 1578 4219 1281 4162 
Q 984 4106 628 3988 
L 628 4550 
Q 988 4650 1302 4700 
Q 1616 4750 1894 4750 
Q 2613 4750 3031 4423 
Q 3450 4097 3450 3541 
Q 3450 3153 3228 2886 
Q 3006 2619 2597 2516 
z
" transform="scale(0.015625)"/>
       </defs>
       <use xlink:href="#DejaVuSans-33"/>
       <use xlink:href="#DejaVuSans-30" x="63.623047"/>
       <use xlink:href="#DejaVuSans-30" x="127.246094"/>
      </g>
     </g>
    </g>
    <g id="xtick_5">
     <g id="line2d_9">
      <path d="M 307.467604 252 
L 307.467604 34.56 
" clip-path="url(#pe002c4cb17)" style="fill: none; stroke: #b0b0b0; stroke-width: 0.8; stroke-linecap: square"/>
     </g>
     <g id="line2d_10">
      <g>
       <use xlink:href="#mda175bdfb7" x="307.467604" y="252" style="stroke: #000000; stroke-width: 0.8"/>
      </g>
     </g>
     <g id="text_5">
      <!-- 400 -->
      <g transform="translate(297.923854 266.598437)scale(0.1 -0.1)">
       <defs>
        <path id="DejaVuSans-34" d="M 2419 4116 
L 825 1625 
L 2419 1625 
L 2419 4116 
z
M 2253 4666 
L 3047 4666 
L 3047 1625 
L 3713 1625 
L 3713 1100 
L 3047 1100 
L 3047 0 
L 2419 0 
L 2419 1100 
L 313 1100 
L 313 1709 
L 2253 4666 
z
" transform="scale(0.015625)"/>
       </defs>
       <use xlink:href="#DejaVuSans-34"/>
       <use xlink:href="#DejaVuSans-30" x="63.623047"/>
       <use xlink:href="#DejaVuSans-30" x="127.246094"/>
      </g>
     </g>
    </g>
    <g id="xtick_6">
     <g id="line2d_11">
      <path d="M 367.029959 252 
L 367.029959 34.56 
" clip-path="url(#pe002c4cb17)" style="fill: none; stroke: #b0b0b0; stroke-width: 0.8; stroke-linecap: square"/>
     </g>
     <g id="line2d_12">
      <g>
       <use xlink:href="#mda175bdfb7" x="367.029959" y="252" style="stroke: #000000; stroke-width: 0.8"/>
      </g>
     </g>
     <g id="text_6">
      <!-- 500 -->
      <g transform="translate(357.486209 266.598437)scale(0.1 -0.1)">
       <defs>
        <path id="DejaVuSans-35" d="M 691 4666 
L 3169 4666 
L 3169 4134 
L 1269 4134 
L 1269 2991 
Q 1406 3038 1543 3061 
Q 1681 3084 1819 3084 
Q 2600 3084 3056 2656 
Q 3513 2228 3513 1497 
Q 3513 744 3044 326 
Q 2575 -91 1722 -91 
Q 1428 -91 1123 -41 
Q 819 9 494 109 
L 494 744 
Q 775 591 1075 516 
Q 1375 441 1709 441 
Q 2250 441 2565 725 
Q 2881 1009 2881 1497 
Q 2881 1984 2565 2268 
Q 2250 2553 1709 2553 
Q 1456 2553 1204 2497 
Q 953 2441 691 2322 
L 691 4666 
z
" transform="scale(0.015625)"/>
       </defs>
       <use xlink:href="#DejaVuSans-35"/>
       <use xlink:href="#DejaVuSans-30" x="63.623047"/>
       <use xlink:href="#DejaVuSans-30" x="127.246094"/>
      </g>
     </g>
    </g>
    <g id="text_7">
     <!-- bin -->
     <g transform="translate(213.667969 280.276563)scale(0.1 -0.1)">
      <defs>
       <path id="DejaVuSans-62" d="M 3116 1747 
Q 3116 2381 2855 2742 
Q 2594 3103 2138 3103 
Q 1681 3103 1420 2742 
Q 1159 2381 1159 1747 
Q 1159 1113 1420 752 
Q 1681 391 2138 391 
Q 2594 391 2855 752 
Q 3116 1113 3116 1747 
z
M 1159 2969 
Q 1341 3281 1617 3432 
Q 1894 3584 2278 3584 
Q 2916 3584 3314 3078 
Q 3713 2572 3713 1747 
Q 3713 922 3314 415 
Q 2916 -91 2278 -91 
Q 1894 -91 1617 61 
Q 1341 213 1159 525 
L 1159 0 
L 581 0 
L 581 4863 
L 1159 4863 
L 1159 2969 
z
" transform="scale(0.015625)"/>
       <path id="DejaVuSans-69" d="M 603 3500 
L 1178 3500 
L 1178 0 
L 603 0 
L 603 3500 
z
M 603 4863 
L 1178 4863 
L 1178 4134 
L 603 4134 
L 603 4863 
z
" transform="scale(0.015625)"/>
       <path id="DejaVuSans-6e" d="M 3513 2113 
L 3513 0 
L 2938 0 
L 2938 2094 
Q 2938 2591 2744 2837 
Q 2550 3084 2163 3084 
Q 1697 3084 1428 2787 
Q 1159 2491 1159 1978 
L 1159 0 
L 581 0 
L 581 3500 
L 1159 3500 
L 1159 2956 
Q 1366 3272 1645 3428 
Q 1925 3584 2291 3584 
Q 2894 3584 3203 3211 
Q 3513 2838 3513 2113 
z
" transform="scale(0.015625)"/>
      </defs>
      <use xlink:href="#DejaVuSans-62"/>
      <use xlink:href="#DejaVuSans-69" x="63.476562"/>
      <use xlink:href="#DejaVuSans-6e" x="91.259766"/>
     </g>
    </g>
   </g>
   <g id="matplotlib.axis_2">
    <g id="ytick_1">
     <g id="line2d_13">
      <path d="M 54 252 
L 388.8 252 
" clip-path="url(#pe002c4cb17)" style="fill: none; stroke: #b0b0b0; stroke-width: 0.8; stroke-linecap: square"/>
     </g>
     <g id="line2d_14">
      <defs>
       <path id="mda8e5149d6" d="M 0 0 
L -3.5 0 
" style="stroke: #000000; stroke-width: 0.8"/>
      </defs>
      <g>
       <use xlink:href="#mda8e5149d6" x="54" y="252" style="stroke: #000000; stroke-width: 0.8"/>
      </g>
     </g>
     <g id="text_8">
      <!-- 0.0 -->
      <g transform="translate(31.096875 255.799219)scale(0.1 -0.1)">
       <defs>
        <path id="DejaVuSans-2e" d="M 684 794 
L 1344 794 
L 1344 0 
L 684 0 
L 684 794 
z
" transform="scale(0.015625)"/>
       </defs>
       <use xlink:href="#DejaVuSans-30"/>
       <use xlink:href="#DejaVuSans-2e" x="63.623047"/>
       <use xlink:href="#DejaVuSans-30" x="95.410156"/>
      </g>
     </g>
    </g>
    <g id="ytick_2">
     <g id="line2d_15">
      <path d="M 54 208.512 
L 388.8 208.512 
" clip-path="url(#pe002c4cb17)" style="fill: none; stroke: #b0b0b0; stroke-width: 0.8; stroke-linecap: square"/>
     </g>
     <g id="line2d_16">
      <g>
       <use xlink:href="#mda8e5149d6" x="54" y="208.512" style="stroke: #000000; stroke-width: 0.8"/>
      </g>
     </g>
     <g id="text_9">
      <!-- 0.2 -->
      <g transform="translate(31.096875 212.311219)scale(0.1 -0.1)">
       <use xlink:href="#DejaVuSans-30"/>
       <use xlink:href="#DejaVuSans-2e" x="63.623047"/>
       <use xlink:href="#DejaVuSans-32" x="95.410156"/>
      </g>
     </g>
    </g>
    <g id="ytick_3">
     <g id="line2d_17">
      <path d="M 54 165.024 
L 388.8 165.024 
" clip-path="url(#pe002c4cb17)" style="fill: none; stroke: #b0b0b0; stroke-width: 0.8; stroke-linecap: square"/>
     </g>
     <g id="line2d_18">
      <g>
       <use xlink:href="#mda8e5149d6" x="54" y="165.024" style="stroke: #000000; stroke-width: 0.8"/>
      </g>
     </g>
     <g id="text_10">
      <!-- 0.4 -->
      <g transform="translate(31.096875 168.823219)scale(0.1 -0.1)">
       <use xlink:href="#DejaVuSans-30"/>
       <use xlink:href="#DejaVuSans-2e" x="63.623047"/>
       <use xlink:href="#DejaVuSans-34" x="95.410156"/>
      </g>
     </g>
    </g>
    <g id="ytick_4">
     <g id="line2d_19">
      <path d="M 54 121.536 
L 388.8 121.536 
" clip-path="url(#pe002c4cb17)" style="fill: none; stroke: #b0b0b0; stroke-width: 0.8; stroke-linecap: square"/>
     </g>
     <g id="line2d_20">
      <g>
       <use xlink:href="#mda8e5149d6" x="54" y="121.536" style="stroke: #000000; stroke-width: 0.8"/>
      </g>
     </g>
     <g id="text_11">
      <!-- 0.6 -->
      <g transform="translate(31.096875 125.335219)scale(0.1 -0.1)">
       <defs>
        <path id="DejaVuSans-36" d="M 2113 2584 
Q 1688 2584 1439 2293 
Q 1191 2003 1191 1497 
Q 1191 994 1439 701 
Q 1688 409 2113 409 
Q 2538 409 2786 701 
Q 3034 994 3034 1497 
Q 3034 2003 2786 2293 
Q 2538 2584 2113 2584 
z
M 3366 4563 
L 3366 3988 
Q 3128 4100 2886 4159 
Q 2644 4219 2406 4219 
Q 1781 4219 1451 3797 
Q 1122 3375 1075 2522 
Q 1259 2794 1537 2939 
Q 1816 3084 2150 3084 
Q 2853 3084 3261 2657 
Q 3669 2231 3669 1497 
Q 3669 778 3244 343 
Q 2819 -91 2113 -91 
Q 1303 -91 875 529 
Q 447 1150 447 2328 
Q 447 3434 972 4092 
Q 1497 4750 2381 4750 
Q 2619 4750 2861 4703 
Q 3103 4656 3366 4563 
z
" transform="scale(0.015625)"/>
       </defs>
       <use xlink:href="#DejaVuSans-30"/>
       <use xlink:href="#DejaVuSans-2e" x="63.623047"/>
       <use xlink:href="#DejaVuSans-36" x="95.410156"/>
      </g>
     </g>
    </g>
    <g id="ytick_5">
     <g id="line2d_21">
      <path d="M 54 78.048 
L 388.8 78.048 
" clip-path="url(#pe002c4cb17)" style="fill: none; stroke: #b0b0b0; stroke-width: 0.8; stroke-linecap: square"/>
     </g>
     <g id="line2d_22">
      <g>
       <use xlink:href="#mda8e5149d6" x="54" y="78.048" style="stroke: #000000; stroke-width: 0.8"/>
      </g>
     </g>
     <g id="text_12">
      <!-- 0.8 -->
      <g transform="translate(31.096875 81.847219)scale(0.1 -0.1)">
       <defs>
        <path id="DejaVuSans-38" d="M 2034 2216 
Q 1584 2216 1326 1975 
Q 1069 1734 1069 1313 
Q 1069 891 1326 650 
Q 1584 409 2034 409 
Q 2484 409 2743 651 
Q 3003 894 3003 1313 
Q 3003 1734 2745 1975 
Q 2488 2216 2034 2216 
z
M 1403 2484 
Q 997 2584 770 2862 
Q 544 3141 544 3541 
Q 544 4100 942 4425 
Q 1341 4750 2034 4750 
Q 2731 4750 3128 4425 
Q 3525 4100 3525 3541 
Q 3525 3141 3298 2862 
Q 3072 2584 2669 2484 
Q 3125 2378 3379 2068 
Q 3634 1759 3634 1313 
Q 3634 634 3220 271 
Q 2806 -91 2034 -91 
Q 1263 -91 848 271 
Q 434 634 434 1313 
Q 434 1759 690 2068 
Q 947 2378 1403 2484 
z
M 1172 3481 
Q 1172 3119 1398 2916 
Q 1625 2713 2034 2713 
Q 2441 2713 2670 2916 
Q 2900 3119 2900 3481 
Q 2900 3844 2670 4047 
Q 2441 4250 2034 4250 
Q 1625 4250 1398 4047 
Q 1172 3844 1172 3481 
z
" transform="scale(0.015625)"/>
       </defs>
       <use xlink:href="#DejaVuSans-30"/>
       <use xlink:href="#DejaVuSans-2e" x="63.623047"/>
       <use xlink:href="#DejaVuSans-38" x="95.410156"/>
      </g>
     </g>
    </g>
    <g id="ytick_6">
     <g id="line2d_23">
      <path d="M 54 34.56 
L 388.8 34.56 
" clip-path="url(#pe002c4cb17)" style="fill: none; stroke: #b0b0b0; stroke-width: 0.8; stroke-linecap: square"/>
     </g>
     <g id="line2d_24">
      <g>
       <use xlink:href="#mda8e5149d6" x="54" y="34.56" style="stroke: #000000; stroke-width: 0.8"/>
      </g>
     </g>
     <g id="text_13">
      <!-- 1.0 -->
      <g transform="translate(31.096875 38.359219)scale(0.1 -0.1)">
       <use xlink:href="#DejaVuSans-31"/>
       <use xlink:href="#DejaVuSans-2e" x="63.623047"/>
       <use xlink:href="#DejaVuSans-30" x="95.410156"/>
      </g>
     </g>
    </g>
    <g id="text_14">
     <!-- count -->
     <g transform="translate(25.017187 157.38625)rotate(-90)scale(0.1 -0.1)">
      <defs>
       <path id="DejaVuSans-63" d="M 3122 3366 
L 3122 2828 
Q 2878 2963 2633 3030 
Q 2388 3097 2138 3097 
Q 1578 3097 1268 2742 
Q 959 2388 959 1747 
Q 959 1106 1268 751 
Q 1578 397 2138 397 
Q 2388 397 2633 464 
Q 2878 531 3122 666 
L 3122 134 
Q 2881 22 2623 -34 
Q 2366 -91 2075 -91 
Q 1284 -91 818 406 
Q 353 903 353 1747 
Q 353 2603 823 3093 
Q 1294 3584 2113 3584 
Q 2378 3584 2631 3529 
Q 2884 3475 3122 3366 
z
" transform="scale(0.015625)"/>
       <path id="DejaVuSans-6f" d="M 1959 3097 
Q 1497 3097 1228 2736 
Q 959 2375 959 1747 
Q 959 1119 1226 758 
Q 1494 397 1959 397 
Q 2419 397 2687 759 
Q 2956 1122 2956 1747 
Q 2956 2369 2687 2733 
Q 2419 3097 1959 3097 
z
M 1959 3584 
Q 2709 3584 3137 3096 
Q 3566 2609 3566 1747 
Q 3566 888 3137 398 
Q 2709 -91 1959 -91 
Q 1206 -91 779 398 
Q 353 888 353 1747 
Q 353 2609 779 3096 
Q 1206 3584 1959 3584 
z
" transform="scale(0.015625)"/>
       <path id="DejaVuSans-75" d="M 544 1381 
L 544 3500 
L 1119 3500 
L 1119 1403 
Q 1119 906 1312 657 
Q 1506 409 1894 409 
Q 2359 409 2629 706 
Q 2900 1003 2900 1516 
L 2900 3500 
L 3475 3500 
L 3475 0 
L 2900 0 
L 2900 538 
Q 2691 219 2414 64 
Q 2138 -91 1772 -91 
Q 1169 -91 856 284 
Q 544 659 544 1381 
z
M 1991 3584 
L 1991 3584 
z
" transform="scale(0.015625)"/>
       <path id="DejaVuSans-74" d="M 1172 4494 
L 1172 3500 
L 2356 3500 
L 2356 3053 
L 1172 3053 
L 1172 1153 
Q 1172 725 1289 603 
Q 1406 481 1766 481 
L 2356 481 
L 2356 0 
L 1766 0 
Q 1100 0 847 248 
Q 594 497 594 1153 
L 594 3053 
L 172 3053 
L 172 3500 
L 594 3500 
L 594 4494 
L 1172 4494 
z
" transform="scale(0.015625)"/>
      </defs>
      <use xlink:href="#DejaVuSans-63"/>
      <use xlink:href="#DejaVuSans-6f" x="54.980469"/>
      <use xlink:href="#DejaVuSans-75" x="116.162109"/>
      <use xlink:href="#DejaVuSans-6e" x="179.541016"/>
      <use xlink:href="#DejaVuSans-74" x="242.919922"/>
     </g>
    </g>
   </g>
   <g id="line2d_25">
    <path d="M 69.218182 233.430744 
L 69.813805 238.22281 
L 70.409429 218.455537 
L 71.005052 226.841653 
L 71.600676 240.618843 
L 72.1963 241.81686 
L 72.791923 229.237686 
L 73.387547 228.039669 
L 73.98317 241.217851 
L 74.578794 234.029752 
L 75.174417 236.425785 
L 75.770041 252 
L 76.365664 232.232727 
L 76.961288 243.014876 
L 77.556912 237.623802 
L 78.152535 225.044628 
L 78.748159 228.638678 
L 79.343782 226.841653 
L 79.939406 231.633719 
L 80.535029 231.633719 
L 81.130653 231.034711 
L 81.726276 245.410909 
L 82.3219 231.034711 
L 82.917524 232.232727 
L 83.513147 240.618843 
L 84.108771 219.054545 
L 84.704394 227.440661 
L 85.300018 237.623802 
L 85.895641 229.237686 
L 86.491265 239.420826 
L 87.086888 231.034711 
L 87.682512 226.242645 
L 88.278136 232.232727 
L 88.873759 240.618843 
L 89.469383 235.826777 
L 90.065006 232.831736 
L 90.66063 238.821818 
L 91.256253 237.623802 
L 91.851877 231.034711 
L 92.4475 231.633719 
L 93.043124 233.430744 
L 93.638748 231.633719 
L 94.234371 232.831736 
L 94.829995 237.623802 
L 95.425618 236.425785 
L 96.021242 225.643636 
L 96.616865 234.029752 
L 97.212489 237.623802 
L 97.808112 237.024793 
L 98.403736 237.623802 
L 98.99936 244.811901 
L 99.594983 243.014876 
L 100.190607 231.633719 
L 100.78623 234.62876 
L 101.381854 234.62876 
L 101.977477 235.227769 
L 102.573101 240.618843 
L 103.168724 237.623802 
L 103.764348 229.237686 
L 104.359972 226.242645 
L 104.955595 230.435702 
L 105.551219 223.846612 
L 106.146842 226.841653 
L 106.742466 234.029752 
L 107.338089 233.430744 
L 107.933713 235.227769 
L 108.529336 231.034711 
L 109.12496 228.638678 
L 109.720584 233.430744 
L 110.316207 232.831736 
L 110.911831 220.85157 
L 111.507454 234.029752 
L 112.103078 218.455537 
L 112.698701 233.430744 
L 113.294325 229.237686 
L 113.889948 228.638678 
L 114.485572 225.643636 
L 115.081196 237.024793 
L 115.676819 237.024793 
L 116.272443 250.202975 
L 116.868066 223.846612 
L 117.46369 234.62876 
L 118.059313 235.826777 
L 118.654937 235.227769 
L 119.25056 221.450579 
L 119.846184 232.232727 
L 120.441808 234.62876 
L 121.037431 238.821818 
L 121.633055 234.62876 
L 122.228678 226.841653 
L 122.824302 229.237686 
L 123.419925 235.826777 
L 124.015549 235.227769 
L 124.611172 226.242645 
L 125.206796 229.237686 
L 125.802419 232.831736 
L 126.398043 231.034711 
L 126.993667 238.22281 
L 127.58929 234.029752 
L 128.184914 237.024793 
L 128.780537 228.638678 
L 129.376161 237.024793 
L 129.971784 231.633719 
L 130.567408 235.227769 
L 131.163031 234.029752 
L 131.758655 229.836694 
L 132.354279 237.024793 
L 132.949902 226.242645 
L 133.545526 232.232727 
L 134.141149 228.039669 
L 134.736773 236.425785 
L 135.332396 235.227769 
L 135.92802 235.227769 
L 136.523643 229.836694 
L 137.119267 232.831736 
L 137.714891 228.638678 
L 138.310514 228.039669 
L 138.906138 238.22281 
L 139.501761 243.014876 
L 140.097385 245.410909 
L 140.693008 232.831736 
L 141.288632 237.024793 
L 142.479879 223.846612 
L 143.075503 226.242645 
L 143.671126 225.643636 
L 144.26675 228.039669 
L 144.862373 231.034711 
L 145.457997 235.227769 
L 146.05362 240.618843 
L 146.649244 243.014876 
L 147.244867 238.22281 
L 147.840491 239.420826 
L 148.436115 219.653554 
L 149.031738 235.227769 
L 149.627362 229.237686 
L 150.222985 237.623802 
L 150.818609 228.638678 
L 151.414232 235.826777 
L 152.605479 238.22281 
L 153.201103 232.831736 
L 153.796727 234.62876 
L 154.39235 244.212893 
L 154.987974 234.029752 
L 155.583597 234.62876 
L 156.179221 233.430744 
L 156.774844 234.029752 
L 157.370468 229.237686 
L 157.966091 231.633719 
L 158.561715 224.44562 
L 159.157339 240.618843 
L 159.752962 232.232727 
L 160.348586 234.029752 
L 160.944209 227.440661 
L 161.539833 234.029752 
L 162.135456 231.034711 
L 162.73108 229.836694 
L 163.326703 234.62876 
L 163.922327 234.029752 
L 164.517951 238.821818 
L 165.113574 223.846612 
L 165.709198 220.85157 
L 166.900445 235.227769 
L 167.496068 241.81686 
L 168.091692 233.430744 
L 168.687315 235.826777 
L 169.282939 233.430744 
L 169.878563 238.821818 
L 170.474186 226.841653 
L 171.06981 232.831736 
L 171.665433 225.643636 
L 172.261057 232.232727 
L 172.85668 231.034711 
L 173.452304 225.044628 
L 174.047927 235.227769 
L 174.643551 237.024793 
L 175.239175 224.44562 
L 175.834798 228.039669 
L 176.430422 230.435702 
L 177.026045 233.430744 
L 177.621669 242.415868 
L 178.217292 230.435702 
L 178.812916 233.430744 
L 179.408539 234.62876 
L 180.004163 232.831736 
L 180.599787 240.618843 
L 181.19541 240.618843 
L 182.386657 234.62876 
L 182.982281 226.242645 
L 184.173528 235.826777 
L 184.769151 230.435702 
L 185.364775 228.638678 
L 185.960399 222.648595 
L 186.556022 243.014876 
L 187.151646 243.014876 
L 187.747269 231.633719 
L 188.342893 191.500165 
L 188.938516 124.41124 
L 189.53414 78.287603 
L 190.129763 89.069752 
L 190.725387 154.361653 
L 191.32101 205.876364 
L 191.916634 232.232727 
L 192.512258 229.836694 
L 193.107881 235.227769 
L 193.703505 234.62876 
L 194.299128 234.62876 
L 194.894752 239.420826 
L 195.490375 238.22281 
L 196.085999 240.019835 
L 196.681622 211.866446 
L 197.277246 176.524959 
L 197.87287 170.534876 
L 198.468493 126.807273 
L 199.064117 49.535207 
L 199.65974 34.56 
L 200.255364 45.342149 
L 201.446611 131.000331 
L 202.042234 173.529917 
L 202.637858 205.876364 
L 203.233482 227.440661 
L 203.829105 233.430744 
L 204.424729 230.435702 
L 205.020352 225.643636 
L 205.615976 223.846612 
L 206.211599 240.019835 
L 206.807223 238.22281 
L 207.402846 230.435702 
L 207.99847 238.821818 
L 208.594094 226.242645 
L 209.189717 225.044628 
L 209.785341 240.618843 
L 210.380964 243.014876 
L 210.976588 232.232727 
L 211.572211 235.227769 
L 212.167835 229.237686 
L 212.763458 227.440661 
L 213.359082 243.014876 
L 213.954706 227.440661 
L 214.550329 235.227769 
L 215.145953 237.024793 
L 216.3372 231.034711 
L 216.932823 229.237686 
L 217.528447 235.227769 
L 218.12407 230.435702 
L 218.719694 232.831736 
L 219.315318 227.440661 
L 220.506565 233.430744 
L 221.102188 231.633719 
L 221.697812 232.232727 
L 222.293435 226.242645 
L 222.889059 238.22281 
L 223.484682 240.618843 
L 224.080306 235.227769 
L 224.67593 237.024793 
L 225.271553 235.227769 
L 225.867177 231.633719 
L 226.4628 240.618843 
L 227.058424 236.425785 
L 227.654047 233.430744 
L 228.249671 235.227769 
L 228.845294 240.019835 
L 229.440918 231.034711 
L 230.036542 231.633719 
L 230.632165 235.227769 
L 231.227789 225.643636 
L 231.823412 231.633719 
L 232.419036 228.039669 
L 233.014659 229.836694 
L 233.610283 229.836694 
L 234.205906 219.653554 
L 234.80153 235.826777 
L 235.397154 217.257521 
L 235.992777 234.62876 
L 236.588401 233.430744 
L 237.184024 226.841653 
L 237.779648 229.836694 
L 238.375271 231.633719 
L 238.970895 219.653554 
L 239.566518 220.85157 
L 240.162142 244.811901 
L 240.757766 247.806942 
L 241.353389 225.044628 
L 241.949013 232.232727 
L 242.544636 237.024793 
L 243.14026 230.435702 
L 243.735883 230.435702 
L 244.331507 239.420826 
L 244.92713 238.821818 
L 245.522754 229.836694 
L 246.118378 235.826777 
L 246.714001 231.034711 
L 247.309625 232.831736 
L 247.905248 229.836694 
L 248.500872 223.846612 
L 249.096495 237.623802 
L 249.692119 232.232727 
L 250.287742 231.633719 
L 250.883366 230.435702 
L 251.47899 228.039669 
L 252.074613 235.227769 
L 252.670237 228.638678 
L 253.26586 234.029752 
L 253.861484 233.430744 
L 254.457107 235.826777 
L 255.052731 233.430744 
L 255.648354 236.425785 
L 256.243978 247.207934 
L 256.839601 235.227769 
L 257.435225 234.029752 
L 258.030849 223.247603 
L 258.626472 229.237686 
L 259.222096 227.440661 
L 259.817719 234.029752 
L 260.413343 238.821818 
L 261.008966 229.836694 
L 261.60459 232.232727 
L 262.200213 237.024793 
L 262.795837 228.638678 
L 263.391461 238.821818 
L 263.987084 236.425785 
L 264.582708 220.252562 
L 265.178331 232.831736 
L 265.773955 231.034711 
L 266.369578 231.633719 
L 266.965202 230.435702 
L 267.560825 232.831736 
L 268.156449 242.415868 
L 268.752073 235.227769 
L 269.347696 238.22281 
L 269.94332 231.034711 
L 270.538943 220.85157 
L 271.134567 233.430744 
L 271.73019 229.237686 
L 272.325814 234.62876 
L 272.921437 232.831736 
L 273.517061 231.633719 
L 274.112685 229.836694 
L 274.708308 232.232727 
L 275.303932 229.836694 
L 276.495179 240.019835 
L 277.090802 231.633719 
L 277.686426 230.435702 
L 278.282049 234.029752 
L 278.877673 232.831736 
L 279.473297 235.227769 
L 280.06892 222.648595 
L 280.664544 237.623802 
L 281.260167 228.039669 
L 281.855791 229.836694 
L 282.451414 239.420826 
L 283.047038 229.237686 
L 283.642661 229.237686 
L 284.238285 231.034711 
L 284.833909 235.227769 
L 285.429532 232.831736 
L 286.025156 243.613884 
L 286.620779 232.232727 
L 287.216403 228.638678 
L 287.812026 237.623802 
L 288.40765 217.257521 
L 289.598897 240.618843 
L 290.194521 237.623802 
L 290.790144 228.039669 
L 291.385768 235.826777 
L 291.981391 233.430744 
L 292.577015 234.029752 
L 293.172638 223.846612 
L 293.768262 232.831736 
L 294.363885 238.821818 
L 294.959509 229.237686 
L 295.555133 238.821818 
L 296.150756 229.836694 
L 296.74638 238.22281 
L 297.342003 237.024793 
L 297.937627 230.435702 
L 298.53325 230.435702 
L 299.128874 236.425785 
L 299.724497 238.821818 
L 300.320121 231.034711 
L 300.915745 236.425785 
L 301.511368 231.633719 
L 302.106992 228.638678 
L 302.702615 226.841653 
L 303.893862 239.420826 
L 304.489486 239.420826 
L 305.085109 223.247603 
L 305.680733 226.841653 
L 306.276357 238.22281 
L 306.87198 238.821818 
L 307.467604 240.019835 
L 308.063227 228.638678 
L 308.658851 234.029752 
L 309.254474 230.435702 
L 309.850098 236.425785 
L 310.445721 232.831736 
L 311.041345 234.029752 
L 311.636969 238.22281 
L 312.232592 238.821818 
L 312.828216 242.415868 
L 313.423839 222.648595 
L 314.019463 246.608926 
L 314.615086 235.227769 
L 315.21071 231.034711 
L 316.401957 232.232727 
L 316.997581 232.232727 
L 317.593204 225.643636 
L 318.188828 231.034711 
L 318.784451 233.430744 
L 319.380075 237.024793 
L 319.975698 232.232727 
L 320.571322 232.232727 
L 321.166945 234.029752 
L 321.762569 231.633719 
L 322.358192 226.841653 
L 322.953816 228.638678 
L 323.54944 222.648595 
L 324.740687 243.613884 
L 325.33631 232.232727 
L 325.931934 235.826777 
L 326.527557 226.841653 
L 327.123181 232.831736 
L 327.718804 231.034711 
L 328.314428 231.633719 
L 328.910052 231.034711 
L 329.505675 238.821818 
L 330.101299 223.247603 
L 330.696922 238.22281 
L 331.292546 231.633719 
L 331.888169 236.425785 
L 332.483793 234.029752 
L 333.079416 239.420826 
L 333.67504 229.237686 
L 334.270664 239.420826 
L 334.866287 228.039669 
L 335.461911 235.227769 
L 336.057534 237.024793 
L 336.653158 234.62876 
L 337.248781 229.836694 
L 337.844405 236.425785 
L 338.440028 238.22281 
L 339.035652 238.22281 
L 339.631276 241.217851 
L 340.822523 229.836694 
L 341.418146 231.633719 
L 342.609393 240.618843 
L 343.205017 225.643636 
L 343.80064 231.633719 
L 344.396264 241.217851 
L 344.991888 227.440661 
L 345.587511 235.826777 
L 346.183135 230.435702 
L 346.778758 229.237686 
L 347.374382 232.831736 
L 347.970005 226.841653 
L 348.565629 233.430744 
L 349.161252 237.623802 
L 349.756876 240.019835 
L 350.3525 231.633719 
L 350.948123 234.62876 
L 351.543747 226.841653 
L 352.13937 224.44562 
L 352.734994 229.836694 
L 353.330617 229.237686 
L 353.926241 232.831736 
L 354.521864 240.019835 
L 355.117488 235.227769 
L 355.713112 228.638678 
L 356.308735 228.638678 
L 356.904359 232.232727 
L 357.499982 225.643636 
L 358.095606 226.242645 
L 358.691229 228.638678 
L 359.286853 217.856529 
L 359.882476 234.029752 
L 360.4781 238.22281 
L 361.073724 223.247603 
L 361.669347 241.217851 
L 362.264971 226.841653 
L 362.860594 227.440661 
L 363.456218 240.019835 
L 364.051841 232.232727 
L 364.647465 222.049587 
L 365.243088 235.826777 
L 366.434336 232.232727 
L 367.029959 232.232727 
L 368.221206 244.212893 
L 369.412453 227.440661 
L 370.008077 235.227769 
L 370.6037 229.836694 
L 371.199324 228.638678 
L 371.794948 234.029752 
L 372.390571 234.029752 
L 372.986195 234.62876 
L 373.581818 235.826777 
L 373.581818 235.826777 
" clip-path="url(#pe002c4cb17)" style="fill: none; stroke: #1f77b4; stroke-width: 1.5; stroke-linecap: square"/>
   </g>
   <g id="line2d_26">
    <path d="M 69.218182 222.5248 
L 69.813805 219.1424 
L 70.409429 227.3568 
L 71.005052 225.9072 
L 71.600676 229.2896 
L 72.1963 234.1216 
L 72.791923 221.5584 
L 73.387547 229.7728 
L 73.98317 229.7728 
L 74.578794 214.3104 
L 75.174417 233.1552 
L 75.770041 224.9408 
L 76.365664 232.672 
L 76.961288 233.1552 
L 77.556912 220.592 
L 78.152535 222.5248 
L 78.748159 237.9872 
L 79.343782 216.2432 
L 79.939406 231.2224 
L 80.535029 225.9072 
L 81.130653 225.424 
L 81.726276 223.9744 
L 82.3219 231.2224 
L 82.917524 229.2896 
L 83.513147 221.5584 
L 84.108771 233.1552 
L 84.704394 231.7056 
L 85.895641 223.9744 
L 86.491265 223.9744 
L 87.086888 212.3776 
L 87.682512 218.176 
L 88.278136 222.0416 
L 88.873759 223.4912 
L 89.469383 218.176 
L 90.065006 222.0416 
L 90.66063 223.9744 
L 91.256253 221.5584 
L 91.851877 230.7392 
L 92.4475 217.6928 
L 93.043124 237.504 
L 93.638748 226.8736 
L 94.234371 232.1888 
L 94.829995 233.6384 
L 95.425618 217.6928 
L 96.021242 223.008 
L 96.616865 237.9872 
L 97.212489 223.4912 
L 97.808112 213.344 
L 98.403736 234.1216 
L 98.99936 229.7728 
L 99.594983 230.7392 
L 100.190607 242.336 
L 100.78623 223.4912 
L 101.381854 231.7056 
L 101.977477 231.2224 
L 102.573101 217.6928 
L 103.168724 238.4704 
L 103.764348 223.9744 
L 104.359972 219.6256 
L 104.955595 220.592 
L 105.551219 224.4576 
L 106.146842 231.7056 
L 106.742466 215.76 
L 107.338089 227.84 
L 107.933713 219.6256 
L 108.529336 237.0208 
L 109.12496 236.5376 
L 110.316207 219.1424 
L 110.911831 233.6384 
L 111.507454 235.088 
L 112.103078 224.4576 
L 112.698701 217.6928 
L 113.294325 225.424 
L 113.889948 228.3232 
L 114.485572 224.9408 
L 115.081196 227.3568 
L 115.676819 227.3568 
L 116.272443 224.4576 
L 116.868066 214.3104 
L 117.46369 229.7728 
L 118.059313 228.8064 
L 118.654937 234.1216 
L 119.25056 218.6592 
L 119.846184 229.2896 
L 120.441808 228.8064 
L 121.037431 234.6048 
L 121.633055 223.008 
L 122.228678 224.4576 
L 122.824302 225.424 
L 123.419925 237.504 
L 124.015549 239.4368 
L 124.611172 235.088 
L 125.206796 221.0752 
L 125.802419 237.0208 
L 126.398043 221.5584 
L 126.993667 233.1552 
L 127.58929 224.9408 
L 128.184914 225.9072 
L 128.780537 228.3232 
L 129.376161 238.4704 
L 129.971784 220.592 
L 130.567408 220.1088 
L 131.163031 225.424 
L 131.758655 221.0752 
L 132.354279 224.4576 
L 132.949902 222.5248 
L 133.545526 226.8736 
L 134.141149 222.5248 
L 134.736773 235.088 
L 135.332396 219.6256 
L 135.92802 225.424 
L 136.523643 237.504 
L 137.119267 214.7936 
L 137.714891 214.3104 
L 138.310514 221.0752 
L 138.906138 217.2096 
L 139.501761 232.672 
L 140.097385 224.4576 
L 140.693008 231.7056 
L 141.288632 216.2432 
L 142.479879 225.9072 
L 143.075503 236.0544 
L 143.671126 224.9408 
L 144.26675 226.8736 
L 144.862373 225.9072 
L 145.457997 235.088 
L 146.05362 229.7728 
L 146.649244 209.9616 
L 147.244867 229.7728 
L 147.840491 221.0752 
L 148.436115 229.7728 
L 149.031738 228.3232 
L 149.627362 223.4912 
L 150.222985 235.5712 
L 150.818609 233.6384 
L 151.414232 231.2224 
L 152.009856 229.7728 
L 152.605479 229.2896 
L 153.201103 233.6384 
L 153.796727 227.84 
L 154.39235 229.2896 
L 154.987974 222.0416 
L 155.583597 237.0208 
L 156.179221 232.1888 
L 156.774844 208.9952 
L 157.370468 226.3904 
L 157.966091 227.3568 
L 158.561715 232.672 
L 159.157339 233.1552 
L 159.752962 218.176 
L 160.348586 225.424 
L 160.944209 223.008 
L 161.539833 234.6048 
L 162.135456 212.8608 
L 162.73108 218.176 
L 163.326703 216.7264 
L 163.922327 225.9072 
L 164.517951 217.6928 
L 165.113574 221.5584 
L 165.709198 227.84 
L 166.304821 216.7264 
L 166.900445 220.592 
L 167.496068 216.2432 
L 168.091692 242.8192 
L 168.687315 220.592 
L 169.282939 230.7392 
L 169.878563 228.8064 
L 171.06981 223.4912 
L 171.665433 222.0416 
L 172.261057 223.9744 
L 172.85668 234.6048 
L 173.452304 227.3568 
L 174.047927 226.3904 
L 174.643551 223.008 
L 175.239175 216.7264 
L 175.834798 218.6592 
L 176.430422 235.088 
L 177.026045 239.92 
L 177.621669 230.7392 
L 178.217292 252 
L 178.812916 234.1216 
L 180.004163 216.7264 
L 180.599787 195.9488 
L 181.19541 122.9856 
L 181.791034 72.2496 
L 182.386657 83.8464 
L 182.982281 137.4816 
L 183.577904 203.68 
L 184.173528 230.256 
L 184.769151 220.592 
L 185.364775 232.1888 
L 185.960399 222.0416 
L 186.556022 208.0288 
L 187.151646 227.84 
L 187.747269 227.84 
L 188.342893 215.76 
L 188.938516 216.7264 
L 189.53414 186.768 
L 191.32101 51.9552 
L 191.916634 68.8672 
L 192.512258 34.56 
L 193.107881 76.1152 
L 193.703505 135.5488 
L 194.299128 171.3056 
L 194.894752 200.2976 
L 195.490375 223.008 
L 196.085999 213.344 
L 196.681622 233.1552 
L 197.277246 226.3904 
L 197.87287 216.2432 
L 198.468493 221.0752 
L 199.064117 223.9744 
L 199.65974 222.5248 
L 200.255364 219.6256 
L 200.850987 229.7728 
L 201.446611 223.9744 
L 202.042234 226.8736 
L 202.637858 225.424 
L 203.233482 218.6592 
L 203.829105 225.9072 
L 204.424729 225.424 
L 205.020352 220.592 
L 205.615976 236.0544 
L 206.211599 239.92 
L 206.807223 235.5712 
L 207.402846 228.8064 
L 207.99847 225.9072 
L 208.594094 232.672 
L 209.189717 219.6256 
L 209.785341 236.0544 
L 210.380964 219.1424 
L 210.976588 219.1424 
L 211.572211 225.424 
L 212.167835 228.3232 
L 212.763458 226.8736 
L 213.359082 221.0752 
L 213.954706 238.9536 
L 214.550329 216.2432 
L 215.145953 235.5712 
L 215.741576 234.1216 
L 216.3372 212.8608 
L 216.932823 227.84 
L 217.528447 223.4912 
L 218.12407 228.3232 
L 218.719694 214.3104 
L 219.315318 238.4704 
L 219.910941 218.176 
L 220.506565 220.592 
L 221.102188 232.672 
L 221.697812 223.008 
L 222.293435 227.84 
L 222.889059 234.6048 
L 223.484682 227.3568 
L 224.080306 231.2224 
L 224.67593 218.6592 
L 225.271553 223.008 
L 225.867177 216.7264 
L 226.4628 232.672 
L 227.058424 217.6928 
L 227.654047 232.672 
L 228.249671 223.9744 
L 228.845294 224.9408 
L 229.440918 219.6256 
L 230.036542 234.1216 
L 230.632165 223.9744 
L 231.823412 224.9408 
L 232.419036 239.4368 
L 233.014659 237.9872 
L 233.610283 223.4912 
L 234.205906 222.0416 
L 234.80153 233.1552 
L 235.397154 216.7264 
L 235.992777 229.7728 
L 236.588401 228.3232 
L 237.184024 212.3776 
L 238.375271 235.088 
L 238.970895 227.84 
L 239.566518 237.0208 
L 240.162142 214.3104 
L 240.757766 232.1888 
L 241.353389 233.6384 
L 241.949013 215.76 
L 242.544636 225.9072 
L 243.14026 239.4368 
L 243.735883 216.7264 
L 244.331507 223.008 
L 244.92713 210.928 
L 245.522754 223.9744 
L 246.118378 225.424 
L 246.714001 227.3568 
L 247.309625 217.6928 
L 247.905248 227.84 
L 248.500872 219.6256 
L 249.096495 220.1088 
L 249.692119 227.84 
L 250.287742 222.5248 
L 250.883366 231.2224 
L 251.47899 225.9072 
L 252.074613 243.7856 
L 252.670237 225.424 
L 253.26586 225.424 
L 253.861484 217.6928 
L 254.457107 219.6256 
L 255.052731 227.84 
L 255.648354 220.592 
L 256.243978 227.84 
L 256.839601 213.8272 
L 257.435225 226.3904 
L 258.030849 224.4576 
L 258.626472 210.928 
L 259.222096 230.7392 
L 259.817719 223.008 
L 260.413343 223.008 
L 261.008966 230.7392 
L 261.60459 219.6256 
L 262.795837 234.6048 
L 263.391461 230.256 
L 263.987084 223.008 
L 264.582708 229.7728 
L 265.178331 231.7056 
L 265.773955 230.256 
L 266.369578 214.3104 
L 266.965202 232.1888 
L 268.156449 219.1424 
L 268.752073 226.8736 
L 269.347696 226.8736 
L 270.538943 237.9872 
L 271.134567 225.424 
L 271.73019 218.176 
L 272.325814 215.2768 
L 272.921437 230.7392 
L 273.517061 224.4576 
L 274.112685 220.592 
L 274.708308 236.5376 
L 275.899555 220.1088 
L 276.495179 218.6592 
L 277.090802 221.0752 
L 277.686426 208.9952 
L 278.282049 228.8064 
L 278.877673 213.8272 
L 279.473297 219.1424 
L 280.06892 228.3232 
L 280.664544 232.672 
L 281.260167 231.7056 
L 281.855791 233.1552 
L 282.451414 236.0544 
L 283.047038 235.088 
L 283.642661 222.5248 
L 284.238285 226.3904 
L 284.833909 229.2896 
L 285.429532 219.1424 
L 286.025156 236.5376 
L 286.620779 230.7392 
L 287.216403 243.7856 
L 287.812026 239.4368 
L 288.40765 227.3568 
L 289.003273 229.7728 
L 289.598897 223.008 
L 290.194521 222.0416 
L 291.385768 237.504 
L 291.981391 223.9744 
L 292.577015 226.8736 
L 293.768262 222.0416 
L 294.363885 224.4576 
L 294.959509 234.1216 
L 295.555133 232.1888 
L 296.150756 223.9744 
L 296.74638 210.4448 
L 297.342003 220.592 
L 297.937627 206.096 
L 298.53325 234.1216 
L 299.128874 222.0416 
L 299.724497 224.9408 
L 300.320121 230.7392 
L 300.915745 211.4112 
L 301.511368 223.008 
L 302.106992 223.008 
L 302.702615 228.8064 
L 303.298239 216.2432 
L 303.893862 214.3104 
L 304.489486 224.9408 
L 305.085109 231.2224 
L 305.680733 223.9744 
L 306.276357 228.8064 
L 306.87198 230.256 
L 307.467604 223.9744 
L 308.063227 211.8944 
L 308.658851 228.3232 
L 309.254474 226.3904 
L 309.850098 223.008 
L 310.445721 215.2768 
L 311.041345 227.3568 
L 311.636969 218.176 
L 312.232592 232.1888 
L 312.828216 210.928 
L 313.423839 227.84 
L 314.019463 234.6048 
L 314.615086 231.2224 
L 315.21071 217.6928 
L 315.806333 217.2096 
L 316.401957 225.9072 
L 316.997581 224.9408 
L 317.593204 227.84 
L 318.188828 221.0752 
L 318.784451 237.9872 
L 319.380075 233.1552 
L 319.975698 226.3904 
L 320.571322 232.1888 
L 321.166945 230.7392 
L 321.762569 233.6384 
L 322.953816 220.1088 
L 323.54944 227.84 
L 324.145063 228.8064 
L 324.740687 220.592 
L 325.33631 229.7728 
L 325.931934 231.2224 
L 326.527557 223.9744 
L 327.123181 225.9072 
L 327.718804 216.2432 
L 328.314428 242.336 
L 328.910052 230.7392 
L 329.505675 224.4576 
L 330.101299 215.76 
L 330.696922 236.5376 
L 331.292546 222.5248 
L 331.888169 230.7392 
L 332.483793 210.4448 
L 333.079416 218.6592 
L 333.67504 231.7056 
L 334.270664 214.7936 
L 334.866287 231.7056 
L 335.461911 230.7392 
L 336.057534 233.1552 
L 337.248781 222.0416 
L 337.844405 232.1888 
L 338.440028 207.5456 
L 339.035652 220.1088 
L 339.631276 223.4912 
L 340.226899 219.1424 
L 340.822523 228.3232 
L 341.418146 232.1888 
L 342.01377 224.4576 
L 342.609393 225.9072 
L 343.205017 213.344 
L 343.80064 217.6928 
L 344.396264 233.1552 
L 344.991888 228.3232 
L 345.587511 221.0752 
L 346.183135 232.672 
L 346.778758 224.9408 
L 347.374382 219.1424 
L 347.970005 218.176 
L 348.565629 220.592 
L 349.161252 218.6592 
L 349.756876 214.7936 
L 350.3525 226.8736 
L 350.948123 219.6256 
L 351.543747 232.1888 
L 352.13937 230.256 
L 352.734994 239.92 
L 353.330617 231.2224 
L 353.926241 204.1632 
L 354.521864 231.2224 
L 355.117488 232.1888 
L 355.713112 241.8528 
L 356.308735 227.3568 
L 356.904359 237.0208 
L 357.499982 225.424 
L 358.095606 220.592 
L 358.691229 216.7264 
L 359.286853 211.4112 
L 359.882476 234.1216 
L 360.4781 224.4576 
L 361.073724 218.6592 
L 361.669347 219.1424 
L 362.264971 241.8528 
L 362.860594 230.256 
L 363.456218 227.3568 
L 364.051841 233.6384 
L 364.647465 228.8064 
L 365.243088 216.7264 
L 365.838712 227.84 
L 366.434336 231.7056 
L 367.029959 227.84 
L 367.625583 233.1552 
L 368.221206 228.3232 
L 368.81683 224.9408 
L 369.412453 213.344 
L 370.008077 236.5376 
L 370.6037 231.2224 
L 371.199324 222.0416 
L 371.794948 224.9408 
L 372.390571 229.7728 
L 372.986195 215.2768 
L 373.581818 226.8736 
L 373.581818 226.8736 
" clip-path="url(#pe002c4cb17)" style="fill: none; stroke: #ff7f0e; stroke-width: 1.5; stroke-linecap: square"/>
   </g>
   <g id="line2d_27">
    <path d="M 69.218182 218.406742 
L 69.813805 186.645843 
L 70.409429 221.460674 
L 71.005052 220.239101 
L 71.600676 233.065618 
L 72.1963 222.071461 
L 72.791923 213.520449 
L 73.387547 192.753708 
L 73.98317 204.358652 
L 74.578794 191.532135 
L 75.174417 222.071461 
L 75.770041 226.957753 
L 76.365664 241.005843 
L 76.961288 214.742022 
L 77.556912 226.346966 
L 78.152535 214.742022 
L 78.748159 225.73618 
L 79.343782 245.892135 
L 79.939406 215.963596 
L 80.535029 197.64 
L 81.130653 225.73618 
L 81.726276 235.508764 
L 82.3219 210.466517 
L 82.917524 211.68809 
L 83.513147 209.85573 
L 84.108771 201.915506 
L 84.704394 205.580225 
L 85.300018 211.077303 
L 85.895641 200.693933 
L 86.491265 201.915506 
L 87.086888 215.963596 
L 87.682512 226.346966 
L 88.278136 212.298876 
L 88.873759 231.233258 
L 89.469383 207.412584 
L 90.065006 215.352809 
L 90.66063 233.676404 
L 92.4475 208.634157 
L 93.043124 211.68809 
L 93.638748 204.969438 
L 94.234371 204.969438 
L 94.829995 219.017528 
L 95.425618 221.460674 
L 96.021242 201.915506 
L 96.616865 211.68809 
L 97.212489 179.316404 
L 97.808112 219.017528 
L 98.403736 216.574382 
L 98.99936 200.083146 
L 99.594983 247.113708 
L 100.190607 224.514607 
L 100.78623 228.179326 
L 101.381854 195.80764 
L 101.977477 213.520449 
L 102.573101 192.142921 
L 103.168724 234.897978 
L 104.359972 198.250787 
L 104.955595 228.790112 
L 105.551219 215.963596 
L 106.146842 191.532135 
L 106.742466 189.699775 
L 107.338089 225.73618 
L 107.933713 206.801798 
L 108.529336 195.80764 
L 109.12496 211.68809 
L 109.720584 205.580225 
L 110.316207 224.514607 
L 110.911831 231.233258 
L 111.507454 216.574382 
L 112.103078 208.023371 
L 112.698701 217.185169 
L 113.294325 232.454831 
L 113.889948 180.537978 
L 114.485572 228.179326 
L 115.081196 225.125393 
L 115.676819 221.460674 
L 116.272443 212.298876 
L 116.868066 210.466517 
L 117.46369 204.969438 
L 118.059313 218.406742 
L 118.654937 217.795955 
L 119.25056 223.90382 
L 119.846184 227.568539 
L 120.441808 194.586067 
L 121.037431 234.897978 
L 121.633055 192.753708 
L 122.228678 229.400899 
L 122.824302 204.358652 
L 123.419925 212.298876 
L 124.015549 215.963596 
L 124.611172 191.532135 
L 125.206796 221.460674 
L 125.802419 206.801798 
L 126.398043 200.693933 
L 127.58929 210.466517 
L 128.184914 226.346966 
L 128.780537 209.85573 
L 129.376161 216.574382 
L 129.971784 215.352809 
L 130.567408 198.250787 
L 131.163031 206.191011 
L 131.758655 206.801798 
L 132.354279 204.969438 
L 132.949902 208.023371 
L 133.545526 239.78427 
L 134.141149 224.514607 
L 134.736773 203.747865 
L 135.332396 202.526292 
L 135.92802 204.969438 
L 136.523643 215.963596 
L 137.119267 214.131236 
L 137.714891 210.466517 
L 138.310514 229.400899 
L 138.906138 201.304719 
L 139.501761 199.47236 
L 140.097385 219.628315 
L 140.693008 225.125393 
L 141.288632 233.065618 
L 141.884255 215.963596 
L 142.479879 221.460674 
L 143.075503 216.574382 
L 143.671126 205.580225 
L 144.26675 203.137079 
L 144.862373 233.065618 
L 145.457997 234.897978 
L 146.05362 211.077303 
L 146.649244 208.023371 
L 147.244867 206.801798 
L 147.840491 216.574382 
L 148.436115 223.293034 
L 149.031738 217.795955 
L 149.627362 203.747865 
L 150.818609 214.742022 
L 151.414232 209.85573 
L 152.009856 193.364494 
L 152.605479 221.460674 
L 153.201103 214.131236 
L 153.796727 247.113708 
L 154.39235 213.520449 
L 154.987974 236.730337 
L 155.583597 220.239101 
L 156.179221 216.574382 
L 156.774844 217.795955 
L 157.370468 220.849888 
L 157.966091 226.957753 
L 158.561715 221.460674 
L 159.157339 194.586067 
L 159.752962 252 
L 160.348586 196.418427 
L 161.539833 213.520449 
L 162.135456 193.975281 
L 162.73108 206.801798 
L 163.326703 215.963596 
L 163.922327 230.622472 
L 164.517951 178.705618 
L 165.709198 215.963596 
L 166.304821 206.801798 
L 166.900445 233.065618 
L 167.496068 211.68809 
L 168.091692 210.466517 
L 168.687315 223.293034 
L 169.282939 225.125393 
L 169.878563 213.520449 
L 170.474186 208.023371 
L 171.06981 228.179326 
L 171.665433 222.682247 
L 172.261057 198.250787 
L 172.85668 237.341124 
L 173.452304 229.400899 
L 174.047927 234.287191 
L 174.643551 185.42427 
L 175.239175 223.90382 
L 175.834798 195.196854 
L 176.430422 223.293034 
L 177.026045 220.849888 
L 177.621669 224.514607 
L 178.217292 208.634157 
L 178.812916 208.023371 
L 179.408539 220.849888 
L 180.004163 238.562697 
L 180.599787 233.065618 
L 181.19541 198.250787 
L 181.791034 197.64 
L 182.386657 227.568539 
L 182.982281 215.963596 
L 183.577904 186.035056 
L 184.173528 197.029213 
L 184.769151 234.287191 
L 185.364775 226.957753 
L 185.960399 224.514607 
L 186.556022 199.47236 
L 187.151646 215.352809 
L 187.747269 210.466517 
L 188.342893 203.137079 
L 188.938516 212.298876 
L 189.53414 213.520449 
L 190.129763 218.406742 
L 190.725387 192.142921 
L 191.32101 209.244944 
L 191.916634 237.341124 
L 192.512258 209.85573 
L 193.107881 230.011685 
L 193.703505 225.73618 
L 194.299128 182.981124 
L 194.894752 208.634157 
L 195.490375 223.90382 
L 196.085999 208.023371 
L 196.681622 225.125393 
L 197.277246 201.304719 
L 197.87287 211.077303 
L 198.468493 234.897978 
L 199.064117 226.957753 
L 199.65974 241.005843 
L 200.255364 228.179326 
L 200.850987 231.844045 
L 201.446611 203.137079 
L 202.042234 223.90382 
L 202.637858 206.801798 
L 203.233482 219.628315 
L 203.829105 215.352809 
L 204.424729 227.568539 
L 205.020352 208.634157 
L 205.615976 233.676404 
L 206.211599 193.975281 
L 206.807223 132.285843 
L 207.402846 57.769888 
L 207.99847 87.698427 
L 208.594094 140.836854 
L 209.189717 173.208539 
L 209.785341 233.065618 
L 210.380964 215.963596 
L 210.976588 217.795955 
L 211.572211 229.400899 
L 212.167835 199.47236 
L 212.763458 215.352809 
L 213.359082 234.897978 
L 213.954706 229.400899 
L 214.550329 197.029213 
L 215.145953 179.316404 
L 215.741576 145.11236 
L 216.3372 97.471011 
L 216.932823 104.189663 
L 217.528447 55.326742 
L 218.12407 34.56 
L 218.719694 65.099326 
L 219.910941 179.316404 
L 220.506565 190.921348 
L 221.102188 213.520449 
L 221.697812 209.244944 
L 222.293435 202.526292 
L 222.889059 206.801798 
L 223.484682 216.574382 
L 224.080306 214.131236 
L 224.67593 203.747865 
L 225.271553 223.90382 
L 225.867177 227.568539 
L 226.4628 227.568539 
L 227.058424 230.622472 
L 227.654047 223.293034 
L 228.249671 206.801798 
L 228.845294 219.017528 
L 229.440918 203.137079 
L 230.036542 211.68809 
L 230.632165 236.119551 
L 231.227789 196.418427 
L 231.823412 201.915506 
L 232.419036 189.088989 
L 233.014659 199.47236 
L 233.610283 200.083146 
L 234.205906 208.023371 
L 234.80153 229.400899 
L 235.992777 201.304719 
L 236.588401 208.634157 
L 237.184024 192.142921 
L 237.779648 217.185169 
L 238.375271 190.310562 
L 238.970895 223.90382 
L 239.566518 233.065618 
L 240.162142 223.293034 
L 240.757766 217.185169 
L 241.353389 228.179326 
L 241.949013 223.90382 
L 242.544636 200.693933 
L 243.14026 220.849888 
L 243.735883 216.574382 
L 244.331507 217.185169 
L 244.92713 245.281348 
L 246.118378 203.747865 
L 246.714001 220.239101 
L 247.309625 211.077303 
L 247.905248 226.346966 
L 248.500872 229.400899 
L 249.692119 211.68809 
L 250.287742 209.244944 
L 250.883366 194.586067 
L 251.47899 215.352809 
L 252.074613 226.346966 
L 252.670237 216.574382 
L 253.26586 229.400899 
L 253.861484 215.352809 
L 254.457107 234.287191 
L 255.052731 206.801798 
L 255.648354 205.580225 
L 256.243978 217.185169 
L 256.839601 222.071461 
L 257.435225 219.017528 
L 258.030849 204.969438 
L 258.626472 239.78427 
L 259.222096 205.580225 
L 259.817719 201.304719 
L 260.413343 206.801798 
L 261.008966 205.580225 
L 261.60459 215.963596 
L 262.200213 207.412584 
L 262.795837 214.742022 
L 263.391461 212.909663 
L 263.987084 211.68809 
L 264.582708 187.256629 
L 265.178331 206.801798 
L 265.773955 217.795955 
L 266.369578 222.071461 
L 266.965202 203.137079 
L 267.560825 212.909663 
L 268.156449 230.622472 
L 268.752073 191.532135 
L 269.347696 234.287191 
L 269.94332 221.460674 
L 270.538943 223.293034 
L 271.134567 225.73618 
L 272.325814 202.526292 
L 272.921437 216.574382 
L 273.517061 187.256629 
L 274.112685 231.233258 
L 275.303932 204.358652 
L 275.899555 225.125393 
L 276.495179 190.310562 
L 277.090802 232.454831 
L 277.686426 228.179326 
L 278.282049 240.395056 
L 278.877673 239.78427 
L 279.473297 197.64 
L 280.06892 217.795955 
L 280.664544 198.250787 
L 281.260167 221.460674 
L 281.855791 201.915506 
L 282.451414 234.287191 
L 283.047038 223.293034 
L 283.642661 208.634157 
L 284.238285 212.909663 
L 284.833909 208.634157 
L 285.429532 228.179326 
L 286.025156 198.250787 
L 286.620779 205.580225 
L 287.216403 203.747865 
L 287.812026 197.64 
L 288.40765 207.412584 
L 289.003273 196.418427 
L 289.598897 203.747865 
L 290.194521 219.628315 
L 290.790144 225.125393 
L 291.385768 220.239101 
L 291.981391 204.969438 
L 292.577015 194.586067 
L 293.172638 221.460674 
L 293.768262 224.514607 
L 294.363885 213.520449 
L 294.959509 229.400899 
L 295.555133 209.85573 
L 296.150756 219.628315 
L 296.74638 207.412584 
L 297.342003 239.173483 
L 297.937627 231.233258 
L 298.53325 234.287191 
L 299.128874 214.131236 
L 299.724497 201.304719 
L 300.320121 228.790112 
L 300.915745 227.568539 
L 301.511368 203.137079 
L 302.106992 217.185169 
L 302.702615 213.520449 
L 303.298239 215.963596 
L 303.893862 212.909663 
L 304.489486 220.849888 
L 305.085109 210.466517 
L 305.680733 208.634157 
L 306.276357 214.131236 
L 306.87198 229.400899 
L 307.467604 189.699775 
L 308.063227 201.915506 
L 308.658851 221.460674 
L 309.254474 215.352809 
L 309.850098 252 
L 310.445721 201.304719 
L 311.041345 222.682247 
L 311.636969 226.346966 
L 312.232592 212.909663 
L 312.828216 187.867416 
L 313.423839 230.011685 
L 314.019463 222.682247 
L 314.615086 211.077303 
L 315.21071 233.065618 
L 315.806333 227.568539 
L 316.401957 202.526292 
L 316.997581 200.083146 
L 318.188828 245.892135 
L 319.380075 190.310562 
L 319.975698 208.023371 
L 320.571322 213.520449 
L 321.166945 228.179326 
L 321.762569 212.298876 
L 322.358192 233.676404 
L 322.953816 224.514607 
L 323.54944 242.227416 
L 324.145063 203.747865 
L 324.740687 223.90382 
L 325.33631 215.963596 
L 325.931934 199.47236 
L 326.527557 214.742022 
L 327.123181 198.250787 
L 327.718804 226.346966 
L 328.314428 206.191011 
L 328.910052 228.790112 
L 330.101299 201.304719 
L 330.696922 211.68809 
L 331.292546 203.747865 
L 331.888169 208.634157 
L 332.483793 193.975281 
L 333.079416 217.185169 
L 333.67504 248.946067 
L 334.270664 190.921348 
L 334.866287 215.963596 
L 335.461911 186.035056 
L 336.057534 203.137079 
L 336.653158 206.191011 
L 337.844405 226.957753 
L 338.440028 208.023371 
L 339.035652 220.849888 
L 339.631276 196.418427 
L 340.226899 231.233258 
L 340.822523 201.304719 
L 341.418146 212.298876 
L 342.01377 216.574382 
L 342.609393 223.293034 
L 343.205017 234.287191 
L 343.80064 220.849888 
L 344.396264 220.239101 
L 344.991888 221.460674 
L 346.183135 212.909663 
L 346.778758 212.909663 
L 347.374382 218.406742 
L 347.970005 231.233258 
L 348.565629 211.077303 
L 349.161252 210.466517 
L 349.756876 212.909663 
L 350.3525 237.341124 
L 350.948123 221.460674 
L 351.543747 214.742022 
L 352.13937 230.011685 
L 352.734994 211.077303 
L 353.330617 198.861573 
L 353.926241 212.298876 
L 354.521864 216.574382 
L 355.117488 210.466517 
L 355.713112 223.293034 
L 356.308735 205.580225 
L 356.904359 206.801798 
L 357.499982 219.017528 
L 358.095606 243.448989 
L 358.691229 212.909663 
L 359.286853 199.47236 
L 359.882476 219.017528 
L 360.4781 223.293034 
L 361.073724 207.412584 
L 361.669347 226.346966 
L 362.264971 220.849888 
L 362.860594 237.341124 
L 363.456218 209.244944 
L 364.051841 204.358652 
L 364.647465 206.191011 
L 365.243088 227.568539 
L 365.838712 209.244944 
L 366.434336 200.083146 
L 367.625583 223.90382 
L 368.221206 219.628315 
L 368.81683 217.185169 
L 369.412453 219.017528 
L 370.008077 213.520449 
L 370.6037 214.131236 
L 371.199324 194.586067 
L 371.794948 211.077303 
L 372.390571 233.065618 
L 372.986195 214.742022 
L 373.581818 215.352809 
L 373.581818 215.352809 
" clip-path="url(#pe002c4cb17)" style="fill: none; stroke: #2ca02c; stroke-width: 1.5; stroke-linecap: square"/>
   </g>
   <g id="patch_3">
    <path d="M 54 252 
L 54 34.56 
" style="fill: none; stroke: #000000; stroke-width: 0.8; stroke-linejoin: miter; stroke-linecap: square"/>
   </g>
   <g id="patch_4">
    <path d="M 388.8 252 
L 388.8 34.56 
" style="fill: none; stroke: #000000; stroke-width: 0.8; stroke-linejoin: miter; stroke-linecap: square"/>
   </g>
   <g id="patch_5">
    <path d="M 54 252 
L 388.8 252 
" style="fill: none; stroke: #000000; stroke-width: 0.8; stroke-linejoin: miter; stroke-linecap: square"/>
   </g>
   <g id="patch_6">
    <path d="M 54 34.56 
L 388.8 34.56 
" style="fill: none; stroke: #000000; stroke-width: 0.8; stroke-linejoin: miter; stroke-linecap: square"/>
   </g>
   <g id="text_15">
    <!-- Label 12 normalized -->
    <g transform="translate(160.423125 28.56)scale(0.12 -0.12)">
     <defs>
      <path id="DejaVuSans-4c" d="M 628 4666 
L 1259 4666 
L 1259 531 
L 3531 531 
L 3531 0 
L 628 0 
L 628 4666 
z
" transform="scale(0.015625)"/>
      <path id="DejaVuSans-61" d="M 2194 1759 
Q 1497 1759 1228 1600 
Q 959 1441 959 1056 
Q 959 750 1161 570 
Q 1363 391 1709 391 
Q 2188 391 2477 730 
Q 2766 1069 2766 1631 
L 2766 1759 
L 2194 1759 
z
M 3341 1997 
L 3341 0 
L 2766 0 
L 2766 531 
Q 2569 213 2275 61 
Q 1981 -91 1556 -91 
Q 1019 -91 701 211 
Q 384 513 384 1019 
Q 384 1609 779 1909 
Q 1175 2209 1959 2209 
L 2766 2209 
L 2766 2266 
Q 2766 2663 2505 2880 
Q 2244 3097 1772 3097 
Q 1472 3097 1187 3025 
Q 903 2953 641 2809 
L 641 3341 
Q 956 3463 1253 3523 
Q 1550 3584 1831 3584 
Q 2591 3584 2966 3190 
Q 3341 2797 3341 1997 
z
" transform="scale(0.015625)"/>
      <path id="DejaVuSans-65" d="M 3597 1894 
L 3597 1613 
L 953 1613 
Q 991 1019 1311 708 
Q 1631 397 2203 397 
Q 2534 397 2845 478 
Q 3156 559 3463 722 
L 3463 178 
Q 3153 47 2828 -22 
Q 2503 -91 2169 -91 
Q 1331 -91 842 396 
Q 353 884 353 1716 
Q 353 2575 817 3079 
Q 1281 3584 2069 3584 
Q 2775 3584 3186 3129 
Q 3597 2675 3597 1894 
z
M 3022 2063 
Q 3016 2534 2758 2815 
Q 2500 3097 2075 3097 
Q 1594 3097 1305 2825 
Q 1016 2553 972 2059 
L 3022 2063 
z
" transform="scale(0.015625)"/>
      <path id="DejaVuSans-6c" d="M 603 4863 
L 1178 4863 
L 1178 0 
L 603 0 
L 603 4863 
z
" transform="scale(0.015625)"/>
      <path id="DejaVuSans-20" transform="scale(0.015625)"/>
      <path id="DejaVuSans-72" d="M 2631 2963 
Q 2534 3019 2420 3045 
Q 2306 3072 2169 3072 
Q 1681 3072 1420 2755 
Q 1159 2438 1159 1844 
L 1159 0 
L 581 0 
L 581 3500 
L 1159 3500 
L 1159 2956 
Q 1341 3275 1631 3429 
Q 1922 3584 2338 3584 
Q 2397 3584 2469 3576 
Q 2541 3569 2628 3553 
L 2631 2963 
z
" transform="scale(0.015625)"/>
      <path id="DejaVuSans-6d" d="M 3328 2828 
Q 3544 3216 3844 3400 
Q 4144 3584 4550 3584 
Q 5097 3584 5394 3201 
Q 5691 2819 5691 2113 
L 5691 0 
L 5113 0 
L 5113 2094 
Q 5113 2597 4934 2840 
Q 4756 3084 4391 3084 
Q 3944 3084 3684 2787 
Q 3425 2491 3425 1978 
L 3425 0 
L 2847 0 
L 2847 2094 
Q 2847 2600 2669 2842 
Q 2491 3084 2119 3084 
Q 1678 3084 1418 2786 
Q 1159 2488 1159 1978 
L 1159 0 
L 581 0 
L 581 3500 
L 1159 3500 
L 1159 2956 
Q 1356 3278 1631 3431 
Q 1906 3584 2284 3584 
Q 2666 3584 2933 3390 
Q 3200 3197 3328 2828 
z
" transform="scale(0.015625)"/>
      <path id="DejaVuSans-7a" d="M 353 3500 
L 3084 3500 
L 3084 2975 
L 922 459 
L 3084 459 
L 3084 0 
L 275 0 
L 275 525 
L 2438 3041 
L 353 3041 
L 353 3500 
z
" transform="scale(0.015625)"/>
      <path id="DejaVuSans-64" d="M 2906 2969 
L 2906 4863 
L 3481 4863 
L 3481 0 
L 2906 0 
L 2906 525 
Q 2725 213 2448 61 
Q 2172 -91 1784 -91 
Q 1150 -91 751 415 
Q 353 922 353 1747 
Q 353 2572 751 3078 
Q 1150 3584 1784 3584 
Q 2172 3584 2448 3432 
Q 2725 3281 2906 2969 
z
M 947 1747 
Q 947 1113 1208 752 
Q 1469 391 1925 391 
Q 2381 391 2643 752 
Q 2906 1113 2906 1747 
Q 2906 2381 2643 2742 
Q 2381 3103 1925 3103 
Q 1469 3103 1208 2742 
Q 947 2381 947 1747 
z
" transform="scale(0.015625)"/>
     </defs>
     <use xlink:href="#DejaVuSans-4c"/>
     <use xlink:href="#DejaVuSans-61" x="55.712891"/>
     <use xlink:href="#DejaVuSans-62" x="116.992188"/>
     <use xlink:href="#DejaVuSans-65" x="180.46875"/>
     <use xlink:href="#DejaVuSans-6c" x="241.992188"/>
     <use xlink:href="#DejaVuSans-20" x="269.775391"/>
     <use xlink:href="#DejaVuSans-31" x="301.5625"/>
     <use xlink:href="#DejaVuSans-32" x="365.185547"/>
     <use xlink:href="#DejaVuSans-20" x="428.808594"/>
     <use xlink:href="#DejaVuSans-6e" x="460.595703"/>
     <use xlink:href="#DejaVuSans-6f" x="523.974609"/>
     <use xlink:href="#DejaVuSans-72" x="585.15625"/>
     <use xlink:href="#DejaVuSans-6d" x="624.519531"/>
     <use xlink:href="#DejaVuSans-61" x="721.931641"/>
     <use xlink:href="#DejaVuSans-6c" x="783.210938"/>
     <use xlink:href="#DejaVuSans-69" x="810.994141"/>
     <use xlink:href="#DejaVuSans-7a" x="838.777344"/>
     <use xlink:href="#DejaVuSans-65" x="891.267578"/>
     <use xlink:href="#DejaVuSans-64" x="952.791016"/>
    </g>
   </g>
   <g id="legend_1">
    <g id="patch_7">
     <path d="M 309.070312 101.2725 
L 381.8 101.2725 
Q 383.8 101.2725 383.8 99.2725 
L 383.8 41.56 
Q 383.8 39.56 381.8 39.56 
L 309.070312 39.56 
Q 307.070312 39.56 307.070312 41.56 
L 307.070312 99.2725 
Q 307.070312 101.2725 309.070312 101.2725 
z
" style="fill: #ffffff; opacity: 0.8; stroke: #cccccc; stroke-linejoin: miter"/>
    </g>
    <g id="text_16">
     <!-- Trace number -->
     <g transform="translate(311.070312 51.158437)scale(0.1 -0.1)">
      <defs>
       <path id="DejaVuSans-54" d="M -19 4666 
L 3928 4666 
L 3928 4134 
L 2272 4134 
L 2272 0 
L 1638 0 
L 1638 4134 
L -19 4134 
L -19 4666 
z
" transform="scale(0.015625)"/>
      </defs>
      <use xlink:href="#DejaVuSans-54"/>
      <use xlink:href="#DejaVuSans-72" x="46.333984"/>
      <use xlink:href="#DejaVuSans-61" x="87.447266"/>
      <use xlink:href="#DejaVuSans-63" x="148.726562"/>
      <use xlink:href="#DejaVuSans-65" x="203.707031"/>
      <use xlink:href="#DejaVuSans-20" x="265.230469"/>
      <use xlink:href="#DejaVuSans-6e" x="297.017578"/>
      <use xlink:href="#DejaVuSans-75" x="360.396484"/>
      <use xlink:href="#DejaVuSans-6d" x="423.775391"/>
      <use xlink:href="#DejaVuSans-62" x="521.1875"/>
      <use xlink:href="#DejaVuSans-65" x="584.664062"/>
      <use xlink:href="#DejaVuSans-72" x="646.1875"/>
     </g>
    </g>
    <g id="line2d_28">
     <path d="M 325.072656 62.336562 
L 335.072656 62.336562 
L 345.072656 62.336562 
" style="fill: none; stroke: #1f77b4; stroke-width: 1.5; stroke-linecap: square"/>
    </g>
    <g id="text_17">
     <!-- 10 -->
     <g transform="translate(353.072656 65.836562)scale(0.1 -0.1)">
      <use xlink:href="#DejaVuSans-31"/>
      <use xlink:href="#DejaVuSans-30" x="63.623047"/>
     </g>
    </g>
    <g id="line2d_29">
     <path d="M 325.072656 77.014687 
L 335.072656 77.014687 
L 345.072656 77.014687 
" style="fill: none; stroke: #ff7f0e; stroke-width: 1.5; stroke-linecap: square"/>
    </g>
    <g id="text_18">
     <!-- 23 -->
     <g transform="translate(353.072656 80.514687)scale(0.1 -0.1)">
      <use xlink:href="#DejaVuSans-32"/>
      <use xlink:href="#DejaVuSans-33" x="63.623047"/>
     </g>
    </g>
    <g id="line2d_30">
     <path d="M 325.072656 91.692813 
L 335.072656 91.692813 
L 345.072656 91.692813 
" style="fill: none; stroke: #2ca02c; stroke-width: 1.5; stroke-linecap: square"/>
    </g>
    <g id="text_19">
     <!-- 35 -->
     <g transform="translate(353.072656 95.192813)scale(0.1 -0.1)">
      <use xlink:href="#DejaVuSans-33"/>
      <use xlink:href="#DejaVuSans-35" x="63.623047"/>
     </g>
    </g>
   </g>
  </g>
 </g>
 <defs>
  <clipPath id="pe002c4cb17">
   <rect x="54" y="34.56" width="334.8" height="217.44"/>
  </clipPath>
 </defs>
</svg>
