<?xml version="1.0" encoding="utf-8" standalone="no"?>
<!DOCTYPE svg PUBLIC "-//W3C//DTD SVG 1.1//EN"
  "http://www.w3.org/Graphics/SVG/1.1/DTD/svg11.dtd">
<svg xmlns:xlink="http://www.w3.org/1999/xlink" width="432pt" height="288pt" viewBox="0 0 432 288" xmlns="http://www.w3.org/2000/svg" version="1.1">
 <metadata>
  <rdf:RDF xmlns:dc="http://purl.org/dc/elements/1.1/" xmlns:cc="http://creativecommons.org/ns#" xmlns:rdf="http://www.w3.org/1999/02/22-rdf-syntax-ns#">
   <cc:Work>
    <dc:type rdf:resource="http://purl.org/dc/dcmitype/StillImage"/>
    <dc:date>2022-03-30T13:16:47.468082</dc:date>
    <dc:format>image/svg+xml</dc:format>
    <dc:creator>
     <cc:Agent>
      <dc:title>Matplotlib v3.5.1, https://matplotlib.org/</dc:title>
     </cc:Agent>
    </dc:creator>
   </cc:Work>
  </rdf:RDF>
 </metadata>
 <defs>
  <style type="text/css">*{stroke-linejoin: round; stroke-linecap: butt}</style>
 </defs>
 <g id="figure_1">
  <g id="patch_1">
   <path d="M 0 288 
L 432 288 
L 432 0 
L 0 0 
z
" style="fill: #ffffff"/>
  </g>
  <g id="axes_1">
   <g id="patch_2">
    <path d="M 54 252 
L 388.8 252 
L 388.8 34.56 
L 54 34.56 
z
" style="fill: #ffffff"/>
   </g>
   <g id="matplotlib.axis_1">
    <g id="xtick_1">
     <g id="line2d_1">
      <path d="M 69.218182 252 
L 69.218182 34.56 
" clip-path="url(#p0f0aa563bb)" style="fill: none; stroke: #b0b0b0; stroke-width: 0.8; stroke-linecap: square"/>
     </g>
     <g id="line2d_2">
      <defs>
       <path id="me63e05dc1d" d="M 0 0 
L 0 3.5 
" style="stroke: #000000; stroke-width: 0.8"/>
      </defs>
      <g>
       <use xlink:href="#me63e05dc1d" x="69.218182" y="252" style="stroke: #000000; stroke-width: 0.8"/>
      </g>
     </g>
     <g id="text_1">
      <!-- 0 -->
      <g transform="translate(66.036932 266.598437)scale(0.1 -0.1)">
       <defs>
        <path id="DejaVuSans-30" d="M 2034 4250 
Q 1547 4250 1301 3770 
Q 1056 3291 1056 2328 
Q 1056 1369 1301 889 
Q 1547 409 2034 409 
Q 2525 409 2770 889 
Q 3016 1369 3016 2328 
Q 3016 3291 2770 3770 
Q 2525 4250 2034 4250 
z
M 2034 4750 
Q 2819 4750 3233 4129 
Q 3647 3509 3647 2328 
Q 3647 1150 3233 529 
Q 2819 -91 2034 -91 
Q 1250 -91 836 529 
Q 422 1150 422 2328 
Q 422 3509 836 4129 
Q 1250 4750 2034 4750 
z
" transform="scale(0.015625)"/>
       </defs>
       <use xlink:href="#DejaVuSans-30"/>
      </g>
     </g>
    </g>
    <g id="xtick_2">
     <g id="line2d_3">
      <path d="M 128.780537 252 
L 128.780537 34.56 
" clip-path="url(#p0f0aa563bb)" style="fill: none; stroke: #b0b0b0; stroke-width: 0.8; stroke-linecap: square"/>
     </g>
     <g id="line2d_4">
      <g>
       <use xlink:href="#me63e05dc1d" x="128.780537" y="252" style="stroke: #000000; stroke-width: 0.8"/>
      </g>
     </g>
     <g id="text_2">
      <!-- 100 -->
      <g transform="translate(119.236787 266.598437)scale(0.1 -0.1)">
       <defs>
        <path id="DejaVuSans-31" d="M 794 531 
L 1825 531 
L 1825 4091 
L 703 3866 
L 703 4441 
L 1819 4666 
L 2450 4666 
L 2450 531 
L 3481 531 
L 3481 0 
L 794 0 
L 794 531 
z
" transform="scale(0.015625)"/>
       </defs>
       <use xlink:href="#DejaVuSans-31"/>
       <use xlink:href="#DejaVuSans-30" x="63.623047"/>
       <use xlink:href="#DejaVuSans-30" x="127.246094"/>
      </g>
     </g>
    </g>
    <g id="xtick_3">
     <g id="line2d_5">
      <path d="M 188.342893 252 
L 188.342893 34.56 
" clip-path="url(#p0f0aa563bb)" style="fill: none; stroke: #b0b0b0; stroke-width: 0.8; stroke-linecap: square"/>
     </g>
     <g id="line2d_6">
      <g>
       <use xlink:href="#me63e05dc1d" x="188.342893" y="252" style="stroke: #000000; stroke-width: 0.8"/>
      </g>
     </g>
     <g id="text_3">
      <!-- 200 -->
      <g transform="translate(178.799143 266.598437)scale(0.1 -0.1)">
       <defs>
        <path id="DejaVuSans-32" d="M 1228 531 
L 3431 531 
L 3431 0 
L 469 0 
L 469 531 
Q 828 903 1448 1529 
Q 2069 2156 2228 2338 
Q 2531 2678 2651 2914 
Q 2772 3150 2772 3378 
Q 2772 3750 2511 3984 
Q 2250 4219 1831 4219 
Q 1534 4219 1204 4116 
Q 875 4013 500 3803 
L 500 4441 
Q 881 4594 1212 4672 
Q 1544 4750 1819 4750 
Q 2544 4750 2975 4387 
Q 3406 4025 3406 3419 
Q 3406 3131 3298 2873 
Q 3191 2616 2906 2266 
Q 2828 2175 2409 1742 
Q 1991 1309 1228 531 
z
" transform="scale(0.015625)"/>
       </defs>
       <use xlink:href="#DejaVuSans-32"/>
       <use xlink:href="#DejaVuSans-30" x="63.623047"/>
       <use xlink:href="#DejaVuSans-30" x="127.246094"/>
      </g>
     </g>
    </g>
    <g id="xtick_4">
     <g id="line2d_7">
      <path d="M 247.905248 252 
L 247.905248 34.56 
" clip-path="url(#p0f0aa563bb)" style="fill: none; stroke: #b0b0b0; stroke-width: 0.8; stroke-linecap: square"/>
     </g>
     <g id="line2d_8">
      <g>
       <use xlink:href="#me63e05dc1d" x="247.905248" y="252" style="stroke: #000000; stroke-width: 0.8"/>
      </g>
     </g>
     <g id="text_4">
      <!-- 300 -->
      <g transform="translate(238.361498 266.598437)scale(0.1 -0.1)">
       <defs>
        <path id="DejaVuSans-33" d="M 2597 2516 
Q 3050 2419 3304 2112 
Q 3559 1806 3559 1356 
Q 3559 666 3084 287 
Q 2609 -91 1734 -91 
Q 1441 -91 1130 -33 
Q 819 25 488 141 
L 488 750 
Q 750 597 1062 519 
Q 1375 441 1716 441 
Q 2309 441 2620 675 
Q 2931 909 2931 1356 
Q 2931 1769 2642 2001 
Q 2353 2234 1838 2234 
L 1294 2234 
L 1294 2753 
L 1863 2753 
Q 2328 2753 2575 2939 
Q 2822 3125 2822 3475 
Q 2822 3834 2567 4026 
Q 2313 4219 1838 4219 
Q 1578 4219 1281 4162 
Q 984 4106 628 3988 
L 628 4550 
Q 988 4650 1302 4700 
Q 1616 4750 1894 4750 
Q 2613 4750 3031 4423 
Q 3450 4097 3450 3541 
Q 3450 3153 3228 2886 
Q 3006 2619 2597 2516 
z
" transform="scale(0.015625)"/>
       </defs>
       <use xlink:href="#DejaVuSans-33"/>
       <use xlink:href="#DejaVuSans-30" x="63.623047"/>
       <use xlink:href="#DejaVuSans-30" x="127.246094"/>
      </g>
     </g>
    </g>
    <g id="xtick_5">
     <g id="line2d_9">
      <path d="M 307.467604 252 
L 307.467604 34.56 
" clip-path="url(#p0f0aa563bb)" style="fill: none; stroke: #b0b0b0; stroke-width: 0.8; stroke-linecap: square"/>
     </g>
     <g id="line2d_10">
      <g>
       <use xlink:href="#me63e05dc1d" x="307.467604" y="252" style="stroke: #000000; stroke-width: 0.8"/>
      </g>
     </g>
     <g id="text_5">
      <!-- 400 -->
      <g transform="translate(297.923854 266.598437)scale(0.1 -0.1)">
       <defs>
        <path id="DejaVuSans-34" d="M 2419 4116 
L 825 1625 
L 2419 1625 
L 2419 4116 
z
M 2253 4666 
L 3047 4666 
L 3047 1625 
L 3713 1625 
L 3713 1100 
L 3047 1100 
L 3047 0 
L 2419 0 
L 2419 1100 
L 313 1100 
L 313 1709 
L 2253 4666 
z
" transform="scale(0.015625)"/>
       </defs>
       <use xlink:href="#DejaVuSans-34"/>
       <use xlink:href="#DejaVuSans-30" x="63.623047"/>
       <use xlink:href="#DejaVuSans-30" x="127.246094"/>
      </g>
     </g>
    </g>
    <g id="xtick_6">
     <g id="line2d_11">
      <path d="M 367.029959 252 
L 367.029959 34.56 
" clip-path="url(#p0f0aa563bb)" style="fill: none; stroke: #b0b0b0; stroke-width: 0.8; stroke-linecap: square"/>
     </g>
     <g id="line2d_12">
      <g>
       <use xlink:href="#me63e05dc1d" x="367.029959" y="252" style="stroke: #000000; stroke-width: 0.8"/>
      </g>
     </g>
     <g id="text_6">
      <!-- 500 -->
      <g transform="translate(357.486209 266.598437)scale(0.1 -0.1)">
       <defs>
        <path id="DejaVuSans-35" d="M 691 4666 
L 3169 4666 
L 3169 4134 
L 1269 4134 
L 1269 2991 
Q 1406 3038 1543 3061 
Q 1681 3084 1819 3084 
Q 2600 3084 3056 2656 
Q 3513 2228 3513 1497 
Q 3513 744 3044 326 
Q 2575 -91 1722 -91 
Q 1428 -91 1123 -41 
Q 819 9 494 109 
L 494 744 
Q 775 591 1075 516 
Q 1375 441 1709 441 
Q 2250 441 2565 725 
Q 2881 1009 2881 1497 
Q 2881 1984 2565 2268 
Q 2250 2553 1709 2553 
Q 1456 2553 1204 2497 
Q 953 2441 691 2322 
L 691 4666 
z
" transform="scale(0.015625)"/>
       </defs>
       <use xlink:href="#DejaVuSans-35"/>
       <use xlink:href="#DejaVuSans-30" x="63.623047"/>
       <use xlink:href="#DejaVuSans-30" x="127.246094"/>
      </g>
     </g>
    </g>
    <g id="text_7">
     <!-- bin -->
     <g transform="translate(213.667969 280.276563)scale(0.1 -0.1)">
      <defs>
       <path id="DejaVuSans-62" d="M 3116 1747 
Q 3116 2381 2855 2742 
Q 2594 3103 2138 3103 
Q 1681 3103 1420 2742 
Q 1159 2381 1159 1747 
Q 1159 1113 1420 752 
Q 1681 391 2138 391 
Q 2594 391 2855 752 
Q 3116 1113 3116 1747 
z
M 1159 2969 
Q 1341 3281 1617 3432 
Q 1894 3584 2278 3584 
Q 2916 3584 3314 3078 
Q 3713 2572 3713 1747 
Q 3713 922 3314 415 
Q 2916 -91 2278 -91 
Q 1894 -91 1617 61 
Q 1341 213 1159 525 
L 1159 0 
L 581 0 
L 581 4863 
L 1159 4863 
L 1159 2969 
z
" transform="scale(0.015625)"/>
       <path id="DejaVuSans-69" d="M 603 3500 
L 1178 3500 
L 1178 0 
L 603 0 
L 603 3500 
z
M 603 4863 
L 1178 4863 
L 1178 4134 
L 603 4134 
L 603 4863 
z
" transform="scale(0.015625)"/>
       <path id="DejaVuSans-6e" d="M 3513 2113 
L 3513 0 
L 2938 0 
L 2938 2094 
Q 2938 2591 2744 2837 
Q 2550 3084 2163 3084 
Q 1697 3084 1428 2787 
Q 1159 2491 1159 1978 
L 1159 0 
L 581 0 
L 581 3500 
L 1159 3500 
L 1159 2956 
Q 1366 3272 1645 3428 
Q 1925 3584 2291 3584 
Q 2894 3584 3203 3211 
Q 3513 2838 3513 2113 
z
" transform="scale(0.015625)"/>
      </defs>
      <use xlink:href="#DejaVuSans-62"/>
      <use xlink:href="#DejaVuSans-69" x="63.476562"/>
      <use xlink:href="#DejaVuSans-6e" x="91.259766"/>
     </g>
    </g>
   </g>
   <g id="matplotlib.axis_2">
    <g id="ytick_1">
     <g id="line2d_13">
      <path d="M 54 252 
L 388.8 252 
" clip-path="url(#p0f0aa563bb)" style="fill: none; stroke: #b0b0b0; stroke-width: 0.8; stroke-linecap: square"/>
     </g>
     <g id="line2d_14">
      <defs>
       <path id="mbb516139f0" d="M 0 0 
L -3.5 0 
" style="stroke: #000000; stroke-width: 0.8"/>
      </defs>
      <g>
       <use xlink:href="#mbb516139f0" x="54" y="252" style="stroke: #000000; stroke-width: 0.8"/>
      </g>
     </g>
     <g id="text_8">
      <!-- 0.0 -->
      <g transform="translate(31.096875 255.799219)scale(0.1 -0.1)">
       <defs>
        <path id="DejaVuSans-2e" d="M 684 794 
L 1344 794 
L 1344 0 
L 684 0 
L 684 794 
z
" transform="scale(0.015625)"/>
       </defs>
       <use xlink:href="#DejaVuSans-30"/>
       <use xlink:href="#DejaVuSans-2e" x="63.623047"/>
       <use xlink:href="#DejaVuSans-30" x="95.410156"/>
      </g>
     </g>
    </g>
    <g id="ytick_2">
     <g id="line2d_15">
      <path d="M 54 208.512 
L 388.8 208.512 
" clip-path="url(#p0f0aa563bb)" style="fill: none; stroke: #b0b0b0; stroke-width: 0.8; stroke-linecap: square"/>
     </g>
     <g id="line2d_16">
      <g>
       <use xlink:href="#mbb516139f0" x="54" y="208.512" style="stroke: #000000; stroke-width: 0.8"/>
      </g>
     </g>
     <g id="text_9">
      <!-- 0.2 -->
      <g transform="translate(31.096875 212.311219)scale(0.1 -0.1)">
       <use xlink:href="#DejaVuSans-30"/>
       <use xlink:href="#DejaVuSans-2e" x="63.623047"/>
       <use xlink:href="#DejaVuSans-32" x="95.410156"/>
      </g>
     </g>
    </g>
    <g id="ytick_3">
     <g id="line2d_17">
      <path d="M 54 165.024 
L 388.8 165.024 
" clip-path="url(#p0f0aa563bb)" style="fill: none; stroke: #b0b0b0; stroke-width: 0.8; stroke-linecap: square"/>
     </g>
     <g id="line2d_18">
      <g>
       <use xlink:href="#mbb516139f0" x="54" y="165.024" style="stroke: #000000; stroke-width: 0.8"/>
      </g>
     </g>
     <g id="text_10">
      <!-- 0.4 -->
      <g transform="translate(31.096875 168.823219)scale(0.1 -0.1)">
       <use xlink:href="#DejaVuSans-30"/>
       <use xlink:href="#DejaVuSans-2e" x="63.623047"/>
       <use xlink:href="#DejaVuSans-34" x="95.410156"/>
      </g>
     </g>
    </g>
    <g id="ytick_4">
     <g id="line2d_19">
      <path d="M 54 121.536 
L 388.8 121.536 
" clip-path="url(#p0f0aa563bb)" style="fill: none; stroke: #b0b0b0; stroke-width: 0.8; stroke-linecap: square"/>
     </g>
     <g id="line2d_20">
      <g>
       <use xlink:href="#mbb516139f0" x="54" y="121.536" style="stroke: #000000; stroke-width: 0.8"/>
      </g>
     </g>
     <g id="text_11">
      <!-- 0.6 -->
      <g transform="translate(31.096875 125.335219)scale(0.1 -0.1)">
       <defs>
        <path id="DejaVuSans-36" d="M 2113 2584 
Q 1688 2584 1439 2293 
Q 1191 2003 1191 1497 
Q 1191 994 1439 701 
Q 1688 409 2113 409 
Q 2538 409 2786 701 
Q 3034 994 3034 1497 
Q 3034 2003 2786 2293 
Q 2538 2584 2113 2584 
z
M 3366 4563 
L 3366 3988 
Q 3128 4100 2886 4159 
Q 2644 4219 2406 4219 
Q 1781 4219 1451 3797 
Q 1122 3375 1075 2522 
Q 1259 2794 1537 2939 
Q 1816 3084 2150 3084 
Q 2853 3084 3261 2657 
Q 3669 2231 3669 1497 
Q 3669 778 3244 343 
Q 2819 -91 2113 -91 
Q 1303 -91 875 529 
Q 447 1150 447 2328 
Q 447 3434 972 4092 
Q 1497 4750 2381 4750 
Q 2619 4750 2861 4703 
Q 3103 4656 3366 4563 
z
" transform="scale(0.015625)"/>
       </defs>
       <use xlink:href="#DejaVuSans-30"/>
       <use xlink:href="#DejaVuSans-2e" x="63.623047"/>
       <use xlink:href="#DejaVuSans-36" x="95.410156"/>
      </g>
     </g>
    </g>
    <g id="ytick_5">
     <g id="line2d_21">
      <path d="M 54 78.048 
L 388.8 78.048 
" clip-path="url(#p0f0aa563bb)" style="fill: none; stroke: #b0b0b0; stroke-width: 0.8; stroke-linecap: square"/>
     </g>
     <g id="line2d_22">
      <g>
       <use xlink:href="#mbb516139f0" x="54" y="78.048" style="stroke: #000000; stroke-width: 0.8"/>
      </g>
     </g>
     <g id="text_12">
      <!-- 0.8 -->
      <g transform="translate(31.096875 81.847219)scale(0.1 -0.1)">
       <defs>
        <path id="DejaVuSans-38" d="M 2034 2216 
Q 1584 2216 1326 1975 
Q 1069 1734 1069 1313 
Q 1069 891 1326 650 
Q 1584 409 2034 409 
Q 2484 409 2743 651 
Q 3003 894 3003 1313 
Q 3003 1734 2745 1975 
Q 2488 2216 2034 2216 
z
M 1403 2484 
Q 997 2584 770 2862 
Q 544 3141 544 3541 
Q 544 4100 942 4425 
Q 1341 4750 2034 4750 
Q 2731 4750 3128 4425 
Q 3525 4100 3525 3541 
Q 3525 3141 3298 2862 
Q 3072 2584 2669 2484 
Q 3125 2378 3379 2068 
Q 3634 1759 3634 1313 
Q 3634 634 3220 271 
Q 2806 -91 2034 -91 
Q 1263 -91 848 271 
Q 434 634 434 1313 
Q 434 1759 690 2068 
Q 947 2378 1403 2484 
z
M 1172 3481 
Q 1172 3119 1398 2916 
Q 1625 2713 2034 2713 
Q 2441 2713 2670 2916 
Q 2900 3119 2900 3481 
Q 2900 3844 2670 4047 
Q 2441 4250 2034 4250 
Q 1625 4250 1398 4047 
Q 1172 3844 1172 3481 
z
" transform="scale(0.015625)"/>
       </defs>
       <use xlink:href="#DejaVuSans-30"/>
       <use xlink:href="#DejaVuSans-2e" x="63.623047"/>
       <use xlink:href="#DejaVuSans-38" x="95.410156"/>
      </g>
     </g>
    </g>
    <g id="ytick_6">
     <g id="line2d_23">
      <path d="M 54 34.56 
L 388.8 34.56 
" clip-path="url(#p0f0aa563bb)" style="fill: none; stroke: #b0b0b0; stroke-width: 0.8; stroke-linecap: square"/>
     </g>
     <g id="line2d_24">
      <g>
       <use xlink:href="#mbb516139f0" x="54" y="34.56" style="stroke: #000000; stroke-width: 0.8"/>
      </g>
     </g>
     <g id="text_13">
      <!-- 1.0 -->
      <g transform="translate(31.096875 38.359219)scale(0.1 -0.1)">
       <use xlink:href="#DejaVuSans-31"/>
       <use xlink:href="#DejaVuSans-2e" x="63.623047"/>
       <use xlink:href="#DejaVuSans-30" x="95.410156"/>
      </g>
     </g>
    </g>
    <g id="text_14">
     <!-- count -->
     <g transform="translate(25.017187 157.38625)rotate(-90)scale(0.1 -0.1)">
      <defs>
       <path id="DejaVuSans-63" d="M 3122 3366 
L 3122 2828 
Q 2878 2963 2633 3030 
Q 2388 3097 2138 3097 
Q 1578 3097 1268 2742 
Q 959 2388 959 1747 
Q 959 1106 1268 751 
Q 1578 397 2138 397 
Q 2388 397 2633 464 
Q 2878 531 3122 666 
L 3122 134 
Q 2881 22 2623 -34 
Q 2366 -91 2075 -91 
Q 1284 -91 818 406 
Q 353 903 353 1747 
Q 353 2603 823 3093 
Q 1294 3584 2113 3584 
Q 2378 3584 2631 3529 
Q 2884 3475 3122 3366 
z
" transform="scale(0.015625)"/>
       <path id="DejaVuSans-6f" d="M 1959 3097 
Q 1497 3097 1228 2736 
Q 959 2375 959 1747 
Q 959 1119 1226 758 
Q 1494 397 1959 397 
Q 2419 397 2687 759 
Q 2956 1122 2956 1747 
Q 2956 2369 2687 2733 
Q 2419 3097 1959 3097 
z
M 1959 3584 
Q 2709 3584 3137 3096 
Q 3566 2609 3566 1747 
Q 3566 888 3137 398 
Q 2709 -91 1959 -91 
Q 1206 -91 779 398 
Q 353 888 353 1747 
Q 353 2609 779 3096 
Q 1206 3584 1959 3584 
z
" transform="scale(0.015625)"/>
       <path id="DejaVuSans-75" d="M 544 1381 
L 544 3500 
L 1119 3500 
L 1119 1403 
Q 1119 906 1312 657 
Q 1506 409 1894 409 
Q 2359 409 2629 706 
Q 2900 1003 2900 1516 
L 2900 3500 
L 3475 3500 
L 3475 0 
L 2900 0 
L 2900 538 
Q 2691 219 2414 64 
Q 2138 -91 1772 -91 
Q 1169 -91 856 284 
Q 544 659 544 1381 
z
M 1991 3584 
L 1991 3584 
z
" transform="scale(0.015625)"/>
       <path id="DejaVuSans-74" d="M 1172 4494 
L 1172 3500 
L 2356 3500 
L 2356 3053 
L 1172 3053 
L 1172 1153 
Q 1172 725 1289 603 
Q 1406 481 1766 481 
L 2356 481 
L 2356 0 
L 1766 0 
Q 1100 0 847 248 
Q 594 497 594 1153 
L 594 3053 
L 172 3053 
L 172 3500 
L 594 3500 
L 594 4494 
L 1172 4494 
z
" transform="scale(0.015625)"/>
      </defs>
      <use xlink:href="#DejaVuSans-63"/>
      <use xlink:href="#DejaVuSans-6f" x="54.980469"/>
      <use xlink:href="#DejaVuSans-75" x="116.162109"/>
      <use xlink:href="#DejaVuSans-6e" x="179.541016"/>
      <use xlink:href="#DejaVuSans-74" x="242.919922"/>
     </g>
    </g>
   </g>
   <g id="line2d_25">
    <path d="M 69.218182 243.825564 
L 69.813805 224.206917 
L 70.409429 239.738346 
L 71.005052 211.945263 
L 71.600676 223.389474 
L 72.1963 240.555789 
L 72.791923 220.119699 
L 73.387547 219.302256 
L 74.578794 228.294135 
L 75.174417 231.56391 
L 75.770041 229.111579 
L 76.365664 227.476692 
L 76.961288 220.937143 
L 78.152535 242.190677 
L 78.748159 232.381353 
L 79.343782 226.659248 
L 79.939406 232.381353 
L 80.535029 211.945263 
L 81.130653 229.111579 
L 81.726276 252 
L 82.3219 219.302256 
L 82.917524 244.643008 
L 83.513147 243.825564 
L 84.108771 227.476692 
L 84.704394 235.651128 
L 85.300018 223.389474 
L 85.895641 226.659248 
L 86.491265 227.476692 
L 87.086888 234.833684 
L 87.682512 219.302256 
L 88.278136 227.476692 
L 88.873759 212.762707 
L 89.469383 234.833684 
L 90.065006 217.667368 
L 90.66063 222.57203 
L 91.256253 238.103459 
L 91.851877 241.373233 
L 92.4475 225.841805 
L 93.043124 213.58015 
L 93.638748 210.310376 
L 94.234371 235.651128 
L 94.829995 231.56391 
L 95.425618 234.016241 
L 96.021242 223.389474 
L 96.616865 229.111579 
L 97.212489 228.294135 
L 97.808112 228.294135 
L 98.403736 239.738346 
L 98.99936 236.468571 
L 99.594983 238.920902 
L 100.190607 220.119699 
L 100.78623 208.675489 
L 101.381854 217.667368 
L 101.977477 217.667368 
L 102.573101 214.397594 
L 103.168724 224.206917 
L 103.764348 225.841805 
L 104.359972 219.302256 
L 104.955595 225.841805 
L 105.551219 228.294135 
L 106.146842 224.206917 
L 106.742466 232.381353 
L 107.338089 238.103459 
L 107.933713 234.833684 
L 108.529336 238.103459 
L 109.12496 233.198797 
L 109.720584 226.659248 
L 110.316207 234.016241 
L 110.911831 244.643008 
L 112.103078 206.223158 
L 112.698701 239.738346 
L 113.294325 219.302256 
L 113.889948 245.460451 
L 114.485572 240.555789 
L 115.081196 223.389474 
L 115.676819 215.215038 
L 116.272443 216.849925 
L 116.868066 220.937143 
L 117.46369 220.119699 
L 118.059313 222.57203 
L 118.654937 224.206917 
L 119.25056 234.016241 
L 119.846184 233.198797 
L 120.441808 236.468571 
L 121.037431 226.659248 
L 122.228678 231.56391 
L 122.824302 233.198797 
L 123.419925 222.57203 
L 124.015549 226.659248 
L 124.611172 221.754586 
L 125.206796 213.58015 
L 126.398043 231.56391 
L 126.993667 222.57203 
L 127.58929 220.119699 
L 128.184914 224.206917 
L 128.780537 240.555789 
L 129.376161 220.937143 
L 129.971784 238.103459 
L 130.567408 226.659248 
L 131.163031 248.730226 
L 131.758655 225.024361 
L 132.354279 231.56391 
L 132.949902 216.849925 
L 133.545526 230.746466 
L 134.141149 229.111579 
L 134.736773 240.555789 
L 135.332396 214.397594 
L 135.92802 208.675489 
L 136.523643 232.381353 
L 137.119267 215.215038 
L 137.714891 241.373233 
L 138.310514 235.651128 
L 138.906138 226.659248 
L 140.097385 220.119699 
L 140.693008 218.484812 
L 141.288632 215.215038 
L 141.884255 233.198797 
L 142.479879 231.56391 
L 143.075503 225.024361 
L 143.671126 215.215038 
L 144.26675 221.754586 
L 144.862373 246.277895 
L 145.457997 240.555789 
L 146.05362 223.389474 
L 147.244867 235.651128 
L 147.840491 229.929023 
L 148.436115 227.476692 
L 149.031738 220.937143 
L 149.627362 221.754586 
L 150.222985 233.198797 
L 150.818609 225.024361 
L 151.414232 241.373233 
L 152.009856 232.381353 
L 152.605479 235.651128 
L 153.201103 234.833684 
L 153.796727 218.484812 
L 154.39235 241.373233 
L 154.987974 220.119699 
L 155.583597 220.937143 
L 156.179221 225.841805 
L 157.370468 219.302256 
L 157.966091 242.190677 
L 158.561715 220.937143 
L 159.157339 234.016241 
L 159.752962 232.381353 
L 160.348586 227.476692 
L 160.944209 219.302256 
L 161.539833 216.849925 
L 162.135456 230.746466 
L 162.73108 223.389474 
L 163.326703 225.841805 
L 163.922327 236.468571 
L 164.517951 239.738346 
L 165.113574 225.841805 
L 165.709198 202.13594 
L 166.304821 228.294135 
L 166.900445 220.119699 
L 167.496068 237.286015 
L 168.091692 225.024361 
L 168.687315 222.57203 
L 169.282939 224.206917 
L 169.878563 213.58015 
L 170.474186 234.833684 
L 171.06981 206.223158 
L 171.665433 230.746466 
L 172.261057 223.389474 
L 172.85668 233.198797 
L 173.452304 217.667368 
L 174.047927 237.286015 
L 174.643551 216.032481 
L 175.239175 233.198797 
L 175.834798 228.294135 
L 176.430422 233.198797 
L 177.026045 236.468571 
L 177.621669 244.643008 
L 178.217292 229.929023 
L 178.812916 226.659248 
L 179.408539 233.198797 
L 180.004163 244.643008 
L 181.19541 221.754586 
L 181.791034 238.920902 
L 182.386657 221.754586 
L 182.982281 224.206917 
L 183.577904 229.929023 
L 184.173528 220.119699 
L 184.769151 235.651128 
L 185.364775 237.286015 
L 185.960399 243.825564 
L 186.556022 204.588271 
L 187.151646 233.198797 
L 187.747269 231.56391 
L 188.342893 216.849925 
L 188.938516 235.651128 
L 189.53414 218.484812 
L 190.129763 226.659248 
L 190.725387 224.206917 
L 191.32101 225.841805 
L 191.916634 238.920902 
L 192.512258 224.206917 
L 193.107881 243.825564 
L 193.703505 225.841805 
L 194.299128 235.651128 
L 194.894752 220.937143 
L 195.490375 229.929023 
L 196.085999 229.929023 
L 196.681622 211.945263 
L 197.277246 225.024361 
L 197.87287 224.206917 
L 198.468493 235.651128 
L 199.064117 234.016241 
L 199.65974 219.302256 
L 200.850987 238.103459 
L 201.446611 233.198797 
L 202.042234 234.833684 
L 202.637858 220.937143 
L 203.233482 221.754586 
L 203.829105 220.937143 
L 204.424729 236.468571 
L 205.020352 229.929023 
L 205.615976 246.277895 
L 206.807223 207.040602 
L 207.402846 207.040602 
L 207.99847 230.746466 
L 208.594094 227.476692 
L 209.189717 225.841805 
L 209.785341 225.024361 
L 210.380964 221.754586 
L 210.976588 221.754586 
L 211.572211 222.57203 
L 212.167835 233.198797 
L 212.763458 205.405714 
L 213.359082 220.119699 
L 213.954706 219.302256 
L 214.550329 230.746466 
L 215.145953 233.198797 
L 215.741576 229.929023 
L 216.3372 233.198797 
L 216.932823 237.286015 
L 217.528447 219.302256 
L 218.12407 234.016241 
L 218.719694 228.294135 
L 219.315318 218.484812 
L 219.910941 238.920902 
L 220.506565 225.024361 
L 221.697812 226.659248 
L 222.293435 229.111579 
L 222.889059 207.858045 
L 223.484682 231.56391 
L 224.080306 224.206917 
L 224.67593 220.937143 
L 225.271553 225.024361 
L 225.867177 234.016241 
L 226.4628 223.389474 
L 227.058424 225.841805 
L 227.654047 224.206917 
L 228.249671 198.866165 
L 228.845294 234.833684 
L 229.440918 238.103459 
L 230.036542 229.929023 
L 230.632165 226.659248 
L 231.227789 226.659248 
L 231.823412 209.492932 
L 232.419036 222.57203 
L 233.014659 225.024361 
L 233.610283 210.310376 
L 234.205906 188.239398 
L 234.80153 184.969624 
L 235.397154 188.239398 
L 235.992777 157.993985 
L 236.588401 150.636992 
L 237.184024 173.525414 
L 237.779648 166.985865 
L 238.375271 172.70797 
L 238.970895 162.898647 
L 239.566518 171.890526 
L 240.162142 198.048722 
L 240.757766 211.945263 
L 241.353389 210.310376 
L 241.949013 212.762707 
L 242.544636 230.746466 
L 243.14026 226.659248 
L 243.735883 206.223158 
L 244.331507 234.016241 
L 244.92713 210.310376 
L 245.522754 232.381353 
L 246.118378 223.389474 
L 246.714001 223.389474 
L 247.309625 215.215038 
L 247.905248 234.016241 
L 249.096495 207.858045 
L 249.692119 210.310376 
L 250.287742 185.787068 
L 250.883366 172.70797 
L 251.47899 162.081203 
L 252.074613 169.438195 
L 252.670237 105.677594 
L 253.26586 101.590376 
L 254.457107 82.789173 
L 255.052731 82.789173 
L 255.648354 69.710075 
L 256.243978 76.249624 
L 256.839601 63.98797 
L 257.435225 74.614737 
L 258.030849 81.971729 
L 258.626472 50.091429 
L 259.222096 63.98797 
L 259.817719 70.527519 
L 260.413343 34.56 
L 261.008966 105.677594 
L 261.60459 112.217143 
L 262.200213 108.129925 
L 262.795837 117.121805 
L 263.391461 119.574135 
L 263.987084 132.653233 
L 264.582708 172.70797 
L 265.178331 179.247519 
L 265.773955 189.056842 
L 266.369578 193.961504 
L 266.965202 222.57203 
L 268.156449 206.223158 
L 268.752073 209.492932 
L 269.347696 220.937143 
L 269.94332 217.667368 
L 270.538943 224.206917 
L 271.134567 243.00812 
L 271.73019 224.206917 
L 272.325814 214.397594 
L 272.921437 232.381353 
L 273.517061 232.381353 
L 274.112685 221.754586 
L 275.303932 223.389474 
L 275.899555 234.833684 
L 276.495179 219.302256 
L 277.090802 238.103459 
L 277.686426 248.730226 
L 278.282049 233.198797 
L 278.877673 222.57203 
L 279.473297 219.302256 
L 280.06892 220.937143 
L 280.664544 229.111579 
L 281.260167 243.00812 
L 282.451414 229.111579 
L 283.047038 230.746466 
L 283.642661 222.57203 
L 284.238285 221.754586 
L 284.833909 237.286015 
L 285.429532 213.58015 
L 286.025156 220.937143 
L 286.620779 231.56391 
L 287.216403 225.024361 
L 287.812026 246.277895 
L 288.40765 221.754586 
L 289.003273 243.825564 
L 289.598897 221.754586 
L 290.194521 220.937143 
L 290.790144 238.103459 
L 291.385768 211.12782 
L 291.981391 221.754586 
L 292.577015 220.937143 
L 293.172638 238.103459 
L 293.768262 211.12782 
L 294.363885 228.294135 
L 294.959509 226.659248 
L 295.555133 221.754586 
L 296.150756 233.198797 
L 296.74638 218.484812 
L 297.342003 243.825564 
L 297.937627 238.103459 
L 298.53325 247.912782 
L 299.128874 233.198797 
L 299.724497 247.912782 
L 300.320121 236.468571 
L 301.511368 234.833684 
L 302.106992 217.667368 
L 302.702615 236.468571 
L 303.298239 234.016241 
L 303.893862 221.754586 
L 304.489486 221.754586 
L 305.085109 219.302256 
L 305.680733 230.746466 
L 306.276357 225.841805 
L 306.87198 216.032481 
L 307.467604 225.841805 
L 308.063227 225.841805 
L 309.254474 220.937143 
L 309.850098 233.198797 
L 310.445721 227.476692 
L 311.041345 219.302256 
L 311.636969 232.381353 
L 312.232592 223.389474 
L 312.828216 227.476692 
L 313.423839 229.111579 
L 314.019463 217.667368 
L 314.615086 238.103459 
L 315.21071 207.040602 
L 315.806333 235.651128 
L 316.401957 222.57203 
L 316.997581 217.667368 
L 317.593204 228.294135 
L 318.188828 225.841805 
L 318.784451 219.302256 
L 319.380075 246.277895 
L 319.975698 218.484812 
L 320.571322 234.016241 
L 321.166945 224.206917 
L 321.762569 224.206917 
L 322.358192 229.111579 
L 322.953816 216.849925 
L 323.54944 235.651128 
L 324.145063 210.310376 
L 324.740687 234.016241 
L 325.33631 227.476692 
L 325.931934 207.040602 
L 326.527557 221.754586 
L 327.123181 214.397594 
L 327.718804 220.937143 
L 328.314428 232.381353 
L 328.910052 224.206917 
L 330.101299 239.738346 
L 330.696922 220.937143 
L 331.292546 229.929023 
L 331.888169 225.024361 
L 332.483793 237.286015 
L 333.079416 229.111579 
L 333.67504 227.476692 
L 334.270664 224.206917 
L 334.866287 236.468571 
L 335.461911 227.476692 
L 336.057534 230.746466 
L 336.653158 217.667368 
L 337.248781 225.841805 
L 337.844405 224.206917 
L 338.440028 235.651128 
L 339.035652 226.659248 
L 339.631276 239.738346 
L 340.226899 233.198797 
L 340.822523 207.040602 
L 341.418146 229.929023 
L 342.01377 217.667368 
L 343.205017 231.56391 
L 343.80064 225.841805 
L 344.396264 206.223158 
L 344.991888 234.833684 
L 345.587511 223.389474 
L 346.183135 236.468571 
L 346.778758 238.103459 
L 347.374382 231.56391 
L 347.970005 229.929023 
L 348.565629 216.032481 
L 349.161252 234.016241 
L 349.756876 224.206917 
L 350.3525 237.286015 
L 350.948123 221.754586 
L 351.543747 220.937143 
L 352.13937 229.111579 
L 352.734994 241.373233 
L 353.330617 234.016241 
L 353.926241 246.277895 
L 354.521864 239.738346 
L 355.117488 220.937143 
L 355.713112 225.841805 
L 356.308735 224.206917 
L 356.904359 225.024361 
L 357.499982 227.476692 
L 358.095606 231.56391 
L 359.286853 206.223158 
L 359.882476 225.841805 
L 360.4781 208.675489 
L 361.073724 221.754586 
L 361.669347 221.754586 
L 362.264971 222.57203 
L 362.860594 237.286015 
L 363.456218 237.286015 
L 364.051841 225.841805 
L 364.647465 243.825564 
L 365.243088 238.103459 
L 365.838712 229.929023 
L 366.434336 231.56391 
L 367.029959 229.929023 
L 367.625583 208.675489 
L 368.221206 233.198797 
L 368.81683 237.286015 
L 369.412453 237.286015 
L 370.008077 234.016241 
L 370.6037 232.381353 
L 371.199324 211.945263 
L 371.794948 223.389474 
L 372.390571 240.555789 
L 372.986195 230.746466 
L 373.581818 247.912782 
L 373.581818 247.912782 
" clip-path="url(#p0f0aa563bb)" style="fill: none; stroke: #1f77b4; stroke-width: 1.5; stroke-linecap: square"/>
   </g>
   <g id="line2d_26">
    <path d="M 69.218182 234.013826 
L 69.813805 232.086736 
L 70.409429 232.407917 
L 71.005052 241.079823 
L 71.600676 237.868006 
L 72.1963 231.765554 
L 72.791923 243.328095 
L 73.387547 232.407917 
L 73.98317 235.619734 
L 74.578794 224.378375 
L 75.174417 229.517282 
L 75.770041 233.371462 
L 76.365664 213.137016 
L 76.961288 222.451285 
L 77.556912 224.378375 
L 78.152535 230.159645 
L 78.748159 222.130103 
L 79.343782 239.152733 
L 79.939406 236.583279 
L 80.535029 239.473914 
L 81.130653 228.874919 
L 81.726276 234.013826 
L 82.3219 228.553737 
L 82.917524 226.947829 
L 83.513147 220.203013 
L 84.108771 221.48774 
L 84.704394 221.166558 
L 85.300018 222.451285 
L 85.895641 234.013826 
L 86.491265 230.159645 
L 87.086888 234.013826 
L 87.682512 228.232555 
L 88.278136 236.262097 
L 88.873759 227.26901 
L 89.469383 223.41483 
L 90.065006 227.26901 
L 90.66063 226.305465 
L 91.256253 230.802009 
L 91.851877 226.947829 
L 92.4475 229.517282 
L 93.043124 233.692644 
L 93.638748 223.736012 
L 94.234371 234.977371 
L 94.829995 239.795096 
L 95.425618 240.758641 
L 96.021242 217.63356 
L 96.616865 245.897548 
L 97.212489 229.838464 
L 97.808112 228.874919 
L 98.403736 232.407917 
L 98.99936 229.1961 
L 99.594983 228.232555 
L 100.190607 232.407917 
L 100.78623 233.050281 
L 101.381854 235.298552 
L 101.977477 239.152733 
L 102.573101 231.123191 
L 103.168724 241.079823 
L 103.764348 225.020739 
L 104.359972 229.517282 
L 104.955595 228.232555 
L 105.551219 229.1961 
L 106.146842 225.020739 
L 106.742466 232.729099 
L 107.338089 222.772467 
L 107.933713 229.838464 
L 108.529336 233.692644 
L 109.12496 235.619734 
L 109.720584 228.232555 
L 110.316207 250.394092 
L 110.911831 226.947829 
L 111.507454 226.947829 
L 112.103078 242.043368 
L 112.698701 231.444372 
L 113.294325 234.977371 
L 113.889948 230.159645 
L 114.485572 230.159645 
L 115.081196 228.553737 
L 115.676819 235.298552 
L 116.272443 229.517282 
L 116.868066 234.335007 
L 117.46369 234.013826 
L 118.059313 229.517282 
L 118.654937 241.401004 
L 119.25056 236.904461 
L 119.846184 240.758641 
L 120.441808 225.020739 
L 121.037431 234.013826 
L 121.633055 226.626647 
L 122.228678 226.305465 
L 122.824302 230.480827 
L 123.419925 224.699557 
L 124.015549 233.692644 
L 124.611172 231.765554 
L 125.206796 228.232555 
L 125.802419 227.911374 
L 126.398043 241.079823 
L 126.993667 217.63356 
L 127.58929 225.663102 
L 128.184914 236.904461 
L 128.780537 239.152733 
L 129.971784 226.626647 
L 130.567408 225.663102 
L 131.163031 227.911374 
L 131.758655 231.123191 
L 132.354279 247.824638 
L 132.949902 234.013826 
L 133.545526 230.480827 
L 134.141149 239.473914 
L 134.736773 222.130103 
L 135.332396 239.795096 
L 135.92802 237.546824 
L 136.523643 239.795096 
L 137.119267 231.444372 
L 137.714891 224.699557 
L 138.310514 227.26901 
L 138.906138 233.371462 
L 139.501761 235.940916 
L 140.097385 228.232555 
L 140.693008 230.802009 
L 141.288632 229.1961 
L 141.884255 231.123191 
L 142.479879 227.26901 
L 143.075503 234.335007 
L 143.671126 227.911374 
L 144.26675 217.312378 
L 144.862373 235.940916 
L 145.457997 241.079823 
L 146.05362 237.868006 
L 146.649244 228.874919 
L 147.244867 226.305465 
L 147.840491 234.013826 
L 148.436115 231.123191 
L 149.627362 248.467001 
L 150.818609 225.663102 
L 151.414232 236.262097 
L 152.009856 227.26901 
L 152.605479 234.013826 
L 153.201103 226.305465 
L 153.796727 231.123191 
L 154.39235 219.239468 
L 154.987974 232.729099 
L 155.583597 237.868006 
L 156.179221 216.027651 
L 156.774844 234.335007 
L 157.370468 229.517282 
L 157.966091 229.517282 
L 158.561715 225.020739 
L 159.157339 234.013826 
L 159.752962 224.699557 
L 160.348586 236.904461 
L 160.944209 229.1961 
L 161.539833 228.874919 
L 162.135456 229.838464 
L 162.73108 228.232555 
L 163.326703 228.874919 
L 163.922327 227.26901 
L 164.517951 228.553737 
L 165.113574 243.006913 
L 166.304821 222.451285 
L 166.900445 225.020739 
L 167.496068 235.619734 
L 168.091692 227.911374 
L 168.687315 242.364549 
L 169.282939 230.159645 
L 169.878563 227.911374 
L 170.474186 227.911374 
L 171.06981 234.013826 
L 171.665433 221.808922 
L 172.261057 220.203013 
L 172.85668 221.808922 
L 173.452304 245.255185 
L 174.047927 223.41483 
L 174.643551 231.123191 
L 175.239175 211.531108 
L 175.834798 201.253294 
L 176.430422 198.362659 
L 177.621669 176.843486 
L 178.217292 174.595214 
L 178.812916 152.112496 
L 179.408539 142.155864 
L 180.004163 148.258316 
L 180.599787 166.886854 
L 181.19541 165.602127 
L 181.791034 158.857312 
L 182.386657 174.595214 
L 182.982281 176.522304 
L 184.173528 197.399114 
L 184.769151 210.888744 
L 185.960399 231.123191 
L 186.556022 218.597105 
L 187.747269 234.656189 
L 188.342893 231.444372 
L 188.938516 234.335007 
L 190.129763 220.845377 
L 190.725387 225.020739 
L 191.32101 220.203013 
L 191.916634 216.991196 
L 192.512258 198.68384 
L 193.107881 184.230665 
L 193.703505 180.055303 
L 194.299128 140.549956 
L 194.894752 146.973589 
L 195.490375 124.812053 
L 196.085999 80.488981 
L 196.681622 73.101802 
L 197.277246 77.277164 
L 197.87287 34.56 
L 198.468493 45.480177 
L 199.65974 46.122541 
L 200.255364 44.837814 
L 200.850987 48.370812 
L 201.446611 36.48709 
L 202.042234 57.042718 
L 202.637858 47.407267 
L 203.233482 50.619084 
L 203.829105 63.466352 
L 204.424729 50.619084 
L 205.020352 53.830901 
L 205.615976 89.160886 
L 206.211599 97.832792 
L 206.807223 129.629778 
L 207.402846 139.265229 
L 208.594094 201.895657 
L 209.189717 186.157755 
L 209.785341 210.246381 
L 210.380964 214.421743 
L 210.976588 221.808922 
L 211.572211 219.239468 
L 212.167835 228.874919 
L 212.763458 228.232555 
L 213.359082 222.130103 
L 213.954706 228.874919 
L 214.550329 223.093648 
L 215.145953 233.371462 
L 215.741576 225.984284 
L 216.3372 235.619734 
L 216.932823 250.07291 
L 217.528447 239.152733 
L 218.12407 224.378375 
L 218.719694 252 
L 219.315318 225.34192 
L 219.910941 235.619734 
L 220.506565 225.663102 
L 221.102188 237.546824 
L 221.697812 233.371462 
L 222.293435 225.663102 
L 222.889059 225.34192 
L 223.484682 232.086736 
L 224.080306 231.765554 
L 224.67593 224.378375 
L 225.271553 233.692644 
L 225.867177 228.232555 
L 226.4628 231.765554 
L 227.058424 222.451285 
L 227.654047 219.56065 
L 228.249671 234.656189 
L 228.845294 223.736012 
L 229.440918 221.166558 
L 230.036542 225.663102 
L 230.632165 237.868006 
L 231.227789 230.480827 
L 231.823412 226.305465 
L 232.419036 231.765554 
L 233.014659 222.130103 
L 233.610283 224.378375 
L 234.205906 246.539911 
L 234.80153 232.407917 
L 235.397154 235.619734 
L 235.992777 227.26901 
L 236.588401 228.874919 
L 237.184024 229.517282 
L 237.779648 230.802009 
L 238.375271 230.159645 
L 238.970895 228.874919 
L 239.566518 226.305465 
L 240.162142 222.772467 
L 240.757766 220.845377 
L 241.353389 238.189188 
L 241.949013 238.510369 
L 242.544636 222.451285 
L 243.735883 225.020739 
L 244.92713 234.977371 
L 245.522754 236.262097 
L 246.118378 229.517282 
L 246.714001 230.480827 
L 247.309625 236.262097 
L 247.905248 226.947829 
L 248.500872 232.086736 
L 249.096495 227.590192 
L 249.692119 234.977371 
L 250.287742 236.262097 
L 250.883366 228.553737 
L 251.47899 226.626647 
L 252.074613 227.911374 
L 252.670237 222.451285 
L 253.26586 225.34192 
L 253.861484 226.947829 
L 254.457107 227.911374 
L 255.052731 233.371462 
L 255.648354 234.656189 
L 256.243978 228.232555 
L 256.839601 226.305465 
L 257.435225 221.166558 
L 258.030849 229.838464 
L 258.626472 225.663102 
L 259.222096 230.802009 
L 259.817719 232.729099 
L 260.413343 227.590192 
L 261.008966 226.947829 
L 261.60459 222.772467 
L 262.200213 224.699557 
L 262.795837 221.808922 
L 263.391461 239.473914 
L 263.987084 244.934003 
L 264.582708 238.510369 
L 265.178331 233.692644 
L 265.773955 237.225643 
L 266.965202 223.41483 
L 267.560825 236.262097 
L 268.156449 228.874919 
L 268.752073 246.539911 
L 269.347696 233.050281 
L 269.94332 229.1961 
L 270.538943 235.298552 
L 271.134567 224.378375 
L 271.73019 243.328095 
L 272.325814 236.904461 
L 272.921437 226.947829 
L 273.517061 229.1961 
L 274.112685 238.189188 
L 274.708308 227.26901 
L 275.303932 226.947829 
L 275.899555 228.874919 
L 276.495179 236.583279 
L 277.090802 241.401004 
L 277.686426 226.626647 
L 278.282049 225.663102 
L 278.877673 220.203013 
L 279.473297 233.692644 
L 280.06892 221.166558 
L 280.664544 225.34192 
L 281.260167 233.050281 
L 281.855791 224.378375 
L 282.451414 234.977371 
L 283.047038 229.838464 
L 283.642661 219.239468 
L 284.238285 237.868006 
L 284.833909 226.626647 
L 285.429532 224.057194 
L 286.025156 225.984284 
L 286.620779 229.1961 
L 287.216403 240.758641 
L 287.812026 225.34192 
L 288.40765 238.510369 
L 289.003273 229.517282 
L 289.598897 229.517282 
L 290.194521 228.232555 
L 290.790144 251.678818 
L 291.385768 233.371462 
L 291.981391 243.006913 
L 292.577015 229.517282 
L 293.172638 224.057194 
L 293.768262 224.699557 
L 294.363885 234.335007 
L 294.959509 228.874919 
L 295.555133 236.904461 
L 296.150756 230.802009 
L 296.74638 236.262097 
L 297.342003 245.255185 
L 297.937627 227.26901 
L 298.53325 243.649276 
L 299.128874 228.874919 
L 299.724497 227.590192 
L 300.320121 237.225643 
L 300.915745 229.1961 
L 301.511368 234.656189 
L 302.106992 234.013826 
L 302.702615 232.729099 
L 303.893862 219.881832 
L 304.489486 242.685731 
L 305.085109 235.940916 
L 306.276357 225.984284 
L 306.87198 231.123191 
L 307.467604 229.838464 
L 308.063227 233.692644 
L 308.658851 231.444372 
L 309.254474 235.298552 
L 309.850098 240.116278 
L 310.445721 229.517282 
L 311.041345 223.41483 
L 311.636969 232.086736 
L 312.232592 225.663102 
L 312.828216 220.845377 
L 313.423839 230.480827 
L 314.019463 230.802009 
L 314.615086 235.940916 
L 315.21071 230.159645 
L 315.806333 228.553737 
L 316.401957 225.663102 
L 316.997581 239.473914 
L 317.593204 237.868006 
L 318.188828 227.590192 
L 318.784451 230.480827 
L 319.380075 216.027651 
L 319.975698 227.26901 
L 320.571322 235.298552 
L 321.166945 225.663102 
L 321.762569 237.546824 
L 322.358192 232.729099 
L 322.953816 226.626647 
L 323.54944 232.729099 
L 324.145063 230.159645 
L 324.740687 234.977371 
L 325.33631 244.612821 
L 325.931934 226.626647 
L 326.527557 223.093648 
L 327.123181 230.802009 
L 327.718804 230.802009 
L 328.314428 224.057194 
L 328.910052 231.765554 
L 329.505675 243.328095 
L 330.101299 238.831551 
L 330.696922 223.736012 
L 331.292546 222.772467 
L 332.483793 245.576366 
L 333.079416 227.911374 
L 333.67504 243.006913 
L 334.270664 232.407917 
L 334.866287 231.123191 
L 335.461911 232.729099 
L 336.057534 236.262097 
L 336.653158 243.649276 
L 337.248781 218.275923 
L 337.844405 240.116278 
L 338.440028 227.911374 
L 339.035652 221.166558 
L 339.631276 226.305465 
L 340.226899 229.838464 
L 340.822523 237.546824 
L 341.418146 233.692644 
L 342.01377 235.298552 
L 342.609393 224.057194 
L 343.80064 228.874919 
L 344.396264 228.232555 
L 344.991888 239.152733 
L 345.587511 225.663102 
L 346.183135 233.371462 
L 346.778758 243.649276 
L 347.374382 235.940916 
L 347.970005 242.043368 
L 348.565629 236.262097 
L 349.756876 228.232555 
L 350.3525 241.079823 
L 350.948123 238.831551 
L 351.543747 225.984284 
L 352.13937 240.116278 
L 352.734994 237.546824 
L 353.330617 232.086736 
L 353.926241 213.458198 
L 354.521864 225.34192 
L 355.117488 231.444372 
L 355.713112 232.729099 
L 356.308735 230.480827 
L 356.904359 232.729099 
L 357.499982 227.590192 
L 358.095606 235.940916 
L 358.691229 222.451285 
L 359.286853 237.546824 
L 359.882476 244.934003 
L 360.4781 229.1961 
L 361.073724 229.517282 
L 361.669347 229.1961 
L 362.264971 235.298552 
L 362.860594 219.56065 
L 363.456218 231.765554 
L 364.051841 230.159645 
L 364.647465 229.517282 
L 365.243088 226.947829 
L 365.838712 223.736012 
L 366.434336 231.765554 
L 367.029959 225.984284 
L 367.625583 217.63356 
L 368.221206 222.451285 
L 368.81683 230.802009 
L 369.412453 235.619734 
L 370.008077 227.590192 
L 370.6037 217.312378 
L 371.199324 234.013826 
L 371.794948 229.838464 
L 372.390571 238.831551 
L 372.986195 231.765554 
L 373.581818 241.079823 
L 373.581818 241.079823 
" clip-path="url(#p0f0aa563bb)" style="fill: none; stroke: #ff7f0e; stroke-width: 1.5; stroke-linecap: square"/>
   </g>
   <g id="line2d_27">
    <path d="M 69.218182 204.985946 
L 69.813805 187.355676 
L 70.409429 196.170811 
L 71.005052 228.492973 
L 71.600676 202.047568 
L 72.1963 202.047568 
L 72.791923 222.616216 
L 73.387547 190.294054 
L 73.98317 202.047568 
L 74.578794 190.294054 
L 75.174417 202.047568 
L 75.770041 237.308108 
L 76.365664 196.170811 
L 76.961288 169.725405 
L 77.556912 175.602162 
L 78.748159 210.862703 
L 79.343782 160.91027 
L 79.939406 202.047568 
L 80.535029 193.232432 
L 81.130653 187.355676 
L 81.726276 219.677838 
L 82.3219 178.540541 
L 82.917524 196.170811 
L 83.513147 207.924324 
L 84.108771 207.924324 
L 84.704394 210.862703 
L 85.300018 193.232432 
L 85.895641 202.047568 
L 86.491265 213.801081 
L 87.086888 199.109189 
L 87.682512 175.602162 
L 88.278136 190.294054 
L 88.873759 207.924324 
L 89.469383 204.985946 
L 90.065006 213.801081 
L 90.66063 178.540541 
L 91.256253 207.924324 
L 91.851877 204.985946 
L 92.4475 196.170811 
L 93.043124 196.170811 
L 93.638748 210.862703 
L 94.234371 216.739459 
L 94.829995 187.355676 
L 95.425618 207.924324 
L 96.021242 172.663784 
L 96.616865 184.417297 
L 97.212489 210.862703 
L 97.808112 216.739459 
L 98.403736 157.971892 
L 98.99936 219.677838 
L 99.594983 216.739459 
L 100.190607 184.417297 
L 100.78623 202.047568 
L 101.381854 181.478919 
L 101.977477 169.725405 
L 102.573101 190.294054 
L 103.168724 234.36973 
L 103.764348 216.739459 
L 104.359972 172.663784 
L 104.955595 181.478919 
L 105.551219 202.047568 
L 106.146842 187.355676 
L 106.742466 199.109189 
L 107.338089 187.355676 
L 107.933713 190.294054 
L 108.529336 225.554595 
L 109.12496 160.91027 
L 109.720584 219.677838 
L 110.316207 196.170811 
L 110.911831 143.28 
L 111.507454 193.232432 
L 112.103078 199.109189 
L 112.698701 196.170811 
L 113.294325 196.170811 
L 113.889948 190.294054 
L 114.485572 187.355676 
L 115.081196 210.862703 
L 115.676819 219.677838 
L 116.272443 196.170811 
L 116.868066 187.355676 
L 117.46369 184.417297 
L 118.059313 202.047568 
L 118.654937 181.478919 
L 119.25056 207.924324 
L 119.846184 210.862703 
L 120.441808 160.91027 
L 121.037431 213.801081 
L 121.633055 196.170811 
L 122.228678 222.616216 
L 122.824302 155.033514 
L 123.419925 222.616216 
L 124.015549 213.801081 
L 124.611172 210.862703 
L 125.206796 155.033514 
L 125.802419 196.170811 
L 126.398043 210.862703 
L 126.993667 190.294054 
L 127.58929 204.985946 
L 128.184914 216.739459 
L 128.780537 175.602162 
L 129.376161 213.801081 
L 129.971784 210.862703 
L 130.567408 181.478919 
L 131.163031 184.417297 
L 131.758655 175.602162 
L 132.354279 231.431351 
L 132.949902 181.478919 
L 133.545526 199.109189 
L 134.141149 204.985946 
L 134.736773 187.355676 
L 135.332396 207.924324 
L 135.92802 222.616216 
L 136.523643 172.663784 
L 137.119267 231.431351 
L 137.714891 175.602162 
L 138.310514 207.924324 
L 138.906138 155.033514 
L 139.501761 184.417297 
L 140.097385 190.294054 
L 140.693008 175.602162 
L 141.288632 204.985946 
L 141.884255 172.663784 
L 142.479879 187.355676 
L 143.075503 210.862703 
L 143.671126 181.478919 
L 144.26675 204.985946 
L 144.862373 169.725405 
L 145.457997 160.91027 
L 146.05362 187.355676 
L 146.649244 187.355676 
L 147.244867 222.616216 
L 147.840491 190.294054 
L 148.436115 193.232432 
L 149.031738 199.109189 
L 149.627362 196.170811 
L 150.222985 172.663784 
L 150.818609 199.109189 
L 151.414232 190.294054 
L 152.009856 178.540541 
L 152.605479 175.602162 
L 153.201103 202.047568 
L 153.796727 152.095135 
L 154.39235 219.677838 
L 154.987974 202.047568 
L 155.583597 225.554595 
L 156.179221 204.985946 
L 156.774844 199.109189 
L 157.370468 166.787027 
L 157.966091 193.232432 
L 158.561715 213.801081 
L 159.157339 184.417297 
L 159.752962 204.985946 
L 160.348586 181.478919 
L 160.944209 213.801081 
L 161.539833 187.355676 
L 162.135456 172.663784 
L 162.73108 163.848649 
L 163.326703 169.725405 
L 163.922327 193.232432 
L 164.517951 163.848649 
L 165.113574 184.417297 
L 165.709198 193.232432 
L 166.304821 166.787027 
L 166.900445 190.294054 
L 167.496068 193.232432 
L 168.687315 204.985946 
L 169.282939 160.91027 
L 169.878563 213.801081 
L 170.474186 225.554595 
L 171.06981 178.540541 
L 171.665433 204.985946 
L 172.261057 181.478919 
L 172.85668 207.924324 
L 173.452304 181.478919 
L 174.047927 181.478919 
L 174.643551 178.540541 
L 175.239175 196.170811 
L 175.834798 222.616216 
L 176.430422 178.540541 
L 177.026045 193.232432 
L 177.621669 181.478919 
L 178.217292 196.170811 
L 178.812916 207.924324 
L 179.408539 184.417297 
L 180.004163 202.047568 
L 180.599787 172.663784 
L 181.19541 202.047568 
L 181.791034 190.294054 
L 182.386657 175.602162 
L 182.982281 149.156757 
L 183.577904 187.355676 
L 184.173528 178.540541 
L 184.769151 210.862703 
L 185.364775 199.109189 
L 185.960399 219.677838 
L 186.556022 178.540541 
L 187.151646 207.924324 
L 187.747269 216.739459 
L 188.342893 187.355676 
L 188.938516 199.109189 
L 189.53414 134.464865 
L 190.129763 199.109189 
L 190.725387 234.36973 
L 191.32101 190.294054 
L 191.916634 181.478919 
L 192.512258 140.341622 
L 193.107881 146.218378 
L 193.703505 196.170811 
L 194.299128 190.294054 
L 194.894752 210.862703 
L 195.490375 193.232432 
L 196.085999 193.232432 
L 196.681622 175.602162 
L 197.277246 210.862703 
L 197.87287 181.478919 
L 198.468493 166.787027 
L 199.064117 210.862703 
L 199.65974 204.985946 
L 200.255364 196.170811 
L 200.850987 190.294054 
L 201.446611 219.677838 
L 202.042234 204.985946 
L 202.637858 178.540541 
L 203.233482 190.294054 
L 203.829105 193.232432 
L 204.424729 190.294054 
L 205.020352 184.417297 
L 205.615976 193.232432 
L 206.211599 204.985946 
L 206.807223 199.109189 
L 207.402846 160.91027 
L 207.99847 202.047568 
L 208.594094 184.417297 
L 209.189717 140.341622 
L 209.785341 204.985946 
L 210.380964 184.417297 
L 210.976588 193.232432 
L 211.572211 155.033514 
L 212.167835 128.588108 
L 212.763458 163.848649 
L 213.359082 137.403243 
L 213.954706 193.232432 
L 214.550329 137.403243 
L 215.145953 146.218378 
L 215.741576 113.896216 
L 216.3372 134.464865 
L 216.932823 175.602162 
L 217.528447 204.985946 
L 218.12407 202.047568 
L 218.719694 175.602162 
L 219.315318 143.28 
L 219.910941 181.478919 
L 220.506565 237.308108 
L 221.102188 222.616216 
L 221.697812 187.355676 
L 222.293435 202.047568 
L 222.889059 207.924324 
L 223.484682 196.170811 
L 224.67593 152.095135 
L 225.271553 193.232432 
L 225.867177 125.64973 
L 226.4628 143.28 
L 227.058424 108.019459 
L 227.654047 134.464865 
L 228.249671 87.450811 
L 228.845294 96.265946 
L 229.440918 78.635676 
L 230.036542 34.56 
L 231.227789 66.882162 
L 231.823412 122.711351 
L 232.419036 49.251892 
L 233.610283 87.450811 
L 234.205906 61.005405 
L 234.80153 96.265946 
L 235.397154 93.327568 
L 235.992777 81.574054 
L 236.588401 55.128649 
L 237.184024 69.820541 
L 238.375271 140.341622 
L 238.970895 157.971892 
L 239.566518 66.882162 
L 240.162142 149.156757 
L 240.757766 163.848649 
L 241.353389 193.232432 
L 241.949013 193.232432 
L 242.544636 175.602162 
L 243.14026 184.417297 
L 243.735883 184.417297 
L 244.331507 172.663784 
L 244.92713 152.095135 
L 245.522754 219.677838 
L 246.118378 204.985946 
L 246.714001 210.862703 
L 247.309625 172.663784 
L 247.905248 160.91027 
L 248.500872 207.924324 
L 249.096495 204.985946 
L 249.692119 210.862703 
L 250.287742 222.616216 
L 250.883366 160.91027 
L 251.47899 190.294054 
L 252.074613 196.170811 
L 252.670237 216.739459 
L 253.26586 187.355676 
L 253.861484 207.924324 
L 254.457107 210.862703 
L 255.052731 196.170811 
L 255.648354 207.924324 
L 256.243978 172.663784 
L 256.839601 163.848649 
L 257.435225 204.985946 
L 258.030849 157.971892 
L 258.626472 187.355676 
L 259.222096 202.047568 
L 259.817719 196.170811 
L 260.413343 202.047568 
L 261.008966 199.109189 
L 261.60459 157.971892 
L 262.200213 199.109189 
L 262.795837 213.801081 
L 263.987084 181.478919 
L 264.582708 193.232432 
L 265.178331 187.355676 
L 266.369578 204.985946 
L 266.965202 219.677838 
L 267.560825 231.431351 
L 268.156449 187.355676 
L 268.752073 225.554595 
L 269.347696 146.218378 
L 269.94332 178.540541 
L 270.538943 231.431351 
L 271.134567 187.355676 
L 271.73019 204.985946 
L 272.325814 181.478919 
L 272.921437 172.663784 
L 273.517061 243.184865 
L 274.112685 146.218378 
L 274.708308 160.91027 
L 275.303932 196.170811 
L 276.495179 207.924324 
L 277.090802 196.170811 
L 277.686426 199.109189 
L 278.282049 181.478919 
L 278.877673 225.554595 
L 279.473297 178.540541 
L 280.06892 222.616216 
L 280.664544 134.464865 
L 281.260167 216.739459 
L 281.855791 196.170811 
L 282.451414 207.924324 
L 283.047038 143.28 
L 283.642661 204.985946 
L 284.238285 172.663784 
L 284.833909 213.801081 
L 285.429532 169.725405 
L 286.025156 181.478919 
L 286.620779 163.848649 
L 287.216403 231.431351 
L 287.812026 207.924324 
L 288.40765 149.156757 
L 289.003273 169.725405 
L 289.598897 178.540541 
L 290.194521 178.540541 
L 290.790144 199.109189 
L 291.385768 172.663784 
L 291.981391 207.924324 
L 292.577015 178.540541 
L 293.172638 181.478919 
L 293.768262 193.232432 
L 294.363885 160.91027 
L 294.959509 172.663784 
L 295.555133 222.616216 
L 296.150756 160.91027 
L 296.74638 219.677838 
L 297.342003 190.294054 
L 297.937627 190.294054 
L 298.53325 184.417297 
L 299.128874 163.848649 
L 299.724497 210.862703 
L 300.320121 166.787027 
L 300.915745 207.924324 
L 302.106992 213.801081 
L 302.702615 181.478919 
L 303.298239 199.109189 
L 303.893862 252 
L 304.489486 193.232432 
L 305.085109 193.232432 
L 305.680733 172.663784 
L 306.276357 216.739459 
L 307.467604 172.663784 
L 308.063227 181.478919 
L 308.658851 169.725405 
L 309.254474 184.417297 
L 309.850098 240.246486 
L 310.445721 210.862703 
L 311.041345 172.663784 
L 311.636969 202.047568 
L 312.232592 149.156757 
L 313.423839 190.294054 
L 314.019463 184.417297 
L 314.615086 202.047568 
L 315.21071 204.985946 
L 315.806333 152.095135 
L 316.997581 202.047568 
L 317.593204 169.725405 
L 318.188828 199.109189 
L 318.784451 163.848649 
L 319.380075 155.033514 
L 319.975698 199.109189 
L 320.571322 172.663784 
L 321.166945 204.985946 
L 321.762569 187.355676 
L 322.358192 155.033514 
L 322.953816 190.294054 
L 323.54944 169.725405 
L 324.145063 199.109189 
L 324.740687 204.985946 
L 325.33631 146.218378 
L 325.931934 166.787027 
L 326.527557 210.862703 
L 327.123181 207.924324 
L 327.718804 210.862703 
L 328.314428 134.464865 
L 328.910052 166.787027 
L 329.505675 160.91027 
L 330.101299 196.170811 
L 330.696922 196.170811 
L 331.292546 187.355676 
L 331.888169 213.801081 
L 332.483793 128.588108 
L 333.079416 157.971892 
L 333.67504 199.109189 
L 334.270664 219.677838 
L 334.866287 187.355676 
L 335.461911 196.170811 
L 336.057534 178.540541 
L 336.653158 234.36973 
L 337.248781 166.787027 
L 337.844405 202.047568 
L 338.440028 163.848649 
L 339.035652 210.862703 
L 339.631276 219.677838 
L 340.226899 181.478919 
L 340.822523 190.294054 
L 341.418146 181.478919 
L 342.01377 196.170811 
L 342.609393 213.801081 
L 343.205017 184.417297 
L 343.80064 199.109189 
L 344.396264 169.725405 
L 344.991888 210.862703 
L 346.183135 131.526486 
L 346.778758 178.540541 
L 347.374382 202.047568 
L 347.970005 178.540541 
L 348.565629 187.355676 
L 349.161252 199.109189 
L 349.756876 196.170811 
L 350.3525 190.294054 
L 350.948123 196.170811 
L 351.543747 178.540541 
L 352.13937 216.739459 
L 352.734994 190.294054 
L 353.330617 178.540541 
L 353.926241 160.91027 
L 354.521864 216.739459 
L 355.117488 199.109189 
L 355.713112 225.554595 
L 356.308735 169.725405 
L 356.904359 216.739459 
L 357.499982 137.403243 
L 358.095606 166.787027 
L 358.691229 175.602162 
L 359.286853 199.109189 
L 359.882476 193.232432 
L 360.4781 172.663784 
L 361.073724 207.924324 
L 361.669347 210.862703 
L 362.264971 202.047568 
L 362.860594 231.431351 
L 363.456218 169.725405 
L 364.051841 187.355676 
L 364.647465 193.232432 
L 365.243088 155.033514 
L 365.838712 175.602162 
L 366.434336 216.739459 
L 367.029959 204.985946 
L 367.625583 166.787027 
L 368.221206 193.232432 
L 368.81683 207.924324 
L 369.412453 204.985946 
L 370.008077 181.478919 
L 370.6037 231.431351 
L 371.199324 190.294054 
L 371.794948 213.801081 
L 372.390571 184.417297 
L 372.986195 196.170811 
L 373.581818 193.232432 
L 373.581818 193.232432 
" clip-path="url(#p0f0aa563bb)" style="fill: none; stroke: #2ca02c; stroke-width: 1.5; stroke-linecap: square"/>
   </g>
   <g id="patch_3">
    <path d="M 54 252 
L 54 34.56 
" style="fill: none; stroke: #000000; stroke-width: 0.8; stroke-linejoin: miter; stroke-linecap: square"/>
   </g>
   <g id="patch_4">
    <path d="M 388.8 252 
L 388.8 34.56 
" style="fill: none; stroke: #000000; stroke-width: 0.8; stroke-linejoin: miter; stroke-linecap: square"/>
   </g>
   <g id="patch_5">
    <path d="M 54 252 
L 388.8 252 
" style="fill: none; stroke: #000000; stroke-width: 0.8; stroke-linejoin: miter; stroke-linecap: square"/>
   </g>
   <g id="patch_6">
    <path d="M 54 34.56 
L 388.8 34.56 
" style="fill: none; stroke: #000000; stroke-width: 0.8; stroke-linejoin: miter; stroke-linecap: square"/>
   </g>
   <g id="text_15">
    <!-- Label 17 normalized -->
    <g transform="translate(160.423125 28.56)scale(0.12 -0.12)">
     <defs>
      <path id="DejaVuSans-4c" d="M 628 4666 
L 1259 4666 
L 1259 531 
L 3531 531 
L 3531 0 
L 628 0 
L 628 4666 
z
" transform="scale(0.015625)"/>
      <path id="DejaVuSans-61" d="M 2194 1759 
Q 1497 1759 1228 1600 
Q 959 1441 959 1056 
Q 959 750 1161 570 
Q 1363 391 1709 391 
Q 2188 391 2477 730 
Q 2766 1069 2766 1631 
L 2766 1759 
L 2194 1759 
z
M 3341 1997 
L 3341 0 
L 2766 0 
L 2766 531 
Q 2569 213 2275 61 
Q 1981 -91 1556 -91 
Q 1019 -91 701 211 
Q 384 513 384 1019 
Q 384 1609 779 1909 
Q 1175 2209 1959 2209 
L 2766 2209 
L 2766 2266 
Q 2766 2663 2505 2880 
Q 2244 3097 1772 3097 
Q 1472 3097 1187 3025 
Q 903 2953 641 2809 
L 641 3341 
Q 956 3463 1253 3523 
Q 1550 3584 1831 3584 
Q 2591 3584 2966 3190 
Q 3341 2797 3341 1997 
z
" transform="scale(0.015625)"/>
      <path id="DejaVuSans-65" d="M 3597 1894 
L 3597 1613 
L 953 1613 
Q 991 1019 1311 708 
Q 1631 397 2203 397 
Q 2534 397 2845 478 
Q 3156 559 3463 722 
L 3463 178 
Q 3153 47 2828 -22 
Q 2503 -91 2169 -91 
Q 1331 -91 842 396 
Q 353 884 353 1716 
Q 353 2575 817 3079 
Q 1281 3584 2069 3584 
Q 2775 3584 3186 3129 
Q 3597 2675 3597 1894 
z
M 3022 2063 
Q 3016 2534 2758 2815 
Q 2500 3097 2075 3097 
Q 1594 3097 1305 2825 
Q 1016 2553 972 2059 
L 3022 2063 
z
" transform="scale(0.015625)"/>
      <path id="DejaVuSans-6c" d="M 603 4863 
L 1178 4863 
L 1178 0 
L 603 0 
L 603 4863 
z
" transform="scale(0.015625)"/>
      <path id="DejaVuSans-20" transform="scale(0.015625)"/>
      <path id="DejaVuSans-37" d="M 525 4666 
L 3525 4666 
L 3525 4397 
L 1831 0 
L 1172 0 
L 2766 4134 
L 525 4134 
L 525 4666 
z
" transform="scale(0.015625)"/>
      <path id="DejaVuSans-72" d="M 2631 2963 
Q 2534 3019 2420 3045 
Q 2306 3072 2169 3072 
Q 1681 3072 1420 2755 
Q 1159 2438 1159 1844 
L 1159 0 
L 581 0 
L 581 3500 
L 1159 3500 
L 1159 2956 
Q 1341 3275 1631 3429 
Q 1922 3584 2338 3584 
Q 2397 3584 2469 3576 
Q 2541 3569 2628 3553 
L 2631 2963 
z
" transform="scale(0.015625)"/>
      <path id="DejaVuSans-6d" d="M 3328 2828 
Q 3544 3216 3844 3400 
Q 4144 3584 4550 3584 
Q 5097 3584 5394 3201 
Q 5691 2819 5691 2113 
L 5691 0 
L 5113 0 
L 5113 2094 
Q 5113 2597 4934 2840 
Q 4756 3084 4391 3084 
Q 3944 3084 3684 2787 
Q 3425 2491 3425 1978 
L 3425 0 
L 2847 0 
L 2847 2094 
Q 2847 2600 2669 2842 
Q 2491 3084 2119 3084 
Q 1678 3084 1418 2786 
Q 1159 2488 1159 1978 
L 1159 0 
L 581 0 
L 581 3500 
L 1159 3500 
L 1159 2956 
Q 1356 3278 1631 3431 
Q 1906 3584 2284 3584 
Q 2666 3584 2933 3390 
Q 3200 3197 3328 2828 
z
" transform="scale(0.015625)"/>
      <path id="DejaVuSans-7a" d="M 353 3500 
L 3084 3500 
L 3084 2975 
L 922 459 
L 3084 459 
L 3084 0 
L 275 0 
L 275 525 
L 2438 3041 
L 353 3041 
L 353 3500 
z
" transform="scale(0.015625)"/>
      <path id="DejaVuSans-64" d="M 2906 2969 
L 2906 4863 
L 3481 4863 
L 3481 0 
L 2906 0 
L 2906 525 
Q 2725 213 2448 61 
Q 2172 -91 1784 -91 
Q 1150 -91 751 415 
Q 353 922 353 1747 
Q 353 2572 751 3078 
Q 1150 3584 1784 3584 
Q 2172 3584 2448 3432 
Q 2725 3281 2906 2969 
z
M 947 1747 
Q 947 1113 1208 752 
Q 1469 391 1925 391 
Q 2381 391 2643 752 
Q 2906 1113 2906 1747 
Q 2906 2381 2643 2742 
Q 2381 3103 1925 3103 
Q 1469 3103 1208 2742 
Q 947 2381 947 1747 
z
" transform="scale(0.015625)"/>
     </defs>
     <use xlink:href="#DejaVuSans-4c"/>
     <use xlink:href="#DejaVuSans-61" x="55.712891"/>
     <use xlink:href="#DejaVuSans-62" x="116.992188"/>
     <use xlink:href="#DejaVuSans-65" x="180.46875"/>
     <use xlink:href="#DejaVuSans-6c" x="241.992188"/>
     <use xlink:href="#DejaVuSans-20" x="269.775391"/>
     <use xlink:href="#DejaVuSans-31" x="301.5625"/>
     <use xlink:href="#DejaVuSans-37" x="365.185547"/>
     <use xlink:href="#DejaVuSans-20" x="428.808594"/>
     <use xlink:href="#DejaVuSans-6e" x="460.595703"/>
     <use xlink:href="#DejaVuSans-6f" x="523.974609"/>
     <use xlink:href="#DejaVuSans-72" x="585.15625"/>
     <use xlink:href="#DejaVuSans-6d" x="624.519531"/>
     <use xlink:href="#DejaVuSans-61" x="721.931641"/>
     <use xlink:href="#DejaVuSans-6c" x="783.210938"/>
     <use xlink:href="#DejaVuSans-69" x="810.994141"/>
     <use xlink:href="#DejaVuSans-7a" x="838.777344"/>
     <use xlink:href="#DejaVuSans-65" x="891.267578"/>
     <use xlink:href="#DejaVuSans-64" x="952.791016"/>
    </g>
   </g>
   <g id="legend_1">
    <g id="patch_7">
     <path d="M 309.070312 101.2725 
L 381.8 101.2725 
Q 383.8 101.2725 383.8 99.2725 
L 383.8 41.56 
Q 383.8 39.56 381.8 39.56 
L 309.070312 39.56 
Q 307.070312 39.56 307.070312 41.56 
L 307.070312 99.2725 
Q 307.070312 101.2725 309.070312 101.2725 
z
" style="fill: #ffffff; opacity: 0.8; stroke: #cccccc; stroke-linejoin: miter"/>
    </g>
    <g id="text_16">
     <!-- Trace number -->
     <g transform="translate(311.070312 51.158437)scale(0.1 -0.1)">
      <defs>
       <path id="DejaVuSans-54" d="M -19 4666 
L 3928 4666 
L 3928 4134 
L 2272 4134 
L 2272 0 
L 1638 0 
L 1638 4134 
L -19 4134 
L -19 4666 
z
" transform="scale(0.015625)"/>
      </defs>
      <use xlink:href="#DejaVuSans-54"/>
      <use xlink:href="#DejaVuSans-72" x="46.333984"/>
      <use xlink:href="#DejaVuSans-61" x="87.447266"/>
      <use xlink:href="#DejaVuSans-63" x="148.726562"/>
      <use xlink:href="#DejaVuSans-65" x="203.707031"/>
      <use xlink:href="#DejaVuSans-20" x="265.230469"/>
      <use xlink:href="#DejaVuSans-6e" x="297.017578"/>
      <use xlink:href="#DejaVuSans-75" x="360.396484"/>
      <use xlink:href="#DejaVuSans-6d" x="423.775391"/>
      <use xlink:href="#DejaVuSans-62" x="521.1875"/>
      <use xlink:href="#DejaVuSans-65" x="584.664062"/>
      <use xlink:href="#DejaVuSans-72" x="646.1875"/>
     </g>
    </g>
    <g id="line2d_28">
     <path d="M 321.891406 62.336562 
L 331.891406 62.336562 
L 341.891406 62.336562 
" style="fill: none; stroke: #1f77b4; stroke-width: 1.5; stroke-linecap: square"/>
    </g>
    <g id="text_17">
     <!-- 61 -->
     <g transform="translate(349.891406 65.836562)scale(0.1 -0.1)">
      <use xlink:href="#DejaVuSans-36"/>
      <use xlink:href="#DejaVuSans-31" x="63.623047"/>
     </g>
    </g>
    <g id="line2d_29">
     <path d="M 321.891406 77.014687 
L 331.891406 77.014687 
L 341.891406 77.014687 
" style="fill: none; stroke: #ff7f0e; stroke-width: 1.5; stroke-linecap: square"/>
    </g>
    <g id="text_18">
     <!-- 83 -->
     <g transform="translate(349.891406 80.514687)scale(0.1 -0.1)">
      <use xlink:href="#DejaVuSans-38"/>
      <use xlink:href="#DejaVuSans-33" x="63.623047"/>
     </g>
    </g>
    <g id="line2d_30">
     <path d="M 321.891406 91.692813 
L 331.891406 91.692813 
L 341.891406 91.692813 
" style="fill: none; stroke: #2ca02c; stroke-width: 1.5; stroke-linecap: square"/>
    </g>
    <g id="text_19">
     <!-- 122 -->
     <g transform="translate(349.891406 95.192813)scale(0.1 -0.1)">
      <use xlink:href="#DejaVuSans-31"/>
      <use xlink:href="#DejaVuSans-32" x="63.623047"/>
      <use xlink:href="#DejaVuSans-32" x="127.246094"/>
     </g>
    </g>
   </g>
  </g>
 </g>
 <defs>
  <clipPath id="p0f0aa563bb">
   <rect x="54" y="34.56" width="334.8" height="217.44"/>
  </clipPath>
 </defs>
</svg>
