<?xml version="1.0" encoding="utf-8" standalone="no"?>
<!DOCTYPE svg PUBLIC "-//W3C//DTD SVG 1.1//EN"
  "http://www.w3.org/Graphics/SVG/1.1/DTD/svg11.dtd">
<svg xmlns:xlink="http://www.w3.org/1999/xlink" width="432pt" height="288pt" viewBox="0 0 432 288" xmlns="http://www.w3.org/2000/svg" version="1.1">
 <metadata>
  <rdf:RDF xmlns:dc="http://purl.org/dc/elements/1.1/" xmlns:cc="http://creativecommons.org/ns#" xmlns:rdf="http://www.w3.org/1999/02/22-rdf-syntax-ns#">
   <cc:Work>
    <dc:type rdf:resource="http://purl.org/dc/dcmitype/StillImage"/>
    <dc:date>2022-03-30T13:16:46.709941</dc:date>
    <dc:format>image/svg+xml</dc:format>
    <dc:creator>
     <cc:Agent>
      <dc:title>Matplotlib v3.5.1, https://matplotlib.org/</dc:title>
     </cc:Agent>
    </dc:creator>
   </cc:Work>
  </rdf:RDF>
 </metadata>
 <defs>
  <style type="text/css">*{stroke-linejoin: round; stroke-linecap: butt}</style>
 </defs>
 <g id="figure_1">
  <g id="patch_1">
   <path d="M 0 288 
L 432 288 
L 432 0 
L 0 0 
z
" style="fill: #ffffff"/>
  </g>
  <g id="axes_1">
   <g id="patch_2">
    <path d="M 54 252 
L 388.8 252 
L 388.8 34.56 
L 54 34.56 
z
" style="fill: #ffffff"/>
   </g>
   <g id="matplotlib.axis_1">
    <g id="xtick_1">
     <g id="line2d_1">
      <path d="M 69.218182 252 
L 69.218182 34.56 
" clip-path="url(#p131c747d7b)" style="fill: none; stroke: #b0b0b0; stroke-width: 0.8; stroke-linecap: square"/>
     </g>
     <g id="line2d_2">
      <defs>
       <path id="m916a9f8939" d="M 0 0 
L 0 3.5 
" style="stroke: #000000; stroke-width: 0.8"/>
      </defs>
      <g>
       <use xlink:href="#m916a9f8939" x="69.218182" y="252" style="stroke: #000000; stroke-width: 0.8"/>
      </g>
     </g>
     <g id="text_1">
      <!-- 0 -->
      <g transform="translate(66.036932 266.598437)scale(0.1 -0.1)">
       <defs>
        <path id="DejaVuSans-30" d="M 2034 4250 
Q 1547 4250 1301 3770 
Q 1056 3291 1056 2328 
Q 1056 1369 1301 889 
Q 1547 409 2034 409 
Q 2525 409 2770 889 
Q 3016 1369 3016 2328 
Q 3016 3291 2770 3770 
Q 2525 4250 2034 4250 
z
M 2034 4750 
Q 2819 4750 3233 4129 
Q 3647 3509 3647 2328 
Q 3647 1150 3233 529 
Q 2819 -91 2034 -91 
Q 1250 -91 836 529 
Q 422 1150 422 2328 
Q 422 3509 836 4129 
Q 1250 4750 2034 4750 
z
" transform="scale(0.015625)"/>
       </defs>
       <use xlink:href="#DejaVuSans-30"/>
      </g>
     </g>
    </g>
    <g id="xtick_2">
     <g id="line2d_3">
      <path d="M 128.780537 252 
L 128.780537 34.56 
" clip-path="url(#p131c747d7b)" style="fill: none; stroke: #b0b0b0; stroke-width: 0.8; stroke-linecap: square"/>
     </g>
     <g id="line2d_4">
      <g>
       <use xlink:href="#m916a9f8939" x="128.780537" y="252" style="stroke: #000000; stroke-width: 0.8"/>
      </g>
     </g>
     <g id="text_2">
      <!-- 100 -->
      <g transform="translate(119.236787 266.598437)scale(0.1 -0.1)">
       <defs>
        <path id="DejaVuSans-31" d="M 794 531 
L 1825 531 
L 1825 4091 
L 703 3866 
L 703 4441 
L 1819 4666 
L 2450 4666 
L 2450 531 
L 3481 531 
L 3481 0 
L 794 0 
L 794 531 
z
" transform="scale(0.015625)"/>
       </defs>
       <use xlink:href="#DejaVuSans-31"/>
       <use xlink:href="#DejaVuSans-30" x="63.623047"/>
       <use xlink:href="#DejaVuSans-30" x="127.246094"/>
      </g>
     </g>
    </g>
    <g id="xtick_3">
     <g id="line2d_5">
      <path d="M 188.342893 252 
L 188.342893 34.56 
" clip-path="url(#p131c747d7b)" style="fill: none; stroke: #b0b0b0; stroke-width: 0.8; stroke-linecap: square"/>
     </g>
     <g id="line2d_6">
      <g>
       <use xlink:href="#m916a9f8939" x="188.342893" y="252" style="stroke: #000000; stroke-width: 0.8"/>
      </g>
     </g>
     <g id="text_3">
      <!-- 200 -->
      <g transform="translate(178.799143 266.598437)scale(0.1 -0.1)">
       <defs>
        <path id="DejaVuSans-32" d="M 1228 531 
L 3431 531 
L 3431 0 
L 469 0 
L 469 531 
Q 828 903 1448 1529 
Q 2069 2156 2228 2338 
Q 2531 2678 2651 2914 
Q 2772 3150 2772 3378 
Q 2772 3750 2511 3984 
Q 2250 4219 1831 4219 
Q 1534 4219 1204 4116 
Q 875 4013 500 3803 
L 500 4441 
Q 881 4594 1212 4672 
Q 1544 4750 1819 4750 
Q 2544 4750 2975 4387 
Q 3406 4025 3406 3419 
Q 3406 3131 3298 2873 
Q 3191 2616 2906 2266 
Q 2828 2175 2409 1742 
Q 1991 1309 1228 531 
z
" transform="scale(0.015625)"/>
       </defs>
       <use xlink:href="#DejaVuSans-32"/>
       <use xlink:href="#DejaVuSans-30" x="63.623047"/>
       <use xlink:href="#DejaVuSans-30" x="127.246094"/>
      </g>
     </g>
    </g>
    <g id="xtick_4">
     <g id="line2d_7">
      <path d="M 247.905248 252 
L 247.905248 34.56 
" clip-path="url(#p131c747d7b)" style="fill: none; stroke: #b0b0b0; stroke-width: 0.8; stroke-linecap: square"/>
     </g>
     <g id="line2d_8">
      <g>
       <use xlink:href="#m916a9f8939" x="247.905248" y="252" style="stroke: #000000; stroke-width: 0.8"/>
      </g>
     </g>
     <g id="text_4">
      <!-- 300 -->
      <g transform="translate(238.361498 266.598437)scale(0.1 -0.1)">
       <defs>
        <path id="DejaVuSans-33" d="M 2597 2516 
Q 3050 2419 3304 2112 
Q 3559 1806 3559 1356 
Q 3559 666 3084 287 
Q 2609 -91 1734 -91 
Q 1441 -91 1130 -33 
Q 819 25 488 141 
L 488 750 
Q 750 597 1062 519 
Q 1375 441 1716 441 
Q 2309 441 2620 675 
Q 2931 909 2931 1356 
Q 2931 1769 2642 2001 
Q 2353 2234 1838 2234 
L 1294 2234 
L 1294 2753 
L 1863 2753 
Q 2328 2753 2575 2939 
Q 2822 3125 2822 3475 
Q 2822 3834 2567 4026 
Q 2313 4219 1838 4219 
Q 1578 4219 1281 4162 
Q 984 4106 628 3988 
L 628 4550 
Q 988 4650 1302 4700 
Q 1616 4750 1894 4750 
Q 2613 4750 3031 4423 
Q 3450 4097 3450 3541 
Q 3450 3153 3228 2886 
Q 3006 2619 2597 2516 
z
" transform="scale(0.015625)"/>
       </defs>
       <use xlink:href="#DejaVuSans-33"/>
       <use xlink:href="#DejaVuSans-30" x="63.623047"/>
       <use xlink:href="#DejaVuSans-30" x="127.246094"/>
      </g>
     </g>
    </g>
    <g id="xtick_5">
     <g id="line2d_9">
      <path d="M 307.467604 252 
L 307.467604 34.56 
" clip-path="url(#p131c747d7b)" style="fill: none; stroke: #b0b0b0; stroke-width: 0.8; stroke-linecap: square"/>
     </g>
     <g id="line2d_10">
      <g>
       <use xlink:href="#m916a9f8939" x="307.467604" y="252" style="stroke: #000000; stroke-width: 0.8"/>
      </g>
     </g>
     <g id="text_5">
      <!-- 400 -->
      <g transform="translate(297.923854 266.598437)scale(0.1 -0.1)">
       <defs>
        <path id="DejaVuSans-34" d="M 2419 4116 
L 825 1625 
L 2419 1625 
L 2419 4116 
z
M 2253 4666 
L 3047 4666 
L 3047 1625 
L 3713 1625 
L 3713 1100 
L 3047 1100 
L 3047 0 
L 2419 0 
L 2419 1100 
L 313 1100 
L 313 1709 
L 2253 4666 
z
" transform="scale(0.015625)"/>
       </defs>
       <use xlink:href="#DejaVuSans-34"/>
       <use xlink:href="#DejaVuSans-30" x="63.623047"/>
       <use xlink:href="#DejaVuSans-30" x="127.246094"/>
      </g>
     </g>
    </g>
    <g id="xtick_6">
     <g id="line2d_11">
      <path d="M 367.029959 252 
L 367.029959 34.56 
" clip-path="url(#p131c747d7b)" style="fill: none; stroke: #b0b0b0; stroke-width: 0.8; stroke-linecap: square"/>
     </g>
     <g id="line2d_12">
      <g>
       <use xlink:href="#m916a9f8939" x="367.029959" y="252" style="stroke: #000000; stroke-width: 0.8"/>
      </g>
     </g>
     <g id="text_6">
      <!-- 500 -->
      <g transform="translate(357.486209 266.598437)scale(0.1 -0.1)">
       <defs>
        <path id="DejaVuSans-35" d="M 691 4666 
L 3169 4666 
L 3169 4134 
L 1269 4134 
L 1269 2991 
Q 1406 3038 1543 3061 
Q 1681 3084 1819 3084 
Q 2600 3084 3056 2656 
Q 3513 2228 3513 1497 
Q 3513 744 3044 326 
Q 2575 -91 1722 -91 
Q 1428 -91 1123 -41 
Q 819 9 494 109 
L 494 744 
Q 775 591 1075 516 
Q 1375 441 1709 441 
Q 2250 441 2565 725 
Q 2881 1009 2881 1497 
Q 2881 1984 2565 2268 
Q 2250 2553 1709 2553 
Q 1456 2553 1204 2497 
Q 953 2441 691 2322 
L 691 4666 
z
" transform="scale(0.015625)"/>
       </defs>
       <use xlink:href="#DejaVuSans-35"/>
       <use xlink:href="#DejaVuSans-30" x="63.623047"/>
       <use xlink:href="#DejaVuSans-30" x="127.246094"/>
      </g>
     </g>
    </g>
    <g id="text_7">
     <!-- bin -->
     <g transform="translate(213.667969 280.276563)scale(0.1 -0.1)">
      <defs>
       <path id="DejaVuSans-62" d="M 3116 1747 
Q 3116 2381 2855 2742 
Q 2594 3103 2138 3103 
Q 1681 3103 1420 2742 
Q 1159 2381 1159 1747 
Q 1159 1113 1420 752 
Q 1681 391 2138 391 
Q 2594 391 2855 752 
Q 3116 1113 3116 1747 
z
M 1159 2969 
Q 1341 3281 1617 3432 
Q 1894 3584 2278 3584 
Q 2916 3584 3314 3078 
Q 3713 2572 3713 1747 
Q 3713 922 3314 415 
Q 2916 -91 2278 -91 
Q 1894 -91 1617 61 
Q 1341 213 1159 525 
L 1159 0 
L 581 0 
L 581 4863 
L 1159 4863 
L 1159 2969 
z
" transform="scale(0.015625)"/>
       <path id="DejaVuSans-69" d="M 603 3500 
L 1178 3500 
L 1178 0 
L 603 0 
L 603 3500 
z
M 603 4863 
L 1178 4863 
L 1178 4134 
L 603 4134 
L 603 4863 
z
" transform="scale(0.015625)"/>
       <path id="DejaVuSans-6e" d="M 3513 2113 
L 3513 0 
L 2938 0 
L 2938 2094 
Q 2938 2591 2744 2837 
Q 2550 3084 2163 3084 
Q 1697 3084 1428 2787 
Q 1159 2491 1159 1978 
L 1159 0 
L 581 0 
L 581 3500 
L 1159 3500 
L 1159 2956 
Q 1366 3272 1645 3428 
Q 1925 3584 2291 3584 
Q 2894 3584 3203 3211 
Q 3513 2838 3513 2113 
z
" transform="scale(0.015625)"/>
      </defs>
      <use xlink:href="#DejaVuSans-62"/>
      <use xlink:href="#DejaVuSans-69" x="63.476562"/>
      <use xlink:href="#DejaVuSans-6e" x="91.259766"/>
     </g>
    </g>
   </g>
   <g id="matplotlib.axis_2">
    <g id="ytick_1">
     <g id="line2d_13">
      <path d="M 54 252 
L 388.8 252 
" clip-path="url(#p131c747d7b)" style="fill: none; stroke: #b0b0b0; stroke-width: 0.8; stroke-linecap: square"/>
     </g>
     <g id="line2d_14">
      <defs>
       <path id="me3a3d5ed22" d="M 0 0 
L -3.5 0 
" style="stroke: #000000; stroke-width: 0.8"/>
      </defs>
      <g>
       <use xlink:href="#me3a3d5ed22" x="54" y="252" style="stroke: #000000; stroke-width: 0.8"/>
      </g>
     </g>
     <g id="text_8">
      <!-- 0.0 -->
      <g transform="translate(31.096875 255.799219)scale(0.1 -0.1)">
       <defs>
        <path id="DejaVuSans-2e" d="M 684 794 
L 1344 794 
L 1344 0 
L 684 0 
L 684 794 
z
" transform="scale(0.015625)"/>
       </defs>
       <use xlink:href="#DejaVuSans-30"/>
       <use xlink:href="#DejaVuSans-2e" x="63.623047"/>
       <use xlink:href="#DejaVuSans-30" x="95.410156"/>
      </g>
     </g>
    </g>
    <g id="ytick_2">
     <g id="line2d_15">
      <path d="M 54 208.512 
L 388.8 208.512 
" clip-path="url(#p131c747d7b)" style="fill: none; stroke: #b0b0b0; stroke-width: 0.8; stroke-linecap: square"/>
     </g>
     <g id="line2d_16">
      <g>
       <use xlink:href="#me3a3d5ed22" x="54" y="208.512" style="stroke: #000000; stroke-width: 0.8"/>
      </g>
     </g>
     <g id="text_9">
      <!-- 0.2 -->
      <g transform="translate(31.096875 212.311219)scale(0.1 -0.1)">
       <use xlink:href="#DejaVuSans-30"/>
       <use xlink:href="#DejaVuSans-2e" x="63.623047"/>
       <use xlink:href="#DejaVuSans-32" x="95.410156"/>
      </g>
     </g>
    </g>
    <g id="ytick_3">
     <g id="line2d_17">
      <path d="M 54 165.024 
L 388.8 165.024 
" clip-path="url(#p131c747d7b)" style="fill: none; stroke: #b0b0b0; stroke-width: 0.8; stroke-linecap: square"/>
     </g>
     <g id="line2d_18">
      <g>
       <use xlink:href="#me3a3d5ed22" x="54" y="165.024" style="stroke: #000000; stroke-width: 0.8"/>
      </g>
     </g>
     <g id="text_10">
      <!-- 0.4 -->
      <g transform="translate(31.096875 168.823219)scale(0.1 -0.1)">
       <use xlink:href="#DejaVuSans-30"/>
       <use xlink:href="#DejaVuSans-2e" x="63.623047"/>
       <use xlink:href="#DejaVuSans-34" x="95.410156"/>
      </g>
     </g>
    </g>
    <g id="ytick_4">
     <g id="line2d_19">
      <path d="M 54 121.536 
L 388.8 121.536 
" clip-path="url(#p131c747d7b)" style="fill: none; stroke: #b0b0b0; stroke-width: 0.8; stroke-linecap: square"/>
     </g>
     <g id="line2d_20">
      <g>
       <use xlink:href="#me3a3d5ed22" x="54" y="121.536" style="stroke: #000000; stroke-width: 0.8"/>
      </g>
     </g>
     <g id="text_11">
      <!-- 0.6 -->
      <g transform="translate(31.096875 125.335219)scale(0.1 -0.1)">
       <defs>
        <path id="DejaVuSans-36" d="M 2113 2584 
Q 1688 2584 1439 2293 
Q 1191 2003 1191 1497 
Q 1191 994 1439 701 
Q 1688 409 2113 409 
Q 2538 409 2786 701 
Q 3034 994 3034 1497 
Q 3034 2003 2786 2293 
Q 2538 2584 2113 2584 
z
M 3366 4563 
L 3366 3988 
Q 3128 4100 2886 4159 
Q 2644 4219 2406 4219 
Q 1781 4219 1451 3797 
Q 1122 3375 1075 2522 
Q 1259 2794 1537 2939 
Q 1816 3084 2150 3084 
Q 2853 3084 3261 2657 
Q 3669 2231 3669 1497 
Q 3669 778 3244 343 
Q 2819 -91 2113 -91 
Q 1303 -91 875 529 
Q 447 1150 447 2328 
Q 447 3434 972 4092 
Q 1497 4750 2381 4750 
Q 2619 4750 2861 4703 
Q 3103 4656 3366 4563 
z
" transform="scale(0.015625)"/>
       </defs>
       <use xlink:href="#DejaVuSans-30"/>
       <use xlink:href="#DejaVuSans-2e" x="63.623047"/>
       <use xlink:href="#DejaVuSans-36" x="95.410156"/>
      </g>
     </g>
    </g>
    <g id="ytick_5">
     <g id="line2d_21">
      <path d="M 54 78.048 
L 388.8 78.048 
" clip-path="url(#p131c747d7b)" style="fill: none; stroke: #b0b0b0; stroke-width: 0.8; stroke-linecap: square"/>
     </g>
     <g id="line2d_22">
      <g>
       <use xlink:href="#me3a3d5ed22" x="54" y="78.048" style="stroke: #000000; stroke-width: 0.8"/>
      </g>
     </g>
     <g id="text_12">
      <!-- 0.8 -->
      <g transform="translate(31.096875 81.847219)scale(0.1 -0.1)">
       <defs>
        <path id="DejaVuSans-38" d="M 2034 2216 
Q 1584 2216 1326 1975 
Q 1069 1734 1069 1313 
Q 1069 891 1326 650 
Q 1584 409 2034 409 
Q 2484 409 2743 651 
Q 3003 894 3003 1313 
Q 3003 1734 2745 1975 
Q 2488 2216 2034 2216 
z
M 1403 2484 
Q 997 2584 770 2862 
Q 544 3141 544 3541 
Q 544 4100 942 4425 
Q 1341 4750 2034 4750 
Q 2731 4750 3128 4425 
Q 3525 4100 3525 3541 
Q 3525 3141 3298 2862 
Q 3072 2584 2669 2484 
Q 3125 2378 3379 2068 
Q 3634 1759 3634 1313 
Q 3634 634 3220 271 
Q 2806 -91 2034 -91 
Q 1263 -91 848 271 
Q 434 634 434 1313 
Q 434 1759 690 2068 
Q 947 2378 1403 2484 
z
M 1172 3481 
Q 1172 3119 1398 2916 
Q 1625 2713 2034 2713 
Q 2441 2713 2670 2916 
Q 2900 3119 2900 3481 
Q 2900 3844 2670 4047 
Q 2441 4250 2034 4250 
Q 1625 4250 1398 4047 
Q 1172 3844 1172 3481 
z
" transform="scale(0.015625)"/>
       </defs>
       <use xlink:href="#DejaVuSans-30"/>
       <use xlink:href="#DejaVuSans-2e" x="63.623047"/>
       <use xlink:href="#DejaVuSans-38" x="95.410156"/>
      </g>
     </g>
    </g>
    <g id="ytick_6">
     <g id="line2d_23">
      <path d="M 54 34.56 
L 388.8 34.56 
" clip-path="url(#p131c747d7b)" style="fill: none; stroke: #b0b0b0; stroke-width: 0.8; stroke-linecap: square"/>
     </g>
     <g id="line2d_24">
      <g>
       <use xlink:href="#me3a3d5ed22" x="54" y="34.56" style="stroke: #000000; stroke-width: 0.8"/>
      </g>
     </g>
     <g id="text_13">
      <!-- 1.0 -->
      <g transform="translate(31.096875 38.359219)scale(0.1 -0.1)">
       <use xlink:href="#DejaVuSans-31"/>
       <use xlink:href="#DejaVuSans-2e" x="63.623047"/>
       <use xlink:href="#DejaVuSans-30" x="95.410156"/>
      </g>
     </g>
    </g>
    <g id="text_14">
     <!-- count -->
     <g transform="translate(25.017187 157.38625)rotate(-90)scale(0.1 -0.1)">
      <defs>
       <path id="DejaVuSans-63" d="M 3122 3366 
L 3122 2828 
Q 2878 2963 2633 3030 
Q 2388 3097 2138 3097 
Q 1578 3097 1268 2742 
Q 959 2388 959 1747 
Q 959 1106 1268 751 
Q 1578 397 2138 397 
Q 2388 397 2633 464 
Q 2878 531 3122 666 
L 3122 134 
Q 2881 22 2623 -34 
Q 2366 -91 2075 -91 
Q 1284 -91 818 406 
Q 353 903 353 1747 
Q 353 2603 823 3093 
Q 1294 3584 2113 3584 
Q 2378 3584 2631 3529 
Q 2884 3475 3122 3366 
z
" transform="scale(0.015625)"/>
       <path id="DejaVuSans-6f" d="M 1959 3097 
Q 1497 3097 1228 2736 
Q 959 2375 959 1747 
Q 959 1119 1226 758 
Q 1494 397 1959 397 
Q 2419 397 2687 759 
Q 2956 1122 2956 1747 
Q 2956 2369 2687 2733 
Q 2419 3097 1959 3097 
z
M 1959 3584 
Q 2709 3584 3137 3096 
Q 3566 2609 3566 1747 
Q 3566 888 3137 398 
Q 2709 -91 1959 -91 
Q 1206 -91 779 398 
Q 353 888 353 1747 
Q 353 2609 779 3096 
Q 1206 3584 1959 3584 
z
" transform="scale(0.015625)"/>
       <path id="DejaVuSans-75" d="M 544 1381 
L 544 3500 
L 1119 3500 
L 1119 1403 
Q 1119 906 1312 657 
Q 1506 409 1894 409 
Q 2359 409 2629 706 
Q 2900 1003 2900 1516 
L 2900 3500 
L 3475 3500 
L 3475 0 
L 2900 0 
L 2900 538 
Q 2691 219 2414 64 
Q 2138 -91 1772 -91 
Q 1169 -91 856 284 
Q 544 659 544 1381 
z
M 1991 3584 
L 1991 3584 
z
" transform="scale(0.015625)"/>
       <path id="DejaVuSans-74" d="M 1172 4494 
L 1172 3500 
L 2356 3500 
L 2356 3053 
L 1172 3053 
L 1172 1153 
Q 1172 725 1289 603 
Q 1406 481 1766 481 
L 2356 481 
L 2356 0 
L 1766 0 
Q 1100 0 847 248 
Q 594 497 594 1153 
L 594 3053 
L 172 3053 
L 172 3500 
L 594 3500 
L 594 4494 
L 1172 4494 
z
" transform="scale(0.015625)"/>
      </defs>
      <use xlink:href="#DejaVuSans-63"/>
      <use xlink:href="#DejaVuSans-6f" x="54.980469"/>
      <use xlink:href="#DejaVuSans-75" x="116.162109"/>
      <use xlink:href="#DejaVuSans-6e" x="179.541016"/>
      <use xlink:href="#DejaVuSans-74" x="242.919922"/>
     </g>
    </g>
   </g>
   <g id="line2d_25">
    <path d="M 69.218182 243.214545 
L 69.813805 237.174545 
L 70.409429 238.272727 
L 71.005052 224.545455 
L 71.600676 224.545455 
L 72.1963 225.643636 
L 72.791923 234.429091 
L 73.387547 240.469091 
L 73.98317 237.723636 
L 74.578794 237.174545 
L 75.174417 242.665455 
L 75.770041 242.665455 
L 76.365664 234.978182 
L 76.961288 238.272727 
L 77.556912 230.036364 
L 78.152535 234.978182 
L 78.748159 242.116364 
L 79.343782 225.643636 
L 79.939406 232.232727 
L 80.535029 223.996364 
L 81.130653 237.723636 
L 81.726276 236.625455 
L 82.3219 231.683636 
L 82.917524 225.643636 
L 83.513147 240.469091 
L 84.108771 235.527273 
L 84.704394 240.469091 
L 85.300018 239.370909 
L 85.895641 237.723636 
L 86.491265 234.429091 
L 87.086888 230.036364 
L 87.682512 242.665455 
L 88.278136 232.232727 
L 88.873759 233.330909 
L 89.469383 239.92 
L 90.065006 232.232727 
L 90.66063 230.585455 
L 91.256253 236.076364 
L 91.851877 234.978182 
L 92.4475 231.683636 
L 93.043124 234.429091 
L 93.638748 242.665455 
L 94.234371 234.429091 
L 94.829995 227.84 
L 95.425618 242.116364 
L 96.021242 226.741818 
L 96.616865 234.429091 
L 97.212489 244.861818 
L 97.808112 234.429091 
L 98.403736 240.469091 
L 98.99936 238.272727 
L 99.594983 234.429091 
L 100.190607 239.370909 
L 100.78623 234.429091 
L 101.381854 230.585455 
L 101.977477 229.487273 
L 102.573101 239.370909 
L 103.168724 226.741818 
L 103.764348 232.232727 
L 104.359972 221.8 
L 104.955595 232.781818 
L 105.551219 228.389091 
L 106.146842 239.370909 
L 106.742466 241.018182 
L 107.338089 230.036364 
L 107.933713 241.567273 
L 108.529336 241.018182 
L 109.12496 234.978182 
L 109.720584 237.174545 
L 110.316207 238.821818 
L 110.911831 241.018182 
L 111.507454 230.585455 
L 112.103078 236.625455 
L 112.698701 237.174545 
L 113.294325 238.821818 
L 113.889948 237.174545 
L 114.485572 237.174545 
L 115.081196 231.134545 
L 115.676819 233.88 
L 116.272443 245.410909 
L 116.868066 238.821818 
L 117.46369 234.978182 
L 118.059313 241.018182 
L 118.654937 232.232727 
L 119.25056 227.84 
L 119.846184 238.272727 
L 120.441808 235.527273 
L 121.037431 233.88 
L 121.633055 236.625455 
L 122.228678 237.723636 
L 122.824302 229.487273 
L 123.419925 228.938182 
L 124.015549 236.625455 
L 124.611172 230.585455 
L 125.206796 239.370909 
L 125.802419 226.741818 
L 126.398043 238.272727 
L 126.993667 236.625455 
L 127.58929 237.723636 
L 128.184914 239.370909 
L 128.780537 226.741818 
L 129.376161 234.978182 
L 129.971784 234.978182 
L 130.567408 229.487273 
L 131.163031 228.389091 
L 131.758655 235.527273 
L 132.354279 230.585455 
L 132.949902 239.370909 
L 133.545526 229.487273 
L 135.332396 243.763636 
L 135.92802 241.018182 
L 136.523643 232.781818 
L 137.119267 237.723636 
L 137.714891 232.232727 
L 138.310514 239.370909 
L 138.906138 230.036364 
L 139.501761 232.781818 
L 140.097385 232.232727 
L 140.693008 237.174545 
L 141.288632 238.821818 
L 141.884255 231.683636 
L 142.479879 229.487273 
L 143.075503 236.625455 
L 143.671126 230.036364 
L 144.26675 229.487273 
L 144.862373 232.781818 
L 145.457997 240.469091 
L 146.05362 239.370909 
L 146.649244 234.978182 
L 147.244867 238.821818 
L 147.840491 239.370909 
L 149.627362 222.349091 
L 150.222985 234.978182 
L 150.818609 243.214545 
L 151.414232 225.643636 
L 152.009856 242.116364 
L 152.605479 241.018182 
L 153.201103 227.84 
L 153.796727 238.272727 
L 154.39235 230.585455 
L 154.987974 237.723636 
L 155.583597 235.527273 
L 156.179221 235.527273 
L 156.774844 232.232727 
L 157.370468 226.192727 
L 157.966091 225.643636 
L 158.561715 221.8 
L 159.157339 223.996364 
L 159.752962 210.269091 
L 160.348586 208.072727 
L 160.944209 199.287273 
L 162.135456 163.047273 
L 163.326703 144.927273 
L 163.922327 139.436364 
L 164.517951 118.570909 
L 165.113574 109.236364 
L 165.709198 92.763636 
L 166.304821 102.647273 
L 166.900445 83.429091 
L 167.496068 91.665455 
L 168.091692 97.705455 
L 168.687315 85.076364 
L 169.282939 92.763636 
L 169.878563 90.018182 
L 170.474186 144.378182 
L 171.06981 132.847273 
L 171.665433 137.789091 
L 172.85668 171.283636 
L 173.452304 158.105455 
L 174.047927 171.832727 
L 174.643551 171.832727 
L 175.239175 172.381818 
L 175.834798 178.421818 
L 176.430422 173.48 
L 177.026045 172.930909 
L 177.621669 157.556364 
L 178.217292 150.967273 
L 178.812916 147.123636 
L 179.408539 146.574545 
L 180.004163 166.890909 
L 180.599787 155.909091 
L 181.19541 159.203636 
L 181.791034 182.814545 
L 182.386657 185.010909 
L 182.982281 175.676364 
L 183.577904 199.287273 
L 184.173528 199.836364 
L 184.769151 205.327273 
L 185.364775 218.505455 
L 185.960399 226.192727 
L 186.556022 226.741818 
L 187.151646 217.956364 
L 187.747269 233.330909 
L 188.342893 221.8 
L 188.938516 232.232727 
L 189.53414 226.741818 
L 190.129763 231.683636 
L 190.725387 226.741818 
L 191.32101 230.585455 
L 191.916634 236.076364 
L 192.512258 233.330909 
L 193.107881 248.156364 
L 193.703505 220.152727 
L 194.299128 243.763636 
L 194.894752 232.232727 
L 195.490375 232.232727 
L 196.085999 229.487273 
L 196.681622 233.88 
L 197.277246 233.88 
L 197.87287 232.232727 
L 198.468493 224.545455 
L 199.064117 236.625455 
L 199.65974 222.898182 
L 200.255364 241.567273 
L 200.850987 222.898182 
L 202.042234 242.116364 
L 202.637858 228.389091 
L 203.233482 181.716364 
L 203.829105 223.447273 
L 204.424729 234.429091 
L 205.020352 229.487273 
L 205.615976 230.585455 
L 206.211599 234.978182 
L 206.807223 225.094545 
L 207.402846 237.174545 
L 207.99847 236.076364 
L 208.594094 233.88 
L 209.189717 239.370909 
L 209.785341 236.625455 
L 210.380964 225.643636 
L 210.976588 231.134545 
L 211.572211 228.389091 
L 212.167835 243.214545 
L 212.763458 246.509091 
L 213.359082 233.88 
L 213.954706 232.781818 
L 214.550329 233.88 
L 215.145953 237.723636 
L 215.741576 237.174545 
L 216.3372 234.978182 
L 216.932823 233.88 
L 217.528447 230.036364 
L 218.12407 238.272727 
L 218.719694 233.330909 
L 219.315318 229.487273 
L 219.910941 232.781818 
L 220.506565 231.134545 
L 221.102188 237.723636 
L 221.697812 238.272727 
L 222.293435 243.214545 
L 222.889059 241.567273 
L 223.484682 230.036364 
L 224.080306 230.585455 
L 224.67593 226.192727 
L 225.271553 226.192727 
L 225.867177 216.858182 
L 226.4628 215.210909 
L 227.058424 209.170909 
L 227.654047 198.738182 
L 228.845294 165.792727 
L 229.440918 159.752727 
L 230.036542 150.967273 
L 231.227789 109.785455 
L 231.823412 102.647273 
L 232.419036 97.705455 
L 233.014659 54.327273 
L 233.610283 34.56 
L 234.205906 57.072727 
L 234.80153 63.661818 
L 235.397154 57.072727 
L 235.992777 48.836364 
L 236.588401 47.738182 
L 237.184024 81.781818 
L 237.779648 84.527273 
L 238.375271 85.076364 
L 238.970895 104.843636 
L 239.566518 142.730909 
L 240.162142 158.105455 
L 240.757766 176.774545 
L 241.353389 177.872727 
L 242.544636 209.72 
L 243.14026 208.621818 
L 243.735883 220.701818 
L 244.331507 225.643636 
L 244.92713 222.898182 
L 245.522754 227.290909 
L 246.118378 225.094545 
L 246.714001 223.996364 
L 247.309625 239.92 
L 247.905248 235.527273 
L 248.500872 237.723636 
L 249.096495 234.429091 
L 250.287742 235.527273 
L 250.883366 234.429091 
L 251.47899 225.094545 
L 252.074613 231.683636 
L 252.670237 228.389091 
L 253.26586 238.821818 
L 253.861484 222.349091 
L 254.457107 233.330909 
L 255.052731 227.84 
L 255.648354 232.232727 
L 256.243978 230.585455 
L 256.839601 239.370909 
L 257.435225 239.370909 
L 258.030849 227.84 
L 258.626472 227.290909 
L 259.222096 244.312727 
L 259.817719 250.901818 
L 260.413343 234.429091 
L 261.008966 221.250909 
L 261.60459 237.723636 
L 262.200213 242.116364 
L 262.795837 232.781818 
L 263.391461 245.96 
L 263.987084 223.447273 
L 264.582708 237.174545 
L 265.178331 236.076364 
L 265.773955 235.527273 
L 266.369578 230.036364 
L 266.965202 226.192727 
L 267.560825 234.978182 
L 268.156449 230.036364 
L 268.752073 231.683636 
L 269.347696 237.174545 
L 269.94332 234.429091 
L 270.538943 224.545455 
L 271.134567 229.487273 
L 272.325814 234.978182 
L 272.921437 222.349091 
L 273.517061 239.370909 
L 274.708308 220.701818 
L 275.303932 236.625455 
L 275.899555 227.84 
L 276.495179 229.487273 
L 277.090802 230.036364 
L 277.686426 231.134545 
L 278.282049 238.821818 
L 278.877673 233.330909 
L 279.473297 233.330909 
L 280.06892 230.036364 
L 280.664544 237.723636 
L 281.260167 235.527273 
L 281.855791 223.996364 
L 282.451414 233.330909 
L 283.047038 236.076364 
L 283.642661 225.643636 
L 284.833909 238.821818 
L 285.429532 241.567273 
L 286.025156 230.036364 
L 286.620779 229.487273 
L 287.216403 242.116364 
L 287.812026 223.996364 
L 288.40765 219.603636 
L 289.003273 231.134545 
L 289.598897 234.429091 
L 290.194521 248.156364 
L 290.790144 229.487273 
L 291.385768 225.643636 
L 291.981391 238.272727 
L 292.577015 226.741818 
L 293.172638 234.978182 
L 294.363885 228.389091 
L 294.959509 230.036364 
L 295.555133 230.585455 
L 296.150756 237.174545 
L 296.74638 236.625455 
L 297.342003 228.389091 
L 297.937627 237.174545 
L 299.128874 234.978182 
L 299.724497 241.567273 
L 300.320121 238.272727 
L 300.915745 232.232727 
L 301.511368 232.232727 
L 302.106992 229.487273 
L 302.702615 229.487273 
L 303.298239 234.978182 
L 303.893862 227.84 
L 304.489486 233.330909 
L 305.085109 228.938182 
L 305.680733 252 
L 306.87198 233.330909 
L 307.467604 230.585455 
L 308.063227 231.683636 
L 308.658851 230.585455 
L 309.254474 249.254545 
L 309.850098 242.116364 
L 310.445721 232.232727 
L 311.041345 233.330909 
L 311.636969 239.92 
L 312.232592 231.134545 
L 312.828216 232.781818 
L 313.423839 238.272727 
L 314.019463 230.585455 
L 314.615086 231.134545 
L 315.21071 237.723636 
L 315.806333 242.116364 
L 316.401957 235.527273 
L 316.997581 240.469091 
L 317.593204 230.036364 
L 318.188828 226.741818 
L 318.784451 236.076364 
L 319.380075 243.214545 
L 319.975698 228.938182 
L 320.571322 229.487273 
L 321.166945 233.88 
L 321.762569 232.232727 
L 322.358192 234.429091 
L 322.953816 244.861818 
L 324.740687 227.84 
L 325.33631 236.625455 
L 325.931934 236.076364 
L 326.527557 227.290909 
L 327.123181 232.232727 
L 327.718804 227.84 
L 328.314428 233.330909 
L 328.910052 234.978182 
L 329.505675 234.429091 
L 330.101299 235.527273 
L 330.696922 243.214545 
L 331.292546 228.389091 
L 331.888169 228.389091 
L 332.483793 242.665455 
L 333.079416 236.625455 
L 333.67504 238.272727 
L 334.270664 234.429091 
L 334.866287 237.723636 
L 335.461911 237.723636 
L 336.057534 228.938182 
L 336.653158 241.018182 
L 337.248781 238.272727 
L 337.844405 232.232727 
L 338.440028 248.156364 
L 339.035652 225.094545 
L 339.631276 237.723636 
L 340.226899 220.701818 
L 340.822523 232.781818 
L 341.418146 229.487273 
L 342.01377 239.92 
L 342.609393 220.701818 
L 343.205017 248.156364 
L 343.80064 224.545455 
L 344.396264 236.076364 
L 344.991888 234.429091 
L 345.587511 236.625455 
L 346.183135 219.054545 
L 346.778758 238.272727 
L 347.374382 230.585455 
L 347.970005 227.290909 
L 348.565629 241.018182 
L 349.161252 241.018182 
L 349.756876 239.370909 
L 350.3525 242.116364 
L 350.948123 246.509091 
L 351.543747 230.585455 
L 352.13937 246.509091 
L 352.734994 238.272727 
L 353.330617 234.429091 
L 353.926241 233.330909 
L 354.521864 234.978182 
L 355.117488 250.352727 
L 355.713112 233.88 
L 356.308735 236.625455 
L 356.904359 247.607273 
L 357.499982 225.094545 
L 358.095606 249.254545 
L 358.691229 234.978182 
L 359.286853 238.272727 
L 359.882476 233.330909 
L 360.4781 232.781818 
L 361.073724 236.625455 
L 361.669347 234.429091 
L 362.264971 231.134545 
L 362.860594 230.036364 
L 364.051841 236.076364 
L 364.647465 228.389091 
L 365.243088 235.527273 
L 365.838712 247.607273 
L 366.434336 239.92 
L 367.029959 241.567273 
L 367.625583 240.469091 
L 368.221206 232.781818 
L 368.81683 236.076364 
L 369.412453 236.625455 
L 370.008077 234.429091 
L 370.6037 228.389091 
L 371.794948 233.88 
L 372.390571 245.410909 
L 372.986195 232.232727 
L 373.581818 230.036364 
L 373.581818 230.036364 
" clip-path="url(#p131c747d7b)" style="fill: none; stroke: #1f77b4; stroke-width: 1.5; stroke-linecap: square"/>
   </g>
   <g id="line2d_26">
    <path d="M 69.218182 240.055426 
L 69.813805 240.54296 
L 70.409429 230.54852 
L 71.005052 233.961256 
L 71.600676 227.379552 
L 72.1963 226.160717 
L 72.791923 231.767354 
L 73.387547 234.692556 
L 73.98317 229.085919 
L 74.578794 220.797848 
L 75.174417 235.18009 
L 75.770041 225.429417 
L 76.365664 223.235516 
L 76.961288 223.235516 
L 77.556912 240.299193 
L 78.152535 220.554081 
L 78.748159 225.18565 
L 79.343782 218.360179 
L 79.939406 235.423857 
L 80.535029 233.717489 
L 81.130653 236.886457 
L 81.726276 222.504215 
L 82.3219 227.623318 
L 82.917524 224.45435 
L 83.513147 231.279821 
L 84.108771 231.279821 
L 84.704394 235.91139 
L 85.300018 232.011121 
L 85.895641 243.224395 
L 86.491265 225.673184 
L 87.086888 227.379552 
L 87.682512 217.141345 
L 88.278136 225.18565 
L 88.873759 218.360179 
L 89.469383 231.036054 
L 90.065006 225.429417 
L 90.66063 237.617758 
L 91.256253 237.861525 
L 91.851877 214.703677 
L 92.4475 233.717489 
L 93.043124 223.479283 
L 93.638748 216.410045 
L 94.829995 234.692556 
L 95.425618 239.324126 
L 96.021242 237.861525 
L 96.616865 230.060987 
L 97.212489 232.254888 
L 97.808112 221.772915 
L 98.403736 221.285381 
L 98.99936 235.18009 
L 99.594983 228.842152 
L 100.190607 228.842152 
L 101.381854 235.667623 
L 101.977477 226.648251 
L 102.573101 227.867085 
L 103.168724 229.81722 
L 103.764348 243.224395 
L 104.359972 238.105291 
L 104.955595 221.285381 
L 105.551219 238.349058 
L 106.146842 235.18009 
L 106.742466 228.842152 
L 107.338089 237.617758 
L 107.933713 227.379552 
L 108.529336 237.861525 
L 109.12496 224.941883 
L 109.720584 224.941883 
L 110.316207 233.717489 
L 110.911831 227.379552 
L 111.507454 217.385112 
L 112.103078 229.81722 
L 112.698701 226.892018 
L 113.294325 231.279821 
L 113.889948 224.941883 
L 114.485572 232.742422 
L 115.081196 229.329686 
L 115.676819 231.279821 
L 116.272443 228.110852 
L 116.868066 223.723049 
L 117.46369 229.085919 
L 118.059313 241.518027 
L 118.654937 221.772915 
L 119.25056 221.772915 
L 119.846184 212.509776 
L 120.441808 230.060987 
L 121.037431 215.434978 
L 121.633055 235.91139 
L 122.228678 231.767354 
L 122.824302 229.573453 
L 123.419925 232.011121 
L 124.015549 236.642691 
L 124.611172 231.279821 
L 125.206796 222.991749 
L 125.802419 250.537399 
L 126.398043 218.847713 
L 126.993667 238.349058 
L 127.58929 243.955695 
L 128.184914 233.717489 
L 128.780537 232.986188 
L 129.376161 238.105291 
L 129.971784 237.861525 
L 130.567408 239.080359 
L 131.163031 233.717489 
L 131.758655 225.673184 
L 132.354279 230.792287 
L 132.949902 225.18565 
L 133.545526 221.772915 
L 134.141149 225.429417 
L 134.736773 220.797848 
L 135.332396 224.210583 
L 135.92802 232.986188 
L 136.523643 228.110852 
L 137.119267 245.418296 
L 137.714891 221.772915 
L 138.310514 224.210583 
L 138.906138 227.135785 
L 139.501761 226.892018 
L 140.097385 234.448789 
L 140.693008 234.692556 
L 141.288632 223.723049 
L 141.884255 236.886457 
L 142.479879 214.947444 
L 143.075503 228.354619 
L 143.671126 222.504215 
L 144.26675 233.473722 
L 144.862373 228.842152 
L 145.457997 233.961256 
L 146.05362 227.867085 
L 146.649244 231.523587 
L 147.244867 247.612197 
L 147.840491 239.811659 
L 148.436115 237.617758 
L 149.031738 229.573453 
L 149.627362 213.241076 
L 150.222985 230.54852 
L 150.818609 225.429417 
L 151.414232 234.936323 
L 152.009856 242.493094 
L 152.605479 235.18009 
L 153.201103 231.279821 
L 153.796727 231.279821 
L 154.39235 226.160717 
L 154.987974 237.617758 
L 155.583597 234.448789 
L 156.179221 220.554081 
L 156.774844 231.279821 
L 157.370468 230.060987 
L 157.966091 231.767354 
L 158.561715 222.747982 
L 159.157339 236.398924 
L 159.752962 236.398924 
L 160.348586 228.110852 
L 161.539833 240.299193 
L 162.135456 235.423857 
L 162.73108 239.324126 
L 163.326703 233.473722 
L 163.922327 234.692556 
L 164.517951 220.797848 
L 165.113574 224.698117 
L 165.709198 227.135785 
L 166.304821 233.961256 
L 166.900445 220.554081 
L 167.496068 234.448789 
L 168.091692 232.498655 
L 168.687315 235.667623 
L 169.282939 237.861525 
L 169.878563 231.279821 
L 170.474186 238.349058 
L 171.06981 231.279821 
L 171.665433 225.673184 
L 172.261057 239.567892 
L 172.85668 221.529148 
L 173.452304 231.036054 
L 174.047927 232.011121 
L 174.643551 215.922511 
L 175.239175 229.573453 
L 175.834798 226.160717 
L 176.430422 239.324126 
L 177.026045 241.030493 
L 177.621669 247.124664 
L 178.217292 229.81722 
L 178.812916 236.642691 
L 179.408539 228.354619 
L 180.004163 233.717489 
L 180.599787 230.060987 
L 181.19541 222.504215 
L 181.791034 238.592825 
L 182.386657 223.966816 
L 182.982281 220.797848 
L 183.577904 237.373991 
L 184.173528 240.299193 
L 184.769151 233.961256 
L 185.960399 245.174529 
L 186.556022 239.811659 
L 187.151646 224.698117 
L 187.747269 218.360179 
L 188.342893 224.210583 
L 188.938516 240.055426 
L 189.53414 221.041614 
L 190.129763 222.747982 
L 190.725387 228.354619 
L 191.916634 225.18565 
L 192.512258 233.229955 
L 193.107881 222.504215 
L 193.703505 214.45991 
L 194.299128 215.922511 
L 194.894752 215.678744 
L 195.490375 203.00287 
L 196.085999 194.227265 
L 196.681622 190.083229 
L 197.277246 172.775785 
L 197.87287 166.681614 
L 198.468493 144.742601 
L 199.65974 134.504395 
L 200.255364 128.410224 
L 201.446611 83.800897 
L 202.042234 92.088969 
L 202.637858 102.327175 
L 203.233482 77.950493 
L 203.829105 79.900628 
L 204.424729 90.626368 
L 205.020352 89.163767 
L 205.615976 114.515516 
L 206.211599 115.978117 
L 206.807223 106.958744 
L 207.402846 138.892197 
L 207.99847 163.756413 
L 208.594094 161.806278 
L 209.189717 164.975247 
L 209.785341 161.806278 
L 210.380964 165.950314 
L 210.976588 171.800717 
L 211.572211 161.562511 
L 212.167835 179.113722 
L 212.763458 155.955874 
L 213.359082 167.900448 
L 213.954706 167.900448 
L 214.550329 155.224574 
L 215.145953 147.91157 
L 215.741576 159.612377 
L 216.3372 157.418475 
L 216.932823 164.487713 
L 218.12407 174.969686 
L 218.719694 175.213453 
L 219.315318 198.615067 
L 219.910941 198.858834 
L 220.506565 204.465471 
L 221.102188 203.73417 
L 221.697812 212.753543 
L 222.293435 234.448789 
L 222.889059 222.016682 
L 223.484682 223.723049 
L 224.080306 239.567892 
L 224.67593 234.936323 
L 225.867177 221.772915 
L 226.4628 232.498655 
L 227.058424 235.423857 
L 227.654047 220.310314 
L 228.249671 234.936323 
L 228.845294 234.692556 
L 229.440918 225.916951 
L 230.036542 232.498655 
L 230.632165 226.404484 
L 231.227789 215.678744 
L 231.823412 226.648251 
L 232.419036 223.723049 
L 233.014659 242.493094 
L 233.610283 241.030493 
L 234.205906 234.936323 
L 234.80153 241.27426 
L 235.397154 235.18009 
L 235.992777 225.673184 
L 236.588401 235.18009 
L 237.184024 221.772915 
L 237.779648 226.160717 
L 238.375271 234.936323 
L 238.970895 173.019552 
L 239.566518 222.016682 
L 240.162142 241.761794 
L 240.757766 235.423857 
L 241.353389 238.592825 
L 241.949013 239.080359 
L 242.544636 225.916951 
L 243.14026 234.205022 
L 243.735883 246.149596 
L 244.331507 214.947444 
L 244.92713 228.110852 
L 245.522754 221.772915 
L 246.118378 229.573453 
L 246.714001 231.279821 
L 247.309625 221.041614 
L 247.905248 231.523587 
L 248.500872 229.329686 
L 249.096495 234.205022 
L 249.692119 237.861525 
L 250.287742 225.673184 
L 250.883366 232.011121 
L 251.47899 225.429417 
L 252.074613 252 
L 252.670237 228.598386 
L 253.26586 230.060987 
L 253.861484 237.373991 
L 254.457107 238.349058 
L 255.052731 233.961256 
L 255.648354 234.692556 
L 256.243978 230.304753 
L 256.839601 224.210583 
L 257.435225 214.703677 
L 258.030849 230.792287 
L 258.626472 211.290942 
L 259.222096 221.041614 
L 259.817719 223.479283 
L 260.413343 222.260448 
L 261.008966 226.648251 
L 261.60459 200.321435 
L 262.200213 209.828341 
L 262.795837 196.664933 
L 263.391461 197.396233 
L 263.987084 174.482152 
L 264.582708 160.831211 
L 265.178331 163.268879 
L 265.773955 129.872825 
L 266.369578 140.598565 
L 267.560825 93.064036 
L 268.156449 66.249686 
L 268.752073 68.443587 
L 269.347696 39.435336 
L 269.94332 35.2913 
L 270.538943 34.56 
L 271.134567 42.604305 
L 271.73019 43.823139 
L 272.325814 56.255247 
L 272.921437 63.568251 
L 273.517061 88.432466 
L 274.112685 87.457399 
L 274.708308 107.202511 
L 275.303932 118.659552 
L 275.899555 158.881076 
L 276.495179 168.144215 
L 277.090802 163.756413 
L 277.686426 204.953004 
L 278.282049 197.64 
L 279.473297 215.922511 
L 280.06892 220.554081 
L 280.664544 229.085919 
L 281.260167 216.410045 
L 281.855791 225.673184 
L 282.451414 229.573453 
L 283.047038 242.736861 
L 283.642661 234.448789 
L 284.238285 233.229955 
L 284.833909 231.279821 
L 285.429532 232.254888 
L 286.025156 223.966816 
L 286.620779 232.254888 
L 287.216403 234.692556 
L 287.812026 241.761794 
L 288.40765 236.398924 
L 289.003273 236.398924 
L 289.598897 235.18009 
L 290.194521 230.792287 
L 290.790144 239.567892 
L 291.981391 222.260448 
L 292.577015 223.723049 
L 293.172638 239.324126 
L 293.768262 246.880897 
L 294.363885 231.523587 
L 294.959509 234.936323 
L 295.555133 233.229955 
L 296.150756 222.747982 
L 296.74638 228.354619 
L 297.342003 228.598386 
L 297.937627 223.479283 
L 298.53325 230.060987 
L 299.128874 234.205022 
L 299.724497 219.579013 
L 300.320121 232.742422 
L 300.915745 224.210583 
L 301.511368 228.598386 
L 302.106992 229.573453 
L 302.702615 228.598386 
L 303.298239 238.349058 
L 303.893862 229.81722 
L 304.489486 238.349058 
L 305.085109 239.567892 
L 305.680733 234.936323 
L 306.276357 238.592825 
L 306.87198 235.91139 
L 307.467604 232.011121 
L 308.063227 232.742422 
L 308.658851 226.648251 
L 309.254474 232.986188 
L 309.850098 228.842152 
L 310.445721 236.642691 
L 311.041345 236.155157 
L 311.636969 230.304753 
L 312.232592 233.961256 
L 312.828216 229.573453 
L 313.423839 236.155157 
L 314.019463 230.792287 
L 314.615086 232.498655 
L 315.21071 232.986188 
L 315.806333 229.329686 
L 316.401957 236.398924 
L 316.997581 224.210583 
L 317.593204 227.867085 
L 318.188828 233.717489 
L 318.784451 232.742422 
L 319.380075 237.130224 
L 319.975698 222.504215 
L 320.571322 236.642691 
L 321.166945 246.63713 
L 321.762569 225.429417 
L 322.358192 234.936323 
L 322.953816 225.429417 
L 323.54944 231.279821 
L 324.145063 224.698117 
L 324.740687 224.45435 
L 325.33631 230.304753 
L 325.931934 227.623318 
L 326.527557 221.772915 
L 327.123181 236.398924 
L 327.718804 239.080359 
L 328.314428 227.135785 
L 328.910052 236.155157 
L 329.505675 237.373991 
L 330.101299 236.155157 
L 330.696922 237.861525 
L 331.888169 229.085919 
L 332.483793 221.285381 
L 333.079416 238.105291 
L 333.67504 235.18009 
L 334.270664 240.786726 
L 334.866287 239.324126 
L 335.461911 232.011121 
L 336.057534 232.498655 
L 336.653158 226.648251 
L 337.248781 225.429417 
L 337.844405 231.279821 
L 338.440028 232.498655 
L 339.631276 214.45991 
L 340.226899 242.980628 
L 340.822523 230.304753 
L 341.418146 243.955695 
L 342.01377 228.598386 
L 342.609393 231.279821 
L 343.205017 231.279821 
L 343.80064 238.836592 
L 344.396264 228.110852 
L 344.991888 234.936323 
L 345.587511 232.011121 
L 346.183135 238.592825 
L 346.778758 228.842152 
L 347.374382 229.81722 
L 347.970005 225.916951 
L 348.565629 234.936323 
L 349.161252 226.160717 
L 349.756876 227.135785 
L 350.3525 228.598386 
L 350.948123 224.698117 
L 351.543747 237.373991 
L 352.13937 233.229955 
L 352.734994 245.90583 
L 353.330617 230.304753 
L 353.926241 227.867085 
L 354.521864 222.504215 
L 355.117488 230.792287 
L 355.713112 225.673184 
L 356.308735 227.379552 
L 356.904359 219.579013 
L 357.499982 237.130224 
L 358.095606 222.260448 
L 359.286853 234.205022 
L 359.882476 227.623318 
L 360.4781 229.329686 
L 361.073724 232.254888 
L 361.669347 230.54852 
L 362.264971 230.304753 
L 362.860594 240.055426 
L 363.456218 239.811659 
L 364.051841 239.080359 
L 364.647465 230.792287 
L 365.243088 233.961256 
L 365.838712 227.867085 
L 366.434336 234.936323 
L 367.029959 227.379552 
L 367.625583 235.667623 
L 368.221206 221.529148 
L 368.81683 221.529148 
L 369.412453 237.861525 
L 370.008077 239.567892 
L 370.6037 224.45435 
L 371.199324 229.085919 
L 371.794948 225.429417 
L 372.390571 239.324126 
L 372.986195 230.792287 
L 373.581818 234.205022 
L 373.581818 234.205022 
" clip-path="url(#p131c747d7b)" style="fill: none; stroke: #ff7f0e; stroke-width: 1.5; stroke-linecap: square"/>
   </g>
   <g id="line2d_27">
    <path d="M 69.218182 218.547692 
L 69.813805 226.910769 
L 70.409429 229.370498 
L 71.005052 232.814118 
L 71.600676 232.814118 
L 72.1963 233.798009 
L 72.791923 229.370498 
L 73.387547 227.402715 
L 73.98317 221.007421 
L 74.578794 239.701357 
L 75.174417 223.467149 
L 76.365664 231.338281 
L 76.961288 230.846335 
L 77.556912 225.434932 
L 78.152535 228.386606 
L 78.748159 223.959095 
L 79.343782 223.959095 
L 79.939406 226.910769 
L 81.130653 220.515475 
L 81.726276 221.007421 
L 82.3219 228.386606 
L 82.917524 220.515475 
L 83.513147 235.765792 
L 84.108771 223.959095 
L 84.704394 229.370498 
L 85.300018 223.467149 
L 85.895641 235.765792 
L 86.491265 228.386606 
L 87.682512 220.515475 
L 88.278136 222.975204 
L 88.873759 222.975204 
L 89.469383 235.273846 
L 90.065006 236.257738 
L 90.66063 226.910769 
L 91.256253 229.862443 
L 91.851877 219.531584 
L 92.4475 231.338281 
L 93.043124 222.975204 
L 93.638748 228.386606 
L 94.234371 222.975204 
L 94.829995 227.402715 
L 95.425618 226.418824 
L 96.021242 223.959095 
L 96.616865 221.991312 
L 97.212489 224.451041 
L 97.808112 230.846335 
L 98.403736 225.434932 
L 98.99936 223.959095 
L 99.594983 233.306063 
L 100.190607 228.386606 
L 100.78623 225.926878 
L 101.381854 223.959095 
L 101.977477 228.878552 
L 102.573101 228.386606 
L 103.168724 219.531584 
L 103.764348 235.273846 
L 104.359972 223.959095 
L 104.955595 231.338281 
L 105.551219 223.467149 
L 106.146842 232.322172 
L 106.742466 219.039638 
L 107.338089 214.120181 
L 107.933713 238.22552 
L 108.529336 241.177195 
L 109.12496 240.685249 
L 109.720584 234.7819 
L 110.316207 224.942986 
L 110.911831 235.273846 
L 111.507454 236.257738 
L 112.103078 229.370498 
L 112.698701 227.894661 
L 113.294325 220.023529 
L 113.889948 229.862443 
L 114.485572 222.975204 
L 115.081196 234.7819 
L 115.676819 233.306063 
L 116.272443 228.386606 
L 116.868066 235.765792 
L 117.46369 227.402715 
L 118.059313 228.878552 
L 118.654937 221.499367 
L 119.25056 234.289955 
L 119.846184 219.531584 
L 120.441808 233.798009 
L 121.037431 228.878552 
L 121.633055 232.322172 
L 122.228678 218.055747 
L 122.824302 231.830226 
L 123.419925 237.241629 
L 124.015549 234.7819 
L 124.611172 236.257738 
L 125.206796 220.515475 
L 125.802419 236.749683 
L 126.398043 221.499367 
L 126.993667 216.57991 
L 127.58929 227.402715 
L 128.184914 234.7819 
L 128.780537 237.733575 
L 129.971784 223.959095 
L 130.567408 223.959095 
L 131.163031 227.402715 
L 131.758655 234.7819 
L 132.354279 235.273846 
L 132.949902 218.055747 
L 133.545526 217.563801 
L 134.141149 215.104072 
L 134.736773 221.499367 
L 135.332396 236.257738 
L 135.92802 226.418824 
L 136.523643 237.241629 
L 137.119267 234.289955 
L 137.714891 229.370498 
L 138.310514 228.386606 
L 138.906138 222.483258 
L 139.501761 236.257738 
L 140.097385 236.257738 
L 140.693008 224.942986 
L 141.288632 224.942986 
L 141.884255 229.370498 
L 142.479879 230.846335 
L 143.075503 223.467149 
L 143.671126 218.547692 
L 144.26675 234.289955 
L 144.862373 236.749683 
L 145.457997 237.733575 
L 146.05362 230.846335 
L 146.649244 227.402715 
L 147.244867 230.846335 
L 148.436115 219.039638 
L 149.031738 222.975204 
L 149.627362 235.765792 
L 150.222985 220.515475 
L 150.818609 223.467149 
L 151.414232 233.306063 
L 152.009856 222.975204 
L 152.605479 237.241629 
L 153.201103 231.338281 
L 153.796727 235.765792 
L 154.39235 229.862443 
L 154.987974 229.370498 
L 155.583597 232.814118 
L 156.179221 219.039638 
L 156.774844 208.216833 
L 157.370468 225.434932 
L 157.966091 238.717466 
L 158.561715 233.306063 
L 159.157339 230.846335 
L 159.752962 243.636923 
L 160.348586 224.942986 
L 160.944209 226.910769 
L 161.539833 221.499367 
L 162.135456 241.177195 
L 162.73108 233.306063 
L 163.326703 227.402715 
L 163.922327 239.701357 
L 164.517951 220.023529 
L 165.113574 221.007421 
L 165.709198 234.7819 
L 166.304821 223.467149 
L 166.900445 233.306063 
L 167.496068 221.499367 
L 168.091692 232.322172 
L 168.687315 226.910769 
L 169.282939 224.942986 
L 169.878563 238.22552 
L 170.474186 221.991312 
L 171.06981 224.451041 
L 171.665433 216.087964 
L 172.261057 221.499367 
L 172.85668 234.7819 
L 173.452304 216.57991 
L 174.047927 232.814118 
L 174.643551 227.894661 
L 175.239175 234.289955 
L 175.834798 226.910769 
L 176.430422 225.926878 
L 177.026045 239.701357 
L 177.621669 222.975204 
L 178.217292 227.402715 
L 178.812916 229.370498 
L 179.408539 240.685249 
L 180.004163 220.023529 
L 180.599787 239.209412 
L 181.19541 215.596018 
L 181.791034 234.289955 
L 182.386657 233.798009 
L 182.982281 214.612127 
L 183.577904 225.434932 
L 184.173528 240.685249 
L 184.769151 233.798009 
L 185.364775 237.241629 
L 185.960399 224.942986 
L 186.556022 229.862443 
L 187.151646 232.814118 
L 187.747269 238.22552 
L 188.342893 235.273846 
L 188.938516 221.991312 
L 189.53414 234.289955 
L 190.129763 228.878552 
L 190.725387 214.120181 
L 191.32101 234.7819 
L 191.916634 226.910769 
L 192.512258 223.467149 
L 193.107881 226.418824 
L 193.703505 222.975204 
L 194.299128 229.370498 
L 194.894752 228.878552 
L 195.490375 230.846335 
L 196.085999 216.57991 
L 196.681622 216.57991 
L 197.277246 244.620814 
L 197.87287 222.975204 
L 198.468493 224.451041 
L 199.064117 220.515475 
L 199.65974 225.926878 
L 200.255364 210.676561 
L 200.850987 200.837647 
L 201.446611 170.828959 
L 202.042234 176.240362 
L 202.637858 176.240362 
L 203.233482 172.796742 
L 204.424729 151.643077 
L 205.020352 119.666606 
L 205.615976 130.489412 
L 206.211599 109.335747 
L 206.807223 102.448507 
L 207.402846 89.657919 
L 207.99847 86.214299 
L 208.594094 81.294842 
L 209.189717 95.561267 
L 209.785341 93.593484 
L 210.380964 100.97267 
L 210.976588 105.400181 
L 211.572211 98.020995 
L 212.167835 137.868597 
L 212.763458 154.594751 
L 213.359082 149.183348 
L 213.954706 161.973937 
L 214.550329 155.086697 
L 215.145953 164.433665 
L 215.741576 166.401448 
L 216.3372 161.973937 
L 216.932823 178.208145 
L 217.528447 166.893394 
L 218.12407 158.038371 
L 218.719694 163.449774 
L 219.315318 158.038371 
L 219.910941 155.578643 
L 220.506565 156.562534 
L 221.102188 157.05448 
L 221.697812 144.263891 
L 222.293435 152.135023 
L 222.889059 171.812851 
L 223.484682 177.224253 
L 224.080306 171.812851 
L 224.67593 188.539005 
L 225.271553 185.095385 
L 225.867177 218.547692 
L 226.4628 209.200724 
L 227.058424 231.830226 
L 228.249671 207.232941 
L 228.845294 229.370498 
L 229.440918 226.418824 
L 230.036542 231.830226 
L 230.632165 224.942986 
L 231.227789 235.273846 
L 231.823412 233.798009 
L 232.419036 244.128869 
L 233.014659 234.289955 
L 233.610283 230.354389 
L 234.205906 212.644344 
L 234.80153 223.959095 
L 235.397154 242.161086 
L 235.992777 225.434932 
L 236.588401 227.402715 
L 237.184024 216.087964 
L 237.779648 231.830226 
L 238.375271 230.354389 
L 238.970895 232.322172 
L 239.566518 218.547692 
L 240.162142 221.007421 
L 240.757766 231.830226 
L 241.353389 231.338281 
L 241.949013 227.894661 
L 242.544636 228.386606 
L 243.14026 239.209412 
L 243.735883 238.717466 
L 244.331507 166.893394 
L 244.92713 224.942986 
L 245.522754 230.846335 
L 246.118378 228.878552 
L 246.714001 231.830226 
L 247.309625 236.257738 
L 247.905248 217.563801 
L 248.500872 228.878552 
L 249.096495 233.798009 
L 249.692119 222.483258 
L 250.287742 231.830226 
L 250.883366 230.846335 
L 251.47899 224.451041 
L 252.074613 231.830226 
L 253.26586 238.22552 
L 253.861484 228.386606 
L 254.457107 241.66914 
L 255.052731 242.161086 
L 255.648354 224.451041 
L 256.243978 234.289955 
L 256.839601 201.821538 
L 257.435225 244.620814 
L 258.030849 217.563801 
L 258.626472 231.830226 
L 259.222096 226.910769 
L 259.817719 227.894661 
L 260.413343 235.765792 
L 261.008966 221.991312 
L 261.60459 225.926878 
L 262.200213 248.064434 
L 262.795837 226.418824 
L 263.391461 229.862443 
L 263.987084 221.499367 
L 264.582708 231.338281 
L 265.178331 223.959095 
L 265.773955 222.483258 
L 266.369578 211.660452 
L 266.965202 223.467149 
L 267.560825 219.039638 
L 268.156449 198.869864 
L 268.752073 188.539005 
L 269.347696 183.127602 
L 269.94332 180.175928 
L 270.538943 174.272579 
L 271.134567 141.804163 
L 271.73019 130.489412 
L 272.325814 101.956561 
L 272.921437 104.908235 
L 273.517061 81.294842 
L 274.112685 86.214299 
L 274.708308 68.504253 
L 275.303932 75.391493 
L 275.899555 34.56 
L 276.495179 56.697557 
L 277.090802 57.189502 
L 277.686426 53.253937 
L 278.282049 54.237828 
L 278.877673 80.802896 
L 279.473297 82.770679 
L 280.06892 100.480724 
L 280.664544 132.457195 
L 281.260167 156.562534 
L 281.855791 157.546425 
L 282.451414 170.337014 
L 283.642661 198.377919 
L 284.238285 201.821538 
L 284.833909 214.612127 
L 285.429532 223.959095 
L 286.025156 238.717466 
L 286.620779 219.039638 
L 287.216403 209.69267 
L 287.812026 227.402715 
L 288.40765 209.200724 
L 289.003273 214.120181 
L 289.598897 223.959095 
L 290.194521 226.910769 
L 290.790144 232.814118 
L 291.385768 235.765792 
L 291.981391 235.765792 
L 292.577015 241.177195 
L 293.172638 221.991312 
L 293.768262 223.959095 
L 294.363885 246.096652 
L 294.959509 236.749683 
L 295.555133 238.717466 
L 296.150756 230.354389 
L 296.74638 242.161086 
L 297.342003 227.894661 
L 297.937627 230.354389 
L 298.53325 223.467149 
L 299.128874 227.402715 
L 299.724497 222.975204 
L 300.320121 236.749683 
L 300.915745 225.926878 
L 301.511368 231.338281 
L 302.106992 230.354389 
L 302.702615 224.451041 
L 303.298239 240.193303 
L 303.893862 232.322172 
L 304.489486 219.039638 
L 305.085109 221.991312 
L 305.680733 228.878552 
L 306.276357 233.798009 
L 306.87198 228.386606 
L 307.467604 232.322172 
L 308.063227 227.402715 
L 308.658851 223.467149 
L 309.254474 221.991312 
L 309.850098 239.209412 
L 310.445721 236.257738 
L 311.041345 225.434932 
L 311.636969 228.386606 
L 312.232592 239.701357 
L 312.828216 229.370498 
L 313.423839 230.354389 
L 314.019463 227.894661 
L 314.615086 221.499367 
L 315.21071 241.177195 
L 315.806333 220.515475 
L 316.401957 234.7819 
L 316.997581 252 
L 317.593204 236.749683 
L 318.188828 233.798009 
L 318.784451 224.451041 
L 319.380075 232.814118 
L 320.571322 215.596018 
L 321.166945 237.241629 
L 321.762569 221.499367 
L 322.358192 236.257738 
L 322.953816 222.975204 
L 323.54944 224.942986 
L 324.145063 241.66914 
L 324.740687 242.161086 
L 325.33631 224.942986 
L 325.931934 227.402715 
L 326.527557 231.338281 
L 327.123181 232.322172 
L 327.718804 221.991312 
L 328.314428 229.862443 
L 328.910052 229.862443 
L 329.505675 241.66914 
L 330.101299 227.402715 
L 330.696922 230.846335 
L 331.292546 227.402715 
L 331.888169 232.814118 
L 332.483793 231.338281 
L 333.079416 224.451041 
L 333.67504 234.289955 
L 334.270664 221.499367 
L 334.866287 231.338281 
L 335.461911 237.241629 
L 336.653158 225.434932 
L 337.248781 227.894661 
L 337.844405 228.878552 
L 338.440028 236.749683 
L 339.035652 218.055747 
L 339.631276 224.942986 
L 340.226899 243.636923 
L 340.822523 238.22552 
L 341.418146 239.701357 
L 342.01377 232.814118 
L 342.609393 230.846335 
L 343.205017 221.007421 
L 343.80064 230.846335 
L 344.396264 228.878552 
L 344.991888 233.798009 
L 345.587511 241.177195 
L 346.183135 241.177195 
L 346.778758 231.830226 
L 347.374382 226.910769 
L 347.970005 219.531584 
L 348.565629 226.418824 
L 349.161252 230.354389 
L 349.756876 226.910769 
L 350.3525 229.862443 
L 350.948123 226.418824 
L 351.543747 243.636923 
L 352.734994 226.418824 
L 353.330617 237.241629 
L 353.926241 234.7819 
L 354.521864 234.289955 
L 355.117488 219.039638 
L 355.713112 216.57991 
L 356.308735 232.814118 
L 356.904359 233.798009 
L 357.499982 238.22552 
L 358.095606 246.096652 
L 358.691229 233.798009 
L 359.286853 231.830226 
L 359.882476 231.830226 
L 360.4781 230.846335 
L 361.073724 223.467149 
L 361.669347 229.370498 
L 362.264971 222.483258 
L 362.860594 241.177195 
L 363.456218 233.798009 
L 364.051841 228.878552 
L 364.647465 229.862443 
L 365.243088 221.007421 
L 365.838712 227.894661 
L 366.434336 216.57991 
L 367.029959 224.451041 
L 367.625583 224.451041 
L 368.221206 227.894661 
L 368.81683 222.975204 
L 370.008077 233.306063 
L 370.6037 214.612127 
L 371.199324 234.7819 
L 371.794948 235.765792 
L 372.390571 235.273846 
L 372.986195 224.942986 
L 373.581818 222.975204 
L 373.581818 222.975204 
" clip-path="url(#p131c747d7b)" style="fill: none; stroke: #2ca02c; stroke-width: 1.5; stroke-linecap: square"/>
   </g>
   <g id="patch_3">
    <path d="M 54 252 
L 54 34.56 
" style="fill: none; stroke: #000000; stroke-width: 0.8; stroke-linejoin: miter; stroke-linecap: square"/>
   </g>
   <g id="patch_4">
    <path d="M 388.8 252 
L 388.8 34.56 
" style="fill: none; stroke: #000000; stroke-width: 0.8; stroke-linejoin: miter; stroke-linecap: square"/>
   </g>
   <g id="patch_5">
    <path d="M 54 252 
L 388.8 252 
" style="fill: none; stroke: #000000; stroke-width: 0.8; stroke-linejoin: miter; stroke-linecap: square"/>
   </g>
   <g id="patch_6">
    <path d="M 54 34.56 
L 388.8 34.56 
" style="fill: none; stroke: #000000; stroke-width: 0.8; stroke-linejoin: miter; stroke-linecap: square"/>
   </g>
   <g id="text_15">
    <!-- Label 10 normalized -->
    <g transform="translate(160.423125 28.56)scale(0.12 -0.12)">
     <defs>
      <path id="DejaVuSans-4c" d="M 628 4666 
L 1259 4666 
L 1259 531 
L 3531 531 
L 3531 0 
L 628 0 
L 628 4666 
z
" transform="scale(0.015625)"/>
      <path id="DejaVuSans-61" d="M 2194 1759 
Q 1497 1759 1228 1600 
Q 959 1441 959 1056 
Q 959 750 1161 570 
Q 1363 391 1709 391 
Q 2188 391 2477 730 
Q 2766 1069 2766 1631 
L 2766 1759 
L 2194 1759 
z
M 3341 1997 
L 3341 0 
L 2766 0 
L 2766 531 
Q 2569 213 2275 61 
Q 1981 -91 1556 -91 
Q 1019 -91 701 211 
Q 384 513 384 1019 
Q 384 1609 779 1909 
Q 1175 2209 1959 2209 
L 2766 2209 
L 2766 2266 
Q 2766 2663 2505 2880 
Q 2244 3097 1772 3097 
Q 1472 3097 1187 3025 
Q 903 2953 641 2809 
L 641 3341 
Q 956 3463 1253 3523 
Q 1550 3584 1831 3584 
Q 2591 3584 2966 3190 
Q 3341 2797 3341 1997 
z
" transform="scale(0.015625)"/>
      <path id="DejaVuSans-65" d="M 3597 1894 
L 3597 1613 
L 953 1613 
Q 991 1019 1311 708 
Q 1631 397 2203 397 
Q 2534 397 2845 478 
Q 3156 559 3463 722 
L 3463 178 
Q 3153 47 2828 -22 
Q 2503 -91 2169 -91 
Q 1331 -91 842 396 
Q 353 884 353 1716 
Q 353 2575 817 3079 
Q 1281 3584 2069 3584 
Q 2775 3584 3186 3129 
Q 3597 2675 3597 1894 
z
M 3022 2063 
Q 3016 2534 2758 2815 
Q 2500 3097 2075 3097 
Q 1594 3097 1305 2825 
Q 1016 2553 972 2059 
L 3022 2063 
z
" transform="scale(0.015625)"/>
      <path id="DejaVuSans-6c" d="M 603 4863 
L 1178 4863 
L 1178 0 
L 603 0 
L 603 4863 
z
" transform="scale(0.015625)"/>
      <path id="DejaVuSans-20" transform="scale(0.015625)"/>
      <path id="DejaVuSans-72" d="M 2631 2963 
Q 2534 3019 2420 3045 
Q 2306 3072 2169 3072 
Q 1681 3072 1420 2755 
Q 1159 2438 1159 1844 
L 1159 0 
L 581 0 
L 581 3500 
L 1159 3500 
L 1159 2956 
Q 1341 3275 1631 3429 
Q 1922 3584 2338 3584 
Q 2397 3584 2469 3576 
Q 2541 3569 2628 3553 
L 2631 2963 
z
" transform="scale(0.015625)"/>
      <path id="DejaVuSans-6d" d="M 3328 2828 
Q 3544 3216 3844 3400 
Q 4144 3584 4550 3584 
Q 5097 3584 5394 3201 
Q 5691 2819 5691 2113 
L 5691 0 
L 5113 0 
L 5113 2094 
Q 5113 2597 4934 2840 
Q 4756 3084 4391 3084 
Q 3944 3084 3684 2787 
Q 3425 2491 3425 1978 
L 3425 0 
L 2847 0 
L 2847 2094 
Q 2847 2600 2669 2842 
Q 2491 3084 2119 3084 
Q 1678 3084 1418 2786 
Q 1159 2488 1159 1978 
L 1159 0 
L 581 0 
L 581 3500 
L 1159 3500 
L 1159 2956 
Q 1356 3278 1631 3431 
Q 1906 3584 2284 3584 
Q 2666 3584 2933 3390 
Q 3200 3197 3328 2828 
z
" transform="scale(0.015625)"/>
      <path id="DejaVuSans-7a" d="M 353 3500 
L 3084 3500 
L 3084 2975 
L 922 459 
L 3084 459 
L 3084 0 
L 275 0 
L 275 525 
L 2438 3041 
L 353 3041 
L 353 3500 
z
" transform="scale(0.015625)"/>
      <path id="DejaVuSans-64" d="M 2906 2969 
L 2906 4863 
L 3481 4863 
L 3481 0 
L 2906 0 
L 2906 525 
Q 2725 213 2448 61 
Q 2172 -91 1784 -91 
Q 1150 -91 751 415 
Q 353 922 353 1747 
Q 353 2572 751 3078 
Q 1150 3584 1784 3584 
Q 2172 3584 2448 3432 
Q 2725 3281 2906 2969 
z
M 947 1747 
Q 947 1113 1208 752 
Q 1469 391 1925 391 
Q 2381 391 2643 752 
Q 2906 1113 2906 1747 
Q 2906 2381 2643 2742 
Q 2381 3103 1925 3103 
Q 1469 3103 1208 2742 
Q 947 2381 947 1747 
z
" transform="scale(0.015625)"/>
     </defs>
     <use xlink:href="#DejaVuSans-4c"/>
     <use xlink:href="#DejaVuSans-61" x="55.712891"/>
     <use xlink:href="#DejaVuSans-62" x="116.992188"/>
     <use xlink:href="#DejaVuSans-65" x="180.46875"/>
     <use xlink:href="#DejaVuSans-6c" x="241.992188"/>
     <use xlink:href="#DejaVuSans-20" x="269.775391"/>
     <use xlink:href="#DejaVuSans-31" x="301.5625"/>
     <use xlink:href="#DejaVuSans-30" x="365.185547"/>
     <use xlink:href="#DejaVuSans-20" x="428.808594"/>
     <use xlink:href="#DejaVuSans-6e" x="460.595703"/>
     <use xlink:href="#DejaVuSans-6f" x="523.974609"/>
     <use xlink:href="#DejaVuSans-72" x="585.15625"/>
     <use xlink:href="#DejaVuSans-6d" x="624.519531"/>
     <use xlink:href="#DejaVuSans-61" x="721.931641"/>
     <use xlink:href="#DejaVuSans-6c" x="783.210938"/>
     <use xlink:href="#DejaVuSans-69" x="810.994141"/>
     <use xlink:href="#DejaVuSans-7a" x="838.777344"/>
     <use xlink:href="#DejaVuSans-65" x="891.267578"/>
     <use xlink:href="#DejaVuSans-64" x="952.791016"/>
    </g>
   </g>
   <g id="legend_1">
    <g id="patch_7">
     <path d="M 309.070312 101.2725 
L 381.8 101.2725 
Q 383.8 101.2725 383.8 99.2725 
L 383.8 41.56 
Q 383.8 39.56 381.8 39.56 
L 309.070312 39.56 
Q 307.070312 39.56 307.070312 41.56 
L 307.070312 99.2725 
Q 307.070312 101.2725 309.070312 101.2725 
z
" style="fill: #ffffff; opacity: 0.8; stroke: #cccccc; stroke-linejoin: miter"/>
    </g>
    <g id="text_16">
     <!-- Trace number -->
     <g transform="translate(311.070312 51.158437)scale(0.1 -0.1)">
      <defs>
       <path id="DejaVuSans-54" d="M -19 4666 
L 3928 4666 
L 3928 4134 
L 2272 4134 
L 2272 0 
L 1638 0 
L 1638 4134 
L -19 4134 
L -19 4666 
z
" transform="scale(0.015625)"/>
      </defs>
      <use xlink:href="#DejaVuSans-54"/>
      <use xlink:href="#DejaVuSans-72" x="46.333984"/>
      <use xlink:href="#DejaVuSans-61" x="87.447266"/>
      <use xlink:href="#DejaVuSans-63" x="148.726562"/>
      <use xlink:href="#DejaVuSans-65" x="203.707031"/>
      <use xlink:href="#DejaVuSans-20" x="265.230469"/>
      <use xlink:href="#DejaVuSans-6e" x="297.017578"/>
      <use xlink:href="#DejaVuSans-75" x="360.396484"/>
      <use xlink:href="#DejaVuSans-6d" x="423.775391"/>
      <use xlink:href="#DejaVuSans-62" x="521.1875"/>
      <use xlink:href="#DejaVuSans-65" x="584.664062"/>
      <use xlink:href="#DejaVuSans-72" x="646.1875"/>
     </g>
    </g>
    <g id="line2d_28">
     <path d="M 325.072656 62.336562 
L 335.072656 62.336562 
L 345.072656 62.336562 
" style="fill: none; stroke: #1f77b4; stroke-width: 1.5; stroke-linecap: square"/>
    </g>
    <g id="text_17">
     <!-- 18 -->
     <g transform="translate(353.072656 65.836562)scale(0.1 -0.1)">
      <use xlink:href="#DejaVuSans-31"/>
      <use xlink:href="#DejaVuSans-38" x="63.623047"/>
     </g>
    </g>
    <g id="line2d_29">
     <path d="M 325.072656 77.014687 
L 335.072656 77.014687 
L 345.072656 77.014687 
" style="fill: none; stroke: #ff7f0e; stroke-width: 1.5; stroke-linecap: square"/>
    </g>
    <g id="text_18">
     <!-- 54 -->
     <g transform="translate(353.072656 80.514687)scale(0.1 -0.1)">
      <use xlink:href="#DejaVuSans-35"/>
      <use xlink:href="#DejaVuSans-34" x="63.623047"/>
     </g>
    </g>
    <g id="line2d_30">
     <path d="M 325.072656 91.692813 
L 335.072656 91.692813 
L 345.072656 91.692813 
" style="fill: none; stroke: #2ca02c; stroke-width: 1.5; stroke-linecap: square"/>
    </g>
    <g id="text_19">
     <!-- 57 -->
     <g transform="translate(353.072656 95.192813)scale(0.1 -0.1)">
      <defs>
       <path id="DejaVuSans-37" d="M 525 4666 
L 3525 4666 
L 3525 4397 
L 1831 0 
L 1172 0 
L 2766 4134 
L 525 4134 
L 525 4666 
z
" transform="scale(0.015625)"/>
      </defs>
      <use xlink:href="#DejaVuSans-35"/>
      <use xlink:href="#DejaVuSans-37" x="63.623047"/>
     </g>
    </g>
   </g>
  </g>
 </g>
 <defs>
  <clipPath id="p131c747d7b">
   <rect x="54" y="34.56" width="334.8" height="217.44"/>
  </clipPath>
 </defs>
</svg>
