<?xml version="1.0" encoding="utf-8" standalone="no"?>
<!DOCTYPE svg PUBLIC "-//W3C//DTD SVG 1.1//EN"
  "http://www.w3.org/Graphics/SVG/1.1/DTD/svg11.dtd">
<svg xmlns:xlink="http://www.w3.org/1999/xlink" width="432pt" height="288pt" viewBox="0 0 432 288" xmlns="http://www.w3.org/2000/svg" version="1.1">
 <metadata>
  <rdf:RDF xmlns:dc="http://purl.org/dc/elements/1.1/" xmlns:cc="http://creativecommons.org/ns#" xmlns:rdf="http://www.w3.org/1999/02/22-rdf-syntax-ns#">
   <cc:Work>
    <dc:type rdf:resource="http://purl.org/dc/dcmitype/StillImage"/>
    <dc:date>2022-03-30T13:16:46.811076</dc:date>
    <dc:format>image/svg+xml</dc:format>
    <dc:creator>
     <cc:Agent>
      <dc:title>Matplotlib v3.5.1, https://matplotlib.org/</dc:title>
     </cc:Agent>
    </dc:creator>
   </cc:Work>
  </rdf:RDF>
 </metadata>
 <defs>
  <style type="text/css">*{stroke-linejoin: round; stroke-linecap: butt}</style>
 </defs>
 <g id="figure_1">
  <g id="patch_1">
   <path d="M 0 288 
L 432 288 
L 432 0 
L 0 0 
z
" style="fill: #ffffff"/>
  </g>
  <g id="axes_1">
   <g id="patch_2">
    <path d="M 54 252 
L 388.8 252 
L 388.8 34.56 
L 54 34.56 
z
" style="fill: #ffffff"/>
   </g>
   <g id="matplotlib.axis_1">
    <g id="xtick_1">
     <g id="line2d_1">
      <path d="M 69.218182 252 
L 69.218182 34.56 
" clip-path="url(#pf1414692ac)" style="fill: none; stroke: #b0b0b0; stroke-width: 0.8; stroke-linecap: square"/>
     </g>
     <g id="line2d_2">
      <defs>
       <path id="mf353d4eb80" d="M 0 0 
L 0 3.5 
" style="stroke: #000000; stroke-width: 0.8"/>
      </defs>
      <g>
       <use xlink:href="#mf353d4eb80" x="69.218182" y="252" style="stroke: #000000; stroke-width: 0.8"/>
      </g>
     </g>
     <g id="text_1">
      <!-- 0 -->
      <g transform="translate(66.036932 266.598437)scale(0.1 -0.1)">
       <defs>
        <path id="DejaVuSans-30" d="M 2034 4250 
Q 1547 4250 1301 3770 
Q 1056 3291 1056 2328 
Q 1056 1369 1301 889 
Q 1547 409 2034 409 
Q 2525 409 2770 889 
Q 3016 1369 3016 2328 
Q 3016 3291 2770 3770 
Q 2525 4250 2034 4250 
z
M 2034 4750 
Q 2819 4750 3233 4129 
Q 3647 3509 3647 2328 
Q 3647 1150 3233 529 
Q 2819 -91 2034 -91 
Q 1250 -91 836 529 
Q 422 1150 422 2328 
Q 422 3509 836 4129 
Q 1250 4750 2034 4750 
z
" transform="scale(0.015625)"/>
       </defs>
       <use xlink:href="#DejaVuSans-30"/>
      </g>
     </g>
    </g>
    <g id="xtick_2">
     <g id="line2d_3">
      <path d="M 128.780537 252 
L 128.780537 34.56 
" clip-path="url(#pf1414692ac)" style="fill: none; stroke: #b0b0b0; stroke-width: 0.8; stroke-linecap: square"/>
     </g>
     <g id="line2d_4">
      <g>
       <use xlink:href="#mf353d4eb80" x="128.780537" y="252" style="stroke: #000000; stroke-width: 0.8"/>
      </g>
     </g>
     <g id="text_2">
      <!-- 100 -->
      <g transform="translate(119.236787 266.598437)scale(0.1 -0.1)">
       <defs>
        <path id="DejaVuSans-31" d="M 794 531 
L 1825 531 
L 1825 4091 
L 703 3866 
L 703 4441 
L 1819 4666 
L 2450 4666 
L 2450 531 
L 3481 531 
L 3481 0 
L 794 0 
L 794 531 
z
" transform="scale(0.015625)"/>
       </defs>
       <use xlink:href="#DejaVuSans-31"/>
       <use xlink:href="#DejaVuSans-30" x="63.623047"/>
       <use xlink:href="#DejaVuSans-30" x="127.246094"/>
      </g>
     </g>
    </g>
    <g id="xtick_3">
     <g id="line2d_5">
      <path d="M 188.342893 252 
L 188.342893 34.56 
" clip-path="url(#pf1414692ac)" style="fill: none; stroke: #b0b0b0; stroke-width: 0.8; stroke-linecap: square"/>
     </g>
     <g id="line2d_6">
      <g>
       <use xlink:href="#mf353d4eb80" x="188.342893" y="252" style="stroke: #000000; stroke-width: 0.8"/>
      </g>
     </g>
     <g id="text_3">
      <!-- 200 -->
      <g transform="translate(178.799143 266.598437)scale(0.1 -0.1)">
       <defs>
        <path id="DejaVuSans-32" d="M 1228 531 
L 3431 531 
L 3431 0 
L 469 0 
L 469 531 
Q 828 903 1448 1529 
Q 2069 2156 2228 2338 
Q 2531 2678 2651 2914 
Q 2772 3150 2772 3378 
Q 2772 3750 2511 3984 
Q 2250 4219 1831 4219 
Q 1534 4219 1204 4116 
Q 875 4013 500 3803 
L 500 4441 
Q 881 4594 1212 4672 
Q 1544 4750 1819 4750 
Q 2544 4750 2975 4387 
Q 3406 4025 3406 3419 
Q 3406 3131 3298 2873 
Q 3191 2616 2906 2266 
Q 2828 2175 2409 1742 
Q 1991 1309 1228 531 
z
" transform="scale(0.015625)"/>
       </defs>
       <use xlink:href="#DejaVuSans-32"/>
       <use xlink:href="#DejaVuSans-30" x="63.623047"/>
       <use xlink:href="#DejaVuSans-30" x="127.246094"/>
      </g>
     </g>
    </g>
    <g id="xtick_4">
     <g id="line2d_7">
      <path d="M 247.905248 252 
L 247.905248 34.56 
" clip-path="url(#pf1414692ac)" style="fill: none; stroke: #b0b0b0; stroke-width: 0.8; stroke-linecap: square"/>
     </g>
     <g id="line2d_8">
      <g>
       <use xlink:href="#mf353d4eb80" x="247.905248" y="252" style="stroke: #000000; stroke-width: 0.8"/>
      </g>
     </g>
     <g id="text_4">
      <!-- 300 -->
      <g transform="translate(238.361498 266.598437)scale(0.1 -0.1)">
       <defs>
        <path id="DejaVuSans-33" d="M 2597 2516 
Q 3050 2419 3304 2112 
Q 3559 1806 3559 1356 
Q 3559 666 3084 287 
Q 2609 -91 1734 -91 
Q 1441 -91 1130 -33 
Q 819 25 488 141 
L 488 750 
Q 750 597 1062 519 
Q 1375 441 1716 441 
Q 2309 441 2620 675 
Q 2931 909 2931 1356 
Q 2931 1769 2642 2001 
Q 2353 2234 1838 2234 
L 1294 2234 
L 1294 2753 
L 1863 2753 
Q 2328 2753 2575 2939 
Q 2822 3125 2822 3475 
Q 2822 3834 2567 4026 
Q 2313 4219 1838 4219 
Q 1578 4219 1281 4162 
Q 984 4106 628 3988 
L 628 4550 
Q 988 4650 1302 4700 
Q 1616 4750 1894 4750 
Q 2613 4750 3031 4423 
Q 3450 4097 3450 3541 
Q 3450 3153 3228 2886 
Q 3006 2619 2597 2516 
z
" transform="scale(0.015625)"/>
       </defs>
       <use xlink:href="#DejaVuSans-33"/>
       <use xlink:href="#DejaVuSans-30" x="63.623047"/>
       <use xlink:href="#DejaVuSans-30" x="127.246094"/>
      </g>
     </g>
    </g>
    <g id="xtick_5">
     <g id="line2d_9">
      <path d="M 307.467604 252 
L 307.467604 34.56 
" clip-path="url(#pf1414692ac)" style="fill: none; stroke: #b0b0b0; stroke-width: 0.8; stroke-linecap: square"/>
     </g>
     <g id="line2d_10">
      <g>
       <use xlink:href="#mf353d4eb80" x="307.467604" y="252" style="stroke: #000000; stroke-width: 0.8"/>
      </g>
     </g>
     <g id="text_5">
      <!-- 400 -->
      <g transform="translate(297.923854 266.598437)scale(0.1 -0.1)">
       <defs>
        <path id="DejaVuSans-34" d="M 2419 4116 
L 825 1625 
L 2419 1625 
L 2419 4116 
z
M 2253 4666 
L 3047 4666 
L 3047 1625 
L 3713 1625 
L 3713 1100 
L 3047 1100 
L 3047 0 
L 2419 0 
L 2419 1100 
L 313 1100 
L 313 1709 
L 2253 4666 
z
" transform="scale(0.015625)"/>
       </defs>
       <use xlink:href="#DejaVuSans-34"/>
       <use xlink:href="#DejaVuSans-30" x="63.623047"/>
       <use xlink:href="#DejaVuSans-30" x="127.246094"/>
      </g>
     </g>
    </g>
    <g id="xtick_6">
     <g id="line2d_11">
      <path d="M 367.029959 252 
L 367.029959 34.56 
" clip-path="url(#pf1414692ac)" style="fill: none; stroke: #b0b0b0; stroke-width: 0.8; stroke-linecap: square"/>
     </g>
     <g id="line2d_12">
      <g>
       <use xlink:href="#mf353d4eb80" x="367.029959" y="252" style="stroke: #000000; stroke-width: 0.8"/>
      </g>
     </g>
     <g id="text_6">
      <!-- 500 -->
      <g transform="translate(357.486209 266.598437)scale(0.1 -0.1)">
       <defs>
        <path id="DejaVuSans-35" d="M 691 4666 
L 3169 4666 
L 3169 4134 
L 1269 4134 
L 1269 2991 
Q 1406 3038 1543 3061 
Q 1681 3084 1819 3084 
Q 2600 3084 3056 2656 
Q 3513 2228 3513 1497 
Q 3513 744 3044 326 
Q 2575 -91 1722 -91 
Q 1428 -91 1123 -41 
Q 819 9 494 109 
L 494 744 
Q 775 591 1075 516 
Q 1375 441 1709 441 
Q 2250 441 2565 725 
Q 2881 1009 2881 1497 
Q 2881 1984 2565 2268 
Q 2250 2553 1709 2553 
Q 1456 2553 1204 2497 
Q 953 2441 691 2322 
L 691 4666 
z
" transform="scale(0.015625)"/>
       </defs>
       <use xlink:href="#DejaVuSans-35"/>
       <use xlink:href="#DejaVuSans-30" x="63.623047"/>
       <use xlink:href="#DejaVuSans-30" x="127.246094"/>
      </g>
     </g>
    </g>
    <g id="text_7">
     <!-- bin -->
     <g transform="translate(213.667969 280.276563)scale(0.1 -0.1)">
      <defs>
       <path id="DejaVuSans-62" d="M 3116 1747 
Q 3116 2381 2855 2742 
Q 2594 3103 2138 3103 
Q 1681 3103 1420 2742 
Q 1159 2381 1159 1747 
Q 1159 1113 1420 752 
Q 1681 391 2138 391 
Q 2594 391 2855 752 
Q 3116 1113 3116 1747 
z
M 1159 2969 
Q 1341 3281 1617 3432 
Q 1894 3584 2278 3584 
Q 2916 3584 3314 3078 
Q 3713 2572 3713 1747 
Q 3713 922 3314 415 
Q 2916 -91 2278 -91 
Q 1894 -91 1617 61 
Q 1341 213 1159 525 
L 1159 0 
L 581 0 
L 581 4863 
L 1159 4863 
L 1159 2969 
z
" transform="scale(0.015625)"/>
       <path id="DejaVuSans-69" d="M 603 3500 
L 1178 3500 
L 1178 0 
L 603 0 
L 603 3500 
z
M 603 4863 
L 1178 4863 
L 1178 4134 
L 603 4134 
L 603 4863 
z
" transform="scale(0.015625)"/>
       <path id="DejaVuSans-6e" d="M 3513 2113 
L 3513 0 
L 2938 0 
L 2938 2094 
Q 2938 2591 2744 2837 
Q 2550 3084 2163 3084 
Q 1697 3084 1428 2787 
Q 1159 2491 1159 1978 
L 1159 0 
L 581 0 
L 581 3500 
L 1159 3500 
L 1159 2956 
Q 1366 3272 1645 3428 
Q 1925 3584 2291 3584 
Q 2894 3584 3203 3211 
Q 3513 2838 3513 2113 
z
" transform="scale(0.015625)"/>
      </defs>
      <use xlink:href="#DejaVuSans-62"/>
      <use xlink:href="#DejaVuSans-69" x="63.476562"/>
      <use xlink:href="#DejaVuSans-6e" x="91.259766"/>
     </g>
    </g>
   </g>
   <g id="matplotlib.axis_2">
    <g id="ytick_1">
     <g id="line2d_13">
      <path d="M 54 252 
L 388.8 252 
" clip-path="url(#pf1414692ac)" style="fill: none; stroke: #b0b0b0; stroke-width: 0.8; stroke-linecap: square"/>
     </g>
     <g id="line2d_14">
      <defs>
       <path id="m3928b9c8e1" d="M 0 0 
L -3.5 0 
" style="stroke: #000000; stroke-width: 0.8"/>
      </defs>
      <g>
       <use xlink:href="#m3928b9c8e1" x="54" y="252" style="stroke: #000000; stroke-width: 0.8"/>
      </g>
     </g>
     <g id="text_8">
      <!-- 0.0 -->
      <g transform="translate(31.096875 255.799219)scale(0.1 -0.1)">
       <defs>
        <path id="DejaVuSans-2e" d="M 684 794 
L 1344 794 
L 1344 0 
L 684 0 
L 684 794 
z
" transform="scale(0.015625)"/>
       </defs>
       <use xlink:href="#DejaVuSans-30"/>
       <use xlink:href="#DejaVuSans-2e" x="63.623047"/>
       <use xlink:href="#DejaVuSans-30" x="95.410156"/>
      </g>
     </g>
    </g>
    <g id="ytick_2">
     <g id="line2d_15">
      <path d="M 54 208.512 
L 388.8 208.512 
" clip-path="url(#pf1414692ac)" style="fill: none; stroke: #b0b0b0; stroke-width: 0.8; stroke-linecap: square"/>
     </g>
     <g id="line2d_16">
      <g>
       <use xlink:href="#m3928b9c8e1" x="54" y="208.512" style="stroke: #000000; stroke-width: 0.8"/>
      </g>
     </g>
     <g id="text_9">
      <!-- 0.2 -->
      <g transform="translate(31.096875 212.311219)scale(0.1 -0.1)">
       <use xlink:href="#DejaVuSans-30"/>
       <use xlink:href="#DejaVuSans-2e" x="63.623047"/>
       <use xlink:href="#DejaVuSans-32" x="95.410156"/>
      </g>
     </g>
    </g>
    <g id="ytick_3">
     <g id="line2d_17">
      <path d="M 54 165.024 
L 388.8 165.024 
" clip-path="url(#pf1414692ac)" style="fill: none; stroke: #b0b0b0; stroke-width: 0.8; stroke-linecap: square"/>
     </g>
     <g id="line2d_18">
      <g>
       <use xlink:href="#m3928b9c8e1" x="54" y="165.024" style="stroke: #000000; stroke-width: 0.8"/>
      </g>
     </g>
     <g id="text_10">
      <!-- 0.4 -->
      <g transform="translate(31.096875 168.823219)scale(0.1 -0.1)">
       <use xlink:href="#DejaVuSans-30"/>
       <use xlink:href="#DejaVuSans-2e" x="63.623047"/>
       <use xlink:href="#DejaVuSans-34" x="95.410156"/>
      </g>
     </g>
    </g>
    <g id="ytick_4">
     <g id="line2d_19">
      <path d="M 54 121.536 
L 388.8 121.536 
" clip-path="url(#pf1414692ac)" style="fill: none; stroke: #b0b0b0; stroke-width: 0.8; stroke-linecap: square"/>
     </g>
     <g id="line2d_20">
      <g>
       <use xlink:href="#m3928b9c8e1" x="54" y="121.536" style="stroke: #000000; stroke-width: 0.8"/>
      </g>
     </g>
     <g id="text_11">
      <!-- 0.6 -->
      <g transform="translate(31.096875 125.335219)scale(0.1 -0.1)">
       <defs>
        <path id="DejaVuSans-36" d="M 2113 2584 
Q 1688 2584 1439 2293 
Q 1191 2003 1191 1497 
Q 1191 994 1439 701 
Q 1688 409 2113 409 
Q 2538 409 2786 701 
Q 3034 994 3034 1497 
Q 3034 2003 2786 2293 
Q 2538 2584 2113 2584 
z
M 3366 4563 
L 3366 3988 
Q 3128 4100 2886 4159 
Q 2644 4219 2406 4219 
Q 1781 4219 1451 3797 
Q 1122 3375 1075 2522 
Q 1259 2794 1537 2939 
Q 1816 3084 2150 3084 
Q 2853 3084 3261 2657 
Q 3669 2231 3669 1497 
Q 3669 778 3244 343 
Q 2819 -91 2113 -91 
Q 1303 -91 875 529 
Q 447 1150 447 2328 
Q 447 3434 972 4092 
Q 1497 4750 2381 4750 
Q 2619 4750 2861 4703 
Q 3103 4656 3366 4563 
z
" transform="scale(0.015625)"/>
       </defs>
       <use xlink:href="#DejaVuSans-30"/>
       <use xlink:href="#DejaVuSans-2e" x="63.623047"/>
       <use xlink:href="#DejaVuSans-36" x="95.410156"/>
      </g>
     </g>
    </g>
    <g id="ytick_5">
     <g id="line2d_21">
      <path d="M 54 78.048 
L 388.8 78.048 
" clip-path="url(#pf1414692ac)" style="fill: none; stroke: #b0b0b0; stroke-width: 0.8; stroke-linecap: square"/>
     </g>
     <g id="line2d_22">
      <g>
       <use xlink:href="#m3928b9c8e1" x="54" y="78.048" style="stroke: #000000; stroke-width: 0.8"/>
      </g>
     </g>
     <g id="text_12">
      <!-- 0.8 -->
      <g transform="translate(31.096875 81.847219)scale(0.1 -0.1)">
       <defs>
        <path id="DejaVuSans-38" d="M 2034 2216 
Q 1584 2216 1326 1975 
Q 1069 1734 1069 1313 
Q 1069 891 1326 650 
Q 1584 409 2034 409 
Q 2484 409 2743 651 
Q 3003 894 3003 1313 
Q 3003 1734 2745 1975 
Q 2488 2216 2034 2216 
z
M 1403 2484 
Q 997 2584 770 2862 
Q 544 3141 544 3541 
Q 544 4100 942 4425 
Q 1341 4750 2034 4750 
Q 2731 4750 3128 4425 
Q 3525 4100 3525 3541 
Q 3525 3141 3298 2862 
Q 3072 2584 2669 2484 
Q 3125 2378 3379 2068 
Q 3634 1759 3634 1313 
Q 3634 634 3220 271 
Q 2806 -91 2034 -91 
Q 1263 -91 848 271 
Q 434 634 434 1313 
Q 434 1759 690 2068 
Q 947 2378 1403 2484 
z
M 1172 3481 
Q 1172 3119 1398 2916 
Q 1625 2713 2034 2713 
Q 2441 2713 2670 2916 
Q 2900 3119 2900 3481 
Q 2900 3844 2670 4047 
Q 2441 4250 2034 4250 
Q 1625 4250 1398 4047 
Q 1172 3844 1172 3481 
z
" transform="scale(0.015625)"/>
       </defs>
       <use xlink:href="#DejaVuSans-30"/>
       <use xlink:href="#DejaVuSans-2e" x="63.623047"/>
       <use xlink:href="#DejaVuSans-38" x="95.410156"/>
      </g>
     </g>
    </g>
    <g id="ytick_6">
     <g id="line2d_23">
      <path d="M 54 34.56 
L 388.8 34.56 
" clip-path="url(#pf1414692ac)" style="fill: none; stroke: #b0b0b0; stroke-width: 0.8; stroke-linecap: square"/>
     </g>
     <g id="line2d_24">
      <g>
       <use xlink:href="#m3928b9c8e1" x="54" y="34.56" style="stroke: #000000; stroke-width: 0.8"/>
      </g>
     </g>
     <g id="text_13">
      <!-- 1.0 -->
      <g transform="translate(31.096875 38.359219)scale(0.1 -0.1)">
       <use xlink:href="#DejaVuSans-31"/>
       <use xlink:href="#DejaVuSans-2e" x="63.623047"/>
       <use xlink:href="#DejaVuSans-30" x="95.410156"/>
      </g>
     </g>
    </g>
    <g id="text_14">
     <!-- count -->
     <g transform="translate(25.017187 157.38625)rotate(-90)scale(0.1 -0.1)">
      <defs>
       <path id="DejaVuSans-63" d="M 3122 3366 
L 3122 2828 
Q 2878 2963 2633 3030 
Q 2388 3097 2138 3097 
Q 1578 3097 1268 2742 
Q 959 2388 959 1747 
Q 959 1106 1268 751 
Q 1578 397 2138 397 
Q 2388 397 2633 464 
Q 2878 531 3122 666 
L 3122 134 
Q 2881 22 2623 -34 
Q 2366 -91 2075 -91 
Q 1284 -91 818 406 
Q 353 903 353 1747 
Q 353 2603 823 3093 
Q 1294 3584 2113 3584 
Q 2378 3584 2631 3529 
Q 2884 3475 3122 3366 
z
" transform="scale(0.015625)"/>
       <path id="DejaVuSans-6f" d="M 1959 3097 
Q 1497 3097 1228 2736 
Q 959 2375 959 1747 
Q 959 1119 1226 758 
Q 1494 397 1959 397 
Q 2419 397 2687 759 
Q 2956 1122 2956 1747 
Q 2956 2369 2687 2733 
Q 2419 3097 1959 3097 
z
M 1959 3584 
Q 2709 3584 3137 3096 
Q 3566 2609 3566 1747 
Q 3566 888 3137 398 
Q 2709 -91 1959 -91 
Q 1206 -91 779 398 
Q 353 888 353 1747 
Q 353 2609 779 3096 
Q 1206 3584 1959 3584 
z
" transform="scale(0.015625)"/>
       <path id="DejaVuSans-75" d="M 544 1381 
L 544 3500 
L 1119 3500 
L 1119 1403 
Q 1119 906 1312 657 
Q 1506 409 1894 409 
Q 2359 409 2629 706 
Q 2900 1003 2900 1516 
L 2900 3500 
L 3475 3500 
L 3475 0 
L 2900 0 
L 2900 538 
Q 2691 219 2414 64 
Q 2138 -91 1772 -91 
Q 1169 -91 856 284 
Q 544 659 544 1381 
z
M 1991 3584 
L 1991 3584 
z
" transform="scale(0.015625)"/>
       <path id="DejaVuSans-74" d="M 1172 4494 
L 1172 3500 
L 2356 3500 
L 2356 3053 
L 1172 3053 
L 1172 1153 
Q 1172 725 1289 603 
Q 1406 481 1766 481 
L 2356 481 
L 2356 0 
L 1766 0 
Q 1100 0 847 248 
Q 594 497 594 1153 
L 594 3053 
L 172 3053 
L 172 3500 
L 594 3500 
L 594 4494 
L 1172 4494 
z
" transform="scale(0.015625)"/>
      </defs>
      <use xlink:href="#DejaVuSans-63"/>
      <use xlink:href="#DejaVuSans-6f" x="54.980469"/>
      <use xlink:href="#DejaVuSans-75" x="116.162109"/>
      <use xlink:href="#DejaVuSans-6e" x="179.541016"/>
      <use xlink:href="#DejaVuSans-74" x="242.919922"/>
     </g>
    </g>
   </g>
   <g id="line2d_25">
    <path d="M 69.218182 240.764498 
L 69.813805 233.494468 
L 70.409429 241.42541 
L 71.005052 234.15538 
L 71.600676 235.477204 
L 72.1963 236.138116 
L 72.791923 235.477204 
L 73.387547 237.459939 
L 73.98317 237.459939 
L 74.578794 240.103587 
L 75.174417 238.781763 
L 75.770041 240.103587 
L 76.365664 233.494468 
L 76.961288 225.563526 
L 77.556912 244.069058 
L 78.152535 242.747234 
L 78.748159 231.511733 
L 79.343782 246.051793 
L 79.939406 235.477204 
L 80.535029 230.850821 
L 81.130653 240.764498 
L 81.726276 230.850821 
L 82.3219 238.120851 
L 82.917524 243.408146 
L 83.513147 240.103587 
L 84.108771 241.42541 
L 84.704394 242.086322 
L 85.300018 235.477204 
L 85.895641 230.189909 
L 86.491265 234.15538 
L 87.086888 232.833556 
L 87.682512 240.764498 
L 88.278136 236.138116 
L 88.873759 239.442675 
L 89.469383 241.42541 
L 90.065006 232.172644 
L 90.66063 237.459939 
L 91.256253 229.528997 
L 91.851877 228.207173 
L 92.4475 226.224438 
L 93.043124 243.408146 
L 93.638748 230.850821 
L 94.234371 233.494468 
L 94.829995 234.816292 
L 95.425618 236.799027 
L 96.021242 242.086322 
L 96.616865 241.42541 
L 97.212489 237.459939 
L 97.808112 236.799027 
L 98.403736 235.477204 
L 98.99936 239.442675 
L 99.594983 236.138116 
L 100.190607 237.459939 
L 100.78623 228.207173 
L 101.381854 229.528997 
L 101.977477 238.781763 
L 102.573101 231.511733 
L 103.168724 240.764498 
L 103.764348 233.494468 
L 104.359972 238.120851 
L 104.955595 238.120851 
L 105.551219 236.138116 
L 106.146842 233.494468 
L 106.742466 242.086322 
L 107.338089 246.712705 
L 107.933713 244.72997 
L 108.529336 236.138116 
L 109.12496 234.15538 
L 109.720584 240.764498 
L 110.316207 239.442675 
L 110.911831 232.172644 
L 111.507454 238.120851 
L 112.103078 241.42541 
L 112.698701 240.103587 
L 113.294325 231.511733 
L 113.889948 239.442675 
L 114.485572 233.494468 
L 115.081196 232.172644 
L 115.676819 235.477204 
L 116.272443 234.15538 
L 116.868066 232.172644 
L 117.46369 236.799027 
L 118.059313 238.120851 
L 118.654937 232.172644 
L 119.25056 240.764498 
L 119.846184 240.103587 
L 120.441808 233.494468 
L 121.037431 234.816292 
L 121.633055 236.799027 
L 122.228678 235.477204 
L 122.824302 233.494468 
L 123.419925 233.494468 
L 124.015549 237.459939 
L 124.611172 242.747234 
L 125.206796 240.764498 
L 125.802419 233.494468 
L 126.398043 238.781763 
L 126.993667 237.459939 
L 127.58929 237.459939 
L 128.184914 230.850821 
L 128.780537 236.799027 
L 129.376161 236.138116 
L 129.971784 231.511733 
L 130.567408 235.477204 
L 131.163031 232.833556 
L 131.758655 244.72997 
L 132.354279 228.868085 
L 132.949902 239.442675 
L 133.545526 230.850821 
L 134.141149 241.42541 
L 134.736773 236.799027 
L 135.332396 240.764498 
L 135.92802 236.799027 
L 136.523643 238.120851 
L 137.714891 242.086322 
L 138.310514 242.086322 
L 138.906138 243.408146 
L 139.501761 230.850821 
L 140.097385 240.103587 
L 140.693008 237.459939 
L 141.288632 238.781763 
L 141.884255 242.747234 
L 142.479879 238.120851 
L 143.075503 234.816292 
L 143.671126 238.120851 
L 144.26675 234.816292 
L 144.862373 240.103587 
L 145.457997 238.120851 
L 146.05362 236.799027 
L 146.649244 232.172644 
L 147.244867 243.408146 
L 147.840491 234.816292 
L 148.436115 233.494468 
L 149.031738 238.781763 
L 149.627362 235.477204 
L 150.222985 245.390881 
L 150.818609 240.103587 
L 151.414232 245.390881 
L 152.009856 236.799027 
L 152.605479 238.781763 
L 153.201103 232.833556 
L 153.796727 236.138116 
L 154.39235 235.477204 
L 154.987974 223.58079 
L 155.583597 236.138116 
L 156.179221 227.546261 
L 156.774844 233.494468 
L 157.370468 235.477204 
L 157.966091 241.42541 
L 158.561715 238.781763 
L 159.157339 235.477204 
L 159.752962 235.477204 
L 160.348586 236.138116 
L 160.944209 232.833556 
L 161.539833 228.207173 
L 162.135456 238.781763 
L 162.73108 233.494468 
L 163.326703 232.172644 
L 163.922327 233.494468 
L 164.517951 236.799027 
L 165.709198 242.086322 
L 166.304821 238.781763 
L 166.900445 234.816292 
L 167.496068 242.747234 
L 168.091692 234.816292 
L 168.687315 232.833556 
L 169.282939 240.764498 
L 169.878563 238.120851 
L 170.474186 233.494468 
L 171.06981 238.120851 
L 171.665433 232.172644 
L 172.261057 241.42541 
L 172.85668 234.15538 
L 173.452304 242.747234 
L 174.047927 231.511733 
L 174.643551 240.103587 
L 175.239175 234.816292 
L 175.834798 233.494468 
L 176.430422 239.442675 
L 177.026045 240.764498 
L 177.621669 234.15538 
L 178.217292 245.390881 
L 178.812916 243.408146 
L 179.408539 234.816292 
L 180.004163 238.781763 
L 180.599787 230.850821 
L 181.19541 238.120851 
L 181.791034 237.459939 
L 182.386657 233.494468 
L 182.982281 239.442675 
L 183.577904 237.459939 
L 184.173528 233.494468 
L 184.769151 239.442675 
L 185.364775 234.15538 
L 185.960399 238.781763 
L 186.556022 236.799027 
L 187.151646 236.138116 
L 187.747269 234.816292 
L 188.342893 238.781763 
L 188.938516 245.390881 
L 189.53414 238.781763 
L 190.129763 240.764498 
L 190.725387 243.408146 
L 191.32101 230.189909 
L 191.916634 234.816292 
L 192.512258 236.799027 
L 194.299128 234.816292 
L 194.894752 235.477204 
L 195.490375 230.850821 
L 196.085999 222.258967 
L 196.681622 199.127052 
L 197.277246 194.500669 
L 197.87287 140.966809 
L 198.468493 117.834894 
L 199.064117 85.450213 
L 199.65974 80.82383 
L 200.255364 34.56 
L 200.850987 57.691915 
L 201.446611 70.24924 
L 202.637858 119.817629 
L 203.233482 170.04693 
L 203.829105 181.943343 
L 204.424729 214.988936 
L 205.020352 218.293495 
L 205.615976 225.563526 
L 206.211599 236.799027 
L 206.807223 236.138116 
L 207.402846 238.120851 
L 207.99847 234.15538 
L 209.189717 241.42541 
L 209.785341 240.764498 
L 210.380964 232.833556 
L 210.976588 238.120851 
L 211.572211 239.442675 
L 212.167835 236.138116 
L 212.763458 233.494468 
L 213.359082 244.72997 
L 213.954706 236.138116 
L 214.550329 234.15538 
L 215.145953 236.138116 
L 215.741576 252 
L 216.3372 230.189909 
L 216.932823 236.799027 
L 217.528447 231.511733 
L 218.12407 232.833556 
L 218.719694 243.408146 
L 219.315318 227.546261 
L 219.910941 229.528997 
L 220.506565 223.58079 
L 221.697812 230.850821 
L 222.293435 214.988936 
L 222.889059 226.224438 
L 223.484682 230.850821 
L 224.080306 217.632584 
L 224.67593 213.006201 
L 225.271553 222.258967 
L 225.867177 223.58079 
L 226.4628 232.172644 
L 227.058424 225.563526 
L 227.654047 232.172644 
L 228.249671 230.189909 
L 228.845294 227.546261 
L 229.440918 225.563526 
L 230.036542 232.172644 
L 230.632165 228.868085 
L 231.227789 228.868085 
L 231.823412 230.189909 
L 232.419036 239.442675 
L 233.610283 242.086322 
L 234.205906 239.442675 
L 234.80153 234.816292 
L 235.397154 238.120851 
L 235.992777 239.442675 
L 236.588401 242.086322 
L 237.184024 235.477204 
L 237.779648 234.15538 
L 238.375271 234.816292 
L 238.970895 237.459939 
L 239.566518 241.42541 
L 240.162142 227.546261 
L 240.757766 241.42541 
L 241.353389 246.712705 
L 241.949013 228.868085 
L 242.544636 228.207173 
L 243.14026 231.511733 
L 243.735883 234.15538 
L 244.331507 234.816292 
L 245.522754 244.069058 
L 246.118378 236.138116 
L 246.714001 241.42541 
L 247.309625 240.764498 
L 247.905248 237.459939 
L 248.500872 230.850821 
L 249.096495 234.816292 
L 249.692119 237.459939 
L 250.287742 246.712705 
L 250.883366 236.138116 
L 251.47899 244.069058 
L 252.074613 240.103587 
L 252.670237 230.850821 
L 253.26586 237.459939 
L 253.861484 239.442675 
L 255.052731 226.88535 
L 255.648354 238.120851 
L 256.243978 240.103587 
L 256.839601 239.442675 
L 257.435225 240.103587 
L 258.030849 230.850821 
L 258.626472 234.816292 
L 259.222096 241.42541 
L 259.817719 238.781763 
L 260.413343 232.172644 
L 261.008966 236.138116 
L 261.60459 229.528997 
L 262.200213 237.459939 
L 262.795837 243.408146 
L 263.391461 237.459939 
L 263.987084 238.781763 
L 264.582708 238.120851 
L 265.178331 230.850821 
L 265.773955 244.72997 
L 266.369578 236.799027 
L 266.965202 236.799027 
L 267.560825 240.103587 
L 268.156449 242.747234 
L 268.752073 240.764498 
L 269.94332 230.189909 
L 270.538943 235.477204 
L 271.134567 238.120851 
L 271.73019 237.459939 
L 272.325814 241.42541 
L 272.921437 235.477204 
L 273.517061 235.477204 
L 274.112685 236.799027 
L 274.708308 240.103587 
L 275.303932 235.477204 
L 275.899555 228.207173 
L 276.495179 232.833556 
L 277.090802 238.781763 
L 277.686426 233.494468 
L 278.282049 232.833556 
L 278.877673 238.120851 
L 279.473297 241.42541 
L 280.06892 242.086322 
L 280.664544 237.459939 
L 281.260167 242.747234 
L 282.451414 231.511733 
L 283.047038 228.207173 
L 283.642661 244.069058 
L 284.238285 228.868085 
L 284.833909 239.442675 
L 285.429532 236.799027 
L 286.025156 240.764498 
L 286.620779 242.747234 
L 287.216403 226.88535 
L 287.812026 240.103587 
L 288.40765 234.816292 
L 289.003273 238.781763 
L 289.598897 236.138116 
L 290.194521 238.781763 
L 290.790144 240.764498 
L 291.385768 235.477204 
L 291.981391 243.408146 
L 292.577015 239.442675 
L 293.172638 245.390881 
L 293.768262 235.477204 
L 294.363885 239.442675 
L 294.959509 234.15538 
L 295.555133 234.15538 
L 296.150756 240.764498 
L 296.74638 234.816292 
L 297.342003 240.764498 
L 297.937627 234.816292 
L 298.53325 242.086322 
L 299.128874 235.477204 
L 299.724497 242.086322 
L 300.320121 245.390881 
L 300.915745 237.459939 
L 301.511368 239.442675 
L 302.106992 236.799027 
L 302.702615 244.72997 
L 303.298239 234.816292 
L 303.893862 240.103587 
L 304.489486 230.850821 
L 305.085109 232.833556 
L 305.680733 238.120851 
L 306.276357 234.15538 
L 306.87198 243.408146 
L 307.467604 240.103587 
L 308.063227 232.833556 
L 308.658851 234.15538 
L 309.254474 230.850821 
L 309.850098 225.563526 
L 310.445721 238.120851 
L 311.041345 247.373617 
L 311.636969 238.781763 
L 312.232592 235.477204 
L 312.828216 234.15538 
L 313.423839 241.42541 
L 314.019463 232.172644 
L 314.615086 236.138116 
L 315.21071 244.72997 
L 315.806333 238.120851 
L 316.401957 240.103587 
L 316.997581 236.799027 
L 317.593204 234.15538 
L 318.188828 235.477204 
L 318.784451 237.459939 
L 319.380075 237.459939 
L 319.975698 232.172644 
L 320.571322 245.390881 
L 321.166945 236.799027 
L 321.762569 236.799027 
L 322.358192 244.72997 
L 322.953816 235.477204 
L 323.54944 233.494468 
L 324.145063 240.103587 
L 325.33631 248.034529 
L 325.931934 236.138116 
L 326.527557 232.172644 
L 327.123181 237.459939 
L 327.718804 236.138116 
L 328.314428 234.15538 
L 328.910052 230.850821 
L 330.101299 244.72997 
L 330.696922 244.069058 
L 331.292546 242.086322 
L 331.888169 242.086322 
L 332.483793 235.477204 
L 333.079416 234.816292 
L 333.67504 234.816292 
L 334.270664 240.103587 
L 334.866287 234.816292 
L 335.461911 238.120851 
L 336.057534 225.563526 
L 336.653158 236.799027 
L 337.248781 236.138116 
L 337.844405 238.781763 
L 338.440028 240.764498 
L 339.035652 234.15538 
L 339.631276 240.764498 
L 340.226899 238.781763 
L 340.822523 240.764498 
L 341.418146 240.103587 
L 342.01377 232.172644 
L 342.609393 242.086322 
L 343.80064 230.850821 
L 344.396264 234.816292 
L 344.991888 231.511733 
L 345.587511 232.172644 
L 346.778758 232.172644 
L 347.374382 236.799027 
L 347.970005 240.103587 
L 348.565629 222.919878 
L 349.161252 222.919878 
L 349.756876 241.42541 
L 350.3525 234.15538 
L 350.948123 241.42541 
L 351.543747 238.120851 
L 352.13937 230.189909 
L 352.734994 234.15538 
L 353.330617 240.764498 
L 353.926241 234.816292 
L 354.521864 238.120851 
L 355.117488 231.511733 
L 355.713112 241.42541 
L 356.308735 238.120851 
L 356.904359 232.833556 
L 357.499982 228.868085 
L 358.095606 228.207173 
L 358.691229 236.799027 
L 359.286853 237.459939 
L 359.882476 243.408146 
L 360.4781 245.390881 
L 361.073724 236.138116 
L 361.669347 232.172644 
L 362.264971 238.781763 
L 362.860594 221.598055 
L 363.456218 232.172644 
L 364.051841 233.494468 
L 364.647465 237.459939 
L 365.243088 244.72997 
L 365.838712 236.799027 
L 366.434336 231.511733 
L 367.029959 235.477204 
L 367.625583 228.868085 
L 368.221206 235.477204 
L 368.81683 237.459939 
L 369.412453 241.42541 
L 370.008077 239.442675 
L 371.199324 229.528997 
L 372.390571 234.816292 
L 372.986195 241.42541 
L 373.581818 240.764498 
L 373.581818 240.764498 
" clip-path="url(#pf1414692ac)" style="fill: none; stroke: #1f77b4; stroke-width: 1.5; stroke-linecap: square"/>
   </g>
   <g id="line2d_26">
    <path d="M 69.218182 239.904 
L 69.813805 249.408 
L 70.409429 241.344 
L 71.005052 249.408 
L 71.600676 241.344 
L 72.1963 245.952 
L 72.791923 241.92 
L 73.387547 246.816 
L 73.98317 240.768 
L 74.578794 239.616 
L 75.174417 245.088 
L 75.770041 241.92 
L 76.365664 243.36 
L 76.961288 247.968 
L 77.556912 244.512 
L 78.152535 243.648 
L 78.748159 238.176 
L 79.343782 244.8 
L 79.939406 239.328 
L 80.535029 241.056 
L 81.130653 249.408 
L 81.726276 245.952 
L 82.3219 245.376 
L 82.917524 247.392 
L 83.513147 248.832 
L 84.108771 243.072 
L 84.704394 244.224 
L 85.300018 241.056 
L 85.895641 246.816 
L 86.491265 243.072 
L 87.086888 241.344 
L 87.682512 245.952 
L 88.278136 241.344 
L 88.873759 245.664 
L 89.469383 241.344 
L 90.065006 247.104 
L 90.66063 244.512 
L 91.256253 249.696 
L 91.851877 239.328 
L 92.4475 246.816 
L 93.043124 242.208 
L 93.638748 246.24 
L 94.234371 240.48 
L 94.829995 249.12 
L 95.425618 243.072 
L 96.021242 245.088 
L 96.616865 243.072 
L 97.212489 241.632 
L 97.808112 240.768 
L 98.403736 245.664 
L 98.99936 244.8 
L 99.594983 241.92 
L 100.190607 238.464 
L 100.78623 242.784 
L 101.381854 243.072 
L 101.977477 245.088 
L 102.573101 243.936 
L 103.168724 245.664 
L 103.764348 244.224 
L 104.359972 245.664 
L 104.955595 247.68 
L 105.551219 250.848 
L 106.146842 246.528 
L 106.742466 246.816 
L 107.338089 247.392 
L 107.933713 237.6 
L 108.529336 245.088 
L 109.12496 241.056 
L 109.720584 243.36 
L 110.316207 241.344 
L 110.911831 242.208 
L 111.507454 246.24 
L 112.103078 246.816 
L 112.698701 238.464 
L 113.294325 248.544 
L 113.889948 242.784 
L 114.485572 239.616 
L 115.081196 245.088 
L 115.676819 244.8 
L 116.272443 245.952 
L 116.868066 245.088 
L 117.46369 245.664 
L 118.059313 241.92 
L 118.654937 241.344 
L 119.25056 244.224 
L 119.846184 244.8 
L 120.441808 246.816 
L 121.037431 247.68 
L 121.633055 245.952 
L 122.228678 237.024 
L 122.824302 241.056 
L 123.419925 247.104 
L 124.015549 244.8 
L 124.611172 234.144 
L 125.206796 246.24 
L 125.802419 239.328 
L 126.398043 246.528 
L 126.993667 246.24 
L 127.58929 237.024 
L 128.184914 243.936 
L 128.780537 239.328 
L 129.376161 244.224 
L 129.971784 243.36 
L 130.567408 241.056 
L 131.163031 239.616 
L 131.758655 244.8 
L 132.354279 247.104 
L 132.949902 239.04 
L 133.545526 241.632 
L 134.141149 246.816 
L 135.332396 237.024 
L 135.92802 247.392 
L 136.523643 245.952 
L 137.119267 243.936 
L 137.714891 245.376 
L 138.906138 242.496 
L 139.501761 245.664 
L 140.097385 242.208 
L 140.693008 242.496 
L 141.288632 245.664 
L 141.884255 243.36 
L 142.479879 243.36 
L 143.075503 242.496 
L 144.26675 247.104 
L 144.862373 247.104 
L 145.457997 242.208 
L 146.05362 244.512 
L 146.649244 244.512 
L 147.244867 246.24 
L 147.840491 245.664 
L 148.436115 245.952 
L 149.031738 244.8 
L 149.627362 247.104 
L 150.222985 246.528 
L 150.818609 245.376 
L 151.414232 245.088 
L 152.009856 243.936 
L 152.605479 235.872 
L 153.201103 248.832 
L 153.796727 238.176 
L 154.39235 242.784 
L 154.987974 245.376 
L 155.583597 244.224 
L 156.179221 243.648 
L 156.774844 244.8 
L 157.370468 240.192 
L 157.966091 245.088 
L 158.561715 242.496 
L 159.157339 239.04 
L 159.752962 243.936 
L 160.348586 250.272 
L 160.944209 243.072 
L 161.539833 242.208 
L 162.135456 243.648 
L 162.73108 239.904 
L 163.326703 246.24 
L 163.922327 238.464 
L 164.517951 237.6 
L 165.113574 241.344 
L 165.709198 246.528 
L 166.304821 246.816 
L 166.900445 239.904 
L 167.496068 245.952 
L 168.091692 243.648 
L 168.687315 238.752 
L 169.282939 244.224 
L 169.878563 243.648 
L 170.474186 247.104 
L 171.06981 242.496 
L 171.665433 247.392 
L 172.261057 239.04 
L 172.85668 246.24 
L 173.452304 244.224 
L 174.643551 244.8 
L 175.239175 247.392 
L 175.834798 240.768 
L 176.430422 251.424 
L 177.026045 247.968 
L 177.621669 247.392 
L 178.217292 244.224 
L 178.812916 242.784 
L 179.408539 243.648 
L 180.004163 246.24 
L 180.599787 245.088 
L 181.19541 242.784 
L 181.791034 244.512 
L 182.386657 244.224 
L 182.982281 241.632 
L 183.577904 246.816 
L 184.173528 245.088 
L 184.769151 246.816 
L 185.364775 246.816 
L 185.960399 241.632 
L 187.151646 245.952 
L 187.747269 241.92 
L 188.342893 240.192 
L 188.938516 240.768 
L 189.53414 247.68 
L 190.725387 241.056 
L 191.32101 247.392 
L 191.916634 242.784 
L 192.512258 243.36 
L 193.107881 239.328 
L 193.703505 248.832 
L 194.299128 243.072 
L 194.894752 246.816 
L 195.490375 242.208 
L 196.085999 243.648 
L 196.681622 249.984 
L 197.277246 242.784 
L 197.87287 242.496 
L 198.468493 244.8 
L 199.064117 247.968 
L 199.65974 245.952 
L 200.255364 247.392 
L 200.850987 239.04 
L 201.446611 244.8 
L 202.042234 252 
L 202.637858 243.936 
L 203.233482 241.344 
L 203.829105 244.224 
L 204.424729 247.968 
L 205.020352 236.16 
L 206.211599 241.056 
L 206.807223 246.528 
L 207.402846 247.104 
L 207.99847 243.072 
L 208.594094 242.208 
L 209.189717 241.056 
L 209.785341 243.648 
L 210.380964 232.416 
L 210.976588 236.736 
L 211.572211 217.44 
L 212.167835 203.904 
L 213.359082 143.136 
L 213.954706 124.416 
L 215.145953 36.576 
L 215.741576 34.56 
L 216.3372 42.624 
L 216.932823 45.504 
L 218.12407 120.096 
L 218.719694 156.384 
L 219.315318 178.848 
L 219.910941 211.392 
L 220.506565 229.536 
L 221.102188 227.808 
L 221.697812 235.584 
L 222.293435 236.16 
L 223.484682 246.528 
L 224.080306 249.12 
L 224.67593 251.136 
L 225.867177 243.072 
L 227.058424 241.92 
L 227.654047 241.92 
L 228.249671 237.6 
L 228.845294 245.664 
L 229.440918 247.392 
L 230.036542 244.512 
L 230.632165 242.784 
L 231.227789 237.024 
L 231.823412 244.512 
L 232.419036 242.496 
L 233.014659 246.528 
L 233.610283 239.904 
L 234.205906 243.36 
L 235.397154 237.312 
L 235.992777 241.632 
L 236.588401 231.264 
L 237.184024 235.296 
L 237.779648 232.992 
L 238.375271 224.64 
L 238.970895 239.328 
L 239.566518 233.28 
L 240.162142 226.08 
L 240.757766 227.808 
L 241.353389 228.96 
L 241.949013 231.552 
L 242.544636 228.384 
L 243.735883 236.736 
L 244.331507 234.144 
L 245.522754 248.256 
L 246.118378 234.72 
L 246.714001 239.904 
L 247.309625 240.192 
L 247.905248 244.224 
L 248.500872 238.464 
L 249.096495 241.344 
L 249.692119 237.888 
L 250.287742 245.952 
L 250.883366 240.192 
L 251.47899 240.192 
L 252.074613 245.088 
L 252.670237 238.752 
L 253.861484 246.528 
L 254.457107 240.48 
L 255.052731 248.544 
L 255.648354 242.208 
L 256.243978 242.784 
L 256.839601 239.904 
L 257.435225 242.496 
L 258.030849 243.072 
L 258.626472 243.936 
L 259.222096 241.344 
L 259.817719 244.8 
L 260.413343 246.528 
L 261.008966 239.04 
L 261.60459 247.68 
L 262.200213 247.968 
L 262.795837 245.088 
L 263.391461 245.088 
L 263.987084 243.936 
L 264.582708 247.968 
L 265.178331 242.784 
L 265.773955 244.224 
L 266.369578 242.208 
L 266.965202 250.56 
L 267.560825 238.752 
L 268.156449 243.648 
L 268.752073 241.92 
L 269.347696 243.36 
L 269.94332 242.784 
L 270.538943 245.664 
L 271.134567 240.192 
L 271.73019 243.648 
L 272.325814 242.208 
L 272.921437 242.496 
L 273.517061 239.328 
L 274.112685 240.192 
L 274.708308 237.312 
L 275.303932 247.68 
L 275.899555 243.36 
L 276.495179 247.968 
L 277.090802 246.528 
L 277.686426 242.208 
L 278.282049 236.736 
L 278.877673 239.328 
L 279.473297 240.48 
L 280.06892 245.952 
L 281.260167 246.528 
L 281.855791 247.968 
L 282.451414 241.92 
L 283.047038 247.104 
L 283.642661 242.784 
L 284.238285 246.24 
L 284.833909 243.648 
L 285.429532 243.648 
L 286.025156 242.496 
L 286.620779 251.712 
L 287.216403 243.072 
L 287.812026 242.208 
L 288.40765 248.832 
L 289.003273 247.392 
L 289.598897 242.496 
L 290.194521 241.344 
L 290.790144 239.616 
L 291.385768 244.224 
L 291.981391 247.392 
L 292.577015 242.784 
L 293.172638 244.224 
L 293.768262 245.088 
L 294.363885 244.224 
L 294.959509 242.208 
L 295.555133 245.088 
L 296.150756 248.832 
L 296.74638 246.528 
L 297.342003 242.208 
L 297.937627 246.24 
L 298.53325 249.408 
L 299.128874 242.784 
L 299.724497 249.12 
L 300.320121 238.464 
L 300.915745 240.48 
L 301.511368 243.36 
L 302.106992 242.784 
L 302.702615 240.48 
L 303.298239 246.528 
L 303.893862 245.664 
L 304.489486 241.344 
L 305.085109 243.36 
L 305.680733 243.072 
L 306.276357 247.968 
L 306.87198 244.224 
L 307.467604 244.512 
L 308.063227 240.768 
L 308.658851 244.512 
L 309.254474 244.8 
L 309.850098 241.92 
L 310.445721 247.392 
L 311.041345 245.088 
L 311.636969 239.904 
L 312.232592 241.632 
L 313.423839 239.04 
L 314.019463 240.192 
L 314.615086 246.528 
L 315.21071 244.224 
L 315.806333 240.48 
L 316.401957 238.464 
L 316.997581 239.328 
L 317.593204 242.208 
L 318.188828 242.208 
L 318.784451 249.12 
L 319.380075 242.784 
L 319.975698 245.376 
L 320.571322 248.832 
L 321.166945 237.888 
L 321.762569 244.8 
L 322.953816 241.632 
L 323.54944 242.784 
L 324.145063 240.768 
L 324.740687 243.072 
L 325.33631 246.24 
L 325.931934 248.544 
L 326.527557 238.752 
L 327.123181 243.36 
L 327.718804 249.984 
L 328.314428 247.68 
L 328.910052 239.328 
L 329.505675 243.648 
L 330.101299 245.376 
L 330.696922 241.344 
L 331.292546 235.584 
L 331.888169 241.632 
L 332.483793 243.648 
L 333.079416 245.088 
L 333.67504 240.48 
L 334.270664 248.256 
L 334.866287 243.072 
L 335.461911 239.616 
L 336.057534 245.664 
L 336.653158 238.176 
L 337.248781 247.968 
L 337.844405 243.648 
L 338.440028 242.496 
L 339.035652 243.36 
L 340.226899 238.752 
L 340.822523 245.952 
L 341.418146 235.872 
L 342.01377 249.696 
L 342.609393 237.6 
L 343.205017 246.816 
L 343.80064 241.056 
L 344.396264 243.648 
L 344.991888 237.6 
L 345.587511 248.256 
L 346.183135 248.544 
L 346.778758 239.328 
L 347.374382 239.904 
L 347.970005 243.072 
L 348.565629 239.616 
L 349.161252 246.24 
L 349.756876 248.256 
L 350.3525 241.632 
L 350.948123 240.192 
L 351.543747 246.528 
L 352.13937 236.736 
L 352.734994 241.056 
L 353.330617 241.92 
L 353.926241 244.8 
L 354.521864 240.192 
L 355.117488 245.376 
L 355.713112 248.544 
L 356.308735 247.68 
L 356.904359 233.856 
L 357.499982 245.376 
L 358.095606 241.92 
L 358.691229 239.616 
L 359.286853 244.224 
L 359.882476 242.784 
L 360.4781 247.392 
L 361.073724 245.952 
L 361.669347 241.344 
L 362.264971 241.632 
L 362.860594 244.8 
L 363.456218 245.088 
L 364.051841 246.528 
L 364.647465 244.512 
L 365.243088 243.648 
L 365.838712 241.92 
L 366.434336 242.784 
L 367.029959 243.936 
L 367.625583 247.104 
L 368.221206 247.68 
L 368.81683 240.192 
L 369.412453 244.512 
L 370.008077 239.04 
L 370.6037 249.696 
L 371.199324 242.496 
L 371.794948 239.328 
L 372.390571 241.632 
L 372.986195 242.784 
L 373.581818 243.648 
L 373.581818 243.648 
" clip-path="url(#pf1414692ac)" style="fill: none; stroke: #ff7f0e; stroke-width: 1.5; stroke-linecap: square"/>
   </g>
   <g id="line2d_27">
    <path d="M 69.218182 230.986891 
L 69.813805 230.073277 
L 70.409429 213.628235 
L 71.005052 228.24605 
L 71.600676 227.332437 
L 72.1963 227.332437 
L 72.791923 230.073277 
L 73.387547 225.50521 
L 73.98317 225.50521 
L 74.578794 223.677983 
L 75.174417 211.801008 
L 75.770041 225.50521 
L 76.365664 231.900504 
L 76.961288 220.937143 
L 77.556912 235.554958 
L 78.152535 225.50521 
L 78.748159 230.986891 
L 79.343782 230.073277 
L 79.939406 227.332437 
L 80.535029 218.196303 
L 81.130653 199.01042 
L 81.726276 233.727731 
L 82.3219 228.24605 
L 82.917524 217.282689 
L 83.513147 228.24605 
L 84.108771 215.455462 
L 84.704394 219.109916 
L 85.300018 214.541849 
L 85.895641 231.900504 
L 86.491265 239.209412 
L 87.682512 212.714622 
L 88.278136 208.146555 
L 88.873759 230.986891 
L 89.469383 233.727731 
L 90.065006 231.900504 
L 90.66063 231.900504 
L 91.256253 230.986891 
L 91.851877 232.814118 
L 92.4475 232.814118 
L 93.043124 228.24605 
L 93.638748 231.900504 
L 94.234371 237.382185 
L 94.829995 225.50521 
L 95.425618 230.073277 
L 96.021242 235.554958 
L 96.616865 215.455462 
L 97.212489 220.937143 
L 97.808112 240.123025 
L 98.403736 220.023529 
L 98.99936 211.801008 
L 99.594983 241.036639 
L 100.190607 226.418824 
L 100.78623 234.641345 
L 101.381854 222.76437 
L 101.977477 218.196303 
L 102.573101 230.073277 
L 103.168724 226.418824 
L 103.764348 213.628235 
L 104.359972 223.677983 
L 104.955595 223.677983 
L 105.551219 211.801008 
L 106.742466 248.345546 
L 107.338089 229.159664 
L 107.933713 231.900504 
L 108.529336 225.50521 
L 109.12496 227.332437 
L 109.720584 223.677983 
L 110.316207 206.319328 
L 110.911831 229.159664 
L 111.507454 231.900504 
L 112.103078 226.418824 
L 112.698701 218.196303 
L 113.294325 223.677983 
L 113.889948 224.591597 
L 114.485572 220.023529 
L 115.081196 216.369076 
L 115.676819 211.801008 
L 116.272443 225.50521 
L 116.868066 235.554958 
L 117.46369 231.900504 
L 118.059313 199.924034 
L 118.654937 243.777479 
L 119.25056 240.123025 
L 119.846184 233.727731 
L 120.441808 219.109916 
L 121.037431 224.591597 
L 121.633055 239.209412 
L 122.228678 214.541849 
L 122.824302 238.295798 
L 123.419925 232.814118 
L 124.015549 214.541849 
L 125.206796 214.541849 
L 125.802419 231.900504 
L 126.398043 243.777479 
L 126.993667 230.073277 
L 127.58929 233.727731 
L 128.184914 220.937143 
L 128.780537 218.196303 
L 129.376161 210.887395 
L 129.971784 237.382185 
L 130.567408 205.405714 
L 131.163031 199.01042 
L 131.758655 230.986891 
L 132.354279 225.50521 
L 132.949902 223.677983 
L 133.545526 243.777479 
L 134.141149 224.591597 
L 134.736773 215.455462 
L 135.332396 225.50521 
L 135.92802 232.814118 
L 136.523643 224.591597 
L 137.119267 225.50521 
L 137.714891 220.937143 
L 138.310514 237.382185 
L 138.906138 210.887395 
L 139.501761 237.382185 
L 140.097385 236.468571 
L 140.693008 237.382185 
L 141.288632 217.282689 
L 141.884255 234.641345 
L 142.479879 232.814118 
L 143.075503 222.76437 
L 143.671126 224.591597 
L 144.26675 218.196303 
L 144.862373 237.382185 
L 145.457997 217.282689 
L 146.05362 237.382185 
L 146.649244 213.628235 
L 147.244867 220.023529 
L 147.840491 207.232941 
L 148.436115 213.628235 
L 149.031738 230.986891 
L 149.627362 232.814118 
L 150.222985 236.468571 
L 150.818609 213.628235 
L 151.414232 214.541849 
L 152.009856 220.937143 
L 152.605479 213.628235 
L 153.201103 220.023529 
L 153.796727 213.628235 
L 154.39235 224.591597 
L 154.987974 231.900504 
L 155.583597 227.332437 
L 156.179221 235.554958 
L 156.774844 219.109916 
L 157.370468 228.24605 
L 157.966091 230.986891 
L 158.561715 236.468571 
L 159.157339 225.50521 
L 159.752962 236.468571 
L 160.348586 222.76437 
L 160.944209 237.382185 
L 161.539833 209.973782 
L 162.135456 227.332437 
L 162.73108 230.073277 
L 163.326703 224.591597 
L 163.922327 224.591597 
L 164.517951 231.900504 
L 165.113574 232.814118 
L 165.709198 217.282689 
L 166.304821 215.455462 
L 166.900445 247.431933 
L 167.496068 228.24605 
L 168.091692 198.096807 
L 168.687315 249.25916 
L 169.282939 246.518319 
L 169.878563 222.76437 
L 170.474186 230.986891 
L 171.06981 211.801008 
L 171.665433 216.369076 
L 172.261057 229.159664 
L 172.85668 232.814118 
L 173.452304 244.691092 
L 174.047927 238.295798 
L 174.643551 230.073277 
L 175.239175 229.159664 
L 175.834798 200.837647 
L 176.430422 230.073277 
L 177.026045 232.814118 
L 177.621669 230.073277 
L 178.217292 236.468571 
L 178.812916 229.159664 
L 179.408539 211.801008 
L 180.004163 216.369076 
L 180.599787 235.554958 
L 181.19541 222.76437 
L 181.791034 247.431933 
L 182.386657 235.554958 
L 182.982281 229.159664 
L 183.577904 231.900504 
L 184.173528 228.24605 
L 184.769151 228.24605 
L 185.364775 241.036639 
L 185.960399 221.850756 
L 186.556022 215.455462 
L 187.151646 235.554958 
L 187.747269 217.282689 
L 188.342893 250.172773 
L 188.938516 225.50521 
L 189.53414 229.159664 
L 190.129763 237.382185 
L 190.725387 220.023529 
L 191.32101 215.455462 
L 191.916634 197.183193 
L 192.512258 197.183193 
L 193.107881 188.960672 
L 193.703505 164.293109 
L 194.894752 78.413445 
L 195.490375 73.845378 
L 196.085999 34.56 
L 196.681622 61.05479 
L 197.277246 80.240672 
L 197.87287 106.735462 
L 198.468493 147.848067 
L 199.65974 176.170084 
L 200.255364 190.787899 
L 200.850987 212.714622 
L 201.446611 220.937143 
L 202.042234 223.677983 
L 203.233482 244.691092 
L 203.829105 220.937143 
L 204.424729 227.332437 
L 205.020352 215.455462 
L 205.615976 231.900504 
L 206.211599 224.591597 
L 206.807223 244.691092 
L 207.402846 213.628235 
L 207.99847 238.295798 
L 208.594094 220.023529 
L 209.189717 211.801008 
L 209.785341 229.159664 
L 210.380964 230.073277 
L 210.976588 232.814118 
L 211.572211 241.950252 
L 212.167835 238.295798 
L 212.763458 223.677983 
L 213.359082 230.986891 
L 213.954706 230.073277 
L 214.550329 224.591597 
L 215.145953 227.332437 
L 215.741576 217.282689 
L 216.3372 209.973782 
L 216.932823 224.591597 
L 217.528447 220.937143 
L 218.12407 204.492101 
L 218.719694 220.023529 
L 219.315318 215.455462 
L 219.910941 214.541849 
L 220.506565 206.319328 
L 221.102188 203.578487 
L 221.697812 223.677983 
L 222.293435 227.332437 
L 222.889059 224.591597 
L 223.484682 220.937143 
L 224.080306 212.714622 
L 225.271553 216.369076 
L 225.867177 230.986891 
L 226.4628 228.24605 
L 227.058424 218.196303 
L 227.654047 240.123025 
L 228.249671 220.023529 
L 228.845294 227.332437 
L 229.440918 241.950252 
L 230.036542 214.541849 
L 230.632165 230.073277 
L 231.227789 210.887395 
L 231.823412 242.863866 
L 232.419036 237.382185 
L 233.014659 238.295798 
L 233.610283 233.727731 
L 234.205906 238.295798 
L 234.80153 226.418824 
L 235.397154 229.159664 
L 235.992777 220.937143 
L 236.588401 230.073277 
L 237.184024 233.727731 
L 237.779648 239.209412 
L 238.375271 215.455462 
L 238.970895 231.900504 
L 239.566518 209.060168 
L 240.162142 213.628235 
L 240.757766 226.418824 
L 241.353389 229.159664 
L 241.949013 218.196303 
L 243.14026 230.986891 
L 243.735883 240.123025 
L 244.331507 233.727731 
L 244.92713 233.727731 
L 245.522754 230.073277 
L 246.118378 239.209412 
L 246.714001 214.541849 
L 247.309625 240.123025 
L 247.905248 225.50521 
L 248.500872 228.24605 
L 249.096495 224.591597 
L 249.692119 222.76437 
L 250.287742 230.073277 
L 250.883366 218.196303 
L 251.47899 217.282689 
L 252.074613 226.418824 
L 252.670237 222.76437 
L 253.26586 220.937143 
L 253.861484 243.777479 
L 254.457107 225.50521 
L 255.052731 236.468571 
L 255.648354 224.591597 
L 256.243978 231.900504 
L 256.839601 232.814118 
L 257.435225 227.332437 
L 258.030849 228.24605 
L 258.626472 224.591597 
L 259.222096 224.591597 
L 259.817719 230.986891 
L 261.008966 223.677983 
L 261.60459 220.937143 
L 262.200213 222.76437 
L 263.391461 219.109916 
L 263.987084 222.76437 
L 264.582708 220.937143 
L 265.178331 215.455462 
L 265.773955 240.123025 
L 266.369578 220.023529 
L 266.965202 234.641345 
L 267.560825 219.109916 
L 268.156449 227.332437 
L 268.752073 228.24605 
L 269.347696 223.677983 
L 269.94332 225.50521 
L 270.538943 213.628235 
L 271.134567 231.900504 
L 271.73019 213.628235 
L 272.325814 240.123025 
L 272.921437 235.554958 
L 273.517061 228.24605 
L 274.112685 244.691092 
L 274.708308 230.073277 
L 275.303932 233.727731 
L 275.899555 232.814118 
L 276.495179 224.591597 
L 277.090802 221.850756 
L 277.686426 240.123025 
L 278.282049 224.591597 
L 278.877673 216.369076 
L 279.473297 232.814118 
L 280.06892 223.677983 
L 280.664544 225.50521 
L 281.260167 222.76437 
L 281.855791 221.850756 
L 282.451414 218.196303 
L 283.047038 232.814118 
L 283.642661 211.801008 
L 284.238285 231.900504 
L 284.833909 233.727731 
L 285.429532 230.986891 
L 286.025156 232.814118 
L 286.620779 230.073277 
L 287.216403 220.937143 
L 287.812026 230.986891 
L 288.40765 203.578487 
L 289.003273 216.369076 
L 290.194521 231.900504 
L 291.385768 220.937143 
L 291.981391 222.76437 
L 292.577015 239.209412 
L 293.172638 231.900504 
L 293.768262 243.777479 
L 294.363885 252 
L 294.959509 238.295798 
L 295.555133 229.159664 
L 296.150756 231.900504 
L 296.74638 226.418824 
L 297.342003 227.332437 
L 297.937627 201.751261 
L 299.128874 230.986891 
L 299.724497 232.814118 
L 300.320121 217.282689 
L 300.915745 222.76437 
L 301.511368 220.937143 
L 302.106992 230.073277 
L 302.702615 222.76437 
L 303.298239 229.159664 
L 303.893862 232.814118 
L 304.489486 218.196303 
L 305.085109 209.973782 
L 305.680733 226.418824 
L 306.276357 219.109916 
L 306.87198 230.986891 
L 307.467604 225.50521 
L 308.063227 222.76437 
L 308.658851 215.455462 
L 309.254474 236.468571 
L 309.850098 242.863866 
L 310.445721 209.973782 
L 311.041345 212.714622 
L 311.636969 223.677983 
L 312.232592 213.628235 
L 312.828216 220.023529 
L 313.423839 238.295798 
L 314.019463 241.036639 
L 314.615086 240.123025 
L 315.21071 224.591597 
L 315.806333 218.196303 
L 316.401957 221.850756 
L 316.997581 217.282689 
L 317.593204 248.345546 
L 318.188828 220.023529 
L 318.784451 230.986891 
L 319.380075 226.418824 
L 319.975698 224.591597 
L 321.166945 210.887395 
L 321.762569 216.369076 
L 322.358192 227.332437 
L 322.953816 244.691092 
L 323.54944 235.554958 
L 324.145063 218.196303 
L 324.740687 231.900504 
L 325.33631 220.023529 
L 325.931934 238.295798 
L 326.527557 223.677983 
L 327.123181 235.554958 
L 327.718804 223.677983 
L 328.314428 230.986891 
L 328.910052 233.727731 
L 329.505675 233.727731 
L 330.101299 208.146555 
L 330.696922 231.900504 
L 331.292546 222.76437 
L 331.888169 227.332437 
L 332.483793 220.937143 
L 333.079416 219.109916 
L 333.67504 235.554958 
L 334.270664 218.196303 
L 334.866287 223.677983 
L 335.461911 227.332437 
L 336.057534 221.850756 
L 336.653158 229.159664 
L 337.248781 238.295798 
L 337.844405 218.196303 
L 338.440028 235.554958 
L 339.035652 223.677983 
L 339.631276 237.382185 
L 340.226899 223.677983 
L 340.822523 226.418824 
L 341.418146 227.332437 
L 342.01377 219.109916 
L 342.609393 232.814118 
L 343.205017 234.641345 
L 343.80064 199.01042 
L 344.396264 232.814118 
L 344.991888 241.036639 
L 345.587511 227.332437 
L 346.183135 239.209412 
L 346.778758 221.850756 
L 347.374382 226.418824 
L 347.970005 237.382185 
L 348.565629 217.282689 
L 349.756876 224.591597 
L 350.3525 221.850756 
L 350.948123 236.468571 
L 351.543747 231.900504 
L 352.13937 239.209412 
L 353.330617 215.455462 
L 353.926241 231.900504 
L 354.521864 235.554958 
L 355.117488 205.405714 
L 355.713112 227.332437 
L 356.308735 228.24605 
L 356.904359 238.295798 
L 357.499982 233.727731 
L 358.095606 233.727731 
L 358.691229 227.332437 
L 359.286853 235.554958 
L 359.882476 216.369076 
L 360.4781 237.382185 
L 361.073724 225.50521 
L 361.669347 228.24605 
L 362.264971 229.159664 
L 362.860594 221.850756 
L 363.456218 239.209412 
L 364.051841 221.850756 
L 364.647465 220.937143 
L 365.243088 214.541849 
L 365.838712 233.727731 
L 366.434336 212.714622 
L 367.029959 230.986891 
L 367.625583 228.24605 
L 368.221206 230.073277 
L 368.81683 238.295798 
L 369.412453 217.282689 
L 370.008077 224.591597 
L 370.6037 237.382185 
L 371.199324 228.24605 
L 371.794948 242.863866 
L 372.390571 236.468571 
L 372.986195 231.900504 
L 373.581818 232.814118 
L 373.581818 232.814118 
" clip-path="url(#pf1414692ac)" style="fill: none; stroke: #2ca02c; stroke-width: 1.5; stroke-linecap: square"/>
   </g>
   <g id="patch_3">
    <path d="M 54 252 
L 54 34.56 
" style="fill: none; stroke: #000000; stroke-width: 0.8; stroke-linejoin: miter; stroke-linecap: square"/>
   </g>
   <g id="patch_4">
    <path d="M 388.8 252 
L 388.8 34.56 
" style="fill: none; stroke: #000000; stroke-width: 0.8; stroke-linejoin: miter; stroke-linecap: square"/>
   </g>
   <g id="patch_5">
    <path d="M 54 252 
L 388.8 252 
" style="fill: none; stroke: #000000; stroke-width: 0.8; stroke-linejoin: miter; stroke-linecap: square"/>
   </g>
   <g id="patch_6">
    <path d="M 54 34.56 
L 388.8 34.56 
" style="fill: none; stroke: #000000; stroke-width: 0.8; stroke-linejoin: miter; stroke-linecap: square"/>
   </g>
   <g id="text_15">
    <!-- Label 11 normalized -->
    <g transform="translate(160.423125 28.56)scale(0.12 -0.12)">
     <defs>
      <path id="DejaVuSans-4c" d="M 628 4666 
L 1259 4666 
L 1259 531 
L 3531 531 
L 3531 0 
L 628 0 
L 628 4666 
z
" transform="scale(0.015625)"/>
      <path id="DejaVuSans-61" d="M 2194 1759 
Q 1497 1759 1228 1600 
Q 959 1441 959 1056 
Q 959 750 1161 570 
Q 1363 391 1709 391 
Q 2188 391 2477 730 
Q 2766 1069 2766 1631 
L 2766 1759 
L 2194 1759 
z
M 3341 1997 
L 3341 0 
L 2766 0 
L 2766 531 
Q 2569 213 2275 61 
Q 1981 -91 1556 -91 
Q 1019 -91 701 211 
Q 384 513 384 1019 
Q 384 1609 779 1909 
Q 1175 2209 1959 2209 
L 2766 2209 
L 2766 2266 
Q 2766 2663 2505 2880 
Q 2244 3097 1772 3097 
Q 1472 3097 1187 3025 
Q 903 2953 641 2809 
L 641 3341 
Q 956 3463 1253 3523 
Q 1550 3584 1831 3584 
Q 2591 3584 2966 3190 
Q 3341 2797 3341 1997 
z
" transform="scale(0.015625)"/>
      <path id="DejaVuSans-65" d="M 3597 1894 
L 3597 1613 
L 953 1613 
Q 991 1019 1311 708 
Q 1631 397 2203 397 
Q 2534 397 2845 478 
Q 3156 559 3463 722 
L 3463 178 
Q 3153 47 2828 -22 
Q 2503 -91 2169 -91 
Q 1331 -91 842 396 
Q 353 884 353 1716 
Q 353 2575 817 3079 
Q 1281 3584 2069 3584 
Q 2775 3584 3186 3129 
Q 3597 2675 3597 1894 
z
M 3022 2063 
Q 3016 2534 2758 2815 
Q 2500 3097 2075 3097 
Q 1594 3097 1305 2825 
Q 1016 2553 972 2059 
L 3022 2063 
z
" transform="scale(0.015625)"/>
      <path id="DejaVuSans-6c" d="M 603 4863 
L 1178 4863 
L 1178 0 
L 603 0 
L 603 4863 
z
" transform="scale(0.015625)"/>
      <path id="DejaVuSans-20" transform="scale(0.015625)"/>
      <path id="DejaVuSans-72" d="M 2631 2963 
Q 2534 3019 2420 3045 
Q 2306 3072 2169 3072 
Q 1681 3072 1420 2755 
Q 1159 2438 1159 1844 
L 1159 0 
L 581 0 
L 581 3500 
L 1159 3500 
L 1159 2956 
Q 1341 3275 1631 3429 
Q 1922 3584 2338 3584 
Q 2397 3584 2469 3576 
Q 2541 3569 2628 3553 
L 2631 2963 
z
" transform="scale(0.015625)"/>
      <path id="DejaVuSans-6d" d="M 3328 2828 
Q 3544 3216 3844 3400 
Q 4144 3584 4550 3584 
Q 5097 3584 5394 3201 
Q 5691 2819 5691 2113 
L 5691 0 
L 5113 0 
L 5113 2094 
Q 5113 2597 4934 2840 
Q 4756 3084 4391 3084 
Q 3944 3084 3684 2787 
Q 3425 2491 3425 1978 
L 3425 0 
L 2847 0 
L 2847 2094 
Q 2847 2600 2669 2842 
Q 2491 3084 2119 3084 
Q 1678 3084 1418 2786 
Q 1159 2488 1159 1978 
L 1159 0 
L 581 0 
L 581 3500 
L 1159 3500 
L 1159 2956 
Q 1356 3278 1631 3431 
Q 1906 3584 2284 3584 
Q 2666 3584 2933 3390 
Q 3200 3197 3328 2828 
z
" transform="scale(0.015625)"/>
      <path id="DejaVuSans-7a" d="M 353 3500 
L 3084 3500 
L 3084 2975 
L 922 459 
L 3084 459 
L 3084 0 
L 275 0 
L 275 525 
L 2438 3041 
L 353 3041 
L 353 3500 
z
" transform="scale(0.015625)"/>
      <path id="DejaVuSans-64" d="M 2906 2969 
L 2906 4863 
L 3481 4863 
L 3481 0 
L 2906 0 
L 2906 525 
Q 2725 213 2448 61 
Q 2172 -91 1784 -91 
Q 1150 -91 751 415 
Q 353 922 353 1747 
Q 353 2572 751 3078 
Q 1150 3584 1784 3584 
Q 2172 3584 2448 3432 
Q 2725 3281 2906 2969 
z
M 947 1747 
Q 947 1113 1208 752 
Q 1469 391 1925 391 
Q 2381 391 2643 752 
Q 2906 1113 2906 1747 
Q 2906 2381 2643 2742 
Q 2381 3103 1925 3103 
Q 1469 3103 1208 2742 
Q 947 2381 947 1747 
z
" transform="scale(0.015625)"/>
     </defs>
     <use xlink:href="#DejaVuSans-4c"/>
     <use xlink:href="#DejaVuSans-61" x="55.712891"/>
     <use xlink:href="#DejaVuSans-62" x="116.992188"/>
     <use xlink:href="#DejaVuSans-65" x="180.46875"/>
     <use xlink:href="#DejaVuSans-6c" x="241.992188"/>
     <use xlink:href="#DejaVuSans-20" x="269.775391"/>
     <use xlink:href="#DejaVuSans-31" x="301.5625"/>
     <use xlink:href="#DejaVuSans-31" x="365.185547"/>
     <use xlink:href="#DejaVuSans-20" x="428.808594"/>
     <use xlink:href="#DejaVuSans-6e" x="460.595703"/>
     <use xlink:href="#DejaVuSans-6f" x="523.974609"/>
     <use xlink:href="#DejaVuSans-72" x="585.15625"/>
     <use xlink:href="#DejaVuSans-6d" x="624.519531"/>
     <use xlink:href="#DejaVuSans-61" x="721.931641"/>
     <use xlink:href="#DejaVuSans-6c" x="783.210938"/>
     <use xlink:href="#DejaVuSans-69" x="810.994141"/>
     <use xlink:href="#DejaVuSans-7a" x="838.777344"/>
     <use xlink:href="#DejaVuSans-65" x="891.267578"/>
     <use xlink:href="#DejaVuSans-64" x="952.791016"/>
    </g>
   </g>
   <g id="legend_1">
    <g id="patch_7">
     <path d="M 309.070312 101.2725 
L 381.8 101.2725 
Q 383.8 101.2725 383.8 99.2725 
L 383.8 41.56 
Q 383.8 39.56 381.8 39.56 
L 309.070312 39.56 
Q 307.070312 39.56 307.070312 41.56 
L 307.070312 99.2725 
Q 307.070312 101.2725 309.070312 101.2725 
z
" style="fill: #ffffff; opacity: 0.8; stroke: #cccccc; stroke-linejoin: miter"/>
    </g>
    <g id="text_16">
     <!-- Trace number -->
     <g transform="translate(311.070312 51.158437)scale(0.1 -0.1)">
      <defs>
       <path id="DejaVuSans-54" d="M -19 4666 
L 3928 4666 
L 3928 4134 
L 2272 4134 
L 2272 0 
L 1638 0 
L 1638 4134 
L -19 4134 
L -19 4666 
z
" transform="scale(0.015625)"/>
      </defs>
      <use xlink:href="#DejaVuSans-54"/>
      <use xlink:href="#DejaVuSans-72" x="46.333984"/>
      <use xlink:href="#DejaVuSans-61" x="87.447266"/>
      <use xlink:href="#DejaVuSans-63" x="148.726562"/>
      <use xlink:href="#DejaVuSans-65" x="203.707031"/>
      <use xlink:href="#DejaVuSans-20" x="265.230469"/>
      <use xlink:href="#DejaVuSans-6e" x="297.017578"/>
      <use xlink:href="#DejaVuSans-75" x="360.396484"/>
      <use xlink:href="#DejaVuSans-6d" x="423.775391"/>
      <use xlink:href="#DejaVuSans-62" x="521.1875"/>
      <use xlink:href="#DejaVuSans-65" x="584.664062"/>
      <use xlink:href="#DejaVuSans-72" x="646.1875"/>
     </g>
    </g>
    <g id="line2d_28">
     <path d="M 325.072656 62.336562 
L 335.072656 62.336562 
L 345.072656 62.336562 
" style="fill: none; stroke: #1f77b4; stroke-width: 1.5; stroke-linecap: square"/>
    </g>
    <g id="text_17">
     <!-- 30 -->
     <g transform="translate(353.072656 65.836562)scale(0.1 -0.1)">
      <use xlink:href="#DejaVuSans-33"/>
      <use xlink:href="#DejaVuSans-30" x="63.623047"/>
     </g>
    </g>
    <g id="line2d_29">
     <path d="M 325.072656 77.014687 
L 335.072656 77.014687 
L 345.072656 77.014687 
" style="fill: none; stroke: #ff7f0e; stroke-width: 1.5; stroke-linecap: square"/>
    </g>
    <g id="text_18">
     <!-- 67 -->
     <g transform="translate(353.072656 80.514687)scale(0.1 -0.1)">
      <defs>
       <path id="DejaVuSans-37" d="M 525 4666 
L 3525 4666 
L 3525 4397 
L 1831 0 
L 1172 0 
L 2766 4134 
L 525 4134 
L 525 4666 
z
" transform="scale(0.015625)"/>
      </defs>
      <use xlink:href="#DejaVuSans-36"/>
      <use xlink:href="#DejaVuSans-37" x="63.623047"/>
     </g>
    </g>
    <g id="line2d_30">
     <path d="M 325.072656 91.692813 
L 335.072656 91.692813 
L 345.072656 91.692813 
" style="fill: none; stroke: #2ca02c; stroke-width: 1.5; stroke-linecap: square"/>
    </g>
    <g id="text_19">
     <!-- 89 -->
     <g transform="translate(353.072656 95.192813)scale(0.1 -0.1)">
      <defs>
       <path id="DejaVuSans-39" d="M 703 97 
L 703 672 
Q 941 559 1184 500 
Q 1428 441 1663 441 
Q 2288 441 2617 861 
Q 2947 1281 2994 2138 
Q 2813 1869 2534 1725 
Q 2256 1581 1919 1581 
Q 1219 1581 811 2004 
Q 403 2428 403 3163 
Q 403 3881 828 4315 
Q 1253 4750 1959 4750 
Q 2769 4750 3195 4129 
Q 3622 3509 3622 2328 
Q 3622 1225 3098 567 
Q 2575 -91 1691 -91 
Q 1453 -91 1209 -44 
Q 966 3 703 97 
z
M 1959 2075 
Q 2384 2075 2632 2365 
Q 2881 2656 2881 3163 
Q 2881 3666 2632 3958 
Q 2384 4250 1959 4250 
Q 1534 4250 1286 3958 
Q 1038 3666 1038 3163 
Q 1038 2656 1286 2365 
Q 1534 2075 1959 2075 
z
" transform="scale(0.015625)"/>
      </defs>
      <use xlink:href="#DejaVuSans-38"/>
      <use xlink:href="#DejaVuSans-39" x="63.623047"/>
     </g>
    </g>
   </g>
  </g>
 </g>
 <defs>
  <clipPath id="pf1414692ac">
   <rect x="54" y="34.56" width="334.8" height="217.44"/>
  </clipPath>
 </defs>
</svg>
