<?xml version="1.0" encoding="utf-8" standalone="no"?>
<!DOCTYPE svg PUBLIC "-//W3C//DTD SVG 1.1//EN"
  "http://www.w3.org/Graphics/SVG/1.1/DTD/svg11.dtd">
<svg xmlns:xlink="http://www.w3.org/1999/xlink" width="432pt" height="288pt" viewBox="0 0 432 288" xmlns="http://www.w3.org/2000/svg" version="1.1">
 <metadata>
  <rdf:RDF xmlns:dc="http://purl.org/dc/elements/1.1/" xmlns:cc="http://creativecommons.org/ns#" xmlns:rdf="http://www.w3.org/1999/02/22-rdf-syntax-ns#">
   <cc:Work>
    <dc:type rdf:resource="http://purl.org/dc/dcmitype/StillImage"/>
    <dc:date>2022-03-30T13:16:47.363079</dc:date>
    <dc:format>image/svg+xml</dc:format>
    <dc:creator>
     <cc:Agent>
      <dc:title>Matplotlib v3.5.1, https://matplotlib.org/</dc:title>
     </cc:Agent>
    </dc:creator>
   </cc:Work>
  </rdf:RDF>
 </metadata>
 <defs>
  <style type="text/css">*{stroke-linejoin: round; stroke-linecap: butt}</style>
 </defs>
 <g id="figure_1">
  <g id="patch_1">
   <path d="M 0 288 
L 432 288 
L 432 0 
L 0 0 
z
" style="fill: #ffffff"/>
  </g>
  <g id="axes_1">
   <g id="patch_2">
    <path d="M 54 252 
L 388.8 252 
L 388.8 34.56 
L 54 34.56 
z
" style="fill: #ffffff"/>
   </g>
   <g id="matplotlib.axis_1">
    <g id="xtick_1">
     <g id="line2d_1">
      <path d="M 69.218182 252 
L 69.218182 34.56 
" clip-path="url(#p487ec6cbdb)" style="fill: none; stroke: #b0b0b0; stroke-width: 0.8; stroke-linecap: square"/>
     </g>
     <g id="line2d_2">
      <defs>
       <path id="m5773bae2af" d="M 0 0 
L 0 3.5 
" style="stroke: #000000; stroke-width: 0.8"/>
      </defs>
      <g>
       <use xlink:href="#m5773bae2af" x="69.218182" y="252" style="stroke: #000000; stroke-width: 0.8"/>
      </g>
     </g>
     <g id="text_1">
      <!-- 0 -->
      <g transform="translate(66.036932 266.598437)scale(0.1 -0.1)">
       <defs>
        <path id="DejaVuSans-30" d="M 2034 4250 
Q 1547 4250 1301 3770 
Q 1056 3291 1056 2328 
Q 1056 1369 1301 889 
Q 1547 409 2034 409 
Q 2525 409 2770 889 
Q 3016 1369 3016 2328 
Q 3016 3291 2770 3770 
Q 2525 4250 2034 4250 
z
M 2034 4750 
Q 2819 4750 3233 4129 
Q 3647 3509 3647 2328 
Q 3647 1150 3233 529 
Q 2819 -91 2034 -91 
Q 1250 -91 836 529 
Q 422 1150 422 2328 
Q 422 3509 836 4129 
Q 1250 4750 2034 4750 
z
" transform="scale(0.015625)"/>
       </defs>
       <use xlink:href="#DejaVuSans-30"/>
      </g>
     </g>
    </g>
    <g id="xtick_2">
     <g id="line2d_3">
      <path d="M 128.780537 252 
L 128.780537 34.56 
" clip-path="url(#p487ec6cbdb)" style="fill: none; stroke: #b0b0b0; stroke-width: 0.8; stroke-linecap: square"/>
     </g>
     <g id="line2d_4">
      <g>
       <use xlink:href="#m5773bae2af" x="128.780537" y="252" style="stroke: #000000; stroke-width: 0.8"/>
      </g>
     </g>
     <g id="text_2">
      <!-- 100 -->
      <g transform="translate(119.236787 266.598437)scale(0.1 -0.1)">
       <defs>
        <path id="DejaVuSans-31" d="M 794 531 
L 1825 531 
L 1825 4091 
L 703 3866 
L 703 4441 
L 1819 4666 
L 2450 4666 
L 2450 531 
L 3481 531 
L 3481 0 
L 794 0 
L 794 531 
z
" transform="scale(0.015625)"/>
       </defs>
       <use xlink:href="#DejaVuSans-31"/>
       <use xlink:href="#DejaVuSans-30" x="63.623047"/>
       <use xlink:href="#DejaVuSans-30" x="127.246094"/>
      </g>
     </g>
    </g>
    <g id="xtick_3">
     <g id="line2d_5">
      <path d="M 188.342893 252 
L 188.342893 34.56 
" clip-path="url(#p487ec6cbdb)" style="fill: none; stroke: #b0b0b0; stroke-width: 0.8; stroke-linecap: square"/>
     </g>
     <g id="line2d_6">
      <g>
       <use xlink:href="#m5773bae2af" x="188.342893" y="252" style="stroke: #000000; stroke-width: 0.8"/>
      </g>
     </g>
     <g id="text_3">
      <!-- 200 -->
      <g transform="translate(178.799143 266.598437)scale(0.1 -0.1)">
       <defs>
        <path id="DejaVuSans-32" d="M 1228 531 
L 3431 531 
L 3431 0 
L 469 0 
L 469 531 
Q 828 903 1448 1529 
Q 2069 2156 2228 2338 
Q 2531 2678 2651 2914 
Q 2772 3150 2772 3378 
Q 2772 3750 2511 3984 
Q 2250 4219 1831 4219 
Q 1534 4219 1204 4116 
Q 875 4013 500 3803 
L 500 4441 
Q 881 4594 1212 4672 
Q 1544 4750 1819 4750 
Q 2544 4750 2975 4387 
Q 3406 4025 3406 3419 
Q 3406 3131 3298 2873 
Q 3191 2616 2906 2266 
Q 2828 2175 2409 1742 
Q 1991 1309 1228 531 
z
" transform="scale(0.015625)"/>
       </defs>
       <use xlink:href="#DejaVuSans-32"/>
       <use xlink:href="#DejaVuSans-30" x="63.623047"/>
       <use xlink:href="#DejaVuSans-30" x="127.246094"/>
      </g>
     </g>
    </g>
    <g id="xtick_4">
     <g id="line2d_7">
      <path d="M 247.905248 252 
L 247.905248 34.56 
" clip-path="url(#p487ec6cbdb)" style="fill: none; stroke: #b0b0b0; stroke-width: 0.8; stroke-linecap: square"/>
     </g>
     <g id="line2d_8">
      <g>
       <use xlink:href="#m5773bae2af" x="247.905248" y="252" style="stroke: #000000; stroke-width: 0.8"/>
      </g>
     </g>
     <g id="text_4">
      <!-- 300 -->
      <g transform="translate(238.361498 266.598437)scale(0.1 -0.1)">
       <defs>
        <path id="DejaVuSans-33" d="M 2597 2516 
Q 3050 2419 3304 2112 
Q 3559 1806 3559 1356 
Q 3559 666 3084 287 
Q 2609 -91 1734 -91 
Q 1441 -91 1130 -33 
Q 819 25 488 141 
L 488 750 
Q 750 597 1062 519 
Q 1375 441 1716 441 
Q 2309 441 2620 675 
Q 2931 909 2931 1356 
Q 2931 1769 2642 2001 
Q 2353 2234 1838 2234 
L 1294 2234 
L 1294 2753 
L 1863 2753 
Q 2328 2753 2575 2939 
Q 2822 3125 2822 3475 
Q 2822 3834 2567 4026 
Q 2313 4219 1838 4219 
Q 1578 4219 1281 4162 
Q 984 4106 628 3988 
L 628 4550 
Q 988 4650 1302 4700 
Q 1616 4750 1894 4750 
Q 2613 4750 3031 4423 
Q 3450 4097 3450 3541 
Q 3450 3153 3228 2886 
Q 3006 2619 2597 2516 
z
" transform="scale(0.015625)"/>
       </defs>
       <use xlink:href="#DejaVuSans-33"/>
       <use xlink:href="#DejaVuSans-30" x="63.623047"/>
       <use xlink:href="#DejaVuSans-30" x="127.246094"/>
      </g>
     </g>
    </g>
    <g id="xtick_5">
     <g id="line2d_9">
      <path d="M 307.467604 252 
L 307.467604 34.56 
" clip-path="url(#p487ec6cbdb)" style="fill: none; stroke: #b0b0b0; stroke-width: 0.8; stroke-linecap: square"/>
     </g>
     <g id="line2d_10">
      <g>
       <use xlink:href="#m5773bae2af" x="307.467604" y="252" style="stroke: #000000; stroke-width: 0.8"/>
      </g>
     </g>
     <g id="text_5">
      <!-- 400 -->
      <g transform="translate(297.923854 266.598437)scale(0.1 -0.1)">
       <defs>
        <path id="DejaVuSans-34" d="M 2419 4116 
L 825 1625 
L 2419 1625 
L 2419 4116 
z
M 2253 4666 
L 3047 4666 
L 3047 1625 
L 3713 1625 
L 3713 1100 
L 3047 1100 
L 3047 0 
L 2419 0 
L 2419 1100 
L 313 1100 
L 313 1709 
L 2253 4666 
z
" transform="scale(0.015625)"/>
       </defs>
       <use xlink:href="#DejaVuSans-34"/>
       <use xlink:href="#DejaVuSans-30" x="63.623047"/>
       <use xlink:href="#DejaVuSans-30" x="127.246094"/>
      </g>
     </g>
    </g>
    <g id="xtick_6">
     <g id="line2d_11">
      <path d="M 367.029959 252 
L 367.029959 34.56 
" clip-path="url(#p487ec6cbdb)" style="fill: none; stroke: #b0b0b0; stroke-width: 0.8; stroke-linecap: square"/>
     </g>
     <g id="line2d_12">
      <g>
       <use xlink:href="#m5773bae2af" x="367.029959" y="252" style="stroke: #000000; stroke-width: 0.8"/>
      </g>
     </g>
     <g id="text_6">
      <!-- 500 -->
      <g transform="translate(357.486209 266.598437)scale(0.1 -0.1)">
       <defs>
        <path id="DejaVuSans-35" d="M 691 4666 
L 3169 4666 
L 3169 4134 
L 1269 4134 
L 1269 2991 
Q 1406 3038 1543 3061 
Q 1681 3084 1819 3084 
Q 2600 3084 3056 2656 
Q 3513 2228 3513 1497 
Q 3513 744 3044 326 
Q 2575 -91 1722 -91 
Q 1428 -91 1123 -41 
Q 819 9 494 109 
L 494 744 
Q 775 591 1075 516 
Q 1375 441 1709 441 
Q 2250 441 2565 725 
Q 2881 1009 2881 1497 
Q 2881 1984 2565 2268 
Q 2250 2553 1709 2553 
Q 1456 2553 1204 2497 
Q 953 2441 691 2322 
L 691 4666 
z
" transform="scale(0.015625)"/>
       </defs>
       <use xlink:href="#DejaVuSans-35"/>
       <use xlink:href="#DejaVuSans-30" x="63.623047"/>
       <use xlink:href="#DejaVuSans-30" x="127.246094"/>
      </g>
     </g>
    </g>
    <g id="text_7">
     <!-- bin -->
     <g transform="translate(213.667969 280.276563)scale(0.1 -0.1)">
      <defs>
       <path id="DejaVuSans-62" d="M 3116 1747 
Q 3116 2381 2855 2742 
Q 2594 3103 2138 3103 
Q 1681 3103 1420 2742 
Q 1159 2381 1159 1747 
Q 1159 1113 1420 752 
Q 1681 391 2138 391 
Q 2594 391 2855 752 
Q 3116 1113 3116 1747 
z
M 1159 2969 
Q 1341 3281 1617 3432 
Q 1894 3584 2278 3584 
Q 2916 3584 3314 3078 
Q 3713 2572 3713 1747 
Q 3713 922 3314 415 
Q 2916 -91 2278 -91 
Q 1894 -91 1617 61 
Q 1341 213 1159 525 
L 1159 0 
L 581 0 
L 581 4863 
L 1159 4863 
L 1159 2969 
z
" transform="scale(0.015625)"/>
       <path id="DejaVuSans-69" d="M 603 3500 
L 1178 3500 
L 1178 0 
L 603 0 
L 603 3500 
z
M 603 4863 
L 1178 4863 
L 1178 4134 
L 603 4134 
L 603 4863 
z
" transform="scale(0.015625)"/>
       <path id="DejaVuSans-6e" d="M 3513 2113 
L 3513 0 
L 2938 0 
L 2938 2094 
Q 2938 2591 2744 2837 
Q 2550 3084 2163 3084 
Q 1697 3084 1428 2787 
Q 1159 2491 1159 1978 
L 1159 0 
L 581 0 
L 581 3500 
L 1159 3500 
L 1159 2956 
Q 1366 3272 1645 3428 
Q 1925 3584 2291 3584 
Q 2894 3584 3203 3211 
Q 3513 2838 3513 2113 
z
" transform="scale(0.015625)"/>
      </defs>
      <use xlink:href="#DejaVuSans-62"/>
      <use xlink:href="#DejaVuSans-69" x="63.476562"/>
      <use xlink:href="#DejaVuSans-6e" x="91.259766"/>
     </g>
    </g>
   </g>
   <g id="matplotlib.axis_2">
    <g id="ytick_1">
     <g id="line2d_13">
      <path d="M 54 252 
L 388.8 252 
" clip-path="url(#p487ec6cbdb)" style="fill: none; stroke: #b0b0b0; stroke-width: 0.8; stroke-linecap: square"/>
     </g>
     <g id="line2d_14">
      <defs>
       <path id="mc82f6103c1" d="M 0 0 
L -3.5 0 
" style="stroke: #000000; stroke-width: 0.8"/>
      </defs>
      <g>
       <use xlink:href="#mc82f6103c1" x="54" y="252" style="stroke: #000000; stroke-width: 0.8"/>
      </g>
     </g>
     <g id="text_8">
      <!-- 0.0 -->
      <g transform="translate(31.096875 255.799219)scale(0.1 -0.1)">
       <defs>
        <path id="DejaVuSans-2e" d="M 684 794 
L 1344 794 
L 1344 0 
L 684 0 
L 684 794 
z
" transform="scale(0.015625)"/>
       </defs>
       <use xlink:href="#DejaVuSans-30"/>
       <use xlink:href="#DejaVuSans-2e" x="63.623047"/>
       <use xlink:href="#DejaVuSans-30" x="95.410156"/>
      </g>
     </g>
    </g>
    <g id="ytick_2">
     <g id="line2d_15">
      <path d="M 54 208.512 
L 388.8 208.512 
" clip-path="url(#p487ec6cbdb)" style="fill: none; stroke: #b0b0b0; stroke-width: 0.8; stroke-linecap: square"/>
     </g>
     <g id="line2d_16">
      <g>
       <use xlink:href="#mc82f6103c1" x="54" y="208.512" style="stroke: #000000; stroke-width: 0.8"/>
      </g>
     </g>
     <g id="text_9">
      <!-- 0.2 -->
      <g transform="translate(31.096875 212.311219)scale(0.1 -0.1)">
       <use xlink:href="#DejaVuSans-30"/>
       <use xlink:href="#DejaVuSans-2e" x="63.623047"/>
       <use xlink:href="#DejaVuSans-32" x="95.410156"/>
      </g>
     </g>
    </g>
    <g id="ytick_3">
     <g id="line2d_17">
      <path d="M 54 165.024 
L 388.8 165.024 
" clip-path="url(#p487ec6cbdb)" style="fill: none; stroke: #b0b0b0; stroke-width: 0.8; stroke-linecap: square"/>
     </g>
     <g id="line2d_18">
      <g>
       <use xlink:href="#mc82f6103c1" x="54" y="165.024" style="stroke: #000000; stroke-width: 0.8"/>
      </g>
     </g>
     <g id="text_10">
      <!-- 0.4 -->
      <g transform="translate(31.096875 168.823219)scale(0.1 -0.1)">
       <use xlink:href="#DejaVuSans-30"/>
       <use xlink:href="#DejaVuSans-2e" x="63.623047"/>
       <use xlink:href="#DejaVuSans-34" x="95.410156"/>
      </g>
     </g>
    </g>
    <g id="ytick_4">
     <g id="line2d_19">
      <path d="M 54 121.536 
L 388.8 121.536 
" clip-path="url(#p487ec6cbdb)" style="fill: none; stroke: #b0b0b0; stroke-width: 0.8; stroke-linecap: square"/>
     </g>
     <g id="line2d_20">
      <g>
       <use xlink:href="#mc82f6103c1" x="54" y="121.536" style="stroke: #000000; stroke-width: 0.8"/>
      </g>
     </g>
     <g id="text_11">
      <!-- 0.6 -->
      <g transform="translate(31.096875 125.335219)scale(0.1 -0.1)">
       <defs>
        <path id="DejaVuSans-36" d="M 2113 2584 
Q 1688 2584 1439 2293 
Q 1191 2003 1191 1497 
Q 1191 994 1439 701 
Q 1688 409 2113 409 
Q 2538 409 2786 701 
Q 3034 994 3034 1497 
Q 3034 2003 2786 2293 
Q 2538 2584 2113 2584 
z
M 3366 4563 
L 3366 3988 
Q 3128 4100 2886 4159 
Q 2644 4219 2406 4219 
Q 1781 4219 1451 3797 
Q 1122 3375 1075 2522 
Q 1259 2794 1537 2939 
Q 1816 3084 2150 3084 
Q 2853 3084 3261 2657 
Q 3669 2231 3669 1497 
Q 3669 778 3244 343 
Q 2819 -91 2113 -91 
Q 1303 -91 875 529 
Q 447 1150 447 2328 
Q 447 3434 972 4092 
Q 1497 4750 2381 4750 
Q 2619 4750 2861 4703 
Q 3103 4656 3366 4563 
z
" transform="scale(0.015625)"/>
       </defs>
       <use xlink:href="#DejaVuSans-30"/>
       <use xlink:href="#DejaVuSans-2e" x="63.623047"/>
       <use xlink:href="#DejaVuSans-36" x="95.410156"/>
      </g>
     </g>
    </g>
    <g id="ytick_5">
     <g id="line2d_21">
      <path d="M 54 78.048 
L 388.8 78.048 
" clip-path="url(#p487ec6cbdb)" style="fill: none; stroke: #b0b0b0; stroke-width: 0.8; stroke-linecap: square"/>
     </g>
     <g id="line2d_22">
      <g>
       <use xlink:href="#mc82f6103c1" x="54" y="78.048" style="stroke: #000000; stroke-width: 0.8"/>
      </g>
     </g>
     <g id="text_12">
      <!-- 0.8 -->
      <g transform="translate(31.096875 81.847219)scale(0.1 -0.1)">
       <defs>
        <path id="DejaVuSans-38" d="M 2034 2216 
Q 1584 2216 1326 1975 
Q 1069 1734 1069 1313 
Q 1069 891 1326 650 
Q 1584 409 2034 409 
Q 2484 409 2743 651 
Q 3003 894 3003 1313 
Q 3003 1734 2745 1975 
Q 2488 2216 2034 2216 
z
M 1403 2484 
Q 997 2584 770 2862 
Q 544 3141 544 3541 
Q 544 4100 942 4425 
Q 1341 4750 2034 4750 
Q 2731 4750 3128 4425 
Q 3525 4100 3525 3541 
Q 3525 3141 3298 2862 
Q 3072 2584 2669 2484 
Q 3125 2378 3379 2068 
Q 3634 1759 3634 1313 
Q 3634 634 3220 271 
Q 2806 -91 2034 -91 
Q 1263 -91 848 271 
Q 434 634 434 1313 
Q 434 1759 690 2068 
Q 947 2378 1403 2484 
z
M 1172 3481 
Q 1172 3119 1398 2916 
Q 1625 2713 2034 2713 
Q 2441 2713 2670 2916 
Q 2900 3119 2900 3481 
Q 2900 3844 2670 4047 
Q 2441 4250 2034 4250 
Q 1625 4250 1398 4047 
Q 1172 3844 1172 3481 
z
" transform="scale(0.015625)"/>
       </defs>
       <use xlink:href="#DejaVuSans-30"/>
       <use xlink:href="#DejaVuSans-2e" x="63.623047"/>
       <use xlink:href="#DejaVuSans-38" x="95.410156"/>
      </g>
     </g>
    </g>
    <g id="ytick_6">
     <g id="line2d_23">
      <path d="M 54 34.56 
L 388.8 34.56 
" clip-path="url(#p487ec6cbdb)" style="fill: none; stroke: #b0b0b0; stroke-width: 0.8; stroke-linecap: square"/>
     </g>
     <g id="line2d_24">
      <g>
       <use xlink:href="#mc82f6103c1" x="54" y="34.56" style="stroke: #000000; stroke-width: 0.8"/>
      </g>
     </g>
     <g id="text_13">
      <!-- 1.0 -->
      <g transform="translate(31.096875 38.359219)scale(0.1 -0.1)">
       <use xlink:href="#DejaVuSans-31"/>
       <use xlink:href="#DejaVuSans-2e" x="63.623047"/>
       <use xlink:href="#DejaVuSans-30" x="95.410156"/>
      </g>
     </g>
    </g>
    <g id="text_14">
     <!-- count -->
     <g transform="translate(25.017187 157.38625)rotate(-90)scale(0.1 -0.1)">
      <defs>
       <path id="DejaVuSans-63" d="M 3122 3366 
L 3122 2828 
Q 2878 2963 2633 3030 
Q 2388 3097 2138 3097 
Q 1578 3097 1268 2742 
Q 959 2388 959 1747 
Q 959 1106 1268 751 
Q 1578 397 2138 397 
Q 2388 397 2633 464 
Q 2878 531 3122 666 
L 3122 134 
Q 2881 22 2623 -34 
Q 2366 -91 2075 -91 
Q 1284 -91 818 406 
Q 353 903 353 1747 
Q 353 2603 823 3093 
Q 1294 3584 2113 3584 
Q 2378 3584 2631 3529 
Q 2884 3475 3122 3366 
z
" transform="scale(0.015625)"/>
       <path id="DejaVuSans-6f" d="M 1959 3097 
Q 1497 3097 1228 2736 
Q 959 2375 959 1747 
Q 959 1119 1226 758 
Q 1494 397 1959 397 
Q 2419 397 2687 759 
Q 2956 1122 2956 1747 
Q 2956 2369 2687 2733 
Q 2419 3097 1959 3097 
z
M 1959 3584 
Q 2709 3584 3137 3096 
Q 3566 2609 3566 1747 
Q 3566 888 3137 398 
Q 2709 -91 1959 -91 
Q 1206 -91 779 398 
Q 353 888 353 1747 
Q 353 2609 779 3096 
Q 1206 3584 1959 3584 
z
" transform="scale(0.015625)"/>
       <path id="DejaVuSans-75" d="M 544 1381 
L 544 3500 
L 1119 3500 
L 1119 1403 
Q 1119 906 1312 657 
Q 1506 409 1894 409 
Q 2359 409 2629 706 
Q 2900 1003 2900 1516 
L 2900 3500 
L 3475 3500 
L 3475 0 
L 2900 0 
L 2900 538 
Q 2691 219 2414 64 
Q 2138 -91 1772 -91 
Q 1169 -91 856 284 
Q 544 659 544 1381 
z
M 1991 3584 
L 1991 3584 
z
" transform="scale(0.015625)"/>
       <path id="DejaVuSans-74" d="M 1172 4494 
L 1172 3500 
L 2356 3500 
L 2356 3053 
L 1172 3053 
L 1172 1153 
Q 1172 725 1289 603 
Q 1406 481 1766 481 
L 2356 481 
L 2356 0 
L 1766 0 
Q 1100 0 847 248 
Q 594 497 594 1153 
L 594 3053 
L 172 3053 
L 172 3500 
L 594 3500 
L 594 4494 
L 1172 4494 
z
" transform="scale(0.015625)"/>
      </defs>
      <use xlink:href="#DejaVuSans-63"/>
      <use xlink:href="#DejaVuSans-6f" x="54.980469"/>
      <use xlink:href="#DejaVuSans-75" x="116.162109"/>
      <use xlink:href="#DejaVuSans-6e" x="179.541016"/>
      <use xlink:href="#DejaVuSans-74" x="242.919922"/>
     </g>
    </g>
   </g>
   <g id="line2d_25">
    <path d="M 69.218182 249.086231 
L 69.813805 248.72201 
L 70.409429 248.72201 
L 71.005052 249.814673 
L 71.600676 246.900905 
L 72.791923 249.814673 
L 73.387547 249.814673 
L 73.98317 247.629347 
L 74.578794 248.357789 
L 75.174417 249.450452 
L 76.365664 247.993568 
L 76.961288 248.72201 
L 77.556912 249.814673 
L 78.152535 247.993568 
L 78.748159 248.72201 
L 79.343782 247.993568 
L 79.939406 250.543116 
L 80.535029 247.629347 
L 81.130653 247.629347 
L 81.726276 248.72201 
L 82.3219 250.907337 
L 82.917524 249.450452 
L 83.513147 250.178894 
L 84.108771 250.178894 
L 84.704394 249.814673 
L 85.300018 250.543116 
L 85.895641 249.086231 
L 86.491265 249.450452 
L 87.086888 247.265126 
L 87.682512 249.814673 
L 88.278136 249.086231 
L 88.873759 251.271558 
L 89.469383 248.357789 
L 90.065006 249.814673 
L 90.66063 249.086231 
L 91.256253 250.178894 
L 91.851877 249.450452 
L 92.4475 249.086231 
L 93.043124 247.993568 
L 93.638748 249.450452 
L 94.234371 248.72201 
L 94.829995 248.357789 
L 95.425618 250.178894 
L 96.021242 249.814673 
L 96.616865 250.543116 
L 97.212489 249.450452 
L 97.808112 249.450452 
L 98.403736 247.993568 
L 98.99936 249.086231 
L 99.594983 247.993568 
L 100.190607 250.543116 
L 100.78623 249.450452 
L 101.381854 249.086231 
L 101.977477 248.357789 
L 102.573101 250.178894 
L 103.168724 250.907337 
L 103.764348 250.178894 
L 104.359972 250.543116 
L 104.955595 249.086231 
L 105.551219 245.808241 
L 106.146842 248.357789 
L 107.338089 249.086231 
L 107.933713 250.178894 
L 108.529336 250.178894 
L 109.12496 250.543116 
L 109.720584 249.450452 
L 110.316207 249.450452 
L 110.911831 250.543116 
L 111.507454 248.72201 
L 112.103078 248.72201 
L 112.698701 249.450452 
L 113.294325 249.086231 
L 113.889948 249.450452 
L 114.485572 250.178894 
L 115.081196 248.72201 
L 115.676819 247.993568 
L 116.272443 249.450452 
L 117.46369 246.536683 
L 118.059313 249.086231 
L 118.654937 250.543116 
L 119.25056 249.814673 
L 119.846184 248.72201 
L 120.441808 249.086231 
L 121.037431 250.178894 
L 121.633055 249.450452 
L 122.228678 250.543116 
L 122.824302 250.543116 
L 123.419925 250.907337 
L 124.015549 250.178894 
L 124.611172 247.629347 
L 125.206796 251.271558 
L 125.802419 249.086231 
L 126.398043 250.178894 
L 126.993667 249.086231 
L 127.58929 249.814673 
L 128.184914 247.993568 
L 128.780537 249.086231 
L 129.971784 250.543116 
L 130.567408 250.178894 
L 131.163031 250.907337 
L 131.758655 247.993568 
L 132.354279 249.086231 
L 132.949902 248.357789 
L 133.545526 249.814673 
L 134.141149 248.72201 
L 134.736773 250.178894 
L 135.332396 247.993568 
L 135.92802 250.178894 
L 136.523643 249.450452 
L 137.119267 250.178894 
L 138.906138 249.086231 
L 139.501761 250.178894 
L 140.097385 250.178894 
L 140.693008 247.629347 
L 141.288632 250.543116 
L 141.884255 249.086231 
L 142.479879 249.086231 
L 143.075503 248.357789 
L 143.671126 250.543116 
L 144.26675 249.086231 
L 144.862373 250.543116 
L 145.457997 247.265126 
L 146.05362 247.629347 
L 146.649244 247.265126 
L 147.244867 246.172462 
L 147.840491 250.543116 
L 148.436115 249.086231 
L 149.031738 248.72201 
L 149.627362 249.814673 
L 150.222985 250.178894 
L 150.818609 247.993568 
L 151.414232 249.086231 
L 152.009856 248.72201 
L 152.605479 248.72201 
L 153.201103 246.900905 
L 153.796727 249.086231 
L 154.39235 249.450452 
L 154.987974 249.086231 
L 155.583597 249.086231 
L 156.179221 248.357789 
L 156.774844 249.814673 
L 157.966091 249.814673 
L 158.561715 249.450452 
L 159.157339 250.178894 
L 159.752962 247.993568 
L 160.348586 250.907337 
L 160.944209 249.086231 
L 161.539833 250.178894 
L 162.135456 248.72201 
L 162.73108 249.450452 
L 163.922327 249.450452 
L 164.517951 248.357789 
L 165.113574 235.245829 
L 165.709198 203.558593 
L 166.304821 140.912563 
L 166.900445 45.850854 
L 167.496068 34.56 
L 168.091692 100.48402 
L 168.687315 188.989749 
L 169.282939 232.696281 
L 169.878563 247.265126 
L 170.474186 249.450452 
L 171.06981 247.993568 
L 171.665433 250.178894 
L 172.261057 250.178894 
L 172.85668 249.450452 
L 173.452304 249.086231 
L 174.047927 246.900905 
L 174.643551 250.178894 
L 175.239175 248.357789 
L 175.834798 250.543116 
L 176.430422 250.178894 
L 177.621669 250.178894 
L 178.217292 247.993568 
L 178.812916 247.629347 
L 179.408539 250.178894 
L 180.004163 249.086231 
L 180.599787 248.357789 
L 181.19541 249.450452 
L 181.791034 247.265126 
L 182.386657 248.72201 
L 182.982281 249.086231 
L 183.577904 249.086231 
L 184.173528 247.629347 
L 184.769151 249.814673 
L 185.364775 248.357789 
L 185.960399 248.72201 
L 186.556022 249.450452 
L 187.151646 248.72201 
L 187.747269 250.543116 
L 188.342893 251.271558 
L 188.938516 247.629347 
L 189.53414 248.72201 
L 190.129763 247.629347 
L 190.725387 250.907337 
L 191.32101 249.450452 
L 191.916634 247.629347 
L 192.512258 249.086231 
L 193.107881 251.635779 
L 193.703505 249.450452 
L 194.299128 249.086231 
L 194.894752 247.265126 
L 195.490375 249.086231 
L 196.085999 248.357789 
L 196.681622 249.450452 
L 197.277246 249.450452 
L 197.87287 248.72201 
L 198.468493 248.357789 
L 199.064117 250.907337 
L 199.65974 249.450452 
L 200.255364 248.357789 
L 200.850987 250.543116 
L 201.446611 250.907337 
L 202.042234 247.993568 
L 202.637858 251.271558 
L 203.233482 248.72201 
L 203.829105 249.086231 
L 204.424729 247.993568 
L 205.020352 249.450452 
L 205.615976 248.357789 
L 206.211599 249.814673 
L 206.807223 248.357789 
L 207.402846 247.629347 
L 207.99847 249.086231 
L 208.594094 248.357789 
L 209.189717 249.814673 
L 209.785341 249.450452 
L 210.380964 249.450452 
L 210.976588 250.543116 
L 211.572211 250.907337 
L 212.167835 249.086231 
L 212.763458 250.178894 
L 213.359082 247.993568 
L 213.954706 249.450452 
L 215.145953 249.450452 
L 215.741576 247.993568 
L 216.3372 250.543116 
L 216.932823 249.814673 
L 217.528447 250.907337 
L 218.12407 249.814673 
L 218.719694 251.271558 
L 219.315318 249.814673 
L 219.910941 246.172462 
L 220.506565 249.814673 
L 221.102188 249.086231 
L 221.697812 248.72201 
L 222.293435 247.629347 
L 222.889059 248.357789 
L 223.484682 248.357789 
L 224.080306 250.178894 
L 225.271553 249.450452 
L 225.867177 248.72201 
L 226.4628 249.086231 
L 227.058424 250.178894 
L 227.654047 248.72201 
L 228.249671 247.993568 
L 228.845294 248.72201 
L 229.440918 251.635779 
L 230.036542 249.814673 
L 230.632165 247.265126 
L 231.227789 247.993568 
L 231.823412 249.814673 
L 232.419036 249.450452 
L 233.014659 249.814673 
L 233.610283 250.543116 
L 234.80153 249.814673 
L 235.397154 249.086231 
L 235.992777 250.543116 
L 236.588401 248.357789 
L 237.184024 250.178894 
L 237.779648 250.178894 
L 238.375271 250.543116 
L 238.970895 247.265126 
L 239.566518 250.178894 
L 240.162142 250.907337 
L 240.757766 249.814673 
L 241.353389 247.629347 
L 241.949013 248.72201 
L 242.544636 249.450452 
L 243.14026 249.814673 
L 243.735883 249.086231 
L 244.331507 249.450452 
L 244.92713 248.357789 
L 245.522754 249.086231 
L 246.118378 250.178894 
L 246.714001 248.72201 
L 247.309625 249.086231 
L 247.905248 250.543116 
L 248.500872 249.814673 
L 249.096495 248.72201 
L 249.692119 249.814673 
L 250.287742 248.72201 
L 250.883366 249.086231 
L 251.47899 247.993568 
L 252.074613 249.814673 
L 252.670237 249.814673 
L 253.26586 250.178894 
L 254.457107 249.450452 
L 255.648354 246.536683 
L 256.243978 248.357789 
L 256.839601 248.357789 
L 257.435225 248.72201 
L 258.030849 250.543116 
L 258.626472 248.357789 
L 259.222096 247.629347 
L 259.817719 248.72201 
L 260.413343 250.543116 
L 261.008966 250.178894 
L 261.60459 248.72201 
L 262.200213 250.543116 
L 262.795837 249.086231 
L 263.391461 248.357789 
L 263.987084 249.450452 
L 264.582708 249.450452 
L 265.178331 248.72201 
L 265.773955 249.814673 
L 266.369578 248.72201 
L 266.965202 248.72201 
L 267.560825 248.357789 
L 268.156449 249.450452 
L 268.752073 250.178894 
L 269.347696 250.543116 
L 269.94332 249.814673 
L 270.538943 250.178894 
L 271.134567 249.450452 
L 271.73019 251.635779 
L 272.325814 249.086231 
L 272.921437 250.543116 
L 273.517061 249.086231 
L 274.112685 248.357789 
L 274.708308 248.357789 
L 275.303932 250.178894 
L 275.899555 249.814673 
L 276.495179 250.178894 
L 277.090802 248.357789 
L 277.686426 249.086231 
L 278.282049 251.271558 
L 278.877673 250.543116 
L 279.473297 248.357789 
L 280.664544 249.814673 
L 281.260167 246.536683 
L 281.855791 249.814673 
L 282.451414 248.72201 
L 283.047038 249.814673 
L 283.642661 250.178894 
L 284.238285 247.265126 
L 284.833909 250.543116 
L 285.429532 247.993568 
L 286.025156 249.086231 
L 286.620779 247.993568 
L 287.216403 250.907337 
L 287.812026 251.271558 
L 288.40765 250.543116 
L 289.003273 249.086231 
L 289.598897 249.450452 
L 290.194521 249.086231 
L 290.790144 249.814673 
L 291.385768 250.178894 
L 291.981391 249.450452 
L 292.577015 247.265126 
L 293.172638 250.543116 
L 293.768262 248.72201 
L 294.363885 250.907337 
L 294.959509 248.357789 
L 295.555133 247.629347 
L 296.150756 250.178894 
L 296.74638 249.450452 
L 297.342003 250.543116 
L 297.937627 249.450452 
L 298.53325 249.086231 
L 299.128874 249.086231 
L 299.724497 250.543116 
L 300.320121 248.72201 
L 300.915745 248.357789 
L 301.511368 250.907337 
L 302.106992 249.086231 
L 302.702615 249.450452 
L 303.298239 248.357789 
L 303.893862 248.357789 
L 304.489486 249.086231 
L 305.085109 249.086231 
L 305.680733 246.536683 
L 306.276357 249.814673 
L 306.87198 250.543116 
L 307.467604 247.993568 
L 308.063227 246.900905 
L 308.658851 247.993568 
L 309.254474 249.450452 
L 309.850098 247.629347 
L 310.445721 249.814673 
L 311.041345 250.178894 
L 311.636969 248.72201 
L 312.232592 249.086231 
L 312.828216 250.543116 
L 313.423839 249.086231 
L 314.019463 249.450452 
L 314.615086 248.357789 
L 315.21071 248.72201 
L 315.806333 248.72201 
L 316.401957 250.178894 
L 316.997581 249.086231 
L 317.593204 251.635779 
L 318.188828 248.357789 
L 318.784451 247.993568 
L 319.380075 249.086231 
L 319.975698 248.357789 
L 320.571322 247.265126 
L 321.166945 248.357789 
L 321.762569 250.178894 
L 322.358192 248.72201 
L 322.953816 248.72201 
L 323.54944 249.086231 
L 324.145063 250.543116 
L 324.740687 247.993568 
L 325.33631 248.357789 
L 325.931934 249.086231 
L 326.527557 247.265126 
L 327.123181 249.814673 
L 327.718804 249.086231 
L 328.314428 249.086231 
L 328.910052 248.357789 
L 329.505675 248.357789 
L 330.101299 250.907337 
L 330.696922 249.814673 
L 331.292546 247.629347 
L 331.888169 250.178894 
L 333.079416 250.178894 
L 333.67504 252 
L 334.270664 250.543116 
L 334.866287 249.814673 
L 335.461911 247.993568 
L 336.057534 249.450452 
L 336.653158 249.450452 
L 337.248781 250.178894 
L 337.844405 248.72201 
L 338.440028 250.907337 
L 339.035652 249.086231 
L 339.631276 249.086231 
L 340.226899 248.72201 
L 340.822523 248.72201 
L 341.418146 250.178894 
L 342.609393 250.178894 
L 343.205017 248.357789 
L 343.80064 247.993568 
L 344.396264 250.178894 
L 344.991888 247.265126 
L 345.587511 249.450452 
L 346.183135 248.72201 
L 346.778758 249.086231 
L 347.374382 248.72201 
L 347.970005 246.900905 
L 348.565629 248.72201 
L 349.161252 248.72201 
L 349.756876 249.086231 
L 350.3525 249.814673 
L 350.948123 247.629347 
L 351.543747 250.178894 
L 352.13937 247.993568 
L 352.734994 249.450452 
L 353.330617 247.629347 
L 353.926241 250.178894 
L 354.521864 249.814673 
L 355.117488 250.543116 
L 355.713112 250.907337 
L 356.308735 249.450452 
L 356.904359 248.357789 
L 357.499982 249.450452 
L 358.095606 250.178894 
L 358.691229 249.814673 
L 359.882476 248.357789 
L 360.4781 251.271558 
L 361.073724 248.357789 
L 361.669347 250.178894 
L 362.264971 248.357789 
L 362.860594 250.178894 
L 363.456218 249.086231 
L 364.051841 249.450452 
L 364.647465 250.178894 
L 365.243088 249.814673 
L 365.838712 249.814673 
L 366.434336 247.993568 
L 367.029959 248.357789 
L 367.625583 248.357789 
L 368.221206 250.907337 
L 368.81683 247.629347 
L 370.008077 249.814673 
L 370.6037 249.450452 
L 371.199324 249.450452 
L 371.794948 250.543116 
L 372.390571 249.814673 
L 372.986195 249.450452 
L 373.581818 246.536683 
L 373.581818 246.536683 
" clip-path="url(#p487ec6cbdb)" style="fill: none; stroke: #1f77b4; stroke-width: 1.5; stroke-linecap: square"/>
   </g>
   <g id="line2d_26">
    <path d="M 69.218182 226.474435 
L 69.813805 231.674087 
L 70.409429 228.365217 
L 71.005052 243.491478 
L 71.600676 228.365217 
L 72.1963 238.291826 
L 72.791923 232.146783 
L 73.387547 242.073391 
L 73.98317 230.728696 
L 74.578794 239.237217 
L 75.174417 233.092174 
L 75.770041 236.873739 
L 76.365664 226.474435 
L 76.961288 243.491478 
L 77.556912 221.274783 
L 78.152535 243.018783 
L 78.748159 241.128 
L 79.343782 232.146783 
L 79.939406 236.401043 
L 80.535029 241.600696 
L 81.130653 222.220174 
L 81.726276 234.037565 
L 82.3219 227.892522 
L 82.917524 234.982957 
L 83.513147 237.346435 
L 84.108771 235.455652 
L 84.704394 239.237217 
L 85.300018 244.43687 
L 85.895641 236.401043 
L 86.491265 242.073391 
L 87.086888 237.81913 
L 87.682512 235.455652 
L 88.278136 219.856696 
L 88.873759 235.928348 
L 89.469383 235.455652 
L 90.065006 235.455652 
L 90.66063 239.237217 
L 91.256253 241.128 
L 91.851877 233.092174 
L 92.4475 237.346435 
L 93.043124 243.964174 
L 93.638748 235.455652 
L 94.234371 230.728696 
L 94.829995 218.911304 
L 95.425618 221.747478 
L 96.021242 235.928348 
L 96.616865 236.873739 
L 97.212489 237.346435 
L 97.808112 224.110957 
L 98.403736 241.600696 
L 98.99936 231.674087 
L 99.594983 231.201391 
L 100.78623 228.365217 
L 101.381854 225.056348 
L 101.977477 220.802087 
L 102.573101 234.037565 
L 103.168724 232.146783 
L 103.764348 246.800348 
L 104.359972 231.674087 
L 104.955595 233.092174 
L 105.551219 224.583652 
L 106.146842 234.037565 
L 106.742466 223.638261 
L 107.338089 226.474435 
L 107.933713 240.182609 
L 108.529336 236.401043 
L 109.12496 229.310609 
L 109.720584 224.110957 
L 110.316207 236.873739 
L 110.911831 234.037565 
L 111.507454 225.056348 
L 112.103078 233.092174 
L 112.698701 230.728696 
L 113.294325 237.346435 
L 113.889948 238.291826 
L 114.485572 229.783304 
L 115.081196 233.56487 
L 115.676819 226.94713 
L 116.272443 231.674087 
L 116.868066 233.56487 
L 117.46369 243.018783 
L 118.059313 228.365217 
L 118.654937 240.182609 
L 119.25056 227.419826 
L 119.846184 228.365217 
L 120.441808 231.201391 
L 121.633055 228.365217 
L 122.228678 239.709913 
L 122.824302 237.81913 
L 123.419925 237.346435 
L 124.015549 228.837913 
L 124.611172 229.310609 
L 125.206796 236.873739 
L 125.802419 219.856696 
L 126.398043 233.092174 
L 126.993667 234.037565 
L 127.58929 241.128 
L 128.184914 234.037565 
L 128.780537 232.619478 
L 129.376161 233.092174 
L 129.971784 231.201391 
L 130.567408 234.982957 
L 131.163031 226.001739 
L 131.758655 234.037565 
L 132.354279 222.69287 
L 132.949902 238.291826 
L 133.545526 227.419826 
L 134.141149 230.256 
L 134.736773 232.146783 
L 135.332396 238.291826 
L 135.92802 234.982957 
L 136.523643 245.382261 
L 137.714891 221.274783 
L 138.906138 241.600696 
L 139.501761 237.81913 
L 140.097385 229.310609 
L 140.693008 237.81913 
L 141.288632 230.256 
L 141.884255 241.128 
L 142.479879 226.474435 
L 143.075503 231.674087 
L 143.671126 235.455652 
L 144.862373 236.401043 
L 145.457997 227.419826 
L 146.05362 250.109217 
L 146.649244 230.728696 
L 148.436115 238.764522 
L 149.031738 221.274783 
L 149.627362 231.674087 
L 150.222985 236.401043 
L 150.818609 229.310609 
L 151.414232 228.837913 
L 152.009856 235.455652 
L 152.605479 228.365217 
L 153.201103 247.745739 
L 153.796727 249.163826 
L 154.39235 232.619478 
L 154.987974 238.764522 
L 155.583597 237.81913 
L 156.179221 238.291826 
L 156.774844 229.310609 
L 157.370468 236.401043 
L 157.966091 235.455652 
L 158.561715 229.310609 
L 159.157339 235.455652 
L 159.752962 246.327652 
L 160.348586 243.018783 
L 160.944209 232.146783 
L 161.539833 242.073391 
L 162.135456 224.583652 
L 162.73108 233.092174 
L 163.326703 229.783304 
L 163.922327 228.365217 
L 164.517951 236.873739 
L 165.113574 222.69287 
L 165.709198 237.81913 
L 166.304821 217.493217 
L 166.900445 221.747478 
L 167.496068 236.873739 
L 168.091692 226.001739 
L 168.687315 230.256 
L 169.282939 232.146783 
L 169.878563 223.165565 
L 170.474186 228.365217 
L 171.06981 229.310609 
L 172.261057 241.600696 
L 172.85668 226.001739 
L 173.452304 238.764522 
L 174.047927 227.892522 
L 174.643551 243.018783 
L 175.239175 239.237217 
L 175.834798 236.873739 
L 176.430422 230.728696 
L 177.026045 226.001739 
L 177.621669 240.182609 
L 178.217292 233.092174 
L 178.812916 230.256 
L 179.408539 226.001739 
L 180.004163 233.56487 
L 180.599787 233.56487 
L 181.19541 231.674087 
L 181.791034 239.709913 
L 182.386657 239.709913 
L 182.982281 243.964174 
L 183.577904 229.310609 
L 184.173528 224.110957 
L 184.769151 230.256 
L 185.364775 222.69287 
L 185.960399 219.384 
L 186.556022 238.291826 
L 187.151646 228.365217 
L 187.747269 242.073391 
L 188.938516 226.474435 
L 189.53414 236.873739 
L 190.129763 234.037565 
L 190.725387 223.638261 
L 191.32101 237.346435 
L 191.916634 217.493217 
L 192.512258 223.165565 
L 193.107881 239.709913 
L 193.703505 230.256 
L 194.299128 243.964174 
L 194.894752 226.94713 
L 195.490375 245.382261 
L 196.085999 231.674087 
L 196.681622 228.837913 
L 197.277246 230.728696 
L 197.87287 231.674087 
L 199.064117 240.182609 
L 199.65974 235.928348 
L 200.255364 228.365217 
L 200.850987 210.875478 
L 202.042234 232.146783 
L 202.637858 237.346435 
L 203.233482 246.327652 
L 203.829105 227.419826 
L 205.020352 243.018783 
L 205.615976 235.928348 
L 206.211599 223.638261 
L 206.807223 224.110957 
L 207.402846 221.747478 
L 207.99847 237.346435 
L 208.594094 234.982957 
L 209.189717 237.346435 
L 209.785341 229.783304 
L 210.380964 230.256 
L 210.976588 232.146783 
L 211.572211 223.165565 
L 212.167835 234.510261 
L 212.763458 224.583652 
L 213.359082 197.64 
L 214.550329 34.56 
L 215.145953 42.595826 
L 216.3372 178.732174 
L 216.932823 217.020522 
L 217.528447 237.346435 
L 218.12407 218.911304 
L 219.315318 240.182609 
L 219.910941 230.728696 
L 220.506565 240.655304 
L 221.102188 228.365217 
L 221.697812 236.873739 
L 222.293435 238.764522 
L 222.889059 226.001739 
L 223.484682 232.146783 
L 224.080306 221.274783 
L 224.67593 222.220174 
L 225.271553 223.638261 
L 225.867177 243.018783 
L 226.4628 223.165565 
L 227.058424 231.674087 
L 227.654047 236.873739 
L 228.249671 230.728696 
L 228.845294 241.600696 
L 229.440918 240.655304 
L 230.036542 229.783304 
L 230.632165 229.783304 
L 231.227789 243.018783 
L 231.823412 223.165565 
L 232.419036 233.092174 
L 233.014659 230.256 
L 233.610283 239.709913 
L 234.205906 235.928348 
L 234.80153 227.892522 
L 235.397154 228.837913 
L 235.992777 237.81913 
L 236.588401 240.655304 
L 237.184024 232.146783 
L 237.779648 245.382261 
L 239.566518 220.802087 
L 240.162142 226.94713 
L 240.757766 223.165565 
L 241.353389 229.783304 
L 241.949013 233.56487 
L 242.544636 223.165565 
L 243.14026 244.43687 
L 243.735883 236.401043 
L 244.331507 233.092174 
L 244.92713 226.474435 
L 245.522754 233.56487 
L 246.118378 238.764522 
L 246.714001 221.274783 
L 247.309625 235.928348 
L 247.905248 234.982957 
L 248.500872 230.728696 
L 249.096495 232.146783 
L 249.692119 236.401043 
L 250.287742 222.220174 
L 250.883366 230.256 
L 251.47899 218.438609 
L 252.074613 248.69113 
L 252.670237 233.56487 
L 253.26586 223.638261 
L 253.861484 236.401043 
L 254.457107 218.911304 
L 255.052731 237.81913 
L 255.648354 223.638261 
L 256.243978 231.201391 
L 256.839601 233.092174 
L 257.435225 228.837913 
L 258.626472 238.764522 
L 259.222096 227.419826 
L 259.817719 243.491478 
L 260.413343 230.256 
L 261.008966 231.201391 
L 261.60459 236.873739 
L 262.200213 235.928348 
L 262.795837 240.655304 
L 263.391461 234.037565 
L 263.987084 223.165565 
L 264.582708 243.964174 
L 265.178331 216.547826 
L 265.773955 223.638261 
L 266.369578 232.146783 
L 266.965202 227.892522 
L 267.560825 239.237217 
L 268.156449 231.201391 
L 268.752073 238.291826 
L 269.347696 221.747478 
L 269.94332 230.256 
L 270.538943 232.619478 
L 271.134567 237.81913 
L 271.73019 228.837913 
L 272.325814 249.636522 
L 272.921437 225.529043 
L 273.517061 235.455652 
L 274.112685 242.073391 
L 274.708308 240.655304 
L 275.303932 231.201391 
L 275.899555 224.110957 
L 276.495179 243.964174 
L 277.090802 246.327652 
L 277.686426 231.201391 
L 278.282049 238.291826 
L 278.877673 223.638261 
L 279.473297 224.583652 
L 280.06892 229.310609 
L 280.664544 243.964174 
L 281.260167 221.274783 
L 281.855791 236.873739 
L 282.451414 230.728696 
L 283.047038 219.384 
L 283.642661 232.146783 
L 284.238285 238.764522 
L 284.833909 234.982957 
L 285.429532 224.583652 
L 286.025156 235.928348 
L 286.620779 231.201391 
L 287.216403 230.256 
L 287.812026 236.873739 
L 288.40765 244.909565 
L 289.003273 244.43687 
L 289.598897 239.237217 
L 290.194521 218.438609 
L 291.385768 232.619478 
L 291.981391 232.619478 
L 292.577015 227.419826 
L 293.172638 231.201391 
L 293.768262 231.201391 
L 294.363885 228.365217 
L 294.959509 227.892522 
L 295.555133 232.619478 
L 296.150756 219.384 
L 296.74638 229.783304 
L 297.342003 234.037565 
L 297.937627 233.092174 
L 298.53325 234.982957 
L 299.128874 231.201391 
L 299.724497 242.073391 
L 300.320121 225.529043 
L 300.915745 236.401043 
L 301.511368 226.001739 
L 302.106992 245.382261 
L 302.702615 235.455652 
L 303.298239 232.146783 
L 303.893862 234.982957 
L 304.489486 232.146783 
L 305.085109 236.401043 
L 305.680733 226.001739 
L 306.276357 237.346435 
L 306.87198 232.619478 
L 307.467604 231.201391 
L 308.063227 228.365217 
L 308.658851 242.073391 
L 309.254474 239.237217 
L 309.850098 224.583652 
L 310.445721 247.273043 
L 311.041345 232.619478 
L 311.636969 236.401043 
L 312.232592 228.365217 
L 312.828216 230.256 
L 313.423839 225.529043 
L 314.019463 225.529043 
L 314.615086 231.201391 
L 315.21071 238.764522 
L 315.806333 233.092174 
L 316.401957 232.619478 
L 316.997581 231.201391 
L 317.593204 241.600696 
L 318.188828 216.547826 
L 318.784451 237.81913 
L 319.380075 230.728696 
L 319.975698 233.092174 
L 320.571322 230.728696 
L 321.166945 227.892522 
L 321.762569 231.201391 
L 322.358192 233.56487 
L 322.953816 230.256 
L 323.54944 231.674087 
L 324.145063 239.237217 
L 324.740687 238.764522 
L 325.33631 237.81913 
L 325.931934 231.201391 
L 326.527557 243.491478 
L 327.123181 231.674087 
L 327.718804 241.128 
L 328.314428 244.909565 
L 328.910052 230.728696 
L 329.505675 224.583652 
L 330.101299 224.583652 
L 330.696922 233.56487 
L 331.292546 226.94713 
L 331.888169 233.092174 
L 332.483793 234.037565 
L 333.079416 239.709913 
L 333.67504 232.146783 
L 334.270664 230.256 
L 334.866287 230.728696 
L 335.461911 239.709913 
L 336.057534 241.600696 
L 336.653158 236.401043 
L 337.248781 223.165565 
L 337.844405 238.764522 
L 338.440028 240.182609 
L 339.035652 223.638261 
L 339.631276 244.909565 
L 340.226899 233.56487 
L 340.822523 237.346435 
L 341.418146 232.619478 
L 342.01377 233.56487 
L 343.205017 237.346435 
L 343.80064 223.165565 
L 344.396264 252 
L 344.991888 238.764522 
L 345.587511 234.982957 
L 346.183135 235.928348 
L 346.778758 234.982957 
L 347.374382 239.237217 
L 347.970005 221.274783 
L 348.565629 229.783304 
L 349.161252 234.510261 
L 349.756876 232.146783 
L 350.3525 239.237217 
L 350.948123 226.94713 
L 351.543747 235.928348 
L 352.13937 238.291826 
L 352.734994 234.982957 
L 353.330617 219.384 
L 353.926241 234.037565 
L 354.521864 237.346435 
L 355.117488 226.474435 
L 355.713112 235.928348 
L 356.308735 233.092174 
L 356.904359 226.001739 
L 357.499982 240.655304 
L 358.095606 227.419826 
L 358.691229 239.237217 
L 359.286853 232.619478 
L 359.882476 234.982957 
L 360.4781 229.310609 
L 361.073724 231.201391 
L 361.669347 236.873739 
L 362.264971 240.655304 
L 362.860594 238.291826 
L 363.456218 222.220174 
L 364.051841 241.128 
L 364.647465 230.728696 
L 365.243088 229.310609 
L 365.838712 243.018783 
L 366.434336 224.110957 
L 367.029959 234.982957 
L 367.625583 237.81913 
L 368.221206 227.892522 
L 368.81683 226.474435 
L 369.412453 232.619478 
L 370.008077 234.982957 
L 370.6037 220.802087 
L 371.199324 236.401043 
L 371.794948 229.310609 
L 372.390571 240.655304 
L 372.986195 236.873739 
L 373.581818 225.056348 
L 373.581818 225.056348 
" clip-path="url(#p487ec6cbdb)" style="fill: none; stroke: #ff7f0e; stroke-width: 1.5; stroke-linecap: square"/>
   </g>
   <g id="line2d_27">
    <path d="M 69.218182 232.057278 
L 69.813805 228.84071 
L 71.005052 233.987219 
L 71.600676 223.694201 
L 72.1963 236.560473 
L 73.387547 221.76426 
L 73.98317 228.84071 
L 74.578794 224.980828 
L 75.174417 226.267456 
L 75.770041 228.84071 
L 76.365664 217.261065 
L 77.556912 232.700592 
L 78.152535 229.484024 
L 78.748159 233.343905 
L 79.343782 212.75787 
L 79.939406 231.413964 
L 80.535029 218.547692 
L 81.130653 236.560473 
L 81.726276 242.993609 
L 82.3219 217.261065 
L 82.917524 218.547692 
L 83.513147 225.624142 
L 84.108771 219.191006 
L 84.704394 234.630533 
L 85.300018 237.203787 
L 85.895641 228.197396 
L 86.491265 233.987219 
L 87.086888 235.91716 
L 87.682512 233.987219 
L 88.278136 233.343905 
L 88.873759 236.560473 
L 89.469383 235.273846 
L 90.065006 232.057278 
L 90.66063 224.337515 
L 91.256253 226.910769 
L 91.851877 232.700592 
L 92.4475 239.777041 
L 93.043124 233.343905 
L 93.638748 223.694201 
L 94.234371 237.847101 
L 95.425618 221.76426 
L 96.021242 234.630533 
L 96.616865 234.630533 
L 97.212489 221.76426 
L 97.808112 236.560473 
L 98.403736 241.063669 
L 98.99936 225.624142 
L 99.594983 234.630533 
L 100.190607 229.484024 
L 100.78623 238.490414 
L 101.381854 226.910769 
L 101.977477 242.350296 
L 102.573101 228.84071 
L 103.168724 232.057278 
L 103.764348 234.630533 
L 104.359972 233.987219 
L 104.955595 223.050888 
L 105.551219 219.191006 
L 106.146842 237.203787 
L 106.742466 223.694201 
L 107.338089 231.413964 
L 107.933713 233.987219 
L 108.529336 235.91716 
L 109.12496 219.191006 
L 110.316207 235.273846 
L 110.911831 239.777041 
L 111.507454 228.197396 
L 112.103078 228.197396 
L 112.698701 223.694201 
L 113.294325 234.630533 
L 113.889948 239.133728 
L 114.485572 224.980828 
L 115.081196 230.127337 
L 115.676819 223.694201 
L 116.272443 232.700592 
L 117.46369 226.267456 
L 118.059313 240.420355 
L 118.654937 228.197396 
L 119.25056 221.120947 
L 119.846184 223.050888 
L 120.441808 237.203787 
L 121.037431 241.063669 
L 121.633055 220.477633 
L 122.228678 222.407574 
L 122.824302 226.267456 
L 123.419925 233.987219 
L 124.015549 235.273846 
L 124.611172 241.063669 
L 125.206796 236.560473 
L 125.802419 226.910769 
L 126.398043 228.84071 
L 126.993667 233.987219 
L 127.58929 223.694201 
L 128.184914 230.127337 
L 128.780537 230.770651 
L 129.376161 224.337515 
L 129.971784 234.630533 
L 130.567408 238.490414 
L 131.163031 234.630533 
L 131.758655 239.777041 
L 132.354279 228.197396 
L 132.949902 223.694201 
L 133.545526 222.407574 
L 134.141149 221.76426 
L 134.736773 228.84071 
L 135.332396 243.636923 
L 135.92802 244.92355 
L 136.523643 218.547692 
L 137.119267 219.83432 
L 137.714891 225.624142 
L 138.310514 236.560473 
L 138.906138 221.120947 
L 139.501761 235.91716 
L 140.097385 235.91716 
L 141.288632 226.267456 
L 141.884255 245.566864 
L 142.479879 233.343905 
L 143.075503 232.700592 
L 143.671126 231.413964 
L 144.26675 220.477633 
L 144.862373 232.057278 
L 145.457997 241.063669 
L 146.05362 228.197396 
L 146.649244 225.624142 
L 147.244867 228.84071 
L 147.840491 230.127337 
L 148.436115 224.337515 
L 149.031738 233.343905 
L 149.627362 226.267456 
L 150.222985 230.127337 
L 150.818609 231.413964 
L 151.414232 235.91716 
L 152.009856 226.910769 
L 152.605479 229.484024 
L 153.201103 225.624142 
L 153.796727 239.777041 
L 154.987974 207.611361 
L 155.583597 228.84071 
L 156.179221 228.197396 
L 156.774844 230.127337 
L 157.370468 225.624142 
L 157.966091 234.630533 
L 158.561715 230.770651 
L 159.157339 237.847101 
L 159.752962 234.630533 
L 160.348586 230.770651 
L 160.944209 217.904379 
L 161.539833 213.401183 
L 162.135456 228.197396 
L 162.73108 238.490414 
L 163.326703 221.120947 
L 163.922327 240.420355 
L 164.517951 230.770651 
L 165.113574 232.700592 
L 165.709198 223.694201 
L 166.304821 226.267456 
L 166.900445 224.980828 
L 167.496068 212.75787 
L 168.091692 222.407574 
L 168.687315 226.267456 
L 169.282939 243.636923 
L 169.878563 237.203787 
L 170.474186 224.980828 
L 171.06981 230.127337 
L 171.665433 214.687811 
L 172.261057 215.974438 
L 172.85668 230.127337 
L 173.452304 228.197396 
L 174.047927 241.063669 
L 174.643551 229.484024 
L 175.239175 232.700592 
L 175.834798 228.84071 
L 176.430422 237.847101 
L 177.026045 232.057278 
L 177.621669 252 
L 178.217292 228.84071 
L 178.812916 236.560473 
L 179.408539 233.343905 
L 180.004163 234.630533 
L 180.599787 239.133728 
L 181.19541 224.980828 
L 181.791034 233.987219 
L 182.386657 222.407574 
L 182.982281 226.267456 
L 183.577904 233.987219 
L 184.173528 244.92355 
L 184.769151 226.910769 
L 185.364775 229.484024 
L 185.960399 231.413964 
L 186.556022 234.630533 
L 187.151646 232.057278 
L 187.747269 233.343905 
L 188.342893 244.92355 
L 188.938516 219.83432 
L 189.53414 219.191006 
L 190.129763 228.197396 
L 190.725387 234.630533 
L 191.32101 202.464852 
L 191.916634 151.643077 
L 192.512258 64.152426 
L 193.107881 34.56 
L 193.703505 90.528284 
L 194.299128 161.936095 
L 194.894752 216.617751 
L 195.490375 228.197396 
L 196.085999 231.413964 
L 196.681622 223.050888 
L 197.277246 226.910769 
L 197.87287 239.777041 
L 198.468493 234.630533 
L 199.064117 237.203787 
L 199.65974 214.687811 
L 200.255364 223.694201 
L 200.850987 223.050888 
L 201.446611 230.770651 
L 202.042234 221.120947 
L 202.637858 233.343905 
L 203.233482 240.420355 
L 203.829105 219.83432 
L 204.424729 235.273846 
L 205.020352 229.484024 
L 205.615976 230.770651 
L 206.211599 235.273846 
L 206.807223 232.700592 
L 207.402846 235.91716 
L 207.99847 235.91716 
L 208.594094 223.694201 
L 209.189717 241.063669 
L 209.785341 228.197396 
L 210.380964 223.694201 
L 210.976588 226.910769 
L 211.572211 222.407574 
L 212.167835 232.700592 
L 212.763458 229.484024 
L 213.359082 239.133728 
L 213.954706 230.127337 
L 214.550329 224.980828 
L 215.145953 223.694201 
L 216.3372 235.91716 
L 216.932823 217.261065 
L 217.528447 233.343905 
L 218.12407 228.84071 
L 218.719694 226.267456 
L 219.315318 231.413964 
L 219.910941 245.566864 
L 220.506565 229.484024 
L 221.102188 235.273846 
L 221.697812 228.84071 
L 222.293435 235.273846 
L 222.889059 233.343905 
L 223.484682 230.127337 
L 224.080306 233.343905 
L 224.67593 217.904379 
L 225.271553 235.91716 
L 225.867177 229.484024 
L 226.4628 221.120947 
L 227.654047 245.566864 
L 228.249671 246.853491 
L 228.845294 225.624142 
L 229.440918 219.191006 
L 230.036542 242.350296 
L 230.632165 224.980828 
L 231.227789 224.337515 
L 231.823412 219.83432 
L 232.419036 223.694201 
L 233.014659 222.407574 
L 233.610283 232.057278 
L 234.205906 239.133728 
L 234.80153 217.261065 
L 235.992777 239.777041 
L 236.588401 237.203787 
L 237.184024 230.127337 
L 237.779648 216.617751 
L 238.375271 228.84071 
L 238.970895 227.554083 
L 240.162142 235.91716 
L 240.757766 242.350296 
L 241.353389 218.547692 
L 241.949013 225.624142 
L 242.544636 226.267456 
L 243.14026 225.624142 
L 243.735883 216.617751 
L 244.331507 219.191006 
L 244.92713 230.770651 
L 245.522754 235.273846 
L 246.118378 228.197396 
L 246.714001 228.84071 
L 247.309625 224.337515 
L 247.905248 228.84071 
L 248.500872 232.057278 
L 249.096495 236.560473 
L 249.692119 220.477633 
L 250.883366 230.770651 
L 251.47899 229.484024 
L 252.074613 232.700592 
L 252.670237 215.974438 
L 253.861484 237.203787 
L 254.457107 251.356686 
L 255.052731 228.197396 
L 255.648354 235.91716 
L 256.243978 239.133728 
L 256.839601 241.063669 
L 257.435225 226.910769 
L 258.030849 230.127337 
L 258.626472 218.547692 
L 259.222096 240.420355 
L 259.817719 232.057278 
L 260.413343 234.630533 
L 261.008966 230.770651 
L 261.60459 231.413964 
L 262.200213 214.044497 
L 263.391461 241.706982 
L 263.987084 233.343905 
L 264.582708 232.700592 
L 265.178331 210.827929 
L 265.773955 235.273846 
L 266.369578 228.197396 
L 266.965202 226.267456 
L 267.560825 230.127337 
L 268.156449 229.484024 
L 268.752073 236.560473 
L 269.347696 233.987219 
L 269.94332 244.280237 
L 270.538943 229.484024 
L 271.134567 223.050888 
L 271.73019 230.127337 
L 272.325814 230.127337 
L 272.921437 247.496805 
L 273.517061 232.057278 
L 274.112685 224.337515 
L 274.708308 223.694201 
L 275.303932 221.76426 
L 275.899555 213.401183 
L 276.495179 228.84071 
L 277.090802 230.770651 
L 277.686426 226.910769 
L 278.282049 228.84071 
L 278.877673 240.420355 
L 279.473297 232.057278 
L 280.06892 234.630533 
L 280.664544 231.413964 
L 281.260167 232.057278 
L 281.855791 231.413964 
L 282.451414 229.484024 
L 283.047038 224.337515 
L 283.642661 237.847101 
L 284.238285 232.057278 
L 284.833909 207.611361 
L 285.429532 231.413964 
L 286.025156 228.197396 
L 286.620779 229.484024 
L 287.216403 219.191006 
L 287.812026 230.770651 
L 288.40765 239.133728 
L 289.003273 230.127337 
L 289.598897 236.560473 
L 290.194521 224.980828 
L 290.790144 231.413964 
L 291.385768 227.554083 
L 291.981391 225.624142 
L 292.577015 233.987219 
L 293.172638 215.974438 
L 293.768262 230.127337 
L 294.363885 232.700592 
L 294.959509 238.490414 
L 295.555133 236.560473 
L 296.150756 232.700592 
L 296.74638 230.127337 
L 297.342003 235.273846 
L 297.937627 229.484024 
L 298.53325 229.484024 
L 299.128874 237.203787 
L 299.724497 226.910769 
L 300.320121 237.203787 
L 300.915745 229.484024 
L 301.511368 237.847101 
L 302.106992 223.694201 
L 302.702615 226.910769 
L 303.298239 235.91716 
L 303.893862 234.630533 
L 304.489486 227.554083 
L 305.085109 226.267456 
L 306.276357 235.91716 
L 306.87198 223.050888 
L 307.467604 226.267456 
L 308.063227 235.91716 
L 308.658851 228.84071 
L 309.254474 226.267456 
L 309.850098 231.413964 
L 310.445721 223.694201 
L 311.041345 226.910769 
L 311.636969 227.554083 
L 312.232592 215.974438 
L 313.423839 228.84071 
L 314.019463 235.273846 
L 314.615086 221.76426 
L 315.21071 224.337515 
L 315.806333 224.980828 
L 316.401957 235.273846 
L 316.997581 238.490414 
L 317.593204 246.210178 
L 318.188828 225.624142 
L 318.784451 208.897988 
L 319.380075 219.83432 
L 319.975698 221.120947 
L 320.571322 226.267456 
L 321.166945 227.554083 
L 321.762569 218.547692 
L 322.358192 232.700592 
L 322.953816 231.413964 
L 323.54944 218.547692 
L 324.145063 235.91716 
L 324.740687 220.477633 
L 325.33631 236.560473 
L 325.931934 219.191006 
L 326.527557 232.057278 
L 327.123181 225.624142 
L 327.718804 226.267456 
L 328.314428 232.057278 
L 328.910052 216.617751 
L 329.505675 231.413964 
L 330.101299 239.777041 
L 330.696922 225.624142 
L 331.292546 225.624142 
L 331.888169 229.484024 
L 332.483793 219.83432 
L 333.079416 224.337515 
L 333.67504 222.407574 
L 334.270664 225.624142 
L 335.461911 247.496805 
L 336.057534 226.267456 
L 336.653158 225.624142 
L 337.248781 232.057278 
L 337.844405 222.407574 
L 338.440028 230.770651 
L 339.035652 241.706982 
L 340.226899 220.477633 
L 340.822523 226.267456 
L 341.418146 215.331124 
L 342.01377 238.490414 
L 342.609393 226.267456 
L 343.205017 226.910769 
L 343.80064 238.490414 
L 344.396264 228.84071 
L 344.991888 234.630533 
L 345.587511 221.76426 
L 346.183135 228.197396 
L 346.778758 237.847101 
L 347.374382 242.993609 
L 347.970005 242.350296 
L 348.565629 233.343905 
L 349.161252 239.777041 
L 349.756876 230.127337 
L 350.3525 222.407574 
L 350.948123 223.050888 
L 351.543747 236.560473 
L 352.13937 238.490414 
L 352.734994 227.554083 
L 353.330617 237.847101 
L 353.926241 225.624142 
L 354.521864 235.273846 
L 355.117488 234.630533 
L 355.713112 230.127337 
L 356.308735 223.694201 
L 356.904359 241.706982 
L 357.499982 232.700592 
L 358.095606 231.413964 
L 358.691229 234.630533 
L 359.286853 233.343905 
L 359.882476 221.76426 
L 360.4781 212.75787 
L 361.073724 232.057278 
L 361.669347 228.84071 
L 362.264971 232.700592 
L 362.860594 228.197396 
L 363.456218 229.484024 
L 364.051841 227.554083 
L 364.647465 221.120947 
L 365.243088 233.987219 
L 365.838712 216.617751 
L 366.434336 221.120947 
L 367.029959 233.343905 
L 367.625583 223.694201 
L 368.221206 220.477633 
L 368.81683 233.343905 
L 369.412453 226.910769 
L 370.008077 233.343905 
L 370.6037 229.484024 
L 371.199324 221.120947 
L 371.794948 242.993609 
L 372.390571 230.127337 
L 372.986195 244.92355 
L 373.581818 238.490414 
L 373.581818 238.490414 
" clip-path="url(#p487ec6cbdb)" style="fill: none; stroke: #2ca02c; stroke-width: 1.5; stroke-linecap: square"/>
   </g>
   <g id="patch_3">
    <path d="M 54 252 
L 54 34.56 
" style="fill: none; stroke: #000000; stroke-width: 0.8; stroke-linejoin: miter; stroke-linecap: square"/>
   </g>
   <g id="patch_4">
    <path d="M 388.8 252 
L 388.8 34.56 
" style="fill: none; stroke: #000000; stroke-width: 0.8; stroke-linejoin: miter; stroke-linecap: square"/>
   </g>
   <g id="patch_5">
    <path d="M 54 252 
L 388.8 252 
" style="fill: none; stroke: #000000; stroke-width: 0.8; stroke-linejoin: miter; stroke-linecap: square"/>
   </g>
   <g id="patch_6">
    <path d="M 54 34.56 
L 388.8 34.56 
" style="fill: none; stroke: #000000; stroke-width: 0.8; stroke-linejoin: miter; stroke-linecap: square"/>
   </g>
   <g id="text_15">
    <!-- Label 16 normalized -->
    <g transform="translate(160.423125 28.56)scale(0.12 -0.12)">
     <defs>
      <path id="DejaVuSans-4c" d="M 628 4666 
L 1259 4666 
L 1259 531 
L 3531 531 
L 3531 0 
L 628 0 
L 628 4666 
z
" transform="scale(0.015625)"/>
      <path id="DejaVuSans-61" d="M 2194 1759 
Q 1497 1759 1228 1600 
Q 959 1441 959 1056 
Q 959 750 1161 570 
Q 1363 391 1709 391 
Q 2188 391 2477 730 
Q 2766 1069 2766 1631 
L 2766 1759 
L 2194 1759 
z
M 3341 1997 
L 3341 0 
L 2766 0 
L 2766 531 
Q 2569 213 2275 61 
Q 1981 -91 1556 -91 
Q 1019 -91 701 211 
Q 384 513 384 1019 
Q 384 1609 779 1909 
Q 1175 2209 1959 2209 
L 2766 2209 
L 2766 2266 
Q 2766 2663 2505 2880 
Q 2244 3097 1772 3097 
Q 1472 3097 1187 3025 
Q 903 2953 641 2809 
L 641 3341 
Q 956 3463 1253 3523 
Q 1550 3584 1831 3584 
Q 2591 3584 2966 3190 
Q 3341 2797 3341 1997 
z
" transform="scale(0.015625)"/>
      <path id="DejaVuSans-65" d="M 3597 1894 
L 3597 1613 
L 953 1613 
Q 991 1019 1311 708 
Q 1631 397 2203 397 
Q 2534 397 2845 478 
Q 3156 559 3463 722 
L 3463 178 
Q 3153 47 2828 -22 
Q 2503 -91 2169 -91 
Q 1331 -91 842 396 
Q 353 884 353 1716 
Q 353 2575 817 3079 
Q 1281 3584 2069 3584 
Q 2775 3584 3186 3129 
Q 3597 2675 3597 1894 
z
M 3022 2063 
Q 3016 2534 2758 2815 
Q 2500 3097 2075 3097 
Q 1594 3097 1305 2825 
Q 1016 2553 972 2059 
L 3022 2063 
z
" transform="scale(0.015625)"/>
      <path id="DejaVuSans-6c" d="M 603 4863 
L 1178 4863 
L 1178 0 
L 603 0 
L 603 4863 
z
" transform="scale(0.015625)"/>
      <path id="DejaVuSans-20" transform="scale(0.015625)"/>
      <path id="DejaVuSans-72" d="M 2631 2963 
Q 2534 3019 2420 3045 
Q 2306 3072 2169 3072 
Q 1681 3072 1420 2755 
Q 1159 2438 1159 1844 
L 1159 0 
L 581 0 
L 581 3500 
L 1159 3500 
L 1159 2956 
Q 1341 3275 1631 3429 
Q 1922 3584 2338 3584 
Q 2397 3584 2469 3576 
Q 2541 3569 2628 3553 
L 2631 2963 
z
" transform="scale(0.015625)"/>
      <path id="DejaVuSans-6d" d="M 3328 2828 
Q 3544 3216 3844 3400 
Q 4144 3584 4550 3584 
Q 5097 3584 5394 3201 
Q 5691 2819 5691 2113 
L 5691 0 
L 5113 0 
L 5113 2094 
Q 5113 2597 4934 2840 
Q 4756 3084 4391 3084 
Q 3944 3084 3684 2787 
Q 3425 2491 3425 1978 
L 3425 0 
L 2847 0 
L 2847 2094 
Q 2847 2600 2669 2842 
Q 2491 3084 2119 3084 
Q 1678 3084 1418 2786 
Q 1159 2488 1159 1978 
L 1159 0 
L 581 0 
L 581 3500 
L 1159 3500 
L 1159 2956 
Q 1356 3278 1631 3431 
Q 1906 3584 2284 3584 
Q 2666 3584 2933 3390 
Q 3200 3197 3328 2828 
z
" transform="scale(0.015625)"/>
      <path id="DejaVuSans-7a" d="M 353 3500 
L 3084 3500 
L 3084 2975 
L 922 459 
L 3084 459 
L 3084 0 
L 275 0 
L 275 525 
L 2438 3041 
L 353 3041 
L 353 3500 
z
" transform="scale(0.015625)"/>
      <path id="DejaVuSans-64" d="M 2906 2969 
L 2906 4863 
L 3481 4863 
L 3481 0 
L 2906 0 
L 2906 525 
Q 2725 213 2448 61 
Q 2172 -91 1784 -91 
Q 1150 -91 751 415 
Q 353 922 353 1747 
Q 353 2572 751 3078 
Q 1150 3584 1784 3584 
Q 2172 3584 2448 3432 
Q 2725 3281 2906 2969 
z
M 947 1747 
Q 947 1113 1208 752 
Q 1469 391 1925 391 
Q 2381 391 2643 752 
Q 2906 1113 2906 1747 
Q 2906 2381 2643 2742 
Q 2381 3103 1925 3103 
Q 1469 3103 1208 2742 
Q 947 2381 947 1747 
z
" transform="scale(0.015625)"/>
     </defs>
     <use xlink:href="#DejaVuSans-4c"/>
     <use xlink:href="#DejaVuSans-61" x="55.712891"/>
     <use xlink:href="#DejaVuSans-62" x="116.992188"/>
     <use xlink:href="#DejaVuSans-65" x="180.46875"/>
     <use xlink:href="#DejaVuSans-6c" x="241.992188"/>
     <use xlink:href="#DejaVuSans-20" x="269.775391"/>
     <use xlink:href="#DejaVuSans-31" x="301.5625"/>
     <use xlink:href="#DejaVuSans-36" x="365.185547"/>
     <use xlink:href="#DejaVuSans-20" x="428.808594"/>
     <use xlink:href="#DejaVuSans-6e" x="460.595703"/>
     <use xlink:href="#DejaVuSans-6f" x="523.974609"/>
     <use xlink:href="#DejaVuSans-72" x="585.15625"/>
     <use xlink:href="#DejaVuSans-6d" x="624.519531"/>
     <use xlink:href="#DejaVuSans-61" x="721.931641"/>
     <use xlink:href="#DejaVuSans-6c" x="783.210938"/>
     <use xlink:href="#DejaVuSans-69" x="810.994141"/>
     <use xlink:href="#DejaVuSans-7a" x="838.777344"/>
     <use xlink:href="#DejaVuSans-65" x="891.267578"/>
     <use xlink:href="#DejaVuSans-64" x="952.791016"/>
    </g>
   </g>
   <g id="legend_1">
    <g id="patch_7">
     <path d="M 309.070312 101.2725 
L 381.8 101.2725 
Q 383.8 101.2725 383.8 99.2725 
L 383.8 41.56 
Q 383.8 39.56 381.8 39.56 
L 309.070312 39.56 
Q 307.070312 39.56 307.070312 41.56 
L 307.070312 99.2725 
Q 307.070312 101.2725 309.070312 101.2725 
z
" style="fill: #ffffff; opacity: 0.8; stroke: #cccccc; stroke-linejoin: miter"/>
    </g>
    <g id="text_16">
     <!-- Trace number -->
     <g transform="translate(311.070312 51.158437)scale(0.1 -0.1)">
      <defs>
       <path id="DejaVuSans-54" d="M -19 4666 
L 3928 4666 
L 3928 4134 
L 2272 4134 
L 2272 0 
L 1638 0 
L 1638 4134 
L -19 4134 
L -19 4666 
z
" transform="scale(0.015625)"/>
      </defs>
      <use xlink:href="#DejaVuSans-54"/>
      <use xlink:href="#DejaVuSans-72" x="46.333984"/>
      <use xlink:href="#DejaVuSans-61" x="87.447266"/>
      <use xlink:href="#DejaVuSans-63" x="148.726562"/>
      <use xlink:href="#DejaVuSans-65" x="203.707031"/>
      <use xlink:href="#DejaVuSans-20" x="265.230469"/>
      <use xlink:href="#DejaVuSans-6e" x="297.017578"/>
      <use xlink:href="#DejaVuSans-75" x="360.396484"/>
      <use xlink:href="#DejaVuSans-6d" x="423.775391"/>
      <use xlink:href="#DejaVuSans-62" x="521.1875"/>
      <use xlink:href="#DejaVuSans-65" x="584.664062"/>
      <use xlink:href="#DejaVuSans-72" x="646.1875"/>
     </g>
    </g>
    <g id="line2d_28">
     <path d="M 325.072656 62.336562 
L 335.072656 62.336562 
L 345.072656 62.336562 
" style="fill: none; stroke: #1f77b4; stroke-width: 1.5; stroke-linecap: square"/>
    </g>
    <g id="text_17">
     <!-- 11 -->
     <g transform="translate(353.072656 65.836562)scale(0.1 -0.1)">
      <use xlink:href="#DejaVuSans-31"/>
      <use xlink:href="#DejaVuSans-31" x="63.623047"/>
     </g>
    </g>
    <g id="line2d_29">
     <path d="M 325.072656 77.014687 
L 335.072656 77.014687 
L 345.072656 77.014687 
" style="fill: none; stroke: #ff7f0e; stroke-width: 1.5; stroke-linecap: square"/>
    </g>
    <g id="text_18">
     <!-- 13 -->
     <g transform="translate(353.072656 80.514687)scale(0.1 -0.1)">
      <use xlink:href="#DejaVuSans-31"/>
      <use xlink:href="#DejaVuSans-33" x="63.623047"/>
     </g>
    </g>
    <g id="line2d_30">
     <path d="M 325.072656 91.692813 
L 335.072656 91.692813 
L 345.072656 91.692813 
" style="fill: none; stroke: #2ca02c; stroke-width: 1.5; stroke-linecap: square"/>
    </g>
    <g id="text_19">
     <!-- 29 -->
     <g transform="translate(353.072656 95.192813)scale(0.1 -0.1)">
      <defs>
       <path id="DejaVuSans-39" d="M 703 97 
L 703 672 
Q 941 559 1184 500 
Q 1428 441 1663 441 
Q 2288 441 2617 861 
Q 2947 1281 2994 2138 
Q 2813 1869 2534 1725 
Q 2256 1581 1919 1581 
Q 1219 1581 811 2004 
Q 403 2428 403 3163 
Q 403 3881 828 4315 
Q 1253 4750 1959 4750 
Q 2769 4750 3195 4129 
Q 3622 3509 3622 2328 
Q 3622 1225 3098 567 
Q 2575 -91 1691 -91 
Q 1453 -91 1209 -44 
Q 966 3 703 97 
z
M 1959 2075 
Q 2384 2075 2632 2365 
Q 2881 2656 2881 3163 
Q 2881 3666 2632 3958 
Q 2384 4250 1959 4250 
Q 1534 4250 1286 3958 
Q 1038 3666 1038 3163 
Q 1038 2656 1286 2365 
Q 1534 2075 1959 2075 
z
" transform="scale(0.015625)"/>
      </defs>
      <use xlink:href="#DejaVuSans-32"/>
      <use xlink:href="#DejaVuSans-39" x="63.623047"/>
     </g>
    </g>
   </g>
  </g>
 </g>
 <defs>
  <clipPath id="p487ec6cbdb">
   <rect x="54" y="34.56" width="334.8" height="217.44"/>
  </clipPath>
 </defs>
</svg>
