<?xml version="1.0" encoding="utf-8" standalone="no"?>
<!DOCTYPE svg PUBLIC "-//W3C//DTD SVG 1.1//EN"
  "http://www.w3.org/Graphics/SVG/1.1/DTD/svg11.dtd">
<svg xmlns:xlink="http://www.w3.org/1999/xlink" width="432pt" height="288pt" viewBox="0 0 432 288" xmlns="http://www.w3.org/2000/svg" version="1.1">
 <metadata>
  <rdf:RDF xmlns:dc="http://purl.org/dc/elements/1.1/" xmlns:cc="http://creativecommons.org/ns#" xmlns:rdf="http://www.w3.org/1999/02/22-rdf-syntax-ns#">
   <cc:Work>
    <dc:type rdf:resource="http://purl.org/dc/dcmitype/StillImage"/>
    <dc:date>2022-03-30T13:16:46.149250</dc:date>
    <dc:format>image/svg+xml</dc:format>
    <dc:creator>
     <cc:Agent>
      <dc:title>Matplotlib v3.5.1, https://matplotlib.org/</dc:title>
     </cc:Agent>
    </dc:creator>
   </cc:Work>
  </rdf:RDF>
 </metadata>
 <defs>
  <style type="text/css">*{stroke-linejoin: round; stroke-linecap: butt}</style>
 </defs>
 <g id="figure_1">
  <g id="patch_1">
   <path d="M 0 288 
L 432 288 
L 432 0 
L 0 0 
z
" style="fill: #ffffff"/>
  </g>
  <g id="axes_1">
   <g id="patch_2">
    <path d="M 54 252 
L 388.8 252 
L 388.8 34.56 
L 54 34.56 
z
" style="fill: #ffffff"/>
   </g>
   <g id="matplotlib.axis_1">
    <g id="xtick_1">
     <g id="line2d_1">
      <path d="M 69.218182 252 
L 69.218182 34.56 
" clip-path="url(#p8a0ef383c4)" style="fill: none; stroke: #b0b0b0; stroke-width: 0.8; stroke-linecap: square"/>
     </g>
     <g id="line2d_2">
      <defs>
       <path id="m68f22be206" d="M 0 0 
L 0 3.5 
" style="stroke: #000000; stroke-width: 0.8"/>
      </defs>
      <g>
       <use xlink:href="#m68f22be206" x="69.218182" y="252" style="stroke: #000000; stroke-width: 0.8"/>
      </g>
     </g>
     <g id="text_1">
      <!-- 0 -->
      <g transform="translate(66.036932 266.598437)scale(0.1 -0.1)">
       <defs>
        <path id="DejaVuSans-30" d="M 2034 4250 
Q 1547 4250 1301 3770 
Q 1056 3291 1056 2328 
Q 1056 1369 1301 889 
Q 1547 409 2034 409 
Q 2525 409 2770 889 
Q 3016 1369 3016 2328 
Q 3016 3291 2770 3770 
Q 2525 4250 2034 4250 
z
M 2034 4750 
Q 2819 4750 3233 4129 
Q 3647 3509 3647 2328 
Q 3647 1150 3233 529 
Q 2819 -91 2034 -91 
Q 1250 -91 836 529 
Q 422 1150 422 2328 
Q 422 3509 836 4129 
Q 1250 4750 2034 4750 
z
" transform="scale(0.015625)"/>
       </defs>
       <use xlink:href="#DejaVuSans-30"/>
      </g>
     </g>
    </g>
    <g id="xtick_2">
     <g id="line2d_3">
      <path d="M 128.780537 252 
L 128.780537 34.56 
" clip-path="url(#p8a0ef383c4)" style="fill: none; stroke: #b0b0b0; stroke-width: 0.8; stroke-linecap: square"/>
     </g>
     <g id="line2d_4">
      <g>
       <use xlink:href="#m68f22be206" x="128.780537" y="252" style="stroke: #000000; stroke-width: 0.8"/>
      </g>
     </g>
     <g id="text_2">
      <!-- 100 -->
      <g transform="translate(119.236787 266.598437)scale(0.1 -0.1)">
       <defs>
        <path id="DejaVuSans-31" d="M 794 531 
L 1825 531 
L 1825 4091 
L 703 3866 
L 703 4441 
L 1819 4666 
L 2450 4666 
L 2450 531 
L 3481 531 
L 3481 0 
L 794 0 
L 794 531 
z
" transform="scale(0.015625)"/>
       </defs>
       <use xlink:href="#DejaVuSans-31"/>
       <use xlink:href="#DejaVuSans-30" x="63.623047"/>
       <use xlink:href="#DejaVuSans-30" x="127.246094"/>
      </g>
     </g>
    </g>
    <g id="xtick_3">
     <g id="line2d_5">
      <path d="M 188.342893 252 
L 188.342893 34.56 
" clip-path="url(#p8a0ef383c4)" style="fill: none; stroke: #b0b0b0; stroke-width: 0.8; stroke-linecap: square"/>
     </g>
     <g id="line2d_6">
      <g>
       <use xlink:href="#m68f22be206" x="188.342893" y="252" style="stroke: #000000; stroke-width: 0.8"/>
      </g>
     </g>
     <g id="text_3">
      <!-- 200 -->
      <g transform="translate(178.799143 266.598437)scale(0.1 -0.1)">
       <defs>
        <path id="DejaVuSans-32" d="M 1228 531 
L 3431 531 
L 3431 0 
L 469 0 
L 469 531 
Q 828 903 1448 1529 
Q 2069 2156 2228 2338 
Q 2531 2678 2651 2914 
Q 2772 3150 2772 3378 
Q 2772 3750 2511 3984 
Q 2250 4219 1831 4219 
Q 1534 4219 1204 4116 
Q 875 4013 500 3803 
L 500 4441 
Q 881 4594 1212 4672 
Q 1544 4750 1819 4750 
Q 2544 4750 2975 4387 
Q 3406 4025 3406 3419 
Q 3406 3131 3298 2873 
Q 3191 2616 2906 2266 
Q 2828 2175 2409 1742 
Q 1991 1309 1228 531 
z
" transform="scale(0.015625)"/>
       </defs>
       <use xlink:href="#DejaVuSans-32"/>
       <use xlink:href="#DejaVuSans-30" x="63.623047"/>
       <use xlink:href="#DejaVuSans-30" x="127.246094"/>
      </g>
     </g>
    </g>
    <g id="xtick_4">
     <g id="line2d_7">
      <path d="M 247.905248 252 
L 247.905248 34.56 
" clip-path="url(#p8a0ef383c4)" style="fill: none; stroke: #b0b0b0; stroke-width: 0.8; stroke-linecap: square"/>
     </g>
     <g id="line2d_8">
      <g>
       <use xlink:href="#m68f22be206" x="247.905248" y="252" style="stroke: #000000; stroke-width: 0.8"/>
      </g>
     </g>
     <g id="text_4">
      <!-- 300 -->
      <g transform="translate(238.361498 266.598437)scale(0.1 -0.1)">
       <defs>
        <path id="DejaVuSans-33" d="M 2597 2516 
Q 3050 2419 3304 2112 
Q 3559 1806 3559 1356 
Q 3559 666 3084 287 
Q 2609 -91 1734 -91 
Q 1441 -91 1130 -33 
Q 819 25 488 141 
L 488 750 
Q 750 597 1062 519 
Q 1375 441 1716 441 
Q 2309 441 2620 675 
Q 2931 909 2931 1356 
Q 2931 1769 2642 2001 
Q 2353 2234 1838 2234 
L 1294 2234 
L 1294 2753 
L 1863 2753 
Q 2328 2753 2575 2939 
Q 2822 3125 2822 3475 
Q 2822 3834 2567 4026 
Q 2313 4219 1838 4219 
Q 1578 4219 1281 4162 
Q 984 4106 628 3988 
L 628 4550 
Q 988 4650 1302 4700 
Q 1616 4750 1894 4750 
Q 2613 4750 3031 4423 
Q 3450 4097 3450 3541 
Q 3450 3153 3228 2886 
Q 3006 2619 2597 2516 
z
" transform="scale(0.015625)"/>
       </defs>
       <use xlink:href="#DejaVuSans-33"/>
       <use xlink:href="#DejaVuSans-30" x="63.623047"/>
       <use xlink:href="#DejaVuSans-30" x="127.246094"/>
      </g>
     </g>
    </g>
    <g id="xtick_5">
     <g id="line2d_9">
      <path d="M 307.467604 252 
L 307.467604 34.56 
" clip-path="url(#p8a0ef383c4)" style="fill: none; stroke: #b0b0b0; stroke-width: 0.8; stroke-linecap: square"/>
     </g>
     <g id="line2d_10">
      <g>
       <use xlink:href="#m68f22be206" x="307.467604" y="252" style="stroke: #000000; stroke-width: 0.8"/>
      </g>
     </g>
     <g id="text_5">
      <!-- 400 -->
      <g transform="translate(297.923854 266.598437)scale(0.1 -0.1)">
       <defs>
        <path id="DejaVuSans-34" d="M 2419 4116 
L 825 1625 
L 2419 1625 
L 2419 4116 
z
M 2253 4666 
L 3047 4666 
L 3047 1625 
L 3713 1625 
L 3713 1100 
L 3047 1100 
L 3047 0 
L 2419 0 
L 2419 1100 
L 313 1100 
L 313 1709 
L 2253 4666 
z
" transform="scale(0.015625)"/>
       </defs>
       <use xlink:href="#DejaVuSans-34"/>
       <use xlink:href="#DejaVuSans-30" x="63.623047"/>
       <use xlink:href="#DejaVuSans-30" x="127.246094"/>
      </g>
     </g>
    </g>
    <g id="xtick_6">
     <g id="line2d_11">
      <path d="M 367.029959 252 
L 367.029959 34.56 
" clip-path="url(#p8a0ef383c4)" style="fill: none; stroke: #b0b0b0; stroke-width: 0.8; stroke-linecap: square"/>
     </g>
     <g id="line2d_12">
      <g>
       <use xlink:href="#m68f22be206" x="367.029959" y="252" style="stroke: #000000; stroke-width: 0.8"/>
      </g>
     </g>
     <g id="text_6">
      <!-- 500 -->
      <g transform="translate(357.486209 266.598437)scale(0.1 -0.1)">
       <defs>
        <path id="DejaVuSans-35" d="M 691 4666 
L 3169 4666 
L 3169 4134 
L 1269 4134 
L 1269 2991 
Q 1406 3038 1543 3061 
Q 1681 3084 1819 3084 
Q 2600 3084 3056 2656 
Q 3513 2228 3513 1497 
Q 3513 744 3044 326 
Q 2575 -91 1722 -91 
Q 1428 -91 1123 -41 
Q 819 9 494 109 
L 494 744 
Q 775 591 1075 516 
Q 1375 441 1709 441 
Q 2250 441 2565 725 
Q 2881 1009 2881 1497 
Q 2881 1984 2565 2268 
Q 2250 2553 1709 2553 
Q 1456 2553 1204 2497 
Q 953 2441 691 2322 
L 691 4666 
z
" transform="scale(0.015625)"/>
       </defs>
       <use xlink:href="#DejaVuSans-35"/>
       <use xlink:href="#DejaVuSans-30" x="63.623047"/>
       <use xlink:href="#DejaVuSans-30" x="127.246094"/>
      </g>
     </g>
    </g>
    <g id="text_7">
     <!-- bin -->
     <g transform="translate(213.667969 280.276563)scale(0.1 -0.1)">
      <defs>
       <path id="DejaVuSans-62" d="M 3116 1747 
Q 3116 2381 2855 2742 
Q 2594 3103 2138 3103 
Q 1681 3103 1420 2742 
Q 1159 2381 1159 1747 
Q 1159 1113 1420 752 
Q 1681 391 2138 391 
Q 2594 391 2855 752 
Q 3116 1113 3116 1747 
z
M 1159 2969 
Q 1341 3281 1617 3432 
Q 1894 3584 2278 3584 
Q 2916 3584 3314 3078 
Q 3713 2572 3713 1747 
Q 3713 922 3314 415 
Q 2916 -91 2278 -91 
Q 1894 -91 1617 61 
Q 1341 213 1159 525 
L 1159 0 
L 581 0 
L 581 4863 
L 1159 4863 
L 1159 2969 
z
" transform="scale(0.015625)"/>
       <path id="DejaVuSans-69" d="M 603 3500 
L 1178 3500 
L 1178 0 
L 603 0 
L 603 3500 
z
M 603 4863 
L 1178 4863 
L 1178 4134 
L 603 4134 
L 603 4863 
z
" transform="scale(0.015625)"/>
       <path id="DejaVuSans-6e" d="M 3513 2113 
L 3513 0 
L 2938 0 
L 2938 2094 
Q 2938 2591 2744 2837 
Q 2550 3084 2163 3084 
Q 1697 3084 1428 2787 
Q 1159 2491 1159 1978 
L 1159 0 
L 581 0 
L 581 3500 
L 1159 3500 
L 1159 2956 
Q 1366 3272 1645 3428 
Q 1925 3584 2291 3584 
Q 2894 3584 3203 3211 
Q 3513 2838 3513 2113 
z
" transform="scale(0.015625)"/>
      </defs>
      <use xlink:href="#DejaVuSans-62"/>
      <use xlink:href="#DejaVuSans-69" x="63.476562"/>
      <use xlink:href="#DejaVuSans-6e" x="91.259766"/>
     </g>
    </g>
   </g>
   <g id="matplotlib.axis_2">
    <g id="ytick_1">
     <g id="line2d_13">
      <path d="M 54 252 
L 388.8 252 
" clip-path="url(#p8a0ef383c4)" style="fill: none; stroke: #b0b0b0; stroke-width: 0.8; stroke-linecap: square"/>
     </g>
     <g id="line2d_14">
      <defs>
       <path id="m384531accb" d="M 0 0 
L -3.5 0 
" style="stroke: #000000; stroke-width: 0.8"/>
      </defs>
      <g>
       <use xlink:href="#m384531accb" x="54" y="252" style="stroke: #000000; stroke-width: 0.8"/>
      </g>
     </g>
     <g id="text_8">
      <!-- 0.0 -->
      <g transform="translate(31.096875 255.799219)scale(0.1 -0.1)">
       <defs>
        <path id="DejaVuSans-2e" d="M 684 794 
L 1344 794 
L 1344 0 
L 684 0 
L 684 794 
z
" transform="scale(0.015625)"/>
       </defs>
       <use xlink:href="#DejaVuSans-30"/>
       <use xlink:href="#DejaVuSans-2e" x="63.623047"/>
       <use xlink:href="#DejaVuSans-30" x="95.410156"/>
      </g>
     </g>
    </g>
    <g id="ytick_2">
     <g id="line2d_15">
      <path d="M 54 208.512 
L 388.8 208.512 
" clip-path="url(#p8a0ef383c4)" style="fill: none; stroke: #b0b0b0; stroke-width: 0.8; stroke-linecap: square"/>
     </g>
     <g id="line2d_16">
      <g>
       <use xlink:href="#m384531accb" x="54" y="208.512" style="stroke: #000000; stroke-width: 0.8"/>
      </g>
     </g>
     <g id="text_9">
      <!-- 0.2 -->
      <g transform="translate(31.096875 212.311219)scale(0.1 -0.1)">
       <use xlink:href="#DejaVuSans-30"/>
       <use xlink:href="#DejaVuSans-2e" x="63.623047"/>
       <use xlink:href="#DejaVuSans-32" x="95.410156"/>
      </g>
     </g>
    </g>
    <g id="ytick_3">
     <g id="line2d_17">
      <path d="M 54 165.024 
L 388.8 165.024 
" clip-path="url(#p8a0ef383c4)" style="fill: none; stroke: #b0b0b0; stroke-width: 0.8; stroke-linecap: square"/>
     </g>
     <g id="line2d_18">
      <g>
       <use xlink:href="#m384531accb" x="54" y="165.024" style="stroke: #000000; stroke-width: 0.8"/>
      </g>
     </g>
     <g id="text_10">
      <!-- 0.4 -->
      <g transform="translate(31.096875 168.823219)scale(0.1 -0.1)">
       <use xlink:href="#DejaVuSans-30"/>
       <use xlink:href="#DejaVuSans-2e" x="63.623047"/>
       <use xlink:href="#DejaVuSans-34" x="95.410156"/>
      </g>
     </g>
    </g>
    <g id="ytick_4">
     <g id="line2d_19">
      <path d="M 54 121.536 
L 388.8 121.536 
" clip-path="url(#p8a0ef383c4)" style="fill: none; stroke: #b0b0b0; stroke-width: 0.8; stroke-linecap: square"/>
     </g>
     <g id="line2d_20">
      <g>
       <use xlink:href="#m384531accb" x="54" y="121.536" style="stroke: #000000; stroke-width: 0.8"/>
      </g>
     </g>
     <g id="text_11">
      <!-- 0.6 -->
      <g transform="translate(31.096875 125.335219)scale(0.1 -0.1)">
       <defs>
        <path id="DejaVuSans-36" d="M 2113 2584 
Q 1688 2584 1439 2293 
Q 1191 2003 1191 1497 
Q 1191 994 1439 701 
Q 1688 409 2113 409 
Q 2538 409 2786 701 
Q 3034 994 3034 1497 
Q 3034 2003 2786 2293 
Q 2538 2584 2113 2584 
z
M 3366 4563 
L 3366 3988 
Q 3128 4100 2886 4159 
Q 2644 4219 2406 4219 
Q 1781 4219 1451 3797 
Q 1122 3375 1075 2522 
Q 1259 2794 1537 2939 
Q 1816 3084 2150 3084 
Q 2853 3084 3261 2657 
Q 3669 2231 3669 1497 
Q 3669 778 3244 343 
Q 2819 -91 2113 -91 
Q 1303 -91 875 529 
Q 447 1150 447 2328 
Q 447 3434 972 4092 
Q 1497 4750 2381 4750 
Q 2619 4750 2861 4703 
Q 3103 4656 3366 4563 
z
" transform="scale(0.015625)"/>
       </defs>
       <use xlink:href="#DejaVuSans-30"/>
       <use xlink:href="#DejaVuSans-2e" x="63.623047"/>
       <use xlink:href="#DejaVuSans-36" x="95.410156"/>
      </g>
     </g>
    </g>
    <g id="ytick_5">
     <g id="line2d_21">
      <path d="M 54 78.048 
L 388.8 78.048 
" clip-path="url(#p8a0ef383c4)" style="fill: none; stroke: #b0b0b0; stroke-width: 0.8; stroke-linecap: square"/>
     </g>
     <g id="line2d_22">
      <g>
       <use xlink:href="#m384531accb" x="54" y="78.048" style="stroke: #000000; stroke-width: 0.8"/>
      </g>
     </g>
     <g id="text_12">
      <!-- 0.8 -->
      <g transform="translate(31.096875 81.847219)scale(0.1 -0.1)">
       <defs>
        <path id="DejaVuSans-38" d="M 2034 2216 
Q 1584 2216 1326 1975 
Q 1069 1734 1069 1313 
Q 1069 891 1326 650 
Q 1584 409 2034 409 
Q 2484 409 2743 651 
Q 3003 894 3003 1313 
Q 3003 1734 2745 1975 
Q 2488 2216 2034 2216 
z
M 1403 2484 
Q 997 2584 770 2862 
Q 544 3141 544 3541 
Q 544 4100 942 4425 
Q 1341 4750 2034 4750 
Q 2731 4750 3128 4425 
Q 3525 4100 3525 3541 
Q 3525 3141 3298 2862 
Q 3072 2584 2669 2484 
Q 3125 2378 3379 2068 
Q 3634 1759 3634 1313 
Q 3634 634 3220 271 
Q 2806 -91 2034 -91 
Q 1263 -91 848 271 
Q 434 634 434 1313 
Q 434 1759 690 2068 
Q 947 2378 1403 2484 
z
M 1172 3481 
Q 1172 3119 1398 2916 
Q 1625 2713 2034 2713 
Q 2441 2713 2670 2916 
Q 2900 3119 2900 3481 
Q 2900 3844 2670 4047 
Q 2441 4250 2034 4250 
Q 1625 4250 1398 4047 
Q 1172 3844 1172 3481 
z
" transform="scale(0.015625)"/>
       </defs>
       <use xlink:href="#DejaVuSans-30"/>
       <use xlink:href="#DejaVuSans-2e" x="63.623047"/>
       <use xlink:href="#DejaVuSans-38" x="95.410156"/>
      </g>
     </g>
    </g>
    <g id="ytick_6">
     <g id="line2d_23">
      <path d="M 54 34.56 
L 388.8 34.56 
" clip-path="url(#p8a0ef383c4)" style="fill: none; stroke: #b0b0b0; stroke-width: 0.8; stroke-linecap: square"/>
     </g>
     <g id="line2d_24">
      <g>
       <use xlink:href="#m384531accb" x="54" y="34.56" style="stroke: #000000; stroke-width: 0.8"/>
      </g>
     </g>
     <g id="text_13">
      <!-- 1.0 -->
      <g transform="translate(31.096875 38.359219)scale(0.1 -0.1)">
       <use xlink:href="#DejaVuSans-31"/>
       <use xlink:href="#DejaVuSans-2e" x="63.623047"/>
       <use xlink:href="#DejaVuSans-30" x="95.410156"/>
      </g>
     </g>
    </g>
    <g id="text_14">
     <!-- count -->
     <g transform="translate(25.017187 157.38625)rotate(-90)scale(0.1 -0.1)">
      <defs>
       <path id="DejaVuSans-63" d="M 3122 3366 
L 3122 2828 
Q 2878 2963 2633 3030 
Q 2388 3097 2138 3097 
Q 1578 3097 1268 2742 
Q 959 2388 959 1747 
Q 959 1106 1268 751 
Q 1578 397 2138 397 
Q 2388 397 2633 464 
Q 2878 531 3122 666 
L 3122 134 
Q 2881 22 2623 -34 
Q 2366 -91 2075 -91 
Q 1284 -91 818 406 
Q 353 903 353 1747 
Q 353 2603 823 3093 
Q 1294 3584 2113 3584 
Q 2378 3584 2631 3529 
Q 2884 3475 3122 3366 
z
" transform="scale(0.015625)"/>
       <path id="DejaVuSans-6f" d="M 1959 3097 
Q 1497 3097 1228 2736 
Q 959 2375 959 1747 
Q 959 1119 1226 758 
Q 1494 397 1959 397 
Q 2419 397 2687 759 
Q 2956 1122 2956 1747 
Q 2956 2369 2687 2733 
Q 2419 3097 1959 3097 
z
M 1959 3584 
Q 2709 3584 3137 3096 
Q 3566 2609 3566 1747 
Q 3566 888 3137 398 
Q 2709 -91 1959 -91 
Q 1206 -91 779 398 
Q 353 888 353 1747 
Q 353 2609 779 3096 
Q 1206 3584 1959 3584 
z
" transform="scale(0.015625)"/>
       <path id="DejaVuSans-75" d="M 544 1381 
L 544 3500 
L 1119 3500 
L 1119 1403 
Q 1119 906 1312 657 
Q 1506 409 1894 409 
Q 2359 409 2629 706 
Q 2900 1003 2900 1516 
L 2900 3500 
L 3475 3500 
L 3475 0 
L 2900 0 
L 2900 538 
Q 2691 219 2414 64 
Q 2138 -91 1772 -91 
Q 1169 -91 856 284 
Q 544 659 544 1381 
z
M 1991 3584 
L 1991 3584 
z
" transform="scale(0.015625)"/>
       <path id="DejaVuSans-74" d="M 1172 4494 
L 1172 3500 
L 2356 3500 
L 2356 3053 
L 1172 3053 
L 1172 1153 
Q 1172 725 1289 603 
Q 1406 481 1766 481 
L 2356 481 
L 2356 0 
L 1766 0 
Q 1100 0 847 248 
Q 594 497 594 1153 
L 594 3053 
L 172 3053 
L 172 3500 
L 594 3500 
L 594 4494 
L 1172 4494 
z
" transform="scale(0.015625)"/>
      </defs>
      <use xlink:href="#DejaVuSans-63"/>
      <use xlink:href="#DejaVuSans-6f" x="54.980469"/>
      <use xlink:href="#DejaVuSans-75" x="116.162109"/>
      <use xlink:href="#DejaVuSans-6e" x="179.541016"/>
      <use xlink:href="#DejaVuSans-74" x="242.919922"/>
     </g>
    </g>
   </g>
   <g id="line2d_25">
    <path d="M 69.218182 244.587273 
L 69.813805 242.94 
L 70.409429 235.939091 
L 71.005052 236.350909 
L 71.600676 247.881818 
L 72.1963 244.587273 
L 72.791923 240.057273 
L 73.387547 239.645455 
L 73.98317 242.94 
L 74.578794 243.763636 
L 75.174417 247.058182 
L 75.770041 242.528182 
L 76.365664 248.705455 
L 76.961288 245.410909 
L 77.556912 238.821818 
L 78.152535 237.586364 
L 78.748159 237.174545 
L 79.343782 239.233636 
L 79.939406 239.233636 
L 80.535029 245.410909 
L 81.130653 238.41 
L 81.726276 246.646364 
L 82.3219 251.588182 
L 82.917524 241.704545 
L 83.513147 238.41 
L 84.108771 237.586364 
L 84.704394 242.94 
L 85.300018 240.469091 
L 85.895641 235.939091 
L 86.491265 238.821818 
L 87.086888 239.645455 
L 87.682512 243.351818 
L 88.278136 243.351818 
L 88.873759 242.116364 
L 89.469383 244.999091 
L 90.065006 238.821818 
L 90.66063 243.351818 
L 91.256253 245.822727 
L 91.851877 246.646364 
L 92.4475 237.586364 
L 93.043124 239.645455 
L 93.638748 235.939091 
L 94.234371 235.527273 
L 94.829995 237.586364 
L 95.425618 237.998182 
L 96.021242 244.999091 
L 96.616865 245.822727 
L 97.212489 241.704545 
L 97.808112 244.999091 
L 98.403736 242.94 
L 98.99936 241.292727 
L 99.594983 246.646364 
L 100.190607 247.058182 
L 100.78623 244.175455 
L 101.381854 247.058182 
L 101.977477 242.528182 
L 102.573101 243.763636 
L 103.168724 236.762727 
L 103.764348 238.821818 
L 104.359972 238.821818 
L 104.955595 243.763636 
L 105.551219 241.292727 
L 106.146842 242.94 
L 106.742466 239.645455 
L 107.338089 249.529091 
L 107.933713 241.292727 
L 108.529336 247.881818 
L 109.12496 247.881818 
L 109.720584 247.058182 
L 110.316207 247.058182 
L 110.911831 243.351818 
L 111.507454 238.821818 
L 112.103078 247.881818 
L 112.698701 249.117273 
L 113.294325 244.175455 
L 113.889948 242.94 
L 114.485572 244.999091 
L 115.081196 236.350909 
L 115.676819 243.351818 
L 116.272443 243.763636 
L 116.868066 241.292727 
L 117.46369 247.058182 
L 118.059313 241.704545 
L 119.25056 242.528182 
L 119.846184 240.057273 
L 120.441808 242.116364 
L 121.037431 245.410909 
L 121.633055 238.41 
L 122.228678 239.233636 
L 122.824302 239.233636 
L 123.419925 246.234545 
L 124.015549 235.527273 
L 124.611172 244.175455 
L 125.206796 241.704545 
L 125.802419 241.704545 
L 126.398043 242.528182 
L 126.993667 240.880909 
L 127.58929 240.880909 
L 128.184914 241.704545 
L 129.376161 236.762727 
L 129.971784 239.645455 
L 130.567408 247.881818 
L 131.163031 241.292727 
L 131.758655 244.999091 
L 132.354279 243.763636 
L 132.949902 240.057273 
L 133.545526 243.351818 
L 134.141149 239.233636 
L 134.736773 243.351818 
L 135.332396 235.939091 
L 135.92802 247.881818 
L 136.523643 248.293636 
L 137.119267 235.939091 
L 137.714891 240.880909 
L 138.310514 237.998182 
L 138.906138 241.292727 
L 139.501761 238.41 
L 140.097385 240.880909 
L 140.693008 239.645455 
L 141.288632 249.940909 
L 141.884255 241.292727 
L 142.479879 244.587273 
L 143.075503 242.528182 
L 143.671126 241.704545 
L 144.26675 243.763636 
L 144.862373 244.587273 
L 145.457997 246.646364 
L 146.05362 245.410909 
L 146.649244 237.174545 
L 147.244867 240.469091 
L 147.840491 237.174545 
L 148.436115 242.94 
L 149.031738 237.998182 
L 149.627362 240.469091 
L 150.222985 238.821818 
L 150.818609 242.116364 
L 151.414232 248.293636 
L 152.009856 226.467273 
L 152.605479 248.293636 
L 153.201103 242.94 
L 154.39235 251.588182 
L 154.987974 240.469091 
L 155.583597 240.469091 
L 156.179221 245.410909 
L 156.774844 237.998182 
L 157.370468 245.822727 
L 157.966091 241.292727 
L 158.561715 244.999091 
L 159.157339 238.821818 
L 159.752962 244.587273 
L 160.348586 237.998182 
L 160.944209 241.292727 
L 161.539833 245.410909 
L 162.135456 240.880909 
L 162.73108 249.940909 
L 163.326703 237.586364 
L 163.922327 233.88 
L 164.517951 242.528182 
L 165.113574 242.528182 
L 165.709198 241.292727 
L 166.304821 234.703636 
L 166.900445 245.822727 
L 168.091692 235.939091 
L 168.687315 240.057273 
L 169.282939 238.41 
L 169.878563 239.233636 
L 170.474186 245.410909 
L 171.06981 242.94 
L 171.665433 249.117273 
L 172.261057 249.529091 
L 172.85668 236.350909 
L 173.452304 239.233636 
L 174.047927 242.94 
L 174.643551 238.821818 
L 175.239175 248.293636 
L 175.834798 244.587273 
L 176.430422 239.233636 
L 177.026045 241.704545 
L 177.621669 239.645455 
L 178.217292 237.998182 
L 178.812916 251.588182 
L 179.408539 237.174545 
L 180.004163 247.058182 
L 180.599787 240.057273 
L 181.19541 241.704545 
L 181.791034 238.41 
L 182.386657 237.174545 
L 182.982281 240.469091 
L 183.577904 238.821818 
L 184.173528 245.410909 
L 185.364775 239.233636 
L 185.960399 243.351818 
L 186.556022 240.057273 
L 187.151646 249.117273 
L 187.747269 240.880909 
L 188.342893 239.645455 
L 188.938516 240.880909 
L 189.53414 238.821818 
L 190.129763 238.41 
L 190.725387 226.879091 
L 191.32101 205.876364 
L 191.916634 208.347273 
L 192.512258 199.699091 
L 193.107881 162.635455 
L 194.299128 110.334545 
L 194.894752 72.447273 
L 195.490375 44.855455 
L 196.085999 48.561818 
L 196.681622 34.56 
L 197.277246 55.150909 
L 197.87287 66.27 
L 199.65974 152.34 
L 200.255364 179.931818 
L 200.850987 189.815455 
L 202.042234 230.173636 
L 202.637858 225.231818 
L 203.233482 233.468182 
L 203.829105 237.998182 
L 204.424729 239.233636 
L 205.020352 239.645455 
L 205.615976 241.292727 
L 206.211599 230.173636 
L 206.807223 237.998182 
L 207.402846 237.998182 
L 207.99847 234.291818 
L 208.594094 229.35 
L 209.189717 226.467273 
L 210.380964 196.404545 
L 210.976588 186.520909 
L 211.572211 172.930909 
L 212.167835 170.048182 
L 212.763458 171.695455 
L 213.359082 189.403636 
L 213.954706 201.758182 
L 214.550329 205.052727 
L 215.145953 229.35 
L 215.741576 219.054545 
L 216.3372 230.585455 
L 216.932823 237.586364 
L 217.528447 241.704545 
L 218.12407 244.587273 
L 218.719694 240.880909 
L 219.315318 239.645455 
L 219.910941 241.292727 
L 220.506565 235.939091 
L 221.102188 242.94 
L 221.697812 242.116364 
L 222.293435 239.645455 
L 222.889059 246.234545 
L 223.484682 245.410909 
L 224.080306 240.469091 
L 224.67593 237.998182 
L 225.271553 246.234545 
L 225.867177 237.998182 
L 226.4628 239.645455 
L 227.058424 236.350909 
L 227.654047 249.940909 
L 228.249671 246.234545 
L 228.845294 249.117273 
L 229.440918 234.703636 
L 230.036542 244.175455 
L 230.632165 244.175455 
L 231.227789 242.94 
L 231.823412 240.469091 
L 232.419036 243.763636 
L 233.014659 244.175455 
L 233.610283 235.939091 
L 234.205906 231.409091 
L 234.80153 244.175455 
L 235.397154 246.646364 
L 235.992777 238.821818 
L 236.588401 245.822727 
L 237.184024 241.704545 
L 237.779648 240.057273 
L 238.375271 240.469091 
L 238.970895 242.94 
L 239.566518 239.233636 
L 240.162142 242.528182 
L 240.757766 235.939091 
L 241.353389 245.410909 
L 241.949013 236.762727 
L 242.544636 244.999091 
L 243.14026 240.057273 
L 243.735883 241.292727 
L 244.331507 241.704545 
L 244.92713 250.764545 
L 245.522754 248.705455 
L 246.118378 233.056364 
L 246.714001 241.292727 
L 247.309625 235.115455 
L 247.905248 234.291818 
L 248.500872 240.057273 
L 249.096495 240.057273 
L 249.692119 236.762727 
L 250.287742 230.997273 
L 250.883366 244.999091 
L 251.47899 247.058182 
L 252.074613 237.586364 
L 252.670237 246.234545 
L 253.26586 241.704545 
L 253.861484 239.233636 
L 254.457107 242.528182 
L 255.052731 241.292727 
L 255.648354 231.820909 
L 256.243978 241.292727 
L 256.839601 241.704545 
L 257.435225 241.292727 
L 258.030849 239.233636 
L 258.626472 239.233636 
L 259.222096 246.646364 
L 259.817719 242.116364 
L 260.413343 246.234545 
L 261.008966 236.762727 
L 261.60459 241.292727 
L 262.200213 244.175455 
L 262.795837 243.351818 
L 263.391461 239.233636 
L 263.987084 243.351818 
L 264.582708 242.116364 
L 265.178331 237.998182 
L 265.773955 249.117273 
L 266.369578 239.645455 
L 266.965202 247.881818 
L 267.560825 241.292727 
L 268.156449 240.880909 
L 268.752073 239.233636 
L 269.347696 247.47 
L 269.94332 237.586364 
L 270.538943 237.586364 
L 271.134567 248.705455 
L 271.73019 246.234545 
L 272.325814 247.47 
L 272.921437 237.174545 
L 273.517061 247.058182 
L 274.112685 242.528182 
L 274.708308 235.527273 
L 275.303932 241.292727 
L 275.899555 244.999091 
L 276.495179 244.175455 
L 277.090802 238.41 
L 277.686426 238.41 
L 278.282049 239.645455 
L 278.877673 246.234545 
L 279.473297 238.41 
L 280.06892 240.880909 
L 281.260167 240.880909 
L 281.855791 249.529091 
L 282.451414 240.880909 
L 283.047038 237.586364 
L 283.642661 243.351818 
L 284.238285 244.175455 
L 285.429532 249.117273 
L 286.025156 237.998182 
L 286.620779 236.350909 
L 287.216403 249.940909 
L 287.812026 239.233636 
L 288.40765 242.528182 
L 289.003273 239.233636 
L 289.598897 243.763636 
L 290.194521 237.998182 
L 290.790144 248.293636 
L 291.385768 241.704545 
L 291.981391 242.528182 
L 292.577015 241.292727 
L 293.172638 239.233636 
L 293.768262 247.47 
L 294.363885 243.763636 
L 294.959509 244.587273 
L 295.555133 241.704545 
L 296.150756 241.292727 
L 297.342003 247.881818 
L 297.937627 241.704545 
L 298.53325 244.587273 
L 299.128874 246.234545 
L 299.724497 240.469091 
L 300.320121 238.41 
L 300.915745 242.94 
L 301.511368 235.939091 
L 302.106992 244.587273 
L 302.702615 247.881818 
L 303.298239 239.233636 
L 303.893862 233.468182 
L 304.489486 245.410909 
L 305.085109 238.41 
L 305.680733 235.115455 
L 306.276357 239.645455 
L 306.87198 239.645455 
L 307.467604 240.880909 
L 308.063227 240.469091 
L 308.658851 246.234545 
L 309.254474 238.41 
L 309.850098 241.704545 
L 310.445721 239.233636 
L 311.041345 243.351818 
L 311.636969 242.94 
L 312.232592 234.703636 
L 312.828216 242.528182 
L 313.423839 245.410909 
L 314.019463 235.939091 
L 314.615086 237.174545 
L 315.21071 246.646364 
L 315.806333 240.469091 
L 316.401957 239.645455 
L 316.997581 240.469091 
L 317.593204 238.41 
L 318.188828 235.527273 
L 318.784451 245.822727 
L 319.380075 242.94 
L 319.975698 242.94 
L 320.571322 243.763636 
L 321.166945 244.175455 
L 321.762569 247.058182 
L 322.358192 240.469091 
L 322.953816 243.351818 
L 323.54944 247.058182 
L 324.145063 235.527273 
L 324.740687 242.116364 
L 325.33631 239.645455 
L 325.931934 240.880909 
L 326.527557 240.469091 
L 327.123181 249.529091 
L 327.718804 239.233636 
L 328.314428 240.469091 
L 328.910052 240.057273 
L 329.505675 248.705455 
L 330.101299 235.939091 
L 330.696922 247.881818 
L 331.292546 243.351818 
L 331.888169 240.880909 
L 332.483793 240.880909 
L 333.079416 238.821818 
L 333.67504 238.821818 
L 334.270664 242.94 
L 334.866287 248.293636 
L 335.461911 246.234545 
L 336.057534 245.410909 
L 336.653158 245.822727 
L 337.248781 240.880909 
L 337.844405 245.822727 
L 338.440028 235.939091 
L 339.035652 243.763636 
L 339.631276 243.763636 
L 340.226899 240.057273 
L 340.822523 237.998182 
L 341.418146 247.058182 
L 342.01377 245.410909 
L 343.205017 239.233636 
L 343.80064 246.234545 
L 344.396264 242.528182 
L 344.991888 245.410909 
L 345.587511 244.999091 
L 346.183135 235.939091 
L 346.778758 250.352727 
L 347.374382 240.880909 
L 347.970005 233.88 
L 348.565629 244.175455 
L 349.161252 242.94 
L 349.756876 244.587273 
L 350.3525 244.999091 
L 350.948123 247.47 
L 351.543747 247.881818 
L 352.13937 238.41 
L 352.734994 243.763636 
L 353.330617 240.880909 
L 353.926241 249.117273 
L 354.521864 238.821818 
L 355.117488 245.410909 
L 355.713112 245.822727 
L 356.308735 247.47 
L 356.904359 243.763636 
L 357.499982 241.704545 
L 358.095606 238.821818 
L 358.691229 242.94 
L 359.286853 238.821818 
L 359.882476 252 
L 360.4781 240.880909 
L 361.073724 239.233636 
L 362.264971 244.999091 
L 362.860594 242.116364 
L 363.456218 244.175455 
L 364.051841 237.174545 
L 364.647465 244.999091 
L 365.243088 242.528182 
L 365.838712 235.527273 
L 366.434336 243.351818 
L 367.029959 238.821818 
L 367.625583 240.057273 
L 368.221206 242.94 
L 368.81683 237.174545 
L 369.412453 243.351818 
L 370.008077 243.763636 
L 370.6037 244.587273 
L 371.199324 236.762727 
L 371.794948 243.351818 
L 372.390571 237.998182 
L 372.986195 244.175455 
L 373.581818 246.234545 
L 373.581818 246.234545 
" clip-path="url(#p8a0ef383c4)" style="fill: none; stroke: #1f77b4; stroke-width: 1.5; stroke-linecap: square"/>
   </g>
   <g id="line2d_26">
    <path d="M 69.218182 227.461317 
L 69.813805 200.877743 
L 70.409429 233.595987 
L 71.005052 229.506207 
L 71.600676 224.053166 
L 72.1963 215.873605 
L 72.791923 204.967524 
L 73.387547 231.551097 
L 73.98317 213.828715 
L 74.578794 217.918495 
L 75.174417 224.734796 
L 75.770041 208.375674 
L 76.365664 218.600125 
L 76.961288 207.694044 
L 77.556912 199.514483 
L 78.152535 218.600125 
L 78.748159 194.743072 
L 79.343782 211.102194 
L 79.939406 211.783824 
L 80.535029 215.873605 
L 81.130653 232.232727 
L 81.726276 206.330784 
L 82.917524 215.191975 
L 83.513147 223.371536 
L 84.108771 227.461317 
L 84.704394 219.963386 
L 85.300018 223.371536 
L 85.895641 224.734796 
L 86.491265 202.922633 
L 87.086888 199.514483 
L 87.682512 219.963386 
L 88.278136 216.555235 
L 88.873759 202.922633 
L 89.469383 230.869467 
L 90.065006 206.330784 
L 90.66063 226.098056 
L 91.256253 228.824577 
L 91.851877 214.510345 
L 92.4475 217.236865 
L 93.043124 227.461317 
L 94.234371 217.918495 
L 94.829995 227.461317 
L 95.425618 199.514483 
L 96.021242 224.053166 
L 96.616865 219.281755 
L 97.212489 236.322508 
L 97.808112 241.775549 
L 98.403736 203.604263 
L 98.99936 217.918495 
L 99.594983 229.506207 
L 100.78623 220.645016 
L 101.381854 228.824577 
L 101.977477 248.59185 
L 103.168724 220.645016 
L 103.764348 217.236865 
L 104.359972 211.783824 
L 104.955595 217.236865 
L 105.551219 214.510345 
L 106.146842 228.142947 
L 106.742466 207.694044 
L 107.933713 225.416426 
L 108.529336 216.555235 
L 109.12496 211.102194 
L 109.720584 217.236865 
L 110.316207 216.555235 
L 110.911831 217.918495 
L 111.507454 239.049028 
L 112.103078 216.555235 
L 112.698701 187.245141 
L 113.294325 232.914357 
L 113.889948 215.873605 
L 114.485572 221.326646 
L 115.081196 212.465455 
L 115.676819 222.689906 
L 116.272443 223.371536 
L 116.868066 218.600125 
L 117.46369 215.191975 
L 118.059313 209.738934 
L 118.654937 225.416426 
L 119.25056 198.832853 
L 119.846184 217.236865 
L 120.441808 230.187837 
L 121.037431 187.245141 
L 121.633055 215.191975 
L 122.228678 222.689906 
L 122.824302 212.465455 
L 123.419925 211.102194 
L 124.015549 230.187837 
L 124.611172 229.506207 
L 125.206796 226.098056 
L 125.802419 230.187837 
L 126.398043 226.779687 
L 126.993667 202.241003 
L 127.58929 202.922633 
L 128.184914 200.877743 
L 128.780537 221.326646 
L 129.376161 190.653292 
L 129.971784 223.371536 
L 130.567408 222.008276 
L 131.163031 210.420564 
L 131.758655 247.228589 
L 132.354279 199.514483 
L 132.949902 229.506207 
L 133.545526 225.416426 
L 134.141149 226.098056 
L 134.736773 232.914357 
L 135.332396 220.645016 
L 135.92802 194.061442 
L 136.523643 222.008276 
L 137.119267 213.828715 
L 137.714891 230.187837 
L 138.310514 224.053166 
L 138.906138 209.738934 
L 139.501761 229.506207 
L 140.097385 239.730658 
L 140.693008 232.232727 
L 141.288632 213.147085 
L 141.884255 211.783824 
L 142.479879 213.828715 
L 143.075503 219.963386 
L 143.671126 207.012414 
L 144.26675 227.461317 
L 144.862373 215.191975 
L 145.457997 231.551097 
L 146.649244 224.734796 
L 147.244867 250.63674 
L 147.840491 239.049028 
L 148.436115 218.600125 
L 149.031738 234.959248 
L 149.627362 227.461317 
L 150.222985 213.828715 
L 150.818609 225.416426 
L 151.414232 222.689906 
L 152.009856 235.640878 
L 152.605479 209.057304 
L 153.201103 216.555235 
L 153.796727 214.510345 
L 154.39235 209.738934 
L 154.987974 201.559373 
L 155.583597 215.191975 
L 156.179221 219.281755 
L 156.774844 211.783824 
L 157.370468 217.918495 
L 157.966091 215.191975 
L 158.561715 227.461317 
L 159.157339 213.828715 
L 159.752962 233.595987 
L 160.348586 220.645016 
L 160.944209 232.914357 
L 161.539833 222.008276 
L 162.135456 228.142947 
L 162.73108 213.147085 
L 163.326703 217.236865 
L 163.922327 227.461317 
L 164.517951 211.102194 
L 165.113574 205.649154 
L 165.709198 219.963386 
L 166.304821 245.865329 
L 166.900445 218.600125 
L 167.496068 213.147085 
L 168.091692 230.869467 
L 168.687315 224.053166 
L 169.282939 211.102194 
L 169.878563 241.093918 
L 170.474186 239.730658 
L 171.06981 234.277618 
L 171.665433 198.832853 
L 172.261057 211.102194 
L 172.85668 228.142947 
L 173.452304 204.967524 
L 174.047927 215.873605 
L 174.643551 217.918495 
L 175.239175 228.824577 
L 175.834798 214.510345 
L 176.430422 232.914357 
L 177.026045 202.922633 
L 177.621669 202.241003 
L 178.217292 229.506207 
L 178.812916 246.546959 
L 179.408539 232.232727 
L 180.004163 211.102194 
L 180.599787 212.465455 
L 181.19541 221.326646 
L 181.791034 219.963386 
L 182.386657 201.559373 
L 182.982281 211.102194 
L 183.577904 206.330784 
L 184.769151 168.159498 
L 185.364775 134.077994 
L 185.960399 121.808652 
L 186.556022 70.686395 
L 187.151646 72.049655 
L 187.747269 40.013041 
L 188.342893 37.96815 
L 188.938516 34.56 
L 189.53414 48.192602 
L 190.129763 57.735423 
L 190.725387 89.772038 
L 191.32101 108.17605 
L 193.107881 184.518621 
L 193.703505 164.069718 
L 194.299128 222.008276 
L 194.894752 226.098056 
L 195.490375 219.281755 
L 196.085999 217.236865 
L 196.681622 207.694044 
L 197.277246 228.824577 
L 197.87287 234.959248 
L 198.468493 216.555235 
L 199.064117 213.147085 
L 199.65974 224.053166 
L 200.255364 218.600125 
L 200.850987 222.008276 
L 201.446611 197.469592 
L 202.042234 207.012414 
L 202.637858 185.200251 
L 203.233482 179.74721 
L 203.829105 161.343197 
L 204.424729 153.845266 
L 205.020352 157.253417 
L 205.615976 153.163636 
L 206.211599 183.155361 
L 206.807223 198.151223 
L 207.402846 179.74721 
L 207.99847 186.563511 
L 208.594094 209.057304 
L 209.189717 209.057304 
L 209.785341 216.555235 
L 210.380964 235.640878 
L 210.976588 229.506207 
L 211.572211 210.420564 
L 212.167835 212.465455 
L 212.763458 231.551097 
L 213.359082 206.330784 
L 213.954706 234.959248 
L 214.550329 227.461317 
L 215.145953 230.187837 
L 215.741576 210.420564 
L 216.3372 225.416426 
L 216.932823 237.004138 
L 217.528447 237.004138 
L 218.12407 216.555235 
L 218.719694 223.371536 
L 219.315318 215.191975 
L 219.910941 214.510345 
L 220.506565 218.600125 
L 221.102188 215.873605 
L 221.697812 224.053166 
L 222.293435 214.510345 
L 222.889059 217.918495 
L 224.080306 241.093918 
L 224.67593 237.685768 
L 225.867177 223.371536 
L 226.4628 208.375674 
L 227.058424 235.640878 
L 227.654047 232.232727 
L 228.249671 241.093918 
L 228.845294 222.689906 
L 229.440918 214.510345 
L 230.036542 222.008276 
L 230.632165 225.416426 
L 231.227789 238.367398 
L 231.823412 215.191975 
L 232.419036 222.689906 
L 233.014659 225.416426 
L 233.610283 233.595987 
L 234.205906 206.330784 
L 234.80153 230.869467 
L 235.992777 200.877743 
L 236.588401 213.828715 
L 237.184024 213.147085 
L 237.779648 213.147085 
L 238.375271 224.053166 
L 238.970895 196.787962 
L 239.566518 228.142947 
L 240.162142 217.236865 
L 240.757766 224.053166 
L 241.353389 228.824577 
L 241.949013 223.371536 
L 242.544636 200.877743 
L 243.14026 230.187837 
L 243.735883 210.420564 
L 244.331507 237.004138 
L 244.92713 213.828715 
L 245.522754 230.869467 
L 246.118378 220.645016 
L 246.714001 217.236865 
L 247.309625 235.640878 
L 248.500872 228.824577 
L 249.096495 194.061442 
L 249.692119 219.963386 
L 250.287742 227.461317 
L 250.883366 202.922633 
L 251.47899 229.506207 
L 252.074613 231.551097 
L 252.670237 197.469592 
L 253.26586 224.734796 
L 253.861484 229.506207 
L 254.457107 225.416426 
L 255.052731 200.877743 
L 256.243978 232.232727 
L 256.839601 236.322508 
L 258.030849 223.371536 
L 258.626472 189.971661 
L 259.222096 222.008276 
L 259.817719 222.008276 
L 260.413343 211.783824 
L 261.008966 229.506207 
L 261.60459 240.412288 
L 262.200213 231.551097 
L 262.795837 211.102194 
L 263.391461 207.012414 
L 263.987084 214.510345 
L 264.582708 241.093918 
L 265.178331 203.604263 
L 265.773955 221.326646 
L 266.369578 235.640878 
L 266.965202 207.012414 
L 267.560825 212.465455 
L 268.156449 223.371536 
L 268.752073 219.963386 
L 269.347696 252 
L 270.538943 217.236865 
L 271.134567 212.465455 
L 271.73019 217.918495 
L 272.325814 234.277618 
L 272.921437 225.416426 
L 273.517061 228.824577 
L 274.112685 200.196113 
L 274.708308 210.420564 
L 275.303932 227.461317 
L 275.899555 211.783824 
L 276.495179 209.057304 
L 277.090802 213.828715 
L 277.686426 238.367398 
L 278.282049 218.600125 
L 278.877673 224.053166 
L 279.473297 219.281755 
L 280.06892 237.004138 
L 280.664544 212.465455 
L 281.260167 224.734796 
L 281.855791 243.820439 
L 282.451414 202.922633 
L 283.047038 230.869467 
L 283.642661 199.514483 
L 284.238285 217.918495 
L 284.833909 209.057304 
L 285.429532 209.738934 
L 286.025156 200.877743 
L 286.620779 224.734796 
L 287.216403 228.824577 
L 287.812026 215.873605 
L 288.40765 230.187837 
L 289.003273 216.555235 
L 289.598897 211.783824 
L 290.194521 240.412288 
L 290.790144 189.971661 
L 291.385768 225.416426 
L 291.981391 224.053166 
L 292.577015 224.734796 
L 293.172638 206.330784 
L 293.768262 250.63674 
L 294.363885 237.004138 
L 294.959509 216.555235 
L 295.555133 214.510345 
L 296.150756 239.049028 
L 297.342003 223.371536 
L 297.937627 241.093918 
L 298.53325 217.918495 
L 299.128874 213.828715 
L 299.724497 238.367398 
L 300.320121 221.326646 
L 300.915745 207.694044 
L 302.106992 229.506207 
L 302.702615 204.285893 
L 303.893862 237.004138 
L 304.489486 201.559373 
L 305.085109 219.963386 
L 305.680733 207.694044 
L 306.276357 222.689906 
L 306.87198 219.963386 
L 307.467604 215.191975 
L 308.063227 236.322508 
L 308.658851 237.004138 
L 309.254474 202.241003 
L 309.850098 227.461317 
L 310.445721 226.779687 
L 311.041345 200.196113 
L 311.636969 225.416426 
L 312.232592 225.416426 
L 312.828216 230.869467 
L 313.423839 229.506207 
L 314.019463 238.367398 
L 314.615086 210.420564 
L 315.21071 231.551097 
L 315.806333 219.281755 
L 316.401957 212.465455 
L 316.997581 219.963386 
L 317.593204 216.555235 
L 318.188828 226.098056 
L 318.784451 219.963386 
L 319.380075 225.416426 
L 319.975698 215.873605 
L 320.571322 242.457179 
L 321.762569 214.510345 
L 322.358192 222.689906 
L 322.953816 204.967524 
L 323.54944 226.098056 
L 324.145063 211.783824 
L 325.33631 230.187837 
L 325.931934 225.416426 
L 326.527557 198.832853 
L 327.718804 216.555235 
L 328.314428 224.053166 
L 328.910052 224.053166 
L 329.505675 212.465455 
L 330.101299 232.914357 
L 330.696922 213.147085 
L 331.292546 220.645016 
L 331.888169 210.420564 
L 332.483793 235.640878 
L 333.079416 210.420564 
L 333.67504 219.281755 
L 334.270664 226.098056 
L 334.866287 229.506207 
L 335.461911 242.457179 
L 336.057534 198.151223 
L 336.653158 209.057304 
L 337.248781 217.236865 
L 337.844405 209.738934 
L 338.440028 226.779687 
L 339.035652 221.326646 
L 339.631276 213.147085 
L 340.226899 224.734796 
L 340.822523 218.600125 
L 341.418146 237.685768 
L 342.01377 220.645016 
L 342.609393 219.963386 
L 343.205017 208.375674 
L 343.80064 201.559373 
L 344.991888 230.869467 
L 345.587511 227.461317 
L 346.183135 228.824577 
L 346.778758 228.824577 
L 347.374382 217.918495 
L 347.970005 219.963386 
L 348.565629 224.053166 
L 349.161252 221.326646 
L 349.756876 232.914357 
L 350.3525 219.281755 
L 350.948123 219.963386 
L 351.543747 209.738934 
L 352.13937 216.555235 
L 352.734994 202.922633 
L 353.330617 223.371536 
L 353.926241 224.053166 
L 354.521864 217.918495 
L 355.117488 214.510345 
L 355.713112 209.738934 
L 356.308735 214.510345 
L 356.904359 213.147085 
L 357.499982 214.510345 
L 358.095606 221.326646 
L 358.691229 225.416426 
L 359.286853 204.967524 
L 359.882476 218.600125 
L 360.4781 212.465455 
L 361.073724 218.600125 
L 361.669347 229.506207 
L 362.264971 221.326646 
L 362.860594 223.371536 
L 363.456218 226.779687 
L 364.051841 212.465455 
L 364.647465 235.640878 
L 365.243088 205.649154 
L 365.838712 230.869467 
L 366.434336 232.914357 
L 367.029959 187.245141 
L 367.625583 209.738934 
L 368.221206 198.151223 
L 368.81683 209.057304 
L 369.412453 204.967524 
L 370.008077 228.142947 
L 370.6037 234.959248 
L 371.199324 207.012414 
L 371.794948 200.196113 
L 372.390571 207.694044 
L 372.986195 224.734796 
L 373.581818 238.367398 
L 373.581818 238.367398 
" clip-path="url(#p8a0ef383c4)" style="fill: none; stroke: #ff7f0e; stroke-width: 1.5; stroke-linecap: square"/>
   </g>
   <g id="line2d_27">
    <path d="M 69.218182 232.341041 
L 69.813805 239.489753 
L 70.409429 235.021808 
L 71.005052 243.659836 
L 71.600676 230.256 
L 72.1963 236.21326 
L 72.791923 239.489753 
L 73.387547 231.447452 
L 73.98317 239.19189 
L 74.578794 236.21326 
L 75.174417 224.894466 
L 75.770041 244.255562 
L 76.365664 235.021808 
L 76.961288 247.532055 
L 77.556912 243.659836 
L 78.152535 247.234192 
L 79.343782 229.064548 
L 79.939406 243.659836 
L 80.535029 228.468822 
L 81.130653 238.894027 
L 81.726276 228.468822 
L 82.3219 230.851726 
L 82.917524 236.808986 
L 83.513147 235.319671 
L 84.108771 229.362411 
L 84.704394 241.276932 
L 85.300018 236.511123 
L 85.895641 226.085918 
L 86.491265 238.894027 
L 87.086888 234.128219 
L 87.682512 242.468384 
L 88.278136 232.341041 
L 88.873759 230.256 
L 89.469383 233.23463 
L 90.065006 229.362411 
L 90.66063 235.915397 
L 91.256253 228.766685 
L 91.851877 238.894027 
L 92.4475 237.106849 
L 93.043124 232.936767 
L 93.638748 234.723945 
L 94.234371 243.361973 
L 94.829995 243.957699 
L 95.425618 243.957699 
L 96.021242 237.106849 
L 96.616865 237.106849 
L 97.808112 235.915397 
L 98.403736 231.149589 
L 98.99936 238.596164 
L 99.594983 236.21326 
L 100.190607 242.766247 
L 100.78623 239.489753 
L 101.381854 239.787616 
L 101.977477 241.276932 
L 102.573101 236.21326 
L 103.168724 238.894027 
L 103.764348 239.489753 
L 104.359972 233.830356 
L 104.955595 234.128219 
L 105.551219 221.32011 
L 106.146842 231.149589 
L 106.742466 232.936767 
L 107.338089 233.532493 
L 107.933713 236.808986 
L 108.529336 233.830356 
L 109.12496 232.341041 
L 109.720584 227.873096 
L 110.316207 238.298301 
L 110.911831 235.319671 
L 111.507454 234.723945 
L 112.103078 235.617534 
L 112.698701 246.04274 
L 113.294325 239.489753 
L 113.889948 240.085479 
L 114.485572 226.085918 
L 115.081196 229.660274 
L 115.676819 236.21326 
L 116.272443 229.064548 
L 116.868066 239.19189 
L 117.46369 233.830356 
L 118.059313 231.447452 
L 118.654937 227.27737 
L 119.25056 232.341041 
L 119.846184 243.361973 
L 120.441808 243.957699 
L 121.037431 234.426082 
L 121.633055 252 
L 122.228678 229.660274 
L 122.824302 225.192329 
L 123.419925 237.404712 
L 124.015549 238.298301 
L 124.611172 237.404712 
L 125.206796 226.681644 
L 125.802419 231.149589 
L 126.993667 229.362411 
L 127.58929 241.276932 
L 128.184914 243.957699 
L 128.780537 241.276932 
L 129.376161 229.958137 
L 129.971784 232.043178 
L 130.567408 235.617534 
L 131.163031 241.872658 
L 131.758655 233.23463 
L 132.949902 238.298301 
L 133.545526 237.702575 
L 134.141149 242.468384 
L 134.736773 227.873096 
L 135.332396 227.575233 
L 136.523643 241.276932 
L 137.119267 237.106849 
L 137.714891 249.617096 
L 138.310514 229.064548 
L 138.906138 231.447452 
L 139.501761 244.255562 
L 140.097385 233.830356 
L 140.693008 246.04274 
L 141.288632 229.958137 
L 141.884255 236.21326 
L 142.479879 236.808986 
L 143.075503 224.29874 
L 143.671126 236.808986 
L 144.26675 236.511123 
L 144.862373 244.255562 
L 145.457997 236.808986 
L 146.05362 232.043178 
L 146.649244 230.553863 
L 147.244867 241.872658 
L 147.840491 227.873096 
L 148.436115 239.489753 
L 149.031738 244.851288 
L 149.627362 226.085918 
L 150.222985 237.702575 
L 150.818609 233.830356 
L 151.414232 246.936329 
L 152.009856 232.043178 
L 152.605479 226.979507 
L 153.201103 238.894027 
L 153.796727 243.957699 
L 154.39235 229.362411 
L 154.987974 236.511123 
L 155.583597 242.170521 
L 156.179221 240.085479 
L 156.774844 238.596164 
L 157.370468 241.574795 
L 157.966091 235.021808 
L 158.561715 243.06411 
L 159.157339 235.319671 
L 159.752962 235.617534 
L 160.348586 230.851726 
L 160.944209 223.703014 
L 161.539833 222.809425 
L 162.135456 234.426082 
L 162.73108 225.490192 
L 163.326703 226.085918 
L 163.922327 228.468822 
L 164.517951 236.511123 
L 165.113574 238.000438 
L 165.709198 231.745315 
L 166.304821 230.256 
L 166.900445 232.043178 
L 167.496068 231.447452 
L 168.091692 232.936767 
L 168.687315 229.660274 
L 169.282939 236.21326 
L 169.878563 236.808986 
L 170.474186 232.043178 
L 171.06981 235.915397 
L 172.261057 227.873096 
L 172.85668 234.723945 
L 173.452304 231.149589 
L 174.047927 239.19189 
L 174.643551 236.808986 
L 175.239175 232.638904 
L 175.834798 246.340603 
L 176.430422 232.043178 
L 177.026045 231.149589 
L 177.621669 244.553425 
L 178.217292 239.787616 
L 178.812916 239.489753 
L 179.408539 238.596164 
L 180.004163 234.128219 
L 180.599787 230.851726 
L 181.19541 234.128219 
L 181.791034 232.043178 
L 182.386657 230.851726 
L 182.982281 247.234192 
L 183.577904 229.958137 
L 184.173528 236.21326 
L 184.769151 235.319671 
L 185.364775 233.532493 
L 185.960399 229.660274 
L 186.556022 239.787616 
L 187.151646 227.873096 
L 187.747269 224.000877 
L 188.342893 235.915397 
L 190.129763 232.341041 
L 190.725387 232.638904 
L 191.916634 237.702575 
L 192.512258 234.128219 
L 193.107881 234.128219 
L 193.703505 229.362411 
L 194.299128 241.574795 
L 194.894752 241.276932 
L 195.490375 238.596164 
L 196.085999 237.404712 
L 196.681622 228.468822 
L 197.277246 234.128219 
L 197.87287 226.681644 
L 198.468493 236.21326 
L 199.064117 226.979507 
L 199.65974 230.256 
L 200.255364 217.150027 
L 200.850987 201.363288 
L 201.446611 170.087671 
L 202.042234 149.832986 
L 202.637858 142.684274 
L 203.233482 93.83474 
L 203.829105 75.665096 
L 204.424729 37.53863 
L 205.020352 38.432219 
L 205.615976 34.56 
L 206.211599 55.410411 
L 206.807223 59.878356 
L 207.402846 105.153534 
L 207.99847 113.791562 
L 208.594094 150.130849 
L 209.189717 162.343233 
L 209.785341 165.917589 
L 210.380964 202.852603 
L 210.976588 228.170959 
L 211.572211 233.532493 
L 212.167835 227.575233 
L 212.763458 232.638904 
L 213.359082 221.617973 
L 214.550329 240.085479 
L 215.741576 223.107288 
L 216.3372 234.426082 
L 216.932823 216.256438 
L 217.528447 228.766685 
L 218.12407 206.724822 
L 218.719694 205.831233 
L 219.910941 175.747068 
L 220.506565 181.108603 
L 221.102188 160.258192 
L 221.697812 174.853479 
L 222.293435 165.321863 
L 222.889059 192.427397 
L 223.484682 196.299616 
L 224.080306 208.809863 
L 224.67593 218.639342 
L 225.271553 220.724384 
L 225.867177 244.255562 
L 226.4628 239.489753 
L 227.058424 232.936767 
L 227.654047 231.447452 
L 228.249671 238.894027 
L 228.845294 238.000438 
L 229.440918 230.553863 
L 230.036542 237.702575 
L 230.632165 236.511123 
L 231.227789 235.915397 
L 231.823412 236.808986 
L 232.419036 227.873096 
L 233.610283 239.489753 
L 234.205906 240.383342 
L 234.80153 235.021808 
L 235.397154 241.872658 
L 235.992777 232.043178 
L 236.588401 239.19189 
L 237.184024 236.808986 
L 237.779648 240.383342 
L 238.375271 237.404712 
L 238.970895 236.21326 
L 239.566518 235.617534 
L 240.162142 227.873096 
L 240.757766 230.256 
L 241.353389 239.19189 
L 241.949013 244.553425 
L 242.544636 229.660274 
L 243.14026 236.21326 
L 243.735883 229.958137 
L 244.92713 237.404712 
L 245.522754 233.23463 
L 246.118378 236.511123 
L 246.714001 229.064548 
L 247.309625 231.447452 
L 247.905248 229.958137 
L 248.500872 238.894027 
L 249.096495 231.149589 
L 250.287742 242.468384 
L 250.883366 239.19189 
L 251.47899 233.532493 
L 252.074613 237.106849 
L 252.670237 242.170521 
L 253.26586 238.298301 
L 253.861484 228.170959 
L 254.457107 233.23463 
L 255.052731 236.808986 
L 255.648354 243.06411 
L 256.243978 223.703014 
L 256.839601 238.000438 
L 257.435225 237.404712 
L 258.030849 232.638904 
L 258.626472 232.043178 
L 259.222096 248.425644 
L 259.817719 233.532493 
L 261.008966 243.957699 
L 261.60459 232.638904 
L 262.795837 241.276932 
L 263.391461 237.702575 
L 263.987084 237.702575 
L 264.582708 230.553863 
L 265.178331 233.532493 
L 265.773955 237.404712 
L 266.369578 232.043178 
L 266.965202 235.915397 
L 267.560825 234.426082 
L 268.156449 238.596164 
L 268.752073 246.936329 
L 269.347696 219.830795 
L 269.94332 230.851726 
L 270.538943 232.043178 
L 271.134567 233.830356 
L 271.73019 234.426082 
L 272.325814 238.894027 
L 272.921437 225.490192 
L 273.517061 230.256 
L 274.112685 241.574795 
L 274.708308 227.27737 
L 275.303932 241.574795 
L 275.899555 223.107288 
L 276.495179 239.489753 
L 277.090802 231.149589 
L 277.686426 234.426082 
L 278.282049 235.617534 
L 278.877673 233.532493 
L 279.473297 230.553863 
L 280.06892 231.745315 
L 280.664544 234.723945 
L 281.260167 235.021808 
L 281.855791 231.745315 
L 282.451414 241.872658 
L 283.047038 232.043178 
L 283.642661 241.872658 
L 284.238285 243.06411 
L 284.833909 238.894027 
L 285.429532 237.404712 
L 286.025156 237.106849 
L 286.620779 231.447452 
L 287.216403 236.511123 
L 287.812026 239.19189 
L 288.40765 239.787616 
L 289.003273 242.766247 
L 289.598897 236.808986 
L 290.194521 239.489753 
L 290.790144 221.617973 
L 291.385768 237.106849 
L 291.981391 229.362411 
L 292.577015 229.958137 
L 293.172638 243.361973 
L 293.768262 244.255562 
L 294.363885 236.808986 
L 294.959509 234.128219 
L 295.555133 235.617534 
L 296.150756 232.638904 
L 296.74638 227.27737 
L 297.342003 229.064548 
L 297.937627 245.149151 
L 298.53325 231.447452 
L 299.128874 229.362411 
L 299.724497 226.681644 
L 300.320121 232.936767 
L 300.915745 235.319671 
L 301.511368 231.149589 
L 302.106992 235.319671 
L 302.702615 233.532493 
L 303.298239 223.703014 
L 303.893862 239.19189 
L 304.489486 232.936767 
L 305.085109 245.447014 
L 305.680733 238.298301 
L 306.276357 239.489753 
L 306.87198 248.723507 
L 307.467604 238.000438 
L 308.063227 244.851288 
L 308.658851 235.915397 
L 309.254474 230.851726 
L 309.850098 233.532493 
L 310.445721 225.788055 
L 311.041345 237.404712 
L 311.636969 239.19189 
L 312.232592 231.447452 
L 312.828216 241.872658 
L 313.423839 234.723945 
L 314.019463 235.021808 
L 314.615086 242.766247 
L 315.21071 238.298301 
L 315.806333 237.404712 
L 316.401957 233.830356 
L 316.997581 234.723945 
L 317.593204 238.298301 
L 318.188828 229.958137 
L 318.784451 234.128219 
L 319.380075 232.936767 
L 319.975698 232.936767 
L 320.571322 229.362411 
L 321.166945 240.681205 
L 321.762569 233.23463 
L 322.358192 235.021808 
L 322.953816 235.915397 
L 323.54944 232.341041 
L 324.145063 235.319671 
L 324.740687 240.979068 
L 325.33631 231.447452 
L 325.931934 238.000438 
L 326.527557 230.851726 
L 327.123181 239.787616 
L 327.718804 227.873096 
L 328.314428 242.468384 
L 328.910052 239.787616 
L 329.505675 229.958137 
L 330.101299 228.468822 
L 331.292546 237.106849 
L 331.888169 237.106849 
L 332.483793 242.766247 
L 333.079416 230.553863 
L 333.67504 232.341041 
L 334.270664 229.362411 
L 334.866287 240.979068 
L 335.461911 225.788055 
L 336.057534 224.894466 
L 336.653158 240.383342 
L 337.248781 237.702575 
L 337.844405 232.936767 
L 338.440028 231.149589 
L 339.035652 238.298301 
L 339.631276 238.596164 
L 340.226899 244.255562 
L 340.822523 232.043178 
L 341.418146 241.276932 
L 342.01377 234.128219 
L 342.609393 247.234192 
L 343.205017 236.21326 
L 343.80064 243.06411 
L 344.396264 237.702575 
L 344.991888 234.426082 
L 345.587511 232.638904 
L 346.183135 237.404712 
L 346.778758 240.383342 
L 347.374382 230.851726 
L 347.970005 237.404712 
L 348.565629 231.745315 
L 349.161252 231.745315 
L 349.756876 226.979507 
L 350.3525 243.06411 
L 350.948123 243.659836 
L 351.543747 234.723945 
L 352.13937 231.745315 
L 352.734994 225.192329 
L 353.330617 231.149589 
L 353.926241 234.128219 
L 354.521864 243.361973 
L 355.117488 228.468822 
L 355.713112 227.575233 
L 356.308735 229.958137 
L 356.904359 245.447014 
L 358.095606 232.043178 
L 358.691229 235.915397 
L 359.286853 228.170959 
L 359.882476 232.341041 
L 360.4781 231.745315 
L 361.073724 229.064548 
L 361.669347 230.553863 
L 362.264971 232.936767 
L 362.860594 238.000438 
L 363.456218 231.149589 
L 364.051841 229.958137 
L 364.647465 226.681644 
L 365.243088 232.043178 
L 365.838712 233.830356 
L 366.434336 241.276932 
L 367.029959 224.596603 
L 367.625583 234.128219 
L 368.221206 228.468822 
L 368.81683 236.808986 
L 369.412453 239.19189 
L 370.6037 229.064548 
L 371.199324 231.745315 
L 371.794948 226.085918 
L 372.390571 230.851726 
L 372.986195 232.043178 
L 373.581818 246.04274 
L 373.581818 246.04274 
" clip-path="url(#p8a0ef383c4)" style="fill: none; stroke: #2ca02c; stroke-width: 1.5; stroke-linecap: square"/>
   </g>
   <g id="patch_3">
    <path d="M 54 252 
L 54 34.56 
" style="fill: none; stroke: #000000; stroke-width: 0.8; stroke-linejoin: miter; stroke-linecap: square"/>
   </g>
   <g id="patch_4">
    <path d="M 388.8 252 
L 388.8 34.56 
" style="fill: none; stroke: #000000; stroke-width: 0.8; stroke-linejoin: miter; stroke-linecap: square"/>
   </g>
   <g id="patch_5">
    <path d="M 54 252 
L 388.8 252 
" style="fill: none; stroke: #000000; stroke-width: 0.8; stroke-linejoin: miter; stroke-linecap: square"/>
   </g>
   <g id="patch_6">
    <path d="M 54 34.56 
L 388.8 34.56 
" style="fill: none; stroke: #000000; stroke-width: 0.8; stroke-linejoin: miter; stroke-linecap: square"/>
   </g>
   <g id="text_15">
    <!-- Label 5 normalized -->
    <g transform="translate(164.240625 28.56)scale(0.12 -0.12)">
     <defs>
      <path id="DejaVuSans-4c" d="M 628 4666 
L 1259 4666 
L 1259 531 
L 3531 531 
L 3531 0 
L 628 0 
L 628 4666 
z
" transform="scale(0.015625)"/>
      <path id="DejaVuSans-61" d="M 2194 1759 
Q 1497 1759 1228 1600 
Q 959 1441 959 1056 
Q 959 750 1161 570 
Q 1363 391 1709 391 
Q 2188 391 2477 730 
Q 2766 1069 2766 1631 
L 2766 1759 
L 2194 1759 
z
M 3341 1997 
L 3341 0 
L 2766 0 
L 2766 531 
Q 2569 213 2275 61 
Q 1981 -91 1556 -91 
Q 1019 -91 701 211 
Q 384 513 384 1019 
Q 384 1609 779 1909 
Q 1175 2209 1959 2209 
L 2766 2209 
L 2766 2266 
Q 2766 2663 2505 2880 
Q 2244 3097 1772 3097 
Q 1472 3097 1187 3025 
Q 903 2953 641 2809 
L 641 3341 
Q 956 3463 1253 3523 
Q 1550 3584 1831 3584 
Q 2591 3584 2966 3190 
Q 3341 2797 3341 1997 
z
" transform="scale(0.015625)"/>
      <path id="DejaVuSans-65" d="M 3597 1894 
L 3597 1613 
L 953 1613 
Q 991 1019 1311 708 
Q 1631 397 2203 397 
Q 2534 397 2845 478 
Q 3156 559 3463 722 
L 3463 178 
Q 3153 47 2828 -22 
Q 2503 -91 2169 -91 
Q 1331 -91 842 396 
Q 353 884 353 1716 
Q 353 2575 817 3079 
Q 1281 3584 2069 3584 
Q 2775 3584 3186 3129 
Q 3597 2675 3597 1894 
z
M 3022 2063 
Q 3016 2534 2758 2815 
Q 2500 3097 2075 3097 
Q 1594 3097 1305 2825 
Q 1016 2553 972 2059 
L 3022 2063 
z
" transform="scale(0.015625)"/>
      <path id="DejaVuSans-6c" d="M 603 4863 
L 1178 4863 
L 1178 0 
L 603 0 
L 603 4863 
z
" transform="scale(0.015625)"/>
      <path id="DejaVuSans-20" transform="scale(0.015625)"/>
      <path id="DejaVuSans-72" d="M 2631 2963 
Q 2534 3019 2420 3045 
Q 2306 3072 2169 3072 
Q 1681 3072 1420 2755 
Q 1159 2438 1159 1844 
L 1159 0 
L 581 0 
L 581 3500 
L 1159 3500 
L 1159 2956 
Q 1341 3275 1631 3429 
Q 1922 3584 2338 3584 
Q 2397 3584 2469 3576 
Q 2541 3569 2628 3553 
L 2631 2963 
z
" transform="scale(0.015625)"/>
      <path id="DejaVuSans-6d" d="M 3328 2828 
Q 3544 3216 3844 3400 
Q 4144 3584 4550 3584 
Q 5097 3584 5394 3201 
Q 5691 2819 5691 2113 
L 5691 0 
L 5113 0 
L 5113 2094 
Q 5113 2597 4934 2840 
Q 4756 3084 4391 3084 
Q 3944 3084 3684 2787 
Q 3425 2491 3425 1978 
L 3425 0 
L 2847 0 
L 2847 2094 
Q 2847 2600 2669 2842 
Q 2491 3084 2119 3084 
Q 1678 3084 1418 2786 
Q 1159 2488 1159 1978 
L 1159 0 
L 581 0 
L 581 3500 
L 1159 3500 
L 1159 2956 
Q 1356 3278 1631 3431 
Q 1906 3584 2284 3584 
Q 2666 3584 2933 3390 
Q 3200 3197 3328 2828 
z
" transform="scale(0.015625)"/>
      <path id="DejaVuSans-7a" d="M 353 3500 
L 3084 3500 
L 3084 2975 
L 922 459 
L 3084 459 
L 3084 0 
L 275 0 
L 275 525 
L 2438 3041 
L 353 3041 
L 353 3500 
z
" transform="scale(0.015625)"/>
      <path id="DejaVuSans-64" d="M 2906 2969 
L 2906 4863 
L 3481 4863 
L 3481 0 
L 2906 0 
L 2906 525 
Q 2725 213 2448 61 
Q 2172 -91 1784 -91 
Q 1150 -91 751 415 
Q 353 922 353 1747 
Q 353 2572 751 3078 
Q 1150 3584 1784 3584 
Q 2172 3584 2448 3432 
Q 2725 3281 2906 2969 
z
M 947 1747 
Q 947 1113 1208 752 
Q 1469 391 1925 391 
Q 2381 391 2643 752 
Q 2906 1113 2906 1747 
Q 2906 2381 2643 2742 
Q 2381 3103 1925 3103 
Q 1469 3103 1208 2742 
Q 947 2381 947 1747 
z
" transform="scale(0.015625)"/>
     </defs>
     <use xlink:href="#DejaVuSans-4c"/>
     <use xlink:href="#DejaVuSans-61" x="55.712891"/>
     <use xlink:href="#DejaVuSans-62" x="116.992188"/>
     <use xlink:href="#DejaVuSans-65" x="180.46875"/>
     <use xlink:href="#DejaVuSans-6c" x="241.992188"/>
     <use xlink:href="#DejaVuSans-20" x="269.775391"/>
     <use xlink:href="#DejaVuSans-35" x="301.5625"/>
     <use xlink:href="#DejaVuSans-20" x="365.185547"/>
     <use xlink:href="#DejaVuSans-6e" x="396.972656"/>
     <use xlink:href="#DejaVuSans-6f" x="460.351562"/>
     <use xlink:href="#DejaVuSans-72" x="521.533203"/>
     <use xlink:href="#DejaVuSans-6d" x="560.896484"/>
     <use xlink:href="#DejaVuSans-61" x="658.308594"/>
     <use xlink:href="#DejaVuSans-6c" x="719.587891"/>
     <use xlink:href="#DejaVuSans-69" x="747.371094"/>
     <use xlink:href="#DejaVuSans-7a" x="775.154297"/>
     <use xlink:href="#DejaVuSans-65" x="827.644531"/>
     <use xlink:href="#DejaVuSans-64" x="889.167969"/>
    </g>
   </g>
   <g id="legend_1">
    <g id="patch_7">
     <path d="M 309.070312 101.2725 
L 381.8 101.2725 
Q 383.8 101.2725 383.8 99.2725 
L 383.8 41.56 
Q 383.8 39.56 381.8 39.56 
L 309.070312 39.56 
Q 307.070312 39.56 307.070312 41.56 
L 307.070312 99.2725 
Q 307.070312 101.2725 309.070312 101.2725 
z
" style="fill: #ffffff; opacity: 0.8; stroke: #cccccc; stroke-linejoin: miter"/>
    </g>
    <g id="text_16">
     <!-- Trace number -->
     <g transform="translate(311.070312 51.158437)scale(0.1 -0.1)">
      <defs>
       <path id="DejaVuSans-54" d="M -19 4666 
L 3928 4666 
L 3928 4134 
L 2272 4134 
L 2272 0 
L 1638 0 
L 1638 4134 
L -19 4134 
L -19 4666 
z
" transform="scale(0.015625)"/>
      </defs>
      <use xlink:href="#DejaVuSans-54"/>
      <use xlink:href="#DejaVuSans-72" x="46.333984"/>
      <use xlink:href="#DejaVuSans-61" x="87.447266"/>
      <use xlink:href="#DejaVuSans-63" x="148.726562"/>
      <use xlink:href="#DejaVuSans-65" x="203.707031"/>
      <use xlink:href="#DejaVuSans-20" x="265.230469"/>
      <use xlink:href="#DejaVuSans-6e" x="297.017578"/>
      <use xlink:href="#DejaVuSans-75" x="360.396484"/>
      <use xlink:href="#DejaVuSans-6d" x="423.775391"/>
      <use xlink:href="#DejaVuSans-62" x="521.1875"/>
      <use xlink:href="#DejaVuSans-65" x="584.664062"/>
      <use xlink:href="#DejaVuSans-72" x="646.1875"/>
     </g>
    </g>
    <g id="line2d_28">
     <path d="M 325.072656 62.336562 
L 335.072656 62.336562 
L 345.072656 62.336562 
" style="fill: none; stroke: #1f77b4; stroke-width: 1.5; stroke-linecap: square"/>
    </g>
    <g id="text_17">
     <!-- 74 -->
     <g transform="translate(353.072656 65.836562)scale(0.1 -0.1)">
      <defs>
       <path id="DejaVuSans-37" d="M 525 4666 
L 3525 4666 
L 3525 4397 
L 1831 0 
L 1172 0 
L 2766 4134 
L 525 4134 
L 525 4666 
z
" transform="scale(0.015625)"/>
      </defs>
      <use xlink:href="#DejaVuSans-37"/>
      <use xlink:href="#DejaVuSans-34" x="63.623047"/>
     </g>
    </g>
    <g id="line2d_29">
     <path d="M 325.072656 77.014687 
L 335.072656 77.014687 
L 345.072656 77.014687 
" style="fill: none; stroke: #ff7f0e; stroke-width: 1.5; stroke-linecap: square"/>
    </g>
    <g id="text_18">
     <!-- 80 -->
     <g transform="translate(353.072656 80.514687)scale(0.1 -0.1)">
      <use xlink:href="#DejaVuSans-38"/>
      <use xlink:href="#DejaVuSans-30" x="63.623047"/>
     </g>
    </g>
    <g id="line2d_30">
     <path d="M 325.072656 91.692813 
L 335.072656 91.692813 
L 345.072656 91.692813 
" style="fill: none; stroke: #2ca02c; stroke-width: 1.5; stroke-linecap: square"/>
    </g>
    <g id="text_19">
     <!-- 90 -->
     <g transform="translate(353.072656 95.192813)scale(0.1 -0.1)">
      <defs>
       <path id="DejaVuSans-39" d="M 703 97 
L 703 672 
Q 941 559 1184 500 
Q 1428 441 1663 441 
Q 2288 441 2617 861 
Q 2947 1281 2994 2138 
Q 2813 1869 2534 1725 
Q 2256 1581 1919 1581 
Q 1219 1581 811 2004 
Q 403 2428 403 3163 
Q 403 3881 828 4315 
Q 1253 4750 1959 4750 
Q 2769 4750 3195 4129 
Q 3622 3509 3622 2328 
Q 3622 1225 3098 567 
Q 2575 -91 1691 -91 
Q 1453 -91 1209 -44 
Q 966 3 703 97 
z
M 1959 2075 
Q 2384 2075 2632 2365 
Q 2881 2656 2881 3163 
Q 2881 3666 2632 3958 
Q 2384 4250 1959 4250 
Q 1534 4250 1286 3958 
Q 1038 3666 1038 3163 
Q 1038 2656 1286 2365 
Q 1534 2075 1959 2075 
z
" transform="scale(0.015625)"/>
      </defs>
      <use xlink:href="#DejaVuSans-39"/>
      <use xlink:href="#DejaVuSans-30" x="63.623047"/>
     </g>
    </g>
   </g>
  </g>
 </g>
 <defs>
  <clipPath id="p8a0ef383c4">
   <rect x="54" y="34.56" width="334.8" height="217.44"/>
  </clipPath>
 </defs>
</svg>
