<?xml version="1.0" encoding="utf-8" standalone="no"?>
<!DOCTYPE svg PUBLIC "-//W3C//DTD SVG 1.1//EN"
  "http://www.w3.org/Graphics/SVG/1.1/DTD/svg11.dtd">
<svg xmlns:xlink="http://www.w3.org/1999/xlink" width="432pt" height="288pt" viewBox="0 0 432 288" xmlns="http://www.w3.org/2000/svg" version="1.1">
 <metadata>
  <rdf:RDF xmlns:dc="http://purl.org/dc/elements/1.1/" xmlns:cc="http://creativecommons.org/ns#" xmlns:rdf="http://www.w3.org/1999/02/22-rdf-syntax-ns#">
   <cc:Work>
    <dc:type rdf:resource="http://purl.org/dc/dcmitype/StillImage"/>
    <dc:date>2022-03-30T13:16:47.579795</dc:date>
    <dc:format>image/svg+xml</dc:format>
    <dc:creator>
     <cc:Agent>
      <dc:title>Matplotlib v3.5.1, https://matplotlib.org/</dc:title>
     </cc:Agent>
    </dc:creator>
   </cc:Work>
  </rdf:RDF>
 </metadata>
 <defs>
  <style type="text/css">*{stroke-linejoin: round; stroke-linecap: butt}</style>
 </defs>
 <g id="figure_1">
  <g id="patch_1">
   <path d="M 0 288 
L 432 288 
L 432 0 
L 0 0 
z
" style="fill: #ffffff"/>
  </g>
  <g id="axes_1">
   <g id="patch_2">
    <path d="M 54 252 
L 388.8 252 
L 388.8 34.56 
L 54 34.56 
z
" style="fill: #ffffff"/>
   </g>
   <g id="matplotlib.axis_1">
    <g id="xtick_1">
     <g id="line2d_1">
      <path d="M 69.218182 252 
L 69.218182 34.56 
" clip-path="url(#pb37a830c63)" style="fill: none; stroke: #b0b0b0; stroke-width: 0.8; stroke-linecap: square"/>
     </g>
     <g id="line2d_2">
      <defs>
       <path id="m4c4985cd2a" d="M 0 0 
L 0 3.5 
" style="stroke: #000000; stroke-width: 0.8"/>
      </defs>
      <g>
       <use xlink:href="#m4c4985cd2a" x="69.218182" y="252" style="stroke: #000000; stroke-width: 0.8"/>
      </g>
     </g>
     <g id="text_1">
      <!-- 0 -->
      <g transform="translate(66.036932 266.598437)scale(0.1 -0.1)">
       <defs>
        <path id="DejaVuSans-30" d="M 2034 4250 
Q 1547 4250 1301 3770 
Q 1056 3291 1056 2328 
Q 1056 1369 1301 889 
Q 1547 409 2034 409 
Q 2525 409 2770 889 
Q 3016 1369 3016 2328 
Q 3016 3291 2770 3770 
Q 2525 4250 2034 4250 
z
M 2034 4750 
Q 2819 4750 3233 4129 
Q 3647 3509 3647 2328 
Q 3647 1150 3233 529 
Q 2819 -91 2034 -91 
Q 1250 -91 836 529 
Q 422 1150 422 2328 
Q 422 3509 836 4129 
Q 1250 4750 2034 4750 
z
" transform="scale(0.015625)"/>
       </defs>
       <use xlink:href="#DejaVuSans-30"/>
      </g>
     </g>
    </g>
    <g id="xtick_2">
     <g id="line2d_3">
      <path d="M 128.780537 252 
L 128.780537 34.56 
" clip-path="url(#pb37a830c63)" style="fill: none; stroke: #b0b0b0; stroke-width: 0.8; stroke-linecap: square"/>
     </g>
     <g id="line2d_4">
      <g>
       <use xlink:href="#m4c4985cd2a" x="128.780537" y="252" style="stroke: #000000; stroke-width: 0.8"/>
      </g>
     </g>
     <g id="text_2">
      <!-- 100 -->
      <g transform="translate(119.236787 266.598437)scale(0.1 -0.1)">
       <defs>
        <path id="DejaVuSans-31" d="M 794 531 
L 1825 531 
L 1825 4091 
L 703 3866 
L 703 4441 
L 1819 4666 
L 2450 4666 
L 2450 531 
L 3481 531 
L 3481 0 
L 794 0 
L 794 531 
z
" transform="scale(0.015625)"/>
       </defs>
       <use xlink:href="#DejaVuSans-31"/>
       <use xlink:href="#DejaVuSans-30" x="63.623047"/>
       <use xlink:href="#DejaVuSans-30" x="127.246094"/>
      </g>
     </g>
    </g>
    <g id="xtick_3">
     <g id="line2d_5">
      <path d="M 188.342893 252 
L 188.342893 34.56 
" clip-path="url(#pb37a830c63)" style="fill: none; stroke: #b0b0b0; stroke-width: 0.8; stroke-linecap: square"/>
     </g>
     <g id="line2d_6">
      <g>
       <use xlink:href="#m4c4985cd2a" x="188.342893" y="252" style="stroke: #000000; stroke-width: 0.8"/>
      </g>
     </g>
     <g id="text_3">
      <!-- 200 -->
      <g transform="translate(178.799143 266.598437)scale(0.1 -0.1)">
       <defs>
        <path id="DejaVuSans-32" d="M 1228 531 
L 3431 531 
L 3431 0 
L 469 0 
L 469 531 
Q 828 903 1448 1529 
Q 2069 2156 2228 2338 
Q 2531 2678 2651 2914 
Q 2772 3150 2772 3378 
Q 2772 3750 2511 3984 
Q 2250 4219 1831 4219 
Q 1534 4219 1204 4116 
Q 875 4013 500 3803 
L 500 4441 
Q 881 4594 1212 4672 
Q 1544 4750 1819 4750 
Q 2544 4750 2975 4387 
Q 3406 4025 3406 3419 
Q 3406 3131 3298 2873 
Q 3191 2616 2906 2266 
Q 2828 2175 2409 1742 
Q 1991 1309 1228 531 
z
" transform="scale(0.015625)"/>
       </defs>
       <use xlink:href="#DejaVuSans-32"/>
       <use xlink:href="#DejaVuSans-30" x="63.623047"/>
       <use xlink:href="#DejaVuSans-30" x="127.246094"/>
      </g>
     </g>
    </g>
    <g id="xtick_4">
     <g id="line2d_7">
      <path d="M 247.905248 252 
L 247.905248 34.56 
" clip-path="url(#pb37a830c63)" style="fill: none; stroke: #b0b0b0; stroke-width: 0.8; stroke-linecap: square"/>
     </g>
     <g id="line2d_8">
      <g>
       <use xlink:href="#m4c4985cd2a" x="247.905248" y="252" style="stroke: #000000; stroke-width: 0.8"/>
      </g>
     </g>
     <g id="text_4">
      <!-- 300 -->
      <g transform="translate(238.361498 266.598437)scale(0.1 -0.1)">
       <defs>
        <path id="DejaVuSans-33" d="M 2597 2516 
Q 3050 2419 3304 2112 
Q 3559 1806 3559 1356 
Q 3559 666 3084 287 
Q 2609 -91 1734 -91 
Q 1441 -91 1130 -33 
Q 819 25 488 141 
L 488 750 
Q 750 597 1062 519 
Q 1375 441 1716 441 
Q 2309 441 2620 675 
Q 2931 909 2931 1356 
Q 2931 1769 2642 2001 
Q 2353 2234 1838 2234 
L 1294 2234 
L 1294 2753 
L 1863 2753 
Q 2328 2753 2575 2939 
Q 2822 3125 2822 3475 
Q 2822 3834 2567 4026 
Q 2313 4219 1838 4219 
Q 1578 4219 1281 4162 
Q 984 4106 628 3988 
L 628 4550 
Q 988 4650 1302 4700 
Q 1616 4750 1894 4750 
Q 2613 4750 3031 4423 
Q 3450 4097 3450 3541 
Q 3450 3153 3228 2886 
Q 3006 2619 2597 2516 
z
" transform="scale(0.015625)"/>
       </defs>
       <use xlink:href="#DejaVuSans-33"/>
       <use xlink:href="#DejaVuSans-30" x="63.623047"/>
       <use xlink:href="#DejaVuSans-30" x="127.246094"/>
      </g>
     </g>
    </g>
    <g id="xtick_5">
     <g id="line2d_9">
      <path d="M 307.467604 252 
L 307.467604 34.56 
" clip-path="url(#pb37a830c63)" style="fill: none; stroke: #b0b0b0; stroke-width: 0.8; stroke-linecap: square"/>
     </g>
     <g id="line2d_10">
      <g>
       <use xlink:href="#m4c4985cd2a" x="307.467604" y="252" style="stroke: #000000; stroke-width: 0.8"/>
      </g>
     </g>
     <g id="text_5">
      <!-- 400 -->
      <g transform="translate(297.923854 266.598437)scale(0.1 -0.1)">
       <defs>
        <path id="DejaVuSans-34" d="M 2419 4116 
L 825 1625 
L 2419 1625 
L 2419 4116 
z
M 2253 4666 
L 3047 4666 
L 3047 1625 
L 3713 1625 
L 3713 1100 
L 3047 1100 
L 3047 0 
L 2419 0 
L 2419 1100 
L 313 1100 
L 313 1709 
L 2253 4666 
z
" transform="scale(0.015625)"/>
       </defs>
       <use xlink:href="#DejaVuSans-34"/>
       <use xlink:href="#DejaVuSans-30" x="63.623047"/>
       <use xlink:href="#DejaVuSans-30" x="127.246094"/>
      </g>
     </g>
    </g>
    <g id="xtick_6">
     <g id="line2d_11">
      <path d="M 367.029959 252 
L 367.029959 34.56 
" clip-path="url(#pb37a830c63)" style="fill: none; stroke: #b0b0b0; stroke-width: 0.8; stroke-linecap: square"/>
     </g>
     <g id="line2d_12">
      <g>
       <use xlink:href="#m4c4985cd2a" x="367.029959" y="252" style="stroke: #000000; stroke-width: 0.8"/>
      </g>
     </g>
     <g id="text_6">
      <!-- 500 -->
      <g transform="translate(357.486209 266.598437)scale(0.1 -0.1)">
       <defs>
        <path id="DejaVuSans-35" d="M 691 4666 
L 3169 4666 
L 3169 4134 
L 1269 4134 
L 1269 2991 
Q 1406 3038 1543 3061 
Q 1681 3084 1819 3084 
Q 2600 3084 3056 2656 
Q 3513 2228 3513 1497 
Q 3513 744 3044 326 
Q 2575 -91 1722 -91 
Q 1428 -91 1123 -41 
Q 819 9 494 109 
L 494 744 
Q 775 591 1075 516 
Q 1375 441 1709 441 
Q 2250 441 2565 725 
Q 2881 1009 2881 1497 
Q 2881 1984 2565 2268 
Q 2250 2553 1709 2553 
Q 1456 2553 1204 2497 
Q 953 2441 691 2322 
L 691 4666 
z
" transform="scale(0.015625)"/>
       </defs>
       <use xlink:href="#DejaVuSans-35"/>
       <use xlink:href="#DejaVuSans-30" x="63.623047"/>
       <use xlink:href="#DejaVuSans-30" x="127.246094"/>
      </g>
     </g>
    </g>
    <g id="text_7">
     <!-- bin -->
     <g transform="translate(213.667969 280.276563)scale(0.1 -0.1)">
      <defs>
       <path id="DejaVuSans-62" d="M 3116 1747 
Q 3116 2381 2855 2742 
Q 2594 3103 2138 3103 
Q 1681 3103 1420 2742 
Q 1159 2381 1159 1747 
Q 1159 1113 1420 752 
Q 1681 391 2138 391 
Q 2594 391 2855 752 
Q 3116 1113 3116 1747 
z
M 1159 2969 
Q 1341 3281 1617 3432 
Q 1894 3584 2278 3584 
Q 2916 3584 3314 3078 
Q 3713 2572 3713 1747 
Q 3713 922 3314 415 
Q 2916 -91 2278 -91 
Q 1894 -91 1617 61 
Q 1341 213 1159 525 
L 1159 0 
L 581 0 
L 581 4863 
L 1159 4863 
L 1159 2969 
z
" transform="scale(0.015625)"/>
       <path id="DejaVuSans-69" d="M 603 3500 
L 1178 3500 
L 1178 0 
L 603 0 
L 603 3500 
z
M 603 4863 
L 1178 4863 
L 1178 4134 
L 603 4134 
L 603 4863 
z
" transform="scale(0.015625)"/>
       <path id="DejaVuSans-6e" d="M 3513 2113 
L 3513 0 
L 2938 0 
L 2938 2094 
Q 2938 2591 2744 2837 
Q 2550 3084 2163 3084 
Q 1697 3084 1428 2787 
Q 1159 2491 1159 1978 
L 1159 0 
L 581 0 
L 581 3500 
L 1159 3500 
L 1159 2956 
Q 1366 3272 1645 3428 
Q 1925 3584 2291 3584 
Q 2894 3584 3203 3211 
Q 3513 2838 3513 2113 
z
" transform="scale(0.015625)"/>
      </defs>
      <use xlink:href="#DejaVuSans-62"/>
      <use xlink:href="#DejaVuSans-69" x="63.476562"/>
      <use xlink:href="#DejaVuSans-6e" x="91.259766"/>
     </g>
    </g>
   </g>
   <g id="matplotlib.axis_2">
    <g id="ytick_1">
     <g id="line2d_13">
      <path d="M 54 252 
L 388.8 252 
" clip-path="url(#pb37a830c63)" style="fill: none; stroke: #b0b0b0; stroke-width: 0.8; stroke-linecap: square"/>
     </g>
     <g id="line2d_14">
      <defs>
       <path id="m47ffaa1c43" d="M 0 0 
L -3.5 0 
" style="stroke: #000000; stroke-width: 0.8"/>
      </defs>
      <g>
       <use xlink:href="#m47ffaa1c43" x="54" y="252" style="stroke: #000000; stroke-width: 0.8"/>
      </g>
     </g>
     <g id="text_8">
      <!-- 0.0 -->
      <g transform="translate(31.096875 255.799219)scale(0.1 -0.1)">
       <defs>
        <path id="DejaVuSans-2e" d="M 684 794 
L 1344 794 
L 1344 0 
L 684 0 
L 684 794 
z
" transform="scale(0.015625)"/>
       </defs>
       <use xlink:href="#DejaVuSans-30"/>
       <use xlink:href="#DejaVuSans-2e" x="63.623047"/>
       <use xlink:href="#DejaVuSans-30" x="95.410156"/>
      </g>
     </g>
    </g>
    <g id="ytick_2">
     <g id="line2d_15">
      <path d="M 54 208.512 
L 388.8 208.512 
" clip-path="url(#pb37a830c63)" style="fill: none; stroke: #b0b0b0; stroke-width: 0.8; stroke-linecap: square"/>
     </g>
     <g id="line2d_16">
      <g>
       <use xlink:href="#m47ffaa1c43" x="54" y="208.512" style="stroke: #000000; stroke-width: 0.8"/>
      </g>
     </g>
     <g id="text_9">
      <!-- 0.2 -->
      <g transform="translate(31.096875 212.311219)scale(0.1 -0.1)">
       <use xlink:href="#DejaVuSans-30"/>
       <use xlink:href="#DejaVuSans-2e" x="63.623047"/>
       <use xlink:href="#DejaVuSans-32" x="95.410156"/>
      </g>
     </g>
    </g>
    <g id="ytick_3">
     <g id="line2d_17">
      <path d="M 54 165.024 
L 388.8 165.024 
" clip-path="url(#pb37a830c63)" style="fill: none; stroke: #b0b0b0; stroke-width: 0.8; stroke-linecap: square"/>
     </g>
     <g id="line2d_18">
      <g>
       <use xlink:href="#m47ffaa1c43" x="54" y="165.024" style="stroke: #000000; stroke-width: 0.8"/>
      </g>
     </g>
     <g id="text_10">
      <!-- 0.4 -->
      <g transform="translate(31.096875 168.823219)scale(0.1 -0.1)">
       <use xlink:href="#DejaVuSans-30"/>
       <use xlink:href="#DejaVuSans-2e" x="63.623047"/>
       <use xlink:href="#DejaVuSans-34" x="95.410156"/>
      </g>
     </g>
    </g>
    <g id="ytick_4">
     <g id="line2d_19">
      <path d="M 54 121.536 
L 388.8 121.536 
" clip-path="url(#pb37a830c63)" style="fill: none; stroke: #b0b0b0; stroke-width: 0.8; stroke-linecap: square"/>
     </g>
     <g id="line2d_20">
      <g>
       <use xlink:href="#m47ffaa1c43" x="54" y="121.536" style="stroke: #000000; stroke-width: 0.8"/>
      </g>
     </g>
     <g id="text_11">
      <!-- 0.6 -->
      <g transform="translate(31.096875 125.335219)scale(0.1 -0.1)">
       <defs>
        <path id="DejaVuSans-36" d="M 2113 2584 
Q 1688 2584 1439 2293 
Q 1191 2003 1191 1497 
Q 1191 994 1439 701 
Q 1688 409 2113 409 
Q 2538 409 2786 701 
Q 3034 994 3034 1497 
Q 3034 2003 2786 2293 
Q 2538 2584 2113 2584 
z
M 3366 4563 
L 3366 3988 
Q 3128 4100 2886 4159 
Q 2644 4219 2406 4219 
Q 1781 4219 1451 3797 
Q 1122 3375 1075 2522 
Q 1259 2794 1537 2939 
Q 1816 3084 2150 3084 
Q 2853 3084 3261 2657 
Q 3669 2231 3669 1497 
Q 3669 778 3244 343 
Q 2819 -91 2113 -91 
Q 1303 -91 875 529 
Q 447 1150 447 2328 
Q 447 3434 972 4092 
Q 1497 4750 2381 4750 
Q 2619 4750 2861 4703 
Q 3103 4656 3366 4563 
z
" transform="scale(0.015625)"/>
       </defs>
       <use xlink:href="#DejaVuSans-30"/>
       <use xlink:href="#DejaVuSans-2e" x="63.623047"/>
       <use xlink:href="#DejaVuSans-36" x="95.410156"/>
      </g>
     </g>
    </g>
    <g id="ytick_5">
     <g id="line2d_21">
      <path d="M 54 78.048 
L 388.8 78.048 
" clip-path="url(#pb37a830c63)" style="fill: none; stroke: #b0b0b0; stroke-width: 0.8; stroke-linecap: square"/>
     </g>
     <g id="line2d_22">
      <g>
       <use xlink:href="#m47ffaa1c43" x="54" y="78.048" style="stroke: #000000; stroke-width: 0.8"/>
      </g>
     </g>
     <g id="text_12">
      <!-- 0.8 -->
      <g transform="translate(31.096875 81.847219)scale(0.1 -0.1)">
       <defs>
        <path id="DejaVuSans-38" d="M 2034 2216 
Q 1584 2216 1326 1975 
Q 1069 1734 1069 1313 
Q 1069 891 1326 650 
Q 1584 409 2034 409 
Q 2484 409 2743 651 
Q 3003 894 3003 1313 
Q 3003 1734 2745 1975 
Q 2488 2216 2034 2216 
z
M 1403 2484 
Q 997 2584 770 2862 
Q 544 3141 544 3541 
Q 544 4100 942 4425 
Q 1341 4750 2034 4750 
Q 2731 4750 3128 4425 
Q 3525 4100 3525 3541 
Q 3525 3141 3298 2862 
Q 3072 2584 2669 2484 
Q 3125 2378 3379 2068 
Q 3634 1759 3634 1313 
Q 3634 634 3220 271 
Q 2806 -91 2034 -91 
Q 1263 -91 848 271 
Q 434 634 434 1313 
Q 434 1759 690 2068 
Q 947 2378 1403 2484 
z
M 1172 3481 
Q 1172 3119 1398 2916 
Q 1625 2713 2034 2713 
Q 2441 2713 2670 2916 
Q 2900 3119 2900 3481 
Q 2900 3844 2670 4047 
Q 2441 4250 2034 4250 
Q 1625 4250 1398 4047 
Q 1172 3844 1172 3481 
z
" transform="scale(0.015625)"/>
       </defs>
       <use xlink:href="#DejaVuSans-30"/>
       <use xlink:href="#DejaVuSans-2e" x="63.623047"/>
       <use xlink:href="#DejaVuSans-38" x="95.410156"/>
      </g>
     </g>
    </g>
    <g id="ytick_6">
     <g id="line2d_23">
      <path d="M 54 34.56 
L 388.8 34.56 
" clip-path="url(#pb37a830c63)" style="fill: none; stroke: #b0b0b0; stroke-width: 0.8; stroke-linecap: square"/>
     </g>
     <g id="line2d_24">
      <g>
       <use xlink:href="#m47ffaa1c43" x="54" y="34.56" style="stroke: #000000; stroke-width: 0.8"/>
      </g>
     </g>
     <g id="text_13">
      <!-- 1.0 -->
      <g transform="translate(31.096875 38.359219)scale(0.1 -0.1)">
       <use xlink:href="#DejaVuSans-31"/>
       <use xlink:href="#DejaVuSans-2e" x="63.623047"/>
       <use xlink:href="#DejaVuSans-30" x="95.410156"/>
      </g>
     </g>
    </g>
    <g id="text_14">
     <!-- count -->
     <g transform="translate(25.017187 157.38625)rotate(-90)scale(0.1 -0.1)">
      <defs>
       <path id="DejaVuSans-63" d="M 3122 3366 
L 3122 2828 
Q 2878 2963 2633 3030 
Q 2388 3097 2138 3097 
Q 1578 3097 1268 2742 
Q 959 2388 959 1747 
Q 959 1106 1268 751 
Q 1578 397 2138 397 
Q 2388 397 2633 464 
Q 2878 531 3122 666 
L 3122 134 
Q 2881 22 2623 -34 
Q 2366 -91 2075 -91 
Q 1284 -91 818 406 
Q 353 903 353 1747 
Q 353 2603 823 3093 
Q 1294 3584 2113 3584 
Q 2378 3584 2631 3529 
Q 2884 3475 3122 3366 
z
" transform="scale(0.015625)"/>
       <path id="DejaVuSans-6f" d="M 1959 3097 
Q 1497 3097 1228 2736 
Q 959 2375 959 1747 
Q 959 1119 1226 758 
Q 1494 397 1959 397 
Q 2419 397 2687 759 
Q 2956 1122 2956 1747 
Q 2956 2369 2687 2733 
Q 2419 3097 1959 3097 
z
M 1959 3584 
Q 2709 3584 3137 3096 
Q 3566 2609 3566 1747 
Q 3566 888 3137 398 
Q 2709 -91 1959 -91 
Q 1206 -91 779 398 
Q 353 888 353 1747 
Q 353 2609 779 3096 
Q 1206 3584 1959 3584 
z
" transform="scale(0.015625)"/>
       <path id="DejaVuSans-75" d="M 544 1381 
L 544 3500 
L 1119 3500 
L 1119 1403 
Q 1119 906 1312 657 
Q 1506 409 1894 409 
Q 2359 409 2629 706 
Q 2900 1003 2900 1516 
L 2900 3500 
L 3475 3500 
L 3475 0 
L 2900 0 
L 2900 538 
Q 2691 219 2414 64 
Q 2138 -91 1772 -91 
Q 1169 -91 856 284 
Q 544 659 544 1381 
z
M 1991 3584 
L 1991 3584 
z
" transform="scale(0.015625)"/>
       <path id="DejaVuSans-74" d="M 1172 4494 
L 1172 3500 
L 2356 3500 
L 2356 3053 
L 1172 3053 
L 1172 1153 
Q 1172 725 1289 603 
Q 1406 481 1766 481 
L 2356 481 
L 2356 0 
L 1766 0 
Q 1100 0 847 248 
Q 594 497 594 1153 
L 594 3053 
L 172 3053 
L 172 3500 
L 594 3500 
L 594 4494 
L 1172 4494 
z
" transform="scale(0.015625)"/>
      </defs>
      <use xlink:href="#DejaVuSans-63"/>
      <use xlink:href="#DejaVuSans-6f" x="54.980469"/>
      <use xlink:href="#DejaVuSans-75" x="116.162109"/>
      <use xlink:href="#DejaVuSans-6e" x="179.541016"/>
      <use xlink:href="#DejaVuSans-74" x="242.919922"/>
     </g>
    </g>
   </g>
   <g id="line2d_25">
    <path d="M 69.218182 186.768 
L 69.813805 143.28 
L 70.409429 230.256 
L 71.005052 186.768 
L 71.600676 230.256 
L 72.1963 252 
L 72.791923 165.024 
L 73.387547 230.256 
L 73.98317 208.512 
L 74.578794 230.256 
L 75.174417 121.536 
L 75.770041 186.768 
L 76.365664 143.28 
L 76.961288 230.256 
L 77.556912 208.512 
L 78.748159 208.512 
L 79.343782 252 
L 79.939406 208.512 
L 80.535029 186.768 
L 81.130653 208.512 
L 81.726276 186.768 
L 82.3219 186.768 
L 82.917524 208.512 
L 83.513147 165.024 
L 84.108771 208.512 
L 84.704394 165.024 
L 85.300018 252 
L 85.895641 143.28 
L 86.491265 143.28 
L 87.086888 208.512 
L 87.682512 121.536 
L 88.278136 143.28 
L 88.873759 208.512 
L 89.469383 186.768 
L 90.065006 186.768 
L 90.66063 165.024 
L 91.256253 186.768 
L 91.851877 34.56 
L 92.4475 165.024 
L 93.043124 208.512 
L 93.638748 143.28 
L 94.234371 186.768 
L 94.829995 186.768 
L 95.425618 165.024 
L 96.021242 165.024 
L 96.616865 208.512 
L 97.212489 186.768 
L 97.808112 186.768 
L 98.99936 230.256 
L 99.594983 186.768 
L 100.190607 186.768 
L 100.78623 230.256 
L 101.381854 186.768 
L 101.977477 252 
L 102.573101 165.024 
L 103.168724 208.512 
L 103.764348 230.256 
L 104.359972 208.512 
L 104.955595 252 
L 105.551219 208.512 
L 106.146842 208.512 
L 106.742466 165.024 
L 107.338089 230.256 
L 107.933713 186.768 
L 109.12496 230.256 
L 109.720584 208.512 
L 110.316207 165.024 
L 110.911831 186.768 
L 111.507454 165.024 
L 112.103078 230.256 
L 112.698701 230.256 
L 113.294325 252 
L 113.889948 186.768 
L 114.485572 186.768 
L 115.676819 230.256 
L 116.272443 121.536 
L 116.868066 230.256 
L 117.46369 230.256 
L 118.059313 186.768 
L 118.654937 208.512 
L 119.25056 121.536 
L 119.846184 99.792 
L 121.037431 230.256 
L 121.633055 143.28 
L 122.228678 121.536 
L 122.824302 165.024 
L 123.419925 165.024 
L 124.015549 186.768 
L 124.611172 186.768 
L 125.206796 230.256 
L 126.398043 230.256 
L 126.993667 165.024 
L 127.58929 208.512 
L 128.184914 186.768 
L 128.780537 230.256 
L 129.376161 208.512 
L 129.971784 165.024 
L 130.567408 208.512 
L 131.163031 230.256 
L 131.758655 230.256 
L 132.354279 252 
L 132.949902 165.024 
L 133.545526 99.792 
L 134.141149 230.256 
L 134.736773 165.024 
L 135.92802 208.512 
L 136.523643 165.024 
L 137.119267 208.512 
L 137.714891 208.512 
L 138.310514 230.256 
L 138.906138 230.256 
L 139.501761 252 
L 140.097385 165.024 
L 140.693008 230.256 
L 141.288632 230.256 
L 141.884255 208.512 
L 142.479879 208.512 
L 143.075503 252 
L 143.671126 121.536 
L 144.26675 165.024 
L 144.862373 143.28 
L 145.457997 208.512 
L 146.05362 252 
L 147.244867 208.512 
L 147.840491 165.024 
L 148.436115 186.768 
L 149.627362 186.768 
L 150.222985 165.024 
L 150.818609 165.024 
L 151.414232 230.256 
L 152.009856 186.768 
L 152.605479 230.256 
L 153.201103 99.792 
L 153.796727 208.512 
L 154.39235 208.512 
L 154.987974 143.28 
L 156.179221 230.256 
L 157.370468 186.768 
L 157.966091 208.512 
L 158.561715 121.536 
L 159.157339 186.768 
L 159.752962 165.024 
L 160.348586 121.536 
L 160.944209 230.256 
L 161.539833 186.768 
L 162.73108 186.768 
L 163.326703 230.256 
L 163.922327 208.512 
L 164.517951 208.512 
L 165.709198 165.024 
L 166.304821 208.512 
L 166.900445 208.512 
L 167.496068 165.024 
L 168.091692 230.256 
L 168.687315 208.512 
L 169.282939 208.512 
L 169.878563 230.256 
L 170.474186 165.024 
L 171.06981 186.768 
L 171.665433 230.256 
L 172.261057 186.768 
L 172.85668 165.024 
L 173.452304 208.512 
L 174.047927 186.768 
L 175.239175 230.256 
L 175.834798 186.768 
L 176.430422 165.024 
L 177.026045 230.256 
L 177.621669 208.512 
L 178.217292 230.256 
L 178.812916 208.512 
L 180.004163 208.512 
L 180.599787 78.048 
L 181.791034 208.512 
L 182.386657 143.28 
L 182.982281 186.768 
L 184.173528 186.768 
L 184.769151 208.512 
L 185.960399 165.024 
L 186.556022 165.024 
L 187.151646 208.512 
L 187.747269 143.28 
L 188.342893 230.256 
L 188.938516 252 
L 189.53414 165.024 
L 190.129763 208.512 
L 190.725387 230.256 
L 191.32101 230.256 
L 191.916634 186.768 
L 192.512258 186.768 
L 193.107881 230.256 
L 194.299128 230.256 
L 194.894752 208.512 
L 195.490375 121.536 
L 196.085999 208.512 
L 196.681622 230.256 
L 197.277246 143.28 
L 197.87287 208.512 
L 198.468493 230.256 
L 199.064117 230.256 
L 200.255364 186.768 
L 200.850987 252 
L 201.446611 186.768 
L 202.042234 165.024 
L 203.233482 208.512 
L 203.829105 186.768 
L 204.424729 186.768 
L 205.020352 230.256 
L 205.615976 186.768 
L 206.211599 208.512 
L 206.807223 186.768 
L 207.402846 186.768 
L 207.99847 252 
L 209.189717 208.512 
L 209.785341 230.256 
L 210.380964 165.024 
L 210.976588 143.28 
L 211.572211 252 
L 212.167835 165.024 
L 212.763458 208.512 
L 213.359082 186.768 
L 213.954706 230.256 
L 214.550329 165.024 
L 215.145953 165.024 
L 215.741576 230.256 
L 216.3372 165.024 
L 216.932823 143.28 
L 217.528447 208.512 
L 218.12407 186.768 
L 218.719694 143.28 
L 219.315318 121.536 
L 219.910941 208.512 
L 221.697812 208.512 
L 222.293435 143.28 
L 222.889059 186.768 
L 223.484682 252 
L 224.080306 208.512 
L 225.271553 208.512 
L 225.867177 121.536 
L 226.4628 208.512 
L 227.058424 165.024 
L 227.654047 208.512 
L 228.249671 165.024 
L 228.845294 143.28 
L 229.440918 143.28 
L 230.632165 230.256 
L 231.227789 230.256 
L 231.823412 208.512 
L 232.419036 230.256 
L 233.014659 186.768 
L 233.610283 230.256 
L 234.205906 186.768 
L 234.80153 121.536 
L 235.397154 208.512 
L 235.992777 186.768 
L 236.588401 186.768 
L 237.184024 143.28 
L 237.779648 208.512 
L 238.375271 165.024 
L 238.970895 230.256 
L 239.566518 143.28 
L 240.162142 186.768 
L 240.757766 186.768 
L 241.353389 230.256 
L 241.949013 186.768 
L 242.544636 208.512 
L 243.14026 143.28 
L 243.735883 208.512 
L 244.331507 230.256 
L 244.92713 230.256 
L 245.522754 252 
L 246.118378 99.792 
L 246.714001 230.256 
L 248.500872 230.256 
L 249.692119 186.768 
L 250.287742 186.768 
L 250.883366 208.512 
L 251.47899 186.768 
L 252.074613 121.536 
L 252.670237 230.256 
L 253.26586 121.536 
L 253.861484 252 
L 254.457107 230.256 
L 255.648354 230.256 
L 256.243978 99.792 
L 256.839601 143.28 
L 257.435225 143.28 
L 258.626472 230.256 
L 259.222096 165.024 
L 259.817719 143.28 
L 260.413343 230.256 
L 261.008966 186.768 
L 261.60459 186.768 
L 262.795837 230.256 
L 263.391461 208.512 
L 263.987084 252 
L 264.582708 230.256 
L 265.178331 186.768 
L 265.773955 208.512 
L 266.369578 143.28 
L 266.965202 208.512 
L 267.560825 121.536 
L 268.156449 230.256 
L 268.752073 186.768 
L 269.347696 165.024 
L 269.94332 208.512 
L 270.538943 121.536 
L 271.134567 208.512 
L 271.73019 186.768 
L 272.325814 208.512 
L 272.921437 186.768 
L 273.517061 208.512 
L 274.112685 186.768 
L 275.303932 230.256 
L 275.899555 143.28 
L 276.495179 186.768 
L 277.090802 143.28 
L 277.686426 230.256 
L 278.282049 230.256 
L 278.877673 208.512 
L 279.473297 208.512 
L 280.06892 186.768 
L 280.664544 230.256 
L 282.451414 165.024 
L 283.047038 165.024 
L 283.642661 230.256 
L 284.238285 230.256 
L 284.833909 186.768 
L 285.429532 230.256 
L 286.025156 143.28 
L 286.620779 230.256 
L 288.40765 165.024 
L 289.003273 230.256 
L 289.598897 208.512 
L 290.194521 143.28 
L 290.790144 186.768 
L 291.385768 208.512 
L 291.981391 208.512 
L 292.577015 165.024 
L 293.768262 252 
L 294.363885 252 
L 296.150756 186.768 
L 296.74638 208.512 
L 297.342003 208.512 
L 297.937627 165.024 
L 298.53325 230.256 
L 299.128874 143.28 
L 299.724497 230.256 
L 300.320121 252 
L 300.915745 165.024 
L 301.511368 208.512 
L 302.106992 208.512 
L 302.702615 78.048 
L 303.298239 186.768 
L 303.893862 165.024 
L 304.489486 252 
L 305.085109 208.512 
L 306.276357 252 
L 306.87198 252 
L 307.467604 186.768 
L 308.063227 230.256 
L 308.658851 78.048 
L 309.254474 230.256 
L 309.850098 230.256 
L 310.445721 186.768 
L 311.041345 186.768 
L 311.636969 165.024 
L 312.232592 230.256 
L 312.828216 165.024 
L 313.423839 208.512 
L 314.019463 165.024 
L 314.615086 143.28 
L 315.21071 208.512 
L 315.806333 143.28 
L 316.401957 143.28 
L 316.997581 208.512 
L 317.593204 186.768 
L 318.188828 230.256 
L 318.784451 186.768 
L 319.380075 230.256 
L 319.975698 186.768 
L 320.571322 186.768 
L 321.166945 165.024 
L 321.762569 252 
L 322.358192 208.512 
L 322.953816 186.768 
L 323.54944 208.512 
L 324.145063 186.768 
L 324.740687 230.256 
L 325.33631 186.768 
L 325.931934 186.768 
L 326.527557 252 
L 327.123181 165.024 
L 327.718804 143.28 
L 328.314428 208.512 
L 329.505675 165.024 
L 330.101299 230.256 
L 330.696922 186.768 
L 331.292546 78.048 
L 331.888169 230.256 
L 332.483793 252 
L 333.079416 186.768 
L 333.67504 165.024 
L 334.270664 208.512 
L 334.866287 208.512 
L 335.461911 121.536 
L 336.057534 165.024 
L 336.653158 230.256 
L 337.248781 165.024 
L 337.844405 143.28 
L 338.440028 230.256 
L 339.035652 208.512 
L 339.631276 230.256 
L 340.226899 208.512 
L 340.822523 165.024 
L 342.01377 208.512 
L 342.609393 165.024 
L 343.205017 186.768 
L 343.80064 230.256 
L 344.396264 165.024 
L 344.991888 230.256 
L 346.183135 230.256 
L 346.778758 186.768 
L 347.374382 208.512 
L 347.970005 186.768 
L 348.565629 230.256 
L 349.161252 186.768 
L 350.3525 186.768 
L 350.948123 230.256 
L 351.543747 121.536 
L 352.13937 252 
L 353.330617 208.512 
L 353.926241 230.256 
L 354.521864 143.28 
L 355.117488 121.536 
L 355.713112 230.256 
L 356.308735 230.256 
L 357.499982 186.768 
L 358.095606 99.792 
L 358.691229 208.512 
L 359.286853 186.768 
L 359.882476 208.512 
L 360.4781 186.768 
L 361.073724 230.256 
L 361.669347 165.024 
L 362.264971 230.256 
L 362.860594 230.256 
L 363.456218 252 
L 365.243088 121.536 
L 365.838712 186.768 
L 366.434336 99.792 
L 367.029959 143.28 
L 367.625583 252 
L 368.221206 165.024 
L 368.81683 186.768 
L 369.412453 230.256 
L 370.6037 186.768 
L 371.794948 186.768 
L 372.390571 230.256 
L 372.986195 230.256 
L 373.581818 143.28 
L 373.581818 143.28 
" clip-path="url(#pb37a830c63)" style="fill: none; stroke: #1f77b4; stroke-width: 1.5; stroke-linecap: square"/>
   </g>
   <g id="line2d_26">
    <path d="M 69.218182 234.177049 
L 69.813805 235.365246 
L 70.409429 215.165902 
L 71.005052 204.472131 
L 71.600676 232.988852 
L 72.1963 234.177049 
L 72.791923 219.918689 
L 73.387547 234.177049 
L 73.98317 221.106885 
L 74.578794 216.354098 
L 75.174417 222.295082 
L 75.770041 224.671475 
L 76.365664 212.789508 
L 76.961288 211.601311 
L 77.556912 222.295082 
L 78.152535 222.295082 
L 78.748159 237.741639 
L 79.343782 217.542295 
L 79.939406 203.283934 
L 80.535029 231.800656 
L 81.130653 234.177049 
L 81.726276 205.660328 
L 82.3219 235.365246 
L 82.917524 219.918689 
L 83.513147 225.859672 
L 84.108771 212.789508 
L 84.704394 218.730492 
L 85.300018 232.988852 
L 85.895641 219.918689 
L 86.491265 230.612459 
L 87.086888 224.671475 
L 87.682512 225.859672 
L 88.278136 228.236066 
L 88.873759 235.365246 
L 89.469383 235.365246 
L 90.065006 237.741639 
L 90.66063 224.671475 
L 91.256253 228.236066 
L 91.851877 212.789508 
L 92.4475 218.730492 
L 93.043124 212.789508 
L 93.638748 204.472131 
L 94.234371 229.424262 
L 94.829995 222.295082 
L 95.425618 235.365246 
L 96.021242 216.354098 
L 96.616865 223.483279 
L 97.212489 240.118033 
L 97.808112 234.177049 
L 98.403736 222.295082 
L 98.99936 218.730492 
L 99.594983 227.047869 
L 100.190607 229.424262 
L 100.78623 230.612459 
L 101.381854 225.859672 
L 101.977477 225.859672 
L 102.573101 227.047869 
L 103.168724 223.483279 
L 103.764348 230.612459 
L 104.359972 230.612459 
L 104.955595 210.413115 
L 105.551219 216.354098 
L 106.146842 224.671475 
L 106.742466 225.859672 
L 107.338089 234.177049 
L 107.933713 208.036721 
L 108.529336 215.165902 
L 109.12496 231.800656 
L 109.720584 227.047869 
L 110.316207 237.741639 
L 110.911831 218.730492 
L 111.507454 210.413115 
L 112.698701 223.483279 
L 113.294325 223.483279 
L 113.889948 236.553443 
L 115.081196 200.907541 
L 115.676819 224.671475 
L 116.272443 222.295082 
L 116.868066 236.553443 
L 117.46369 225.859672 
L 118.059313 223.483279 
L 118.654937 224.671475 
L 119.25056 238.929836 
L 119.846184 210.413115 
L 120.441808 211.601311 
L 121.037431 225.859672 
L 121.633055 223.483279 
L 122.228678 230.612459 
L 122.824302 228.236066 
L 123.419925 217.542295 
L 124.015549 215.165902 
L 124.611172 231.800656 
L 125.206796 219.918689 
L 125.802419 231.800656 
L 126.398043 236.553443 
L 126.993667 231.800656 
L 127.58929 232.988852 
L 128.184914 231.800656 
L 128.780537 217.542295 
L 129.376161 222.295082 
L 129.971784 241.30623 
L 130.567408 218.730492 
L 131.163031 212.789508 
L 131.758655 244.87082 
L 132.949902 221.106885 
L 133.545526 229.424262 
L 134.141149 222.295082 
L 134.736773 224.671475 
L 135.332396 209.224918 
L 135.92802 219.918689 
L 136.523643 238.929836 
L 137.119267 212.789508 
L 138.310514 231.800656 
L 138.906138 227.047869 
L 139.501761 225.859672 
L 140.097385 210.413115 
L 140.693008 222.295082 
L 141.288632 211.601311 
L 141.884255 216.354098 
L 142.479879 231.800656 
L 143.075503 221.106885 
L 143.671126 227.047869 
L 144.26675 229.424262 
L 144.862373 230.612459 
L 145.457997 228.236066 
L 146.05362 236.553443 
L 146.649244 229.424262 
L 147.244867 224.671475 
L 147.840491 222.295082 
L 148.436115 240.118033 
L 149.031738 235.365246 
L 149.627362 229.424262 
L 150.222985 222.295082 
L 150.818609 234.177049 
L 151.414232 235.365246 
L 152.009856 243.682623 
L 152.605479 229.424262 
L 153.201103 237.741639 
L 153.796727 210.413115 
L 154.39235 218.730492 
L 154.987974 218.730492 
L 155.583597 230.612459 
L 156.179221 230.612459 
L 156.774844 219.918689 
L 157.370468 244.87082 
L 157.966091 237.741639 
L 158.561715 234.177049 
L 159.157339 225.859672 
L 159.752962 228.236066 
L 160.348586 217.542295 
L 160.944209 236.553443 
L 161.539833 242.494426 
L 162.135456 205.660328 
L 162.73108 212.789508 
L 163.326703 203.283934 
L 163.922327 242.494426 
L 164.517951 209.224918 
L 165.113574 225.859672 
L 165.709198 224.671475 
L 166.304821 237.741639 
L 166.900445 218.730492 
L 167.496068 232.988852 
L 168.091692 231.800656 
L 168.687315 232.988852 
L 169.282939 243.682623 
L 169.878563 249.623607 
L 170.474186 217.542295 
L 171.06981 237.741639 
L 171.665433 235.365246 
L 172.261057 215.165902 
L 172.85668 219.918689 
L 173.452304 221.106885 
L 174.047927 219.918689 
L 175.834798 219.918689 
L 176.430422 225.859672 
L 177.026045 221.106885 
L 177.621669 211.601311 
L 178.217292 232.988852 
L 178.812916 210.413115 
L 179.408539 241.30623 
L 180.004163 219.918689 
L 180.599787 230.612459 
L 181.791034 208.036721 
L 182.386657 210.413115 
L 182.982281 231.800656 
L 183.577904 223.483279 
L 184.173528 221.106885 
L 184.769151 215.165902 
L 185.364775 237.741639 
L 185.960399 241.30623 
L 186.556022 229.424262 
L 187.151646 228.236066 
L 187.747269 234.177049 
L 188.342893 223.483279 
L 188.938516 217.542295 
L 189.53414 222.295082 
L 190.129763 223.483279 
L 190.725387 242.494426 
L 191.32101 229.424262 
L 191.916634 232.988852 
L 192.512258 230.612459 
L 193.107881 217.542295 
L 193.703505 231.800656 
L 194.299128 225.859672 
L 194.894752 228.236066 
L 195.490375 224.671475 
L 196.085999 237.741639 
L 196.681622 227.047869 
L 197.277246 230.612459 
L 197.87287 229.424262 
L 198.468493 210.413115 
L 199.064117 242.494426 
L 199.65974 229.424262 
L 200.255364 221.106885 
L 200.850987 221.106885 
L 202.042234 228.236066 
L 202.637858 219.918689 
L 203.233482 224.671475 
L 203.829105 221.106885 
L 204.424729 244.87082 
L 205.020352 219.918689 
L 205.615976 205.660328 
L 206.211599 215.165902 
L 206.807223 212.789508 
L 207.402846 216.354098 
L 207.99847 218.730492 
L 209.189717 218.730492 
L 209.785341 222.295082 
L 210.380964 209.224918 
L 210.976588 234.177049 
L 211.572211 231.800656 
L 212.167835 210.413115 
L 212.763458 217.542295 
L 213.359082 199.719344 
L 213.954706 225.859672 
L 214.550329 210.413115 
L 215.145953 204.472131 
L 215.741576 51.194754 
L 216.3372 193.778361 
L 216.932823 229.424262 
L 217.528447 232.988852 
L 218.12407 232.988852 
L 218.719694 219.918689 
L 219.315318 238.929836 
L 219.910941 244.87082 
L 220.506565 232.988852 
L 221.102188 252 
L 221.697812 216.354098 
L 222.293435 206.848525 
L 222.889059 230.612459 
L 223.484682 229.424262 
L 224.080306 218.730492 
L 224.67593 229.424262 
L 225.271553 216.354098 
L 225.867177 227.047869 
L 226.4628 225.859672 
L 227.654047 230.612459 
L 228.249671 166.449836 
L 228.845294 34.56 
L 229.440918 55.947541 
L 230.036542 222.295082 
L 230.632165 237.741639 
L 231.227789 213.977705 
L 231.823412 240.118033 
L 232.419036 215.165902 
L 233.014659 203.283934 
L 233.610283 225.859672 
L 234.205906 243.682623 
L 234.80153 243.682623 
L 235.397154 221.106885 
L 235.992777 227.047869 
L 236.588401 210.413115 
L 237.184024 225.859672 
L 237.779648 237.741639 
L 238.970895 232.988852 
L 239.566518 231.800656 
L 240.162142 218.730492 
L 240.757766 225.859672 
L 241.353389 235.365246 
L 241.949013 231.800656 
L 242.544636 230.612459 
L 243.14026 212.789508 
L 243.735883 222.295082 
L 244.331507 223.483279 
L 244.92713 241.30623 
L 245.522754 229.424262 
L 246.118378 234.177049 
L 246.714001 211.601311 
L 247.905248 225.859672 
L 248.500872 222.295082 
L 249.096495 212.789508 
L 249.692119 232.988852 
L 250.287742 236.553443 
L 250.883366 232.988852 
L 251.47899 216.354098 
L 252.074613 218.730492 
L 253.26586 216.354098 
L 253.861484 243.682623 
L 255.052731 215.165902 
L 255.648354 221.106885 
L 256.243978 228.236066 
L 256.839601 237.741639 
L 257.435225 241.30623 
L 258.030849 232.988852 
L 258.626472 235.365246 
L 259.222096 215.165902 
L 259.817719 223.483279 
L 260.413343 213.977705 
L 261.008966 219.918689 
L 261.60459 230.612459 
L 262.200213 228.236066 
L 262.795837 235.365246 
L 263.391461 228.236066 
L 263.987084 229.424262 
L 264.582708 229.424262 
L 265.178331 221.106885 
L 266.369578 213.977705 
L 267.560825 241.30623 
L 268.156449 212.789508 
L 268.752073 204.472131 
L 269.347696 236.553443 
L 269.94332 229.424262 
L 270.538943 227.047869 
L 271.134567 235.365246 
L 271.73019 227.047869 
L 272.325814 225.859672 
L 272.921437 227.047869 
L 273.517061 210.413115 
L 274.112685 240.118033 
L 274.708308 203.283934 
L 275.303932 230.612459 
L 275.899555 242.494426 
L 276.495179 205.660328 
L 277.090802 221.106885 
L 277.686426 222.295082 
L 278.282049 212.789508 
L 278.877673 221.106885 
L 279.473297 221.106885 
L 280.06892 211.601311 
L 280.664544 234.177049 
L 281.260167 225.859672 
L 281.855791 219.918689 
L 282.451414 235.365246 
L 283.047038 227.047869 
L 283.642661 236.553443 
L 284.238285 216.354098 
L 284.833909 231.800656 
L 285.429532 225.859672 
L 286.025156 216.354098 
L 286.620779 238.929836 
L 287.216403 236.553443 
L 288.40765 208.036721 
L 289.003273 219.918689 
L 289.598897 221.106885 
L 290.194521 235.365246 
L 290.790144 224.671475 
L 291.385768 229.424262 
L 291.981391 235.365246 
L 292.577015 227.047869 
L 293.172638 230.612459 
L 293.768262 241.30623 
L 294.363885 218.730492 
L 294.959509 221.106885 
L 295.555133 206.848525 
L 296.150756 210.413115 
L 296.74638 212.789508 
L 297.342003 223.483279 
L 297.937627 216.354098 
L 298.53325 225.859672 
L 299.724497 228.236066 
L 300.320121 244.87082 
L 300.915745 211.601311 
L 301.511368 232.988852 
L 302.106992 217.542295 
L 302.702615 223.483279 
L 303.298239 212.789508 
L 303.893862 206.848525 
L 304.489486 228.236066 
L 305.085109 231.800656 
L 305.680733 216.354098 
L 306.276357 222.295082 
L 306.87198 210.413115 
L 308.063227 230.612459 
L 308.658851 232.988852 
L 309.254474 211.601311 
L 309.850098 240.118033 
L 310.445721 225.859672 
L 311.041345 221.106885 
L 312.232592 236.553443 
L 312.828216 216.354098 
L 313.423839 204.472131 
L 314.019463 229.424262 
L 314.615086 218.730492 
L 315.21071 218.730492 
L 315.806333 230.612459 
L 316.401957 232.988852 
L 316.997581 216.354098 
L 318.188828 234.177049 
L 318.784451 234.177049 
L 319.380075 216.354098 
L 319.975698 221.106885 
L 320.571322 219.918689 
L 321.166945 246.059016 
L 321.762569 230.612459 
L 322.358192 227.047869 
L 322.953816 200.907541 
L 323.54944 223.483279 
L 324.145063 224.671475 
L 324.740687 203.283934 
L 325.33631 227.047869 
L 325.931934 228.236066 
L 327.123181 228.236066 
L 327.718804 218.730492 
L 328.314428 232.988852 
L 328.910052 217.542295 
L 329.505675 218.730492 
L 330.101299 223.483279 
L 330.696922 230.612459 
L 331.292546 235.365246 
L 331.888169 227.047869 
L 332.483793 212.789508 
L 333.079416 223.483279 
L 333.67504 227.047869 
L 334.270664 217.542295 
L 334.866287 221.106885 
L 335.461911 230.612459 
L 336.057534 190.21377 
L 336.653158 217.542295 
L 337.248781 211.601311 
L 337.844405 241.30623 
L 338.440028 203.283934 
L 339.035652 205.660328 
L 339.631276 219.918689 
L 340.226899 211.601311 
L 340.822523 232.988852 
L 341.418146 231.800656 
L 342.01377 209.224918 
L 343.205017 244.87082 
L 343.80064 216.354098 
L 344.396264 216.354098 
L 344.991888 235.365246 
L 345.587511 240.118033 
L 346.183135 230.612459 
L 346.778758 227.047869 
L 347.374382 222.295082 
L 347.970005 229.424262 
L 348.565629 229.424262 
L 349.161252 221.106885 
L 349.756876 210.413115 
L 350.3525 221.106885 
L 350.948123 225.859672 
L 351.543747 218.730492 
L 352.13937 206.848525 
L 352.734994 231.800656 
L 353.330617 224.671475 
L 353.926241 231.800656 
L 354.521864 202.095738 
L 355.117488 217.542295 
L 355.713112 228.236066 
L 356.308735 224.671475 
L 356.904359 219.918689 
L 357.499982 230.612459 
L 358.095606 230.612459 
L 358.691229 217.542295 
L 359.286853 230.612459 
L 359.882476 232.988852 
L 360.4781 225.859672 
L 361.073724 215.165902 
L 361.669347 213.977705 
L 362.264971 222.295082 
L 362.860594 217.542295 
L 363.456218 215.165902 
L 364.051841 236.553443 
L 364.647465 236.553443 
L 365.243088 222.295082 
L 365.838712 234.177049 
L 366.434336 210.413115 
L 367.029959 216.354098 
L 367.625583 221.106885 
L 368.221206 223.483279 
L 368.81683 222.295082 
L 369.412453 218.730492 
L 370.008077 235.365246 
L 370.6037 221.106885 
L 371.199324 223.483279 
L 371.794948 230.612459 
L 372.390571 230.612459 
L 372.986195 227.047869 
L 373.581818 225.859672 
L 373.581818 225.859672 
" clip-path="url(#pb37a830c63)" style="fill: none; stroke: #ff7f0e; stroke-width: 1.5; stroke-linecap: square"/>
   </g>
   <g id="line2d_27">
    <path d="M 69.218182 228.259653 
L 69.813805 238.511166 
L 70.409429 228.799206 
L 71.005052 231.227196 
L 71.600676 239.86005 
L 72.1963 235.004069 
L 72.791923 218.817469 
L 73.387547 233.385409 
L 73.98317 241.748486 
L 75.174417 215.849926 
L 75.770041 231.227196 
L 76.365664 234.734293 
L 76.961288 235.004069 
L 77.556912 233.924963 
L 78.152535 234.464516 
L 78.748159 234.464516 
L 79.343782 233.655186 
L 79.939406 219.087246 
L 80.535029 218.008139 
L 81.130653 232.036526 
L 81.726276 213.961489 
L 82.3219 233.385409 
L 82.917524 221.785012 
L 83.513147 237.43206 
L 84.108771 230.957419 
L 84.704394 216.119702 
L 85.300018 220.975682 
L 85.895641 230.957419 
L 86.491265 235.273846 
L 87.086888 227.180546 
L 87.682512 240.939156 
L 88.278136 235.273846 
L 88.873759 243.367146 
L 89.469383 223.133896 
L 90.065006 235.273846 
L 90.66063 225.831663 
L 91.256253 227.450323 
L 91.851877 230.417866 
L 92.4475 228.529429 
L 93.043124 227.450323 
L 93.638748 240.939156 
L 94.234371 243.9067 
L 94.829995 237.971613 
L 95.425618 227.989876 
L 96.021242 222.594342 
L 96.616865 218.547692 
L 97.212489 229.068983 
L 97.808112 235.543623 
L 98.403736 234.194739 
L 98.99936 239.320496 
L 99.594983 230.417866 
L 100.190607 236.083176 
L 100.78623 228.259653 
L 101.381854 232.036526 
L 101.977477 245.795136 
L 102.573101 228.259653 
L 103.168724 222.864119 
L 103.764348 234.464516 
L 104.359972 233.115633 
L 104.955595 235.8134 
L 105.551219 233.115633 
L 106.146842 223.673449 
L 106.742466 223.403672 
L 107.338089 229.608536 
L 107.933713 241.47871 
L 108.529336 244.71603 
L 109.12496 225.561886 
L 109.720584 219.087246 
L 110.316207 241.748486 
L 111.507454 222.324566 
L 112.698701 245.795136 
L 113.294325 240.129826 
L 113.889948 221.245459 
L 114.485572 235.273846 
L 115.081196 239.05072 
L 115.676819 229.878313 
L 116.272443 245.255583 
L 116.868066 215.310372 
L 117.46369 229.338759 
L 118.059313 229.608536 
L 118.654937 220.705906 
L 119.25056 226.910769 
L 119.846184 230.417866 
L 120.441808 229.878313 
L 121.037431 226.101439 
L 121.633055 243.636923 
L 122.228678 226.640993 
L 122.824302 232.306303 
L 124.015549 226.640993 
L 124.611172 234.194739 
L 125.206796 235.004069 
L 125.802419 230.417866 
L 126.398043 246.874243 
L 126.993667 227.989876 
L 127.58929 241.47871 
L 128.184914 242.557816 
L 128.780537 236.083176 
L 129.376161 218.277916 
L 129.971784 230.148089 
L 130.567408 215.849926 
L 131.758655 231.496973 
L 132.354279 224.752556 
L 132.949902 229.338759 
L 133.545526 223.673449 
L 134.141149 242.28804 
L 134.736773 233.924963 
L 135.332396 231.227196 
L 135.92802 227.180546 
L 136.523643 229.878313 
L 137.119267 228.799206 
L 137.714891 230.417866 
L 138.310514 235.543623 
L 138.906138 231.496973 
L 139.501761 221.515236 
L 140.097385 237.43206 
L 140.693008 221.785012 
L 141.288632 227.989876 
L 141.884255 236.62273 
L 142.479879 227.450323 
L 143.075503 238.24139 
L 143.671126 236.62273 
L 144.862373 220.166352 
L 145.457997 225.292109 
L 146.05362 222.324566 
L 146.649244 226.371216 
L 147.244867 227.180546 
L 147.840491 246.33469 
L 149.031738 233.924963 
L 149.627362 220.436129 
L 150.222985 241.47871 
L 150.818609 226.101439 
L 151.414232 228.799206 
L 152.009856 232.036526 
L 152.605479 226.371216 
L 153.201103 223.133896 
L 153.796727 226.640993 
L 154.39235 226.101439 
L 155.583597 241.208933 
L 156.179221 244.985806 
L 156.774844 235.543623 
L 157.370468 246.33469 
L 157.966091 224.752556 
L 158.561715 224.213002 
L 159.157339 225.561886 
L 159.752962 236.083176 
L 160.348586 225.022333 
L 160.944209 230.957419 
L 161.539833 233.385409 
L 162.135456 224.752556 
L 162.73108 237.701836 
L 163.326703 229.608536 
L 163.922327 230.148089 
L 164.517951 237.162283 
L 165.113574 222.054789 
L 165.709198 247.413797 
L 166.304821 221.785012 
L 166.900445 230.417866 
L 167.496068 223.673449 
L 168.091692 233.924963 
L 169.282939 222.054789 
L 169.878563 236.62273 
L 170.474186 230.417866 
L 171.06981 233.385409 
L 171.665433 237.43206 
L 172.261057 229.338759 
L 172.85668 223.403672 
L 173.452304 229.068983 
L 174.643551 237.43206 
L 175.239175 229.068983 
L 177.026045 233.385409 
L 177.621669 220.975682 
L 178.217292 240.66938 
L 178.812916 237.971613 
L 179.408539 227.720099 
L 180.004163 240.129826 
L 180.599787 230.417866 
L 181.19541 226.640993 
L 181.791034 233.655186 
L 182.386657 235.543623 
L 182.982281 223.943226 
L 183.577904 232.306303 
L 184.173528 224.752556 
L 184.769151 242.827593 
L 185.364775 249.302233 
L 185.960399 242.557816 
L 186.556022 226.371216 
L 187.151646 223.943226 
L 187.747269 229.608536 
L 188.342893 243.09737 
L 188.938516 233.924963 
L 189.53414 238.780943 
L 190.129763 239.590273 
L 190.725387 239.05072 
L 191.32101 240.129826 
L 191.916634 239.590273 
L 192.512258 227.989876 
L 193.107881 219.357022 
L 193.703505 222.864119 
L 194.299128 227.720099 
L 194.894752 222.864119 
L 195.490375 230.957419 
L 196.085999 235.004069 
L 196.681622 229.608536 
L 197.277246 229.878313 
L 197.87287 223.133896 
L 198.468493 240.939156 
L 199.064117 217.738362 
L 199.65974 230.687643 
L 200.255364 231.766749 
L 200.850987 223.943226 
L 201.446611 233.924963 
L 202.042234 220.166352 
L 202.637858 231.766749 
L 203.233482 229.878313 
L 203.829105 240.129826 
L 204.424729 235.004069 
L 205.020352 231.766749 
L 205.615976 232.845856 
L 206.211599 238.24139 
L 207.402846 231.766749 
L 207.99847 236.083176 
L 209.189717 229.068983 
L 209.785341 240.939156 
L 210.380964 230.417866 
L 210.976588 231.227196 
L 211.572211 214.231266 
L 212.167835 226.910769 
L 212.763458 247.683573 
L 213.954706 218.277916 
L 214.550329 241.748486 
L 215.145953 237.162283 
L 215.741576 240.129826 
L 216.3372 218.277916 
L 216.932823 226.910769 
L 217.528447 221.785012 
L 218.12407 229.608536 
L 218.719694 230.957419 
L 219.315318 222.324566 
L 220.506565 238.511166 
L 221.102188 228.259653 
L 221.697812 237.971613 
L 222.293435 239.05072 
L 222.889059 227.450323 
L 223.484682 243.636923 
L 224.080306 220.436129 
L 224.67593 248.76268 
L 225.271553 236.083176 
L 225.867177 212.612605 
L 226.4628 34.56 
L 227.058424 184.555831 
L 227.654047 222.054789 
L 228.249671 219.087246 
L 228.845294 222.864119 
L 229.440918 237.971613 
L 230.036542 223.403672 
L 230.632165 236.62273 
L 231.227789 237.971613 
L 231.823412 226.640993 
L 232.419036 233.115633 
L 233.014659 236.352953 
L 233.610283 243.636923 
L 234.205906 239.05072 
L 234.80153 231.227196 
L 235.397154 233.655186 
L 235.992777 235.543623 
L 236.588401 226.640993 
L 237.184024 240.129826 
L 237.779648 238.24139 
L 238.375271 223.133896 
L 238.970895 195.077122 
L 239.566518 39.146203 
L 240.162142 80.961588 
L 240.757766 205.598412 
L 241.353389 237.162283 
L 241.949013 245.795136 
L 242.544636 216.119702 
L 243.14026 235.004069 
L 243.735883 237.162283 
L 244.331507 225.831663 
L 244.92713 223.403672 
L 246.118378 232.845856 
L 246.714001 232.845856 
L 247.309625 229.068983 
L 247.905248 244.985806 
L 248.500872 244.985806 
L 249.096495 220.166352 
L 249.692119 234.734293 
L 250.287742 233.655186 
L 250.883366 227.720099 
L 251.47899 229.338759 
L 252.074613 228.799206 
L 252.670237 247.683573 
L 253.26586 229.338759 
L 253.861484 225.292109 
L 254.457107 219.896576 
L 255.052731 231.496973 
L 255.648354 239.590273 
L 256.243978 235.273846 
L 256.839601 241.208933 
L 257.435225 227.180546 
L 258.030849 232.306303 
L 258.626472 222.864119 
L 259.222096 237.701836 
L 259.817719 233.385409 
L 260.413343 221.245459 
L 261.008966 235.004069 
L 261.60459 212.882382 
L 262.200213 239.86005 
L 262.795837 235.8134 
L 263.391461 227.720099 
L 263.987084 230.417866 
L 264.582708 233.655186 
L 265.178331 235.543623 
L 265.773955 239.320496 
L 266.369578 238.780943 
L 266.965202 227.180546 
L 267.560825 218.547692 
L 268.156449 223.943226 
L 268.752073 238.780943 
L 269.347696 222.324566 
L 269.94332 235.004069 
L 270.538943 237.971613 
L 271.134567 221.245459 
L 271.73019 227.450323 
L 272.325814 237.43206 
L 272.921437 231.227196 
L 273.517061 220.975682 
L 274.112685 234.734293 
L 274.708308 226.640993 
L 275.303932 223.673449 
L 275.899555 215.310372 
L 276.495179 230.687643 
L 277.090802 227.989876 
L 278.282049 248.492903 
L 279.473297 233.385409 
L 280.06892 234.734293 
L 280.664544 243.636923 
L 281.260167 229.608536 
L 281.855791 226.910769 
L 282.451414 227.720099 
L 283.047038 215.849926 
L 283.642661 229.068983 
L 284.833909 237.701836 
L 285.429532 246.064913 
L 286.025156 217.738362 
L 286.620779 220.705906 
L 287.216403 227.720099 
L 287.812026 225.022333 
L 288.40765 234.194739 
L 289.003273 234.464516 
L 289.598897 236.62273 
L 290.194521 237.162283 
L 290.790144 222.054789 
L 291.385768 240.939156 
L 291.981391 233.385409 
L 292.577015 222.594342 
L 293.172638 219.626799 
L 293.768262 223.403672 
L 294.363885 228.799206 
L 294.959509 239.05072 
L 295.555133 227.989876 
L 296.150756 219.896576 
L 296.74638 243.9067 
L 297.342003 232.306303 
L 297.937627 227.450323 
L 298.53325 217.738362 
L 299.128874 229.068983 
L 299.724497 234.734293 
L 300.320121 223.133896 
L 300.915745 224.752556 
L 301.511368 214.501042 
L 302.106992 228.529429 
L 302.702615 219.626799 
L 303.298239 226.640993 
L 303.893862 220.166352 
L 304.489486 226.101439 
L 305.085109 228.259653 
L 305.680733 227.989876 
L 306.276357 220.705906 
L 306.87198 231.496973 
L 307.467604 223.943226 
L 308.063227 237.971613 
L 308.658851 229.068983 
L 309.254474 216.929032 
L 309.850098 229.878313 
L 310.445721 218.008139 
L 311.041345 230.148089 
L 311.636969 233.385409 
L 312.232592 246.064913 
L 312.828216 232.306303 
L 313.423839 230.148089 
L 314.019463 218.547692 
L 314.615086 226.371216 
L 315.21071 223.943226 
L 315.806333 232.306303 
L 316.401957 233.655186 
L 316.997581 229.338759 
L 317.593204 237.162283 
L 318.188828 227.450323 
L 318.784451 233.655186 
L 319.380075 230.687643 
L 319.975698 228.799206 
L 320.571322 244.176476 
L 321.166945 227.989876 
L 321.762569 238.511166 
L 322.358192 228.529429 
L 322.953816 222.864119 
L 323.54944 227.450323 
L 324.145063 239.05072 
L 324.740687 229.608536 
L 325.33631 215.310372 
L 325.931934 223.403672 
L 326.527557 236.62273 
L 327.123181 237.43206 
L 327.718804 225.561886 
L 328.314428 231.227196 
L 328.910052 233.655186 
L 329.505675 209.914839 
L 330.101299 208.296179 
L 330.696922 236.62273 
L 331.292546 223.133896 
L 331.888169 225.831663 
L 332.483793 237.162283 
L 333.079416 233.115633 
L 333.67504 219.896576 
L 334.270664 231.766749 
L 334.866287 233.924963 
L 335.461911 232.036526 
L 336.057534 223.943226 
L 336.653158 233.655186 
L 337.248781 238.24139 
L 337.844405 223.403672 
L 339.035652 245.52536 
L 339.631276 218.547692 
L 340.226899 223.133896 
L 340.822523 230.148089 
L 341.418146 239.590273 
L 342.01377 232.306303 
L 342.609393 235.004069 
L 343.205017 227.989876 
L 343.80064 252 
L 344.396264 223.133896 
L 344.991888 226.371216 
L 345.587511 225.831663 
L 346.183135 226.640993 
L 346.778758 236.892506 
L 347.374382 232.036526 
L 347.970005 234.464516 
L 348.565629 239.05072 
L 349.161252 228.529429 
L 349.756876 220.975682 
L 350.3525 229.338759 
L 350.948123 244.176476 
L 351.543747 242.557816 
L 352.13937 230.687643 
L 352.734994 224.213002 
L 353.330617 236.892506 
L 354.521864 225.292109 
L 355.117488 232.306303 
L 355.713112 233.115633 
L 356.904359 224.752556 
L 357.499982 232.306303 
L 358.095606 236.62273 
L 358.691229 210.454392 
L 359.286853 232.845856 
L 359.882476 226.910769 
L 360.4781 230.687643 
L 361.073724 236.083176 
L 361.669347 220.166352 
L 362.264971 231.766749 
L 362.860594 224.482779 
L 363.456218 230.687643 
L 364.051841 219.626799 
L 364.647465 230.148089 
L 365.243088 231.227196 
L 365.838712 230.687643 
L 366.434336 246.33469 
L 367.029959 240.129826 
L 367.625583 238.511166 
L 368.221206 238.511166 
L 368.81683 222.864119 
L 369.412453 220.975682 
L 370.008077 237.701836 
L 370.6037 237.971613 
L 371.199324 230.687643 
L 371.794948 231.227196 
L 372.390571 234.734293 
L 372.986195 225.022333 
L 373.581818 218.008139 
L 373.581818 218.008139 
" clip-path="url(#pb37a830c63)" style="fill: none; stroke: #2ca02c; stroke-width: 1.5; stroke-linecap: square"/>
   </g>
   <g id="patch_3">
    <path d="M 54 252 
L 54 34.56 
" style="fill: none; stroke: #000000; stroke-width: 0.8; stroke-linejoin: miter; stroke-linecap: square"/>
   </g>
   <g id="patch_4">
    <path d="M 388.8 252 
L 388.8 34.56 
" style="fill: none; stroke: #000000; stroke-width: 0.8; stroke-linejoin: miter; stroke-linecap: square"/>
   </g>
   <g id="patch_5">
    <path d="M 54 252 
L 388.8 252 
" style="fill: none; stroke: #000000; stroke-width: 0.8; stroke-linejoin: miter; stroke-linecap: square"/>
   </g>
   <g id="patch_6">
    <path d="M 54 34.56 
L 388.8 34.56 
" style="fill: none; stroke: #000000; stroke-width: 0.8; stroke-linejoin: miter; stroke-linecap: square"/>
   </g>
   <g id="text_15">
    <!-- Label 18 normalized -->
    <g transform="translate(160.423125 28.56)scale(0.12 -0.12)">
     <defs>
      <path id="DejaVuSans-4c" d="M 628 4666 
L 1259 4666 
L 1259 531 
L 3531 531 
L 3531 0 
L 628 0 
L 628 4666 
z
" transform="scale(0.015625)"/>
      <path id="DejaVuSans-61" d="M 2194 1759 
Q 1497 1759 1228 1600 
Q 959 1441 959 1056 
Q 959 750 1161 570 
Q 1363 391 1709 391 
Q 2188 391 2477 730 
Q 2766 1069 2766 1631 
L 2766 1759 
L 2194 1759 
z
M 3341 1997 
L 3341 0 
L 2766 0 
L 2766 531 
Q 2569 213 2275 61 
Q 1981 -91 1556 -91 
Q 1019 -91 701 211 
Q 384 513 384 1019 
Q 384 1609 779 1909 
Q 1175 2209 1959 2209 
L 2766 2209 
L 2766 2266 
Q 2766 2663 2505 2880 
Q 2244 3097 1772 3097 
Q 1472 3097 1187 3025 
Q 903 2953 641 2809 
L 641 3341 
Q 956 3463 1253 3523 
Q 1550 3584 1831 3584 
Q 2591 3584 2966 3190 
Q 3341 2797 3341 1997 
z
" transform="scale(0.015625)"/>
      <path id="DejaVuSans-65" d="M 3597 1894 
L 3597 1613 
L 953 1613 
Q 991 1019 1311 708 
Q 1631 397 2203 397 
Q 2534 397 2845 478 
Q 3156 559 3463 722 
L 3463 178 
Q 3153 47 2828 -22 
Q 2503 -91 2169 -91 
Q 1331 -91 842 396 
Q 353 884 353 1716 
Q 353 2575 817 3079 
Q 1281 3584 2069 3584 
Q 2775 3584 3186 3129 
Q 3597 2675 3597 1894 
z
M 3022 2063 
Q 3016 2534 2758 2815 
Q 2500 3097 2075 3097 
Q 1594 3097 1305 2825 
Q 1016 2553 972 2059 
L 3022 2063 
z
" transform="scale(0.015625)"/>
      <path id="DejaVuSans-6c" d="M 603 4863 
L 1178 4863 
L 1178 0 
L 603 0 
L 603 4863 
z
" transform="scale(0.015625)"/>
      <path id="DejaVuSans-20" transform="scale(0.015625)"/>
      <path id="DejaVuSans-72" d="M 2631 2963 
Q 2534 3019 2420 3045 
Q 2306 3072 2169 3072 
Q 1681 3072 1420 2755 
Q 1159 2438 1159 1844 
L 1159 0 
L 581 0 
L 581 3500 
L 1159 3500 
L 1159 2956 
Q 1341 3275 1631 3429 
Q 1922 3584 2338 3584 
Q 2397 3584 2469 3576 
Q 2541 3569 2628 3553 
L 2631 2963 
z
" transform="scale(0.015625)"/>
      <path id="DejaVuSans-6d" d="M 3328 2828 
Q 3544 3216 3844 3400 
Q 4144 3584 4550 3584 
Q 5097 3584 5394 3201 
Q 5691 2819 5691 2113 
L 5691 0 
L 5113 0 
L 5113 2094 
Q 5113 2597 4934 2840 
Q 4756 3084 4391 3084 
Q 3944 3084 3684 2787 
Q 3425 2491 3425 1978 
L 3425 0 
L 2847 0 
L 2847 2094 
Q 2847 2600 2669 2842 
Q 2491 3084 2119 3084 
Q 1678 3084 1418 2786 
Q 1159 2488 1159 1978 
L 1159 0 
L 581 0 
L 581 3500 
L 1159 3500 
L 1159 2956 
Q 1356 3278 1631 3431 
Q 1906 3584 2284 3584 
Q 2666 3584 2933 3390 
Q 3200 3197 3328 2828 
z
" transform="scale(0.015625)"/>
      <path id="DejaVuSans-7a" d="M 353 3500 
L 3084 3500 
L 3084 2975 
L 922 459 
L 3084 459 
L 3084 0 
L 275 0 
L 275 525 
L 2438 3041 
L 353 3041 
L 353 3500 
z
" transform="scale(0.015625)"/>
      <path id="DejaVuSans-64" d="M 2906 2969 
L 2906 4863 
L 3481 4863 
L 3481 0 
L 2906 0 
L 2906 525 
Q 2725 213 2448 61 
Q 2172 -91 1784 -91 
Q 1150 -91 751 415 
Q 353 922 353 1747 
Q 353 2572 751 3078 
Q 1150 3584 1784 3584 
Q 2172 3584 2448 3432 
Q 2725 3281 2906 2969 
z
M 947 1747 
Q 947 1113 1208 752 
Q 1469 391 1925 391 
Q 2381 391 2643 752 
Q 2906 1113 2906 1747 
Q 2906 2381 2643 2742 
Q 2381 3103 1925 3103 
Q 1469 3103 1208 2742 
Q 947 2381 947 1747 
z
" transform="scale(0.015625)"/>
     </defs>
     <use xlink:href="#DejaVuSans-4c"/>
     <use xlink:href="#DejaVuSans-61" x="55.712891"/>
     <use xlink:href="#DejaVuSans-62" x="116.992188"/>
     <use xlink:href="#DejaVuSans-65" x="180.46875"/>
     <use xlink:href="#DejaVuSans-6c" x="241.992188"/>
     <use xlink:href="#DejaVuSans-20" x="269.775391"/>
     <use xlink:href="#DejaVuSans-31" x="301.5625"/>
     <use xlink:href="#DejaVuSans-38" x="365.185547"/>
     <use xlink:href="#DejaVuSans-20" x="428.808594"/>
     <use xlink:href="#DejaVuSans-6e" x="460.595703"/>
     <use xlink:href="#DejaVuSans-6f" x="523.974609"/>
     <use xlink:href="#DejaVuSans-72" x="585.15625"/>
     <use xlink:href="#DejaVuSans-6d" x="624.519531"/>
     <use xlink:href="#DejaVuSans-61" x="721.931641"/>
     <use xlink:href="#DejaVuSans-6c" x="783.210938"/>
     <use xlink:href="#DejaVuSans-69" x="810.994141"/>
     <use xlink:href="#DejaVuSans-7a" x="838.777344"/>
     <use xlink:href="#DejaVuSans-65" x="891.267578"/>
     <use xlink:href="#DejaVuSans-64" x="952.791016"/>
    </g>
   </g>
   <g id="legend_1">
    <g id="patch_7">
     <path d="M 61 101.2725 
L 133.729688 101.2725 
Q 135.729688 101.2725 135.729688 99.2725 
L 135.729688 41.56 
Q 135.729688 39.56 133.729688 39.56 
L 61 39.56 
Q 59 39.56 59 41.56 
L 59 99.2725 
Q 59 101.2725 61 101.2725 
z
" style="fill: #ffffff; opacity: 0.8; stroke: #cccccc; stroke-linejoin: miter"/>
    </g>
    <g id="text_16">
     <!-- Trace number -->
     <g transform="translate(63 51.158437)scale(0.1 -0.1)">
      <defs>
       <path id="DejaVuSans-54" d="M -19 4666 
L 3928 4666 
L 3928 4134 
L 2272 4134 
L 2272 0 
L 1638 0 
L 1638 4134 
L -19 4134 
L -19 4666 
z
" transform="scale(0.015625)"/>
      </defs>
      <use xlink:href="#DejaVuSans-54"/>
      <use xlink:href="#DejaVuSans-72" x="46.333984"/>
      <use xlink:href="#DejaVuSans-61" x="87.447266"/>
      <use xlink:href="#DejaVuSans-63" x="148.726562"/>
      <use xlink:href="#DejaVuSans-65" x="203.707031"/>
      <use xlink:href="#DejaVuSans-20" x="265.230469"/>
      <use xlink:href="#DejaVuSans-6e" x="297.017578"/>
      <use xlink:href="#DejaVuSans-75" x="360.396484"/>
      <use xlink:href="#DejaVuSans-6d" x="423.775391"/>
      <use xlink:href="#DejaVuSans-62" x="521.1875"/>
      <use xlink:href="#DejaVuSans-65" x="584.664062"/>
      <use xlink:href="#DejaVuSans-72" x="646.1875"/>
     </g>
    </g>
    <g id="line2d_28">
     <path d="M 77.002344 62.336562 
L 87.002344 62.336562 
L 97.002344 62.336562 
" style="fill: none; stroke: #1f77b4; stroke-width: 1.5; stroke-linecap: square"/>
    </g>
    <g id="text_17">
     <!-- 37 -->
     <g transform="translate(105.002344 65.836562)scale(0.1 -0.1)">
      <defs>
       <path id="DejaVuSans-37" d="M 525 4666 
L 3525 4666 
L 3525 4397 
L 1831 0 
L 1172 0 
L 2766 4134 
L 525 4134 
L 525 4666 
z
" transform="scale(0.015625)"/>
      </defs>
      <use xlink:href="#DejaVuSans-33"/>
      <use xlink:href="#DejaVuSans-37" x="63.623047"/>
     </g>
    </g>
    <g id="line2d_29">
     <path d="M 77.002344 77.014687 
L 87.002344 77.014687 
L 97.002344 77.014687 
" style="fill: none; stroke: #ff7f0e; stroke-width: 1.5; stroke-linecap: square"/>
    </g>
    <g id="text_18">
     <!-- 40 -->
     <g transform="translate(105.002344 80.514687)scale(0.1 -0.1)">
      <use xlink:href="#DejaVuSans-34"/>
      <use xlink:href="#DejaVuSans-30" x="63.623047"/>
     </g>
    </g>
    <g id="line2d_30">
     <path d="M 77.002344 91.692813 
L 87.002344 91.692813 
L 97.002344 91.692813 
" style="fill: none; stroke: #2ca02c; stroke-width: 1.5; stroke-linecap: square"/>
    </g>
    <g id="text_19">
     <!-- 58 -->
     <g transform="translate(105.002344 95.192813)scale(0.1 -0.1)">
      <use xlink:href="#DejaVuSans-35"/>
      <use xlink:href="#DejaVuSans-38" x="63.623047"/>
     </g>
    </g>
   </g>
  </g>
 </g>
 <defs>
  <clipPath id="pb37a830c63">
   <rect x="54" y="34.56" width="334.8" height="217.44"/>
  </clipPath>
 </defs>
</svg>
