<?xml version="1.0" encoding="utf-8" standalone="no"?>
<!DOCTYPE svg PUBLIC "-//W3C//DTD SVG 1.1//EN"
  "http://www.w3.org/Graphics/SVG/1.1/DTD/svg11.dtd">
<svg xmlns:xlink="http://www.w3.org/1999/xlink" width="432pt" height="288pt" viewBox="0 0 432 288" xmlns="http://www.w3.org/2000/svg" version="1.1">
 <metadata>
  <rdf:RDF xmlns:dc="http://purl.org/dc/elements/1.1/" xmlns:cc="http://creativecommons.org/ns#" xmlns:rdf="http://www.w3.org/1999/02/22-rdf-syntax-ns#">
   <cc:Work>
    <dc:type rdf:resource="http://purl.org/dc/dcmitype/StillImage"/>
    <dc:date>2022-03-30T13:16:47.140930</dc:date>
    <dc:format>image/svg+xml</dc:format>
    <dc:creator>
     <cc:Agent>
      <dc:title>Matplotlib v3.5.1, https://matplotlib.org/</dc:title>
     </cc:Agent>
    </dc:creator>
   </cc:Work>
  </rdf:RDF>
 </metadata>
 <defs>
  <style type="text/css">*{stroke-linejoin: round; stroke-linecap: butt}</style>
 </defs>
 <g id="figure_1">
  <g id="patch_1">
   <path d="M 0 288 
L 432 288 
L 432 0 
L 0 0 
z
" style="fill: #ffffff"/>
  </g>
  <g id="axes_1">
   <g id="patch_2">
    <path d="M 54 252 
L 388.8 252 
L 388.8 34.56 
L 54 34.56 
z
" style="fill: #ffffff"/>
   </g>
   <g id="matplotlib.axis_1">
    <g id="xtick_1">
     <g id="line2d_1">
      <path d="M 69.218182 252 
L 69.218182 34.56 
" clip-path="url(#pc4ca3545d7)" style="fill: none; stroke: #b0b0b0; stroke-width: 0.8; stroke-linecap: square"/>
     </g>
     <g id="line2d_2">
      <defs>
       <path id="m85945b57fb" d="M 0 0 
L 0 3.5 
" style="stroke: #000000; stroke-width: 0.8"/>
      </defs>
      <g>
       <use xlink:href="#m85945b57fb" x="69.218182" y="252" style="stroke: #000000; stroke-width: 0.8"/>
      </g>
     </g>
     <g id="text_1">
      <!-- 0 -->
      <g transform="translate(66.036932 266.598437)scale(0.1 -0.1)">
       <defs>
        <path id="DejaVuSans-30" d="M 2034 4250 
Q 1547 4250 1301 3770 
Q 1056 3291 1056 2328 
Q 1056 1369 1301 889 
Q 1547 409 2034 409 
Q 2525 409 2770 889 
Q 3016 1369 3016 2328 
Q 3016 3291 2770 3770 
Q 2525 4250 2034 4250 
z
M 2034 4750 
Q 2819 4750 3233 4129 
Q 3647 3509 3647 2328 
Q 3647 1150 3233 529 
Q 2819 -91 2034 -91 
Q 1250 -91 836 529 
Q 422 1150 422 2328 
Q 422 3509 836 4129 
Q 1250 4750 2034 4750 
z
" transform="scale(0.015625)"/>
       </defs>
       <use xlink:href="#DejaVuSans-30"/>
      </g>
     </g>
    </g>
    <g id="xtick_2">
     <g id="line2d_3">
      <path d="M 128.780537 252 
L 128.780537 34.56 
" clip-path="url(#pc4ca3545d7)" style="fill: none; stroke: #b0b0b0; stroke-width: 0.8; stroke-linecap: square"/>
     </g>
     <g id="line2d_4">
      <g>
       <use xlink:href="#m85945b57fb" x="128.780537" y="252" style="stroke: #000000; stroke-width: 0.8"/>
      </g>
     </g>
     <g id="text_2">
      <!-- 100 -->
      <g transform="translate(119.236787 266.598437)scale(0.1 -0.1)">
       <defs>
        <path id="DejaVuSans-31" d="M 794 531 
L 1825 531 
L 1825 4091 
L 703 3866 
L 703 4441 
L 1819 4666 
L 2450 4666 
L 2450 531 
L 3481 531 
L 3481 0 
L 794 0 
L 794 531 
z
" transform="scale(0.015625)"/>
       </defs>
       <use xlink:href="#DejaVuSans-31"/>
       <use xlink:href="#DejaVuSans-30" x="63.623047"/>
       <use xlink:href="#DejaVuSans-30" x="127.246094"/>
      </g>
     </g>
    </g>
    <g id="xtick_3">
     <g id="line2d_5">
      <path d="M 188.342893 252 
L 188.342893 34.56 
" clip-path="url(#pc4ca3545d7)" style="fill: none; stroke: #b0b0b0; stroke-width: 0.8; stroke-linecap: square"/>
     </g>
     <g id="line2d_6">
      <g>
       <use xlink:href="#m85945b57fb" x="188.342893" y="252" style="stroke: #000000; stroke-width: 0.8"/>
      </g>
     </g>
     <g id="text_3">
      <!-- 200 -->
      <g transform="translate(178.799143 266.598437)scale(0.1 -0.1)">
       <defs>
        <path id="DejaVuSans-32" d="M 1228 531 
L 3431 531 
L 3431 0 
L 469 0 
L 469 531 
Q 828 903 1448 1529 
Q 2069 2156 2228 2338 
Q 2531 2678 2651 2914 
Q 2772 3150 2772 3378 
Q 2772 3750 2511 3984 
Q 2250 4219 1831 4219 
Q 1534 4219 1204 4116 
Q 875 4013 500 3803 
L 500 4441 
Q 881 4594 1212 4672 
Q 1544 4750 1819 4750 
Q 2544 4750 2975 4387 
Q 3406 4025 3406 3419 
Q 3406 3131 3298 2873 
Q 3191 2616 2906 2266 
Q 2828 2175 2409 1742 
Q 1991 1309 1228 531 
z
" transform="scale(0.015625)"/>
       </defs>
       <use xlink:href="#DejaVuSans-32"/>
       <use xlink:href="#DejaVuSans-30" x="63.623047"/>
       <use xlink:href="#DejaVuSans-30" x="127.246094"/>
      </g>
     </g>
    </g>
    <g id="xtick_4">
     <g id="line2d_7">
      <path d="M 247.905248 252 
L 247.905248 34.56 
" clip-path="url(#pc4ca3545d7)" style="fill: none; stroke: #b0b0b0; stroke-width: 0.8; stroke-linecap: square"/>
     </g>
     <g id="line2d_8">
      <g>
       <use xlink:href="#m85945b57fb" x="247.905248" y="252" style="stroke: #000000; stroke-width: 0.8"/>
      </g>
     </g>
     <g id="text_4">
      <!-- 300 -->
      <g transform="translate(238.361498 266.598437)scale(0.1 -0.1)">
       <defs>
        <path id="DejaVuSans-33" d="M 2597 2516 
Q 3050 2419 3304 2112 
Q 3559 1806 3559 1356 
Q 3559 666 3084 287 
Q 2609 -91 1734 -91 
Q 1441 -91 1130 -33 
Q 819 25 488 141 
L 488 750 
Q 750 597 1062 519 
Q 1375 441 1716 441 
Q 2309 441 2620 675 
Q 2931 909 2931 1356 
Q 2931 1769 2642 2001 
Q 2353 2234 1838 2234 
L 1294 2234 
L 1294 2753 
L 1863 2753 
Q 2328 2753 2575 2939 
Q 2822 3125 2822 3475 
Q 2822 3834 2567 4026 
Q 2313 4219 1838 4219 
Q 1578 4219 1281 4162 
Q 984 4106 628 3988 
L 628 4550 
Q 988 4650 1302 4700 
Q 1616 4750 1894 4750 
Q 2613 4750 3031 4423 
Q 3450 4097 3450 3541 
Q 3450 3153 3228 2886 
Q 3006 2619 2597 2516 
z
" transform="scale(0.015625)"/>
       </defs>
       <use xlink:href="#DejaVuSans-33"/>
       <use xlink:href="#DejaVuSans-30" x="63.623047"/>
       <use xlink:href="#DejaVuSans-30" x="127.246094"/>
      </g>
     </g>
    </g>
    <g id="xtick_5">
     <g id="line2d_9">
      <path d="M 307.467604 252 
L 307.467604 34.56 
" clip-path="url(#pc4ca3545d7)" style="fill: none; stroke: #b0b0b0; stroke-width: 0.8; stroke-linecap: square"/>
     </g>
     <g id="line2d_10">
      <g>
       <use xlink:href="#m85945b57fb" x="307.467604" y="252" style="stroke: #000000; stroke-width: 0.8"/>
      </g>
     </g>
     <g id="text_5">
      <!-- 400 -->
      <g transform="translate(297.923854 266.598437)scale(0.1 -0.1)">
       <defs>
        <path id="DejaVuSans-34" d="M 2419 4116 
L 825 1625 
L 2419 1625 
L 2419 4116 
z
M 2253 4666 
L 3047 4666 
L 3047 1625 
L 3713 1625 
L 3713 1100 
L 3047 1100 
L 3047 0 
L 2419 0 
L 2419 1100 
L 313 1100 
L 313 1709 
L 2253 4666 
z
" transform="scale(0.015625)"/>
       </defs>
       <use xlink:href="#DejaVuSans-34"/>
       <use xlink:href="#DejaVuSans-30" x="63.623047"/>
       <use xlink:href="#DejaVuSans-30" x="127.246094"/>
      </g>
     </g>
    </g>
    <g id="xtick_6">
     <g id="line2d_11">
      <path d="M 367.029959 252 
L 367.029959 34.56 
" clip-path="url(#pc4ca3545d7)" style="fill: none; stroke: #b0b0b0; stroke-width: 0.8; stroke-linecap: square"/>
     </g>
     <g id="line2d_12">
      <g>
       <use xlink:href="#m85945b57fb" x="367.029959" y="252" style="stroke: #000000; stroke-width: 0.8"/>
      </g>
     </g>
     <g id="text_6">
      <!-- 500 -->
      <g transform="translate(357.486209 266.598437)scale(0.1 -0.1)">
       <defs>
        <path id="DejaVuSans-35" d="M 691 4666 
L 3169 4666 
L 3169 4134 
L 1269 4134 
L 1269 2991 
Q 1406 3038 1543 3061 
Q 1681 3084 1819 3084 
Q 2600 3084 3056 2656 
Q 3513 2228 3513 1497 
Q 3513 744 3044 326 
Q 2575 -91 1722 -91 
Q 1428 -91 1123 -41 
Q 819 9 494 109 
L 494 744 
Q 775 591 1075 516 
Q 1375 441 1709 441 
Q 2250 441 2565 725 
Q 2881 1009 2881 1497 
Q 2881 1984 2565 2268 
Q 2250 2553 1709 2553 
Q 1456 2553 1204 2497 
Q 953 2441 691 2322 
L 691 4666 
z
" transform="scale(0.015625)"/>
       </defs>
       <use xlink:href="#DejaVuSans-35"/>
       <use xlink:href="#DejaVuSans-30" x="63.623047"/>
       <use xlink:href="#DejaVuSans-30" x="127.246094"/>
      </g>
     </g>
    </g>
    <g id="text_7">
     <!-- bin -->
     <g transform="translate(213.667969 280.276563)scale(0.1 -0.1)">
      <defs>
       <path id="DejaVuSans-62" d="M 3116 1747 
Q 3116 2381 2855 2742 
Q 2594 3103 2138 3103 
Q 1681 3103 1420 2742 
Q 1159 2381 1159 1747 
Q 1159 1113 1420 752 
Q 1681 391 2138 391 
Q 2594 391 2855 752 
Q 3116 1113 3116 1747 
z
M 1159 2969 
Q 1341 3281 1617 3432 
Q 1894 3584 2278 3584 
Q 2916 3584 3314 3078 
Q 3713 2572 3713 1747 
Q 3713 922 3314 415 
Q 2916 -91 2278 -91 
Q 1894 -91 1617 61 
Q 1341 213 1159 525 
L 1159 0 
L 581 0 
L 581 4863 
L 1159 4863 
L 1159 2969 
z
" transform="scale(0.015625)"/>
       <path id="DejaVuSans-69" d="M 603 3500 
L 1178 3500 
L 1178 0 
L 603 0 
L 603 3500 
z
M 603 4863 
L 1178 4863 
L 1178 4134 
L 603 4134 
L 603 4863 
z
" transform="scale(0.015625)"/>
       <path id="DejaVuSans-6e" d="M 3513 2113 
L 3513 0 
L 2938 0 
L 2938 2094 
Q 2938 2591 2744 2837 
Q 2550 3084 2163 3084 
Q 1697 3084 1428 2787 
Q 1159 2491 1159 1978 
L 1159 0 
L 581 0 
L 581 3500 
L 1159 3500 
L 1159 2956 
Q 1366 3272 1645 3428 
Q 1925 3584 2291 3584 
Q 2894 3584 3203 3211 
Q 3513 2838 3513 2113 
z
" transform="scale(0.015625)"/>
      </defs>
      <use xlink:href="#DejaVuSans-62"/>
      <use xlink:href="#DejaVuSans-69" x="63.476562"/>
      <use xlink:href="#DejaVuSans-6e" x="91.259766"/>
     </g>
    </g>
   </g>
   <g id="matplotlib.axis_2">
    <g id="ytick_1">
     <g id="line2d_13">
      <path d="M 54 252 
L 388.8 252 
" clip-path="url(#pc4ca3545d7)" style="fill: none; stroke: #b0b0b0; stroke-width: 0.8; stroke-linecap: square"/>
     </g>
     <g id="line2d_14">
      <defs>
       <path id="mfc4bd2302b" d="M 0 0 
L -3.5 0 
" style="stroke: #000000; stroke-width: 0.8"/>
      </defs>
      <g>
       <use xlink:href="#mfc4bd2302b" x="54" y="252" style="stroke: #000000; stroke-width: 0.8"/>
      </g>
     </g>
     <g id="text_8">
      <!-- 0.0 -->
      <g transform="translate(31.096875 255.799219)scale(0.1 -0.1)">
       <defs>
        <path id="DejaVuSans-2e" d="M 684 794 
L 1344 794 
L 1344 0 
L 684 0 
L 684 794 
z
" transform="scale(0.015625)"/>
       </defs>
       <use xlink:href="#DejaVuSans-30"/>
       <use xlink:href="#DejaVuSans-2e" x="63.623047"/>
       <use xlink:href="#DejaVuSans-30" x="95.410156"/>
      </g>
     </g>
    </g>
    <g id="ytick_2">
     <g id="line2d_15">
      <path d="M 54 208.512 
L 388.8 208.512 
" clip-path="url(#pc4ca3545d7)" style="fill: none; stroke: #b0b0b0; stroke-width: 0.8; stroke-linecap: square"/>
     </g>
     <g id="line2d_16">
      <g>
       <use xlink:href="#mfc4bd2302b" x="54" y="208.512" style="stroke: #000000; stroke-width: 0.8"/>
      </g>
     </g>
     <g id="text_9">
      <!-- 0.2 -->
      <g transform="translate(31.096875 212.311219)scale(0.1 -0.1)">
       <use xlink:href="#DejaVuSans-30"/>
       <use xlink:href="#DejaVuSans-2e" x="63.623047"/>
       <use xlink:href="#DejaVuSans-32" x="95.410156"/>
      </g>
     </g>
    </g>
    <g id="ytick_3">
     <g id="line2d_17">
      <path d="M 54 165.024 
L 388.8 165.024 
" clip-path="url(#pc4ca3545d7)" style="fill: none; stroke: #b0b0b0; stroke-width: 0.8; stroke-linecap: square"/>
     </g>
     <g id="line2d_18">
      <g>
       <use xlink:href="#mfc4bd2302b" x="54" y="165.024" style="stroke: #000000; stroke-width: 0.8"/>
      </g>
     </g>
     <g id="text_10">
      <!-- 0.4 -->
      <g transform="translate(31.096875 168.823219)scale(0.1 -0.1)">
       <use xlink:href="#DejaVuSans-30"/>
       <use xlink:href="#DejaVuSans-2e" x="63.623047"/>
       <use xlink:href="#DejaVuSans-34" x="95.410156"/>
      </g>
     </g>
    </g>
    <g id="ytick_4">
     <g id="line2d_19">
      <path d="M 54 121.536 
L 388.8 121.536 
" clip-path="url(#pc4ca3545d7)" style="fill: none; stroke: #b0b0b0; stroke-width: 0.8; stroke-linecap: square"/>
     </g>
     <g id="line2d_20">
      <g>
       <use xlink:href="#mfc4bd2302b" x="54" y="121.536" style="stroke: #000000; stroke-width: 0.8"/>
      </g>
     </g>
     <g id="text_11">
      <!-- 0.6 -->
      <g transform="translate(31.096875 125.335219)scale(0.1 -0.1)">
       <defs>
        <path id="DejaVuSans-36" d="M 2113 2584 
Q 1688 2584 1439 2293 
Q 1191 2003 1191 1497 
Q 1191 994 1439 701 
Q 1688 409 2113 409 
Q 2538 409 2786 701 
Q 3034 994 3034 1497 
Q 3034 2003 2786 2293 
Q 2538 2584 2113 2584 
z
M 3366 4563 
L 3366 3988 
Q 3128 4100 2886 4159 
Q 2644 4219 2406 4219 
Q 1781 4219 1451 3797 
Q 1122 3375 1075 2522 
Q 1259 2794 1537 2939 
Q 1816 3084 2150 3084 
Q 2853 3084 3261 2657 
Q 3669 2231 3669 1497 
Q 3669 778 3244 343 
Q 2819 -91 2113 -91 
Q 1303 -91 875 529 
Q 447 1150 447 2328 
Q 447 3434 972 4092 
Q 1497 4750 2381 4750 
Q 2619 4750 2861 4703 
Q 3103 4656 3366 4563 
z
" transform="scale(0.015625)"/>
       </defs>
       <use xlink:href="#DejaVuSans-30"/>
       <use xlink:href="#DejaVuSans-2e" x="63.623047"/>
       <use xlink:href="#DejaVuSans-36" x="95.410156"/>
      </g>
     </g>
    </g>
    <g id="ytick_5">
     <g id="line2d_21">
      <path d="M 54 78.048 
L 388.8 78.048 
" clip-path="url(#pc4ca3545d7)" style="fill: none; stroke: #b0b0b0; stroke-width: 0.8; stroke-linecap: square"/>
     </g>
     <g id="line2d_22">
      <g>
       <use xlink:href="#mfc4bd2302b" x="54" y="78.048" style="stroke: #000000; stroke-width: 0.8"/>
      </g>
     </g>
     <g id="text_12">
      <!-- 0.8 -->
      <g transform="translate(31.096875 81.847219)scale(0.1 -0.1)">
       <defs>
        <path id="DejaVuSans-38" d="M 2034 2216 
Q 1584 2216 1326 1975 
Q 1069 1734 1069 1313 
Q 1069 891 1326 650 
Q 1584 409 2034 409 
Q 2484 409 2743 651 
Q 3003 894 3003 1313 
Q 3003 1734 2745 1975 
Q 2488 2216 2034 2216 
z
M 1403 2484 
Q 997 2584 770 2862 
Q 544 3141 544 3541 
Q 544 4100 942 4425 
Q 1341 4750 2034 4750 
Q 2731 4750 3128 4425 
Q 3525 4100 3525 3541 
Q 3525 3141 3298 2862 
Q 3072 2584 2669 2484 
Q 3125 2378 3379 2068 
Q 3634 1759 3634 1313 
Q 3634 634 3220 271 
Q 2806 -91 2034 -91 
Q 1263 -91 848 271 
Q 434 634 434 1313 
Q 434 1759 690 2068 
Q 947 2378 1403 2484 
z
M 1172 3481 
Q 1172 3119 1398 2916 
Q 1625 2713 2034 2713 
Q 2441 2713 2670 2916 
Q 2900 3119 2900 3481 
Q 2900 3844 2670 4047 
Q 2441 4250 2034 4250 
Q 1625 4250 1398 4047 
Q 1172 3844 1172 3481 
z
" transform="scale(0.015625)"/>
       </defs>
       <use xlink:href="#DejaVuSans-30"/>
       <use xlink:href="#DejaVuSans-2e" x="63.623047"/>
       <use xlink:href="#DejaVuSans-38" x="95.410156"/>
      </g>
     </g>
    </g>
    <g id="ytick_6">
     <g id="line2d_23">
      <path d="M 54 34.56 
L 388.8 34.56 
" clip-path="url(#pc4ca3545d7)" style="fill: none; stroke: #b0b0b0; stroke-width: 0.8; stroke-linecap: square"/>
     </g>
     <g id="line2d_24">
      <g>
       <use xlink:href="#mfc4bd2302b" x="54" y="34.56" style="stroke: #000000; stroke-width: 0.8"/>
      </g>
     </g>
     <g id="text_13">
      <!-- 1.0 -->
      <g transform="translate(31.096875 38.359219)scale(0.1 -0.1)">
       <use xlink:href="#DejaVuSans-31"/>
       <use xlink:href="#DejaVuSans-2e" x="63.623047"/>
       <use xlink:href="#DejaVuSans-30" x="95.410156"/>
      </g>
     </g>
    </g>
    <g id="text_14">
     <!-- count -->
     <g transform="translate(25.017187 157.38625)rotate(-90)scale(0.1 -0.1)">
      <defs>
       <path id="DejaVuSans-63" d="M 3122 3366 
L 3122 2828 
Q 2878 2963 2633 3030 
Q 2388 3097 2138 3097 
Q 1578 3097 1268 2742 
Q 959 2388 959 1747 
Q 959 1106 1268 751 
Q 1578 397 2138 397 
Q 2388 397 2633 464 
Q 2878 531 3122 666 
L 3122 134 
Q 2881 22 2623 -34 
Q 2366 -91 2075 -91 
Q 1284 -91 818 406 
Q 353 903 353 1747 
Q 353 2603 823 3093 
Q 1294 3584 2113 3584 
Q 2378 3584 2631 3529 
Q 2884 3475 3122 3366 
z
" transform="scale(0.015625)"/>
       <path id="DejaVuSans-6f" d="M 1959 3097 
Q 1497 3097 1228 2736 
Q 959 2375 959 1747 
Q 959 1119 1226 758 
Q 1494 397 1959 397 
Q 2419 397 2687 759 
Q 2956 1122 2956 1747 
Q 2956 2369 2687 2733 
Q 2419 3097 1959 3097 
z
M 1959 3584 
Q 2709 3584 3137 3096 
Q 3566 2609 3566 1747 
Q 3566 888 3137 398 
Q 2709 -91 1959 -91 
Q 1206 -91 779 398 
Q 353 888 353 1747 
Q 353 2609 779 3096 
Q 1206 3584 1959 3584 
z
" transform="scale(0.015625)"/>
       <path id="DejaVuSans-75" d="M 544 1381 
L 544 3500 
L 1119 3500 
L 1119 1403 
Q 1119 906 1312 657 
Q 1506 409 1894 409 
Q 2359 409 2629 706 
Q 2900 1003 2900 1516 
L 2900 3500 
L 3475 3500 
L 3475 0 
L 2900 0 
L 2900 538 
Q 2691 219 2414 64 
Q 2138 -91 1772 -91 
Q 1169 -91 856 284 
Q 544 659 544 1381 
z
M 1991 3584 
L 1991 3584 
z
" transform="scale(0.015625)"/>
       <path id="DejaVuSans-74" d="M 1172 4494 
L 1172 3500 
L 2356 3500 
L 2356 3053 
L 1172 3053 
L 1172 1153 
Q 1172 725 1289 603 
Q 1406 481 1766 481 
L 2356 481 
L 2356 0 
L 1766 0 
Q 1100 0 847 248 
Q 594 497 594 1153 
L 594 3053 
L 172 3053 
L 172 3500 
L 594 3500 
L 594 4494 
L 1172 4494 
z
" transform="scale(0.015625)"/>
      </defs>
      <use xlink:href="#DejaVuSans-63"/>
      <use xlink:href="#DejaVuSans-6f" x="54.980469"/>
      <use xlink:href="#DejaVuSans-75" x="116.162109"/>
      <use xlink:href="#DejaVuSans-6e" x="179.541016"/>
      <use xlink:href="#DejaVuSans-74" x="242.919922"/>
     </g>
    </g>
   </g>
   <g id="line2d_25">
    <path d="M 69.218182 236.22715 
L 69.813805 240.358135 
L 70.409429 240.733679 
L 71.005052 244.864663 
L 71.600676 243.738031 
L 72.1963 244.113575 
L 72.791923 242.986943 
L 73.387547 233.598342 
L 73.98317 235.100518 
L 74.578794 245.991295 
L 75.174417 245.615751 
L 75.770041 240.733679 
L 76.365664 237.729326 
L 76.961288 242.611399 
L 77.556912 237.353782 
L 79.343782 244.113575 
L 79.939406 232.847254 
L 80.535029 235.851606 
L 81.130653 245.991295 
L 81.726276 233.598342 
L 82.3219 247.117927 
L 82.917524 246.742383 
L 83.513147 233.598342 
L 84.108771 236.22715 
L 84.704394 237.729326 
L 85.300018 239.982591 
L 85.895641 241.484767 
L 86.491265 235.476062 
L 87.086888 242.986943 
L 87.682512 241.109223 
L 88.278136 233.598342 
L 88.873759 245.615751 
L 89.469383 237.353782 
L 90.065006 242.611399 
L 90.66063 233.598342 
L 91.256253 238.10487 
L 91.851877 239.231503 
L 92.4475 244.113575 
L 93.043124 245.240207 
L 93.638748 250.497824 
L 94.234371 237.729326 
L 94.829995 235.100518 
L 95.425618 239.607047 
L 96.021242 240.358135 
L 96.616865 236.22715 
L 97.212489 235.100518 
L 97.808112 238.855959 
L 98.403736 240.358135 
L 98.99936 241.484767 
L 100.190607 233.598342 
L 100.78623 231.345078 
L 101.381854 251.624456 
L 101.977477 241.109223 
L 102.573101 237.353782 
L 103.168724 236.602694 
L 103.764348 235.476062 
L 104.359972 248.24456 
L 104.955595 239.607047 
L 105.551219 236.978238 
L 106.146842 242.235855 
L 106.742466 243.738031 
L 107.338089 246.366839 
L 107.933713 242.986943 
L 108.529336 236.602694 
L 109.12496 242.611399 
L 109.720584 228.340725 
L 110.316207 237.353782 
L 110.911831 233.222798 
L 111.507454 242.986943 
L 112.103078 242.611399 
L 112.698701 234.34943 
L 113.889948 242.611399 
L 114.485572 242.611399 
L 115.081196 238.480415 
L 115.676819 246.742383 
L 116.272443 239.607047 
L 116.868066 239.982591 
L 117.46369 250.497824 
L 118.059313 237.729326 
L 118.654937 240.358135 
L 119.25056 242.235855 
L 119.846184 247.117927 
L 120.441808 237.353782 
L 121.037431 238.10487 
L 121.633055 237.353782 
L 122.228678 237.729326 
L 122.824302 240.358135 
L 123.419925 240.358135 
L 124.015549 251.248912 
L 124.611172 239.607047 
L 125.206796 242.986943 
L 125.802419 241.860311 
L 126.398043 233.222798 
L 126.993667 241.109223 
L 127.58929 236.22715 
L 128.184914 233.973886 
L 128.780537 241.860311 
L 129.376161 233.598342 
L 129.971784 248.995648 
L 130.567408 242.986943 
L 131.163031 235.476062 
L 131.758655 239.231503 
L 132.354279 231.345078 
L 132.949902 244.113575 
L 133.545526 244.864663 
L 134.141149 232.847254 
L 134.736773 243.738031 
L 135.332396 242.235855 
L 135.92802 239.231503 
L 136.523643 242.611399 
L 137.119267 243.738031 
L 137.714891 246.742383 
L 138.310514 240.733679 
L 138.906138 243.362487 
L 139.501761 243.362487 
L 140.097385 238.855959 
L 140.693008 243.362487 
L 141.288632 234.724974 
L 141.884255 235.100518 
L 142.479879 243.738031 
L 143.075503 240.733679 
L 143.671126 236.22715 
L 144.26675 235.851606 
L 144.862373 245.991295 
L 145.457997 243.738031 
L 146.05362 234.34943 
L 146.649244 234.34943 
L 147.244867 247.493472 
L 147.840491 234.34943 
L 148.436115 238.10487 
L 149.031738 240.358135 
L 149.627362 235.476062 
L 150.222985 244.113575 
L 150.818609 241.109223 
L 151.414232 239.982591 
L 152.009856 245.240207 
L 153.201103 234.724974 
L 153.796727 239.982591 
L 154.39235 239.231503 
L 154.987974 236.978238 
L 155.583597 247.493472 
L 156.179221 239.231503 
L 156.774844 224.960829 
L 157.370468 247.117927 
L 158.561715 237.353782 
L 159.157339 241.484767 
L 159.752962 233.598342 
L 160.348586 236.602694 
L 160.944209 240.358135 
L 161.539833 232.096166 
L 162.135456 231.345078 
L 163.326703 235.851606 
L 163.922327 240.733679 
L 164.517951 238.480415 
L 165.113574 236.978238 
L 165.709198 230.59399 
L 166.304821 247.117927 
L 166.900445 238.855959 
L 167.496068 241.860311 
L 168.091692 246.366839 
L 168.687315 244.489119 
L 169.282939 241.860311 
L 169.878563 246.742383 
L 170.474186 234.724974 
L 171.06981 239.231503 
L 171.665433 230.969534 
L 172.261057 236.22715 
L 172.85668 235.851606 
L 173.452304 248.24456 
L 174.047927 240.358135 
L 174.643551 244.113575 
L 175.239175 242.986943 
L 175.834798 242.986943 
L 176.430422 240.358135 
L 177.026045 233.973886 
L 177.621669 237.729326 
L 178.217292 245.240207 
L 178.812916 245.240207 
L 179.408539 238.480415 
L 180.004163 244.864663 
L 180.599787 245.615751 
L 181.19541 229.467358 
L 181.791034 244.864663 
L 182.386657 235.476062 
L 182.982281 239.982591 
L 183.577904 235.100518 
L 184.173528 236.602694 
L 184.769151 241.484767 
L 185.364775 243.738031 
L 185.960399 232.096166 
L 186.556022 238.10487 
L 187.151646 234.724974 
L 187.747269 245.615751 
L 188.342893 241.484767 
L 188.938516 240.358135 
L 189.53414 240.358135 
L 190.129763 231.345078 
L 190.725387 239.231503 
L 191.32101 239.982591 
L 191.916634 241.484767 
L 192.512258 239.607047 
L 193.107881 241.860311 
L 193.703505 232.47171 
L 194.299128 229.842902 
L 194.894752 239.231503 
L 195.490375 235.476062 
L 196.085999 243.362487 
L 196.681622 244.113575 
L 197.277246 240.733679 
L 197.87287 239.231503 
L 198.468493 242.235855 
L 199.064117 240.733679 
L 199.65974 243.738031 
L 200.255364 236.22715 
L 200.850987 242.235855 
L 201.446611 239.607047 
L 202.042234 242.986943 
L 203.233482 242.235855 
L 203.829105 235.476062 
L 204.424729 242.611399 
L 205.020352 242.611399 
L 205.615976 247.869016 
L 206.211599 244.864663 
L 206.807223 235.851606 
L 207.402846 244.489119 
L 207.99847 239.607047 
L 208.594094 240.733679 
L 209.189717 242.611399 
L 209.785341 242.611399 
L 210.380964 237.729326 
L 210.976588 242.611399 
L 211.572211 244.113575 
L 212.167835 238.480415 
L 212.763458 236.602694 
L 213.359082 245.240207 
L 213.954706 243.738031 
L 214.550329 240.733679 
L 215.145953 241.109223 
L 215.741576 238.855959 
L 216.3372 229.091813 
L 216.932823 228.340725 
L 217.528447 230.218446 
L 218.12407 222.332021 
L 218.719694 217.825492 
L 219.910941 187.030881 
L 220.506565 174.637927 
L 221.102188 150.978653 
L 221.697812 139.336788 
L 222.293435 109.668808 
L 222.889059 71.73886 
L 223.484682 71.363316 
L 224.080306 45.450777 
L 224.67593 35.686632 
L 225.271553 36.062176 
L 225.867177 34.56 
L 226.4628 38.31544 
L 227.654047 64.603523 
L 228.249671 89.764974 
L 228.845294 129.948187 
L 229.440918 135.581347 
L 230.036542 169.755855 
L 230.632165 181.022176 
L 231.227789 206.183627 
L 231.823412 219.703212 
L 232.419036 209.187979 
L 233.014659 215.947772 
L 233.610283 226.463005 
L 234.205906 233.973886 
L 234.80153 232.47171 
L 235.397154 237.729326 
L 235.992777 234.34943 
L 236.588401 242.986943 
L 237.184024 235.100518 
L 238.375271 244.113575 
L 238.970895 241.860311 
L 239.566518 233.973886 
L 240.162142 234.724974 
L 240.757766 240.358135 
L 241.353389 243.738031 
L 242.544636 235.476062 
L 243.14026 234.34943 
L 243.735883 237.353782 
L 244.331507 236.978238 
L 244.92713 240.733679 
L 245.522754 241.484767 
L 246.118378 245.615751 
L 246.714001 239.982591 
L 247.309625 238.855959 
L 247.905248 250.497824 
L 248.500872 235.100518 
L 249.692119 244.864663 
L 250.287742 233.222798 
L 250.883366 240.358135 
L 251.47899 240.733679 
L 252.074613 233.598342 
L 252.670237 236.602694 
L 253.26586 238.480415 
L 253.861484 236.602694 
L 254.457107 237.353782 
L 255.052731 244.113575 
L 255.648354 244.489119 
L 256.243978 237.353782 
L 256.839601 237.353782 
L 257.435225 236.978238 
L 258.030849 239.982591 
L 258.626472 239.982591 
L 259.222096 244.113575 
L 259.817719 242.611399 
L 260.413343 235.851606 
L 261.008966 244.113575 
L 261.60459 234.34943 
L 262.200213 242.235855 
L 262.795837 239.231503 
L 263.391461 241.484767 
L 263.987084 238.10487 
L 264.582708 238.480415 
L 265.178331 230.59399 
L 265.773955 238.480415 
L 266.369578 235.476062 
L 266.965202 231.720622 
L 267.560825 230.969534 
L 268.156449 246.366839 
L 268.752073 235.100518 
L 269.347696 238.855959 
L 269.94332 233.598342 
L 270.538943 236.978238 
L 271.134567 236.978238 
L 271.73019 232.47171 
L 272.325814 249.371192 
L 272.921437 238.855959 
L 273.517061 236.22715 
L 274.112685 238.10487 
L 274.708308 238.10487 
L 275.303932 237.729326 
L 275.899555 240.733679 
L 276.495179 240.358135 
L 277.090802 241.484767 
L 277.686426 242.235855 
L 278.282049 244.113575 
L 278.877673 241.109223 
L 279.473297 232.847254 
L 280.06892 243.738031 
L 280.664544 236.602694 
L 281.260167 239.231503 
L 281.855791 233.598342 
L 282.451414 234.724974 
L 283.047038 236.22715 
L 283.642661 242.986943 
L 284.238285 236.978238 
L 284.833909 245.240207 
L 285.429532 248.24456 
L 286.025156 232.847254 
L 286.620779 234.724974 
L 287.216403 238.10487 
L 287.812026 243.362487 
L 288.40765 242.611399 
L 289.003273 249.371192 
L 289.598897 242.986943 
L 290.194521 238.480415 
L 290.790144 227.965181 
L 291.385768 241.109223 
L 291.981391 246.742383 
L 292.577015 229.467358 
L 293.172638 241.860311 
L 293.768262 247.869016 
L 294.363885 248.620104 
L 294.959509 235.851606 
L 295.555133 232.847254 
L 296.150756 242.235855 
L 296.74638 233.973886 
L 297.342003 237.729326 
L 297.937627 242.611399 
L 298.53325 248.995648 
L 299.128874 240.733679 
L 299.724497 238.10487 
L 300.320121 232.847254 
L 300.915745 240.733679 
L 301.511368 244.489119 
L 302.106992 238.480415 
L 302.702615 246.366839 
L 303.298239 243.738031 
L 303.893862 242.611399 
L 304.489486 249.371192 
L 305.085109 239.982591 
L 305.680733 243.362487 
L 306.276357 234.34943 
L 306.87198 234.34943 
L 308.063227 238.855959 
L 308.658851 235.851606 
L 309.254474 238.10487 
L 309.850098 236.22715 
L 310.445721 235.476062 
L 311.041345 232.47171 
L 311.636969 235.851606 
L 312.232592 245.991295 
L 312.828216 243.738031 
L 313.423839 238.480415 
L 314.019463 241.484767 
L 314.615086 239.231503 
L 315.21071 228.716269 
L 315.806333 243.738031 
L 316.401957 243.362487 
L 316.997581 241.109223 
L 317.593204 239.607047 
L 318.188828 241.109223 
L 318.784451 236.22715 
L 319.380075 235.851606 
L 319.975698 247.869016 
L 320.571322 238.855959 
L 321.166945 242.235855 
L 321.762569 247.117927 
L 322.358192 240.733679 
L 322.953816 245.991295 
L 323.54944 238.10487 
L 324.145063 250.497824 
L 324.740687 245.615751 
L 325.33631 238.855959 
L 325.931934 242.986943 
L 326.527557 241.860311 
L 327.123181 247.869016 
L 327.718804 248.995648 
L 328.314428 243.738031 
L 328.910052 239.982591 
L 329.505675 245.615751 
L 330.101299 241.109223 
L 330.696922 238.855959 
L 331.292546 245.615751 
L 331.888169 235.851606 
L 332.483793 240.733679 
L 333.079416 232.847254 
L 333.67504 241.109223 
L 334.270664 232.847254 
L 334.866287 241.860311 
L 335.461911 233.222798 
L 336.057534 245.615751 
L 336.653158 243.738031 
L 337.248781 244.113575 
L 337.844405 243.362487 
L 338.440028 238.855959 
L 339.035652 235.476062 
L 339.631276 246.742383 
L 340.226899 239.607047 
L 340.822523 241.860311 
L 341.418146 242.986943 
L 342.01377 242.611399 
L 342.609393 238.10487 
L 343.205017 236.602694 
L 343.80064 244.864663 
L 344.396264 243.362487 
L 344.991888 237.353782 
L 345.587511 243.362487 
L 346.183135 242.611399 
L 346.778758 250.12228 
L 347.374382 244.864663 
L 347.970005 233.222798 
L 348.565629 236.22715 
L 349.161252 242.611399 
L 349.756876 236.22715 
L 350.3525 239.231503 
L 350.948123 241.484767 
L 351.543747 241.109223 
L 352.13937 245.991295 
L 352.734994 248.620104 
L 353.330617 239.607047 
L 353.926241 241.109223 
L 354.521864 236.978238 
L 355.117488 242.611399 
L 355.713112 244.113575 
L 356.308735 237.729326 
L 356.904359 250.497824 
L 357.499982 235.100518 
L 358.095606 235.100518 
L 358.691229 245.240207 
L 359.286853 242.986943 
L 359.882476 243.738031 
L 360.4781 228.340725 
L 361.073724 237.729326 
L 361.669347 239.982591 
L 362.264971 239.982591 
L 362.860594 235.851606 
L 363.456218 248.24456 
L 364.051841 244.489119 
L 364.647465 248.620104 
L 365.243088 234.34943 
L 365.838712 238.10487 
L 366.434336 252 
L 367.029959 239.607047 
L 367.625583 242.986943 
L 368.221206 230.59399 
L 368.81683 239.607047 
L 369.412453 244.113575 
L 370.008077 239.982591 
L 370.6037 246.742383 
L 371.199324 239.231503 
L 372.390571 243.362487 
L 372.986195 245.240207 
L 373.581818 233.222798 
L 373.581818 233.222798 
" clip-path="url(#pc4ca3545d7)" style="fill: none; stroke: #1f77b4; stroke-width: 1.5; stroke-linecap: square"/>
   </g>
   <g id="line2d_26">
    <path d="M 69.218182 232.384491 
L 69.813805 233.219194 
L 70.409429 236.140653 
L 71.005052 234.471248 
L 71.600676 220.698656 
L 72.1963 224.037466 
L 72.791923 213.186334 
L 73.387547 215.690441 
L 73.98317 229.045681 
L 75.174417 206.926065 
L 75.770041 217.359846 
L 76.365664 229.880384 
L 77.556912 216.525144 
L 78.748159 236.140653 
L 79.343782 217.777198 
L 79.939406 216.942495 
L 80.535029 236.975355 
L 81.130653 224.872169 
L 81.726276 242.818273 
L 82.917524 230.297735 
L 83.513147 219.446603 
L 84.108771 238.64476 
L 84.704394 213.603685 
L 85.300018 216.942495 
L 85.895641 229.045681 
L 86.491265 235.723301 
L 87.086888 231.549789 
L 87.682512 242.818273 
L 88.278136 224.872169 
L 89.469383 243.652975 
L 90.065006 226.958925 
L 90.66063 232.801843 
L 91.256253 216.107793 
L 91.851877 232.384491 
L 92.4475 237.392706 
L 93.043124 226.958925 
L 93.638748 222.785413 
L 94.234371 228.62833 
L 94.829995 227.793628 
L 95.425618 236.140653 
L 96.021242 226.541574 
L 96.616865 227.793628 
L 97.212489 236.140653 
L 97.808112 240.731516 
L 98.403736 230.297735 
L 98.99936 207.343417 
L 99.594983 236.975355 
L 100.190607 220.281305 
L 100.78623 247.826488 
L 101.381854 214.438388 
L 101.977477 225.706871 
L 102.573101 214.855739 
L 103.168724 233.219194 
L 103.764348 229.045681 
L 104.359972 206.091363 
L 104.955595 224.037466 
L 105.551219 234.053896 
L 106.146842 233.636545 
L 106.742466 233.636545 
L 107.338089 201.500499 
L 107.933713 235.30595 
L 108.529336 229.463033 
L 109.12496 243.652975 
L 109.720584 224.037466 
L 110.316207 213.603685 
L 110.911831 225.28952 
L 111.507454 222.368061 
L 112.103078 240.731516 
L 112.698701 207.343417 
L 113.294325 213.603685 
L 113.889948 231.96714 
L 114.485572 221.95071 
L 115.081196 224.454818 
L 115.676819 225.28952 
L 116.272443 236.140653 
L 116.868066 231.132438 
L 117.46369 234.471248 
L 118.059313 240.314165 
L 118.654937 230.715086 
L 119.25056 236.558004 
L 119.846184 208.59547 
L 121.037431 235.30595 
L 121.633055 226.124223 
L 122.228678 221.95071 
L 122.824302 196.492284 
L 123.419925 226.541574 
L 124.015549 219.029251 
L 124.611172 227.376276 
L 125.206796 224.037466 
L 125.802419 244.070326 
L 126.398043 237.810058 
L 126.993667 228.210979 
L 127.58929 233.636545 
L 128.184914 235.723301 
L 129.376161 218.194549 
L 129.971784 231.549789 
L 130.567408 233.219194 
L 131.163031 206.091363 
L 131.758655 231.549789 
L 132.354279 220.698656 
L 132.949902 222.785413 
L 133.545526 223.202764 
L 134.141149 227.376276 
L 134.736773 246.157083 
L 135.332396 232.384491 
L 135.92802 237.810058 
L 137.119267 224.454818 
L 137.714891 221.116008 
L 138.310514 224.454818 
L 138.906138 226.958925 
L 139.501761 210.682226 
L 140.097385 232.801843 
L 140.693008 227.376276 
L 141.288632 230.715086 
L 141.884255 249.495893 
L 142.479879 212.768983 
L 143.075503 216.942495 
L 143.671126 215.27309 
L 144.862373 239.479463 
L 145.457997 222.785413 
L 146.05362 226.541574 
L 146.649244 203.587255 
L 147.244867 249.913244 
L 147.840491 239.896814 
L 148.436115 221.116008 
L 149.031738 230.715086 
L 149.627362 220.281305 
L 150.222985 222.785413 
L 150.818609 224.454818 
L 151.414232 223.620115 
L 152.009856 236.140653 
L 152.605479 210.264875 
L 153.201103 215.27309 
L 153.796727 230.715086 
L 154.39235 232.384491 
L 154.987974 222.368061 
L 155.583597 236.558004 
L 156.179221 201.083148 
L 156.774844 228.210979 
L 157.370468 215.27309 
L 157.966091 219.446603 
L 158.561715 226.124223 
L 159.157339 230.715086 
L 159.752962 229.045681 
L 160.348586 239.062111 
L 160.944209 217.359846 
L 161.539833 231.549789 
L 162.135456 241.566219 
L 162.73108 220.281305 
L 163.326703 215.690441 
L 163.922327 229.880384 
L 164.517951 226.541574 
L 165.113574 229.463033 
L 165.709198 201.500499 
L 166.900445 222.368061 
L 167.496068 249.078541 
L 168.091692 214.438388 
L 168.687315 223.620115 
L 169.282939 218.194549 
L 169.878563 225.706871 
L 170.474186 217.359846 
L 171.06981 211.93428 
L 171.665433 236.140653 
L 172.261057 242.818273 
L 172.85668 205.674012 
L 173.452304 216.107793 
L 174.047927 222.785413 
L 174.643551 221.533359 
L 175.239175 211.516929 
L 175.834798 224.037466 
L 176.430422 218.6119 
L 177.026045 217.777198 
L 177.621669 226.124223 
L 178.217292 225.28952 
L 178.812916 251.582649 
L 179.408539 212.768983 
L 180.004163 235.30595 
L 180.599787 242.818273 
L 181.19541 234.053896 
L 181.791034 235.30595 
L 182.386657 220.281305 
L 183.577904 231.96714 
L 184.173528 244.487678 
L 184.769151 226.124223 
L 185.364775 236.975355 
L 185.960399 250.747946 
L 186.556022 230.715086 
L 187.151646 226.124223 
L 187.747269 218.6119 
L 188.342893 204.004607 
L 188.938516 233.219194 
L 189.53414 214.855739 
L 190.129763 218.6119 
L 190.725387 229.045681 
L 191.32101 230.715086 
L 191.916634 218.6119 
L 192.512258 231.549789 
L 193.107881 219.029251 
L 193.703505 227.376276 
L 194.299128 216.942495 
L 194.894752 219.863954 
L 195.490375 227.793628 
L 196.085999 224.872169 
L 196.681622 230.297735 
L 197.277246 223.620115 
L 197.87287 224.037466 
L 198.468493 227.376276 
L 199.064117 223.620115 
L 199.65974 233.636545 
L 200.255364 232.384491 
L 200.850987 226.124223 
L 201.446611 221.95071 
L 202.042234 216.525144 
L 202.637858 241.148868 
L 203.233482 231.132438 
L 203.829105 232.384491 
L 204.424729 233.219194 
L 205.020352 230.297735 
L 205.615976 230.297735 
L 206.211599 226.124223 
L 206.807223 215.690441 
L 207.402846 220.698656 
L 207.99847 227.376276 
L 208.594094 229.045681 
L 209.189717 214.855739 
L 209.785341 213.603685 
L 210.380964 230.715086 
L 211.572211 224.454818 
L 212.167835 234.053896 
L 212.763458 212.768983 
L 213.359082 224.872169 
L 213.954706 223.202764 
L 214.550329 237.810058 
L 215.145953 224.454818 
L 215.741576 236.975355 
L 216.3372 223.202764 
L 216.932823 222.368061 
L 217.528447 236.975355 
L 218.12407 231.549789 
L 218.719694 229.880384 
L 219.315318 240.314165 
L 219.910941 233.219194 
L 220.506565 211.516929 
L 221.102188 233.219194 
L 221.697812 213.603685 
L 222.293435 218.6119 
L 222.889059 208.178119 
L 223.484682 226.541574 
L 224.080306 226.124223 
L 224.67593 224.454818 
L 225.271553 224.872169 
L 225.867177 237.810058 
L 226.4628 231.96714 
L 227.058424 227.793628 
L 227.654047 194.822879 
L 228.249671 211.099578 
L 228.845294 235.30595 
L 229.440918 243.652975 
L 230.036542 230.297735 
L 230.632165 246.157083 
L 231.227789 225.706871 
L 231.823412 243.235624 
L 232.419036 252 
L 233.610283 226.541574 
L 234.205906 240.314165 
L 234.80153 210.682226 
L 235.397154 215.690441 
L 235.992777 213.603685 
L 237.184024 204.839309 
L 237.779648 188.979962 
L 238.375271 182.302342 
L 238.970895 167.277697 
L 239.566518 143.906027 
L 240.162142 152.253052 
L 240.757766 94.65858 
L 241.353389 83.807447 
L 241.949013 91.737121 
L 242.544636 71.704261 
L 243.14026 57.096967 
L 243.735883 39.568215 
L 244.331507 36.229405 
L 244.92713 34.56 
L 245.522754 46.663186 
L 246.118378 88.815662 
L 246.714001 110.100576 
L 247.309625 85.476852 
L 247.905248 132.637543 
L 248.500872 160.182726 
L 250.287742 211.099578 
L 250.883366 221.95071 
L 252.074613 212.768983 
L 252.670237 226.541574 
L 253.26586 207.343417 
L 253.861484 229.463033 
L 254.457107 244.487678 
L 255.052731 229.045681 
L 255.648354 219.029251 
L 256.839601 241.148868 
L 257.435225 219.863954 
L 258.030849 204.839309 
L 258.626472 231.549789 
L 259.222096 217.777198 
L 259.817719 231.96714 
L 260.413343 237.810058 
L 261.008966 233.636545 
L 261.60459 233.636545 
L 262.200213 239.062111 
L 262.795837 232.384491 
L 263.391461 230.297735 
L 263.987084 241.566219 
L 264.582708 238.227409 
L 265.178331 234.053896 
L 265.773955 229.045681 
L 266.369578 209.430173 
L 266.965202 237.392706 
L 267.560825 229.045681 
L 268.156449 227.793628 
L 268.752073 214.855739 
L 269.347696 220.698656 
L 269.94332 216.942495 
L 270.538943 226.958925 
L 271.134567 244.905029 
L 271.73019 226.541574 
L 272.325814 222.368061 
L 272.921437 224.872169 
L 273.517061 244.070326 
L 274.112685 220.281305 
L 274.708308 243.235624 
L 275.303932 224.037466 
L 275.899555 231.549789 
L 276.495179 223.620115 
L 277.090802 241.148868 
L 277.686426 228.210979 
L 278.282049 224.454818 
L 278.877673 216.942495 
L 279.473297 230.297735 
L 280.06892 229.045681 
L 280.664544 221.116008 
L 281.260167 239.062111 
L 281.855791 216.525144 
L 282.451414 214.855739 
L 283.047038 234.053896 
L 283.642661 231.132438 
L 284.238285 222.785413 
L 284.833909 220.698656 
L 285.429532 230.297735 
L 286.025156 228.210979 
L 286.620779 229.463033 
L 287.216403 227.376276 
L 287.812026 238.227409 
L 288.40765 229.463033 
L 289.003273 240.731516 
L 289.598897 203.587255 
L 290.194521 214.021036 
L 290.790144 232.384491 
L 291.981391 216.525144 
L 293.172638 241.98357 
L 293.768262 224.037466 
L 294.363885 199.413743 
L 294.959509 210.682226 
L 295.555133 235.30595 
L 296.150756 239.479463 
L 296.74638 232.384491 
L 297.342003 239.896814 
L 297.937627 217.777198 
L 298.53325 224.872169 
L 299.128874 223.620115 
L 299.724497 240.731516 
L 300.320121 224.872169 
L 300.915745 236.975355 
L 301.511368 236.558004 
L 302.106992 239.896814 
L 302.702615 219.029251 
L 303.298239 222.785413 
L 303.893862 228.210979 
L 304.489486 219.029251 
L 305.085109 236.558004 
L 305.680733 239.896814 
L 306.276357 216.942495 
L 306.87198 246.991785 
L 308.658851 216.525144 
L 309.254474 216.942495 
L 309.850098 234.888599 
L 310.445721 226.541574 
L 311.041345 229.463033 
L 311.636969 224.454818 
L 312.232592 217.777198 
L 312.828216 225.706871 
L 313.423839 226.541574 
L 314.019463 242.818273 
L 314.615086 239.479463 
L 315.21071 210.264875 
L 315.806333 247.826488 
L 316.401957 230.715086 
L 316.997581 225.28952 
L 317.593204 224.454818 
L 318.188828 232.801843 
L 318.784451 229.880384 
L 319.380075 225.706871 
L 319.975698 214.438388 
L 320.571322 231.132438 
L 321.166945 229.880384 
L 321.762569 229.045681 
L 322.358192 230.715086 
L 322.953816 226.958925 
L 323.54944 219.446603 
L 324.145063 237.810058 
L 324.740687 222.785413 
L 325.33631 223.620115 
L 325.931934 209.430173 
L 326.527557 238.64476 
L 327.123181 211.516929 
L 327.718804 230.297735 
L 328.314428 227.376276 
L 328.910052 219.029251 
L 329.505675 232.384491 
L 330.101299 232.384491 
L 330.696922 213.186334 
L 331.292546 216.942495 
L 331.888169 215.690441 
L 332.483793 221.95071 
L 333.079416 241.98357 
L 333.67504 210.264875 
L 334.270664 231.132438 
L 334.866287 216.942495 
L 335.461911 224.454818 
L 336.057534 221.533359 
L 336.653158 222.368061 
L 337.248781 229.880384 
L 337.844405 221.95071 
L 338.440028 231.96714 
L 339.035652 239.896814 
L 339.631276 229.880384 
L 340.226899 208.178119 
L 340.822523 234.053896 
L 341.418146 232.384491 
L 342.01377 234.888599 
L 342.609393 222.785413 
L 343.205017 235.30595 
L 343.80064 223.202764 
L 344.396264 229.880384 
L 344.991888 229.880384 
L 345.587511 234.471248 
L 346.183135 231.549789 
L 346.778758 235.723301 
L 347.374382 222.785413 
L 347.970005 223.202764 
L 348.565629 234.888599 
L 349.161252 230.297735 
L 349.756876 229.045681 
L 350.3525 222.368061 
L 350.948123 221.95071 
L 351.543747 225.28952 
L 352.13937 241.98357 
L 352.734994 224.037466 
L 353.330617 236.140653 
L 353.926241 226.958925 
L 354.521864 221.533359 
L 355.117488 241.98357 
L 355.713112 215.27309 
L 356.308735 211.099578 
L 356.904359 219.029251 
L 357.499982 239.062111 
L 358.095606 224.872169 
L 358.691229 246.157083 
L 359.286853 222.368061 
L 359.882476 229.880384 
L 360.4781 234.888599 
L 361.073724 234.053896 
L 361.669347 234.053896 
L 362.264971 236.975355 
L 362.860594 208.178119 
L 363.456218 228.210979 
L 364.051841 228.62833 
L 364.647465 231.96714 
L 365.243088 221.533359 
L 365.838712 231.132438 
L 366.434336 234.471248 
L 367.029959 231.96714 
L 367.625583 213.603685 
L 368.221206 226.541574 
L 368.81683 223.620115 
L 369.412453 221.95071 
L 370.008077 230.715086 
L 370.6037 228.210979 
L 371.199324 229.463033 
L 371.794948 223.620115 
L 372.390571 222.785413 
L 372.986195 218.194549 
L 373.581818 245.32238 
L 373.581818 245.32238 
" clip-path="url(#pc4ca3545d7)" style="fill: none; stroke: #ff7f0e; stroke-width: 1.5; stroke-linecap: square"/>
   </g>
   <g id="line2d_27">
    <path d="M 69.218182 216.515 
L 69.813805 210.475 
L 70.409429 224.82 
L 71.005052 224.82 
L 71.600676 226.33 
L 72.1963 215.005 
L 72.791923 234.635 
L 73.387547 215.76 
L 73.98317 221.045 
L 74.578794 213.495 
L 75.174417 223.31 
L 75.770041 204.435 
L 76.365664 208.21 
L 76.961288 213.495 
L 77.556912 229.35 
L 78.152535 212.74 
L 78.748159 213.495 
L 79.343782 209.72 
L 79.939406 221.045 
L 80.535029 208.21 
L 81.130653 221.045 
L 81.726276 218.78 
L 82.3219 205.19 
L 82.917524 224.065 
L 84.108771 230.105 
L 85.300018 218.78 
L 85.895641 206.7 
L 86.491265 227.085 
L 87.086888 214.25 
L 87.682512 209.72 
L 88.278136 198.395 
L 88.873759 217.27 
L 89.469383 218.025 
L 90.065006 215.76 
L 90.66063 236.145 
L 91.256253 227.84 
L 91.851877 203.68 
L 92.4475 202.925 
L 93.043124 222.555 
L 93.638748 207.455 
L 94.234371 213.495 
L 94.829995 208.965 
L 95.425618 205.945 
L 96.021242 233.125 
L 96.616865 207.455 
L 97.212489 210.475 
L 97.808112 225.575 
L 98.403736 206.7 
L 98.99936 226.33 
L 99.594983 219.535 
L 100.190607 237.655 
L 100.78623 221.8 
L 101.381854 211.23 
L 101.977477 203.68 
L 102.573101 220.29 
L 103.168724 211.23 
L 103.764348 227.085 
L 104.359972 211.985 
L 104.955595 214.25 
L 105.551219 229.35 
L 106.146842 224.82 
L 106.742466 227.085 
L 107.338089 198.395 
L 107.933713 207.455 
L 108.529336 209.72 
L 109.12496 202.17 
L 109.720584 213.495 
L 110.316207 217.27 
L 110.911831 230.86 
L 111.507454 213.495 
L 112.103078 200.66 
L 112.698701 208.21 
L 113.294325 211.985 
L 113.889948 219.535 
L 114.485572 215.005 
L 115.081196 217.27 
L 115.676819 208.21 
L 116.272443 214.25 
L 116.868066 235.39 
L 117.46369 215.005 
L 118.059313 215.005 
L 118.654937 214.25 
L 119.25056 227.84 
L 119.846184 227.085 
L 120.441808 224.82 
L 121.037431 223.31 
L 122.228678 215.76 
L 122.824302 224.82 
L 123.419925 216.515 
L 124.015549 225.575 
L 124.611172 225.575 
L 125.206796 217.27 
L 125.802419 215.76 
L 126.398043 230.86 
L 126.993667 228.595 
L 127.58929 219.535 
L 128.184914 220.29 
L 128.780537 209.72 
L 129.376161 215.76 
L 129.971784 217.27 
L 130.567408 227.84 
L 131.163031 215.76 
L 131.758655 218.025 
L 132.354279 227.84 
L 132.949902 208.965 
L 133.545526 235.39 
L 134.141149 205.945 
L 134.736773 197.64 
L 135.332396 221.045 
L 135.92802 225.575 
L 136.523643 215.005 
L 137.119267 198.395 
L 137.714891 202.925 
L 138.906138 220.29 
L 139.501761 221.045 
L 140.097385 205.945 
L 140.693008 219.535 
L 141.288632 210.475 
L 141.884255 211.985 
L 142.479879 215.76 
L 143.075503 241.43 
L 143.671126 211.23 
L 144.26675 217.27 
L 144.862373 200.66 
L 145.457997 232.37 
L 146.05362 233.125 
L 146.649244 225.575 
L 147.244867 204.435 
L 147.840491 202.925 
L 148.436115 239.165 
L 149.031738 225.575 
L 149.627362 201.415 
L 150.222985 221.8 
L 150.818609 211.985 
L 151.414232 210.475 
L 152.009856 203.68 
L 152.605479 207.455 
L 153.201103 239.92 
L 153.796727 205.945 
L 154.39235 207.455 
L 154.987974 224.065 
L 155.583597 218.78 
L 156.179221 202.17 
L 156.774844 227.085 
L 157.370468 203.68 
L 157.966091 214.25 
L 158.561715 230.105 
L 159.157339 219.535 
L 159.752962 206.7 
L 160.348586 206.7 
L 160.944209 228.595 
L 161.539833 222.555 
L 162.135456 215.005 
L 162.73108 227.085 
L 163.326703 211.985 
L 163.922327 233.125 
L 164.517951 221.045 
L 165.113574 221.045 
L 165.709198 226.33 
L 166.304821 219.535 
L 166.900445 190.845 
L 167.496068 221.8 
L 168.091692 217.27 
L 168.687315 224.82 
L 169.282939 224.065 
L 169.878563 207.455 
L 170.474186 228.595 
L 171.06981 233.88 
L 171.665433 237.655 
L 172.261057 203.68 
L 172.85668 211.985 
L 173.452304 226.33 
L 174.047927 211.23 
L 174.643551 215.005 
L 175.239175 221.8 
L 175.834798 215.76 
L 176.430422 224.065 
L 177.026045 215.76 
L 178.217292 239.165 
L 178.812916 215.76 
L 179.408539 222.555 
L 180.004163 227.085 
L 180.599787 225.575 
L 181.19541 209.72 
L 181.791034 215.76 
L 182.386657 224.82 
L 182.982281 213.495 
L 183.577904 219.535 
L 184.173528 231.615 
L 184.769151 200.66 
L 185.364775 189.335 
L 185.960399 198.395 
L 186.556022 224.065 
L 187.151646 205.945 
L 187.747269 215.005 
L 188.342893 206.7 
L 188.938516 209.72 
L 189.53414 221.045 
L 190.129763 239.92 
L 190.725387 215.005 
L 191.32101 208.965 
L 191.916634 236.9 
L 192.512258 212.74 
L 193.107881 208.965 
L 193.703505 206.7 
L 194.299128 201.415 
L 195.490375 226.33 
L 196.085999 205.945 
L 196.681622 230.86 
L 197.277246 204.435 
L 197.87287 220.29 
L 198.468493 212.74 
L 199.064117 228.595 
L 199.65974 208.965 
L 200.255364 239.165 
L 200.850987 202.925 
L 201.446611 219.535 
L 202.042234 215.76 
L 202.637858 226.33 
L 203.233482 198.395 
L 203.829105 212.74 
L 204.424729 236.9 
L 205.020352 215.005 
L 205.615976 202.17 
L 206.211599 220.29 
L 206.807223 230.86 
L 207.402846 213.495 
L 207.99847 216.515 
L 208.594094 215.76 
L 209.189717 211.985 
L 209.785341 225.575 
L 210.380964 212.74 
L 210.976588 208.965 
L 211.572211 219.535 
L 212.167835 221.045 
L 212.763458 218.025 
L 213.359082 225.575 
L 213.954706 217.27 
L 215.145953 223.31 
L 216.3372 208.965 
L 216.932823 236.145 
L 217.528447 207.455 
L 218.12407 224.82 
L 218.719694 223.31 
L 219.315318 230.105 
L 219.910941 226.33 
L 220.506565 221.045 
L 221.102188 220.29 
L 221.697812 215.005 
L 222.293435 212.74 
L 222.889059 208.21 
L 223.484682 212.74 
L 224.080306 222.555 
L 224.67593 201.415 
L 225.271553 202.925 
L 225.867177 225.575 
L 226.4628 223.31 
L 227.058424 209.72 
L 227.654047 208.965 
L 228.249671 237.655 
L 228.845294 208.21 
L 229.440918 227.84 
L 230.036542 216.515 
L 230.632165 218.78 
L 231.227789 213.495 
L 231.823412 206.7 
L 232.419036 217.27 
L 233.014659 233.125 
L 233.610283 224.82 
L 234.205906 222.555 
L 234.80153 205.945 
L 235.397154 217.27 
L 235.992777 210.475 
L 236.588401 222.555 
L 237.184024 212.74 
L 237.779648 223.31 
L 238.375271 205.945 
L 238.970895 221.045 
L 239.566518 218.025 
L 240.162142 231.615 
L 240.757766 225.575 
L 241.949013 202.17 
L 242.544636 202.925 
L 243.14026 223.31 
L 243.735883 227.085 
L 244.331507 205.19 
L 244.92713 238.41 
L 245.522754 222.555 
L 246.118378 230.105 
L 246.714001 202.17 
L 247.309625 229.35 
L 247.905248 213.495 
L 248.500872 222.555 
L 249.096495 218.025 
L 249.692119 216.515 
L 250.287742 205.945 
L 250.883366 220.29 
L 251.47899 219.535 
L 252.074613 226.33 
L 252.670237 217.27 
L 253.26586 232.37 
L 253.861484 199.15 
L 254.457107 217.27 
L 255.052731 224.82 
L 255.648354 218.025 
L 256.243978 224.82 
L 256.839601 214.25 
L 257.435225 227.84 
L 258.030849 228.595 
L 258.626472 219.535 
L 259.222096 204.435 
L 259.817719 219.535 
L 260.413343 215.005 
L 261.008966 212.74 
L 261.60459 201.415 
L 262.200213 226.33 
L 262.795837 227.085 
L 263.391461 217.27 
L 263.987084 218.025 
L 264.582708 227.84 
L 265.178331 216.515 
L 265.773955 214.25 
L 266.369578 228.595 
L 266.965202 234.635 
L 267.560825 204.435 
L 268.156449 230.105 
L 268.752073 199.15 
L 269.347696 221.045 
L 269.94332 218.78 
L 270.538943 233.125 
L 271.134567 219.535 
L 271.73019 229.35 
L 272.325814 217.27 
L 272.921437 217.27 
L 273.517061 211.23 
L 274.112685 231.615 
L 274.708308 222.555 
L 275.303932 195.375 
L 275.899555 196.885 
L 276.495179 205.945 
L 277.090802 186.315 
L 277.686426 181.03 
L 278.282049 167.44 
L 280.664544 76.84 
L 281.260167 79.86 
L 281.855791 64.005 
L 282.451414 34.56 
L 283.047038 51.17 
L 283.642661 35.315 
L 284.238285 39.09 
L 284.833909 92.695 
L 285.429532 84.39 
L 286.025156 98.735 
L 286.620779 97.225 
L 287.812026 149.32 
L 288.40765 166.685 
L 289.003273 180.275 
L 289.598897 198.395 
L 290.194521 188.58 
L 290.790144 196.885 
L 291.385768 202.925 
L 291.981391 229.35 
L 292.577015 223.31 
L 293.172638 237.655 
L 293.768262 205.19 
L 294.363885 238.41 
L 294.959509 218.025 
L 295.555133 216.515 
L 296.150756 205.19 
L 296.74638 227.085 
L 297.342003 219.535 
L 297.937627 222.555 
L 298.53325 232.37 
L 299.128874 223.31 
L 299.724497 220.29 
L 300.320121 226.33 
L 300.915745 210.475 
L 301.511368 225.575 
L 302.106992 220.29 
L 302.702615 221.8 
L 303.298239 214.25 
L 303.893862 211.23 
L 304.489486 226.33 
L 305.085109 199.905 
L 305.680733 222.555 
L 306.276357 221.045 
L 307.467604 225.575 
L 308.063227 200.66 
L 308.658851 207.455 
L 309.254474 219.535 
L 309.850098 224.82 
L 310.445721 224.065 
L 311.041345 222.555 
L 311.636969 227.085 
L 312.828216 210.475 
L 313.423839 218.025 
L 314.019463 208.965 
L 314.615086 221.045 
L 315.21071 252 
L 316.401957 196.885 
L 316.997581 227.84 
L 317.593204 230.86 
L 318.188828 215.76 
L 318.784451 209.72 
L 319.380075 205.19 
L 319.975698 218.025 
L 320.571322 219.535 
L 321.166945 239.165 
L 321.762569 216.515 
L 322.358192 215.005 
L 322.953816 224.82 
L 323.54944 218.78 
L 324.145063 221.8 
L 324.740687 215.005 
L 325.33631 224.82 
L 325.931934 205.945 
L 326.527557 222.555 
L 327.123181 221.8 
L 327.718804 218.78 
L 328.314428 205.945 
L 329.505675 213.495 
L 330.101299 218.78 
L 330.696922 233.125 
L 331.292546 228.595 
L 331.888169 206.7 
L 332.483793 230.86 
L 333.079416 212.74 
L 333.67504 208.21 
L 334.270664 227.84 
L 334.866287 210.475 
L 335.461911 221.8 
L 336.057534 224.065 
L 336.653158 216.515 
L 337.248781 230.105 
L 337.844405 224.065 
L 338.440028 220.29 
L 339.035652 211.23 
L 339.631276 199.905 
L 340.822523 225.575 
L 341.418146 213.495 
L 342.01377 218.025 
L 342.609393 218.78 
L 343.205017 230.86 
L 343.80064 227.84 
L 344.396264 210.475 
L 344.991888 214.25 
L 345.587511 221.8 
L 346.183135 208.965 
L 346.778758 227.84 
L 347.374382 212.74 
L 347.970005 202.925 
L 348.565629 221.045 
L 349.161252 221.8 
L 349.756876 201.415 
L 350.3525 196.13 
L 350.948123 212.74 
L 351.543747 224.82 
L 352.13937 232.37 
L 352.734994 233.88 
L 353.330617 227.085 
L 353.926241 215.005 
L 354.521864 214.25 
L 355.117488 215.76 
L 355.713112 213.495 
L 356.308735 210.475 
L 356.904359 212.74 
L 357.499982 211.23 
L 358.095606 218.025 
L 358.691229 227.84 
L 359.286853 219.535 
L 359.882476 233.125 
L 360.4781 213.495 
L 361.073724 221.045 
L 361.669347 218.025 
L 362.264971 220.29 
L 362.860594 215.76 
L 363.456218 219.535 
L 364.051841 209.72 
L 364.647465 211.985 
L 365.243088 216.515 
L 365.838712 225.575 
L 366.434336 205.945 
L 367.029959 219.535 
L 367.625583 215.005 
L 368.221206 205.945 
L 368.81683 208.965 
L 369.412453 221.045 
L 370.008077 216.515 
L 370.6037 196.13 
L 371.199324 219.535 
L 371.794948 217.27 
L 372.390571 202.17 
L 372.986195 215.76 
L 373.581818 219.535 
L 373.581818 219.535 
" clip-path="url(#pc4ca3545d7)" style="fill: none; stroke: #2ca02c; stroke-width: 1.5; stroke-linecap: square"/>
   </g>
   <g id="patch_3">
    <path d="M 54 252 
L 54 34.56 
" style="fill: none; stroke: #000000; stroke-width: 0.8; stroke-linejoin: miter; stroke-linecap: square"/>
   </g>
   <g id="patch_4">
    <path d="M 388.8 252 
L 388.8 34.56 
" style="fill: none; stroke: #000000; stroke-width: 0.8; stroke-linejoin: miter; stroke-linecap: square"/>
   </g>
   <g id="patch_5">
    <path d="M 54 252 
L 388.8 252 
" style="fill: none; stroke: #000000; stroke-width: 0.8; stroke-linejoin: miter; stroke-linecap: square"/>
   </g>
   <g id="patch_6">
    <path d="M 54 34.56 
L 388.8 34.56 
" style="fill: none; stroke: #000000; stroke-width: 0.8; stroke-linejoin: miter; stroke-linecap: square"/>
   </g>
   <g id="text_15">
    <!-- Label 14 normalized -->
    <g transform="translate(160.423125 28.56)scale(0.12 -0.12)">
     <defs>
      <path id="DejaVuSans-4c" d="M 628 4666 
L 1259 4666 
L 1259 531 
L 3531 531 
L 3531 0 
L 628 0 
L 628 4666 
z
" transform="scale(0.015625)"/>
      <path id="DejaVuSans-61" d="M 2194 1759 
Q 1497 1759 1228 1600 
Q 959 1441 959 1056 
Q 959 750 1161 570 
Q 1363 391 1709 391 
Q 2188 391 2477 730 
Q 2766 1069 2766 1631 
L 2766 1759 
L 2194 1759 
z
M 3341 1997 
L 3341 0 
L 2766 0 
L 2766 531 
Q 2569 213 2275 61 
Q 1981 -91 1556 -91 
Q 1019 -91 701 211 
Q 384 513 384 1019 
Q 384 1609 779 1909 
Q 1175 2209 1959 2209 
L 2766 2209 
L 2766 2266 
Q 2766 2663 2505 2880 
Q 2244 3097 1772 3097 
Q 1472 3097 1187 3025 
Q 903 2953 641 2809 
L 641 3341 
Q 956 3463 1253 3523 
Q 1550 3584 1831 3584 
Q 2591 3584 2966 3190 
Q 3341 2797 3341 1997 
z
" transform="scale(0.015625)"/>
      <path id="DejaVuSans-65" d="M 3597 1894 
L 3597 1613 
L 953 1613 
Q 991 1019 1311 708 
Q 1631 397 2203 397 
Q 2534 397 2845 478 
Q 3156 559 3463 722 
L 3463 178 
Q 3153 47 2828 -22 
Q 2503 -91 2169 -91 
Q 1331 -91 842 396 
Q 353 884 353 1716 
Q 353 2575 817 3079 
Q 1281 3584 2069 3584 
Q 2775 3584 3186 3129 
Q 3597 2675 3597 1894 
z
M 3022 2063 
Q 3016 2534 2758 2815 
Q 2500 3097 2075 3097 
Q 1594 3097 1305 2825 
Q 1016 2553 972 2059 
L 3022 2063 
z
" transform="scale(0.015625)"/>
      <path id="DejaVuSans-6c" d="M 603 4863 
L 1178 4863 
L 1178 0 
L 603 0 
L 603 4863 
z
" transform="scale(0.015625)"/>
      <path id="DejaVuSans-20" transform="scale(0.015625)"/>
      <path id="DejaVuSans-72" d="M 2631 2963 
Q 2534 3019 2420 3045 
Q 2306 3072 2169 3072 
Q 1681 3072 1420 2755 
Q 1159 2438 1159 1844 
L 1159 0 
L 581 0 
L 581 3500 
L 1159 3500 
L 1159 2956 
Q 1341 3275 1631 3429 
Q 1922 3584 2338 3584 
Q 2397 3584 2469 3576 
Q 2541 3569 2628 3553 
L 2631 2963 
z
" transform="scale(0.015625)"/>
      <path id="DejaVuSans-6d" d="M 3328 2828 
Q 3544 3216 3844 3400 
Q 4144 3584 4550 3584 
Q 5097 3584 5394 3201 
Q 5691 2819 5691 2113 
L 5691 0 
L 5113 0 
L 5113 2094 
Q 5113 2597 4934 2840 
Q 4756 3084 4391 3084 
Q 3944 3084 3684 2787 
Q 3425 2491 3425 1978 
L 3425 0 
L 2847 0 
L 2847 2094 
Q 2847 2600 2669 2842 
Q 2491 3084 2119 3084 
Q 1678 3084 1418 2786 
Q 1159 2488 1159 1978 
L 1159 0 
L 581 0 
L 581 3500 
L 1159 3500 
L 1159 2956 
Q 1356 3278 1631 3431 
Q 1906 3584 2284 3584 
Q 2666 3584 2933 3390 
Q 3200 3197 3328 2828 
z
" transform="scale(0.015625)"/>
      <path id="DejaVuSans-7a" d="M 353 3500 
L 3084 3500 
L 3084 2975 
L 922 459 
L 3084 459 
L 3084 0 
L 275 0 
L 275 525 
L 2438 3041 
L 353 3041 
L 353 3500 
z
" transform="scale(0.015625)"/>
      <path id="DejaVuSans-64" d="M 2906 2969 
L 2906 4863 
L 3481 4863 
L 3481 0 
L 2906 0 
L 2906 525 
Q 2725 213 2448 61 
Q 2172 -91 1784 -91 
Q 1150 -91 751 415 
Q 353 922 353 1747 
Q 353 2572 751 3078 
Q 1150 3584 1784 3584 
Q 2172 3584 2448 3432 
Q 2725 3281 2906 2969 
z
M 947 1747 
Q 947 1113 1208 752 
Q 1469 391 1925 391 
Q 2381 391 2643 752 
Q 2906 1113 2906 1747 
Q 2906 2381 2643 2742 
Q 2381 3103 1925 3103 
Q 1469 3103 1208 2742 
Q 947 2381 947 1747 
z
" transform="scale(0.015625)"/>
     </defs>
     <use xlink:href="#DejaVuSans-4c"/>
     <use xlink:href="#DejaVuSans-61" x="55.712891"/>
     <use xlink:href="#DejaVuSans-62" x="116.992188"/>
     <use xlink:href="#DejaVuSans-65" x="180.46875"/>
     <use xlink:href="#DejaVuSans-6c" x="241.992188"/>
     <use xlink:href="#DejaVuSans-20" x="269.775391"/>
     <use xlink:href="#DejaVuSans-31" x="301.5625"/>
     <use xlink:href="#DejaVuSans-34" x="365.185547"/>
     <use xlink:href="#DejaVuSans-20" x="428.808594"/>
     <use xlink:href="#DejaVuSans-6e" x="460.595703"/>
     <use xlink:href="#DejaVuSans-6f" x="523.974609"/>
     <use xlink:href="#DejaVuSans-72" x="585.15625"/>
     <use xlink:href="#DejaVuSans-6d" x="624.519531"/>
     <use xlink:href="#DejaVuSans-61" x="721.931641"/>
     <use xlink:href="#DejaVuSans-6c" x="783.210938"/>
     <use xlink:href="#DejaVuSans-69" x="810.994141"/>
     <use xlink:href="#DejaVuSans-7a" x="838.777344"/>
     <use xlink:href="#DejaVuSans-65" x="891.267578"/>
     <use xlink:href="#DejaVuSans-64" x="952.791016"/>
    </g>
   </g>
   <g id="legend_1">
    <g id="patch_7">
     <path d="M 309.070312 101.2725 
L 381.8 101.2725 
Q 383.8 101.2725 383.8 99.2725 
L 383.8 41.56 
Q 383.8 39.56 381.8 39.56 
L 309.070312 39.56 
Q 307.070312 39.56 307.070312 41.56 
L 307.070312 99.2725 
Q 307.070312 101.2725 309.070312 101.2725 
z
" style="fill: #ffffff; opacity: 0.8; stroke: #cccccc; stroke-linejoin: miter"/>
    </g>
    <g id="text_16">
     <!-- Trace number -->
     <g transform="translate(311.070312 51.158437)scale(0.1 -0.1)">
      <defs>
       <path id="DejaVuSans-54" d="M -19 4666 
L 3928 4666 
L 3928 4134 
L 2272 4134 
L 2272 0 
L 1638 0 
L 1638 4134 
L -19 4134 
L -19 4666 
z
" transform="scale(0.015625)"/>
      </defs>
      <use xlink:href="#DejaVuSans-54"/>
      <use xlink:href="#DejaVuSans-72" x="46.333984"/>
      <use xlink:href="#DejaVuSans-61" x="87.447266"/>
      <use xlink:href="#DejaVuSans-63" x="148.726562"/>
      <use xlink:href="#DejaVuSans-65" x="203.707031"/>
      <use xlink:href="#DejaVuSans-20" x="265.230469"/>
      <use xlink:href="#DejaVuSans-6e" x="297.017578"/>
      <use xlink:href="#DejaVuSans-75" x="360.396484"/>
      <use xlink:href="#DejaVuSans-6d" x="423.775391"/>
      <use xlink:href="#DejaVuSans-62" x="521.1875"/>
      <use xlink:href="#DejaVuSans-65" x="584.664062"/>
      <use xlink:href="#DejaVuSans-72" x="646.1875"/>
     </g>
    </g>
    <g id="line2d_28">
     <path d="M 325.072656 62.336562 
L 335.072656 62.336562 
L 345.072656 62.336562 
" style="fill: none; stroke: #1f77b4; stroke-width: 1.5; stroke-linecap: square"/>
    </g>
    <g id="text_17">
     <!-- 15 -->
     <g transform="translate(353.072656 65.836562)scale(0.1 -0.1)">
      <use xlink:href="#DejaVuSans-31"/>
      <use xlink:href="#DejaVuSans-35" x="63.623047"/>
     </g>
    </g>
    <g id="line2d_29">
     <path d="M 325.072656 77.014687 
L 335.072656 77.014687 
L 345.072656 77.014687 
" style="fill: none; stroke: #ff7f0e; stroke-width: 1.5; stroke-linecap: square"/>
    </g>
    <g id="text_18">
     <!-- 22 -->
     <g transform="translate(353.072656 80.514687)scale(0.1 -0.1)">
      <use xlink:href="#DejaVuSans-32"/>
      <use xlink:href="#DejaVuSans-32" x="63.623047"/>
     </g>
    </g>
    <g id="line2d_30">
     <path d="M 325.072656 91.692813 
L 335.072656 91.692813 
L 345.072656 91.692813 
" style="fill: none; stroke: #2ca02c; stroke-width: 1.5; stroke-linecap: square"/>
    </g>
    <g id="text_19">
     <!-- 55 -->
     <g transform="translate(353.072656 95.192813)scale(0.1 -0.1)">
      <use xlink:href="#DejaVuSans-35"/>
      <use xlink:href="#DejaVuSans-35" x="63.623047"/>
     </g>
    </g>
   </g>
  </g>
 </g>
 <defs>
  <clipPath id="pc4ca3545d7">
   <rect x="54" y="34.56" width="334.8" height="217.44"/>
  </clipPath>
 </defs>
</svg>
