<?xml version="1.0" encoding="utf-8" standalone="no"?>
<!DOCTYPE svg PUBLIC "-//W3C//DTD SVG 1.1//EN"
  "http://www.w3.org/Graphics/SVG/1.1/DTD/svg11.dtd">
<svg xmlns:xlink="http://www.w3.org/1999/xlink" width="432pt" height="288pt" viewBox="0 0 432 288" xmlns="http://www.w3.org/2000/svg" version="1.1">
 <metadata>
  <rdf:RDF xmlns:dc="http://purl.org/dc/elements/1.1/" xmlns:cc="http://creativecommons.org/ns#" xmlns:rdf="http://www.w3.org/1999/02/22-rdf-syntax-ns#">
   <cc:Work>
    <dc:type rdf:resource="http://purl.org/dc/dcmitype/StillImage"/>
    <dc:date>2022-03-30T13:16:45.929021</dc:date>
    <dc:format>image/svg+xml</dc:format>
    <dc:creator>
     <cc:Agent>
      <dc:title>Matplotlib v3.5.1, https://matplotlib.org/</dc:title>
     </cc:Agent>
    </dc:creator>
   </cc:Work>
  </rdf:RDF>
 </metadata>
 <defs>
  <style type="text/css">*{stroke-linejoin: round; stroke-linecap: butt}</style>
 </defs>
 <g id="figure_1">
  <g id="patch_1">
   <path d="M 0 288 
L 432 288 
L 432 0 
L 0 0 
z
" style="fill: #ffffff"/>
  </g>
  <g id="axes_1">
   <g id="patch_2">
    <path d="M 54 252 
L 388.8 252 
L 388.8 34.56 
L 54 34.56 
z
" style="fill: #ffffff"/>
   </g>
   <g id="matplotlib.axis_1">
    <g id="xtick_1">
     <g id="line2d_1">
      <path d="M 69.218182 252 
L 69.218182 34.56 
" clip-path="url(#pbb5ba076bf)" style="fill: none; stroke: #b0b0b0; stroke-width: 0.8; stroke-linecap: square"/>
     </g>
     <g id="line2d_2">
      <defs>
       <path id="mc6bde326b6" d="M 0 0 
L 0 3.5 
" style="stroke: #000000; stroke-width: 0.8"/>
      </defs>
      <g>
       <use xlink:href="#mc6bde326b6" x="69.218182" y="252" style="stroke: #000000; stroke-width: 0.8"/>
      </g>
     </g>
     <g id="text_1">
      <!-- 0 -->
      <g transform="translate(66.036932 266.598437)scale(0.1 -0.1)">
       <defs>
        <path id="DejaVuSans-30" d="M 2034 4250 
Q 1547 4250 1301 3770 
Q 1056 3291 1056 2328 
Q 1056 1369 1301 889 
Q 1547 409 2034 409 
Q 2525 409 2770 889 
Q 3016 1369 3016 2328 
Q 3016 3291 2770 3770 
Q 2525 4250 2034 4250 
z
M 2034 4750 
Q 2819 4750 3233 4129 
Q 3647 3509 3647 2328 
Q 3647 1150 3233 529 
Q 2819 -91 2034 -91 
Q 1250 -91 836 529 
Q 422 1150 422 2328 
Q 422 3509 836 4129 
Q 1250 4750 2034 4750 
z
" transform="scale(0.015625)"/>
       </defs>
       <use xlink:href="#DejaVuSans-30"/>
      </g>
     </g>
    </g>
    <g id="xtick_2">
     <g id="line2d_3">
      <path d="M 128.780537 252 
L 128.780537 34.56 
" clip-path="url(#pbb5ba076bf)" style="fill: none; stroke: #b0b0b0; stroke-width: 0.8; stroke-linecap: square"/>
     </g>
     <g id="line2d_4">
      <g>
       <use xlink:href="#mc6bde326b6" x="128.780537" y="252" style="stroke: #000000; stroke-width: 0.8"/>
      </g>
     </g>
     <g id="text_2">
      <!-- 100 -->
      <g transform="translate(119.236787 266.598437)scale(0.1 -0.1)">
       <defs>
        <path id="DejaVuSans-31" d="M 794 531 
L 1825 531 
L 1825 4091 
L 703 3866 
L 703 4441 
L 1819 4666 
L 2450 4666 
L 2450 531 
L 3481 531 
L 3481 0 
L 794 0 
L 794 531 
z
" transform="scale(0.015625)"/>
       </defs>
       <use xlink:href="#DejaVuSans-31"/>
       <use xlink:href="#DejaVuSans-30" x="63.623047"/>
       <use xlink:href="#DejaVuSans-30" x="127.246094"/>
      </g>
     </g>
    </g>
    <g id="xtick_3">
     <g id="line2d_5">
      <path d="M 188.342893 252 
L 188.342893 34.56 
" clip-path="url(#pbb5ba076bf)" style="fill: none; stroke: #b0b0b0; stroke-width: 0.8; stroke-linecap: square"/>
     </g>
     <g id="line2d_6">
      <g>
       <use xlink:href="#mc6bde326b6" x="188.342893" y="252" style="stroke: #000000; stroke-width: 0.8"/>
      </g>
     </g>
     <g id="text_3">
      <!-- 200 -->
      <g transform="translate(178.799143 266.598437)scale(0.1 -0.1)">
       <defs>
        <path id="DejaVuSans-32" d="M 1228 531 
L 3431 531 
L 3431 0 
L 469 0 
L 469 531 
Q 828 903 1448 1529 
Q 2069 2156 2228 2338 
Q 2531 2678 2651 2914 
Q 2772 3150 2772 3378 
Q 2772 3750 2511 3984 
Q 2250 4219 1831 4219 
Q 1534 4219 1204 4116 
Q 875 4013 500 3803 
L 500 4441 
Q 881 4594 1212 4672 
Q 1544 4750 1819 4750 
Q 2544 4750 2975 4387 
Q 3406 4025 3406 3419 
Q 3406 3131 3298 2873 
Q 3191 2616 2906 2266 
Q 2828 2175 2409 1742 
Q 1991 1309 1228 531 
z
" transform="scale(0.015625)"/>
       </defs>
       <use xlink:href="#DejaVuSans-32"/>
       <use xlink:href="#DejaVuSans-30" x="63.623047"/>
       <use xlink:href="#DejaVuSans-30" x="127.246094"/>
      </g>
     </g>
    </g>
    <g id="xtick_4">
     <g id="line2d_7">
      <path d="M 247.905248 252 
L 247.905248 34.56 
" clip-path="url(#pbb5ba076bf)" style="fill: none; stroke: #b0b0b0; stroke-width: 0.8; stroke-linecap: square"/>
     </g>
     <g id="line2d_8">
      <g>
       <use xlink:href="#mc6bde326b6" x="247.905248" y="252" style="stroke: #000000; stroke-width: 0.8"/>
      </g>
     </g>
     <g id="text_4">
      <!-- 300 -->
      <g transform="translate(238.361498 266.598437)scale(0.1 -0.1)">
       <defs>
        <path id="DejaVuSans-33" d="M 2597 2516 
Q 3050 2419 3304 2112 
Q 3559 1806 3559 1356 
Q 3559 666 3084 287 
Q 2609 -91 1734 -91 
Q 1441 -91 1130 -33 
Q 819 25 488 141 
L 488 750 
Q 750 597 1062 519 
Q 1375 441 1716 441 
Q 2309 441 2620 675 
Q 2931 909 2931 1356 
Q 2931 1769 2642 2001 
Q 2353 2234 1838 2234 
L 1294 2234 
L 1294 2753 
L 1863 2753 
Q 2328 2753 2575 2939 
Q 2822 3125 2822 3475 
Q 2822 3834 2567 4026 
Q 2313 4219 1838 4219 
Q 1578 4219 1281 4162 
Q 984 4106 628 3988 
L 628 4550 
Q 988 4650 1302 4700 
Q 1616 4750 1894 4750 
Q 2613 4750 3031 4423 
Q 3450 4097 3450 3541 
Q 3450 3153 3228 2886 
Q 3006 2619 2597 2516 
z
" transform="scale(0.015625)"/>
       </defs>
       <use xlink:href="#DejaVuSans-33"/>
       <use xlink:href="#DejaVuSans-30" x="63.623047"/>
       <use xlink:href="#DejaVuSans-30" x="127.246094"/>
      </g>
     </g>
    </g>
    <g id="xtick_5">
     <g id="line2d_9">
      <path d="M 307.467604 252 
L 307.467604 34.56 
" clip-path="url(#pbb5ba076bf)" style="fill: none; stroke: #b0b0b0; stroke-width: 0.8; stroke-linecap: square"/>
     </g>
     <g id="line2d_10">
      <g>
       <use xlink:href="#mc6bde326b6" x="307.467604" y="252" style="stroke: #000000; stroke-width: 0.8"/>
      </g>
     </g>
     <g id="text_5">
      <!-- 400 -->
      <g transform="translate(297.923854 266.598437)scale(0.1 -0.1)">
       <defs>
        <path id="DejaVuSans-34" d="M 2419 4116 
L 825 1625 
L 2419 1625 
L 2419 4116 
z
M 2253 4666 
L 3047 4666 
L 3047 1625 
L 3713 1625 
L 3713 1100 
L 3047 1100 
L 3047 0 
L 2419 0 
L 2419 1100 
L 313 1100 
L 313 1709 
L 2253 4666 
z
" transform="scale(0.015625)"/>
       </defs>
       <use xlink:href="#DejaVuSans-34"/>
       <use xlink:href="#DejaVuSans-30" x="63.623047"/>
       <use xlink:href="#DejaVuSans-30" x="127.246094"/>
      </g>
     </g>
    </g>
    <g id="xtick_6">
     <g id="line2d_11">
      <path d="M 367.029959 252 
L 367.029959 34.56 
" clip-path="url(#pbb5ba076bf)" style="fill: none; stroke: #b0b0b0; stroke-width: 0.8; stroke-linecap: square"/>
     </g>
     <g id="line2d_12">
      <g>
       <use xlink:href="#mc6bde326b6" x="367.029959" y="252" style="stroke: #000000; stroke-width: 0.8"/>
      </g>
     </g>
     <g id="text_6">
      <!-- 500 -->
      <g transform="translate(357.486209 266.598437)scale(0.1 -0.1)">
       <defs>
        <path id="DejaVuSans-35" d="M 691 4666 
L 3169 4666 
L 3169 4134 
L 1269 4134 
L 1269 2991 
Q 1406 3038 1543 3061 
Q 1681 3084 1819 3084 
Q 2600 3084 3056 2656 
Q 3513 2228 3513 1497 
Q 3513 744 3044 326 
Q 2575 -91 1722 -91 
Q 1428 -91 1123 -41 
Q 819 9 494 109 
L 494 744 
Q 775 591 1075 516 
Q 1375 441 1709 441 
Q 2250 441 2565 725 
Q 2881 1009 2881 1497 
Q 2881 1984 2565 2268 
Q 2250 2553 1709 2553 
Q 1456 2553 1204 2497 
Q 953 2441 691 2322 
L 691 4666 
z
" transform="scale(0.015625)"/>
       </defs>
       <use xlink:href="#DejaVuSans-35"/>
       <use xlink:href="#DejaVuSans-30" x="63.623047"/>
       <use xlink:href="#DejaVuSans-30" x="127.246094"/>
      </g>
     </g>
    </g>
    <g id="text_7">
     <!-- bin -->
     <g transform="translate(213.667969 280.276563)scale(0.1 -0.1)">
      <defs>
       <path id="DejaVuSans-62" d="M 3116 1747 
Q 3116 2381 2855 2742 
Q 2594 3103 2138 3103 
Q 1681 3103 1420 2742 
Q 1159 2381 1159 1747 
Q 1159 1113 1420 752 
Q 1681 391 2138 391 
Q 2594 391 2855 752 
Q 3116 1113 3116 1747 
z
M 1159 2969 
Q 1341 3281 1617 3432 
Q 1894 3584 2278 3584 
Q 2916 3584 3314 3078 
Q 3713 2572 3713 1747 
Q 3713 922 3314 415 
Q 2916 -91 2278 -91 
Q 1894 -91 1617 61 
Q 1341 213 1159 525 
L 1159 0 
L 581 0 
L 581 4863 
L 1159 4863 
L 1159 2969 
z
" transform="scale(0.015625)"/>
       <path id="DejaVuSans-69" d="M 603 3500 
L 1178 3500 
L 1178 0 
L 603 0 
L 603 3500 
z
M 603 4863 
L 1178 4863 
L 1178 4134 
L 603 4134 
L 603 4863 
z
" transform="scale(0.015625)"/>
       <path id="DejaVuSans-6e" d="M 3513 2113 
L 3513 0 
L 2938 0 
L 2938 2094 
Q 2938 2591 2744 2837 
Q 2550 3084 2163 3084 
Q 1697 3084 1428 2787 
Q 1159 2491 1159 1978 
L 1159 0 
L 581 0 
L 581 3500 
L 1159 3500 
L 1159 2956 
Q 1366 3272 1645 3428 
Q 1925 3584 2291 3584 
Q 2894 3584 3203 3211 
Q 3513 2838 3513 2113 
z
" transform="scale(0.015625)"/>
      </defs>
      <use xlink:href="#DejaVuSans-62"/>
      <use xlink:href="#DejaVuSans-69" x="63.476562"/>
      <use xlink:href="#DejaVuSans-6e" x="91.259766"/>
     </g>
    </g>
   </g>
   <g id="matplotlib.axis_2">
    <g id="ytick_1">
     <g id="line2d_13">
      <path d="M 54 252 
L 388.8 252 
" clip-path="url(#pbb5ba076bf)" style="fill: none; stroke: #b0b0b0; stroke-width: 0.8; stroke-linecap: square"/>
     </g>
     <g id="line2d_14">
      <defs>
       <path id="me367b297ee" d="M 0 0 
L -3.5 0 
" style="stroke: #000000; stroke-width: 0.8"/>
      </defs>
      <g>
       <use xlink:href="#me367b297ee" x="54" y="252" style="stroke: #000000; stroke-width: 0.8"/>
      </g>
     </g>
     <g id="text_8">
      <!-- 0.0 -->
      <g transform="translate(31.096875 255.799219)scale(0.1 -0.1)">
       <defs>
        <path id="DejaVuSans-2e" d="M 684 794 
L 1344 794 
L 1344 0 
L 684 0 
L 684 794 
z
" transform="scale(0.015625)"/>
       </defs>
       <use xlink:href="#DejaVuSans-30"/>
       <use xlink:href="#DejaVuSans-2e" x="63.623047"/>
       <use xlink:href="#DejaVuSans-30" x="95.410156"/>
      </g>
     </g>
    </g>
    <g id="ytick_2">
     <g id="line2d_15">
      <path d="M 54 208.512 
L 388.8 208.512 
" clip-path="url(#pbb5ba076bf)" style="fill: none; stroke: #b0b0b0; stroke-width: 0.8; stroke-linecap: square"/>
     </g>
     <g id="line2d_16">
      <g>
       <use xlink:href="#me367b297ee" x="54" y="208.512" style="stroke: #000000; stroke-width: 0.8"/>
      </g>
     </g>
     <g id="text_9">
      <!-- 0.2 -->
      <g transform="translate(31.096875 212.311219)scale(0.1 -0.1)">
       <use xlink:href="#DejaVuSans-30"/>
       <use xlink:href="#DejaVuSans-2e" x="63.623047"/>
       <use xlink:href="#DejaVuSans-32" x="95.410156"/>
      </g>
     </g>
    </g>
    <g id="ytick_3">
     <g id="line2d_17">
      <path d="M 54 165.024 
L 388.8 165.024 
" clip-path="url(#pbb5ba076bf)" style="fill: none; stroke: #b0b0b0; stroke-width: 0.8; stroke-linecap: square"/>
     </g>
     <g id="line2d_18">
      <g>
       <use xlink:href="#me367b297ee" x="54" y="165.024" style="stroke: #000000; stroke-width: 0.8"/>
      </g>
     </g>
     <g id="text_10">
      <!-- 0.4 -->
      <g transform="translate(31.096875 168.823219)scale(0.1 -0.1)">
       <use xlink:href="#DejaVuSans-30"/>
       <use xlink:href="#DejaVuSans-2e" x="63.623047"/>
       <use xlink:href="#DejaVuSans-34" x="95.410156"/>
      </g>
     </g>
    </g>
    <g id="ytick_4">
     <g id="line2d_19">
      <path d="M 54 121.536 
L 388.8 121.536 
" clip-path="url(#pbb5ba076bf)" style="fill: none; stroke: #b0b0b0; stroke-width: 0.8; stroke-linecap: square"/>
     </g>
     <g id="line2d_20">
      <g>
       <use xlink:href="#me367b297ee" x="54" y="121.536" style="stroke: #000000; stroke-width: 0.8"/>
      </g>
     </g>
     <g id="text_11">
      <!-- 0.6 -->
      <g transform="translate(31.096875 125.335219)scale(0.1 -0.1)">
       <defs>
        <path id="DejaVuSans-36" d="M 2113 2584 
Q 1688 2584 1439 2293 
Q 1191 2003 1191 1497 
Q 1191 994 1439 701 
Q 1688 409 2113 409 
Q 2538 409 2786 701 
Q 3034 994 3034 1497 
Q 3034 2003 2786 2293 
Q 2538 2584 2113 2584 
z
M 3366 4563 
L 3366 3988 
Q 3128 4100 2886 4159 
Q 2644 4219 2406 4219 
Q 1781 4219 1451 3797 
Q 1122 3375 1075 2522 
Q 1259 2794 1537 2939 
Q 1816 3084 2150 3084 
Q 2853 3084 3261 2657 
Q 3669 2231 3669 1497 
Q 3669 778 3244 343 
Q 2819 -91 2113 -91 
Q 1303 -91 875 529 
Q 447 1150 447 2328 
Q 447 3434 972 4092 
Q 1497 4750 2381 4750 
Q 2619 4750 2861 4703 
Q 3103 4656 3366 4563 
z
" transform="scale(0.015625)"/>
       </defs>
       <use xlink:href="#DejaVuSans-30"/>
       <use xlink:href="#DejaVuSans-2e" x="63.623047"/>
       <use xlink:href="#DejaVuSans-36" x="95.410156"/>
      </g>
     </g>
    </g>
    <g id="ytick_5">
     <g id="line2d_21">
      <path d="M 54 78.048 
L 388.8 78.048 
" clip-path="url(#pbb5ba076bf)" style="fill: none; stroke: #b0b0b0; stroke-width: 0.8; stroke-linecap: square"/>
     </g>
     <g id="line2d_22">
      <g>
       <use xlink:href="#me367b297ee" x="54" y="78.048" style="stroke: #000000; stroke-width: 0.8"/>
      </g>
     </g>
     <g id="text_12">
      <!-- 0.8 -->
      <g transform="translate(31.096875 81.847219)scale(0.1 -0.1)">
       <defs>
        <path id="DejaVuSans-38" d="M 2034 2216 
Q 1584 2216 1326 1975 
Q 1069 1734 1069 1313 
Q 1069 891 1326 650 
Q 1584 409 2034 409 
Q 2484 409 2743 651 
Q 3003 894 3003 1313 
Q 3003 1734 2745 1975 
Q 2488 2216 2034 2216 
z
M 1403 2484 
Q 997 2584 770 2862 
Q 544 3141 544 3541 
Q 544 4100 942 4425 
Q 1341 4750 2034 4750 
Q 2731 4750 3128 4425 
Q 3525 4100 3525 3541 
Q 3525 3141 3298 2862 
Q 3072 2584 2669 2484 
Q 3125 2378 3379 2068 
Q 3634 1759 3634 1313 
Q 3634 634 3220 271 
Q 2806 -91 2034 -91 
Q 1263 -91 848 271 
Q 434 634 434 1313 
Q 434 1759 690 2068 
Q 947 2378 1403 2484 
z
M 1172 3481 
Q 1172 3119 1398 2916 
Q 1625 2713 2034 2713 
Q 2441 2713 2670 2916 
Q 2900 3119 2900 3481 
Q 2900 3844 2670 4047 
Q 2441 4250 2034 4250 
Q 1625 4250 1398 4047 
Q 1172 3844 1172 3481 
z
" transform="scale(0.015625)"/>
       </defs>
       <use xlink:href="#DejaVuSans-30"/>
       <use xlink:href="#DejaVuSans-2e" x="63.623047"/>
       <use xlink:href="#DejaVuSans-38" x="95.410156"/>
      </g>
     </g>
    </g>
    <g id="ytick_6">
     <g id="line2d_23">
      <path d="M 54 34.56 
L 388.8 34.56 
" clip-path="url(#pbb5ba076bf)" style="fill: none; stroke: #b0b0b0; stroke-width: 0.8; stroke-linecap: square"/>
     </g>
     <g id="line2d_24">
      <g>
       <use xlink:href="#me367b297ee" x="54" y="34.56" style="stroke: #000000; stroke-width: 0.8"/>
      </g>
     </g>
     <g id="text_13">
      <!-- 1.0 -->
      <g transform="translate(31.096875 38.359219)scale(0.1 -0.1)">
       <use xlink:href="#DejaVuSans-31"/>
       <use xlink:href="#DejaVuSans-2e" x="63.623047"/>
       <use xlink:href="#DejaVuSans-30" x="95.410156"/>
      </g>
     </g>
    </g>
    <g id="text_14">
     <!-- count -->
     <g transform="translate(25.017187 157.38625)rotate(-90)scale(0.1 -0.1)">
      <defs>
       <path id="DejaVuSans-63" d="M 3122 3366 
L 3122 2828 
Q 2878 2963 2633 3030 
Q 2388 3097 2138 3097 
Q 1578 3097 1268 2742 
Q 959 2388 959 1747 
Q 959 1106 1268 751 
Q 1578 397 2138 397 
Q 2388 397 2633 464 
Q 2878 531 3122 666 
L 3122 134 
Q 2881 22 2623 -34 
Q 2366 -91 2075 -91 
Q 1284 -91 818 406 
Q 353 903 353 1747 
Q 353 2603 823 3093 
Q 1294 3584 2113 3584 
Q 2378 3584 2631 3529 
Q 2884 3475 3122 3366 
z
" transform="scale(0.015625)"/>
       <path id="DejaVuSans-6f" d="M 1959 3097 
Q 1497 3097 1228 2736 
Q 959 2375 959 1747 
Q 959 1119 1226 758 
Q 1494 397 1959 397 
Q 2419 397 2687 759 
Q 2956 1122 2956 1747 
Q 2956 2369 2687 2733 
Q 2419 3097 1959 3097 
z
M 1959 3584 
Q 2709 3584 3137 3096 
Q 3566 2609 3566 1747 
Q 3566 888 3137 398 
Q 2709 -91 1959 -91 
Q 1206 -91 779 398 
Q 353 888 353 1747 
Q 353 2609 779 3096 
Q 1206 3584 1959 3584 
z
" transform="scale(0.015625)"/>
       <path id="DejaVuSans-75" d="M 544 1381 
L 544 3500 
L 1119 3500 
L 1119 1403 
Q 1119 906 1312 657 
Q 1506 409 1894 409 
Q 2359 409 2629 706 
Q 2900 1003 2900 1516 
L 2900 3500 
L 3475 3500 
L 3475 0 
L 2900 0 
L 2900 538 
Q 2691 219 2414 64 
Q 2138 -91 1772 -91 
Q 1169 -91 856 284 
Q 544 659 544 1381 
z
M 1991 3584 
L 1991 3584 
z
" transform="scale(0.015625)"/>
       <path id="DejaVuSans-74" d="M 1172 4494 
L 1172 3500 
L 2356 3500 
L 2356 3053 
L 1172 3053 
L 1172 1153 
Q 1172 725 1289 603 
Q 1406 481 1766 481 
L 2356 481 
L 2356 0 
L 1766 0 
Q 1100 0 847 248 
Q 594 497 594 1153 
L 594 3053 
L 172 3053 
L 172 3500 
L 594 3500 
L 594 4494 
L 1172 4494 
z
" transform="scale(0.015625)"/>
      </defs>
      <use xlink:href="#DejaVuSans-63"/>
      <use xlink:href="#DejaVuSans-6f" x="54.980469"/>
      <use xlink:href="#DejaVuSans-75" x="116.162109"/>
      <use xlink:href="#DejaVuSans-6e" x="179.541016"/>
      <use xlink:href="#DejaVuSans-74" x="242.919922"/>
     </g>
    </g>
   </g>
   <g id="line2d_25">
    <path d="M 69.218182 235.452842 
L 69.813805 235.969941 
L 70.409429 234.160095 
L 71.005052 230.023306 
L 71.600676 237.521237 
L 72.1963 225.886516 
L 72.791923 233.901546 
L 73.387547 243.726421 
L 73.98317 244.24352 
L 74.578794 230.023306 
L 75.174417 236.745589 
L 75.770041 240.623829 
L 76.365664 234.677194 
L 76.961288 242.950773 
L 77.556912 243.209322 
L 78.152535 229.247658 
L 78.748159 235.452842 
L 79.343782 231.833151 
L 79.939406 233.642996 
L 80.535029 240.365279 
L 81.130653 235.711391 
L 81.726276 235.452842 
L 82.3219 242.175125 
L 82.917524 228.989108 
L 83.513147 239.072533 
L 84.108771 237.004138 
L 84.704394 238.038335 
L 85.300018 234.935743 
L 85.895641 238.296885 
L 86.491265 234.418644 
L 87.682512 245.019168 
L 88.278136 238.038335 
L 88.873759 228.730559 
L 89.469383 239.589631 
L 90.065006 227.954911 
L 90.66063 228.47201 
L 91.256253 240.365279 
L 91.851877 236.22849 
L 92.4475 243.98497 
L 93.043124 236.745589 
L 93.638748 241.658026 
L 94.234371 240.365279 
L 94.829995 246.311914 
L 95.425618 232.867348 
L 96.021242 240.365279 
L 96.616865 239.072533 
L 97.212489 248.380309 
L 97.808112 237.004138 
L 98.403736 238.296885 
L 98.99936 242.175125 
L 99.594983 242.433674 
L 100.190607 235.194293 
L 100.78623 239.589631 
L 101.381854 235.452842 
L 101.977477 236.745589 
L 102.573101 246.311914 
L 103.168724 232.867348 
L 103.764348 230.798954 
L 104.359972 231.057503 
L 104.955595 236.22849 
L 105.551219 234.418644 
L 106.146842 234.935743 
L 106.742466 240.623829 
L 107.338089 233.642996 
L 107.933713 239.848181 
L 108.529336 233.642996 
L 109.12496 232.35025 
L 109.720584 232.0917 
L 110.316207 234.160095 
L 110.911831 233.901546 
L 111.507454 223.559572 
L 112.103078 234.677194 
L 112.698701 231.057503 
L 113.294325 239.848181 
L 113.889948 238.555434 
L 114.485572 231.057503 
L 115.081196 233.642996 
L 115.676819 239.072533 
L 116.272443 231.574602 
L 116.868066 235.969941 
L 117.46369 232.0917 
L 118.059313 236.745589 
L 118.654937 231.057503 
L 119.25056 242.433674 
L 119.846184 240.882378 
L 120.441808 242.175125 
L 121.633055 234.418644 
L 122.228678 230.798954 
L 122.824302 240.882378 
L 123.419925 245.277717 
L 124.015549 230.798954 
L 124.611172 235.194293 
L 125.206796 243.209322 
L 126.398043 238.038335 
L 126.993667 240.10673 
L 127.58929 244.24352 
L 128.184914 240.882378 
L 128.780537 239.848181 
L 129.376161 242.692224 
L 129.971784 233.125898 
L 130.567408 238.555434 
L 131.163031 246.570464 
L 131.758655 247.604661 
L 132.949902 235.711391 
L 134.141149 240.365279 
L 134.736773 235.711391 
L 135.332396 227.437812 
L 135.92802 237.262687 
L 136.523643 233.642996 
L 137.119267 247.346112 
L 137.714891 237.004138 
L 138.310514 240.365279 
L 138.906138 235.194293 
L 139.501761 244.760618 
L 140.097385 235.194293 
L 140.693008 228.730559 
L 141.288632 242.175125 
L 141.884255 239.072533 
L 142.479879 234.677194 
L 143.671126 241.399477 
L 144.26675 233.901546 
L 144.862373 236.745589 
L 145.457997 231.316052 
L 146.05362 228.989108 
L 146.649244 229.247658 
L 147.244867 226.662164 
L 147.840491 235.969941 
L 148.436115 240.10673 
L 149.031738 230.023306 
L 149.627362 245.536266 
L 150.222985 235.711391 
L 150.818609 237.521237 
L 151.414232 242.433674 
L 152.009856 234.160095 
L 152.605479 227.954911 
L 153.201103 245.794816 
L 153.796727 226.403615 
L 154.39235 244.502069 
L 154.987974 233.901546 
L 155.583597 250.707253 
L 156.179221 233.642996 
L 156.774844 233.642996 
L 157.370468 242.950773 
L 157.966091 242.692224 
L 158.561715 249.414507 
L 159.157339 232.608799 
L 159.752962 240.10673 
L 160.348586 239.589631 
L 160.944209 229.506207 
L 161.539833 229.506207 
L 162.135456 221.232628 
L 162.73108 236.487039 
L 163.326703 232.0917 
L 163.922327 231.057503 
L 164.517951 230.540404 
L 165.113574 231.574602 
L 165.709198 238.296885 
L 166.304821 231.057503 
L 166.900445 235.452842 
L 167.496068 236.22849 
L 168.091692 236.487039 
L 168.687315 234.160095 
L 169.282939 241.658026 
L 169.878563 241.399477 
L 170.474186 246.053365 
L 171.06981 242.175125 
L 171.665433 229.764756 
L 172.261057 232.35025 
L 172.85668 239.589631 
L 173.452304 234.160095 
L 174.047927 240.882378 
L 174.643551 229.247658 
L 175.239175 234.935743 
L 175.834798 241.916576 
L 176.430422 224.076671 
L 177.026045 236.22849 
L 177.621669 242.175125 
L 178.217292 230.540404 
L 178.812916 234.677194 
L 179.408539 231.833151 
L 180.004163 231.316052 
L 180.599787 239.848181 
L 181.19541 233.901546 
L 181.791034 237.779786 
L 182.386657 237.521237 
L 182.982281 237.779786 
L 183.577904 236.22849 
L 184.173528 248.897408 
L 184.769151 235.711391 
L 185.364775 234.418644 
L 185.960399 238.555434 
L 186.556022 238.813983 
L 187.151646 250.190155 
L 187.747269 245.277717 
L 188.342893 233.384447 
L 188.938516 237.779786 
L 189.53414 226.145065 
L 190.129763 234.160095 
L 190.725387 229.764756 
L 191.32101 239.072533 
L 191.916634 244.502069 
L 192.512258 233.642996 
L 193.107881 243.467872 
L 193.703505 247.604661 
L 194.299128 232.0917 
L 194.894752 245.277717 
L 195.490375 229.506207 
L 196.085999 237.521237 
L 196.681622 238.038335 
L 197.87287 240.882378 
L 198.468493 245.277717 
L 199.064117 234.418644 
L 199.65974 221.232628 
L 200.255364 234.418644 
L 200.850987 242.692224 
L 201.446611 237.521237 
L 202.042234 249.155957 
L 202.637858 231.316052 
L 203.233482 245.277717 
L 203.829105 237.262687 
L 204.424729 241.399477 
L 205.020352 241.658026 
L 205.615976 225.886516 
L 206.211599 245.794816 
L 206.807223 232.0917 
L 207.402846 238.038335 
L 207.99847 238.813983 
L 208.594094 217.354388 
L 209.189717 228.989108 
L 209.785341 237.521237 
L 210.380964 235.452842 
L 210.976588 227.179263 
L 211.572211 225.369417 
L 212.167835 234.418644 
L 212.763458 246.570464 
L 213.359082 239.589631 
L 213.954706 243.98497 
L 214.550329 240.10673 
L 215.145953 238.296885 
L 215.741576 225.110868 
L 216.3372 246.829013 
L 216.932823 232.867348 
L 217.528447 233.384447 
L 218.12407 239.848181 
L 218.719694 239.072533 
L 219.315318 239.072533 
L 219.910941 230.281855 
L 220.506565 237.521237 
L 221.102188 228.47201 
L 221.697812 241.399477 
L 222.293435 234.677194 
L 222.889059 239.331082 
L 223.484682 248.638859 
L 224.080306 241.399477 
L 224.67593 236.22849 
L 225.271553 245.536266 
L 225.867177 239.072533 
L 226.4628 239.072533 
L 227.058424 233.384447 
L 227.654047 232.608799 
L 228.249671 232.608799 
L 228.845294 241.399477 
L 229.440918 242.950773 
L 230.036542 239.589631 
L 230.632165 234.677194 
L 231.227789 243.209322 
L 231.823412 233.901546 
L 232.419036 232.35025 
L 233.014659 228.21346 
L 233.610283 240.882378 
L 234.205906 223.818121 
L 234.80153 226.145065 
L 235.397154 216.837289 
L 235.992777 212.959049 
L 236.588401 189.948157 
L 237.184024 173.142449 
L 237.779648 151.682854 
L 238.375271 115.227396 
L 238.970895 111.607705 
L 239.566518 76.703543 
L 240.162142 82.13308 
L 240.757766 103.075577 
L 241.949013 133.5844 
L 243.14026 188.396861 
L 243.735883 184.260071 
L 244.331507 222.525375 
L 244.92713 229.764756 
L 245.522754 227.179263 
L 246.118378 230.540404 
L 246.714001 239.072533 
L 247.309625 223.818121 
L 247.905248 236.487039 
L 248.500872 237.004138 
L 249.096495 238.296885 
L 250.287742 229.247658 
L 250.883366 232.867348 
L 251.47899 235.452842 
L 252.074613 247.604661 
L 252.670237 234.418644 
L 253.26586 234.935743 
L 253.861484 232.35025 
L 254.457107 234.160095 
L 255.052731 233.384447 
L 255.648354 245.019168 
L 256.243978 238.555434 
L 256.839601 237.521237 
L 257.435225 235.452842 
L 258.030849 237.004138 
L 258.626472 231.574602 
L 259.222096 231.057503 
L 259.817719 244.24352 
L 260.413343 242.692224 
L 261.008966 239.848181 
L 261.60459 238.555434 
L 262.200213 235.194293 
L 262.795837 240.623829 
L 263.391461 225.110868 
L 263.987084 228.989108 
L 264.582708 237.779786 
L 265.178331 231.057503 
L 265.773955 237.521237 
L 266.369578 238.813983 
L 266.965202 242.433674 
L 267.560825 235.711391 
L 268.156449 235.711391 
L 268.752073 227.696361 
L 269.347696 232.608799 
L 269.94332 235.711391 
L 270.538943 216.32019 
L 271.134567 213.993246 
L 271.73019 176.503591 
L 272.325814 175.727943 
L 273.517061 119.105636 
L 274.112685 84.977122 
L 275.303932 48.263115 
L 275.899555 40.248086 
L 276.495179 34.56 
L 277.090802 69.205612 
L 277.686426 95.836195 
L 278.282049 113.159001 
L 279.473297 172.625351 
L 280.06892 182.967325 
L 280.664544 204.42692 
L 281.260167 215.027444 
L 281.855791 228.730559 
L 282.451414 218.647134 
L 283.047038 223.042473 
L 283.642661 213.217598 
L 284.238285 208.046611 
L 284.833909 184.260071 
L 285.429532 189.172509 
L 286.025156 172.625351 
L 286.620779 143.926373 
L 287.216403 104.626873 
L 287.812026 88.855363 
L 288.40765 48.004566 
L 289.003273 80.581784 
L 289.598897 83.167277 
L 290.790144 117.037241 
L 291.385768 122.983876 
L 291.981391 123.500975 
L 292.577015 152.717051 
L 293.172638 148.321712 
L 293.768262 177.02069 
L 294.363885 175.727943 
L 294.959509 190.982354 
L 295.555133 201.065779 
L 296.150756 208.305161 
L 296.74638 224.593769 
L 297.342003 226.145065 
L 297.937627 222.008276 
L 298.53325 232.867348 
L 299.128874 237.004138 
L 299.724497 242.950773 
L 300.320121 240.10673 
L 300.915745 230.023306 
L 301.511368 228.21346 
L 302.106992 234.935743 
L 302.702615 231.057503 
L 303.298239 227.954911 
L 303.893862 237.004138 
L 304.489486 225.369417 
L 305.085109 238.296885 
L 305.680733 231.057503 
L 306.276357 231.316052 
L 306.87198 231.316052 
L 307.467604 231.833151 
L 308.063227 241.916576 
L 308.658851 240.10673 
L 309.254474 229.247658 
L 309.850098 238.813983 
L 310.445721 233.901546 
L 311.041345 235.194293 
L 311.636969 234.418644 
L 312.232592 245.794816 
L 312.828216 232.0917 
L 313.423839 239.589631 
L 314.019463 243.726421 
L 314.615086 229.764756 
L 315.21071 236.22849 
L 315.806333 240.365279 
L 316.401957 225.627967 
L 316.997581 246.570464 
L 317.593204 230.023306 
L 318.188828 241.916576 
L 318.784451 222.266825 
L 319.380075 241.916576 
L 319.975698 234.418644 
L 320.571322 242.692224 
L 321.166945 234.935743 
L 321.762569 237.779786 
L 322.358192 242.692224 
L 322.953816 239.331082 
L 323.54944 241.658026 
L 324.145063 227.954911 
L 324.740687 243.467872 
L 325.33631 247.087562 
L 325.931934 237.521237 
L 326.527557 231.574602 
L 327.123181 233.384447 
L 327.718804 233.901546 
L 328.314428 236.745589 
L 328.910052 240.882378 
L 329.505675 234.418644 
L 330.101299 246.053365 
L 330.696922 231.574602 
L 331.292546 243.98497 
L 331.888169 233.642996 
L 332.483793 245.277717 
L 333.079416 237.779786 
L 333.67504 234.677194 
L 334.270664 238.296885 
L 334.866287 233.901546 
L 335.461911 233.125898 
L 336.057534 247.604661 
L 336.653158 239.331082 
L 337.248781 238.555434 
L 337.844405 232.867348 
L 338.440028 246.311914 
L 339.035652 237.521237 
L 339.631276 245.536266 
L 340.226899 235.969941 
L 340.822523 229.506207 
L 341.418146 232.608799 
L 342.01377 234.677194 
L 342.609393 232.608799 
L 343.205017 248.638859 
L 343.80064 236.745589 
L 344.991888 237.262687 
L 345.587511 230.023306 
L 346.183135 238.038335 
L 346.778758 234.677194 
L 347.374382 237.521237 
L 347.970005 238.038335 
L 348.565629 237.004138 
L 349.161252 233.901546 
L 349.756876 240.623829 
L 350.3525 238.813983 
L 351.543747 231.316052 
L 352.13937 236.22849 
L 352.734994 231.574602 
L 353.926241 245.794816 
L 354.521864 247.86321 
L 355.117488 241.658026 
L 355.713112 233.642996 
L 356.308735 243.726421 
L 356.904359 224.33522 
L 357.499982 250.190155 
L 358.095606 236.487039 
L 358.691229 233.901546 
L 359.286853 243.209322 
L 359.882476 239.848181 
L 360.4781 227.437812 
L 361.073724 243.209322 
L 361.669347 238.296885 
L 362.264971 234.935743 
L 362.860594 252 
L 363.456218 234.935743 
L 364.051841 234.677194 
L 364.647465 239.848181 
L 365.243088 236.487039 
L 365.838712 237.262687 
L 366.434336 243.98497 
L 367.029959 236.745589 
L 367.625583 238.296885 
L 368.221206 229.247658 
L 368.81683 228.989108 
L 369.412453 247.86321 
L 370.008077 243.726421 
L 370.6037 234.677194 
L 371.199324 237.779786 
L 371.794948 228.730559 
L 372.390571 230.281855 
L 372.986195 242.692224 
L 373.581818 244.760618 
L 373.581818 244.760618 
" clip-path="url(#pbb5ba076bf)" style="fill: none; stroke: #1f77b4; stroke-width: 1.5; stroke-linecap: square"/>
   </g>
   <g id="line2d_26">
    <path d="M 69.218182 229.548283 
L 69.813805 239.065859 
L 70.409429 233.69697 
L 71.005052 234.673131 
L 71.600676 241.994343 
L 72.1963 234.917172 
L 72.791923 246.631111 
L 73.387547 231.744646 
L 73.98317 231.744646 
L 74.578794 240.04202 
L 75.770041 227.351919 
L 76.365664 236.137374 
L 76.961288 238.089697 
L 77.556912 236.137374 
L 78.152535 237.113535 
L 78.748159 239.065859 
L 79.343782 233.94101 
L 79.939406 241.262222 
L 80.535029 240.04202 
L 81.130653 224.911515 
L 82.3219 236.381414 
L 82.917524 244.190707 
L 83.513147 225.887677 
L 84.108771 228.328081 
L 84.704394 234.429091 
L 85.300018 229.548283 
L 85.895641 233.208889 
L 86.491265 238.577778 
L 87.086888 232.720808 
L 87.682512 235.649293 
L 88.278136 221.73899 
L 88.873759 239.553939 
L 89.469383 247.851313 
L 90.065006 236.381414 
L 90.66063 232.476768 
L 91.256253 234.673131 
L 91.851877 231.988687 
L 92.4475 227.84 
L 93.043124 248.339394 
L 93.638748 232.964848 
L 94.234371 244.922828 
L 94.829995 231.988687 
L 95.425618 237.113535 
L 96.021242 234.917172 
L 96.616865 239.79798 
L 97.212489 236.381414 
L 97.808112 234.917172 
L 98.403736 227.84 
L 98.99936 224.667475 
L 99.594983 231.500606 
L 100.190607 234.429091 
L 100.78623 234.429091 
L 101.381854 227.107879 
L 101.977477 232.964848 
L 102.573101 233.452929 
L 103.168724 227.84 
L 103.764348 235.649293 
L 104.359972 237.845657 
L 104.955595 231.256566 
L 105.551219 226.375758 
L 106.146842 246.14303 
L 106.742466 232.232727 
L 107.338089 239.553939 
L 107.933713 233.69697 
L 108.529336 234.673131 
L 109.12496 236.137374 
L 109.720584 229.792323 
L 110.316207 234.185051 
L 110.911831 230.768485 
L 111.507454 235.649293 
L 112.103078 235.405253 
L 113.294325 227.351919 
L 113.889948 240.530101 
L 114.485572 243.214545 
L 115.081196 239.309899 
L 115.676819 231.988687 
L 116.272443 229.548283 
L 116.868066 231.012525 
L 117.46369 241.750303 
L 118.059313 238.821818 
L 118.654937 245.654949 
L 119.25056 227.84 
L 119.846184 236.869495 
L 120.441808 221.73899 
L 121.037431 243.702626 
L 121.633055 226.375758 
L 122.228678 229.304242 
L 122.824302 233.208889 
L 123.419925 227.84 
L 124.015549 237.357576 
L 124.611172 233.69697 
L 125.206796 235.405253 
L 125.802419 229.304242 
L 126.398043 234.429091 
L 126.993667 235.161212 
L 127.58929 227.107879 
L 128.184914 236.625455 
L 128.780537 242.238384 
L 129.376161 241.506263 
L 129.971784 227.107879 
L 130.567408 241.506263 
L 131.163031 238.089697 
L 131.758655 243.702626 
L 132.354279 233.69697 
L 132.949902 237.357576 
L 133.545526 232.964848 
L 134.141149 231.256566 
L 134.736773 243.702626 
L 135.332396 237.357576 
L 135.92802 234.673131 
L 136.523643 232.964848 
L 137.119267 236.381414 
L 137.714891 231.988687 
L 138.310514 237.113535 
L 138.906138 239.79798 
L 139.501761 232.476768 
L 140.097385 232.476768 
L 140.693008 223.691313 
L 141.288632 237.601616 
L 141.884255 235.649293 
L 142.479879 238.089697 
L 143.075503 234.917172 
L 143.671126 226.375758 
L 144.862373 232.476768 
L 145.457997 241.262222 
L 146.05362 232.964848 
L 146.649244 232.720808 
L 147.244867 229.060202 
L 147.840491 231.500606 
L 148.436115 235.405253 
L 149.031738 236.625455 
L 149.627362 238.333737 
L 150.222985 244.678788 
L 150.818609 231.012525 
L 151.414232 231.256566 
L 152.009856 231.256566 
L 153.201103 243.458586 
L 153.796727 236.137374 
L 154.39235 233.69697 
L 154.987974 231.744646 
L 155.583597 236.137374 
L 156.179221 237.113535 
L 156.774844 242.238384 
L 157.370468 233.94101 
L 157.966091 240.530101 
L 158.561715 223.203232 
L 159.752962 238.333737 
L 160.348586 233.69697 
L 160.944209 235.649293 
L 161.539833 236.381414 
L 162.135456 231.012525 
L 162.73108 244.190707 
L 163.326703 230.036364 
L 163.922327 230.768485 
L 164.517951 233.208889 
L 165.113574 234.917172 
L 165.709198 231.988687 
L 166.304821 235.893333 
L 166.900445 229.304242 
L 167.496068 240.530101 
L 168.091692 227.107879 
L 168.687315 230.768485 
L 169.282939 235.649293 
L 169.878563 238.577778 
L 170.474186 244.190707 
L 171.665433 220.762828 
L 172.261057 237.113535 
L 172.85668 234.917172 
L 173.452304 239.065859 
L 174.047927 238.577778 
L 174.643551 227.84 
L 175.239175 249.071515 
L 175.834798 229.304242 
L 176.430422 245.166869 
L 177.026045 244.190707 
L 177.621669 235.893333 
L 178.217292 231.988687 
L 178.812916 225.399596 
L 179.408539 229.792323 
L 180.004163 240.530101 
L 180.599787 231.744646 
L 181.19541 238.089697 
L 181.791034 233.452929 
L 182.386657 227.107879 
L 182.982281 252 
L 183.577904 233.69697 
L 184.173528 231.012525 
L 184.769151 230.768485 
L 185.364775 233.452929 
L 185.960399 232.964848 
L 186.556022 233.69697 
L 187.151646 232.720808 
L 187.747269 225.155556 
L 188.342893 232.964848 
L 188.938516 228.328081 
L 189.53414 239.79798 
L 190.129763 230.524444 
L 190.725387 231.988687 
L 191.32101 235.893333 
L 191.916634 238.089697 
L 192.512258 245.654949 
L 193.107881 231.500606 
L 193.703505 236.625455 
L 194.299128 220.518788 
L 194.894752 210.757172 
L 196.085999 180.984242 
L 197.87287 94.593939 
L 198.468493 87.760808 
L 199.064117 65.309091 
L 200.255364 116.069495 
L 203.233482 216.858182 
L 203.829105 221.006869 
L 204.424729 222.471111 
L 205.020352 229.792323 
L 205.615976 239.065859 
L 206.211599 240.530101 
L 206.807223 226.131717 
L 207.402846 236.869495 
L 207.99847 226.619798 
L 208.594094 240.774141 
L 209.189717 237.357576 
L 209.785341 228.08404 
L 210.976588 237.845657 
L 211.572211 238.577778 
L 212.167835 239.065859 
L 212.763458 246.387071 
L 213.359082 231.500606 
L 213.954706 232.232727 
L 214.550329 231.500606 
L 215.145953 236.869495 
L 215.741576 233.208889 
L 216.3372 233.94101 
L 216.932823 233.208889 
L 217.528447 223.935354 
L 218.12407 237.357576 
L 218.719694 240.286061 
L 219.315318 229.792323 
L 219.910941 235.649293 
L 220.506565 236.625455 
L 221.102188 230.524444 
L 221.697812 233.69697 
L 222.293435 246.631111 
L 222.889059 230.036364 
L 223.484682 231.012525 
L 224.080306 228.816162 
L 224.67593 235.161212 
L 225.271553 231.744646 
L 225.867177 233.452929 
L 226.4628 232.476768 
L 227.058424 229.304242 
L 227.654047 232.232727 
L 228.249671 232.232727 
L 228.845294 234.429091 
L 229.440918 211.245253 
L 230.036542 220.274747 
L 230.632165 188.305455 
L 231.227789 167.31798 
L 231.823412 153.163636 
L 232.419036 105.087677 
L 233.014659 86.052525 
L 234.205906 37.000404 
L 234.80153 34.56 
L 235.397154 41.149091 
L 235.992777 55.791515 
L 236.588401 81.171717 
L 238.375271 176.347475 
L 238.970895 189.037576 
L 239.566518 207.584646 
L 240.162142 216.614141 
L 240.757766 215.149899 
L 241.353389 202.947879 
L 241.949013 218.566465 
L 242.544636 209.292929 
L 243.14026 209.292929 
L 243.735883 191.47798 
L 244.331507 169.026263 
L 244.92713 157.800404 
L 245.522754 138.521212 
L 246.118378 96.546263 
L 246.714001 83.12404 
L 247.309625 52.86303 
L 247.905248 51.154747 
L 248.500872 88.004848 
L 249.096495 87.272727 
L 249.692119 111.676768 
L 250.287742 114.117172 
L 250.883366 147.306667 
L 251.47899 149.50303 
L 252.074613 140.229495 
L 252.670237 165.609697 
L 253.861484 188.793535 
L 254.457107 197.334949 
L 255.648354 223.691313 
L 256.243978 220.762828 
L 256.839601 232.476768 
L 257.435225 229.304242 
L 258.030849 229.792323 
L 258.626472 225.887677 
L 259.222096 235.649293 
L 259.817719 233.94101 
L 260.413343 224.911515 
L 261.008966 230.524444 
L 261.60459 232.720808 
L 262.200213 224.667475 
L 262.795837 225.887677 
L 263.391461 238.577778 
L 263.987084 227.351919 
L 264.582708 223.935354 
L 265.178331 233.69697 
L 265.773955 227.59596 
L 266.369578 236.625455 
L 266.965202 238.089697 
L 267.560825 244.190707 
L 268.156449 226.375758 
L 268.752073 235.649293 
L 269.347696 237.113535 
L 269.94332 234.185051 
L 270.538943 241.994343 
L 271.134567 247.363232 
L 271.73019 226.619798 
L 272.325814 230.280404 
L 272.921437 241.018182 
L 273.517061 240.774141 
L 274.112685 243.702626 
L 274.708308 241.262222 
L 275.303932 246.631111 
L 275.899555 235.649293 
L 276.495179 233.208889 
L 277.090802 244.922828 
L 277.686426 230.524444 
L 278.282049 239.065859 
L 278.877673 231.256566 
L 279.473297 235.649293 
L 280.06892 231.744646 
L 280.664544 238.577778 
L 281.260167 229.304242 
L 281.855791 232.232727 
L 282.451414 233.69697 
L 283.047038 228.08404 
L 283.642661 234.429091 
L 284.238285 243.214545 
L 284.833909 234.917172 
L 285.429532 236.137374 
L 286.025156 240.774141 
L 286.620779 231.500606 
L 287.216403 242.970505 
L 287.812026 232.964848 
L 288.40765 238.821818 
L 289.003273 238.821818 
L 289.598897 233.452929 
L 290.194521 238.089697 
L 290.790144 234.429091 
L 291.385768 238.577778 
L 291.981391 236.625455 
L 293.172638 228.08404 
L 293.768262 233.208889 
L 294.363885 227.351919 
L 294.959509 224.667475 
L 295.555133 228.816162 
L 296.150756 241.506263 
L 296.74638 239.309899 
L 297.342003 233.452929 
L 297.937627 239.553939 
L 298.53325 235.649293 
L 299.128874 234.673131 
L 299.724497 240.04202 
L 300.320121 230.280404 
L 300.915745 231.500606 
L 301.511368 239.065859 
L 302.106992 231.256566 
L 302.702615 240.530101 
L 303.298239 228.328081 
L 303.893862 236.869495 
L 304.489486 235.893333 
L 305.085109 234.673131 
L 305.680733 235.893333 
L 306.276357 241.018182 
L 306.87198 223.447273 
L 307.467604 239.309899 
L 308.063227 230.524444 
L 308.658851 229.060202 
L 309.254474 245.410909 
L 309.850098 232.476768 
L 310.445721 240.530101 
L 311.041345 241.262222 
L 311.636969 224.911515 
L 312.232592 242.238384 
L 312.828216 229.304242 
L 313.423839 238.577778 
L 314.019463 230.524444 
L 314.615086 224.911515 
L 315.21071 239.79798 
L 315.806333 228.08404 
L 316.401957 229.548283 
L 316.997581 241.750303 
L 317.593204 238.821818 
L 318.188828 230.280404 
L 318.784451 235.893333 
L 319.380075 231.012525 
L 319.975698 244.190707 
L 320.571322 239.309899 
L 321.166945 221.98303 
L 321.762569 234.917172 
L 322.358192 235.405253 
L 322.953816 238.577778 
L 323.54944 232.720808 
L 324.145063 243.458586 
L 324.740687 247.119192 
L 325.33631 238.821818 
L 325.931934 242.970505 
L 326.527557 235.405253 
L 327.123181 234.917172 
L 327.718804 237.113535 
L 328.314428 226.619798 
L 329.505675 234.917172 
L 330.101299 229.304242 
L 330.696922 242.970505 
L 331.292546 234.429091 
L 331.888169 238.089697 
L 332.483793 244.434747 
L 333.079416 243.214545 
L 333.67504 229.304242 
L 334.270664 234.917172 
L 334.866287 228.328081 
L 335.461911 240.286061 
L 336.057534 233.69697 
L 336.653158 236.869495 
L 337.248781 233.208889 
L 337.844405 227.59596 
L 338.440028 227.59596 
L 339.035652 233.94101 
L 339.631276 241.506263 
L 340.226899 238.333737 
L 340.822523 228.08404 
L 341.418146 241.994343 
L 342.01377 229.792323 
L 342.609393 236.625455 
L 343.205017 231.744646 
L 343.80064 232.232727 
L 344.396264 231.256566 
L 344.991888 236.381414 
L 345.587511 229.304242 
L 346.183135 235.893333 
L 346.778758 234.673131 
L 347.374382 232.476768 
L 347.970005 236.137374 
L 348.565629 237.357576 
L 349.161252 236.137374 
L 349.756876 238.577778 
L 350.3525 237.357576 
L 350.948123 238.577778 
L 351.543747 226.619798 
L 352.13937 240.04202 
L 352.734994 230.768485 
L 353.330617 233.94101 
L 353.926241 240.286061 
L 354.521864 235.405253 
L 355.117488 232.476768 
L 355.713112 236.869495 
L 356.308735 234.429091 
L 356.904359 241.994343 
L 357.499982 251.023838 
L 358.095606 231.744646 
L 358.691229 248.583434 
L 359.286853 231.500606 
L 359.882476 236.869495 
L 360.4781 236.381414 
L 361.073724 250.535758 
L 361.669347 233.452929 
L 362.264971 223.447273 
L 362.860594 239.79798 
L 363.456218 237.845657 
L 364.051841 237.113535 
L 364.647465 240.04202 
L 365.243088 230.280404 
L 365.838712 225.643636 
L 366.434336 236.625455 
L 367.029959 232.232727 
L 367.625583 241.018182 
L 368.221206 230.280404 
L 368.81683 227.351919 
L 369.412453 233.94101 
L 370.008077 227.351919 
L 370.6037 243.946667 
L 371.199324 238.089697 
L 371.794948 220.030707 
L 372.390571 237.357576 
L 372.986195 231.500606 
L 373.581818 232.232727 
L 373.581818 232.232727 
" clip-path="url(#pbb5ba076bf)" style="fill: none; stroke: #ff7f0e; stroke-width: 1.5; stroke-linecap: square"/>
   </g>
   <g id="line2d_27">
    <path d="M 69.218182 226.070962 
L 69.813805 224.251381 
L 70.409429 250.180418 
L 71.005052 231.074812 
L 71.600676 224.706276 
L 72.1963 227.435649 
L 72.791923 226.070962 
L 73.387547 227.890544 
L 73.98317 221.067113 
L 74.578794 232.439498 
L 75.174417 223.796485 
L 75.770041 235.16887 
L 76.365664 236.988452 
L 76.961288 239.262929 
L 77.556912 234.259079 
L 78.152535 231.074812 
L 78.748159 230.165021 
L 79.343782 228.800335 
L 79.939406 231.074812 
L 81.130653 219.247531 
L 81.726276 226.525858 
L 82.3219 226.980753 
L 82.917524 223.796485 
L 83.513147 230.619916 
L 84.108771 217.882845 
L 84.704394 236.533556 
L 85.300018 214.698577 
L 85.895641 225.616067 
L 86.491265 227.890544 
L 87.086888 221.522008 
L 87.682512 232.894393 
L 88.278136 220.157322 
L 88.873759 233.804184 
L 89.469383 222.886695 
L 90.065006 220.612218 
L 90.66063 206.055565 
L 91.256253 230.619916 
L 91.851877 231.074812 
L 92.4475 235.16887 
L 93.043124 211.969205 
L 93.638748 226.525858 
L 94.234371 214.698577 
L 94.829995 224.706276 
L 95.425618 219.247531 
L 96.021242 225.616067 
L 96.616865 239.717824 
L 97.212489 234.259079 
L 97.808112 232.894393 
L 98.403736 232.439498 
L 98.99936 222.886695 
L 99.594983 230.165021 
L 100.190607 226.980753 
L 100.78623 219.702427 
L 101.381854 221.067113 
L 101.977477 229.710126 
L 102.573101 213.333891 
L 103.168724 223.34159 
L 103.764348 238.808033 
L 104.359972 202.871297 
L 104.955595 236.533556 
L 105.551219 227.890544 
L 106.146842 225.161172 
L 106.742466 232.439498 
L 107.338089 224.251381 
L 107.933713 221.976904 
L 108.529336 222.886695 
L 109.12496 231.529707 
L 109.720584 226.980753 
L 110.316207 206.965356 
L 110.911831 222.886695 
L 111.507454 224.706276 
L 112.103078 212.878996 
L 112.698701 219.247531 
L 113.294325 222.431799 
L 113.889948 228.800335 
L 114.485572 213.788787 
L 115.081196 248.360837 
L 115.676819 231.074812 
L 116.272443 206.965356 
L 116.868066 231.529707 
L 117.46369 235.16887 
L 118.059313 226.525858 
L 118.654937 212.878996 
L 119.25056 230.619916 
L 119.846184 222.886695 
L 120.441808 231.529707 
L 121.037431 238.353138 
L 121.633055 221.067113 
L 122.228678 233.804184 
L 122.824302 221.976904 
L 123.419925 225.616067 
L 124.015549 240.17272 
L 124.611172 221.522008 
L 125.206796 213.333891 
L 125.802419 223.796485 
L 126.398043 219.702427 
L 126.993667 221.976904 
L 127.58929 226.525858 
L 128.184914 238.353138 
L 129.376161 221.067113 
L 129.971784 218.792636 
L 130.567408 230.619916 
L 131.163031 221.976904 
L 131.758655 210.604519 
L 132.354279 223.34159 
L 132.949902 222.431799 
L 133.545526 213.788787 
L 134.141149 214.698577 
L 134.736773 221.067113 
L 135.332396 208.784937 
L 136.523643 227.890544 
L 137.119267 227.435649 
L 137.714891 221.976904 
L 138.310514 228.345439 
L 138.906138 216.518159 
L 139.501761 206.965356 
L 140.693008 232.439498 
L 141.288632 216.973054 
L 141.884255 231.984603 
L 142.479879 213.333891 
L 143.075503 223.34159 
L 143.671126 223.34159 
L 144.26675 214.243682 
L 144.862373 216.063264 
L 145.457997 222.886695 
L 146.05362 221.976904 
L 147.244867 222.886695 
L 147.840491 222.431799 
L 148.436115 226.070962 
L 149.031738 228.800335 
L 149.627362 219.702427 
L 150.222985 227.435649 
L 150.818609 224.251381 
L 151.414232 212.4241 
L 152.009856 232.439498 
L 152.605479 231.984603 
L 153.201103 239.717824 
L 153.796727 211.51431 
L 154.39235 224.251381 
L 154.987974 233.804184 
L 155.583597 232.894393 
L 156.179221 213.788787 
L 156.774844 235.623766 
L 157.370468 225.616067 
L 157.966091 225.161172 
L 158.561715 216.518159 
L 159.157339 223.34159 
L 159.752962 211.059414 
L 160.348586 212.4241 
L 160.944209 223.796485 
L 161.539833 237.443347 
L 162.135456 227.890544 
L 162.73108 221.522008 
L 163.326703 238.353138 
L 163.922327 221.067113 
L 164.517951 220.612218 
L 165.113574 225.161172 
L 165.709198 231.074812 
L 166.304821 222.431799 
L 166.900445 224.706276 
L 167.496068 241.992301 
L 168.091692 219.247531 
L 168.687315 220.157322 
L 169.282939 236.988452 
L 169.878563 244.266778 
L 170.474186 224.706276 
L 171.06981 213.788787 
L 171.665433 225.616067 
L 172.261057 221.976904 
L 172.85668 221.976904 
L 173.452304 210.149623 
L 174.047927 222.886695 
L 174.643551 221.522008 
L 175.239175 225.161172 
L 175.834798 214.698577 
L 176.430422 200.59682 
L 177.026045 202.416402 
L 177.621669 172.393305 
L 178.217292 150.103431 
L 178.812916 116.896067 
L 179.408539 91.87682 
L 180.004163 98.245356 
L 180.599787 94.151297 
L 181.19541 110.982427 
L 181.791034 100.064937 
L 182.386657 112.347113 
L 182.982281 162.385607 
L 183.577904 168.754142 
L 184.173528 192.863598 
L 184.769151 211.059414 
L 185.364775 211.51431 
L 185.960399 218.792636 
L 186.556022 207.420251 
L 187.151646 227.435649 
L 187.747269 239.717824 
L 188.342893 222.886695 
L 188.938516 227.890544 
L 189.53414 208.330042 
L 190.129763 223.796485 
L 190.725387 215.153473 
L 191.32101 233.349289 
L 191.916634 222.886695 
L 192.512258 232.439498 
L 193.107881 222.886695 
L 193.703505 242.902092 
L 194.299128 227.435649 
L 194.894752 221.522008 
L 195.490375 216.973054 
L 196.085999 232.439498 
L 196.681622 226.980753 
L 197.277246 215.608368 
L 197.87287 235.623766 
L 198.468493 230.619916 
L 199.064117 230.165021 
L 199.65974 227.890544 
L 200.255364 224.706276 
L 200.850987 247.451046 
L 201.446611 246.08636 
L 202.042234 225.616067 
L 202.637858 215.153473 
L 203.233482 231.529707 
L 204.424729 221.976904 
L 205.615976 232.439498 
L 206.211599 216.973054 
L 206.807223 215.153473 
L 207.402846 240.627615 
L 207.99847 228.800335 
L 208.594094 237.443347 
L 209.189717 215.153473 
L 209.785341 226.070962 
L 210.380964 221.067113 
L 210.976588 221.976904 
L 211.572211 196.957657 
L 212.167835 178.761841 
L 212.763458 167.389456 
L 213.359082 122.354812 
L 213.954706 118.715649 
L 215.145953 57.759665 
L 215.741576 47.751967 
L 216.3372 34.56 
L 216.932823 49.116653 
L 217.528447 50.481339 
L 218.12407 91.87682 
L 218.719694 103.249205 
L 219.315318 104.158996 
L 219.910941 154.652385 
L 220.506565 176.942259 
L 221.102188 180.581423 
L 221.697812 206.965356 
L 222.293435 202.416402 
L 222.889059 206.055565 
L 223.484682 204.690879 
L 224.080306 192.408703 
L 224.67593 191.953808 
L 225.271553 195.592971 
L 225.867177 161.020921 
L 226.4628 139.640837 
L 227.058424 114.166695 
L 227.654047 110.982427 
L 228.249671 75.500586 
L 228.845294 68.222259 
L 229.440918 50.936234 
L 230.036542 72.771213 
L 230.632165 86.872971 
L 231.227789 105.523682 
L 231.823412 101.884519 
L 233.014659 145.554477 
L 233.610283 153.742594 
L 234.205906 173.303096 
L 234.80153 176.032469 
L 235.397154 173.757992 
L 235.992777 186.495063 
L 236.588401 217.882845 
L 237.184024 203.781088 
L 237.779648 216.518159 
L 238.375271 223.796485 
L 238.970895 207.875146 
L 239.566518 221.976904 
L 240.162142 227.435649 
L 240.757766 231.529707 
L 241.353389 241.08251 
L 241.949013 231.074812 
L 242.544636 207.420251 
L 243.14026 224.251381 
L 243.735883 230.619916 
L 244.331507 230.165021 
L 244.92713 222.886695 
L 245.522754 219.247531 
L 246.118378 217.42795 
L 247.309625 209.239833 
L 247.905248 244.266778 
L 248.500872 223.34159 
L 249.096495 225.161172 
L 249.692119 216.973054 
L 250.287742 215.608368 
L 251.47899 241.992301 
L 252.074613 226.980753 
L 252.670237 228.345439 
L 253.26586 235.16887 
L 253.861484 237.443347 
L 254.457107 213.333891 
L 255.052731 238.808033 
L 255.648354 226.980753 
L 256.243978 231.529707 
L 256.839601 220.157322 
L 257.435225 212.4241 
L 258.030849 211.51431 
L 258.626472 213.333891 
L 259.222096 225.161172 
L 259.817719 216.973054 
L 260.413343 212.4241 
L 261.008966 224.706276 
L 261.60459 231.984603 
L 262.200213 226.525858 
L 262.795837 236.078661 
L 263.391461 221.522008 
L 263.987084 231.984603 
L 264.582708 237.898243 
L 265.178331 222.431799 
L 265.773955 227.890544 
L 266.369578 230.619916 
L 266.965202 211.51431 
L 267.560825 222.886695 
L 268.156449 222.886695 
L 268.752073 231.529707 
L 269.347696 222.886695 
L 269.94332 228.345439 
L 271.134567 225.616067 
L 271.73019 220.612218 
L 272.325814 226.525858 
L 272.921437 215.608368 
L 273.517061 201.961506 
L 274.112685 223.796485 
L 274.708308 233.804184 
L 275.303932 237.898243 
L 275.899555 224.706276 
L 276.495179 220.612218 
L 277.090802 227.435649 
L 277.686426 229.710126 
L 278.282049 229.710126 
L 278.877673 209.239833 
L 279.473297 218.792636 
L 280.06892 216.518159 
L 280.664544 229.710126 
L 281.260167 217.42795 
L 281.855791 227.435649 
L 282.451414 234.259079 
L 283.047038 239.717824 
L 283.642661 238.353138 
L 284.238285 219.702427 
L 284.833909 219.702427 
L 285.429532 235.623766 
L 286.025156 220.157322 
L 286.620779 231.529707 
L 287.216403 219.247531 
L 287.812026 239.262929 
L 288.40765 213.333891 
L 289.003273 218.337741 
L 289.598897 226.070962 
L 290.194521 229.710126 
L 290.790144 222.431799 
L 291.385768 230.619916 
L 291.981391 226.070962 
L 292.577015 236.078661 
L 293.172638 217.42795 
L 293.768262 241.992301 
L 294.363885 242.902092 
L 294.959509 207.420251 
L 295.555133 229.710126 
L 296.150756 239.262929 
L 296.74638 233.804184 
L 297.342003 221.067113 
L 297.937627 229.710126 
L 298.53325 232.894393 
L 299.724497 243.811883 
L 300.915745 208.330042 
L 301.511368 210.149623 
L 302.106992 221.067113 
L 302.702615 212.878996 
L 303.298239 237.898243 
L 303.893862 216.063264 
L 304.489486 231.529707 
L 305.085109 226.980753 
L 305.680733 207.420251 
L 306.276357 213.333891 
L 306.87198 224.251381 
L 307.467604 242.902092 
L 308.063227 222.886695 
L 309.254474 219.247531 
L 309.850098 237.443347 
L 310.445721 236.078661 
L 311.041345 250.180418 
L 311.636969 216.518159 
L 312.232592 209.694728 
L 312.828216 222.886695 
L 313.423839 252 
L 314.019463 229.25523 
L 314.615086 222.886695 
L 315.21071 240.17272 
L 315.806333 217.42795 
L 316.401957 230.619916 
L 316.997581 220.612218 
L 317.593204 223.796485 
L 318.188828 237.443347 
L 318.784451 225.616067 
L 319.380075 228.345439 
L 319.975698 236.988452 
L 320.571322 236.078661 
L 321.166945 234.259079 
L 321.762569 232.894393 
L 322.358192 226.980753 
L 322.953816 215.608368 
L 323.54944 216.518159 
L 324.145063 215.153473 
L 324.740687 215.153473 
L 325.33631 221.067113 
L 325.931934 236.988452 
L 326.527557 232.894393 
L 327.123181 235.16887 
L 328.314428 229.710126 
L 328.910052 228.800335 
L 329.505675 228.345439 
L 330.101299 229.710126 
L 330.696922 209.694728 
L 331.292546 234.259079 
L 331.888169 217.882845 
L 332.483793 225.161172 
L 333.079416 222.886695 
L 333.67504 231.074812 
L 334.270664 206.51046 
L 334.866287 211.969205 
L 335.461911 241.992301 
L 336.057534 224.251381 
L 336.653158 229.710126 
L 337.248781 225.161172 
L 337.844405 234.259079 
L 338.440028 196.502762 
L 339.035652 231.074812 
L 339.631276 227.435649 
L 340.822523 231.074812 
L 341.418146 224.251381 
L 342.01377 235.623766 
L 342.609393 214.698577 
L 343.205017 225.161172 
L 343.80064 221.976904 
L 344.396264 219.702427 
L 344.991888 211.059414 
L 345.587511 242.447197 
L 346.183135 219.247531 
L 346.778758 228.345439 
L 347.374382 220.612218 
L 347.970005 230.165021 
L 348.565629 211.059414 
L 349.161252 214.243682 
L 349.756876 234.259079 
L 350.948123 219.247531 
L 351.543747 235.16887 
L 352.13937 221.522008 
L 352.734994 215.153473 
L 353.330617 234.259079 
L 354.521864 221.522008 
L 355.117488 225.616067 
L 355.713112 231.984603 
L 356.904359 241.08251 
L 358.095606 217.42795 
L 358.691229 217.882845 
L 359.286853 236.078661 
L 359.882476 222.886695 
L 360.4781 225.161172 
L 361.073724 236.533556 
L 361.669347 237.443347 
L 362.264971 221.976904 
L 362.860594 223.796485 
L 363.456218 231.529707 
L 364.051841 236.533556 
L 364.647465 221.522008 
L 365.243088 211.969205 
L 365.838712 221.522008 
L 366.434336 218.337741 
L 367.029959 237.898243 
L 367.625583 224.251381 
L 368.221206 229.710126 
L 368.81683 226.070962 
L 369.412453 233.349289 
L 370.008077 237.443347 
L 370.6037 236.533556 
L 371.199324 217.42795 
L 371.794948 228.800335 
L 372.390571 230.619916 
L 372.986195 231.984603 
L 373.581818 209.239833 
L 373.581818 209.239833 
" clip-path="url(#pbb5ba076bf)" style="fill: none; stroke: #2ca02c; stroke-width: 1.5; stroke-linecap: square"/>
   </g>
   <g id="patch_3">
    <path d="M 54 252 
L 54 34.56 
" style="fill: none; stroke: #000000; stroke-width: 0.8; stroke-linejoin: miter; stroke-linecap: square"/>
   </g>
   <g id="patch_4">
    <path d="M 388.8 252 
L 388.8 34.56 
" style="fill: none; stroke: #000000; stroke-width: 0.8; stroke-linejoin: miter; stroke-linecap: square"/>
   </g>
   <g id="patch_5">
    <path d="M 54 252 
L 388.8 252 
" style="fill: none; stroke: #000000; stroke-width: 0.8; stroke-linejoin: miter; stroke-linecap: square"/>
   </g>
   <g id="patch_6">
    <path d="M 54 34.56 
L 388.8 34.56 
" style="fill: none; stroke: #000000; stroke-width: 0.8; stroke-linejoin: miter; stroke-linecap: square"/>
   </g>
   <g id="text_15">
    <!-- Label 3 normalized -->
    <g transform="translate(164.240625 28.56)scale(0.12 -0.12)">
     <defs>
      <path id="DejaVuSans-4c" d="M 628 4666 
L 1259 4666 
L 1259 531 
L 3531 531 
L 3531 0 
L 628 0 
L 628 4666 
z
" transform="scale(0.015625)"/>
      <path id="DejaVuSans-61" d="M 2194 1759 
Q 1497 1759 1228 1600 
Q 959 1441 959 1056 
Q 959 750 1161 570 
Q 1363 391 1709 391 
Q 2188 391 2477 730 
Q 2766 1069 2766 1631 
L 2766 1759 
L 2194 1759 
z
M 3341 1997 
L 3341 0 
L 2766 0 
L 2766 531 
Q 2569 213 2275 61 
Q 1981 -91 1556 -91 
Q 1019 -91 701 211 
Q 384 513 384 1019 
Q 384 1609 779 1909 
Q 1175 2209 1959 2209 
L 2766 2209 
L 2766 2266 
Q 2766 2663 2505 2880 
Q 2244 3097 1772 3097 
Q 1472 3097 1187 3025 
Q 903 2953 641 2809 
L 641 3341 
Q 956 3463 1253 3523 
Q 1550 3584 1831 3584 
Q 2591 3584 2966 3190 
Q 3341 2797 3341 1997 
z
" transform="scale(0.015625)"/>
      <path id="DejaVuSans-65" d="M 3597 1894 
L 3597 1613 
L 953 1613 
Q 991 1019 1311 708 
Q 1631 397 2203 397 
Q 2534 397 2845 478 
Q 3156 559 3463 722 
L 3463 178 
Q 3153 47 2828 -22 
Q 2503 -91 2169 -91 
Q 1331 -91 842 396 
Q 353 884 353 1716 
Q 353 2575 817 3079 
Q 1281 3584 2069 3584 
Q 2775 3584 3186 3129 
Q 3597 2675 3597 1894 
z
M 3022 2063 
Q 3016 2534 2758 2815 
Q 2500 3097 2075 3097 
Q 1594 3097 1305 2825 
Q 1016 2553 972 2059 
L 3022 2063 
z
" transform="scale(0.015625)"/>
      <path id="DejaVuSans-6c" d="M 603 4863 
L 1178 4863 
L 1178 0 
L 603 0 
L 603 4863 
z
" transform="scale(0.015625)"/>
      <path id="DejaVuSans-20" transform="scale(0.015625)"/>
      <path id="DejaVuSans-72" d="M 2631 2963 
Q 2534 3019 2420 3045 
Q 2306 3072 2169 3072 
Q 1681 3072 1420 2755 
Q 1159 2438 1159 1844 
L 1159 0 
L 581 0 
L 581 3500 
L 1159 3500 
L 1159 2956 
Q 1341 3275 1631 3429 
Q 1922 3584 2338 3584 
Q 2397 3584 2469 3576 
Q 2541 3569 2628 3553 
L 2631 2963 
z
" transform="scale(0.015625)"/>
      <path id="DejaVuSans-6d" d="M 3328 2828 
Q 3544 3216 3844 3400 
Q 4144 3584 4550 3584 
Q 5097 3584 5394 3201 
Q 5691 2819 5691 2113 
L 5691 0 
L 5113 0 
L 5113 2094 
Q 5113 2597 4934 2840 
Q 4756 3084 4391 3084 
Q 3944 3084 3684 2787 
Q 3425 2491 3425 1978 
L 3425 0 
L 2847 0 
L 2847 2094 
Q 2847 2600 2669 2842 
Q 2491 3084 2119 3084 
Q 1678 3084 1418 2786 
Q 1159 2488 1159 1978 
L 1159 0 
L 581 0 
L 581 3500 
L 1159 3500 
L 1159 2956 
Q 1356 3278 1631 3431 
Q 1906 3584 2284 3584 
Q 2666 3584 2933 3390 
Q 3200 3197 3328 2828 
z
" transform="scale(0.015625)"/>
      <path id="DejaVuSans-7a" d="M 353 3500 
L 3084 3500 
L 3084 2975 
L 922 459 
L 3084 459 
L 3084 0 
L 275 0 
L 275 525 
L 2438 3041 
L 353 3041 
L 353 3500 
z
" transform="scale(0.015625)"/>
      <path id="DejaVuSans-64" d="M 2906 2969 
L 2906 4863 
L 3481 4863 
L 3481 0 
L 2906 0 
L 2906 525 
Q 2725 213 2448 61 
Q 2172 -91 1784 -91 
Q 1150 -91 751 415 
Q 353 922 353 1747 
Q 353 2572 751 3078 
Q 1150 3584 1784 3584 
Q 2172 3584 2448 3432 
Q 2725 3281 2906 2969 
z
M 947 1747 
Q 947 1113 1208 752 
Q 1469 391 1925 391 
Q 2381 391 2643 752 
Q 2906 1113 2906 1747 
Q 2906 2381 2643 2742 
Q 2381 3103 1925 3103 
Q 1469 3103 1208 2742 
Q 947 2381 947 1747 
z
" transform="scale(0.015625)"/>
     </defs>
     <use xlink:href="#DejaVuSans-4c"/>
     <use xlink:href="#DejaVuSans-61" x="55.712891"/>
     <use xlink:href="#DejaVuSans-62" x="116.992188"/>
     <use xlink:href="#DejaVuSans-65" x="180.46875"/>
     <use xlink:href="#DejaVuSans-6c" x="241.992188"/>
     <use xlink:href="#DejaVuSans-20" x="269.775391"/>
     <use xlink:href="#DejaVuSans-33" x="301.5625"/>
     <use xlink:href="#DejaVuSans-20" x="365.185547"/>
     <use xlink:href="#DejaVuSans-6e" x="396.972656"/>
     <use xlink:href="#DejaVuSans-6f" x="460.351562"/>
     <use xlink:href="#DejaVuSans-72" x="521.533203"/>
     <use xlink:href="#DejaVuSans-6d" x="560.896484"/>
     <use xlink:href="#DejaVuSans-61" x="658.308594"/>
     <use xlink:href="#DejaVuSans-6c" x="719.587891"/>
     <use xlink:href="#DejaVuSans-69" x="747.371094"/>
     <use xlink:href="#DejaVuSans-7a" x="775.154297"/>
     <use xlink:href="#DejaVuSans-65" x="827.644531"/>
     <use xlink:href="#DejaVuSans-64" x="889.167969"/>
    </g>
   </g>
   <g id="legend_1">
    <g id="patch_7">
     <path d="M 309.070312 101.2725 
L 381.8 101.2725 
Q 383.8 101.2725 383.8 99.2725 
L 383.8 41.56 
Q 383.8 39.56 381.8 39.56 
L 309.070312 39.56 
Q 307.070312 39.56 307.070312 41.56 
L 307.070312 99.2725 
Q 307.070312 101.2725 309.070312 101.2725 
z
" style="fill: #ffffff; opacity: 0.8; stroke: #cccccc; stroke-linejoin: miter"/>
    </g>
    <g id="text_16">
     <!-- Trace number -->
     <g transform="translate(311.070312 51.158437)scale(0.1 -0.1)">
      <defs>
       <path id="DejaVuSans-54" d="M -19 4666 
L 3928 4666 
L 3928 4134 
L 2272 4134 
L 2272 0 
L 1638 0 
L 1638 4134 
L -19 4134 
L -19 4666 
z
" transform="scale(0.015625)"/>
      </defs>
      <use xlink:href="#DejaVuSans-54"/>
      <use xlink:href="#DejaVuSans-72" x="46.333984"/>
      <use xlink:href="#DejaVuSans-61" x="87.447266"/>
      <use xlink:href="#DejaVuSans-63" x="148.726562"/>
      <use xlink:href="#DejaVuSans-65" x="203.707031"/>
      <use xlink:href="#DejaVuSans-20" x="265.230469"/>
      <use xlink:href="#DejaVuSans-6e" x="297.017578"/>
      <use xlink:href="#DejaVuSans-75" x="360.396484"/>
      <use xlink:href="#DejaVuSans-6d" x="423.775391"/>
      <use xlink:href="#DejaVuSans-62" x="521.1875"/>
      <use xlink:href="#DejaVuSans-65" x="584.664062"/>
      <use xlink:href="#DejaVuSans-72" x="646.1875"/>
     </g>
    </g>
    <g id="line2d_28">
     <path d="M 325.072656 62.336562 
L 335.072656 62.336562 
L 345.072656 62.336562 
" style="fill: none; stroke: #1f77b4; stroke-width: 1.5; stroke-linecap: square"/>
    </g>
    <g id="text_17">
     <!-- 28 -->
     <g transform="translate(353.072656 65.836562)scale(0.1 -0.1)">
      <use xlink:href="#DejaVuSans-32"/>
      <use xlink:href="#DejaVuSans-38" x="63.623047"/>
     </g>
    </g>
    <g id="line2d_29">
     <path d="M 325.072656 77.014687 
L 335.072656 77.014687 
L 345.072656 77.014687 
" style="fill: none; stroke: #ff7f0e; stroke-width: 1.5; stroke-linecap: square"/>
    </g>
    <g id="text_18">
     <!-- 71 -->
     <g transform="translate(353.072656 80.514687)scale(0.1 -0.1)">
      <defs>
       <path id="DejaVuSans-37" d="M 525 4666 
L 3525 4666 
L 3525 4397 
L 1831 0 
L 1172 0 
L 2766 4134 
L 525 4134 
L 525 4666 
z
" transform="scale(0.015625)"/>
      </defs>
      <use xlink:href="#DejaVuSans-37"/>
      <use xlink:href="#DejaVuSans-31" x="63.623047"/>
     </g>
    </g>
    <g id="line2d_30">
     <path d="M 325.072656 91.692813 
L 335.072656 91.692813 
L 345.072656 91.692813 
" style="fill: none; stroke: #2ca02c; stroke-width: 1.5; stroke-linecap: square"/>
    </g>
    <g id="text_19">
     <!-- 75 -->
     <g transform="translate(353.072656 95.192813)scale(0.1 -0.1)">
      <use xlink:href="#DejaVuSans-37"/>
      <use xlink:href="#DejaVuSans-35" x="63.623047"/>
     </g>
    </g>
   </g>
  </g>
 </g>
 <defs>
  <clipPath id="pbb5ba076bf">
   <rect x="54" y="34.56" width="334.8" height="217.44"/>
  </clipPath>
 </defs>
</svg>
