<?xml version="1.0" encoding="utf-8" standalone="no"?>
<!DOCTYPE svg PUBLIC "-//W3C//DTD SVG 1.1//EN"
  "http://www.w3.org/Graphics/SVG/1.1/DTD/svg11.dtd">
<svg xmlns:xlink="http://www.w3.org/1999/xlink" width="432pt" height="288pt" viewBox="0 0 432 288" xmlns="http://www.w3.org/2000/svg" version="1.1">
 <metadata>
  <rdf:RDF xmlns:dc="http://purl.org/dc/elements/1.1/" xmlns:cc="http://creativecommons.org/ns#" xmlns:rdf="http://www.w3.org/1999/02/22-rdf-syntax-ns#">
   <cc:Work>
    <dc:type rdf:resource="http://purl.org/dc/dcmitype/StillImage"/>
    <dc:date>2022-03-30T13:16:45.698164</dc:date>
    <dc:format>image/svg+xml</dc:format>
    <dc:creator>
     <cc:Agent>
      <dc:title>Matplotlib v3.5.1, https://matplotlib.org/</dc:title>
     </cc:Agent>
    </dc:creator>
   </cc:Work>
  </rdf:RDF>
 </metadata>
 <defs>
  <style type="text/css">*{stroke-linejoin: round; stroke-linecap: butt}</style>
 </defs>
 <g id="figure_1">
  <g id="patch_1">
   <path d="M 0 288 
L 432 288 
L 432 0 
L 0 0 
z
" style="fill: #ffffff"/>
  </g>
  <g id="axes_1">
   <g id="patch_2">
    <path d="M 54 252 
L 388.8 252 
L 388.8 34.56 
L 54 34.56 
z
" style="fill: #ffffff"/>
   </g>
   <g id="matplotlib.axis_1">
    <g id="xtick_1">
     <g id="line2d_1">
      <path d="M 69.218182 252 
L 69.218182 34.56 
" clip-path="url(#p0483f6b5be)" style="fill: none; stroke: #b0b0b0; stroke-width: 0.8; stroke-linecap: square"/>
     </g>
     <g id="line2d_2">
      <defs>
       <path id="mcab2a27f94" d="M 0 0 
L 0 3.5 
" style="stroke: #000000; stroke-width: 0.8"/>
      </defs>
      <g>
       <use xlink:href="#mcab2a27f94" x="69.218182" y="252" style="stroke: #000000; stroke-width: 0.8"/>
      </g>
     </g>
     <g id="text_1">
      <!-- 0 -->
      <g transform="translate(66.036932 266.598437)scale(0.1 -0.1)">
       <defs>
        <path id="DejaVuSans-30" d="M 2034 4250 
Q 1547 4250 1301 3770 
Q 1056 3291 1056 2328 
Q 1056 1369 1301 889 
Q 1547 409 2034 409 
Q 2525 409 2770 889 
Q 3016 1369 3016 2328 
Q 3016 3291 2770 3770 
Q 2525 4250 2034 4250 
z
M 2034 4750 
Q 2819 4750 3233 4129 
Q 3647 3509 3647 2328 
Q 3647 1150 3233 529 
Q 2819 -91 2034 -91 
Q 1250 -91 836 529 
Q 422 1150 422 2328 
Q 422 3509 836 4129 
Q 1250 4750 2034 4750 
z
" transform="scale(0.015625)"/>
       </defs>
       <use xlink:href="#DejaVuSans-30"/>
      </g>
     </g>
    </g>
    <g id="xtick_2">
     <g id="line2d_3">
      <path d="M 128.780537 252 
L 128.780537 34.56 
" clip-path="url(#p0483f6b5be)" style="fill: none; stroke: #b0b0b0; stroke-width: 0.8; stroke-linecap: square"/>
     </g>
     <g id="line2d_4">
      <g>
       <use xlink:href="#mcab2a27f94" x="128.780537" y="252" style="stroke: #000000; stroke-width: 0.8"/>
      </g>
     </g>
     <g id="text_2">
      <!-- 100 -->
      <g transform="translate(119.236787 266.598437)scale(0.1 -0.1)">
       <defs>
        <path id="DejaVuSans-31" d="M 794 531 
L 1825 531 
L 1825 4091 
L 703 3866 
L 703 4441 
L 1819 4666 
L 2450 4666 
L 2450 531 
L 3481 531 
L 3481 0 
L 794 0 
L 794 531 
z
" transform="scale(0.015625)"/>
       </defs>
       <use xlink:href="#DejaVuSans-31"/>
       <use xlink:href="#DejaVuSans-30" x="63.623047"/>
       <use xlink:href="#DejaVuSans-30" x="127.246094"/>
      </g>
     </g>
    </g>
    <g id="xtick_3">
     <g id="line2d_5">
      <path d="M 188.342893 252 
L 188.342893 34.56 
" clip-path="url(#p0483f6b5be)" style="fill: none; stroke: #b0b0b0; stroke-width: 0.8; stroke-linecap: square"/>
     </g>
     <g id="line2d_6">
      <g>
       <use xlink:href="#mcab2a27f94" x="188.342893" y="252" style="stroke: #000000; stroke-width: 0.8"/>
      </g>
     </g>
     <g id="text_3">
      <!-- 200 -->
      <g transform="translate(178.799143 266.598437)scale(0.1 -0.1)">
       <defs>
        <path id="DejaVuSans-32" d="M 1228 531 
L 3431 531 
L 3431 0 
L 469 0 
L 469 531 
Q 828 903 1448 1529 
Q 2069 2156 2228 2338 
Q 2531 2678 2651 2914 
Q 2772 3150 2772 3378 
Q 2772 3750 2511 3984 
Q 2250 4219 1831 4219 
Q 1534 4219 1204 4116 
Q 875 4013 500 3803 
L 500 4441 
Q 881 4594 1212 4672 
Q 1544 4750 1819 4750 
Q 2544 4750 2975 4387 
Q 3406 4025 3406 3419 
Q 3406 3131 3298 2873 
Q 3191 2616 2906 2266 
Q 2828 2175 2409 1742 
Q 1991 1309 1228 531 
z
" transform="scale(0.015625)"/>
       </defs>
       <use xlink:href="#DejaVuSans-32"/>
       <use xlink:href="#DejaVuSans-30" x="63.623047"/>
       <use xlink:href="#DejaVuSans-30" x="127.246094"/>
      </g>
     </g>
    </g>
    <g id="xtick_4">
     <g id="line2d_7">
      <path d="M 247.905248 252 
L 247.905248 34.56 
" clip-path="url(#p0483f6b5be)" style="fill: none; stroke: #b0b0b0; stroke-width: 0.8; stroke-linecap: square"/>
     </g>
     <g id="line2d_8">
      <g>
       <use xlink:href="#mcab2a27f94" x="247.905248" y="252" style="stroke: #000000; stroke-width: 0.8"/>
      </g>
     </g>
     <g id="text_4">
      <!-- 300 -->
      <g transform="translate(238.361498 266.598437)scale(0.1 -0.1)">
       <defs>
        <path id="DejaVuSans-33" d="M 2597 2516 
Q 3050 2419 3304 2112 
Q 3559 1806 3559 1356 
Q 3559 666 3084 287 
Q 2609 -91 1734 -91 
Q 1441 -91 1130 -33 
Q 819 25 488 141 
L 488 750 
Q 750 597 1062 519 
Q 1375 441 1716 441 
Q 2309 441 2620 675 
Q 2931 909 2931 1356 
Q 2931 1769 2642 2001 
Q 2353 2234 1838 2234 
L 1294 2234 
L 1294 2753 
L 1863 2753 
Q 2328 2753 2575 2939 
Q 2822 3125 2822 3475 
Q 2822 3834 2567 4026 
Q 2313 4219 1838 4219 
Q 1578 4219 1281 4162 
Q 984 4106 628 3988 
L 628 4550 
Q 988 4650 1302 4700 
Q 1616 4750 1894 4750 
Q 2613 4750 3031 4423 
Q 3450 4097 3450 3541 
Q 3450 3153 3228 2886 
Q 3006 2619 2597 2516 
z
" transform="scale(0.015625)"/>
       </defs>
       <use xlink:href="#DejaVuSans-33"/>
       <use xlink:href="#DejaVuSans-30" x="63.623047"/>
       <use xlink:href="#DejaVuSans-30" x="127.246094"/>
      </g>
     </g>
    </g>
    <g id="xtick_5">
     <g id="line2d_9">
      <path d="M 307.467604 252 
L 307.467604 34.56 
" clip-path="url(#p0483f6b5be)" style="fill: none; stroke: #b0b0b0; stroke-width: 0.8; stroke-linecap: square"/>
     </g>
     <g id="line2d_10">
      <g>
       <use xlink:href="#mcab2a27f94" x="307.467604" y="252" style="stroke: #000000; stroke-width: 0.8"/>
      </g>
     </g>
     <g id="text_5">
      <!-- 400 -->
      <g transform="translate(297.923854 266.598437)scale(0.1 -0.1)">
       <defs>
        <path id="DejaVuSans-34" d="M 2419 4116 
L 825 1625 
L 2419 1625 
L 2419 4116 
z
M 2253 4666 
L 3047 4666 
L 3047 1625 
L 3713 1625 
L 3713 1100 
L 3047 1100 
L 3047 0 
L 2419 0 
L 2419 1100 
L 313 1100 
L 313 1709 
L 2253 4666 
z
" transform="scale(0.015625)"/>
       </defs>
       <use xlink:href="#DejaVuSans-34"/>
       <use xlink:href="#DejaVuSans-30" x="63.623047"/>
       <use xlink:href="#DejaVuSans-30" x="127.246094"/>
      </g>
     </g>
    </g>
    <g id="xtick_6">
     <g id="line2d_11">
      <path d="M 367.029959 252 
L 367.029959 34.56 
" clip-path="url(#p0483f6b5be)" style="fill: none; stroke: #b0b0b0; stroke-width: 0.8; stroke-linecap: square"/>
     </g>
     <g id="line2d_12">
      <g>
       <use xlink:href="#mcab2a27f94" x="367.029959" y="252" style="stroke: #000000; stroke-width: 0.8"/>
      </g>
     </g>
     <g id="text_6">
      <!-- 500 -->
      <g transform="translate(357.486209 266.598437)scale(0.1 -0.1)">
       <defs>
        <path id="DejaVuSans-35" d="M 691 4666 
L 3169 4666 
L 3169 4134 
L 1269 4134 
L 1269 2991 
Q 1406 3038 1543 3061 
Q 1681 3084 1819 3084 
Q 2600 3084 3056 2656 
Q 3513 2228 3513 1497 
Q 3513 744 3044 326 
Q 2575 -91 1722 -91 
Q 1428 -91 1123 -41 
Q 819 9 494 109 
L 494 744 
Q 775 591 1075 516 
Q 1375 441 1709 441 
Q 2250 441 2565 725 
Q 2881 1009 2881 1497 
Q 2881 1984 2565 2268 
Q 2250 2553 1709 2553 
Q 1456 2553 1204 2497 
Q 953 2441 691 2322 
L 691 4666 
z
" transform="scale(0.015625)"/>
       </defs>
       <use xlink:href="#DejaVuSans-35"/>
       <use xlink:href="#DejaVuSans-30" x="63.623047"/>
       <use xlink:href="#DejaVuSans-30" x="127.246094"/>
      </g>
     </g>
    </g>
    <g id="text_7">
     <!-- bin -->
     <g transform="translate(213.667969 280.276563)scale(0.1 -0.1)">
      <defs>
       <path id="DejaVuSans-62" d="M 3116 1747 
Q 3116 2381 2855 2742 
Q 2594 3103 2138 3103 
Q 1681 3103 1420 2742 
Q 1159 2381 1159 1747 
Q 1159 1113 1420 752 
Q 1681 391 2138 391 
Q 2594 391 2855 752 
Q 3116 1113 3116 1747 
z
M 1159 2969 
Q 1341 3281 1617 3432 
Q 1894 3584 2278 3584 
Q 2916 3584 3314 3078 
Q 3713 2572 3713 1747 
Q 3713 922 3314 415 
Q 2916 -91 2278 -91 
Q 1894 -91 1617 61 
Q 1341 213 1159 525 
L 1159 0 
L 581 0 
L 581 4863 
L 1159 4863 
L 1159 2969 
z
" transform="scale(0.015625)"/>
       <path id="DejaVuSans-69" d="M 603 3500 
L 1178 3500 
L 1178 0 
L 603 0 
L 603 3500 
z
M 603 4863 
L 1178 4863 
L 1178 4134 
L 603 4134 
L 603 4863 
z
" transform="scale(0.015625)"/>
       <path id="DejaVuSans-6e" d="M 3513 2113 
L 3513 0 
L 2938 0 
L 2938 2094 
Q 2938 2591 2744 2837 
Q 2550 3084 2163 3084 
Q 1697 3084 1428 2787 
Q 1159 2491 1159 1978 
L 1159 0 
L 581 0 
L 581 3500 
L 1159 3500 
L 1159 2956 
Q 1366 3272 1645 3428 
Q 1925 3584 2291 3584 
Q 2894 3584 3203 3211 
Q 3513 2838 3513 2113 
z
" transform="scale(0.015625)"/>
      </defs>
      <use xlink:href="#DejaVuSans-62"/>
      <use xlink:href="#DejaVuSans-69" x="63.476562"/>
      <use xlink:href="#DejaVuSans-6e" x="91.259766"/>
     </g>
    </g>
   </g>
   <g id="matplotlib.axis_2">
    <g id="ytick_1">
     <g id="line2d_13">
      <path d="M 54 252 
L 388.8 252 
" clip-path="url(#p0483f6b5be)" style="fill: none; stroke: #b0b0b0; stroke-width: 0.8; stroke-linecap: square"/>
     </g>
     <g id="line2d_14">
      <defs>
       <path id="m7ec9943cfe" d="M 0 0 
L -3.5 0 
" style="stroke: #000000; stroke-width: 0.8"/>
      </defs>
      <g>
       <use xlink:href="#m7ec9943cfe" x="54" y="252" style="stroke: #000000; stroke-width: 0.8"/>
      </g>
     </g>
     <g id="text_8">
      <!-- 0.0 -->
      <g transform="translate(31.096875 255.799219)scale(0.1 -0.1)">
       <defs>
        <path id="DejaVuSans-2e" d="M 684 794 
L 1344 794 
L 1344 0 
L 684 0 
L 684 794 
z
" transform="scale(0.015625)"/>
       </defs>
       <use xlink:href="#DejaVuSans-30"/>
       <use xlink:href="#DejaVuSans-2e" x="63.623047"/>
       <use xlink:href="#DejaVuSans-30" x="95.410156"/>
      </g>
     </g>
    </g>
    <g id="ytick_2">
     <g id="line2d_15">
      <path d="M 54 208.512 
L 388.8 208.512 
" clip-path="url(#p0483f6b5be)" style="fill: none; stroke: #b0b0b0; stroke-width: 0.8; stroke-linecap: square"/>
     </g>
     <g id="line2d_16">
      <g>
       <use xlink:href="#m7ec9943cfe" x="54" y="208.512" style="stroke: #000000; stroke-width: 0.8"/>
      </g>
     </g>
     <g id="text_9">
      <!-- 0.2 -->
      <g transform="translate(31.096875 212.311219)scale(0.1 -0.1)">
       <use xlink:href="#DejaVuSans-30"/>
       <use xlink:href="#DejaVuSans-2e" x="63.623047"/>
       <use xlink:href="#DejaVuSans-32" x="95.410156"/>
      </g>
     </g>
    </g>
    <g id="ytick_3">
     <g id="line2d_17">
      <path d="M 54 165.024 
L 388.8 165.024 
" clip-path="url(#p0483f6b5be)" style="fill: none; stroke: #b0b0b0; stroke-width: 0.8; stroke-linecap: square"/>
     </g>
     <g id="line2d_18">
      <g>
       <use xlink:href="#m7ec9943cfe" x="54" y="165.024" style="stroke: #000000; stroke-width: 0.8"/>
      </g>
     </g>
     <g id="text_10">
      <!-- 0.4 -->
      <g transform="translate(31.096875 168.823219)scale(0.1 -0.1)">
       <use xlink:href="#DejaVuSans-30"/>
       <use xlink:href="#DejaVuSans-2e" x="63.623047"/>
       <use xlink:href="#DejaVuSans-34" x="95.410156"/>
      </g>
     </g>
    </g>
    <g id="ytick_4">
     <g id="line2d_19">
      <path d="M 54 121.536 
L 388.8 121.536 
" clip-path="url(#p0483f6b5be)" style="fill: none; stroke: #b0b0b0; stroke-width: 0.8; stroke-linecap: square"/>
     </g>
     <g id="line2d_20">
      <g>
       <use xlink:href="#m7ec9943cfe" x="54" y="121.536" style="stroke: #000000; stroke-width: 0.8"/>
      </g>
     </g>
     <g id="text_11">
      <!-- 0.6 -->
      <g transform="translate(31.096875 125.335219)scale(0.1 -0.1)">
       <defs>
        <path id="DejaVuSans-36" d="M 2113 2584 
Q 1688 2584 1439 2293 
Q 1191 2003 1191 1497 
Q 1191 994 1439 701 
Q 1688 409 2113 409 
Q 2538 409 2786 701 
Q 3034 994 3034 1497 
Q 3034 2003 2786 2293 
Q 2538 2584 2113 2584 
z
M 3366 4563 
L 3366 3988 
Q 3128 4100 2886 4159 
Q 2644 4219 2406 4219 
Q 1781 4219 1451 3797 
Q 1122 3375 1075 2522 
Q 1259 2794 1537 2939 
Q 1816 3084 2150 3084 
Q 2853 3084 3261 2657 
Q 3669 2231 3669 1497 
Q 3669 778 3244 343 
Q 2819 -91 2113 -91 
Q 1303 -91 875 529 
Q 447 1150 447 2328 
Q 447 3434 972 4092 
Q 1497 4750 2381 4750 
Q 2619 4750 2861 4703 
Q 3103 4656 3366 4563 
z
" transform="scale(0.015625)"/>
       </defs>
       <use xlink:href="#DejaVuSans-30"/>
       <use xlink:href="#DejaVuSans-2e" x="63.623047"/>
       <use xlink:href="#DejaVuSans-36" x="95.410156"/>
      </g>
     </g>
    </g>
    <g id="ytick_5">
     <g id="line2d_21">
      <path d="M 54 78.048 
L 388.8 78.048 
" clip-path="url(#p0483f6b5be)" style="fill: none; stroke: #b0b0b0; stroke-width: 0.8; stroke-linecap: square"/>
     </g>
     <g id="line2d_22">
      <g>
       <use xlink:href="#m7ec9943cfe" x="54" y="78.048" style="stroke: #000000; stroke-width: 0.8"/>
      </g>
     </g>
     <g id="text_12">
      <!-- 0.8 -->
      <g transform="translate(31.096875 81.847219)scale(0.1 -0.1)">
       <defs>
        <path id="DejaVuSans-38" d="M 2034 2216 
Q 1584 2216 1326 1975 
Q 1069 1734 1069 1313 
Q 1069 891 1326 650 
Q 1584 409 2034 409 
Q 2484 409 2743 651 
Q 3003 894 3003 1313 
Q 3003 1734 2745 1975 
Q 2488 2216 2034 2216 
z
M 1403 2484 
Q 997 2584 770 2862 
Q 544 3141 544 3541 
Q 544 4100 942 4425 
Q 1341 4750 2034 4750 
Q 2731 4750 3128 4425 
Q 3525 4100 3525 3541 
Q 3525 3141 3298 2862 
Q 3072 2584 2669 2484 
Q 3125 2378 3379 2068 
Q 3634 1759 3634 1313 
Q 3634 634 3220 271 
Q 2806 -91 2034 -91 
Q 1263 -91 848 271 
Q 434 634 434 1313 
Q 434 1759 690 2068 
Q 947 2378 1403 2484 
z
M 1172 3481 
Q 1172 3119 1398 2916 
Q 1625 2713 2034 2713 
Q 2441 2713 2670 2916 
Q 2900 3119 2900 3481 
Q 2900 3844 2670 4047 
Q 2441 4250 2034 4250 
Q 1625 4250 1398 4047 
Q 1172 3844 1172 3481 
z
" transform="scale(0.015625)"/>
       </defs>
       <use xlink:href="#DejaVuSans-30"/>
       <use xlink:href="#DejaVuSans-2e" x="63.623047"/>
       <use xlink:href="#DejaVuSans-38" x="95.410156"/>
      </g>
     </g>
    </g>
    <g id="ytick_6">
     <g id="line2d_23">
      <path d="M 54 34.56 
L 388.8 34.56 
" clip-path="url(#p0483f6b5be)" style="fill: none; stroke: #b0b0b0; stroke-width: 0.8; stroke-linecap: square"/>
     </g>
     <g id="line2d_24">
      <g>
       <use xlink:href="#m7ec9943cfe" x="54" y="34.56" style="stroke: #000000; stroke-width: 0.8"/>
      </g>
     </g>
     <g id="text_13">
      <!-- 1.0 -->
      <g transform="translate(31.096875 38.359219)scale(0.1 -0.1)">
       <use xlink:href="#DejaVuSans-31"/>
       <use xlink:href="#DejaVuSans-2e" x="63.623047"/>
       <use xlink:href="#DejaVuSans-30" x="95.410156"/>
      </g>
     </g>
    </g>
    <g id="text_14">
     <!-- count -->
     <g transform="translate(25.017187 157.38625)rotate(-90)scale(0.1 -0.1)">
      <defs>
       <path id="DejaVuSans-63" d="M 3122 3366 
L 3122 2828 
Q 2878 2963 2633 3030 
Q 2388 3097 2138 3097 
Q 1578 3097 1268 2742 
Q 959 2388 959 1747 
Q 959 1106 1268 751 
Q 1578 397 2138 397 
Q 2388 397 2633 464 
Q 2878 531 3122 666 
L 3122 134 
Q 2881 22 2623 -34 
Q 2366 -91 2075 -91 
Q 1284 -91 818 406 
Q 353 903 353 1747 
Q 353 2603 823 3093 
Q 1294 3584 2113 3584 
Q 2378 3584 2631 3529 
Q 2884 3475 3122 3366 
z
" transform="scale(0.015625)"/>
       <path id="DejaVuSans-6f" d="M 1959 3097 
Q 1497 3097 1228 2736 
Q 959 2375 959 1747 
Q 959 1119 1226 758 
Q 1494 397 1959 397 
Q 2419 397 2687 759 
Q 2956 1122 2956 1747 
Q 2956 2369 2687 2733 
Q 2419 3097 1959 3097 
z
M 1959 3584 
Q 2709 3584 3137 3096 
Q 3566 2609 3566 1747 
Q 3566 888 3137 398 
Q 2709 -91 1959 -91 
Q 1206 -91 779 398 
Q 353 888 353 1747 
Q 353 2609 779 3096 
Q 1206 3584 1959 3584 
z
" transform="scale(0.015625)"/>
       <path id="DejaVuSans-75" d="M 544 1381 
L 544 3500 
L 1119 3500 
L 1119 1403 
Q 1119 906 1312 657 
Q 1506 409 1894 409 
Q 2359 409 2629 706 
Q 2900 1003 2900 1516 
L 2900 3500 
L 3475 3500 
L 3475 0 
L 2900 0 
L 2900 538 
Q 2691 219 2414 64 
Q 2138 -91 1772 -91 
Q 1169 -91 856 284 
Q 544 659 544 1381 
z
M 1991 3584 
L 1991 3584 
z
" transform="scale(0.015625)"/>
       <path id="DejaVuSans-74" d="M 1172 4494 
L 1172 3500 
L 2356 3500 
L 2356 3053 
L 1172 3053 
L 1172 1153 
Q 1172 725 1289 603 
Q 1406 481 1766 481 
L 2356 481 
L 2356 0 
L 1766 0 
Q 1100 0 847 248 
Q 594 497 594 1153 
L 594 3053 
L 172 3053 
L 172 3500 
L 594 3500 
L 594 4494 
L 1172 4494 
z
" transform="scale(0.015625)"/>
      </defs>
      <use xlink:href="#DejaVuSans-63"/>
      <use xlink:href="#DejaVuSans-6f" x="54.980469"/>
      <use xlink:href="#DejaVuSans-75" x="116.162109"/>
      <use xlink:href="#DejaVuSans-6e" x="179.541016"/>
      <use xlink:href="#DejaVuSans-74" x="242.919922"/>
     </g>
    </g>
   </g>
   <g id="line2d_25">
    <path d="M 69.218182 237.71562 
L 69.813805 217.082628 
L 70.409429 221.050511 
L 71.005052 230.573431 
L 71.600676 204.385401 
L 72.1963 206.766131 
L 72.791923 217.876204 
L 73.387547 221.050511 
L 73.98317 206.766131 
L 74.578794 243.270657 
L 75.174417 186.133139 
L 75.770041 236.922044 
L 76.365664 236.128467 
L 76.961288 210.734015 
L 77.556912 222.637664 
L 78.152535 202.798248 
L 78.748159 233.747737 
L 79.343782 216.289051 
L 79.939406 211.527591 
L 80.535029 225.018394 
L 81.130653 205.972555 
L 82.3219 225.811971 
L 82.917524 232.160584 
L 83.513147 223.431241 
L 84.108771 205.178978 
L 84.704394 229.779854 
L 85.300018 232.954161 
L 85.895641 209.940438 
L 86.491265 233.747737 
L 87.086888 236.128467 
L 87.682512 235.334891 
L 88.278136 219.463358 
L 88.873759 190.101022 
L 89.469383 217.082628 
L 90.065006 236.922044 
L 90.66063 217.082628 
L 91.256253 205.972555 
L 91.851877 197.243212 
L 92.4475 222.637664 
L 93.043124 231.367007 
L 93.638748 229.779854 
L 94.234371 222.637664 
L 94.829995 207.559708 
L 95.425618 217.082628 
L 96.021242 219.463358 
L 96.616865 185.339562 
L 97.808112 219.463358 
L 98.403736 217.082628 
L 98.99936 232.954161 
L 99.594983 205.178978 
L 100.190607 220.256934 
L 100.78623 222.637664 
L 101.381854 219.463358 
L 101.977477 207.559708 
L 102.573101 199.623942 
L 103.168724 221.050511 
L 103.764348 217.082628 
L 104.359972 217.082628 
L 104.955595 228.986277 
L 105.551219 225.811971 
L 106.146842 225.018394 
L 106.742466 217.876204 
L 107.338089 213.908321 
L 107.933713 228.986277 
L 108.529336 209.146861 
L 109.12496 228.986277 
L 109.720584 210.734015 
L 110.316207 211.527591 
L 110.911831 208.353285 
L 111.507454 233.747737 
L 112.103078 220.256934 
L 112.698701 211.527591 
L 113.294325 218.669781 
L 113.889948 213.908321 
L 114.485572 213.908321 
L 115.081196 213.114745 
L 115.676819 241.683504 
L 116.272443 204.385401 
L 116.868066 225.811971 
L 117.46369 227.399124 
L 118.059313 237.71562 
L 118.654937 202.004672 
L 119.25056 225.018394 
L 119.846184 220.256934 
L 120.441808 225.811971 
L 121.037431 221.844088 
L 121.633055 218.669781 
L 122.228678 232.160584 
L 122.824302 225.811971 
L 123.419925 217.082628 
L 124.015549 223.431241 
L 124.611172 201.211095 
L 125.206796 231.367007 
L 125.802419 228.192701 
L 126.398043 213.114745 
L 126.993667 201.211095 
L 127.58929 226.605547 
L 128.184914 221.050511 
L 128.780537 199.623942 
L 130.567408 228.192701 
L 131.163031 198.036788 
L 131.758655 241.683504 
L 132.354279 220.256934 
L 132.949902 232.160584 
L 133.545526 202.798248 
L 134.141149 213.114745 
L 134.736773 232.954161 
L 135.332396 238.509197 
L 135.92802 217.082628 
L 136.523643 222.637664 
L 137.119267 231.367007 
L 137.714891 213.114745 
L 138.310514 226.605547 
L 138.906138 220.256934 
L 139.501761 229.779854 
L 140.097385 234.541314 
L 140.693008 212.321168 
L 141.288632 225.811971 
L 141.884255 211.527591 
L 142.479879 237.71562 
L 143.075503 215.495474 
L 143.671126 205.178978 
L 144.26675 205.178978 
L 144.862373 194.862482 
L 145.457997 217.082628 
L 146.05362 226.605547 
L 146.649244 227.399124 
L 147.244867 213.114745 
L 147.840491 230.573431 
L 148.436115 244.064234 
L 149.627362 226.605547 
L 150.222985 190.101022 
L 150.818609 216.289051 
L 151.414232 252 
L 152.009856 225.018394 
L 152.605479 223.431241 
L 153.201103 219.463358 
L 153.796727 207.559708 
L 154.39235 226.605547 
L 154.987974 195.656058 
L 155.583597 238.509197 
L 156.179221 236.922044 
L 156.774844 200.417518 
L 157.370468 226.605547 
L 157.966091 206.766131 
L 158.561715 199.623942 
L 159.157339 214.701898 
L 159.752962 207.559708 
L 160.348586 214.701898 
L 160.944209 213.908321 
L 161.539833 196.449635 
L 162.135456 207.559708 
L 162.73108 249.61927 
L 163.326703 204.385401 
L 163.922327 222.637664 
L 165.113574 207.559708 
L 165.709198 214.701898 
L 166.304821 229.779854 
L 166.900445 222.637664 
L 167.496068 199.623942 
L 168.091692 213.114745 
L 168.687315 221.844088 
L 169.282939 213.114745 
L 169.878563 227.399124 
L 170.474186 225.811971 
L 171.06981 220.256934 
L 171.665433 226.605547 
L 172.261057 208.353285 
L 172.85668 214.701898 
L 174.047927 202.798248 
L 174.643551 202.798248 
L 175.239175 191.688175 
L 175.834798 198.036788 
L 176.430422 221.050511 
L 177.026045 196.449635 
L 177.621669 234.541314 
L 178.217292 202.004672 
L 178.812916 204.385401 
L 179.408539 205.178978 
L 180.004163 228.192701 
L 180.599787 217.876204 
L 181.19541 198.036788 
L 181.791034 225.811971 
L 182.386657 182.958832 
L 182.982281 231.367007 
L 183.577904 229.779854 
L 184.173528 233.747737 
L 184.769151 194.068905 
L 185.364775 218.669781 
L 185.960399 210.734015 
L 186.556022 218.669781 
L 187.151646 219.463358 
L 187.747269 221.050511 
L 188.342893 195.656058 
L 188.938516 205.178978 
L 189.53414 240.889927 
L 190.129763 226.605547 
L 190.725387 225.018394 
L 191.32101 225.018394 
L 191.916634 223.431241 
L 192.512258 201.211095 
L 193.107881 212.321168 
L 193.703505 193.275328 
L 194.299128 225.811971 
L 194.894752 207.559708 
L 195.490375 208.353285 
L 196.085999 228.192701 
L 196.681622 235.334891 
L 197.277246 209.146861 
L 197.87287 210.734015 
L 198.468493 233.747737 
L 199.064117 209.146861 
L 199.65974 228.986277 
L 200.255364 195.656058 
L 200.850987 226.605547 
L 201.446611 243.270657 
L 202.042234 204.385401 
L 202.637858 222.637664 
L 203.233482 188.513869 
L 203.829105 210.734015 
L 204.424729 209.146861 
L 205.020352 221.844088 
L 205.615976 217.082628 
L 206.211599 208.353285 
L 206.807223 217.876204 
L 207.402846 205.972555 
L 207.99847 211.527591 
L 208.594094 220.256934 
L 209.189717 216.289051 
L 209.785341 191.688175 
L 210.380964 228.986277 
L 212.167835 196.449635 
L 212.763458 216.289051 
L 213.359082 208.353285 
L 213.954706 209.940438 
L 214.550329 201.211095 
L 215.145953 227.399124 
L 215.741576 209.940438 
L 216.3372 205.178978 
L 216.932823 225.018394 
L 217.528447 226.605547 
L 218.12407 217.876204 
L 218.719694 219.463358 
L 219.315318 205.972555 
L 219.910941 219.463358 
L 220.506565 201.211095 
L 221.102188 231.367007 
L 221.697812 226.605547 
L 222.293435 225.811971 
L 222.889059 221.050511 
L 223.484682 221.844088 
L 224.080306 205.972555 
L 225.271553 223.431241 
L 225.867177 214.701898 
L 227.058424 190.101022 
L 227.654047 182.958832 
L 228.249671 174.229489 
L 228.845294 116.298394 
L 229.440918 140.105693 
L 230.036542 74.238832 
L 230.632165 72.651679 
L 231.227789 44.08292 
L 231.823412 34.56 
L 232.419036 52.812263 
L 233.014659 92.491095 
L 233.610283 86.936058 
L 235.397154 175.023066 
L 235.992777 183.752409 
L 236.588401 186.133139 
L 237.184024 198.036788 
L 237.779648 222.637664 
L 238.375271 221.844088 
L 238.970895 208.353285 
L 239.566518 211.527591 
L 240.162142 227.399124 
L 240.757766 205.972555 
L 241.353389 211.527591 
L 241.949013 242.47708 
L 242.544636 212.321168 
L 243.14026 189.307445 
L 243.735883 217.876204 
L 244.331507 222.637664 
L 244.92713 217.876204 
L 245.522754 226.605547 
L 246.118378 228.192701 
L 246.714001 206.766131 
L 247.309625 202.798248 
L 247.905248 213.908321 
L 248.500872 227.399124 
L 249.096495 233.747737 
L 249.692119 224.224818 
L 250.287742 219.463358 
L 250.883366 228.986277 
L 251.47899 207.559708 
L 252.074613 202.004672 
L 252.670237 232.160584 
L 253.26586 204.385401 
L 253.861484 224.224818 
L 254.457107 205.972555 
L 255.052731 197.243212 
L 255.648354 195.656058 
L 256.243978 206.766131 
L 256.839601 232.160584 
L 258.030849 205.178978 
L 258.626472 202.798248 
L 259.222096 213.908321 
L 259.817719 199.623942 
L 260.413343 229.779854 
L 261.008966 232.954161 
L 261.60459 232.160584 
L 262.200213 240.889927 
L 262.795837 202.004672 
L 263.391461 206.766131 
L 263.987084 224.224818 
L 264.582708 184.545985 
L 265.178331 235.334891 
L 265.773955 191.688175 
L 266.369578 224.224818 
L 266.965202 213.114745 
L 267.560825 217.876204 
L 268.156449 219.463358 
L 268.752073 213.908321 
L 269.347696 230.573431 
L 269.94332 222.637664 
L 270.538943 211.527591 
L 271.134567 228.986277 
L 271.73019 202.004672 
L 272.325814 224.224818 
L 272.921437 233.747737 
L 273.517061 221.844088 
L 274.112685 237.71562 
L 274.708308 213.114745 
L 275.303932 204.385401 
L 275.899555 204.385401 
L 277.090802 234.541314 
L 277.686426 205.178978 
L 278.877673 218.669781 
L 279.473297 216.289051 
L 280.06892 210.734015 
L 281.260167 215.495474 
L 281.855791 184.545985 
L 282.451414 196.449635 
L 283.047038 222.637664 
L 283.642661 216.289051 
L 284.238285 205.972555 
L 284.833909 188.513869 
L 285.429532 232.160584 
L 286.620779 214.701898 
L 287.216403 225.811971 
L 287.812026 208.353285 
L 288.40765 220.256934 
L 289.598897 202.798248 
L 290.194521 213.114745 
L 290.790144 221.050511 
L 291.385768 193.275328 
L 291.981391 217.082628 
L 292.577015 220.256934 
L 293.172638 212.321168 
L 293.768262 200.417518 
L 294.363885 231.367007 
L 294.959509 204.385401 
L 295.555133 196.449635 
L 296.150756 217.876204 
L 296.74638 229.779854 
L 297.342003 222.637664 
L 297.937627 201.211095 
L 298.53325 221.844088 
L 299.128874 226.605547 
L 299.724497 206.766131 
L 300.320121 215.495474 
L 300.915745 237.71562 
L 301.511368 225.018394 
L 302.106992 198.036788 
L 303.298239 244.85781 
L 303.893862 236.128467 
L 304.489486 202.798248 
L 305.085109 215.495474 
L 305.680733 219.463358 
L 306.276357 225.018394 
L 306.87198 205.972555 
L 307.467604 208.353285 
L 308.063227 223.431241 
L 308.658851 201.211095 
L 309.850098 237.71562 
L 311.041345 205.972555 
L 311.636969 212.321168 
L 312.232592 227.399124 
L 312.828216 223.431241 
L 314.019463 202.004672 
L 314.615086 196.449635 
L 315.21071 238.509197 
L 315.806333 203.591825 
L 316.401957 214.701898 
L 316.997581 202.004672 
L 317.593204 222.637664 
L 318.188828 216.289051 
L 318.784451 221.050511 
L 319.975698 236.128467 
L 320.571322 205.972555 
L 321.166945 213.908321 
L 321.762569 215.495474 
L 322.358192 198.830365 
L 322.953816 200.417518 
L 323.54944 196.449635 
L 324.145063 217.082628 
L 324.740687 213.114745 
L 325.33631 202.798248 
L 325.931934 226.605547 
L 326.527557 243.270657 
L 327.123181 193.275328 
L 327.718804 213.114745 
L 328.314428 217.876204 
L 328.910052 211.527591 
L 329.505675 230.573431 
L 330.101299 242.47708 
L 330.696922 209.146861 
L 331.292546 220.256934 
L 331.888169 208.353285 
L 332.483793 206.766131 
L 333.079416 224.224818 
L 333.67504 217.876204 
L 334.270664 229.779854 
L 334.866287 220.256934 
L 335.461911 232.954161 
L 336.057534 233.747737 
L 336.653158 216.289051 
L 337.248781 207.559708 
L 337.844405 221.844088 
L 338.440028 209.940438 
L 339.035652 209.940438 
L 339.631276 236.922044 
L 340.226899 203.591825 
L 340.822523 199.623942 
L 341.418146 218.669781 
L 342.01377 225.018394 
L 342.609393 208.353285 
L 343.205017 204.385401 
L 343.80064 221.050511 
L 344.396264 225.811971 
L 344.991888 225.811971 
L 345.587511 184.545985 
L 346.183135 242.47708 
L 346.778758 204.385401 
L 348.565629 225.018394 
L 349.161252 202.798248 
L 349.756876 199.623942 
L 350.3525 226.605547 
L 350.948123 208.353285 
L 351.543747 217.082628 
L 352.13937 203.591825 
L 352.734994 232.954161 
L 353.330617 213.908321 
L 353.926241 228.192701 
L 354.521864 206.766131 
L 355.117488 209.146861 
L 355.713112 223.431241 
L 356.308735 228.986277 
L 356.904359 205.972555 
L 357.499982 226.605547 
L 358.095606 213.114745 
L 358.691229 192.481752 
L 359.286853 202.798248 
L 359.882476 188.513869 
L 360.4781 221.844088 
L 361.073724 241.683504 
L 361.669347 235.334891 
L 362.264971 201.211095 
L 362.860594 219.463358 
L 363.456218 222.637664 
L 364.051841 231.367007 
L 364.647465 228.986277 
L 365.243088 217.876204 
L 365.838712 209.146861 
L 366.434336 228.192701 
L 367.029959 200.417518 
L 367.625583 230.573431 
L 368.221206 209.146861 
L 368.81683 213.114745 
L 369.412453 213.114745 
L 370.008077 208.353285 
L 370.6037 201.211095 
L 371.199324 220.256934 
L 371.794948 232.160584 
L 372.390571 232.160584 
L 372.986195 214.701898 
L 373.581818 208.353285 
L 373.581818 208.353285 
" clip-path="url(#p0483f6b5be)" style="fill: none; stroke: #1f77b4; stroke-width: 1.5; stroke-linecap: square"/>
   </g>
   <g id="line2d_26">
    <path d="M 69.218182 222.370813 
L 69.813805 214.724571 
L 70.409429 224.282374 
L 71.005052 229.061275 
L 71.600676 198.954198 
L 72.1963 230.494945 
L 72.791923 235.273846 
L 73.387547 208.03411 
L 73.98317 195.608967 
L 74.578794 220.459253 
L 75.174417 206.122549 
L 75.770041 218.547692 
L 76.365664 224.282374 
L 76.961288 219.503473 
L 77.556912 222.848703 
L 78.152535 228.105495 
L 78.748159 222.848703 
L 79.343782 223.804484 
L 79.939406 209.46778 
L 80.535029 220.937143 
L 81.130653 220.459253 
L 81.726276 222.848703 
L 82.3219 204.688879 
L 82.917524 228.583385 
L 83.513147 227.149714 
L 84.108771 223.804484 
L 84.704394 252 
L 85.300018 251.04422 
L 85.895641 211.857231 
L 86.491265 216.158242 
L 87.086888 224.760264 
L 87.682512 217.591912 
L 88.278136 217.591912 
L 88.873759 218.547692 
L 89.469383 223.804484 
L 90.065006 217.114022 
L 90.66063 208.03411 
L 91.256253 232.884396 
L 91.851877 215.202462 
L 92.4475 211.379341 
L 93.638748 227.149714 
L 94.234371 204.688879 
L 94.829995 224.760264 
L 95.425618 205.166769 
L 96.021242 230.494945 
L 96.616865 216.636132 
L 97.212489 231.928615 
L 97.808112 220.937143 
L 98.403736 225.716044 
L 98.99936 196.086857 
L 99.594983 233.362286 
L 100.190607 211.857231 
L 100.78623 221.892923 
L 101.381854 237.663297 
L 101.977477 219.503473 
L 102.573101 238.619077 
L 103.168724 213.768791 
L 103.764348 220.459253 
L 104.359972 230.017055 
L 104.955595 222.370813 
L 105.551219 209.46778 
L 106.146842 232.884396 
L 106.742466 226.671824 
L 107.338089 207.55622 
L 107.933713 228.583385 
L 108.529336 236.229626 
L 109.12496 214.246681 
L 109.720584 220.937143 
L 110.316207 216.158242 
L 110.911831 216.636132 
L 111.507454 227.627604 
L 112.103078 231.928615 
L 112.698701 212.335121 
L 113.294325 216.636132 
L 113.889948 197.042637 
L 114.485572 235.273846 
L 115.081196 221.892923 
L 115.676819 226.193934 
L 116.272443 210.901451 
L 116.868066 203.255209 
L 117.46369 230.972835 
L 118.059313 229.061275 
L 118.654937 218.069802 
L 119.25056 218.547692 
L 119.846184 217.114022 
L 120.441808 219.503473 
L 121.037431 227.149714 
L 121.633055 226.671824 
L 122.228678 233.840176 
L 122.824302 216.158242 
L 123.419925 215.680352 
L 124.015549 213.290901 
L 124.611172 207.55622 
L 125.206796 218.547692 
L 125.802419 223.326593 
L 126.398043 219.981363 
L 126.993667 202.299429 
L 127.58929 228.583385 
L 128.184914 220.937143 
L 128.780537 210.901451 
L 129.376161 193.697407 
L 129.971784 208.03411 
L 130.567408 216.636132 
L 131.163031 221.892923 
L 131.758655 225.238154 
L 132.354279 219.981363 
L 133.545526 231.450725 
L 134.141149 213.768791 
L 134.736773 225.716044 
L 135.332396 235.273846 
L 135.92802 205.166769 
L 136.523643 224.282374 
L 137.119267 229.061275 
L 137.714891 239.574857 
L 138.310514 208.03411 
L 138.906138 201.821538 
L 139.501761 226.671824 
L 140.097385 230.494945 
L 140.693008 230.017055 
L 141.288632 218.069802 
L 141.884255 221.415033 
L 142.479879 205.644659 
L 143.075503 209.94567 
L 143.671126 215.680352 
L 144.26675 219.025582 
L 144.862373 208.98989 
L 145.457997 225.716044 
L 146.05362 205.644659 
L 146.649244 217.114022 
L 147.244867 218.069802 
L 147.840491 219.503473 
L 148.436115 214.246681 
L 149.031738 220.459253 
L 149.627362 194.175297 
L 150.818609 213.768791 
L 151.414232 227.627604 
L 152.009856 208.03411 
L 152.605479 236.229626 
L 153.201103 234.795956 
L 153.796727 219.503473 
L 154.987974 241.964308 
L 155.583597 214.724571 
L 156.179221 241.964308 
L 157.966091 216.636132 
L 158.561715 205.166769 
L 159.157339 198.954198 
L 159.752962 220.937143 
L 160.348586 196.086857 
L 161.539833 222.848703 
L 162.135456 229.061275 
L 162.73108 217.591912 
L 163.326703 228.583385 
L 163.922327 219.025582 
L 164.517951 203.733099 
L 165.113574 227.627604 
L 165.709198 228.105495 
L 166.304821 225.716044 
L 166.900445 224.282374 
L 167.496068 214.246681 
L 168.091692 235.273846 
L 168.687315 232.406505 
L 169.282939 205.166769 
L 169.878563 228.583385 
L 170.474186 210.42356 
L 171.06981 211.857231 
L 171.665433 221.415033 
L 172.261057 211.857231 
L 172.85668 217.114022 
L 173.452304 227.627604 
L 174.047927 222.848703 
L 174.643551 225.716044 
L 175.239175 231.928615 
L 175.834798 217.591912 
L 176.430422 206.60044 
L 177.026045 225.238154 
L 177.621669 231.450725 
L 178.217292 227.627604 
L 178.812916 225.716044 
L 179.408539 216.636132 
L 180.004163 229.061275 
L 180.599787 218.547692 
L 181.19541 220.459253 
L 181.791034 230.017055 
L 182.386657 226.193934 
L 182.982281 201.821538 
L 184.173528 233.840176 
L 184.769151 202.777319 
L 185.364775 233.362286 
L 185.960399 232.406505 
L 186.556022 208.98989 
L 187.151646 221.892923 
L 187.747269 229.539165 
L 188.342893 230.494945 
L 188.938516 224.760264 
L 189.53414 212.813011 
L 190.129763 229.539165 
L 190.725387 229.061275 
L 191.32101 223.326593 
L 191.916634 234.795956 
L 192.512258 216.636132 
L 193.107881 220.937143 
L 193.703505 237.185407 
L 194.299128 236.707516 
L 194.894752 213.768791 
L 195.490375 208.512 
L 196.085999 222.848703 
L 196.681622 226.671824 
L 197.277246 209.94567 
L 197.87287 207.07833 
L 198.468493 221.892923 
L 199.064117 214.246681 
L 200.255364 237.663297 
L 200.850987 232.406505 
L 201.446611 237.185407 
L 202.042234 223.804484 
L 202.637858 219.025582 
L 203.233482 206.122549 
L 203.829105 220.937143 
L 204.424729 244.831648 
L 205.020352 227.627604 
L 205.615976 214.246681 
L 206.211599 242.442198 
L 206.807223 219.981363 
L 207.402846 216.158242 
L 207.99847 211.379341 
L 209.189717 226.193934 
L 210.380964 231.450725 
L 210.976588 232.884396 
L 211.572211 223.804484 
L 212.167835 219.503473 
L 212.763458 241.486418 
L 213.359082 222.848703 
L 214.550329 230.972835 
L 215.145953 210.901451 
L 215.741576 216.636132 
L 216.3372 206.122549 
L 216.932823 217.591912 
L 217.528447 225.716044 
L 218.12407 226.671824 
L 218.719694 217.114022 
L 219.315318 191.307956 
L 219.910941 215.202462 
L 220.506565 214.724571 
L 221.102188 213.290901 
L 221.697812 217.114022 
L 222.293435 218.547692 
L 222.889059 199.432088 
L 223.484682 226.193934 
L 224.080306 235.273846 
L 224.67593 226.671824 
L 225.271553 203.733099 
L 225.867177 216.158242 
L 226.4628 217.591912 
L 227.058424 224.282374 
L 227.654047 224.282374 
L 228.249671 233.840176 
L 228.845294 219.025582 
L 229.440918 217.591912 
L 230.036542 226.193934 
L 230.632165 224.760264 
L 231.227789 213.290901 
L 231.823412 210.42356 
L 232.419036 219.025582 
L 233.014659 225.716044 
L 233.610283 198.954198 
L 234.205906 232.884396 
L 234.80153 229.061275 
L 235.397154 209.46778 
L 235.992777 223.804484 
L 236.588401 231.928615 
L 237.184024 222.848703 
L 237.779648 224.760264 
L 238.375271 213.768791 
L 238.970895 224.282374 
L 239.566518 229.061275 
L 240.162142 228.105495 
L 240.757766 203.255209 
L 241.353389 212.813011 
L 241.949013 219.503473 
L 242.544636 222.370813 
L 243.14026 211.379341 
L 243.735883 230.494945 
L 244.331507 206.60044 
L 245.522754 228.583385 
L 246.118378 208.512 
L 246.714001 209.94567 
L 247.309625 220.459253 
L 247.905248 225.716044 
L 248.500872 216.158242 
L 249.096495 230.017055 
L 249.692119 214.246681 
L 250.883366 223.804484 
L 251.47899 224.760264 
L 252.074613 221.415033 
L 252.670237 227.627604 
L 253.26586 185.095385 
L 253.861484 221.892923 
L 254.457107 205.644659 
L 255.052731 234.795956 
L 255.648354 216.636132 
L 256.243978 209.46778 
L 256.839601 176.971253 
L 257.435225 176.493363 
L 258.030849 158.811429 
L 258.626472 123.44756 
L 259.817719 89.039473 
L 260.413343 36.47156 
L 261.008966 69.923868 
L 261.60459 59.888176 
L 262.200213 34.56 
L 262.795837 71.835429 
L 263.391461 97.163604 
L 263.987084 105.765626 
L 264.582708 144.952615 
L 265.773955 194.175297 
L 266.369578 191.785846 
L 266.965202 223.804484 
L 267.560825 237.663297 
L 268.156449 224.760264 
L 268.752073 232.884396 
L 269.347696 198.954198 
L 269.94332 206.122549 
L 270.538943 232.884396 
L 271.73019 213.768791 
L 272.325814 220.937143 
L 272.921437 205.644659 
L 273.517061 232.406505 
L 274.112685 227.149714 
L 274.708308 203.255209 
L 275.303932 237.185407 
L 275.899555 215.202462 
L 276.495179 234.318066 
L 277.090802 223.326593 
L 277.686426 237.185407 
L 278.282049 230.017055 
L 278.877673 213.768791 
L 279.473297 230.972835 
L 280.06892 204.210989 
L 280.664544 199.909978 
L 281.260167 217.591912 
L 281.855791 206.122549 
L 282.451414 201.343648 
L 283.047038 238.141187 
L 283.642661 218.069802 
L 284.833909 235.273846 
L 285.429532 202.777319 
L 286.025156 230.972835 
L 286.620779 215.680352 
L 287.216403 216.158242 
L 287.812026 227.627604 
L 288.40765 231.450725 
L 289.003273 231.450725 
L 289.598897 234.795956 
L 290.194521 214.724571 
L 290.790144 224.282374 
L 291.385768 230.017055 
L 291.981391 201.821538 
L 292.577015 228.583385 
L 293.172638 227.627604 
L 293.768262 216.636132 
L 294.363885 231.450725 
L 294.959509 228.105495 
L 295.555133 215.202462 
L 296.150756 217.591912 
L 296.74638 235.751736 
L 297.937627 197.998418 
L 298.53325 223.326593 
L 299.128874 216.158242 
L 299.724497 217.591912 
L 300.320121 219.503473 
L 300.915745 227.149714 
L 301.511368 222.848703 
L 302.106992 201.343648 
L 302.702615 203.733099 
L 303.298239 207.07833 
L 303.893862 224.282374 
L 304.489486 227.149714 
L 305.085109 229.061275 
L 305.680733 225.238154 
L 306.276357 233.362286 
L 306.87198 219.981363 
L 307.467604 224.282374 
L 308.063227 197.998418 
L 308.658851 235.273846 
L 309.254474 220.937143 
L 309.850098 224.760264 
L 310.445721 225.716044 
L 311.041345 235.751736 
L 311.636969 236.707516 
L 312.232592 218.547692 
L 312.828216 213.290901 
L 313.423839 226.193934 
L 314.019463 221.892923 
L 314.615086 214.246681 
L 315.21071 228.105495 
L 315.806333 212.813011 
L 316.401957 226.193934 
L 316.997581 218.069802 
L 317.593204 234.318066 
L 318.188828 196.086857 
L 318.784451 229.061275 
L 319.380075 222.370813 
L 319.975698 232.406505 
L 320.571322 229.061275 
L 321.166945 208.03411 
L 321.762569 238.141187 
L 322.358192 231.450725 
L 322.953816 239.096967 
L 323.54944 213.290901 
L 324.145063 219.503473 
L 324.740687 217.114022 
L 325.33631 223.804484 
L 325.931934 213.768791 
L 326.527557 208.512 
L 327.718804 225.716044 
L 328.314428 209.46778 
L 328.910052 201.343648 
L 329.505675 210.42356 
L 330.101299 213.290901 
L 330.696922 228.583385 
L 331.292546 227.149714 
L 331.888169 212.335121 
L 332.483793 228.583385 
L 333.079416 229.539165 
L 333.67504 220.937143 
L 334.270664 224.282374 
L 334.866287 205.166769 
L 335.461911 223.804484 
L 336.057534 227.627604 
L 336.653158 206.122549 
L 337.248781 228.105495 
L 337.844405 203.733099 
L 338.440028 209.46778 
L 339.035652 227.149714 
L 339.631276 216.158242 
L 340.226899 234.795956 
L 340.822523 214.724571 
L 341.418146 224.282374 
L 342.01377 193.219516 
L 342.609393 218.069802 
L 343.205017 236.707516 
L 343.80064 216.636132 
L 344.396264 229.539165 
L 344.991888 228.105495 
L 345.587511 222.370813 
L 346.183135 228.583385 
L 346.778758 229.539165 
L 347.374382 234.795956 
L 347.970005 216.158242 
L 348.565629 214.724571 
L 349.161252 211.379341 
L 349.756876 227.627604 
L 350.3525 211.857231 
L 351.543747 232.406505 
L 352.13937 213.768791 
L 352.734994 209.94567 
L 353.330617 231.928615 
L 353.926241 216.158242 
L 354.521864 222.370813 
L 355.117488 224.282374 
L 355.713112 207.07833 
L 356.308735 224.760264 
L 356.904359 226.193934 
L 357.499982 225.238154 
L 358.095606 215.202462 
L 358.691229 222.370813 
L 359.286853 224.282374 
L 359.882476 238.619077 
L 360.4781 228.583385 
L 361.073724 225.716044 
L 361.669347 221.892923 
L 362.264971 243.875868 
L 362.860594 207.07833 
L 363.456218 215.680352 
L 364.051841 212.335121 
L 364.647465 228.105495 
L 365.243088 231.928615 
L 365.838712 221.892923 
L 366.434336 216.636132 
L 367.029959 216.158242 
L 367.625583 225.238154 
L 368.221206 227.149714 
L 369.412453 203.733099 
L 370.008077 216.636132 
L 370.6037 232.884396 
L 371.199324 207.55622 
L 371.794948 221.892923 
L 372.390571 203.733099 
L 372.986195 223.804484 
L 373.581818 208.03411 
L 373.581818 208.03411 
" clip-path="url(#p0483f6b5be)" style="fill: none; stroke: #ff7f0e; stroke-width: 1.5; stroke-linecap: square"/>
   </g>
   <g id="line2d_27">
    <path d="M 69.218182 210.655775 
L 69.813805 190.749296 
L 70.409429 195.343099 
L 71.005052 209.124507 
L 71.600676 216.780845 
L 72.1963 227.499718 
L 72.791923 213.71831 
L 73.387547 202.999437 
L 73.98317 195.343099 
L 74.578794 201.468169 
L 75.174417 212.187042 
L 75.770041 202.999437 
L 76.365664 202.999437 
L 76.961288 235.156056 
L 77.556912 235.156056 
L 78.152535 230.562254 
L 78.748159 252 
L 79.343782 227.499718 
L 79.939406 210.655775 
L 80.535029 207.593239 
L 81.130653 213.71831 
L 81.726276 229.030986 
L 82.3219 195.343099 
L 82.917524 225.968451 
L 83.513147 230.562254 
L 84.108771 212.187042 
L 84.704394 218.312113 
L 85.300018 204.530704 
L 85.895641 207.593239 
L 86.491265 222.905915 
L 87.086888 221.374648 
L 87.682512 225.968451 
L 88.278136 201.468169 
L 88.873759 215.249577 
L 89.469383 199.936901 
L 90.065006 210.655775 
L 90.66063 204.530704 
L 91.256253 189.218028 
L 91.851877 224.437183 
L 92.4475 206.061972 
L 93.043124 229.030986 
L 93.638748 218.312113 
L 94.829995 186.155493 
L 95.425618 222.905915 
L 96.021242 221.374648 
L 96.616865 215.249577 
L 97.212489 201.468169 
L 97.808112 212.187042 
L 98.403736 219.84338 
L 98.99936 198.405634 
L 99.594983 212.187042 
L 100.190607 204.530704 
L 100.78623 210.655775 
L 101.381854 210.655775 
L 101.977477 218.312113 
L 103.168724 201.468169 
L 103.764348 227.499718 
L 104.359972 192.280563 
L 104.955595 204.530704 
L 105.551219 210.655775 
L 106.146842 232.093521 
L 106.742466 236.687324 
L 107.338089 215.249577 
L 107.933713 207.593239 
L 108.529336 216.780845 
L 109.720584 222.905915 
L 110.911831 193.811831 
L 111.507454 222.905915 
L 112.698701 190.749296 
L 113.294325 219.84338 
L 113.889948 199.936901 
L 114.485572 222.905915 
L 115.081196 232.093521 
L 115.676819 212.187042 
L 116.272443 230.562254 
L 116.868066 224.437183 
L 117.46369 196.874366 
L 118.059313 221.374648 
L 118.654937 225.968451 
L 119.846184 204.530704 
L 120.441808 169.311549 
L 121.037431 210.655775 
L 121.633055 201.468169 
L 122.228678 210.655775 
L 122.824302 225.968451 
L 123.419925 196.874366 
L 124.015549 213.71831 
L 124.611172 213.71831 
L 125.206796 227.499718 
L 125.802419 210.655775 
L 126.398043 212.187042 
L 126.993667 232.093521 
L 127.58929 199.936901 
L 128.184914 207.593239 
L 128.780537 201.468169 
L 129.376161 213.71831 
L 129.971784 210.655775 
L 130.567408 221.374648 
L 131.163031 225.968451 
L 132.354279 219.84338 
L 132.949902 190.749296 
L 133.545526 215.249577 
L 134.736773 209.124507 
L 135.332396 195.343099 
L 135.92802 209.124507 
L 136.523643 202.999437 
L 137.119267 232.093521 
L 137.714891 195.343099 
L 138.310514 212.187042 
L 138.906138 193.811831 
L 139.501761 212.187042 
L 140.097385 216.780845 
L 140.693008 206.061972 
L 141.288632 219.84338 
L 141.884255 236.687324 
L 143.075503 187.686761 
L 143.671126 212.187042 
L 144.26675 215.249577 
L 144.862373 210.655775 
L 145.457997 186.155493 
L 146.649244 216.780845 
L 147.244867 222.905915 
L 147.840491 206.061972 
L 148.436115 215.249577 
L 149.031738 204.530704 
L 149.627362 238.218592 
L 150.222985 222.905915 
L 150.818609 193.811831 
L 151.414232 199.936901 
L 152.009856 198.405634 
L 152.605479 218.312113 
L 153.201103 202.999437 
L 153.796727 193.811831 
L 154.39235 204.530704 
L 154.987974 212.187042 
L 155.583597 244.343662 
L 156.179221 241.281127 
L 156.774844 222.905915 
L 157.370468 227.499718 
L 158.561715 212.187042 
L 159.157339 222.905915 
L 159.752962 202.999437 
L 160.348586 204.530704 
L 160.944209 229.030986 
L 161.539833 216.780845 
L 162.135456 233.624789 
L 162.73108 209.124507 
L 163.326703 235.156056 
L 163.922327 210.655775 
L 164.517951 213.71831 
L 165.113574 206.061972 
L 165.709198 199.936901 
L 166.304821 206.061972 
L 166.900445 209.124507 
L 167.496068 186.155493 
L 168.091692 212.187042 
L 168.687315 212.187042 
L 169.282939 222.905915 
L 169.878563 227.499718 
L 171.06981 199.936901 
L 171.665433 225.968451 
L 172.261057 209.124507 
L 172.85668 199.936901 
L 173.452304 202.999437 
L 174.047927 192.280563 
L 174.643551 199.936901 
L 175.239175 199.936901 
L 175.834798 222.905915 
L 176.430422 219.84338 
L 177.026045 230.562254 
L 177.621669 219.84338 
L 178.217292 212.187042 
L 178.812916 206.061972 
L 179.408539 196.874366 
L 180.004163 218.312113 
L 180.599787 235.156056 
L 181.19541 212.187042 
L 182.386657 224.437183 
L 182.982281 216.780845 
L 183.577904 213.71831 
L 184.173528 207.593239 
L 184.769151 213.71831 
L 185.364775 184.624225 
L 186.556022 215.249577 
L 187.151646 210.655775 
L 187.747269 202.999437 
L 188.342893 204.530704 
L 189.53414 238.218592 
L 190.129763 222.905915 
L 190.725387 193.811831 
L 191.32101 225.968451 
L 191.916634 238.218592 
L 192.512258 216.780845 
L 193.107881 183.092958 
L 193.703505 209.124507 
L 194.299128 202.999437 
L 194.894752 216.780845 
L 196.085999 198.405634 
L 196.681622 202.999437 
L 197.277246 215.249577 
L 197.87287 209.124507 
L 198.468493 221.374648 
L 199.064117 230.562254 
L 199.65974 216.780845 
L 200.255364 230.562254 
L 200.850987 215.249577 
L 201.446611 195.343099 
L 202.042234 199.936901 
L 202.637858 213.71831 
L 203.233482 218.312113 
L 203.829105 218.312113 
L 204.424729 212.187042 
L 205.020352 202.999437 
L 205.615976 186.155493 
L 206.211599 216.780845 
L 207.402846 196.874366 
L 207.99847 196.874366 
L 208.594094 206.061972 
L 209.189717 206.061972 
L 209.785341 232.093521 
L 210.380964 222.905915 
L 210.976588 236.687324 
L 211.572211 190.749296 
L 212.167835 218.312113 
L 213.359082 198.405634 
L 213.954706 222.905915 
L 214.550329 219.84338 
L 215.145953 184.624225 
L 215.741576 229.030986 
L 216.3372 209.124507 
L 216.932823 201.468169 
L 218.12407 221.374648 
L 218.719694 196.874366 
L 219.315318 210.655775 
L 219.910941 207.593239 
L 220.506565 189.218028 
L 221.102188 210.655775 
L 221.697812 172.374085 
L 222.293435 124.904789 
L 222.889059 134.092394 
L 223.484682 74.372958 
L 224.080306 66.71662 
L 224.67593 85.091831 
L 225.271553 42.216338 
L 225.867177 45.278873 
L 226.4628 34.56 
L 227.058424 62.122817 
L 227.654047 71.310423 
L 228.249671 101.935775 
L 228.845294 112.654648 
L 229.440918 158.592676 
L 230.036542 178.499155 
L 230.632165 160.123944 
L 231.227789 176.967887 
L 231.823412 213.71831 
L 232.419036 196.874366 
L 233.014659 216.780845 
L 233.610283 210.655775 
L 234.205906 218.312113 
L 234.80153 206.061972 
L 235.397154 218.312113 
L 235.992777 206.061972 
L 236.588401 230.562254 
L 237.184024 204.530704 
L 237.779648 216.780845 
L 238.375271 215.249577 
L 238.970895 209.124507 
L 239.566518 210.655775 
L 240.162142 193.811831 
L 240.757766 204.530704 
L 241.353389 238.218592 
L 241.949013 216.780845 
L 242.544636 221.374648 
L 243.14026 209.124507 
L 243.735883 201.468169 
L 244.331507 232.093521 
L 244.92713 199.936901 
L 245.522754 202.999437 
L 246.118378 204.530704 
L 246.714001 216.780845 
L 247.309625 202.999437 
L 247.905248 229.030986 
L 248.500872 218.312113 
L 249.096495 198.405634 
L 249.692119 222.905915 
L 250.287742 233.624789 
L 250.883366 210.655775 
L 251.47899 213.71831 
L 252.074613 210.655775 
L 252.670237 189.218028 
L 253.26586 209.124507 
L 253.861484 204.530704 
L 254.457107 201.468169 
L 255.648354 227.499718 
L 256.243978 233.624789 
L 256.839601 207.593239 
L 257.435225 207.593239 
L 258.030849 222.905915 
L 258.626472 213.71831 
L 259.222096 181.56169 
L 259.817719 225.968451 
L 260.413343 218.312113 
L 261.008966 233.624789 
L 261.60459 218.312113 
L 262.200213 207.593239 
L 262.795837 216.780845 
L 263.391461 215.249577 
L 263.987084 209.124507 
L 264.582708 206.061972 
L 265.178331 213.71831 
L 266.369578 207.593239 
L 266.965202 206.061972 
L 267.560825 202.999437 
L 268.156449 209.124507 
L 268.752073 216.780845 
L 269.347696 204.530704 
L 269.94332 227.499718 
L 270.538943 224.437183 
L 271.134567 196.874366 
L 271.73019 216.780845 
L 272.325814 212.187042 
L 272.921437 215.249577 
L 273.517061 189.218028 
L 274.112685 221.374648 
L 274.708308 198.405634 
L 275.303932 216.780845 
L 275.899555 227.499718 
L 276.495179 235.156056 
L 277.090802 181.56169 
L 278.282049 218.312113 
L 278.877673 207.593239 
L 279.473297 210.655775 
L 280.06892 192.280563 
L 280.664544 213.71831 
L 281.260167 210.655775 
L 281.855791 206.061972 
L 282.451414 198.405634 
L 283.047038 219.84338 
L 283.642661 229.030986 
L 284.238285 216.780845 
L 284.833909 232.093521 
L 285.429532 210.655775 
L 286.025156 213.71831 
L 286.620779 219.84338 
L 287.216403 222.905915 
L 287.812026 204.530704 
L 288.40765 207.593239 
L 289.003273 213.71831 
L 289.598897 233.624789 
L 290.194521 187.686761 
L 290.790144 210.655775 
L 291.385768 227.499718 
L 291.981391 213.71831 
L 292.577015 215.249577 
L 293.172638 204.530704 
L 293.768262 201.468169 
L 294.959509 213.71831 
L 295.555133 206.061972 
L 296.150756 213.71831 
L 296.74638 216.780845 
L 297.342003 195.343099 
L 297.937627 209.124507 
L 298.53325 204.530704 
L 299.128874 210.655775 
L 299.724497 212.187042 
L 300.320121 209.124507 
L 300.915745 210.655775 
L 301.511368 209.124507 
L 302.106992 210.655775 
L 302.702615 199.936901 
L 303.893862 215.249577 
L 304.489486 216.780845 
L 305.085109 193.811831 
L 305.680733 233.624789 
L 306.276357 209.124507 
L 306.87198 206.061972 
L 307.467604 198.405634 
L 308.063227 210.655775 
L 308.658851 230.562254 
L 309.254474 224.437183 
L 309.850098 202.999437 
L 310.445721 215.249577 
L 311.041345 209.124507 
L 311.636969 224.437183 
L 312.232592 219.84338 
L 312.828216 213.71831 
L 313.423839 218.312113 
L 314.019463 195.343099 
L 314.615086 215.249577 
L 315.21071 239.749859 
L 315.806333 236.687324 
L 316.401957 192.280563 
L 316.997581 245.87493 
L 317.593204 202.999437 
L 318.188828 216.780845 
L 318.784451 227.499718 
L 319.380075 229.030986 
L 319.975698 209.124507 
L 320.571322 204.530704 
L 321.166945 195.343099 
L 321.762569 202.999437 
L 322.358192 189.218028 
L 322.953816 230.562254 
L 323.54944 206.061972 
L 324.145063 232.093521 
L 324.740687 219.84338 
L 325.33631 221.374648 
L 325.931934 209.124507 
L 326.527557 181.56169 
L 327.123181 222.905915 
L 327.718804 199.936901 
L 328.314428 207.593239 
L 328.910052 212.187042 
L 329.505675 207.593239 
L 330.101299 227.499718 
L 330.696922 207.593239 
L 331.292546 219.84338 
L 331.888169 199.936901 
L 332.483793 230.562254 
L 333.079416 212.187042 
L 333.67504 213.71831 
L 334.270664 229.030986 
L 334.866287 210.655775 
L 335.461911 199.936901 
L 336.057534 186.155493 
L 337.248781 227.499718 
L 337.844405 224.437183 
L 338.440028 216.780845 
L 339.035652 206.061972 
L 339.631276 207.593239 
L 340.226899 207.593239 
L 340.822523 186.155493 
L 341.418146 190.749296 
L 342.01377 221.374648 
L 342.609393 184.624225 
L 343.205017 184.624225 
L 343.80064 225.968451 
L 344.396264 212.187042 
L 344.991888 227.499718 
L 345.587511 193.811831 
L 346.183135 225.968451 
L 346.778758 242.812394 
L 347.374382 210.655775 
L 347.970005 233.624789 
L 348.565629 232.093521 
L 349.161252 216.780845 
L 349.756876 212.187042 
L 350.3525 206.061972 
L 350.948123 204.530704 
L 351.543747 245.87493 
L 352.13937 202.999437 
L 352.734994 212.187042 
L 353.330617 199.936901 
L 353.926241 213.71831 
L 354.521864 199.936901 
L 355.117488 209.124507 
L 355.713112 206.061972 
L 356.308735 209.124507 
L 356.904359 199.936901 
L 357.499982 209.124507 
L 358.095606 236.687324 
L 358.691229 206.061972 
L 359.286853 207.593239 
L 359.882476 219.84338 
L 360.4781 215.249577 
L 361.073724 215.249577 
L 361.669347 222.905915 
L 362.860594 216.780845 
L 363.456218 207.593239 
L 364.051841 204.530704 
L 364.647465 216.780845 
L 365.243088 222.905915 
L 365.838712 221.374648 
L 366.434336 206.061972 
L 367.029959 224.437183 
L 367.625583 190.749296 
L 368.221206 209.124507 
L 368.81683 210.655775 
L 369.412453 192.280563 
L 370.008077 202.999437 
L 370.6037 183.092958 
L 371.199324 201.468169 
L 371.794948 204.530704 
L 372.390571 184.624225 
L 372.986195 218.312113 
L 373.581818 199.936901 
L 373.581818 199.936901 
" clip-path="url(#p0483f6b5be)" style="fill: none; stroke: #2ca02c; stroke-width: 1.5; stroke-linecap: square"/>
   </g>
   <g id="patch_3">
    <path d="M 54 252 
L 54 34.56 
" style="fill: none; stroke: #000000; stroke-width: 0.8; stroke-linejoin: miter; stroke-linecap: square"/>
   </g>
   <g id="patch_4">
    <path d="M 388.8 252 
L 388.8 34.56 
" style="fill: none; stroke: #000000; stroke-width: 0.8; stroke-linejoin: miter; stroke-linecap: square"/>
   </g>
   <g id="patch_5">
    <path d="M 54 252 
L 388.8 252 
" style="fill: none; stroke: #000000; stroke-width: 0.8; stroke-linejoin: miter; stroke-linecap: square"/>
   </g>
   <g id="patch_6">
    <path d="M 54 34.56 
L 388.8 34.56 
" style="fill: none; stroke: #000000; stroke-width: 0.8; stroke-linejoin: miter; stroke-linecap: square"/>
   </g>
   <g id="text_15">
    <!-- Label 1 normalized -->
    <g transform="translate(164.240625 28.56)scale(0.12 -0.12)">
     <defs>
      <path id="DejaVuSans-4c" d="M 628 4666 
L 1259 4666 
L 1259 531 
L 3531 531 
L 3531 0 
L 628 0 
L 628 4666 
z
" transform="scale(0.015625)"/>
      <path id="DejaVuSans-61" d="M 2194 1759 
Q 1497 1759 1228 1600 
Q 959 1441 959 1056 
Q 959 750 1161 570 
Q 1363 391 1709 391 
Q 2188 391 2477 730 
Q 2766 1069 2766 1631 
L 2766 1759 
L 2194 1759 
z
M 3341 1997 
L 3341 0 
L 2766 0 
L 2766 531 
Q 2569 213 2275 61 
Q 1981 -91 1556 -91 
Q 1019 -91 701 211 
Q 384 513 384 1019 
Q 384 1609 779 1909 
Q 1175 2209 1959 2209 
L 2766 2209 
L 2766 2266 
Q 2766 2663 2505 2880 
Q 2244 3097 1772 3097 
Q 1472 3097 1187 3025 
Q 903 2953 641 2809 
L 641 3341 
Q 956 3463 1253 3523 
Q 1550 3584 1831 3584 
Q 2591 3584 2966 3190 
Q 3341 2797 3341 1997 
z
" transform="scale(0.015625)"/>
      <path id="DejaVuSans-65" d="M 3597 1894 
L 3597 1613 
L 953 1613 
Q 991 1019 1311 708 
Q 1631 397 2203 397 
Q 2534 397 2845 478 
Q 3156 559 3463 722 
L 3463 178 
Q 3153 47 2828 -22 
Q 2503 -91 2169 -91 
Q 1331 -91 842 396 
Q 353 884 353 1716 
Q 353 2575 817 3079 
Q 1281 3584 2069 3584 
Q 2775 3584 3186 3129 
Q 3597 2675 3597 1894 
z
M 3022 2063 
Q 3016 2534 2758 2815 
Q 2500 3097 2075 3097 
Q 1594 3097 1305 2825 
Q 1016 2553 972 2059 
L 3022 2063 
z
" transform="scale(0.015625)"/>
      <path id="DejaVuSans-6c" d="M 603 4863 
L 1178 4863 
L 1178 0 
L 603 0 
L 603 4863 
z
" transform="scale(0.015625)"/>
      <path id="DejaVuSans-20" transform="scale(0.015625)"/>
      <path id="DejaVuSans-72" d="M 2631 2963 
Q 2534 3019 2420 3045 
Q 2306 3072 2169 3072 
Q 1681 3072 1420 2755 
Q 1159 2438 1159 1844 
L 1159 0 
L 581 0 
L 581 3500 
L 1159 3500 
L 1159 2956 
Q 1341 3275 1631 3429 
Q 1922 3584 2338 3584 
Q 2397 3584 2469 3576 
Q 2541 3569 2628 3553 
L 2631 2963 
z
" transform="scale(0.015625)"/>
      <path id="DejaVuSans-6d" d="M 3328 2828 
Q 3544 3216 3844 3400 
Q 4144 3584 4550 3584 
Q 5097 3584 5394 3201 
Q 5691 2819 5691 2113 
L 5691 0 
L 5113 0 
L 5113 2094 
Q 5113 2597 4934 2840 
Q 4756 3084 4391 3084 
Q 3944 3084 3684 2787 
Q 3425 2491 3425 1978 
L 3425 0 
L 2847 0 
L 2847 2094 
Q 2847 2600 2669 2842 
Q 2491 3084 2119 3084 
Q 1678 3084 1418 2786 
Q 1159 2488 1159 1978 
L 1159 0 
L 581 0 
L 581 3500 
L 1159 3500 
L 1159 2956 
Q 1356 3278 1631 3431 
Q 1906 3584 2284 3584 
Q 2666 3584 2933 3390 
Q 3200 3197 3328 2828 
z
" transform="scale(0.015625)"/>
      <path id="DejaVuSans-7a" d="M 353 3500 
L 3084 3500 
L 3084 2975 
L 922 459 
L 3084 459 
L 3084 0 
L 275 0 
L 275 525 
L 2438 3041 
L 353 3041 
L 353 3500 
z
" transform="scale(0.015625)"/>
      <path id="DejaVuSans-64" d="M 2906 2969 
L 2906 4863 
L 3481 4863 
L 3481 0 
L 2906 0 
L 2906 525 
Q 2725 213 2448 61 
Q 2172 -91 1784 -91 
Q 1150 -91 751 415 
Q 353 922 353 1747 
Q 353 2572 751 3078 
Q 1150 3584 1784 3584 
Q 2172 3584 2448 3432 
Q 2725 3281 2906 2969 
z
M 947 1747 
Q 947 1113 1208 752 
Q 1469 391 1925 391 
Q 2381 391 2643 752 
Q 2906 1113 2906 1747 
Q 2906 2381 2643 2742 
Q 2381 3103 1925 3103 
Q 1469 3103 1208 2742 
Q 947 2381 947 1747 
z
" transform="scale(0.015625)"/>
     </defs>
     <use xlink:href="#DejaVuSans-4c"/>
     <use xlink:href="#DejaVuSans-61" x="55.712891"/>
     <use xlink:href="#DejaVuSans-62" x="116.992188"/>
     <use xlink:href="#DejaVuSans-65" x="180.46875"/>
     <use xlink:href="#DejaVuSans-6c" x="241.992188"/>
     <use xlink:href="#DejaVuSans-20" x="269.775391"/>
     <use xlink:href="#DejaVuSans-31" x="301.5625"/>
     <use xlink:href="#DejaVuSans-20" x="365.185547"/>
     <use xlink:href="#DejaVuSans-6e" x="396.972656"/>
     <use xlink:href="#DejaVuSans-6f" x="460.351562"/>
     <use xlink:href="#DejaVuSans-72" x="521.533203"/>
     <use xlink:href="#DejaVuSans-6d" x="560.896484"/>
     <use xlink:href="#DejaVuSans-61" x="658.308594"/>
     <use xlink:href="#DejaVuSans-6c" x="719.587891"/>
     <use xlink:href="#DejaVuSans-69" x="747.371094"/>
     <use xlink:href="#DejaVuSans-7a" x="775.154297"/>
     <use xlink:href="#DejaVuSans-65" x="827.644531"/>
     <use xlink:href="#DejaVuSans-64" x="889.167969"/>
    </g>
   </g>
   <g id="legend_1">
    <g id="patch_7">
     <path d="M 309.070312 101.2725 
L 381.8 101.2725 
Q 383.8 101.2725 383.8 99.2725 
L 383.8 41.56 
Q 383.8 39.56 381.8 39.56 
L 309.070312 39.56 
Q 307.070312 39.56 307.070312 41.56 
L 307.070312 99.2725 
Q 307.070312 101.2725 309.070312 101.2725 
z
" style="fill: #ffffff; opacity: 0.8; stroke: #cccccc; stroke-linejoin: miter"/>
    </g>
    <g id="text_16">
     <!-- Trace number -->
     <g transform="translate(311.070312 51.158437)scale(0.1 -0.1)">
      <defs>
       <path id="DejaVuSans-54" d="M -19 4666 
L 3928 4666 
L 3928 4134 
L 2272 4134 
L 2272 0 
L 1638 0 
L 1638 4134 
L -19 4134 
L -19 4666 
z
" transform="scale(0.015625)"/>
      </defs>
      <use xlink:href="#DejaVuSans-54"/>
      <use xlink:href="#DejaVuSans-72" x="46.333984"/>
      <use xlink:href="#DejaVuSans-61" x="87.447266"/>
      <use xlink:href="#DejaVuSans-63" x="148.726562"/>
      <use xlink:href="#DejaVuSans-65" x="203.707031"/>
      <use xlink:href="#DejaVuSans-20" x="265.230469"/>
      <use xlink:href="#DejaVuSans-6e" x="297.017578"/>
      <use xlink:href="#DejaVuSans-75" x="360.396484"/>
      <use xlink:href="#DejaVuSans-6d" x="423.775391"/>
      <use xlink:href="#DejaVuSans-62" x="521.1875"/>
      <use xlink:href="#DejaVuSans-65" x="584.664062"/>
      <use xlink:href="#DejaVuSans-72" x="646.1875"/>
     </g>
    </g>
    <g id="line2d_28">
     <path d="M 325.072656 62.336562 
L 335.072656 62.336562 
L 345.072656 62.336562 
" style="fill: none; stroke: #1f77b4; stroke-width: 1.5; stroke-linecap: square"/>
    </g>
    <g id="text_17">
     <!-- 3 -->
     <g transform="translate(353.072656 65.836562)scale(0.1 -0.1)">
      <use xlink:href="#DejaVuSans-33"/>
     </g>
    </g>
    <g id="line2d_29">
     <path d="M 325.072656 77.014687 
L 335.072656 77.014687 
L 345.072656 77.014687 
" style="fill: none; stroke: #ff7f0e; stroke-width: 1.5; stroke-linecap: square"/>
    </g>
    <g id="text_18">
     <!-- 21 -->
     <g transform="translate(353.072656 80.514687)scale(0.1 -0.1)">
      <use xlink:href="#DejaVuSans-32"/>
      <use xlink:href="#DejaVuSans-31" x="63.623047"/>
     </g>
    </g>
    <g id="line2d_30">
     <path d="M 325.072656 91.692813 
L 335.072656 91.692813 
L 345.072656 91.692813 
" style="fill: none; stroke: #2ca02c; stroke-width: 1.5; stroke-linecap: square"/>
    </g>
    <g id="text_19">
     <!-- 33 -->
     <g transform="translate(353.072656 95.192813)scale(0.1 -0.1)">
      <use xlink:href="#DejaVuSans-33"/>
      <use xlink:href="#DejaVuSans-33" x="63.623047"/>
     </g>
    </g>
   </g>
  </g>
 </g>
 <defs>
  <clipPath id="p0483f6b5be">
   <rect x="54" y="34.56" width="334.8" height="217.44"/>
  </clipPath>
 </defs>
</svg>
