<?xml version="1.0" encoding="utf-8" standalone="no"?>
<!DOCTYPE svg PUBLIC "-//W3C//DTD SVG 1.1//EN"
  "http://www.w3.org/Graphics/SVG/1.1/DTD/svg11.dtd">
<svg xmlns:xlink="http://www.w3.org/1999/xlink" width="432pt" height="288pt" viewBox="0 0 432 288" xmlns="http://www.w3.org/2000/svg" version="1.1">
 <metadata>
  <rdf:RDF xmlns:dc="http://purl.org/dc/elements/1.1/" xmlns:cc="http://creativecommons.org/ns#" xmlns:rdf="http://www.w3.org/1999/02/22-rdf-syntax-ns#">
   <cc:Work>
    <dc:type rdf:resource="http://purl.org/dc/dcmitype/StillImage"/>
    <dc:date>2022-03-30T13:16:46.040066</dc:date>
    <dc:format>image/svg+xml</dc:format>
    <dc:creator>
     <cc:Agent>
      <dc:title>Matplotlib v3.5.1, https://matplotlib.org/</dc:title>
     </cc:Agent>
    </dc:creator>
   </cc:Work>
  </rdf:RDF>
 </metadata>
 <defs>
  <style type="text/css">*{stroke-linejoin: round; stroke-linecap: butt}</style>
 </defs>
 <g id="figure_1">
  <g id="patch_1">
   <path d="M 0 288 
L 432 288 
L 432 0 
L 0 0 
z
" style="fill: #ffffff"/>
  </g>
  <g id="axes_1">
   <g id="patch_2">
    <path d="M 54 252 
L 388.8 252 
L 388.8 34.56 
L 54 34.56 
z
" style="fill: #ffffff"/>
   </g>
   <g id="matplotlib.axis_1">
    <g id="xtick_1">
     <g id="line2d_1">
      <path d="M 69.218182 252 
L 69.218182 34.56 
" clip-path="url(#p7e737f309e)" style="fill: none; stroke: #b0b0b0; stroke-width: 0.8; stroke-linecap: square"/>
     </g>
     <g id="line2d_2">
      <defs>
       <path id="m77b44bbe6a" d="M 0 0 
L 0 3.5 
" style="stroke: #000000; stroke-width: 0.8"/>
      </defs>
      <g>
       <use xlink:href="#m77b44bbe6a" x="69.218182" y="252" style="stroke: #000000; stroke-width: 0.8"/>
      </g>
     </g>
     <g id="text_1">
      <!-- 0 -->
      <g transform="translate(66.036932 266.598437)scale(0.1 -0.1)">
       <defs>
        <path id="DejaVuSans-30" d="M 2034 4250 
Q 1547 4250 1301 3770 
Q 1056 3291 1056 2328 
Q 1056 1369 1301 889 
Q 1547 409 2034 409 
Q 2525 409 2770 889 
Q 3016 1369 3016 2328 
Q 3016 3291 2770 3770 
Q 2525 4250 2034 4250 
z
M 2034 4750 
Q 2819 4750 3233 4129 
Q 3647 3509 3647 2328 
Q 3647 1150 3233 529 
Q 2819 -91 2034 -91 
Q 1250 -91 836 529 
Q 422 1150 422 2328 
Q 422 3509 836 4129 
Q 1250 4750 2034 4750 
z
" transform="scale(0.015625)"/>
       </defs>
       <use xlink:href="#DejaVuSans-30"/>
      </g>
     </g>
    </g>
    <g id="xtick_2">
     <g id="line2d_3">
      <path d="M 128.780537 252 
L 128.780537 34.56 
" clip-path="url(#p7e737f309e)" style="fill: none; stroke: #b0b0b0; stroke-width: 0.8; stroke-linecap: square"/>
     </g>
     <g id="line2d_4">
      <g>
       <use xlink:href="#m77b44bbe6a" x="128.780537" y="252" style="stroke: #000000; stroke-width: 0.8"/>
      </g>
     </g>
     <g id="text_2">
      <!-- 100 -->
      <g transform="translate(119.236787 266.598437)scale(0.1 -0.1)">
       <defs>
        <path id="DejaVuSans-31" d="M 794 531 
L 1825 531 
L 1825 4091 
L 703 3866 
L 703 4441 
L 1819 4666 
L 2450 4666 
L 2450 531 
L 3481 531 
L 3481 0 
L 794 0 
L 794 531 
z
" transform="scale(0.015625)"/>
       </defs>
       <use xlink:href="#DejaVuSans-31"/>
       <use xlink:href="#DejaVuSans-30" x="63.623047"/>
       <use xlink:href="#DejaVuSans-30" x="127.246094"/>
      </g>
     </g>
    </g>
    <g id="xtick_3">
     <g id="line2d_5">
      <path d="M 188.342893 252 
L 188.342893 34.56 
" clip-path="url(#p7e737f309e)" style="fill: none; stroke: #b0b0b0; stroke-width: 0.8; stroke-linecap: square"/>
     </g>
     <g id="line2d_6">
      <g>
       <use xlink:href="#m77b44bbe6a" x="188.342893" y="252" style="stroke: #000000; stroke-width: 0.8"/>
      </g>
     </g>
     <g id="text_3">
      <!-- 200 -->
      <g transform="translate(178.799143 266.598437)scale(0.1 -0.1)">
       <defs>
        <path id="DejaVuSans-32" d="M 1228 531 
L 3431 531 
L 3431 0 
L 469 0 
L 469 531 
Q 828 903 1448 1529 
Q 2069 2156 2228 2338 
Q 2531 2678 2651 2914 
Q 2772 3150 2772 3378 
Q 2772 3750 2511 3984 
Q 2250 4219 1831 4219 
Q 1534 4219 1204 4116 
Q 875 4013 500 3803 
L 500 4441 
Q 881 4594 1212 4672 
Q 1544 4750 1819 4750 
Q 2544 4750 2975 4387 
Q 3406 4025 3406 3419 
Q 3406 3131 3298 2873 
Q 3191 2616 2906 2266 
Q 2828 2175 2409 1742 
Q 1991 1309 1228 531 
z
" transform="scale(0.015625)"/>
       </defs>
       <use xlink:href="#DejaVuSans-32"/>
       <use xlink:href="#DejaVuSans-30" x="63.623047"/>
       <use xlink:href="#DejaVuSans-30" x="127.246094"/>
      </g>
     </g>
    </g>
    <g id="xtick_4">
     <g id="line2d_7">
      <path d="M 247.905248 252 
L 247.905248 34.56 
" clip-path="url(#p7e737f309e)" style="fill: none; stroke: #b0b0b0; stroke-width: 0.8; stroke-linecap: square"/>
     </g>
     <g id="line2d_8">
      <g>
       <use xlink:href="#m77b44bbe6a" x="247.905248" y="252" style="stroke: #000000; stroke-width: 0.8"/>
      </g>
     </g>
     <g id="text_4">
      <!-- 300 -->
      <g transform="translate(238.361498 266.598437)scale(0.1 -0.1)">
       <defs>
        <path id="DejaVuSans-33" d="M 2597 2516 
Q 3050 2419 3304 2112 
Q 3559 1806 3559 1356 
Q 3559 666 3084 287 
Q 2609 -91 1734 -91 
Q 1441 -91 1130 -33 
Q 819 25 488 141 
L 488 750 
Q 750 597 1062 519 
Q 1375 441 1716 441 
Q 2309 441 2620 675 
Q 2931 909 2931 1356 
Q 2931 1769 2642 2001 
Q 2353 2234 1838 2234 
L 1294 2234 
L 1294 2753 
L 1863 2753 
Q 2328 2753 2575 2939 
Q 2822 3125 2822 3475 
Q 2822 3834 2567 4026 
Q 2313 4219 1838 4219 
Q 1578 4219 1281 4162 
Q 984 4106 628 3988 
L 628 4550 
Q 988 4650 1302 4700 
Q 1616 4750 1894 4750 
Q 2613 4750 3031 4423 
Q 3450 4097 3450 3541 
Q 3450 3153 3228 2886 
Q 3006 2619 2597 2516 
z
" transform="scale(0.015625)"/>
       </defs>
       <use xlink:href="#DejaVuSans-33"/>
       <use xlink:href="#DejaVuSans-30" x="63.623047"/>
       <use xlink:href="#DejaVuSans-30" x="127.246094"/>
      </g>
     </g>
    </g>
    <g id="xtick_5">
     <g id="line2d_9">
      <path d="M 307.467604 252 
L 307.467604 34.56 
" clip-path="url(#p7e737f309e)" style="fill: none; stroke: #b0b0b0; stroke-width: 0.8; stroke-linecap: square"/>
     </g>
     <g id="line2d_10">
      <g>
       <use xlink:href="#m77b44bbe6a" x="307.467604" y="252" style="stroke: #000000; stroke-width: 0.8"/>
      </g>
     </g>
     <g id="text_5">
      <!-- 400 -->
      <g transform="translate(297.923854 266.598437)scale(0.1 -0.1)">
       <defs>
        <path id="DejaVuSans-34" d="M 2419 4116 
L 825 1625 
L 2419 1625 
L 2419 4116 
z
M 2253 4666 
L 3047 4666 
L 3047 1625 
L 3713 1625 
L 3713 1100 
L 3047 1100 
L 3047 0 
L 2419 0 
L 2419 1100 
L 313 1100 
L 313 1709 
L 2253 4666 
z
" transform="scale(0.015625)"/>
       </defs>
       <use xlink:href="#DejaVuSans-34"/>
       <use xlink:href="#DejaVuSans-30" x="63.623047"/>
       <use xlink:href="#DejaVuSans-30" x="127.246094"/>
      </g>
     </g>
    </g>
    <g id="xtick_6">
     <g id="line2d_11">
      <path d="M 367.029959 252 
L 367.029959 34.56 
" clip-path="url(#p7e737f309e)" style="fill: none; stroke: #b0b0b0; stroke-width: 0.8; stroke-linecap: square"/>
     </g>
     <g id="line2d_12">
      <g>
       <use xlink:href="#m77b44bbe6a" x="367.029959" y="252" style="stroke: #000000; stroke-width: 0.8"/>
      </g>
     </g>
     <g id="text_6">
      <!-- 500 -->
      <g transform="translate(357.486209 266.598437)scale(0.1 -0.1)">
       <defs>
        <path id="DejaVuSans-35" d="M 691 4666 
L 3169 4666 
L 3169 4134 
L 1269 4134 
L 1269 2991 
Q 1406 3038 1543 3061 
Q 1681 3084 1819 3084 
Q 2600 3084 3056 2656 
Q 3513 2228 3513 1497 
Q 3513 744 3044 326 
Q 2575 -91 1722 -91 
Q 1428 -91 1123 -41 
Q 819 9 494 109 
L 494 744 
Q 775 591 1075 516 
Q 1375 441 1709 441 
Q 2250 441 2565 725 
Q 2881 1009 2881 1497 
Q 2881 1984 2565 2268 
Q 2250 2553 1709 2553 
Q 1456 2553 1204 2497 
Q 953 2441 691 2322 
L 691 4666 
z
" transform="scale(0.015625)"/>
       </defs>
       <use xlink:href="#DejaVuSans-35"/>
       <use xlink:href="#DejaVuSans-30" x="63.623047"/>
       <use xlink:href="#DejaVuSans-30" x="127.246094"/>
      </g>
     </g>
    </g>
    <g id="text_7">
     <!-- bin -->
     <g transform="translate(213.667969 280.276563)scale(0.1 -0.1)">
      <defs>
       <path id="DejaVuSans-62" d="M 3116 1747 
Q 3116 2381 2855 2742 
Q 2594 3103 2138 3103 
Q 1681 3103 1420 2742 
Q 1159 2381 1159 1747 
Q 1159 1113 1420 752 
Q 1681 391 2138 391 
Q 2594 391 2855 752 
Q 3116 1113 3116 1747 
z
M 1159 2969 
Q 1341 3281 1617 3432 
Q 1894 3584 2278 3584 
Q 2916 3584 3314 3078 
Q 3713 2572 3713 1747 
Q 3713 922 3314 415 
Q 2916 -91 2278 -91 
Q 1894 -91 1617 61 
Q 1341 213 1159 525 
L 1159 0 
L 581 0 
L 581 4863 
L 1159 4863 
L 1159 2969 
z
" transform="scale(0.015625)"/>
       <path id="DejaVuSans-69" d="M 603 3500 
L 1178 3500 
L 1178 0 
L 603 0 
L 603 3500 
z
M 603 4863 
L 1178 4863 
L 1178 4134 
L 603 4134 
L 603 4863 
z
" transform="scale(0.015625)"/>
       <path id="DejaVuSans-6e" d="M 3513 2113 
L 3513 0 
L 2938 0 
L 2938 2094 
Q 2938 2591 2744 2837 
Q 2550 3084 2163 3084 
Q 1697 3084 1428 2787 
Q 1159 2491 1159 1978 
L 1159 0 
L 581 0 
L 581 3500 
L 1159 3500 
L 1159 2956 
Q 1366 3272 1645 3428 
Q 1925 3584 2291 3584 
Q 2894 3584 3203 3211 
Q 3513 2838 3513 2113 
z
" transform="scale(0.015625)"/>
      </defs>
      <use xlink:href="#DejaVuSans-62"/>
      <use xlink:href="#DejaVuSans-69" x="63.476562"/>
      <use xlink:href="#DejaVuSans-6e" x="91.259766"/>
     </g>
    </g>
   </g>
   <g id="matplotlib.axis_2">
    <g id="ytick_1">
     <g id="line2d_13">
      <path d="M 54 252 
L 388.8 252 
" clip-path="url(#p7e737f309e)" style="fill: none; stroke: #b0b0b0; stroke-width: 0.8; stroke-linecap: square"/>
     </g>
     <g id="line2d_14">
      <defs>
       <path id="mc3d950d4a2" d="M 0 0 
L -3.5 0 
" style="stroke: #000000; stroke-width: 0.8"/>
      </defs>
      <g>
       <use xlink:href="#mc3d950d4a2" x="54" y="252" style="stroke: #000000; stroke-width: 0.8"/>
      </g>
     </g>
     <g id="text_8">
      <!-- 0.0 -->
      <g transform="translate(31.096875 255.799219)scale(0.1 -0.1)">
       <defs>
        <path id="DejaVuSans-2e" d="M 684 794 
L 1344 794 
L 1344 0 
L 684 0 
L 684 794 
z
" transform="scale(0.015625)"/>
       </defs>
       <use xlink:href="#DejaVuSans-30"/>
       <use xlink:href="#DejaVuSans-2e" x="63.623047"/>
       <use xlink:href="#DejaVuSans-30" x="95.410156"/>
      </g>
     </g>
    </g>
    <g id="ytick_2">
     <g id="line2d_15">
      <path d="M 54 208.512 
L 388.8 208.512 
" clip-path="url(#p7e737f309e)" style="fill: none; stroke: #b0b0b0; stroke-width: 0.8; stroke-linecap: square"/>
     </g>
     <g id="line2d_16">
      <g>
       <use xlink:href="#mc3d950d4a2" x="54" y="208.512" style="stroke: #000000; stroke-width: 0.8"/>
      </g>
     </g>
     <g id="text_9">
      <!-- 0.2 -->
      <g transform="translate(31.096875 212.311219)scale(0.1 -0.1)">
       <use xlink:href="#DejaVuSans-30"/>
       <use xlink:href="#DejaVuSans-2e" x="63.623047"/>
       <use xlink:href="#DejaVuSans-32" x="95.410156"/>
      </g>
     </g>
    </g>
    <g id="ytick_3">
     <g id="line2d_17">
      <path d="M 54 165.024 
L 388.8 165.024 
" clip-path="url(#p7e737f309e)" style="fill: none; stroke: #b0b0b0; stroke-width: 0.8; stroke-linecap: square"/>
     </g>
     <g id="line2d_18">
      <g>
       <use xlink:href="#mc3d950d4a2" x="54" y="165.024" style="stroke: #000000; stroke-width: 0.8"/>
      </g>
     </g>
     <g id="text_10">
      <!-- 0.4 -->
      <g transform="translate(31.096875 168.823219)scale(0.1 -0.1)">
       <use xlink:href="#DejaVuSans-30"/>
       <use xlink:href="#DejaVuSans-2e" x="63.623047"/>
       <use xlink:href="#DejaVuSans-34" x="95.410156"/>
      </g>
     </g>
    </g>
    <g id="ytick_4">
     <g id="line2d_19">
      <path d="M 54 121.536 
L 388.8 121.536 
" clip-path="url(#p7e737f309e)" style="fill: none; stroke: #b0b0b0; stroke-width: 0.8; stroke-linecap: square"/>
     </g>
     <g id="line2d_20">
      <g>
       <use xlink:href="#mc3d950d4a2" x="54" y="121.536" style="stroke: #000000; stroke-width: 0.8"/>
      </g>
     </g>
     <g id="text_11">
      <!-- 0.6 -->
      <g transform="translate(31.096875 125.335219)scale(0.1 -0.1)">
       <defs>
        <path id="DejaVuSans-36" d="M 2113 2584 
Q 1688 2584 1439 2293 
Q 1191 2003 1191 1497 
Q 1191 994 1439 701 
Q 1688 409 2113 409 
Q 2538 409 2786 701 
Q 3034 994 3034 1497 
Q 3034 2003 2786 2293 
Q 2538 2584 2113 2584 
z
M 3366 4563 
L 3366 3988 
Q 3128 4100 2886 4159 
Q 2644 4219 2406 4219 
Q 1781 4219 1451 3797 
Q 1122 3375 1075 2522 
Q 1259 2794 1537 2939 
Q 1816 3084 2150 3084 
Q 2853 3084 3261 2657 
Q 3669 2231 3669 1497 
Q 3669 778 3244 343 
Q 2819 -91 2113 -91 
Q 1303 -91 875 529 
Q 447 1150 447 2328 
Q 447 3434 972 4092 
Q 1497 4750 2381 4750 
Q 2619 4750 2861 4703 
Q 3103 4656 3366 4563 
z
" transform="scale(0.015625)"/>
       </defs>
       <use xlink:href="#DejaVuSans-30"/>
       <use xlink:href="#DejaVuSans-2e" x="63.623047"/>
       <use xlink:href="#DejaVuSans-36" x="95.410156"/>
      </g>
     </g>
    </g>
    <g id="ytick_5">
     <g id="line2d_21">
      <path d="M 54 78.048 
L 388.8 78.048 
" clip-path="url(#p7e737f309e)" style="fill: none; stroke: #b0b0b0; stroke-width: 0.8; stroke-linecap: square"/>
     </g>
     <g id="line2d_22">
      <g>
       <use xlink:href="#mc3d950d4a2" x="54" y="78.048" style="stroke: #000000; stroke-width: 0.8"/>
      </g>
     </g>
     <g id="text_12">
      <!-- 0.8 -->
      <g transform="translate(31.096875 81.847219)scale(0.1 -0.1)">
       <defs>
        <path id="DejaVuSans-38" d="M 2034 2216 
Q 1584 2216 1326 1975 
Q 1069 1734 1069 1313 
Q 1069 891 1326 650 
Q 1584 409 2034 409 
Q 2484 409 2743 651 
Q 3003 894 3003 1313 
Q 3003 1734 2745 1975 
Q 2488 2216 2034 2216 
z
M 1403 2484 
Q 997 2584 770 2862 
Q 544 3141 544 3541 
Q 544 4100 942 4425 
Q 1341 4750 2034 4750 
Q 2731 4750 3128 4425 
Q 3525 4100 3525 3541 
Q 3525 3141 3298 2862 
Q 3072 2584 2669 2484 
Q 3125 2378 3379 2068 
Q 3634 1759 3634 1313 
Q 3634 634 3220 271 
Q 2806 -91 2034 -91 
Q 1263 -91 848 271 
Q 434 634 434 1313 
Q 434 1759 690 2068 
Q 947 2378 1403 2484 
z
M 1172 3481 
Q 1172 3119 1398 2916 
Q 1625 2713 2034 2713 
Q 2441 2713 2670 2916 
Q 2900 3119 2900 3481 
Q 2900 3844 2670 4047 
Q 2441 4250 2034 4250 
Q 1625 4250 1398 4047 
Q 1172 3844 1172 3481 
z
" transform="scale(0.015625)"/>
       </defs>
       <use xlink:href="#DejaVuSans-30"/>
       <use xlink:href="#DejaVuSans-2e" x="63.623047"/>
       <use xlink:href="#DejaVuSans-38" x="95.410156"/>
      </g>
     </g>
    </g>
    <g id="ytick_6">
     <g id="line2d_23">
      <path d="M 54 34.56 
L 388.8 34.56 
" clip-path="url(#p7e737f309e)" style="fill: none; stroke: #b0b0b0; stroke-width: 0.8; stroke-linecap: square"/>
     </g>
     <g id="line2d_24">
      <g>
       <use xlink:href="#mc3d950d4a2" x="54" y="34.56" style="stroke: #000000; stroke-width: 0.8"/>
      </g>
     </g>
     <g id="text_13">
      <!-- 1.0 -->
      <g transform="translate(31.096875 38.359219)scale(0.1 -0.1)">
       <use xlink:href="#DejaVuSans-31"/>
       <use xlink:href="#DejaVuSans-2e" x="63.623047"/>
       <use xlink:href="#DejaVuSans-30" x="95.410156"/>
      </g>
     </g>
    </g>
    <g id="text_14">
     <!-- count -->
     <g transform="translate(25.017187 157.38625)rotate(-90)scale(0.1 -0.1)">
      <defs>
       <path id="DejaVuSans-63" d="M 3122 3366 
L 3122 2828 
Q 2878 2963 2633 3030 
Q 2388 3097 2138 3097 
Q 1578 3097 1268 2742 
Q 959 2388 959 1747 
Q 959 1106 1268 751 
Q 1578 397 2138 397 
Q 2388 397 2633 464 
Q 2878 531 3122 666 
L 3122 134 
Q 2881 22 2623 -34 
Q 2366 -91 2075 -91 
Q 1284 -91 818 406 
Q 353 903 353 1747 
Q 353 2603 823 3093 
Q 1294 3584 2113 3584 
Q 2378 3584 2631 3529 
Q 2884 3475 3122 3366 
z
" transform="scale(0.015625)"/>
       <path id="DejaVuSans-6f" d="M 1959 3097 
Q 1497 3097 1228 2736 
Q 959 2375 959 1747 
Q 959 1119 1226 758 
Q 1494 397 1959 397 
Q 2419 397 2687 759 
Q 2956 1122 2956 1747 
Q 2956 2369 2687 2733 
Q 2419 3097 1959 3097 
z
M 1959 3584 
Q 2709 3584 3137 3096 
Q 3566 2609 3566 1747 
Q 3566 888 3137 398 
Q 2709 -91 1959 -91 
Q 1206 -91 779 398 
Q 353 888 353 1747 
Q 353 2609 779 3096 
Q 1206 3584 1959 3584 
z
" transform="scale(0.015625)"/>
       <path id="DejaVuSans-75" d="M 544 1381 
L 544 3500 
L 1119 3500 
L 1119 1403 
Q 1119 906 1312 657 
Q 1506 409 1894 409 
Q 2359 409 2629 706 
Q 2900 1003 2900 1516 
L 2900 3500 
L 3475 3500 
L 3475 0 
L 2900 0 
L 2900 538 
Q 2691 219 2414 64 
Q 2138 -91 1772 -91 
Q 1169 -91 856 284 
Q 544 659 544 1381 
z
M 1991 3584 
L 1991 3584 
z
" transform="scale(0.015625)"/>
       <path id="DejaVuSans-74" d="M 1172 4494 
L 1172 3500 
L 2356 3500 
L 2356 3053 
L 1172 3053 
L 1172 1153 
Q 1172 725 1289 603 
Q 1406 481 1766 481 
L 2356 481 
L 2356 0 
L 1766 0 
Q 1100 0 847 248 
Q 594 497 594 1153 
L 594 3053 
L 172 3053 
L 172 3500 
L 594 3500 
L 594 4494 
L 1172 4494 
z
" transform="scale(0.015625)"/>
      </defs>
      <use xlink:href="#DejaVuSans-63"/>
      <use xlink:href="#DejaVuSans-6f" x="54.980469"/>
      <use xlink:href="#DejaVuSans-75" x="116.162109"/>
      <use xlink:href="#DejaVuSans-6e" x="179.541016"/>
      <use xlink:href="#DejaVuSans-74" x="242.919922"/>
     </g>
    </g>
   </g>
   <g id="line2d_25">
    <path d="M 69.218182 166.914783 
L 69.813805 207.881739 
L 70.409429 198.427826 
L 71.005052 226.789565 
L 71.600676 201.57913 
L 72.1963 207.881739 
L 73.387547 163.763478 
L 73.98317 217.335652 
L 74.578794 141.704348 
L 75.174417 204.730435 
L 76.365664 166.914783 
L 76.961288 201.57913 
L 77.556912 173.217391 
L 78.152535 192.125217 
L 78.748159 185.822609 
L 79.343782 188.973913 
L 79.939406 185.822609 
L 81.130653 204.730435 
L 81.726276 188.973913 
L 82.3219 166.914783 
L 82.917524 207.881739 
L 83.513147 214.184348 
L 84.108771 173.217391 
L 84.704394 192.125217 
L 85.300018 198.427826 
L 85.895641 185.822609 
L 86.491265 135.401739 
L 87.086888 226.789565 
L 87.682512 217.335652 
L 88.278136 179.52 
L 88.873759 214.184348 
L 89.469383 229.94087 
L 90.065006 195.276522 
L 90.66063 185.822609 
L 91.256253 188.973913 
L 91.851877 207.881739 
L 92.4475 201.57913 
L 93.043124 182.671304 
L 93.638748 192.125217 
L 94.234371 195.276522 
L 94.829995 233.092174 
L 95.425618 223.638261 
L 96.021242 211.033043 
L 96.616865 170.066087 
L 97.212489 195.276522 
L 97.808112 163.763478 
L 98.403736 201.57913 
L 98.99936 157.46087 
L 99.594983 192.125217 
L 100.190607 154.309565 
L 100.78623 214.184348 
L 101.381854 179.52 
L 101.977477 214.184348 
L 102.573101 223.638261 
L 103.168724 188.973913 
L 103.764348 170.066087 
L 104.359972 160.612174 
L 104.955595 226.789565 
L 105.551219 188.973913 
L 106.146842 195.276522 
L 106.742466 188.973913 
L 107.338089 198.427826 
L 107.933713 182.671304 
L 108.529336 173.217391 
L 109.12496 170.066087 
L 109.720584 176.368696 
L 110.316207 160.612174 
L 110.911831 198.427826 
L 111.507454 170.066087 
L 112.103078 132.250435 
L 112.698701 201.57913 
L 113.294325 201.57913 
L 113.889948 204.730435 
L 114.485572 182.671304 
L 115.081196 176.368696 
L 115.676819 195.276522 
L 116.272443 192.125217 
L 116.868066 163.763478 
L 117.46369 157.46087 
L 118.059313 229.94087 
L 119.25056 217.335652 
L 119.846184 229.94087 
L 120.441808 229.94087 
L 121.037431 173.217391 
L 121.633055 192.125217 
L 122.228678 192.125217 
L 122.824302 198.427826 
L 123.419925 176.368696 
L 124.015549 198.427826 
L 124.611172 138.553043 
L 125.206796 239.394783 
L 125.802419 192.125217 
L 126.398043 201.57913 
L 126.993667 157.46087 
L 127.58929 157.46087 
L 128.184914 198.427826 
L 128.780537 198.427826 
L 129.376161 182.671304 
L 129.971784 151.158261 
L 130.567408 201.57913 
L 131.163031 198.427826 
L 131.758655 217.335652 
L 132.354279 170.066087 
L 132.949902 154.309565 
L 133.545526 204.730435 
L 134.141149 207.881739 
L 134.736773 204.730435 
L 135.332396 179.52 
L 135.92802 188.973913 
L 136.523643 154.309565 
L 137.119267 207.881739 
L 137.714891 188.973913 
L 138.310514 141.704348 
L 138.906138 195.276522 
L 140.097385 176.368696 
L 140.693008 236.243478 
L 141.288632 201.57913 
L 141.884255 179.52 
L 142.479879 229.94087 
L 143.075503 195.276522 
L 143.671126 211.033043 
L 144.26675 173.217391 
L 144.862373 204.730435 
L 145.457997 148.006957 
L 146.05362 176.368696 
L 146.649244 129.09913 
L 147.244867 163.763478 
L 147.840491 113.342609 
L 148.436115 125.947826 
L 149.031738 56.61913 
L 149.627362 78.678261 
L 150.222985 69.224348 
L 150.818609 75.526957 
L 151.414232 34.56 
L 152.009856 40.862609 
L 152.605479 100.737391 
L 153.201103 81.829565 
L 153.796727 135.401739 
L 154.39235 148.006957 
L 156.179221 166.914783 
L 156.774844 144.855652 
L 157.370468 154.309565 
L 157.966091 220.486957 
L 158.561715 182.671304 
L 159.157339 163.763478 
L 159.752962 198.427826 
L 160.348586 144.855652 
L 160.944209 141.704348 
L 161.539833 198.427826 
L 162.135456 148.006957 
L 162.73108 192.125217 
L 163.326703 198.427826 
L 163.922327 163.763478 
L 164.517951 182.671304 
L 165.113574 176.368696 
L 165.709198 166.914783 
L 166.304821 245.697391 
L 166.900445 192.125217 
L 167.496068 207.881739 
L 168.091692 214.184348 
L 168.687315 173.217391 
L 169.282939 207.881739 
L 169.878563 160.612174 
L 170.474186 157.46087 
L 171.06981 182.671304 
L 171.665433 160.612174 
L 172.85668 223.638261 
L 173.452304 173.217391 
L 174.047927 173.217391 
L 174.643551 182.671304 
L 175.239175 198.427826 
L 175.834798 198.427826 
L 176.430422 233.092174 
L 177.026045 138.553043 
L 177.621669 198.427826 
L 178.217292 160.612174 
L 179.408539 201.57913 
L 180.004163 188.973913 
L 180.599787 192.125217 
L 181.19541 182.671304 
L 181.791034 176.368696 
L 182.386657 198.427826 
L 182.982281 188.973913 
L 183.577904 173.217391 
L 184.173528 170.066087 
L 184.769151 185.822609 
L 185.364775 204.730435 
L 185.960399 179.52 
L 186.556022 217.335652 
L 187.151646 166.914783 
L 187.747269 198.427826 
L 188.342893 176.368696 
L 188.938516 195.276522 
L 189.53414 188.973913 
L 190.129763 173.217391 
L 190.725387 198.427826 
L 191.32101 173.217391 
L 191.916634 173.217391 
L 192.512258 188.973913 
L 193.107881 188.973913 
L 193.703505 192.125217 
L 194.299128 198.427826 
L 194.894752 188.973913 
L 195.490375 198.427826 
L 196.085999 198.427826 
L 196.681622 201.57913 
L 197.277246 160.612174 
L 197.87287 204.730435 
L 198.468493 204.730435 
L 199.064117 157.46087 
L 199.65974 195.276522 
L 200.255364 166.914783 
L 200.850987 160.612174 
L 201.446611 188.973913 
L 202.042234 226.789565 
L 202.637858 157.46087 
L 203.233482 217.335652 
L 203.829105 220.486957 
L 204.424729 135.401739 
L 205.020352 204.730435 
L 205.615976 154.309565 
L 206.211599 176.368696 
L 206.807223 141.704348 
L 207.402846 242.546087 
L 207.99847 214.184348 
L 209.189717 176.368696 
L 209.785341 144.855652 
L 210.380964 141.704348 
L 210.976588 195.276522 
L 211.572211 185.822609 
L 212.167835 217.335652 
L 212.763458 239.394783 
L 213.359082 214.184348 
L 213.954706 166.914783 
L 214.550329 179.52 
L 215.145953 220.486957 
L 215.741576 148.006957 
L 216.3372 207.881739 
L 216.932823 188.973913 
L 217.528447 201.57913 
L 218.12407 185.822609 
L 218.719694 236.243478 
L 219.315318 151.158261 
L 219.910941 223.638261 
L 220.506565 188.973913 
L 221.102188 201.57913 
L 221.697812 176.368696 
L 222.293435 214.184348 
L 222.889059 157.46087 
L 223.484682 182.671304 
L 224.080306 141.704348 
L 224.67593 154.309565 
L 225.271553 160.612174 
L 225.867177 157.46087 
L 226.4628 185.822609 
L 227.654047 185.822609 
L 228.249671 166.914783 
L 228.845294 188.973913 
L 229.440918 201.57913 
L 230.036542 182.671304 
L 230.632165 135.401739 
L 231.227789 195.276522 
L 231.823412 204.730435 
L 232.419036 138.553043 
L 233.014659 195.276522 
L 233.610283 207.881739 
L 234.205906 163.763478 
L 234.80153 201.57913 
L 235.397154 201.57913 
L 235.992777 160.612174 
L 236.588401 195.276522 
L 237.184024 188.973913 
L 237.779648 214.184348 
L 238.375271 233.092174 
L 238.970895 179.52 
L 239.566518 188.973913 
L 240.162142 148.006957 
L 240.757766 173.217391 
L 241.353389 179.52 
L 241.949013 176.368696 
L 242.544636 188.973913 
L 243.14026 176.368696 
L 243.735883 188.973913 
L 244.331507 198.427826 
L 244.92713 198.427826 
L 245.522754 204.730435 
L 246.118378 192.125217 
L 246.714001 223.638261 
L 247.905248 170.066087 
L 248.500872 207.881739 
L 249.096495 188.973913 
L 249.692119 144.855652 
L 250.287742 188.973913 
L 250.883366 148.006957 
L 251.47899 211.033043 
L 252.670237 166.914783 
L 253.861484 204.730435 
L 254.457107 236.243478 
L 255.052731 176.368696 
L 255.648354 176.368696 
L 256.243978 217.335652 
L 256.839601 201.57913 
L 257.435225 182.671304 
L 258.030849 188.973913 
L 258.626472 170.066087 
L 259.222096 233.092174 
L 259.817719 116.493913 
L 260.413343 201.57913 
L 261.008966 182.671304 
L 261.60459 170.066087 
L 262.200213 160.612174 
L 263.391461 220.486957 
L 263.987084 157.46087 
L 264.582708 195.276522 
L 265.178331 211.033043 
L 265.773955 173.217391 
L 266.369578 173.217391 
L 266.965202 214.184348 
L 267.560825 188.973913 
L 268.156449 154.309565 
L 268.752073 207.881739 
L 269.347696 211.033043 
L 269.94332 204.730435 
L 270.538943 135.401739 
L 271.73019 217.335652 
L 272.325814 188.973913 
L 272.921437 201.57913 
L 273.517061 182.671304 
L 274.112685 154.309565 
L 274.708308 166.914783 
L 275.303932 185.822609 
L 275.899555 185.822609 
L 276.495179 135.401739 
L 277.090802 211.033043 
L 277.686426 233.092174 
L 278.282049 151.158261 
L 278.877673 223.638261 
L 279.473297 192.125217 
L 280.06892 195.276522 
L 280.664544 144.855652 
L 281.260167 182.671304 
L 281.855791 173.217391 
L 282.451414 179.52 
L 283.047038 157.46087 
L 283.642661 229.94087 
L 284.238285 185.822609 
L 284.833909 166.914783 
L 285.429532 185.822609 
L 286.025156 217.335652 
L 286.620779 204.730435 
L 287.216403 252 
L 287.812026 220.486957 
L 288.40765 217.335652 
L 289.003273 176.368696 
L 289.598897 160.612174 
L 290.194521 220.486957 
L 290.790144 173.217391 
L 291.385768 195.276522 
L 291.981391 135.401739 
L 292.577015 188.973913 
L 293.172638 204.730435 
L 293.768262 166.914783 
L 294.363885 176.368696 
L 294.959509 179.52 
L 295.555133 198.427826 
L 296.150756 182.671304 
L 296.74638 154.309565 
L 297.342003 173.217391 
L 297.937627 198.427826 
L 298.53325 163.763478 
L 299.128874 204.730435 
L 299.724497 185.822609 
L 300.320121 192.125217 
L 300.915745 223.638261 
L 301.511368 195.276522 
L 302.106992 223.638261 
L 302.702615 214.184348 
L 303.298239 185.822609 
L 303.893862 173.217391 
L 304.489486 223.638261 
L 305.085109 192.125217 
L 305.680733 144.855652 
L 306.276357 198.427826 
L 306.87198 198.427826 
L 307.467604 141.704348 
L 308.658851 176.368696 
L 309.254474 154.309565 
L 309.850098 170.066087 
L 310.445721 157.46087 
L 311.041345 173.217391 
L 311.636969 201.57913 
L 312.232592 192.125217 
L 312.828216 207.881739 
L 313.423839 188.973913 
L 314.615086 188.973913 
L 315.21071 211.033043 
L 315.806333 179.52 
L 316.401957 157.46087 
L 316.997581 198.427826 
L 317.593204 129.09913 
L 318.188828 182.671304 
L 318.784451 198.427826 
L 319.380075 144.855652 
L 319.975698 185.822609 
L 320.571322 182.671304 
L 321.166945 211.033043 
L 321.762569 204.730435 
L 322.358192 179.52 
L 322.953816 204.730435 
L 324.145063 151.158261 
L 324.740687 163.763478 
L 325.33631 195.276522 
L 325.931934 217.335652 
L 326.527557 204.730435 
L 327.123181 220.486957 
L 327.718804 160.612174 
L 328.314428 188.973913 
L 328.910052 211.033043 
L 329.505675 157.46087 
L 330.101299 132.250435 
L 330.696922 195.276522 
L 331.292546 151.158261 
L 331.888169 201.57913 
L 332.483793 217.335652 
L 333.079416 160.612174 
L 333.67504 198.427826 
L 334.866287 151.158261 
L 335.461911 179.52 
L 336.057534 176.368696 
L 336.653158 163.763478 
L 337.844405 204.730435 
L 338.440028 201.57913 
L 339.035652 185.822609 
L 339.631276 163.763478 
L 340.226899 198.427826 
L 340.822523 166.914783 
L 341.418146 204.730435 
L 342.609393 138.553043 
L 343.80064 195.276522 
L 344.396264 179.52 
L 344.991888 116.493913 
L 345.587511 166.914783 
L 346.183135 166.914783 
L 346.778758 170.066087 
L 347.374382 204.730435 
L 347.970005 160.612174 
L 348.565629 204.730435 
L 349.161252 201.57913 
L 349.756876 188.973913 
L 350.3525 198.427826 
L 350.948123 188.973913 
L 351.543747 185.822609 
L 352.13937 204.730435 
L 352.734994 217.335652 
L 353.330617 173.217391 
L 353.926241 226.789565 
L 354.521864 144.855652 
L 355.713112 214.184348 
L 356.308735 198.427826 
L 356.904359 179.52 
L 357.499982 204.730435 
L 358.095606 176.368696 
L 358.691229 214.184348 
L 359.286853 185.822609 
L 359.882476 163.763478 
L 360.4781 217.335652 
L 361.073724 192.125217 
L 361.669347 182.671304 
L 362.264971 198.427826 
L 362.860594 141.704348 
L 363.456218 198.427826 
L 364.051841 198.427826 
L 364.647465 160.612174 
L 365.243088 154.309565 
L 365.838712 185.822609 
L 366.434336 207.881739 
L 367.029959 176.368696 
L 367.625583 166.914783 
L 368.221206 207.881739 
L 369.412453 141.704348 
L 370.008077 185.822609 
L 370.6037 163.763478 
L 371.199324 154.309565 
L 371.794948 182.671304 
L 372.390571 188.973913 
L 372.986195 182.671304 
L 373.581818 192.125217 
L 373.581818 192.125217 
" clip-path="url(#p7e737f309e)" style="fill: none; stroke: #1f77b4; stroke-width: 1.5; stroke-linecap: square"/>
   </g>
   <g id="line2d_26">
    <path d="M 69.218182 231.773023 
L 69.813805 211.546047 
L 70.409429 237.46186 
L 71.005052 237.46186 
L 71.600676 229.244651 
L 72.1963 227.980465 
L 72.791923 233.037209 
L 73.387547 246.943256 
L 73.98317 233.669302 
L 74.578794 231.14093 
L 75.174417 226.716279 
L 75.770041 239.35814 
L 76.365664 231.14093 
L 76.961288 217.234884 
L 77.556912 221.659535 
L 78.152535 229.876744 
L 78.748159 233.669302 
L 79.343782 243.782791 
L 79.939406 235.565581 
L 80.535029 246.943256 
L 81.130653 222.291628 
L 81.726276 231.773023 
L 82.3219 236.829767 
L 82.917524 221.027442 
L 83.513147 231.14093 
L 84.108771 248.207442 
L 84.704394 237.46186 
L 85.300018 236.197674 
L 85.895641 227.348372 
L 86.491265 236.197674 
L 87.086888 236.829767 
L 87.682512 226.716279 
L 88.278136 229.876744 
L 88.873759 226.084186 
L 89.469383 235.565581 
L 90.065006 231.773023 
L 90.66063 230.508837 
L 91.256253 233.037209 
L 91.851877 233.037209 
L 92.4475 229.244651 
L 93.043124 231.14093 
L 93.638748 228.612558 
L 94.234371 234.301395 
L 94.829995 246.943256 
L 95.425618 215.970698 
L 96.021242 229.876744 
L 96.616865 230.508837 
L 97.212489 243.150698 
L 97.808112 219.763256 
L 98.403736 233.037209 
L 98.99936 236.197674 
L 99.594983 233.037209 
L 100.190607 241.254419 
L 100.78623 228.612558 
L 101.381854 228.612558 
L 101.977477 238.093953 
L 102.573101 236.197674 
L 103.168724 238.726047 
L 103.764348 233.037209 
L 104.359972 232.405116 
L 104.955595 227.348372 
L 105.551219 229.244651 
L 106.146842 227.980465 
L 106.742466 227.980465 
L 107.338089 230.508837 
L 107.933713 235.565581 
L 108.529336 227.348372 
L 109.12496 234.933488 
L 109.720584 237.46186 
L 110.316207 222.923721 
L 110.911831 230.508837 
L 111.507454 231.14093 
L 112.698701 250.735814 
L 113.294325 243.150698 
L 113.889948 228.612558 
L 114.485572 239.35814 
L 115.081196 214.074419 
L 115.676819 236.829767 
L 116.272443 248.839535 
L 116.868066 229.244651 
L 117.46369 246.943256 
L 118.059313 231.14093 
L 118.654937 220.395349 
L 119.25056 224.82 
L 119.846184 239.35814 
L 120.441808 229.876744 
L 121.037431 228.612558 
L 121.633055 241.254419 
L 122.228678 236.829767 
L 122.824302 229.876744 
L 123.419925 233.669302 
L 124.015549 239.990233 
L 124.611172 229.244651 
L 125.206796 228.612558 
L 125.802419 231.773023 
L 126.398043 239.990233 
L 127.58929 238.726047 
L 128.184914 237.46186 
L 128.780537 243.150698 
L 129.376161 227.980465 
L 129.971784 224.82 
L 130.567408 239.35814 
L 131.163031 234.933488 
L 131.758655 227.980465 
L 132.354279 234.933488 
L 132.949902 239.990233 
L 133.545526 243.782791 
L 134.141149 241.254419 
L 134.736773 223.555814 
L 135.332396 240.622326 
L 135.92802 219.131163 
L 136.523643 238.726047 
L 137.119267 227.980465 
L 137.714891 239.990233 
L 138.310514 227.348372 
L 138.906138 236.197674 
L 139.501761 231.14093 
L 140.097385 229.244651 
L 140.693008 233.669302 
L 141.288632 242.518605 
L 141.884255 227.348372 
L 142.479879 237.46186 
L 143.075503 217.866977 
L 143.671126 243.150698 
L 144.862373 227.348372 
L 146.05362 239.35814 
L 146.649244 250.103721 
L 147.244867 243.782791 
L 147.840491 226.716279 
L 148.436115 238.093953 
L 149.031738 237.46186 
L 149.627362 225.452093 
L 150.222985 234.933488 
L 150.818609 238.093953 
L 151.414232 235.565581 
L 152.009856 250.103721 
L 152.605479 230.508837 
L 153.201103 235.565581 
L 153.796727 223.555814 
L 154.39235 229.876744 
L 154.987974 229.876744 
L 155.583597 241.254419 
L 156.179221 239.990233 
L 156.774844 232.405116 
L 157.370468 229.876744 
L 157.966091 225.452093 
L 158.561715 234.301395 
L 159.157339 226.084186 
L 160.348586 238.726047 
L 160.944209 230.508837 
L 161.539833 234.301395 
L 162.135456 235.565581 
L 162.73108 238.726047 
L 163.326703 233.669302 
L 163.922327 232.405116 
L 164.517951 233.037209 
L 165.113574 229.876744 
L 165.709198 229.876744 
L 166.304821 231.773023 
L 166.900445 239.990233 
L 167.496068 230.508837 
L 168.091692 225.452093 
L 168.687315 229.876744 
L 169.282939 246.311163 
L 169.878563 236.197674 
L 170.474186 241.254419 
L 171.06981 236.829767 
L 171.665433 223.555814 
L 172.261057 229.876744 
L 172.85668 227.348372 
L 173.452304 220.395349 
L 174.047927 241.254419 
L 174.643551 228.612558 
L 175.239175 239.990233 
L 175.834798 239.35814 
L 176.430422 222.291628 
L 177.026045 231.773023 
L 177.621669 222.923721 
L 178.217292 237.46186 
L 178.812916 238.093953 
L 179.408539 234.301395 
L 180.004163 227.980465 
L 180.599787 227.980465 
L 181.19541 229.876744 
L 181.791034 229.876744 
L 182.386657 236.829767 
L 182.982281 238.093953 
L 183.577904 234.301395 
L 184.173528 224.187907 
L 184.769151 239.990233 
L 185.364775 223.555814 
L 185.960399 239.35814 
L 186.556022 233.669302 
L 187.151646 237.46186 
L 187.747269 215.970698 
L 188.938516 239.35814 
L 189.53414 227.980465 
L 190.129763 224.82 
L 190.725387 241.886512 
L 191.32101 224.82 
L 191.916634 229.244651 
L 192.512258 219.131163 
L 193.107881 239.35814 
L 193.703505 230.508837 
L 194.299128 247.575349 
L 194.894752 238.093953 
L 195.490375 233.037209 
L 196.085999 238.093953 
L 196.681622 228.612558 
L 197.277246 230.508837 
L 197.87287 227.348372 
L 198.468493 234.301395 
L 199.064117 223.555814 
L 199.65974 217.866977 
L 200.255364 229.244651 
L 200.850987 229.876744 
L 201.446611 238.726047 
L 202.042234 241.254419 
L 202.637858 229.876744 
L 203.233482 232.405116 
L 203.829105 223.555814 
L 204.424729 235.565581 
L 205.020352 236.197674 
L 205.615976 233.037209 
L 206.211599 235.565581 
L 206.807223 235.565581 
L 207.402846 227.980465 
L 207.99847 216.602791 
L 208.594094 226.084186 
L 209.189717 244.414884 
L 209.785341 236.829767 
L 210.380964 233.669302 
L 210.976588 234.301395 
L 211.572211 241.886512 
L 212.167835 231.14093 
L 212.763458 229.876744 
L 213.359082 215.338605 
L 213.954706 212.810233 
L 214.550329 175.516744 
L 215.145953 181.837674 
L 215.741576 166.035349 
L 216.3372 116.732093 
L 216.932823 77.542326 
L 217.528447 84.495349 
L 218.719694 47.20186 
L 219.315318 50.362326 
L 219.910941 34.56 
L 220.506565 59.843721 
L 221.697812 128.109767 
L 222.293435 142.015814 
L 222.889059 169.195814 
L 223.484682 183.10186 
L 224.080306 203.328837 
L 224.67593 219.763256 
L 225.271553 227.348372 
L 225.867177 221.659535 
L 226.4628 234.933488 
L 227.058424 231.773023 
L 227.654047 236.829767 
L 228.249671 233.669302 
L 228.845294 229.876744 
L 229.440918 227.348372 
L 230.036542 240.622326 
L 230.632165 240.622326 
L 231.227789 244.414884 
L 231.823412 241.886512 
L 232.419036 242.518605 
L 233.014659 242.518605 
L 233.610283 229.244651 
L 234.205906 234.301395 
L 234.80153 237.46186 
L 235.397154 229.244651 
L 235.992777 239.990233 
L 236.588401 224.187907 
L 237.184024 247.575349 
L 237.779648 226.084186 
L 238.375271 225.452093 
L 239.566518 240.622326 
L 240.757766 226.084186 
L 241.353389 220.395349 
L 241.949013 231.14093 
L 242.544636 226.084186 
L 243.14026 238.093953 
L 243.735883 241.254419 
L 244.92713 227.348372 
L 245.522754 235.565581 
L 246.118378 233.037209 
L 246.714001 236.197674 
L 247.309625 250.103721 
L 247.905248 229.244651 
L 248.500872 227.348372 
L 249.096495 232.405116 
L 249.692119 235.565581 
L 250.287742 243.150698 
L 252.670237 233.037209 
L 253.26586 237.46186 
L 253.861484 244.414884 
L 254.457107 226.084186 
L 255.052731 238.093953 
L 255.648354 216.602791 
L 256.243978 237.46186 
L 256.839601 226.084186 
L 257.435225 237.46186 
L 258.030849 239.35814 
L 258.626472 227.980465 
L 259.222096 219.763256 
L 259.817719 220.395349 
L 260.413343 236.197674 
L 261.008966 228.612558 
L 261.60459 244.414884 
L 262.200213 236.829767 
L 262.795837 226.716279 
L 263.391461 238.093953 
L 263.987084 227.980465 
L 264.582708 227.348372 
L 265.178331 226.084186 
L 265.773955 236.197674 
L 266.369578 224.82 
L 266.965202 233.037209 
L 267.560825 216.602791 
L 268.156449 222.291628 
L 269.347696 236.829767 
L 269.94332 236.197674 
L 270.538943 234.933488 
L 271.134567 232.405116 
L 271.73019 230.508837 
L 272.325814 229.876744 
L 272.921437 243.150698 
L 273.517061 236.197674 
L 274.112685 227.348372 
L 274.708308 229.876744 
L 275.303932 234.933488 
L 275.899555 234.301395 
L 276.495179 237.46186 
L 277.090802 223.555814 
L 277.686426 234.933488 
L 278.282049 230.508837 
L 278.877673 236.829767 
L 279.473297 246.311163 
L 280.06892 227.348372 
L 280.664544 245.046977 
L 281.855791 226.716279 
L 282.451414 227.348372 
L 283.047038 222.923721 
L 284.238285 225.452093 
L 284.833909 231.14093 
L 285.429532 233.037209 
L 286.025156 233.037209 
L 286.620779 229.244651 
L 287.216403 242.518605 
L 287.812026 229.244651 
L 288.40765 234.301395 
L 289.003273 237.46186 
L 289.598897 227.348372 
L 290.194521 230.508837 
L 290.790144 244.414884 
L 291.385768 220.395349 
L 291.981391 236.829767 
L 292.577015 238.726047 
L 293.172638 248.839535 
L 293.768262 241.886512 
L 294.363885 236.829767 
L 294.959509 218.49907 
L 295.555133 233.669302 
L 296.150756 226.084186 
L 296.74638 226.084186 
L 297.342003 232.405116 
L 297.937627 226.084186 
L 298.53325 238.726047 
L 299.128874 222.923721 
L 299.724497 229.244651 
L 300.320121 228.612558 
L 300.915745 235.565581 
L 301.511368 240.622326 
L 302.106992 226.084186 
L 303.298239 244.414884 
L 303.893862 245.67907 
L 304.489486 220.395349 
L 305.085109 233.037209 
L 305.680733 234.933488 
L 306.276357 239.990233 
L 306.87198 228.612558 
L 307.467604 241.886512 
L 308.063227 226.084186 
L 308.658851 242.518605 
L 309.254474 233.037209 
L 309.850098 236.829767 
L 310.445721 238.093953 
L 311.041345 223.555814 
L 311.636969 235.565581 
L 312.232592 209.017674 
L 312.828216 228.612558 
L 313.423839 233.037209 
L 314.019463 232.405116 
L 314.615086 224.82 
L 315.806333 227.348372 
L 316.401957 229.244651 
L 316.997581 237.46186 
L 317.593204 240.622326 
L 318.188828 227.980465 
L 318.784451 226.716279 
L 319.380075 226.716279 
L 319.975698 222.291628 
L 320.571322 224.187907 
L 321.166945 221.659535 
L 321.762569 238.726047 
L 322.358192 225.452093 
L 322.953816 225.452093 
L 323.54944 239.35814 
L 324.145063 229.244651 
L 324.740687 238.726047 
L 325.33631 223.555814 
L 325.931934 230.508837 
L 326.527557 226.716279 
L 327.123181 234.301395 
L 327.718804 228.612558 
L 328.314428 229.876744 
L 328.910052 228.612558 
L 330.101299 241.886512 
L 330.696922 243.782791 
L 331.292546 234.301395 
L 331.888169 246.311163 
L 332.483793 227.348372 
L 333.079416 240.622326 
L 333.67504 230.508837 
L 334.270664 222.923721 
L 334.866287 231.773023 
L 335.461911 231.14093 
L 336.057534 228.612558 
L 336.653158 228.612558 
L 337.248781 231.773023 
L 337.844405 243.782791 
L 338.440028 226.716279 
L 339.035652 236.197674 
L 339.631276 231.14093 
L 340.226899 234.933488 
L 340.822523 243.782791 
L 341.418146 236.829767 
L 342.01377 233.669302 
L 342.609393 241.886512 
L 343.205017 238.726047 
L 343.80064 225.452093 
L 344.396264 235.565581 
L 344.991888 239.990233 
L 345.587511 238.726047 
L 346.183135 222.291628 
L 346.778758 251.367907 
L 347.374382 224.187907 
L 347.970005 224.187907 
L 348.565629 239.990233 
L 349.161252 231.773023 
L 349.756876 237.46186 
L 350.3525 234.933488 
L 350.948123 239.990233 
L 351.543747 229.876744 
L 352.13937 241.886512 
L 352.734994 234.933488 
L 353.330617 235.565581 
L 353.926241 212.17814 
L 354.521864 227.348372 
L 355.117488 250.735814 
L 355.713112 241.254419 
L 356.308735 241.886512 
L 356.904359 231.14093 
L 357.499982 236.829767 
L 358.095606 239.35814 
L 359.286853 228.612558 
L 359.882476 238.726047 
L 360.4781 236.197674 
L 361.073724 229.876744 
L 361.669347 232.405116 
L 362.860594 234.933488 
L 363.456218 226.716279 
L 364.051841 240.622326 
L 364.647465 239.990233 
L 365.243088 222.291628 
L 365.838712 252 
L 366.434336 221.027442 
L 367.029959 234.301395 
L 367.625583 223.555814 
L 368.221206 239.35814 
L 368.81683 233.037209 
L 369.412453 227.980465 
L 370.008077 242.518605 
L 370.6037 234.301395 
L 371.199324 232.405116 
L 371.794948 231.14093 
L 372.390571 227.980465 
L 372.986195 232.405116 
L 373.581818 229.244651 
L 373.581818 229.244651 
" clip-path="url(#p7e737f309e)" style="fill: none; stroke: #ff7f0e; stroke-width: 1.5; stroke-linecap: square"/>
   </g>
   <g id="line2d_27">
    <path d="M 69.218182 223.852427 
L 69.813805 220.333981 
L 70.409429 210.48233 
L 71.005052 219.630291 
L 71.600676 187.964272 
L 72.1963 204.852816 
L 72.791923 235.111456 
L 73.387547 196.408544 
L 73.98317 192.890097 
L 74.578794 221.741359 
L 75.174417 220.333981 
L 75.770041 231.59301 
L 76.365664 214.000777 
L 76.961288 214.000777 
L 77.556912 209.074951 
L 78.152535 229.481942 
L 78.748159 211.186019 
L 79.343782 205.556505 
L 79.939406 231.59301 
L 80.535029 177.408932 
L 81.130653 221.03767 
L 81.726276 202.741748 
L 82.3219 217.519223 
L 82.917524 216.815534 
L 83.513147 211.889709 
L 84.108771 208.371262 
L 84.704394 214.000777 
L 85.300018 216.815534 
L 85.895641 222.445049 
L 86.491265 216.111845 
L 87.682512 199.223301 
L 88.278136 219.630291 
L 88.873759 206.260194 
L 89.469383 210.48233 
L 90.065006 210.48233 
L 90.66063 237.222524 
L 91.256253 181.631068 
L 91.851877 214.704466 
L 92.4475 223.148738 
L 93.043124 204.852816 
L 93.638748 217.519223 
L 94.234371 235.815146 
L 94.829995 204.852816 
L 95.425618 218.222913 
L 96.021242 192.890097 
L 96.616865 194.297476 
L 97.212489 193.593786 
L 97.808112 200.63068 
L 98.403736 227.370874 
L 98.99936 218.222913 
L 99.594983 190.779029 
L 100.190607 189.37165 
L 100.78623 209.778641 
L 101.381854 206.963883 
L 101.977477 188.667961 
L 103.168724 217.519223 
L 103.764348 221.741359 
L 104.359972 199.92699 
L 104.955595 238.629903 
L 105.551219 210.48233 
L 106.146842 242.14835 
L 106.742466 214.704466 
L 107.338089 235.111456 
L 107.933713 232.296699 
L 108.529336 218.926602 
L 109.12496 187.964272 
L 109.720584 249.185243 
L 110.316207 194.297476 
L 110.911831 187.260583 
L 111.507454 221.03767 
L 112.103078 212.593398 
L 112.698701 207.667573 
L 113.294325 196.408544 
L 113.889948 216.815534 
L 114.485572 230.185631 
L 115.081196 216.815534 
L 115.676819 233.704078 
L 116.272443 196.408544 
L 116.868066 211.889709 
L 117.46369 218.926602 
L 118.059313 209.778641 
L 118.654937 204.149126 
L 119.25056 225.259806 
L 119.846184 212.593398 
L 120.441808 223.148738 
L 121.037431 237.926214 
L 121.633055 211.889709 
L 122.228678 218.222913 
L 122.824302 199.223301 
L 123.419925 227.370874 
L 124.015549 217.519223 
L 124.611172 238.629903 
L 125.206796 222.445049 
L 125.802419 195.001165 
L 126.398043 237.222524 
L 126.993667 228.778252 
L 127.58929 228.074563 
L 128.184914 202.038058 
L 128.780537 202.741748 
L 129.376161 218.926602 
L 130.567408 196.408544 
L 131.163031 214.000777 
L 131.758655 220.333981 
L 132.354279 196.408544 
L 132.949902 226.667184 
L 134.141149 216.111845 
L 134.736773 225.259806 
L 135.332396 228.074563 
L 135.92802 208.371262 
L 136.523643 225.259806 
L 137.119267 223.852427 
L 137.714891 223.852427 
L 138.310514 208.371262 
L 138.906138 204.149126 
L 139.501761 217.519223 
L 140.097385 198.519612 
L 140.693008 235.815146 
L 141.288632 191.482718 
L 141.884255 219.630291 
L 142.479879 199.223301 
L 143.075503 218.926602 
L 143.671126 206.963883 
L 144.26675 216.111845 
L 144.862373 217.519223 
L 145.457997 229.481942 
L 146.05362 202.741748 
L 146.649244 215.408155 
L 147.244867 208.371262 
L 147.840491 221.741359 
L 148.436115 207.667573 
L 149.031738 245.666796 
L 149.627362 215.408155 
L 150.222985 221.03767 
L 150.818609 185.149515 
L 151.414232 230.88932 
L 152.009856 195.704854 
L 152.605479 202.038058 
L 153.201103 203.445437 
L 153.796727 208.371262 
L 154.39235 226.667184 
L 154.987974 230.185631 
L 155.583597 229.481942 
L 156.179221 225.259806 
L 156.774844 212.593398 
L 157.370468 213.297087 
L 157.966091 202.741748 
L 158.561715 235.815146 
L 159.157339 207.667573 
L 159.752962 213.297087 
L 160.348586 188.667961 
L 160.944209 226.667184 
L 161.539833 208.371262 
L 162.135456 220.333981 
L 162.73108 192.890097 
L 163.922327 226.667184 
L 164.517951 216.111845 
L 165.113574 200.63068 
L 165.709198 197.815922 
L 166.304821 214.000777 
L 166.900445 214.704466 
L 167.496068 224.556117 
L 168.091692 186.556893 
L 169.282939 230.185631 
L 169.878563 190.779029 
L 170.474186 225.259806 
L 171.06981 225.259806 
L 171.665433 205.556505 
L 172.261057 201.334369 
L 172.85668 243.555728 
L 173.452304 223.852427 
L 174.047927 227.370874 
L 174.643551 206.260194 
L 175.239175 217.519223 
L 175.834798 216.111845 
L 176.430422 208.371262 
L 177.026045 217.519223 
L 177.621669 194.297476 
L 178.217292 208.371262 
L 178.812916 199.223301 
L 179.408539 185.149515 
L 180.004163 221.03767 
L 180.599787 197.112233 
L 181.19541 239.333592 
L 181.791034 213.297087 
L 182.386657 195.704854 
L 182.982281 191.482718 
L 183.577904 199.92699 
L 184.173528 203.445437 
L 184.769151 225.259806 
L 185.364775 206.963883 
L 185.960399 210.48233 
L 186.556022 200.63068 
L 187.151646 219.630291 
L 187.747269 206.963883 
L 188.342893 217.519223 
L 188.938516 181.631068 
L 189.53414 172.483107 
L 190.129763 174.594175 
L 190.725387 101.410485 
L 191.32101 96.48466 
L 191.916634 92.966214 
L 192.512258 59.892816 
L 193.107881 84.521942 
L 193.703505 54.263301 
L 194.299128 34.56 
L 194.894752 53.559612 
L 195.490375 51.448544 
L 196.085999 116.187961 
L 196.681622 108.447379 
L 197.277246 115.484272 
L 197.87287 148.55767 
L 198.468493 154.187184 
L 199.064117 216.815534 
L 199.65974 177.408932 
L 200.255364 182.334757 
L 201.446611 216.815534 
L 202.042234 225.963495 
L 202.637858 230.88932 
L 203.233482 228.778252 
L 203.829105 219.630291 
L 204.424729 205.556505 
L 205.020352 231.59301 
L 205.615976 225.963495 
L 206.211599 192.186408 
L 206.807223 226.667184 
L 207.402846 220.333981 
L 207.99847 209.074951 
L 208.594094 216.111845 
L 209.189717 232.296699 
L 209.785341 228.074563 
L 210.380964 220.333981 
L 210.976588 202.741748 
L 211.572211 218.222913 
L 212.167835 216.111845 
L 212.763458 228.778252 
L 213.954706 240.740971 
L 214.550329 219.630291 
L 215.145953 211.889709 
L 215.741576 214.000777 
L 216.3372 211.889709 
L 216.932823 212.593398 
L 217.528447 212.593398 
L 218.12407 185.149515 
L 218.719694 213.297087 
L 219.315318 209.778641 
L 219.910941 205.556505 
L 220.506565 208.371262 
L 221.102188 210.48233 
L 221.697812 220.333981 
L 222.293435 225.963495 
L 222.889059 207.667573 
L 223.484682 214.704466 
L 224.080306 230.88932 
L 224.67593 236.518835 
L 225.271553 218.222913 
L 225.867177 232.296699 
L 226.4628 237.926214 
L 227.058424 217.519223 
L 227.654047 234.407767 
L 228.249671 219.630291 
L 228.845294 199.223301 
L 229.440918 219.630291 
L 230.036542 219.630291 
L 230.632165 195.001165 
L 231.227789 234.407767 
L 231.823412 200.63068 
L 232.419036 211.889709 
L 233.014659 219.630291 
L 233.610283 214.000777 
L 234.205906 214.000777 
L 234.80153 204.852816 
L 235.992777 230.88932 
L 236.588401 199.223301 
L 237.184024 228.074563 
L 237.779648 216.815534 
L 238.375271 218.222913 
L 238.970895 224.556117 
L 239.566518 197.112233 
L 240.162142 228.074563 
L 240.757766 221.03767 
L 241.353389 212.593398 
L 241.949013 214.000777 
L 242.544636 211.889709 
L 243.14026 202.038058 
L 243.735883 207.667573 
L 244.331507 225.963495 
L 244.92713 195.001165 
L 245.522754 223.852427 
L 246.118378 214.000777 
L 246.714001 227.370874 
L 247.309625 204.852816 
L 247.905248 204.852816 
L 248.500872 224.556117 
L 249.096495 217.519223 
L 249.692119 212.593398 
L 250.287742 194.297476 
L 250.883366 203.445437 
L 251.47899 209.778641 
L 252.074613 200.63068 
L 252.670237 199.223301 
L 253.26586 233.704078 
L 253.861484 199.92699 
L 254.457107 209.074951 
L 255.052731 222.445049 
L 255.648354 221.741359 
L 256.243978 217.519223 
L 256.839601 231.59301 
L 257.435225 190.779029 
L 258.030849 227.370874 
L 258.626472 228.778252 
L 259.222096 217.519223 
L 259.817719 221.741359 
L 260.413343 210.48233 
L 261.008966 197.112233 
L 261.60459 190.779029 
L 262.200213 213.297087 
L 262.795837 227.370874 
L 263.391461 224.556117 
L 263.987084 208.371262 
L 264.582708 197.815922 
L 265.773955 212.593398 
L 266.369578 236.518835 
L 266.965202 189.37165 
L 267.560825 206.260194 
L 268.156449 204.149126 
L 268.752073 211.186019 
L 269.347696 204.852816 
L 269.94332 214.704466 
L 270.538943 204.149126 
L 271.134567 227.370874 
L 272.325814 203.445437 
L 272.921437 241.44466 
L 274.112685 209.074951 
L 274.708308 220.333981 
L 275.303932 205.556505 
L 275.899555 202.038058 
L 276.495179 209.074951 
L 277.090802 202.038058 
L 277.686426 209.778641 
L 278.282049 227.370874 
L 278.877673 190.07534 
L 279.473297 212.593398 
L 280.06892 218.222913 
L 280.664544 213.297087 
L 281.260167 236.518835 
L 281.855791 210.48233 
L 282.451414 211.186019 
L 283.047038 216.815534 
L 283.642661 227.370874 
L 284.238285 252 
L 284.833909 212.593398 
L 285.429532 231.59301 
L 286.025156 222.445049 
L 286.620779 217.519223 
L 287.216403 225.259806 
L 287.812026 215.408155 
L 288.40765 202.741748 
L 289.003273 221.741359 
L 289.598897 214.704466 
L 290.194521 210.48233 
L 290.790144 218.926602 
L 291.385768 218.222913 
L 291.981391 195.704854 
L 292.577015 211.186019 
L 293.172638 216.111845 
L 293.768262 202.741748 
L 295.555133 217.519223 
L 296.150756 198.519612 
L 296.74638 204.852816 
L 297.342003 218.222913 
L 297.937627 209.778641 
L 298.53325 214.704466 
L 299.128874 187.964272 
L 299.724497 224.556117 
L 300.320121 204.852816 
L 300.915745 195.001165 
L 301.511368 199.223301 
L 302.106992 215.408155 
L 302.702615 211.186019 
L 303.298239 223.852427 
L 303.893862 199.223301 
L 304.489486 210.48233 
L 305.085109 207.667573 
L 305.680733 244.963107 
L 306.276357 197.112233 
L 306.87198 211.889709 
L 307.467604 197.815922 
L 308.063227 212.593398 
L 308.658851 214.704466 
L 309.254474 206.260194 
L 309.850098 236.518835 
L 310.445721 207.667573 
L 311.041345 221.03767 
L 311.636969 217.519223 
L 312.232592 203.445437 
L 312.828216 223.148738 
L 313.423839 233.704078 
L 314.019463 215.408155 
L 314.615086 216.815534 
L 315.21071 219.630291 
L 315.806333 208.371262 
L 316.401957 211.889709 
L 316.997581 224.556117 
L 317.593204 210.48233 
L 318.188828 203.445437 
L 318.784451 201.334369 
L 319.380075 197.112233 
L 319.975698 228.074563 
L 320.571322 230.88932 
L 321.166945 211.186019 
L 321.762569 223.852427 
L 322.358192 225.963495 
L 322.953816 214.000777 
L 323.54944 227.370874 
L 324.145063 204.852816 
L 324.740687 216.815534 
L 325.33631 208.371262 
L 325.931934 221.03767 
L 326.527557 242.14835 
L 327.123181 230.88932 
L 327.718804 209.074951 
L 328.314428 205.556505 
L 328.910052 216.111845 
L 329.505675 222.445049 
L 330.101299 210.48233 
L 330.696922 202.741748 
L 331.292546 190.779029 
L 331.888169 237.926214 
L 332.483793 240.037282 
L 333.079416 206.963883 
L 333.67504 206.260194 
L 334.270664 220.333981 
L 334.866287 230.88932 
L 335.461911 203.445437 
L 336.057534 225.963495 
L 337.248781 190.07534 
L 337.844405 204.149126 
L 338.440028 224.556117 
L 339.035652 229.481942 
L 339.631276 193.593786 
L 340.226899 218.926602 
L 340.822523 208.371262 
L 341.418146 214.000777 
L 342.01377 216.815534 
L 342.609393 218.222913 
L 343.205017 221.03767 
L 343.80064 212.593398 
L 344.396264 228.778252 
L 344.991888 224.556117 
L 345.587511 234.407767 
L 346.183135 190.779029 
L 346.778758 228.778252 
L 347.374382 224.556117 
L 347.970005 213.297087 
L 348.565629 220.333981 
L 349.161252 225.963495 
L 349.756876 194.297476 
L 350.3525 225.259806 
L 350.948123 215.408155 
L 352.13937 204.852816 
L 352.734994 220.333981 
L 353.330617 204.149126 
L 353.926241 223.148738 
L 354.521864 227.370874 
L 355.117488 200.63068 
L 355.713112 202.038058 
L 356.308735 216.111845 
L 356.904359 180.927379 
L 357.499982 200.63068 
L 358.095606 208.371262 
L 358.691229 183.038447 
L 359.286853 225.259806 
L 359.882476 209.074951 
L 360.4781 214.704466 
L 361.073724 226.667184 
L 361.669347 214.704466 
L 362.264971 209.074951 
L 362.860594 201.334369 
L 363.456218 222.445049 
L 364.051841 208.371262 
L 364.647465 236.518835 
L 365.243088 199.92699 
L 365.838712 223.852427 
L 366.434336 200.63068 
L 367.029959 233.704078 
L 367.625583 204.852816 
L 368.221206 212.593398 
L 368.81683 233.704078 
L 369.412453 231.59301 
L 370.008077 216.815534 
L 370.6037 188.667961 
L 371.199324 224.556117 
L 371.794948 236.518835 
L 372.390571 209.778641 
L 372.986195 226.667184 
L 373.581818 217.519223 
L 373.581818 217.519223 
" clip-path="url(#p7e737f309e)" style="fill: none; stroke: #2ca02c; stroke-width: 1.5; stroke-linecap: square"/>
   </g>
   <g id="patch_3">
    <path d="M 54 252 
L 54 34.56 
" style="fill: none; stroke: #000000; stroke-width: 0.8; stroke-linejoin: miter; stroke-linecap: square"/>
   </g>
   <g id="patch_4">
    <path d="M 388.8 252 
L 388.8 34.56 
" style="fill: none; stroke: #000000; stroke-width: 0.8; stroke-linejoin: miter; stroke-linecap: square"/>
   </g>
   <g id="patch_5">
    <path d="M 54 252 
L 388.8 252 
" style="fill: none; stroke: #000000; stroke-width: 0.8; stroke-linejoin: miter; stroke-linecap: square"/>
   </g>
   <g id="patch_6">
    <path d="M 54 34.56 
L 388.8 34.56 
" style="fill: none; stroke: #000000; stroke-width: 0.8; stroke-linejoin: miter; stroke-linecap: square"/>
   </g>
   <g id="text_15">
    <!-- Label 4 normalized -->
    <g transform="translate(164.240625 28.56)scale(0.12 -0.12)">
     <defs>
      <path id="DejaVuSans-4c" d="M 628 4666 
L 1259 4666 
L 1259 531 
L 3531 531 
L 3531 0 
L 628 0 
L 628 4666 
z
" transform="scale(0.015625)"/>
      <path id="DejaVuSans-61" d="M 2194 1759 
Q 1497 1759 1228 1600 
Q 959 1441 959 1056 
Q 959 750 1161 570 
Q 1363 391 1709 391 
Q 2188 391 2477 730 
Q 2766 1069 2766 1631 
L 2766 1759 
L 2194 1759 
z
M 3341 1997 
L 3341 0 
L 2766 0 
L 2766 531 
Q 2569 213 2275 61 
Q 1981 -91 1556 -91 
Q 1019 -91 701 211 
Q 384 513 384 1019 
Q 384 1609 779 1909 
Q 1175 2209 1959 2209 
L 2766 2209 
L 2766 2266 
Q 2766 2663 2505 2880 
Q 2244 3097 1772 3097 
Q 1472 3097 1187 3025 
Q 903 2953 641 2809 
L 641 3341 
Q 956 3463 1253 3523 
Q 1550 3584 1831 3584 
Q 2591 3584 2966 3190 
Q 3341 2797 3341 1997 
z
" transform="scale(0.015625)"/>
      <path id="DejaVuSans-65" d="M 3597 1894 
L 3597 1613 
L 953 1613 
Q 991 1019 1311 708 
Q 1631 397 2203 397 
Q 2534 397 2845 478 
Q 3156 559 3463 722 
L 3463 178 
Q 3153 47 2828 -22 
Q 2503 -91 2169 -91 
Q 1331 -91 842 396 
Q 353 884 353 1716 
Q 353 2575 817 3079 
Q 1281 3584 2069 3584 
Q 2775 3584 3186 3129 
Q 3597 2675 3597 1894 
z
M 3022 2063 
Q 3016 2534 2758 2815 
Q 2500 3097 2075 3097 
Q 1594 3097 1305 2825 
Q 1016 2553 972 2059 
L 3022 2063 
z
" transform="scale(0.015625)"/>
      <path id="DejaVuSans-6c" d="M 603 4863 
L 1178 4863 
L 1178 0 
L 603 0 
L 603 4863 
z
" transform="scale(0.015625)"/>
      <path id="DejaVuSans-20" transform="scale(0.015625)"/>
      <path id="DejaVuSans-72" d="M 2631 2963 
Q 2534 3019 2420 3045 
Q 2306 3072 2169 3072 
Q 1681 3072 1420 2755 
Q 1159 2438 1159 1844 
L 1159 0 
L 581 0 
L 581 3500 
L 1159 3500 
L 1159 2956 
Q 1341 3275 1631 3429 
Q 1922 3584 2338 3584 
Q 2397 3584 2469 3576 
Q 2541 3569 2628 3553 
L 2631 2963 
z
" transform="scale(0.015625)"/>
      <path id="DejaVuSans-6d" d="M 3328 2828 
Q 3544 3216 3844 3400 
Q 4144 3584 4550 3584 
Q 5097 3584 5394 3201 
Q 5691 2819 5691 2113 
L 5691 0 
L 5113 0 
L 5113 2094 
Q 5113 2597 4934 2840 
Q 4756 3084 4391 3084 
Q 3944 3084 3684 2787 
Q 3425 2491 3425 1978 
L 3425 0 
L 2847 0 
L 2847 2094 
Q 2847 2600 2669 2842 
Q 2491 3084 2119 3084 
Q 1678 3084 1418 2786 
Q 1159 2488 1159 1978 
L 1159 0 
L 581 0 
L 581 3500 
L 1159 3500 
L 1159 2956 
Q 1356 3278 1631 3431 
Q 1906 3584 2284 3584 
Q 2666 3584 2933 3390 
Q 3200 3197 3328 2828 
z
" transform="scale(0.015625)"/>
      <path id="DejaVuSans-7a" d="M 353 3500 
L 3084 3500 
L 3084 2975 
L 922 459 
L 3084 459 
L 3084 0 
L 275 0 
L 275 525 
L 2438 3041 
L 353 3041 
L 353 3500 
z
" transform="scale(0.015625)"/>
      <path id="DejaVuSans-64" d="M 2906 2969 
L 2906 4863 
L 3481 4863 
L 3481 0 
L 2906 0 
L 2906 525 
Q 2725 213 2448 61 
Q 2172 -91 1784 -91 
Q 1150 -91 751 415 
Q 353 922 353 1747 
Q 353 2572 751 3078 
Q 1150 3584 1784 3584 
Q 2172 3584 2448 3432 
Q 2725 3281 2906 2969 
z
M 947 1747 
Q 947 1113 1208 752 
Q 1469 391 1925 391 
Q 2381 391 2643 752 
Q 2906 1113 2906 1747 
Q 2906 2381 2643 2742 
Q 2381 3103 1925 3103 
Q 1469 3103 1208 2742 
Q 947 2381 947 1747 
z
" transform="scale(0.015625)"/>
     </defs>
     <use xlink:href="#DejaVuSans-4c"/>
     <use xlink:href="#DejaVuSans-61" x="55.712891"/>
     <use xlink:href="#DejaVuSans-62" x="116.992188"/>
     <use xlink:href="#DejaVuSans-65" x="180.46875"/>
     <use xlink:href="#DejaVuSans-6c" x="241.992188"/>
     <use xlink:href="#DejaVuSans-20" x="269.775391"/>
     <use xlink:href="#DejaVuSans-34" x="301.5625"/>
     <use xlink:href="#DejaVuSans-20" x="365.185547"/>
     <use xlink:href="#DejaVuSans-6e" x="396.972656"/>
     <use xlink:href="#DejaVuSans-6f" x="460.351562"/>
     <use xlink:href="#DejaVuSans-72" x="521.533203"/>
     <use xlink:href="#DejaVuSans-6d" x="560.896484"/>
     <use xlink:href="#DejaVuSans-61" x="658.308594"/>
     <use xlink:href="#DejaVuSans-6c" x="719.587891"/>
     <use xlink:href="#DejaVuSans-69" x="747.371094"/>
     <use xlink:href="#DejaVuSans-7a" x="775.154297"/>
     <use xlink:href="#DejaVuSans-65" x="827.644531"/>
     <use xlink:href="#DejaVuSans-64" x="889.167969"/>
    </g>
   </g>
   <g id="legend_1">
    <g id="patch_7">
     <path d="M 309.070312 101.2725 
L 381.8 101.2725 
Q 383.8 101.2725 383.8 99.2725 
L 383.8 41.56 
Q 383.8 39.56 381.8 39.56 
L 309.070312 39.56 
Q 307.070312 39.56 307.070312 41.56 
L 307.070312 99.2725 
Q 307.070312 101.2725 309.070312 101.2725 
z
" style="fill: #ffffff; opacity: 0.8; stroke: #cccccc; stroke-linejoin: miter"/>
    </g>
    <g id="text_16">
     <!-- Trace number -->
     <g transform="translate(311.070312 51.158437)scale(0.1 -0.1)">
      <defs>
       <path id="DejaVuSans-54" d="M -19 4666 
L 3928 4666 
L 3928 4134 
L 2272 4134 
L 2272 0 
L 1638 0 
L 1638 4134 
L -19 4134 
L -19 4666 
z
" transform="scale(0.015625)"/>
      </defs>
      <use xlink:href="#DejaVuSans-54"/>
      <use xlink:href="#DejaVuSans-72" x="46.333984"/>
      <use xlink:href="#DejaVuSans-61" x="87.447266"/>
      <use xlink:href="#DejaVuSans-63" x="148.726562"/>
      <use xlink:href="#DejaVuSans-65" x="203.707031"/>
      <use xlink:href="#DejaVuSans-20" x="265.230469"/>
      <use xlink:href="#DejaVuSans-6e" x="297.017578"/>
      <use xlink:href="#DejaVuSans-75" x="360.396484"/>
      <use xlink:href="#DejaVuSans-6d" x="423.775391"/>
      <use xlink:href="#DejaVuSans-62" x="521.1875"/>
      <use xlink:href="#DejaVuSans-65" x="584.664062"/>
      <use xlink:href="#DejaVuSans-72" x="646.1875"/>
     </g>
    </g>
    <g id="line2d_28">
     <path d="M 325.072656 62.336562 
L 335.072656 62.336562 
L 345.072656 62.336562 
" style="fill: none; stroke: #1f77b4; stroke-width: 1.5; stroke-linecap: square"/>
    </g>
    <g id="text_17">
     <!-- 0 -->
     <g transform="translate(353.072656 65.836562)scale(0.1 -0.1)">
      <use xlink:href="#DejaVuSans-30"/>
     </g>
    </g>
    <g id="line2d_29">
     <path d="M 325.072656 77.014687 
L 335.072656 77.014687 
L 345.072656 77.014687 
" style="fill: none; stroke: #ff7f0e; stroke-width: 1.5; stroke-linecap: square"/>
    </g>
    <g id="text_18">
     <!-- 16 -->
     <g transform="translate(353.072656 80.514687)scale(0.1 -0.1)">
      <use xlink:href="#DejaVuSans-31"/>
      <use xlink:href="#DejaVuSans-36" x="63.623047"/>
     </g>
    </g>
    <g id="line2d_30">
     <path d="M 325.072656 91.692813 
L 335.072656 91.692813 
L 345.072656 91.692813 
" style="fill: none; stroke: #2ca02c; stroke-width: 1.5; stroke-linecap: square"/>
    </g>
    <g id="text_19">
     <!-- 26 -->
     <g transform="translate(353.072656 95.192813)scale(0.1 -0.1)">
      <use xlink:href="#DejaVuSans-32"/>
      <use xlink:href="#DejaVuSans-36" x="63.623047"/>
     </g>
    </g>
   </g>
  </g>
 </g>
 <defs>
  <clipPath id="p7e737f309e">
   <rect x="54" y="34.56" width="334.8" height="217.44"/>
  </clipPath>
 </defs>
</svg>
