<?xml version="1.0" encoding="utf-8" standalone="no"?>
<!DOCTYPE svg PUBLIC "-//W3C//DTD SVG 1.1//EN"
  "http://www.w3.org/Graphics/SVG/1.1/DTD/svg11.dtd">
<svg xmlns:xlink="http://www.w3.org/1999/xlink" width="432pt" height="288pt" viewBox="0 0 432 288" xmlns="http://www.w3.org/2000/svg" version="1.1">
 <metadata>
  <rdf:RDF xmlns:dc="http://purl.org/dc/elements/1.1/" xmlns:cc="http://creativecommons.org/ns#" xmlns:rdf="http://www.w3.org/1999/02/22-rdf-syntax-ns#">
   <cc:Work>
    <dc:type rdf:resource="http://purl.org/dc/dcmitype/StillImage"/>
    <dc:date>2022-03-30T13:16:47.251441</dc:date>
    <dc:format>image/svg+xml</dc:format>
    <dc:creator>
     <cc:Agent>
      <dc:title>Matplotlib v3.5.1, https://matplotlib.org/</dc:title>
     </cc:Agent>
    </dc:creator>
   </cc:Work>
  </rdf:RDF>
 </metadata>
 <defs>
  <style type="text/css">*{stroke-linejoin: round; stroke-linecap: butt}</style>
 </defs>
 <g id="figure_1">
  <g id="patch_1">
   <path d="M 0 288 
L 432 288 
L 432 0 
L 0 0 
z
" style="fill: #ffffff"/>
  </g>
  <g id="axes_1">
   <g id="patch_2">
    <path d="M 54 252 
L 388.8 252 
L 388.8 34.56 
L 54 34.56 
z
" style="fill: #ffffff"/>
   </g>
   <g id="matplotlib.axis_1">
    <g id="xtick_1">
     <g id="line2d_1">
      <path d="M 69.218182 252 
L 69.218182 34.56 
" clip-path="url(#p117244fb2c)" style="fill: none; stroke: #b0b0b0; stroke-width: 0.8; stroke-linecap: square"/>
     </g>
     <g id="line2d_2">
      <defs>
       <path id="m911abfa035" d="M 0 0 
L 0 3.5 
" style="stroke: #000000; stroke-width: 0.8"/>
      </defs>
      <g>
       <use xlink:href="#m911abfa035" x="69.218182" y="252" style="stroke: #000000; stroke-width: 0.8"/>
      </g>
     </g>
     <g id="text_1">
      <!-- 0 -->
      <g transform="translate(66.036932 266.598437)scale(0.1 -0.1)">
       <defs>
        <path id="DejaVuSans-30" d="M 2034 4250 
Q 1547 4250 1301 3770 
Q 1056 3291 1056 2328 
Q 1056 1369 1301 889 
Q 1547 409 2034 409 
Q 2525 409 2770 889 
Q 3016 1369 3016 2328 
Q 3016 3291 2770 3770 
Q 2525 4250 2034 4250 
z
M 2034 4750 
Q 2819 4750 3233 4129 
Q 3647 3509 3647 2328 
Q 3647 1150 3233 529 
Q 2819 -91 2034 -91 
Q 1250 -91 836 529 
Q 422 1150 422 2328 
Q 422 3509 836 4129 
Q 1250 4750 2034 4750 
z
" transform="scale(0.015625)"/>
       </defs>
       <use xlink:href="#DejaVuSans-30"/>
      </g>
     </g>
    </g>
    <g id="xtick_2">
     <g id="line2d_3">
      <path d="M 128.780537 252 
L 128.780537 34.56 
" clip-path="url(#p117244fb2c)" style="fill: none; stroke: #b0b0b0; stroke-width: 0.8; stroke-linecap: square"/>
     </g>
     <g id="line2d_4">
      <g>
       <use xlink:href="#m911abfa035" x="128.780537" y="252" style="stroke: #000000; stroke-width: 0.8"/>
      </g>
     </g>
     <g id="text_2">
      <!-- 100 -->
      <g transform="translate(119.236787 266.598437)scale(0.1 -0.1)">
       <defs>
        <path id="DejaVuSans-31" d="M 794 531 
L 1825 531 
L 1825 4091 
L 703 3866 
L 703 4441 
L 1819 4666 
L 2450 4666 
L 2450 531 
L 3481 531 
L 3481 0 
L 794 0 
L 794 531 
z
" transform="scale(0.015625)"/>
       </defs>
       <use xlink:href="#DejaVuSans-31"/>
       <use xlink:href="#DejaVuSans-30" x="63.623047"/>
       <use xlink:href="#DejaVuSans-30" x="127.246094"/>
      </g>
     </g>
    </g>
    <g id="xtick_3">
     <g id="line2d_5">
      <path d="M 188.342893 252 
L 188.342893 34.56 
" clip-path="url(#p117244fb2c)" style="fill: none; stroke: #b0b0b0; stroke-width: 0.8; stroke-linecap: square"/>
     </g>
     <g id="line2d_6">
      <g>
       <use xlink:href="#m911abfa035" x="188.342893" y="252" style="stroke: #000000; stroke-width: 0.8"/>
      </g>
     </g>
     <g id="text_3">
      <!-- 200 -->
      <g transform="translate(178.799143 266.598437)scale(0.1 -0.1)">
       <defs>
        <path id="DejaVuSans-32" d="M 1228 531 
L 3431 531 
L 3431 0 
L 469 0 
L 469 531 
Q 828 903 1448 1529 
Q 2069 2156 2228 2338 
Q 2531 2678 2651 2914 
Q 2772 3150 2772 3378 
Q 2772 3750 2511 3984 
Q 2250 4219 1831 4219 
Q 1534 4219 1204 4116 
Q 875 4013 500 3803 
L 500 4441 
Q 881 4594 1212 4672 
Q 1544 4750 1819 4750 
Q 2544 4750 2975 4387 
Q 3406 4025 3406 3419 
Q 3406 3131 3298 2873 
Q 3191 2616 2906 2266 
Q 2828 2175 2409 1742 
Q 1991 1309 1228 531 
z
" transform="scale(0.015625)"/>
       </defs>
       <use xlink:href="#DejaVuSans-32"/>
       <use xlink:href="#DejaVuSans-30" x="63.623047"/>
       <use xlink:href="#DejaVuSans-30" x="127.246094"/>
      </g>
     </g>
    </g>
    <g id="xtick_4">
     <g id="line2d_7">
      <path d="M 247.905248 252 
L 247.905248 34.56 
" clip-path="url(#p117244fb2c)" style="fill: none; stroke: #b0b0b0; stroke-width: 0.8; stroke-linecap: square"/>
     </g>
     <g id="line2d_8">
      <g>
       <use xlink:href="#m911abfa035" x="247.905248" y="252" style="stroke: #000000; stroke-width: 0.8"/>
      </g>
     </g>
     <g id="text_4">
      <!-- 300 -->
      <g transform="translate(238.361498 266.598437)scale(0.1 -0.1)">
       <defs>
        <path id="DejaVuSans-33" d="M 2597 2516 
Q 3050 2419 3304 2112 
Q 3559 1806 3559 1356 
Q 3559 666 3084 287 
Q 2609 -91 1734 -91 
Q 1441 -91 1130 -33 
Q 819 25 488 141 
L 488 750 
Q 750 597 1062 519 
Q 1375 441 1716 441 
Q 2309 441 2620 675 
Q 2931 909 2931 1356 
Q 2931 1769 2642 2001 
Q 2353 2234 1838 2234 
L 1294 2234 
L 1294 2753 
L 1863 2753 
Q 2328 2753 2575 2939 
Q 2822 3125 2822 3475 
Q 2822 3834 2567 4026 
Q 2313 4219 1838 4219 
Q 1578 4219 1281 4162 
Q 984 4106 628 3988 
L 628 4550 
Q 988 4650 1302 4700 
Q 1616 4750 1894 4750 
Q 2613 4750 3031 4423 
Q 3450 4097 3450 3541 
Q 3450 3153 3228 2886 
Q 3006 2619 2597 2516 
z
" transform="scale(0.015625)"/>
       </defs>
       <use xlink:href="#DejaVuSans-33"/>
       <use xlink:href="#DejaVuSans-30" x="63.623047"/>
       <use xlink:href="#DejaVuSans-30" x="127.246094"/>
      </g>
     </g>
    </g>
    <g id="xtick_5">
     <g id="line2d_9">
      <path d="M 307.467604 252 
L 307.467604 34.56 
" clip-path="url(#p117244fb2c)" style="fill: none; stroke: #b0b0b0; stroke-width: 0.8; stroke-linecap: square"/>
     </g>
     <g id="line2d_10">
      <g>
       <use xlink:href="#m911abfa035" x="307.467604" y="252" style="stroke: #000000; stroke-width: 0.8"/>
      </g>
     </g>
     <g id="text_5">
      <!-- 400 -->
      <g transform="translate(297.923854 266.598437)scale(0.1 -0.1)">
       <defs>
        <path id="DejaVuSans-34" d="M 2419 4116 
L 825 1625 
L 2419 1625 
L 2419 4116 
z
M 2253 4666 
L 3047 4666 
L 3047 1625 
L 3713 1625 
L 3713 1100 
L 3047 1100 
L 3047 0 
L 2419 0 
L 2419 1100 
L 313 1100 
L 313 1709 
L 2253 4666 
z
" transform="scale(0.015625)"/>
       </defs>
       <use xlink:href="#DejaVuSans-34"/>
       <use xlink:href="#DejaVuSans-30" x="63.623047"/>
       <use xlink:href="#DejaVuSans-30" x="127.246094"/>
      </g>
     </g>
    </g>
    <g id="xtick_6">
     <g id="line2d_11">
      <path d="M 367.029959 252 
L 367.029959 34.56 
" clip-path="url(#p117244fb2c)" style="fill: none; stroke: #b0b0b0; stroke-width: 0.8; stroke-linecap: square"/>
     </g>
     <g id="line2d_12">
      <g>
       <use xlink:href="#m911abfa035" x="367.029959" y="252" style="stroke: #000000; stroke-width: 0.8"/>
      </g>
     </g>
     <g id="text_6">
      <!-- 500 -->
      <g transform="translate(357.486209 266.598437)scale(0.1 -0.1)">
       <defs>
        <path id="DejaVuSans-35" d="M 691 4666 
L 3169 4666 
L 3169 4134 
L 1269 4134 
L 1269 2991 
Q 1406 3038 1543 3061 
Q 1681 3084 1819 3084 
Q 2600 3084 3056 2656 
Q 3513 2228 3513 1497 
Q 3513 744 3044 326 
Q 2575 -91 1722 -91 
Q 1428 -91 1123 -41 
Q 819 9 494 109 
L 494 744 
Q 775 591 1075 516 
Q 1375 441 1709 441 
Q 2250 441 2565 725 
Q 2881 1009 2881 1497 
Q 2881 1984 2565 2268 
Q 2250 2553 1709 2553 
Q 1456 2553 1204 2497 
Q 953 2441 691 2322 
L 691 4666 
z
" transform="scale(0.015625)"/>
       </defs>
       <use xlink:href="#DejaVuSans-35"/>
       <use xlink:href="#DejaVuSans-30" x="63.623047"/>
       <use xlink:href="#DejaVuSans-30" x="127.246094"/>
      </g>
     </g>
    </g>
    <g id="text_7">
     <!-- bin -->
     <g transform="translate(213.667969 280.276563)scale(0.1 -0.1)">
      <defs>
       <path id="DejaVuSans-62" d="M 3116 1747 
Q 3116 2381 2855 2742 
Q 2594 3103 2138 3103 
Q 1681 3103 1420 2742 
Q 1159 2381 1159 1747 
Q 1159 1113 1420 752 
Q 1681 391 2138 391 
Q 2594 391 2855 752 
Q 3116 1113 3116 1747 
z
M 1159 2969 
Q 1341 3281 1617 3432 
Q 1894 3584 2278 3584 
Q 2916 3584 3314 3078 
Q 3713 2572 3713 1747 
Q 3713 922 3314 415 
Q 2916 -91 2278 -91 
Q 1894 -91 1617 61 
Q 1341 213 1159 525 
L 1159 0 
L 581 0 
L 581 4863 
L 1159 4863 
L 1159 2969 
z
" transform="scale(0.015625)"/>
       <path id="DejaVuSans-69" d="M 603 3500 
L 1178 3500 
L 1178 0 
L 603 0 
L 603 3500 
z
M 603 4863 
L 1178 4863 
L 1178 4134 
L 603 4134 
L 603 4863 
z
" transform="scale(0.015625)"/>
       <path id="DejaVuSans-6e" d="M 3513 2113 
L 3513 0 
L 2938 0 
L 2938 2094 
Q 2938 2591 2744 2837 
Q 2550 3084 2163 3084 
Q 1697 3084 1428 2787 
Q 1159 2491 1159 1978 
L 1159 0 
L 581 0 
L 581 3500 
L 1159 3500 
L 1159 2956 
Q 1366 3272 1645 3428 
Q 1925 3584 2291 3584 
Q 2894 3584 3203 3211 
Q 3513 2838 3513 2113 
z
" transform="scale(0.015625)"/>
      </defs>
      <use xlink:href="#DejaVuSans-62"/>
      <use xlink:href="#DejaVuSans-69" x="63.476562"/>
      <use xlink:href="#DejaVuSans-6e" x="91.259766"/>
     </g>
    </g>
   </g>
   <g id="matplotlib.axis_2">
    <g id="ytick_1">
     <g id="line2d_13">
      <path d="M 54 252 
L 388.8 252 
" clip-path="url(#p117244fb2c)" style="fill: none; stroke: #b0b0b0; stroke-width: 0.8; stroke-linecap: square"/>
     </g>
     <g id="line2d_14">
      <defs>
       <path id="m3e4467eb4f" d="M 0 0 
L -3.5 0 
" style="stroke: #000000; stroke-width: 0.8"/>
      </defs>
      <g>
       <use xlink:href="#m3e4467eb4f" x="54" y="252" style="stroke: #000000; stroke-width: 0.8"/>
      </g>
     </g>
     <g id="text_8">
      <!-- 0.0 -->
      <g transform="translate(31.096875 255.799219)scale(0.1 -0.1)">
       <defs>
        <path id="DejaVuSans-2e" d="M 684 794 
L 1344 794 
L 1344 0 
L 684 0 
L 684 794 
z
" transform="scale(0.015625)"/>
       </defs>
       <use xlink:href="#DejaVuSans-30"/>
       <use xlink:href="#DejaVuSans-2e" x="63.623047"/>
       <use xlink:href="#DejaVuSans-30" x="95.410156"/>
      </g>
     </g>
    </g>
    <g id="ytick_2">
     <g id="line2d_15">
      <path d="M 54 208.512 
L 388.8 208.512 
" clip-path="url(#p117244fb2c)" style="fill: none; stroke: #b0b0b0; stroke-width: 0.8; stroke-linecap: square"/>
     </g>
     <g id="line2d_16">
      <g>
       <use xlink:href="#m3e4467eb4f" x="54" y="208.512" style="stroke: #000000; stroke-width: 0.8"/>
      </g>
     </g>
     <g id="text_9">
      <!-- 0.2 -->
      <g transform="translate(31.096875 212.311219)scale(0.1 -0.1)">
       <use xlink:href="#DejaVuSans-30"/>
       <use xlink:href="#DejaVuSans-2e" x="63.623047"/>
       <use xlink:href="#DejaVuSans-32" x="95.410156"/>
      </g>
     </g>
    </g>
    <g id="ytick_3">
     <g id="line2d_17">
      <path d="M 54 165.024 
L 388.8 165.024 
" clip-path="url(#p117244fb2c)" style="fill: none; stroke: #b0b0b0; stroke-width: 0.8; stroke-linecap: square"/>
     </g>
     <g id="line2d_18">
      <g>
       <use xlink:href="#m3e4467eb4f" x="54" y="165.024" style="stroke: #000000; stroke-width: 0.8"/>
      </g>
     </g>
     <g id="text_10">
      <!-- 0.4 -->
      <g transform="translate(31.096875 168.823219)scale(0.1 -0.1)">
       <use xlink:href="#DejaVuSans-30"/>
       <use xlink:href="#DejaVuSans-2e" x="63.623047"/>
       <use xlink:href="#DejaVuSans-34" x="95.410156"/>
      </g>
     </g>
    </g>
    <g id="ytick_4">
     <g id="line2d_19">
      <path d="M 54 121.536 
L 388.8 121.536 
" clip-path="url(#p117244fb2c)" style="fill: none; stroke: #b0b0b0; stroke-width: 0.8; stroke-linecap: square"/>
     </g>
     <g id="line2d_20">
      <g>
       <use xlink:href="#m3e4467eb4f" x="54" y="121.536" style="stroke: #000000; stroke-width: 0.8"/>
      </g>
     </g>
     <g id="text_11">
      <!-- 0.6 -->
      <g transform="translate(31.096875 125.335219)scale(0.1 -0.1)">
       <defs>
        <path id="DejaVuSans-36" d="M 2113 2584 
Q 1688 2584 1439 2293 
Q 1191 2003 1191 1497 
Q 1191 994 1439 701 
Q 1688 409 2113 409 
Q 2538 409 2786 701 
Q 3034 994 3034 1497 
Q 3034 2003 2786 2293 
Q 2538 2584 2113 2584 
z
M 3366 4563 
L 3366 3988 
Q 3128 4100 2886 4159 
Q 2644 4219 2406 4219 
Q 1781 4219 1451 3797 
Q 1122 3375 1075 2522 
Q 1259 2794 1537 2939 
Q 1816 3084 2150 3084 
Q 2853 3084 3261 2657 
Q 3669 2231 3669 1497 
Q 3669 778 3244 343 
Q 2819 -91 2113 -91 
Q 1303 -91 875 529 
Q 447 1150 447 2328 
Q 447 3434 972 4092 
Q 1497 4750 2381 4750 
Q 2619 4750 2861 4703 
Q 3103 4656 3366 4563 
z
" transform="scale(0.015625)"/>
       </defs>
       <use xlink:href="#DejaVuSans-30"/>
       <use xlink:href="#DejaVuSans-2e" x="63.623047"/>
       <use xlink:href="#DejaVuSans-36" x="95.410156"/>
      </g>
     </g>
    </g>
    <g id="ytick_5">
     <g id="line2d_21">
      <path d="M 54 78.048 
L 388.8 78.048 
" clip-path="url(#p117244fb2c)" style="fill: none; stroke: #b0b0b0; stroke-width: 0.8; stroke-linecap: square"/>
     </g>
     <g id="line2d_22">
      <g>
       <use xlink:href="#m3e4467eb4f" x="54" y="78.048" style="stroke: #000000; stroke-width: 0.8"/>
      </g>
     </g>
     <g id="text_12">
      <!-- 0.8 -->
      <g transform="translate(31.096875 81.847219)scale(0.1 -0.1)">
       <defs>
        <path id="DejaVuSans-38" d="M 2034 2216 
Q 1584 2216 1326 1975 
Q 1069 1734 1069 1313 
Q 1069 891 1326 650 
Q 1584 409 2034 409 
Q 2484 409 2743 651 
Q 3003 894 3003 1313 
Q 3003 1734 2745 1975 
Q 2488 2216 2034 2216 
z
M 1403 2484 
Q 997 2584 770 2862 
Q 544 3141 544 3541 
Q 544 4100 942 4425 
Q 1341 4750 2034 4750 
Q 2731 4750 3128 4425 
Q 3525 4100 3525 3541 
Q 3525 3141 3298 2862 
Q 3072 2584 2669 2484 
Q 3125 2378 3379 2068 
Q 3634 1759 3634 1313 
Q 3634 634 3220 271 
Q 2806 -91 2034 -91 
Q 1263 -91 848 271 
Q 434 634 434 1313 
Q 434 1759 690 2068 
Q 947 2378 1403 2484 
z
M 1172 3481 
Q 1172 3119 1398 2916 
Q 1625 2713 2034 2713 
Q 2441 2713 2670 2916 
Q 2900 3119 2900 3481 
Q 2900 3844 2670 4047 
Q 2441 4250 2034 4250 
Q 1625 4250 1398 4047 
Q 1172 3844 1172 3481 
z
" transform="scale(0.015625)"/>
       </defs>
       <use xlink:href="#DejaVuSans-30"/>
       <use xlink:href="#DejaVuSans-2e" x="63.623047"/>
       <use xlink:href="#DejaVuSans-38" x="95.410156"/>
      </g>
     </g>
    </g>
    <g id="ytick_6">
     <g id="line2d_23">
      <path d="M 54 34.56 
L 388.8 34.56 
" clip-path="url(#p117244fb2c)" style="fill: none; stroke: #b0b0b0; stroke-width: 0.8; stroke-linecap: square"/>
     </g>
     <g id="line2d_24">
      <g>
       <use xlink:href="#m3e4467eb4f" x="54" y="34.56" style="stroke: #000000; stroke-width: 0.8"/>
      </g>
     </g>
     <g id="text_13">
      <!-- 1.0 -->
      <g transform="translate(31.096875 38.359219)scale(0.1 -0.1)">
       <use xlink:href="#DejaVuSans-31"/>
       <use xlink:href="#DejaVuSans-2e" x="63.623047"/>
       <use xlink:href="#DejaVuSans-30" x="95.410156"/>
      </g>
     </g>
    </g>
    <g id="text_14">
     <!-- count -->
     <g transform="translate(25.017187 157.38625)rotate(-90)scale(0.1 -0.1)">
      <defs>
       <path id="DejaVuSans-63" d="M 3122 3366 
L 3122 2828 
Q 2878 2963 2633 3030 
Q 2388 3097 2138 3097 
Q 1578 3097 1268 2742 
Q 959 2388 959 1747 
Q 959 1106 1268 751 
Q 1578 397 2138 397 
Q 2388 397 2633 464 
Q 2878 531 3122 666 
L 3122 134 
Q 2881 22 2623 -34 
Q 2366 -91 2075 -91 
Q 1284 -91 818 406 
Q 353 903 353 1747 
Q 353 2603 823 3093 
Q 1294 3584 2113 3584 
Q 2378 3584 2631 3529 
Q 2884 3475 3122 3366 
z
" transform="scale(0.015625)"/>
       <path id="DejaVuSans-6f" d="M 1959 3097 
Q 1497 3097 1228 2736 
Q 959 2375 959 1747 
Q 959 1119 1226 758 
Q 1494 397 1959 397 
Q 2419 397 2687 759 
Q 2956 1122 2956 1747 
Q 2956 2369 2687 2733 
Q 2419 3097 1959 3097 
z
M 1959 3584 
Q 2709 3584 3137 3096 
Q 3566 2609 3566 1747 
Q 3566 888 3137 398 
Q 2709 -91 1959 -91 
Q 1206 -91 779 398 
Q 353 888 353 1747 
Q 353 2609 779 3096 
Q 1206 3584 1959 3584 
z
" transform="scale(0.015625)"/>
       <path id="DejaVuSans-75" d="M 544 1381 
L 544 3500 
L 1119 3500 
L 1119 1403 
Q 1119 906 1312 657 
Q 1506 409 1894 409 
Q 2359 409 2629 706 
Q 2900 1003 2900 1516 
L 2900 3500 
L 3475 3500 
L 3475 0 
L 2900 0 
L 2900 538 
Q 2691 219 2414 64 
Q 2138 -91 1772 -91 
Q 1169 -91 856 284 
Q 544 659 544 1381 
z
M 1991 3584 
L 1991 3584 
z
" transform="scale(0.015625)"/>
       <path id="DejaVuSans-74" d="M 1172 4494 
L 1172 3500 
L 2356 3500 
L 2356 3053 
L 1172 3053 
L 1172 1153 
Q 1172 725 1289 603 
Q 1406 481 1766 481 
L 2356 481 
L 2356 0 
L 1766 0 
Q 1100 0 847 248 
Q 594 497 594 1153 
L 594 3053 
L 172 3053 
L 172 3500 
L 594 3500 
L 594 4494 
L 1172 4494 
z
" transform="scale(0.015625)"/>
      </defs>
      <use xlink:href="#DejaVuSans-63"/>
      <use xlink:href="#DejaVuSans-6f" x="54.980469"/>
      <use xlink:href="#DejaVuSans-75" x="116.162109"/>
      <use xlink:href="#DejaVuSans-6e" x="179.541016"/>
      <use xlink:href="#DejaVuSans-74" x="242.919922"/>
     </g>
    </g>
   </g>
   <g id="line2d_25">
    <path d="M 69.218182 223.496629 
L 69.813805 234.897978 
L 70.409429 217.795955 
L 71.005052 251.185618 
L 71.600676 215.352809 
L 72.1963 230.011685 
L 73.387547 228.382921 
L 73.98317 233.269213 
L 74.578794 225.939775 
L 75.174417 234.897978 
L 75.770041 223.496629 
L 76.365664 219.424719 
L 76.961288 243.041798 
L 77.556912 212.095281 
L 78.152535 208.023371 
L 78.748159 234.083596 
L 79.343782 200.693933 
L 79.939406 213.724045 
L 80.535029 213.724045 
L 81.130653 233.269213 
L 81.726276 219.424719 
L 82.3219 231.640449 
L 82.917524 227.568539 
L 84.108771 215.352809 
L 84.704394 232.454831 
L 85.300018 230.011685 
L 85.895641 230.011685 
L 86.491265 220.239101 
L 87.086888 216.167191 
L 87.682512 226.754157 
L 88.278136 209.652135 
L 88.873759 245.484944 
L 89.469383 221.867865 
L 90.065006 232.454831 
L 90.66063 221.867865 
L 91.256253 220.239101 
L 91.851877 226.754157 
L 92.4475 244.670562 
L 93.043124 230.826067 
L 93.638748 229.197303 
L 94.234371 232.454831 
L 94.829995 216.167191 
L 95.425618 217.795955 
L 96.021242 245.484944 
L 96.616865 221.867865 
L 97.212489 208.837753 
L 97.808112 214.538427 
L 98.403736 198.250787 
L 98.99936 223.496629 
L 99.594983 230.826067 
L 100.190607 199.065169 
L 100.78623 223.496629 
L 101.381854 225.939775 
L 101.977477 239.78427 
L 102.573101 233.269213 
L 103.168724 225.125393 
L 103.764348 215.352809 
L 104.359972 234.083596 
L 104.955595 221.867865 
L 105.551219 214.538427 
L 106.146842 230.011685 
L 106.742466 238.155506 
L 107.338089 231.640449 
L 107.933713 219.424719 
L 108.529336 217.795955 
L 109.12496 210.466517 
L 109.720584 208.023371 
L 110.316207 225.939775 
L 110.911831 197.436404 
L 111.507454 243.85618 
L 112.103078 224.311011 
L 112.698701 244.670562 
L 113.294325 216.981573 
L 113.889948 229.197303 
L 114.485572 216.981573 
L 115.081196 208.023371 
L 115.676819 234.897978 
L 116.272443 231.640449 
L 116.868066 207.208989 
L 117.46369 225.939775 
L 118.059313 222.682247 
L 118.654937 223.496629 
L 119.25056 226.754157 
L 119.846184 220.239101 
L 120.441808 224.311011 
L 121.037431 233.269213 
L 121.633055 221.053483 
L 122.228678 212.909663 
L 122.824302 213.724045 
L 123.419925 222.682247 
L 124.015549 229.197303 
L 124.611172 237.341124 
L 125.206796 208.837753 
L 125.802419 239.78427 
L 126.398043 211.280899 
L 126.993667 212.909663 
L 127.58929 220.239101 
L 128.184914 224.311011 
L 128.780537 242.227416 
L 129.376161 221.053483 
L 129.971784 228.382921 
L 130.567408 220.239101 
L 131.163031 202.322697 
L 131.758655 223.496629 
L 132.354279 224.311011 
L 132.949902 220.239101 
L 133.545526 206.394607 
L 134.141149 216.981573 
L 134.736773 235.71236 
L 135.332396 225.939775 
L 135.92802 212.095281 
L 136.523643 216.167191 
L 137.119267 236.526742 
L 137.714891 221.867865 
L 138.310514 213.724045 
L 138.906138 213.724045 
L 139.501761 246.299326 
L 140.097385 227.568539 
L 140.693008 201.508315 
L 141.288632 185.220674 
L 141.884255 240.598652 
L 142.479879 238.969888 
L 143.075503 252 
L 143.671126 228.382921 
L 144.26675 233.269213 
L 144.862373 224.311011 
L 145.457997 230.011685 
L 146.05362 229.197303 
L 146.649244 224.311011 
L 147.244867 213.724045 
L 147.840491 235.71236 
L 148.436115 228.382921 
L 149.031738 207.208989 
L 149.627362 227.568539 
L 150.222985 225.939775 
L 150.818609 223.496629 
L 151.414232 217.795955 
L 152.009856 220.239101 
L 152.605479 234.083596 
L 153.201103 217.795955 
L 153.796727 225.939775 
L 154.39235 229.197303 
L 154.987974 217.795955 
L 156.179221 236.526742 
L 156.774844 225.939775 
L 157.370468 243.041798 
L 157.966091 244.670562 
L 158.561715 218.610337 
L 159.157339 224.311011 
L 159.752962 244.670562 
L 160.348586 225.125393 
L 160.944209 213.724045 
L 161.539833 220.239101 
L 162.135456 217.795955 
L 162.73108 233.269213 
L 163.326703 221.053483 
L 163.922327 231.640449 
L 164.517951 221.053483 
L 165.113574 217.795955 
L 165.709198 232.454831 
L 166.304821 230.011685 
L 166.900445 225.125393 
L 167.496068 206.394607 
L 168.091692 234.897978 
L 168.687315 243.041798 
L 169.878563 226.754157 
L 170.474186 232.454831 
L 171.665433 208.023371 
L 172.261057 234.897978 
L 172.85668 245.484944 
L 173.452304 212.095281 
L 174.047927 230.011685 
L 174.643551 234.897978 
L 175.239175 206.394607 
L 175.834798 203.137079 
L 176.430422 211.280899 
L 177.026045 227.568539 
L 177.621669 231.640449 
L 178.217292 249.556854 
L 178.812916 216.981573 
L 179.408539 221.867865 
L 180.004163 241.413034 
L 180.599787 230.011685 
L 181.19541 231.640449 
L 181.791034 216.981573 
L 182.386657 224.311011 
L 182.982281 246.299326 
L 183.577904 221.867865 
L 184.173528 216.167191 
L 184.769151 227.568539 
L 185.364775 215.352809 
L 185.960399 217.795955 
L 186.556022 235.71236 
L 187.151646 212.095281 
L 187.747269 239.78427 
L 188.342893 224.311011 
L 188.938516 232.454831 
L 189.53414 225.125393 
L 190.129763 215.352809 
L 190.725387 196.622022 
L 191.32101 223.496629 
L 191.916634 211.280899 
L 192.512258 216.167191 
L 193.107881 216.981573 
L 193.703505 236.526742 
L 194.299128 236.526742 
L 194.894752 216.167191 
L 195.490375 218.610337 
L 196.085999 214.538427 
L 196.681622 236.526742 
L 197.277246 212.095281 
L 197.87287 238.155506 
L 198.468493 226.754157 
L 199.064117 227.568539 
L 199.65974 197.436404 
L 200.255364 211.280899 
L 200.850987 230.826067 
L 201.446611 224.311011 
L 202.042234 209.652135 
L 202.637858 227.568539 
L 203.233482 223.496629 
L 203.829105 227.568539 
L 205.020352 240.598652 
L 206.211599 226.754157 
L 207.402846 231.640449 
L 207.99847 210.466517 
L 208.594094 232.454831 
L 209.189717 215.352809 
L 209.785341 242.227416 
L 210.380964 236.526742 
L 210.976588 241.413034 
L 211.572211 216.167191 
L 212.763458 229.197303 
L 213.359082 224.311011 
L 213.954706 238.155506 
L 214.550329 238.155506 
L 215.145953 230.826067 
L 215.741576 220.239101 
L 216.3372 243.041798 
L 216.932823 219.424719 
L 217.528447 226.754157 
L 218.12407 221.867865 
L 218.719694 230.826067 
L 219.315318 250.371236 
L 219.910941 217.795955 
L 220.506565 230.826067 
L 221.102188 248.742472 
L 221.697812 231.640449 
L 222.293435 219.424719 
L 222.889059 212.095281 
L 223.484682 234.083596 
L 224.080306 216.167191 
L 224.67593 239.78427 
L 225.271553 198.250787 
L 225.867177 168.118652 
L 226.4628 50.033258 
L 227.058424 34.56 
L 227.654047 104.596854 
L 228.249671 143.687191 
L 228.845294 158.346067 
L 229.440918 133.100225 
L 230.036542 119.25573 
L 230.632165 58.177079 
L 231.227789 70.392809 
L 231.823412 64.692135 
L 232.419036 94.82427 
L 233.014659 93.195506 
L 233.610283 148.573483 
L 234.205906 141.244045 
L 234.80153 192.550112 
L 235.397154 203.137079 
L 235.992777 203.951461 
L 236.588401 228.382921 
L 237.184024 230.011685 
L 237.779648 216.167191 
L 238.375271 222.682247 
L 239.566518 229.197303 
L 240.162142 230.011685 
L 240.757766 212.095281 
L 241.353389 234.083596 
L 241.949013 235.71236 
L 242.544636 218.610337 
L 243.14026 221.867865 
L 243.735883 211.280899 
L 244.331507 223.496629 
L 244.92713 231.640449 
L 245.522754 223.496629 
L 246.118378 213.724045 
L 246.714001 220.239101 
L 247.309625 234.083596 
L 247.905248 220.239101 
L 248.500872 193.364494 
L 249.096495 221.867865 
L 249.692119 236.526742 
L 250.883366 211.280899 
L 251.47899 235.71236 
L 252.074613 243.85618 
L 252.670237 230.826067 
L 253.26586 229.197303 
L 253.861484 223.496629 
L 254.457107 231.640449 
L 255.052731 200.693933 
L 255.648354 244.670562 
L 256.243978 212.095281 
L 256.839601 229.197303 
L 258.030849 213.724045 
L 258.626472 237.341124 
L 259.222096 227.568539 
L 259.817719 209.652135 
L 260.413343 225.125393 
L 261.008966 219.424719 
L 261.60459 225.125393 
L 262.200213 232.454831 
L 262.795837 222.682247 
L 263.391461 235.71236 
L 264.582708 208.023371 
L 265.178331 221.867865 
L 265.773955 243.85618 
L 266.369578 235.71236 
L 266.965202 212.909663 
L 267.560825 244.670562 
L 268.156449 229.197303 
L 268.752073 228.382921 
L 269.347696 250.371236 
L 269.94332 200.693933 
L 270.538943 229.197303 
L 271.134567 214.538427 
L 271.73019 244.670562 
L 272.325814 214.538427 
L 272.921437 216.981573 
L 273.517061 227.568539 
L 274.112685 230.826067 
L 274.708308 230.826067 
L 275.303932 207.208989 
L 276.495179 237.341124 
L 277.090802 224.311011 
L 277.686426 208.837753 
L 278.282049 228.382921 
L 278.877673 223.496629 
L 279.473297 216.981573 
L 280.06892 233.269213 
L 280.664544 213.724045 
L 281.260167 220.239101 
L 281.855791 230.011685 
L 282.451414 203.137079 
L 283.047038 215.352809 
L 283.642661 222.682247 
L 284.238285 233.269213 
L 284.833909 231.640449 
L 285.429532 233.269213 
L 286.025156 212.095281 
L 286.620779 224.311011 
L 287.216403 225.125393 
L 287.812026 225.125393 
L 288.40765 234.897978 
L 289.003273 207.208989 
L 289.598897 230.011685 
L 290.194521 239.78427 
L 290.790144 237.341124 
L 291.385768 239.78427 
L 291.981391 238.969888 
L 292.577015 225.125393 
L 293.172638 232.454831 
L 293.768262 209.652135 
L 294.363885 216.167191 
L 294.959509 221.053483 
L 295.555133 217.795955 
L 296.150756 220.239101 
L 296.74638 225.125393 
L 297.342003 225.125393 
L 297.937627 216.981573 
L 298.53325 218.610337 
L 299.128874 227.568539 
L 299.724497 230.011685 
L 300.320121 218.610337 
L 300.915745 225.125393 
L 301.511368 221.867865 
L 302.106992 222.682247 
L 302.702615 219.424719 
L 303.298239 236.526742 
L 303.893862 220.239101 
L 304.489486 217.795955 
L 305.085109 230.826067 
L 305.680733 234.083596 
L 306.276357 223.496629 
L 306.87198 225.939775 
L 307.467604 225.939775 
L 308.063227 221.867865 
L 308.658851 216.981573 
L 309.254474 238.969888 
L 310.445721 219.424719 
L 311.041345 216.167191 
L 311.636969 226.754157 
L 312.232592 222.682247 
L 312.828216 211.280899 
L 313.423839 230.011685 
L 314.019463 221.053483 
L 314.615086 225.125393 
L 315.21071 219.424719 
L 315.806333 233.269213 
L 316.401957 209.652135 
L 316.997581 226.754157 
L 317.593204 211.280899 
L 318.188828 208.023371 
L 318.784451 217.795955 
L 319.380075 230.826067 
L 319.975698 220.239101 
L 321.166945 237.341124 
L 321.762569 221.053483 
L 322.358192 225.939775 
L 322.953816 210.466517 
L 323.54944 230.011685 
L 324.145063 217.795955 
L 324.740687 216.167191 
L 325.33631 233.269213 
L 325.931934 236.526742 
L 326.527557 202.322697 
L 327.123181 232.454831 
L 327.718804 223.496629 
L 328.314428 209.652135 
L 328.910052 226.754157 
L 329.505675 237.341124 
L 330.696922 212.095281 
L 331.292546 216.167191 
L 331.888169 214.538427 
L 332.483793 229.197303 
L 333.079416 212.095281 
L 333.67504 226.754157 
L 334.270664 217.795955 
L 334.866287 220.239101 
L 335.461911 226.754157 
L 336.057534 218.610337 
L 336.653158 229.197303 
L 337.248781 218.610337 
L 337.844405 220.239101 
L 338.440028 232.454831 
L 339.035652 221.053483 
L 339.631276 249.556854 
L 340.226899 212.095281 
L 340.822523 221.867865 
L 341.418146 227.568539 
L 342.01377 243.85618 
L 342.609393 221.053483 
L 343.205017 218.610337 
L 344.396264 244.670562 
L 344.991888 207.208989 
L 345.587511 221.867865 
L 346.183135 225.125393 
L 346.778758 232.454831 
L 347.970005 208.023371 
L 348.565629 225.125393 
L 349.161252 212.909663 
L 349.756876 216.981573 
L 350.3525 228.382921 
L 350.948123 220.239101 
L 351.543747 216.167191 
L 352.13937 238.155506 
L 352.734994 219.424719 
L 353.330617 235.71236 
L 353.926241 216.981573 
L 354.521864 210.466517 
L 355.117488 209.652135 
L 355.713112 234.083596 
L 356.308735 221.867865 
L 356.904359 245.484944 
L 357.499982 216.167191 
L 358.095606 239.78427 
L 358.691229 214.538427 
L 359.286853 231.640449 
L 359.882476 221.053483 
L 360.4781 227.568539 
L 361.073724 216.167191 
L 361.669347 222.682247 
L 362.264971 219.424719 
L 362.860594 223.496629 
L 363.456218 217.795955 
L 364.051841 235.71236 
L 364.647465 237.341124 
L 365.243088 228.382921 
L 365.838712 223.496629 
L 366.434336 234.897978 
L 367.029959 230.011685 
L 367.625583 237.341124 
L 368.221206 226.754157 
L 368.81683 234.897978 
L 369.412453 216.167191 
L 370.008077 208.837753 
L 371.199324 217.795955 
L 371.794948 235.71236 
L 372.390571 222.682247 
L 372.986195 232.454831 
L 373.581818 230.011685 
L 373.581818 230.011685 
" clip-path="url(#p117244fb2c)" style="fill: none; stroke: #1f77b4; stroke-width: 1.5; stroke-linecap: square"/>
   </g>
   <g id="line2d_26">
    <path d="M 69.218182 208.932174 
L 69.813805 212.608696 
L 70.409429 170.591304 
L 71.005052 204.205217 
L 71.600676 227.314783 
L 72.1963 207.881739 
L 72.791923 192.650435 
L 73.387547 204.205217 
L 73.98317 204.205217 
L 74.578794 194.751304 
L 75.174417 196.852174 
L 75.770041 219.436522 
L 76.365664 204.205217 
L 76.961288 179.52 
L 77.556912 206.831304 
L 78.152535 223.638261 
L 78.748159 252 
L 79.343782 170.591304 
L 80.535029 204.205217 
L 81.130653 215.234783 
L 81.726276 195.801739 
L 82.3219 196.852174 
L 82.917524 202.104348 
L 83.513147 190.549565 
L 84.108771 195.801739 
L 84.704394 195.801739 
L 85.300018 215.234783 
L 85.895641 223.113043 
L 86.491265 208.932174 
L 87.086888 191.6 
L 88.278136 218.911304 
L 88.873759 222.062609 
L 89.469383 187.923478 
L 90.065006 229.94087 
L 90.66063 181.62087 
L 91.256253 192.125217 
L 91.851877 192.650435 
L 92.4475 191.074783 
L 93.043124 182.146087 
L 93.638748 209.457391 
L 94.234371 193.175652 
L 94.829995 211.033043 
L 95.425618 192.125217 
L 96.021242 195.801739 
L 96.616865 208.406957 
L 97.212489 215.234783 
L 98.99936 167.965217 
L 99.594983 206.831304 
L 100.190607 178.469565 
L 100.78623 215.234783 
L 101.381854 223.638261 
L 101.977477 188.448696 
L 103.168724 234.667826 
L 103.764348 222.587826 
L 104.359972 177.41913 
L 104.955595 191.6 
L 105.551219 182.671304 
L 106.146842 202.629565 
L 106.742466 216.285217 
L 107.338089 202.629565 
L 107.933713 160.612174 
L 108.529336 219.436522 
L 109.12496 204.205217 
L 109.720584 201.57913 
L 110.316207 198.427826 
L 110.911831 236.768696 
L 111.507454 225.73913 
L 112.103078 176.368696 
L 112.698701 214.709565 
L 113.889948 205.255652 
L 114.485572 185.297391 
L 115.081196 235.193043 
L 115.676819 183.196522 
L 116.272443 197.902609 
L 116.868066 194.226087 
L 117.46369 169.54087 
L 118.059313 195.801739 
L 118.654937 194.226087 
L 119.25056 190.549565 
L 119.846184 206.831304 
L 120.441808 178.469565 
L 121.037431 183.721739 
L 121.633055 211.558261 
L 122.228678 202.629565 
L 123.419925 205.78087 
L 124.015549 206.306087 
L 124.611172 182.146087 
L 125.206796 173.217391 
L 125.802419 196.326957 
L 126.398043 214.184348 
L 126.993667 217.335652 
L 127.58929 201.053913 
L 128.184914 202.104348 
L 128.780537 209.982609 
L 129.376161 141.704348 
L 129.971784 194.751304 
L 130.567408 178.469565 
L 131.163031 189.49913 
L 131.758655 206.306087 
L 132.354279 205.78087 
L 132.949902 198.953043 
L 133.545526 176.368696 
L 134.141149 204.730435 
L 134.736773 179.52 
L 135.332396 193.175652 
L 135.92802 224.163478 
L 136.523643 196.326957 
L 137.119267 192.650435 
L 137.714891 177.41913 
L 138.310514 193.175652 
L 138.906138 232.566957 
L 140.097385 190.549565 
L 140.693008 216.285217 
L 141.288632 165.33913 
L 141.884255 202.629565 
L 142.479879 188.973913 
L 143.075503 204.730435 
L 143.671126 172.166957 
L 144.26675 185.822609 
L 144.862373 225.73913 
L 145.457997 199.478261 
L 146.05362 188.973913 
L 146.649244 241.495652 
L 147.244867 196.852174 
L 147.840491 197.902609 
L 148.436115 179.52 
L 149.031738 193.175652 
L 149.627362 196.326957 
L 150.222985 194.226087 
L 150.818609 215.76 
L 151.414232 224.163478 
L 152.009856 190.549565 
L 152.605479 204.205217 
L 153.201103 202.629565 
L 153.796727 200.003478 
L 154.39235 162.713043 
L 154.987974 173.742609 
L 155.583597 216.285217 
L 156.179221 191.074783 
L 157.370468 177.41913 
L 157.966091 223.638261 
L 158.561715 214.184348 
L 159.157339 219.436522 
L 159.752962 164.813913 
L 160.348586 199.478261 
L 160.944209 178.994783 
L 161.539833 167.44 
L 162.135456 176.368696 
L 162.73108 181.62087 
L 163.326703 238.344348 
L 163.922327 195.276522 
L 164.517951 195.801739 
L 165.113574 198.953043 
L 165.709198 192.125217 
L 166.304821 198.427826 
L 166.900445 207.881739 
L 167.496068 196.326957 
L 168.091692 222.062609 
L 168.687315 214.184348 
L 169.878563 195.801739 
L 170.474186 219.961739 
L 171.06981 216.285217 
L 171.665433 184.246957 
L 172.261057 197.902609 
L 172.85668 250.424348 
L 173.452304 188.448696 
L 174.047927 204.205217 
L 174.643551 187.923478 
L 175.239175 222.587826 
L 175.834798 202.629565 
L 176.430422 194.226087 
L 177.026045 195.801739 
L 177.621669 205.255652 
L 178.217292 222.587826 
L 178.812916 183.196522 
L 179.408539 217.86087 
L 180.004163 182.671304 
L 180.599787 199.478261 
L 181.19541 206.831304 
L 181.791034 183.196522 
L 182.982281 225.213913 
L 183.577904 229.415652 
L 184.173528 186.873043 
L 184.769151 193.70087 
L 185.364775 229.94087 
L 185.960399 191.074783 
L 186.556022 203.154783 
L 187.151646 181.095652 
L 187.747269 172.166957 
L 188.342893 187.923478 
L 188.938516 232.566957 
L 189.53414 196.326957 
L 190.129763 224.163478 
L 190.725387 217.86087 
L 191.32101 178.469565 
L 191.916634 211.033043 
L 192.512258 197.902609 
L 193.107881 212.083478 
L 193.703505 212.608696 
L 194.299128 200.528696 
L 194.894752 217.86087 
L 195.490375 203.68 
L 196.085999 213.133913 
L 196.681622 190.024348 
L 197.277246 186.873043 
L 197.87287 138.027826 
L 198.468493 60.295652 
L 199.064117 36.135652 
L 199.65974 142.754783 
L 200.255364 162.187826 
L 200.850987 149.057391 
L 201.446611 118.594783 
L 202.042234 115.968696 
L 202.637858 34.56 
L 203.829105 67.648696 
L 204.424729 111.766957 
L 205.020352 88.657391 
L 205.615976 146.956522 
L 206.211599 164.288696 
L 206.807223 188.448696 
L 207.402846 146.431304 
L 207.99847 160.612174 
L 208.594094 202.629565 
L 209.189717 166.389565 
L 209.785341 214.709565 
L 210.380964 224.688696 
L 210.976588 198.953043 
L 211.572211 220.486957 
L 212.167835 178.469565 
L 212.763458 214.709565 
L 213.359082 207.356522 
L 213.954706 194.751304 
L 214.550329 219.961739 
L 215.145953 230.466087 
L 215.741576 206.831304 
L 216.3372 208.932174 
L 216.932823 217.86087 
L 217.528447 190.024348 
L 218.12407 217.335652 
L 218.719694 198.427826 
L 219.315318 221.537391 
L 219.910941 184.246957 
L 220.506565 219.961739 
L 221.102188 203.68 
L 221.697812 200.003478 
L 222.293435 219.436522 
L 222.889059 226.264348 
L 223.484682 209.457391 
L 224.080306 204.730435 
L 224.67593 192.125217 
L 225.271553 207.881739 
L 225.867177 200.528696 
L 226.4628 225.213913 
L 227.058424 211.033043 
L 227.654047 202.104348 
L 228.249671 177.41913 
L 228.845294 201.57913 
L 229.440918 205.78087 
L 230.036542 183.721739 
L 230.632165 223.113043 
L 231.227789 206.831304 
L 231.823412 186.347826 
L 232.419036 202.629565 
L 233.014659 215.76 
L 233.610283 220.486957 
L 234.205906 182.146087 
L 234.80153 224.688696 
L 235.397154 229.94087 
L 235.992777 193.70087 
L 236.588401 187.398261 
L 237.184024 198.427826 
L 237.779648 185.297391 
L 238.375271 178.469565 
L 238.970895 196.852174 
L 239.566518 183.721739 
L 240.162142 178.469565 
L 240.757766 206.831304 
L 241.353389 212.083478 
L 241.949013 194.751304 
L 242.544636 194.751304 
L 243.14026 169.015652 
L 243.735883 205.255652 
L 244.331507 192.125217 
L 244.92713 208.406957 
L 246.118378 230.466087 
L 246.714001 211.558261 
L 247.309625 198.427826 
L 247.905248 178.994783 
L 248.500872 207.881739 
L 249.096495 215.76 
L 249.692119 199.478261 
L 250.287742 214.709565 
L 250.883366 215.76 
L 251.47899 217.335652 
L 252.074613 191.6 
L 252.670237 186.873043 
L 253.26586 194.751304 
L 253.861484 178.994783 
L 254.457107 231.516522 
L 255.052731 190.549565 
L 255.648354 211.033043 
L 256.243978 204.730435 
L 256.839601 208.406957 
L 257.435225 223.638261 
L 258.030849 206.831304 
L 258.626472 195.801739 
L 259.222096 193.175652 
L 259.817719 173.217391 
L 260.413343 174.267826 
L 261.008966 221.537391 
L 261.60459 185.297391 
L 262.200213 185.297391 
L 262.795837 203.154783 
L 263.391461 201.053913 
L 263.987084 186.347826 
L 264.582708 212.083478 
L 265.178331 209.982609 
L 265.773955 181.095652 
L 266.369578 216.810435 
L 266.965202 173.217391 
L 267.560825 224.163478 
L 268.156449 207.881739 
L 268.752073 227.84 
L 269.347696 176.893913 
L 269.94332 198.953043 
L 270.538943 225.213913 
L 271.134567 215.234783 
L 271.73019 214.709565 
L 272.325814 196.326957 
L 272.921437 207.881739 
L 273.517061 197.902609 
L 274.112685 192.650435 
L 274.708308 180.570435 
L 275.303932 185.822609 
L 275.899555 197.902609 
L 276.495179 218.386087 
L 277.090802 216.810435 
L 277.686426 205.255652 
L 278.282049 228.890435 
L 279.473297 194.751304 
L 280.06892 194.226087 
L 280.664544 204.730435 
L 281.260167 222.587826 
L 281.855791 196.326957 
L 282.451414 207.881739 
L 283.047038 186.347826 
L 283.642661 205.78087 
L 284.238285 203.68 
L 284.833909 199.478261 
L 285.429532 200.528696 
L 286.025156 205.255652 
L 286.620779 171.116522 
L 287.216403 205.255652 
L 287.812026 207.356522 
L 288.40765 212.608696 
L 289.003273 231.516522 
L 289.598897 182.671304 
L 290.194521 196.326957 
L 291.385768 205.255652 
L 291.981391 196.326957 
L 292.577015 206.831304 
L 293.172638 196.852174 
L 293.768262 222.587826 
L 294.363885 227.314783 
L 294.959509 169.015652 
L 295.555133 208.406957 
L 296.150756 202.104348 
L 297.342003 183.721739 
L 297.937627 197.377391 
L 298.53325 206.306087 
L 299.128874 197.377391 
L 299.724497 213.133913 
L 300.320121 201.57913 
L 300.915745 203.68 
L 301.511368 172.692174 
L 302.106992 178.469565 
L 302.702615 181.095652 
L 303.298239 203.154783 
L 303.893862 214.709565 
L 304.489486 186.347826 
L 305.085109 207.881739 
L 305.680733 210.507826 
L 306.276357 228.890435 
L 306.87198 190.024348 
L 307.467604 223.113043 
L 308.063227 212.608696 
L 309.254474 187.923478 
L 309.850098 188.973913 
L 310.445721 200.528696 
L 311.041345 197.902609 
L 311.636969 183.196522 
L 312.232592 161.662609 
L 312.828216 188.973913 
L 313.423839 168.490435 
L 314.019463 205.78087 
L 314.615086 211.033043 
L 315.21071 178.469565 
L 315.806333 220.486957 
L 316.401957 193.175652 
L 316.997581 183.196522 
L 317.593204 194.226087 
L 318.784451 206.831304 
L 319.380075 232.041739 
L 319.975698 206.831304 
L 320.571322 224.688696 
L 321.166945 188.448696 
L 321.762569 199.478261 
L 322.358192 166.914783 
L 323.54944 218.911304 
L 324.145063 196.852174 
L 324.740687 225.213913 
L 325.33631 180.570435 
L 325.931934 210.507826 
L 326.527557 227.314783 
L 327.123181 178.469565 
L 327.718804 223.638261 
L 328.314428 188.448696 
L 328.910052 204.205217 
L 329.505675 188.973913 
L 330.101299 207.356522 
L 330.696922 214.709565 
L 331.292546 219.961739 
L 331.888169 213.65913 
L 332.483793 178.469565 
L 333.079416 193.175652 
L 333.67504 204.730435 
L 334.270664 188.973913 
L 334.866287 233.092174 
L 335.461911 160.086957 
L 336.057534 188.448696 
L 336.653158 226.789565 
L 337.248781 199.478261 
L 337.844405 187.398261 
L 338.440028 226.264348 
L 339.035652 186.873043 
L 339.631276 198.427826 
L 340.226899 217.335652 
L 340.822523 169.54087 
L 341.418146 186.873043 
L 342.01377 208.932174 
L 342.609393 205.78087 
L 343.205017 205.78087 
L 343.80064 209.982609 
L 344.396264 215.76 
L 345.587511 173.217391 
L 346.183135 207.356522 
L 346.778758 220.486957 
L 347.374382 162.187826 
L 347.970005 214.184348 
L 348.565629 240.445217 
L 349.161252 193.70087 
L 349.756876 186.347826 
L 350.3525 190.549565 
L 350.948123 200.528696 
L 351.543747 180.045217 
L 352.13937 204.730435 
L 352.734994 209.457391 
L 353.330617 174.793043 
L 353.926241 224.163478 
L 354.521864 217.86087 
L 355.117488 219.436522 
L 355.713112 184.772174 
L 356.308735 214.709565 
L 356.904359 182.146087 
L 357.499982 202.104348 
L 358.095606 197.377391 
L 358.691229 209.457391 
L 359.286853 178.469565 
L 359.882476 208.932174 
L 360.4781 181.095652 
L 361.073724 191.6 
L 361.669347 204.730435 
L 362.264971 232.566957 
L 362.860594 182.146087 
L 363.456218 201.053913 
L 364.051841 188.973913 
L 364.647465 208.932174 
L 365.243088 177.41913 
L 365.838712 205.255652 
L 366.434336 207.356522 
L 367.029959 206.831304 
L 367.625583 201.57913 
L 368.221206 181.62087 
L 368.81683 191.074783 
L 369.412453 194.751304 
L 370.008077 183.196522 
L 370.6037 215.76 
L 371.199324 205.255652 
L 371.794948 226.789565 
L 372.390571 192.125217 
L 372.986195 201.053913 
L 373.581818 223.638261 
L 373.581818 223.638261 
" clip-path="url(#p117244fb2c)" style="fill: none; stroke: #ff7f0e; stroke-width: 1.5; stroke-linecap: square"/>
   </g>
   <g id="line2d_27">
    <path d="M 69.218182 222.791642 
L 69.813805 193.583284 
L 70.409429 174.111045 
L 71.005052 213.055522 
L 71.600676 206.564776 
L 72.1963 190.33791 
L 72.791923 209.810149 
L 73.387547 164.374925 
L 73.98317 177.356418 
L 74.578794 232.527761 
L 75.174417 164.374925 
L 75.770041 180.601791 
L 76.365664 229.282388 
L 76.961288 164.374925 
L 77.556912 213.055522 
L 78.152535 213.055522 
L 78.748159 200.07403 
L 79.343782 193.583284 
L 79.939406 190.33791 
L 80.535029 177.356418 
L 81.130653 196.828657 
L 81.726276 180.601791 
L 82.3219 167.620299 
L 82.917524 167.620299 
L 83.513147 196.828657 
L 84.108771 196.828657 
L 84.704394 232.527761 
L 85.300018 232.527761 
L 85.895641 206.564776 
L 86.491265 213.055522 
L 87.086888 151.393433 
L 87.682512 177.356418 
L 88.278136 219.546269 
L 88.873759 187.092537 
L 89.469383 219.546269 
L 90.065006 209.810149 
L 90.66063 177.356418 
L 91.256253 190.33791 
L 91.851877 190.33791 
L 92.4475 167.620299 
L 93.043124 196.828657 
L 93.638748 213.055522 
L 94.234371 174.111045 
L 94.829995 203.319403 
L 95.425618 164.374925 
L 96.021242 200.07403 
L 96.616865 216.300896 
L 97.212489 213.055522 
L 97.808112 229.282388 
L 98.403736 177.356418 
L 99.594983 190.33791 
L 100.78623 232.527761 
L 101.381854 229.282388 
L 101.977477 190.33791 
L 103.168724 226.037015 
L 103.764348 161.129552 
L 104.359972 200.07403 
L 104.955595 183.847164 
L 105.551219 203.319403 
L 106.146842 209.810149 
L 106.742466 206.564776 
L 107.338089 151.393433 
L 107.933713 206.564776 
L 108.529336 141.657313 
L 109.720584 190.33791 
L 110.316207 200.07403 
L 110.911831 235.773134 
L 111.507454 206.564776 
L 112.103078 216.300896 
L 112.698701 102.712836 
L 113.294325 187.092537 
L 113.889948 187.092537 
L 114.485572 161.129552 
L 115.081196 200.07403 
L 115.676819 196.828657 
L 116.272443 200.07403 
L 116.868066 216.300896 
L 117.46369 183.847164 
L 118.059313 219.546269 
L 118.654937 174.111045 
L 119.25056 196.828657 
L 119.846184 193.583284 
L 120.441808 177.356418 
L 121.037431 187.092537 
L 121.633055 180.601791 
L 122.228678 219.546269 
L 122.824302 164.374925 
L 123.419925 200.07403 
L 124.015549 206.564776 
L 124.611172 161.129552 
L 125.206796 203.319403 
L 125.802419 183.847164 
L 126.398043 203.319403 
L 126.993667 180.601791 
L 127.58929 174.111045 
L 128.184914 154.638806 
L 128.780537 164.374925 
L 129.376161 187.092537 
L 129.971784 193.583284 
L 130.567408 229.282388 
L 131.163031 167.620299 
L 131.758655 174.111045 
L 132.354279 177.356418 
L 132.949902 209.810149 
L 133.545526 167.620299 
L 134.141149 187.092537 
L 134.736773 187.092537 
L 135.332396 203.319403 
L 135.92802 190.33791 
L 136.523643 216.300896 
L 137.119267 200.07403 
L 137.714891 157.884179 
L 138.310514 206.564776 
L 138.906138 226.037015 
L 139.501761 193.583284 
L 140.097385 193.583284 
L 140.693008 216.300896 
L 141.288632 209.810149 
L 142.479879 203.319403 
L 143.075503 161.129552 
L 143.671126 170.865672 
L 144.26675 148.14806 
L 144.862373 203.319403 
L 145.457997 183.847164 
L 146.05362 203.319403 
L 146.649244 200.07403 
L 147.244867 183.847164 
L 147.840491 183.847164 
L 148.436115 157.884179 
L 149.031738 206.564776 
L 149.627362 209.810149 
L 150.222985 157.884179 
L 150.818609 167.620299 
L 151.414232 141.657313 
L 152.009856 177.356418 
L 152.605479 170.865672 
L 153.201103 200.07403 
L 153.796727 187.092537 
L 154.39235 209.810149 
L 155.583597 183.847164 
L 156.179221 213.055522 
L 156.774844 222.791642 
L 157.370468 193.583284 
L 157.966091 196.828657 
L 158.561715 170.865672 
L 159.157339 216.300896 
L 159.752962 213.055522 
L 160.348586 213.055522 
L 160.944209 190.33791 
L 161.539833 187.092537 
L 162.73108 219.546269 
L 163.326703 206.564776 
L 163.922327 174.111045 
L 164.517951 190.33791 
L 165.113574 213.055522 
L 165.709198 196.828657 
L 166.304821 174.111045 
L 166.900445 187.092537 
L 167.496068 248.754627 
L 168.091692 190.33791 
L 168.687315 229.282388 
L 169.282939 203.319403 
L 169.878563 209.810149 
L 170.474186 164.374925 
L 171.06981 161.129552 
L 171.665433 200.07403 
L 172.261057 203.319403 
L 172.85668 196.828657 
L 173.452304 193.583284 
L 174.047927 200.07403 
L 174.643551 209.810149 
L 175.239175 209.810149 
L 175.834798 177.356418 
L 176.430422 193.583284 
L 177.026045 170.865672 
L 177.621669 190.33791 
L 178.217292 200.07403 
L 178.812916 213.055522 
L 180.004163 170.865672 
L 180.599787 183.847164 
L 181.19541 209.810149 
L 182.386657 216.300896 
L 182.982281 203.319403 
L 183.577904 203.319403 
L 184.173528 180.601791 
L 184.769151 200.07403 
L 185.364775 161.129552 
L 185.960399 216.300896 
L 186.556022 222.791642 
L 187.151646 206.564776 
L 187.747269 203.319403 
L 188.342893 170.865672 
L 188.938516 161.129552 
L 189.53414 209.810149 
L 190.129763 200.07403 
L 190.725387 187.092537 
L 191.32101 167.620299 
L 191.916634 190.33791 
L 192.512258 174.111045 
L 193.107881 112.448955 
L 193.703505 190.33791 
L 194.299128 180.601791 
L 194.894752 235.773134 
L 195.490375 196.828657 
L 196.085999 213.055522 
L 196.681622 190.33791 
L 197.277246 239.018507 
L 197.87287 206.564776 
L 198.468493 190.33791 
L 199.064117 190.33791 
L 199.65974 154.638806 
L 200.255364 187.092537 
L 200.850987 213.055522 
L 201.446611 216.300896 
L 202.042234 170.865672 
L 202.637858 187.092537 
L 203.233482 177.356418 
L 203.829105 157.884179 
L 204.424729 193.583284 
L 205.020352 174.111045 
L 205.615976 203.319403 
L 206.211599 167.620299 
L 206.807223 164.374925 
L 207.402846 229.282388 
L 207.99847 180.601791 
L 208.594094 200.07403 
L 209.189717 203.319403 
L 209.785341 167.620299 
L 210.380964 209.810149 
L 210.976588 187.092537 
L 211.572211 193.583284 
L 212.167835 187.092537 
L 212.763458 196.828657 
L 213.359082 219.546269 
L 213.954706 206.564776 
L 214.550329 239.018507 
L 215.145953 183.847164 
L 215.741576 219.546269 
L 216.3372 196.828657 
L 216.932823 183.847164 
L 217.528447 157.884179 
L 218.12407 200.07403 
L 218.719694 206.564776 
L 219.315318 193.583284 
L 220.506565 161.129552 
L 221.102188 167.620299 
L 221.697812 196.828657 
L 222.293435 180.601791 
L 222.889059 203.319403 
L 223.484682 206.564776 
L 224.080306 170.865672 
L 225.271553 206.564776 
L 225.867177 235.773134 
L 226.4628 229.282388 
L 227.058424 183.847164 
L 227.654047 232.527761 
L 228.249671 164.374925 
L 228.845294 193.583284 
L 229.440918 177.356418 
L 230.036542 180.601791 
L 230.632165 213.055522 
L 231.227789 206.564776 
L 231.823412 196.828657 
L 232.419036 226.037015 
L 233.014659 148.14806 
L 233.610283 177.356418 
L 234.205906 164.374925 
L 234.80153 206.564776 
L 235.397154 167.620299 
L 236.588401 200.07403 
L 237.184024 203.319403 
L 237.779648 219.546269 
L 238.375271 193.583284 
L 238.970895 213.055522 
L 239.566518 180.601791 
L 240.162142 183.847164 
L 240.757766 209.810149 
L 241.353389 206.564776 
L 241.949013 177.356418 
L 242.544636 157.884179 
L 243.14026 193.583284 
L 243.735883 183.847164 
L 244.331507 157.884179 
L 244.92713 196.828657 
L 245.522754 125.430448 
L 246.118378 34.56 
L 246.714001 60.522985 
L 247.309625 112.448955 
L 247.905248 122.185075 
L 248.500872 151.393433 
L 249.096495 141.657313 
L 249.692119 92.976716 
L 250.287742 115.694328 
L 250.883366 57.277612 
L 251.47899 109.203582 
L 252.074613 89.731343 
L 252.670237 112.448955 
L 253.26586 92.976716 
L 253.861484 144.902687 
L 254.457107 151.393433 
L 255.052731 183.847164 
L 255.648354 200.07403 
L 256.243978 177.356418 
L 256.839601 196.828657 
L 257.435225 167.620299 
L 258.030849 170.865672 
L 258.626472 177.356418 
L 259.222096 219.546269 
L 259.817719 200.07403 
L 260.413343 213.055522 
L 261.008966 180.601791 
L 261.60459 200.07403 
L 262.200213 183.847164 
L 262.795837 196.828657 
L 263.391461 229.282388 
L 263.987084 248.754627 
L 264.582708 183.847164 
L 265.178331 196.828657 
L 265.773955 180.601791 
L 266.369578 187.092537 
L 266.965202 187.092537 
L 267.560825 183.847164 
L 268.156449 232.527761 
L 268.752073 209.810149 
L 269.347696 209.810149 
L 269.94332 219.546269 
L 270.538943 164.374925 
L 271.134567 177.356418 
L 271.73019 187.092537 
L 272.325814 193.583284 
L 272.921437 187.092537 
L 273.517061 193.583284 
L 274.112685 180.601791 
L 274.708308 190.33791 
L 275.303932 206.564776 
L 275.899555 193.583284 
L 276.495179 209.810149 
L 277.090802 196.828657 
L 277.686426 190.33791 
L 278.282049 213.055522 
L 278.877673 148.14806 
L 279.473297 190.33791 
L 280.06892 196.828657 
L 280.664544 229.282388 
L 281.260167 161.129552 
L 281.855791 190.33791 
L 282.451414 203.319403 
L 283.047038 209.810149 
L 283.642661 151.393433 
L 284.238285 180.601791 
L 284.833909 203.319403 
L 285.429532 174.111045 
L 286.025156 174.111045 
L 286.620779 252 
L 287.216403 164.374925 
L 287.812026 190.33791 
L 288.40765 183.847164 
L 289.003273 222.791642 
L 289.598897 148.14806 
L 290.194521 213.055522 
L 290.790144 138.41194 
L 291.385768 203.319403 
L 292.577015 161.129552 
L 293.172638 213.055522 
L 293.768262 229.282388 
L 294.363885 177.356418 
L 294.959509 190.33791 
L 295.555133 222.791642 
L 296.150756 206.564776 
L 296.74638 193.583284 
L 297.342003 196.828657 
L 297.937627 167.620299 
L 298.53325 193.583284 
L 299.128874 209.810149 
L 299.724497 216.300896 
L 300.320121 187.092537 
L 300.915745 177.356418 
L 301.511368 164.374925 
L 302.106992 187.092537 
L 302.702615 190.33791 
L 303.298239 180.601791 
L 303.893862 216.300896 
L 304.489486 167.620299 
L 305.085109 206.564776 
L 305.680733 183.847164 
L 306.276357 193.583284 
L 306.87198 222.791642 
L 307.467604 196.828657 
L 308.063227 157.884179 
L 308.658851 183.847164 
L 309.254474 216.300896 
L 309.850098 226.037015 
L 310.445721 196.828657 
L 311.041345 203.319403 
L 311.636969 216.300896 
L 312.232592 203.319403 
L 312.828216 174.111045 
L 313.423839 167.620299 
L 314.019463 206.564776 
L 314.615086 216.300896 
L 315.21071 190.33791 
L 315.806333 170.865672 
L 316.401957 187.092537 
L 316.997581 190.33791 
L 317.593204 167.620299 
L 318.188828 193.583284 
L 318.784451 203.319403 
L 319.380075 196.828657 
L 319.975698 203.319403 
L 320.571322 226.037015 
L 321.166945 164.374925 
L 321.762569 203.319403 
L 322.358192 196.828657 
L 322.953816 193.583284 
L 323.54944 187.092537 
L 324.145063 177.356418 
L 324.740687 213.055522 
L 325.33631 167.620299 
L 325.931934 235.773134 
L 327.123181 183.847164 
L 327.718804 183.847164 
L 328.314428 180.601791 
L 328.910052 203.319403 
L 329.505675 167.620299 
L 330.101299 200.07403 
L 330.696922 193.583284 
L 331.292546 174.111045 
L 331.888169 183.847164 
L 332.483793 226.037015 
L 333.079416 206.564776 
L 333.67504 151.393433 
L 334.270664 180.601791 
L 334.866287 154.638806 
L 335.461911 161.129552 
L 336.057534 209.810149 
L 336.653158 177.356418 
L 337.248781 157.884179 
L 337.844405 200.07403 
L 338.440028 196.828657 
L 339.035652 180.601791 
L 339.631276 200.07403 
L 340.226899 209.810149 
L 340.822523 167.620299 
L 342.01377 200.07403 
L 342.609393 177.356418 
L 343.205017 193.583284 
L 343.80064 180.601791 
L 344.396264 206.564776 
L 344.991888 177.356418 
L 345.587511 213.055522 
L 346.183135 209.810149 
L 346.778758 164.374925 
L 347.374382 167.620299 
L 347.970005 200.07403 
L 348.565629 222.791642 
L 349.161252 193.583284 
L 349.756876 190.33791 
L 350.3525 196.828657 
L 350.948123 177.356418 
L 351.543747 242.263881 
L 352.13937 177.356418 
L 352.734994 190.33791 
L 353.330617 200.07403 
L 353.926241 206.564776 
L 354.521864 200.07403 
L 355.117488 196.828657 
L 355.713112 216.300896 
L 356.308735 203.319403 
L 356.904359 187.092537 
L 357.499982 219.546269 
L 358.095606 193.583284 
L 358.691229 180.601791 
L 359.286853 177.356418 
L 359.882476 203.319403 
L 360.4781 196.828657 
L 361.073724 167.620299 
L 361.669347 180.601791 
L 362.264971 183.847164 
L 362.860594 222.791642 
L 363.456218 193.583284 
L 364.051841 183.847164 
L 364.647465 167.620299 
L 365.243088 180.601791 
L 365.838712 177.356418 
L 366.434336 187.092537 
L 367.029959 174.111045 
L 367.625583 213.055522 
L 368.221206 196.828657 
L 368.81683 200.07403 
L 369.412453 193.583284 
L 370.008077 183.847164 
L 370.6037 161.129552 
L 371.199324 232.527761 
L 371.794948 209.810149 
L 372.390571 203.319403 
L 372.986195 180.601791 
L 373.581818 213.055522 
L 373.581818 213.055522 
" clip-path="url(#p117244fb2c)" style="fill: none; stroke: #2ca02c; stroke-width: 1.5; stroke-linecap: square"/>
   </g>
   <g id="patch_3">
    <path d="M 54 252 
L 54 34.56 
" style="fill: none; stroke: #000000; stroke-width: 0.8; stroke-linejoin: miter; stroke-linecap: square"/>
   </g>
   <g id="patch_4">
    <path d="M 388.8 252 
L 388.8 34.56 
" style="fill: none; stroke: #000000; stroke-width: 0.8; stroke-linejoin: miter; stroke-linecap: square"/>
   </g>
   <g id="patch_5">
    <path d="M 54 252 
L 388.8 252 
" style="fill: none; stroke: #000000; stroke-width: 0.8; stroke-linejoin: miter; stroke-linecap: square"/>
   </g>
   <g id="patch_6">
    <path d="M 54 34.56 
L 388.8 34.56 
" style="fill: none; stroke: #000000; stroke-width: 0.8; stroke-linejoin: miter; stroke-linecap: square"/>
   </g>
   <g id="text_15">
    <!-- Label 15 normalized -->
    <g transform="translate(160.423125 28.56)scale(0.12 -0.12)">
     <defs>
      <path id="DejaVuSans-4c" d="M 628 4666 
L 1259 4666 
L 1259 531 
L 3531 531 
L 3531 0 
L 628 0 
L 628 4666 
z
" transform="scale(0.015625)"/>
      <path id="DejaVuSans-61" d="M 2194 1759 
Q 1497 1759 1228 1600 
Q 959 1441 959 1056 
Q 959 750 1161 570 
Q 1363 391 1709 391 
Q 2188 391 2477 730 
Q 2766 1069 2766 1631 
L 2766 1759 
L 2194 1759 
z
M 3341 1997 
L 3341 0 
L 2766 0 
L 2766 531 
Q 2569 213 2275 61 
Q 1981 -91 1556 -91 
Q 1019 -91 701 211 
Q 384 513 384 1019 
Q 384 1609 779 1909 
Q 1175 2209 1959 2209 
L 2766 2209 
L 2766 2266 
Q 2766 2663 2505 2880 
Q 2244 3097 1772 3097 
Q 1472 3097 1187 3025 
Q 903 2953 641 2809 
L 641 3341 
Q 956 3463 1253 3523 
Q 1550 3584 1831 3584 
Q 2591 3584 2966 3190 
Q 3341 2797 3341 1997 
z
" transform="scale(0.015625)"/>
      <path id="DejaVuSans-65" d="M 3597 1894 
L 3597 1613 
L 953 1613 
Q 991 1019 1311 708 
Q 1631 397 2203 397 
Q 2534 397 2845 478 
Q 3156 559 3463 722 
L 3463 178 
Q 3153 47 2828 -22 
Q 2503 -91 2169 -91 
Q 1331 -91 842 396 
Q 353 884 353 1716 
Q 353 2575 817 3079 
Q 1281 3584 2069 3584 
Q 2775 3584 3186 3129 
Q 3597 2675 3597 1894 
z
M 3022 2063 
Q 3016 2534 2758 2815 
Q 2500 3097 2075 3097 
Q 1594 3097 1305 2825 
Q 1016 2553 972 2059 
L 3022 2063 
z
" transform="scale(0.015625)"/>
      <path id="DejaVuSans-6c" d="M 603 4863 
L 1178 4863 
L 1178 0 
L 603 0 
L 603 4863 
z
" transform="scale(0.015625)"/>
      <path id="DejaVuSans-20" transform="scale(0.015625)"/>
      <path id="DejaVuSans-72" d="M 2631 2963 
Q 2534 3019 2420 3045 
Q 2306 3072 2169 3072 
Q 1681 3072 1420 2755 
Q 1159 2438 1159 1844 
L 1159 0 
L 581 0 
L 581 3500 
L 1159 3500 
L 1159 2956 
Q 1341 3275 1631 3429 
Q 1922 3584 2338 3584 
Q 2397 3584 2469 3576 
Q 2541 3569 2628 3553 
L 2631 2963 
z
" transform="scale(0.015625)"/>
      <path id="DejaVuSans-6d" d="M 3328 2828 
Q 3544 3216 3844 3400 
Q 4144 3584 4550 3584 
Q 5097 3584 5394 3201 
Q 5691 2819 5691 2113 
L 5691 0 
L 5113 0 
L 5113 2094 
Q 5113 2597 4934 2840 
Q 4756 3084 4391 3084 
Q 3944 3084 3684 2787 
Q 3425 2491 3425 1978 
L 3425 0 
L 2847 0 
L 2847 2094 
Q 2847 2600 2669 2842 
Q 2491 3084 2119 3084 
Q 1678 3084 1418 2786 
Q 1159 2488 1159 1978 
L 1159 0 
L 581 0 
L 581 3500 
L 1159 3500 
L 1159 2956 
Q 1356 3278 1631 3431 
Q 1906 3584 2284 3584 
Q 2666 3584 2933 3390 
Q 3200 3197 3328 2828 
z
" transform="scale(0.015625)"/>
      <path id="DejaVuSans-7a" d="M 353 3500 
L 3084 3500 
L 3084 2975 
L 922 459 
L 3084 459 
L 3084 0 
L 275 0 
L 275 525 
L 2438 3041 
L 353 3041 
L 353 3500 
z
" transform="scale(0.015625)"/>
      <path id="DejaVuSans-64" d="M 2906 2969 
L 2906 4863 
L 3481 4863 
L 3481 0 
L 2906 0 
L 2906 525 
Q 2725 213 2448 61 
Q 2172 -91 1784 -91 
Q 1150 -91 751 415 
Q 353 922 353 1747 
Q 353 2572 751 3078 
Q 1150 3584 1784 3584 
Q 2172 3584 2448 3432 
Q 2725 3281 2906 2969 
z
M 947 1747 
Q 947 1113 1208 752 
Q 1469 391 1925 391 
Q 2381 391 2643 752 
Q 2906 1113 2906 1747 
Q 2906 2381 2643 2742 
Q 2381 3103 1925 3103 
Q 1469 3103 1208 2742 
Q 947 2381 947 1747 
z
" transform="scale(0.015625)"/>
     </defs>
     <use xlink:href="#DejaVuSans-4c"/>
     <use xlink:href="#DejaVuSans-61" x="55.712891"/>
     <use xlink:href="#DejaVuSans-62" x="116.992188"/>
     <use xlink:href="#DejaVuSans-65" x="180.46875"/>
     <use xlink:href="#DejaVuSans-6c" x="241.992188"/>
     <use xlink:href="#DejaVuSans-20" x="269.775391"/>
     <use xlink:href="#DejaVuSans-31" x="301.5625"/>
     <use xlink:href="#DejaVuSans-35" x="365.185547"/>
     <use xlink:href="#DejaVuSans-20" x="428.808594"/>
     <use xlink:href="#DejaVuSans-6e" x="460.595703"/>
     <use xlink:href="#DejaVuSans-6f" x="523.974609"/>
     <use xlink:href="#DejaVuSans-72" x="585.15625"/>
     <use xlink:href="#DejaVuSans-6d" x="624.519531"/>
     <use xlink:href="#DejaVuSans-61" x="721.931641"/>
     <use xlink:href="#DejaVuSans-6c" x="783.210938"/>
     <use xlink:href="#DejaVuSans-69" x="810.994141"/>
     <use xlink:href="#DejaVuSans-7a" x="838.777344"/>
     <use xlink:href="#DejaVuSans-65" x="891.267578"/>
     <use xlink:href="#DejaVuSans-64" x="952.791016"/>
    </g>
   </g>
   <g id="legend_1">
    <g id="patch_7">
     <path d="M 309.070312 101.2725 
L 381.8 101.2725 
Q 383.8 101.2725 383.8 99.2725 
L 383.8 41.56 
Q 383.8 39.56 381.8 39.56 
L 309.070312 39.56 
Q 307.070312 39.56 307.070312 41.56 
L 307.070312 99.2725 
Q 307.070312 101.2725 309.070312 101.2725 
z
" style="fill: #ffffff; opacity: 0.8; stroke: #cccccc; stroke-linejoin: miter"/>
    </g>
    <g id="text_16">
     <!-- Trace number -->
     <g transform="translate(311.070312 51.158437)scale(0.1 -0.1)">
      <defs>
       <path id="DejaVuSans-54" d="M -19 4666 
L 3928 4666 
L 3928 4134 
L 2272 4134 
L 2272 0 
L 1638 0 
L 1638 4134 
L -19 4134 
L -19 4666 
z
" transform="scale(0.015625)"/>
      </defs>
      <use xlink:href="#DejaVuSans-54"/>
      <use xlink:href="#DejaVuSans-72" x="46.333984"/>
      <use xlink:href="#DejaVuSans-61" x="87.447266"/>
      <use xlink:href="#DejaVuSans-63" x="148.726562"/>
      <use xlink:href="#DejaVuSans-65" x="203.707031"/>
      <use xlink:href="#DejaVuSans-20" x="265.230469"/>
      <use xlink:href="#DejaVuSans-6e" x="297.017578"/>
      <use xlink:href="#DejaVuSans-75" x="360.396484"/>
      <use xlink:href="#DejaVuSans-6d" x="423.775391"/>
      <use xlink:href="#DejaVuSans-62" x="521.1875"/>
      <use xlink:href="#DejaVuSans-65" x="584.664062"/>
      <use xlink:href="#DejaVuSans-72" x="646.1875"/>
     </g>
    </g>
    <g id="line2d_28">
     <path d="M 325.072656 62.336562 
L 335.072656 62.336562 
L 345.072656 62.336562 
" style="fill: none; stroke: #1f77b4; stroke-width: 1.5; stroke-linecap: square"/>
    </g>
    <g id="text_17">
     <!-- 6 -->
     <g transform="translate(353.072656 65.836562)scale(0.1 -0.1)">
      <use xlink:href="#DejaVuSans-36"/>
     </g>
    </g>
    <g id="line2d_29">
     <path d="M 325.072656 77.014687 
L 335.072656 77.014687 
L 345.072656 77.014687 
" style="fill: none; stroke: #ff7f0e; stroke-width: 1.5; stroke-linecap: square"/>
    </g>
    <g id="text_18">
     <!-- 9 -->
     <g transform="translate(353.072656 80.514687)scale(0.1 -0.1)">
      <defs>
       <path id="DejaVuSans-39" d="M 703 97 
L 703 672 
Q 941 559 1184 500 
Q 1428 441 1663 441 
Q 2288 441 2617 861 
Q 2947 1281 2994 2138 
Q 2813 1869 2534 1725 
Q 2256 1581 1919 1581 
Q 1219 1581 811 2004 
Q 403 2428 403 3163 
Q 403 3881 828 4315 
Q 1253 4750 1959 4750 
Q 2769 4750 3195 4129 
Q 3622 3509 3622 2328 
Q 3622 1225 3098 567 
Q 2575 -91 1691 -91 
Q 1453 -91 1209 -44 
Q 966 3 703 97 
z
M 1959 2075 
Q 2384 2075 2632 2365 
Q 2881 2656 2881 3163 
Q 2881 3666 2632 3958 
Q 2384 4250 1959 4250 
Q 1534 4250 1286 3958 
Q 1038 3666 1038 3163 
Q 1038 2656 1286 2365 
Q 1534 2075 1959 2075 
z
" transform="scale(0.015625)"/>
      </defs>
      <use xlink:href="#DejaVuSans-39"/>
     </g>
    </g>
    <g id="line2d_30">
     <path d="M 325.072656 91.692813 
L 335.072656 91.692813 
L 345.072656 91.692813 
" style="fill: none; stroke: #2ca02c; stroke-width: 1.5; stroke-linecap: square"/>
    </g>
    <g id="text_19">
     <!-- 41 -->
     <g transform="translate(353.072656 95.192813)scale(0.1 -0.1)">
      <use xlink:href="#DejaVuSans-34"/>
      <use xlink:href="#DejaVuSans-31" x="63.623047"/>
     </g>
    </g>
   </g>
  </g>
 </g>
 <defs>
  <clipPath id="p117244fb2c">
   <rect x="54" y="34.56" width="334.8" height="217.44"/>
  </clipPath>
 </defs>
</svg>
