<?xml version="1.0" encoding="utf-8" standalone="no"?>
<!DOCTYPE svg PUBLIC "-//W3C//DTD SVG 1.1//EN"
  "http://www.w3.org/Graphics/SVG/1.1/DTD/svg11.dtd">
<svg xmlns:xlink="http://www.w3.org/1999/xlink" width="432pt" height="288pt" viewBox="0 0 432 288" xmlns="http://www.w3.org/2000/svg" version="1.1">
 <metadata>
  <rdf:RDF xmlns:dc="http://purl.org/dc/elements/1.1/" xmlns:cc="http://creativecommons.org/ns#" xmlns:rdf="http://www.w3.org/1999/02/22-rdf-syntax-ns#">
   <cc:Work>
    <dc:type rdf:resource="http://purl.org/dc/dcmitype/StillImage"/>
    <dc:date>2022-03-30T13:16:47.029469</dc:date>
    <dc:format>image/svg+xml</dc:format>
    <dc:creator>
     <cc:Agent>
      <dc:title>Matplotlib v3.5.1, https://matplotlib.org/</dc:title>
     </cc:Agent>
    </dc:creator>
   </cc:Work>
  </rdf:RDF>
 </metadata>
 <defs>
  <style type="text/css">*{stroke-linejoin: round; stroke-linecap: butt}</style>
 </defs>
 <g id="figure_1">
  <g id="patch_1">
   <path d="M 0 288 
L 432 288 
L 432 0 
L 0 0 
z
" style="fill: #ffffff"/>
  </g>
  <g id="axes_1">
   <g id="patch_2">
    <path d="M 54 252 
L 388.8 252 
L 388.8 34.56 
L 54 34.56 
z
" style="fill: #ffffff"/>
   </g>
   <g id="matplotlib.axis_1">
    <g id="xtick_1">
     <g id="line2d_1">
      <path d="M 69.218182 252 
L 69.218182 34.56 
" clip-path="url(#pdd7894020a)" style="fill: none; stroke: #b0b0b0; stroke-width: 0.8; stroke-linecap: square"/>
     </g>
     <g id="line2d_2">
      <defs>
       <path id="mcf3b735760" d="M 0 0 
L 0 3.5 
" style="stroke: #000000; stroke-width: 0.8"/>
      </defs>
      <g>
       <use xlink:href="#mcf3b735760" x="69.218182" y="252" style="stroke: #000000; stroke-width: 0.8"/>
      </g>
     </g>
     <g id="text_1">
      <!-- 0 -->
      <g transform="translate(66.036932 266.598437)scale(0.1 -0.1)">
       <defs>
        <path id="DejaVuSans-30" d="M 2034 4250 
Q 1547 4250 1301 3770 
Q 1056 3291 1056 2328 
Q 1056 1369 1301 889 
Q 1547 409 2034 409 
Q 2525 409 2770 889 
Q 3016 1369 3016 2328 
Q 3016 3291 2770 3770 
Q 2525 4250 2034 4250 
z
M 2034 4750 
Q 2819 4750 3233 4129 
Q 3647 3509 3647 2328 
Q 3647 1150 3233 529 
Q 2819 -91 2034 -91 
Q 1250 -91 836 529 
Q 422 1150 422 2328 
Q 422 3509 836 4129 
Q 1250 4750 2034 4750 
z
" transform="scale(0.015625)"/>
       </defs>
       <use xlink:href="#DejaVuSans-30"/>
      </g>
     </g>
    </g>
    <g id="xtick_2">
     <g id="line2d_3">
      <path d="M 128.780537 252 
L 128.780537 34.56 
" clip-path="url(#pdd7894020a)" style="fill: none; stroke: #b0b0b0; stroke-width: 0.8; stroke-linecap: square"/>
     </g>
     <g id="line2d_4">
      <g>
       <use xlink:href="#mcf3b735760" x="128.780537" y="252" style="stroke: #000000; stroke-width: 0.8"/>
      </g>
     </g>
     <g id="text_2">
      <!-- 100 -->
      <g transform="translate(119.236787 266.598437)scale(0.1 -0.1)">
       <defs>
        <path id="DejaVuSans-31" d="M 794 531 
L 1825 531 
L 1825 4091 
L 703 3866 
L 703 4441 
L 1819 4666 
L 2450 4666 
L 2450 531 
L 3481 531 
L 3481 0 
L 794 0 
L 794 531 
z
" transform="scale(0.015625)"/>
       </defs>
       <use xlink:href="#DejaVuSans-31"/>
       <use xlink:href="#DejaVuSans-30" x="63.623047"/>
       <use xlink:href="#DejaVuSans-30" x="127.246094"/>
      </g>
     </g>
    </g>
    <g id="xtick_3">
     <g id="line2d_5">
      <path d="M 188.342893 252 
L 188.342893 34.56 
" clip-path="url(#pdd7894020a)" style="fill: none; stroke: #b0b0b0; stroke-width: 0.8; stroke-linecap: square"/>
     </g>
     <g id="line2d_6">
      <g>
       <use xlink:href="#mcf3b735760" x="188.342893" y="252" style="stroke: #000000; stroke-width: 0.8"/>
      </g>
     </g>
     <g id="text_3">
      <!-- 200 -->
      <g transform="translate(178.799143 266.598437)scale(0.1 -0.1)">
       <defs>
        <path id="DejaVuSans-32" d="M 1228 531 
L 3431 531 
L 3431 0 
L 469 0 
L 469 531 
Q 828 903 1448 1529 
Q 2069 2156 2228 2338 
Q 2531 2678 2651 2914 
Q 2772 3150 2772 3378 
Q 2772 3750 2511 3984 
Q 2250 4219 1831 4219 
Q 1534 4219 1204 4116 
Q 875 4013 500 3803 
L 500 4441 
Q 881 4594 1212 4672 
Q 1544 4750 1819 4750 
Q 2544 4750 2975 4387 
Q 3406 4025 3406 3419 
Q 3406 3131 3298 2873 
Q 3191 2616 2906 2266 
Q 2828 2175 2409 1742 
Q 1991 1309 1228 531 
z
" transform="scale(0.015625)"/>
       </defs>
       <use xlink:href="#DejaVuSans-32"/>
       <use xlink:href="#DejaVuSans-30" x="63.623047"/>
       <use xlink:href="#DejaVuSans-30" x="127.246094"/>
      </g>
     </g>
    </g>
    <g id="xtick_4">
     <g id="line2d_7">
      <path d="M 247.905248 252 
L 247.905248 34.56 
" clip-path="url(#pdd7894020a)" style="fill: none; stroke: #b0b0b0; stroke-width: 0.8; stroke-linecap: square"/>
     </g>
     <g id="line2d_8">
      <g>
       <use xlink:href="#mcf3b735760" x="247.905248" y="252" style="stroke: #000000; stroke-width: 0.8"/>
      </g>
     </g>
     <g id="text_4">
      <!-- 300 -->
      <g transform="translate(238.361498 266.598437)scale(0.1 -0.1)">
       <defs>
        <path id="DejaVuSans-33" d="M 2597 2516 
Q 3050 2419 3304 2112 
Q 3559 1806 3559 1356 
Q 3559 666 3084 287 
Q 2609 -91 1734 -91 
Q 1441 -91 1130 -33 
Q 819 25 488 141 
L 488 750 
Q 750 597 1062 519 
Q 1375 441 1716 441 
Q 2309 441 2620 675 
Q 2931 909 2931 1356 
Q 2931 1769 2642 2001 
Q 2353 2234 1838 2234 
L 1294 2234 
L 1294 2753 
L 1863 2753 
Q 2328 2753 2575 2939 
Q 2822 3125 2822 3475 
Q 2822 3834 2567 4026 
Q 2313 4219 1838 4219 
Q 1578 4219 1281 4162 
Q 984 4106 628 3988 
L 628 4550 
Q 988 4650 1302 4700 
Q 1616 4750 1894 4750 
Q 2613 4750 3031 4423 
Q 3450 4097 3450 3541 
Q 3450 3153 3228 2886 
Q 3006 2619 2597 2516 
z
" transform="scale(0.015625)"/>
       </defs>
       <use xlink:href="#DejaVuSans-33"/>
       <use xlink:href="#DejaVuSans-30" x="63.623047"/>
       <use xlink:href="#DejaVuSans-30" x="127.246094"/>
      </g>
     </g>
    </g>
    <g id="xtick_5">
     <g id="line2d_9">
      <path d="M 307.467604 252 
L 307.467604 34.56 
" clip-path="url(#pdd7894020a)" style="fill: none; stroke: #b0b0b0; stroke-width: 0.8; stroke-linecap: square"/>
     </g>
     <g id="line2d_10">
      <g>
       <use xlink:href="#mcf3b735760" x="307.467604" y="252" style="stroke: #000000; stroke-width: 0.8"/>
      </g>
     </g>
     <g id="text_5">
      <!-- 400 -->
      <g transform="translate(297.923854 266.598437)scale(0.1 -0.1)">
       <defs>
        <path id="DejaVuSans-34" d="M 2419 4116 
L 825 1625 
L 2419 1625 
L 2419 4116 
z
M 2253 4666 
L 3047 4666 
L 3047 1625 
L 3713 1625 
L 3713 1100 
L 3047 1100 
L 3047 0 
L 2419 0 
L 2419 1100 
L 313 1100 
L 313 1709 
L 2253 4666 
z
" transform="scale(0.015625)"/>
       </defs>
       <use xlink:href="#DejaVuSans-34"/>
       <use xlink:href="#DejaVuSans-30" x="63.623047"/>
       <use xlink:href="#DejaVuSans-30" x="127.246094"/>
      </g>
     </g>
    </g>
    <g id="xtick_6">
     <g id="line2d_11">
      <path d="M 367.029959 252 
L 367.029959 34.56 
" clip-path="url(#pdd7894020a)" style="fill: none; stroke: #b0b0b0; stroke-width: 0.8; stroke-linecap: square"/>
     </g>
     <g id="line2d_12">
      <g>
       <use xlink:href="#mcf3b735760" x="367.029959" y="252" style="stroke: #000000; stroke-width: 0.8"/>
      </g>
     </g>
     <g id="text_6">
      <!-- 500 -->
      <g transform="translate(357.486209 266.598437)scale(0.1 -0.1)">
       <defs>
        <path id="DejaVuSans-35" d="M 691 4666 
L 3169 4666 
L 3169 4134 
L 1269 4134 
L 1269 2991 
Q 1406 3038 1543 3061 
Q 1681 3084 1819 3084 
Q 2600 3084 3056 2656 
Q 3513 2228 3513 1497 
Q 3513 744 3044 326 
Q 2575 -91 1722 -91 
Q 1428 -91 1123 -41 
Q 819 9 494 109 
L 494 744 
Q 775 591 1075 516 
Q 1375 441 1709 441 
Q 2250 441 2565 725 
Q 2881 1009 2881 1497 
Q 2881 1984 2565 2268 
Q 2250 2553 1709 2553 
Q 1456 2553 1204 2497 
Q 953 2441 691 2322 
L 691 4666 
z
" transform="scale(0.015625)"/>
       </defs>
       <use xlink:href="#DejaVuSans-35"/>
       <use xlink:href="#DejaVuSans-30" x="63.623047"/>
       <use xlink:href="#DejaVuSans-30" x="127.246094"/>
      </g>
     </g>
    </g>
    <g id="text_7">
     <!-- bin -->
     <g transform="translate(213.667969 280.276563)scale(0.1 -0.1)">
      <defs>
       <path id="DejaVuSans-62" d="M 3116 1747 
Q 3116 2381 2855 2742 
Q 2594 3103 2138 3103 
Q 1681 3103 1420 2742 
Q 1159 2381 1159 1747 
Q 1159 1113 1420 752 
Q 1681 391 2138 391 
Q 2594 391 2855 752 
Q 3116 1113 3116 1747 
z
M 1159 2969 
Q 1341 3281 1617 3432 
Q 1894 3584 2278 3584 
Q 2916 3584 3314 3078 
Q 3713 2572 3713 1747 
Q 3713 922 3314 415 
Q 2916 -91 2278 -91 
Q 1894 -91 1617 61 
Q 1341 213 1159 525 
L 1159 0 
L 581 0 
L 581 4863 
L 1159 4863 
L 1159 2969 
z
" transform="scale(0.015625)"/>
       <path id="DejaVuSans-69" d="M 603 3500 
L 1178 3500 
L 1178 0 
L 603 0 
L 603 3500 
z
M 603 4863 
L 1178 4863 
L 1178 4134 
L 603 4134 
L 603 4863 
z
" transform="scale(0.015625)"/>
       <path id="DejaVuSans-6e" d="M 3513 2113 
L 3513 0 
L 2938 0 
L 2938 2094 
Q 2938 2591 2744 2837 
Q 2550 3084 2163 3084 
Q 1697 3084 1428 2787 
Q 1159 2491 1159 1978 
L 1159 0 
L 581 0 
L 581 3500 
L 1159 3500 
L 1159 2956 
Q 1366 3272 1645 3428 
Q 1925 3584 2291 3584 
Q 2894 3584 3203 3211 
Q 3513 2838 3513 2113 
z
" transform="scale(0.015625)"/>
      </defs>
      <use xlink:href="#DejaVuSans-62"/>
      <use xlink:href="#DejaVuSans-69" x="63.476562"/>
      <use xlink:href="#DejaVuSans-6e" x="91.259766"/>
     </g>
    </g>
   </g>
   <g id="matplotlib.axis_2">
    <g id="ytick_1">
     <g id="line2d_13">
      <path d="M 54 252 
L 388.8 252 
" clip-path="url(#pdd7894020a)" style="fill: none; stroke: #b0b0b0; stroke-width: 0.8; stroke-linecap: square"/>
     </g>
     <g id="line2d_14">
      <defs>
       <path id="mdeaf5a561f" d="M 0 0 
L -3.5 0 
" style="stroke: #000000; stroke-width: 0.8"/>
      </defs>
      <g>
       <use xlink:href="#mdeaf5a561f" x="54" y="252" style="stroke: #000000; stroke-width: 0.8"/>
      </g>
     </g>
     <g id="text_8">
      <!-- 0.0 -->
      <g transform="translate(31.096875 255.799219)scale(0.1 -0.1)">
       <defs>
        <path id="DejaVuSans-2e" d="M 684 794 
L 1344 794 
L 1344 0 
L 684 0 
L 684 794 
z
" transform="scale(0.015625)"/>
       </defs>
       <use xlink:href="#DejaVuSans-30"/>
       <use xlink:href="#DejaVuSans-2e" x="63.623047"/>
       <use xlink:href="#DejaVuSans-30" x="95.410156"/>
      </g>
     </g>
    </g>
    <g id="ytick_2">
     <g id="line2d_15">
      <path d="M 54 208.512 
L 388.8 208.512 
" clip-path="url(#pdd7894020a)" style="fill: none; stroke: #b0b0b0; stroke-width: 0.8; stroke-linecap: square"/>
     </g>
     <g id="line2d_16">
      <g>
       <use xlink:href="#mdeaf5a561f" x="54" y="208.512" style="stroke: #000000; stroke-width: 0.8"/>
      </g>
     </g>
     <g id="text_9">
      <!-- 0.2 -->
      <g transform="translate(31.096875 212.311219)scale(0.1 -0.1)">
       <use xlink:href="#DejaVuSans-30"/>
       <use xlink:href="#DejaVuSans-2e" x="63.623047"/>
       <use xlink:href="#DejaVuSans-32" x="95.410156"/>
      </g>
     </g>
    </g>
    <g id="ytick_3">
     <g id="line2d_17">
      <path d="M 54 165.024 
L 388.8 165.024 
" clip-path="url(#pdd7894020a)" style="fill: none; stroke: #b0b0b0; stroke-width: 0.8; stroke-linecap: square"/>
     </g>
     <g id="line2d_18">
      <g>
       <use xlink:href="#mdeaf5a561f" x="54" y="165.024" style="stroke: #000000; stroke-width: 0.8"/>
      </g>
     </g>
     <g id="text_10">
      <!-- 0.4 -->
      <g transform="translate(31.096875 168.823219)scale(0.1 -0.1)">
       <use xlink:href="#DejaVuSans-30"/>
       <use xlink:href="#DejaVuSans-2e" x="63.623047"/>
       <use xlink:href="#DejaVuSans-34" x="95.410156"/>
      </g>
     </g>
    </g>
    <g id="ytick_4">
     <g id="line2d_19">
      <path d="M 54 121.536 
L 388.8 121.536 
" clip-path="url(#pdd7894020a)" style="fill: none; stroke: #b0b0b0; stroke-width: 0.8; stroke-linecap: square"/>
     </g>
     <g id="line2d_20">
      <g>
       <use xlink:href="#mdeaf5a561f" x="54" y="121.536" style="stroke: #000000; stroke-width: 0.8"/>
      </g>
     </g>
     <g id="text_11">
      <!-- 0.6 -->
      <g transform="translate(31.096875 125.335219)scale(0.1 -0.1)">
       <defs>
        <path id="DejaVuSans-36" d="M 2113 2584 
Q 1688 2584 1439 2293 
Q 1191 2003 1191 1497 
Q 1191 994 1439 701 
Q 1688 409 2113 409 
Q 2538 409 2786 701 
Q 3034 994 3034 1497 
Q 3034 2003 2786 2293 
Q 2538 2584 2113 2584 
z
M 3366 4563 
L 3366 3988 
Q 3128 4100 2886 4159 
Q 2644 4219 2406 4219 
Q 1781 4219 1451 3797 
Q 1122 3375 1075 2522 
Q 1259 2794 1537 2939 
Q 1816 3084 2150 3084 
Q 2853 3084 3261 2657 
Q 3669 2231 3669 1497 
Q 3669 778 3244 343 
Q 2819 -91 2113 -91 
Q 1303 -91 875 529 
Q 447 1150 447 2328 
Q 447 3434 972 4092 
Q 1497 4750 2381 4750 
Q 2619 4750 2861 4703 
Q 3103 4656 3366 4563 
z
" transform="scale(0.015625)"/>
       </defs>
       <use xlink:href="#DejaVuSans-30"/>
       <use xlink:href="#DejaVuSans-2e" x="63.623047"/>
       <use xlink:href="#DejaVuSans-36" x="95.410156"/>
      </g>
     </g>
    </g>
    <g id="ytick_5">
     <g id="line2d_21">
      <path d="M 54 78.048 
L 388.8 78.048 
" clip-path="url(#pdd7894020a)" style="fill: none; stroke: #b0b0b0; stroke-width: 0.8; stroke-linecap: square"/>
     </g>
     <g id="line2d_22">
      <g>
       <use xlink:href="#mdeaf5a561f" x="54" y="78.048" style="stroke: #000000; stroke-width: 0.8"/>
      </g>
     </g>
     <g id="text_12">
      <!-- 0.8 -->
      <g transform="translate(31.096875 81.847219)scale(0.1 -0.1)">
       <defs>
        <path id="DejaVuSans-38" d="M 2034 2216 
Q 1584 2216 1326 1975 
Q 1069 1734 1069 1313 
Q 1069 891 1326 650 
Q 1584 409 2034 409 
Q 2484 409 2743 651 
Q 3003 894 3003 1313 
Q 3003 1734 2745 1975 
Q 2488 2216 2034 2216 
z
M 1403 2484 
Q 997 2584 770 2862 
Q 544 3141 544 3541 
Q 544 4100 942 4425 
Q 1341 4750 2034 4750 
Q 2731 4750 3128 4425 
Q 3525 4100 3525 3541 
Q 3525 3141 3298 2862 
Q 3072 2584 2669 2484 
Q 3125 2378 3379 2068 
Q 3634 1759 3634 1313 
Q 3634 634 3220 271 
Q 2806 -91 2034 -91 
Q 1263 -91 848 271 
Q 434 634 434 1313 
Q 434 1759 690 2068 
Q 947 2378 1403 2484 
z
M 1172 3481 
Q 1172 3119 1398 2916 
Q 1625 2713 2034 2713 
Q 2441 2713 2670 2916 
Q 2900 3119 2900 3481 
Q 2900 3844 2670 4047 
Q 2441 4250 2034 4250 
Q 1625 4250 1398 4047 
Q 1172 3844 1172 3481 
z
" transform="scale(0.015625)"/>
       </defs>
       <use xlink:href="#DejaVuSans-30"/>
       <use xlink:href="#DejaVuSans-2e" x="63.623047"/>
       <use xlink:href="#DejaVuSans-38" x="95.410156"/>
      </g>
     </g>
    </g>
    <g id="ytick_6">
     <g id="line2d_23">
      <path d="M 54 34.56 
L 388.8 34.56 
" clip-path="url(#pdd7894020a)" style="fill: none; stroke: #b0b0b0; stroke-width: 0.8; stroke-linecap: square"/>
     </g>
     <g id="line2d_24">
      <g>
       <use xlink:href="#mdeaf5a561f" x="54" y="34.56" style="stroke: #000000; stroke-width: 0.8"/>
      </g>
     </g>
     <g id="text_13">
      <!-- 1.0 -->
      <g transform="translate(31.096875 38.359219)scale(0.1 -0.1)">
       <use xlink:href="#DejaVuSans-31"/>
       <use xlink:href="#DejaVuSans-2e" x="63.623047"/>
       <use xlink:href="#DejaVuSans-30" x="95.410156"/>
      </g>
     </g>
    </g>
    <g id="text_14">
     <!-- count -->
     <g transform="translate(25.017187 157.38625)rotate(-90)scale(0.1 -0.1)">
      <defs>
       <path id="DejaVuSans-63" d="M 3122 3366 
L 3122 2828 
Q 2878 2963 2633 3030 
Q 2388 3097 2138 3097 
Q 1578 3097 1268 2742 
Q 959 2388 959 1747 
Q 959 1106 1268 751 
Q 1578 397 2138 397 
Q 2388 397 2633 464 
Q 2878 531 3122 666 
L 3122 134 
Q 2881 22 2623 -34 
Q 2366 -91 2075 -91 
Q 1284 -91 818 406 
Q 353 903 353 1747 
Q 353 2603 823 3093 
Q 1294 3584 2113 3584 
Q 2378 3584 2631 3529 
Q 2884 3475 3122 3366 
z
" transform="scale(0.015625)"/>
       <path id="DejaVuSans-6f" d="M 1959 3097 
Q 1497 3097 1228 2736 
Q 959 2375 959 1747 
Q 959 1119 1226 758 
Q 1494 397 1959 397 
Q 2419 397 2687 759 
Q 2956 1122 2956 1747 
Q 2956 2369 2687 2733 
Q 2419 3097 1959 3097 
z
M 1959 3584 
Q 2709 3584 3137 3096 
Q 3566 2609 3566 1747 
Q 3566 888 3137 398 
Q 2709 -91 1959 -91 
Q 1206 -91 779 398 
Q 353 888 353 1747 
Q 353 2609 779 3096 
Q 1206 3584 1959 3584 
z
" transform="scale(0.015625)"/>
       <path id="DejaVuSans-75" d="M 544 1381 
L 544 3500 
L 1119 3500 
L 1119 1403 
Q 1119 906 1312 657 
Q 1506 409 1894 409 
Q 2359 409 2629 706 
Q 2900 1003 2900 1516 
L 2900 3500 
L 3475 3500 
L 3475 0 
L 2900 0 
L 2900 538 
Q 2691 219 2414 64 
Q 2138 -91 1772 -91 
Q 1169 -91 856 284 
Q 544 659 544 1381 
z
M 1991 3584 
L 1991 3584 
z
" transform="scale(0.015625)"/>
       <path id="DejaVuSans-74" d="M 1172 4494 
L 1172 3500 
L 2356 3500 
L 2356 3053 
L 1172 3053 
L 1172 1153 
Q 1172 725 1289 603 
Q 1406 481 1766 481 
L 2356 481 
L 2356 0 
L 1766 0 
Q 1100 0 847 248 
Q 594 497 594 1153 
L 594 3053 
L 172 3053 
L 172 3500 
L 594 3500 
L 594 4494 
L 1172 4494 
z
" transform="scale(0.015625)"/>
      </defs>
      <use xlink:href="#DejaVuSans-63"/>
      <use xlink:href="#DejaVuSans-6f" x="54.980469"/>
      <use xlink:href="#DejaVuSans-75" x="116.162109"/>
      <use xlink:href="#DejaVuSans-6e" x="179.541016"/>
      <use xlink:href="#DejaVuSans-74" x="242.919922"/>
     </g>
    </g>
   </g>
   <g id="line2d_25">
    <path d="M 69.218182 234.703636 
L 69.813805 231.87974 
L 70.409429 243.881299 
L 71.005052 239.645455 
L 71.600676 233.644675 
L 72.1963 232.585714 
L 72.791923 244.234286 
L 73.387547 234.703636 
L 73.98317 243.175325 
L 74.578794 238.233506 
L 75.174417 244.587273 
L 75.770041 235.40961 
L 76.365664 239.998442 
L 76.961288 233.291688 
L 77.556912 231.87974 
L 78.152535 239.998442 
L 78.748159 243.175325 
L 79.343782 234.350649 
L 79.939406 238.586494 
L 80.535029 237.527532 
L 81.130653 239.645455 
L 81.726276 233.644675 
L 82.3219 226.231948 
L 82.917524 238.233506 
L 83.513147 241.763377 
L 84.108771 231.87974 
L 84.704394 235.762597 
L 85.300018 244.94026 
L 85.895641 223.408052 
L 86.491265 239.292468 
L 87.086888 231.173766 
L 87.682512 244.234286 
L 88.278136 240.704416 
L 88.873759 241.057403 
L 89.469383 239.998442 
L 90.065006 230.467792 
L 90.66063 239.998442 
L 91.851877 237.174545 
L 92.4475 242.116364 
L 93.043124 239.998442 
L 93.638748 239.292468 
L 94.234371 238.233506 
L 94.829995 239.998442 
L 95.425618 239.292468 
L 96.021242 236.821558 
L 96.616865 243.528312 
L 97.212489 238.939481 
L 97.808112 231.87974 
L 98.403736 235.40961 
L 98.99936 232.232727 
L 99.594983 235.40961 
L 100.190607 236.821558 
L 100.78623 242.116364 
L 101.381854 233.291688 
L 101.977477 235.40961 
L 102.573101 234.703636 
L 103.168724 233.291688 
L 103.764348 238.939481 
L 104.359972 249.176104 
L 104.955595 247.764156 
L 105.551219 232.585714 
L 106.146842 243.175325 
L 106.742466 229.761818 
L 107.338089 237.527532 
L 107.933713 243.528312 
L 108.529336 242.116364 
L 109.12496 239.292468 
L 109.720584 235.762597 
L 110.316207 239.645455 
L 110.911831 241.057403 
L 111.507454 235.40961 
L 112.103078 241.763377 
L 112.698701 236.468571 
L 113.294325 245.999221 
L 113.889948 239.645455 
L 114.485572 245.999221 
L 115.081196 233.291688 
L 115.676819 241.763377 
L 116.272443 236.115584 
L 116.868066 241.763377 
L 117.46369 232.585714 
L 118.654937 244.587273 
L 119.25056 239.292468 
L 119.846184 229.408831 
L 120.441808 246.352208 
L 121.037431 243.528312 
L 121.633055 236.468571 
L 122.228678 240.351429 
L 122.824302 241.057403 
L 123.419925 248.47013 
L 124.015549 245.999221 
L 124.611172 248.47013 
L 125.206796 247.058182 
L 125.802419 241.763377 
L 126.398043 238.939481 
L 127.58929 237.527532 
L 128.184914 244.234286 
L 128.780537 231.173766 
L 129.376161 240.351429 
L 129.971784 237.527532 
L 130.567408 231.87974 
L 131.163031 234.703636 
L 131.758655 245.646234 
L 132.354279 236.821558 
L 132.949902 239.998442 
L 133.545526 238.233506 
L 134.141149 235.40961 
L 134.736773 233.997662 
L 135.332396 234.703636 
L 136.523643 248.47013 
L 137.119267 241.41039 
L 137.714891 243.881299 
L 138.310514 238.939481 
L 138.906138 243.881299 
L 139.501761 233.644675 
L 140.097385 241.41039 
L 140.693008 232.938701 
L 141.288632 249.529091 
L 141.884255 236.468571 
L 142.479879 233.291688 
L 143.075503 235.40961 
L 143.671126 238.939481 
L 144.26675 244.587273 
L 144.862373 235.762597 
L 145.457997 238.586494 
L 146.05362 245.646234 
L 146.649244 234.350649 
L 147.244867 238.233506 
L 147.840491 229.761818 
L 148.436115 238.233506 
L 149.031738 248.823117 
L 149.627362 238.586494 
L 150.818609 234.703636 
L 151.414232 236.115584 
L 152.009856 233.997662 
L 152.605479 241.763377 
L 153.201103 240.351429 
L 153.796727 231.173766 
L 154.39235 237.527532 
L 154.987974 249.176104 
L 155.583597 229.408831 
L 156.179221 239.998442 
L 156.774844 241.763377 
L 157.370468 239.292468 
L 157.966091 239.645455 
L 158.561715 234.350649 
L 159.157339 248.47013 
L 159.752962 229.761818 
L 160.348586 243.528312 
L 160.944209 243.528312 
L 161.539833 244.94026 
L 162.135456 238.939481 
L 162.73108 243.881299 
L 163.326703 243.175325 
L 163.922327 246.705195 
L 164.517951 245.293247 
L 165.113574 234.350649 
L 165.709198 234.703636 
L 166.304821 241.41039 
L 166.900445 241.763377 
L 167.496068 241.763377 
L 168.091692 241.057403 
L 168.687315 242.469351 
L 169.282939 240.704416 
L 169.878563 242.822338 
L 170.474186 234.703636 
L 171.06981 233.997662 
L 171.665433 235.762597 
L 172.261057 236.115584 
L 172.85668 228.702857 
L 173.452304 240.704416 
L 174.047927 239.998442 
L 174.643551 237.527532 
L 175.239175 242.469351 
L 175.834798 238.233506 
L 176.430422 241.057403 
L 177.026045 246.705195 
L 177.621669 241.41039 
L 178.217292 234.703636 
L 178.812916 238.586494 
L 179.408539 227.996883 
L 180.004163 240.351429 
L 180.599787 234.350649 
L 181.19541 240.704416 
L 181.791034 236.468571 
L 182.386657 229.055844 
L 182.982281 231.173766 
L 183.577904 245.293247 
L 184.173528 240.351429 
L 184.769151 237.174545 
L 185.364775 248.117143 
L 185.960399 233.644675 
L 186.556022 225.878961 
L 187.151646 230.820779 
L 187.747269 225.878961 
L 188.342893 229.408831 
L 188.938516 224.467013 
L 189.53414 211.759481 
L 190.129763 205.758701 
L 190.725387 193.757143 
L 191.32101 191.992208 
L 191.916634 170.107013 
L 192.512258 169.754026 
L 193.107881 160.223377 
L 193.703505 132.69039 
L 194.299128 148.574805 
L 194.894752 131.278442 
L 195.490375 126.336623 
L 196.085999 133.749351 
L 196.681622 149.633766 
L 197.277246 158.458442 
L 197.87287 163.047273 
L 198.468493 171.165974 
L 199.064117 171.871948 
L 199.65974 203.993766 
L 200.255364 199.757922 
L 200.850987 223.055065 
L 201.446611 231.173766 
L 202.637858 226.231948 
L 203.233482 229.408831 
L 203.829105 241.41039 
L 204.424729 228.702857 
L 205.020352 232.585714 
L 205.615976 249.176104 
L 206.807223 237.527532 
L 207.402846 240.351429 
L 207.99847 235.40961 
L 208.594094 239.292468 
L 209.189717 237.880519 
L 209.785341 241.41039 
L 210.380964 238.939481 
L 210.976588 246.352208 
L 211.572211 238.939481 
L 212.167835 241.057403 
L 212.763458 236.821558 
L 213.359082 244.94026 
L 213.954706 232.232727 
L 214.550329 243.528312 
L 215.145953 240.351429 
L 215.741576 233.997662 
L 216.3372 244.234286 
L 216.932823 237.880519 
L 217.528447 239.645455 
L 218.12407 237.880519 
L 218.719694 242.469351 
L 219.315318 240.351429 
L 219.910941 249.882078 
L 220.506565 252 
L 221.102188 235.762597 
L 221.697812 238.939481 
L 222.293435 238.233506 
L 222.889059 243.175325 
L 223.484682 236.115584 
L 224.080306 237.527532 
L 224.67593 237.527532 
L 225.271553 239.292468 
L 225.867177 244.234286 
L 226.4628 251.294026 
L 227.058424 231.526753 
L 227.654047 231.173766 
L 228.249671 240.704416 
L 228.845294 242.822338 
L 229.440918 241.057403 
L 230.036542 238.233506 
L 230.632165 241.41039 
L 231.227789 239.292468 
L 231.823412 230.467792 
L 232.419036 232.585714 
L 233.014659 231.526753 
L 233.610283 225.878961 
L 234.80153 196.934026 
L 235.397154 184.226494 
L 235.992777 162.694286 
L 236.588401 131.631429 
L 237.184024 117.511948 
L 237.779648 83.272208 
L 238.375271 74.094545 
L 238.970895 76.565455 
L 239.566518 51.15039 
L 240.162142 53.268312 
L 241.353389 70.564675 
L 242.544636 100.568571 
L 243.14026 152.810649 
L 243.735883 161.282338 
L 244.331507 182.461558 
L 244.92713 196.934026 
L 245.522754 203.993766 
L 246.118378 225.525974 
L 246.714001 225.172987 
L 247.309625 236.821558 
L 247.905248 243.528312 
L 248.500872 228.702857 
L 249.096495 241.057403 
L 249.692119 233.997662 
L 250.287742 241.057403 
L 250.883366 238.233506 
L 251.47899 241.057403 
L 252.074613 233.997662 
L 252.670237 234.703636 
L 253.26586 244.234286 
L 253.861484 242.116364 
L 254.457107 244.587273 
L 255.052731 241.057403 
L 255.648354 235.762597 
L 256.243978 236.115584 
L 256.839601 235.056623 
L 257.435225 242.116364 
L 258.030849 245.646234 
L 258.626472 237.527532 
L 259.222096 232.232727 
L 259.817719 235.762597 
L 260.413343 240.351429 
L 261.008966 216.701299 
L 261.60459 228.702857 
L 262.200213 209.641558 
L 262.795837 200.110909 
L 263.391461 176.107792 
L 263.987084 166.224156 
L 264.582708 137.632208 
L 265.178331 93.155844 
L 265.773955 99.156623 
L 266.369578 59.975065 
L 267.560825 34.56 
L 268.156449 37.383896 
L 268.752073 62.092987 
L 269.347696 46.914545 
L 269.94332 99.50961 
L 270.538943 112.217143 
L 271.134567 148.927792 
L 271.73019 166.224156 
L 272.325814 176.107792 
L 272.921437 199.404935 
L 274.708308 237.527532 
L 275.303932 240.351429 
L 276.495179 232.938701 
L 277.090802 242.822338 
L 277.686426 223.055065 
L 278.282049 234.350649 
L 279.473297 242.116364 
L 280.06892 238.586494 
L 280.664544 233.291688 
L 281.260167 231.173766 
L 281.855791 240.351429 
L 282.451414 236.468571 
L 283.047038 235.762597 
L 283.642661 244.587273 
L 284.238285 248.117143 
L 284.833909 248.117143 
L 285.429532 231.526753 
L 286.620779 241.057403 
L 287.216403 240.704416 
L 287.812026 236.115584 
L 288.40765 237.527532 
L 289.003273 236.821558 
L 289.598897 232.232727 
L 290.194521 236.468571 
L 290.790144 244.94026 
L 291.385768 231.526753 
L 291.981391 240.704416 
L 292.577015 242.116364 
L 293.172638 240.351429 
L 293.768262 239.998442 
L 294.363885 240.704416 
L 294.959509 247.764156 
L 296.150756 235.762597 
L 296.74638 240.704416 
L 297.342003 234.703636 
L 297.937627 240.351429 
L 298.53325 240.351429 
L 299.128874 244.234286 
L 299.724497 245.646234 
L 300.320121 237.174545 
L 300.915745 235.40961 
L 301.511368 239.998442 
L 302.106992 238.586494 
L 302.702615 237.880519 
L 303.298239 228.702857 
L 303.893862 240.351429 
L 304.489486 243.881299 
L 305.085109 232.938701 
L 305.680733 231.87974 
L 306.276357 237.880519 
L 306.87198 239.998442 
L 307.467604 236.115584 
L 308.063227 238.939481 
L 308.658851 240.704416 
L 309.254474 250.235065 
L 309.850098 236.821558 
L 310.445721 231.526753 
L 311.041345 238.586494 
L 311.636969 230.820779 
L 312.232592 231.87974 
L 312.828216 244.94026 
L 313.423839 232.232727 
L 314.019463 242.469351 
L 314.615086 243.881299 
L 315.21071 235.056623 
L 315.806333 235.762597 
L 316.401957 243.528312 
L 316.997581 240.704416 
L 317.593204 234.703636 
L 318.188828 232.585714 
L 318.784451 244.234286 
L 319.380075 234.350649 
L 319.975698 232.938701 
L 320.571322 232.232727 
L 321.166945 238.939481 
L 321.762569 240.704416 
L 322.358192 238.233506 
L 322.953816 236.821558 
L 323.54944 235.762597 
L 324.145063 240.351429 
L 324.740687 235.40961 
L 325.33631 238.586494 
L 325.931934 236.115584 
L 326.527557 244.234286 
L 327.123181 218.113247 
L 327.718804 242.822338 
L 328.314428 240.351429 
L 328.910052 235.056623 
L 329.505675 237.527532 
L 330.101299 230.820779 
L 330.696922 248.117143 
L 331.292546 239.645455 
L 331.888169 242.822338 
L 332.483793 230.467792 
L 333.079416 240.704416 
L 333.67504 241.41039 
L 334.270664 227.996883 
L 334.866287 244.234286 
L 335.461911 232.232727 
L 336.057534 243.881299 
L 336.653158 241.057403 
L 337.248781 237.174545 
L 337.844405 244.94026 
L 338.440028 221.996104 
L 339.035652 232.585714 
L 339.631276 247.764156 
L 340.226899 242.469351 
L 340.822523 236.115584 
L 341.418146 242.822338 
L 342.01377 235.056623 
L 342.609393 247.764156 
L 343.205017 237.527532 
L 343.80064 238.233506 
L 344.396264 239.645455 
L 344.991888 229.055844 
L 345.587511 248.117143 
L 346.183135 237.880519 
L 346.778758 237.880519 
L 347.374382 242.116364 
L 347.970005 236.468571 
L 348.565629 237.527532 
L 349.161252 237.174545 
L 349.756876 227.643896 
L 350.3525 245.293247 
L 350.948123 249.176104 
L 351.543747 238.586494 
L 352.13937 232.938701 
L 352.734994 236.115584 
L 353.330617 241.763377 
L 353.926241 238.939481 
L 354.521864 230.467792 
L 355.117488 235.40961 
L 355.713112 243.175325 
L 356.308735 239.645455 
L 356.904359 242.469351 
L 358.095606 237.527532 
L 358.691229 238.586494 
L 359.286853 245.999221 
L 359.882476 235.40961 
L 360.4781 237.174545 
L 361.073724 239.292468 
L 361.669347 239.292468 
L 362.264971 245.293247 
L 362.860594 234.350649 
L 363.456218 237.174545 
L 364.051841 233.291688 
L 364.647465 232.232727 
L 365.243088 247.411169 
L 365.838712 238.586494 
L 366.434336 234.350649 
L 367.029959 242.116364 
L 367.625583 236.821558 
L 368.221206 240.351429 
L 368.81683 235.40961 
L 369.412453 233.291688 
L 370.008077 235.056623 
L 370.6037 235.40961 
L 371.199324 229.055844 
L 371.794948 245.999221 
L 372.390571 250.235065 
L 372.986195 238.939481 
L 373.581818 243.881299 
L 373.581818 243.881299 
" clip-path="url(#pdd7894020a)" style="fill: none; stroke: #1f77b4; stroke-width: 1.5; stroke-linecap: square"/>
   </g>
   <g id="line2d_26">
    <path d="M 69.218182 239.738346 
L 69.813805 218.484812 
L 70.409429 211.945263 
L 71.005052 216.849925 
L 71.600676 229.929023 
L 72.1963 226.659248 
L 72.791923 224.206917 
L 73.387547 229.111579 
L 73.98317 240.555789 
L 74.578794 205.405714 
L 75.174417 224.206917 
L 75.770041 215.215038 
L 76.365664 210.310376 
L 76.961288 231.56391 
L 77.556912 229.111579 
L 78.152535 220.119699 
L 78.748159 214.397594 
L 79.343782 201.318496 
L 79.939406 218.484812 
L 80.535029 211.945263 
L 81.130653 207.040602 
L 81.726276 222.57203 
L 82.3219 231.56391 
L 82.917524 208.675489 
L 83.513147 215.215038 
L 84.108771 228.294135 
L 84.704394 201.318496 
L 85.300018 220.937143 
L 85.895641 220.937143 
L 86.491265 198.866165 
L 87.086888 211.945263 
L 87.682512 216.849925 
L 88.278136 214.397594 
L 88.873759 202.953383 
L 89.469383 211.945263 
L 90.065006 213.58015 
L 90.66063 203.770827 
L 91.256253 233.198797 
L 91.851877 207.858045 
L 92.4475 228.294135 
L 93.043124 216.032481 
L 93.638748 219.302256 
L 94.234371 215.215038 
L 94.829995 207.040602 
L 95.425618 228.294135 
L 96.021242 207.858045 
L 96.616865 221.754586 
L 97.212489 208.675489 
L 97.808112 207.040602 
L 98.403736 208.675489 
L 98.99936 218.484812 
L 99.594983 204.588271 
L 100.190607 203.770827 
L 100.78623 215.215038 
L 101.381854 208.675489 
L 101.977477 210.310376 
L 102.573101 237.286015 
L 103.168724 228.294135 
L 103.764348 206.223158 
L 104.359972 224.206917 
L 104.955595 216.032481 
L 105.551219 209.492932 
L 106.146842 224.206917 
L 106.742466 228.294135 
L 107.338089 220.937143 
L 107.933713 228.294135 
L 108.529336 202.13594 
L 109.12496 202.953383 
L 109.720584 220.937143 
L 110.316207 225.024361 
L 110.911831 221.754586 
L 111.507454 225.841805 
L 112.103078 205.405714 
L 112.698701 212.762707 
L 113.294325 204.588271 
L 113.889948 226.659248 
L 114.485572 203.770827 
L 115.081196 220.119699 
L 115.676819 208.675489 
L 116.272443 232.381353 
L 116.868066 221.754586 
L 117.46369 222.57203 
L 118.059313 238.920902 
L 118.654937 225.841805 
L 119.25056 225.024361 
L 119.846184 222.57203 
L 120.441808 244.643008 
L 121.037431 210.310376 
L 121.633055 218.484812 
L 122.228678 230.746466 
L 122.824302 214.397594 
L 123.419925 223.389474 
L 124.015549 216.849925 
L 124.611172 222.57203 
L 125.206796 214.397594 
L 125.802419 223.389474 
L 126.398043 207.040602 
L 126.993667 198.866165 
L 127.58929 238.103459 
L 128.184914 201.318496 
L 128.780537 227.476692 
L 129.376161 233.198797 
L 129.971784 207.040602 
L 130.567408 207.858045 
L 131.163031 227.476692 
L 131.758655 215.215038 
L 132.354279 220.119699 
L 132.949902 214.397594 
L 133.545526 224.206917 
L 134.736773 204.588271 
L 135.332396 220.119699 
L 135.92802 223.389474 
L 136.523643 209.492932 
L 137.119267 230.746466 
L 137.714891 209.492932 
L 138.310514 219.302256 
L 138.906138 216.032481 
L 139.501761 215.215038 
L 140.097385 219.302256 
L 140.693008 207.040602 
L 141.288632 234.833684 
L 141.884255 229.929023 
L 142.479879 218.484812 
L 143.075503 217.667368 
L 143.671126 225.841805 
L 144.26675 229.929023 
L 144.862373 200.501053 
L 145.457997 230.746466 
L 146.05362 217.667368 
L 146.649244 222.57203 
L 147.244867 221.754586 
L 148.436115 216.849925 
L 149.031738 207.858045 
L 149.627362 209.492932 
L 150.222985 224.206917 
L 150.818609 219.302256 
L 151.414232 225.841805 
L 152.009856 236.468571 
L 152.605479 227.476692 
L 153.201103 222.57203 
L 153.796727 207.858045 
L 154.39235 225.024361 
L 154.987974 234.016241 
L 155.583597 223.389474 
L 156.179221 216.032481 
L 156.774844 213.58015 
L 157.370468 219.302256 
L 157.966091 222.57203 
L 158.561715 233.198797 
L 159.752962 209.492932 
L 160.348586 220.937143 
L 160.944209 220.937143 
L 161.539833 209.492932 
L 162.135456 212.762707 
L 162.73108 218.484812 
L 163.326703 220.937143 
L 163.922327 225.024361 
L 164.517951 223.389474 
L 165.113574 225.024361 
L 165.709198 238.103459 
L 166.304821 212.762707 
L 166.900445 212.762707 
L 167.496068 218.484812 
L 168.091692 215.215038 
L 168.687315 220.937143 
L 169.282939 211.945263 
L 169.878563 234.016241 
L 170.474186 214.397594 
L 171.06981 220.119699 
L 171.665433 204.588271 
L 172.261057 217.667368 
L 172.85668 208.675489 
L 173.452304 207.040602 
L 174.047927 212.762707 
L 174.643551 232.381353 
L 175.239175 201.318496 
L 175.834798 214.397594 
L 176.430422 220.937143 
L 177.026045 206.223158 
L 177.621669 238.920902 
L 178.217292 227.476692 
L 178.812916 224.206917 
L 180.004163 214.397594 
L 180.599787 225.024361 
L 181.19541 215.215038 
L 181.791034 209.492932 
L 182.386657 217.667368 
L 182.982281 212.762707 
L 183.577904 211.945263 
L 184.173528 220.119699 
L 184.769151 207.858045 
L 185.364775 215.215038 
L 185.960399 229.929023 
L 186.556022 234.833684 
L 187.151646 224.206917 
L 187.747269 209.492932 
L 188.342893 206.223158 
L 188.938516 206.223158 
L 189.53414 224.206917 
L 190.129763 217.667368 
L 190.725387 205.405714 
L 191.32101 227.476692 
L 191.916634 210.310376 
L 192.512258 223.389474 
L 193.107881 211.945263 
L 193.703505 210.310376 
L 194.299128 224.206917 
L 195.490375 216.032481 
L 196.085999 209.492932 
L 196.681622 210.310376 
L 197.277246 198.048722 
L 197.87287 208.675489 
L 198.468493 215.215038 
L 199.064117 189.874286 
L 199.65974 187.421955 
L 200.255364 201.318496 
L 200.850987 180.882406 
L 201.446611 173.525414 
L 202.042234 160.446316 
L 202.637858 159.628872 
L 203.233482 170.255639 
L 203.829105 154.724211 
L 204.424729 132.653233 
L 205.020352 155.541654 
L 205.615976 149.002105 
L 206.211599 140.010226 
L 206.807223 157.993985 
L 207.402846 155.541654 
L 207.99847 175.160301 
L 208.594094 179.247519 
L 209.189717 190.691729 
L 209.785341 184.969624 
L 210.380964 198.866165 
L 210.976588 216.032481 
L 211.572211 211.12782 
L 212.167835 201.318496 
L 213.954706 230.746466 
L 214.550329 234.833684 
L 215.145953 213.58015 
L 215.741576 225.024361 
L 216.3372 234.016241 
L 216.932823 219.302256 
L 217.528447 223.389474 
L 218.12407 200.501053 
L 218.719694 203.770827 
L 219.315318 224.206917 
L 219.910941 222.57203 
L 220.506565 192.326617 
L 221.102188 228.294135 
L 221.697812 213.58015 
L 222.293435 218.484812 
L 222.889059 230.746466 
L 223.484682 199.683609 
L 224.080306 217.667368 
L 224.67593 216.849925 
L 225.867177 197.231278 
L 226.4628 230.746466 
L 227.058424 220.937143 
L 227.654047 247.095338 
L 228.249671 216.032481 
L 228.845294 218.484812 
L 229.440918 202.953383 
L 230.036542 224.206917 
L 230.632165 234.016241 
L 231.227789 214.397594 
L 231.823412 238.920902 
L 232.419036 222.57203 
L 233.014659 225.841805 
L 233.610283 224.206917 
L 234.205906 225.024361 
L 234.80153 231.56391 
L 235.397154 200.501053 
L 235.992777 202.13594 
L 236.588401 229.111579 
L 237.184024 216.032481 
L 237.779648 216.849925 
L 238.375271 233.198797 
L 238.970895 215.215038 
L 239.566518 206.223158 
L 240.162142 216.032481 
L 240.757766 202.953383 
L 241.353389 234.833684 
L 241.949013 186.604511 
L 242.544636 198.866165 
L 243.14026 194.778947 
L 243.735883 199.683609 
L 244.331507 211.945263 
L 244.92713 157.176541 
L 245.522754 165.350977 
L 246.118378 142.462556 
L 246.714001 98.320602 
L 247.309625 120.391579 
L 247.905248 97.503158 
L 248.500872 86.058947 
L 249.096495 54.99609 
L 249.692119 79.519398 
L 250.287742 34.56 
L 250.883366 86.876391 
L 251.47899 89.328722 
L 252.074613 108.129925 
L 252.670237 140.010226 
L 253.861484 161.263759 
L 254.457107 176.795188 
L 255.052731 210.310376 
L 255.648354 202.953383 
L 256.243978 233.198797 
L 256.839601 202.953383 
L 257.435225 202.13594 
L 258.030849 210.310376 
L 258.626472 231.56391 
L 259.222096 202.13594 
L 259.817719 225.024361 
L 260.413343 216.032481 
L 261.008966 233.198797 
L 261.60459 200.501053 
L 262.200213 232.381353 
L 263.391461 210.310376 
L 263.987084 208.675489 
L 264.582708 231.56391 
L 265.178331 205.405714 
L 265.773955 219.302256 
L 266.369578 237.286015 
L 266.965202 216.032481 
L 267.560825 209.492932 
L 268.156449 201.318496 
L 268.752073 204.588271 
L 269.347696 221.754586 
L 269.94332 201.318496 
L 270.538943 232.381353 
L 271.134567 205.405714 
L 271.73019 211.945263 
L 272.325814 194.778947 
L 272.921437 149.002105 
L 273.517061 168.620752 
L 274.112685 128.566015 
L 274.708308 111.399699 
L 275.303932 111.399699 
L 276.495179 81.971729 
L 277.090802 86.058947 
L 277.686426 51.726316 
L 278.282049 67.257744 
L 278.877673 94.233383 
L 279.473297 104.86015 
L 280.06892 112.217143 
L 280.664544 146.549774 
L 281.855791 185.787068 
L 282.451414 215.215038 
L 283.642661 195.596391 
L 284.238285 223.389474 
L 284.833909 212.762707 
L 285.429532 220.119699 
L 286.025156 207.040602 
L 286.620779 210.310376 
L 287.216403 214.397594 
L 287.812026 194.778947 
L 288.40765 223.389474 
L 289.598897 211.945263 
L 290.194521 216.849925 
L 291.385768 191.509173 
L 292.577015 213.58015 
L 293.172638 229.929023 
L 293.768262 217.667368 
L 294.363885 227.476692 
L 294.959509 215.215038 
L 295.555133 207.040602 
L 296.150756 210.310376 
L 296.74638 233.198797 
L 297.342003 202.953383 
L 297.937627 223.389474 
L 298.53325 225.841805 
L 299.128874 207.040602 
L 299.724497 222.57203 
L 300.320121 191.509173 
L 300.915745 221.754586 
L 301.511368 233.198797 
L 302.106992 222.57203 
L 302.702615 217.667368 
L 303.298239 214.397594 
L 303.893862 198.048722 
L 305.085109 227.476692 
L 305.680733 224.206917 
L 306.276357 211.945263 
L 306.87198 195.596391 
L 307.467604 239.738346 
L 308.063227 224.206917 
L 308.658851 220.119699 
L 309.254474 230.746466 
L 309.850098 221.754586 
L 310.445721 229.111579 
L 311.041345 216.032481 
L 312.232592 227.476692 
L 312.828216 224.206917 
L 313.423839 225.841805 
L 314.019463 220.937143 
L 314.615086 239.738346 
L 315.21071 227.476692 
L 315.806333 224.206917 
L 316.401957 211.945263 
L 316.997581 218.484812 
L 317.593204 201.318496 
L 318.784451 227.476692 
L 319.380075 210.310376 
L 319.975698 207.040602 
L 320.571322 223.389474 
L 321.166945 213.58015 
L 321.762569 214.397594 
L 322.358192 202.13594 
L 322.953816 218.484812 
L 323.54944 219.302256 
L 324.145063 226.659248 
L 324.740687 211.945263 
L 325.33631 202.13594 
L 325.931934 211.945263 
L 326.527557 211.945263 
L 327.123181 221.754586 
L 327.718804 193.14406 
L 328.314428 212.762707 
L 328.910052 211.12782 
L 329.505675 228.294135 
L 330.101299 218.484812 
L 330.696922 218.484812 
L 331.292546 227.476692 
L 331.888169 238.920902 
L 332.483793 223.389474 
L 333.079416 204.588271 
L 333.67504 220.119699 
L 334.270664 205.405714 
L 334.866287 232.381353 
L 335.461911 213.58015 
L 336.057534 216.032481 
L 336.653158 217.667368 
L 337.248781 217.667368 
L 337.844405 242.190677 
L 338.440028 212.762707 
L 339.035652 252 
L 339.631276 216.032481 
L 340.226899 192.326617 
L 340.822523 219.302256 
L 341.418146 207.858045 
L 342.01377 236.468571 
L 342.609393 192.326617 
L 343.205017 213.58015 
L 343.80064 209.492932 
L 344.396264 214.397594 
L 344.991888 216.032481 
L 345.587511 218.484812 
L 346.183135 229.111579 
L 346.778758 221.754586 
L 347.374382 227.476692 
L 347.970005 237.286015 
L 348.565629 208.675489 
L 349.161252 210.310376 
L 349.756876 204.588271 
L 350.3525 225.024361 
L 350.948123 229.111579 
L 351.543747 210.310376 
L 352.13937 217.667368 
L 352.734994 235.651128 
L 353.330617 213.58015 
L 353.926241 202.13594 
L 354.521864 215.215038 
L 355.117488 225.841805 
L 355.713112 208.675489 
L 356.308735 217.667368 
L 356.904359 229.111579 
L 357.499982 211.945263 
L 358.095606 220.119699 
L 358.691229 207.858045 
L 359.286853 208.675489 
L 360.4781 225.024361 
L 361.073724 232.381353 
L 361.669347 225.841805 
L 362.264971 204.588271 
L 362.860594 235.651128 
L 363.456218 219.302256 
L 364.051841 221.754586 
L 364.647465 201.318496 
L 365.243088 222.57203 
L 365.838712 217.667368 
L 366.434336 234.016241 
L 367.029959 211.12782 
L 367.625583 211.945263 
L 368.221206 193.961504 
L 368.81683 229.111579 
L 369.412453 224.206917 
L 370.008077 220.937143 
L 370.6037 207.858045 
L 371.199324 211.945263 
L 371.794948 213.58015 
L 372.390571 225.024361 
L 372.986195 227.476692 
L 373.581818 217.667368 
L 373.581818 217.667368 
" clip-path="url(#pdd7894020a)" style="fill: none; stroke: #ff7f0e; stroke-width: 1.5; stroke-linecap: square"/>
   </g>
   <g id="line2d_27">
    <path d="M 69.218182 230.087442 
L 69.813805 216.602791 
L 70.409429 230.930233 
L 71.005052 206.489302 
L 71.600676 226.716279 
L 72.1963 208.174884 
L 72.791923 225.873488 
L 73.387547 220.816744 
L 73.98317 214.074419 
L 74.578794 220.816744 
L 75.174417 237.672558 
L 75.770041 234.301395 
L 76.365664 228.40186 
L 76.961288 219.973953 
L 77.556912 229.244651 
L 78.152535 213.231628 
L 78.748159 225.030698 
L 79.343782 212.388837 
L 79.939406 219.131163 
L 80.535029 203.96093 
L 81.130653 209.860465 
L 81.726276 238.515349 
L 82.3219 223.345116 
L 82.917524 230.930233 
L 83.513147 205.646512 
L 84.108771 208.174884 
L 84.704394 233.458605 
L 85.300018 206.489302 
L 85.895641 227.55907 
L 86.491265 213.231628 
L 87.086888 214.074419 
L 88.278136 220.816744 
L 88.873759 240.20093 
L 89.469383 214.917209 
L 90.065006 235.986977 
L 90.66063 225.873488 
L 91.256253 219.973953 
L 91.851877 217.445581 
L 92.4475 232.615814 
L 93.043124 228.40186 
L 94.234371 225.030698 
L 94.829995 221.659535 
L 95.425618 223.345116 
L 96.021242 216.602791 
L 96.616865 223.345116 
L 97.212489 212.388837 
L 97.808112 212.388837 
L 98.403736 221.659535 
L 98.99936 226.716279 
L 99.594983 209.017674 
L 100.190607 221.659535 
L 100.78623 227.55907 
L 101.381854 236.829767 
L 101.977477 230.087442 
L 102.573101 226.716279 
L 103.168724 217.445581 
L 103.764348 222.502326 
L 104.359972 229.244651 
L 104.955595 210.703256 
L 105.551219 237.672558 
L 106.146842 229.244651 
L 106.742466 212.388837 
L 107.338089 231.773023 
L 107.933713 222.502326 
L 108.529336 217.445581 
L 109.12496 224.187907 
L 109.720584 204.803721 
L 110.316207 222.502326 
L 110.911831 222.502326 
L 111.507454 241.043721 
L 112.103078 193.847442 
L 112.698701 222.502326 
L 113.889948 234.301395 
L 114.485572 215.76 
L 115.081196 215.76 
L 115.676819 216.602791 
L 116.272443 207.332093 
L 116.868066 220.816744 
L 117.46369 215.76 
L 118.059313 225.873488 
L 118.654937 233.458605 
L 119.25056 215.76 
L 119.846184 224.187907 
L 120.441808 229.244651 
L 121.037431 225.030698 
L 121.633055 229.244651 
L 122.824302 225.873488 
L 123.419925 231.773023 
L 124.015549 239.35814 
L 124.611172 226.716279 
L 125.206796 230.930233 
L 126.398043 210.703256 
L 126.993667 216.602791 
L 127.58929 224.187907 
L 128.184914 223.345116 
L 128.780537 214.917209 
L 129.376161 236.829767 
L 129.971784 205.646512 
L 130.567408 219.131163 
L 131.163031 241.043721 
L 131.758655 220.816744 
L 132.354279 228.40186 
L 132.949902 219.973953 
L 133.545526 214.074419 
L 134.141149 212.388837 
L 134.736773 230.930233 
L 135.332396 231.773023 
L 135.92802 235.144186 
L 136.523643 215.76 
L 137.119267 227.55907 
L 137.714891 215.76 
L 138.310514 209.017674 
L 138.906138 226.716279 
L 139.501761 190.476279 
L 140.097385 234.301395 
L 141.288632 183.733953 
L 141.884255 176.991628 
L 142.479879 176.991628 
L 143.075503 150.865116 
L 143.671126 141.594419 
L 144.26675 136.537674 
L 144.862373 126.424186 
L 145.457997 140.751628 
L 146.05362 120.524651 
L 146.649244 152.550698 
L 147.244867 147.493953 
L 147.840491 165.192558 
L 148.436115 121.367442 
L 149.031738 150.865116 
L 149.627362 172.777674 
L 150.222985 173.620465 
L 150.818609 197.218605 
L 151.414232 197.218605 
L 152.605479 198.904186 
L 153.201103 214.074419 
L 153.796727 220.816744 
L 154.39235 225.030698 
L 154.987974 235.144186 
L 155.583597 203.96093 
L 156.179221 214.917209 
L 156.774844 220.816744 
L 157.370468 223.345116 
L 157.966091 234.301395 
L 158.561715 226.716279 
L 159.157339 242.729302 
L 159.752962 208.174884 
L 160.348586 204.803721 
L 161.539833 222.502326 
L 162.135456 252 
L 162.73108 212.388837 
L 163.326703 226.716279 
L 163.922327 221.659535 
L 164.517951 214.074419 
L 165.113574 214.074419 
L 165.709198 214.917209 
L 166.304821 227.55907 
L 166.900445 221.659535 
L 167.496068 203.96093 
L 168.091692 205.646512 
L 168.687315 225.030698 
L 169.282939 208.174884 
L 169.878563 222.502326 
L 170.474186 227.55907 
L 171.06981 241.886512 
L 171.665433 210.703256 
L 172.261057 234.301395 
L 172.85668 241.886512 
L 173.452304 237.672558 
L 174.047927 224.187907 
L 174.643551 225.030698 
L 175.239175 236.829767 
L 175.834798 221.659535 
L 176.430422 234.301395 
L 177.026045 220.816744 
L 177.621669 226.716279 
L 178.217292 224.187907 
L 178.812916 214.917209 
L 179.408539 233.458605 
L 180.004163 220.816744 
L 180.599787 203.11814 
L 181.19541 217.445581 
L 181.791034 213.231628 
L 182.386657 209.860465 
L 182.982281 219.973953 
L 183.577904 185.419535 
L 184.173528 209.860465 
L 184.769151 225.873488 
L 185.364775 199.746977 
L 185.960399 201.432558 
L 187.151646 165.192558 
L 187.747269 123.053023 
L 188.342893 118.83907 
L 188.938516 91.869767 
L 189.53414 92.712558 
L 190.129763 67.428837 
L 190.725387 69.957209 
L 191.32101 51.415814 
L 191.916634 69.957209 
L 192.512258 70.8 
L 193.107881 93.555349 
L 193.703505 130.63814 
L 194.299128 144.965581 
L 194.894752 152.550698 
L 195.490375 209.017674 
L 196.085999 182.891163 
L 196.681622 183.733953 
L 197.277246 210.703256 
L 197.87287 214.074419 
L 198.468493 220.816744 
L 199.064117 213.231628 
L 199.65974 216.602791 
L 200.255364 215.76 
L 200.850987 219.131163 
L 201.446611 217.445581 
L 202.042234 226.716279 
L 202.637858 216.602791 
L 203.233482 220.816744 
L 203.829105 224.187907 
L 204.424729 206.489302 
L 205.020352 233.458605 
L 205.615976 234.301395 
L 206.211599 228.40186 
L 206.807223 226.716279 
L 207.402846 215.76 
L 207.99847 230.087442 
L 208.594094 235.986977 
L 209.189717 205.646512 
L 209.785341 230.087442 
L 210.380964 217.445581 
L 210.976588 233.458605 
L 211.572211 219.973953 
L 212.763458 223.345116 
L 213.359082 203.96093 
L 213.954706 179.52 
L 214.550329 171.092093 
L 215.145953 150.022326 
L 215.741576 141.594419 
L 216.3372 105.354419 
L 216.932823 101.983256 
L 217.528447 54.786977 
L 218.719694 34.56 
L 219.315318 54.786977 
L 219.910941 48.887442 
L 220.506565 89.341395 
L 221.102188 80.070698 
L 221.697812 100.297674 
L 222.293435 150.865116 
L 222.889059 166.035349 
L 223.484682 171.934884 
L 224.080306 187.105116 
L 224.67593 189.633488 
L 225.271553 210.703256 
L 225.867177 222.502326 
L 226.4628 218.288372 
L 227.058424 212.388837 
L 227.654047 218.288372 
L 228.249671 231.773023 
L 230.036542 221.659535 
L 230.632165 210.703256 
L 231.227789 244.414884 
L 231.823412 217.445581 
L 232.419036 224.187907 
L 233.014659 214.917209 
L 233.610283 225.030698 
L 234.205906 209.860465 
L 235.397154 227.55907 
L 235.992777 217.445581 
L 236.588401 225.030698 
L 237.184024 224.187907 
L 237.779648 210.703256 
L 238.375271 216.602791 
L 238.970895 212.388837 
L 239.566518 216.602791 
L 240.162142 240.20093 
L 240.757766 209.860465 
L 241.353389 221.659535 
L 241.949013 225.030698 
L 242.544636 223.345116 
L 243.14026 220.816744 
L 243.735883 213.231628 
L 244.331507 233.458605 
L 244.92713 216.602791 
L 245.522754 227.55907 
L 246.118378 194.690233 
L 246.714001 228.40186 
L 247.309625 218.288372 
L 247.905248 228.40186 
L 248.500872 209.860465 
L 249.096495 217.445581 
L 249.692119 219.973953 
L 250.287742 232.615814 
L 250.883366 219.131163 
L 251.47899 235.986977 
L 252.074613 225.030698 
L 252.670237 234.301395 
L 253.26586 209.860465 
L 253.861484 218.288372 
L 254.457107 238.515349 
L 255.052731 222.502326 
L 255.648354 209.860465 
L 256.243978 212.388837 
L 256.839601 220.816744 
L 257.435225 203.11814 
L 258.030849 205.646512 
L 258.626472 220.816744 
L 259.222096 230.087442 
L 259.817719 224.187907 
L 260.413343 191.31907 
L 261.60459 238.515349 
L 262.200213 235.144186 
L 262.795837 221.659535 
L 263.391461 248.628837 
L 263.987084 210.703256 
L 264.582708 228.40186 
L 265.178331 217.445581 
L 265.773955 198.904186 
L 266.369578 220.816744 
L 266.965202 216.602791 
L 267.560825 229.244651 
L 268.156449 220.816744 
L 268.752073 231.773023 
L 269.347696 232.615814 
L 269.94332 218.288372 
L 270.538943 219.973953 
L 271.134567 218.288372 
L 271.73019 220.816744 
L 272.325814 198.904186 
L 272.921437 213.231628 
L 273.517061 221.659535 
L 274.112685 215.76 
L 274.708308 211.546047 
L 275.303932 219.973953 
L 275.899555 219.131163 
L 276.495179 231.773023 
L 277.090802 233.458605 
L 277.686426 218.288372 
L 278.282049 210.703256 
L 278.877673 219.973953 
L 279.473297 226.716279 
L 280.06892 239.35814 
L 280.664544 218.288372 
L 281.260167 219.973953 
L 283.047038 238.515349 
L 283.642661 204.803721 
L 284.238285 244.414884 
L 284.833909 216.602791 
L 285.429532 235.144186 
L 286.025156 230.087442 
L 286.620779 229.244651 
L 287.812026 214.917209 
L 288.40765 208.174884 
L 289.003273 234.301395 
L 290.194521 202.275349 
L 290.790144 231.773023 
L 291.385768 227.55907 
L 291.981391 215.76 
L 292.577015 225.030698 
L 293.172638 210.703256 
L 293.768262 223.345116 
L 294.363885 243.572093 
L 294.959509 214.074419 
L 295.555133 211.546047 
L 296.150756 202.275349 
L 296.74638 212.388837 
L 297.342003 213.231628 
L 297.937627 220.816744 
L 298.53325 214.917209 
L 299.128874 232.615814 
L 299.724497 211.546047 
L 300.320121 225.873488 
L 300.915745 208.174884 
L 301.511368 238.515349 
L 302.106992 222.502326 
L 302.702615 211.546047 
L 303.298239 234.301395 
L 303.893862 219.973953 
L 304.489486 226.716279 
L 305.085109 209.860465 
L 305.680733 208.174884 
L 306.87198 234.301395 
L 307.467604 210.703256 
L 308.063227 219.131163 
L 308.658851 214.074419 
L 309.254474 224.187907 
L 309.850098 220.816744 
L 310.445721 229.244651 
L 311.041345 200.589767 
L 311.636969 215.76 
L 312.232592 207.332093 
L 312.828216 245.257674 
L 313.423839 210.703256 
L 314.019463 227.55907 
L 314.615086 203.96093 
L 315.21071 214.074419 
L 315.806333 230.930233 
L 316.401957 224.187907 
L 316.997581 199.746977 
L 317.593204 224.187907 
L 318.188828 219.973953 
L 318.784451 235.144186 
L 319.380075 216.602791 
L 319.975698 205.646512 
L 320.571322 228.40186 
L 321.166945 226.716279 
L 321.762569 217.445581 
L 322.358192 232.615814 
L 322.953816 202.275349 
L 323.54944 228.40186 
L 324.145063 202.275349 
L 325.33631 226.716279 
L 325.931934 219.131163 
L 326.527557 216.602791 
L 327.123181 210.703256 
L 327.718804 231.773023 
L 328.314428 216.602791 
L 328.910052 232.615814 
L 329.505675 217.445581 
L 330.696922 229.244651 
L 331.292546 222.502326 
L 331.888169 220.816744 
L 332.483793 235.144186 
L 333.079416 241.886512 
L 333.67504 228.40186 
L 334.270664 220.816744 
L 334.866287 204.803721 
L 335.461911 215.76 
L 336.057534 217.445581 
L 336.653158 221.659535 
L 337.248781 241.043721 
L 337.844405 233.458605 
L 338.440028 215.76 
L 339.035652 228.40186 
L 339.631276 224.187907 
L 340.226899 213.231628 
L 340.822523 230.930233 
L 341.418146 216.602791 
L 342.01377 238.515349 
L 342.609393 224.187907 
L 343.205017 225.030698 
L 343.80064 219.973953 
L 344.991888 245.257674 
L 345.587511 232.615814 
L 346.183135 225.030698 
L 346.778758 207.332093 
L 347.374382 227.55907 
L 347.970005 211.546047 
L 348.565629 213.231628 
L 349.161252 218.288372 
L 349.756876 230.087442 
L 350.3525 211.546047 
L 350.948123 205.646512 
L 351.543747 213.231628 
L 352.13937 225.873488 
L 352.734994 230.087442 
L 353.330617 227.55907 
L 353.926241 209.860465 
L 354.521864 232.615814 
L 355.117488 216.602791 
L 355.713112 243.572093 
L 356.308735 222.502326 
L 356.904359 223.345116 
L 357.499982 204.803721 
L 358.095606 219.973953 
L 358.691229 225.030698 
L 359.286853 225.873488 
L 359.882476 231.773023 
L 360.4781 221.659535 
L 361.073724 225.030698 
L 361.669347 217.445581 
L 362.264971 235.986977 
L 362.860594 248.628837 
L 363.456218 226.716279 
L 364.051841 234.301395 
L 364.647465 209.860465 
L 365.243088 232.615814 
L 365.838712 228.40186 
L 366.434336 203.11814 
L 367.029959 216.602791 
L 367.625583 222.502326 
L 368.221206 214.074419 
L 368.81683 235.986977 
L 369.412453 219.131163 
L 370.008077 226.716279 
L 370.6037 232.615814 
L 371.199324 203.11814 
L 371.794948 227.55907 
L 372.390571 225.873488 
L 372.986195 233.458605 
L 373.581818 223.345116 
L 373.581818 223.345116 
" clip-path="url(#pdd7894020a)" style="fill: none; stroke: #2ca02c; stroke-width: 1.5; stroke-linecap: square"/>
   </g>
   <g id="patch_3">
    <path d="M 54 252 
L 54 34.56 
" style="fill: none; stroke: #000000; stroke-width: 0.8; stroke-linejoin: miter; stroke-linecap: square"/>
   </g>
   <g id="patch_4">
    <path d="M 388.8 252 
L 388.8 34.56 
" style="fill: none; stroke: #000000; stroke-width: 0.8; stroke-linejoin: miter; stroke-linecap: square"/>
   </g>
   <g id="patch_5">
    <path d="M 54 252 
L 388.8 252 
" style="fill: none; stroke: #000000; stroke-width: 0.8; stroke-linejoin: miter; stroke-linecap: square"/>
   </g>
   <g id="patch_6">
    <path d="M 54 34.56 
L 388.8 34.56 
" style="fill: none; stroke: #000000; stroke-width: 0.8; stroke-linejoin: miter; stroke-linecap: square"/>
   </g>
   <g id="text_15">
    <!-- Label 13 normalized -->
    <g transform="translate(160.423125 28.56)scale(0.12 -0.12)">
     <defs>
      <path id="DejaVuSans-4c" d="M 628 4666 
L 1259 4666 
L 1259 531 
L 3531 531 
L 3531 0 
L 628 0 
L 628 4666 
z
" transform="scale(0.015625)"/>
      <path id="DejaVuSans-61" d="M 2194 1759 
Q 1497 1759 1228 1600 
Q 959 1441 959 1056 
Q 959 750 1161 570 
Q 1363 391 1709 391 
Q 2188 391 2477 730 
Q 2766 1069 2766 1631 
L 2766 1759 
L 2194 1759 
z
M 3341 1997 
L 3341 0 
L 2766 0 
L 2766 531 
Q 2569 213 2275 61 
Q 1981 -91 1556 -91 
Q 1019 -91 701 211 
Q 384 513 384 1019 
Q 384 1609 779 1909 
Q 1175 2209 1959 2209 
L 2766 2209 
L 2766 2266 
Q 2766 2663 2505 2880 
Q 2244 3097 1772 3097 
Q 1472 3097 1187 3025 
Q 903 2953 641 2809 
L 641 3341 
Q 956 3463 1253 3523 
Q 1550 3584 1831 3584 
Q 2591 3584 2966 3190 
Q 3341 2797 3341 1997 
z
" transform="scale(0.015625)"/>
      <path id="DejaVuSans-65" d="M 3597 1894 
L 3597 1613 
L 953 1613 
Q 991 1019 1311 708 
Q 1631 397 2203 397 
Q 2534 397 2845 478 
Q 3156 559 3463 722 
L 3463 178 
Q 3153 47 2828 -22 
Q 2503 -91 2169 -91 
Q 1331 -91 842 396 
Q 353 884 353 1716 
Q 353 2575 817 3079 
Q 1281 3584 2069 3584 
Q 2775 3584 3186 3129 
Q 3597 2675 3597 1894 
z
M 3022 2063 
Q 3016 2534 2758 2815 
Q 2500 3097 2075 3097 
Q 1594 3097 1305 2825 
Q 1016 2553 972 2059 
L 3022 2063 
z
" transform="scale(0.015625)"/>
      <path id="DejaVuSans-6c" d="M 603 4863 
L 1178 4863 
L 1178 0 
L 603 0 
L 603 4863 
z
" transform="scale(0.015625)"/>
      <path id="DejaVuSans-20" transform="scale(0.015625)"/>
      <path id="DejaVuSans-72" d="M 2631 2963 
Q 2534 3019 2420 3045 
Q 2306 3072 2169 3072 
Q 1681 3072 1420 2755 
Q 1159 2438 1159 1844 
L 1159 0 
L 581 0 
L 581 3500 
L 1159 3500 
L 1159 2956 
Q 1341 3275 1631 3429 
Q 1922 3584 2338 3584 
Q 2397 3584 2469 3576 
Q 2541 3569 2628 3553 
L 2631 2963 
z
" transform="scale(0.015625)"/>
      <path id="DejaVuSans-6d" d="M 3328 2828 
Q 3544 3216 3844 3400 
Q 4144 3584 4550 3584 
Q 5097 3584 5394 3201 
Q 5691 2819 5691 2113 
L 5691 0 
L 5113 0 
L 5113 2094 
Q 5113 2597 4934 2840 
Q 4756 3084 4391 3084 
Q 3944 3084 3684 2787 
Q 3425 2491 3425 1978 
L 3425 0 
L 2847 0 
L 2847 2094 
Q 2847 2600 2669 2842 
Q 2491 3084 2119 3084 
Q 1678 3084 1418 2786 
Q 1159 2488 1159 1978 
L 1159 0 
L 581 0 
L 581 3500 
L 1159 3500 
L 1159 2956 
Q 1356 3278 1631 3431 
Q 1906 3584 2284 3584 
Q 2666 3584 2933 3390 
Q 3200 3197 3328 2828 
z
" transform="scale(0.015625)"/>
      <path id="DejaVuSans-7a" d="M 353 3500 
L 3084 3500 
L 3084 2975 
L 922 459 
L 3084 459 
L 3084 0 
L 275 0 
L 275 525 
L 2438 3041 
L 353 3041 
L 353 3500 
z
" transform="scale(0.015625)"/>
      <path id="DejaVuSans-64" d="M 2906 2969 
L 2906 4863 
L 3481 4863 
L 3481 0 
L 2906 0 
L 2906 525 
Q 2725 213 2448 61 
Q 2172 -91 1784 -91 
Q 1150 -91 751 415 
Q 353 922 353 1747 
Q 353 2572 751 3078 
Q 1150 3584 1784 3584 
Q 2172 3584 2448 3432 
Q 2725 3281 2906 2969 
z
M 947 1747 
Q 947 1113 1208 752 
Q 1469 391 1925 391 
Q 2381 391 2643 752 
Q 2906 1113 2906 1747 
Q 2906 2381 2643 2742 
Q 2381 3103 1925 3103 
Q 1469 3103 1208 2742 
Q 947 2381 947 1747 
z
" transform="scale(0.015625)"/>
     </defs>
     <use xlink:href="#DejaVuSans-4c"/>
     <use xlink:href="#DejaVuSans-61" x="55.712891"/>
     <use xlink:href="#DejaVuSans-62" x="116.992188"/>
     <use xlink:href="#DejaVuSans-65" x="180.46875"/>
     <use xlink:href="#DejaVuSans-6c" x="241.992188"/>
     <use xlink:href="#DejaVuSans-20" x="269.775391"/>
     <use xlink:href="#DejaVuSans-31" x="301.5625"/>
     <use xlink:href="#DejaVuSans-33" x="365.185547"/>
     <use xlink:href="#DejaVuSans-20" x="428.808594"/>
     <use xlink:href="#DejaVuSans-6e" x="460.595703"/>
     <use xlink:href="#DejaVuSans-6f" x="523.974609"/>
     <use xlink:href="#DejaVuSans-72" x="585.15625"/>
     <use xlink:href="#DejaVuSans-6d" x="624.519531"/>
     <use xlink:href="#DejaVuSans-61" x="721.931641"/>
     <use xlink:href="#DejaVuSans-6c" x="783.210938"/>
     <use xlink:href="#DejaVuSans-69" x="810.994141"/>
     <use xlink:href="#DejaVuSans-7a" x="838.777344"/>
     <use xlink:href="#DejaVuSans-65" x="891.267578"/>
     <use xlink:href="#DejaVuSans-64" x="952.791016"/>
    </g>
   </g>
   <g id="legend_1">
    <g id="patch_7">
     <path d="M 309.070312 101.2725 
L 381.8 101.2725 
Q 383.8 101.2725 383.8 99.2725 
L 383.8 41.56 
Q 383.8 39.56 381.8 39.56 
L 309.070312 39.56 
Q 307.070312 39.56 307.070312 41.56 
L 307.070312 99.2725 
Q 307.070312 101.2725 309.070312 101.2725 
z
" style="fill: #ffffff; opacity: 0.8; stroke: #cccccc; stroke-linejoin: miter"/>
    </g>
    <g id="text_16">
     <!-- Trace number -->
     <g transform="translate(311.070312 51.158437)scale(0.1 -0.1)">
      <defs>
       <path id="DejaVuSans-54" d="M -19 4666 
L 3928 4666 
L 3928 4134 
L 2272 4134 
L 2272 0 
L 1638 0 
L 1638 4134 
L -19 4134 
L -19 4666 
z
" transform="scale(0.015625)"/>
      </defs>
      <use xlink:href="#DejaVuSans-54"/>
      <use xlink:href="#DejaVuSans-72" x="46.333984"/>
      <use xlink:href="#DejaVuSans-61" x="87.447266"/>
      <use xlink:href="#DejaVuSans-63" x="148.726562"/>
      <use xlink:href="#DejaVuSans-65" x="203.707031"/>
      <use xlink:href="#DejaVuSans-20" x="265.230469"/>
      <use xlink:href="#DejaVuSans-6e" x="297.017578"/>
      <use xlink:href="#DejaVuSans-75" x="360.396484"/>
      <use xlink:href="#DejaVuSans-6d" x="423.775391"/>
      <use xlink:href="#DejaVuSans-62" x="521.1875"/>
      <use xlink:href="#DejaVuSans-65" x="584.664062"/>
      <use xlink:href="#DejaVuSans-72" x="646.1875"/>
     </g>
    </g>
    <g id="line2d_28">
     <path d="M 325.072656 62.336562 
L 335.072656 62.336562 
L 345.072656 62.336562 
" style="fill: none; stroke: #1f77b4; stroke-width: 1.5; stroke-linecap: square"/>
    </g>
    <g id="text_17">
     <!-- 1 -->
     <g transform="translate(353.072656 65.836562)scale(0.1 -0.1)">
      <use xlink:href="#DejaVuSans-31"/>
     </g>
    </g>
    <g id="line2d_29">
     <path d="M 325.072656 77.014687 
L 335.072656 77.014687 
L 345.072656 77.014687 
" style="fill: none; stroke: #ff7f0e; stroke-width: 1.5; stroke-linecap: square"/>
    </g>
    <g id="text_18">
     <!-- 4 -->
     <g transform="translate(353.072656 80.514687)scale(0.1 -0.1)">
      <use xlink:href="#DejaVuSans-34"/>
     </g>
    </g>
    <g id="line2d_30">
     <path d="M 325.072656 91.692813 
L 335.072656 91.692813 
L 345.072656 91.692813 
" style="fill: none; stroke: #2ca02c; stroke-width: 1.5; stroke-linecap: square"/>
    </g>
    <g id="text_19">
     <!-- 25 -->
     <g transform="translate(353.072656 95.192813)scale(0.1 -0.1)">
      <use xlink:href="#DejaVuSans-32"/>
      <use xlink:href="#DejaVuSans-35" x="63.623047"/>
     </g>
    </g>
   </g>
  </g>
 </g>
 <defs>
  <clipPath id="pdd7894020a">
   <rect x="54" y="34.56" width="334.8" height="217.44"/>
  </clipPath>
 </defs>
</svg>
