<?xml version="1.0" encoding="utf-8" standalone="no"?>
<!DOCTYPE svg PUBLIC "-//W3C//DTD SVG 1.1//EN"
  "http://www.w3.org/Graphics/SVG/1.1/DTD/svg11.dtd">
<svg xmlns:xlink="http://www.w3.org/1999/xlink" width="432pt" height="288pt" viewBox="0 0 432 288" xmlns="http://www.w3.org/2000/svg" version="1.1">
 <metadata>
  <rdf:RDF xmlns:dc="http://purl.org/dc/elements/1.1/" xmlns:cc="http://creativecommons.org/ns#" xmlns:rdf="http://www.w3.org/1999/02/22-rdf-syntax-ns#">
   <cc:Work>
    <dc:type rdf:resource="http://purl.org/dc/dcmitype/StillImage"/>
    <dc:date>2022-03-30T13:16:47.762706</dc:date>
    <dc:format>image/svg+xml</dc:format>
    <dc:creator>
     <cc:Agent>
      <dc:title>Matplotlib v3.5.1, https://matplotlib.org/</dc:title>
     </cc:Agent>
    </dc:creator>
   </cc:Work>
  </rdf:RDF>
 </metadata>
 <defs>
  <style type="text/css">*{stroke-linejoin: round; stroke-linecap: butt}</style>
 </defs>
 <g id="figure_1">
  <g id="patch_1">
   <path d="M 0 288 
L 432 288 
L 432 0 
L 0 0 
z
" style="fill: #ffffff"/>
  </g>
  <g id="axes_1">
   <g id="patch_2">
    <path d="M 54 252 
L 388.8 252 
L 388.8 34.56 
L 54 34.56 
z
" style="fill: #ffffff"/>
   </g>
   <g id="matplotlib.axis_1">
    <g id="xtick_1">
     <g id="line2d_1">
      <path d="M 69.218182 252 
L 69.218182 34.56 
" clip-path="url(#p6dfcab2d8b)" style="fill: none; stroke: #b0b0b0; stroke-width: 0.8; stroke-linecap: square"/>
     </g>
     <g id="line2d_2">
      <defs>
       <path id="me8b1aaa286" d="M 0 0 
L 0 3.5 
" style="stroke: #000000; stroke-width: 0.8"/>
      </defs>
      <g>
       <use xlink:href="#me8b1aaa286" x="69.218182" y="252" style="stroke: #000000; stroke-width: 0.8"/>
      </g>
     </g>
     <g id="text_1">
      <!-- 0 -->
      <g transform="translate(66.036932 266.598437)scale(0.1 -0.1)">
       <defs>
        <path id="DejaVuSans-30" d="M 2034 4250 
Q 1547 4250 1301 3770 
Q 1056 3291 1056 2328 
Q 1056 1369 1301 889 
Q 1547 409 2034 409 
Q 2525 409 2770 889 
Q 3016 1369 3016 2328 
Q 3016 3291 2770 3770 
Q 2525 4250 2034 4250 
z
M 2034 4750 
Q 2819 4750 3233 4129 
Q 3647 3509 3647 2328 
Q 3647 1150 3233 529 
Q 2819 -91 2034 -91 
Q 1250 -91 836 529 
Q 422 1150 422 2328 
Q 422 3509 836 4129 
Q 1250 4750 2034 4750 
z
" transform="scale(0.015625)"/>
       </defs>
       <use xlink:href="#DejaVuSans-30"/>
      </g>
     </g>
    </g>
    <g id="xtick_2">
     <g id="line2d_3">
      <path d="M 128.780537 252 
L 128.780537 34.56 
" clip-path="url(#p6dfcab2d8b)" style="fill: none; stroke: #b0b0b0; stroke-width: 0.8; stroke-linecap: square"/>
     </g>
     <g id="line2d_4">
      <g>
       <use xlink:href="#me8b1aaa286" x="128.780537" y="252" style="stroke: #000000; stroke-width: 0.8"/>
      </g>
     </g>
     <g id="text_2">
      <!-- 100 -->
      <g transform="translate(119.236787 266.598437)scale(0.1 -0.1)">
       <defs>
        <path id="DejaVuSans-31" d="M 794 531 
L 1825 531 
L 1825 4091 
L 703 3866 
L 703 4441 
L 1819 4666 
L 2450 4666 
L 2450 531 
L 3481 531 
L 3481 0 
L 794 0 
L 794 531 
z
" transform="scale(0.015625)"/>
       </defs>
       <use xlink:href="#DejaVuSans-31"/>
       <use xlink:href="#DejaVuSans-30" x="63.623047"/>
       <use xlink:href="#DejaVuSans-30" x="127.246094"/>
      </g>
     </g>
    </g>
    <g id="xtick_3">
     <g id="line2d_5">
      <path d="M 188.342893 252 
L 188.342893 34.56 
" clip-path="url(#p6dfcab2d8b)" style="fill: none; stroke: #b0b0b0; stroke-width: 0.8; stroke-linecap: square"/>
     </g>
     <g id="line2d_6">
      <g>
       <use xlink:href="#me8b1aaa286" x="188.342893" y="252" style="stroke: #000000; stroke-width: 0.8"/>
      </g>
     </g>
     <g id="text_3">
      <!-- 200 -->
      <g transform="translate(178.799143 266.598437)scale(0.1 -0.1)">
       <defs>
        <path id="DejaVuSans-32" d="M 1228 531 
L 3431 531 
L 3431 0 
L 469 0 
L 469 531 
Q 828 903 1448 1529 
Q 2069 2156 2228 2338 
Q 2531 2678 2651 2914 
Q 2772 3150 2772 3378 
Q 2772 3750 2511 3984 
Q 2250 4219 1831 4219 
Q 1534 4219 1204 4116 
Q 875 4013 500 3803 
L 500 4441 
Q 881 4594 1212 4672 
Q 1544 4750 1819 4750 
Q 2544 4750 2975 4387 
Q 3406 4025 3406 3419 
Q 3406 3131 3298 2873 
Q 3191 2616 2906 2266 
Q 2828 2175 2409 1742 
Q 1991 1309 1228 531 
z
" transform="scale(0.015625)"/>
       </defs>
       <use xlink:href="#DejaVuSans-32"/>
       <use xlink:href="#DejaVuSans-30" x="63.623047"/>
       <use xlink:href="#DejaVuSans-30" x="127.246094"/>
      </g>
     </g>
    </g>
    <g id="xtick_4">
     <g id="line2d_7">
      <path d="M 247.905248 252 
L 247.905248 34.56 
" clip-path="url(#p6dfcab2d8b)" style="fill: none; stroke: #b0b0b0; stroke-width: 0.8; stroke-linecap: square"/>
     </g>
     <g id="line2d_8">
      <g>
       <use xlink:href="#me8b1aaa286" x="247.905248" y="252" style="stroke: #000000; stroke-width: 0.8"/>
      </g>
     </g>
     <g id="text_4">
      <!-- 300 -->
      <g transform="translate(238.361498 266.598437)scale(0.1 -0.1)">
       <defs>
        <path id="DejaVuSans-33" d="M 2597 2516 
Q 3050 2419 3304 2112 
Q 3559 1806 3559 1356 
Q 3559 666 3084 287 
Q 2609 -91 1734 -91 
Q 1441 -91 1130 -33 
Q 819 25 488 141 
L 488 750 
Q 750 597 1062 519 
Q 1375 441 1716 441 
Q 2309 441 2620 675 
Q 2931 909 2931 1356 
Q 2931 1769 2642 2001 
Q 2353 2234 1838 2234 
L 1294 2234 
L 1294 2753 
L 1863 2753 
Q 2328 2753 2575 2939 
Q 2822 3125 2822 3475 
Q 2822 3834 2567 4026 
Q 2313 4219 1838 4219 
Q 1578 4219 1281 4162 
Q 984 4106 628 3988 
L 628 4550 
Q 988 4650 1302 4700 
Q 1616 4750 1894 4750 
Q 2613 4750 3031 4423 
Q 3450 4097 3450 3541 
Q 3450 3153 3228 2886 
Q 3006 2619 2597 2516 
z
" transform="scale(0.015625)"/>
       </defs>
       <use xlink:href="#DejaVuSans-33"/>
       <use xlink:href="#DejaVuSans-30" x="63.623047"/>
       <use xlink:href="#DejaVuSans-30" x="127.246094"/>
      </g>
     </g>
    </g>
    <g id="xtick_5">
     <g id="line2d_9">
      <path d="M 307.467604 252 
L 307.467604 34.56 
" clip-path="url(#p6dfcab2d8b)" style="fill: none; stroke: #b0b0b0; stroke-width: 0.8; stroke-linecap: square"/>
     </g>
     <g id="line2d_10">
      <g>
       <use xlink:href="#me8b1aaa286" x="307.467604" y="252" style="stroke: #000000; stroke-width: 0.8"/>
      </g>
     </g>
     <g id="text_5">
      <!-- 400 -->
      <g transform="translate(297.923854 266.598437)scale(0.1 -0.1)">
       <defs>
        <path id="DejaVuSans-34" d="M 2419 4116 
L 825 1625 
L 2419 1625 
L 2419 4116 
z
M 2253 4666 
L 3047 4666 
L 3047 1625 
L 3713 1625 
L 3713 1100 
L 3047 1100 
L 3047 0 
L 2419 0 
L 2419 1100 
L 313 1100 
L 313 1709 
L 2253 4666 
z
" transform="scale(0.015625)"/>
       </defs>
       <use xlink:href="#DejaVuSans-34"/>
       <use xlink:href="#DejaVuSans-30" x="63.623047"/>
       <use xlink:href="#DejaVuSans-30" x="127.246094"/>
      </g>
     </g>
    </g>
    <g id="xtick_6">
     <g id="line2d_11">
      <path d="M 367.029959 252 
L 367.029959 34.56 
" clip-path="url(#p6dfcab2d8b)" style="fill: none; stroke: #b0b0b0; stroke-width: 0.8; stroke-linecap: square"/>
     </g>
     <g id="line2d_12">
      <g>
       <use xlink:href="#me8b1aaa286" x="367.029959" y="252" style="stroke: #000000; stroke-width: 0.8"/>
      </g>
     </g>
     <g id="text_6">
      <!-- 500 -->
      <g transform="translate(357.486209 266.598437)scale(0.1 -0.1)">
       <defs>
        <path id="DejaVuSans-35" d="M 691 4666 
L 3169 4666 
L 3169 4134 
L 1269 4134 
L 1269 2991 
Q 1406 3038 1543 3061 
Q 1681 3084 1819 3084 
Q 2600 3084 3056 2656 
Q 3513 2228 3513 1497 
Q 3513 744 3044 326 
Q 2575 -91 1722 -91 
Q 1428 -91 1123 -41 
Q 819 9 494 109 
L 494 744 
Q 775 591 1075 516 
Q 1375 441 1709 441 
Q 2250 441 2565 725 
Q 2881 1009 2881 1497 
Q 2881 1984 2565 2268 
Q 2250 2553 1709 2553 
Q 1456 2553 1204 2497 
Q 953 2441 691 2322 
L 691 4666 
z
" transform="scale(0.015625)"/>
       </defs>
       <use xlink:href="#DejaVuSans-35"/>
       <use xlink:href="#DejaVuSans-30" x="63.623047"/>
       <use xlink:href="#DejaVuSans-30" x="127.246094"/>
      </g>
     </g>
    </g>
    <g id="text_7">
     <!-- bin -->
     <g transform="translate(213.667969 280.276563)scale(0.1 -0.1)">
      <defs>
       <path id="DejaVuSans-62" d="M 3116 1747 
Q 3116 2381 2855 2742 
Q 2594 3103 2138 3103 
Q 1681 3103 1420 2742 
Q 1159 2381 1159 1747 
Q 1159 1113 1420 752 
Q 1681 391 2138 391 
Q 2594 391 2855 752 
Q 3116 1113 3116 1747 
z
M 1159 2969 
Q 1341 3281 1617 3432 
Q 1894 3584 2278 3584 
Q 2916 3584 3314 3078 
Q 3713 2572 3713 1747 
Q 3713 922 3314 415 
Q 2916 -91 2278 -91 
Q 1894 -91 1617 61 
Q 1341 213 1159 525 
L 1159 0 
L 581 0 
L 581 4863 
L 1159 4863 
L 1159 2969 
z
" transform="scale(0.015625)"/>
       <path id="DejaVuSans-69" d="M 603 3500 
L 1178 3500 
L 1178 0 
L 603 0 
L 603 3500 
z
M 603 4863 
L 1178 4863 
L 1178 4134 
L 603 4134 
L 603 4863 
z
" transform="scale(0.015625)"/>
       <path id="DejaVuSans-6e" d="M 3513 2113 
L 3513 0 
L 2938 0 
L 2938 2094 
Q 2938 2591 2744 2837 
Q 2550 3084 2163 3084 
Q 1697 3084 1428 2787 
Q 1159 2491 1159 1978 
L 1159 0 
L 581 0 
L 581 3500 
L 1159 3500 
L 1159 2956 
Q 1366 3272 1645 3428 
Q 1925 3584 2291 3584 
Q 2894 3584 3203 3211 
Q 3513 2838 3513 2113 
z
" transform="scale(0.015625)"/>
      </defs>
      <use xlink:href="#DejaVuSans-62"/>
      <use xlink:href="#DejaVuSans-69" x="63.476562"/>
      <use xlink:href="#DejaVuSans-6e" x="91.259766"/>
     </g>
    </g>
   </g>
   <g id="matplotlib.axis_2">
    <g id="ytick_1">
     <g id="line2d_13">
      <path d="M 54 252 
L 388.8 252 
" clip-path="url(#p6dfcab2d8b)" style="fill: none; stroke: #b0b0b0; stroke-width: 0.8; stroke-linecap: square"/>
     </g>
     <g id="line2d_14">
      <defs>
       <path id="m282720c461" d="M 0 0 
L -3.5 0 
" style="stroke: #000000; stroke-width: 0.8"/>
      </defs>
      <g>
       <use xlink:href="#m282720c461" x="54" y="252" style="stroke: #000000; stroke-width: 0.8"/>
      </g>
     </g>
     <g id="text_8">
      <!-- 0.0 -->
      <g transform="translate(31.096875 255.799219)scale(0.1 -0.1)">
       <defs>
        <path id="DejaVuSans-2e" d="M 684 794 
L 1344 794 
L 1344 0 
L 684 0 
L 684 794 
z
" transform="scale(0.015625)"/>
       </defs>
       <use xlink:href="#DejaVuSans-30"/>
       <use xlink:href="#DejaVuSans-2e" x="63.623047"/>
       <use xlink:href="#DejaVuSans-30" x="95.410156"/>
      </g>
     </g>
    </g>
    <g id="ytick_2">
     <g id="line2d_15">
      <path d="M 54 208.512 
L 388.8 208.512 
" clip-path="url(#p6dfcab2d8b)" style="fill: none; stroke: #b0b0b0; stroke-width: 0.8; stroke-linecap: square"/>
     </g>
     <g id="line2d_16">
      <g>
       <use xlink:href="#m282720c461" x="54" y="208.512" style="stroke: #000000; stroke-width: 0.8"/>
      </g>
     </g>
     <g id="text_9">
      <!-- 0.2 -->
      <g transform="translate(31.096875 212.311219)scale(0.1 -0.1)">
       <use xlink:href="#DejaVuSans-30"/>
       <use xlink:href="#DejaVuSans-2e" x="63.623047"/>
       <use xlink:href="#DejaVuSans-32" x="95.410156"/>
      </g>
     </g>
    </g>
    <g id="ytick_3">
     <g id="line2d_17">
      <path d="M 54 165.024 
L 388.8 165.024 
" clip-path="url(#p6dfcab2d8b)" style="fill: none; stroke: #b0b0b0; stroke-width: 0.8; stroke-linecap: square"/>
     </g>
     <g id="line2d_18">
      <g>
       <use xlink:href="#m282720c461" x="54" y="165.024" style="stroke: #000000; stroke-width: 0.8"/>
      </g>
     </g>
     <g id="text_10">
      <!-- 0.4 -->
      <g transform="translate(31.096875 168.823219)scale(0.1 -0.1)">
       <use xlink:href="#DejaVuSans-30"/>
       <use xlink:href="#DejaVuSans-2e" x="63.623047"/>
       <use xlink:href="#DejaVuSans-34" x="95.410156"/>
      </g>
     </g>
    </g>
    <g id="ytick_4">
     <g id="line2d_19">
      <path d="M 54 121.536 
L 388.8 121.536 
" clip-path="url(#p6dfcab2d8b)" style="fill: none; stroke: #b0b0b0; stroke-width: 0.8; stroke-linecap: square"/>
     </g>
     <g id="line2d_20">
      <g>
       <use xlink:href="#m282720c461" x="54" y="121.536" style="stroke: #000000; stroke-width: 0.8"/>
      </g>
     </g>
     <g id="text_11">
      <!-- 0.6 -->
      <g transform="translate(31.096875 125.335219)scale(0.1 -0.1)">
       <defs>
        <path id="DejaVuSans-36" d="M 2113 2584 
Q 1688 2584 1439 2293 
Q 1191 2003 1191 1497 
Q 1191 994 1439 701 
Q 1688 409 2113 409 
Q 2538 409 2786 701 
Q 3034 994 3034 1497 
Q 3034 2003 2786 2293 
Q 2538 2584 2113 2584 
z
M 3366 4563 
L 3366 3988 
Q 3128 4100 2886 4159 
Q 2644 4219 2406 4219 
Q 1781 4219 1451 3797 
Q 1122 3375 1075 2522 
Q 1259 2794 1537 2939 
Q 1816 3084 2150 3084 
Q 2853 3084 3261 2657 
Q 3669 2231 3669 1497 
Q 3669 778 3244 343 
Q 2819 -91 2113 -91 
Q 1303 -91 875 529 
Q 447 1150 447 2328 
Q 447 3434 972 4092 
Q 1497 4750 2381 4750 
Q 2619 4750 2861 4703 
Q 3103 4656 3366 4563 
z
" transform="scale(0.015625)"/>
       </defs>
       <use xlink:href="#DejaVuSans-30"/>
       <use xlink:href="#DejaVuSans-2e" x="63.623047"/>
       <use xlink:href="#DejaVuSans-36" x="95.410156"/>
      </g>
     </g>
    </g>
    <g id="ytick_5">
     <g id="line2d_21">
      <path d="M 54 78.048 
L 388.8 78.048 
" clip-path="url(#p6dfcab2d8b)" style="fill: none; stroke: #b0b0b0; stroke-width: 0.8; stroke-linecap: square"/>
     </g>
     <g id="line2d_22">
      <g>
       <use xlink:href="#m282720c461" x="54" y="78.048" style="stroke: #000000; stroke-width: 0.8"/>
      </g>
     </g>
     <g id="text_12">
      <!-- 0.8 -->
      <g transform="translate(31.096875 81.847219)scale(0.1 -0.1)">
       <defs>
        <path id="DejaVuSans-38" d="M 2034 2216 
Q 1584 2216 1326 1975 
Q 1069 1734 1069 1313 
Q 1069 891 1326 650 
Q 1584 409 2034 409 
Q 2484 409 2743 651 
Q 3003 894 3003 1313 
Q 3003 1734 2745 1975 
Q 2488 2216 2034 2216 
z
M 1403 2484 
Q 997 2584 770 2862 
Q 544 3141 544 3541 
Q 544 4100 942 4425 
Q 1341 4750 2034 4750 
Q 2731 4750 3128 4425 
Q 3525 4100 3525 3541 
Q 3525 3141 3298 2862 
Q 3072 2584 2669 2484 
Q 3125 2378 3379 2068 
Q 3634 1759 3634 1313 
Q 3634 634 3220 271 
Q 2806 -91 2034 -91 
Q 1263 -91 848 271 
Q 434 634 434 1313 
Q 434 1759 690 2068 
Q 947 2378 1403 2484 
z
M 1172 3481 
Q 1172 3119 1398 2916 
Q 1625 2713 2034 2713 
Q 2441 2713 2670 2916 
Q 2900 3119 2900 3481 
Q 2900 3844 2670 4047 
Q 2441 4250 2034 4250 
Q 1625 4250 1398 4047 
Q 1172 3844 1172 3481 
z
" transform="scale(0.015625)"/>
       </defs>
       <use xlink:href="#DejaVuSans-30"/>
       <use xlink:href="#DejaVuSans-2e" x="63.623047"/>
       <use xlink:href="#DejaVuSans-38" x="95.410156"/>
      </g>
     </g>
    </g>
    <g id="ytick_6">
     <g id="line2d_23">
      <path d="M 54 34.56 
L 388.8 34.56 
" clip-path="url(#p6dfcab2d8b)" style="fill: none; stroke: #b0b0b0; stroke-width: 0.8; stroke-linecap: square"/>
     </g>
     <g id="line2d_24">
      <g>
       <use xlink:href="#m282720c461" x="54" y="34.56" style="stroke: #000000; stroke-width: 0.8"/>
      </g>
     </g>
     <g id="text_13">
      <!-- 1.0 -->
      <g transform="translate(31.096875 38.359219)scale(0.1 -0.1)">
       <use xlink:href="#DejaVuSans-31"/>
       <use xlink:href="#DejaVuSans-2e" x="63.623047"/>
       <use xlink:href="#DejaVuSans-30" x="95.410156"/>
      </g>
     </g>
    </g>
    <g id="text_14">
     <!-- count -->
     <g transform="translate(25.017187 157.38625)rotate(-90)scale(0.1 -0.1)">
      <defs>
       <path id="DejaVuSans-63" d="M 3122 3366 
L 3122 2828 
Q 2878 2963 2633 3030 
Q 2388 3097 2138 3097 
Q 1578 3097 1268 2742 
Q 959 2388 959 1747 
Q 959 1106 1268 751 
Q 1578 397 2138 397 
Q 2388 397 2633 464 
Q 2878 531 3122 666 
L 3122 134 
Q 2881 22 2623 -34 
Q 2366 -91 2075 -91 
Q 1284 -91 818 406 
Q 353 903 353 1747 
Q 353 2603 823 3093 
Q 1294 3584 2113 3584 
Q 2378 3584 2631 3529 
Q 2884 3475 3122 3366 
z
" transform="scale(0.015625)"/>
       <path id="DejaVuSans-6f" d="M 1959 3097 
Q 1497 3097 1228 2736 
Q 959 2375 959 1747 
Q 959 1119 1226 758 
Q 1494 397 1959 397 
Q 2419 397 2687 759 
Q 2956 1122 2956 1747 
Q 2956 2369 2687 2733 
Q 2419 3097 1959 3097 
z
M 1959 3584 
Q 2709 3584 3137 3096 
Q 3566 2609 3566 1747 
Q 3566 888 3137 398 
Q 2709 -91 1959 -91 
Q 1206 -91 779 398 
Q 353 888 353 1747 
Q 353 2609 779 3096 
Q 1206 3584 1959 3584 
z
" transform="scale(0.015625)"/>
       <path id="DejaVuSans-75" d="M 544 1381 
L 544 3500 
L 1119 3500 
L 1119 1403 
Q 1119 906 1312 657 
Q 1506 409 1894 409 
Q 2359 409 2629 706 
Q 2900 1003 2900 1516 
L 2900 3500 
L 3475 3500 
L 3475 0 
L 2900 0 
L 2900 538 
Q 2691 219 2414 64 
Q 2138 -91 1772 -91 
Q 1169 -91 856 284 
Q 544 659 544 1381 
z
M 1991 3584 
L 1991 3584 
z
" transform="scale(0.015625)"/>
       <path id="DejaVuSans-74" d="M 1172 4494 
L 1172 3500 
L 2356 3500 
L 2356 3053 
L 1172 3053 
L 1172 1153 
Q 1172 725 1289 603 
Q 1406 481 1766 481 
L 2356 481 
L 2356 0 
L 1766 0 
Q 1100 0 847 248 
Q 594 497 594 1153 
L 594 3053 
L 172 3053 
L 172 3500 
L 594 3500 
L 594 4494 
L 1172 4494 
z
" transform="scale(0.015625)"/>
      </defs>
      <use xlink:href="#DejaVuSans-63"/>
      <use xlink:href="#DejaVuSans-6f" x="54.980469"/>
      <use xlink:href="#DejaVuSans-75" x="116.162109"/>
      <use xlink:href="#DejaVuSans-6e" x="179.541016"/>
      <use xlink:href="#DejaVuSans-74" x="242.919922"/>
     </g>
    </g>
   </g>
   <g id="line2d_25">
    <path d="M 69.218182 227.360907 
L 69.813805 222.433088 
L 70.409429 236.908555 
L 71.005052 221.81711 
L 71.600676 219.045212 
L 72.1963 226.436941 
L 72.791923 223.049065 
L 73.387547 216.889292 
L 73.98317 231.364759 
L 74.578794 220.277167 
L 75.174417 227.360907 
L 75.770041 232.288725 
L 76.365664 221.81711 
L 76.961288 236.292578 
L 77.556912 234.444646 
L 78.152535 218.429235 
L 78.748159 228.284873 
L 79.343782 227.668895 
L 79.939406 238.14051 
L 80.535029 235.676601 
L 81.130653 227.976884 
L 81.726276 228.284873 
L 82.3219 235.368612 
L 82.917524 229.516827 
L 83.513147 225.820963 
L 84.704394 231.672748 
L 85.300018 217.19728 
L 85.895641 231.980737 
L 86.491265 229.824816 
L 87.086888 225.512975 
L 87.682512 233.828669 
L 88.278136 227.668895 
L 88.873759 246.456204 
L 89.469383 217.813258 
L 90.065006 235.984589 
L 90.66063 227.360907 
L 91.256253 235.984589 
L 91.851877 221.509122 
L 92.4475 236.600567 
L 93.638748 217.813258 
L 94.234371 206.109688 
L 94.829995 230.748782 
L 95.425618 226.744929 
L 96.021242 208.881586 
L 96.616865 222.741076 
L 97.212489 216.581303 
L 97.808112 231.364759 
L 98.403736 239.372465 
L 98.99936 230.748782 
L 99.594983 216.273314 
L 100.190607 229.824816 
L 100.78623 230.440793 
L 101.381854 211.961473 
L 101.977477 206.725666 
L 102.573101 229.208839 
L 103.168724 234.752635 
L 103.764348 227.668895 
L 104.359972 232.904703 
L 104.955595 225.512975 
L 105.551219 229.208839 
L 106.146842 218.429235 
L 106.742466 226.744929 
L 107.338089 226.744929 
L 107.933713 225.204986 
L 108.529336 226.744929 
L 109.12496 224.28102 
L 109.720584 225.820963 
L 110.316207 221.509122 
L 110.911831 216.273314 
L 111.507454 230.132805 
L 112.103078 235.060623 
L 112.698701 221.509122 
L 113.294325 229.824816 
L 113.889948 214.733371 
L 114.485572 231.364759 
L 115.081196 231.672748 
L 115.676819 217.505269 
L 116.272443 221.509122 
L 116.868066 231.980737 
L 117.46369 220.893144 
L 118.059313 218.429235 
L 118.654937 214.117394 
L 119.25056 228.284873 
L 119.846184 227.052918 
L 120.441808 208.265609 
L 121.037431 224.589008 
L 121.633055 221.81711 
L 122.228678 224.28102 
L 122.824302 229.208839 
L 123.419925 229.824816 
L 124.015549 231.364759 
L 124.611172 209.497564 
L 125.802419 225.820963 
L 126.398043 229.208839 
L 126.993667 229.516827 
L 127.58929 214.117394 
L 128.780537 232.904703 
L 129.376161 210.42153 
L 129.971784 228.90085 
L 130.567408 218.737224 
L 131.163031 233.828669 
L 131.758655 216.273314 
L 132.354279 231.056771 
L 132.949902 214.117394 
L 133.545526 240.296431 
L 134.141149 226.744929 
L 134.736773 235.368612 
L 135.332396 231.672748 
L 135.92802 223.357054 
L 136.523643 228.90085 
L 137.119267 223.049065 
L 137.714891 231.056771 
L 138.310514 236.292578 
L 138.906138 219.353201 
L 139.501761 207.033654 
L 140.097385 220.893144 
L 140.693008 220.585156 
L 141.288632 222.741076 
L 141.884255 237.216544 
L 142.479879 222.433088 
L 143.075503 223.049065 
L 143.671126 238.756487 
L 144.26675 230.748782 
L 144.862373 227.052918 
L 145.457997 224.896997 
L 146.05362 213.193428 
L 146.649244 235.984589 
L 147.244867 238.14051 
L 147.840491 215.965326 
L 148.436115 216.581303 
L 149.031738 236.600567 
L 149.627362 213.501416 
L 150.222985 231.980737 
L 150.818609 221.509122 
L 151.414232 225.820963 
L 152.009856 228.592861 
L 152.605479 216.889292 
L 153.201103 239.680453 
L 153.796727 229.516827 
L 154.39235 227.976884 
L 154.987974 214.425382 
L 155.583597 232.288725 
L 156.179221 235.676601 
L 156.774844 228.592861 
L 157.370468 235.984589 
L 157.966091 234.444646 
L 158.561715 216.581303 
L 159.157339 222.741076 
L 159.752962 244.916261 
L 160.348586 228.284873 
L 160.944209 226.436941 
L 161.539833 227.668895 
L 162.135456 226.436941 
L 162.73108 247.996147 
L 163.326703 218.429235 
L 163.922327 231.056771 
L 164.517951 228.90085 
L 165.113574 221.81711 
L 165.709198 225.512975 
L 166.304821 220.277167 
L 166.900445 218.737224 
L 167.496068 227.360907 
L 168.091692 216.889292 
L 168.687315 212.885439 
L 169.282939 212.885439 
L 169.878563 196.254051 
L 170.474186 204.261756 
L 172.261057 115.253031 
L 172.85668 75.214504 
L 173.452304 46.263569 
L 174.047927 34.56 
L 174.643551 46.263569 
L 175.239175 54.579263 
L 175.834798 84.454164 
L 176.430422 107.553314 
L 177.026045 121.720793 
L 177.621669 144.203966 
L 178.217292 176.542776 
L 178.812916 198.101983 
L 179.408539 198.101983 
L 180.004163 218.121246 
L 180.599787 219.66119 
L 181.19541 203.33779 
L 181.791034 227.052918 
L 182.386657 220.893144 
L 183.577904 227.360907 
L 184.173528 209.805552 
L 184.769151 231.980737 
L 185.364775 221.509122 
L 185.960399 203.33779 
L 186.556022 238.14051 
L 187.151646 219.66119 
L 187.747269 219.969178 
L 188.342893 239.988442 
L 188.938516 228.284873 
L 189.53414 223.973031 
L 190.129763 208.881586 
L 190.725387 209.805552 
L 191.32101 213.501416 
L 191.916634 197.178017 
L 192.512258 195.638074 
L 193.107881 209.805552 
L 193.703505 207.341643 
L 194.299128 214.425382 
L 194.894752 205.8017 
L 195.490375 205.8017 
L 196.085999 211.037507 
L 197.277246 214.425382 
L 197.87287 223.357054 
L 198.468493 205.8017 
L 199.064117 223.357054 
L 199.65974 219.66119 
L 200.255364 224.589008 
L 200.850987 211.345496 
L 201.446611 203.953768 
L 202.042234 208.573598 
L 202.637858 219.045212 
L 203.233482 217.505269 
L 203.829105 234.444646 
L 204.424729 239.680453 
L 205.020352 231.056771 
L 205.615976 219.969178 
L 206.211599 214.733371 
L 206.807223 225.204986 
L 207.402846 230.132805 
L 207.99847 227.668895 
L 208.594094 227.052918 
L 209.189717 227.976884 
L 209.785341 228.284873 
L 210.380964 232.904703 
L 210.976588 220.277167 
L 211.572211 219.66119 
L 212.167835 213.809405 
L 212.763458 232.596714 
L 213.359082 231.364759 
L 213.954706 229.824816 
L 214.550329 242.452351 
L 215.145953 212.885439 
L 215.741576 214.117394 
L 216.3372 219.353201 
L 216.932823 229.208839 
L 217.528447 223.049065 
L 218.12407 235.676601 
L 218.719694 217.19728 
L 219.315318 233.52068 
L 219.910941 222.741076 
L 220.506565 232.904703 
L 221.102188 235.984589 
L 221.697812 218.121246 
L 222.293435 209.189575 
L 222.889059 213.809405 
L 223.484682 223.973031 
L 224.080306 205.493711 
L 224.67593 222.741076 
L 225.271553 208.881586 
L 225.867177 214.425382 
L 226.4628 206.417677 
L 227.058424 184.550482 
L 227.654047 193.482153 
L 228.249671 180.23864 
L 228.845294 175.310822 
L 229.440918 176.234788 
L 230.036542 135.580283 
L 230.632165 172.538924 
L 231.227789 159.603399 
L 231.823412 158.371445 
L 232.419036 180.546629 
L 233.014659 215.965326 
L 233.610283 216.581303 
L 234.205906 221.81711 
L 234.80153 206.725666 
L 235.397154 229.824816 
L 235.992777 213.809405 
L 236.588401 226.744929 
L 237.184024 225.204986 
L 237.779648 226.128952 
L 238.375271 225.204986 
L 238.970895 238.756487 
L 239.566518 229.208839 
L 240.162142 229.516827 
L 240.757766 214.733371 
L 241.353389 219.969178 
L 241.949013 235.676601 
L 242.544636 233.212691 
L 243.14026 223.357054 
L 243.735883 236.600567 
L 244.331507 234.136657 
L 244.92713 216.273314 
L 245.522754 243.068329 
L 246.118378 242.452351 
L 246.714001 214.733371 
L 247.309625 229.824816 
L 247.905248 213.809405 
L 248.500872 229.208839 
L 249.096495 220.277167 
L 249.692119 227.976884 
L 250.287742 238.14051 
L 250.883366 215.965326 
L 251.47899 229.208839 
L 252.074613 228.592861 
L 252.670237 224.896997 
L 253.26586 222.741076 
L 253.861484 222.433088 
L 254.457107 219.045212 
L 255.052731 211.653484 
L 255.648354 243.992295 
L 256.243978 220.277167 
L 256.839601 229.824816 
L 257.435225 225.512975 
L 258.030849 231.672748 
L 258.626472 229.516827 
L 259.222096 243.684306 
L 259.817719 198.71796 
L 260.413343 232.596714 
L 261.60459 214.733371 
L 262.200213 221.509122 
L 262.795837 233.828669 
L 263.391461 218.121246 
L 263.987084 240.912408 
L 264.582708 221.509122 
L 265.178331 212.57745 
L 265.773955 232.596714 
L 266.369578 222.433088 
L 266.965202 218.737224 
L 267.560825 227.052918 
L 268.156449 195.946062 
L 268.752073 238.756487 
L 269.347696 220.893144 
L 269.94332 220.585156 
L 270.538943 229.824816 
L 271.134567 216.889292 
L 271.73019 234.444646 
L 272.325814 227.976884 
L 272.921437 238.14051 
L 273.517061 223.973031 
L 274.112685 219.66119 
L 274.708308 223.665042 
L 275.303932 222.433088 
L 275.899555 233.212691 
L 276.495179 220.277167 
L 277.090802 219.969178 
L 277.686426 227.668895 
L 278.282049 226.744929 
L 278.877673 219.969178 
L 279.473297 223.665042 
L 280.06892 236.292578 
L 280.664544 228.284873 
L 281.260167 224.589008 
L 281.855791 229.208839 
L 282.451414 216.581303 
L 283.047038 217.505269 
L 283.642661 231.056771 
L 284.238285 217.505269 
L 284.833909 229.516827 
L 285.429532 225.820963 
L 286.025156 207.649632 
L 286.620779 238.448499 
L 287.216403 218.737224 
L 287.812026 244.300283 
L 288.40765 222.433088 
L 289.003273 222.741076 
L 290.194521 232.596714 
L 290.790144 227.668895 
L 291.385768 214.733371 
L 291.981391 229.824816 
L 292.577015 217.19728 
L 293.172638 236.600567 
L 293.768262 213.501416 
L 294.363885 224.896997 
L 294.959509 217.505269 
L 295.555133 227.052918 
L 296.150756 234.444646 
L 296.74638 219.045212 
L 297.342003 228.284873 
L 298.53325 220.893144 
L 299.128874 252 
L 300.320121 231.056771 
L 300.915745 211.037507 
L 301.511368 225.820963 
L 302.702615 235.676601 
L 303.298239 229.516827 
L 303.893862 218.429235 
L 304.489486 227.360907 
L 305.085109 231.056771 
L 305.680733 215.349348 
L 306.276357 221.509122 
L 306.87198 215.965326 
L 307.467604 227.668895 
L 308.063227 235.060623 
L 308.658851 239.372465 
L 309.254474 228.284873 
L 309.850098 229.516827 
L 310.445721 241.220397 
L 311.041345 230.748782 
L 311.636969 227.052918 
L 312.232592 228.284873 
L 312.828216 235.368612 
L 313.423839 233.828669 
L 314.019463 233.828669 
L 314.615086 216.889292 
L 315.21071 233.52068 
L 315.806333 231.980737 
L 316.401957 216.581303 
L 316.997581 225.204986 
L 317.593204 222.741076 
L 318.188828 227.976884 
L 318.784451 219.66119 
L 319.380075 224.589008 
L 319.975698 217.813258 
L 320.571322 233.212691 
L 321.166945 225.204986 
L 321.762569 228.284873 
L 322.358192 214.425382 
L 322.953816 231.364759 
L 323.54944 225.512975 
L 324.145063 229.208839 
L 324.740687 229.516827 
L 325.33631 216.889292 
L 325.931934 223.049065 
L 326.527557 250.460057 
L 327.123181 222.433088 
L 327.718804 223.357054 
L 328.314428 225.512975 
L 328.910052 215.657337 
L 329.505675 223.665042 
L 330.101299 224.589008 
L 330.696922 219.66119 
L 331.292546 231.364759 
L 331.888169 224.28102 
L 332.483793 223.357054 
L 333.079416 217.19728 
L 333.67504 232.596714 
L 334.270664 211.961473 
L 334.866287 221.81711 
L 335.461911 200.565892 
L 336.057534 228.592861 
L 336.653158 223.049065 
L 337.248781 223.665042 
L 337.844405 225.512975 
L 338.440028 225.512975 
L 339.035652 216.273314 
L 339.631276 213.501416 
L 340.226899 223.665042 
L 340.822523 245.532238 
L 341.418146 231.364759 
L 342.01377 220.893144 
L 342.609393 214.425382 
L 343.205017 244.608272 
L 343.80064 228.90085 
L 344.396264 229.516827 
L 344.991888 239.988442 
L 345.587511 221.81711 
L 346.183135 214.425382 
L 347.374382 225.512975 
L 347.970005 221.81711 
L 348.565629 215.04136 
L 349.161252 228.284873 
L 349.756876 212.57745 
L 350.3525 222.125099 
L 350.948123 217.813258 
L 351.543747 220.277167 
L 352.13937 220.277167 
L 352.734994 211.037507 
L 353.330617 232.904703 
L 353.926241 220.277167 
L 354.521864 223.665042 
L 355.117488 215.04136 
L 355.713112 218.429235 
L 356.308735 220.277167 
L 356.904359 220.277167 
L 357.499982 224.28102 
L 358.095606 227.052918 
L 358.691229 230.748782 
L 359.286853 235.676601 
L 359.882476 236.908555 
L 360.4781 208.265609 
L 361.073724 223.665042 
L 361.669347 225.204986 
L 362.264971 226.128952 
L 362.860594 219.045212 
L 363.456218 236.292578 
L 364.051841 213.193428 
L 364.647465 227.668895 
L 365.243088 215.349348 
L 365.838712 215.657337 
L 366.434336 235.060623 
L 367.029959 224.28102 
L 367.625583 215.965326 
L 368.221206 223.973031 
L 368.81683 233.52068 
L 369.412453 232.288725 
L 370.008077 226.436941 
L 370.6037 213.809405 
L 371.199324 234.444646 
L 371.794948 215.965326 
L 372.390571 221.509122 
L 372.986195 224.896997 
L 373.581818 231.364759 
L 373.581818 231.364759 
" clip-path="url(#p6dfcab2d8b)" style="fill: none; stroke: #1f77b4; stroke-width: 1.5; stroke-linecap: square"/>
   </g>
   <g id="line2d_26">
    <path d="M 69.218182 221.469041 
L 69.813805 248.649041 
L 70.409429 209.554521 
L 71.005052 238.596164 
L 71.600676 233.011233 
L 72.1963 240.830137 
L 72.791923 219.979726 
L 73.387547 228.543288 
L 73.98317 218.86274 
L 74.578794 233.383562 
L 75.174417 226.309315 
L 75.770041 247.532055 
L 76.365664 240.085479 
L 76.961288 226.309315 
L 77.556912 235.989863 
L 78.152535 239.340822 
L 78.748159 215.511781 
L 79.343782 243.436438 
L 79.939406 235.989863 
L 80.535029 252 
L 81.130653 217.373425 
L 81.726276 234.128219 
L 82.3219 234.128219 
L 82.917524 219.979726 
L 83.513147 241.574795 
L 84.108771 241.202466 
L 84.704394 239.340822 
L 85.895641 228.915616 
L 86.491265 219.235068 
L 87.086888 238.596164 
L 87.682512 247.532055 
L 88.278136 220.724384 
L 88.873759 241.202466 
L 89.469383 237.851507 
L 90.065006 225.936986 
L 90.66063 229.660274 
L 91.256253 232.266575 
L 91.851877 245.670411 
L 92.4475 218.118082 
L 93.043124 234.128219 
L 93.638748 227.053973 
L 94.234371 226.309315 
L 94.829995 241.947123 
L 95.425618 225.192329 
L 96.021242 230.032603 
L 96.616865 235.989863 
L 97.212489 236.734521 
L 97.808112 234.128219 
L 98.403736 233.011233 
L 99.594983 226.681644 
L 100.190607 231.521918 
L 100.78623 228.915616 
L 101.381854 236.734521 
L 101.977477 231.894247 
L 102.573101 240.085479 
L 103.168724 222.213699 
L 103.764348 238.596164 
L 104.359972 243.06411 
L 104.955595 229.287945 
L 105.551219 231.894247 
L 106.146842 230.77726 
L 106.742466 224.447671 
L 107.338089 235.617534 
L 107.933713 222.958356 
L 108.529336 238.596164 
L 109.12496 235.617534 
L 109.720584 247.159726 
L 110.316207 241.202466 
L 110.911831 226.309315 
L 111.507454 226.681644 
L 112.103078 246.04274 
L 112.698701 219.607397 
L 113.294325 227.053973 
L 113.889948 223.330685 
L 114.485572 225.192329 
L 115.081196 222.958356 
L 115.676819 231.894247 
L 116.272443 216.256438 
L 116.868066 234.128219 
L 117.46369 234.500548 
L 118.059313 229.287945 
L 118.654937 225.936986 
L 119.25056 238.596164 
L 119.846184 228.170959 
L 120.441808 240.085479 
L 121.037431 234.872877 
L 121.633055 238.968493 
L 122.228678 230.032603 
L 122.824302 228.915616 
L 123.419925 230.032603 
L 124.611172 217.373425 
L 125.206796 241.574795 
L 125.802419 237.851507 
L 126.398043 231.149589 
L 126.993667 229.287945 
L 127.58929 237.479178 
L 128.184914 233.011233 
L 128.780537 234.872877 
L 129.376161 223.330685 
L 129.971784 214.767123 
L 130.567408 218.118082 
L 131.163031 238.596164 
L 131.758655 237.106849 
L 132.354279 242.691781 
L 132.949902 219.979726 
L 133.545526 224.82 
L 134.141149 206.203562 
L 134.736773 246.415068 
L 135.332396 220.352055 
L 135.92802 241.947123 
L 136.523643 241.202466 
L 137.119267 239.713151 
L 137.714891 231.521918 
L 138.310514 238.968493 
L 138.906138 229.660274 
L 139.501761 231.521918 
L 140.097385 225.936986 
L 140.693008 238.596164 
L 141.288632 229.660274 
L 141.884255 223.330685 
L 142.479879 223.330685 
L 143.075503 231.521918 
L 143.671126 230.404932 
L 144.26675 230.404932 
L 144.862373 250.510685 
L 145.457997 232.638904 
L 146.05362 228.915616 
L 146.649244 219.607397 
L 147.244867 243.436438 
L 147.840491 231.894247 
L 148.436115 247.159726 
L 149.031738 237.851507 
L 149.627362 233.383562 
L 150.818609 221.096712 
L 151.414232 205.458904 
L 152.009856 196.895342 
L 152.605479 184.608493 
L 153.201103 141.046027 
L 153.796727 118.333973 
L 154.39235 106.791781 
L 154.987974 66.952603 
L 156.179221 34.56 
L 156.774844 65.090959 
L 157.370468 53.921096 
L 158.561715 141.046027 
L 159.157339 172.693973 
L 159.752962 189.076438 
L 160.348586 193.916712 
L 160.944209 212.533151 
L 161.539833 223.703014 
L 162.135456 218.490411 
L 162.73108 243.436438 
L 163.326703 229.287945 
L 163.922327 234.872877 
L 164.517951 235.245205 
L 165.113574 234.128219 
L 165.709198 237.106849 
L 166.304821 237.106849 
L 166.900445 234.500548 
L 167.496068 237.479178 
L 168.091692 219.235068 
L 168.687315 226.309315 
L 169.282939 222.586027 
L 169.878563 230.77726 
L 170.474186 228.543288 
L 171.06981 237.851507 
L 171.665433 224.82 
L 172.261057 214.767123 
L 172.85668 210.671507 
L 173.452304 224.447671 
L 174.047927 227.053973 
L 174.643551 210.299178 
L 175.239175 214.394795 
L 175.834798 204.341918 
L 176.430422 214.022466 
L 177.026045 211.416164 
L 177.621669 221.84137 
L 178.217292 214.394795 
L 178.812916 200.990959 
L 179.408539 228.170959 
L 180.004163 209.926849 
L 180.599787 228.170959 
L 181.19541 224.82 
L 181.791034 224.447671 
L 182.386657 228.543288 
L 182.982281 234.500548 
L 183.577904 222.586027 
L 184.173528 223.703014 
L 184.769151 226.681644 
L 185.364775 228.915616 
L 185.960399 233.75589 
L 186.556022 231.149589 
L 187.151646 235.617534 
L 187.747269 236.734521 
L 188.342893 222.586027 
L 189.53414 231.894247 
L 190.129763 224.82 
L 191.916634 238.968493 
L 192.512258 234.500548 
L 193.107881 233.383562 
L 193.703505 210.299178 
L 194.299128 231.521918 
L 194.894752 233.383562 
L 195.490375 234.500548 
L 196.085999 231.149589 
L 196.681622 235.989863 
L 197.277246 231.521918 
L 197.87287 238.968493 
L 198.468493 235.617534 
L 199.064117 224.447671 
L 199.65974 224.447671 
L 200.255364 232.266575 
L 200.850987 232.638904 
L 201.446611 224.447671 
L 202.042234 236.362192 
L 202.637858 226.309315 
L 203.233482 238.223836 
L 203.829105 220.724384 
L 204.424729 227.053973 
L 205.020352 226.681644 
L 205.615976 219.979726 
L 206.211599 217.373425 
L 206.807223 228.915616 
L 207.402846 220.352055 
L 207.99847 232.266575 
L 208.594094 211.416164 
L 209.189717 202.480274 
L 209.785341 184.236164 
L 210.380964 181.629863 
L 210.976588 155.939178 
L 211.572211 168.598356 
L 212.167835 173.810959 
L 212.763458 150.726575 
L 213.359082 176.044932 
L 213.954706 178.651233 
L 215.741576 214.394795 
L 216.3372 229.287945 
L 216.932823 231.521918 
L 217.528447 223.703014 
L 218.12407 239.713151 
L 218.719694 236.734521 
L 219.315318 222.958356 
L 219.910941 223.703014 
L 220.506565 225.564658 
L 221.102188 236.362192 
L 221.697812 223.703014 
L 222.293435 232.638904 
L 222.889059 236.734521 
L 223.484682 236.734521 
L 224.080306 231.521918 
L 224.67593 219.235068 
L 225.867177 234.128219 
L 226.4628 226.681644 
L 227.058424 222.958356 
L 227.654047 229.660274 
L 228.249671 232.638904 
L 228.845294 250.883014 
L 229.440918 230.032603 
L 230.036542 224.82 
L 230.632165 224.075342 
L 231.227789 231.149589 
L 231.823412 231.149589 
L 232.419036 220.352055 
L 233.014659 232.266575 
L 233.610283 236.362192 
L 234.205906 222.958356 
L 234.80153 237.106849 
L 235.397154 234.872877 
L 235.992777 238.968493 
L 236.588401 209.182192 
L 237.184024 221.469041 
L 237.779648 236.362192 
L 238.375271 226.309315 
L 238.970895 241.574795 
L 239.566518 235.989863 
L 240.162142 234.872877 
L 240.757766 237.479178 
L 241.353389 219.235068 
L 241.949013 225.564658 
L 242.544636 219.235068 
L 243.14026 235.617534 
L 243.735883 238.223836 
L 244.331507 233.011233 
L 244.92713 237.479178 
L 245.522754 228.915616 
L 246.118378 229.660274 
L 246.714001 241.947123 
L 247.309625 228.543288 
L 247.905248 235.245205 
L 248.500872 235.245205 
L 249.096495 228.543288 
L 249.692119 234.500548 
L 250.287742 218.86274 
L 250.883366 243.436438 
L 251.47899 234.500548 
L 252.074613 219.607397 
L 253.26586 229.287945 
L 253.861484 246.787397 
L 254.457107 239.713151 
L 255.052731 215.88411 
L 255.648354 231.149589 
L 256.243978 232.638904 
L 256.839601 229.660274 
L 257.435225 240.085479 
L 258.030849 226.681644 
L 258.626472 227.426301 
L 259.222096 230.404932 
L 259.817719 227.79863 
L 261.008966 234.500548 
L 261.60459 232.638904 
L 262.200213 230.404932 
L 262.795837 235.989863 
L 263.391461 225.564658 
L 263.987084 219.607397 
L 264.582708 238.596164 
L 265.178331 233.383562 
L 265.773955 220.352055 
L 266.369578 235.989863 
L 266.965202 228.543288 
L 267.560825 243.06411 
L 268.156449 221.469041 
L 268.752073 224.82 
L 269.347696 227.426301 
L 269.94332 219.979726 
L 270.538943 232.638904 
L 271.134567 221.469041 
L 271.73019 220.724384 
L 272.921437 234.872877 
L 273.517061 228.915616 
L 274.112685 237.106849 
L 274.708308 236.362192 
L 275.303932 232.266575 
L 275.899555 242.319452 
L 276.495179 228.543288 
L 277.090802 231.149589 
L 277.686426 219.235068 
L 278.282049 229.287945 
L 278.877673 220.724384 
L 279.473297 247.532055 
L 280.06892 231.894247 
L 280.664544 237.479178 
L 281.260167 230.77726 
L 281.855791 221.84137 
L 282.451414 230.404932 
L 283.047038 219.607397 
L 283.642661 229.287945 
L 284.238285 228.915616 
L 284.833909 231.149589 
L 285.429532 227.053973 
L 286.025156 250.138356 
L 286.620779 218.118082 
L 287.216403 226.309315 
L 288.40765 230.77726 
L 289.003273 234.128219 
L 289.598897 229.660274 
L 290.194521 222.586027 
L 290.790144 224.447671 
L 291.385768 232.266575 
L 291.981391 235.617534 
L 292.577015 235.245205 
L 293.172638 225.936986 
L 293.768262 243.436438 
L 294.363885 221.096712 
L 294.959509 228.543288 
L 295.555133 229.287945 
L 296.150756 228.170959 
L 296.74638 234.872877 
L 297.342003 215.88411 
L 297.937627 219.235068 
L 298.53325 242.691781 
L 299.128874 244.181096 
L 299.724497 225.564658 
L 300.320121 239.340822 
L 300.915745 230.77726 
L 301.511368 237.106849 
L 302.106992 222.586027 
L 302.702615 233.011233 
L 303.298239 233.011233 
L 303.893862 227.053973 
L 304.489486 231.894247 
L 305.085109 225.936986 
L 305.680733 230.032603 
L 306.276357 224.82 
L 306.87198 241.574795 
L 307.467604 225.564658 
L 308.063227 247.532055 
L 308.658851 224.82 
L 309.254474 209.554521 
L 309.850098 232.266575 
L 310.445721 217.001096 
L 311.041345 230.404932 
L 311.636969 235.245205 
L 312.232592 235.989863 
L 312.828216 228.170959 
L 313.423839 236.362192 
L 314.019463 239.340822 
L 314.615086 222.586027 
L 315.21071 243.06411 
L 316.401957 215.511781 
L 316.997581 236.362192 
L 317.593204 224.075342 
L 318.188828 242.691781 
L 318.784451 234.500548 
L 319.380075 232.638904 
L 319.975698 232.266575 
L 320.571322 238.596164 
L 321.166945 234.500548 
L 321.762569 237.479178 
L 322.358192 234.500548 
L 322.953816 238.596164 
L 323.54944 234.128219 
L 324.145063 212.160822 
L 324.740687 227.79863 
L 325.33631 231.521918 
L 325.931934 217.745753 
L 326.527557 228.543288 
L 327.123181 224.82 
L 327.718804 231.894247 
L 328.314428 221.84137 
L 328.910052 225.192329 
L 329.505675 224.82 
L 330.101299 228.543288 
L 330.696922 229.287945 
L 331.292546 235.617534 
L 331.888169 232.266575 
L 332.483793 225.192329 
L 333.079416 226.309315 
L 333.67504 245.298082 
L 334.270664 229.287945 
L 334.866287 226.309315 
L 335.461911 228.915616 
L 336.057534 232.638904 
L 336.653158 225.564658 
L 337.844405 236.362192 
L 338.440028 224.82 
L 339.035652 235.989863 
L 339.631276 238.596164 
L 340.226899 241.947123 
L 340.822523 223.330685 
L 341.418146 232.266575 
L 342.01377 238.596164 
L 342.609393 234.500548 
L 343.205017 235.989863 
L 343.80064 223.703014 
L 344.396264 224.82 
L 344.991888 241.947123 
L 345.587511 228.170959 
L 346.183135 240.830137 
L 346.778758 229.660274 
L 347.374382 223.330685 
L 347.970005 221.096712 
L 348.565629 220.724384 
L 349.161252 224.447671 
L 349.756876 231.521918 
L 350.3525 230.404932 
L 350.948123 229.660274 
L 351.543747 233.383562 
L 352.13937 220.724384 
L 352.734994 231.149589 
L 353.330617 238.968493 
L 353.926241 228.915616 
L 354.521864 224.82 
L 355.117488 234.872877 
L 355.713112 232.638904 
L 356.308735 241.947123 
L 356.904359 236.734521 
L 357.499982 230.032603 
L 358.095606 232.638904 
L 358.691229 222.958356 
L 359.286853 231.149589 
L 359.882476 229.287945 
L 360.4781 241.574795 
L 361.073724 224.075342 
L 361.669347 221.469041 
L 362.264971 231.149589 
L 362.860594 215.88411 
L 363.456218 231.894247 
L 364.051841 225.192329 
L 364.647465 241.947123 
L 365.243088 230.032603 
L 365.838712 231.521918 
L 366.434336 231.149589 
L 367.029959 249.766027 
L 367.625583 240.085479 
L 368.221206 222.958356 
L 368.81683 227.79863 
L 369.412453 233.75589 
L 370.008077 231.894247 
L 370.6037 234.872877 
L 371.199324 226.681644 
L 371.794948 227.426301 
L 372.390571 234.872877 
L 372.986195 230.032603 
L 373.581818 234.872877 
L 373.581818 234.872877 
" clip-path="url(#p6dfcab2d8b)" style="fill: none; stroke: #ff7f0e; stroke-width: 1.5; stroke-linecap: square"/>
   </g>
   <g id="line2d_27">
    <path d="M 69.218182 236.952249 
L 69.813805 236.199862 
L 70.409429 230.933149 
L 71.005052 243.723737 
L 71.600676 233.942699 
L 72.1963 239.209412 
L 72.791923 242.971349 
L 73.387547 239.209412 
L 73.98317 237.704637 
L 74.578794 240.714187 
L 75.174417 238.457024 
L 76.365664 247.485675 
L 76.961288 236.952249 
L 77.556912 235.447474 
L 78.748159 243.723737 
L 79.343782 237.704637 
L 79.939406 230.180761 
L 80.535029 239.961799 
L 81.130653 233.190311 
L 81.726276 231.685536 
L 82.3219 244.476125 
L 83.513147 233.190311 
L 84.108771 235.447474 
L 84.704394 246.733287 
L 85.300018 242.218962 
L 85.895641 242.971349 
L 86.491265 242.218962 
L 87.086888 245.228512 
L 87.682512 241.466574 
L 88.278136 235.447474 
L 88.873759 246.733287 
L 89.469383 236.952249 
L 90.065006 224.914048 
L 90.66063 239.961799 
L 91.256253 239.961799 
L 91.851877 228.675986 
L 92.4475 244.476125 
L 93.043124 251.247612 
L 93.638748 241.466574 
L 94.234371 239.961799 
L 94.829995 242.971349 
L 95.425618 226.418824 
L 96.021242 239.209412 
L 96.616865 230.180761 
L 97.212489 239.961799 
L 97.808112 242.971349 
L 98.403736 240.714187 
L 98.99936 232.437924 
L 99.594983 231.685536 
L 100.190607 233.190311 
L 100.78623 239.209412 
L 101.381854 225.666436 
L 101.977477 233.942699 
L 102.573101 237.704637 
L 103.168724 242.971349 
L 103.764348 230.180761 
L 104.359972 239.209412 
L 104.955595 243.723737 
L 105.551219 238.457024 
L 106.742466 239.961799 
L 107.338089 239.209412 
L 107.933713 243.723737 
L 108.529336 238.457024 
L 109.12496 236.952249 
L 109.720584 233.190311 
L 110.316207 234.695087 
L 110.911831 233.190311 
L 111.507454 230.180761 
L 112.103078 234.695087 
L 113.294325 246.733287 
L 113.889948 241.466574 
L 114.485572 240.714187 
L 115.081196 241.466574 
L 115.676819 242.971349 
L 116.272443 238.457024 
L 116.868066 242.218962 
L 117.46369 241.466574 
L 118.059313 237.704637 
L 118.654937 236.952249 
L 119.25056 230.180761 
L 119.846184 236.952249 
L 120.441808 228.675986 
L 121.037431 244.476125 
L 121.633055 242.971349 
L 122.228678 233.190311 
L 122.824302 248.238062 
L 123.419925 235.447474 
L 124.015549 237.704637 
L 124.611172 240.714187 
L 125.206796 239.209412 
L 125.802419 246.733287 
L 126.398043 241.466574 
L 126.993667 240.714187 
L 127.58929 239.209412 
L 128.184914 228.675986 
L 128.780537 240.714187 
L 129.376161 233.190311 
L 129.971784 233.190311 
L 130.567408 240.714187 
L 131.163031 234.695087 
L 131.758655 246.733287 
L 132.354279 230.180761 
L 132.949902 236.952249 
L 133.545526 238.457024 
L 134.141149 242.971349 
L 134.736773 239.961799 
L 135.332396 231.685536 
L 135.92802 240.714187 
L 136.523643 235.447474 
L 137.119267 244.476125 
L 137.714891 238.457024 
L 138.310514 240.714187 
L 138.906138 242.218962 
L 139.501761 240.714187 
L 140.097385 242.971349 
L 140.693008 239.209412 
L 141.288632 234.695087 
L 141.884255 244.476125 
L 142.479879 239.209412 
L 143.075503 231.685536 
L 143.671126 246.733287 
L 144.26675 228.675986 
L 144.862373 235.447474 
L 145.457997 234.695087 
L 146.05362 236.952249 
L 146.649244 241.466574 
L 147.244867 234.695087 
L 147.840491 239.961799 
L 148.436115 247.485675 
L 149.031738 240.714187 
L 149.627362 240.714187 
L 150.222985 242.218962 
L 150.818609 238.457024 
L 151.414232 235.447474 
L 152.009856 242.971349 
L 152.605479 239.209412 
L 153.201103 239.209412 
L 153.796727 241.466574 
L 154.39235 236.952249 
L 154.987974 242.971349 
L 155.583597 234.695087 
L 156.179221 239.961799 
L 156.774844 242.218962 
L 157.370468 237.704637 
L 157.966091 242.218962 
L 158.561715 237.704637 
L 159.157339 238.457024 
L 159.752962 242.971349 
L 160.348586 239.209412 
L 160.944209 230.933149 
L 161.539833 233.190311 
L 162.135456 241.466574 
L 162.73108 242.971349 
L 163.326703 232.437924 
L 163.922327 242.218962 
L 164.517951 241.466574 
L 165.113574 235.447474 
L 165.709198 236.952249 
L 166.304821 242.971349 
L 166.900445 233.942699 
L 167.496068 239.961799 
L 168.091692 236.952249 
L 168.687315 237.704637 
L 169.282939 248.99045 
L 169.878563 229.428374 
L 170.474186 242.971349 
L 171.06981 243.723737 
L 173.452304 243.723737 
L 174.047927 240.714187 
L 174.643551 238.457024 
L 175.239175 236.952249 
L 175.834798 230.180761 
L 176.430422 243.723737 
L 177.026045 230.180761 
L 177.621669 230.180761 
L 178.217292 226.418824 
L 178.812916 200.837647 
L 179.408539 197.828097 
L 180.004163 175.256471 
L 181.791034 77.44609 
L 182.386657 81.208028 
L 182.982281 78.198478 
L 183.577904 34.56 
L 184.173528 101.522491 
L 185.364775 142.151419 
L 185.960399 195.570934 
L 186.556022 204.599585 
L 187.151646 210.618685 
L 187.747269 222.656886 
L 188.342893 232.437924 
L 188.938516 232.437924 
L 189.53414 241.466574 
L 190.129763 246.733287 
L 190.725387 245.228512 
L 191.32101 239.961799 
L 191.916634 240.714187 
L 192.512258 235.447474 
L 193.107881 236.952249 
L 193.703505 221.904498 
L 194.299128 236.952249 
L 194.894752 242.971349 
L 195.490375 233.942699 
L 196.085999 239.209412 
L 196.681622 231.685536 
L 197.277246 233.942699 
L 197.87287 229.428374 
L 198.468493 241.466574 
L 199.064117 230.933149 
L 199.65974 225.666436 
L 200.255364 235.447474 
L 200.850987 223.409273 
L 201.446611 222.656886 
L 202.042234 220.399723 
L 202.637858 219.647336 
L 203.233482 220.399723 
L 203.829105 222.656886 
L 204.424729 220.399723 
L 205.020352 230.933149 
L 205.615976 226.418824 
L 206.211599 223.409273 
L 206.807223 225.666436 
L 207.402846 224.914048 
L 207.99847 221.904498 
L 209.189717 231.685536 
L 209.785341 239.209412 
L 210.380964 234.695087 
L 210.976588 234.695087 
L 211.572211 242.218962 
L 212.167835 242.971349 
L 213.359082 233.190311 
L 213.954706 233.190311 
L 214.550329 243.723737 
L 215.145953 233.190311 
L 215.741576 225.666436 
L 216.3372 243.723737 
L 216.932823 237.704637 
L 217.528447 239.961799 
L 218.12407 230.933149 
L 218.719694 242.218962 
L 219.315318 236.952249 
L 219.910941 241.466574 
L 220.506565 239.961799 
L 221.102188 230.933149 
L 221.697812 242.971349 
L 222.293435 241.466574 
L 222.889059 234.695087 
L 223.484682 240.714187 
L 224.080306 233.190311 
L 224.67593 242.218962 
L 225.271553 239.209412 
L 225.867177 241.466574 
L 226.4628 242.971349 
L 227.058424 238.457024 
L 227.654047 238.457024 
L 228.249671 239.209412 
L 228.845294 236.199862 
L 229.440918 242.971349 
L 230.036542 242.218962 
L 230.632165 232.437924 
L 231.227789 241.466574 
L 231.823412 245.9809 
L 232.419036 230.180761 
L 233.014659 247.485675 
L 233.610283 238.457024 
L 234.205906 233.190311 
L 234.80153 221.904498 
L 237.184024 189.551834 
L 237.779648 188.047059 
L 238.375271 173.751696 
L 238.970895 191.808997 
L 239.566518 191.808997 
L 240.162142 196.323322 
L 240.757766 196.323322 
L 241.353389 220.399723 
L 243.14026 233.190311 
L 243.735883 230.933149 
L 244.331507 235.447474 
L 244.92713 242.218962 
L 245.522754 246.733287 
L 246.118378 236.952249 
L 246.714001 243.723737 
L 247.309625 236.199862 
L 247.905248 240.714187 
L 249.096495 229.428374 
L 249.692119 243.723737 
L 250.287742 240.714187 
L 250.883366 238.457024 
L 251.47899 230.180761 
L 252.074613 239.961799 
L 252.670237 241.466574 
L 253.26586 234.695087 
L 253.861484 239.961799 
L 254.457107 239.209412 
L 255.052731 236.199862 
L 255.648354 238.457024 
L 256.243978 245.9809 
L 256.839601 236.952249 
L 257.435225 241.466574 
L 258.030849 247.485675 
L 258.626472 235.447474 
L 259.222096 230.933149 
L 259.817719 237.704637 
L 260.413343 237.704637 
L 261.008966 235.447474 
L 261.60459 249.742837 
L 262.200213 241.466574 
L 262.795837 241.466574 
L 263.391461 242.218962 
L 263.987084 244.476125 
L 264.582708 234.695087 
L 265.178331 233.942699 
L 265.773955 235.447474 
L 266.369578 233.190311 
L 266.965202 223.409273 
L 267.560825 242.218962 
L 268.156449 252 
L 268.752073 227.171211 
L 269.347696 239.209412 
L 269.94332 233.942699 
L 270.538943 233.942699 
L 271.134567 236.952249 
L 271.73019 248.238062 
L 272.325814 242.971349 
L 272.921437 233.190311 
L 273.517061 245.228512 
L 274.112685 239.209412 
L 274.708308 236.199862 
L 275.303932 241.466574 
L 275.899555 232.437924 
L 276.495179 238.457024 
L 277.090802 239.961799 
L 277.686426 233.190311 
L 278.282049 235.447474 
L 278.877673 242.971349 
L 279.473297 242.218962 
L 280.06892 240.714187 
L 280.664544 237.704637 
L 281.260167 233.942699 
L 282.451414 249.742837 
L 283.047038 239.209412 
L 283.642661 236.952249 
L 284.238285 236.952249 
L 284.833909 235.447474 
L 285.429532 247.485675 
L 286.025156 235.447474 
L 286.620779 245.228512 
L 287.812026 231.685536 
L 288.40765 243.723737 
L 289.003273 238.457024 
L 289.598897 239.961799 
L 290.194521 234.695087 
L 290.790144 233.942699 
L 291.385768 245.9809 
L 291.981391 233.190311 
L 292.577015 236.952249 
L 293.172638 241.466574 
L 293.768262 230.933149 
L 294.363885 238.457024 
L 294.959509 235.447474 
L 295.555133 239.961799 
L 296.150756 247.485675 
L 296.74638 238.457024 
L 297.342003 236.952249 
L 297.937627 246.733287 
L 298.53325 230.180761 
L 299.128874 242.971349 
L 299.724497 247.485675 
L 300.320121 242.971349 
L 300.915745 235.447474 
L 301.511368 243.723737 
L 302.106992 243.723737 
L 302.702615 237.704637 
L 303.298239 241.466574 
L 303.893862 237.704637 
L 304.489486 245.9809 
L 305.085109 236.952249 
L 305.680733 236.199862 
L 306.276357 238.457024 
L 306.87198 237.704637 
L 307.467604 227.171211 
L 308.063227 238.457024 
L 308.658851 235.447474 
L 309.254474 239.961799 
L 309.850098 229.428374 
L 310.445721 245.9809 
L 311.041345 238.457024 
L 311.636969 242.218962 
L 312.232592 240.714187 
L 312.828216 241.466574 
L 313.423839 228.675986 
L 314.019463 236.952249 
L 314.615086 238.457024 
L 315.21071 227.171211 
L 315.806333 245.228512 
L 316.401957 238.457024 
L 316.997581 234.695087 
L 317.593204 234.695087 
L 318.188828 236.952249 
L 318.784451 241.466574 
L 319.380075 231.685536 
L 319.975698 240.714187 
L 320.571322 236.199862 
L 321.166945 234.695087 
L 321.762569 234.695087 
L 322.358192 235.447474 
L 322.953816 231.685536 
L 323.54944 240.714187 
L 324.145063 235.447474 
L 324.740687 238.457024 
L 325.33631 230.933149 
L 326.527557 236.952249 
L 327.123181 233.942699 
L 327.718804 234.695087 
L 328.314428 240.714187 
L 328.910052 227.923599 
L 329.505675 231.685536 
L 330.101299 236.952249 
L 330.696922 225.666436 
L 331.292546 246.733287 
L 331.888169 236.952249 
L 332.483793 242.971349 
L 333.079416 240.714187 
L 333.67504 239.961799 
L 334.270664 230.180761 
L 334.866287 241.466574 
L 335.461911 240.714187 
L 336.057534 238.457024 
L 336.653158 243.723737 
L 337.248781 236.952249 
L 337.844405 242.971349 
L 338.440028 233.942699 
L 339.035652 242.971349 
L 339.631276 245.9809 
L 340.226899 240.714187 
L 341.418146 237.704637 
L 342.609393 245.9809 
L 343.205017 236.199862 
L 343.80064 239.961799 
L 344.396264 245.228512 
L 344.991888 233.942699 
L 345.587511 233.190311 
L 346.183135 234.695087 
L 346.778758 229.428374 
L 348.565629 242.971349 
L 349.161252 234.695087 
L 349.756876 229.428374 
L 350.3525 244.476125 
L 350.948123 233.942699 
L 351.543747 236.199862 
L 352.13937 239.209412 
L 352.734994 233.190311 
L 353.330617 242.971349 
L 353.926241 230.933149 
L 354.521864 237.704637 
L 355.117488 233.942699 
L 355.713112 243.723737 
L 356.308735 229.428374 
L 356.904359 245.228512 
L 357.499982 244.476125 
L 358.095606 239.961799 
L 358.691229 237.704637 
L 359.286853 241.466574 
L 359.882476 235.447474 
L 360.4781 248.99045 
L 361.073724 243.723737 
L 361.669347 243.723737 
L 362.264971 236.952249 
L 362.860594 240.714187 
L 363.456218 229.428374 
L 364.051841 246.733287 
L 364.647465 236.199862 
L 365.243088 242.218962 
L 365.838712 226.418824 
L 366.434336 243.723737 
L 367.029959 239.961799 
L 367.625583 237.704637 
L 368.221206 236.199862 
L 368.81683 239.961799 
L 369.412453 236.199862 
L 370.008077 237.704637 
L 370.6037 245.228512 
L 371.199324 242.971349 
L 372.390571 231.685536 
L 372.986195 242.218962 
L 373.581818 236.199862 
L 373.581818 236.199862 
" clip-path="url(#p6dfcab2d8b)" style="fill: none; stroke: #2ca02c; stroke-width: 1.5; stroke-linecap: square"/>
   </g>
   <g id="patch_3">
    <path d="M 54 252 
L 54 34.56 
" style="fill: none; stroke: #000000; stroke-width: 0.8; stroke-linejoin: miter; stroke-linecap: square"/>
   </g>
   <g id="patch_4">
    <path d="M 388.8 252 
L 388.8 34.56 
" style="fill: none; stroke: #000000; stroke-width: 0.8; stroke-linejoin: miter; stroke-linecap: square"/>
   </g>
   <g id="patch_5">
    <path d="M 54 252 
L 388.8 252 
" style="fill: none; stroke: #000000; stroke-width: 0.8; stroke-linejoin: miter; stroke-linecap: square"/>
   </g>
   <g id="patch_6">
    <path d="M 54 34.56 
L 388.8 34.56 
" style="fill: none; stroke: #000000; stroke-width: 0.8; stroke-linejoin: miter; stroke-linecap: square"/>
   </g>
   <g id="text_15">
    <!-- Label 19 normalized -->
    <g transform="translate(160.423125 28.56)scale(0.12 -0.12)">
     <defs>
      <path id="DejaVuSans-4c" d="M 628 4666 
L 1259 4666 
L 1259 531 
L 3531 531 
L 3531 0 
L 628 0 
L 628 4666 
z
" transform="scale(0.015625)"/>
      <path id="DejaVuSans-61" d="M 2194 1759 
Q 1497 1759 1228 1600 
Q 959 1441 959 1056 
Q 959 750 1161 570 
Q 1363 391 1709 391 
Q 2188 391 2477 730 
Q 2766 1069 2766 1631 
L 2766 1759 
L 2194 1759 
z
M 3341 1997 
L 3341 0 
L 2766 0 
L 2766 531 
Q 2569 213 2275 61 
Q 1981 -91 1556 -91 
Q 1019 -91 701 211 
Q 384 513 384 1019 
Q 384 1609 779 1909 
Q 1175 2209 1959 2209 
L 2766 2209 
L 2766 2266 
Q 2766 2663 2505 2880 
Q 2244 3097 1772 3097 
Q 1472 3097 1187 3025 
Q 903 2953 641 2809 
L 641 3341 
Q 956 3463 1253 3523 
Q 1550 3584 1831 3584 
Q 2591 3584 2966 3190 
Q 3341 2797 3341 1997 
z
" transform="scale(0.015625)"/>
      <path id="DejaVuSans-65" d="M 3597 1894 
L 3597 1613 
L 953 1613 
Q 991 1019 1311 708 
Q 1631 397 2203 397 
Q 2534 397 2845 478 
Q 3156 559 3463 722 
L 3463 178 
Q 3153 47 2828 -22 
Q 2503 -91 2169 -91 
Q 1331 -91 842 396 
Q 353 884 353 1716 
Q 353 2575 817 3079 
Q 1281 3584 2069 3584 
Q 2775 3584 3186 3129 
Q 3597 2675 3597 1894 
z
M 3022 2063 
Q 3016 2534 2758 2815 
Q 2500 3097 2075 3097 
Q 1594 3097 1305 2825 
Q 1016 2553 972 2059 
L 3022 2063 
z
" transform="scale(0.015625)"/>
      <path id="DejaVuSans-6c" d="M 603 4863 
L 1178 4863 
L 1178 0 
L 603 0 
L 603 4863 
z
" transform="scale(0.015625)"/>
      <path id="DejaVuSans-20" transform="scale(0.015625)"/>
      <path id="DejaVuSans-39" d="M 703 97 
L 703 672 
Q 941 559 1184 500 
Q 1428 441 1663 441 
Q 2288 441 2617 861 
Q 2947 1281 2994 2138 
Q 2813 1869 2534 1725 
Q 2256 1581 1919 1581 
Q 1219 1581 811 2004 
Q 403 2428 403 3163 
Q 403 3881 828 4315 
Q 1253 4750 1959 4750 
Q 2769 4750 3195 4129 
Q 3622 3509 3622 2328 
Q 3622 1225 3098 567 
Q 2575 -91 1691 -91 
Q 1453 -91 1209 -44 
Q 966 3 703 97 
z
M 1959 2075 
Q 2384 2075 2632 2365 
Q 2881 2656 2881 3163 
Q 2881 3666 2632 3958 
Q 2384 4250 1959 4250 
Q 1534 4250 1286 3958 
Q 1038 3666 1038 3163 
Q 1038 2656 1286 2365 
Q 1534 2075 1959 2075 
z
" transform="scale(0.015625)"/>
      <path id="DejaVuSans-72" d="M 2631 2963 
Q 2534 3019 2420 3045 
Q 2306 3072 2169 3072 
Q 1681 3072 1420 2755 
Q 1159 2438 1159 1844 
L 1159 0 
L 581 0 
L 581 3500 
L 1159 3500 
L 1159 2956 
Q 1341 3275 1631 3429 
Q 1922 3584 2338 3584 
Q 2397 3584 2469 3576 
Q 2541 3569 2628 3553 
L 2631 2963 
z
" transform="scale(0.015625)"/>
      <path id="DejaVuSans-6d" d="M 3328 2828 
Q 3544 3216 3844 3400 
Q 4144 3584 4550 3584 
Q 5097 3584 5394 3201 
Q 5691 2819 5691 2113 
L 5691 0 
L 5113 0 
L 5113 2094 
Q 5113 2597 4934 2840 
Q 4756 3084 4391 3084 
Q 3944 3084 3684 2787 
Q 3425 2491 3425 1978 
L 3425 0 
L 2847 0 
L 2847 2094 
Q 2847 2600 2669 2842 
Q 2491 3084 2119 3084 
Q 1678 3084 1418 2786 
Q 1159 2488 1159 1978 
L 1159 0 
L 581 0 
L 581 3500 
L 1159 3500 
L 1159 2956 
Q 1356 3278 1631 3431 
Q 1906 3584 2284 3584 
Q 2666 3584 2933 3390 
Q 3200 3197 3328 2828 
z
" transform="scale(0.015625)"/>
      <path id="DejaVuSans-7a" d="M 353 3500 
L 3084 3500 
L 3084 2975 
L 922 459 
L 3084 459 
L 3084 0 
L 275 0 
L 275 525 
L 2438 3041 
L 353 3041 
L 353 3500 
z
" transform="scale(0.015625)"/>
      <path id="DejaVuSans-64" d="M 2906 2969 
L 2906 4863 
L 3481 4863 
L 3481 0 
L 2906 0 
L 2906 525 
Q 2725 213 2448 61 
Q 2172 -91 1784 -91 
Q 1150 -91 751 415 
Q 353 922 353 1747 
Q 353 2572 751 3078 
Q 1150 3584 1784 3584 
Q 2172 3584 2448 3432 
Q 2725 3281 2906 2969 
z
M 947 1747 
Q 947 1113 1208 752 
Q 1469 391 1925 391 
Q 2381 391 2643 752 
Q 2906 1113 2906 1747 
Q 2906 2381 2643 2742 
Q 2381 3103 1925 3103 
Q 1469 3103 1208 2742 
Q 947 2381 947 1747 
z
" transform="scale(0.015625)"/>
     </defs>
     <use xlink:href="#DejaVuSans-4c"/>
     <use xlink:href="#DejaVuSans-61" x="55.712891"/>
     <use xlink:href="#DejaVuSans-62" x="116.992188"/>
     <use xlink:href="#DejaVuSans-65" x="180.46875"/>
     <use xlink:href="#DejaVuSans-6c" x="241.992188"/>
     <use xlink:href="#DejaVuSans-20" x="269.775391"/>
     <use xlink:href="#DejaVuSans-31" x="301.5625"/>
     <use xlink:href="#DejaVuSans-39" x="365.185547"/>
     <use xlink:href="#DejaVuSans-20" x="428.808594"/>
     <use xlink:href="#DejaVuSans-6e" x="460.595703"/>
     <use xlink:href="#DejaVuSans-6f" x="523.974609"/>
     <use xlink:href="#DejaVuSans-72" x="585.15625"/>
     <use xlink:href="#DejaVuSans-6d" x="624.519531"/>
     <use xlink:href="#DejaVuSans-61" x="721.931641"/>
     <use xlink:href="#DejaVuSans-6c" x="783.210938"/>
     <use xlink:href="#DejaVuSans-69" x="810.994141"/>
     <use xlink:href="#DejaVuSans-7a" x="838.777344"/>
     <use xlink:href="#DejaVuSans-65" x="891.267578"/>
     <use xlink:href="#DejaVuSans-64" x="952.791016"/>
    </g>
   </g>
   <g id="legend_1">
    <g id="patch_7">
     <path d="M 309.070312 101.2725 
L 381.8 101.2725 
Q 383.8 101.2725 383.8 99.2725 
L 383.8 41.56 
Q 383.8 39.56 381.8 39.56 
L 309.070312 39.56 
Q 307.070312 39.56 307.070312 41.56 
L 307.070312 99.2725 
Q 307.070312 101.2725 309.070312 101.2725 
z
" style="fill: #ffffff; opacity: 0.8; stroke: #cccccc; stroke-linejoin: miter"/>
    </g>
    <g id="text_16">
     <!-- Trace number -->
     <g transform="translate(311.070312 51.158437)scale(0.1 -0.1)">
      <defs>
       <path id="DejaVuSans-54" d="M -19 4666 
L 3928 4666 
L 3928 4134 
L 2272 4134 
L 2272 0 
L 1638 0 
L 1638 4134 
L -19 4134 
L -19 4666 
z
" transform="scale(0.015625)"/>
      </defs>
      <use xlink:href="#DejaVuSans-54"/>
      <use xlink:href="#DejaVuSans-72" x="46.333984"/>
      <use xlink:href="#DejaVuSans-61" x="87.447266"/>
      <use xlink:href="#DejaVuSans-63" x="148.726562"/>
      <use xlink:href="#DejaVuSans-65" x="203.707031"/>
      <use xlink:href="#DejaVuSans-20" x="265.230469"/>
      <use xlink:href="#DejaVuSans-6e" x="297.017578"/>
      <use xlink:href="#DejaVuSans-75" x="360.396484"/>
      <use xlink:href="#DejaVuSans-6d" x="423.775391"/>
      <use xlink:href="#DejaVuSans-62" x="521.1875"/>
      <use xlink:href="#DejaVuSans-65" x="584.664062"/>
      <use xlink:href="#DejaVuSans-72" x="646.1875"/>
     </g>
    </g>
    <g id="line2d_28">
     <path d="M 321.891406 62.336562 
L 331.891406 62.336562 
L 341.891406 62.336562 
" style="fill: none; stroke: #1f77b4; stroke-width: 1.5; stroke-linecap: square"/>
    </g>
    <g id="text_17">
     <!-- 59 -->
     <g transform="translate(349.891406 65.836562)scale(0.1 -0.1)">
      <use xlink:href="#DejaVuSans-35"/>
      <use xlink:href="#DejaVuSans-39" x="63.623047"/>
     </g>
    </g>
    <g id="line2d_29">
     <path d="M 321.891406 77.014687 
L 331.891406 77.014687 
L 341.891406 77.014687 
" style="fill: none; stroke: #ff7f0e; stroke-width: 1.5; stroke-linecap: square"/>
    </g>
    <g id="text_18">
     <!-- 103 -->
     <g transform="translate(349.891406 80.514687)scale(0.1 -0.1)">
      <use xlink:href="#DejaVuSans-31"/>
      <use xlink:href="#DejaVuSans-30" x="63.623047"/>
      <use xlink:href="#DejaVuSans-33" x="127.246094"/>
     </g>
    </g>
    <g id="line2d_30">
     <path d="M 321.891406 91.692813 
L 331.891406 91.692813 
L 341.891406 91.692813 
" style="fill: none; stroke: #2ca02c; stroke-width: 1.5; stroke-linecap: square"/>
    </g>
    <g id="text_19">
     <!-- 111 -->
     <g transform="translate(349.891406 95.192813)scale(0.1 -0.1)">
      <use xlink:href="#DejaVuSans-31"/>
      <use xlink:href="#DejaVuSans-31" x="63.623047"/>
      <use xlink:href="#DejaVuSans-31" x="127.246094"/>
     </g>
    </g>
   </g>
  </g>
 </g>
 <defs>
  <clipPath id="p6dfcab2d8b">
   <rect x="54" y="34.56" width="334.8" height="217.44"/>
  </clipPath>
 </defs>
</svg>
