<?xml version="1.0" encoding="utf-8" standalone="no"?>
<!DOCTYPE svg PUBLIC "-//W3C//DTD SVG 1.1//EN"
  "http://www.w3.org/Graphics/SVG/1.1/DTD/svg11.dtd">
<svg xmlns:xlink="http://www.w3.org/1999/xlink" width="432pt" height="288pt" viewBox="0 0 432 288" xmlns="http://www.w3.org/2000/svg" version="1.1">
 <metadata>
  <rdf:RDF xmlns:dc="http://purl.org/dc/elements/1.1/" xmlns:cc="http://creativecommons.org/ns#" xmlns:rdf="http://www.w3.org/1999/02/22-rdf-syntax-ns#">
   <cc:Work>
    <dc:type rdf:resource="http://purl.org/dc/dcmitype/StillImage"/>
    <dc:date>2022-03-30T13:16:45.590053</dc:date>
    <dc:format>image/svg+xml</dc:format>
    <dc:creator>
     <cc:Agent>
      <dc:title>Matplotlib v3.5.1, https://matplotlib.org/</dc:title>
     </cc:Agent>
    </dc:creator>
   </cc:Work>
  </rdf:RDF>
 </metadata>
 <defs>
  <style type="text/css">*{stroke-linejoin: round; stroke-linecap: butt}</style>
 </defs>
 <g id="figure_1">
  <g id="patch_1">
   <path d="M 0 288 
L 432 288 
L 432 0 
L 0 0 
z
" style="fill: #ffffff"/>
  </g>
  <g id="axes_1">
   <g id="patch_2">
    <path d="M 54 252 
L 388.8 252 
L 388.8 34.56 
L 54 34.56 
z
" style="fill: #ffffff"/>
   </g>
   <g id="matplotlib.axis_1">
    <g id="xtick_1">
     <g id="line2d_1">
      <path d="M 69.218182 252 
L 69.218182 34.56 
" clip-path="url(#p81d598d107)" style="fill: none; stroke: #b0b0b0; stroke-width: 0.8; stroke-linecap: square"/>
     </g>
     <g id="line2d_2">
      <defs>
       <path id="m5cd9055fab" d="M 0 0 
L 0 3.5 
" style="stroke: #000000; stroke-width: 0.8"/>
      </defs>
      <g>
       <use xlink:href="#m5cd9055fab" x="69.218182" y="252" style="stroke: #000000; stroke-width: 0.8"/>
      </g>
     </g>
     <g id="text_1">
      <!-- 0 -->
      <g transform="translate(66.036932 266.598437)scale(0.1 -0.1)">
       <defs>
        <path id="DejaVuSans-30" d="M 2034 4250 
Q 1547 4250 1301 3770 
Q 1056 3291 1056 2328 
Q 1056 1369 1301 889 
Q 1547 409 2034 409 
Q 2525 409 2770 889 
Q 3016 1369 3016 2328 
Q 3016 3291 2770 3770 
Q 2525 4250 2034 4250 
z
M 2034 4750 
Q 2819 4750 3233 4129 
Q 3647 3509 3647 2328 
Q 3647 1150 3233 529 
Q 2819 -91 2034 -91 
Q 1250 -91 836 529 
Q 422 1150 422 2328 
Q 422 3509 836 4129 
Q 1250 4750 2034 4750 
z
" transform="scale(0.015625)"/>
       </defs>
       <use xlink:href="#DejaVuSans-30"/>
      </g>
     </g>
    </g>
    <g id="xtick_2">
     <g id="line2d_3">
      <path d="M 128.780537 252 
L 128.780537 34.56 
" clip-path="url(#p81d598d107)" style="fill: none; stroke: #b0b0b0; stroke-width: 0.8; stroke-linecap: square"/>
     </g>
     <g id="line2d_4">
      <g>
       <use xlink:href="#m5cd9055fab" x="128.780537" y="252" style="stroke: #000000; stroke-width: 0.8"/>
      </g>
     </g>
     <g id="text_2">
      <!-- 100 -->
      <g transform="translate(119.236787 266.598437)scale(0.1 -0.1)">
       <defs>
        <path id="DejaVuSans-31" d="M 794 531 
L 1825 531 
L 1825 4091 
L 703 3866 
L 703 4441 
L 1819 4666 
L 2450 4666 
L 2450 531 
L 3481 531 
L 3481 0 
L 794 0 
L 794 531 
z
" transform="scale(0.015625)"/>
       </defs>
       <use xlink:href="#DejaVuSans-31"/>
       <use xlink:href="#DejaVuSans-30" x="63.623047"/>
       <use xlink:href="#DejaVuSans-30" x="127.246094"/>
      </g>
     </g>
    </g>
    <g id="xtick_3">
     <g id="line2d_5">
      <path d="M 188.342893 252 
L 188.342893 34.56 
" clip-path="url(#p81d598d107)" style="fill: none; stroke: #b0b0b0; stroke-width: 0.8; stroke-linecap: square"/>
     </g>
     <g id="line2d_6">
      <g>
       <use xlink:href="#m5cd9055fab" x="188.342893" y="252" style="stroke: #000000; stroke-width: 0.8"/>
      </g>
     </g>
     <g id="text_3">
      <!-- 200 -->
      <g transform="translate(178.799143 266.598437)scale(0.1 -0.1)">
       <defs>
        <path id="DejaVuSans-32" d="M 1228 531 
L 3431 531 
L 3431 0 
L 469 0 
L 469 531 
Q 828 903 1448 1529 
Q 2069 2156 2228 2338 
Q 2531 2678 2651 2914 
Q 2772 3150 2772 3378 
Q 2772 3750 2511 3984 
Q 2250 4219 1831 4219 
Q 1534 4219 1204 4116 
Q 875 4013 500 3803 
L 500 4441 
Q 881 4594 1212 4672 
Q 1544 4750 1819 4750 
Q 2544 4750 2975 4387 
Q 3406 4025 3406 3419 
Q 3406 3131 3298 2873 
Q 3191 2616 2906 2266 
Q 2828 2175 2409 1742 
Q 1991 1309 1228 531 
z
" transform="scale(0.015625)"/>
       </defs>
       <use xlink:href="#DejaVuSans-32"/>
       <use xlink:href="#DejaVuSans-30" x="63.623047"/>
       <use xlink:href="#DejaVuSans-30" x="127.246094"/>
      </g>
     </g>
    </g>
    <g id="xtick_4">
     <g id="line2d_7">
      <path d="M 247.905248 252 
L 247.905248 34.56 
" clip-path="url(#p81d598d107)" style="fill: none; stroke: #b0b0b0; stroke-width: 0.8; stroke-linecap: square"/>
     </g>
     <g id="line2d_8">
      <g>
       <use xlink:href="#m5cd9055fab" x="247.905248" y="252" style="stroke: #000000; stroke-width: 0.8"/>
      </g>
     </g>
     <g id="text_4">
      <!-- 300 -->
      <g transform="translate(238.361498 266.598437)scale(0.1 -0.1)">
       <defs>
        <path id="DejaVuSans-33" d="M 2597 2516 
Q 3050 2419 3304 2112 
Q 3559 1806 3559 1356 
Q 3559 666 3084 287 
Q 2609 -91 1734 -91 
Q 1441 -91 1130 -33 
Q 819 25 488 141 
L 488 750 
Q 750 597 1062 519 
Q 1375 441 1716 441 
Q 2309 441 2620 675 
Q 2931 909 2931 1356 
Q 2931 1769 2642 2001 
Q 2353 2234 1838 2234 
L 1294 2234 
L 1294 2753 
L 1863 2753 
Q 2328 2753 2575 2939 
Q 2822 3125 2822 3475 
Q 2822 3834 2567 4026 
Q 2313 4219 1838 4219 
Q 1578 4219 1281 4162 
Q 984 4106 628 3988 
L 628 4550 
Q 988 4650 1302 4700 
Q 1616 4750 1894 4750 
Q 2613 4750 3031 4423 
Q 3450 4097 3450 3541 
Q 3450 3153 3228 2886 
Q 3006 2619 2597 2516 
z
" transform="scale(0.015625)"/>
       </defs>
       <use xlink:href="#DejaVuSans-33"/>
       <use xlink:href="#DejaVuSans-30" x="63.623047"/>
       <use xlink:href="#DejaVuSans-30" x="127.246094"/>
      </g>
     </g>
    </g>
    <g id="xtick_5">
     <g id="line2d_9">
      <path d="M 307.467604 252 
L 307.467604 34.56 
" clip-path="url(#p81d598d107)" style="fill: none; stroke: #b0b0b0; stroke-width: 0.8; stroke-linecap: square"/>
     </g>
     <g id="line2d_10">
      <g>
       <use xlink:href="#m5cd9055fab" x="307.467604" y="252" style="stroke: #000000; stroke-width: 0.8"/>
      </g>
     </g>
     <g id="text_5">
      <!-- 400 -->
      <g transform="translate(297.923854 266.598437)scale(0.1 -0.1)">
       <defs>
        <path id="DejaVuSans-34" d="M 2419 4116 
L 825 1625 
L 2419 1625 
L 2419 4116 
z
M 2253 4666 
L 3047 4666 
L 3047 1625 
L 3713 1625 
L 3713 1100 
L 3047 1100 
L 3047 0 
L 2419 0 
L 2419 1100 
L 313 1100 
L 313 1709 
L 2253 4666 
z
" transform="scale(0.015625)"/>
       </defs>
       <use xlink:href="#DejaVuSans-34"/>
       <use xlink:href="#DejaVuSans-30" x="63.623047"/>
       <use xlink:href="#DejaVuSans-30" x="127.246094"/>
      </g>
     </g>
    </g>
    <g id="xtick_6">
     <g id="line2d_11">
      <path d="M 367.029959 252 
L 367.029959 34.56 
" clip-path="url(#p81d598d107)" style="fill: none; stroke: #b0b0b0; stroke-width: 0.8; stroke-linecap: square"/>
     </g>
     <g id="line2d_12">
      <g>
       <use xlink:href="#m5cd9055fab" x="367.029959" y="252" style="stroke: #000000; stroke-width: 0.8"/>
      </g>
     </g>
     <g id="text_6">
      <!-- 500 -->
      <g transform="translate(357.486209 266.598437)scale(0.1 -0.1)">
       <defs>
        <path id="DejaVuSans-35" d="M 691 4666 
L 3169 4666 
L 3169 4134 
L 1269 4134 
L 1269 2991 
Q 1406 3038 1543 3061 
Q 1681 3084 1819 3084 
Q 2600 3084 3056 2656 
Q 3513 2228 3513 1497 
Q 3513 744 3044 326 
Q 2575 -91 1722 -91 
Q 1428 -91 1123 -41 
Q 819 9 494 109 
L 494 744 
Q 775 591 1075 516 
Q 1375 441 1709 441 
Q 2250 441 2565 725 
Q 2881 1009 2881 1497 
Q 2881 1984 2565 2268 
Q 2250 2553 1709 2553 
Q 1456 2553 1204 2497 
Q 953 2441 691 2322 
L 691 4666 
z
" transform="scale(0.015625)"/>
       </defs>
       <use xlink:href="#DejaVuSans-35"/>
       <use xlink:href="#DejaVuSans-30" x="63.623047"/>
       <use xlink:href="#DejaVuSans-30" x="127.246094"/>
      </g>
     </g>
    </g>
    <g id="text_7">
     <!-- bin -->
     <g transform="translate(213.667969 280.276563)scale(0.1 -0.1)">
      <defs>
       <path id="DejaVuSans-62" d="M 3116 1747 
Q 3116 2381 2855 2742 
Q 2594 3103 2138 3103 
Q 1681 3103 1420 2742 
Q 1159 2381 1159 1747 
Q 1159 1113 1420 752 
Q 1681 391 2138 391 
Q 2594 391 2855 752 
Q 3116 1113 3116 1747 
z
M 1159 2969 
Q 1341 3281 1617 3432 
Q 1894 3584 2278 3584 
Q 2916 3584 3314 3078 
Q 3713 2572 3713 1747 
Q 3713 922 3314 415 
Q 2916 -91 2278 -91 
Q 1894 -91 1617 61 
Q 1341 213 1159 525 
L 1159 0 
L 581 0 
L 581 4863 
L 1159 4863 
L 1159 2969 
z
" transform="scale(0.015625)"/>
       <path id="DejaVuSans-69" d="M 603 3500 
L 1178 3500 
L 1178 0 
L 603 0 
L 603 3500 
z
M 603 4863 
L 1178 4863 
L 1178 4134 
L 603 4134 
L 603 4863 
z
" transform="scale(0.015625)"/>
       <path id="DejaVuSans-6e" d="M 3513 2113 
L 3513 0 
L 2938 0 
L 2938 2094 
Q 2938 2591 2744 2837 
Q 2550 3084 2163 3084 
Q 1697 3084 1428 2787 
Q 1159 2491 1159 1978 
L 1159 0 
L 581 0 
L 581 3500 
L 1159 3500 
L 1159 2956 
Q 1366 3272 1645 3428 
Q 1925 3584 2291 3584 
Q 2894 3584 3203 3211 
Q 3513 2838 3513 2113 
z
" transform="scale(0.015625)"/>
      </defs>
      <use xlink:href="#DejaVuSans-62"/>
      <use xlink:href="#DejaVuSans-69" x="63.476562"/>
      <use xlink:href="#DejaVuSans-6e" x="91.259766"/>
     </g>
    </g>
   </g>
   <g id="matplotlib.axis_2">
    <g id="ytick_1">
     <g id="line2d_13">
      <path d="M 54 252 
L 388.8 252 
" clip-path="url(#p81d598d107)" style="fill: none; stroke: #b0b0b0; stroke-width: 0.8; stroke-linecap: square"/>
     </g>
     <g id="line2d_14">
      <defs>
       <path id="mf777706ec2" d="M 0 0 
L -3.5 0 
" style="stroke: #000000; stroke-width: 0.8"/>
      </defs>
      <g>
       <use xlink:href="#mf777706ec2" x="54" y="252" style="stroke: #000000; stroke-width: 0.8"/>
      </g>
     </g>
     <g id="text_8">
      <!-- 0.0 -->
      <g transform="translate(31.096875 255.799219)scale(0.1 -0.1)">
       <defs>
        <path id="DejaVuSans-2e" d="M 684 794 
L 1344 794 
L 1344 0 
L 684 0 
L 684 794 
z
" transform="scale(0.015625)"/>
       </defs>
       <use xlink:href="#DejaVuSans-30"/>
       <use xlink:href="#DejaVuSans-2e" x="63.623047"/>
       <use xlink:href="#DejaVuSans-30" x="95.410156"/>
      </g>
     </g>
    </g>
    <g id="ytick_2">
     <g id="line2d_15">
      <path d="M 54 208.512 
L 388.8 208.512 
" clip-path="url(#p81d598d107)" style="fill: none; stroke: #b0b0b0; stroke-width: 0.8; stroke-linecap: square"/>
     </g>
     <g id="line2d_16">
      <g>
       <use xlink:href="#mf777706ec2" x="54" y="208.512" style="stroke: #000000; stroke-width: 0.8"/>
      </g>
     </g>
     <g id="text_9">
      <!-- 0.2 -->
      <g transform="translate(31.096875 212.311219)scale(0.1 -0.1)">
       <use xlink:href="#DejaVuSans-30"/>
       <use xlink:href="#DejaVuSans-2e" x="63.623047"/>
       <use xlink:href="#DejaVuSans-32" x="95.410156"/>
      </g>
     </g>
    </g>
    <g id="ytick_3">
     <g id="line2d_17">
      <path d="M 54 165.024 
L 388.8 165.024 
" clip-path="url(#p81d598d107)" style="fill: none; stroke: #b0b0b0; stroke-width: 0.8; stroke-linecap: square"/>
     </g>
     <g id="line2d_18">
      <g>
       <use xlink:href="#mf777706ec2" x="54" y="165.024" style="stroke: #000000; stroke-width: 0.8"/>
      </g>
     </g>
     <g id="text_10">
      <!-- 0.4 -->
      <g transform="translate(31.096875 168.823219)scale(0.1 -0.1)">
       <use xlink:href="#DejaVuSans-30"/>
       <use xlink:href="#DejaVuSans-2e" x="63.623047"/>
       <use xlink:href="#DejaVuSans-34" x="95.410156"/>
      </g>
     </g>
    </g>
    <g id="ytick_4">
     <g id="line2d_19">
      <path d="M 54 121.536 
L 388.8 121.536 
" clip-path="url(#p81d598d107)" style="fill: none; stroke: #b0b0b0; stroke-width: 0.8; stroke-linecap: square"/>
     </g>
     <g id="line2d_20">
      <g>
       <use xlink:href="#mf777706ec2" x="54" y="121.536" style="stroke: #000000; stroke-width: 0.8"/>
      </g>
     </g>
     <g id="text_11">
      <!-- 0.6 -->
      <g transform="translate(31.096875 125.335219)scale(0.1 -0.1)">
       <defs>
        <path id="DejaVuSans-36" d="M 2113 2584 
Q 1688 2584 1439 2293 
Q 1191 2003 1191 1497 
Q 1191 994 1439 701 
Q 1688 409 2113 409 
Q 2538 409 2786 701 
Q 3034 994 3034 1497 
Q 3034 2003 2786 2293 
Q 2538 2584 2113 2584 
z
M 3366 4563 
L 3366 3988 
Q 3128 4100 2886 4159 
Q 2644 4219 2406 4219 
Q 1781 4219 1451 3797 
Q 1122 3375 1075 2522 
Q 1259 2794 1537 2939 
Q 1816 3084 2150 3084 
Q 2853 3084 3261 2657 
Q 3669 2231 3669 1497 
Q 3669 778 3244 343 
Q 2819 -91 2113 -91 
Q 1303 -91 875 529 
Q 447 1150 447 2328 
Q 447 3434 972 4092 
Q 1497 4750 2381 4750 
Q 2619 4750 2861 4703 
Q 3103 4656 3366 4563 
z
" transform="scale(0.015625)"/>
       </defs>
       <use xlink:href="#DejaVuSans-30"/>
       <use xlink:href="#DejaVuSans-2e" x="63.623047"/>
       <use xlink:href="#DejaVuSans-36" x="95.410156"/>
      </g>
     </g>
    </g>
    <g id="ytick_5">
     <g id="line2d_21">
      <path d="M 54 78.048 
L 388.8 78.048 
" clip-path="url(#p81d598d107)" style="fill: none; stroke: #b0b0b0; stroke-width: 0.8; stroke-linecap: square"/>
     </g>
     <g id="line2d_22">
      <g>
       <use xlink:href="#mf777706ec2" x="54" y="78.048" style="stroke: #000000; stroke-width: 0.8"/>
      </g>
     </g>
     <g id="text_12">
      <!-- 0.8 -->
      <g transform="translate(31.096875 81.847219)scale(0.1 -0.1)">
       <defs>
        <path id="DejaVuSans-38" d="M 2034 2216 
Q 1584 2216 1326 1975 
Q 1069 1734 1069 1313 
Q 1069 891 1326 650 
Q 1584 409 2034 409 
Q 2484 409 2743 651 
Q 3003 894 3003 1313 
Q 3003 1734 2745 1975 
Q 2488 2216 2034 2216 
z
M 1403 2484 
Q 997 2584 770 2862 
Q 544 3141 544 3541 
Q 544 4100 942 4425 
Q 1341 4750 2034 4750 
Q 2731 4750 3128 4425 
Q 3525 4100 3525 3541 
Q 3525 3141 3298 2862 
Q 3072 2584 2669 2484 
Q 3125 2378 3379 2068 
Q 3634 1759 3634 1313 
Q 3634 634 3220 271 
Q 2806 -91 2034 -91 
Q 1263 -91 848 271 
Q 434 634 434 1313 
Q 434 1759 690 2068 
Q 947 2378 1403 2484 
z
M 1172 3481 
Q 1172 3119 1398 2916 
Q 1625 2713 2034 2713 
Q 2441 2713 2670 2916 
Q 2900 3119 2900 3481 
Q 2900 3844 2670 4047 
Q 2441 4250 2034 4250 
Q 1625 4250 1398 4047 
Q 1172 3844 1172 3481 
z
" transform="scale(0.015625)"/>
       </defs>
       <use xlink:href="#DejaVuSans-30"/>
       <use xlink:href="#DejaVuSans-2e" x="63.623047"/>
       <use xlink:href="#DejaVuSans-38" x="95.410156"/>
      </g>
     </g>
    </g>
    <g id="ytick_6">
     <g id="line2d_23">
      <path d="M 54 34.56 
L 388.8 34.56 
" clip-path="url(#p81d598d107)" style="fill: none; stroke: #b0b0b0; stroke-width: 0.8; stroke-linecap: square"/>
     </g>
     <g id="line2d_24">
      <g>
       <use xlink:href="#mf777706ec2" x="54" y="34.56" style="stroke: #000000; stroke-width: 0.8"/>
      </g>
     </g>
     <g id="text_13">
      <!-- 1.0 -->
      <g transform="translate(31.096875 38.359219)scale(0.1 -0.1)">
       <use xlink:href="#DejaVuSans-31"/>
       <use xlink:href="#DejaVuSans-2e" x="63.623047"/>
       <use xlink:href="#DejaVuSans-30" x="95.410156"/>
      </g>
     </g>
    </g>
    <g id="text_14">
     <!-- count -->
     <g transform="translate(25.017187 157.38625)rotate(-90)scale(0.1 -0.1)">
      <defs>
       <path id="DejaVuSans-63" d="M 3122 3366 
L 3122 2828 
Q 2878 2963 2633 3030 
Q 2388 3097 2138 3097 
Q 1578 3097 1268 2742 
Q 959 2388 959 1747 
Q 959 1106 1268 751 
Q 1578 397 2138 397 
Q 2388 397 2633 464 
Q 2878 531 3122 666 
L 3122 134 
Q 2881 22 2623 -34 
Q 2366 -91 2075 -91 
Q 1284 -91 818 406 
Q 353 903 353 1747 
Q 353 2603 823 3093 
Q 1294 3584 2113 3584 
Q 2378 3584 2631 3529 
Q 2884 3475 3122 3366 
z
" transform="scale(0.015625)"/>
       <path id="DejaVuSans-6f" d="M 1959 3097 
Q 1497 3097 1228 2736 
Q 959 2375 959 1747 
Q 959 1119 1226 758 
Q 1494 397 1959 397 
Q 2419 397 2687 759 
Q 2956 1122 2956 1747 
Q 2956 2369 2687 2733 
Q 2419 3097 1959 3097 
z
M 1959 3584 
Q 2709 3584 3137 3096 
Q 3566 2609 3566 1747 
Q 3566 888 3137 398 
Q 2709 -91 1959 -91 
Q 1206 -91 779 398 
Q 353 888 353 1747 
Q 353 2609 779 3096 
Q 1206 3584 1959 3584 
z
" transform="scale(0.015625)"/>
       <path id="DejaVuSans-75" d="M 544 1381 
L 544 3500 
L 1119 3500 
L 1119 1403 
Q 1119 906 1312 657 
Q 1506 409 1894 409 
Q 2359 409 2629 706 
Q 2900 1003 2900 1516 
L 2900 3500 
L 3475 3500 
L 3475 0 
L 2900 0 
L 2900 538 
Q 2691 219 2414 64 
Q 2138 -91 1772 -91 
Q 1169 -91 856 284 
Q 544 659 544 1381 
z
M 1991 3584 
L 1991 3584 
z
" transform="scale(0.015625)"/>
       <path id="DejaVuSans-74" d="M 1172 4494 
L 1172 3500 
L 2356 3500 
L 2356 3053 
L 1172 3053 
L 1172 1153 
Q 1172 725 1289 603 
Q 1406 481 1766 481 
L 2356 481 
L 2356 0 
L 1766 0 
Q 1100 0 847 248 
Q 594 497 594 1153 
L 594 3053 
L 172 3053 
L 172 3500 
L 594 3500 
L 594 4494 
L 1172 4494 
z
" transform="scale(0.015625)"/>
      </defs>
      <use xlink:href="#DejaVuSans-63"/>
      <use xlink:href="#DejaVuSans-6f" x="54.980469"/>
      <use xlink:href="#DejaVuSans-75" x="116.162109"/>
      <use xlink:href="#DejaVuSans-6e" x="179.541016"/>
      <use xlink:href="#DejaVuSans-74" x="242.919922"/>
     </g>
    </g>
   </g>
   <g id="line2d_25">
    <path d="M 69.218182 247.799227 
L 69.813805 247.59919 
L 70.409429 244.598638 
L 71.005052 245.198749 
L 71.600676 249.999632 
L 72.1963 243.998528 
L 72.791923 244.198565 
L 73.387547 246.39897 
L 73.98317 241.99816 
L 74.578794 243.798491 
L 75.174417 245.998896 
L 76.365664 243.798491 
L 76.961288 245.398786 
L 77.556912 244.398602 
L 78.152535 245.998896 
L 78.748159 250.999816 
L 79.343782 241.39805 
L 80.535029 244.998712 
L 81.130653 242.198197 
L 81.726276 243.198381 
L 82.3219 245.998896 
L 82.917524 245.798859 
L 83.513147 246.99908 
L 84.108771 247.799227 
L 84.704394 241.598086 
L 85.300018 241.99816 
L 85.895641 249.199485 
L 86.491265 242.798307 
L 87.086888 243.998528 
L 87.682512 243.998528 
L 88.278136 242.998344 
L 88.873759 237.597351 
L 90.065006 249.799595 
L 90.66063 248.999448 
L 91.256253 245.398786 
L 91.851877 245.598822 
L 92.4475 247.199117 
L 93.043124 244.798675 
L 93.638748 244.598638 
L 94.234371 245.398786 
L 94.829995 249.999632 
L 95.425618 246.198933 
L 96.021242 245.798859 
L 96.616865 245.798859 
L 97.212489 249.199485 
L 97.808112 241.99816 
L 98.403736 241.99816 
L 98.99936 249.999632 
L 99.594983 240.997976 
L 100.190607 245.198749 
L 100.78623 246.599006 
L 101.381854 245.798859 
L 101.977477 242.998344 
L 102.573101 244.398602 
L 103.168724 240.997976 
L 103.764348 242.998344 
L 104.955595 247.799227 
L 105.551219 242.198197 
L 106.146842 248.799411 
L 107.338089 244.198565 
L 107.933713 244.998712 
L 108.529336 242.798307 
L 109.12496 244.998712 
L 109.720584 243.398418 
L 110.316207 244.798675 
L 110.911831 241.598086 
L 111.507454 246.99908 
L 112.103078 244.798675 
L 112.698701 251.199853 
L 113.294325 244.998712 
L 113.889948 241.99816 
L 114.485572 244.198565 
L 115.081196 241.798123 
L 115.676819 247.999264 
L 116.272443 244.598638 
L 116.868066 245.398786 
L 117.46369 247.799227 
L 118.059313 245.598822 
L 118.654937 244.198565 
L 119.25056 246.799043 
L 119.846184 242.398234 
L 120.441808 245.598822 
L 121.037431 242.798307 
L 121.633055 244.398602 
L 122.228678 242.59827 
L 122.824302 245.998896 
L 123.419925 248.199301 
L 124.015549 243.798491 
L 124.611172 249.199485 
L 125.206796 244.198565 
L 125.802419 244.598638 
L 126.993667 248.199301 
L 127.58929 244.198565 
L 128.184914 244.998712 
L 128.780537 241.39805 
L 129.376161 244.398602 
L 129.971784 246.599006 
L 130.567408 250.599742 
L 131.163031 247.399154 
L 131.758655 243.398418 
L 132.354279 245.598822 
L 132.949902 244.398602 
L 133.545526 246.39897 
L 134.141149 243.598454 
L 134.736773 245.198749 
L 135.332396 249.399522 
L 135.92802 242.998344 
L 136.523643 245.598822 
L 137.119267 245.198749 
L 137.714891 243.798491 
L 138.310514 248.199301 
L 138.906138 244.198565 
L 139.501761 242.198197 
L 140.097385 247.999264 
L 140.693008 244.598638 
L 141.288632 246.599006 
L 141.884255 246.39897 
L 142.479879 243.998528 
L 143.075503 242.998344 
L 143.671126 246.198933 
L 144.26675 246.599006 
L 144.862373 243.598454 
L 145.457997 244.598638 
L 146.05362 247.199117 
L 146.649244 245.198749 
L 147.244867 247.399154 
L 147.840491 242.798307 
L 148.436115 242.59827 
L 149.031738 245.598822 
L 149.627362 247.199117 
L 150.222985 240.997976 
L 150.818609 249.999632 
L 152.009856 243.598454 
L 152.605479 244.998712 
L 153.201103 247.799227 
L 153.796727 246.799043 
L 154.39235 246.198933 
L 154.987974 245.398786 
L 155.583597 244.998712 
L 156.179221 245.598822 
L 156.774844 242.998344 
L 157.370468 242.398234 
L 157.966091 244.398602 
L 158.561715 245.798859 
L 159.157339 241.99816 
L 159.752962 249.399522 
L 160.348586 246.599006 
L 160.944209 248.399338 
L 161.539833 246.39897 
L 162.135456 247.999264 
L 162.73108 246.198933 
L 163.326703 248.799411 
L 163.922327 244.198565 
L 164.517951 245.198749 
L 165.113574 244.198565 
L 166.304821 246.39897 
L 166.900445 248.599374 
L 167.496068 246.198933 
L 168.091692 246.99908 
L 168.687315 243.398418 
L 169.282939 245.598822 
L 169.878563 246.599006 
L 170.474186 243.598454 
L 171.06981 244.598638 
L 171.665433 244.798675 
L 172.261057 241.99816 
L 172.85668 241.798123 
L 173.452304 246.599006 
L 174.047927 245.398786 
L 174.643551 242.998344 
L 175.239175 245.198749 
L 175.834798 244.998712 
L 176.430422 244.598638 
L 177.026045 249.599558 
L 177.621669 244.398602 
L 178.217292 243.998528 
L 178.812916 245.798859 
L 179.408539 244.998712 
L 180.004163 242.59827 
L 180.599787 248.599374 
L 181.19541 242.398234 
L 181.791034 247.59919 
L 182.386657 242.798307 
L 182.982281 244.798675 
L 183.577904 243.798491 
L 184.173528 244.798675 
L 184.769151 246.39897 
L 185.364775 244.398602 
L 185.960399 245.398786 
L 186.556022 243.198381 
L 187.151646 244.198565 
L 187.747269 248.799411 
L 188.342893 243.598454 
L 188.938516 245.998896 
L 189.53414 246.799043 
L 190.129763 246.799043 
L 190.725387 245.198749 
L 191.32101 242.798307 
L 191.916634 246.198933 
L 192.512258 246.99908 
L 193.107881 245.998896 
L 193.703505 248.199301 
L 194.299128 246.99908 
L 194.894752 245.198749 
L 195.490375 242.198197 
L 196.085999 247.59919 
L 197.277246 242.998344 
L 197.87287 242.998344 
L 198.468493 248.799411 
L 199.064117 247.199117 
L 199.65974 249.599558 
L 200.255364 242.998344 
L 200.850987 249.199485 
L 201.446611 242.798307 
L 202.637858 244.598638 
L 203.233482 248.399338 
L 203.829105 247.399154 
L 204.424729 244.998712 
L 205.020352 249.399522 
L 205.615976 251.799963 
L 206.211599 248.399338 
L 206.807223 250.399706 
L 207.402846 246.799043 
L 207.99847 241.598086 
L 208.594094 244.998712 
L 209.189717 245.798859 
L 209.785341 243.798491 
L 210.380964 246.799043 
L 210.976588 243.198381 
L 211.572211 242.798307 
L 212.167835 241.598086 
L 212.763458 239.997792 
L 213.359082 238.997608 
L 213.954706 226.795363 
L 214.550329 220.794259 
L 215.145953 205.391426 
L 215.741576 186.98804 
L 216.932823 132.578031 
L 217.528447 98.571776 
L 218.12407 81.168574 
L 219.315318 34.56 
L 219.910941 34.760037 
L 220.506565 40.961178 
L 221.697812 130.17759 
L 223.484682 217.593671 
L 224.080306 232.196357 
L 224.67593 236.197093 
L 225.271553 243.198381 
L 225.867177 244.998712 
L 226.4628 244.398602 
L 227.058424 243.998528 
L 227.654047 245.598822 
L 228.249671 246.198933 
L 228.845294 245.598822 
L 229.440918 242.198197 
L 230.036542 242.398234 
L 231.227789 221.594407 
L 232.419036 152.181638 
L 233.014659 141.779724 
L 233.610283 140.979577 
L 234.205906 177.786348 
L 234.80153 207.391794 
L 235.397154 229.995952 
L 235.992777 236.597167 
L 237.184024 244.998712 
L 237.779648 245.798859 
L 238.375271 244.598638 
L 238.970895 248.599374 
L 239.566518 244.798675 
L 240.162142 248.399338 
L 240.757766 244.598638 
L 241.353389 248.599374 
L 241.949013 243.798491 
L 242.544636 242.398234 
L 243.14026 242.59827 
L 244.92713 246.799043 
L 245.522754 242.398234 
L 246.714001 247.199117 
L 247.309625 243.998528 
L 247.905248 234.996872 
L 248.500872 200.390506 
L 249.096495 136.178694 
L 249.692119 117.775308 
L 250.287742 152.381674 
L 250.883366 214.393082 
L 251.47899 238.597534 
L 252.074613 244.398602 
L 252.670237 242.198197 
L 253.26586 244.998712 
L 253.861484 245.198749 
L 254.457107 239.997792 
L 255.052731 244.598638 
L 255.648354 244.398602 
L 256.243978 243.198381 
L 256.839601 241.598086 
L 257.435225 246.99908 
L 258.030849 247.799227 
L 258.626472 246.99908 
L 259.222096 243.398418 
L 259.817719 248.199301 
L 261.60459 243.598454 
L 262.200213 245.798859 
L 262.795837 247.199117 
L 263.391461 249.799595 
L 263.987084 243.798491 
L 264.582708 248.199301 
L 265.178331 241.598086 
L 265.773955 241.798123 
L 266.369578 243.998528 
L 266.965202 247.999264 
L 267.560825 244.798675 
L 268.156449 245.598822 
L 268.752073 242.198197 
L 269.347696 246.39897 
L 269.94332 245.798859 
L 271.134567 245.798859 
L 271.73019 246.599006 
L 272.325814 247.999264 
L 272.921437 250.199669 
L 273.517061 244.998712 
L 274.112685 251.599926 
L 274.708308 245.198749 
L 275.303932 246.198933 
L 275.899555 246.198933 
L 276.495179 245.198749 
L 277.090802 247.399154 
L 277.686426 245.798859 
L 278.877673 237.397314 
L 280.06892 139.779356 
L 280.664544 168.584655 
L 281.260167 226.9954 
L 281.855791 242.59827 
L 282.451414 248.399338 
L 283.047038 244.998712 
L 283.642661 244.198565 
L 284.238285 244.198565 
L 284.833909 246.799043 
L 285.429532 243.398418 
L 286.025156 245.598822 
L 286.620779 246.99908 
L 287.216403 247.999264 
L 287.812026 248.399338 
L 289.003273 244.398602 
L 289.598897 244.198565 
L 290.194521 242.798307 
L 290.790144 247.199117 
L 291.385768 244.398602 
L 291.981391 249.599558 
L 292.577015 242.998344 
L 293.172638 243.598454 
L 293.768262 241.39805 
L 294.363885 240.997976 
L 294.959509 247.399154 
L 295.555133 248.799411 
L 296.150756 241.198013 
L 296.74638 245.398786 
L 297.342003 244.998712 
L 297.937627 240.997976 
L 298.53325 241.99816 
L 299.128874 246.799043 
L 299.724497 248.799411 
L 300.320121 245.798859 
L 300.915745 244.798675 
L 301.511368 246.198933 
L 302.106992 243.798491 
L 302.702615 246.39897 
L 303.298239 245.998896 
L 303.893862 246.599006 
L 304.489486 248.399338 
L 305.085109 251.39989 
L 305.680733 244.598638 
L 306.276357 246.99908 
L 306.87198 247.59919 
L 307.467604 244.398602 
L 308.063227 243.198381 
L 309.254474 247.59919 
L 309.850098 244.398602 
L 310.445721 249.799595 
L 311.041345 246.99908 
L 311.636969 248.399338 
L 312.232592 246.799043 
L 312.828216 243.198381 
L 313.423839 241.99816 
L 314.019463 245.798859 
L 314.615086 244.798675 
L 315.806333 247.59919 
L 316.401957 246.99908 
L 316.997581 243.798491 
L 317.593204 244.998712 
L 318.188828 244.598638 
L 318.784451 249.799595 
L 319.380075 248.999448 
L 319.975698 244.398602 
L 320.571322 248.199301 
L 321.166945 243.998528 
L 321.762569 245.998896 
L 322.358192 247.59919 
L 322.953816 246.198933 
L 323.54944 247.59919 
L 324.145063 241.798123 
L 324.740687 248.199301 
L 325.33631 247.59919 
L 325.931934 246.799043 
L 326.527557 243.798491 
L 327.123181 249.199485 
L 327.718804 244.598638 
L 328.314428 245.398786 
L 328.910052 248.599374 
L 329.505675 248.199301 
L 330.101299 242.398234 
L 330.696922 243.598454 
L 331.292546 247.59919 
L 331.888169 242.59827 
L 332.483793 246.198933 
L 333.079416 243.798491 
L 333.67504 247.59919 
L 334.270664 243.798491 
L 334.866287 241.798123 
L 335.461911 244.998712 
L 336.057534 242.59827 
L 336.653158 243.598454 
L 337.248781 246.799043 
L 337.844405 241.198013 
L 338.440028 243.198381 
L 339.035652 243.998528 
L 339.631276 242.998344 
L 340.226899 248.399338 
L 340.822523 250.199669 
L 341.418146 247.59919 
L 342.01377 245.998896 
L 342.609393 245.598822 
L 343.205017 247.199117 
L 343.80064 247.799227 
L 344.396264 245.198749 
L 344.991888 246.39897 
L 345.587511 244.798675 
L 346.183135 241.99816 
L 346.778758 245.798859 
L 347.374382 248.199301 
L 347.970005 248.599374 
L 348.565629 247.799227 
L 349.161252 240.397866 
L 349.756876 243.598454 
L 350.3525 244.998712 
L 350.948123 244.598638 
L 351.543747 243.598454 
L 352.13937 245.798859 
L 352.734994 245.198749 
L 353.330617 245.598822 
L 353.926241 245.198749 
L 354.521864 248.199301 
L 355.117488 243.798491 
L 355.713112 240.797939 
L 356.308735 246.99908 
L 356.904359 247.999264 
L 357.499982 247.199117 
L 358.095606 247.399154 
L 358.691229 242.59827 
L 359.286853 244.998712 
L 359.882476 245.598822 
L 360.4781 244.998712 
L 361.073724 242.398234 
L 361.669347 237.797387 
L 362.264971 246.39897 
L 362.860594 246.99908 
L 363.456218 246.39897 
L 364.051841 245.998896 
L 364.647465 242.59827 
L 365.243088 248.399338 
L 365.838712 248.399338 
L 366.434336 252 
L 367.029959 245.798859 
L 367.625583 244.198565 
L 368.221206 243.398418 
L 368.81683 243.598454 
L 369.412453 241.798123 
L 370.008077 245.598822 
L 370.6037 246.198933 
L 371.199324 248.799411 
L 371.794948 244.198565 
L 372.390571 243.798491 
L 372.986195 245.598822 
L 373.581818 246.599006 
L 373.581818 246.599006 
" clip-path="url(#p81d598d107)" style="fill: none; stroke: #1f77b4; stroke-width: 1.5; stroke-linecap: square"/>
   </g>
   <g id="line2d_26">
    <path d="M 69.218182 233.561088 
L 69.813805 239.997312 
L 70.409429 241.388928 
L 71.005052 234.082944 
L 71.600676 239.649408 
L 72.1963 246.78144 
L 72.791923 243.3024 
L 73.387547 236.34432 
L 74.578794 243.650304 
L 75.174417 234.952704 
L 75.770041 239.997312 
L 76.365664 243.476352 
L 77.556912 235.300608 
L 78.748159 242.780544 
L 79.343782 246.433536 
L 79.939406 233.387136 
L 80.535029 241.041024 
L 81.130653 242.258688 
L 81.726276 241.214976 
L 82.3219 235.648512 
L 82.917524 235.996416 
L 83.513147 244.867968 
L 84.108771 233.387136 
L 84.704394 233.213184 
L 85.300018 238.9536 
L 85.895641 237.735936 
L 86.491265 238.08384 
L 87.086888 238.605696 
L 87.682512 241.041024 
L 88.278136 245.389824 
L 88.873759 240.519168 
L 89.469383 240.519168 
L 90.065006 242.780544 
L 90.66063 242.606592 
L 91.256253 238.779648 
L 91.851877 236.170368 
L 92.4475 242.084736 
L 93.043124 237.561984 
L 93.638748 236.692224 
L 94.234371 242.954496 
L 94.829995 238.779648 
L 95.425618 245.04192 
L 96.021242 239.649408 
L 96.616865 242.606592 
L 97.212489 246.259584 
L 97.808112 234.256896 
L 98.403736 232.86528 
L 98.99936 235.47456 
L 99.594983 236.518272 
L 100.190607 241.214976 
L 100.78623 242.43264 
L 101.381854 240.171264 
L 102.573101 238.257792 
L 103.168724 242.43264 
L 103.764348 234.6048 
L 104.359972 243.998208 
L 104.955595 245.04192 
L 105.551219 232.343424 
L 106.146842 236.518272 
L 106.742466 236.34432 
L 107.338089 237.909888 
L 107.933713 239.997312 
L 108.529336 239.127552 
L 109.12496 229.038336 
L 109.720584 227.820672 
L 110.316207 235.47456 
L 110.911831 236.34432 
L 111.507454 241.041024 
L 112.103078 236.34432 
L 112.698701 237.909888 
L 113.294325 241.736832 
L 113.889948 242.43264 
L 114.485572 232.86528 
L 115.081196 235.300608 
L 115.676819 230.429952 
L 116.272443 236.518272 
L 116.868066 234.256896 
L 117.46369 235.648512 
L 118.059313 236.518272 
L 118.654937 243.128448 
L 119.25056 234.952704 
L 119.846184 234.082944 
L 120.441808 242.258688 
L 121.037431 236.170368 
L 121.633055 232.691328 
L 122.228678 237.388032 
L 122.824302 240.345216 
L 123.419925 239.649408 
L 124.015549 241.041024 
L 124.611172 239.997312 
L 125.206796 238.257792 
L 125.802419 244.17216 
L 126.398043 247.6512 
L 126.993667 241.214976 
L 127.58929 233.213184 
L 128.780537 242.43264 
L 129.971784 234.778752 
L 130.567408 241.56288 
L 131.163031 238.779648 
L 131.758655 238.9536 
L 132.354279 241.56288 
L 132.949902 238.08384 
L 133.545526 238.779648 
L 134.141149 242.780544 
L 134.736773 236.170368 
L 135.332396 239.475456 
L 135.92802 235.996416 
L 136.523643 238.779648 
L 137.119267 239.997312 
L 137.714891 232.169472 
L 138.310514 237.388032 
L 138.906138 240.867072 
L 139.501761 240.69312 
L 140.097385 229.560192 
L 140.693008 239.127552 
L 141.288632 241.214976 
L 141.884255 231.299712 
L 142.479879 237.21408 
L 143.075503 236.866176 
L 143.671126 237.040128 
L 144.26675 233.387136 
L 144.862373 234.430848 
L 145.457997 231.12576 
L 146.05362 238.257792 
L 146.649244 235.47456 
L 147.244867 242.084736 
L 147.840491 241.56288 
L 148.436115 239.997312 
L 149.031738 238.9536 
L 149.627362 238.779648 
L 150.222985 239.997312 
L 150.818609 232.343424 
L 151.414232 246.085632 
L 152.009856 231.299712 
L 152.605479 240.69312 
L 153.201103 237.735936 
L 153.796727 239.997312 
L 154.39235 252 
L 154.987974 239.475456 
L 155.583597 237.561984 
L 156.179221 233.73504 
L 156.774844 239.127552 
L 157.370468 242.606592 
L 157.966091 241.910784 
L 158.561715 234.256896 
L 159.157339 246.259584 
L 159.752962 239.649408 
L 160.348586 237.21408 
L 160.944209 237.735936 
L 161.539833 239.997312 
L 162.135456 243.650304 
L 162.73108 234.430848 
L 163.326703 245.563776 
L 163.922327 239.475456 
L 164.517951 236.170368 
L 165.113574 238.9536 
L 165.709198 244.346112 
L 166.304821 239.475456 
L 166.900445 238.605696 
L 168.091692 243.3024 
L 168.687315 232.691328 
L 169.282939 244.520064 
L 169.878563 239.475456 
L 170.474186 238.257792 
L 171.06981 233.73504 
L 171.665433 234.6048 
L 172.261057 239.475456 
L 172.85668 234.6048 
L 173.452304 243.650304 
L 174.643551 233.039232 
L 175.239175 234.082944 
L 175.834798 232.517376 
L 177.026045 204.859008 
L 177.621669 199.988352 
L 178.217292 168.676992 
L 178.812916 155.978496 
L 179.408539 110.750976 
L 180.004163 109.011456 
L 180.599787 67.262976 
L 181.19541 46.562688 
L 181.791034 34.56 
L 182.386657 50.389632 
L 182.982281 49.519872 
L 184.769151 164.676096 
L 185.364775 184.15872 
L 185.960399 210.947328 
L 186.556022 218.94912 
L 187.151646 238.779648 
L 187.747269 232.691328 
L 188.342893 236.866176 
L 188.938516 236.518272 
L 189.53414 230.951808 
L 190.129763 235.47456 
L 190.725387 244.17216 
L 191.32101 239.475456 
L 191.916634 241.56288 
L 192.512258 236.866176 
L 193.107881 224.863488 
L 194.299128 188.681472 
L 194.894752 155.45664 
L 195.490375 141.366528 
L 196.085999 143.453952 
L 196.681622 171.286272 
L 197.277246 191.812608 
L 197.87287 219.81888 
L 198.468493 237.388032 
L 199.064117 234.778752 
L 199.65974 233.561088 
L 200.255364 239.301504 
L 200.850987 240.345216 
L 201.446611 230.777856 
L 202.042234 242.606592 
L 202.637858 241.388928 
L 203.233482 235.47456 
L 203.829105 239.997312 
L 204.424729 239.82336 
L 205.020352 237.040128 
L 205.615976 240.69312 
L 206.211599 233.561088 
L 206.807223 242.258688 
L 207.402846 236.170368 
L 207.99847 243.3024 
L 208.594094 241.388928 
L 209.189717 238.779648 
L 209.785341 239.997312 
L 210.380964 233.561088 
L 210.976588 199.118592 
L 211.572211 135.974016 
L 212.167835 115.273728 
L 212.763458 153.71712 
L 213.359082 205.554816 
L 213.954706 235.47456 
L 214.550329 236.34432 
L 215.145953 235.300608 
L 215.741576 237.040128 
L 216.3372 242.084736 
L 216.932823 238.257792 
L 217.528447 238.9536 
L 218.12407 236.34432 
L 218.719694 240.867072 
L 219.315318 242.954496 
L 219.910941 233.908992 
L 220.506565 245.389824 
L 221.102188 236.692224 
L 221.697812 239.475456 
L 222.293435 235.996416 
L 222.889059 237.040128 
L 223.484682 239.649408 
L 224.080306 235.126656 
L 224.67593 240.519168 
L 225.271553 235.648512 
L 225.867177 234.082944 
L 226.4628 239.82336 
L 227.058424 240.345216 
L 228.249671 236.34432 
L 228.845294 233.039232 
L 229.440918 236.170368 
L 230.036542 235.822464 
L 230.632165 241.736832 
L 231.227789 242.43264 
L 231.823412 236.866176 
L 232.419036 243.3024 
L 233.014659 236.692224 
L 233.610283 243.998208 
L 234.205906 238.779648 
L 234.80153 234.778752 
L 235.397154 235.47456 
L 235.992777 225.385344 
L 236.588401 237.909888 
L 237.184024 245.563776 
L 237.779648 239.997312 
L 238.375271 242.258688 
L 238.970895 236.518272 
L 239.566518 238.605696 
L 240.162142 239.82336 
L 240.757766 242.258688 
L 241.353389 231.12576 
L 242.544636 130.059648 
L 243.14026 170.764416 
L 243.735883 220.340736 
L 244.331507 234.6048 
L 244.92713 243.128448 
L 245.522754 235.47456 
L 246.118378 237.561984 
L 246.714001 250.782336 
L 247.905248 240.171264 
L 248.500872 241.214976 
L 249.096495 239.997312 
L 249.692119 242.780544 
L 250.287742 238.08384 
L 250.883366 238.08384 
L 251.47899 245.04192 
L 252.074613 229.734144 
L 252.670237 232.86528 
L 253.26586 244.346112 
L 253.861484 242.606592 
L 254.457107 235.300608 
L 255.052731 240.345216 
L 255.648354 235.996416 
L 256.243978 237.561984 
L 256.839601 235.996416 
L 257.435225 243.128448 
L 258.030849 238.257792 
L 258.626472 240.345216 
L 259.222096 237.21408 
L 259.817719 236.866176 
L 260.413343 231.473664 
L 261.008966 237.21408 
L 261.60459 239.997312 
L 262.200213 232.86528 
L 262.795837 238.605696 
L 263.391461 235.47456 
L 263.987084 239.82336 
L 264.582708 246.955392 
L 265.178331 238.779648 
L 265.773955 235.822464 
L 266.369578 241.910784 
L 266.965202 240.867072 
L 267.560825 232.343424 
L 268.156449 235.822464 
L 268.752073 236.692224 
L 269.347696 238.779648 
L 269.94332 232.169472 
L 270.538943 247.303296 
L 272.325814 233.213184 
L 272.921437 235.126656 
L 273.517061 241.56288 
L 274.112685 239.127552 
L 274.708308 230.777856 
L 275.303932 230.082048 
L 275.899555 235.822464 
L 276.495179 243.128448 
L 277.090802 231.299712 
L 277.686426 239.997312 
L 278.877673 239.649408 
L 279.473297 236.34432 
L 280.06892 238.257792 
L 280.664544 238.431744 
L 281.260167 245.563776 
L 281.855791 236.518272 
L 282.451414 246.085632 
L 283.047038 237.561984 
L 283.642661 240.171264 
L 284.238285 236.866176 
L 284.833909 238.08384 
L 285.429532 239.82336 
L 286.025156 238.779648 
L 286.620779 241.910784 
L 287.216403 235.300608 
L 287.812026 246.78144 
L 288.40765 243.824256 
L 289.003273 238.08384 
L 289.598897 239.649408 
L 290.194521 244.694016 
L 290.790144 248.347008 
L 291.385768 245.04192 
L 291.981391 239.82336 
L 292.577015 235.822464 
L 293.172638 237.909888 
L 293.768262 237.735936 
L 294.363885 245.215872 
L 294.959509 235.996416 
L 295.555133 244.694016 
L 296.150756 237.388032 
L 296.74638 237.388032 
L 297.342003 247.6512 
L 297.937627 238.08384 
L 298.53325 237.561984 
L 299.128874 238.779648 
L 299.724497 240.69312 
L 300.320121 232.343424 
L 300.915745 235.47456 
L 301.511368 240.867072 
L 302.106992 235.996416 
L 302.702615 243.998208 
L 303.298239 240.171264 
L 303.893862 234.256896 
L 304.489486 248.173056 
L 305.085109 241.736832 
L 305.680733 239.82336 
L 306.276357 239.649408 
L 306.87198 241.041024 
L 307.467604 231.99552 
L 308.063227 232.517376 
L 308.658851 237.561984 
L 309.254474 236.34432 
L 309.850098 242.084736 
L 310.445721 238.431744 
L 311.041345 241.736832 
L 311.636969 233.561088 
L 312.232592 243.824256 
L 312.828216 241.388928 
L 313.423839 241.910784 
L 314.019463 242.954496 
L 314.615086 234.778752 
L 315.21071 237.21408 
L 315.806333 240.69312 
L 316.401957 239.649408 
L 316.997581 242.43264 
L 317.593204 243.128448 
L 318.188828 239.997312 
L 318.784451 238.605696 
L 319.380075 246.259584 
L 319.975698 239.649408 
L 320.571322 240.345216 
L 321.166945 232.86528 
L 321.762569 241.56288 
L 322.358192 237.388032 
L 322.953816 236.866176 
L 323.54944 243.476352 
L 324.145063 239.997312 
L 324.740687 237.561984 
L 325.33631 231.647616 
L 325.931934 239.475456 
L 326.527557 242.084736 
L 327.123181 232.691328 
L 327.718804 241.736832 
L 328.314428 237.909888 
L 328.910052 232.517376 
L 329.505675 245.04192 
L 330.101299 239.475456 
L 330.696922 239.475456 
L 331.292546 235.47456 
L 331.888169 238.605696 
L 332.483793 239.301504 
L 333.079416 239.475456 
L 333.67504 238.257792 
L 334.270664 239.127552 
L 334.866287 235.996416 
L 336.057534 239.82336 
L 336.653158 236.34432 
L 337.248781 237.388032 
L 337.844405 243.650304 
L 338.440028 237.735936 
L 339.035652 242.780544 
L 339.631276 240.345216 
L 340.226899 243.650304 
L 340.822523 235.996416 
L 341.418146 236.518272 
L 342.01377 233.387136 
L 342.609393 237.561984 
L 343.205017 238.605696 
L 343.80064 229.560192 
L 344.396264 236.518272 
L 344.991888 237.561984 
L 345.587511 235.300608 
L 346.183135 238.9536 
L 346.778758 233.039232 
L 347.374382 238.9536 
L 347.970005 243.128448 
L 348.565629 239.475456 
L 349.161252 240.519168 
L 349.756876 235.996416 
L 350.3525 232.517376 
L 350.948123 237.909888 
L 351.543747 241.388928 
L 352.13937 239.997312 
L 352.734994 236.692224 
L 353.330617 238.08384 
L 353.926241 250.782336 
L 354.521864 241.214976 
L 355.117488 241.736832 
L 355.713112 237.388032 
L 356.308735 237.735936 
L 356.904359 239.82336 
L 358.095606 234.6048 
L 358.691229 239.301504 
L 359.286853 245.737728 
L 359.882476 244.17216 
L 361.073724 235.47456 
L 361.669347 237.735936 
L 362.264971 242.780544 
L 362.860594 238.9536 
L 363.456218 243.128448 
L 364.647465 232.517376 
L 365.243088 240.69312 
L 365.838712 243.998208 
L 366.434336 239.997312 
L 367.029959 237.040128 
L 367.625583 233.213184 
L 368.221206 235.648512 
L 368.81683 241.910784 
L 369.412453 242.780544 
L 370.008077 234.778752 
L 370.6037 239.475456 
L 371.199324 233.213184 
L 371.794948 237.388032 
L 372.390571 243.128448 
L 372.986195 240.171264 
L 373.581818 234.778752 
L 373.581818 234.778752 
" clip-path="url(#p81d598d107)" style="fill: none; stroke: #ff7f0e; stroke-width: 1.5; stroke-linecap: square"/>
   </g>
   <g id="line2d_27">
    <path d="M 69.218182 242.953462 
L 69.813805 237.784012 
L 70.409429 235.199287 
L 71.005052 235.845468 
L 71.600676 246.83055 
L 72.1963 242.630371 
L 72.791923 233.906924 
L 73.387547 238.753284 
L 73.98317 239.076374 
L 74.578794 238.107103 
L 75.174417 247.15364 
L 75.770041 243.922734 
L 76.365664 227.122021 
L 76.961288 242.953462 
L 77.556912 236.81474 
L 78.152535 247.15364 
L 78.748159 236.81474 
L 79.343782 241.014918 
L 79.939406 235.199287 
L 80.535029 244.568915 
L 81.130653 251.030728 
L 81.726276 233.583834 
L 82.3219 235.845468 
L 82.917524 243.599643 
L 83.513147 237.784012 
L 84.108771 243.276553 
L 84.704394 228.414383 
L 85.300018 227.122021 
L 85.895641 240.691828 
L 86.491265 239.722556 
L 87.086888 236.81474 
L 87.682512 241.6611 
L 88.278136 237.784012 
L 88.873759 227.768202 
L 89.469383 240.691828 
L 90.065006 244.892006 
L 90.66063 231.96838 
L 91.256253 237.460921 
L 91.851877 239.722556 
L 92.4475 223.891114 
L 93.043124 247.15364 
L 93.638748 243.922734 
L 94.234371 239.722556 
L 94.829995 233.260743 
L 95.425618 243.922734 
L 96.021242 243.599643 
L 96.616865 241.338009 
L 97.212489 234.876196 
L 97.808112 241.014918 
L 98.403736 239.399465 
L 98.99936 241.6611 
L 99.594983 241.338009 
L 100.190607 241.6611 
L 100.78623 238.753284 
L 101.381854 243.276553 
L 101.977477 237.784012 
L 102.573101 234.876196 
L 103.168724 235.845468 
L 103.764348 236.491649 
L 104.359972 228.091293 
L 105.551219 236.81474 
L 106.146842 239.399465 
L 106.742466 244.245825 
L 107.338089 221.952571 
L 107.933713 240.368737 
L 108.529336 241.6611 
L 109.12496 233.260743 
L 109.720584 229.383655 
L 110.316207 242.953462 
L 110.911831 236.491649 
L 111.507454 231.322199 
L 112.103078 240.045646 
L 112.698701 246.184368 
L 113.294325 240.045646 
L 113.889948 242.953462 
L 114.485572 239.399465 
L 115.081196 237.460921 
L 115.676819 239.399465 
L 116.272443 235.845468 
L 116.868066 236.81474 
L 117.46369 249.092184 
L 118.059313 237.137831 
L 118.654937 238.430193 
L 119.25056 240.368737 
L 119.846184 247.476731 
L 120.441808 246.184368 
L 121.037431 237.137831 
L 121.633055 237.784012 
L 122.228678 237.137831 
L 122.824302 240.045646 
L 123.419925 226.79893 
L 124.015549 239.399465 
L 124.611172 234.230015 
L 125.206796 236.491649 
L 125.802419 241.98419 
L 126.398043 233.583834 
L 126.993667 234.553105 
L 127.58929 248.122912 
L 128.780537 230.999108 
L 129.376161 239.399465 
L 129.971784 241.98419 
L 130.567408 234.876196 
L 131.163031 234.230015 
L 131.758655 239.399465 
L 132.354279 240.045646 
L 132.949902 242.307281 
L 133.545526 236.168559 
L 134.141149 241.014918 
L 134.736773 241.014918 
L 135.332396 240.368737 
L 135.92802 236.81474 
L 136.523643 241.014918 
L 137.119267 243.599643 
L 137.714891 236.81474 
L 138.310514 240.691828 
L 138.906138 241.98419 
L 139.501761 241.6611 
L 140.097385 242.630371 
L 140.693008 235.199287 
L 141.288632 241.014918 
L 141.884255 241.98419 
L 142.479879 231.96838 
L 143.075503 236.491649 
L 143.671126 238.753284 
L 144.26675 238.430193 
L 144.862373 236.168559 
L 145.457997 238.107103 
L 146.05362 236.491649 
L 146.649244 238.107103 
L 147.244867 230.029837 
L 148.436115 240.368737 
L 149.031738 237.784012 
L 149.627362 241.338009 
L 150.222985 235.199287 
L 150.818609 244.568915 
L 151.414232 238.753284 
L 152.009856 240.045646 
L 152.605479 245.215097 
L 153.201103 234.230015 
L 153.796727 245.538187 
L 154.39235 231.96838 
L 154.987974 238.430193 
L 155.583597 234.553105 
L 156.774844 230.999108 
L 157.370468 234.553105 
L 157.966091 244.568915 
L 158.561715 236.168559 
L 159.157339 240.368737 
L 159.752962 243.599643 
L 160.348586 249.738366 
L 160.944209 240.045646 
L 161.539833 216.46003 
L 162.135456 234.230015 
L 162.73108 238.753284 
L 163.326703 245.538187 
L 163.922327 240.045646 
L 164.517951 247.15364 
L 165.113574 245.538187 
L 165.709198 238.753284 
L 166.304821 235.199287 
L 166.900445 233.583834 
L 167.496068 236.81474 
L 168.091692 241.338009 
L 168.687315 239.399465 
L 169.282939 236.168559 
L 169.878563 238.107103 
L 170.474186 244.892006 
L 171.06981 234.230015 
L 171.665433 230.676018 
L 172.261057 245.538187 
L 172.85668 235.845468 
L 173.452304 240.368737 
L 174.047927 233.260743 
L 174.643551 229.060565 
L 175.239175 238.430193 
L 175.834798 240.691828 
L 176.430422 238.753284 
L 177.026045 229.060565 
L 177.621669 244.245825 
L 178.217292 241.338009 
L 178.812916 239.076374 
L 179.408539 245.215097 
L 180.004163 237.137831 
L 180.599787 246.83055 
L 181.19541 237.460921 
L 181.791034 242.630371 
L 182.386657 237.784012 
L 182.982281 227.122021 
L 183.577904 239.076374 
L 184.173528 234.876196 
L 184.769151 239.399465 
L 185.364775 238.107103 
L 185.960399 248.769094 
L 186.556022 241.6611 
L 187.151646 231.64529 
L 187.747269 240.368737 
L 188.342893 230.676018 
L 188.938516 223.244933 
L 189.53414 229.383655 
L 190.129763 225.829658 
L 190.725387 214.521486 
L 191.32101 195.459138 
L 191.916634 186.4126 
L 193.107881 125.025379 
L 193.703505 102.732125 
L 194.299128 87.223774 
L 194.894752 63.961248 
L 195.490375 34.56 
L 196.085999 39.72945 
L 197.277246 89.808499 
L 197.87287 132.456464 
L 198.468493 162.826984 
L 199.064117 199.659316 
L 199.65974 206.44422 
L 200.850987 237.137831 
L 201.446611 231.322199 
L 202.042234 239.722556 
L 202.637858 241.338009 
L 203.233482 238.753284 
L 203.829105 242.307281 
L 204.424729 234.553105 
L 205.020352 241.014918 
L 205.615976 231.96838 
L 206.211599 227.445111 
L 206.807223 229.383655 
L 209.189717 143.118455 
L 209.785341 132.779554 
L 210.976588 204.182585 
L 211.572211 228.737474 
L 212.167835 239.399465 
L 212.763458 241.98419 
L 213.359082 245.861278 
L 213.954706 245.538187 
L 214.550329 233.260743 
L 215.145953 246.507459 
L 215.741576 252 
L 216.3372 239.399465 
L 216.932823 233.260743 
L 217.528447 231.322199 
L 218.12407 235.199287 
L 218.719694 237.784012 
L 219.315318 237.460921 
L 219.910941 237.460921 
L 220.506565 237.137831 
L 221.102188 230.999108 
L 221.697812 234.876196 
L 222.293435 237.460921 
L 222.889059 236.81474 
L 223.484682 239.722556 
L 224.080306 228.091293 
L 224.67593 204.182585 
L 225.271553 136.333551 
L 225.867177 109.193938 
L 227.058424 201.920951 
L 227.654047 232.614562 
L 228.249671 241.98419 
L 228.845294 242.953462 
L 229.440918 240.691828 
L 230.036542 237.137831 
L 230.632165 230.029837 
L 231.227789 237.784012 
L 231.823412 240.691828 
L 232.419036 241.014918 
L 233.014659 237.137831 
L 233.610283 250.384547 
L 234.205906 245.861278 
L 234.80153 248.769094 
L 235.397154 238.430193 
L 235.992777 236.491649 
L 236.588401 238.107103 
L 237.184024 233.260743 
L 237.779648 234.553105 
L 238.375271 242.953462 
L 238.970895 238.753284 
L 239.566518 244.245825 
L 240.162142 236.168559 
L 240.757766 235.522377 
L 241.353389 237.137831 
L 241.949013 243.922734 
L 242.544636 240.691828 
L 243.14026 232.291471 
L 243.735883 234.553105 
L 244.331507 243.599643 
L 244.92713 239.722556 
L 245.522754 241.014918 
L 246.118378 236.81474 
L 246.714001 235.845468 
L 247.309625 245.538187 
L 247.905248 233.583834 
L 248.500872 238.430193 
L 249.096495 237.460921 
L 249.692119 219.044755 
L 250.287742 236.81474 
L 250.883366 236.168559 
L 251.47899 240.368737 
L 252.074613 234.553105 
L 252.670237 239.076374 
L 253.26586 234.876196 
L 253.861484 239.076374 
L 254.457107 234.230015 
L 255.052731 231.322199 
L 255.648354 189.966597 
L 256.243978 135.68737 
L 258.030849 238.107103 
L 258.626472 243.276553 
L 259.222096 240.045646 
L 259.817719 245.215097 
L 260.413343 237.137831 
L 261.008966 243.276553 
L 261.60459 237.137831 
L 262.200213 242.953462 
L 262.795837 231.64529 
L 263.987084 245.861278 
L 264.582708 243.922734 
L 265.178331 239.722556 
L 265.773955 237.137831 
L 266.369578 237.460921 
L 266.965202 234.553105 
L 267.560825 236.168559 
L 268.156449 239.076374 
L 268.752073 235.845468 
L 269.347696 234.876196 
L 269.94332 251.676909 
L 270.538943 240.045646 
L 271.134567 237.137831 
L 271.73019 231.64529 
L 272.325814 233.583834 
L 272.921437 238.430193 
L 273.517061 235.199287 
L 274.112685 233.260743 
L 274.708308 240.045646 
L 275.303932 235.199287 
L 275.899555 247.476731 
L 276.495179 236.81474 
L 277.090802 222.275661 
L 277.686426 238.107103 
L 278.282049 234.876196 
L 279.473297 250.707637 
L 280.06892 236.491649 
L 280.664544 237.137831 
L 281.260167 238.107103 
L 281.855791 247.15364 
L 282.451414 236.168559 
L 283.047038 238.430193 
L 283.642661 243.922734 
L 284.833909 231.64529 
L 285.429532 236.168559 
L 286.025156 232.937652 
L 286.620779 239.722556 
L 287.216403 235.845468 
L 287.812026 243.276553 
L 288.40765 237.784012 
L 289.003273 246.83055 
L 289.598897 238.753284 
L 290.194521 237.137831 
L 290.790144 232.291471 
L 291.385768 246.83055 
L 291.981391 235.522377 
L 292.577015 242.307281 
L 293.172638 236.168559 
L 293.768262 236.491649 
L 294.363885 240.368737 
L 294.959509 242.630371 
L 295.555133 248.446003 
L 296.150756 236.168559 
L 297.342003 245.215097 
L 297.937627 242.307281 
L 298.53325 235.522377 
L 299.128874 230.999108 
L 299.724497 241.338009 
L 300.320121 240.368737 
L 300.915745 239.076374 
L 301.511368 241.6611 
L 302.106992 245.215097 
L 302.702615 246.184368 
L 303.298239 251.353819 
L 303.893862 243.599643 
L 304.489486 238.430193 
L 305.085109 246.507459 
L 305.680733 241.6611 
L 306.276357 242.630371 
L 306.87198 239.399465 
L 307.467604 230.999108 
L 308.063227 242.630371 
L 308.658851 234.230015 
L 309.254474 242.307281 
L 309.850098 239.076374 
L 310.445721 229.706746 
L 311.041345 248.446003 
L 311.636969 241.98419 
L 312.232592 242.630371 
L 312.828216 237.460921 
L 313.423839 245.215097 
L 314.019463 232.291471 
L 314.615086 234.230015 
L 315.21071 243.276553 
L 315.806333 241.014918 
L 316.401957 233.260743 
L 316.997581 233.260743 
L 317.593204 238.107103 
L 318.188828 248.769094 
L 318.784451 230.676018 
L 319.380075 233.583834 
L 319.975698 232.291471 
L 320.571322 245.538187 
L 321.166945 236.491649 
L 321.762569 245.861278 
L 322.358192 244.568915 
L 322.953816 234.553105 
L 323.54944 242.630371 
L 324.740687 235.522377 
L 325.33631 226.79893 
L 325.931934 233.583834 
L 326.527557 235.199287 
L 327.123181 241.98419 
L 327.718804 240.691828 
L 328.314428 248.122912 
L 328.910052 230.999108 
L 329.505675 238.430193 
L 330.101299 233.583834 
L 330.696922 240.045646 
L 331.292546 242.953462 
L 331.888169 249.415275 
L 332.483793 238.430193 
L 333.079416 238.107103 
L 333.67504 231.96838 
L 334.270664 233.906924 
L 334.866287 241.98419 
L 335.461911 230.352927 
L 336.057534 233.583834 
L 336.653158 247.799822 
L 337.248781 242.307281 
L 337.844405 241.338009 
L 338.440028 231.96838 
L 339.035652 236.168559 
L 339.631276 237.460921 
L 340.226899 234.553105 
L 340.822523 239.399465 
L 342.01377 228.414383 
L 342.609393 242.307281 
L 343.205017 236.491649 
L 343.80064 234.553105 
L 344.396264 238.753284 
L 344.991888 240.045646 
L 345.587511 232.937652 
L 346.183135 241.338009 
L 346.778758 243.599643 
L 347.374382 241.338009 
L 347.970005 237.137831 
L 348.565629 239.722556 
L 349.161252 237.137831 
L 349.756876 236.81474 
L 350.948123 234.230015 
L 351.543747 245.538187 
L 352.13937 243.922734 
L 352.734994 231.96838 
L 353.330617 238.107103 
L 353.926241 245.538187 
L 354.521864 236.168559 
L 355.117488 238.753284 
L 355.713112 238.430193 
L 356.308735 247.799822 
L 356.904359 232.291471 
L 357.499982 239.399465 
L 358.095606 224.214205 
L 358.691229 235.845468 
L 359.286853 236.491649 
L 359.882476 241.014918 
L 360.4781 235.522377 
L 361.073724 234.553105 
L 361.669347 242.307281 
L 362.264971 236.168559 
L 362.860594 235.845468 
L 363.456218 238.107103 
L 364.051841 242.307281 
L 364.647465 230.676018 
L 365.243088 234.876196 
L 365.838712 236.168559 
L 366.434336 236.491649 
L 367.029959 235.845468 
L 367.625583 239.399465 
L 368.221206 230.029837 
L 368.81683 234.230015 
L 369.412453 233.583834 
L 370.008077 239.722556 
L 370.6037 237.137831 
L 371.199324 235.845468 
L 371.794948 236.168559 
L 372.390571 236.81474 
L 372.986195 237.784012 
L 373.581818 236.81474 
L 373.581818 236.81474 
" clip-path="url(#p81d598d107)" style="fill: none; stroke: #2ca02c; stroke-width: 1.5; stroke-linecap: square"/>
   </g>
   <g id="patch_3">
    <path d="M 54 252 
L 54 34.56 
" style="fill: none; stroke: #000000; stroke-width: 0.8; stroke-linejoin: miter; stroke-linecap: square"/>
   </g>
   <g id="patch_4">
    <path d="M 388.8 252 
L 388.8 34.56 
" style="fill: none; stroke: #000000; stroke-width: 0.8; stroke-linejoin: miter; stroke-linecap: square"/>
   </g>
   <g id="patch_5">
    <path d="M 54 252 
L 388.8 252 
" style="fill: none; stroke: #000000; stroke-width: 0.8; stroke-linejoin: miter; stroke-linecap: square"/>
   </g>
   <g id="patch_6">
    <path d="M 54 34.56 
L 388.8 34.56 
" style="fill: none; stroke: #000000; stroke-width: 0.8; stroke-linejoin: miter; stroke-linecap: square"/>
   </g>
   <g id="text_15">
    <!-- Label 0 normalized -->
    <g transform="translate(164.240625 28.56)scale(0.12 -0.12)">
     <defs>
      <path id="DejaVuSans-4c" d="M 628 4666 
L 1259 4666 
L 1259 531 
L 3531 531 
L 3531 0 
L 628 0 
L 628 4666 
z
" transform="scale(0.015625)"/>
      <path id="DejaVuSans-61" d="M 2194 1759 
Q 1497 1759 1228 1600 
Q 959 1441 959 1056 
Q 959 750 1161 570 
Q 1363 391 1709 391 
Q 2188 391 2477 730 
Q 2766 1069 2766 1631 
L 2766 1759 
L 2194 1759 
z
M 3341 1997 
L 3341 0 
L 2766 0 
L 2766 531 
Q 2569 213 2275 61 
Q 1981 -91 1556 -91 
Q 1019 -91 701 211 
Q 384 513 384 1019 
Q 384 1609 779 1909 
Q 1175 2209 1959 2209 
L 2766 2209 
L 2766 2266 
Q 2766 2663 2505 2880 
Q 2244 3097 1772 3097 
Q 1472 3097 1187 3025 
Q 903 2953 641 2809 
L 641 3341 
Q 956 3463 1253 3523 
Q 1550 3584 1831 3584 
Q 2591 3584 2966 3190 
Q 3341 2797 3341 1997 
z
" transform="scale(0.015625)"/>
      <path id="DejaVuSans-65" d="M 3597 1894 
L 3597 1613 
L 953 1613 
Q 991 1019 1311 708 
Q 1631 397 2203 397 
Q 2534 397 2845 478 
Q 3156 559 3463 722 
L 3463 178 
Q 3153 47 2828 -22 
Q 2503 -91 2169 -91 
Q 1331 -91 842 396 
Q 353 884 353 1716 
Q 353 2575 817 3079 
Q 1281 3584 2069 3584 
Q 2775 3584 3186 3129 
Q 3597 2675 3597 1894 
z
M 3022 2063 
Q 3016 2534 2758 2815 
Q 2500 3097 2075 3097 
Q 1594 3097 1305 2825 
Q 1016 2553 972 2059 
L 3022 2063 
z
" transform="scale(0.015625)"/>
      <path id="DejaVuSans-6c" d="M 603 4863 
L 1178 4863 
L 1178 0 
L 603 0 
L 603 4863 
z
" transform="scale(0.015625)"/>
      <path id="DejaVuSans-20" transform="scale(0.015625)"/>
      <path id="DejaVuSans-72" d="M 2631 2963 
Q 2534 3019 2420 3045 
Q 2306 3072 2169 3072 
Q 1681 3072 1420 2755 
Q 1159 2438 1159 1844 
L 1159 0 
L 581 0 
L 581 3500 
L 1159 3500 
L 1159 2956 
Q 1341 3275 1631 3429 
Q 1922 3584 2338 3584 
Q 2397 3584 2469 3576 
Q 2541 3569 2628 3553 
L 2631 2963 
z
" transform="scale(0.015625)"/>
      <path id="DejaVuSans-6d" d="M 3328 2828 
Q 3544 3216 3844 3400 
Q 4144 3584 4550 3584 
Q 5097 3584 5394 3201 
Q 5691 2819 5691 2113 
L 5691 0 
L 5113 0 
L 5113 2094 
Q 5113 2597 4934 2840 
Q 4756 3084 4391 3084 
Q 3944 3084 3684 2787 
Q 3425 2491 3425 1978 
L 3425 0 
L 2847 0 
L 2847 2094 
Q 2847 2600 2669 2842 
Q 2491 3084 2119 3084 
Q 1678 3084 1418 2786 
Q 1159 2488 1159 1978 
L 1159 0 
L 581 0 
L 581 3500 
L 1159 3500 
L 1159 2956 
Q 1356 3278 1631 3431 
Q 1906 3584 2284 3584 
Q 2666 3584 2933 3390 
Q 3200 3197 3328 2828 
z
" transform="scale(0.015625)"/>
      <path id="DejaVuSans-7a" d="M 353 3500 
L 3084 3500 
L 3084 2975 
L 922 459 
L 3084 459 
L 3084 0 
L 275 0 
L 275 525 
L 2438 3041 
L 353 3041 
L 353 3500 
z
" transform="scale(0.015625)"/>
      <path id="DejaVuSans-64" d="M 2906 2969 
L 2906 4863 
L 3481 4863 
L 3481 0 
L 2906 0 
L 2906 525 
Q 2725 213 2448 61 
Q 2172 -91 1784 -91 
Q 1150 -91 751 415 
Q 353 922 353 1747 
Q 353 2572 751 3078 
Q 1150 3584 1784 3584 
Q 2172 3584 2448 3432 
Q 2725 3281 2906 2969 
z
M 947 1747 
Q 947 1113 1208 752 
Q 1469 391 1925 391 
Q 2381 391 2643 752 
Q 2906 1113 2906 1747 
Q 2906 2381 2643 2742 
Q 2381 3103 1925 3103 
Q 1469 3103 1208 2742 
Q 947 2381 947 1747 
z
" transform="scale(0.015625)"/>
     </defs>
     <use xlink:href="#DejaVuSans-4c"/>
     <use xlink:href="#DejaVuSans-61" x="55.712891"/>
     <use xlink:href="#DejaVuSans-62" x="116.992188"/>
     <use xlink:href="#DejaVuSans-65" x="180.46875"/>
     <use xlink:href="#DejaVuSans-6c" x="241.992188"/>
     <use xlink:href="#DejaVuSans-20" x="269.775391"/>
     <use xlink:href="#DejaVuSans-30" x="301.5625"/>
     <use xlink:href="#DejaVuSans-20" x="365.185547"/>
     <use xlink:href="#DejaVuSans-6e" x="396.972656"/>
     <use xlink:href="#DejaVuSans-6f" x="460.351562"/>
     <use xlink:href="#DejaVuSans-72" x="521.533203"/>
     <use xlink:href="#DejaVuSans-6d" x="560.896484"/>
     <use xlink:href="#DejaVuSans-61" x="658.308594"/>
     <use xlink:href="#DejaVuSans-6c" x="719.587891"/>
     <use xlink:href="#DejaVuSans-69" x="747.371094"/>
     <use xlink:href="#DejaVuSans-7a" x="775.154297"/>
     <use xlink:href="#DejaVuSans-65" x="827.644531"/>
     <use xlink:href="#DejaVuSans-64" x="889.167969"/>
    </g>
   </g>
   <g id="legend_1">
    <g id="patch_7">
     <path d="M 309.070312 101.2725 
L 381.8 101.2725 
Q 383.8 101.2725 383.8 99.2725 
L 383.8 41.56 
Q 383.8 39.56 381.8 39.56 
L 309.070312 39.56 
Q 307.070312 39.56 307.070312 41.56 
L 307.070312 99.2725 
Q 307.070312 101.2725 309.070312 101.2725 
z
" style="fill: #ffffff; opacity: 0.8; stroke: #cccccc; stroke-linejoin: miter"/>
    </g>
    <g id="text_16">
     <!-- Trace number -->
     <g transform="translate(311.070312 51.158437)scale(0.1 -0.1)">
      <defs>
       <path id="DejaVuSans-54" d="M -19 4666 
L 3928 4666 
L 3928 4134 
L 2272 4134 
L 2272 0 
L 1638 0 
L 1638 4134 
L -19 4134 
L -19 4666 
z
" transform="scale(0.015625)"/>
      </defs>
      <use xlink:href="#DejaVuSans-54"/>
      <use xlink:href="#DejaVuSans-72" x="46.333984"/>
      <use xlink:href="#DejaVuSans-61" x="87.447266"/>
      <use xlink:href="#DejaVuSans-63" x="148.726562"/>
      <use xlink:href="#DejaVuSans-65" x="203.707031"/>
      <use xlink:href="#DejaVuSans-20" x="265.230469"/>
      <use xlink:href="#DejaVuSans-6e" x="297.017578"/>
      <use xlink:href="#DejaVuSans-75" x="360.396484"/>
      <use xlink:href="#DejaVuSans-6d" x="423.775391"/>
      <use xlink:href="#DejaVuSans-62" x="521.1875"/>
      <use xlink:href="#DejaVuSans-65" x="584.664062"/>
      <use xlink:href="#DejaVuSans-72" x="646.1875"/>
     </g>
    </g>
    <g id="line2d_28">
     <path d="M 328.253906 62.336562 
L 338.253906 62.336562 
L 348.253906 62.336562 
" style="fill: none; stroke: #1f77b4; stroke-width: 1.5; stroke-linecap: square"/>
    </g>
    <g id="text_17">
     <!-- 2 -->
     <g transform="translate(356.253906 65.836562)scale(0.1 -0.1)">
      <use xlink:href="#DejaVuSans-32"/>
     </g>
    </g>
    <g id="line2d_29">
     <path d="M 328.253906 77.014687 
L 338.253906 77.014687 
L 348.253906 77.014687 
" style="fill: none; stroke: #ff7f0e; stroke-width: 1.5; stroke-linecap: square"/>
    </g>
    <g id="text_18">
     <!-- 5 -->
     <g transform="translate(356.253906 80.514687)scale(0.1 -0.1)">
      <use xlink:href="#DejaVuSans-35"/>
     </g>
    </g>
    <g id="line2d_30">
     <path d="M 328.253906 91.692813 
L 338.253906 91.692813 
L 348.253906 91.692813 
" style="fill: none; stroke: #2ca02c; stroke-width: 1.5; stroke-linecap: square"/>
    </g>
    <g id="text_19">
     <!-- 7 -->
     <g transform="translate(356.253906 95.192813)scale(0.1 -0.1)">
      <defs>
       <path id="DejaVuSans-37" d="M 525 4666 
L 3525 4666 
L 3525 4397 
L 1831 0 
L 1172 0 
L 2766 4134 
L 525 4134 
L 525 4666 
z
" transform="scale(0.015625)"/>
      </defs>
      <use xlink:href="#DejaVuSans-37"/>
     </g>
    </g>
   </g>
  </g>
 </g>
 <defs>
  <clipPath id="p81d598d107">
   <rect x="54" y="34.56" width="334.8" height="217.44"/>
  </clipPath>
 </defs>
</svg>
