<?xml version="1.0" encoding="utf-8" standalone="no"?>
<!DOCTYPE svg PUBLIC "-//W3C//DTD SVG 1.1//EN"
  "http://www.w3.org/Graphics/SVG/1.1/DTD/svg11.dtd">
<svg xmlns:xlink="http://www.w3.org/1999/xlink" width="432pt" height="288pt" viewBox="0 0 432 288" xmlns="http://www.w3.org/2000/svg" version="1.1">
 <metadata>
  <rdf:RDF xmlns:dc="http://purl.org/dc/elements/1.1/" xmlns:cc="http://creativecommons.org/ns#" xmlns:rdf="http://www.w3.org/1999/02/22-rdf-syntax-ns#">
   <cc:Work>
    <dc:type rdf:resource="http://purl.org/dc/dcmitype/StillImage"/>
    <dc:date>2022-03-30T13:16:46.603173</dc:date>
    <dc:format>image/svg+xml</dc:format>
    <dc:creator>
     <cc:Agent>
      <dc:title>Matplotlib v3.5.1, https://matplotlib.org/</dc:title>
     </cc:Agent>
    </dc:creator>
   </cc:Work>
  </rdf:RDF>
 </metadata>
 <defs>
  <style type="text/css">*{stroke-linejoin: round; stroke-linecap: butt}</style>
 </defs>
 <g id="figure_1">
  <g id="patch_1">
   <path d="M 0 288 
L 432 288 
L 432 0 
L 0 0 
z
" style="fill: #ffffff"/>
  </g>
  <g id="axes_1">
   <g id="patch_2">
    <path d="M 54 252 
L 388.8 252 
L 388.8 34.56 
L 54 34.56 
z
" style="fill: #ffffff"/>
   </g>
   <g id="matplotlib.axis_1">
    <g id="xtick_1">
     <g id="line2d_1">
      <path d="M 69.218182 252 
L 69.218182 34.56 
" clip-path="url(#p1c211e40b1)" style="fill: none; stroke: #b0b0b0; stroke-width: 0.8; stroke-linecap: square"/>
     </g>
     <g id="line2d_2">
      <defs>
       <path id="m8d22b07dc6" d="M 0 0 
L 0 3.5 
" style="stroke: #000000; stroke-width: 0.8"/>
      </defs>
      <g>
       <use xlink:href="#m8d22b07dc6" x="69.218182" y="252" style="stroke: #000000; stroke-width: 0.8"/>
      </g>
     </g>
     <g id="text_1">
      <!-- 0 -->
      <g transform="translate(66.036932 266.598437)scale(0.1 -0.1)">
       <defs>
        <path id="DejaVuSans-30" d="M 2034 4250 
Q 1547 4250 1301 3770 
Q 1056 3291 1056 2328 
Q 1056 1369 1301 889 
Q 1547 409 2034 409 
Q 2525 409 2770 889 
Q 3016 1369 3016 2328 
Q 3016 3291 2770 3770 
Q 2525 4250 2034 4250 
z
M 2034 4750 
Q 2819 4750 3233 4129 
Q 3647 3509 3647 2328 
Q 3647 1150 3233 529 
Q 2819 -91 2034 -91 
Q 1250 -91 836 529 
Q 422 1150 422 2328 
Q 422 3509 836 4129 
Q 1250 4750 2034 4750 
z
" transform="scale(0.015625)"/>
       </defs>
       <use xlink:href="#DejaVuSans-30"/>
      </g>
     </g>
    </g>
    <g id="xtick_2">
     <g id="line2d_3">
      <path d="M 128.780537 252 
L 128.780537 34.56 
" clip-path="url(#p1c211e40b1)" style="fill: none; stroke: #b0b0b0; stroke-width: 0.8; stroke-linecap: square"/>
     </g>
     <g id="line2d_4">
      <g>
       <use xlink:href="#m8d22b07dc6" x="128.780537" y="252" style="stroke: #000000; stroke-width: 0.8"/>
      </g>
     </g>
     <g id="text_2">
      <!-- 100 -->
      <g transform="translate(119.236787 266.598437)scale(0.1 -0.1)">
       <defs>
        <path id="DejaVuSans-31" d="M 794 531 
L 1825 531 
L 1825 4091 
L 703 3866 
L 703 4441 
L 1819 4666 
L 2450 4666 
L 2450 531 
L 3481 531 
L 3481 0 
L 794 0 
L 794 531 
z
" transform="scale(0.015625)"/>
       </defs>
       <use xlink:href="#DejaVuSans-31"/>
       <use xlink:href="#DejaVuSans-30" x="63.623047"/>
       <use xlink:href="#DejaVuSans-30" x="127.246094"/>
      </g>
     </g>
    </g>
    <g id="xtick_3">
     <g id="line2d_5">
      <path d="M 188.342893 252 
L 188.342893 34.56 
" clip-path="url(#p1c211e40b1)" style="fill: none; stroke: #b0b0b0; stroke-width: 0.8; stroke-linecap: square"/>
     </g>
     <g id="line2d_6">
      <g>
       <use xlink:href="#m8d22b07dc6" x="188.342893" y="252" style="stroke: #000000; stroke-width: 0.8"/>
      </g>
     </g>
     <g id="text_3">
      <!-- 200 -->
      <g transform="translate(178.799143 266.598437)scale(0.1 -0.1)">
       <defs>
        <path id="DejaVuSans-32" d="M 1228 531 
L 3431 531 
L 3431 0 
L 469 0 
L 469 531 
Q 828 903 1448 1529 
Q 2069 2156 2228 2338 
Q 2531 2678 2651 2914 
Q 2772 3150 2772 3378 
Q 2772 3750 2511 3984 
Q 2250 4219 1831 4219 
Q 1534 4219 1204 4116 
Q 875 4013 500 3803 
L 500 4441 
Q 881 4594 1212 4672 
Q 1544 4750 1819 4750 
Q 2544 4750 2975 4387 
Q 3406 4025 3406 3419 
Q 3406 3131 3298 2873 
Q 3191 2616 2906 2266 
Q 2828 2175 2409 1742 
Q 1991 1309 1228 531 
z
" transform="scale(0.015625)"/>
       </defs>
       <use xlink:href="#DejaVuSans-32"/>
       <use xlink:href="#DejaVuSans-30" x="63.623047"/>
       <use xlink:href="#DejaVuSans-30" x="127.246094"/>
      </g>
     </g>
    </g>
    <g id="xtick_4">
     <g id="line2d_7">
      <path d="M 247.905248 252 
L 247.905248 34.56 
" clip-path="url(#p1c211e40b1)" style="fill: none; stroke: #b0b0b0; stroke-width: 0.8; stroke-linecap: square"/>
     </g>
     <g id="line2d_8">
      <g>
       <use xlink:href="#m8d22b07dc6" x="247.905248" y="252" style="stroke: #000000; stroke-width: 0.8"/>
      </g>
     </g>
     <g id="text_4">
      <!-- 300 -->
      <g transform="translate(238.361498 266.598437)scale(0.1 -0.1)">
       <defs>
        <path id="DejaVuSans-33" d="M 2597 2516 
Q 3050 2419 3304 2112 
Q 3559 1806 3559 1356 
Q 3559 666 3084 287 
Q 2609 -91 1734 -91 
Q 1441 -91 1130 -33 
Q 819 25 488 141 
L 488 750 
Q 750 597 1062 519 
Q 1375 441 1716 441 
Q 2309 441 2620 675 
Q 2931 909 2931 1356 
Q 2931 1769 2642 2001 
Q 2353 2234 1838 2234 
L 1294 2234 
L 1294 2753 
L 1863 2753 
Q 2328 2753 2575 2939 
Q 2822 3125 2822 3475 
Q 2822 3834 2567 4026 
Q 2313 4219 1838 4219 
Q 1578 4219 1281 4162 
Q 984 4106 628 3988 
L 628 4550 
Q 988 4650 1302 4700 
Q 1616 4750 1894 4750 
Q 2613 4750 3031 4423 
Q 3450 4097 3450 3541 
Q 3450 3153 3228 2886 
Q 3006 2619 2597 2516 
z
" transform="scale(0.015625)"/>
       </defs>
       <use xlink:href="#DejaVuSans-33"/>
       <use xlink:href="#DejaVuSans-30" x="63.623047"/>
       <use xlink:href="#DejaVuSans-30" x="127.246094"/>
      </g>
     </g>
    </g>
    <g id="xtick_5">
     <g id="line2d_9">
      <path d="M 307.467604 252 
L 307.467604 34.56 
" clip-path="url(#p1c211e40b1)" style="fill: none; stroke: #b0b0b0; stroke-width: 0.8; stroke-linecap: square"/>
     </g>
     <g id="line2d_10">
      <g>
       <use xlink:href="#m8d22b07dc6" x="307.467604" y="252" style="stroke: #000000; stroke-width: 0.8"/>
      </g>
     </g>
     <g id="text_5">
      <!-- 400 -->
      <g transform="translate(297.923854 266.598437)scale(0.1 -0.1)">
       <defs>
        <path id="DejaVuSans-34" d="M 2419 4116 
L 825 1625 
L 2419 1625 
L 2419 4116 
z
M 2253 4666 
L 3047 4666 
L 3047 1625 
L 3713 1625 
L 3713 1100 
L 3047 1100 
L 3047 0 
L 2419 0 
L 2419 1100 
L 313 1100 
L 313 1709 
L 2253 4666 
z
" transform="scale(0.015625)"/>
       </defs>
       <use xlink:href="#DejaVuSans-34"/>
       <use xlink:href="#DejaVuSans-30" x="63.623047"/>
       <use xlink:href="#DejaVuSans-30" x="127.246094"/>
      </g>
     </g>
    </g>
    <g id="xtick_6">
     <g id="line2d_11">
      <path d="M 367.029959 252 
L 367.029959 34.56 
" clip-path="url(#p1c211e40b1)" style="fill: none; stroke: #b0b0b0; stroke-width: 0.8; stroke-linecap: square"/>
     </g>
     <g id="line2d_12">
      <g>
       <use xlink:href="#m8d22b07dc6" x="367.029959" y="252" style="stroke: #000000; stroke-width: 0.8"/>
      </g>
     </g>
     <g id="text_6">
      <!-- 500 -->
      <g transform="translate(357.486209 266.598437)scale(0.1 -0.1)">
       <defs>
        <path id="DejaVuSans-35" d="M 691 4666 
L 3169 4666 
L 3169 4134 
L 1269 4134 
L 1269 2991 
Q 1406 3038 1543 3061 
Q 1681 3084 1819 3084 
Q 2600 3084 3056 2656 
Q 3513 2228 3513 1497 
Q 3513 744 3044 326 
Q 2575 -91 1722 -91 
Q 1428 -91 1123 -41 
Q 819 9 494 109 
L 494 744 
Q 775 591 1075 516 
Q 1375 441 1709 441 
Q 2250 441 2565 725 
Q 2881 1009 2881 1497 
Q 2881 1984 2565 2268 
Q 2250 2553 1709 2553 
Q 1456 2553 1204 2497 
Q 953 2441 691 2322 
L 691 4666 
z
" transform="scale(0.015625)"/>
       </defs>
       <use xlink:href="#DejaVuSans-35"/>
       <use xlink:href="#DejaVuSans-30" x="63.623047"/>
       <use xlink:href="#DejaVuSans-30" x="127.246094"/>
      </g>
     </g>
    </g>
    <g id="text_7">
     <!-- bin -->
     <g transform="translate(213.667969 280.276563)scale(0.1 -0.1)">
      <defs>
       <path id="DejaVuSans-62" d="M 3116 1747 
Q 3116 2381 2855 2742 
Q 2594 3103 2138 3103 
Q 1681 3103 1420 2742 
Q 1159 2381 1159 1747 
Q 1159 1113 1420 752 
Q 1681 391 2138 391 
Q 2594 391 2855 752 
Q 3116 1113 3116 1747 
z
M 1159 2969 
Q 1341 3281 1617 3432 
Q 1894 3584 2278 3584 
Q 2916 3584 3314 3078 
Q 3713 2572 3713 1747 
Q 3713 922 3314 415 
Q 2916 -91 2278 -91 
Q 1894 -91 1617 61 
Q 1341 213 1159 525 
L 1159 0 
L 581 0 
L 581 4863 
L 1159 4863 
L 1159 2969 
z
" transform="scale(0.015625)"/>
       <path id="DejaVuSans-69" d="M 603 3500 
L 1178 3500 
L 1178 0 
L 603 0 
L 603 3500 
z
M 603 4863 
L 1178 4863 
L 1178 4134 
L 603 4134 
L 603 4863 
z
" transform="scale(0.015625)"/>
       <path id="DejaVuSans-6e" d="M 3513 2113 
L 3513 0 
L 2938 0 
L 2938 2094 
Q 2938 2591 2744 2837 
Q 2550 3084 2163 3084 
Q 1697 3084 1428 2787 
Q 1159 2491 1159 1978 
L 1159 0 
L 581 0 
L 581 3500 
L 1159 3500 
L 1159 2956 
Q 1366 3272 1645 3428 
Q 1925 3584 2291 3584 
Q 2894 3584 3203 3211 
Q 3513 2838 3513 2113 
z
" transform="scale(0.015625)"/>
      </defs>
      <use xlink:href="#DejaVuSans-62"/>
      <use xlink:href="#DejaVuSans-69" x="63.476562"/>
      <use xlink:href="#DejaVuSans-6e" x="91.259766"/>
     </g>
    </g>
   </g>
   <g id="matplotlib.axis_2">
    <g id="ytick_1">
     <g id="line2d_13">
      <path d="M 54 252 
L 388.8 252 
" clip-path="url(#p1c211e40b1)" style="fill: none; stroke: #b0b0b0; stroke-width: 0.8; stroke-linecap: square"/>
     </g>
     <g id="line2d_14">
      <defs>
       <path id="m01283d9fe4" d="M 0 0 
L -3.5 0 
" style="stroke: #000000; stroke-width: 0.8"/>
      </defs>
      <g>
       <use xlink:href="#m01283d9fe4" x="54" y="252" style="stroke: #000000; stroke-width: 0.8"/>
      </g>
     </g>
     <g id="text_8">
      <!-- 0.0 -->
      <g transform="translate(31.096875 255.799219)scale(0.1 -0.1)">
       <defs>
        <path id="DejaVuSans-2e" d="M 684 794 
L 1344 794 
L 1344 0 
L 684 0 
L 684 794 
z
" transform="scale(0.015625)"/>
       </defs>
       <use xlink:href="#DejaVuSans-30"/>
       <use xlink:href="#DejaVuSans-2e" x="63.623047"/>
       <use xlink:href="#DejaVuSans-30" x="95.410156"/>
      </g>
     </g>
    </g>
    <g id="ytick_2">
     <g id="line2d_15">
      <path d="M 54 208.512 
L 388.8 208.512 
" clip-path="url(#p1c211e40b1)" style="fill: none; stroke: #b0b0b0; stroke-width: 0.8; stroke-linecap: square"/>
     </g>
     <g id="line2d_16">
      <g>
       <use xlink:href="#m01283d9fe4" x="54" y="208.512" style="stroke: #000000; stroke-width: 0.8"/>
      </g>
     </g>
     <g id="text_9">
      <!-- 0.2 -->
      <g transform="translate(31.096875 212.311219)scale(0.1 -0.1)">
       <use xlink:href="#DejaVuSans-30"/>
       <use xlink:href="#DejaVuSans-2e" x="63.623047"/>
       <use xlink:href="#DejaVuSans-32" x="95.410156"/>
      </g>
     </g>
    </g>
    <g id="ytick_3">
     <g id="line2d_17">
      <path d="M 54 165.024 
L 388.8 165.024 
" clip-path="url(#p1c211e40b1)" style="fill: none; stroke: #b0b0b0; stroke-width: 0.8; stroke-linecap: square"/>
     </g>
     <g id="line2d_18">
      <g>
       <use xlink:href="#m01283d9fe4" x="54" y="165.024" style="stroke: #000000; stroke-width: 0.8"/>
      </g>
     </g>
     <g id="text_10">
      <!-- 0.4 -->
      <g transform="translate(31.096875 168.823219)scale(0.1 -0.1)">
       <use xlink:href="#DejaVuSans-30"/>
       <use xlink:href="#DejaVuSans-2e" x="63.623047"/>
       <use xlink:href="#DejaVuSans-34" x="95.410156"/>
      </g>
     </g>
    </g>
    <g id="ytick_4">
     <g id="line2d_19">
      <path d="M 54 121.536 
L 388.8 121.536 
" clip-path="url(#p1c211e40b1)" style="fill: none; stroke: #b0b0b0; stroke-width: 0.8; stroke-linecap: square"/>
     </g>
     <g id="line2d_20">
      <g>
       <use xlink:href="#m01283d9fe4" x="54" y="121.536" style="stroke: #000000; stroke-width: 0.8"/>
      </g>
     </g>
     <g id="text_11">
      <!-- 0.6 -->
      <g transform="translate(31.096875 125.335219)scale(0.1 -0.1)">
       <defs>
        <path id="DejaVuSans-36" d="M 2113 2584 
Q 1688 2584 1439 2293 
Q 1191 2003 1191 1497 
Q 1191 994 1439 701 
Q 1688 409 2113 409 
Q 2538 409 2786 701 
Q 3034 994 3034 1497 
Q 3034 2003 2786 2293 
Q 2538 2584 2113 2584 
z
M 3366 4563 
L 3366 3988 
Q 3128 4100 2886 4159 
Q 2644 4219 2406 4219 
Q 1781 4219 1451 3797 
Q 1122 3375 1075 2522 
Q 1259 2794 1537 2939 
Q 1816 3084 2150 3084 
Q 2853 3084 3261 2657 
Q 3669 2231 3669 1497 
Q 3669 778 3244 343 
Q 2819 -91 2113 -91 
Q 1303 -91 875 529 
Q 447 1150 447 2328 
Q 447 3434 972 4092 
Q 1497 4750 2381 4750 
Q 2619 4750 2861 4703 
Q 3103 4656 3366 4563 
z
" transform="scale(0.015625)"/>
       </defs>
       <use xlink:href="#DejaVuSans-30"/>
       <use xlink:href="#DejaVuSans-2e" x="63.623047"/>
       <use xlink:href="#DejaVuSans-36" x="95.410156"/>
      </g>
     </g>
    </g>
    <g id="ytick_5">
     <g id="line2d_21">
      <path d="M 54 78.048 
L 388.8 78.048 
" clip-path="url(#p1c211e40b1)" style="fill: none; stroke: #b0b0b0; stroke-width: 0.8; stroke-linecap: square"/>
     </g>
     <g id="line2d_22">
      <g>
       <use xlink:href="#m01283d9fe4" x="54" y="78.048" style="stroke: #000000; stroke-width: 0.8"/>
      </g>
     </g>
     <g id="text_12">
      <!-- 0.8 -->
      <g transform="translate(31.096875 81.847219)scale(0.1 -0.1)">
       <defs>
        <path id="DejaVuSans-38" d="M 2034 2216 
Q 1584 2216 1326 1975 
Q 1069 1734 1069 1313 
Q 1069 891 1326 650 
Q 1584 409 2034 409 
Q 2484 409 2743 651 
Q 3003 894 3003 1313 
Q 3003 1734 2745 1975 
Q 2488 2216 2034 2216 
z
M 1403 2484 
Q 997 2584 770 2862 
Q 544 3141 544 3541 
Q 544 4100 942 4425 
Q 1341 4750 2034 4750 
Q 2731 4750 3128 4425 
Q 3525 4100 3525 3541 
Q 3525 3141 3298 2862 
Q 3072 2584 2669 2484 
Q 3125 2378 3379 2068 
Q 3634 1759 3634 1313 
Q 3634 634 3220 271 
Q 2806 -91 2034 -91 
Q 1263 -91 848 271 
Q 434 634 434 1313 
Q 434 1759 690 2068 
Q 947 2378 1403 2484 
z
M 1172 3481 
Q 1172 3119 1398 2916 
Q 1625 2713 2034 2713 
Q 2441 2713 2670 2916 
Q 2900 3119 2900 3481 
Q 2900 3844 2670 4047 
Q 2441 4250 2034 4250 
Q 1625 4250 1398 4047 
Q 1172 3844 1172 3481 
z
" transform="scale(0.015625)"/>
       </defs>
       <use xlink:href="#DejaVuSans-30"/>
       <use xlink:href="#DejaVuSans-2e" x="63.623047"/>
       <use xlink:href="#DejaVuSans-38" x="95.410156"/>
      </g>
     </g>
    </g>
    <g id="ytick_6">
     <g id="line2d_23">
      <path d="M 54 34.56 
L 388.8 34.56 
" clip-path="url(#p1c211e40b1)" style="fill: none; stroke: #b0b0b0; stroke-width: 0.8; stroke-linecap: square"/>
     </g>
     <g id="line2d_24">
      <g>
       <use xlink:href="#m01283d9fe4" x="54" y="34.56" style="stroke: #000000; stroke-width: 0.8"/>
      </g>
     </g>
     <g id="text_13">
      <!-- 1.0 -->
      <g transform="translate(31.096875 38.359219)scale(0.1 -0.1)">
       <use xlink:href="#DejaVuSans-31"/>
       <use xlink:href="#DejaVuSans-2e" x="63.623047"/>
       <use xlink:href="#DejaVuSans-30" x="95.410156"/>
      </g>
     </g>
    </g>
    <g id="text_14">
     <!-- count -->
     <g transform="translate(25.017187 157.38625)rotate(-90)scale(0.1 -0.1)">
      <defs>
       <path id="DejaVuSans-63" d="M 3122 3366 
L 3122 2828 
Q 2878 2963 2633 3030 
Q 2388 3097 2138 3097 
Q 1578 3097 1268 2742 
Q 959 2388 959 1747 
Q 959 1106 1268 751 
Q 1578 397 2138 397 
Q 2388 397 2633 464 
Q 2878 531 3122 666 
L 3122 134 
Q 2881 22 2623 -34 
Q 2366 -91 2075 -91 
Q 1284 -91 818 406 
Q 353 903 353 1747 
Q 353 2603 823 3093 
Q 1294 3584 2113 3584 
Q 2378 3584 2631 3529 
Q 2884 3475 3122 3366 
z
" transform="scale(0.015625)"/>
       <path id="DejaVuSans-6f" d="M 1959 3097 
Q 1497 3097 1228 2736 
Q 959 2375 959 1747 
Q 959 1119 1226 758 
Q 1494 397 1959 397 
Q 2419 397 2687 759 
Q 2956 1122 2956 1747 
Q 2956 2369 2687 2733 
Q 2419 3097 1959 3097 
z
M 1959 3584 
Q 2709 3584 3137 3096 
Q 3566 2609 3566 1747 
Q 3566 888 3137 398 
Q 2709 -91 1959 -91 
Q 1206 -91 779 398 
Q 353 888 353 1747 
Q 353 2609 779 3096 
Q 1206 3584 1959 3584 
z
" transform="scale(0.015625)"/>
       <path id="DejaVuSans-75" d="M 544 1381 
L 544 3500 
L 1119 3500 
L 1119 1403 
Q 1119 906 1312 657 
Q 1506 409 1894 409 
Q 2359 409 2629 706 
Q 2900 1003 2900 1516 
L 2900 3500 
L 3475 3500 
L 3475 0 
L 2900 0 
L 2900 538 
Q 2691 219 2414 64 
Q 2138 -91 1772 -91 
Q 1169 -91 856 284 
Q 544 659 544 1381 
z
M 1991 3584 
L 1991 3584 
z
" transform="scale(0.015625)"/>
       <path id="DejaVuSans-74" d="M 1172 4494 
L 1172 3500 
L 2356 3500 
L 2356 3053 
L 1172 3053 
L 1172 1153 
Q 1172 725 1289 603 
Q 1406 481 1766 481 
L 2356 481 
L 2356 0 
L 1766 0 
Q 1100 0 847 248 
Q 594 497 594 1153 
L 594 3053 
L 172 3053 
L 172 3500 
L 594 3500 
L 594 4494 
L 1172 4494 
z
" transform="scale(0.015625)"/>
      </defs>
      <use xlink:href="#DejaVuSans-63"/>
      <use xlink:href="#DejaVuSans-6f" x="54.980469"/>
      <use xlink:href="#DejaVuSans-75" x="116.162109"/>
      <use xlink:href="#DejaVuSans-6e" x="179.541016"/>
      <use xlink:href="#DejaVuSans-74" x="242.919922"/>
     </g>
    </g>
   </g>
   <g id="line2d_25">
    <path d="M 69.218182 214.876098 
L 69.813805 230.256 
L 70.409429 209.572683 
L 71.005052 212.22439 
L 71.600676 221.240195 
L 72.1963 218.058146 
L 72.791923 219.649171 
L 73.387547 220.709854 
L 73.98317 213.285073 
L 74.578794 225.482927 
L 75.174417 225.482927 
L 75.770041 233.438049 
L 76.365664 220.179512 
L 76.961288 244.57522 
L 77.556912 238.211122 
L 78.152535 240.332488 
L 78.748159 232.377366 
L 79.343782 222.300878 
L 79.939406 231.316683 
L 80.535029 238.211122 
L 81.130653 236.620098 
L 81.726276 219.649171 
L 82.3219 213.815415 
L 82.917524 233.438049 
L 84.108771 211.163707 
L 84.704394 206.390634 
L 85.300018 235.559415 
L 85.895641 227.604293 
L 86.491265 213.285073 
L 87.086888 212.754732 
L 87.682512 247.757268 
L 88.278136 231.847024 
L 88.873759 209.042341 
L 89.469383 230.256 
L 90.66063 214.876098 
L 91.256253 219.649171 
L 91.851877 230.256 
L 92.4475 217.527805 
L 93.043124 236.089756 
L 93.638748 221.770537 
L 94.234371 231.847024 
L 94.829995 236.620098 
L 95.425618 228.664976 
L 96.021242 205.329951 
L 96.616865 208.512 
L 97.212489 215.406439 
L 97.808112 227.073951 
L 98.403736 219.118829 
L 98.99936 222.300878 
L 99.594983 227.604293 
L 100.190607 245.635902 
L 100.78623 228.134634 
L 101.381854 222.83122 
L 101.977477 201.08722 
L 102.573101 241.393171 
L 103.168724 219.649171 
L 103.764348 226.013268 
L 104.359972 239.802146 
L 104.955595 219.118829 
L 105.551219 213.285073 
L 106.146842 223.361561 
L 106.742466 221.240195 
L 107.338089 231.847024 
L 107.933713 215.406439 
L 108.529336 231.316683 
L 109.12496 219.118829 
L 109.720584 242.453854 
L 110.316207 215.93678 
L 110.911831 234.498732 
L 111.507454 219.649171 
L 112.103078 226.54361 
L 112.698701 221.770537 
L 113.294325 227.073951 
L 113.889948 236.089756 
L 114.485572 221.770537 
L 115.081196 227.604293 
L 115.676819 230.786341 
L 116.272443 223.361561 
L 116.868066 221.770537 
L 117.46369 237.68078 
L 118.059313 233.438049 
L 118.654937 230.786341 
L 119.25056 235.559415 
L 119.846184 234.498732 
L 120.441808 211.694049 
L 121.037431 223.361561 
L 121.633055 244.57522 
L 122.228678 230.256 
L 122.824302 219.649171 
L 123.419925 226.54361 
L 124.015549 209.042341 
L 125.206796 239.802146 
L 125.802419 227.073951 
L 126.398043 225.482927 
L 126.993667 228.134634 
L 127.58929 213.285073 
L 128.184914 220.709854 
L 128.780537 223.361561 
L 129.376161 210.633366 
L 129.971784 214.876098 
L 130.567408 232.907707 
L 131.163031 238.211122 
L 131.758655 221.770537 
L 132.354279 235.029073 
L 132.949902 231.847024 
L 133.545526 231.316683 
L 134.141149 224.952585 
L 134.736773 242.453854 
L 135.332396 230.786341 
L 135.92802 239.271805 
L 136.523643 235.559415 
L 137.119267 214.876098 
L 137.714891 231.847024 
L 138.310514 213.815415 
L 138.906138 225.482927 
L 139.501761 214.876098 
L 140.097385 229.725659 
L 140.693008 235.029073 
L 141.288632 230.786341 
L 142.479879 218.058146 
L 143.075503 227.073951 
L 143.671126 231.847024 
L 144.26675 223.361561 
L 144.862373 239.802146 
L 145.457997 236.620098 
L 146.05362 212.22439 
L 146.649244 212.754732 
L 147.244867 232.377366 
L 147.840491 223.891902 
L 148.436115 210.103024 
L 149.031738 227.604293 
L 149.627362 229.725659 
L 150.222985 210.633366 
L 152.009856 246.166244 
L 152.605479 236.620098 
L 153.201103 211.163707 
L 153.796727 245.635902 
L 154.39235 226.013268 
L 154.987974 227.604293 
L 156.179221 211.694049 
L 156.774844 212.22439 
L 157.370468 209.572683 
L 157.966091 210.103024 
L 158.561715 221.770537 
L 159.157339 222.83122 
L 159.752962 201.08722 
L 160.348586 218.058146 
L 160.944209 197.374829 
L 162.135456 228.664976 
L 162.73108 218.058146 
L 163.326703 233.438049 
L 163.922327 231.847024 
L 164.517951 231.316683 
L 165.113574 231.316683 
L 165.709198 211.163707 
L 166.304821 230.786341 
L 166.900445 225.482927 
L 167.496068 223.361561 
L 168.091692 218.058146 
L 168.687315 204.269268 
L 169.282939 219.649171 
L 169.878563 195.783805 
L 170.474186 216.467122 
L 171.06981 230.256 
L 171.665433 226.54361 
L 172.261057 210.633366 
L 172.85668 227.073951 
L 173.452304 239.802146 
L 174.047927 220.709854 
L 174.643551 221.240195 
L 175.239175 226.013268 
L 175.834798 232.907707 
L 176.430422 230.786341 
L 177.026045 226.54361 
L 177.621669 227.604293 
L 178.217292 222.83122 
L 178.812916 204.79961 
L 179.408539 211.163707 
L 180.004163 211.694049 
L 180.599787 232.377366 
L 181.19541 215.406439 
L 181.791034 219.118829 
L 182.386657 233.96839 
L 182.982281 231.847024 
L 183.577904 220.709854 
L 184.173528 214.876098 
L 184.769151 229.195317 
L 185.364775 201.08722 
L 185.960399 223.361561 
L 186.556022 238.741463 
L 187.151646 221.770537 
L 187.747269 233.438049 
L 188.342893 224.952585 
L 188.938516 227.604293 
L 189.53414 198.435512 
L 190.129763 236.089756 
L 190.725387 230.786341 
L 191.32101 204.79961 
L 191.916634 222.83122 
L 192.512258 221.770537 
L 193.107881 212.754732 
L 193.703505 228.134634 
L 194.299128 229.195317 
L 194.894752 222.83122 
L 195.490375 221.770537 
L 196.085999 216.997463 
L 196.681622 222.300878 
L 197.277246 201.617561 
L 197.87287 221.770537 
L 198.468493 208.512 
L 199.064117 220.709854 
L 199.65974 236.620098 
L 200.255364 213.285073 
L 200.850987 239.271805 
L 201.446611 211.694049 
L 202.042234 216.467122 
L 202.637858 232.907707 
L 203.829105 213.285073 
L 204.424729 220.179512 
L 205.020352 212.22439 
L 205.615976 209.042341 
L 206.211599 210.103024 
L 206.807223 199.496195 
L 207.402846 200.026537 
L 207.99847 211.163707 
L 208.594094 228.664976 
L 209.189717 226.54361 
L 209.785341 220.709854 
L 210.380964 210.633366 
L 211.572211 223.361561 
L 212.167835 235.559415 
L 212.763458 222.83122 
L 213.359082 222.300878 
L 214.550329 231.316683 
L 215.145953 214.876098 
L 215.741576 234.498732 
L 216.3372 226.54361 
L 216.932823 220.709854 
L 217.528447 231.316683 
L 218.12407 220.179512 
L 218.719694 252 
L 219.315318 212.22439 
L 219.910941 210.633366 
L 220.506565 214.345756 
L 221.102188 198.965854 
L 221.697812 201.617561 
L 222.293435 197.374829 
L 222.889059 201.617561 
L 223.484682 163.432976 
L 224.080306 189.419707 
L 224.67593 181.464585 
L 225.271553 180.403902 
L 225.867177 192.071415 
L 226.4628 176.161171 
L 227.058424 168.73639 
L 227.654047 192.601756 
L 228.249671 195.253463 
L 228.845294 180.403902 
L 229.440918 175.630829 
L 230.036542 184.116293 
L 230.632165 183.585951 
L 231.227789 170.327415 
L 231.823412 181.994927 
L 232.419036 174.039805 
L 233.014659 158.659902 
L 233.610283 162.372293 
L 234.205906 165.024 
L 234.80153 144.340683 
L 235.397154 144.340683 
L 235.992777 34.56 
L 236.588401 157.59922 
L 237.184024 163.963317 
L 237.779648 151.765463 
L 238.375271 216.997463 
L 238.970895 200.026537 
L 239.566518 197.374829 
L 240.162142 199.496195 
L 240.757766 231.316683 
L 241.353389 221.770537 
L 241.949013 214.876098 
L 243.14026 235.559415 
L 243.735883 224.952585 
L 244.331507 224.952585 
L 244.92713 222.83122 
L 245.522754 231.847024 
L 246.118378 219.118829 
L 246.714001 235.559415 
L 247.309625 206.920976 
L 247.905248 215.406439 
L 248.500872 218.588488 
L 249.692119 241.923512 
L 250.287742 226.013268 
L 250.883366 221.240195 
L 251.47899 220.179512 
L 252.074613 223.891902 
L 252.670237 216.997463 
L 253.26586 224.952585 
L 253.861484 214.876098 
L 254.457107 227.073951 
L 255.052731 212.22439 
L 255.648354 209.042341 
L 256.243978 228.134634 
L 256.839601 222.83122 
L 257.435225 238.741463 
L 258.030849 222.83122 
L 258.626472 220.709854 
L 259.222096 227.073951 
L 259.817719 215.406439 
L 261.008966 230.256 
L 261.60459 219.118829 
L 262.200213 218.588488 
L 262.795837 230.786341 
L 263.391461 235.029073 
L 263.987084 222.300878 
L 264.582708 229.195317 
L 265.178331 223.361561 
L 265.773955 225.482927 
L 266.369578 220.709854 
L 266.965202 230.256 
L 267.560825 232.377366 
L 268.156449 210.103024 
L 268.752073 218.058146 
L 269.347696 210.633366 
L 269.94332 209.572683 
L 270.538943 224.952585 
L 271.134567 219.118829 
L 271.73019 226.54361 
L 272.325814 215.93678 
L 272.921437 220.709854 
L 273.517061 207.451317 
L 274.112685 227.073951 
L 274.708308 240.332488 
L 275.303932 233.96839 
L 275.899555 231.316683 
L 276.495179 224.422244 
L 277.090802 224.422244 
L 277.686426 215.93678 
L 278.282049 233.438049 
L 278.877673 218.058146 
L 279.473297 213.815415 
L 280.06892 232.377366 
L 280.664544 236.620098 
L 281.260167 212.754732 
L 281.855791 221.240195 
L 282.451414 218.058146 
L 283.047038 231.847024 
L 283.642661 236.089756 
L 284.238285 201.617561 
L 284.833909 232.377366 
L 285.429532 220.709854 
L 286.025156 212.754732 
L 286.620779 236.089756 
L 287.216403 239.802146 
L 287.812026 225.482927 
L 288.40765 224.952585 
L 289.003273 225.482927 
L 289.598897 227.073951 
L 290.194521 241.393171 
L 290.790144 229.195317 
L 291.385768 221.770537 
L 291.981391 216.467122 
L 292.577015 212.754732 
L 293.172638 226.54361 
L 293.768262 237.150439 
L 294.363885 228.664976 
L 294.959509 229.725659 
L 295.555133 213.285073 
L 296.150756 220.179512 
L 296.74638 249.348293 
L 297.342003 220.179512 
L 297.937627 228.134634 
L 298.53325 215.93678 
L 299.128874 218.588488 
L 299.724497 222.300878 
L 300.320121 206.920976 
L 300.915745 242.984195 
L 301.511368 233.96839 
L 302.106992 220.709854 
L 302.702615 215.93678 
L 303.298239 223.361561 
L 303.893862 227.604293 
L 304.489486 200.026537 
L 305.680733 234.498732 
L 306.276357 235.029073 
L 306.87198 186.768 
L 308.063227 240.332488 
L 308.658851 216.467122 
L 309.254474 218.588488 
L 309.850098 224.422244 
L 310.445721 236.620098 
L 311.041345 232.907707 
L 311.636969 237.150439 
L 312.828216 200.556878 
L 313.423839 233.438049 
L 314.019463 228.664976 
L 314.615086 229.195317 
L 315.21071 211.694049 
L 315.806333 209.572683 
L 316.401957 230.786341 
L 316.997581 226.013268 
L 317.593204 223.891902 
L 318.188828 238.211122 
L 318.784451 242.453854 
L 319.380075 240.332488 
L 319.975698 222.83122 
L 320.571322 248.817951 
L 321.166945 222.83122 
L 321.762569 226.54361 
L 322.358192 215.406439 
L 322.953816 232.377366 
L 323.54944 226.013268 
L 324.145063 221.240195 
L 324.740687 221.770537 
L 325.33631 230.256 
L 325.931934 231.847024 
L 326.527557 221.240195 
L 327.123181 225.482927 
L 327.718804 216.467122 
L 328.314428 236.089756 
L 328.910052 226.013268 
L 329.505675 238.741463 
L 330.101299 235.029073 
L 330.696922 209.572683 
L 331.292546 232.377366 
L 331.888169 223.891902 
L 332.483793 223.361561 
L 333.079416 229.725659 
L 333.67504 223.891902 
L 334.270664 223.361561 
L 334.866287 218.058146 
L 335.461911 218.058146 
L 336.057534 224.952585 
L 336.653158 234.498732 
L 337.248781 231.847024 
L 337.844405 214.876098 
L 338.440028 214.876098 
L 339.035652 235.559415 
L 339.631276 204.79961 
L 340.226899 199.496195 
L 340.822523 215.93678 
L 341.418146 236.089756 
L 342.01377 225.482927 
L 342.609393 226.54361 
L 343.205017 228.664976 
L 343.80064 210.633366 
L 344.396264 235.559415 
L 344.991888 241.393171 
L 345.587511 217.527805 
L 346.183135 240.862829 
L 346.778758 235.029073 
L 347.374382 226.54361 
L 347.970005 228.664976 
L 348.565629 240.332488 
L 349.161252 226.54361 
L 349.756876 221.770537 
L 350.3525 228.134634 
L 350.948123 226.013268 
L 351.543747 214.345756 
L 352.13937 228.134634 
L 352.734994 216.997463 
L 353.330617 222.83122 
L 353.926241 226.013268 
L 354.521864 230.256 
L 355.117488 228.664976 
L 355.713112 227.604293 
L 356.308735 222.83122 
L 356.904359 237.68078 
L 357.499982 222.300878 
L 358.095606 211.163707 
L 358.691229 227.604293 
L 359.286853 219.649171 
L 359.882476 235.029073 
L 360.4781 226.54361 
L 361.073724 213.285073 
L 361.669347 241.393171 
L 362.264971 219.649171 
L 362.860594 228.664976 
L 363.456218 219.649171 
L 364.051841 222.300878 
L 364.647465 237.68078 
L 365.838712 226.54361 
L 366.434336 224.422244 
L 367.029959 243.514537 
L 367.625583 216.997463 
L 368.221206 220.709854 
L 368.81683 235.559415 
L 369.412453 218.058146 
L 370.008077 220.709854 
L 370.6037 207.981659 
L 371.199324 234.498732 
L 371.794948 234.498732 
L 372.390571 227.073951 
L 372.986195 211.163707 
L 373.581818 221.770537 
L 373.581818 221.770537 
" clip-path="url(#p1c211e40b1)" style="fill: none; stroke: #1f77b4; stroke-width: 1.5; stroke-linecap: square"/>
   </g>
   <g id="line2d_26">
    <path d="M 69.218182 252 
L 69.813805 250.890612 
L 70.409429 252 
L 73.387547 252 
L 73.98317 250.890612 
L 75.174417 250.890612 
L 75.770041 252 
L 76.365664 250.890612 
L 76.961288 250.890612 
L 77.556912 252 
L 78.152535 252 
L 78.748159 250.890612 
L 79.343782 250.890612 
L 79.939406 252 
L 81.130653 252 
L 81.726276 250.890612 
L 82.3219 250.890612 
L 82.917524 252 
L 83.513147 250.890612 
L 85.300018 250.890612 
L 85.895641 252 
L 86.491265 248.671837 
L 87.086888 252 
L 88.278136 249.781224 
L 88.873759 249.781224 
L 89.469383 250.890612 
L 90.065006 250.890612 
L 90.66063 252 
L 91.256253 250.890612 
L 91.851877 252 
L 92.4475 250.890612 
L 93.043124 250.890612 
L 93.638748 252 
L 94.234371 252 
L 94.829995 249.781224 
L 95.425618 249.781224 
L 96.021242 252 
L 97.808112 252 
L 98.403736 249.781224 
L 98.99936 252 
L 99.594983 250.890612 
L 100.78623 250.890612 
L 101.381854 249.781224 
L 102.573101 252 
L 103.168724 252 
L 103.764348 250.890612 
L 104.359972 252 
L 104.955595 250.890612 
L 105.551219 252 
L 106.742466 252 
L 107.338089 250.890612 
L 107.933713 252 
L 108.529336 252 
L 109.12496 250.890612 
L 110.316207 250.890612 
L 110.911831 252 
L 111.507454 250.890612 
L 112.103078 252 
L 112.698701 250.890612 
L 113.294325 250.890612 
L 113.889948 252 
L 116.272443 252 
L 116.868066 249.781224 
L 117.46369 252 
L 118.654937 252 
L 119.25056 250.890612 
L 119.846184 250.890612 
L 120.441808 249.781224 
L 121.037431 252 
L 122.228678 252 
L 122.824302 250.890612 
L 123.419925 252 
L 124.015549 252 
L 124.611172 250.890612 
L 125.206796 252 
L 125.802419 252 
L 126.398043 249.781224 
L 126.993667 248.671837 
L 127.58929 250.890612 
L 128.184914 252 
L 128.780537 252 
L 129.376161 250.890612 
L 129.971784 250.890612 
L 130.567408 252 
L 132.354279 252 
L 132.949902 248.671837 
L 133.545526 252 
L 135.332396 252 
L 135.92802 250.890612 
L 136.523643 252 
L 137.714891 249.781224 
L 138.310514 252 
L 138.906138 250.890612 
L 139.501761 252 
L 140.097385 250.890612 
L 140.693008 252 
L 141.288632 252 
L 141.884255 250.890612 
L 142.479879 252 
L 143.075503 252 
L 143.671126 248.671837 
L 144.26675 252 
L 144.862373 250.890612 
L 145.457997 252 
L 146.649244 252 
L 147.244867 250.890612 
L 147.840491 250.890612 
L 148.436115 252 
L 149.031738 252 
L 149.627362 249.781224 
L 150.222985 252 
L 150.818609 249.781224 
L 151.414232 252 
L 152.009856 250.890612 
L 152.605479 247.562449 
L 153.201103 250.890612 
L 153.796727 252 
L 154.987974 249.781224 
L 155.583597 249.781224 
L 156.179221 252 
L 157.966091 252 
L 158.561715 250.890612 
L 159.157339 252 
L 159.752962 249.781224 
L 160.348586 252 
L 160.944209 249.781224 
L 161.539833 248.671837 
L 162.135456 252 
L 165.113574 252 
L 165.709198 250.890612 
L 166.304821 250.890612 
L 166.900445 252 
L 167.496068 252 
L 168.687315 249.781224 
L 169.282939 247.562449 
L 169.878563 249.781224 
L 170.474186 250.890612 
L 172.261057 244.234286 
L 172.85668 239.796735 
L 173.452304 242.01551 
L 174.047927 243.124898 
L 174.643551 245.343673 
L 175.239175 246.453061 
L 175.834798 242.01551 
L 176.430422 236.468571 
L 177.026045 240.906122 
L 177.621669 239.796735 
L 178.217292 243.124898 
L 178.812916 247.562449 
L 179.408539 248.671837 
L 180.004163 244.234286 
L 180.599787 247.562449 
L 181.791034 249.781224 
L 182.386657 248.671837 
L 182.982281 248.671837 
L 183.577904 250.890612 
L 184.173528 252 
L 184.769151 250.890612 
L 185.364775 252 
L 185.960399 252 
L 186.556022 249.781224 
L 187.151646 248.671837 
L 187.747269 248.671837 
L 188.342893 246.453061 
L 188.938516 247.562449 
L 189.53414 245.343673 
L 190.129763 249.781224 
L 190.725387 230.921633 
L 191.32101 226.484082 
L 191.916634 219.827755 
L 192.512258 218.718367 
L 193.107881 229.812245 
L 193.703505 207.62449 
L 194.299128 206.515102 
L 194.894752 207.62449 
L 195.490375 227.593469 
L 196.085999 198.749388 
L 196.681622 198.749388 
L 197.277246 196.530612 
L 197.87287 198.749388 
L 198.468493 212.062041 
L 199.064117 198.749388 
L 199.65974 203.186939 
L 200.255364 214.280816 
L 200.850987 208.733878 
L 202.042234 192.093061 
L 202.637858 197.64 
L 203.233482 178.780408 
L 203.829105 178.780408 
L 204.424729 180.999184 
L 205.020352 167.686531 
L 205.615976 34.56 
L 206.211599 179.889796 
L 206.807223 188.764898 
L 207.402846 200.968163 
L 207.99847 203.186939 
L 208.594094 228.702857 
L 209.189717 235.359184 
L 209.785341 246.453061 
L 210.380964 245.343673 
L 210.976588 246.453061 
L 211.572211 250.890612 
L 212.167835 252 
L 212.763458 250.890612 
L 213.359082 252 
L 213.954706 252 
L 214.550329 250.890612 
L 215.145953 252 
L 217.528447 252 
L 218.12407 250.890612 
L 218.719694 250.890612 
L 219.315318 252 
L 219.910941 250.890612 
L 220.506565 252 
L 221.102188 250.890612 
L 222.293435 250.890612 
L 222.889059 252 
L 223.484682 250.890612 
L 224.080306 252 
L 226.4628 252 
L 227.058424 250.890612 
L 227.654047 252 
L 228.249671 252 
L 228.845294 249.781224 
L 229.440918 250.890612 
L 230.036542 250.890612 
L 230.632165 249.781224 
L 231.227789 252 
L 231.823412 250.890612 
L 232.419036 252 
L 233.014659 249.781224 
L 233.610283 252 
L 234.205906 250.890612 
L 235.397154 250.890612 
L 235.992777 249.781224 
L 236.588401 252 
L 237.184024 252 
L 237.779648 250.890612 
L 238.375271 252 
L 238.970895 249.781224 
L 240.162142 252 
L 240.757766 252 
L 241.353389 250.890612 
L 241.949013 252 
L 243.735883 252 
L 244.331507 249.781224 
L 245.522754 252 
L 246.118378 250.890612 
L 246.714001 252 
L 249.692119 252 
L 250.287742 250.890612 
L 250.883366 252 
L 251.47899 250.890612 
L 252.074613 252 
L 253.26586 252 
L 253.861484 249.781224 
L 255.052731 252 
L 255.648354 252 
L 256.243978 249.781224 
L 256.839601 252 
L 257.435225 250.890612 
L 258.030849 252 
L 258.626472 249.781224 
L 259.222096 252 
L 259.817719 250.890612 
L 260.413343 250.890612 
L 261.008966 252 
L 261.60459 250.890612 
L 262.200213 250.890612 
L 262.795837 249.781224 
L 263.391461 252 
L 264.582708 252 
L 265.178331 250.890612 
L 268.156449 250.890612 
L 268.752073 252 
L 270.538943 252 
L 271.134567 250.890612 
L 272.325814 250.890612 
L 272.921437 252 
L 273.517061 252 
L 274.112685 250.890612 
L 274.708308 252 
L 275.303932 250.890612 
L 275.899555 252 
L 277.090802 252 
L 277.686426 250.890612 
L 278.282049 252 
L 278.877673 252 
L 279.473297 249.781224 
L 280.06892 249.781224 
L 280.664544 252 
L 281.260167 250.890612 
L 283.047038 250.890612 
L 283.642661 249.781224 
L 284.238285 252 
L 284.833909 252 
L 285.429532 250.890612 
L 286.025156 252 
L 290.194521 252 
L 290.790144 249.781224 
L 291.385768 252 
L 291.981391 249.781224 
L 292.577015 250.890612 
L 293.172638 249.781224 
L 293.768262 252 
L 294.363885 249.781224 
L 294.959509 252 
L 295.555133 252 
L 296.150756 250.890612 
L 296.74638 250.890612 
L 297.342003 252 
L 297.937627 250.890612 
L 298.53325 252 
L 299.128874 249.781224 
L 300.320121 252 
L 301.511368 249.781224 
L 302.106992 252 
L 302.702615 249.781224 
L 303.298239 252 
L 303.893862 252 
L 305.085109 249.781224 
L 305.680733 250.890612 
L 307.467604 250.890612 
L 308.063227 249.781224 
L 308.658851 250.890612 
L 310.445721 250.890612 
L 311.041345 252 
L 311.636969 250.890612 
L 312.232592 252 
L 312.828216 249.781224 
L 313.423839 252 
L 314.019463 250.890612 
L 315.806333 250.890612 
L 316.401957 252 
L 316.997581 249.781224 
L 317.593204 252 
L 318.188828 252 
L 318.784451 250.890612 
L 319.380075 250.890612 
L 319.975698 252 
L 320.571322 252 
L 321.166945 248.671837 
L 321.762569 252 
L 322.358192 250.890612 
L 322.953816 252 
L 323.54944 248.671837 
L 324.145063 252 
L 324.740687 252 
L 325.33631 250.890612 
L 325.931934 252 
L 326.527557 250.890612 
L 327.123181 250.890612 
L 327.718804 249.781224 
L 328.314428 250.890612 
L 330.696922 250.890612 
L 331.292546 252 
L 331.888169 249.781224 
L 332.483793 250.890612 
L 333.079416 250.890612 
L 333.67504 252 
L 334.270664 250.890612 
L 334.866287 252 
L 336.057534 249.781224 
L 336.653158 252 
L 338.440028 252 
L 339.035652 249.781224 
L 339.631276 252 
L 340.226899 252 
L 340.822523 250.890612 
L 341.418146 252 
L 343.205017 252 
L 343.80064 248.671837 
L 344.396264 250.890612 
L 344.991888 249.781224 
L 345.587511 250.890612 
L 346.183135 248.671837 
L 346.778758 252 
L 347.374382 250.890612 
L 347.970005 252 
L 348.565629 250.890612 
L 349.161252 250.890612 
L 349.756876 252 
L 350.3525 250.890612 
L 350.948123 252 
L 351.543747 252 
L 352.13937 249.781224 
L 353.330617 252 
L 353.926241 252 
L 354.521864 250.890612 
L 355.117488 252 
L 355.713112 252 
L 356.308735 249.781224 
L 357.499982 252 
L 358.095606 250.890612 
L 358.691229 250.890612 
L 359.286853 252 
L 359.882476 249.781224 
L 360.4781 250.890612 
L 361.073724 249.781224 
L 361.669347 252 
L 362.264971 250.890612 
L 362.860594 252 
L 363.456218 250.890612 
L 364.051841 252 
L 365.838712 252 
L 366.434336 250.890612 
L 367.029959 252 
L 367.625583 252 
L 368.221206 250.890612 
L 368.81683 247.562449 
L 369.412453 250.890612 
L 370.008077 252 
L 370.6037 252 
L 371.199324 250.890612 
L 371.794948 252 
L 372.390571 252 
L 373.581818 249.781224 
L 373.581818 249.781224 
" clip-path="url(#p1c211e40b1)" style="fill: none; stroke: #ff7f0e; stroke-width: 1.5; stroke-linecap: square"/>
   </g>
   <g id="line2d_27">
    <path d="M 69.218182 240.166531 
L 69.813805 238.053411 
L 70.409429 238.687347 
L 71.005052 244.39277 
L 71.600676 236.996851 
L 72.1963 242.490962 
L 72.791923 243.970146 
L 73.387547 234.038484 
L 73.98317 241.434402 
L 74.578794 241.857026 
L 75.174417 235.517668 
L 75.770041 238.687347 
L 76.365664 244.181458 
L 76.961288 237.208163 
L 77.556912 243.124898 
L 78.152535 241.434402 
L 78.748159 245.026706 
L 79.343782 241.22309 
L 79.939406 241.22309 
L 80.535029 242.702274 
L 81.130653 232.5593 
L 81.726276 242.490962 
L 82.3219 236.362915 
L 82.917524 240.377843 
L 83.513147 241.857026 
L 84.108771 244.604082 
L 84.704394 234.67242 
L 85.300018 242.068338 
L 85.895641 241.857026 
L 86.491265 239.743907 
L 87.086888 242.068338 
L 87.682512 243.124898 
L 88.278136 241.011778 
L 88.873759 236.362915 
L 89.469383 240.166531 
L 90.065006 236.785539 
L 90.66063 241.011778 
L 91.256253 238.476035 
L 91.851877 237.208163 
L 92.4475 241.857026 
L 93.043124 244.39277 
L 93.638748 247.773761 
L 94.234371 233.193236 
L 94.829995 230.446181 
L 95.425618 242.702274 
L 96.021242 245.026706 
L 96.616865 245.026706 
L 97.212489 243.547522 
L 97.808112 245.026706 
L 98.403736 243.547522 
L 98.99936 238.687347 
L 99.594983 240.377843 
L 100.190607 228.121749 
L 100.78623 245.871953 
L 101.381854 242.702274 
L 101.977477 229.389621 
L 102.573101 243.33621 
L 103.168724 242.913586 
L 103.764348 236.574227 
L 104.359972 247.351137 
L 104.955595 244.604082 
L 105.551219 239.109971 
L 106.146842 245.660641 
L 106.742466 243.547522 
L 107.338089 244.181458 
L 107.933713 237.630787 
L 108.529336 238.053411 
L 109.12496 242.068338 
L 109.720584 245.238017 
L 110.316207 236.785539 
L 110.911831 240.377843 
L 111.507454 248.407697 
L 112.103078 247.985073 
L 112.698701 240.166531 
L 113.294325 246.294577 
L 113.889948 241.857026 
L 114.485572 242.913586 
L 115.081196 235.940292 
L 115.676819 246.717201 
L 116.272443 241.434402 
L 116.868066 241.857026 
L 117.46369 242.913586 
L 118.059313 236.785539 
L 118.654937 241.22309 
L 119.25056 240.800466 
L 119.846184 238.898659 
L 120.441808 242.27965 
L 121.037431 241.645714 
L 121.633055 239.532595 
L 122.228678 238.687347 
L 122.824302 251.577376 
L 123.419925 234.249796 
L 124.015549 246.717201 
L 124.611172 240.377843 
L 125.206796 240.589155 
L 125.802419 245.871953 
L 126.398043 241.22309 
L 126.993667 240.166531 
L 127.58929 246.294577 
L 128.184914 238.264723 
L 128.780537 238.687347 
L 129.376161 236.362915 
L 129.971784 240.589155 
L 130.567408 239.955219 
L 131.758655 235.095044 
L 132.354279 235.306356 
L 132.949902 239.955219 
L 133.545526 243.124898 
L 134.141149 236.151603 
L 134.736773 239.321283 
L 135.92802 242.702274 
L 136.523643 243.547522 
L 137.119267 243.33621 
L 137.714891 245.660641 
L 138.310514 241.434402 
L 138.906138 236.362915 
L 139.501761 241.011778 
L 140.097385 249.041633 
L 140.693008 247.351137 
L 141.288632 244.815394 
L 141.884255 240.377843 
L 142.479879 240.589155 
L 143.075503 241.645714 
L 143.671126 241.434402 
L 144.26675 241.857026 
L 144.862373 234.249796 
L 145.457997 241.22309 
L 146.05362 234.038484 
L 146.649244 237.842099 
L 147.244867 247.351137 
L 147.840491 238.898659 
L 148.436115 247.985073 
L 149.031738 236.574227 
L 149.627362 228.966997 
L 150.222985 241.857026 
L 150.818609 234.461108 
L 151.414232 240.377843 
L 152.009856 240.377843 
L 152.605479 235.517668 
L 153.201103 237.630787 
L 153.796727 248.407697 
L 154.39235 245.026706 
L 154.987974 235.72898 
L 155.583597 236.362915 
L 156.179221 242.068338 
L 156.774844 246.505889 
L 157.370468 240.166531 
L 157.966091 242.27965 
L 158.561715 245.871953 
L 159.157339 241.645714 
L 159.752962 241.011778 
L 160.348586 242.702274 
L 160.944209 237.419475 
L 161.539833 245.871953 
L 162.135456 241.22309 
L 162.73108 242.702274 
L 163.326703 250.520816 
L 163.922327 243.33621 
L 164.517951 242.913586 
L 165.113574 246.717201 
L 166.304821 232.770612 
L 166.900445 235.095044 
L 167.496068 238.476035 
L 168.091692 232.136676 
L 168.687315 241.857026 
L 169.282939 240.166531 
L 169.878563 242.913586 
L 170.474186 233.404548 
L 171.06981 242.490962 
L 171.665433 234.67242 
L 172.261057 244.815394 
L 172.85668 243.33621 
L 173.452304 242.702274 
L 174.047927 243.758834 
L 174.643551 236.785539 
L 175.239175 244.815394 
L 175.834798 245.660641 
L 176.430422 239.109971 
L 177.026045 247.985073 
L 177.621669 239.743907 
L 178.217292 243.124898 
L 178.812916 244.604082 
L 179.408539 242.913586 
L 180.004163 241.857026 
L 180.599787 242.490962 
L 181.19541 237.842099 
L 181.791034 238.898659 
L 182.386657 242.490962 
L 182.982281 239.955219 
L 183.577904 240.800466 
L 184.173528 236.996851 
L 184.769151 238.687347 
L 185.364775 234.038484 
L 185.960399 245.871953 
L 186.556022 246.505889 
L 187.151646 236.785539 
L 187.747269 233.827172 
L 188.342893 237.630787 
L 188.938516 237.842099 
L 189.53414 250.732128 
L 190.129763 239.109971 
L 190.725387 232.136676 
L 191.32101 244.181458 
L 191.916634 238.898659 
L 193.107881 244.181458 
L 193.703505 243.124898 
L 194.299128 245.238017 
L 194.894752 240.589155 
L 195.490375 233.61586 
L 196.681622 241.857026 
L 197.277246 238.687347 
L 197.87287 243.33621 
L 198.468493 243.33621 
L 199.064117 245.660641 
L 199.65974 241.857026 
L 200.255364 244.181458 
L 200.850987 241.645714 
L 201.446611 242.913586 
L 202.042234 241.857026 
L 202.637858 241.645714 
L 203.829105 233.404548 
L 204.424729 231.502741 
L 205.020352 231.714052 
L 205.615976 236.574227 
L 206.211599 230.234869 
L 206.807223 230.023557 
L 207.402846 230.023557 
L 207.99847 228.966997 
L 208.594094 224.740758 
L 209.189717 231.925364 
L 209.785341 226.642566 
L 210.380964 233.827172 
L 210.976588 237.419475 
L 211.572211 225.374694 
L 212.167835 232.347988 
L 212.763458 229.178309 
L 213.359082 245.660641 
L 213.954706 234.67242 
L 214.550329 238.264723 
L 215.145953 245.449329 
L 215.741576 239.321283 
L 216.3372 240.800466 
L 216.932823 240.800466 
L 217.528447 242.490962 
L 218.12407 242.27965 
L 218.719694 241.22309 
L 219.315318 241.22309 
L 219.910941 238.687347 
L 220.506565 238.687347 
L 221.102188 227.910437 
L 221.697812 242.913586 
L 222.293435 232.770612 
L 222.889059 225.797318 
L 223.484682 222.205015 
L 224.080306 219.457959 
L 224.67593 220.725831 
L 225.271553 214.809096 
L 225.867177 212.062041 
L 226.4628 205.51137 
L 227.058424 195.157085 
L 227.654047 203.820875 
L 228.249671 184.802799 
L 228.845294 180.57656 
L 229.440918 190.719534 
L 230.036542 191.142157 
L 230.632165 191.142157 
L 231.227789 187.549854 
L 232.419036 198.749388 
L 233.014659 193.255277 
L 233.610283 191.564781 
L 234.205906 191.987405 
L 234.80153 186.281983 
L 235.397154 185.225423 
L 235.992777 181.63312 
L 236.588401 176.561633 
L 237.184024 169.79965 
L 237.779648 149.725015 
L 238.375271 34.56 
L 238.970895 171.067522 
L 239.566518 176.984257 
L 240.162142 196.424956 
L 240.757766 204.877434 
L 241.353389 211.216793 
L 241.949013 212.484665 
L 243.14026 227.487813 
L 243.735883 237.419475 
L 244.331507 233.193236 
L 246.118378 241.011778 
L 246.714001 237.842099 
L 247.309625 243.124898 
L 247.905248 240.377843 
L 248.500872 241.22309 
L 249.096495 240.166531 
L 249.692119 242.068338 
L 250.287742 247.351137 
L 250.883366 238.687347 
L 251.47899 242.490962 
L 252.074613 235.517668 
L 252.670237 249.675569 
L 253.26586 246.717201 
L 253.861484 240.166531 
L 254.457107 245.449329 
L 255.052731 246.505889 
L 255.648354 242.068338 
L 256.243978 241.22309 
L 256.839601 241.22309 
L 257.435225 236.785539 
L 258.030849 248.407697 
L 258.626472 241.22309 
L 259.222096 242.702274 
L 259.817719 242.490962 
L 260.413343 240.589155 
L 261.008966 240.589155 
L 261.60459 244.815394 
L 262.795837 238.687347 
L 263.987084 241.011778 
L 264.582708 237.419475 
L 265.178331 243.547522 
L 265.773955 243.758834 
L 266.369578 241.857026 
L 266.965202 234.461108 
L 267.560825 243.547522 
L 268.156449 240.589155 
L 268.752073 245.238017 
L 269.347696 241.22309 
L 269.94332 239.109971 
L 270.538943 242.702274 
L 271.134567 238.053411 
L 271.73019 238.476035 
L 272.921437 242.068338 
L 273.517061 242.702274 
L 274.112685 240.377843 
L 274.708308 236.785539 
L 275.303932 239.109971 
L 275.899555 234.249796 
L 276.495179 242.490962 
L 277.090802 231.502741 
L 277.686426 237.630787 
L 278.282049 240.166531 
L 278.877673 233.404548 
L 279.473297 243.124898 
L 280.06892 238.687347 
L 280.664544 238.053411 
L 281.260167 243.758834 
L 281.855791 243.124898 
L 282.451414 239.321283 
L 283.047038 237.842099 
L 283.642661 243.970146 
L 284.238285 238.898659 
L 284.833909 235.306356 
L 285.429532 238.053411 
L 286.025156 239.321283 
L 286.620779 245.871953 
L 287.216403 236.362915 
L 287.812026 240.589155 
L 288.40765 236.996851 
L 289.003273 239.955219 
L 290.194521 232.770612 
L 291.385768 245.660641 
L 291.981391 250.098192 
L 292.577015 243.124898 
L 293.172638 243.33621 
L 293.768262 239.321283 
L 294.363885 238.687347 
L 294.959509 238.476035 
L 295.555133 235.306356 
L 296.150756 233.827172 
L 296.74638 240.166531 
L 297.342003 239.321283 
L 297.937627 239.109971 
L 298.53325 241.857026 
L 299.128874 239.321283 
L 299.724497 240.800466 
L 300.320121 242.913586 
L 300.915745 242.068338 
L 301.511368 239.532595 
L 302.106992 243.758834 
L 302.702615 249.041633 
L 303.298239 238.898659 
L 303.893862 247.139825 
L 304.489486 241.645714 
L 305.085109 237.630787 
L 305.680733 249.041633 
L 306.87198 241.857026 
L 307.467604 241.011778 
L 308.063227 246.717201 
L 308.658851 235.72898 
L 309.254474 242.702274 
L 309.850098 240.377843 
L 310.445721 245.026706 
L 311.041345 241.011778 
L 311.636969 238.053411 
L 312.232592 237.208163 
L 312.828216 242.27965 
L 313.423839 249.041633 
L 314.019463 248.830321 
L 315.21071 236.996851 
L 315.806333 243.33621 
L 316.401957 232.347988 
L 316.997581 237.208163 
L 317.593204 238.264723 
L 318.188828 236.574227 
L 318.784451 240.377843 
L 319.380075 232.981924 
L 319.975698 243.547522 
L 320.571322 240.589155 
L 321.166945 236.362915 
L 321.762569 241.434402 
L 322.358192 242.702274 
L 322.953816 242.490962 
L 323.54944 241.434402 
L 324.145063 241.22309 
L 324.740687 238.053411 
L 325.33631 243.547522 
L 325.931934 237.208163 
L 326.527557 240.166531 
L 327.123181 238.898659 
L 327.718804 250.520816 
L 328.314428 236.574227 
L 328.910052 229.178309 
L 329.505675 246.083265 
L 330.101299 232.770612 
L 330.696922 244.815394 
L 331.292546 242.913586 
L 331.888169 239.532595 
L 332.483793 243.124898 
L 333.079416 250.732128 
L 333.67504 238.898659 
L 334.270664 237.419475 
L 335.461911 250.309504 
L 336.057534 236.996851 
L 336.653158 234.038484 
L 337.248781 240.800466 
L 337.844405 240.800466 
L 338.440028 234.038484 
L 339.035652 239.109971 
L 339.631276 245.660641 
L 340.226899 236.151603 
L 340.822523 245.660641 
L 341.418146 245.026706 
L 342.01377 239.955219 
L 342.609393 238.898659 
L 343.205017 239.321283 
L 343.80064 243.547522 
L 344.396264 243.124898 
L 344.991888 234.883732 
L 345.587511 235.095044 
L 346.183135 234.67242 
L 346.778758 249.675569 
L 347.374382 235.517668 
L 347.970005 237.208163 
L 348.565629 234.883732 
L 349.161252 236.785539 
L 349.756876 250.098192 
L 350.3525 236.574227 
L 350.948123 231.291429 
L 351.543747 246.928513 
L 352.13937 233.827172 
L 352.734994 250.732128 
L 353.330617 241.857026 
L 353.926241 245.871953 
L 354.521864 238.898659 
L 355.117488 242.068338 
L 355.713112 245.871953 
L 356.308735 240.800466 
L 356.904359 234.038484 
L 357.499982 239.743907 
L 358.095606 240.800466 
L 358.691229 238.476035 
L 359.286853 248.619009 
L 359.882476 237.419475 
L 360.4781 239.109971 
L 361.073724 241.434402 
L 361.669347 236.362915 
L 362.264971 236.574227 
L 362.860594 236.362915 
L 363.456218 241.645714 
L 364.051841 243.33621 
L 364.647465 252 
L 365.243088 241.645714 
L 365.838712 243.33621 
L 366.434336 241.22309 
L 367.029959 237.419475 
L 367.625583 238.898659 
L 368.221206 243.124898 
L 368.81683 241.011778 
L 369.412453 238.476035 
L 370.008077 243.33621 
L 370.6037 237.208163 
L 371.199324 237.208163 
L 371.794948 241.011778 
L 372.390571 230.657493 
L 372.986195 246.928513 
L 373.581818 240.589155 
L 373.581818 240.589155 
" clip-path="url(#p1c211e40b1)" style="fill: none; stroke: #2ca02c; stroke-width: 1.5; stroke-linecap: square"/>
   </g>
   <g id="patch_3">
    <path d="M 54 252 
L 54 34.56 
" style="fill: none; stroke: #000000; stroke-width: 0.8; stroke-linejoin: miter; stroke-linecap: square"/>
   </g>
   <g id="patch_4">
    <path d="M 388.8 252 
L 388.8 34.56 
" style="fill: none; stroke: #000000; stroke-width: 0.8; stroke-linejoin: miter; stroke-linecap: square"/>
   </g>
   <g id="patch_5">
    <path d="M 54 252 
L 388.8 252 
" style="fill: none; stroke: #000000; stroke-width: 0.8; stroke-linejoin: miter; stroke-linecap: square"/>
   </g>
   <g id="patch_6">
    <path d="M 54 34.56 
L 388.8 34.56 
" style="fill: none; stroke: #000000; stroke-width: 0.8; stroke-linejoin: miter; stroke-linecap: square"/>
   </g>
   <g id="text_15">
    <!-- Label 9 normalized -->
    <g transform="translate(164.240625 28.56)scale(0.12 -0.12)">
     <defs>
      <path id="DejaVuSans-4c" d="M 628 4666 
L 1259 4666 
L 1259 531 
L 3531 531 
L 3531 0 
L 628 0 
L 628 4666 
z
" transform="scale(0.015625)"/>
      <path id="DejaVuSans-61" d="M 2194 1759 
Q 1497 1759 1228 1600 
Q 959 1441 959 1056 
Q 959 750 1161 570 
Q 1363 391 1709 391 
Q 2188 391 2477 730 
Q 2766 1069 2766 1631 
L 2766 1759 
L 2194 1759 
z
M 3341 1997 
L 3341 0 
L 2766 0 
L 2766 531 
Q 2569 213 2275 61 
Q 1981 -91 1556 -91 
Q 1019 -91 701 211 
Q 384 513 384 1019 
Q 384 1609 779 1909 
Q 1175 2209 1959 2209 
L 2766 2209 
L 2766 2266 
Q 2766 2663 2505 2880 
Q 2244 3097 1772 3097 
Q 1472 3097 1187 3025 
Q 903 2953 641 2809 
L 641 3341 
Q 956 3463 1253 3523 
Q 1550 3584 1831 3584 
Q 2591 3584 2966 3190 
Q 3341 2797 3341 1997 
z
" transform="scale(0.015625)"/>
      <path id="DejaVuSans-65" d="M 3597 1894 
L 3597 1613 
L 953 1613 
Q 991 1019 1311 708 
Q 1631 397 2203 397 
Q 2534 397 2845 478 
Q 3156 559 3463 722 
L 3463 178 
Q 3153 47 2828 -22 
Q 2503 -91 2169 -91 
Q 1331 -91 842 396 
Q 353 884 353 1716 
Q 353 2575 817 3079 
Q 1281 3584 2069 3584 
Q 2775 3584 3186 3129 
Q 3597 2675 3597 1894 
z
M 3022 2063 
Q 3016 2534 2758 2815 
Q 2500 3097 2075 3097 
Q 1594 3097 1305 2825 
Q 1016 2553 972 2059 
L 3022 2063 
z
" transform="scale(0.015625)"/>
      <path id="DejaVuSans-6c" d="M 603 4863 
L 1178 4863 
L 1178 0 
L 603 0 
L 603 4863 
z
" transform="scale(0.015625)"/>
      <path id="DejaVuSans-20" transform="scale(0.015625)"/>
      <path id="DejaVuSans-39" d="M 703 97 
L 703 672 
Q 941 559 1184 500 
Q 1428 441 1663 441 
Q 2288 441 2617 861 
Q 2947 1281 2994 2138 
Q 2813 1869 2534 1725 
Q 2256 1581 1919 1581 
Q 1219 1581 811 2004 
Q 403 2428 403 3163 
Q 403 3881 828 4315 
Q 1253 4750 1959 4750 
Q 2769 4750 3195 4129 
Q 3622 3509 3622 2328 
Q 3622 1225 3098 567 
Q 2575 -91 1691 -91 
Q 1453 -91 1209 -44 
Q 966 3 703 97 
z
M 1959 2075 
Q 2384 2075 2632 2365 
Q 2881 2656 2881 3163 
Q 2881 3666 2632 3958 
Q 2384 4250 1959 4250 
Q 1534 4250 1286 3958 
Q 1038 3666 1038 3163 
Q 1038 2656 1286 2365 
Q 1534 2075 1959 2075 
z
" transform="scale(0.015625)"/>
      <path id="DejaVuSans-72" d="M 2631 2963 
Q 2534 3019 2420 3045 
Q 2306 3072 2169 3072 
Q 1681 3072 1420 2755 
Q 1159 2438 1159 1844 
L 1159 0 
L 581 0 
L 581 3500 
L 1159 3500 
L 1159 2956 
Q 1341 3275 1631 3429 
Q 1922 3584 2338 3584 
Q 2397 3584 2469 3576 
Q 2541 3569 2628 3553 
L 2631 2963 
z
" transform="scale(0.015625)"/>
      <path id="DejaVuSans-6d" d="M 3328 2828 
Q 3544 3216 3844 3400 
Q 4144 3584 4550 3584 
Q 5097 3584 5394 3201 
Q 5691 2819 5691 2113 
L 5691 0 
L 5113 0 
L 5113 2094 
Q 5113 2597 4934 2840 
Q 4756 3084 4391 3084 
Q 3944 3084 3684 2787 
Q 3425 2491 3425 1978 
L 3425 0 
L 2847 0 
L 2847 2094 
Q 2847 2600 2669 2842 
Q 2491 3084 2119 3084 
Q 1678 3084 1418 2786 
Q 1159 2488 1159 1978 
L 1159 0 
L 581 0 
L 581 3500 
L 1159 3500 
L 1159 2956 
Q 1356 3278 1631 3431 
Q 1906 3584 2284 3584 
Q 2666 3584 2933 3390 
Q 3200 3197 3328 2828 
z
" transform="scale(0.015625)"/>
      <path id="DejaVuSans-7a" d="M 353 3500 
L 3084 3500 
L 3084 2975 
L 922 459 
L 3084 459 
L 3084 0 
L 275 0 
L 275 525 
L 2438 3041 
L 353 3041 
L 353 3500 
z
" transform="scale(0.015625)"/>
      <path id="DejaVuSans-64" d="M 2906 2969 
L 2906 4863 
L 3481 4863 
L 3481 0 
L 2906 0 
L 2906 525 
Q 2725 213 2448 61 
Q 2172 -91 1784 -91 
Q 1150 -91 751 415 
Q 353 922 353 1747 
Q 353 2572 751 3078 
Q 1150 3584 1784 3584 
Q 2172 3584 2448 3432 
Q 2725 3281 2906 2969 
z
M 947 1747 
Q 947 1113 1208 752 
Q 1469 391 1925 391 
Q 2381 391 2643 752 
Q 2906 1113 2906 1747 
Q 2906 2381 2643 2742 
Q 2381 3103 1925 3103 
Q 1469 3103 1208 2742 
Q 947 2381 947 1747 
z
" transform="scale(0.015625)"/>
     </defs>
     <use xlink:href="#DejaVuSans-4c"/>
     <use xlink:href="#DejaVuSans-61" x="55.712891"/>
     <use xlink:href="#DejaVuSans-62" x="116.992188"/>
     <use xlink:href="#DejaVuSans-65" x="180.46875"/>
     <use xlink:href="#DejaVuSans-6c" x="241.992188"/>
     <use xlink:href="#DejaVuSans-20" x="269.775391"/>
     <use xlink:href="#DejaVuSans-39" x="301.5625"/>
     <use xlink:href="#DejaVuSans-20" x="365.185547"/>
     <use xlink:href="#DejaVuSans-6e" x="396.972656"/>
     <use xlink:href="#DejaVuSans-6f" x="460.351562"/>
     <use xlink:href="#DejaVuSans-72" x="521.533203"/>
     <use xlink:href="#DejaVuSans-6d" x="560.896484"/>
     <use xlink:href="#DejaVuSans-61" x="658.308594"/>
     <use xlink:href="#DejaVuSans-6c" x="719.587891"/>
     <use xlink:href="#DejaVuSans-69" x="747.371094"/>
     <use xlink:href="#DejaVuSans-7a" x="775.154297"/>
     <use xlink:href="#DejaVuSans-65" x="827.644531"/>
     <use xlink:href="#DejaVuSans-64" x="889.167969"/>
    </g>
   </g>
   <g id="legend_1">
    <g id="patch_7">
     <path d="M 309.070312 101.2725 
L 381.8 101.2725 
Q 383.8 101.2725 383.8 99.2725 
L 383.8 41.56 
Q 383.8 39.56 381.8 39.56 
L 309.070312 39.56 
Q 307.070312 39.56 307.070312 41.56 
L 307.070312 99.2725 
Q 307.070312 101.2725 309.070312 101.2725 
z
" style="fill: #ffffff; opacity: 0.8; stroke: #cccccc; stroke-linejoin: miter"/>
    </g>
    <g id="text_16">
     <!-- Trace number -->
     <g transform="translate(311.070312 51.158437)scale(0.1 -0.1)">
      <defs>
       <path id="DejaVuSans-54" d="M -19 4666 
L 3928 4666 
L 3928 4134 
L 2272 4134 
L 2272 0 
L 1638 0 
L 1638 4134 
L -19 4134 
L -19 4666 
z
" transform="scale(0.015625)"/>
      </defs>
      <use xlink:href="#DejaVuSans-54"/>
      <use xlink:href="#DejaVuSans-72" x="46.333984"/>
      <use xlink:href="#DejaVuSans-61" x="87.447266"/>
      <use xlink:href="#DejaVuSans-63" x="148.726562"/>
      <use xlink:href="#DejaVuSans-65" x="203.707031"/>
      <use xlink:href="#DejaVuSans-20" x="265.230469"/>
      <use xlink:href="#DejaVuSans-6e" x="297.017578"/>
      <use xlink:href="#DejaVuSans-75" x="360.396484"/>
      <use xlink:href="#DejaVuSans-6d" x="423.775391"/>
      <use xlink:href="#DejaVuSans-62" x="521.1875"/>
      <use xlink:href="#DejaVuSans-65" x="584.664062"/>
      <use xlink:href="#DejaVuSans-72" x="646.1875"/>
     </g>
    </g>
    <g id="line2d_28">
     <path d="M 321.891406 62.336562 
L 331.891406 62.336562 
L 341.891406 62.336562 
" style="fill: none; stroke: #1f77b4; stroke-width: 1.5; stroke-linecap: square"/>
    </g>
    <g id="text_17">
     <!-- 8 -->
     <g transform="translate(349.891406 65.836562)scale(0.1 -0.1)">
      <use xlink:href="#DejaVuSans-38"/>
     </g>
    </g>
    <g id="line2d_29">
     <path d="M 321.891406 77.014687 
L 331.891406 77.014687 
L 341.891406 77.014687 
" style="fill: none; stroke: #ff7f0e; stroke-width: 1.5; stroke-linecap: square"/>
    </g>
    <g id="text_18">
     <!-- 31 -->
     <g transform="translate(349.891406 80.514687)scale(0.1 -0.1)">
      <use xlink:href="#DejaVuSans-33"/>
      <use xlink:href="#DejaVuSans-31" x="63.623047"/>
     </g>
    </g>
    <g id="line2d_30">
     <path d="M 321.891406 91.692813 
L 331.891406 91.692813 
L 341.891406 91.692813 
" style="fill: none; stroke: #2ca02c; stroke-width: 1.5; stroke-linecap: square"/>
    </g>
    <g id="text_19">
     <!-- 101 -->
     <g transform="translate(349.891406 95.192813)scale(0.1 -0.1)">
      <use xlink:href="#DejaVuSans-31"/>
      <use xlink:href="#DejaVuSans-30" x="63.623047"/>
      <use xlink:href="#DejaVuSans-31" x="127.246094"/>
     </g>
    </g>
   </g>
  </g>
 </g>
 <defs>
  <clipPath id="p1c211e40b1">
   <rect x="54" y="34.56" width="334.8" height="217.44"/>
  </clipPath>
 </defs>
</svg>
