<?xml version="1.0" encoding="utf-8" standalone="no"?>
<!DOCTYPE svg PUBLIC "-//W3C//DTD SVG 1.1//EN"
  "http://www.w3.org/Graphics/SVG/1.1/DTD/svg11.dtd">
<svg xmlns:xlink="http://www.w3.org/1999/xlink" width="432pt" height="288pt" viewBox="0 0 432 288" xmlns="http://www.w3.org/2000/svg" version="1.1">
 <metadata>
  <rdf:RDF xmlns:dc="http://purl.org/dc/elements/1.1/" xmlns:cc="http://creativecommons.org/ns#" xmlns:rdf="http://www.w3.org/1999/02/22-rdf-syntax-ns#">
   <cc:Work>
    <dc:type rdf:resource="http://purl.org/dc/dcmitype/StillImage"/>
    <dc:date>2022-03-30T13:16:45.814592</dc:date>
    <dc:format>image/svg+xml</dc:format>
    <dc:creator>
     <cc:Agent>
      <dc:title>Matplotlib v3.5.1, https://matplotlib.org/</dc:title>
     </cc:Agent>
    </dc:creator>
   </cc:Work>
  </rdf:RDF>
 </metadata>
 <defs>
  <style type="text/css">*{stroke-linejoin: round; stroke-linecap: butt}</style>
 </defs>
 <g id="figure_1">
  <g id="patch_1">
   <path d="M 0 288 
L 432 288 
L 432 0 
L 0 0 
z
" style="fill: #ffffff"/>
  </g>
  <g id="axes_1">
   <g id="patch_2">
    <path d="M 54 252 
L 388.8 252 
L 388.8 34.56 
L 54 34.56 
z
" style="fill: #ffffff"/>
   </g>
   <g id="matplotlib.axis_1">
    <g id="xtick_1">
     <g id="line2d_1">
      <path d="M 69.218182 252 
L 69.218182 34.56 
" clip-path="url(#pce5315315b)" style="fill: none; stroke: #b0b0b0; stroke-width: 0.8; stroke-linecap: square"/>
     </g>
     <g id="line2d_2">
      <defs>
       <path id="m1996c126cf" d="M 0 0 
L 0 3.5 
" style="stroke: #000000; stroke-width: 0.8"/>
      </defs>
      <g>
       <use xlink:href="#m1996c126cf" x="69.218182" y="252" style="stroke: #000000; stroke-width: 0.8"/>
      </g>
     </g>
     <g id="text_1">
      <!-- 0 -->
      <g transform="translate(66.036932 266.598437)scale(0.1 -0.1)">
       <defs>
        <path id="DejaVuSans-30" d="M 2034 4250 
Q 1547 4250 1301 3770 
Q 1056 3291 1056 2328 
Q 1056 1369 1301 889 
Q 1547 409 2034 409 
Q 2525 409 2770 889 
Q 3016 1369 3016 2328 
Q 3016 3291 2770 3770 
Q 2525 4250 2034 4250 
z
M 2034 4750 
Q 2819 4750 3233 4129 
Q 3647 3509 3647 2328 
Q 3647 1150 3233 529 
Q 2819 -91 2034 -91 
Q 1250 -91 836 529 
Q 422 1150 422 2328 
Q 422 3509 836 4129 
Q 1250 4750 2034 4750 
z
" transform="scale(0.015625)"/>
       </defs>
       <use xlink:href="#DejaVuSans-30"/>
      </g>
     </g>
    </g>
    <g id="xtick_2">
     <g id="line2d_3">
      <path d="M 128.780537 252 
L 128.780537 34.56 
" clip-path="url(#pce5315315b)" style="fill: none; stroke: #b0b0b0; stroke-width: 0.8; stroke-linecap: square"/>
     </g>
     <g id="line2d_4">
      <g>
       <use xlink:href="#m1996c126cf" x="128.780537" y="252" style="stroke: #000000; stroke-width: 0.8"/>
      </g>
     </g>
     <g id="text_2">
      <!-- 100 -->
      <g transform="translate(119.236787 266.598437)scale(0.1 -0.1)">
       <defs>
        <path id="DejaVuSans-31" d="M 794 531 
L 1825 531 
L 1825 4091 
L 703 3866 
L 703 4441 
L 1819 4666 
L 2450 4666 
L 2450 531 
L 3481 531 
L 3481 0 
L 794 0 
L 794 531 
z
" transform="scale(0.015625)"/>
       </defs>
       <use xlink:href="#DejaVuSans-31"/>
       <use xlink:href="#DejaVuSans-30" x="63.623047"/>
       <use xlink:href="#DejaVuSans-30" x="127.246094"/>
      </g>
     </g>
    </g>
    <g id="xtick_3">
     <g id="line2d_5">
      <path d="M 188.342893 252 
L 188.342893 34.56 
" clip-path="url(#pce5315315b)" style="fill: none; stroke: #b0b0b0; stroke-width: 0.8; stroke-linecap: square"/>
     </g>
     <g id="line2d_6">
      <g>
       <use xlink:href="#m1996c126cf" x="188.342893" y="252" style="stroke: #000000; stroke-width: 0.8"/>
      </g>
     </g>
     <g id="text_3">
      <!-- 200 -->
      <g transform="translate(178.799143 266.598437)scale(0.1 -0.1)">
       <defs>
        <path id="DejaVuSans-32" d="M 1228 531 
L 3431 531 
L 3431 0 
L 469 0 
L 469 531 
Q 828 903 1448 1529 
Q 2069 2156 2228 2338 
Q 2531 2678 2651 2914 
Q 2772 3150 2772 3378 
Q 2772 3750 2511 3984 
Q 2250 4219 1831 4219 
Q 1534 4219 1204 4116 
Q 875 4013 500 3803 
L 500 4441 
Q 881 4594 1212 4672 
Q 1544 4750 1819 4750 
Q 2544 4750 2975 4387 
Q 3406 4025 3406 3419 
Q 3406 3131 3298 2873 
Q 3191 2616 2906 2266 
Q 2828 2175 2409 1742 
Q 1991 1309 1228 531 
z
" transform="scale(0.015625)"/>
       </defs>
       <use xlink:href="#DejaVuSans-32"/>
       <use xlink:href="#DejaVuSans-30" x="63.623047"/>
       <use xlink:href="#DejaVuSans-30" x="127.246094"/>
      </g>
     </g>
    </g>
    <g id="xtick_4">
     <g id="line2d_7">
      <path d="M 247.905248 252 
L 247.905248 34.56 
" clip-path="url(#pce5315315b)" style="fill: none; stroke: #b0b0b0; stroke-width: 0.8; stroke-linecap: square"/>
     </g>
     <g id="line2d_8">
      <g>
       <use xlink:href="#m1996c126cf" x="247.905248" y="252" style="stroke: #000000; stroke-width: 0.8"/>
      </g>
     </g>
     <g id="text_4">
      <!-- 300 -->
      <g transform="translate(238.361498 266.598437)scale(0.1 -0.1)">
       <defs>
        <path id="DejaVuSans-33" d="M 2597 2516 
Q 3050 2419 3304 2112 
Q 3559 1806 3559 1356 
Q 3559 666 3084 287 
Q 2609 -91 1734 -91 
Q 1441 -91 1130 -33 
Q 819 25 488 141 
L 488 750 
Q 750 597 1062 519 
Q 1375 441 1716 441 
Q 2309 441 2620 675 
Q 2931 909 2931 1356 
Q 2931 1769 2642 2001 
Q 2353 2234 1838 2234 
L 1294 2234 
L 1294 2753 
L 1863 2753 
Q 2328 2753 2575 2939 
Q 2822 3125 2822 3475 
Q 2822 3834 2567 4026 
Q 2313 4219 1838 4219 
Q 1578 4219 1281 4162 
Q 984 4106 628 3988 
L 628 4550 
Q 988 4650 1302 4700 
Q 1616 4750 1894 4750 
Q 2613 4750 3031 4423 
Q 3450 4097 3450 3541 
Q 3450 3153 3228 2886 
Q 3006 2619 2597 2516 
z
" transform="scale(0.015625)"/>
       </defs>
       <use xlink:href="#DejaVuSans-33"/>
       <use xlink:href="#DejaVuSans-30" x="63.623047"/>
       <use xlink:href="#DejaVuSans-30" x="127.246094"/>
      </g>
     </g>
    </g>
    <g id="xtick_5">
     <g id="line2d_9">
      <path d="M 307.467604 252 
L 307.467604 34.56 
" clip-path="url(#pce5315315b)" style="fill: none; stroke: #b0b0b0; stroke-width: 0.8; stroke-linecap: square"/>
     </g>
     <g id="line2d_10">
      <g>
       <use xlink:href="#m1996c126cf" x="307.467604" y="252" style="stroke: #000000; stroke-width: 0.8"/>
      </g>
     </g>
     <g id="text_5">
      <!-- 400 -->
      <g transform="translate(297.923854 266.598437)scale(0.1 -0.1)">
       <defs>
        <path id="DejaVuSans-34" d="M 2419 4116 
L 825 1625 
L 2419 1625 
L 2419 4116 
z
M 2253 4666 
L 3047 4666 
L 3047 1625 
L 3713 1625 
L 3713 1100 
L 3047 1100 
L 3047 0 
L 2419 0 
L 2419 1100 
L 313 1100 
L 313 1709 
L 2253 4666 
z
" transform="scale(0.015625)"/>
       </defs>
       <use xlink:href="#DejaVuSans-34"/>
       <use xlink:href="#DejaVuSans-30" x="63.623047"/>
       <use xlink:href="#DejaVuSans-30" x="127.246094"/>
      </g>
     </g>
    </g>
    <g id="xtick_6">
     <g id="line2d_11">
      <path d="M 367.029959 252 
L 367.029959 34.56 
" clip-path="url(#pce5315315b)" style="fill: none; stroke: #b0b0b0; stroke-width: 0.8; stroke-linecap: square"/>
     </g>
     <g id="line2d_12">
      <g>
       <use xlink:href="#m1996c126cf" x="367.029959" y="252" style="stroke: #000000; stroke-width: 0.8"/>
      </g>
     </g>
     <g id="text_6">
      <!-- 500 -->
      <g transform="translate(357.486209 266.598437)scale(0.1 -0.1)">
       <defs>
        <path id="DejaVuSans-35" d="M 691 4666 
L 3169 4666 
L 3169 4134 
L 1269 4134 
L 1269 2991 
Q 1406 3038 1543 3061 
Q 1681 3084 1819 3084 
Q 2600 3084 3056 2656 
Q 3513 2228 3513 1497 
Q 3513 744 3044 326 
Q 2575 -91 1722 -91 
Q 1428 -91 1123 -41 
Q 819 9 494 109 
L 494 744 
Q 775 591 1075 516 
Q 1375 441 1709 441 
Q 2250 441 2565 725 
Q 2881 1009 2881 1497 
Q 2881 1984 2565 2268 
Q 2250 2553 1709 2553 
Q 1456 2553 1204 2497 
Q 953 2441 691 2322 
L 691 4666 
z
" transform="scale(0.015625)"/>
       </defs>
       <use xlink:href="#DejaVuSans-35"/>
       <use xlink:href="#DejaVuSans-30" x="63.623047"/>
       <use xlink:href="#DejaVuSans-30" x="127.246094"/>
      </g>
     </g>
    </g>
    <g id="text_7">
     <!-- bin -->
     <g transform="translate(213.667969 280.276563)scale(0.1 -0.1)">
      <defs>
       <path id="DejaVuSans-62" d="M 3116 1747 
Q 3116 2381 2855 2742 
Q 2594 3103 2138 3103 
Q 1681 3103 1420 2742 
Q 1159 2381 1159 1747 
Q 1159 1113 1420 752 
Q 1681 391 2138 391 
Q 2594 391 2855 752 
Q 3116 1113 3116 1747 
z
M 1159 2969 
Q 1341 3281 1617 3432 
Q 1894 3584 2278 3584 
Q 2916 3584 3314 3078 
Q 3713 2572 3713 1747 
Q 3713 922 3314 415 
Q 2916 -91 2278 -91 
Q 1894 -91 1617 61 
Q 1341 213 1159 525 
L 1159 0 
L 581 0 
L 581 4863 
L 1159 4863 
L 1159 2969 
z
" transform="scale(0.015625)"/>
       <path id="DejaVuSans-69" d="M 603 3500 
L 1178 3500 
L 1178 0 
L 603 0 
L 603 3500 
z
M 603 4863 
L 1178 4863 
L 1178 4134 
L 603 4134 
L 603 4863 
z
" transform="scale(0.015625)"/>
       <path id="DejaVuSans-6e" d="M 3513 2113 
L 3513 0 
L 2938 0 
L 2938 2094 
Q 2938 2591 2744 2837 
Q 2550 3084 2163 3084 
Q 1697 3084 1428 2787 
Q 1159 2491 1159 1978 
L 1159 0 
L 581 0 
L 581 3500 
L 1159 3500 
L 1159 2956 
Q 1366 3272 1645 3428 
Q 1925 3584 2291 3584 
Q 2894 3584 3203 3211 
Q 3513 2838 3513 2113 
z
" transform="scale(0.015625)"/>
      </defs>
      <use xlink:href="#DejaVuSans-62"/>
      <use xlink:href="#DejaVuSans-69" x="63.476562"/>
      <use xlink:href="#DejaVuSans-6e" x="91.259766"/>
     </g>
    </g>
   </g>
   <g id="matplotlib.axis_2">
    <g id="ytick_1">
     <g id="line2d_13">
      <path d="M 54 252 
L 388.8 252 
" clip-path="url(#pce5315315b)" style="fill: none; stroke: #b0b0b0; stroke-width: 0.8; stroke-linecap: square"/>
     </g>
     <g id="line2d_14">
      <defs>
       <path id="m3a04a0c43e" d="M 0 0 
L -3.5 0 
" style="stroke: #000000; stroke-width: 0.8"/>
      </defs>
      <g>
       <use xlink:href="#m3a04a0c43e" x="54" y="252" style="stroke: #000000; stroke-width: 0.8"/>
      </g>
     </g>
     <g id="text_8">
      <!-- 0.0 -->
      <g transform="translate(31.096875 255.799219)scale(0.1 -0.1)">
       <defs>
        <path id="DejaVuSans-2e" d="M 684 794 
L 1344 794 
L 1344 0 
L 684 0 
L 684 794 
z
" transform="scale(0.015625)"/>
       </defs>
       <use xlink:href="#DejaVuSans-30"/>
       <use xlink:href="#DejaVuSans-2e" x="63.623047"/>
       <use xlink:href="#DejaVuSans-30" x="95.410156"/>
      </g>
     </g>
    </g>
    <g id="ytick_2">
     <g id="line2d_15">
      <path d="M 54 208.512 
L 388.8 208.512 
" clip-path="url(#pce5315315b)" style="fill: none; stroke: #b0b0b0; stroke-width: 0.8; stroke-linecap: square"/>
     </g>
     <g id="line2d_16">
      <g>
       <use xlink:href="#m3a04a0c43e" x="54" y="208.512" style="stroke: #000000; stroke-width: 0.8"/>
      </g>
     </g>
     <g id="text_9">
      <!-- 0.2 -->
      <g transform="translate(31.096875 212.311219)scale(0.1 -0.1)">
       <use xlink:href="#DejaVuSans-30"/>
       <use xlink:href="#DejaVuSans-2e" x="63.623047"/>
       <use xlink:href="#DejaVuSans-32" x="95.410156"/>
      </g>
     </g>
    </g>
    <g id="ytick_3">
     <g id="line2d_17">
      <path d="M 54 165.024 
L 388.8 165.024 
" clip-path="url(#pce5315315b)" style="fill: none; stroke: #b0b0b0; stroke-width: 0.8; stroke-linecap: square"/>
     </g>
     <g id="line2d_18">
      <g>
       <use xlink:href="#m3a04a0c43e" x="54" y="165.024" style="stroke: #000000; stroke-width: 0.8"/>
      </g>
     </g>
     <g id="text_10">
      <!-- 0.4 -->
      <g transform="translate(31.096875 168.823219)scale(0.1 -0.1)">
       <use xlink:href="#DejaVuSans-30"/>
       <use xlink:href="#DejaVuSans-2e" x="63.623047"/>
       <use xlink:href="#DejaVuSans-34" x="95.410156"/>
      </g>
     </g>
    </g>
    <g id="ytick_4">
     <g id="line2d_19">
      <path d="M 54 121.536 
L 388.8 121.536 
" clip-path="url(#pce5315315b)" style="fill: none; stroke: #b0b0b0; stroke-width: 0.8; stroke-linecap: square"/>
     </g>
     <g id="line2d_20">
      <g>
       <use xlink:href="#m3a04a0c43e" x="54" y="121.536" style="stroke: #000000; stroke-width: 0.8"/>
      </g>
     </g>
     <g id="text_11">
      <!-- 0.6 -->
      <g transform="translate(31.096875 125.335219)scale(0.1 -0.1)">
       <defs>
        <path id="DejaVuSans-36" d="M 2113 2584 
Q 1688 2584 1439 2293 
Q 1191 2003 1191 1497 
Q 1191 994 1439 701 
Q 1688 409 2113 409 
Q 2538 409 2786 701 
Q 3034 994 3034 1497 
Q 3034 2003 2786 2293 
Q 2538 2584 2113 2584 
z
M 3366 4563 
L 3366 3988 
Q 3128 4100 2886 4159 
Q 2644 4219 2406 4219 
Q 1781 4219 1451 3797 
Q 1122 3375 1075 2522 
Q 1259 2794 1537 2939 
Q 1816 3084 2150 3084 
Q 2853 3084 3261 2657 
Q 3669 2231 3669 1497 
Q 3669 778 3244 343 
Q 2819 -91 2113 -91 
Q 1303 -91 875 529 
Q 447 1150 447 2328 
Q 447 3434 972 4092 
Q 1497 4750 2381 4750 
Q 2619 4750 2861 4703 
Q 3103 4656 3366 4563 
z
" transform="scale(0.015625)"/>
       </defs>
       <use xlink:href="#DejaVuSans-30"/>
       <use xlink:href="#DejaVuSans-2e" x="63.623047"/>
       <use xlink:href="#DejaVuSans-36" x="95.410156"/>
      </g>
     </g>
    </g>
    <g id="ytick_5">
     <g id="line2d_21">
      <path d="M 54 78.048 
L 388.8 78.048 
" clip-path="url(#pce5315315b)" style="fill: none; stroke: #b0b0b0; stroke-width: 0.8; stroke-linecap: square"/>
     </g>
     <g id="line2d_22">
      <g>
       <use xlink:href="#m3a04a0c43e" x="54" y="78.048" style="stroke: #000000; stroke-width: 0.8"/>
      </g>
     </g>
     <g id="text_12">
      <!-- 0.8 -->
      <g transform="translate(31.096875 81.847219)scale(0.1 -0.1)">
       <defs>
        <path id="DejaVuSans-38" d="M 2034 2216 
Q 1584 2216 1326 1975 
Q 1069 1734 1069 1313 
Q 1069 891 1326 650 
Q 1584 409 2034 409 
Q 2484 409 2743 651 
Q 3003 894 3003 1313 
Q 3003 1734 2745 1975 
Q 2488 2216 2034 2216 
z
M 1403 2484 
Q 997 2584 770 2862 
Q 544 3141 544 3541 
Q 544 4100 942 4425 
Q 1341 4750 2034 4750 
Q 2731 4750 3128 4425 
Q 3525 4100 3525 3541 
Q 3525 3141 3298 2862 
Q 3072 2584 2669 2484 
Q 3125 2378 3379 2068 
Q 3634 1759 3634 1313 
Q 3634 634 3220 271 
Q 2806 -91 2034 -91 
Q 1263 -91 848 271 
Q 434 634 434 1313 
Q 434 1759 690 2068 
Q 947 2378 1403 2484 
z
M 1172 3481 
Q 1172 3119 1398 2916 
Q 1625 2713 2034 2713 
Q 2441 2713 2670 2916 
Q 2900 3119 2900 3481 
Q 2900 3844 2670 4047 
Q 2441 4250 2034 4250 
Q 1625 4250 1398 4047 
Q 1172 3844 1172 3481 
z
" transform="scale(0.015625)"/>
       </defs>
       <use xlink:href="#DejaVuSans-30"/>
       <use xlink:href="#DejaVuSans-2e" x="63.623047"/>
       <use xlink:href="#DejaVuSans-38" x="95.410156"/>
      </g>
     </g>
    </g>
    <g id="ytick_6">
     <g id="line2d_23">
      <path d="M 54 34.56 
L 388.8 34.56 
" clip-path="url(#pce5315315b)" style="fill: none; stroke: #b0b0b0; stroke-width: 0.8; stroke-linecap: square"/>
     </g>
     <g id="line2d_24">
      <g>
       <use xlink:href="#m3a04a0c43e" x="54" y="34.56" style="stroke: #000000; stroke-width: 0.8"/>
      </g>
     </g>
     <g id="text_13">
      <!-- 1.0 -->
      <g transform="translate(31.096875 38.359219)scale(0.1 -0.1)">
       <use xlink:href="#DejaVuSans-31"/>
       <use xlink:href="#DejaVuSans-2e" x="63.623047"/>
       <use xlink:href="#DejaVuSans-30" x="95.410156"/>
      </g>
     </g>
    </g>
    <g id="text_14">
     <!-- count -->
     <g transform="translate(25.017187 157.38625)rotate(-90)scale(0.1 -0.1)">
      <defs>
       <path id="DejaVuSans-63" d="M 3122 3366 
L 3122 2828 
Q 2878 2963 2633 3030 
Q 2388 3097 2138 3097 
Q 1578 3097 1268 2742 
Q 959 2388 959 1747 
Q 959 1106 1268 751 
Q 1578 397 2138 397 
Q 2388 397 2633 464 
Q 2878 531 3122 666 
L 3122 134 
Q 2881 22 2623 -34 
Q 2366 -91 2075 -91 
Q 1284 -91 818 406 
Q 353 903 353 1747 
Q 353 2603 823 3093 
Q 1294 3584 2113 3584 
Q 2378 3584 2631 3529 
Q 2884 3475 3122 3366 
z
" transform="scale(0.015625)"/>
       <path id="DejaVuSans-6f" d="M 1959 3097 
Q 1497 3097 1228 2736 
Q 959 2375 959 1747 
Q 959 1119 1226 758 
Q 1494 397 1959 397 
Q 2419 397 2687 759 
Q 2956 1122 2956 1747 
Q 2956 2369 2687 2733 
Q 2419 3097 1959 3097 
z
M 1959 3584 
Q 2709 3584 3137 3096 
Q 3566 2609 3566 1747 
Q 3566 888 3137 398 
Q 2709 -91 1959 -91 
Q 1206 -91 779 398 
Q 353 888 353 1747 
Q 353 2609 779 3096 
Q 1206 3584 1959 3584 
z
" transform="scale(0.015625)"/>
       <path id="DejaVuSans-75" d="M 544 1381 
L 544 3500 
L 1119 3500 
L 1119 1403 
Q 1119 906 1312 657 
Q 1506 409 1894 409 
Q 2359 409 2629 706 
Q 2900 1003 2900 1516 
L 2900 3500 
L 3475 3500 
L 3475 0 
L 2900 0 
L 2900 538 
Q 2691 219 2414 64 
Q 2138 -91 1772 -91 
Q 1169 -91 856 284 
Q 544 659 544 1381 
z
M 1991 3584 
L 1991 3584 
z
" transform="scale(0.015625)"/>
       <path id="DejaVuSans-74" d="M 1172 4494 
L 1172 3500 
L 2356 3500 
L 2356 3053 
L 1172 3053 
L 1172 1153 
Q 1172 725 1289 603 
Q 1406 481 1766 481 
L 2356 481 
L 2356 0 
L 1766 0 
Q 1100 0 847 248 
Q 594 497 594 1153 
L 594 3053 
L 172 3053 
L 172 3500 
L 594 3500 
L 594 4494 
L 1172 4494 
z
" transform="scale(0.015625)"/>
      </defs>
      <use xlink:href="#DejaVuSans-63"/>
      <use xlink:href="#DejaVuSans-6f" x="54.980469"/>
      <use xlink:href="#DejaVuSans-75" x="116.162109"/>
      <use xlink:href="#DejaVuSans-6e" x="179.541016"/>
      <use xlink:href="#DejaVuSans-74" x="242.919922"/>
     </g>
    </g>
   </g>
   <g id="line2d_25">
    <path d="M 69.218182 229.156109 
L 69.813805 232.963424 
L 70.409429 229.156109 
L 71.005052 219.849339 
L 71.600676 204.620078 
L 72.1963 204.197043 
L 72.791923 231.271284 
L 73.387547 232.540389 
L 73.98317 228.310039 
L 74.578794 221.964514 
L 75.174417 232.540389 
L 75.770041 230.002179 
L 76.365664 217.311128 
L 76.961288 238.039844 
L 77.556912 219.849339 
L 78.152535 227.463969 
L 78.748159 229.156109 
L 79.343782 232.963424 
L 79.939406 232.963424 
L 80.535029 216.042023 
L 81.130653 218.157198 
L 81.726276 231.694319 
L 82.3219 232.540389 
L 82.917524 228.733074 
L 83.513147 205.043113 
L 84.108771 224.502724 
L 84.704394 230.425214 
L 85.300018 222.810584 
L 85.895641 233.809494 
L 86.491265 218.580233 
L 87.086888 230.002179 
L 87.682512 232.117354 
L 88.278136 249.038755 
L 88.873759 232.540389 
L 89.469383 229.156109 
L 90.065006 217.311128 
L 90.66063 213.926848 
L 91.256253 226.617899 
L 91.851877 222.387549 
L 92.4475 232.540389 
L 93.043124 202.927938 
L 93.638748 226.194864 
L 94.234371 223.656654 
L 94.829995 231.271284 
L 95.425618 208.850428 
L 96.021242 229.579144 
L 96.616865 243.962335 
L 97.212489 221.118444 
L 97.808112 231.694319 
L 98.403736 224.925759 
L 98.99936 222.387549 
L 99.594983 231.694319 
L 100.190607 225.348794 
L 100.78623 221.541479 
L 101.381854 232.117354 
L 101.977477 232.963424 
L 102.573101 230.002179 
L 103.168724 223.233619 
L 103.764348 232.540389 
L 104.359972 234.655564 
L 104.955595 225.348794 
L 105.551219 235.924669 
L 106.146842 230.425214 
L 106.742466 216.888093 
L 107.338089 233.386459 
L 107.933713 205.466148 
L 108.529336 208.850428 
L 109.12496 228.310039 
L 109.720584 236.770739 
L 110.316207 233.386459 
L 110.911831 217.734163 
L 111.507454 237.616809 
L 112.103078 231.271284 
L 112.698701 217.311128 
L 113.294325 230.425214 
L 113.889948 230.425214 
L 114.485572 238.462879 
L 115.081196 227.040934 
L 115.676819 235.924669 
L 116.272443 219.003268 
L 116.868066 225.348794 
L 118.059313 230.002179 
L 118.654937 237.616809 
L 119.25056 210.119533 
L 119.846184 232.540389 
L 120.441808 227.887004 
L 121.037431 224.925759 
L 121.633055 238.039844 
L 122.228678 234.655564 
L 122.824302 230.002179 
L 123.419925 235.078599 
L 124.015549 227.463969 
L 124.611172 226.194864 
L 125.206796 215.195953 
L 125.802419 233.809494 
L 126.398043 221.118444 
L 126.993667 229.156109 
L 127.58929 234.232529 
L 128.184914 230.002179 
L 128.780537 232.963424 
L 129.376161 227.463969 
L 129.971784 245.23144 
L 130.567408 232.540389 
L 131.163031 241.001089 
L 131.758655 226.617899 
L 132.354279 229.579144 
L 132.949902 223.656654 
L 133.545526 249.46179 
L 134.141149 219.849339 
L 134.736773 235.078599 
L 135.332396 229.156109 
L 135.92802 239.308949 
L 136.523643 232.540389 
L 137.119267 219.426304 
L 137.714891 230.002179 
L 138.310514 228.310039 
L 138.906138 229.579144 
L 139.501761 219.849339 
L 140.097385 228.733074 
L 140.693008 218.580233 
L 141.288632 228.733074 
L 141.884255 252 
L 142.479879 218.580233 
L 143.075503 236.770739 
L 143.671126 227.887004 
L 144.26675 231.271284 
L 144.862373 222.810584 
L 145.457997 232.540389 
L 146.05362 230.425214 
L 146.649244 236.770739 
L 147.244867 245.654475 
L 147.840491 230.425214 
L 148.436115 236.347704 
L 149.031738 219.426304 
L 149.627362 228.733074 
L 150.222985 232.117354 
L 150.818609 218.157198 
L 151.414232 226.617899 
L 152.605479 221.541479 
L 153.201103 236.347704 
L 153.796727 217.734163 
L 154.39235 226.617899 
L 154.987974 240.578054 
L 155.583597 219.426304 
L 156.179221 233.809494 
L 156.774844 238.885914 
L 157.370468 236.347704 
L 157.966091 232.117354 
L 158.561715 232.963424 
L 159.157339 224.925759 
L 159.752962 235.501634 
L 160.348586 213.926848 
L 160.944209 222.387549 
L 161.539833 228.733074 
L 162.135456 221.964514 
L 162.73108 227.463969 
L 163.326703 217.734163 
L 163.922327 224.502724 
L 164.517951 222.810584 
L 165.113574 234.655564 
L 165.709198 235.924669 
L 166.304821 227.463969 
L 167.496068 204.620078 
L 168.091692 203.350973 
L 168.687315 159.355331 
L 169.282939 150.471595 
L 169.878563 100.130428 
L 170.474186 73.479222 
L 171.06981 56.980856 
L 171.665433 48.520156 
L 172.261057 100.976498 
L 173.452304 149.20249 
L 174.643551 212.657743 
L 175.239175 199.543658 
L 175.834798 219.849339 
L 176.430422 221.118444 
L 177.026045 224.502724 
L 177.621669 214.349883 
L 178.217292 217.311128 
L 178.812916 222.387549 
L 179.408539 239.308949 
L 180.004163 219.003268 
L 180.599787 246.07751 
L 181.19541 230.848249 
L 181.791034 221.118444 
L 182.386657 219.426304 
L 182.982281 240.578054 
L 183.577904 216.042023 
L 184.173528 232.117354 
L 184.769151 229.156109 
L 185.364775 217.311128 
L 185.960399 227.040934 
L 186.556022 230.848249 
L 187.151646 221.964514 
L 187.747269 236.347704 
L 188.342893 226.617899 
L 188.938516 225.771829 
L 189.53414 235.078599 
L 190.129763 224.502724 
L 190.725387 224.925759 
L 191.32101 217.311128 
L 191.916634 225.771829 
L 192.512258 227.463969 
L 193.107881 217.311128 
L 193.703505 219.849339 
L 194.299128 241.424125 
L 194.894752 225.348794 
L 195.490375 223.656654 
L 196.085999 235.078599 
L 196.681622 239.308949 
L 197.87287 233.809494 
L 198.468493 228.310039 
L 199.064117 229.156109 
L 199.65974 233.386459 
L 200.255364 233.386459 
L 200.850987 233.809494 
L 201.446611 230.425214 
L 202.042234 230.425214 
L 202.637858 233.809494 
L 203.233482 228.733074 
L 203.829105 215.618988 
L 204.424729 223.233619 
L 205.020352 221.964514 
L 205.615976 235.078599 
L 206.211599 232.963424 
L 206.807223 224.502724 
L 207.402846 225.348794 
L 207.99847 224.079689 
L 208.594094 216.042023 
L 209.189717 225.771829 
L 209.785341 225.771829 
L 210.976588 231.271284 
L 211.572211 236.770739 
L 212.167835 219.003268 
L 212.763458 228.310039 
L 213.359082 226.194864 
L 213.954706 220.695409 
L 214.550329 232.963424 
L 215.145953 227.887004 
L 215.741576 233.809494 
L 216.3372 232.117354 
L 216.932823 221.541479 
L 217.528447 228.733074 
L 218.12407 226.194864 
L 218.719694 221.964514 
L 219.315318 227.040934 
L 219.910941 225.348794 
L 220.506565 209.696498 
L 221.102188 231.271284 
L 221.697812 226.194864 
L 222.293435 216.888093 
L 222.889059 222.810584 
L 223.484682 232.117354 
L 224.080306 222.387549 
L 224.67593 230.425214 
L 225.271553 223.656654 
L 225.867177 226.617899 
L 226.4628 236.770739 
L 227.058424 219.003268 
L 227.654047 234.655564 
L 228.249671 232.117354 
L 228.845294 225.771829 
L 229.440918 224.502724 
L 230.036542 234.655564 
L 230.632165 216.465058 
L 231.227789 211.811673 
L 231.823412 232.117354 
L 232.419036 230.002179 
L 233.014659 226.194864 
L 233.610283 213.926848 
L 234.205906 233.386459 
L 234.80153 226.617899 
L 235.397154 208.004358 
L 235.992777 230.002179 
L 236.588401 235.501634 
L 237.184024 222.810584 
L 237.779648 244.808405 
L 238.375271 238.039844 
L 238.970895 218.580233 
L 239.566518 241.84716 
L 240.162142 235.501634 
L 240.757766 234.655564 
L 241.353389 229.579144 
L 241.949013 240.578054 
L 242.544636 234.232529 
L 243.14026 243.5393 
L 243.735883 218.580233 
L 244.331507 230.848249 
L 244.92713 219.849339 
L 245.522754 201.658833 
L 246.118378 200.812763 
L 246.714001 165.277821 
L 247.309625 116.205759 
L 247.905248 48.097121 
L 248.500872 34.56 
L 249.096495 83.632062 
L 249.692119 100.976498 
L 250.883366 210.965603 
L 252.074613 235.924669 
L 252.670237 221.118444 
L 253.26586 238.462879 
L 253.861484 228.733074 
L 254.457107 221.541479 
L 255.052731 232.963424 
L 255.648354 219.003268 
L 256.243978 218.157198 
L 257.435225 223.233619 
L 258.030849 240.155019 
L 258.626472 219.003268 
L 259.222096 221.118444 
L 260.413343 226.194864 
L 261.008966 224.079689 
L 261.60459 228.310039 
L 262.200213 224.079689 
L 262.795837 219.003268 
L 263.391461 226.617899 
L 263.987084 223.656654 
L 264.582708 244.808405 
L 265.178331 226.617899 
L 265.773955 227.887004 
L 266.369578 220.272374 
L 266.965202 234.655564 
L 267.560825 220.272374 
L 268.156449 234.232529 
L 268.752073 235.924669 
L 269.347696 221.964514 
L 270.538943 236.347704 
L 271.134567 224.925759 
L 272.325814 226.617899 
L 272.921437 228.733074 
L 273.517061 211.388638 
L 274.112685 216.465058 
L 274.708308 242.270195 
L 275.303932 214.349883 
L 275.899555 227.463969 
L 276.495179 230.848249 
L 277.090802 241.84716 
L 277.686426 236.770739 
L 278.282049 230.425214 
L 278.877673 230.425214 
L 279.473297 235.501634 
L 280.06892 218.580233 
L 280.664544 230.425214 
L 281.260167 236.347704 
L 281.855791 217.734163 
L 282.451414 226.617899 
L 283.047038 218.157198 
L 284.238285 222.387549 
L 284.833909 230.425214 
L 285.429532 221.118444 
L 286.025156 235.924669 
L 286.620779 227.463969 
L 287.216403 226.194864 
L 287.812026 228.310039 
L 288.40765 223.656654 
L 289.003273 221.118444 
L 289.598897 239.308949 
L 290.194521 225.348794 
L 290.790144 227.887004 
L 291.385768 228.310039 
L 291.981391 223.656654 
L 292.577015 223.233619 
L 293.172638 238.885914 
L 293.768262 221.964514 
L 294.363885 232.117354 
L 294.959509 235.501634 
L 295.555133 235.078599 
L 296.150756 241.424125 
L 296.74638 223.656654 
L 297.342003 223.656654 
L 297.937627 218.580233 
L 298.53325 226.194864 
L 299.128874 226.194864 
L 299.724497 219.003268 
L 300.320121 215.195953 
L 300.915745 231.271284 
L 301.511368 241.84716 
L 302.106992 235.924669 
L 302.702615 226.617899 
L 303.298239 221.964514 
L 303.893862 215.195953 
L 304.489486 224.079689 
L 305.085109 228.310039 
L 305.680733 231.694319 
L 306.276357 237.193774 
L 306.87198 224.502724 
L 308.063227 236.347704 
L 309.254474 217.311128 
L 309.850098 208.427393 
L 310.445721 243.116265 
L 311.041345 224.079689 
L 311.636969 226.617899 
L 312.232592 223.656654 
L 312.828216 233.809494 
L 313.423839 223.656654 
L 314.019463 230.848249 
L 315.21071 222.387549 
L 315.806333 230.848249 
L 316.401957 221.964514 
L 316.997581 220.272374 
L 317.593204 235.924669 
L 318.188828 237.616809 
L 318.784451 246.500545 
L 319.380075 237.193774 
L 319.975698 224.502724 
L 320.571322 233.809494 
L 321.166945 219.849339 
L 321.762569 244.808405 
L 322.358192 220.695409 
L 322.953816 227.463969 
L 323.54944 211.811673 
L 324.145063 232.963424 
L 324.740687 229.156109 
L 325.33631 228.733074 
L 325.931934 230.425214 
L 326.527557 222.387549 
L 327.123181 219.426304 
L 327.718804 239.308949 
L 328.314428 224.925759 
L 328.910052 223.233619 
L 329.505675 235.501634 
L 330.101299 232.117354 
L 330.696922 224.502724 
L 331.292546 230.848249 
L 331.888169 215.195953 
L 332.483793 220.695409 
L 333.079416 229.156109 
L 333.67504 219.849339 
L 334.270664 225.348794 
L 334.866287 214.772918 
L 335.461911 214.772918 
L 336.057534 232.540389 
L 336.653158 227.040934 
L 337.248781 231.271284 
L 338.440028 223.233619 
L 339.035652 228.733074 
L 339.631276 223.656654 
L 340.226899 234.655564 
L 340.822523 225.348794 
L 341.418146 240.578054 
L 342.01377 230.002179 
L 342.609393 222.387549 
L 343.205017 223.233619 
L 343.80064 244.38537 
L 344.396264 229.156109 
L 344.991888 244.38537 
L 345.587511 231.694319 
L 346.183135 237.616809 
L 346.778758 224.079689 
L 347.374382 235.924669 
L 347.970005 228.310039 
L 348.565629 234.232529 
L 349.161252 235.501634 
L 349.756876 218.157198 
L 350.3525 234.232529 
L 350.948123 222.387549 
L 351.543747 222.810584 
L 352.13937 213.926848 
L 353.330617 224.079689 
L 353.926241 240.578054 
L 354.521864 222.387549 
L 355.117488 227.887004 
L 355.713112 220.695409 
L 356.308735 219.003268 
L 356.904359 217.734163 
L 357.499982 231.694319 
L 358.095606 242.270195 
L 358.691229 228.733074 
L 359.286853 225.771829 
L 359.882476 238.885914 
L 360.4781 237.616809 
L 361.073724 235.924669 
L 361.669347 221.964514 
L 362.264971 235.078599 
L 362.860594 226.617899 
L 364.051841 228.310039 
L 364.647465 225.348794 
L 365.243088 249.46179 
L 365.838712 224.925759 
L 366.434336 224.925759 
L 367.625583 213.926848 
L 368.221206 227.887004 
L 368.81683 222.810584 
L 369.412453 228.310039 
L 370.008077 224.925759 
L 370.6037 220.695409 
L 371.199324 227.887004 
L 371.794948 218.157198 
L 372.390571 224.079689 
L 372.986195 213.926848 
L 373.581818 224.502724 
L 373.581818 224.502724 
" clip-path="url(#pce5315315b)" style="fill: none; stroke: #1f77b4; stroke-width: 1.5; stroke-linecap: square"/>
   </g>
   <g id="line2d_26">
    <path d="M 69.218182 229.527151 
L 69.813805 233.778771 
L 70.409429 209.483799 
L 71.005052 220.416536 
L 71.600676 221.023911 
L 72.1963 218.594413 
L 72.791923 231.956648 
L 73.387547 208.876425 
L 73.98317 245.318883 
L 74.578794 220.416536 
L 75.174417 228.312402 
L 76.365664 230.741899 
L 76.961288 223.453408 
L 77.556912 202.802682 
L 78.152535 217.379665 
L 78.748159 206.446927 
L 79.343782 214.950168 
L 79.939406 221.023911 
L 80.535029 222.238659 
L 81.130653 239.852514 
L 81.726276 220.416536 
L 82.3219 223.453408 
L 82.917524 224.668156 
L 83.513147 228.919777 
L 84.108771 215.557542 
L 84.704394 216.772291 
L 85.300018 207.661676 
L 85.895641 227.097654 
L 86.491265 227.705028 
L 87.086888 228.919777 
L 87.682512 221.631285 
L 88.278136 202.195307 
L 88.873759 243.49676 
L 89.469383 227.097654 
L 90.065006 206.446927 
L 90.66063 216.164916 
L 91.256253 213.128045 
L 91.851877 212.52067 
L 92.4475 229.527151 
L 93.043124 236.208268 
L 93.638748 207.054302 
L 94.234371 222.238659 
L 94.829995 219.809162 
L 95.425618 220.416536 
L 96.021242 203.410056 
L 96.616865 233.778771 
L 97.212489 213.128045 
L 97.808112 217.987039 
L 98.403736 241.674637 
L 98.99936 212.52067 
L 99.594983 222.846034 
L 100.190607 213.128045 
L 100.78623 220.416536 
L 101.381854 234.99352 
L 101.977477 214.950168 
L 102.573101 202.802682 
L 103.168724 224.060782 
L 103.764348 208.26905 
L 104.359972 221.023911 
L 104.955595 228.312402 
L 105.551219 224.060782 
L 106.146842 213.735419 
L 106.742466 222.846034 
L 107.338089 221.023911 
L 107.933713 213.128045 
L 108.529336 217.379665 
L 109.12496 218.594413 
L 109.720584 203.410056 
L 110.316207 210.091173 
L 110.911831 234.99352 
L 111.507454 219.809162 
L 112.103078 221.023911 
L 112.698701 232.564022 
L 113.294325 205.232179 
L 113.889948 221.631285 
L 114.485572 209.483799 
L 115.081196 217.987039 
L 115.676819 218.594413 
L 116.272443 234.386145 
L 116.868066 219.809162 
L 117.46369 209.483799 
L 118.059313 205.839553 
L 118.654937 216.164916 
L 119.25056 234.99352 
L 119.846184 230.741899 
L 120.441808 233.778771 
L 121.037431 220.416536 
L 121.633055 238.030391 
L 122.228678 231.349274 
L 122.824302 228.312402 
L 123.419925 219.809162 
L 124.015549 221.023911 
L 124.611172 228.312402 
L 125.206796 223.453408 
L 125.802419 226.490279 
L 126.398043 228.312402 
L 126.993667 228.312402 
L 127.58929 226.490279 
L 128.184914 214.342793 
L 128.780537 225.275531 
L 129.376161 228.919777 
L 129.971784 222.238659 
L 130.567408 220.416536 
L 131.758655 232.564022 
L 132.354279 216.772291 
L 132.949902 223.453408 
L 133.545526 224.060782 
L 134.141149 217.379665 
L 134.736773 233.778771 
L 135.332396 226.490279 
L 135.92802 225.882905 
L 136.523643 219.201788 
L 137.119267 214.342793 
L 137.714891 205.839553 
L 138.310514 204.624804 
L 138.906138 217.379665 
L 139.501761 238.030391 
L 140.693008 200.980559 
L 141.288632 231.956648 
L 141.884255 210.091173 
L 142.479879 222.238659 
L 143.075503 202.195307 
L 143.671126 217.379665 
L 144.26675 220.416536 
L 144.862373 217.987039 
L 145.457997 206.446927 
L 146.05362 211.913296 
L 146.649244 230.134525 
L 147.244867 209.483799 
L 147.840491 228.312402 
L 148.436115 238.637765 
L 149.031738 230.134525 
L 149.627362 224.060782 
L 150.222985 213.128045 
L 150.818609 229.527151 
L 151.414232 202.802682 
L 152.009856 212.52067 
L 152.605479 220.416536 
L 153.201103 210.698547 
L 153.796727 222.238659 
L 154.39235 217.987039 
L 154.987974 208.26905 
L 155.583597 216.772291 
L 156.179221 211.305922 
L 156.774844 233.778771 
L 157.370468 211.913296 
L 157.966091 218.594413 
L 158.561715 217.379665 
L 159.157339 217.987039 
L 159.752962 222.846034 
L 160.348586 210.091173 
L 160.944209 211.913296 
L 161.539833 208.26905 
L 162.135456 223.453408 
L 162.73108 200.980559 
L 163.326703 224.060782 
L 163.922327 227.705028 
L 164.517951 233.778771 
L 165.113574 232.564022 
L 165.709198 215.557542 
L 166.304821 213.735419 
L 166.900445 208.26905 
L 167.496068 216.772291 
L 168.091692 232.564022 
L 168.687315 217.379665 
L 169.282939 207.054302 
L 169.878563 222.846034 
L 170.474186 225.275531 
L 171.06981 223.453408 
L 171.665433 203.410056 
L 172.261057 208.26905 
L 172.85668 201.587933 
L 173.452304 168.789721 
L 174.047927 165.752849 
L 174.643551 122.021899 
L 175.239175 100.156425 
L 175.834798 98.941676 
L 177.026045 40.633743 
L 178.217292 88.616313 
L 178.812916 127.488268 
L 179.408539 152.390615 
L 180.004163 200.373184 
L 180.599787 194.299441 
L 181.19541 217.379665 
L 181.791034 217.987039 
L 182.386657 219.201788 
L 183.577904 243.49676 
L 184.173528 211.913296 
L 184.769151 233.171397 
L 185.364775 230.741899 
L 185.960399 225.882905 
L 186.556022 233.778771 
L 187.151646 215.557542 
L 187.747269 224.668156 
L 188.342893 214.342793 
L 188.938516 215.557542 
L 189.53414 225.275531 
L 190.129763 224.668156 
L 190.725387 207.054302 
L 191.32101 202.802682 
L 191.916634 214.950168 
L 192.512258 212.52067 
L 193.107881 208.26905 
L 193.703505 207.054302 
L 194.299128 213.128045 
L 194.894752 231.349274 
L 195.490375 225.275531 
L 196.085999 214.950168 
L 196.681622 221.631285 
L 197.277246 250.177877 
L 197.87287 217.379665 
L 198.468493 200.373184 
L 199.064117 219.201788 
L 199.65974 210.091173 
L 200.255364 219.809162 
L 200.850987 222.846034 
L 201.446611 226.490279 
L 202.042234 225.882905 
L 202.637858 221.631285 
L 203.233482 221.023911 
L 203.829105 217.379665 
L 204.424729 229.527151 
L 205.020352 208.876425 
L 205.615976 215.557542 
L 206.211599 209.483799 
L 206.807223 211.913296 
L 207.402846 228.312402 
L 207.99847 229.527151 
L 208.594094 231.956648 
L 209.189717 208.26905 
L 210.380964 239.852514 
L 210.976588 211.305922 
L 211.572211 237.423017 
L 212.167835 219.809162 
L 212.763458 233.171397 
L 213.359082 225.882905 
L 213.954706 216.164916 
L 214.550329 214.342793 
L 215.145953 205.839553 
L 215.741576 230.134525 
L 216.3372 229.527151 
L 216.932823 221.631285 
L 217.528447 227.097654 
L 218.719694 222.238659 
L 219.315318 234.386145 
L 219.910941 224.668156 
L 220.506565 221.631285 
L 221.102188 221.023911 
L 221.697812 225.882905 
L 222.293435 233.171397 
L 222.889059 216.772291 
L 223.484682 223.453408 
L 224.080306 220.416536 
L 224.67593 228.312402 
L 225.271553 214.950168 
L 225.867177 219.201788 
L 226.4628 224.668156 
L 227.058424 224.668156 
L 227.654047 238.637765 
L 228.249671 201.587933 
L 228.845294 210.091173 
L 229.440918 234.386145 
L 230.036542 203.410056 
L 230.632165 233.171397 
L 231.823412 222.846034 
L 232.419036 222.238659 
L 233.014659 219.201788 
L 233.610283 211.305922 
L 234.205906 234.99352 
L 234.80153 224.668156 
L 235.992777 231.349274 
L 236.588401 215.557542 
L 237.184024 216.164916 
L 237.779648 230.134525 
L 238.375271 210.698547 
L 238.970895 216.164916 
L 239.566518 217.987039 
L 240.162142 219.201788 
L 240.757766 211.913296 
L 241.353389 195.51419 
L 241.949013 219.201788 
L 242.544636 217.987039 
L 243.14026 227.097654 
L 243.735883 224.060782 
L 244.331507 237.423017 
L 244.92713 225.882905 
L 245.522754 199.76581 
L 246.714001 224.668156 
L 247.309625 216.772291 
L 247.905248 219.809162 
L 248.500872 224.668156 
L 249.096495 222.846034 
L 250.287742 211.305922 
L 250.883366 210.091173 
L 251.47899 181.544581 
L 252.074613 159.679106 
L 252.670237 88.008939 
L 253.26586 56.425475 
L 253.861484 34.56 
L 254.457107 54.603352 
L 255.052731 111.696536 
L 255.648354 157.249609 
L 256.243978 192.477318 
L 256.839601 200.980559 
L 257.435225 229.527151 
L 258.030849 228.312402 
L 258.626472 204.01743 
L 259.222096 208.26905 
L 259.817719 252 
L 261.008966 205.232179 
L 261.60459 225.882905 
L 262.200213 238.030391 
L 262.795837 225.882905 
L 263.391461 222.238659 
L 263.987084 226.490279 
L 264.582708 213.735419 
L 265.178331 217.379665 
L 265.773955 214.950168 
L 266.369578 240.459888 
L 266.965202 219.809162 
L 267.560825 241.067263 
L 268.156449 219.809162 
L 268.752073 225.882905 
L 269.347696 224.060782 
L 269.94332 208.26905 
L 270.538943 221.631285 
L 271.134567 215.557542 
L 271.73019 226.490279 
L 272.325814 220.416536 
L 272.921437 220.416536 
L 273.517061 231.956648 
L 274.112685 222.238659 
L 274.708308 216.772291 
L 275.303932 206.446927 
L 276.495179 234.386145 
L 277.090802 206.446927 
L 277.686426 222.846034 
L 278.282049 234.386145 
L 278.877673 221.631285 
L 279.473297 224.060782 
L 280.06892 213.735419 
L 280.664544 197.943687 
L 281.260167 231.956648 
L 281.855791 228.312402 
L 282.451414 196.728939 
L 283.047038 219.201788 
L 283.642661 205.232179 
L 284.238285 227.097654 
L 284.833909 227.097654 
L 285.429532 229.527151 
L 286.025156 221.631285 
L 286.620779 217.379665 
L 287.216403 216.164916 
L 287.812026 219.201788 
L 288.40765 216.772291 
L 289.003273 239.24514 
L 289.598897 215.557542 
L 290.194521 234.386145 
L 290.790144 232.564022 
L 291.385768 234.99352 
L 291.981391 229.527151 
L 292.577015 216.772291 
L 293.172638 231.956648 
L 293.768262 222.846034 
L 294.363885 208.876425 
L 294.959509 228.919777 
L 296.150756 213.128045 
L 296.74638 222.846034 
L 297.342003 215.557542 
L 297.937627 217.987039 
L 298.53325 214.342793 
L 299.128874 226.490279 
L 299.724497 223.453408 
L 300.320121 241.067263 
L 300.915745 221.023911 
L 301.511368 215.557542 
L 302.106992 222.846034 
L 302.702615 202.802682 
L 303.893862 215.557542 
L 304.489486 217.987039 
L 305.085109 222.846034 
L 305.680733 217.379665 
L 306.276357 218.594413 
L 306.87198 214.950168 
L 307.467604 214.342793 
L 308.063227 221.631285 
L 308.658851 221.631285 
L 309.254474 221.023911 
L 309.850098 217.987039 
L 310.445721 229.527151 
L 311.041345 217.379665 
L 311.636969 207.661676 
L 312.232592 233.778771 
L 312.828216 236.815642 
L 313.423839 231.956648 
L 314.019463 197.336313 
L 314.615086 221.023911 
L 315.21071 224.060782 
L 315.806333 210.698547 
L 316.401957 231.349274 
L 316.997581 202.195307 
L 317.593204 232.564022 
L 318.188828 222.238659 
L 318.784451 233.171397 
L 319.380075 223.453408 
L 319.975698 233.171397 
L 320.571322 225.882905 
L 321.166945 228.919777 
L 321.762569 203.410056 
L 322.358192 217.987039 
L 322.953816 215.557542 
L 323.54944 224.668156 
L 324.145063 204.01743 
L 324.740687 241.067263 
L 325.33631 201.587933 
L 325.931934 225.882905 
L 326.527557 228.312402 
L 327.123181 209.483799 
L 327.718804 227.097654 
L 328.314428 202.195307 
L 329.505675 230.134525 
L 330.101299 215.557542 
L 330.696922 227.705028 
L 331.292546 223.453408 
L 331.888169 231.349274 
L 332.483793 216.772291 
L 333.079416 229.527151 
L 333.67504 213.735419 
L 334.270664 205.232179 
L 334.866287 214.342793 
L 335.461911 217.987039 
L 336.057534 217.379665 
L 337.248781 241.674637 
L 337.844405 197.943687 
L 338.440028 238.637765 
L 339.035652 230.741899 
L 339.631276 228.312402 
L 340.226899 210.091173 
L 340.822523 225.882905 
L 341.418146 234.386145 
L 342.609393 219.201788 
L 343.205017 213.128045 
L 343.80064 220.416536 
L 344.396264 217.987039 
L 344.991888 210.091173 
L 345.587511 217.987039 
L 346.183135 216.772291 
L 346.778758 246.533631 
L 347.374382 217.379665 
L 347.970005 209.483799 
L 348.565629 223.453408 
L 349.161252 218.594413 
L 349.756876 227.705028 
L 350.3525 212.52067 
L 350.948123 224.668156 
L 351.543747 225.275531 
L 352.13937 228.919777 
L 352.734994 196.728939 
L 353.330617 221.631285 
L 353.926241 236.815642 
L 354.521864 219.201788 
L 355.117488 207.054302 
L 355.713112 207.661676 
L 356.308735 231.956648 
L 356.904359 205.839553 
L 357.499982 230.741899 
L 358.095606 217.987039 
L 358.691229 221.631285 
L 359.286853 221.023911 
L 360.4781 250.785251 
L 361.073724 228.312402 
L 362.264971 217.987039 
L 362.860594 205.232179 
L 363.456218 227.097654 
L 364.051841 234.386145 
L 364.647465 219.809162 
L 365.243088 212.52067 
L 365.838712 219.201788 
L 366.434336 216.164916 
L 367.029959 217.987039 
L 367.625583 236.815642 
L 368.221206 224.668156 
L 368.81683 218.594413 
L 369.412453 232.564022 
L 370.6037 214.342793 
L 371.199324 231.956648 
L 371.794948 225.882905 
L 372.390571 221.023911 
L 372.986195 233.171397 
L 373.581818 207.054302 
L 373.581818 207.054302 
" clip-path="url(#pce5315315b)" style="fill: none; stroke: #ff7f0e; stroke-width: 1.5; stroke-linecap: square"/>
   </g>
   <g id="line2d_27">
    <path d="M 69.218182 232.672 
L 69.813805 240.4032 
L 70.409429 243.544 
L 71.005052 237.0208 
L 71.600676 240.6448 
L 72.1963 242.8192 
L 72.791923 237.7456 
L 73.387547 239.92 
L 73.98317 234.8464 
L 74.578794 243.544 
L 75.174417 241.6112 
L 75.770041 241.128 
L 76.365664 241.8528 
L 76.961288 238.712 
L 77.556912 245.96 
L 78.152535 250.3088 
L 78.748159 228.3232 
L 79.343782 244.0272 
L 79.939406 236.5376 
L 80.535029 238.4704 
L 81.130653 243.0608 
L 81.726276 235.3296 
L 82.3219 241.3696 
L 82.917524 240.4032 
L 83.513147 231.9472 
L 84.108771 238.2288 
L 84.704394 236.5376 
L 85.300018 232.672 
L 85.895641 235.8128 
L 86.491265 228.8064 
L 87.086888 231.7056 
L 87.682512 244.752 
L 88.278136 234.6048 
L 88.873759 240.8864 
L 89.469383 243.0608 
L 90.065006 235.5712 
L 90.66063 240.1616 
L 91.851877 231.7056 
L 92.4475 248.376 
L 93.043124 234.1216 
L 93.638748 234.3632 
L 94.234371 242.336 
L 94.829995 245.7184 
L 95.425618 237.0208 
L 96.021242 239.4368 
L 96.616865 244.5104 
L 97.212489 242.0944 
L 97.808112 241.6112 
L 98.403736 239.6784 
L 98.99936 238.4704 
L 99.594983 237.9872 
L 100.190607 238.9536 
L 100.78623 231.2224 
L 101.381854 246.6848 
L 102.573101 239.4368 
L 103.168724 237.0208 
L 103.764348 236.296 
L 104.359972 242.5776 
L 104.955595 230.4976 
L 105.551219 238.9536 
L 106.146842 237.504 
L 106.742466 230.7392 
L 107.338089 242.8192 
L 107.933713 245.2352 
L 108.529336 245.2352 
L 109.12496 246.4432 
L 109.720584 241.8528 
L 110.316207 239.4368 
L 110.911831 238.4704 
L 111.507454 237.9872 
L 112.103078 237.2624 
L 112.698701 240.8864 
L 113.294325 234.3632 
L 113.889948 241.8528 
L 114.485572 235.5712 
L 115.081196 234.1216 
L 115.676819 242.8192 
L 116.272443 231.9472 
L 116.868066 234.6048 
L 117.46369 237.9872 
L 118.059313 242.5776 
L 119.25056 234.3632 
L 119.846184 235.088 
L 120.441808 243.0608 
L 121.037431 241.6112 
L 122.228678 232.9136 
L 122.824302 236.296 
L 123.419925 247.8928 
L 124.015549 232.4304 
L 124.611172 249.584 
L 125.206796 238.4704 
L 125.802419 238.2288 
L 126.398043 236.0544 
L 126.993667 234.3632 
L 127.58929 247.4096 
L 128.184914 237.0208 
L 128.780537 231.464 
L 129.376161 230.256 
L 129.971784 229.5312 
L 130.567408 233.6384 
L 131.163031 241.128 
L 131.758655 239.92 
L 132.354279 233.88 
L 132.949902 232.672 
L 133.545526 229.048 
L 134.141149 240.8864 
L 134.736773 228.5648 
L 135.332396 242.5776 
L 135.92802 234.8464 
L 136.523643 238.712 
L 137.119267 237.0208 
L 137.714891 238.712 
L 138.310514 241.8528 
L 138.906138 244.2688 
L 139.501761 234.6048 
L 140.097385 234.1216 
L 140.693008 234.3632 
L 141.288632 235.5712 
L 141.884255 244.5104 
L 142.479879 237.2624 
L 143.075503 235.8128 
L 143.671126 235.8128 
L 144.26675 236.0544 
L 144.862373 238.2288 
L 145.457997 243.0608 
L 146.05362 243.544 
L 146.649244 242.336 
L 147.244867 244.2688 
L 147.840491 241.3696 
L 148.436115 234.1216 
L 149.031738 230.9808 
L 149.627362 244.2688 
L 150.222985 242.5776 
L 150.818609 246.4432 
L 151.414232 242.336 
L 152.009856 244.9936 
L 152.605479 238.712 
L 153.201103 242.5776 
L 153.796727 234.1216 
L 154.39235 245.7184 
L 154.987974 236.0544 
L 156.179221 239.92 
L 156.774844 236.296 
L 157.370468 234.1216 
L 158.561715 248.6176 
L 159.157339 242.336 
L 159.752962 242.8192 
L 160.348586 237.504 
L 160.944209 243.544 
L 161.539833 233.1552 
L 162.135456 239.1952 
L 162.73108 235.088 
L 163.326703 235.5712 
L 163.922327 237.7456 
L 164.517951 235.3296 
L 165.113574 232.4304 
L 165.709198 244.752 
L 166.304821 237.9872 
L 166.900445 249.1008 
L 167.496068 229.2896 
L 168.091692 241.6112 
L 168.687315 242.8192 
L 169.282939 241.128 
L 169.878563 231.9472 
L 170.474186 236.0544 
L 171.06981 241.3696 
L 171.665433 241.8528 
L 172.261057 236.5376 
L 172.85668 241.6112 
L 173.452304 232.4304 
L 174.643551 247.6512 
L 175.834798 240.4032 
L 176.430422 241.128 
L 177.026045 242.336 
L 177.621669 238.2288 
L 178.217292 242.336 
L 178.812916 243.0608 
L 180.004163 233.6384 
L 180.599787 236.5376 
L 181.19541 241.8528 
L 181.791034 225.9072 
L 182.982281 242.8192 
L 183.577904 237.0208 
L 184.173528 245.7184 
L 184.769151 235.8128 
L 185.960399 244.9936 
L 186.556022 248.1344 
L 187.151646 241.3696 
L 187.747269 240.6448 
L 188.342893 234.1216 
L 188.938516 243.7856 
L 189.53414 234.1216 
L 190.129763 233.1552 
L 190.725387 244.2688 
L 191.32101 242.0944 
L 192.512258 241.128 
L 193.107881 234.1216 
L 193.703505 237.504 
L 194.299128 238.4704 
L 194.894752 234.3632 
L 195.490375 241.8528 
L 196.085999 238.712 
L 196.681622 243.0608 
L 197.277246 233.88 
L 197.87287 232.672 
L 198.468493 226.8736 
L 199.064117 209.72 
L 199.65974 207.0624 
L 200.255364 182.6608 
L 201.446611 110.664 
L 202.042234 90.6112 
L 202.637858 80.2224 
L 203.233482 85.7792 
L 203.829105 98.1008 
L 206.211599 205.3712 
L 207.402846 232.4304 
L 207.99847 232.4304 
L 208.594094 237.0208 
L 209.189717 239.4368 
L 209.785341 242.5776 
L 210.380964 230.9808 
L 210.976588 234.1216 
L 211.572211 242.0944 
L 212.167835 246.2016 
L 212.763458 235.088 
L 213.359082 241.6112 
L 213.954706 237.2624 
L 214.550329 237.9872 
L 215.145953 230.256 
L 216.3372 243.544 
L 216.932823 237.7456 
L 217.528447 227.1152 
L 218.12407 238.2288 
L 218.719694 238.4704 
L 219.315318 238.9536 
L 219.910941 237.2624 
L 220.506565 230.7392 
L 221.102188 247.6512 
L 221.697812 236.7792 
L 222.293435 238.2288 
L 222.889059 237.0208 
L 223.484682 234.1216 
L 224.080306 239.92 
L 224.67593 229.7728 
L 225.271553 244.2688 
L 225.867177 239.92 
L 226.4628 238.712 
L 227.058424 242.8192 
L 227.654047 239.1952 
L 228.249671 238.2288 
L 228.845294 242.8192 
L 229.440918 251.5168 
L 230.036542 235.3296 
L 230.632165 236.7792 
L 231.227789 236.7792 
L 232.419036 230.256 
L 233.014659 240.1616 
L 233.610283 243.7856 
L 234.205906 240.1616 
L 234.80153 239.1952 
L 235.397154 243.544 
L 235.992777 243.3024 
L 236.588401 240.1616 
L 237.184024 241.128 
L 237.779648 245.2352 
L 238.375271 235.088 
L 238.970895 238.9536 
L 239.566518 233.1552 
L 240.162142 238.4704 
L 240.757766 246.9264 
L 241.353389 241.6112 
L 241.949013 231.464 
L 242.544636 239.6784 
L 243.14026 242.0944 
L 243.735883 234.6048 
L 244.331507 235.8128 
L 244.92713 235.8128 
L 245.522754 244.5104 
L 246.118378 232.672 
L 246.714001 234.6048 
L 247.309625 232.9136 
L 247.905248 241.3696 
L 248.500872 238.4704 
L 249.096495 237.0208 
L 249.692119 244.0272 
L 250.287742 235.3296 
L 250.883366 241.6112 
L 251.47899 235.5712 
L 252.074613 239.4368 
L 252.670237 231.464 
L 253.26586 231.464 
L 253.861484 235.5712 
L 254.457107 235.3296 
L 255.052731 244.5104 
L 256.243978 240.4032 
L 256.839601 244.5104 
L 257.435225 241.128 
L 258.030849 246.6848 
L 258.626472 234.3632 
L 259.222096 237.2624 
L 259.817719 247.4096 
L 260.413343 241.3696 
L 261.008966 240.1616 
L 261.60459 239.6784 
L 262.795837 241.8528 
L 263.391461 233.1552 
L 263.987084 243.3024 
L 264.582708 227.84 
L 265.773955 243.0608 
L 266.369578 234.6048 
L 266.965202 230.7392 
L 267.560825 235.3296 
L 268.156449 241.6112 
L 268.752073 240.8864 
L 269.347696 241.128 
L 269.94332 237.504 
L 270.538943 240.6448 
L 271.134567 232.672 
L 271.73019 240.8864 
L 272.325814 238.9536 
L 272.921437 240.1616 
L 273.517061 236.7792 
L 274.112685 241.128 
L 274.708308 235.5712 
L 275.303932 239.6784 
L 275.899555 231.7056 
L 276.495179 235.8128 
L 277.686426 209.2368 
L 278.282049 173.7216 
L 279.473297 63.0688 
L 280.06892 34.56 
L 280.664544 56.5456 
L 281.855791 183.8688 
L 283.047038 232.1888 
L 283.642661 240.8864 
L 284.238285 242.0944 
L 284.833909 236.5376 
L 285.429532 239.92 
L 286.025156 237.0208 
L 286.620779 242.336 
L 287.216403 241.3696 
L 287.812026 241.6112 
L 288.40765 238.4704 
L 289.003273 244.752 
L 290.194521 233.6384 
L 290.790144 237.9872 
L 291.385768 234.3632 
L 291.981391 238.9536 
L 292.577015 236.0544 
L 293.172638 242.0944 
L 293.768262 235.5712 
L 294.363885 237.0208 
L 294.959509 228.5648 
L 295.555133 239.6784 
L 296.74638 243.7856 
L 297.342003 234.8464 
L 297.937627 230.256 
L 298.53325 236.296 
L 299.128874 229.2896 
L 299.724497 244.0272 
L 300.320121 238.2288 
L 300.915745 243.3024 
L 301.511368 239.1952 
L 302.106992 236.5376 
L 302.702615 241.128 
L 303.298239 239.1952 
L 303.893862 244.2688 
L 304.489486 246.4432 
L 305.085109 242.0944 
L 305.680733 245.2352 
L 306.276357 230.0144 
L 306.87198 239.1952 
L 307.467604 242.0944 
L 308.063227 241.6112 
L 308.658851 246.4432 
L 309.850098 236.5376 
L 310.445721 232.1888 
L 311.041345 241.8528 
L 311.636969 238.712 
L 312.232592 236.7792 
L 312.828216 242.336 
L 313.423839 226.8736 
L 314.019463 229.2896 
L 314.615086 241.6112 
L 315.21071 238.9536 
L 315.806333 231.7056 
L 316.401957 242.0944 
L 316.997581 238.2288 
L 317.593204 240.1616 
L 318.188828 240.6448 
L 318.784451 237.2624 
L 319.380075 237.9872 
L 319.975698 240.1616 
L 320.571322 238.2288 
L 321.166945 230.256 
L 321.762569 242.0944 
L 322.358192 241.128 
L 322.953816 239.1952 
L 323.54944 233.6384 
L 324.145063 242.336 
L 324.740687 239.1952 
L 325.33631 234.8464 
L 325.931934 232.4304 
L 326.527557 241.3696 
L 327.123181 237.9872 
L 327.718804 243.0608 
L 328.314428 241.3696 
L 328.910052 235.088 
L 329.505675 237.9872 
L 330.101299 237.504 
L 330.696922 240.1616 
L 331.292546 236.296 
L 331.888169 236.7792 
L 332.483793 239.92 
L 333.079416 240.4032 
L 333.67504 238.2288 
L 334.270664 239.92 
L 334.866287 252 
L 335.461911 240.4032 
L 336.057534 245.96 
L 336.653158 242.336 
L 337.248781 237.504 
L 337.844405 244.0272 
L 338.440028 248.6176 
L 339.035652 241.3696 
L 339.631276 232.4304 
L 340.226899 232.672 
L 340.822523 241.8528 
L 341.418146 236.7792 
L 342.01377 237.7456 
L 342.609393 245.96 
L 343.205017 240.6448 
L 343.80064 240.8864 
L 344.396264 237.2624 
L 344.991888 240.8864 
L 345.587511 240.6448 
L 346.183135 236.0544 
L 346.778758 242.0944 
L 347.374382 241.8528 
L 347.970005 244.752 
L 348.565629 237.7456 
L 349.161252 237.2624 
L 349.756876 240.4032 
L 350.3525 239.92 
L 350.948123 234.3632 
L 351.543747 239.92 
L 352.13937 247.8928 
L 352.734994 243.7856 
L 353.330617 230.0144 
L 353.926241 243.3024 
L 354.521864 230.4976 
L 355.117488 243.544 
L 355.713112 244.0272 
L 356.308735 251.2752 
L 356.904359 237.2624 
L 357.499982 234.1216 
L 358.095606 240.1616 
L 358.691229 231.464 
L 359.286853 241.128 
L 359.882476 234.8464 
L 360.4781 239.6784 
L 361.073724 242.8192 
L 361.669347 244.5104 
L 362.264971 238.9536 
L 362.860594 234.6048 
L 363.456218 244.0272 
L 364.051841 230.0144 
L 364.647465 237.7456 
L 365.243088 239.1952 
L 365.838712 241.128 
L 366.434336 231.2224 
L 367.625583 247.168 
L 368.221206 229.7728 
L 368.81683 235.8128 
L 369.412453 233.3968 
L 370.008077 236.5376 
L 370.6037 234.8464 
L 371.199324 238.9536 
L 371.794948 233.88 
L 372.390571 232.1888 
L 372.986195 241.6112 
L 373.581818 239.4368 
L 373.581818 239.4368 
" clip-path="url(#pce5315315b)" style="fill: none; stroke: #2ca02c; stroke-width: 1.5; stroke-linecap: square"/>
   </g>
   <g id="patch_3">
    <path d="M 54 252 
L 54 34.56 
" style="fill: none; stroke: #000000; stroke-width: 0.8; stroke-linejoin: miter; stroke-linecap: square"/>
   </g>
   <g id="patch_4">
    <path d="M 388.8 252 
L 388.8 34.56 
" style="fill: none; stroke: #000000; stroke-width: 0.8; stroke-linejoin: miter; stroke-linecap: square"/>
   </g>
   <g id="patch_5">
    <path d="M 54 252 
L 388.8 252 
" style="fill: none; stroke: #000000; stroke-width: 0.8; stroke-linejoin: miter; stroke-linecap: square"/>
   </g>
   <g id="patch_6">
    <path d="M 54 34.56 
L 388.8 34.56 
" style="fill: none; stroke: #000000; stroke-width: 0.8; stroke-linejoin: miter; stroke-linecap: square"/>
   </g>
   <g id="text_15">
    <!-- Label 2 normalized -->
    <g transform="translate(164.240625 28.56)scale(0.12 -0.12)">
     <defs>
      <path id="DejaVuSans-4c" d="M 628 4666 
L 1259 4666 
L 1259 531 
L 3531 531 
L 3531 0 
L 628 0 
L 628 4666 
z
" transform="scale(0.015625)"/>
      <path id="DejaVuSans-61" d="M 2194 1759 
Q 1497 1759 1228 1600 
Q 959 1441 959 1056 
Q 959 750 1161 570 
Q 1363 391 1709 391 
Q 2188 391 2477 730 
Q 2766 1069 2766 1631 
L 2766 1759 
L 2194 1759 
z
M 3341 1997 
L 3341 0 
L 2766 0 
L 2766 531 
Q 2569 213 2275 61 
Q 1981 -91 1556 -91 
Q 1019 -91 701 211 
Q 384 513 384 1019 
Q 384 1609 779 1909 
Q 1175 2209 1959 2209 
L 2766 2209 
L 2766 2266 
Q 2766 2663 2505 2880 
Q 2244 3097 1772 3097 
Q 1472 3097 1187 3025 
Q 903 2953 641 2809 
L 641 3341 
Q 956 3463 1253 3523 
Q 1550 3584 1831 3584 
Q 2591 3584 2966 3190 
Q 3341 2797 3341 1997 
z
" transform="scale(0.015625)"/>
      <path id="DejaVuSans-65" d="M 3597 1894 
L 3597 1613 
L 953 1613 
Q 991 1019 1311 708 
Q 1631 397 2203 397 
Q 2534 397 2845 478 
Q 3156 559 3463 722 
L 3463 178 
Q 3153 47 2828 -22 
Q 2503 -91 2169 -91 
Q 1331 -91 842 396 
Q 353 884 353 1716 
Q 353 2575 817 3079 
Q 1281 3584 2069 3584 
Q 2775 3584 3186 3129 
Q 3597 2675 3597 1894 
z
M 3022 2063 
Q 3016 2534 2758 2815 
Q 2500 3097 2075 3097 
Q 1594 3097 1305 2825 
Q 1016 2553 972 2059 
L 3022 2063 
z
" transform="scale(0.015625)"/>
      <path id="DejaVuSans-6c" d="M 603 4863 
L 1178 4863 
L 1178 0 
L 603 0 
L 603 4863 
z
" transform="scale(0.015625)"/>
      <path id="DejaVuSans-20" transform="scale(0.015625)"/>
      <path id="DejaVuSans-72" d="M 2631 2963 
Q 2534 3019 2420 3045 
Q 2306 3072 2169 3072 
Q 1681 3072 1420 2755 
Q 1159 2438 1159 1844 
L 1159 0 
L 581 0 
L 581 3500 
L 1159 3500 
L 1159 2956 
Q 1341 3275 1631 3429 
Q 1922 3584 2338 3584 
Q 2397 3584 2469 3576 
Q 2541 3569 2628 3553 
L 2631 2963 
z
" transform="scale(0.015625)"/>
      <path id="DejaVuSans-6d" d="M 3328 2828 
Q 3544 3216 3844 3400 
Q 4144 3584 4550 3584 
Q 5097 3584 5394 3201 
Q 5691 2819 5691 2113 
L 5691 0 
L 5113 0 
L 5113 2094 
Q 5113 2597 4934 2840 
Q 4756 3084 4391 3084 
Q 3944 3084 3684 2787 
Q 3425 2491 3425 1978 
L 3425 0 
L 2847 0 
L 2847 2094 
Q 2847 2600 2669 2842 
Q 2491 3084 2119 3084 
Q 1678 3084 1418 2786 
Q 1159 2488 1159 1978 
L 1159 0 
L 581 0 
L 581 3500 
L 1159 3500 
L 1159 2956 
Q 1356 3278 1631 3431 
Q 1906 3584 2284 3584 
Q 2666 3584 2933 3390 
Q 3200 3197 3328 2828 
z
" transform="scale(0.015625)"/>
      <path id="DejaVuSans-7a" d="M 353 3500 
L 3084 3500 
L 3084 2975 
L 922 459 
L 3084 459 
L 3084 0 
L 275 0 
L 275 525 
L 2438 3041 
L 353 3041 
L 353 3500 
z
" transform="scale(0.015625)"/>
      <path id="DejaVuSans-64" d="M 2906 2969 
L 2906 4863 
L 3481 4863 
L 3481 0 
L 2906 0 
L 2906 525 
Q 2725 213 2448 61 
Q 2172 -91 1784 -91 
Q 1150 -91 751 415 
Q 353 922 353 1747 
Q 353 2572 751 3078 
Q 1150 3584 1784 3584 
Q 2172 3584 2448 3432 
Q 2725 3281 2906 2969 
z
M 947 1747 
Q 947 1113 1208 752 
Q 1469 391 1925 391 
Q 2381 391 2643 752 
Q 2906 1113 2906 1747 
Q 2906 2381 2643 2742 
Q 2381 3103 1925 3103 
Q 1469 3103 1208 2742 
Q 947 2381 947 1747 
z
" transform="scale(0.015625)"/>
     </defs>
     <use xlink:href="#DejaVuSans-4c"/>
     <use xlink:href="#DejaVuSans-61" x="55.712891"/>
     <use xlink:href="#DejaVuSans-62" x="116.992188"/>
     <use xlink:href="#DejaVuSans-65" x="180.46875"/>
     <use xlink:href="#DejaVuSans-6c" x="241.992188"/>
     <use xlink:href="#DejaVuSans-20" x="269.775391"/>
     <use xlink:href="#DejaVuSans-32" x="301.5625"/>
     <use xlink:href="#DejaVuSans-20" x="365.185547"/>
     <use xlink:href="#DejaVuSans-6e" x="396.972656"/>
     <use xlink:href="#DejaVuSans-6f" x="460.351562"/>
     <use xlink:href="#DejaVuSans-72" x="521.533203"/>
     <use xlink:href="#DejaVuSans-6d" x="560.896484"/>
     <use xlink:href="#DejaVuSans-61" x="658.308594"/>
     <use xlink:href="#DejaVuSans-6c" x="719.587891"/>
     <use xlink:href="#DejaVuSans-69" x="747.371094"/>
     <use xlink:href="#DejaVuSans-7a" x="775.154297"/>
     <use xlink:href="#DejaVuSans-65" x="827.644531"/>
     <use xlink:href="#DejaVuSans-64" x="889.167969"/>
    </g>
   </g>
   <g id="legend_1">
    <g id="patch_7">
     <path d="M 309.070312 101.2725 
L 381.8 101.2725 
Q 383.8 101.2725 383.8 99.2725 
L 383.8 41.56 
Q 383.8 39.56 381.8 39.56 
L 309.070312 39.56 
Q 307.070312 39.56 307.070312 41.56 
L 307.070312 99.2725 
Q 307.070312 101.2725 309.070312 101.2725 
z
" style="fill: #ffffff; opacity: 0.8; stroke: #cccccc; stroke-linejoin: miter"/>
    </g>
    <g id="text_16">
     <!-- Trace number -->
     <g transform="translate(311.070312 51.158437)scale(0.1 -0.1)">
      <defs>
       <path id="DejaVuSans-54" d="M -19 4666 
L 3928 4666 
L 3928 4134 
L 2272 4134 
L 2272 0 
L 1638 0 
L 1638 4134 
L -19 4134 
L -19 4666 
z
" transform="scale(0.015625)"/>
      </defs>
      <use xlink:href="#DejaVuSans-54"/>
      <use xlink:href="#DejaVuSans-72" x="46.333984"/>
      <use xlink:href="#DejaVuSans-61" x="87.447266"/>
      <use xlink:href="#DejaVuSans-63" x="148.726562"/>
      <use xlink:href="#DejaVuSans-65" x="203.707031"/>
      <use xlink:href="#DejaVuSans-20" x="265.230469"/>
      <use xlink:href="#DejaVuSans-6e" x="297.017578"/>
      <use xlink:href="#DejaVuSans-75" x="360.396484"/>
      <use xlink:href="#DejaVuSans-6d" x="423.775391"/>
      <use xlink:href="#DejaVuSans-62" x="521.1875"/>
      <use xlink:href="#DejaVuSans-65" x="584.664062"/>
      <use xlink:href="#DejaVuSans-72" x="646.1875"/>
     </g>
    </g>
    <g id="line2d_28">
     <path d="M 325.072656 62.336562 
L 335.072656 62.336562 
L 345.072656 62.336562 
" style="fill: none; stroke: #1f77b4; stroke-width: 1.5; stroke-linecap: square"/>
    </g>
    <g id="text_17">
     <!-- 17 -->
     <g transform="translate(353.072656 65.836562)scale(0.1 -0.1)">
      <defs>
       <path id="DejaVuSans-37" d="M 525 4666 
L 3525 4666 
L 3525 4397 
L 1831 0 
L 1172 0 
L 2766 4134 
L 525 4134 
L 525 4666 
z
" transform="scale(0.015625)"/>
      </defs>
      <use xlink:href="#DejaVuSans-31"/>
      <use xlink:href="#DejaVuSans-37" x="63.623047"/>
     </g>
    </g>
    <g id="line2d_29">
     <path d="M 325.072656 77.014687 
L 335.072656 77.014687 
L 345.072656 77.014687 
" style="fill: none; stroke: #ff7f0e; stroke-width: 1.5; stroke-linecap: square"/>
    </g>
    <g id="text_18">
     <!-- 20 -->
     <g transform="translate(353.072656 80.514687)scale(0.1 -0.1)">
      <use xlink:href="#DejaVuSans-32"/>
      <use xlink:href="#DejaVuSans-30" x="63.623047"/>
     </g>
    </g>
    <g id="line2d_30">
     <path d="M 325.072656 91.692813 
L 335.072656 91.692813 
L 345.072656 91.692813 
" style="fill: none; stroke: #2ca02c; stroke-width: 1.5; stroke-linecap: square"/>
    </g>
    <g id="text_19">
     <!-- 32 -->
     <g transform="translate(353.072656 95.192813)scale(0.1 -0.1)">
      <use xlink:href="#DejaVuSans-33"/>
      <use xlink:href="#DejaVuSans-32" x="63.623047"/>
     </g>
    </g>
   </g>
  </g>
 </g>
 <defs>
  <clipPath id="pce5315315b">
   <rect x="54" y="34.56" width="334.8" height="217.44"/>
  </clipPath>
 </defs>
</svg>
