<?xml version="1.0" encoding="utf-8" standalone="no"?>
<!DOCTYPE svg PUBLIC "-//W3C//DTD SVG 1.1//EN"
  "http://www.w3.org/Graphics/SVG/1.1/DTD/svg11.dtd">
<svg xmlns:xlink="http://www.w3.org/1999/xlink" width="432pt" height="288pt" viewBox="0 0 432 288" xmlns="http://www.w3.org/2000/svg" version="1.1">
 <metadata>
  <rdf:RDF xmlns:dc="http://purl.org/dc/elements/1.1/" xmlns:cc="http://creativecommons.org/ns#" xmlns:rdf="http://www.w3.org/1999/02/22-rdf-syntax-ns#">
   <cc:Work>
    <dc:type rdf:resource="http://purl.org/dc/dcmitype/StillImage"/>
    <dc:date>2022-03-30T13:16:46.258638</dc:date>
    <dc:format>image/svg+xml</dc:format>
    <dc:creator>
     <cc:Agent>
      <dc:title>Matplotlib v3.5.1, https://matplotlib.org/</dc:title>
     </cc:Agent>
    </dc:creator>
   </cc:Work>
  </rdf:RDF>
 </metadata>
 <defs>
  <style type="text/css">*{stroke-linejoin: round; stroke-linecap: butt}</style>
 </defs>
 <g id="figure_1">
  <g id="patch_1">
   <path d="M 0 288 
L 432 288 
L 432 0 
L 0 0 
z
" style="fill: #ffffff"/>
  </g>
  <g id="axes_1">
   <g id="patch_2">
    <path d="M 54 252 
L 388.8 252 
L 388.8 34.56 
L 54 34.56 
z
" style="fill: #ffffff"/>
   </g>
   <g id="matplotlib.axis_1">
    <g id="xtick_1">
     <g id="line2d_1">
      <path d="M 69.218182 252 
L 69.218182 34.56 
" clip-path="url(#p530a9b4714)" style="fill: none; stroke: #b0b0b0; stroke-width: 0.8; stroke-linecap: square"/>
     </g>
     <g id="line2d_2">
      <defs>
       <path id="md5bfc5ea6f" d="M 0 0 
L 0 3.5 
" style="stroke: #000000; stroke-width: 0.8"/>
      </defs>
      <g>
       <use xlink:href="#md5bfc5ea6f" x="69.218182" y="252" style="stroke: #000000; stroke-width: 0.8"/>
      </g>
     </g>
     <g id="text_1">
      <!-- 0 -->
      <g transform="translate(66.036932 266.598437)scale(0.1 -0.1)">
       <defs>
        <path id="DejaVuSans-30" d="M 2034 4250 
Q 1547 4250 1301 3770 
Q 1056 3291 1056 2328 
Q 1056 1369 1301 889 
Q 1547 409 2034 409 
Q 2525 409 2770 889 
Q 3016 1369 3016 2328 
Q 3016 3291 2770 3770 
Q 2525 4250 2034 4250 
z
M 2034 4750 
Q 2819 4750 3233 4129 
Q 3647 3509 3647 2328 
Q 3647 1150 3233 529 
Q 2819 -91 2034 -91 
Q 1250 -91 836 529 
Q 422 1150 422 2328 
Q 422 3509 836 4129 
Q 1250 4750 2034 4750 
z
" transform="scale(0.015625)"/>
       </defs>
       <use xlink:href="#DejaVuSans-30"/>
      </g>
     </g>
    </g>
    <g id="xtick_2">
     <g id="line2d_3">
      <path d="M 128.780537 252 
L 128.780537 34.56 
" clip-path="url(#p530a9b4714)" style="fill: none; stroke: #b0b0b0; stroke-width: 0.8; stroke-linecap: square"/>
     </g>
     <g id="line2d_4">
      <g>
       <use xlink:href="#md5bfc5ea6f" x="128.780537" y="252" style="stroke: #000000; stroke-width: 0.8"/>
      </g>
     </g>
     <g id="text_2">
      <!-- 100 -->
      <g transform="translate(119.236787 266.598437)scale(0.1 -0.1)">
       <defs>
        <path id="DejaVuSans-31" d="M 794 531 
L 1825 531 
L 1825 4091 
L 703 3866 
L 703 4441 
L 1819 4666 
L 2450 4666 
L 2450 531 
L 3481 531 
L 3481 0 
L 794 0 
L 794 531 
z
" transform="scale(0.015625)"/>
       </defs>
       <use xlink:href="#DejaVuSans-31"/>
       <use xlink:href="#DejaVuSans-30" x="63.623047"/>
       <use xlink:href="#DejaVuSans-30" x="127.246094"/>
      </g>
     </g>
    </g>
    <g id="xtick_3">
     <g id="line2d_5">
      <path d="M 188.342893 252 
L 188.342893 34.56 
" clip-path="url(#p530a9b4714)" style="fill: none; stroke: #b0b0b0; stroke-width: 0.8; stroke-linecap: square"/>
     </g>
     <g id="line2d_6">
      <g>
       <use xlink:href="#md5bfc5ea6f" x="188.342893" y="252" style="stroke: #000000; stroke-width: 0.8"/>
      </g>
     </g>
     <g id="text_3">
      <!-- 200 -->
      <g transform="translate(178.799143 266.598437)scale(0.1 -0.1)">
       <defs>
        <path id="DejaVuSans-32" d="M 1228 531 
L 3431 531 
L 3431 0 
L 469 0 
L 469 531 
Q 828 903 1448 1529 
Q 2069 2156 2228 2338 
Q 2531 2678 2651 2914 
Q 2772 3150 2772 3378 
Q 2772 3750 2511 3984 
Q 2250 4219 1831 4219 
Q 1534 4219 1204 4116 
Q 875 4013 500 3803 
L 500 4441 
Q 881 4594 1212 4672 
Q 1544 4750 1819 4750 
Q 2544 4750 2975 4387 
Q 3406 4025 3406 3419 
Q 3406 3131 3298 2873 
Q 3191 2616 2906 2266 
Q 2828 2175 2409 1742 
Q 1991 1309 1228 531 
z
" transform="scale(0.015625)"/>
       </defs>
       <use xlink:href="#DejaVuSans-32"/>
       <use xlink:href="#DejaVuSans-30" x="63.623047"/>
       <use xlink:href="#DejaVuSans-30" x="127.246094"/>
      </g>
     </g>
    </g>
    <g id="xtick_4">
     <g id="line2d_7">
      <path d="M 247.905248 252 
L 247.905248 34.56 
" clip-path="url(#p530a9b4714)" style="fill: none; stroke: #b0b0b0; stroke-width: 0.8; stroke-linecap: square"/>
     </g>
     <g id="line2d_8">
      <g>
       <use xlink:href="#md5bfc5ea6f" x="247.905248" y="252" style="stroke: #000000; stroke-width: 0.8"/>
      </g>
     </g>
     <g id="text_4">
      <!-- 300 -->
      <g transform="translate(238.361498 266.598437)scale(0.1 -0.1)">
       <defs>
        <path id="DejaVuSans-33" d="M 2597 2516 
Q 3050 2419 3304 2112 
Q 3559 1806 3559 1356 
Q 3559 666 3084 287 
Q 2609 -91 1734 -91 
Q 1441 -91 1130 -33 
Q 819 25 488 141 
L 488 750 
Q 750 597 1062 519 
Q 1375 441 1716 441 
Q 2309 441 2620 675 
Q 2931 909 2931 1356 
Q 2931 1769 2642 2001 
Q 2353 2234 1838 2234 
L 1294 2234 
L 1294 2753 
L 1863 2753 
Q 2328 2753 2575 2939 
Q 2822 3125 2822 3475 
Q 2822 3834 2567 4026 
Q 2313 4219 1838 4219 
Q 1578 4219 1281 4162 
Q 984 4106 628 3988 
L 628 4550 
Q 988 4650 1302 4700 
Q 1616 4750 1894 4750 
Q 2613 4750 3031 4423 
Q 3450 4097 3450 3541 
Q 3450 3153 3228 2886 
Q 3006 2619 2597 2516 
z
" transform="scale(0.015625)"/>
       </defs>
       <use xlink:href="#DejaVuSans-33"/>
       <use xlink:href="#DejaVuSans-30" x="63.623047"/>
       <use xlink:href="#DejaVuSans-30" x="127.246094"/>
      </g>
     </g>
    </g>
    <g id="xtick_5">
     <g id="line2d_9">
      <path d="M 307.467604 252 
L 307.467604 34.56 
" clip-path="url(#p530a9b4714)" style="fill: none; stroke: #b0b0b0; stroke-width: 0.8; stroke-linecap: square"/>
     </g>
     <g id="line2d_10">
      <g>
       <use xlink:href="#md5bfc5ea6f" x="307.467604" y="252" style="stroke: #000000; stroke-width: 0.8"/>
      </g>
     </g>
     <g id="text_5">
      <!-- 400 -->
      <g transform="translate(297.923854 266.598437)scale(0.1 -0.1)">
       <defs>
        <path id="DejaVuSans-34" d="M 2419 4116 
L 825 1625 
L 2419 1625 
L 2419 4116 
z
M 2253 4666 
L 3047 4666 
L 3047 1625 
L 3713 1625 
L 3713 1100 
L 3047 1100 
L 3047 0 
L 2419 0 
L 2419 1100 
L 313 1100 
L 313 1709 
L 2253 4666 
z
" transform="scale(0.015625)"/>
       </defs>
       <use xlink:href="#DejaVuSans-34"/>
       <use xlink:href="#DejaVuSans-30" x="63.623047"/>
       <use xlink:href="#DejaVuSans-30" x="127.246094"/>
      </g>
     </g>
    </g>
    <g id="xtick_6">
     <g id="line2d_11">
      <path d="M 367.029959 252 
L 367.029959 34.56 
" clip-path="url(#p530a9b4714)" style="fill: none; stroke: #b0b0b0; stroke-width: 0.8; stroke-linecap: square"/>
     </g>
     <g id="line2d_12">
      <g>
       <use xlink:href="#md5bfc5ea6f" x="367.029959" y="252" style="stroke: #000000; stroke-width: 0.8"/>
      </g>
     </g>
     <g id="text_6">
      <!-- 500 -->
      <g transform="translate(357.486209 266.598437)scale(0.1 -0.1)">
       <defs>
        <path id="DejaVuSans-35" d="M 691 4666 
L 3169 4666 
L 3169 4134 
L 1269 4134 
L 1269 2991 
Q 1406 3038 1543 3061 
Q 1681 3084 1819 3084 
Q 2600 3084 3056 2656 
Q 3513 2228 3513 1497 
Q 3513 744 3044 326 
Q 2575 -91 1722 -91 
Q 1428 -91 1123 -41 
Q 819 9 494 109 
L 494 744 
Q 775 591 1075 516 
Q 1375 441 1709 441 
Q 2250 441 2565 725 
Q 2881 1009 2881 1497 
Q 2881 1984 2565 2268 
Q 2250 2553 1709 2553 
Q 1456 2553 1204 2497 
Q 953 2441 691 2322 
L 691 4666 
z
" transform="scale(0.015625)"/>
       </defs>
       <use xlink:href="#DejaVuSans-35"/>
       <use xlink:href="#DejaVuSans-30" x="63.623047"/>
       <use xlink:href="#DejaVuSans-30" x="127.246094"/>
      </g>
     </g>
    </g>
    <g id="text_7">
     <!-- bin -->
     <g transform="translate(213.667969 280.276563)scale(0.1 -0.1)">
      <defs>
       <path id="DejaVuSans-62" d="M 3116 1747 
Q 3116 2381 2855 2742 
Q 2594 3103 2138 3103 
Q 1681 3103 1420 2742 
Q 1159 2381 1159 1747 
Q 1159 1113 1420 752 
Q 1681 391 2138 391 
Q 2594 391 2855 752 
Q 3116 1113 3116 1747 
z
M 1159 2969 
Q 1341 3281 1617 3432 
Q 1894 3584 2278 3584 
Q 2916 3584 3314 3078 
Q 3713 2572 3713 1747 
Q 3713 922 3314 415 
Q 2916 -91 2278 -91 
Q 1894 -91 1617 61 
Q 1341 213 1159 525 
L 1159 0 
L 581 0 
L 581 4863 
L 1159 4863 
L 1159 2969 
z
" transform="scale(0.015625)"/>
       <path id="DejaVuSans-69" d="M 603 3500 
L 1178 3500 
L 1178 0 
L 603 0 
L 603 3500 
z
M 603 4863 
L 1178 4863 
L 1178 4134 
L 603 4134 
L 603 4863 
z
" transform="scale(0.015625)"/>
       <path id="DejaVuSans-6e" d="M 3513 2113 
L 3513 0 
L 2938 0 
L 2938 2094 
Q 2938 2591 2744 2837 
Q 2550 3084 2163 3084 
Q 1697 3084 1428 2787 
Q 1159 2491 1159 1978 
L 1159 0 
L 581 0 
L 581 3500 
L 1159 3500 
L 1159 2956 
Q 1366 3272 1645 3428 
Q 1925 3584 2291 3584 
Q 2894 3584 3203 3211 
Q 3513 2838 3513 2113 
z
" transform="scale(0.015625)"/>
      </defs>
      <use xlink:href="#DejaVuSans-62"/>
      <use xlink:href="#DejaVuSans-69" x="63.476562"/>
      <use xlink:href="#DejaVuSans-6e" x="91.259766"/>
     </g>
    </g>
   </g>
   <g id="matplotlib.axis_2">
    <g id="ytick_1">
     <g id="line2d_13">
      <path d="M 54 252 
L 388.8 252 
" clip-path="url(#p530a9b4714)" style="fill: none; stroke: #b0b0b0; stroke-width: 0.8; stroke-linecap: square"/>
     </g>
     <g id="line2d_14">
      <defs>
       <path id="m0b786b34c0" d="M 0 0 
L -3.5 0 
" style="stroke: #000000; stroke-width: 0.8"/>
      </defs>
      <g>
       <use xlink:href="#m0b786b34c0" x="54" y="252" style="stroke: #000000; stroke-width: 0.8"/>
      </g>
     </g>
     <g id="text_8">
      <!-- 0.0 -->
      <g transform="translate(31.096875 255.799219)scale(0.1 -0.1)">
       <defs>
        <path id="DejaVuSans-2e" d="M 684 794 
L 1344 794 
L 1344 0 
L 684 0 
L 684 794 
z
" transform="scale(0.015625)"/>
       </defs>
       <use xlink:href="#DejaVuSans-30"/>
       <use xlink:href="#DejaVuSans-2e" x="63.623047"/>
       <use xlink:href="#DejaVuSans-30" x="95.410156"/>
      </g>
     </g>
    </g>
    <g id="ytick_2">
     <g id="line2d_15">
      <path d="M 54 208.512 
L 388.8 208.512 
" clip-path="url(#p530a9b4714)" style="fill: none; stroke: #b0b0b0; stroke-width: 0.8; stroke-linecap: square"/>
     </g>
     <g id="line2d_16">
      <g>
       <use xlink:href="#m0b786b34c0" x="54" y="208.512" style="stroke: #000000; stroke-width: 0.8"/>
      </g>
     </g>
     <g id="text_9">
      <!-- 0.2 -->
      <g transform="translate(31.096875 212.311219)scale(0.1 -0.1)">
       <use xlink:href="#DejaVuSans-30"/>
       <use xlink:href="#DejaVuSans-2e" x="63.623047"/>
       <use xlink:href="#DejaVuSans-32" x="95.410156"/>
      </g>
     </g>
    </g>
    <g id="ytick_3">
     <g id="line2d_17">
      <path d="M 54 165.024 
L 388.8 165.024 
" clip-path="url(#p530a9b4714)" style="fill: none; stroke: #b0b0b0; stroke-width: 0.8; stroke-linecap: square"/>
     </g>
     <g id="line2d_18">
      <g>
       <use xlink:href="#m0b786b34c0" x="54" y="165.024" style="stroke: #000000; stroke-width: 0.8"/>
      </g>
     </g>
     <g id="text_10">
      <!-- 0.4 -->
      <g transform="translate(31.096875 168.823219)scale(0.1 -0.1)">
       <use xlink:href="#DejaVuSans-30"/>
       <use xlink:href="#DejaVuSans-2e" x="63.623047"/>
       <use xlink:href="#DejaVuSans-34" x="95.410156"/>
      </g>
     </g>
    </g>
    <g id="ytick_4">
     <g id="line2d_19">
      <path d="M 54 121.536 
L 388.8 121.536 
" clip-path="url(#p530a9b4714)" style="fill: none; stroke: #b0b0b0; stroke-width: 0.8; stroke-linecap: square"/>
     </g>
     <g id="line2d_20">
      <g>
       <use xlink:href="#m0b786b34c0" x="54" y="121.536" style="stroke: #000000; stroke-width: 0.8"/>
      </g>
     </g>
     <g id="text_11">
      <!-- 0.6 -->
      <g transform="translate(31.096875 125.335219)scale(0.1 -0.1)">
       <defs>
        <path id="DejaVuSans-36" d="M 2113 2584 
Q 1688 2584 1439 2293 
Q 1191 2003 1191 1497 
Q 1191 994 1439 701 
Q 1688 409 2113 409 
Q 2538 409 2786 701 
Q 3034 994 3034 1497 
Q 3034 2003 2786 2293 
Q 2538 2584 2113 2584 
z
M 3366 4563 
L 3366 3988 
Q 3128 4100 2886 4159 
Q 2644 4219 2406 4219 
Q 1781 4219 1451 3797 
Q 1122 3375 1075 2522 
Q 1259 2794 1537 2939 
Q 1816 3084 2150 3084 
Q 2853 3084 3261 2657 
Q 3669 2231 3669 1497 
Q 3669 778 3244 343 
Q 2819 -91 2113 -91 
Q 1303 -91 875 529 
Q 447 1150 447 2328 
Q 447 3434 972 4092 
Q 1497 4750 2381 4750 
Q 2619 4750 2861 4703 
Q 3103 4656 3366 4563 
z
" transform="scale(0.015625)"/>
       </defs>
       <use xlink:href="#DejaVuSans-30"/>
       <use xlink:href="#DejaVuSans-2e" x="63.623047"/>
       <use xlink:href="#DejaVuSans-36" x="95.410156"/>
      </g>
     </g>
    </g>
    <g id="ytick_5">
     <g id="line2d_21">
      <path d="M 54 78.048 
L 388.8 78.048 
" clip-path="url(#p530a9b4714)" style="fill: none; stroke: #b0b0b0; stroke-width: 0.8; stroke-linecap: square"/>
     </g>
     <g id="line2d_22">
      <g>
       <use xlink:href="#m0b786b34c0" x="54" y="78.048" style="stroke: #000000; stroke-width: 0.8"/>
      </g>
     </g>
     <g id="text_12">
      <!-- 0.8 -->
      <g transform="translate(31.096875 81.847219)scale(0.1 -0.1)">
       <defs>
        <path id="DejaVuSans-38" d="M 2034 2216 
Q 1584 2216 1326 1975 
Q 1069 1734 1069 1313 
Q 1069 891 1326 650 
Q 1584 409 2034 409 
Q 2484 409 2743 651 
Q 3003 894 3003 1313 
Q 3003 1734 2745 1975 
Q 2488 2216 2034 2216 
z
M 1403 2484 
Q 997 2584 770 2862 
Q 544 3141 544 3541 
Q 544 4100 942 4425 
Q 1341 4750 2034 4750 
Q 2731 4750 3128 4425 
Q 3525 4100 3525 3541 
Q 3525 3141 3298 2862 
Q 3072 2584 2669 2484 
Q 3125 2378 3379 2068 
Q 3634 1759 3634 1313 
Q 3634 634 3220 271 
Q 2806 -91 2034 -91 
Q 1263 -91 848 271 
Q 434 634 434 1313 
Q 434 1759 690 2068 
Q 947 2378 1403 2484 
z
M 1172 3481 
Q 1172 3119 1398 2916 
Q 1625 2713 2034 2713 
Q 2441 2713 2670 2916 
Q 2900 3119 2900 3481 
Q 2900 3844 2670 4047 
Q 2441 4250 2034 4250 
Q 1625 4250 1398 4047 
Q 1172 3844 1172 3481 
z
" transform="scale(0.015625)"/>
       </defs>
       <use xlink:href="#DejaVuSans-30"/>
       <use xlink:href="#DejaVuSans-2e" x="63.623047"/>
       <use xlink:href="#DejaVuSans-38" x="95.410156"/>
      </g>
     </g>
    </g>
    <g id="ytick_6">
     <g id="line2d_23">
      <path d="M 54 34.56 
L 388.8 34.56 
" clip-path="url(#p530a9b4714)" style="fill: none; stroke: #b0b0b0; stroke-width: 0.8; stroke-linecap: square"/>
     </g>
     <g id="line2d_24">
      <g>
       <use xlink:href="#m0b786b34c0" x="54" y="34.56" style="stroke: #000000; stroke-width: 0.8"/>
      </g>
     </g>
     <g id="text_13">
      <!-- 1.0 -->
      <g transform="translate(31.096875 38.359219)scale(0.1 -0.1)">
       <use xlink:href="#DejaVuSans-31"/>
       <use xlink:href="#DejaVuSans-2e" x="63.623047"/>
       <use xlink:href="#DejaVuSans-30" x="95.410156"/>
      </g>
     </g>
    </g>
    <g id="text_14">
     <!-- count -->
     <g transform="translate(25.017187 157.38625)rotate(-90)scale(0.1 -0.1)">
      <defs>
       <path id="DejaVuSans-63" d="M 3122 3366 
L 3122 2828 
Q 2878 2963 2633 3030 
Q 2388 3097 2138 3097 
Q 1578 3097 1268 2742 
Q 959 2388 959 1747 
Q 959 1106 1268 751 
Q 1578 397 2138 397 
Q 2388 397 2633 464 
Q 2878 531 3122 666 
L 3122 134 
Q 2881 22 2623 -34 
Q 2366 -91 2075 -91 
Q 1284 -91 818 406 
Q 353 903 353 1747 
Q 353 2603 823 3093 
Q 1294 3584 2113 3584 
Q 2378 3584 2631 3529 
Q 2884 3475 3122 3366 
z
" transform="scale(0.015625)"/>
       <path id="DejaVuSans-6f" d="M 1959 3097 
Q 1497 3097 1228 2736 
Q 959 2375 959 1747 
Q 959 1119 1226 758 
Q 1494 397 1959 397 
Q 2419 397 2687 759 
Q 2956 1122 2956 1747 
Q 2956 2369 2687 2733 
Q 2419 3097 1959 3097 
z
M 1959 3584 
Q 2709 3584 3137 3096 
Q 3566 2609 3566 1747 
Q 3566 888 3137 398 
Q 2709 -91 1959 -91 
Q 1206 -91 779 398 
Q 353 888 353 1747 
Q 353 2609 779 3096 
Q 1206 3584 1959 3584 
z
" transform="scale(0.015625)"/>
       <path id="DejaVuSans-75" d="M 544 1381 
L 544 3500 
L 1119 3500 
L 1119 1403 
Q 1119 906 1312 657 
Q 1506 409 1894 409 
Q 2359 409 2629 706 
Q 2900 1003 2900 1516 
L 2900 3500 
L 3475 3500 
L 3475 0 
L 2900 0 
L 2900 538 
Q 2691 219 2414 64 
Q 2138 -91 1772 -91 
Q 1169 -91 856 284 
Q 544 659 544 1381 
z
M 1991 3584 
L 1991 3584 
z
" transform="scale(0.015625)"/>
       <path id="DejaVuSans-74" d="M 1172 4494 
L 1172 3500 
L 2356 3500 
L 2356 3053 
L 1172 3053 
L 1172 1153 
Q 1172 725 1289 603 
Q 1406 481 1766 481 
L 2356 481 
L 2356 0 
L 1766 0 
Q 1100 0 847 248 
Q 594 497 594 1153 
L 594 3053 
L 172 3053 
L 172 3500 
L 594 3500 
L 594 4494 
L 1172 4494 
z
" transform="scale(0.015625)"/>
      </defs>
      <use xlink:href="#DejaVuSans-63"/>
      <use xlink:href="#DejaVuSans-6f" x="54.980469"/>
      <use xlink:href="#DejaVuSans-75" x="116.162109"/>
      <use xlink:href="#DejaVuSans-6e" x="179.541016"/>
      <use xlink:href="#DejaVuSans-74" x="242.919922"/>
     </g>
    </g>
   </g>
   <g id="line2d_25">
    <path d="M 69.218182 246.943256 
L 69.813805 224.187907 
L 70.409429 215.76 
L 71.005052 230.087442 
L 71.600676 221.659535 
L 72.1963 203.96093 
L 72.791923 191.31907 
L 73.387547 224.187907 
L 73.98317 233.458605 
L 75.174417 192.16186 
L 75.770041 225.873488 
L 76.365664 221.659535 
L 76.961288 233.458605 
L 77.556912 207.332093 
L 78.152535 223.345116 
L 78.748159 229.244651 
L 79.343782 214.917209 
L 80.535029 211.546047 
L 81.130653 214.917209 
L 81.726276 219.131163 
L 82.3219 230.930233 
L 82.917524 205.646512 
L 83.513147 228.40186 
L 84.108771 235.986977 
L 84.704394 187.947907 
L 85.300018 235.986977 
L 85.895641 230.087442 
L 86.491265 235.986977 
L 87.086888 211.546047 
L 87.682512 201.432558 
L 88.278136 219.973953 
L 88.873759 214.917209 
L 89.469383 214.074419 
L 90.065006 219.973953 
L 90.66063 238.515349 
L 91.256253 235.986977 
L 91.851877 219.973953 
L 92.4475 215.76 
L 93.043124 217.445581 
L 93.638748 210.703256 
L 94.234371 216.602791 
L 94.829995 237.672558 
L 95.425618 219.973953 
L 96.021242 217.445581 
L 96.616865 215.76 
L 97.212489 248.628837 
L 98.403736 206.489302 
L 98.99936 224.187907 
L 100.190607 217.445581 
L 100.78623 217.445581 
L 101.381854 211.546047 
L 101.977477 218.288372 
L 102.573101 214.074419 
L 103.168724 218.288372 
L 103.764348 225.873488 
L 104.359972 243.572093 
L 104.955595 222.502326 
L 105.551219 233.458605 
L 106.146842 202.275349 
L 106.742466 210.703256 
L 107.338089 201.432558 
L 107.933713 237.672558 
L 108.529336 202.275349 
L 109.12496 224.187907 
L 109.720584 230.930233 
L 110.316207 214.917209 
L 110.911831 205.646512 
L 111.507454 243.572093 
L 112.103078 242.729302 
L 112.698701 232.615814 
L 113.294325 209.860465 
L 113.889948 213.231628 
L 114.485572 230.087442 
L 115.081196 235.144186 
L 115.676819 219.973953 
L 116.272443 243.572093 
L 117.46369 231.773023 
L 118.059313 214.917209 
L 118.654937 213.231628 
L 119.25056 232.615814 
L 119.846184 227.55907 
L 120.441808 203.96093 
L 121.037431 207.332093 
L 121.633055 230.087442 
L 122.228678 211.546047 
L 122.824302 240.20093 
L 124.015549 225.873488 
L 124.611172 214.917209 
L 125.802419 187.947907 
L 126.993667 234.301395 
L 127.58929 235.986977 
L 128.184914 225.873488 
L 128.780537 231.773023 
L 129.376161 234.301395 
L 129.971784 219.131163 
L 130.567408 215.76 
L 131.163031 229.244651 
L 131.758655 214.074419 
L 132.354279 244.414884 
L 132.949902 249.471628 
L 133.545526 227.55907 
L 134.141149 225.030698 
L 134.736773 219.973953 
L 135.332396 207.332093 
L 135.92802 224.187907 
L 136.523643 224.187907 
L 137.119267 216.602791 
L 137.714891 231.773023 
L 138.310514 210.703256 
L 138.906138 230.087442 
L 139.501761 217.445581 
L 140.097385 238.515349 
L 140.693008 235.986977 
L 141.288632 225.030698 
L 141.884255 224.187907 
L 142.479879 226.716279 
L 143.075503 241.886512 
L 143.671126 217.445581 
L 144.26675 238.515349 
L 145.457997 220.816744 
L 146.05362 220.816744 
L 146.649244 221.659535 
L 147.244867 219.973953 
L 147.840491 227.55907 
L 148.436115 228.40186 
L 149.031738 205.646512 
L 149.627362 241.043721 
L 150.222985 214.074419 
L 150.818609 224.187907 
L 151.414232 226.716279 
L 152.009856 234.301395 
L 152.605479 219.973953 
L 153.201103 244.414884 
L 153.796727 236.829767 
L 154.39235 208.174884 
L 154.987974 222.502326 
L 155.583597 213.231628 
L 156.179221 238.515349 
L 156.774844 226.716279 
L 157.370468 209.017674 
L 158.561715 228.40186 
L 159.157339 241.886512 
L 159.752962 214.917209 
L 160.348586 224.187907 
L 161.539833 227.55907 
L 162.135456 228.40186 
L 162.73108 221.659535 
L 163.326703 204.803721 
L 163.922327 224.187907 
L 164.517951 190.476279 
L 165.113574 240.20093 
L 165.709198 214.917209 
L 166.304821 238.515349 
L 166.900445 234.301395 
L 167.496068 234.301395 
L 168.091692 245.257674 
L 168.687315 241.886512 
L 169.282939 225.873488 
L 169.878563 238.515349 
L 170.474186 222.502326 
L 171.06981 211.546047 
L 171.665433 230.087442 
L 172.261057 225.873488 
L 172.85668 219.973953 
L 173.452304 221.659535 
L 174.047927 241.886512 
L 174.643551 222.502326 
L 175.239175 227.55907 
L 175.834798 218.288372 
L 176.430422 237.672558 
L 177.026045 213.231628 
L 177.621669 221.659535 
L 178.217292 226.716279 
L 178.812916 236.829767 
L 179.408539 219.131163 
L 180.004163 212.388837 
L 180.599787 218.288372 
L 181.19541 221.659535 
L 181.791034 242.729302 
L 182.982281 209.017674 
L 183.577904 220.816744 
L 184.173528 222.502326 
L 184.769151 228.40186 
L 185.364775 217.445581 
L 185.960399 223.345116 
L 186.556022 212.388837 
L 187.151646 214.074419 
L 187.747269 203.11814 
L 188.342893 230.087442 
L 188.938516 214.074419 
L 189.53414 211.546047 
L 190.129763 226.716279 
L 190.725387 209.017674 
L 191.32101 239.35814 
L 192.512258 217.445581 
L 193.107881 217.445581 
L 193.703505 214.074419 
L 194.299128 187.947907 
L 194.894752 230.930233 
L 195.490375 241.886512 
L 196.085999 221.659535 
L 196.681622 226.716279 
L 197.277246 213.231628 
L 197.87287 237.672558 
L 198.468493 250.314419 
L 199.064117 252 
L 199.65974 211.546047 
L 200.255364 239.35814 
L 200.850987 195.533023 
L 201.446611 190.476279 
L 202.042234 225.873488 
L 202.637858 209.017674 
L 203.233482 235.144186 
L 203.829105 230.087442 
L 204.424729 207.332093 
L 205.020352 202.275349 
L 205.615976 219.131163 
L 206.211599 206.489302 
L 206.807223 225.030698 
L 207.99847 216.602791 
L 208.594094 195.533023 
L 209.189717 198.061395 
L 209.785341 218.288372 
L 210.380964 209.860465 
L 210.976588 166.035349 
L 211.572211 34.56 
L 212.167835 80.913488 
L 212.763458 191.31907 
L 213.359082 227.55907 
L 213.954706 213.231628 
L 214.550329 217.445581 
L 215.145953 229.244651 
L 215.741576 219.973953 
L 216.3372 201.432558 
L 216.932823 231.773023 
L 217.528447 202.275349 
L 218.12407 225.873488 
L 218.719694 215.76 
L 219.315318 193.004651 
L 220.506565 220.816744 
L 221.102188 221.659535 
L 221.697812 229.244651 
L 222.293435 217.445581 
L 223.484682 240.20093 
L 224.080306 218.288372 
L 224.67593 230.930233 
L 225.271553 203.11814 
L 225.867177 224.187907 
L 226.4628 221.659535 
L 227.058424 205.646512 
L 228.249671 241.043721 
L 228.845294 192.16186 
L 229.440918 222.502326 
L 230.036542 219.973953 
L 230.632165 203.96093 
L 231.227789 219.131163 
L 232.419036 224.187907 
L 233.014659 219.131163 
L 233.610283 218.288372 
L 234.205906 223.345116 
L 234.80153 223.345116 
L 235.397154 245.257674 
L 235.992777 234.301395 
L 236.588401 237.672558 
L 237.184024 223.345116 
L 237.779648 215.76 
L 238.375271 222.502326 
L 238.970895 219.973953 
L 239.566518 230.930233 
L 240.162142 219.131163 
L 240.757766 219.973953 
L 241.353389 215.76 
L 241.949013 220.816744 
L 242.544636 241.043721 
L 243.14026 241.043721 
L 243.735883 207.332093 
L 244.331507 230.930233 
L 244.92713 202.275349 
L 245.522754 205.646512 
L 246.118378 243.572093 
L 246.714001 213.231628 
L 247.309625 234.301395 
L 247.905248 230.087442 
L 248.500872 214.917209 
L 249.692119 209.860465 
L 250.287742 218.288372 
L 250.883366 203.96093 
L 251.47899 210.703256 
L 252.074613 211.546047 
L 252.670237 193.004651 
L 253.26586 236.829767 
L 253.861484 203.96093 
L 254.457107 235.144186 
L 255.052731 225.030698 
L 255.648354 224.187907 
L 256.243978 204.803721 
L 256.839601 225.873488 
L 257.435225 241.043721 
L 258.030849 227.55907 
L 258.626472 204.803721 
L 259.222096 225.873488 
L 259.817719 207.332093 
L 260.413343 212.388837 
L 261.008966 239.35814 
L 262.200213 200.589767 
L 262.795837 217.445581 
L 263.391461 212.388837 
L 263.987084 221.659535 
L 264.582708 222.502326 
L 265.178331 221.659535 
L 265.773955 232.615814 
L 266.369578 246.100465 
L 266.965202 218.288372 
L 267.560825 215.76 
L 268.156449 208.174884 
L 268.752073 222.502326 
L 269.347696 243.572093 
L 269.94332 241.886512 
L 270.538943 218.288372 
L 271.134567 238.515349 
L 271.73019 224.187907 
L 272.325814 232.615814 
L 272.921437 208.174884 
L 273.517061 221.659535 
L 274.112685 241.886512 
L 274.708308 233.458605 
L 275.303932 203.96093 
L 275.899555 209.860465 
L 276.495179 225.873488 
L 278.282049 121.367442 
L 278.877673 110.411163 
L 279.473297 85.127442 
L 280.664544 51.415814 
L 281.260167 79.227907 
L 281.855791 98.612093 
L 282.451414 134.852093 
L 283.047038 191.31907 
L 283.642661 198.061395 
L 284.238285 172.777674 
L 284.833909 221.659535 
L 285.429532 238.515349 
L 286.025156 230.930233 
L 286.620779 230.087442 
L 287.216403 230.930233 
L 287.812026 230.930233 
L 288.40765 209.860465 
L 289.003273 227.55907 
L 289.598897 233.458605 
L 290.194521 204.803721 
L 290.790144 224.187907 
L 291.385768 223.345116 
L 291.981391 233.458605 
L 292.577015 209.017674 
L 293.172638 220.816744 
L 293.768262 225.873488 
L 294.363885 219.131163 
L 294.959509 215.76 
L 295.555133 213.231628 
L 296.150756 198.061395 
L 296.74638 223.345116 
L 297.342003 221.659535 
L 297.937627 216.602791 
L 298.53325 241.043721 
L 299.128874 242.729302 
L 299.724497 228.40186 
L 300.320121 194.690233 
L 300.915745 221.659535 
L 301.511368 219.131163 
L 302.106992 203.96093 
L 302.702615 232.615814 
L 303.298239 210.703256 
L 303.893862 235.144186 
L 304.489486 215.76 
L 305.085109 222.502326 
L 305.680733 235.986977 
L 306.276357 228.40186 
L 306.87198 207.332093 
L 307.467604 249.471628 
L 308.063227 230.930233 
L 308.658851 249.471628 
L 309.254474 213.231628 
L 309.850098 247.786047 
L 310.445721 214.917209 
L 311.041345 225.030698 
L 311.636969 200.589767 
L 312.232592 212.388837 
L 312.828216 198.061395 
L 313.423839 237.672558 
L 314.019463 233.458605 
L 314.615086 220.816744 
L 315.21071 214.917209 
L 315.806333 233.458605 
L 316.401957 225.030698 
L 316.997581 225.873488 
L 317.593204 233.458605 
L 318.188828 233.458605 
L 318.784451 214.917209 
L 319.380075 239.35814 
L 319.975698 217.445581 
L 320.571322 231.773023 
L 321.166945 217.445581 
L 321.762569 222.502326 
L 322.358192 203.96093 
L 322.953816 219.973953 
L 323.54944 211.546047 
L 324.145063 209.860465 
L 324.740687 239.35814 
L 325.33631 220.816744 
L 325.931934 235.986977 
L 326.527557 207.332093 
L 327.123181 210.703256 
L 327.718804 226.716279 
L 328.314428 212.388837 
L 328.910052 225.030698 
L 329.505675 209.860465 
L 330.101299 222.502326 
L 330.696922 218.288372 
L 331.292546 241.043721 
L 331.888169 236.829767 
L 332.483793 224.187907 
L 333.079416 194.690233 
L 333.67504 228.40186 
L 334.270664 203.96093 
L 334.866287 202.275349 
L 335.461911 224.187907 
L 336.057534 202.275349 
L 336.653158 225.030698 
L 337.844405 205.646512 
L 338.440028 235.144186 
L 339.035652 200.589767 
L 339.631276 227.55907 
L 340.226899 197.218605 
L 340.822523 239.35814 
L 341.418146 238.515349 
L 342.01377 239.35814 
L 342.609393 219.131163 
L 343.205017 215.76 
L 343.80064 222.502326 
L 344.396264 225.873488 
L 344.991888 210.703256 
L 345.587511 221.659535 
L 346.183135 204.803721 
L 346.778758 224.187907 
L 347.374382 232.615814 
L 347.970005 238.515349 
L 348.565629 210.703256 
L 349.161252 219.131163 
L 349.756876 229.244651 
L 350.3525 207.332093 
L 351.543747 238.515349 
L 352.13937 219.973953 
L 352.734994 225.873488 
L 353.330617 209.860465 
L 353.926241 214.917209 
L 354.521864 235.144186 
L 355.117488 212.388837 
L 355.713112 228.40186 
L 356.904359 231.773023 
L 357.499982 219.131163 
L 358.095606 214.917209 
L 358.691229 219.131163 
L 359.286853 237.672558 
L 359.882476 230.087442 
L 360.4781 242.729302 
L 361.073724 225.030698 
L 361.669347 239.35814 
L 362.264971 238.515349 
L 362.860594 222.502326 
L 363.456218 209.860465 
L 364.051841 202.275349 
L 364.647465 227.55907 
L 365.243088 227.55907 
L 366.434336 202.275349 
L 367.029959 221.659535 
L 367.625583 201.432558 
L 368.221206 241.886512 
L 368.81683 209.860465 
L 369.412453 200.589767 
L 370.008077 235.986977 
L 370.6037 225.873488 
L 371.199324 223.345116 
L 371.794948 219.973953 
L 372.986195 235.986977 
L 373.581818 232.615814 
L 373.581818 232.615814 
" clip-path="url(#p530a9b4714)" style="fill: none; stroke: #1f77b4; stroke-width: 1.5; stroke-linecap: square"/>
   </g>
   <g id="line2d_26">
    <path d="M 69.218182 227.3568 
L 69.813805 208.512 
L 70.409429 214.3104 
L 71.005052 221.5584 
L 71.600676 202.7136 
L 72.1963 212.8608 
L 72.791923 228.8064 
L 73.387547 228.8064 
L 73.98317 214.3104 
L 74.578794 202.7136 
L 75.174417 215.76 
L 75.770041 221.5584 
L 76.365664 220.1088 
L 76.961288 217.9344 
L 77.556912 225.9072 
L 78.152535 207.0624 
L 78.748159 214.3104 
L 79.343782 218.6592 
L 79.939406 210.6864 
L 80.535029 218.6592 
L 81.130653 211.4112 
L 81.726276 212.8608 
L 82.3219 195.4656 
L 82.917524 204.888 
L 83.513147 236.0544 
L 84.108771 213.5856 
L 84.704394 235.3296 
L 85.300018 219.384 
L 85.895641 215.0352 
L 86.491265 243.3024 
L 87.086888 224.4576 
L 87.682512 238.2288 
L 88.278136 216.4848 
L 88.873759 215.76 
L 89.469383 224.4576 
L 90.065006 229.5312 
L 90.66063 225.1824 
L 91.256253 228.0816 
L 91.851877 219.384 
L 92.4475 215.0352 
L 93.043124 218.6592 
L 93.638748 221.5584 
L 94.234371 212.8608 
L 95.425618 231.7056 
L 96.616865 209.2368 
L 97.212489 224.4576 
L 97.808112 215.76 
L 98.403736 219.384 
L 98.99936 217.2096 
L 99.594983 208.512 
L 100.190607 221.5584 
L 100.78623 212.136 
L 101.381854 218.6592 
L 101.977477 226.632 
L 102.573101 200.5392 
L 103.168724 201.9888 
L 103.764348 215.0352 
L 104.359972 212.8608 
L 104.955595 207.7872 
L 105.551219 205.6128 
L 106.146842 228.8064 
L 106.742466 222.2832 
L 107.338089 233.1552 
L 107.933713 215.0352 
L 108.529336 217.2096 
L 109.12496 232.4304 
L 109.720584 236.7792 
L 110.316207 221.5584 
L 110.911831 213.5856 
L 111.507454 220.8336 
L 112.103078 213.5856 
L 112.698701 222.2832 
L 113.294325 222.2832 
L 113.889948 212.8608 
L 114.485572 233.1552 
L 115.081196 234.6048 
L 115.676819 215.76 
L 116.272443 207.7872 
L 116.868066 221.5584 
L 117.46369 209.2368 
L 118.059313 215.76 
L 118.654937 226.632 
L 119.25056 224.4576 
L 119.846184 227.3568 
L 120.441808 215.76 
L 121.037431 224.4576 
L 121.633055 204.888 
L 122.228678 210.6864 
L 122.824302 223.008 
L 123.419925 212.136 
L 124.015549 220.8336 
L 124.611172 209.2368 
L 125.206796 209.2368 
L 125.802419 218.6592 
L 126.398043 223.008 
L 126.993667 222.2832 
L 127.58929 225.1824 
L 128.184914 229.5312 
L 128.780537 228.0816 
L 129.376161 228.8064 
L 129.971784 209.9616 
L 130.567408 223.7328 
L 131.163031 230.256 
L 132.354279 216.4848 
L 132.949902 231.7056 
L 133.545526 215.0352 
L 134.141149 212.136 
L 134.736773 207.7872 
L 135.332396 225.1824 
L 135.92802 213.5856 
L 136.523643 220.1088 
L 137.119267 221.5584 
L 137.714891 207.7872 
L 138.310514 216.4848 
L 138.906138 233.1552 
L 139.501761 228.8064 
L 140.097385 234.6048 
L 140.693008 215.76 
L 141.288632 210.6864 
L 141.884255 241.8528 
L 142.479879 212.136 
L 143.075503 213.5856 
L 143.671126 215.76 
L 145.457997 215.76 
L 146.05362 212.136 
L 146.649244 218.6592 
L 147.244867 230.256 
L 147.840491 209.2368 
L 148.436115 241.128 
L 149.031738 226.632 
L 149.627362 220.1088 
L 150.222985 206.3376 
L 150.818609 216.4848 
L 151.414232 221.5584 
L 152.009856 220.1088 
L 152.605479 225.9072 
L 153.201103 213.5856 
L 153.796727 212.8608 
L 154.39235 203.4384 
L 154.987974 209.2368 
L 155.583597 221.5584 
L 156.179221 207.7872 
L 156.774844 217.9344 
L 157.370468 209.9616 
L 157.966091 220.8336 
L 158.561715 204.1632 
L 159.157339 233.88 
L 159.752962 217.9344 
L 160.348586 221.5584 
L 160.944209 220.8336 
L 161.539833 214.3104 
L 162.135456 217.2096 
L 162.73108 200.5392 
L 163.326703 165.024 
L 163.922327 34.56 
L 165.113574 204.888 
L 165.709198 242.5776 
L 166.304821 211.4112 
L 166.900445 210.6864 
L 167.496068 220.8336 
L 168.091692 228.8064 
L 168.687315 223.008 
L 169.282939 218.6592 
L 169.878563 224.4576 
L 170.474186 215.76 
L 171.06981 212.8608 
L 171.665433 208.512 
L 172.261057 214.3104 
L 173.452304 218.6592 
L 174.047927 216.4848 
L 174.643551 220.8336 
L 175.239175 237.504 
L 175.834798 219.384 
L 176.430422 221.5584 
L 177.621669 206.3376 
L 178.217292 208.512 
L 179.408539 218.6592 
L 180.004163 219.384 
L 180.599787 214.3104 
L 181.19541 228.8064 
L 181.791034 201.9888 
L 182.386657 222.2832 
L 182.982281 227.3568 
L 183.577904 223.008 
L 184.173528 221.5584 
L 184.769151 236.0544 
L 185.364775 225.9072 
L 185.960399 230.256 
L 186.556022 227.3568 
L 187.151646 220.1088 
L 187.747269 223.7328 
L 188.342893 220.8336 
L 188.938516 215.0352 
L 189.53414 230.9808 
L 190.129763 212.8608 
L 190.725387 220.8336 
L 191.32101 219.384 
L 191.916634 212.8608 
L 192.512258 197.64 
L 193.107881 215.0352 
L 193.703505 210.6864 
L 194.299128 204.888 
L 194.894752 224.4576 
L 195.490375 188.9424 
L 196.085999 221.5584 
L 196.681622 208.512 
L 197.277246 228.0816 
L 197.87287 216.4848 
L 198.468493 217.9344 
L 199.064117 214.3104 
L 199.65974 212.8608 
L 200.255364 193.2912 
L 200.850987 211.4112 
L 201.446611 222.2832 
L 202.042234 223.7328 
L 202.637858 204.888 
L 203.233482 209.9616 
L 203.829105 216.4848 
L 204.424729 203.4384 
L 205.020352 230.9808 
L 205.615976 223.7328 
L 206.211599 235.3296 
L 206.807223 226.632 
L 207.402846 212.8608 
L 207.99847 228.0816 
L 208.594094 225.9072 
L 209.189717 236.0544 
L 210.380964 212.8608 
L 210.976588 223.008 
L 212.167835 230.9808 
L 212.763458 223.008 
L 213.359082 211.4112 
L 213.954706 236.7792 
L 214.550329 214.3104 
L 215.145953 223.008 
L 215.741576 203.4384 
L 216.3372 220.8336 
L 216.932823 220.8336 
L 217.528447 212.136 
L 218.12407 213.5856 
L 218.719694 236.0544 
L 219.315318 234.6048 
L 219.910941 219.384 
L 220.506565 220.1088 
L 221.102188 213.5856 
L 221.697812 220.8336 
L 222.293435 207.0624 
L 222.889059 211.4112 
L 223.484682 212.136 
L 224.080306 226.632 
L 224.67593 216.4848 
L 225.271553 212.136 
L 225.867177 233.1552 
L 226.4628 227.3568 
L 227.058424 233.1552 
L 227.654047 229.5312 
L 228.249671 217.9344 
L 228.845294 204.1632 
L 229.440918 206.3376 
L 230.036542 159.9504 
L 230.632165 163.5744 
L 231.227789 136.032 
L 231.823412 99.792 
L 232.419036 88.1952 
L 233.014659 64.2768 
L 233.610283 121.536 
L 234.205906 125.8848 
L 234.80153 156.3264 
L 235.992777 188.2176 
L 236.588401 220.8336 
L 237.184024 215.76 
L 237.779648 219.384 
L 238.375271 201.9888 
L 238.970895 228.8064 
L 239.566518 227.3568 
L 240.162142 211.4112 
L 240.757766 220.8336 
L 241.353389 223.7328 
L 241.949013 210.6864 
L 242.544636 215.0352 
L 243.14026 233.88 
L 243.735883 204.888 
L 244.331507 220.8336 
L 244.92713 244.752 
L 246.118378 208.512 
L 246.714001 220.1088 
L 247.309625 204.888 
L 247.905248 241.8528 
L 248.500872 241.8528 
L 249.096495 204.888 
L 249.692119 223.008 
L 250.287742 231.7056 
L 250.883366 227.3568 
L 251.47899 221.5584 
L 252.074613 214.3104 
L 252.670237 235.3296 
L 253.26586 203.4384 
L 253.861484 228.0816 
L 254.457107 209.9616 
L 255.052731 215.76 
L 255.648354 224.4576 
L 256.243978 220.1088 
L 256.839601 212.8608 
L 257.435225 212.8608 
L 258.030849 209.9616 
L 258.626472 213.5856 
L 259.222096 223.7328 
L 259.817719 209.9616 
L 260.413343 212.8608 
L 261.008966 225.1824 
L 261.60459 201.9888 
L 262.200213 225.1824 
L 262.795837 230.256 
L 263.391461 241.128 
L 263.987084 202.7136 
L 264.582708 192.5664 
L 265.178331 216.4848 
L 265.773955 202.7136 
L 266.369578 221.5584 
L 266.965202 208.512 
L 267.560825 223.7328 
L 268.156449 201.9888 
L 268.752073 209.2368 
L 269.347696 228.0816 
L 269.94332 220.1088 
L 270.538943 198.3648 
L 271.134567 242.5776 
L 271.73019 223.7328 
L 272.921437 211.4112 
L 273.517061 234.6048 
L 274.112685 227.3568 
L 274.708308 204.888 
L 275.303932 212.136 
L 275.899555 215.0352 
L 276.495179 220.1088 
L 277.686426 234.6048 
L 278.282049 220.8336 
L 278.877673 229.5312 
L 279.473297 214.3104 
L 280.06892 218.6592 
L 280.664544 202.7136 
L 281.260167 219.384 
L 281.855791 214.3104 
L 282.451414 215.0352 
L 283.047038 227.3568 
L 283.642661 219.384 
L 284.238285 220.1088 
L 284.833909 225.9072 
L 285.429532 209.9616 
L 286.025156 225.1824 
L 287.216403 214.3104 
L 287.812026 220.1088 
L 288.40765 213.5856 
L 289.003273 212.136 
L 289.598897 212.8608 
L 290.194521 225.9072 
L 290.790144 212.136 
L 291.385768 215.0352 
L 291.981391 215.76 
L 292.577015 212.136 
L 293.172638 219.384 
L 293.768262 211.4112 
L 294.363885 236.7792 
L 294.959509 215.76 
L 295.555133 225.1824 
L 296.150756 230.9808 
L 296.74638 215.0352 
L 297.342003 221.5584 
L 297.937627 212.8608 
L 298.53325 214.3104 
L 299.128874 205.6128 
L 299.724497 236.7792 
L 300.320121 224.4576 
L 300.915745 228.8064 
L 301.511368 206.3376 
L 302.106992 206.3376 
L 302.702615 221.5584 
L 303.298239 222.2832 
L 303.893862 220.1088 
L 304.489486 222.2832 
L 305.085109 211.4112 
L 305.680733 212.8608 
L 306.276357 206.3376 
L 306.87198 224.4576 
L 307.467604 220.1088 
L 308.063227 209.9616 
L 308.658851 218.6592 
L 309.254474 216.4848 
L 309.850098 227.3568 
L 311.041345 215.0352 
L 311.636969 212.8608 
L 312.232592 225.1824 
L 312.828216 219.384 
L 313.423839 211.4112 
L 314.019463 229.5312 
L 314.615086 206.3376 
L 315.21071 252 
L 315.806333 212.136 
L 316.401957 229.5312 
L 316.997581 214.3104 
L 317.593204 230.256 
L 318.188828 215.0352 
L 318.784451 210.6864 
L 319.380075 215.76 
L 320.571322 215.76 
L 321.166945 219.384 
L 321.762569 231.7056 
L 322.358192 221.5584 
L 322.953816 220.1088 
L 323.54944 200.5392 
L 324.145063 212.8608 
L 325.33631 230.256 
L 325.931934 213.5856 
L 326.527557 225.9072 
L 327.123181 228.8064 
L 327.718804 232.4304 
L 328.314428 203.4384 
L 328.910052 228.0816 
L 329.505675 209.2368 
L 330.101299 220.8336 
L 330.696922 202.7136 
L 331.292546 218.6592 
L 331.888169 219.384 
L 332.483793 220.8336 
L 333.079416 208.512 
L 333.67504 215.76 
L 334.270664 236.7792 
L 334.866287 223.7328 
L 335.461911 204.888 
L 336.057534 219.384 
L 336.653158 208.512 
L 337.248781 224.4576 
L 337.844405 234.6048 
L 338.440028 224.4576 
L 339.035652 225.1824 
L 339.631276 228.8064 
L 340.226899 207.7872 
L 340.822523 228.0816 
L 341.418146 199.8144 
L 342.01377 223.008 
L 342.609393 207.0624 
L 343.205017 219.384 
L 343.80064 212.136 
L 344.396264 209.2368 
L 344.991888 217.9344 
L 345.587511 221.5584 
L 346.183135 232.4304 
L 346.778758 226.632 
L 347.374382 225.9072 
L 347.970005 225.9072 
L 348.565629 218.6592 
L 349.161252 233.88 
L 349.756876 211.4112 
L 350.3525 229.5312 
L 350.948123 216.4848 
L 351.543747 236.0544 
L 352.13937 212.136 
L 352.734994 219.384 
L 353.330617 230.9808 
L 353.926241 218.6592 
L 354.521864 220.1088 
L 355.117488 215.0352 
L 355.713112 219.384 
L 356.308735 203.4384 
L 356.904359 218.6592 
L 357.499982 223.7328 
L 358.095606 230.9808 
L 358.691229 233.1552 
L 359.286853 213.5856 
L 359.882476 218.6592 
L 360.4781 220.1088 
L 361.073724 204.888 
L 361.669347 217.9344 
L 362.264971 227.3568 
L 362.860594 225.1824 
L 363.456218 217.2096 
L 364.051841 216.4848 
L 364.647465 222.2832 
L 365.243088 221.5584 
L 365.838712 232.4304 
L 366.434336 205.6128 
L 367.029959 226.632 
L 367.625583 230.9808 
L 368.221206 188.9424 
L 368.81683 226.632 
L 369.412453 246.9264 
L 370.008077 208.512 
L 370.6037 227.3568 
L 371.199324 211.4112 
L 371.794948 230.9808 
L 372.390571 219.384 
L 372.986195 227.3568 
L 373.581818 210.6864 
L 373.581818 210.6864 
" clip-path="url(#p530a9b4714)" style="fill: none; stroke: #ff7f0e; stroke-width: 1.5; stroke-linecap: square"/>
   </g>
   <g id="line2d_27">
    <path d="M 69.218182 232.689635 
L 69.813805 243.270657 
L 70.409429 226.870073 
L 71.005052 228.721752 
L 71.600676 213.908321 
L 72.1963 213.37927 
L 72.791923 221.050511 
L 73.387547 226.076496 
L 73.98317 222.637664 
L 74.578794 228.457226 
L 75.770041 221.315036 
L 76.365664 220.52146 
L 76.961288 228.457226 
L 77.556912 219.463358 
L 78.152535 234.276788 
L 78.748159 221.579562 
L 79.939406 239.038248 
L 80.535029 231.896058 
L 81.130653 220.785985 
L 81.726276 221.315036 
L 82.3219 225.28292 
L 82.917524 226.076496 
L 83.513147 213.37927 
L 84.108771 226.341022 
L 84.704394 228.721752 
L 85.300018 233.483212 
L 85.895641 231.896058 
L 86.491265 216.289051 
L 87.086888 229.515328 
L 87.682512 214.172847 
L 88.278136 215.76 
L 88.873759 225.018394 
L 89.469383 231.102482 
L 90.065006 235.070365 
L 90.66063 213.908321 
L 91.256253 228.986277 
L 91.851877 236.392993 
L 92.4475 218.405255 
L 93.043124 243.006131 
L 93.638748 219.198832 
L 94.234371 228.721752 
L 94.829995 241.683504 
L 95.425618 223.431241 
L 96.021242 233.747737 
L 96.616865 226.605547 
L 97.212489 234.541314 
L 97.808112 212.321168 
L 98.99936 242.47708 
L 99.594983 226.076496 
L 100.190607 222.637664 
L 100.78623 237.71562 
L 101.381854 226.341022 
L 101.977477 234.805839 
L 102.573101 235.863942 
L 103.168724 233.218686 
L 103.764348 222.637664 
L 104.359972 216.289051 
L 104.955595 234.541314 
L 105.551219 216.289051 
L 106.146842 214.966423 
L 106.742466 232.689635 
L 107.338089 225.018394 
L 107.933713 227.928175 
L 108.529336 224.224818 
L 109.12496 230.837956 
L 109.720584 231.367007 
L 110.316207 224.489343 
L 110.911831 219.727883 
L 111.507454 219.198832 
L 112.103078 238.509197 
L 112.698701 229.779854 
L 113.294325 237.451095 
L 113.889948 226.341022 
L 114.485572 220.52146 
L 115.081196 232.160584 
L 115.676819 227.928175 
L 116.272443 220.256934 
L 116.868066 224.224818 
L 117.46369 237.186569 
L 118.059313 222.108613 
L 118.654937 224.753869 
L 119.25056 248.561168 
L 119.846184 230.04438 
L 120.441808 235.070365 
L 121.037431 229.250803 
L 121.633055 213.908321 
L 122.824302 232.954161 
L 123.419925 218.14073 
L 124.015549 230.573431 
L 124.611172 232.689635 
L 125.206796 218.14073 
L 125.802419 238.244672 
L 126.398043 223.431241 
L 126.993667 231.896058 
L 127.58929 237.71562 
L 128.184914 214.966423 
L 128.780537 227.134599 
L 129.376161 223.695766 
L 129.971784 226.341022 
L 130.567408 240.625401 
L 131.163031 215.230949 
L 131.758655 229.250803 
L 132.354279 235.599416 
L 132.949902 232.425109 
L 133.545526 217.347153 
L 134.141149 231.896058 
L 134.736773 223.431241 
L 135.332396 230.308905 
L 135.92802 211.792117 
L 137.119267 228.192701 
L 137.714891 231.367007 
L 138.310514 231.896058 
L 138.906138 222.637664 
L 139.501761 225.811971 
L 140.097385 223.166715 
L 140.693008 237.186569 
L 141.288632 237.980146 
L 141.884255 225.547445 
L 142.479879 228.457226 
L 143.075503 235.599416 
L 143.671126 214.172847 
L 144.26675 220.52146 
L 144.862373 219.992409 
L 145.457997 214.172847 
L 146.05362 231.102482 
L 146.649244 232.160584 
L 147.244867 229.250803 
L 147.840491 213.114745 
L 148.436115 222.373139 
L 149.031738 235.334891 
L 149.627362 224.224818 
L 150.222985 229.250803 
L 150.818609 235.863942 
L 151.414232 232.425109 
L 152.605479 218.405255 
L 153.201103 227.399124 
L 153.796727 214.701898 
L 154.39235 228.986277 
L 154.987974 226.341022 
L 155.583597 231.367007 
L 156.179221 212.321168 
L 157.370468 240.889927 
L 157.966091 227.134599 
L 158.561715 226.341022 
L 159.157339 236.922044 
L 159.752962 231.896058 
L 160.348586 202.798248 
L 161.539833 232.425109 
L 162.135456 219.727883 
L 162.73108 210.99854 
L 163.326703 228.721752 
L 163.922327 210.469489 
L 164.517951 234.541314 
L 165.113574 225.811971 
L 165.709198 223.960292 
L 166.304821 234.012263 
L 166.900445 236.657518 
L 167.496068 241.154453 
L 168.091692 226.341022 
L 169.282939 216.818102 
L 169.878563 230.308905 
L 170.474186 228.192701 
L 171.06981 149.628613 
L 171.665433 34.56 
L 172.261057 94.607299 
L 172.85668 204.914453 
L 173.452304 246.974015 
L 174.047927 222.90219 
L 174.643551 239.038248 
L 175.239175 241.418978 
L 175.834798 226.870073 
L 176.430422 221.050511 
L 177.026045 228.192701 
L 177.621669 238.244672 
L 178.217292 230.837956 
L 178.812916 236.657518 
L 179.408539 234.805839 
L 180.004163 239.302774 
L 180.599787 234.541314 
L 181.19541 228.457226 
L 181.791034 227.399124 
L 182.386657 232.160584 
L 182.982281 230.837956 
L 183.577904 228.192701 
L 184.173528 215.495474 
L 184.769151 222.90219 
L 185.364775 217.611679 
L 185.960399 233.218686 
L 186.556022 226.076496 
L 187.151646 230.573431 
L 187.747269 236.392993 
L 188.342893 222.90219 
L 188.938516 219.198832 
L 189.53414 235.070365 
L 190.129763 228.986277 
L 190.725387 228.192701 
L 191.32101 217.082628 
L 191.916634 243.535182 
L 192.512258 219.198832 
L 193.107881 217.611679 
L 193.703505 235.070365 
L 194.299128 225.28292 
L 194.894752 234.012263 
L 195.490375 235.863942 
L 196.085999 233.218686 
L 196.681622 220.256934 
L 197.277246 226.076496 
L 197.87287 235.863942 
L 198.468493 220.52146 
L 199.064117 228.192701 
L 199.65974 233.218686 
L 200.255364 222.90219 
L 200.850987 219.992409 
L 201.446611 228.192701 
L 202.042234 230.308905 
L 202.637858 223.960292 
L 203.233482 219.992409 
L 203.829105 233.483212 
L 204.424729 208.61781 
L 205.020352 236.657518 
L 205.615976 234.012263 
L 206.211599 228.986277 
L 206.807223 240.889927 
L 207.99847 234.276788 
L 208.594094 212.056642 
L 209.189717 235.599416 
L 209.785341 221.579562 
L 210.380964 245.122336 
L 210.976588 216.553577 
L 211.572211 231.631533 
L 212.167835 224.489343 
L 212.763458 223.166715 
L 213.359082 241.683504 
L 213.954706 225.547445 
L 214.550329 220.256934 
L 215.145953 233.483212 
L 215.741576 221.315036 
L 216.3372 223.960292 
L 216.932823 225.28292 
L 217.528447 204.649927 
L 218.12407 227.399124 
L 218.719694 237.71562 
L 219.315318 222.90219 
L 219.910941 227.928175 
L 220.506565 229.515328 
L 221.102188 208.61781 
L 221.697812 224.489343 
L 222.293435 223.695766 
L 222.889059 216.818102 
L 223.484682 240.360876 
L 224.080306 227.399124 
L 224.67593 224.489343 
L 225.271553 217.611679 
L 225.867177 225.018394 
L 226.4628 243.535182 
L 227.058424 223.960292 
L 227.654047 226.870073 
L 228.249671 223.695766 
L 228.845294 236.128467 
L 229.440918 225.547445 
L 230.036542 219.992409 
L 230.632165 219.727883 
L 231.227789 231.367007 
L 231.823412 231.102482 
L 232.419036 234.012263 
L 233.014659 216.818102 
L 233.610283 230.04438 
L 234.205906 209.940438 
L 234.80153 224.224818 
L 235.992777 220.785985 
L 236.588401 200.152993 
L 237.184024 197.243212 
L 237.779648 165.764672 
L 238.375271 145.131679 
L 239.566518 54.663942 
L 240.162142 44.876496 
L 240.757766 52.283212 
L 241.353389 55.986569 
L 241.949013 97.51708 
L 242.544636 112.065985 
L 243.735883 197.507737 
L 244.331507 190.365547 
L 244.92713 225.547445 
L 245.522754 214.966423 
L 246.118378 243.006131 
L 246.714001 217.876204 
L 247.309625 237.451095 
L 247.905248 225.811971 
L 248.500872 235.599416 
L 249.096495 227.134599 
L 249.692119 217.082628 
L 250.287742 228.986277 
L 250.883366 209.411387 
L 251.47899 220.785985 
L 252.670237 219.198832 
L 253.26586 221.315036 
L 253.861484 219.463358 
L 254.457107 233.747737 
L 255.052731 228.192701 
L 255.648354 228.457226 
L 256.243978 218.405255 
L 256.839601 232.954161 
L 257.435225 221.579562 
L 258.030849 228.192701 
L 258.626472 225.28292 
L 259.222096 238.244672 
L 259.817719 231.631533 
L 260.413343 226.341022 
L 261.008966 237.71562 
L 261.60459 224.224818 
L 262.200213 224.753869 
L 262.795837 238.244672 
L 263.391461 227.399124 
L 263.987084 222.637664 
L 264.582708 228.986277 
L 265.178331 231.367007 
L 265.773955 221.844088 
L 266.369578 227.928175 
L 266.965202 227.399124 
L 267.560825 218.669781 
L 268.156449 229.779854 
L 268.752073 236.922044 
L 269.347696 211.527591 
L 269.94332 223.431241 
L 270.538943 238.509197 
L 271.134567 229.779854 
L 271.73019 234.805839 
L 272.325814 221.050511 
L 272.921437 239.831825 
L 273.517061 218.405255 
L 274.112685 230.573431 
L 274.708308 228.986277 
L 275.303932 213.37927 
L 275.899555 208.353285 
L 276.495179 217.347153 
L 277.090802 219.727883 
L 277.686426 227.134599 
L 278.282049 231.896058 
L 278.877673 230.573431 
L 279.473297 223.166715 
L 280.06892 210.734015 
L 280.664544 246.974015 
L 281.260167 226.076496 
L 281.855791 225.811971 
L 282.451414 226.605547 
L 283.047038 248.032117 
L 283.642661 227.399124 
L 284.238285 224.753869 
L 284.833909 237.71562 
L 285.429532 231.102482 
L 286.025156 217.347153 
L 286.620779 232.160584 
L 287.216403 225.018394 
L 287.812026 221.579562 
L 288.40765 230.04438 
L 289.003273 207.559708 
L 289.598897 230.573431 
L 290.194521 225.018394 
L 290.790144 225.28292 
L 291.385768 247.503066 
L 291.981391 229.515328 
L 292.577015 234.012263 
L 293.172638 219.992409 
L 293.768262 224.224818 
L 294.363885 206.501606 
L 294.959509 218.669781 
L 295.555133 214.172847 
L 296.150756 241.154453 
L 296.74638 233.483212 
L 297.342003 252 
L 297.937627 210.99854 
L 298.53325 236.922044 
L 299.128874 216.818102 
L 299.724497 243.535182 
L 300.320121 241.683504 
L 300.915745 248.825693 
L 301.511368 230.04438 
L 302.106992 227.66365 
L 302.702615 214.437372 
L 303.298239 224.489343 
L 303.893862 219.992409 
L 304.489486 223.960292 
L 305.085109 242.212555 
L 305.680733 235.599416 
L 306.276357 220.256934 
L 306.87198 227.928175 
L 307.467604 223.960292 
L 308.063227 212.850219 
L 308.658851 218.669781 
L 309.254474 214.966423 
L 309.850098 235.863942 
L 310.445721 231.631533 
L 311.041345 229.779854 
L 311.636969 223.431241 
L 312.232592 226.605547 
L 312.828216 217.611679 
L 313.423839 240.360876 
L 314.019463 238.509197 
L 314.615086 230.04438 
L 315.21071 228.192701 
L 315.806333 223.695766 
L 316.997581 229.250803 
L 317.593204 239.038248 
L 318.188828 230.837956 
L 318.784451 220.256934 
L 319.380075 228.192701 
L 319.975698 239.567299 
L 321.166945 214.701898 
L 321.762569 230.308905 
L 322.358192 210.99854 
L 322.953816 237.451095 
L 323.54944 237.451095 
L 324.740687 219.198832 
L 325.33631 225.547445 
L 325.931934 234.012263 
L 326.527557 223.960292 
L 327.123181 217.876204 
L 327.718804 233.218686 
L 328.314428 227.928175 
L 328.910052 233.747737 
L 329.505675 227.66365 
L 330.101299 230.308905 
L 330.696922 224.489343 
L 331.292546 237.980146 
L 331.888169 227.928175 
L 332.483793 220.52146 
L 333.079416 236.128467 
L 333.67504 242.741606 
L 334.270664 219.198832 
L 334.866287 229.250803 
L 335.461911 221.579562 
L 336.057534 243.006131 
L 336.653158 216.818102 
L 337.248781 239.567299 
L 337.844405 228.986277 
L 338.440028 232.160584 
L 339.035652 220.256934 
L 339.631276 241.418978 
L 340.226899 232.954161 
L 340.822523 240.625401 
L 341.418146 223.695766 
L 342.01377 239.038248 
L 342.609393 235.070365 
L 343.205017 238.773723 
L 343.80064 225.547445 
L 344.396264 220.52146 
L 344.991888 238.773723 
L 345.587511 217.876204 
L 346.183135 232.160584 
L 346.778758 220.785985 
L 347.374382 240.625401 
L 347.970005 216.289051 
L 349.161252 229.515328 
L 349.756876 229.779854 
L 350.3525 246.180438 
L 350.948123 218.934307 
L 351.543747 218.405255 
L 352.13937 227.399124 
L 352.734994 221.315036 
L 353.330617 223.431241 
L 353.926241 231.102482 
L 354.521864 208.088759 
L 355.117488 231.896058 
L 355.713112 241.154453 
L 356.308735 218.14073 
L 356.904359 236.657518 
L 357.499982 221.315036 
L 358.095606 218.405255 
L 358.691229 223.431241 
L 359.286853 238.773723 
L 359.882476 223.695766 
L 360.4781 231.102482 
L 361.073724 225.018394 
L 361.669347 221.844088 
L 362.264971 214.172847 
L 362.860594 231.102482 
L 363.456218 222.637664 
L 364.051841 231.896058 
L 364.647465 225.811971 
L 365.243088 227.66365 
L 365.838712 221.844088 
L 366.434336 234.805839 
L 367.029959 211.792117 
L 367.625583 239.302774 
L 368.221206 220.785985 
L 368.81683 237.451095 
L 369.412453 246.180438 
L 370.008077 208.088759 
L 370.6037 239.038248 
L 371.199324 240.360876 
L 371.794948 227.928175 
L 372.390571 229.779854 
L 372.986195 218.14073 
L 373.581818 233.483212 
L 373.581818 233.483212 
" clip-path="url(#p530a9b4714)" style="fill: none; stroke: #2ca02c; stroke-width: 1.5; stroke-linecap: square"/>
   </g>
   <g id="patch_3">
    <path d="M 54 252 
L 54 34.56 
" style="fill: none; stroke: #000000; stroke-width: 0.8; stroke-linejoin: miter; stroke-linecap: square"/>
   </g>
   <g id="patch_4">
    <path d="M 388.8 252 
L 388.8 34.56 
" style="fill: none; stroke: #000000; stroke-width: 0.8; stroke-linejoin: miter; stroke-linecap: square"/>
   </g>
   <g id="patch_5">
    <path d="M 54 252 
L 388.8 252 
" style="fill: none; stroke: #000000; stroke-width: 0.8; stroke-linejoin: miter; stroke-linecap: square"/>
   </g>
   <g id="patch_6">
    <path d="M 54 34.56 
L 388.8 34.56 
" style="fill: none; stroke: #000000; stroke-width: 0.8; stroke-linejoin: miter; stroke-linecap: square"/>
   </g>
   <g id="text_15">
    <!-- Label 6 normalized -->
    <g transform="translate(164.240625 28.56)scale(0.12 -0.12)">
     <defs>
      <path id="DejaVuSans-4c" d="M 628 4666 
L 1259 4666 
L 1259 531 
L 3531 531 
L 3531 0 
L 628 0 
L 628 4666 
z
" transform="scale(0.015625)"/>
      <path id="DejaVuSans-61" d="M 2194 1759 
Q 1497 1759 1228 1600 
Q 959 1441 959 1056 
Q 959 750 1161 570 
Q 1363 391 1709 391 
Q 2188 391 2477 730 
Q 2766 1069 2766 1631 
L 2766 1759 
L 2194 1759 
z
M 3341 1997 
L 3341 0 
L 2766 0 
L 2766 531 
Q 2569 213 2275 61 
Q 1981 -91 1556 -91 
Q 1019 -91 701 211 
Q 384 513 384 1019 
Q 384 1609 779 1909 
Q 1175 2209 1959 2209 
L 2766 2209 
L 2766 2266 
Q 2766 2663 2505 2880 
Q 2244 3097 1772 3097 
Q 1472 3097 1187 3025 
Q 903 2953 641 2809 
L 641 3341 
Q 956 3463 1253 3523 
Q 1550 3584 1831 3584 
Q 2591 3584 2966 3190 
Q 3341 2797 3341 1997 
z
" transform="scale(0.015625)"/>
      <path id="DejaVuSans-65" d="M 3597 1894 
L 3597 1613 
L 953 1613 
Q 991 1019 1311 708 
Q 1631 397 2203 397 
Q 2534 397 2845 478 
Q 3156 559 3463 722 
L 3463 178 
Q 3153 47 2828 -22 
Q 2503 -91 2169 -91 
Q 1331 -91 842 396 
Q 353 884 353 1716 
Q 353 2575 817 3079 
Q 1281 3584 2069 3584 
Q 2775 3584 3186 3129 
Q 3597 2675 3597 1894 
z
M 3022 2063 
Q 3016 2534 2758 2815 
Q 2500 3097 2075 3097 
Q 1594 3097 1305 2825 
Q 1016 2553 972 2059 
L 3022 2063 
z
" transform="scale(0.015625)"/>
      <path id="DejaVuSans-6c" d="M 603 4863 
L 1178 4863 
L 1178 0 
L 603 0 
L 603 4863 
z
" transform="scale(0.015625)"/>
      <path id="DejaVuSans-20" transform="scale(0.015625)"/>
      <path id="DejaVuSans-72" d="M 2631 2963 
Q 2534 3019 2420 3045 
Q 2306 3072 2169 3072 
Q 1681 3072 1420 2755 
Q 1159 2438 1159 1844 
L 1159 0 
L 581 0 
L 581 3500 
L 1159 3500 
L 1159 2956 
Q 1341 3275 1631 3429 
Q 1922 3584 2338 3584 
Q 2397 3584 2469 3576 
Q 2541 3569 2628 3553 
L 2631 2963 
z
" transform="scale(0.015625)"/>
      <path id="DejaVuSans-6d" d="M 3328 2828 
Q 3544 3216 3844 3400 
Q 4144 3584 4550 3584 
Q 5097 3584 5394 3201 
Q 5691 2819 5691 2113 
L 5691 0 
L 5113 0 
L 5113 2094 
Q 5113 2597 4934 2840 
Q 4756 3084 4391 3084 
Q 3944 3084 3684 2787 
Q 3425 2491 3425 1978 
L 3425 0 
L 2847 0 
L 2847 2094 
Q 2847 2600 2669 2842 
Q 2491 3084 2119 3084 
Q 1678 3084 1418 2786 
Q 1159 2488 1159 1978 
L 1159 0 
L 581 0 
L 581 3500 
L 1159 3500 
L 1159 2956 
Q 1356 3278 1631 3431 
Q 1906 3584 2284 3584 
Q 2666 3584 2933 3390 
Q 3200 3197 3328 2828 
z
" transform="scale(0.015625)"/>
      <path id="DejaVuSans-7a" d="M 353 3500 
L 3084 3500 
L 3084 2975 
L 922 459 
L 3084 459 
L 3084 0 
L 275 0 
L 275 525 
L 2438 3041 
L 353 3041 
L 353 3500 
z
" transform="scale(0.015625)"/>
      <path id="DejaVuSans-64" d="M 2906 2969 
L 2906 4863 
L 3481 4863 
L 3481 0 
L 2906 0 
L 2906 525 
Q 2725 213 2448 61 
Q 2172 -91 1784 -91 
Q 1150 -91 751 415 
Q 353 922 353 1747 
Q 353 2572 751 3078 
Q 1150 3584 1784 3584 
Q 2172 3584 2448 3432 
Q 2725 3281 2906 2969 
z
M 947 1747 
Q 947 1113 1208 752 
Q 1469 391 1925 391 
Q 2381 391 2643 752 
Q 2906 1113 2906 1747 
Q 2906 2381 2643 2742 
Q 2381 3103 1925 3103 
Q 1469 3103 1208 2742 
Q 947 2381 947 1747 
z
" transform="scale(0.015625)"/>
     </defs>
     <use xlink:href="#DejaVuSans-4c"/>
     <use xlink:href="#DejaVuSans-61" x="55.712891"/>
     <use xlink:href="#DejaVuSans-62" x="116.992188"/>
     <use xlink:href="#DejaVuSans-65" x="180.46875"/>
     <use xlink:href="#DejaVuSans-6c" x="241.992188"/>
     <use xlink:href="#DejaVuSans-20" x="269.775391"/>
     <use xlink:href="#DejaVuSans-36" x="301.5625"/>
     <use xlink:href="#DejaVuSans-20" x="365.185547"/>
     <use xlink:href="#DejaVuSans-6e" x="396.972656"/>
     <use xlink:href="#DejaVuSans-6f" x="460.351562"/>
     <use xlink:href="#DejaVuSans-72" x="521.533203"/>
     <use xlink:href="#DejaVuSans-6d" x="560.896484"/>
     <use xlink:href="#DejaVuSans-61" x="658.308594"/>
     <use xlink:href="#DejaVuSans-6c" x="719.587891"/>
     <use xlink:href="#DejaVuSans-69" x="747.371094"/>
     <use xlink:href="#DejaVuSans-7a" x="775.154297"/>
     <use xlink:href="#DejaVuSans-65" x="827.644531"/>
     <use xlink:href="#DejaVuSans-64" x="889.167969"/>
    </g>
   </g>
   <g id="legend_1">
    <g id="patch_7">
     <path d="M 309.070312 101.2725 
L 381.8 101.2725 
Q 383.8 101.2725 383.8 99.2725 
L 383.8 41.56 
Q 383.8 39.56 381.8 39.56 
L 309.070312 39.56 
Q 307.070312 39.56 307.070312 41.56 
L 307.070312 99.2725 
Q 307.070312 101.2725 309.070312 101.2725 
z
" style="fill: #ffffff; opacity: 0.8; stroke: #cccccc; stroke-linejoin: miter"/>
    </g>
    <g id="text_16">
     <!-- Trace number -->
     <g transform="translate(311.070312 51.158437)scale(0.1 -0.1)">
      <defs>
       <path id="DejaVuSans-54" d="M -19 4666 
L 3928 4666 
L 3928 4134 
L 2272 4134 
L 2272 0 
L 1638 0 
L 1638 4134 
L -19 4134 
L -19 4666 
z
" transform="scale(0.015625)"/>
      </defs>
      <use xlink:href="#DejaVuSans-54"/>
      <use xlink:href="#DejaVuSans-72" x="46.333984"/>
      <use xlink:href="#DejaVuSans-61" x="87.447266"/>
      <use xlink:href="#DejaVuSans-63" x="148.726562"/>
      <use xlink:href="#DejaVuSans-65" x="203.707031"/>
      <use xlink:href="#DejaVuSans-20" x="265.230469"/>
      <use xlink:href="#DejaVuSans-6e" x="297.017578"/>
      <use xlink:href="#DejaVuSans-75" x="360.396484"/>
      <use xlink:href="#DejaVuSans-6d" x="423.775391"/>
      <use xlink:href="#DejaVuSans-62" x="521.1875"/>
      <use xlink:href="#DejaVuSans-65" x="584.664062"/>
      <use xlink:href="#DejaVuSans-72" x="646.1875"/>
     </g>
    </g>
    <g id="line2d_28">
     <path d="M 325.072656 62.336562 
L 335.072656 62.336562 
L 345.072656 62.336562 
" style="fill: none; stroke: #1f77b4; stroke-width: 1.5; stroke-linecap: square"/>
    </g>
    <g id="text_17">
     <!-- 12 -->
     <g transform="translate(353.072656 65.836562)scale(0.1 -0.1)">
      <use xlink:href="#DejaVuSans-31"/>
      <use xlink:href="#DejaVuSans-32" x="63.623047"/>
     </g>
    </g>
    <g id="line2d_29">
     <path d="M 325.072656 77.014687 
L 335.072656 77.014687 
L 345.072656 77.014687 
" style="fill: none; stroke: #ff7f0e; stroke-width: 1.5; stroke-linecap: square"/>
    </g>
    <g id="text_18">
     <!-- 34 -->
     <g transform="translate(353.072656 80.514687)scale(0.1 -0.1)">
      <use xlink:href="#DejaVuSans-33"/>
      <use xlink:href="#DejaVuSans-34" x="63.623047"/>
     </g>
    </g>
    <g id="line2d_30">
     <path d="M 325.072656 91.692813 
L 335.072656 91.692813 
L 345.072656 91.692813 
" style="fill: none; stroke: #2ca02c; stroke-width: 1.5; stroke-linecap: square"/>
    </g>
    <g id="text_19">
     <!-- 45 -->
     <g transform="translate(353.072656 95.192813)scale(0.1 -0.1)">
      <use xlink:href="#DejaVuSans-34"/>
      <use xlink:href="#DejaVuSans-35" x="63.623047"/>
     </g>
    </g>
   </g>
  </g>
 </g>
 <defs>
  <clipPath id="p530a9b4714">
   <rect x="54" y="34.56" width="334.8" height="217.44"/>
  </clipPath>
 </defs>
</svg>
