<?xml version="1.0" encoding="utf-8" standalone="no"?>
<!DOCTYPE svg PUBLIC "-//W3C//DTD SVG 1.1//EN"
  "http://www.w3.org/Graphics/SVG/1.1/DTD/svg11.dtd">
<svg xmlns:xlink="http://www.w3.org/1999/xlink" width="432pt" height="288pt" viewBox="0 0 432 288" xmlns="http://www.w3.org/2000/svg" version="1.1">
 <metadata>
  <rdf:RDF xmlns:dc="http://purl.org/dc/elements/1.1/" xmlns:cc="http://creativecommons.org/ns#" xmlns:rdf="http://www.w3.org/1999/02/22-rdf-syntax-ns#">
   <cc:Work>
    <dc:type rdf:resource="http://purl.org/dc/dcmitype/StillImage"/>
    <dc:date>2022-03-30T13:16:46.374660</dc:date>
    <dc:format>image/svg+xml</dc:format>
    <dc:creator>
     <cc:Agent>
      <dc:title>Matplotlib v3.5.1, https://matplotlib.org/</dc:title>
     </cc:Agent>
    </dc:creator>
   </cc:Work>
  </rdf:RDF>
 </metadata>
 <defs>
  <style type="text/css">*{stroke-linejoin: round; stroke-linecap: butt}</style>
 </defs>
 <g id="figure_1">
  <g id="patch_1">
   <path d="M 0 288 
L 432 288 
L 432 0 
L 0 0 
z
" style="fill: #ffffff"/>
  </g>
  <g id="axes_1">
   <g id="patch_2">
    <path d="M 54 252 
L 388.8 252 
L 388.8 34.56 
L 54 34.56 
z
" style="fill: #ffffff"/>
   </g>
   <g id="matplotlib.axis_1">
    <g id="xtick_1">
     <g id="line2d_1">
      <path d="M 69.218182 252 
L 69.218182 34.56 
" clip-path="url(#pd4f0882408)" style="fill: none; stroke: #b0b0b0; stroke-width: 0.8; stroke-linecap: square"/>
     </g>
     <g id="line2d_2">
      <defs>
       <path id="m664bc93cdc" d="M 0 0 
L 0 3.5 
" style="stroke: #000000; stroke-width: 0.8"/>
      </defs>
      <g>
       <use xlink:href="#m664bc93cdc" x="69.218182" y="252" style="stroke: #000000; stroke-width: 0.8"/>
      </g>
     </g>
     <g id="text_1">
      <!-- 0 -->
      <g transform="translate(66.036932 266.598437)scale(0.1 -0.1)">
       <defs>
        <path id="DejaVuSans-30" d="M 2034 4250 
Q 1547 4250 1301 3770 
Q 1056 3291 1056 2328 
Q 1056 1369 1301 889 
Q 1547 409 2034 409 
Q 2525 409 2770 889 
Q 3016 1369 3016 2328 
Q 3016 3291 2770 3770 
Q 2525 4250 2034 4250 
z
M 2034 4750 
Q 2819 4750 3233 4129 
Q 3647 3509 3647 2328 
Q 3647 1150 3233 529 
Q 2819 -91 2034 -91 
Q 1250 -91 836 529 
Q 422 1150 422 2328 
Q 422 3509 836 4129 
Q 1250 4750 2034 4750 
z
" transform="scale(0.015625)"/>
       </defs>
       <use xlink:href="#DejaVuSans-30"/>
      </g>
     </g>
    </g>
    <g id="xtick_2">
     <g id="line2d_3">
      <path d="M 128.780537 252 
L 128.780537 34.56 
" clip-path="url(#pd4f0882408)" style="fill: none; stroke: #b0b0b0; stroke-width: 0.8; stroke-linecap: square"/>
     </g>
     <g id="line2d_4">
      <g>
       <use xlink:href="#m664bc93cdc" x="128.780537" y="252" style="stroke: #000000; stroke-width: 0.8"/>
      </g>
     </g>
     <g id="text_2">
      <!-- 100 -->
      <g transform="translate(119.236787 266.598437)scale(0.1 -0.1)">
       <defs>
        <path id="DejaVuSans-31" d="M 794 531 
L 1825 531 
L 1825 4091 
L 703 3866 
L 703 4441 
L 1819 4666 
L 2450 4666 
L 2450 531 
L 3481 531 
L 3481 0 
L 794 0 
L 794 531 
z
" transform="scale(0.015625)"/>
       </defs>
       <use xlink:href="#DejaVuSans-31"/>
       <use xlink:href="#DejaVuSans-30" x="63.623047"/>
       <use xlink:href="#DejaVuSans-30" x="127.246094"/>
      </g>
     </g>
    </g>
    <g id="xtick_3">
     <g id="line2d_5">
      <path d="M 188.342893 252 
L 188.342893 34.56 
" clip-path="url(#pd4f0882408)" style="fill: none; stroke: #b0b0b0; stroke-width: 0.8; stroke-linecap: square"/>
     </g>
     <g id="line2d_6">
      <g>
       <use xlink:href="#m664bc93cdc" x="188.342893" y="252" style="stroke: #000000; stroke-width: 0.8"/>
      </g>
     </g>
     <g id="text_3">
      <!-- 200 -->
      <g transform="translate(178.799143 266.598437)scale(0.1 -0.1)">
       <defs>
        <path id="DejaVuSans-32" d="M 1228 531 
L 3431 531 
L 3431 0 
L 469 0 
L 469 531 
Q 828 903 1448 1529 
Q 2069 2156 2228 2338 
Q 2531 2678 2651 2914 
Q 2772 3150 2772 3378 
Q 2772 3750 2511 3984 
Q 2250 4219 1831 4219 
Q 1534 4219 1204 4116 
Q 875 4013 500 3803 
L 500 4441 
Q 881 4594 1212 4672 
Q 1544 4750 1819 4750 
Q 2544 4750 2975 4387 
Q 3406 4025 3406 3419 
Q 3406 3131 3298 2873 
Q 3191 2616 2906 2266 
Q 2828 2175 2409 1742 
Q 1991 1309 1228 531 
z
" transform="scale(0.015625)"/>
       </defs>
       <use xlink:href="#DejaVuSans-32"/>
       <use xlink:href="#DejaVuSans-30" x="63.623047"/>
       <use xlink:href="#DejaVuSans-30" x="127.246094"/>
      </g>
     </g>
    </g>
    <g id="xtick_4">
     <g id="line2d_7">
      <path d="M 247.905248 252 
L 247.905248 34.56 
" clip-path="url(#pd4f0882408)" style="fill: none; stroke: #b0b0b0; stroke-width: 0.8; stroke-linecap: square"/>
     </g>
     <g id="line2d_8">
      <g>
       <use xlink:href="#m664bc93cdc" x="247.905248" y="252" style="stroke: #000000; stroke-width: 0.8"/>
      </g>
     </g>
     <g id="text_4">
      <!-- 300 -->
      <g transform="translate(238.361498 266.598437)scale(0.1 -0.1)">
       <defs>
        <path id="DejaVuSans-33" d="M 2597 2516 
Q 3050 2419 3304 2112 
Q 3559 1806 3559 1356 
Q 3559 666 3084 287 
Q 2609 -91 1734 -91 
Q 1441 -91 1130 -33 
Q 819 25 488 141 
L 488 750 
Q 750 597 1062 519 
Q 1375 441 1716 441 
Q 2309 441 2620 675 
Q 2931 909 2931 1356 
Q 2931 1769 2642 2001 
Q 2353 2234 1838 2234 
L 1294 2234 
L 1294 2753 
L 1863 2753 
Q 2328 2753 2575 2939 
Q 2822 3125 2822 3475 
Q 2822 3834 2567 4026 
Q 2313 4219 1838 4219 
Q 1578 4219 1281 4162 
Q 984 4106 628 3988 
L 628 4550 
Q 988 4650 1302 4700 
Q 1616 4750 1894 4750 
Q 2613 4750 3031 4423 
Q 3450 4097 3450 3541 
Q 3450 3153 3228 2886 
Q 3006 2619 2597 2516 
z
" transform="scale(0.015625)"/>
       </defs>
       <use xlink:href="#DejaVuSans-33"/>
       <use xlink:href="#DejaVuSans-30" x="63.623047"/>
       <use xlink:href="#DejaVuSans-30" x="127.246094"/>
      </g>
     </g>
    </g>
    <g id="xtick_5">
     <g id="line2d_9">
      <path d="M 307.467604 252 
L 307.467604 34.56 
" clip-path="url(#pd4f0882408)" style="fill: none; stroke: #b0b0b0; stroke-width: 0.8; stroke-linecap: square"/>
     </g>
     <g id="line2d_10">
      <g>
       <use xlink:href="#m664bc93cdc" x="307.467604" y="252" style="stroke: #000000; stroke-width: 0.8"/>
      </g>
     </g>
     <g id="text_5">
      <!-- 400 -->
      <g transform="translate(297.923854 266.598437)scale(0.1 -0.1)">
       <defs>
        <path id="DejaVuSans-34" d="M 2419 4116 
L 825 1625 
L 2419 1625 
L 2419 4116 
z
M 2253 4666 
L 3047 4666 
L 3047 1625 
L 3713 1625 
L 3713 1100 
L 3047 1100 
L 3047 0 
L 2419 0 
L 2419 1100 
L 313 1100 
L 313 1709 
L 2253 4666 
z
" transform="scale(0.015625)"/>
       </defs>
       <use xlink:href="#DejaVuSans-34"/>
       <use xlink:href="#DejaVuSans-30" x="63.623047"/>
       <use xlink:href="#DejaVuSans-30" x="127.246094"/>
      </g>
     </g>
    </g>
    <g id="xtick_6">
     <g id="line2d_11">
      <path d="M 367.029959 252 
L 367.029959 34.56 
" clip-path="url(#pd4f0882408)" style="fill: none; stroke: #b0b0b0; stroke-width: 0.8; stroke-linecap: square"/>
     </g>
     <g id="line2d_12">
      <g>
       <use xlink:href="#m664bc93cdc" x="367.029959" y="252" style="stroke: #000000; stroke-width: 0.8"/>
      </g>
     </g>
     <g id="text_6">
      <!-- 500 -->
      <g transform="translate(357.486209 266.598437)scale(0.1 -0.1)">
       <defs>
        <path id="DejaVuSans-35" d="M 691 4666 
L 3169 4666 
L 3169 4134 
L 1269 4134 
L 1269 2991 
Q 1406 3038 1543 3061 
Q 1681 3084 1819 3084 
Q 2600 3084 3056 2656 
Q 3513 2228 3513 1497 
Q 3513 744 3044 326 
Q 2575 -91 1722 -91 
Q 1428 -91 1123 -41 
Q 819 9 494 109 
L 494 744 
Q 775 591 1075 516 
Q 1375 441 1709 441 
Q 2250 441 2565 725 
Q 2881 1009 2881 1497 
Q 2881 1984 2565 2268 
Q 2250 2553 1709 2553 
Q 1456 2553 1204 2497 
Q 953 2441 691 2322 
L 691 4666 
z
" transform="scale(0.015625)"/>
       </defs>
       <use xlink:href="#DejaVuSans-35"/>
       <use xlink:href="#DejaVuSans-30" x="63.623047"/>
       <use xlink:href="#DejaVuSans-30" x="127.246094"/>
      </g>
     </g>
    </g>
    <g id="text_7">
     <!-- bin -->
     <g transform="translate(213.667969 280.276563)scale(0.1 -0.1)">
      <defs>
       <path id="DejaVuSans-62" d="M 3116 1747 
Q 3116 2381 2855 2742 
Q 2594 3103 2138 3103 
Q 1681 3103 1420 2742 
Q 1159 2381 1159 1747 
Q 1159 1113 1420 752 
Q 1681 391 2138 391 
Q 2594 391 2855 752 
Q 3116 1113 3116 1747 
z
M 1159 2969 
Q 1341 3281 1617 3432 
Q 1894 3584 2278 3584 
Q 2916 3584 3314 3078 
Q 3713 2572 3713 1747 
Q 3713 922 3314 415 
Q 2916 -91 2278 -91 
Q 1894 -91 1617 61 
Q 1341 213 1159 525 
L 1159 0 
L 581 0 
L 581 4863 
L 1159 4863 
L 1159 2969 
z
" transform="scale(0.015625)"/>
       <path id="DejaVuSans-69" d="M 603 3500 
L 1178 3500 
L 1178 0 
L 603 0 
L 603 3500 
z
M 603 4863 
L 1178 4863 
L 1178 4134 
L 603 4134 
L 603 4863 
z
" transform="scale(0.015625)"/>
       <path id="DejaVuSans-6e" d="M 3513 2113 
L 3513 0 
L 2938 0 
L 2938 2094 
Q 2938 2591 2744 2837 
Q 2550 3084 2163 3084 
Q 1697 3084 1428 2787 
Q 1159 2491 1159 1978 
L 1159 0 
L 581 0 
L 581 3500 
L 1159 3500 
L 1159 2956 
Q 1366 3272 1645 3428 
Q 1925 3584 2291 3584 
Q 2894 3584 3203 3211 
Q 3513 2838 3513 2113 
z
" transform="scale(0.015625)"/>
      </defs>
      <use xlink:href="#DejaVuSans-62"/>
      <use xlink:href="#DejaVuSans-69" x="63.476562"/>
      <use xlink:href="#DejaVuSans-6e" x="91.259766"/>
     </g>
    </g>
   </g>
   <g id="matplotlib.axis_2">
    <g id="ytick_1">
     <g id="line2d_13">
      <path d="M 54 252 
L 388.8 252 
" clip-path="url(#pd4f0882408)" style="fill: none; stroke: #b0b0b0; stroke-width: 0.8; stroke-linecap: square"/>
     </g>
     <g id="line2d_14">
      <defs>
       <path id="m3334277572" d="M 0 0 
L -3.5 0 
" style="stroke: #000000; stroke-width: 0.8"/>
      </defs>
      <g>
       <use xlink:href="#m3334277572" x="54" y="252" style="stroke: #000000; stroke-width: 0.8"/>
      </g>
     </g>
     <g id="text_8">
      <!-- 0.0 -->
      <g transform="translate(31.096875 255.799219)scale(0.1 -0.1)">
       <defs>
        <path id="DejaVuSans-2e" d="M 684 794 
L 1344 794 
L 1344 0 
L 684 0 
L 684 794 
z
" transform="scale(0.015625)"/>
       </defs>
       <use xlink:href="#DejaVuSans-30"/>
       <use xlink:href="#DejaVuSans-2e" x="63.623047"/>
       <use xlink:href="#DejaVuSans-30" x="95.410156"/>
      </g>
     </g>
    </g>
    <g id="ytick_2">
     <g id="line2d_15">
      <path d="M 54 208.512 
L 388.8 208.512 
" clip-path="url(#pd4f0882408)" style="fill: none; stroke: #b0b0b0; stroke-width: 0.8; stroke-linecap: square"/>
     </g>
     <g id="line2d_16">
      <g>
       <use xlink:href="#m3334277572" x="54" y="208.512" style="stroke: #000000; stroke-width: 0.8"/>
      </g>
     </g>
     <g id="text_9">
      <!-- 0.2 -->
      <g transform="translate(31.096875 212.311219)scale(0.1 -0.1)">
       <use xlink:href="#DejaVuSans-30"/>
       <use xlink:href="#DejaVuSans-2e" x="63.623047"/>
       <use xlink:href="#DejaVuSans-32" x="95.410156"/>
      </g>
     </g>
    </g>
    <g id="ytick_3">
     <g id="line2d_17">
      <path d="M 54 165.024 
L 388.8 165.024 
" clip-path="url(#pd4f0882408)" style="fill: none; stroke: #b0b0b0; stroke-width: 0.8; stroke-linecap: square"/>
     </g>
     <g id="line2d_18">
      <g>
       <use xlink:href="#m3334277572" x="54" y="165.024" style="stroke: #000000; stroke-width: 0.8"/>
      </g>
     </g>
     <g id="text_10">
      <!-- 0.4 -->
      <g transform="translate(31.096875 168.823219)scale(0.1 -0.1)">
       <use xlink:href="#DejaVuSans-30"/>
       <use xlink:href="#DejaVuSans-2e" x="63.623047"/>
       <use xlink:href="#DejaVuSans-34" x="95.410156"/>
      </g>
     </g>
    </g>
    <g id="ytick_4">
     <g id="line2d_19">
      <path d="M 54 121.536 
L 388.8 121.536 
" clip-path="url(#pd4f0882408)" style="fill: none; stroke: #b0b0b0; stroke-width: 0.8; stroke-linecap: square"/>
     </g>
     <g id="line2d_20">
      <g>
       <use xlink:href="#m3334277572" x="54" y="121.536" style="stroke: #000000; stroke-width: 0.8"/>
      </g>
     </g>
     <g id="text_11">
      <!-- 0.6 -->
      <g transform="translate(31.096875 125.335219)scale(0.1 -0.1)">
       <defs>
        <path id="DejaVuSans-36" d="M 2113 2584 
Q 1688 2584 1439 2293 
Q 1191 2003 1191 1497 
Q 1191 994 1439 701 
Q 1688 409 2113 409 
Q 2538 409 2786 701 
Q 3034 994 3034 1497 
Q 3034 2003 2786 2293 
Q 2538 2584 2113 2584 
z
M 3366 4563 
L 3366 3988 
Q 3128 4100 2886 4159 
Q 2644 4219 2406 4219 
Q 1781 4219 1451 3797 
Q 1122 3375 1075 2522 
Q 1259 2794 1537 2939 
Q 1816 3084 2150 3084 
Q 2853 3084 3261 2657 
Q 3669 2231 3669 1497 
Q 3669 778 3244 343 
Q 2819 -91 2113 -91 
Q 1303 -91 875 529 
Q 447 1150 447 2328 
Q 447 3434 972 4092 
Q 1497 4750 2381 4750 
Q 2619 4750 2861 4703 
Q 3103 4656 3366 4563 
z
" transform="scale(0.015625)"/>
       </defs>
       <use xlink:href="#DejaVuSans-30"/>
       <use xlink:href="#DejaVuSans-2e" x="63.623047"/>
       <use xlink:href="#DejaVuSans-36" x="95.410156"/>
      </g>
     </g>
    </g>
    <g id="ytick_5">
     <g id="line2d_21">
      <path d="M 54 78.048 
L 388.8 78.048 
" clip-path="url(#pd4f0882408)" style="fill: none; stroke: #b0b0b0; stroke-width: 0.8; stroke-linecap: square"/>
     </g>
     <g id="line2d_22">
      <g>
       <use xlink:href="#m3334277572" x="54" y="78.048" style="stroke: #000000; stroke-width: 0.8"/>
      </g>
     </g>
     <g id="text_12">
      <!-- 0.8 -->
      <g transform="translate(31.096875 81.847219)scale(0.1 -0.1)">
       <defs>
        <path id="DejaVuSans-38" d="M 2034 2216 
Q 1584 2216 1326 1975 
Q 1069 1734 1069 1313 
Q 1069 891 1326 650 
Q 1584 409 2034 409 
Q 2484 409 2743 651 
Q 3003 894 3003 1313 
Q 3003 1734 2745 1975 
Q 2488 2216 2034 2216 
z
M 1403 2484 
Q 997 2584 770 2862 
Q 544 3141 544 3541 
Q 544 4100 942 4425 
Q 1341 4750 2034 4750 
Q 2731 4750 3128 4425 
Q 3525 4100 3525 3541 
Q 3525 3141 3298 2862 
Q 3072 2584 2669 2484 
Q 3125 2378 3379 2068 
Q 3634 1759 3634 1313 
Q 3634 634 3220 271 
Q 2806 -91 2034 -91 
Q 1263 -91 848 271 
Q 434 634 434 1313 
Q 434 1759 690 2068 
Q 947 2378 1403 2484 
z
M 1172 3481 
Q 1172 3119 1398 2916 
Q 1625 2713 2034 2713 
Q 2441 2713 2670 2916 
Q 2900 3119 2900 3481 
Q 2900 3844 2670 4047 
Q 2441 4250 2034 4250 
Q 1625 4250 1398 4047 
Q 1172 3844 1172 3481 
z
" transform="scale(0.015625)"/>
       </defs>
       <use xlink:href="#DejaVuSans-30"/>
       <use xlink:href="#DejaVuSans-2e" x="63.623047"/>
       <use xlink:href="#DejaVuSans-38" x="95.410156"/>
      </g>
     </g>
    </g>
    <g id="ytick_6">
     <g id="line2d_23">
      <path d="M 54 34.56 
L 388.8 34.56 
" clip-path="url(#pd4f0882408)" style="fill: none; stroke: #b0b0b0; stroke-width: 0.8; stroke-linecap: square"/>
     </g>
     <g id="line2d_24">
      <g>
       <use xlink:href="#m3334277572" x="54" y="34.56" style="stroke: #000000; stroke-width: 0.8"/>
      </g>
     </g>
     <g id="text_13">
      <!-- 1.0 -->
      <g transform="translate(31.096875 38.359219)scale(0.1 -0.1)">
       <use xlink:href="#DejaVuSans-31"/>
       <use xlink:href="#DejaVuSans-2e" x="63.623047"/>
       <use xlink:href="#DejaVuSans-30" x="95.410156"/>
      </g>
     </g>
    </g>
    <g id="text_14">
     <!-- count -->
     <g transform="translate(25.017187 157.38625)rotate(-90)scale(0.1 -0.1)">
      <defs>
       <path id="DejaVuSans-63" d="M 3122 3366 
L 3122 2828 
Q 2878 2963 2633 3030 
Q 2388 3097 2138 3097 
Q 1578 3097 1268 2742 
Q 959 2388 959 1747 
Q 959 1106 1268 751 
Q 1578 397 2138 397 
Q 2388 397 2633 464 
Q 2878 531 3122 666 
L 3122 134 
Q 2881 22 2623 -34 
Q 2366 -91 2075 -91 
Q 1284 -91 818 406 
Q 353 903 353 1747 
Q 353 2603 823 3093 
Q 1294 3584 2113 3584 
Q 2378 3584 2631 3529 
Q 2884 3475 3122 3366 
z
" transform="scale(0.015625)"/>
       <path id="DejaVuSans-6f" d="M 1959 3097 
Q 1497 3097 1228 2736 
Q 959 2375 959 1747 
Q 959 1119 1226 758 
Q 1494 397 1959 397 
Q 2419 397 2687 759 
Q 2956 1122 2956 1747 
Q 2956 2369 2687 2733 
Q 2419 3097 1959 3097 
z
M 1959 3584 
Q 2709 3584 3137 3096 
Q 3566 2609 3566 1747 
Q 3566 888 3137 398 
Q 2709 -91 1959 -91 
Q 1206 -91 779 398 
Q 353 888 353 1747 
Q 353 2609 779 3096 
Q 1206 3584 1959 3584 
z
" transform="scale(0.015625)"/>
       <path id="DejaVuSans-75" d="M 544 1381 
L 544 3500 
L 1119 3500 
L 1119 1403 
Q 1119 906 1312 657 
Q 1506 409 1894 409 
Q 2359 409 2629 706 
Q 2900 1003 2900 1516 
L 2900 3500 
L 3475 3500 
L 3475 0 
L 2900 0 
L 2900 538 
Q 2691 219 2414 64 
Q 2138 -91 1772 -91 
Q 1169 -91 856 284 
Q 544 659 544 1381 
z
M 1991 3584 
L 1991 3584 
z
" transform="scale(0.015625)"/>
       <path id="DejaVuSans-74" d="M 1172 4494 
L 1172 3500 
L 2356 3500 
L 2356 3053 
L 1172 3053 
L 1172 1153 
Q 1172 725 1289 603 
Q 1406 481 1766 481 
L 2356 481 
L 2356 0 
L 1766 0 
Q 1100 0 847 248 
Q 594 497 594 1153 
L 594 3053 
L 172 3053 
L 172 3500 
L 594 3500 
L 594 4494 
L 1172 4494 
z
" transform="scale(0.015625)"/>
      </defs>
      <use xlink:href="#DejaVuSans-63"/>
      <use xlink:href="#DejaVuSans-6f" x="54.980469"/>
      <use xlink:href="#DejaVuSans-75" x="116.162109"/>
      <use xlink:href="#DejaVuSans-6e" x="179.541016"/>
      <use xlink:href="#DejaVuSans-74" x="242.919922"/>
     </g>
    </g>
   </g>
   <g id="line2d_25">
    <path d="M 69.218182 236.270298 
L 69.813805 243.364085 
L 70.409429 235.345021 
L 71.005052 236.270298 
L 71.600676 233.494468 
L 72.1963 241.205106 
L 72.791923 235.653447 
L 73.387547 239.046128 
L 73.98317 223.933277 
L 74.578794 236.578723 
L 75.174417 235.961872 
L 75.770041 243.364085 
L 76.365664 240.27983 
L 76.961288 239.354553 
L 77.556912 236.270298 
L 78.152535 235.036596 
L 78.748159 241.513532 
L 79.343782 231.95234 
L 79.939406 229.176511 
L 80.535029 231.335489 
L 81.130653 235.653447 
L 81.726276 233.186043 
L 82.3219 236.270298 
L 82.917524 237.195574 
L 83.513147 244.597787 
L 84.108771 238.737702 
L 84.704394 240.896681 
L 85.300018 236.270298 
L 85.895641 228.55966 
L 86.491265 242.438809 
L 87.086888 235.961872 
L 87.682512 226.400681 
L 88.278136 242.747234 
L 88.873759 232.260766 
L 89.469383 238.737702 
L 90.66063 234.72817 
L 91.256253 240.588255 
L 91.851877 242.130383 
L 92.4475 244.906213 
L 93.043124 240.588255 
L 93.638748 229.176511 
L 94.234371 248.607319 
L 94.829995 249.532596 
L 95.425618 233.802894 
L 96.021242 233.802894 
L 96.616865 237.504 
L 97.212489 224.241702 
L 97.808112 235.961872 
L 98.99936 230.101787 
L 99.594983 228.251234 
L 100.190607 231.335489 
L 101.977477 248.607319 
L 102.573101 225.475404 
L 103.168724 235.345021 
L 103.764348 236.578723 
L 104.359972 230.718638 
L 104.955595 239.354553 
L 105.551219 239.971404 
L 106.146842 237.812426 
L 106.742466 244.597787 
L 107.338089 232.569191 
L 107.933713 251.074723 
L 108.529336 240.588255 
L 109.12496 234.72817 
L 109.720584 227.325957 
L 110.316207 231.95234 
L 110.911831 232.260766 
L 111.507454 229.484936 
L 112.103078 242.747234 
L 112.698701 243.364085 
L 113.889948 234.72817 
L 114.485572 237.195574 
L 115.081196 243.672511 
L 115.676819 233.802894 
L 116.272443 233.802894 
L 116.868066 246.44834 
L 117.46369 241.821957 
L 118.059313 233.186043 
L 118.654937 236.578723 
L 119.25056 233.494468 
L 119.846184 235.653447 
L 120.441808 236.887149 
L 121.037431 241.205106 
L 121.633055 240.896681 
L 122.228678 235.345021 
L 122.824302 232.260766 
L 123.419925 245.523064 
L 124.015549 237.195574 
L 124.611172 238.737702 
L 125.206796 227.634383 
L 126.398043 238.429277 
L 126.993667 232.877617 
L 127.58929 226.092255 
L 128.184914 244.597787 
L 128.780537 244.289362 
L 129.376161 232.877617 
L 129.971784 228.868085 
L 130.567408 235.345021 
L 131.163031 230.101787 
L 131.758655 235.653447 
L 132.354279 234.111319 
L 132.949902 244.597787 
L 133.545526 236.578723 
L 134.141149 234.72817 
L 134.736773 237.504 
L 135.332396 235.036596 
L 135.92802 239.971404 
L 136.523643 225.166979 
L 137.119267 225.78383 
L 137.714891 223.008 
L 138.310514 240.896681 
L 138.906138 252 
L 139.501761 248.298894 
L 140.097385 239.971404 
L 140.693008 244.906213 
L 141.288632 234.72817 
L 141.884255 239.662979 
L 142.479879 234.111319 
L 143.075503 229.793362 
L 143.671126 238.737702 
L 144.26675 224.858553 
L 144.862373 247.065191 
L 145.457997 242.747234 
L 146.05362 239.354553 
L 147.244867 249.532596 
L 147.840491 231.643915 
L 148.436115 241.821957 
L 149.031738 242.747234 
L 149.627362 235.036596 
L 150.222985 237.812426 
L 150.818609 246.139915 
L 151.414232 229.176511 
L 152.009856 231.335489 
L 152.605479 243.364085 
L 153.201103 232.260766 
L 153.796727 238.429277 
L 154.39235 234.111319 
L 154.987974 237.812426 
L 155.583597 226.400681 
L 156.179221 231.643915 
L 156.774844 243.364085 
L 157.370468 240.588255 
L 157.966091 251.383149 
L 158.561715 227.942809 
L 159.157339 232.260766 
L 159.752962 232.569191 
L 160.348586 240.896681 
L 160.944209 244.597787 
L 161.539833 241.205106 
L 162.135456 245.214638 
L 162.73108 238.120851 
L 163.326703 235.961872 
L 163.922327 227.017532 
L 164.517951 231.027064 
L 165.113574 232.877617 
L 165.709198 240.588255 
L 166.304821 234.111319 
L 166.900445 230.718638 
L 167.496068 238.429277 
L 168.091692 238.737702 
L 168.687315 231.335489 
L 169.282939 233.494468 
L 169.878563 243.05566 
L 170.474186 225.166979 
L 171.06981 245.214638 
L 171.665433 242.438809 
L 172.261057 242.747234 
L 172.85668 236.887149 
L 173.452304 235.961872 
L 174.047927 251.383149 
L 174.643551 227.634383 
L 175.239175 227.017532 
L 175.834798 242.130383 
L 176.430422 244.597787 
L 177.026045 234.72817 
L 177.621669 238.120851 
L 178.217292 235.345021 
L 178.812916 244.597787 
L 179.408539 238.120851 
L 180.004163 227.942809 
L 180.599787 239.354553 
L 181.19541 222.699574 
L 181.791034 231.335489 
L 182.386657 226.400681 
L 182.982281 240.588255 
L 183.577904 233.186043 
L 184.173528 248.915745 
L 184.769151 236.578723 
L 185.364775 236.270298 
L 185.960399 247.065191 
L 186.556022 240.588255 
L 187.151646 231.643915 
L 187.747269 250.457872 
L 188.342893 232.260766 
L 188.938516 229.484936 
L 189.53414 230.101787 
L 190.129763 222.699574 
L 190.725387 219.923745 
L 191.32101 207.895149 
L 191.916634 202.343489 
L 193.107881 160.089191 
L 194.299128 133.873021 
L 194.894752 105.806298 
L 195.490375 100.254638 
L 196.681622 57.691915 
L 197.277246 49.364426 
L 198.468493 67.253106 
L 199.064117 70.645787 
L 199.65974 54.60766 
L 200.255364 59.542468 
L 200.850987 66.32783 
L 202.637858 34.56 
L 203.233482 60.77617 
L 203.829105 43.195915 
L 204.424729 46.897021 
L 205.020352 38.877957 
L 205.615976 56.149787 
L 206.211599 53.682383 
L 206.807223 74.346894 
L 207.402846 107.656851 
L 207.99847 130.788766 
L 208.594094 147.135319 
L 209.785341 196.483404 
L 210.380964 195.866553 
L 210.976588 217.45634 
L 211.572211 211.28783 
L 212.167835 239.354553 
L 212.763458 232.877617 
L 213.359082 230.410213 
L 213.954706 227.017532 
L 214.550329 194.632851 
L 215.145953 232.260766 
L 215.741576 226.709106 
L 216.3372 241.205106 
L 216.932823 231.335489 
L 217.528447 238.429277 
L 218.12407 229.176511 
L 218.719694 227.325957 
L 219.315318 240.588255 
L 219.910941 230.101787 
L 220.506565 233.186043 
L 221.102188 247.682043 
L 221.697812 233.186043 
L 222.293435 226.400681 
L 222.889059 232.877617 
L 223.484682 248.298894 
L 224.080306 235.036596 
L 224.67593 246.756766 
L 225.271553 233.186043 
L 225.867177 239.354553 
L 226.4628 239.046128 
L 227.058424 236.578723 
L 227.654047 237.195574 
L 228.249671 232.569191 
L 228.845294 230.718638 
L 229.440918 235.345021 
L 230.036542 235.653447 
L 230.632165 231.335489 
L 231.227789 232.569191 
L 232.419036 248.915745 
L 233.014659 230.101787 
L 233.610283 246.44834 
L 234.205906 244.597787 
L 234.80153 233.494468 
L 235.397154 224.550128 
L 235.992777 242.130383 
L 236.588401 227.634383 
L 237.184024 241.513532 
L 237.779648 239.971404 
L 238.375271 236.270298 
L 238.970895 239.971404 
L 239.566518 232.260766 
L 240.162142 228.868085 
L 240.757766 233.186043 
L 241.353389 247.373617 
L 241.949013 229.176511 
L 242.544636 233.186043 
L 243.14026 240.588255 
L 243.735883 244.289362 
L 244.331507 236.578723 
L 244.92713 239.354553 
L 245.522754 228.55966 
L 246.118378 228.868085 
L 246.714001 233.494468 
L 247.309625 240.896681 
L 247.905248 233.186043 
L 248.500872 234.111319 
L 249.096495 235.345021 
L 249.692119 235.345021 
L 250.287742 234.419745 
L 250.883366 236.578723 
L 251.47899 236.887149 
L 252.074613 242.747234 
L 253.26586 227.017532 
L 253.861484 228.55966 
L 255.052731 239.354553 
L 255.648354 239.971404 
L 256.243978 241.513532 
L 256.839601 239.662979 
L 257.435225 237.195574 
L 258.030849 236.270298 
L 258.626472 220.23217 
L 259.222096 234.111319 
L 259.817719 244.597787 
L 260.413343 248.298894 
L 261.008966 231.95234 
L 261.60459 228.251234 
L 262.200213 231.027064 
L 262.795837 234.419745 
L 263.391461 239.662979 
L 263.987084 235.036596 
L 264.582708 244.597787 
L 265.178331 243.672511 
L 265.773955 241.821957 
L 266.369578 241.513532 
L 266.965202 244.597787 
L 267.560825 235.653447 
L 268.156449 240.588255 
L 268.752073 241.821957 
L 269.347696 231.335489 
L 270.538943 239.662979 
L 271.134567 236.270298 
L 271.73019 237.504 
L 272.325814 235.345021 
L 272.921437 231.027064 
L 273.517061 239.046128 
L 274.112685 238.429277 
L 274.708308 232.260766 
L 275.303932 241.205106 
L 275.899555 247.990468 
L 276.495179 239.354553 
L 277.090802 245.831489 
L 277.686426 237.504 
L 278.282049 242.130383 
L 278.877673 240.588255 
L 279.473297 240.588255 
L 280.06892 239.971404 
L 280.664544 247.990468 
L 281.260167 239.354553 
L 281.855791 238.120851 
L 282.451414 238.737702 
L 283.047038 246.756766 
L 283.642661 241.205106 
L 284.238285 237.812426 
L 284.833909 237.195574 
L 285.429532 240.896681 
L 286.025156 232.569191 
L 286.620779 241.821957 
L 287.216403 236.887149 
L 287.812026 238.429277 
L 288.40765 224.550128 
L 289.003273 239.046128 
L 289.598897 232.260766 
L 290.194521 242.747234 
L 290.790144 234.419745 
L 291.981391 239.354553 
L 292.577015 239.662979 
L 293.172638 236.270298 
L 293.768262 231.95234 
L 294.363885 238.120851 
L 294.959509 243.05566 
L 295.555133 242.438809 
L 296.150756 237.195574 
L 296.74638 242.130383 
L 297.342003 227.942809 
L 297.937627 230.101787 
L 298.53325 237.195574 
L 299.128874 241.205106 
L 299.724497 239.046128 
L 300.320121 241.821957 
L 300.915745 239.354553 
L 301.511368 239.971404 
L 302.106992 233.494468 
L 302.702615 243.672511 
L 303.298239 231.027064 
L 303.893862 224.858553 
L 304.489486 241.513532 
L 305.085109 231.95234 
L 305.680733 241.205106 
L 306.276357 247.065191 
L 306.87198 229.176511 
L 307.467604 240.896681 
L 308.063227 246.44834 
L 308.658851 230.101787 
L 309.254474 246.139915 
L 309.850098 234.72817 
L 310.445721 229.793362 
L 311.041345 233.186043 
L 311.636969 234.111319 
L 312.232592 235.961872 
L 312.828216 235.345021 
L 313.423839 235.036596 
L 314.019463 239.971404 
L 314.615086 237.504 
L 315.21071 234.111319 
L 315.806333 245.523064 
L 316.401957 227.942809 
L 316.997581 237.504 
L 318.188828 236.270298 
L 318.784451 235.345021 
L 319.975698 234.111319 
L 320.571322 247.373617 
L 321.166945 231.027064 
L 321.762569 238.120851 
L 322.358192 234.419745 
L 322.953816 240.27983 
L 323.54944 232.569191 
L 324.145063 234.72817 
L 324.740687 241.205106 
L 325.33631 241.205106 
L 325.931934 236.887149 
L 326.527557 235.345021 
L 327.123181 230.410213 
L 327.718804 235.036596 
L 328.314428 229.176511 
L 328.910052 226.400681 
L 329.505675 243.05566 
L 330.101299 238.120851 
L 330.696922 237.195574 
L 331.292546 231.95234 
L 331.888169 240.588255 
L 332.483793 235.961872 
L 333.079416 234.111319 
L 333.67504 235.345021 
L 334.270664 230.101787 
L 335.461911 238.737702 
L 336.057534 235.653447 
L 336.653158 238.737702 
L 337.248781 244.597787 
L 337.844405 229.484936 
L 338.440028 227.634383 
L 339.035652 242.438809 
L 339.631276 222.699574 
L 340.226899 237.195574 
L 340.822523 231.027064 
L 341.418146 237.504 
L 342.01377 231.95234 
L 342.609393 232.877617 
L 343.205017 235.345021 
L 343.80064 235.653447 
L 344.396264 241.205106 
L 344.991888 241.205106 
L 345.587511 240.27983 
L 346.183135 238.429277 
L 346.778758 240.588255 
L 347.374382 230.718638 
L 347.970005 236.270298 
L 348.565629 239.354553 
L 349.161252 228.251234 
L 350.3525 237.812426 
L 350.948123 226.709106 
L 351.543747 245.214638 
L 352.13937 227.325957 
L 352.734994 228.251234 
L 353.330617 235.653447 
L 353.926241 235.653447 
L 354.521864 239.971404 
L 355.117488 225.475404 
L 355.713112 244.289362 
L 356.308735 240.896681 
L 356.904359 242.747234 
L 357.499982 239.662979 
L 358.095606 233.802894 
L 358.691229 237.504 
L 359.286853 251.074723 
L 359.882476 242.438809 
L 360.4781 245.831489 
L 361.073724 237.504 
L 361.669347 234.111319 
L 362.264971 240.588255 
L 362.860594 244.289362 
L 363.456218 241.821957 
L 364.051841 233.802894 
L 364.647465 234.72817 
L 365.243088 223.933277 
L 365.838712 237.812426 
L 366.434336 230.410213 
L 367.029959 246.44834 
L 368.81683 231.335489 
L 369.412453 237.812426 
L 370.6037 222.082723 
L 371.199324 235.345021 
L 371.794948 241.821957 
L 372.390571 236.270298 
L 372.986195 232.877617 
L 373.581818 230.718638 
L 373.581818 230.718638 
" clip-path="url(#pd4f0882408)" style="fill: none; stroke: #1f77b4; stroke-width: 1.5; stroke-linecap: square"/>
   </g>
   <g id="line2d_26">
    <path d="M 69.218182 234.142609 
L 69.813805 229.153043 
L 70.409429 239.394783 
L 71.005052 238.606957 
L 71.600676 244.909565 
L 72.1963 230.466087 
L 72.791923 232.304348 
L 73.387547 238.344348 
L 73.98317 227.052174 
L 74.578794 239.657391 
L 75.174417 235.193043 
L 75.770041 219.436522 
L 76.365664 236.243478 
L 76.961288 224.951304 
L 77.556912 242.808696 
L 78.152535 238.869565 
L 78.748159 236.506087 
L 79.343782 235.98087 
L 79.939406 230.991304 
L 80.535029 243.071304 
L 81.130653 240.182609 
L 81.726276 242.808696 
L 82.3219 235.718261 
L 82.917524 235.718261 
L 83.513147 235.193043 
L 84.108771 240.445217 
L 84.704394 232.566957 
L 85.300018 230.203478 
L 85.895641 225.213913 
L 86.491265 237.556522 
L 87.086888 239.394783 
L 87.682512 237.293913 
L 88.278136 235.98087 
L 88.873759 229.153043 
L 89.469383 233.88 
L 90.065006 230.466087 
L 90.66063 229.678261 
L 91.256253 236.768696 
L 91.851877 241.758261 
L 92.4475 235.98087 
L 93.043124 235.455652 
L 93.638748 240.970435 
L 94.234371 244.646957 
L 94.829995 238.344348 
L 95.425618 238.869565 
L 96.021242 228.890435 
L 96.616865 230.466087 
L 97.212489 230.466087 
L 97.808112 239.92 
L 98.403736 227.577391 
L 98.99936 244.121739 
L 99.594983 225.476522 
L 100.190607 229.678261 
L 100.78623 228.102609 
L 101.381854 234.142609 
L 101.977477 234.405217 
L 102.573101 239.92 
L 103.168724 230.466087 
L 103.764348 247.010435 
L 104.359972 222.850435 
L 104.955595 230.203478 
L 105.551219 232.041739 
L 106.146842 237.556522 
L 106.742466 233.88 
L 107.338089 239.92 
L 107.933713 242.546087 
L 108.529336 228.890435 
L 109.12496 226.789565 
L 109.720584 231.253913 
L 110.316207 239.92 
L 110.911831 230.466087 
L 111.507454 235.98087 
L 112.103078 238.081739 
L 112.698701 244.646957 
L 113.889948 237.293913 
L 114.485572 237.556522 
L 115.081196 238.344348 
L 115.676819 238.344348 
L 116.272443 240.707826 
L 116.868066 234.405217 
L 117.46369 221.012174 
L 118.059313 228.365217 
L 118.654937 230.991304 
L 119.25056 231.77913 
L 119.846184 231.516522 
L 120.441808 236.506087 
L 121.037431 240.445217 
L 121.633055 224.163478 
L 122.228678 222.587826 
L 122.824302 234.142609 
L 123.419925 227.84 
L 124.015549 232.829565 
L 124.611172 236.243478 
L 125.206796 238.344348 
L 125.802419 236.243478 
L 126.398043 235.718261 
L 126.993667 226.264348 
L 127.58929 243.071304 
L 128.184914 233.354783 
L 128.780537 240.707826 
L 129.376161 238.606957 
L 129.971784 235.455652 
L 130.567408 226.526957 
L 131.163031 235.193043 
L 131.758655 239.132174 
L 132.354279 240.182609 
L 132.949902 231.253913 
L 133.545526 229.94087 
L 134.141149 241.495652 
L 134.736773 238.081739 
L 135.332396 227.314783 
L 135.92802 239.394783 
L 136.523643 239.92 
L 137.119267 244.121739 
L 137.714891 235.98087 
L 138.310514 234.930435 
L 138.906138 228.365217 
L 139.501761 233.88 
L 140.097385 234.930435 
L 140.693008 235.455652 
L 141.288632 235.193043 
L 141.884255 231.516522 
L 142.479879 240.707826 
L 143.075503 227.052174 
L 143.671126 234.142609 
L 144.26675 228.890435 
L 144.862373 237.81913 
L 145.457997 235.455652 
L 146.05362 237.81913 
L 146.649244 227.052174 
L 147.244867 235.455652 
L 147.840491 237.81913 
L 148.436115 239.394783 
L 149.031738 235.193043 
L 150.222985 229.678261 
L 150.818609 233.617391 
L 151.414232 242.02087 
L 152.009856 231.77913 
L 152.605479 239.394783 
L 153.201103 235.718261 
L 153.796727 240.445217 
L 154.987974 224.951304 
L 155.583597 229.94087 
L 156.179221 226.789565 
L 156.774844 229.415652 
L 157.370468 225.73913 
L 157.966091 243.596522 
L 158.561715 229.94087 
L 159.157339 235.718261 
L 159.752962 234.667826 
L 160.348586 232.566957 
L 160.944209 226.789565 
L 161.539833 231.253913 
L 162.135456 234.142609 
L 162.73108 224.163478 
L 163.326703 207.356522 
L 163.922327 218.386087 
L 164.517951 193.175652 
L 165.113574 181.62087 
L 165.709198 152.996522 
L 166.304821 154.572174 
L 167.496068 97.586087 
L 168.091692 79.466087 
L 168.687315 70.537391 
L 169.282939 44.801739 
L 169.878563 44.276522 
L 170.474186 54.255652 
L 171.06981 37.973913 
L 171.665433 55.306087 
L 172.261057 43.488696 
L 172.85668 69.224348 
L 174.047927 44.276522 
L 174.643551 51.366957 
L 175.239175 48.215652 
L 175.834798 37.186087 
L 176.430422 36.398261 
L 177.026045 40.862609 
L 177.621669 34.56 
L 178.812916 60.033043 
L 179.408539 70.8 
L 180.004163 115.443478 
L 180.599787 126.998261 
L 181.791034 172.692174 
L 182.386657 191.6 
L 182.982281 206.568696 
L 183.577904 227.577391 
L 184.173528 229.415652 
L 184.769151 232.304348 
L 185.364775 239.657391 
L 185.960399 240.182609 
L 186.556022 233.092174 
L 187.151646 187.923478 
L 187.747269 238.869565 
L 188.342893 247.010435 
L 188.938516 229.678261 
L 189.53414 231.253913 
L 190.129763 236.243478 
L 190.725387 240.182609 
L 191.32101 232.041739 
L 191.916634 229.153043 
L 192.512258 237.556522 
L 193.107881 237.556522 
L 193.703505 223.113043 
L 194.299128 237.031304 
L 194.894752 233.88 
L 195.490375 238.606957 
L 196.085999 241.233043 
L 196.681622 229.415652 
L 197.277246 235.98087 
L 197.87287 238.344348 
L 198.468493 244.121739 
L 199.064117 231.253913 
L 199.65974 233.092174 
L 200.255364 242.02087 
L 200.850987 234.667826 
L 201.446611 238.081739 
L 202.042234 233.88 
L 202.637858 235.98087 
L 203.233482 244.646957 
L 203.829105 241.233043 
L 204.424729 234.142609 
L 205.020352 236.768696 
L 205.615976 228.627826 
L 206.807223 234.930435 
L 207.402846 234.142609 
L 207.99847 230.466087 
L 208.594094 227.577391 
L 209.189717 228.627826 
L 209.785341 232.041739 
L 210.380964 233.092174 
L 210.976588 233.617391 
L 211.572211 238.344348 
L 212.167835 230.728696 
L 212.763458 234.405217 
L 213.359082 233.617391 
L 213.954706 238.606957 
L 214.550329 234.142609 
L 215.145953 224.426087 
L 215.741576 232.304348 
L 216.3372 237.031304 
L 216.932823 227.052174 
L 217.528447 231.516522 
L 218.12407 238.606957 
L 218.719694 235.718261 
L 219.315318 224.688696 
L 219.910941 239.657391 
L 220.506565 228.627826 
L 221.102188 234.142609 
L 221.697812 218.123478 
L 222.293435 249.636522 
L 222.889059 244.384348 
L 223.484682 236.506087 
L 224.080306 238.344348 
L 224.67593 226.789565 
L 225.271553 240.970435 
L 225.867177 249.89913 
L 226.4628 226.789565 
L 227.058424 242.02087 
L 227.654047 237.293913 
L 228.249671 239.132174 
L 228.845294 224.951304 
L 229.440918 235.98087 
L 230.036542 242.546087 
L 230.632165 229.94087 
L 231.227789 233.354783 
L 231.823412 229.415652 
L 232.419036 238.081739 
L 233.014659 252 
L 233.610283 236.506087 
L 234.205906 227.314783 
L 234.80153 234.667826 
L 235.397154 228.365217 
L 235.992777 237.293913 
L 236.588401 227.577391 
L 237.184024 231.516522 
L 237.779648 233.354783 
L 238.375271 233.354783 
L 238.970895 240.970435 
L 239.566518 232.041739 
L 240.162142 239.657391 
L 240.757766 223.638261 
L 241.353389 232.566957 
L 241.949013 238.869565 
L 242.544636 230.991304 
L 243.14026 242.808696 
L 243.735883 231.516522 
L 244.331507 241.758261 
L 244.92713 235.718261 
L 245.522754 238.081739 
L 246.118378 236.243478 
L 246.714001 235.455652 
L 247.309625 232.829565 
L 247.905248 223.113043 
L 248.500872 228.627826 
L 249.096495 237.293913 
L 249.692119 240.445217 
L 250.287742 232.041739 
L 250.883366 233.092174 
L 251.47899 234.405217 
L 252.074613 229.415652 
L 252.670237 228.890435 
L 253.26586 243.333913 
L 253.861484 226.001739 
L 254.457107 235.193043 
L 255.052731 241.758261 
L 256.243978 234.667826 
L 256.839601 226.789565 
L 257.435225 234.667826 
L 258.030849 239.132174 
L 258.626472 233.617391 
L 259.222096 234.142609 
L 259.817719 226.264348 
L 261.008966 235.193043 
L 261.60459 235.455652 
L 262.200213 230.991304 
L 262.795837 238.869565 
L 263.391461 230.991304 
L 263.987084 228.627826 
L 264.582708 238.344348 
L 265.178331 227.314783 
L 265.773955 236.506087 
L 266.369578 233.88 
L 267.560825 241.758261 
L 268.156449 223.90087 
L 268.752073 244.121739 
L 269.347696 236.768696 
L 269.94332 238.344348 
L 270.538943 231.516522 
L 271.134567 243.596522 
L 271.73019 232.566957 
L 272.325814 236.768696 
L 272.921437 242.283478 
L 273.517061 239.132174 
L 274.112685 240.707826 
L 274.708308 232.041739 
L 275.303932 236.768696 
L 275.899555 232.829565 
L 276.495179 249.89913 
L 277.090802 233.092174 
L 277.686426 238.344348 
L 278.282049 235.193043 
L 278.877673 241.758261 
L 279.473297 239.92 
L 280.06892 235.98087 
L 280.664544 235.455652 
L 281.260167 240.970435 
L 282.451414 225.476522 
L 283.047038 228.890435 
L 283.642661 235.455652 
L 284.238285 240.707826 
L 284.833909 239.394783 
L 285.429532 240.182609 
L 286.620779 227.314783 
L 287.216403 233.617391 
L 287.812026 234.142609 
L 288.40765 236.506087 
L 289.003273 239.92 
L 289.598897 237.293913 
L 290.194521 230.466087 
L 290.790144 227.84 
L 291.385768 226.526957 
L 291.981391 236.506087 
L 292.577015 233.617391 
L 293.172638 241.495652 
L 293.768262 237.81913 
L 294.363885 240.182609 
L 294.959509 235.718261 
L 295.555133 232.829565 
L 296.150756 240.182609 
L 296.74638 231.77913 
L 297.342003 233.092174 
L 297.937627 229.94087 
L 298.53325 238.344348 
L 299.128874 235.455652 
L 299.724497 240.445217 
L 300.320121 235.455652 
L 300.915745 229.415652 
L 301.511368 232.829565 
L 302.106992 233.092174 
L 302.702615 244.121739 
L 303.298239 235.193043 
L 303.893862 233.617391 
L 304.489486 231.516522 
L 305.085109 238.081739 
L 305.680733 238.344348 
L 306.276357 237.556522 
L 306.87198 237.81913 
L 307.467604 242.546087 
L 308.063227 241.758261 
L 308.658851 244.121739 
L 309.254474 231.77913 
L 309.850098 235.98087 
L 310.445721 236.506087 
L 311.041345 237.556522 
L 311.636969 228.365217 
L 312.232592 230.203478 
L 312.828216 234.667826 
L 313.423839 240.970435 
L 314.019463 233.354783 
L 314.615086 228.627826 
L 315.21071 237.293913 
L 315.806333 241.233043 
L 316.997581 242.808696 
L 317.593204 224.951304 
L 318.188828 239.394783 
L 318.784451 239.92 
L 319.380075 223.638261 
L 319.975698 231.77913 
L 320.571322 237.81913 
L 321.166945 228.890435 
L 321.762569 244.909565 
L 322.358192 235.98087 
L 322.953816 237.81913 
L 323.54944 230.728696 
L 324.145063 229.153043 
L 325.33631 246.747826 
L 325.931934 233.88 
L 327.123181 227.314783 
L 327.718804 233.88 
L 328.314428 230.466087 
L 328.910052 242.02087 
L 329.505675 232.566957 
L 330.101299 229.94087 
L 330.696922 235.455652 
L 331.292546 229.153043 
L 331.888169 232.829565 
L 332.483793 228.365217 
L 333.079416 238.081739 
L 333.67504 239.92 
L 334.270664 237.031304 
L 334.866287 228.102609 
L 335.461911 234.405217 
L 336.057534 233.354783 
L 336.653158 234.930435 
L 337.248781 224.951304 
L 337.844405 229.153043 
L 338.440028 229.415652 
L 339.035652 233.88 
L 339.631276 235.455652 
L 340.226899 241.758261 
L 340.822523 231.253913 
L 341.418146 234.142609 
L 342.01377 246.747826 
L 342.609393 227.052174 
L 343.205017 218.911304 
L 343.80064 237.81913 
L 344.396264 232.304348 
L 344.991888 237.556522 
L 345.587511 238.869565 
L 346.183135 230.728696 
L 346.778758 241.758261 
L 347.374382 235.98087 
L 347.970005 237.81913 
L 348.565629 221.8 
L 349.161252 234.667826 
L 349.756876 219.961739 
L 350.3525 239.92 
L 350.948123 242.808696 
L 351.543747 234.667826 
L 352.13937 236.506087 
L 352.734994 226.264348 
L 353.330617 241.495652 
L 353.926241 233.88 
L 354.521864 231.516522 
L 355.117488 232.304348 
L 355.713112 234.667826 
L 356.308735 241.233043 
L 356.904359 241.758261 
L 357.499982 234.930435 
L 358.095606 236.506087 
L 358.691229 226.264348 
L 359.286853 235.193043 
L 359.882476 239.394783 
L 360.4781 234.667826 
L 361.073724 237.031304 
L 361.669347 242.02087 
L 362.264971 233.092174 
L 362.860594 239.92 
L 363.456218 243.333913 
L 364.051841 235.455652 
L 364.647465 235.98087 
L 365.243088 235.98087 
L 365.838712 242.546087 
L 366.434336 238.081739 
L 367.029959 236.768696 
L 367.625583 243.333913 
L 368.221206 242.546087 
L 368.81683 244.121739 
L 369.412453 237.031304 
L 370.008077 231.77913 
L 370.6037 240.182609 
L 371.199324 234.142609 
L 371.794948 235.98087 
L 372.390571 235.718261 
L 372.986195 224.426087 
L 373.581818 229.678261 
L 373.581818 229.678261 
" clip-path="url(#pd4f0882408)" style="fill: none; stroke: #ff7f0e; stroke-width: 1.5; stroke-linecap: square"/>
   </g>
   <g id="line2d_27">
    <path d="M 69.218182 233.78802 
L 69.813805 230.75269 
L 70.409429 244.549645 
L 71.005052 227.993299 
L 71.600676 230.200812 
L 72.1963 229.097056 
L 72.791923 233.78802 
L 73.387547 231.580508 
L 73.98317 226.889543 
L 74.578794 225.785787 
L 75.174417 227.165482 
L 75.770041 246.757157 
L 76.365664 237.927107 
L 76.961288 231.580508 
L 77.556912 236.271472 
L 78.152535 225.785787 
L 78.748159 235.995533 
L 79.343782 233.78802 
L 79.939406 236.547411 
L 80.535029 240.686497 
L 81.130653 234.063959 
L 81.726276 231.856447 
L 82.3219 231.580508 
L 82.917524 221.370761 
L 83.513147 233.78802 
L 84.108771 229.372995 
L 84.704394 230.200812 
L 85.300018 235.167716 
L 85.895641 232.408325 
L 86.491265 237.375228 
L 87.086888 231.304569 
L 87.682512 238.478985 
L 88.278136 236.547411 
L 88.873759 236.82335 
L 89.469383 237.927107 
L 90.065006 227.441421 
L 90.66063 229.924873 
L 91.256253 237.651168 
L 91.851877 239.582741 
L 92.4475 234.063959 
L 93.043124 235.995533 
L 93.638748 225.785787 
L 94.234371 237.099289 
L 94.829995 232.684264 
L 95.425618 221.094822 
L 96.021242 229.372995 
L 96.616865 234.063959 
L 97.212489 224.406091 
L 97.808112 240.686497 
L 98.403736 243.721827 
L 98.99936 234.891777 
L 99.594983 234.891777 
L 100.190607 234.063959 
L 100.78623 228.269239 
L 101.381854 236.82335 
L 101.977477 235.167716 
L 102.573101 236.82335 
L 103.168724 234.891777 
L 103.764348 244.825584 
L 104.359972 232.132386 
L 104.955595 227.441421 
L 105.551219 233.236142 
L 106.146842 232.132386 
L 106.742466 242.342132 
L 107.338089 240.134619 
L 107.933713 229.097056 
L 108.529336 229.648934 
L 109.12496 237.927107 
L 109.720584 248.136853 
L 110.316207 231.580508 
L 110.911831 226.613604 
L 111.507454 230.200812 
L 112.103078 229.924873 
L 112.698701 235.719594 
L 113.294325 230.476751 
L 113.889948 232.408325 
L 114.485572 235.995533 
L 115.081196 236.82335 
L 115.676819 226.613604 
L 116.272443 236.547411 
L 116.868066 229.372995 
L 117.46369 231.856447 
L 118.059313 230.476751 
L 118.654937 230.200812 
L 119.25056 231.028629 
L 119.846184 235.167716 
L 120.441808 237.375228 
L 121.037431 233.512081 
L 121.633055 232.132386 
L 122.228678 237.927107 
L 122.824302 237.651168 
L 123.419925 218.611371 
L 124.015549 235.995533 
L 124.611172 240.962437 
L 125.206796 239.306802 
L 125.802419 228.545178 
L 126.398043 235.995533 
L 126.993667 236.547411 
L 127.58929 226.613604 
L 128.184914 232.960203 
L 129.376161 228.545178 
L 129.971784 233.512081 
L 130.567408 228.545178 
L 131.163031 226.061726 
L 131.758655 234.339898 
L 132.354279 230.476751 
L 132.949902 228.545178 
L 133.545526 231.580508 
L 134.141149 228.821117 
L 134.736773 236.271472 
L 135.332396 232.132386 
L 135.92802 237.927107 
L 136.523643 232.960203 
L 137.119267 237.099289 
L 137.714891 243.997766 
L 138.310514 230.200812 
L 138.906138 237.651168 
L 139.501761 222.198579 
L 140.097385 230.200812 
L 140.693008 218.88731 
L 141.288632 227.71736 
L 141.884255 238.203046 
L 142.479879 240.686497 
L 143.075503 232.684264 
L 143.671126 237.927107 
L 144.26675 227.165482 
L 144.862373 235.167716 
L 145.457997 231.580508 
L 146.05362 225.233909 
L 146.649244 241.238376 
L 147.244867 224.68203 
L 147.840491 233.78802 
L 148.436115 237.099289 
L 149.031738 234.339898 
L 149.627362 225.509848 
L 150.222985 238.754924 
L 150.818609 235.719594 
L 151.414232 227.441421 
L 152.605479 234.615838 
L 153.201103 244.273706 
L 153.796727 237.927107 
L 154.39235 241.790254 
L 154.987974 226.889543 
L 156.179221 240.134619 
L 156.774844 228.269239 
L 157.370468 231.028629 
L 157.966091 228.545178 
L 158.561715 241.514315 
L 159.157339 225.233909 
L 159.752962 238.754924 
L 160.348586 240.134619 
L 160.944209 224.68203 
L 161.539833 227.441421 
L 162.135456 225.785787 
L 162.73108 235.995533 
L 163.326703 236.82335 
L 163.922327 252 
L 164.517951 232.960203 
L 165.113574 232.960203 
L 165.709198 227.165482 
L 166.304821 235.167716 
L 166.900445 227.993299 
L 167.496068 236.82335 
L 168.091692 228.545178 
L 168.687315 236.82335 
L 169.282939 234.339898 
L 170.474186 227.993299 
L 171.06981 234.891777 
L 171.665433 232.132386 
L 172.261057 234.891777 
L 172.85668 244.273706 
L 173.452304 234.063959 
L 174.047927 231.304569 
L 174.643551 236.82335 
L 175.239175 218.611371 
L 175.834798 235.443655 
L 176.430422 228.269239 
L 177.026045 238.478985 
L 177.621669 231.304569 
L 178.217292 237.651168 
L 178.812916 240.134619 
L 179.408539 233.236142 
L 180.004163 231.580508 
L 180.599787 233.78802 
L 181.19541 229.648934 
L 181.791034 228.545178 
L 182.386657 223.854213 
L 182.982281 233.236142 
L 183.577904 234.063959 
L 184.173528 240.134619 
L 184.769151 226.061726 
L 185.364775 236.82335 
L 185.960399 238.203046 
L 186.556022 236.271472 
L 187.151646 235.719594 
L 187.747269 231.304569 
L 188.342893 243.169949 
L 188.938516 232.960203 
L 189.53414 230.200812 
L 190.129763 230.476751 
L 190.725387 224.406091 
L 191.32101 234.891777 
L 191.916634 237.927107 
L 192.512258 230.200812 
L 193.107881 235.443655 
L 193.703505 231.580508 
L 194.299128 237.375228 
L 194.894752 231.856447 
L 195.490375 237.099289 
L 196.085999 227.165482 
L 196.681622 220.542944 
L 197.277246 230.200812 
L 197.87287 237.375228 
L 198.468493 231.856447 
L 199.064117 227.993299 
L 199.65974 225.785787 
L 200.255364 234.615838 
L 200.850987 235.443655 
L 201.446611 232.408325 
L 202.042234 240.410558 
L 202.637858 240.962437 
L 203.233482 232.408325 
L 203.829105 226.061726 
L 204.424729 234.063959 
L 205.020352 222.750457 
L 205.615976 230.476751 
L 206.211599 230.476751 
L 206.807223 232.408325 
L 207.402846 231.028629 
L 207.99847 243.721827 
L 208.594094 232.684264 
L 209.189717 227.71736 
L 209.785341 239.85868 
L 210.380964 229.097056 
L 210.976588 236.271472 
L 211.572211 239.85868 
L 212.167835 237.651168 
L 212.763458 239.582741 
L 213.359082 229.648934 
L 213.954706 231.856447 
L 215.145953 240.410558 
L 215.741576 225.509848 
L 216.3372 241.238376 
L 216.932823 242.618071 
L 217.528447 231.028629 
L 218.12407 232.960203 
L 218.719694 225.785787 
L 219.315318 233.78802 
L 219.910941 239.030863 
L 220.506565 227.993299 
L 221.102188 228.821117 
L 221.697812 243.997766 
L 222.293435 230.476751 
L 222.889059 232.960203 
L 223.484682 232.960203 
L 224.080306 234.891777 
L 224.67593 239.85868 
L 225.271553 220.818883 
L 225.867177 231.580508 
L 226.4628 238.203046 
L 227.058424 234.891777 
L 227.654047 240.962437 
L 228.249671 226.337665 
L 228.845294 242.066193 
L 229.440918 222.474518 
L 230.036542 250.896244 
L 231.227789 218.611371 
L 231.823412 233.512081 
L 232.419036 228.545178 
L 233.014659 228.269239 
L 233.610283 220.267005 
L 234.205906 219.715127 
L 235.397154 208.953503 
L 235.992777 205.366294 
L 236.588401 179.979898 
L 237.184024 167.010761 
L 237.779648 164.52731 
L 238.375271 130.586802 
L 238.970895 117.893604 
L 239.566518 90.851574 
L 240.162142 77.882437 
L 240.757766 78.986193 
L 241.353389 65.189239 
L 241.949013 65.465178 
L 242.544636 71.811777 
L 243.14026 67.948629 
L 243.735883 71.535838 
L 244.331507 73.74335 
L 244.92713 82.84934 
L 245.522754 88.368122 
L 246.118378 72.639594 
L 246.714001 62.429848 
L 247.309625 62.705787 
L 247.905248 34.835939 
L 248.500872 34.56 
L 249.096495 67.948629 
L 249.692119 72.915533 
L 250.287742 88.644061 
L 250.883366 108.787614 
L 251.47899 118.169543 
L 252.074613 137.20934 
L 252.670237 163.699492 
L 253.861484 197.64 
L 254.457107 208.125685 
L 255.648354 218.611371 
L 256.243978 224.95797 
L 256.839601 235.995533 
L 257.435225 227.441421 
L 258.030849 236.82335 
L 258.626472 189.637766 
L 259.222096 229.097056 
L 259.817719 242.342132 
L 260.413343 234.891777 
L 261.008966 238.754924 
L 261.60459 228.545178 
L 262.200213 230.200812 
L 262.795837 228.821117 
L 263.391461 238.478985 
L 263.987084 231.856447 
L 264.582708 229.097056 
L 265.178331 235.719594 
L 265.773955 246.205279 
L 266.369578 228.545178 
L 266.965202 227.993299 
L 267.560825 229.648934 
L 268.156449 233.512081 
L 268.752073 220.818883 
L 269.347696 222.474518 
L 270.538943 238.754924 
L 271.134567 228.821117 
L 271.73019 231.028629 
L 272.325814 230.200812 
L 272.921437 236.271472 
L 273.517061 233.512081 
L 274.112685 236.82335 
L 274.708308 235.995533 
L 275.303932 224.95797 
L 275.899555 227.993299 
L 276.495179 235.167716 
L 277.090802 222.474518 
L 277.686426 247.309036 
L 278.282049 228.821117 
L 278.877673 232.132386 
L 279.473297 229.648934 
L 280.06892 223.026396 
L 280.664544 234.339898 
L 281.260167 235.719594 
L 281.855791 229.924873 
L 282.451414 232.684264 
L 283.047038 224.130152 
L 283.642661 233.78802 
L 284.238285 235.167716 
L 284.833909 227.993299 
L 285.429532 230.75269 
L 286.025156 241.238376 
L 287.216403 231.028629 
L 287.812026 239.030863 
L 288.40765 240.134619 
L 289.003273 237.927107 
L 289.598897 232.132386 
L 290.194521 233.236142 
L 290.790144 239.582741 
L 291.385768 220.818883 
L 291.981391 231.304569 
L 292.577015 231.580508 
L 293.172638 226.337665 
L 293.768262 234.615838 
L 294.363885 230.200812 
L 294.959509 213.368528 
L 295.555133 233.236142 
L 296.150756 236.82335 
L 296.74638 231.304569 
L 297.342003 232.684264 
L 297.937627 241.790254 
L 298.53325 222.750457 
L 299.128874 238.478985 
L 299.724497 233.78802 
L 300.320121 236.547411 
L 300.915745 228.269239 
L 301.511368 241.514315 
L 302.106992 220.542944 
L 302.702615 232.408325 
L 303.298239 239.030863 
L 303.893862 231.856447 
L 304.489486 234.615838 
L 305.680733 232.960203 
L 306.276357 229.372995 
L 306.87198 235.719594 
L 308.063227 226.061726 
L 308.658851 229.648934 
L 309.254474 232.132386 
L 309.850098 234.063959 
L 310.445721 233.512081 
L 311.041345 238.754924 
L 312.232592 229.924873 
L 312.828216 235.443655 
L 313.423839 231.856447 
L 314.019463 220.542944 
L 314.615086 233.78802 
L 315.21071 228.545178 
L 315.806333 235.995533 
L 316.401957 240.410558 
L 316.997581 233.78802 
L 317.593204 230.200812 
L 318.188828 233.236142 
L 318.784451 234.063959 
L 319.380075 242.89401 
L 320.571322 237.651168 
L 321.166945 242.618071 
L 321.762569 235.719594 
L 322.358192 242.89401 
L 322.953816 230.476751 
L 323.54944 242.066193 
L 324.145063 226.889543 
L 324.740687 232.960203 
L 325.33631 227.71736 
L 325.931934 229.097056 
L 326.527557 245.101523 
L 327.123181 235.443655 
L 327.718804 237.927107 
L 328.314428 229.097056 
L 328.910052 234.339898 
L 329.505675 238.203046 
L 330.101299 239.582741 
L 330.696922 232.960203 
L 331.292546 235.167716 
L 331.888169 233.236142 
L 332.483793 238.754924 
L 333.079416 224.406091 
L 333.67504 238.754924 
L 334.270664 233.512081 
L 334.866287 243.169949 
L 335.461911 228.821117 
L 336.057534 232.132386 
L 336.653158 227.71736 
L 337.248781 217.231675 
L 337.844405 240.410558 
L 338.440028 234.891777 
L 339.035652 230.75269 
L 339.631276 238.203046 
L 340.226899 229.648934 
L 340.822523 234.339898 
L 341.418146 231.304569 
L 342.01377 239.030863 
L 342.609393 241.238376 
L 343.205017 231.856447 
L 343.80064 240.134619 
L 344.396264 239.582741 
L 344.991888 229.372995 
L 345.587511 235.443655 
L 346.778758 229.097056 
L 347.374382 228.269239 
L 347.970005 236.271472 
L 348.565629 227.441421 
L 349.161252 231.304569 
L 349.756876 234.063959 
L 350.3525 233.512081 
L 350.948123 234.615838 
L 351.543747 239.030863 
L 352.13937 238.478985 
L 352.734994 228.545178 
L 353.330617 228.545178 
L 353.926241 235.167716 
L 354.521864 237.375228 
L 355.117488 234.615838 
L 355.713112 232.408325 
L 356.308735 238.478985 
L 356.904359 230.200812 
L 357.499982 227.71736 
L 358.095606 237.651168 
L 358.691229 236.82335 
L 359.286853 238.754924 
L 359.882476 223.578274 
L 360.4781 240.962437 
L 361.073724 246.205279 
L 361.669347 233.512081 
L 362.264971 244.273706 
L 363.456218 226.613604 
L 364.051841 226.061726 
L 364.647465 228.821117 
L 365.243088 235.719594 
L 365.838712 221.92264 
L 366.434336 222.474518 
L 367.029959 234.615838 
L 367.625583 236.547411 
L 368.221206 231.028629 
L 368.81683 235.995533 
L 369.412453 233.512081 
L 370.008077 241.514315 
L 370.6037 238.754924 
L 371.199324 231.028629 
L 371.794948 227.71736 
L 372.390571 233.236142 
L 372.986195 235.995533 
L 373.581818 233.236142 
L 373.581818 233.236142 
" clip-path="url(#pd4f0882408)" style="fill: none; stroke: #2ca02c; stroke-width: 1.5; stroke-linecap: square"/>
   </g>
   <g id="patch_3">
    <path d="M 54 252 
L 54 34.56 
" style="fill: none; stroke: #000000; stroke-width: 0.8; stroke-linejoin: miter; stroke-linecap: square"/>
   </g>
   <g id="patch_4">
    <path d="M 388.8 252 
L 388.8 34.56 
" style="fill: none; stroke: #000000; stroke-width: 0.8; stroke-linejoin: miter; stroke-linecap: square"/>
   </g>
   <g id="patch_5">
    <path d="M 54 252 
L 388.8 252 
" style="fill: none; stroke: #000000; stroke-width: 0.8; stroke-linejoin: miter; stroke-linecap: square"/>
   </g>
   <g id="patch_6">
    <path d="M 54 34.56 
L 388.8 34.56 
" style="fill: none; stroke: #000000; stroke-width: 0.8; stroke-linejoin: miter; stroke-linecap: square"/>
   </g>
   <g id="text_15">
    <!-- Label 7 normalized -->
    <g transform="translate(164.240625 28.56)scale(0.12 -0.12)">
     <defs>
      <path id="DejaVuSans-4c" d="M 628 4666 
L 1259 4666 
L 1259 531 
L 3531 531 
L 3531 0 
L 628 0 
L 628 4666 
z
" transform="scale(0.015625)"/>
      <path id="DejaVuSans-61" d="M 2194 1759 
Q 1497 1759 1228 1600 
Q 959 1441 959 1056 
Q 959 750 1161 570 
Q 1363 391 1709 391 
Q 2188 391 2477 730 
Q 2766 1069 2766 1631 
L 2766 1759 
L 2194 1759 
z
M 3341 1997 
L 3341 0 
L 2766 0 
L 2766 531 
Q 2569 213 2275 61 
Q 1981 -91 1556 -91 
Q 1019 -91 701 211 
Q 384 513 384 1019 
Q 384 1609 779 1909 
Q 1175 2209 1959 2209 
L 2766 2209 
L 2766 2266 
Q 2766 2663 2505 2880 
Q 2244 3097 1772 3097 
Q 1472 3097 1187 3025 
Q 903 2953 641 2809 
L 641 3341 
Q 956 3463 1253 3523 
Q 1550 3584 1831 3584 
Q 2591 3584 2966 3190 
Q 3341 2797 3341 1997 
z
" transform="scale(0.015625)"/>
      <path id="DejaVuSans-65" d="M 3597 1894 
L 3597 1613 
L 953 1613 
Q 991 1019 1311 708 
Q 1631 397 2203 397 
Q 2534 397 2845 478 
Q 3156 559 3463 722 
L 3463 178 
Q 3153 47 2828 -22 
Q 2503 -91 2169 -91 
Q 1331 -91 842 396 
Q 353 884 353 1716 
Q 353 2575 817 3079 
Q 1281 3584 2069 3584 
Q 2775 3584 3186 3129 
Q 3597 2675 3597 1894 
z
M 3022 2063 
Q 3016 2534 2758 2815 
Q 2500 3097 2075 3097 
Q 1594 3097 1305 2825 
Q 1016 2553 972 2059 
L 3022 2063 
z
" transform="scale(0.015625)"/>
      <path id="DejaVuSans-6c" d="M 603 4863 
L 1178 4863 
L 1178 0 
L 603 0 
L 603 4863 
z
" transform="scale(0.015625)"/>
      <path id="DejaVuSans-20" transform="scale(0.015625)"/>
      <path id="DejaVuSans-37" d="M 525 4666 
L 3525 4666 
L 3525 4397 
L 1831 0 
L 1172 0 
L 2766 4134 
L 525 4134 
L 525 4666 
z
" transform="scale(0.015625)"/>
      <path id="DejaVuSans-72" d="M 2631 2963 
Q 2534 3019 2420 3045 
Q 2306 3072 2169 3072 
Q 1681 3072 1420 2755 
Q 1159 2438 1159 1844 
L 1159 0 
L 581 0 
L 581 3500 
L 1159 3500 
L 1159 2956 
Q 1341 3275 1631 3429 
Q 1922 3584 2338 3584 
Q 2397 3584 2469 3576 
Q 2541 3569 2628 3553 
L 2631 2963 
z
" transform="scale(0.015625)"/>
      <path id="DejaVuSans-6d" d="M 3328 2828 
Q 3544 3216 3844 3400 
Q 4144 3584 4550 3584 
Q 5097 3584 5394 3201 
Q 5691 2819 5691 2113 
L 5691 0 
L 5113 0 
L 5113 2094 
Q 5113 2597 4934 2840 
Q 4756 3084 4391 3084 
Q 3944 3084 3684 2787 
Q 3425 2491 3425 1978 
L 3425 0 
L 2847 0 
L 2847 2094 
Q 2847 2600 2669 2842 
Q 2491 3084 2119 3084 
Q 1678 3084 1418 2786 
Q 1159 2488 1159 1978 
L 1159 0 
L 581 0 
L 581 3500 
L 1159 3500 
L 1159 2956 
Q 1356 3278 1631 3431 
Q 1906 3584 2284 3584 
Q 2666 3584 2933 3390 
Q 3200 3197 3328 2828 
z
" transform="scale(0.015625)"/>
      <path id="DejaVuSans-7a" d="M 353 3500 
L 3084 3500 
L 3084 2975 
L 922 459 
L 3084 459 
L 3084 0 
L 275 0 
L 275 525 
L 2438 3041 
L 353 3041 
L 353 3500 
z
" transform="scale(0.015625)"/>
      <path id="DejaVuSans-64" d="M 2906 2969 
L 2906 4863 
L 3481 4863 
L 3481 0 
L 2906 0 
L 2906 525 
Q 2725 213 2448 61 
Q 2172 -91 1784 -91 
Q 1150 -91 751 415 
Q 353 922 353 1747 
Q 353 2572 751 3078 
Q 1150 3584 1784 3584 
Q 2172 3584 2448 3432 
Q 2725 3281 2906 2969 
z
M 947 1747 
Q 947 1113 1208 752 
Q 1469 391 1925 391 
Q 2381 391 2643 752 
Q 2906 1113 2906 1747 
Q 2906 2381 2643 2742 
Q 2381 3103 1925 3103 
Q 1469 3103 1208 2742 
Q 947 2381 947 1747 
z
" transform="scale(0.015625)"/>
     </defs>
     <use xlink:href="#DejaVuSans-4c"/>
     <use xlink:href="#DejaVuSans-61" x="55.712891"/>
     <use xlink:href="#DejaVuSans-62" x="116.992188"/>
     <use xlink:href="#DejaVuSans-65" x="180.46875"/>
     <use xlink:href="#DejaVuSans-6c" x="241.992188"/>
     <use xlink:href="#DejaVuSans-20" x="269.775391"/>
     <use xlink:href="#DejaVuSans-37" x="301.5625"/>
     <use xlink:href="#DejaVuSans-20" x="365.185547"/>
     <use xlink:href="#DejaVuSans-6e" x="396.972656"/>
     <use xlink:href="#DejaVuSans-6f" x="460.351562"/>
     <use xlink:href="#DejaVuSans-72" x="521.533203"/>
     <use xlink:href="#DejaVuSans-6d" x="560.896484"/>
     <use xlink:href="#DejaVuSans-61" x="658.308594"/>
     <use xlink:href="#DejaVuSans-6c" x="719.587891"/>
     <use xlink:href="#DejaVuSans-69" x="747.371094"/>
     <use xlink:href="#DejaVuSans-7a" x="775.154297"/>
     <use xlink:href="#DejaVuSans-65" x="827.644531"/>
     <use xlink:href="#DejaVuSans-64" x="889.167969"/>
    </g>
   </g>
   <g id="legend_1">
    <g id="patch_7">
     <path d="M 309.070312 101.2725 
L 381.8 101.2725 
Q 383.8 101.2725 383.8 99.2725 
L 383.8 41.56 
Q 383.8 39.56 381.8 39.56 
L 309.070312 39.56 
Q 307.070312 39.56 307.070312 41.56 
L 307.070312 99.2725 
Q 307.070312 101.2725 309.070312 101.2725 
z
" style="fill: #ffffff; opacity: 0.8; stroke: #cccccc; stroke-linejoin: miter"/>
    </g>
    <g id="text_16">
     <!-- Trace number -->
     <g transform="translate(311.070312 51.158437)scale(0.1 -0.1)">
      <defs>
       <path id="DejaVuSans-54" d="M -19 4666 
L 3928 4666 
L 3928 4134 
L 2272 4134 
L 2272 0 
L 1638 0 
L 1638 4134 
L -19 4134 
L -19 4666 
z
" transform="scale(0.015625)"/>
      </defs>
      <use xlink:href="#DejaVuSans-54"/>
      <use xlink:href="#DejaVuSans-72" x="46.333984"/>
      <use xlink:href="#DejaVuSans-61" x="87.447266"/>
      <use xlink:href="#DejaVuSans-63" x="148.726562"/>
      <use xlink:href="#DejaVuSans-65" x="203.707031"/>
      <use xlink:href="#DejaVuSans-20" x="265.230469"/>
      <use xlink:href="#DejaVuSans-6e" x="297.017578"/>
      <use xlink:href="#DejaVuSans-75" x="360.396484"/>
      <use xlink:href="#DejaVuSans-6d" x="423.775391"/>
      <use xlink:href="#DejaVuSans-62" x="521.1875"/>
      <use xlink:href="#DejaVuSans-65" x="584.664062"/>
      <use xlink:href="#DejaVuSans-72" x="646.1875"/>
     </g>
    </g>
    <g id="line2d_28">
     <path d="M 321.891406 62.336562 
L 331.891406 62.336562 
L 341.891406 62.336562 
" style="fill: none; stroke: #1f77b4; stroke-width: 1.5; stroke-linecap: square"/>
    </g>
    <g id="text_17">
     <!-- 19 -->
     <g transform="translate(349.891406 65.836562)scale(0.1 -0.1)">
      <defs>
       <path id="DejaVuSans-39" d="M 703 97 
L 703 672 
Q 941 559 1184 500 
Q 1428 441 1663 441 
Q 2288 441 2617 861 
Q 2947 1281 2994 2138 
Q 2813 1869 2534 1725 
Q 2256 1581 1919 1581 
Q 1219 1581 811 2004 
Q 403 2428 403 3163 
Q 403 3881 828 4315 
Q 1253 4750 1959 4750 
Q 2769 4750 3195 4129 
Q 3622 3509 3622 2328 
Q 3622 1225 3098 567 
Q 2575 -91 1691 -91 
Q 1453 -91 1209 -44 
Q 966 3 703 97 
z
M 1959 2075 
Q 2384 2075 2632 2365 
Q 2881 2656 2881 3163 
Q 2881 3666 2632 3958 
Q 2384 4250 1959 4250 
Q 1534 4250 1286 3958 
Q 1038 3666 1038 3163 
Q 1038 2656 1286 2365 
Q 1534 2075 1959 2075 
z
" transform="scale(0.015625)"/>
      </defs>
      <use xlink:href="#DejaVuSans-31"/>
      <use xlink:href="#DejaVuSans-39" x="63.623047"/>
     </g>
    </g>
    <g id="line2d_29">
     <path d="M 321.891406 77.014687 
L 331.891406 77.014687 
L 341.891406 77.014687 
" style="fill: none; stroke: #ff7f0e; stroke-width: 1.5; stroke-linecap: square"/>
    </g>
    <g id="text_18">
     <!-- 49 -->
     <g transform="translate(349.891406 80.514687)scale(0.1 -0.1)">
      <use xlink:href="#DejaVuSans-34"/>
      <use xlink:href="#DejaVuSans-39" x="63.623047"/>
     </g>
    </g>
    <g id="line2d_30">
     <path d="M 321.891406 91.692813 
L 331.891406 91.692813 
L 341.891406 91.692813 
" style="fill: none; stroke: #2ca02c; stroke-width: 1.5; stroke-linecap: square"/>
    </g>
    <g id="text_19">
     <!-- 102 -->
     <g transform="translate(349.891406 95.192813)scale(0.1 -0.1)">
      <use xlink:href="#DejaVuSans-31"/>
      <use xlink:href="#DejaVuSans-30" x="63.623047"/>
      <use xlink:href="#DejaVuSans-32" x="127.246094"/>
     </g>
    </g>
   </g>
  </g>
 </g>
 <defs>
  <clipPath id="pd4f0882408">
   <rect x="54" y="34.56" width="334.8" height="217.44"/>
  </clipPath>
 </defs>
</svg>
