<?xml version="1.0" encoding="utf-8" standalone="no"?>
<!DOCTYPE svg PUBLIC "-//W3C//DTD SVG 1.1//EN"
  "http://www.w3.org/Graphics/SVG/1.1/DTD/svg11.dtd">
<svg xmlns:xlink="http://www.w3.org/1999/xlink" width="432pt" height="288pt" viewBox="0 0 432 288" xmlns="http://www.w3.org/2000/svg" version="1.1">
 <metadata>
  <rdf:RDF xmlns:dc="http://purl.org/dc/elements/1.1/" xmlns:cc="http://creativecommons.org/ns#" xmlns:rdf="http://www.w3.org/1999/02/22-rdf-syntax-ns#">
   <cc:Work>
    <dc:type rdf:resource="http://purl.org/dc/dcmitype/StillImage"/>
    <dc:date>2022-03-30T13:16:46.488497</dc:date>
    <dc:format>image/svg+xml</dc:format>
    <dc:creator>
     <cc:Agent>
      <dc:title>Matplotlib v3.5.1, https://matplotlib.org/</dc:title>
     </cc:Agent>
    </dc:creator>
   </cc:Work>
  </rdf:RDF>
 </metadata>
 <defs>
  <style type="text/css">*{stroke-linejoin: round; stroke-linecap: butt}</style>
 </defs>
 <g id="figure_1">
  <g id="patch_1">
   <path d="M 0 288 
L 432 288 
L 432 0 
L 0 0 
z
" style="fill: #ffffff"/>
  </g>
  <g id="axes_1">
   <g id="patch_2">
    <path d="M 54 252 
L 388.8 252 
L 388.8 34.56 
L 54 34.56 
z
" style="fill: #ffffff"/>
   </g>
   <g id="matplotlib.axis_1">
    <g id="xtick_1">
     <g id="line2d_1">
      <path d="M 69.218182 252 
L 69.218182 34.56 
" clip-path="url(#pde7663a99f)" style="fill: none; stroke: #b0b0b0; stroke-width: 0.8; stroke-linecap: square"/>
     </g>
     <g id="line2d_2">
      <defs>
       <path id="mcb7bc1bf20" d="M 0 0 
L 0 3.5 
" style="stroke: #000000; stroke-width: 0.8"/>
      </defs>
      <g>
       <use xlink:href="#mcb7bc1bf20" x="69.218182" y="252" style="stroke: #000000; stroke-width: 0.8"/>
      </g>
     </g>
     <g id="text_1">
      <!-- 0 -->
      <g transform="translate(66.036932 266.598437)scale(0.1 -0.1)">
       <defs>
        <path id="DejaVuSans-30" d="M 2034 4250 
Q 1547 4250 1301 3770 
Q 1056 3291 1056 2328 
Q 1056 1369 1301 889 
Q 1547 409 2034 409 
Q 2525 409 2770 889 
Q 3016 1369 3016 2328 
Q 3016 3291 2770 3770 
Q 2525 4250 2034 4250 
z
M 2034 4750 
Q 2819 4750 3233 4129 
Q 3647 3509 3647 2328 
Q 3647 1150 3233 529 
Q 2819 -91 2034 -91 
Q 1250 -91 836 529 
Q 422 1150 422 2328 
Q 422 3509 836 4129 
Q 1250 4750 2034 4750 
z
" transform="scale(0.015625)"/>
       </defs>
       <use xlink:href="#DejaVuSans-30"/>
      </g>
     </g>
    </g>
    <g id="xtick_2">
     <g id="line2d_3">
      <path d="M 128.780537 252 
L 128.780537 34.56 
" clip-path="url(#pde7663a99f)" style="fill: none; stroke: #b0b0b0; stroke-width: 0.8; stroke-linecap: square"/>
     </g>
     <g id="line2d_4">
      <g>
       <use xlink:href="#mcb7bc1bf20" x="128.780537" y="252" style="stroke: #000000; stroke-width: 0.8"/>
      </g>
     </g>
     <g id="text_2">
      <!-- 100 -->
      <g transform="translate(119.236787 266.598437)scale(0.1 -0.1)">
       <defs>
        <path id="DejaVuSans-31" d="M 794 531 
L 1825 531 
L 1825 4091 
L 703 3866 
L 703 4441 
L 1819 4666 
L 2450 4666 
L 2450 531 
L 3481 531 
L 3481 0 
L 794 0 
L 794 531 
z
" transform="scale(0.015625)"/>
       </defs>
       <use xlink:href="#DejaVuSans-31"/>
       <use xlink:href="#DejaVuSans-30" x="63.623047"/>
       <use xlink:href="#DejaVuSans-30" x="127.246094"/>
      </g>
     </g>
    </g>
    <g id="xtick_3">
     <g id="line2d_5">
      <path d="M 188.342893 252 
L 188.342893 34.56 
" clip-path="url(#pde7663a99f)" style="fill: none; stroke: #b0b0b0; stroke-width: 0.8; stroke-linecap: square"/>
     </g>
     <g id="line2d_6">
      <g>
       <use xlink:href="#mcb7bc1bf20" x="188.342893" y="252" style="stroke: #000000; stroke-width: 0.8"/>
      </g>
     </g>
     <g id="text_3">
      <!-- 200 -->
      <g transform="translate(178.799143 266.598437)scale(0.1 -0.1)">
       <defs>
        <path id="DejaVuSans-32" d="M 1228 531 
L 3431 531 
L 3431 0 
L 469 0 
L 469 531 
Q 828 903 1448 1529 
Q 2069 2156 2228 2338 
Q 2531 2678 2651 2914 
Q 2772 3150 2772 3378 
Q 2772 3750 2511 3984 
Q 2250 4219 1831 4219 
Q 1534 4219 1204 4116 
Q 875 4013 500 3803 
L 500 4441 
Q 881 4594 1212 4672 
Q 1544 4750 1819 4750 
Q 2544 4750 2975 4387 
Q 3406 4025 3406 3419 
Q 3406 3131 3298 2873 
Q 3191 2616 2906 2266 
Q 2828 2175 2409 1742 
Q 1991 1309 1228 531 
z
" transform="scale(0.015625)"/>
       </defs>
       <use xlink:href="#DejaVuSans-32"/>
       <use xlink:href="#DejaVuSans-30" x="63.623047"/>
       <use xlink:href="#DejaVuSans-30" x="127.246094"/>
      </g>
     </g>
    </g>
    <g id="xtick_4">
     <g id="line2d_7">
      <path d="M 247.905248 252 
L 247.905248 34.56 
" clip-path="url(#pde7663a99f)" style="fill: none; stroke: #b0b0b0; stroke-width: 0.8; stroke-linecap: square"/>
     </g>
     <g id="line2d_8">
      <g>
       <use xlink:href="#mcb7bc1bf20" x="247.905248" y="252" style="stroke: #000000; stroke-width: 0.8"/>
      </g>
     </g>
     <g id="text_4">
      <!-- 300 -->
      <g transform="translate(238.361498 266.598437)scale(0.1 -0.1)">
       <defs>
        <path id="DejaVuSans-33" d="M 2597 2516 
Q 3050 2419 3304 2112 
Q 3559 1806 3559 1356 
Q 3559 666 3084 287 
Q 2609 -91 1734 -91 
Q 1441 -91 1130 -33 
Q 819 25 488 141 
L 488 750 
Q 750 597 1062 519 
Q 1375 441 1716 441 
Q 2309 441 2620 675 
Q 2931 909 2931 1356 
Q 2931 1769 2642 2001 
Q 2353 2234 1838 2234 
L 1294 2234 
L 1294 2753 
L 1863 2753 
Q 2328 2753 2575 2939 
Q 2822 3125 2822 3475 
Q 2822 3834 2567 4026 
Q 2313 4219 1838 4219 
Q 1578 4219 1281 4162 
Q 984 4106 628 3988 
L 628 4550 
Q 988 4650 1302 4700 
Q 1616 4750 1894 4750 
Q 2613 4750 3031 4423 
Q 3450 4097 3450 3541 
Q 3450 3153 3228 2886 
Q 3006 2619 2597 2516 
z
" transform="scale(0.015625)"/>
       </defs>
       <use xlink:href="#DejaVuSans-33"/>
       <use xlink:href="#DejaVuSans-30" x="63.623047"/>
       <use xlink:href="#DejaVuSans-30" x="127.246094"/>
      </g>
     </g>
    </g>
    <g id="xtick_5">
     <g id="line2d_9">
      <path d="M 307.467604 252 
L 307.467604 34.56 
" clip-path="url(#pde7663a99f)" style="fill: none; stroke: #b0b0b0; stroke-width: 0.8; stroke-linecap: square"/>
     </g>
     <g id="line2d_10">
      <g>
       <use xlink:href="#mcb7bc1bf20" x="307.467604" y="252" style="stroke: #000000; stroke-width: 0.8"/>
      </g>
     </g>
     <g id="text_5">
      <!-- 400 -->
      <g transform="translate(297.923854 266.598437)scale(0.1 -0.1)">
       <defs>
        <path id="DejaVuSans-34" d="M 2419 4116 
L 825 1625 
L 2419 1625 
L 2419 4116 
z
M 2253 4666 
L 3047 4666 
L 3047 1625 
L 3713 1625 
L 3713 1100 
L 3047 1100 
L 3047 0 
L 2419 0 
L 2419 1100 
L 313 1100 
L 313 1709 
L 2253 4666 
z
" transform="scale(0.015625)"/>
       </defs>
       <use xlink:href="#DejaVuSans-34"/>
       <use xlink:href="#DejaVuSans-30" x="63.623047"/>
       <use xlink:href="#DejaVuSans-30" x="127.246094"/>
      </g>
     </g>
    </g>
    <g id="xtick_6">
     <g id="line2d_11">
      <path d="M 367.029959 252 
L 367.029959 34.56 
" clip-path="url(#pde7663a99f)" style="fill: none; stroke: #b0b0b0; stroke-width: 0.8; stroke-linecap: square"/>
     </g>
     <g id="line2d_12">
      <g>
       <use xlink:href="#mcb7bc1bf20" x="367.029959" y="252" style="stroke: #000000; stroke-width: 0.8"/>
      </g>
     </g>
     <g id="text_6">
      <!-- 500 -->
      <g transform="translate(357.486209 266.598437)scale(0.1 -0.1)">
       <defs>
        <path id="DejaVuSans-35" d="M 691 4666 
L 3169 4666 
L 3169 4134 
L 1269 4134 
L 1269 2991 
Q 1406 3038 1543 3061 
Q 1681 3084 1819 3084 
Q 2600 3084 3056 2656 
Q 3513 2228 3513 1497 
Q 3513 744 3044 326 
Q 2575 -91 1722 -91 
Q 1428 -91 1123 -41 
Q 819 9 494 109 
L 494 744 
Q 775 591 1075 516 
Q 1375 441 1709 441 
Q 2250 441 2565 725 
Q 2881 1009 2881 1497 
Q 2881 1984 2565 2268 
Q 2250 2553 1709 2553 
Q 1456 2553 1204 2497 
Q 953 2441 691 2322 
L 691 4666 
z
" transform="scale(0.015625)"/>
       </defs>
       <use xlink:href="#DejaVuSans-35"/>
       <use xlink:href="#DejaVuSans-30" x="63.623047"/>
       <use xlink:href="#DejaVuSans-30" x="127.246094"/>
      </g>
     </g>
    </g>
    <g id="text_7">
     <!-- bin -->
     <g transform="translate(213.667969 280.276563)scale(0.1 -0.1)">
      <defs>
       <path id="DejaVuSans-62" d="M 3116 1747 
Q 3116 2381 2855 2742 
Q 2594 3103 2138 3103 
Q 1681 3103 1420 2742 
Q 1159 2381 1159 1747 
Q 1159 1113 1420 752 
Q 1681 391 2138 391 
Q 2594 391 2855 752 
Q 3116 1113 3116 1747 
z
M 1159 2969 
Q 1341 3281 1617 3432 
Q 1894 3584 2278 3584 
Q 2916 3584 3314 3078 
Q 3713 2572 3713 1747 
Q 3713 922 3314 415 
Q 2916 -91 2278 -91 
Q 1894 -91 1617 61 
Q 1341 213 1159 525 
L 1159 0 
L 581 0 
L 581 4863 
L 1159 4863 
L 1159 2969 
z
" transform="scale(0.015625)"/>
       <path id="DejaVuSans-69" d="M 603 3500 
L 1178 3500 
L 1178 0 
L 603 0 
L 603 3500 
z
M 603 4863 
L 1178 4863 
L 1178 4134 
L 603 4134 
L 603 4863 
z
" transform="scale(0.015625)"/>
       <path id="DejaVuSans-6e" d="M 3513 2113 
L 3513 0 
L 2938 0 
L 2938 2094 
Q 2938 2591 2744 2837 
Q 2550 3084 2163 3084 
Q 1697 3084 1428 2787 
Q 1159 2491 1159 1978 
L 1159 0 
L 581 0 
L 581 3500 
L 1159 3500 
L 1159 2956 
Q 1366 3272 1645 3428 
Q 1925 3584 2291 3584 
Q 2894 3584 3203 3211 
Q 3513 2838 3513 2113 
z
" transform="scale(0.015625)"/>
      </defs>
      <use xlink:href="#DejaVuSans-62"/>
      <use xlink:href="#DejaVuSans-69" x="63.476562"/>
      <use xlink:href="#DejaVuSans-6e" x="91.259766"/>
     </g>
    </g>
   </g>
   <g id="matplotlib.axis_2">
    <g id="ytick_1">
     <g id="line2d_13">
      <path d="M 54 252 
L 388.8 252 
" clip-path="url(#pde7663a99f)" style="fill: none; stroke: #b0b0b0; stroke-width: 0.8; stroke-linecap: square"/>
     </g>
     <g id="line2d_14">
      <defs>
       <path id="m2e8684cc1e" d="M 0 0 
L -3.5 0 
" style="stroke: #000000; stroke-width: 0.8"/>
      </defs>
      <g>
       <use xlink:href="#m2e8684cc1e" x="54" y="252" style="stroke: #000000; stroke-width: 0.8"/>
      </g>
     </g>
     <g id="text_8">
      <!-- 0.0 -->
      <g transform="translate(31.096875 255.799219)scale(0.1 -0.1)">
       <defs>
        <path id="DejaVuSans-2e" d="M 684 794 
L 1344 794 
L 1344 0 
L 684 0 
L 684 794 
z
" transform="scale(0.015625)"/>
       </defs>
       <use xlink:href="#DejaVuSans-30"/>
       <use xlink:href="#DejaVuSans-2e" x="63.623047"/>
       <use xlink:href="#DejaVuSans-30" x="95.410156"/>
      </g>
     </g>
    </g>
    <g id="ytick_2">
     <g id="line2d_15">
      <path d="M 54 208.512 
L 388.8 208.512 
" clip-path="url(#pde7663a99f)" style="fill: none; stroke: #b0b0b0; stroke-width: 0.8; stroke-linecap: square"/>
     </g>
     <g id="line2d_16">
      <g>
       <use xlink:href="#m2e8684cc1e" x="54" y="208.512" style="stroke: #000000; stroke-width: 0.8"/>
      </g>
     </g>
     <g id="text_9">
      <!-- 0.2 -->
      <g transform="translate(31.096875 212.311219)scale(0.1 -0.1)">
       <use xlink:href="#DejaVuSans-30"/>
       <use xlink:href="#DejaVuSans-2e" x="63.623047"/>
       <use xlink:href="#DejaVuSans-32" x="95.410156"/>
      </g>
     </g>
    </g>
    <g id="ytick_3">
     <g id="line2d_17">
      <path d="M 54 165.024 
L 388.8 165.024 
" clip-path="url(#pde7663a99f)" style="fill: none; stroke: #b0b0b0; stroke-width: 0.8; stroke-linecap: square"/>
     </g>
     <g id="line2d_18">
      <g>
       <use xlink:href="#m2e8684cc1e" x="54" y="165.024" style="stroke: #000000; stroke-width: 0.8"/>
      </g>
     </g>
     <g id="text_10">
      <!-- 0.4 -->
      <g transform="translate(31.096875 168.823219)scale(0.1 -0.1)">
       <use xlink:href="#DejaVuSans-30"/>
       <use xlink:href="#DejaVuSans-2e" x="63.623047"/>
       <use xlink:href="#DejaVuSans-34" x="95.410156"/>
      </g>
     </g>
    </g>
    <g id="ytick_4">
     <g id="line2d_19">
      <path d="M 54 121.536 
L 388.8 121.536 
" clip-path="url(#pde7663a99f)" style="fill: none; stroke: #b0b0b0; stroke-width: 0.8; stroke-linecap: square"/>
     </g>
     <g id="line2d_20">
      <g>
       <use xlink:href="#m2e8684cc1e" x="54" y="121.536" style="stroke: #000000; stroke-width: 0.8"/>
      </g>
     </g>
     <g id="text_11">
      <!-- 0.6 -->
      <g transform="translate(31.096875 125.335219)scale(0.1 -0.1)">
       <defs>
        <path id="DejaVuSans-36" d="M 2113 2584 
Q 1688 2584 1439 2293 
Q 1191 2003 1191 1497 
Q 1191 994 1439 701 
Q 1688 409 2113 409 
Q 2538 409 2786 701 
Q 3034 994 3034 1497 
Q 3034 2003 2786 2293 
Q 2538 2584 2113 2584 
z
M 3366 4563 
L 3366 3988 
Q 3128 4100 2886 4159 
Q 2644 4219 2406 4219 
Q 1781 4219 1451 3797 
Q 1122 3375 1075 2522 
Q 1259 2794 1537 2939 
Q 1816 3084 2150 3084 
Q 2853 3084 3261 2657 
Q 3669 2231 3669 1497 
Q 3669 778 3244 343 
Q 2819 -91 2113 -91 
Q 1303 -91 875 529 
Q 447 1150 447 2328 
Q 447 3434 972 4092 
Q 1497 4750 2381 4750 
Q 2619 4750 2861 4703 
Q 3103 4656 3366 4563 
z
" transform="scale(0.015625)"/>
       </defs>
       <use xlink:href="#DejaVuSans-30"/>
       <use xlink:href="#DejaVuSans-2e" x="63.623047"/>
       <use xlink:href="#DejaVuSans-36" x="95.410156"/>
      </g>
     </g>
    </g>
    <g id="ytick_5">
     <g id="line2d_21">
      <path d="M 54 78.048 
L 388.8 78.048 
" clip-path="url(#pde7663a99f)" style="fill: none; stroke: #b0b0b0; stroke-width: 0.8; stroke-linecap: square"/>
     </g>
     <g id="line2d_22">
      <g>
       <use xlink:href="#m2e8684cc1e" x="54" y="78.048" style="stroke: #000000; stroke-width: 0.8"/>
      </g>
     </g>
     <g id="text_12">
      <!-- 0.8 -->
      <g transform="translate(31.096875 81.847219)scale(0.1 -0.1)">
       <defs>
        <path id="DejaVuSans-38" d="M 2034 2216 
Q 1584 2216 1326 1975 
Q 1069 1734 1069 1313 
Q 1069 891 1326 650 
Q 1584 409 2034 409 
Q 2484 409 2743 651 
Q 3003 894 3003 1313 
Q 3003 1734 2745 1975 
Q 2488 2216 2034 2216 
z
M 1403 2484 
Q 997 2584 770 2862 
Q 544 3141 544 3541 
Q 544 4100 942 4425 
Q 1341 4750 2034 4750 
Q 2731 4750 3128 4425 
Q 3525 4100 3525 3541 
Q 3525 3141 3298 2862 
Q 3072 2584 2669 2484 
Q 3125 2378 3379 2068 
Q 3634 1759 3634 1313 
Q 3634 634 3220 271 
Q 2806 -91 2034 -91 
Q 1263 -91 848 271 
Q 434 634 434 1313 
Q 434 1759 690 2068 
Q 947 2378 1403 2484 
z
M 1172 3481 
Q 1172 3119 1398 2916 
Q 1625 2713 2034 2713 
Q 2441 2713 2670 2916 
Q 2900 3119 2900 3481 
Q 2900 3844 2670 4047 
Q 2441 4250 2034 4250 
Q 1625 4250 1398 4047 
Q 1172 3844 1172 3481 
z
" transform="scale(0.015625)"/>
       </defs>
       <use xlink:href="#DejaVuSans-30"/>
       <use xlink:href="#DejaVuSans-2e" x="63.623047"/>
       <use xlink:href="#DejaVuSans-38" x="95.410156"/>
      </g>
     </g>
    </g>
    <g id="ytick_6">
     <g id="line2d_23">
      <path d="M 54 34.56 
L 388.8 34.56 
" clip-path="url(#pde7663a99f)" style="fill: none; stroke: #b0b0b0; stroke-width: 0.8; stroke-linecap: square"/>
     </g>
     <g id="line2d_24">
      <g>
       <use xlink:href="#m2e8684cc1e" x="54" y="34.56" style="stroke: #000000; stroke-width: 0.8"/>
      </g>
     </g>
     <g id="text_13">
      <!-- 1.0 -->
      <g transform="translate(31.096875 38.359219)scale(0.1 -0.1)">
       <use xlink:href="#DejaVuSans-31"/>
       <use xlink:href="#DejaVuSans-2e" x="63.623047"/>
       <use xlink:href="#DejaVuSans-30" x="95.410156"/>
      </g>
     </g>
    </g>
    <g id="text_14">
     <!-- count -->
     <g transform="translate(25.017187 157.38625)rotate(-90)scale(0.1 -0.1)">
      <defs>
       <path id="DejaVuSans-63" d="M 3122 3366 
L 3122 2828 
Q 2878 2963 2633 3030 
Q 2388 3097 2138 3097 
Q 1578 3097 1268 2742 
Q 959 2388 959 1747 
Q 959 1106 1268 751 
Q 1578 397 2138 397 
Q 2388 397 2633 464 
Q 2878 531 3122 666 
L 3122 134 
Q 2881 22 2623 -34 
Q 2366 -91 2075 -91 
Q 1284 -91 818 406 
Q 353 903 353 1747 
Q 353 2603 823 3093 
Q 1294 3584 2113 3584 
Q 2378 3584 2631 3529 
Q 2884 3475 3122 3366 
z
" transform="scale(0.015625)"/>
       <path id="DejaVuSans-6f" d="M 1959 3097 
Q 1497 3097 1228 2736 
Q 959 2375 959 1747 
Q 959 1119 1226 758 
Q 1494 397 1959 397 
Q 2419 397 2687 759 
Q 2956 1122 2956 1747 
Q 2956 2369 2687 2733 
Q 2419 3097 1959 3097 
z
M 1959 3584 
Q 2709 3584 3137 3096 
Q 3566 2609 3566 1747 
Q 3566 888 3137 398 
Q 2709 -91 1959 -91 
Q 1206 -91 779 398 
Q 353 888 353 1747 
Q 353 2609 779 3096 
Q 1206 3584 1959 3584 
z
" transform="scale(0.015625)"/>
       <path id="DejaVuSans-75" d="M 544 1381 
L 544 3500 
L 1119 3500 
L 1119 1403 
Q 1119 906 1312 657 
Q 1506 409 1894 409 
Q 2359 409 2629 706 
Q 2900 1003 2900 1516 
L 2900 3500 
L 3475 3500 
L 3475 0 
L 2900 0 
L 2900 538 
Q 2691 219 2414 64 
Q 2138 -91 1772 -91 
Q 1169 -91 856 284 
Q 544 659 544 1381 
z
M 1991 3584 
L 1991 3584 
z
" transform="scale(0.015625)"/>
       <path id="DejaVuSans-74" d="M 1172 4494 
L 1172 3500 
L 2356 3500 
L 2356 3053 
L 1172 3053 
L 1172 1153 
Q 1172 725 1289 603 
Q 1406 481 1766 481 
L 2356 481 
L 2356 0 
L 1766 0 
Q 1100 0 847 248 
Q 594 497 594 1153 
L 594 3053 
L 172 3053 
L 172 3500 
L 594 3500 
L 594 4494 
L 1172 4494 
z
" transform="scale(0.015625)"/>
      </defs>
      <use xlink:href="#DejaVuSans-63"/>
      <use xlink:href="#DejaVuSans-6f" x="54.980469"/>
      <use xlink:href="#DejaVuSans-75" x="116.162109"/>
      <use xlink:href="#DejaVuSans-6e" x="179.541016"/>
      <use xlink:href="#DejaVuSans-74" x="242.919922"/>
     </g>
    </g>
   </g>
   <g id="line2d_25">
    <path d="M 69.218182 237.39075 
L 69.813805 230.256 
L 70.409429 219.72375 
L 71.005052 246.90375 
L 71.600676 238.07025 
L 72.1963 241.46775 
L 72.791923 242.82675 
L 73.387547 231.95475 
L 73.98317 227.87775 
L 74.578794 221.76225 
L 75.174417 242.14725 
L 75.770041 228.2175 
L 76.365664 230.9355 
L 76.961288 211.23 
L 77.556912 222.7815 
L 78.152535 240.4485 
L 78.748159 232.63425 
L 79.343782 227.538 
L 79.939406 229.23675 
L 80.535029 247.2435 
L 81.130653 229.91625 
L 81.726276 225.4995 
L 82.3219 231.615 
L 82.917524 234.67275 
L 83.513147 214.6275 
L 84.108771 227.19825 
L 84.704394 224.1405 
L 85.300018 223.461 
L 85.895641 228.2175 
L 86.491265 233.99325 
L 87.682512 240.78825 
L 88.278136 222.102 
L 88.873759 239.769 
L 89.469383 232.974 
L 90.065006 238.41 
L 90.66063 241.128 
L 91.256253 241.8075 
L 91.851877 248.94225 
L 92.4475 230.59575 
L 93.043124 225.15975 
L 93.638748 238.41 
L 94.234371 227.19825 
L 94.829995 243.1665 
L 95.425618 233.31375 
L 96.021242 233.31375 
L 97.212489 238.41 
L 97.808112 226.8585 
L 98.403736 229.23675 
L 98.99936 236.3715 
L 99.594983 227.19825 
L 100.190607 244.18575 
L 100.78623 223.461 
L 101.381854 222.7815 
L 101.977477 227.87775 
L 102.573101 224.48025 
L 103.168724 243.50625 
L 103.764348 232.2945 
L 104.359972 230.256 
L 104.955595 236.03175 
L 105.551219 231.615 
L 106.146842 230.256 
L 106.742466 233.99325 
L 107.338089 236.71125 
L 107.933713 223.12125 
L 108.529336 233.6535 
L 109.12496 222.44175 
L 109.720584 230.256 
L 110.316207 241.46775 
L 110.911831 232.974 
L 111.507454 230.59575 
L 112.103078 229.91625 
L 112.698701 228.897 
L 113.294325 232.974 
L 113.889948 228.897 
L 114.485572 237.051 
L 115.081196 235.692 
L 115.676819 233.99325 
L 116.272443 238.41 
L 116.868066 225.4995 
L 118.059313 239.42925 
L 118.654937 215.64675 
L 119.25056 232.2945 
L 119.846184 237.7305 
L 120.441808 228.55725 
L 121.037431 222.7815 
L 121.633055 230.9355 
L 122.228678 241.46775 
L 122.824302 231.27525 
L 123.419925 231.27525 
L 124.015549 226.51875 
L 124.611172 229.5765 
L 125.206796 224.48025 
L 125.802419 228.55725 
L 126.398043 224.82 
L 126.993667 216.666 
L 127.58929 227.19825 
L 128.184914 226.51875 
L 129.376161 237.051 
L 129.971784 244.18575 
L 130.567408 238.74975 
L 131.163031 222.7815 
L 131.758655 230.59575 
L 132.354279 236.71125 
L 132.949902 232.63425 
L 133.545526 239.0895 
L 134.141149 231.95475 
L 134.736773 240.4485 
L 135.92802 215.307 
L 136.523643 231.27525 
L 137.119267 234.333 
L 137.714891 238.74975 
L 138.310514 229.23675 
L 138.906138 237.051 
L 139.501761 236.3715 
L 140.097385 237.7305 
L 140.693008 230.9355 
L 141.288632 231.615 
L 141.884255 231.95475 
L 142.479879 229.5765 
L 143.075503 239.42925 
L 143.671126 230.9355 
L 144.26675 227.538 
L 144.862373 230.9355 
L 145.457997 237.051 
L 146.05362 221.08275 
L 146.649244 238.41 
L 147.244867 242.14725 
L 147.840491 220.743 
L 148.436115 240.4485 
L 149.031738 242.487 
L 149.627362 233.31375 
L 151.414232 227.19825 
L 152.009856 228.2175 
L 152.605479 236.03175 
L 153.201103 239.42925 
L 153.796727 233.6535 
L 154.39235 230.256 
L 154.987974 234.67275 
L 155.583597 237.39075 
L 156.179221 227.87775 
L 156.774844 222.102 
L 157.370468 238.07025 
L 157.966091 246.22425 
L 159.157339 232.974 
L 159.752962 232.2945 
L 160.348586 227.87775 
L 160.944209 226.8585 
L 161.539833 242.14725 
L 162.135456 240.10875 
L 163.326703 224.82 
L 163.922327 238.07025 
L 164.517951 235.35225 
L 165.113574 224.82 
L 165.709198 227.19825 
L 166.304821 232.974 
L 166.900445 224.82 
L 167.496068 229.23675 
L 168.091692 224.1405 
L 168.687315 225.83925 
L 169.282939 228.897 
L 169.878563 246.90375 
L 170.474186 231.615 
L 171.06981 237.051 
L 171.665433 229.91625 
L 172.261057 234.333 
L 172.85668 230.256 
L 173.452304 228.897 
L 174.047927 230.9355 
L 174.643551 233.99325 
L 175.239175 224.48025 
L 176.430422 237.39075 
L 177.026045 230.59575 
L 177.621669 247.2435 
L 178.217292 215.9865 
L 178.812916 218.025 
L 179.408539 239.0895 
L 180.004163 233.31375 
L 180.599787 236.03175 
L 181.19541 237.7305 
L 181.791034 227.19825 
L 182.386657 228.55725 
L 182.982281 234.333 
L 184.173528 237.051 
L 184.769151 221.08275 
L 185.364775 227.538 
L 185.960399 247.2435 
L 186.556022 241.128 
L 187.151646 229.23675 
L 187.747269 239.769 
L 188.342893 234.67275 
L 188.938516 231.615 
L 189.53414 229.91625 
L 190.129763 236.3715 
L 190.725387 236.71125 
L 191.32101 227.19825 
L 191.916634 235.0125 
L 192.512258 229.5765 
L 193.107881 236.71125 
L 193.703505 222.7815 
L 194.299128 229.91625 
L 194.894752 227.538 
L 195.490375 232.63425 
L 196.085999 226.8585 
L 196.681622 232.63425 
L 197.277246 233.31375 
L 197.87287 243.846 
L 198.468493 233.99325 
L 199.064117 234.67275 
L 199.65974 218.025 
L 200.255364 237.39075 
L 200.850987 225.4995 
L 201.446611 224.48025 
L 202.042234 237.7305 
L 202.637858 225.4995 
L 203.233482 239.42925 
L 203.829105 229.5765 
L 204.424729 225.15975 
L 205.020352 232.2945 
L 205.615976 229.5765 
L 206.211599 235.0125 
L 206.807223 214.6275 
L 207.402846 100.13175 
L 207.99847 34.56 
L 208.594094 144.639 
L 209.189717 210.21075 
L 209.785341 230.256 
L 210.380964 241.46775 
L 210.976588 233.6535 
L 211.572211 236.71125 
L 212.167835 235.35225 
L 212.763458 242.14725 
L 213.359082 236.03175 
L 213.954706 232.63425 
L 214.550329 230.256 
L 215.145953 243.846 
L 215.741576 227.87775 
L 216.3372 232.974 
L 216.932823 233.31375 
L 217.528447 232.2945 
L 218.12407 236.71125 
L 218.719694 235.0125 
L 219.315318 236.71125 
L 219.910941 233.99325 
L 220.506565 221.08275 
L 221.102188 226.179 
L 221.697812 238.07025 
L 222.293435 239.0895 
L 222.889059 242.82675 
L 223.484682 219.04425 
L 224.080306 230.9355 
L 224.67593 236.3715 
L 225.271553 224.48025 
L 225.867177 219.72375 
L 226.4628 233.6535 
L 227.058424 244.18575 
L 227.654047 232.2945 
L 228.249671 215.9865 
L 228.845294 223.461 
L 229.440918 234.67275 
L 230.036542 235.35225 
L 230.632165 219.72375 
L 231.227789 236.71125 
L 231.823412 224.82 
L 232.419036 227.538 
L 233.014659 234.333 
L 233.610283 239.769 
L 234.205906 217.68525 
L 234.80153 225.15975 
L 235.397154 229.91625 
L 235.992777 237.051 
L 236.588401 230.9355 
L 237.184024 242.487 
L 237.779648 228.2175 
L 238.375271 232.974 
L 238.970895 240.78825 
L 239.566518 233.99325 
L 240.162142 228.897 
L 240.757766 232.2945 
L 241.353389 223.461 
L 241.949013 238.07025 
L 242.544636 229.23675 
L 243.14026 227.538 
L 243.735883 214.96725 
L 244.331507 239.0895 
L 244.92713 229.23675 
L 245.522754 215.64675 
L 246.118378 231.615 
L 246.714001 225.15975 
L 247.309625 231.95475 
L 248.500872 239.0895 
L 249.096495 230.59575 
L 249.692119 233.31375 
L 250.287742 229.91625 
L 250.883366 236.3715 
L 251.47899 236.71125 
L 252.074613 230.9355 
L 252.670237 239.0895 
L 253.26586 234.333 
L 253.861484 242.82675 
L 254.457107 224.82 
L 255.052731 234.333 
L 255.648354 234.333 
L 256.243978 230.59575 
L 256.839601 228.897 
L 257.435225 228.55725 
L 258.030849 237.39075 
L 258.626472 236.3715 
L 259.222096 231.615 
L 259.817719 242.82675 
L 260.413343 231.615 
L 261.008966 227.538 
L 261.60459 225.4995 
L 262.200213 226.8585 
L 262.795837 238.74975 
L 263.391461 228.897 
L 264.582708 141.58125 
L 265.178331 227.19825 
L 265.773955 225.4995 
L 266.369578 229.5765 
L 266.965202 237.7305 
L 267.560825 228.2175 
L 268.156449 226.51875 
L 268.752073 229.91625 
L 269.347696 241.8075 
L 269.94332 229.5765 
L 270.538943 233.99325 
L 271.134567 229.5765 
L 271.73019 245.8845 
L 272.921437 234.333 
L 273.517061 235.0125 
L 274.112685 221.4225 
L 274.708308 234.333 
L 275.303932 224.82 
L 275.899555 222.44175 
L 276.495179 230.59575 
L 277.090802 234.333 
L 277.686426 231.615 
L 278.282049 237.39075 
L 278.877673 239.42925 
L 279.473297 229.23675 
L 280.06892 237.39075 
L 280.664544 232.2945 
L 281.260167 234.333 
L 281.855791 233.31375 
L 282.451414 228.897 
L 283.047038 230.9355 
L 283.642661 231.95475 
L 284.238285 222.102 
L 284.833909 235.35225 
L 285.429532 236.3715 
L 286.025156 246.22425 
L 286.620779 231.615 
L 287.216403 229.91625 
L 287.812026 226.179 
L 288.40765 241.128 
L 289.003273 237.39075 
L 289.598897 229.23675 
L 290.194521 237.7305 
L 290.790144 222.102 
L 291.385768 237.7305 
L 291.981391 233.99325 
L 292.577015 227.19825 
L 293.172638 224.48025 
L 293.768262 231.95475 
L 294.363885 233.31375 
L 294.959509 231.615 
L 295.555133 222.44175 
L 296.150756 225.4995 
L 296.74638 220.0635 
L 297.342003 235.692 
L 297.937627 234.67275 
L 298.53325 216.666 
L 299.128874 235.692 
L 299.724497 243.50625 
L 300.320121 230.9355 
L 300.915745 233.31375 
L 301.511368 224.48025 
L 302.106992 234.333 
L 302.702615 238.41 
L 303.298239 217.3455 
L 303.893862 235.0125 
L 304.489486 229.23675 
L 305.085109 224.82 
L 305.680733 243.50625 
L 306.276357 232.2945 
L 306.87198 230.9355 
L 307.467604 237.7305 
L 308.063227 232.2945 
L 308.658851 235.692 
L 309.254474 237.7305 
L 309.850098 227.538 
L 310.445721 239.0895 
L 311.041345 227.19825 
L 311.636969 241.46775 
L 312.232592 247.923 
L 312.828216 225.83925 
L 314.019463 236.71125 
L 314.615086 240.10875 
L 315.21071 229.23675 
L 316.401957 238.74975 
L 316.997581 223.12125 
L 317.593204 232.63425 
L 318.188828 228.55725 
L 318.784451 234.333 
L 319.380075 222.102 
L 320.571322 237.7305 
L 321.166945 231.27525 
L 321.762569 222.44175 
L 322.953816 236.03175 
L 323.54944 240.4485 
L 324.145063 232.63425 
L 324.740687 232.63425 
L 325.33631 230.59575 
L 325.931934 217.68525 
L 326.527557 231.615 
L 327.123181 231.27525 
L 327.718804 221.76225 
L 328.910052 232.2945 
L 329.505675 227.87775 
L 330.696922 242.487 
L 331.292546 219.384 
L 331.888169 235.692 
L 332.483793 238.74975 
L 333.079416 228.2175 
L 333.67504 252 
L 334.270664 237.7305 
L 335.461911 232.2945 
L 336.057534 239.42925 
L 336.653158 240.78825 
L 337.248781 240.78825 
L 337.844405 237.39075 
L 338.440028 239.0895 
L 339.035652 241.128 
L 339.631276 236.03175 
L 340.226899 241.46775 
L 340.822523 240.78825 
L 341.418146 232.974 
L 342.01377 229.5765 
L 342.609393 234.67275 
L 343.205017 230.9355 
L 343.80064 241.128 
L 344.396264 226.179 
L 344.991888 240.10875 
L 345.587511 224.1405 
L 346.183135 243.50625 
L 346.778758 239.42925 
L 347.374382 229.5765 
L 347.970005 226.179 
L 348.565629 241.128 
L 349.161252 227.538 
L 349.756876 237.051 
L 350.3525 237.7305 
L 350.948123 223.461 
L 351.543747 237.39075 
L 352.13937 227.538 
L 352.734994 228.2175 
L 353.330617 223.461 
L 353.926241 231.27525 
L 354.521864 243.1665 
L 355.117488 230.9355 
L 355.713112 225.83925 
L 356.308735 233.31375 
L 356.904359 239.0895 
L 357.499982 235.35225 
L 358.095606 218.7045 
L 358.691229 229.23675 
L 359.286853 228.2175 
L 359.882476 226.51875 
L 360.4781 231.95475 
L 361.073724 233.31375 
L 361.669347 228.897 
L 362.264971 232.63425 
L 362.860594 232.2945 
L 363.456218 237.051 
L 364.051841 230.9355 
L 364.647465 230.256 
L 365.243088 229.23675 
L 365.838712 232.974 
L 366.434336 240.10875 
L 367.029959 228.897 
L 367.625583 239.0895 
L 368.221206 226.179 
L 368.81683 226.8585 
L 369.412453 232.974 
L 370.008077 236.3715 
L 370.6037 236.3715 
L 371.199324 228.897 
L 371.794948 230.256 
L 372.390571 243.50625 
L 372.986195 233.99325 
L 373.581818 229.91625 
L 373.581818 229.91625 
" clip-path="url(#pde7663a99f)" style="fill: none; stroke: #1f77b4; stroke-width: 1.5; stroke-linecap: square"/>
   </g>
   <g id="line2d_26">
    <path d="M 69.218182 216.981573 
L 69.813805 223.496629 
L 70.409429 194.178876 
L 71.005052 208.837753 
L 71.600676 199.879551 
L 72.1963 226.754157 
L 72.791923 234.897978 
L 73.387547 218.610337 
L 73.98317 219.424719 
L 75.174417 230.011685 
L 75.770041 207.208989 
L 76.365664 203.951461 
L 76.961288 224.311011 
L 77.556912 221.867865 
L 78.152535 231.640449 
L 78.748159 230.011685 
L 79.343782 234.897978 
L 79.939406 212.909663 
L 80.535029 223.496629 
L 81.130653 227.568539 
L 81.726276 225.125393 
L 82.3219 237.341124 
L 82.917524 205.580225 
L 83.513147 223.496629 
L 84.108771 233.269213 
L 84.704394 214.538427 
L 85.300018 226.754157 
L 85.895641 216.981573 
L 86.491265 234.897978 
L 87.086888 225.125393 
L 87.682512 204.765843 
L 88.278136 216.981573 
L 88.873759 194.178876 
L 90.065006 226.754157 
L 90.66063 228.382921 
L 91.256253 211.280899 
L 91.851877 218.610337 
L 92.4475 212.909663 
L 93.043124 234.897978 
L 93.638748 199.065169 
L 94.234371 213.724045 
L 94.829995 221.053483 
L 95.425618 223.496629 
L 96.021242 222.682247 
L 96.616865 219.424719 
L 97.212489 214.538427 
L 97.808112 235.71236 
L 98.403736 232.454831 
L 98.99936 252 
L 99.594983 221.053483 
L 100.190607 215.352809 
L 100.78623 215.352809 
L 101.381854 236.526742 
L 101.977477 234.083596 
L 102.573101 225.125393 
L 103.168724 212.909663 
L 103.764348 216.981573 
L 104.359972 212.909663 
L 104.955595 230.826067 
L 105.551219 227.568539 
L 106.146842 216.167191 
L 106.742466 229.197303 
L 107.338089 235.71236 
L 107.933713 222.682247 
L 108.529336 219.424719 
L 109.12496 213.724045 
L 109.720584 220.239101 
L 110.316207 225.125393 
L 110.911831 204.765843 
L 111.507454 236.526742 
L 112.103078 232.454831 
L 112.698701 220.239101 
L 113.294325 230.826067 
L 113.889948 216.167191 
L 114.485572 204.765843 
L 115.081196 233.269213 
L 115.676819 239.78427 
L 116.272443 220.239101 
L 116.868066 228.382921 
L 117.46369 228.382921 
L 118.059313 229.197303 
L 118.654937 225.939775 
L 119.25056 221.053483 
L 119.846184 206.394607 
L 120.441808 214.538427 
L 121.037431 231.640449 
L 122.228678 208.023371 
L 122.824302 217.795955 
L 123.419925 225.125393 
L 124.015549 215.352809 
L 124.611172 235.71236 
L 125.206796 234.083596 
L 125.802419 221.053483 
L 126.398043 227.568539 
L 126.993667 232.454831 
L 127.58929 228.382921 
L 128.184914 210.466517 
L 128.780537 221.053483 
L 129.376161 203.137079 
L 129.971784 223.496629 
L 130.567408 230.826067 
L 131.163031 218.610337 
L 131.758655 218.610337 
L 132.354279 221.053483 
L 132.949902 206.394607 
L 133.545526 215.352809 
L 134.141149 215.352809 
L 134.736773 218.610337 
L 135.332396 212.909663 
L 135.92802 219.424719 
L 136.523643 216.981573 
L 137.714891 225.125393 
L 138.310514 232.454831 
L 138.906138 222.682247 
L 139.501761 238.969888 
L 140.097385 229.197303 
L 140.693008 230.011685 
L 141.288632 208.023371 
L 141.884255 232.454831 
L 142.479879 209.652135 
L 143.075503 212.095281 
L 143.671126 227.568539 
L 144.26675 202.322697 
L 144.862373 242.227416 
L 145.457997 225.939775 
L 146.05362 223.496629 
L 146.649244 216.167191 
L 147.244867 219.424719 
L 150.222985 223.496629 
L 150.818609 219.424719 
L 151.414232 225.939775 
L 152.009856 224.311011 
L 152.605479 223.496629 
L 153.201103 211.280899 
L 153.796727 225.939775 
L 154.39235 199.065169 
L 154.987974 236.526742 
L 155.583597 220.239101 
L 156.179221 221.867865 
L 156.774844 221.053483 
L 157.370468 222.682247 
L 157.966091 212.909663 
L 158.561715 231.640449 
L 159.157339 224.311011 
L 159.752962 235.71236 
L 160.348586 221.867865 
L 160.944209 224.311011 
L 161.539833 213.724045 
L 162.135456 228.382921 
L 162.73108 223.496629 
L 163.326703 221.053483 
L 163.922327 210.466517 
L 164.517951 203.951461 
L 165.113574 221.867865 
L 165.709198 212.095281 
L 166.304821 221.867865 
L 166.900445 239.78427 
L 167.496068 216.167191 
L 168.091692 221.053483 
L 168.687315 209.652135 
L 169.282939 212.095281 
L 169.878563 234.083596 
L 170.474186 238.155506 
L 171.06981 230.011685 
L 171.665433 217.795955 
L 172.261057 218.610337 
L 172.85668 223.496629 
L 173.452304 230.826067 
L 174.047927 196.622022 
L 174.643551 241.413034 
L 175.239175 214.538427 
L 175.834798 205.580225 
L 176.430422 225.125393 
L 177.026045 215.352809 
L 177.621669 236.526742 
L 178.217292 214.538427 
L 178.812916 225.939775 
L 179.408539 227.568539 
L 180.004163 214.538427 
L 180.599787 217.795955 
L 181.19541 221.867865 
L 181.791034 224.311011 
L 182.386657 233.269213 
L 182.982281 216.167191 
L 183.577904 231.640449 
L 184.173528 223.496629 
L 184.769151 230.826067 
L 185.364775 228.382921 
L 185.960399 222.682247 
L 186.556022 212.909663 
L 187.151646 221.053483 
L 187.747269 203.951461 
L 188.342893 216.981573 
L 188.938516 203.137079 
L 189.53414 224.311011 
L 190.129763 238.969888 
L 190.725387 234.083596 
L 191.32101 221.867865 
L 191.916634 214.538427 
L 192.512258 234.897978 
L 193.107881 216.167191 
L 193.703505 213.724045 
L 194.299128 198.250787 
L 194.894752 208.837753 
L 195.490375 216.167191 
L 196.085999 220.239101 
L 196.681622 192.550112 
L 197.277246 211.280899 
L 197.87287 212.095281 
L 198.468493 218.610337 
L 199.064117 216.167191 
L 199.65974 222.682247 
L 200.255364 215.352809 
L 200.850987 232.454831 
L 201.446611 241.413034 
L 202.042234 201.508315 
L 202.637858 100.524944 
L 203.233482 34.56 
L 204.424729 214.538427 
L 205.020352 219.424719 
L 205.615976 206.394607 
L 206.807223 214.538427 
L 207.402846 222.682247 
L 207.99847 233.269213 
L 208.594094 206.394607 
L 209.189717 227.568539 
L 209.785341 224.311011 
L 210.380964 228.382921 
L 210.976588 217.795955 
L 211.572211 229.197303 
L 212.167835 208.837753 
L 212.763458 203.951461 
L 213.359082 215.352809 
L 213.954706 208.023371 
L 215.145953 234.083596 
L 215.741576 212.909663 
L 216.3372 231.640449 
L 216.932823 226.754157 
L 217.528447 216.167191 
L 218.12407 214.538427 
L 218.719694 230.011685 
L 219.315318 227.568539 
L 219.910941 217.795955 
L 220.506565 236.526742 
L 221.102188 232.454831 
L 221.697812 201.508315 
L 222.293435 218.610337 
L 222.889059 229.197303 
L 223.484682 199.879551 
L 224.080306 235.71236 
L 225.271553 223.496629 
L 225.867177 217.795955 
L 226.4628 233.269213 
L 227.058424 225.939775 
L 227.654047 208.023371 
L 228.249671 201.508315 
L 229.440918 230.011685 
L 230.036542 241.413034 
L 230.632165 220.239101 
L 231.227789 212.095281 
L 231.823412 238.155506 
L 232.419036 237.341124 
L 233.014659 212.095281 
L 233.610283 241.413034 
L 234.205906 199.879551 
L 234.80153 223.496629 
L 235.397154 222.682247 
L 235.992777 204.765843 
L 236.588401 224.311011 
L 237.184024 233.269213 
L 237.779648 219.424719 
L 238.375271 236.526742 
L 239.566518 202.322697 
L 240.162142 229.197303 
L 240.757766 223.496629 
L 241.353389 230.011685 
L 241.949013 227.568539 
L 242.544636 221.867865 
L 243.14026 226.754157 
L 243.735883 216.981573 
L 244.331507 216.167191 
L 244.92713 241.413034 
L 245.522754 212.909663 
L 246.118378 220.239101 
L 246.714001 215.352809 
L 247.309625 230.011685 
L 247.905248 225.125393 
L 248.500872 206.394607 
L 249.096495 212.095281 
L 249.692119 238.969888 
L 250.287742 212.909663 
L 250.883366 211.280899 
L 251.47899 221.867865 
L 252.074613 206.394607 
L 252.670237 219.424719 
L 253.26586 213.724045 
L 254.457107 220.239101 
L 255.052731 212.095281 
L 255.648354 232.454831 
L 256.243978 223.496629 
L 256.839601 224.311011 
L 257.435225 217.795955 
L 258.030849 216.981573 
L 258.626472 228.382921 
L 259.222096 185.220674 
L 259.817719 150.202247 
L 260.413343 207.208989 
L 261.008966 225.939775 
L 261.60459 209.652135 
L 262.200213 221.053483 
L 262.795837 215.352809 
L 263.391461 203.951461 
L 263.987084 212.909663 
L 264.582708 213.724045 
L 265.178331 217.795955 
L 265.773955 231.640449 
L 266.369578 216.981573 
L 266.965202 230.826067 
L 267.560825 205.580225 
L 268.156449 221.867865 
L 268.752073 234.897978 
L 269.347696 222.682247 
L 269.94332 216.167191 
L 270.538943 219.424719 
L 271.134567 212.095281 
L 271.73019 218.610337 
L 272.325814 219.424719 
L 272.921437 218.610337 
L 273.517061 236.526742 
L 274.112685 207.208989 
L 274.708308 230.011685 
L 275.303932 221.053483 
L 275.899555 194.178876 
L 276.495179 230.826067 
L 277.090802 225.125393 
L 277.686426 213.724045 
L 278.282049 212.909663 
L 279.473297 231.640449 
L 280.06892 219.424719 
L 280.664544 226.754157 
L 281.260167 216.981573 
L 281.855791 222.682247 
L 282.451414 241.413034 
L 283.047038 211.280899 
L 283.642661 231.640449 
L 284.238285 229.197303 
L 284.833909 225.125393 
L 285.429532 220.239101 
L 286.620779 218.610337 
L 287.216403 221.867865 
L 288.40765 220.239101 
L 289.003273 218.610337 
L 289.598897 238.969888 
L 290.194521 217.795955 
L 290.790144 238.969888 
L 291.385768 234.897978 
L 291.981391 228.382921 
L 292.577015 235.71236 
L 293.172638 209.652135 
L 293.768262 203.951461 
L 294.363885 239.78427 
L 294.959509 229.197303 
L 295.555133 226.754157 
L 296.150756 222.682247 
L 296.74638 217.795955 
L 297.342003 231.640449 
L 297.937627 225.939775 
L 298.53325 226.754157 
L 299.128874 221.053483 
L 299.724497 230.011685 
L 300.320121 203.951461 
L 300.915745 220.239101 
L 301.511368 225.125393 
L 302.106992 214.538427 
L 302.702615 212.909663 
L 303.298239 234.083596 
L 303.893862 218.610337 
L 304.489486 230.826067 
L 305.085109 216.167191 
L 305.680733 211.280899 
L 306.276357 202.322697 
L 306.87198 215.352809 
L 307.467604 219.424719 
L 308.063227 203.951461 
L 308.658851 221.053483 
L 309.254474 226.754157 
L 309.850098 226.754157 
L 310.445721 231.640449 
L 311.041345 227.568539 
L 311.636969 229.197303 
L 312.232592 234.897978 
L 312.828216 209.652135 
L 313.423839 233.269213 
L 314.019463 221.867865 
L 314.615086 228.382921 
L 315.21071 225.939775 
L 315.806333 210.466517 
L 316.401957 230.826067 
L 316.997581 227.568539 
L 317.593204 206.394607 
L 318.188828 214.538427 
L 318.784451 231.640449 
L 319.380075 225.125393 
L 319.975698 226.754157 
L 320.571322 234.897978 
L 321.166945 224.311011 
L 321.762569 232.454831 
L 322.358192 228.382921 
L 322.953816 228.382921 
L 323.54944 226.754157 
L 324.145063 214.538427 
L 324.740687 208.023371 
L 325.33631 223.496629 
L 325.931934 223.496629 
L 326.527557 205.580225 
L 327.123181 209.652135 
L 327.718804 225.939775 
L 328.314428 231.640449 
L 328.910052 219.424719 
L 329.505675 230.011685 
L 330.101299 213.724045 
L 330.696922 237.341124 
L 331.292546 235.71236 
L 331.888169 203.951461 
L 332.483793 221.053483 
L 333.079416 209.652135 
L 333.67504 220.239101 
L 334.270664 225.125393 
L 334.866287 236.526742 
L 335.461911 224.311011 
L 336.057534 235.71236 
L 336.653158 217.795955 
L 337.248781 236.526742 
L 337.844405 230.011685 
L 338.440028 227.568539 
L 339.035652 210.466517 
L 339.631276 221.053483 
L 340.226899 195.80764 
L 340.822523 211.280899 
L 341.418146 220.239101 
L 342.01377 234.083596 
L 342.609393 222.682247 
L 343.205017 225.939775 
L 343.80064 222.682247 
L 344.396264 215.352809 
L 344.991888 218.610337 
L 345.587511 220.239101 
L 346.183135 221.053483 
L 346.778758 187.66382 
L 347.374382 242.227416 
L 347.970005 208.837753 
L 348.565629 212.095281 
L 349.161252 221.053483 
L 349.756876 208.837753 
L 350.3525 210.466517 
L 350.948123 189.292584 
L 352.13937 223.496629 
L 352.734994 198.250787 
L 353.330617 193.364494 
L 354.521864 237.341124 
L 355.117488 219.424719 
L 355.713112 221.867865 
L 356.308735 220.239101 
L 356.904359 221.053483 
L 357.499982 212.909663 
L 358.095606 223.496629 
L 358.691229 219.424719 
L 359.286853 221.053483 
L 359.882476 212.095281 
L 361.073724 225.125393 
L 361.669347 222.682247 
L 362.264971 230.011685 
L 362.860594 231.640449 
L 363.456218 222.682247 
L 364.051841 218.610337 
L 364.647465 208.837753 
L 365.243088 224.311011 
L 365.838712 220.239101 
L 366.434336 215.352809 
L 367.029959 225.125393 
L 367.625583 212.095281 
L 368.221206 239.78427 
L 369.412453 216.167191 
L 370.008077 221.053483 
L 370.6037 232.454831 
L 371.199324 215.352809 
L 371.794948 230.826067 
L 372.390571 233.269213 
L 372.986195 246.299326 
L 373.581818 222.682247 
L 373.581818 222.682247 
" clip-path="url(#pde7663a99f)" style="fill: none; stroke: #ff7f0e; stroke-width: 1.5; stroke-linecap: square"/>
   </g>
   <g id="line2d_27">
    <path d="M 69.218182 236.917457 
L 69.813805 237.231676 
L 70.409429 237.231676 
L 71.005052 243.20185 
L 72.1963 235.660578 
L 73.387547 247.286705 
L 73.98317 246.344046 
L 74.578794 243.20185 
L 75.770041 238.802775 
L 76.365664 240.373873 
L 76.961288 236.917457 
L 77.556912 249.486243 
L 78.152535 240.059653 
L 78.748159 246.658266 
L 79.343782 240.059653 
L 79.939406 242.88763 
L 80.535029 236.289017 
L 81.130653 241.630751 
L 81.726276 241.002312 
L 82.3219 245.715607 
L 82.917524 240.059653 
L 83.513147 239.431214 
L 84.704394 240.059653 
L 85.300018 243.830289 
L 85.895641 237.545896 
L 86.491265 239.431214 
L 87.086888 243.516069 
L 87.682512 235.660578 
L 88.278136 242.88763 
L 88.873759 240.373873 
L 89.469383 240.688092 
L 90.065006 241.316532 
L 90.66063 236.917457 
L 91.256253 240.373873 
L 91.851877 241.002312 
L 92.4475 238.174335 
L 93.043124 242.88763 
L 93.638748 241.316532 
L 94.234371 239.116994 
L 94.829995 237.545896 
L 95.425618 236.917457 
L 96.021242 239.431214 
L 96.616865 240.059653 
L 97.212489 242.88763 
L 97.808112 240.688092 
L 98.403736 236.289017 
L 98.99936 236.917457 
L 99.594983 242.57341 
L 100.190607 242.57341 
L 101.381854 234.403699 
L 101.977477 242.88763 
L 102.573101 239.116994 
L 103.168724 240.059653 
L 103.764348 237.231676 
L 104.359972 236.917457 
L 104.955595 239.431214 
L 105.551219 250.114682 
L 106.146842 240.373873 
L 106.742466 244.144509 
L 107.338089 242.259191 
L 107.933713 241.002312 
L 108.529336 245.401387 
L 109.12496 240.373873 
L 109.720584 240.688092 
L 110.316207 245.087168 
L 110.911831 238.802775 
L 111.507454 246.658266 
L 112.103078 235.660578 
L 112.698701 238.802775 
L 113.294325 243.830289 
L 113.889948 238.488555 
L 114.485572 235.032139 
L 115.081196 235.346358 
L 115.676819 241.316532 
L 116.272443 242.57341 
L 116.868066 240.688092 
L 118.059313 240.059653 
L 118.654937 237.231676 
L 119.25056 244.144509 
L 119.846184 241.002312 
L 120.441808 246.029827 
L 121.037431 246.972486 
L 121.633055 243.516069 
L 122.228678 241.002312 
L 122.824302 244.772948 
L 123.419925 235.974798 
L 124.015549 239.116994 
L 124.611172 244.144509 
L 125.206796 241.630751 
L 125.802419 240.373873 
L 126.398043 234.403699 
L 126.993667 236.603237 
L 127.58929 248.229364 
L 128.184914 246.972486 
L 128.780537 241.944971 
L 129.376161 241.316532 
L 129.971784 243.516069 
L 130.567408 244.144509 
L 131.163031 237.860116 
L 131.758655 242.57341 
L 132.354279 246.029827 
L 132.949902 235.660578 
L 133.545526 248.229364 
L 134.141149 239.116994 
L 134.736773 244.772948 
L 135.92802 238.174335 
L 136.523643 239.431214 
L 137.119267 232.204162 
L 137.714891 244.458728 
L 138.310514 239.116994 
L 138.906138 241.316532 
L 140.097385 242.57341 
L 140.693008 238.802775 
L 141.288632 242.57341 
L 141.884255 250.743121 
L 142.479879 239.745434 
L 143.075503 239.745434 
L 143.671126 241.944971 
L 144.26675 248.543584 
L 144.862373 237.545896 
L 145.457997 244.458728 
L 146.05362 243.830289 
L 146.649244 241.944971 
L 147.244867 240.688092 
L 147.840491 241.316532 
L 148.436115 236.603237 
L 149.031738 236.289017 
L 149.627362 236.289017 
L 150.222985 244.772948 
L 150.818609 243.830289 
L 151.414232 239.431214 
L 152.009856 239.116994 
L 152.605479 239.431214 
L 153.201103 241.002312 
L 153.796727 240.059653 
L 154.39235 241.002312 
L 154.987974 246.658266 
L 155.583597 240.688092 
L 156.179221 238.802775 
L 157.370468 251.371561 
L 157.966091 239.431214 
L 158.561715 241.630751 
L 159.157339 241.002312 
L 159.752962 237.231676 
L 160.348586 240.373873 
L 160.944209 240.373873 
L 161.539833 239.745434 
L 162.135456 242.57341 
L 162.73108 247.915145 
L 163.326703 240.059653 
L 163.922327 243.830289 
L 164.517951 239.745434 
L 165.709198 236.603237 
L 166.304821 240.688092 
L 166.900445 240.688092 
L 167.496068 247.286705 
L 168.687315 236.603237 
L 169.282939 245.715607 
L 169.878563 241.002312 
L 170.474186 240.688092 
L 171.06981 241.316532 
L 171.665433 237.860116 
L 172.261057 240.373873 
L 172.85668 239.431214 
L 173.452304 240.688092 
L 174.047927 237.545896 
L 174.643551 243.20185 
L 175.239175 240.059653 
L 175.834798 248.543584 
L 176.430422 239.745434 
L 177.026045 236.289017 
L 177.621669 243.830289 
L 178.217292 244.144509 
L 178.812916 235.660578 
L 179.408539 240.373873 
L 180.004163 239.431214 
L 180.599787 246.344046 
L 181.19541 237.860116 
L 181.791034 240.059653 
L 182.386657 246.972486 
L 182.982281 244.458728 
L 183.577904 224.97711 
L 184.769151 34.56 
L 185.364775 154.906127 
L 185.960399 236.603237 
L 186.556022 238.174335 
L 187.151646 243.516069 
L 187.747269 246.029827 
L 188.342893 234.403699 
L 188.938516 242.88763 
L 189.53414 241.944971 
L 190.129763 236.917457 
L 190.725387 235.974798 
L 191.32101 233.77526 
L 191.916634 237.231676 
L 192.512258 244.458728 
L 193.107881 244.458728 
L 193.703505 238.488555 
L 194.299128 240.059653 
L 194.894752 246.029827 
L 195.490375 242.88763 
L 196.085999 241.316532 
L 196.681622 243.830289 
L 197.277246 239.431214 
L 197.87287 245.715607 
L 198.468493 233.77526 
L 199.064117 237.545896 
L 199.65974 239.116994 
L 200.255364 241.316532 
L 200.850987 242.88763 
L 201.446611 241.630751 
L 202.042234 242.88763 
L 202.637858 244.772948 
L 203.233482 237.860116 
L 203.829105 240.688092 
L 204.424729 241.316532 
L 205.020352 242.259191 
L 205.615976 234.08948 
L 206.211599 245.087168 
L 206.807223 238.802775 
L 207.402846 245.401387 
L 207.99847 244.772948 
L 208.594094 242.88763 
L 209.189717 245.087168 
L 209.785341 242.259191 
L 210.380964 241.944971 
L 210.976588 241.002312 
L 211.572211 240.688092 
L 212.167835 244.772948 
L 212.763458 242.88763 
L 213.359082 245.087168 
L 213.954706 234.717919 
L 214.550329 244.458728 
L 215.145953 246.029827 
L 215.741576 242.259191 
L 216.3372 245.401387 
L 216.932823 234.08948 
L 217.528447 243.830289 
L 218.12407 241.316532 
L 218.719694 244.772948 
L 219.315318 239.116994 
L 219.910941 237.545896 
L 220.506565 237.545896 
L 221.102188 234.403699 
L 221.697812 249.800462 
L 222.293435 241.316532 
L 222.889059 238.174335 
L 223.484682 239.431214 
L 224.080306 244.458728 
L 224.67593 240.373873 
L 225.271553 239.745434 
L 225.867177 240.688092 
L 226.4628 244.144509 
L 227.058424 244.772948 
L 227.654047 236.603237 
L 228.249671 238.488555 
L 228.845294 244.144509 
L 229.440918 239.116994 
L 230.036542 239.745434 
L 230.632165 235.032139 
L 231.227789 240.373873 
L 231.823412 235.660578 
L 232.419036 243.830289 
L 233.014659 244.772948 
L 233.610283 238.174335 
L 234.205906 239.431214 
L 234.80153 245.087168 
L 235.397154 241.944971 
L 235.992777 246.344046 
L 236.588401 243.830289 
L 237.184024 244.458728 
L 238.970895 240.688092 
L 239.566518 237.231676 
L 240.162142 232.832601 
L 241.353389 164.646936 
L 241.949013 224.66289 
L 242.544636 236.917457 
L 243.14026 238.488555 
L 243.735883 244.772948 
L 244.331507 239.116994 
L 244.92713 244.144509 
L 245.522754 247.286705 
L 246.118378 238.488555 
L 246.714001 237.545896 
L 247.309625 243.20185 
L 247.905248 237.231676 
L 248.500872 241.316532 
L 249.096495 238.174335 
L 250.287742 235.660578 
L 250.883366 237.860116 
L 251.47899 239.116994 
L 252.074613 240.688092 
L 252.670237 245.715607 
L 253.26586 245.087168 
L 253.861484 236.603237 
L 254.457107 237.860116 
L 255.052731 238.802775 
L 255.648354 246.029827 
L 256.243978 238.802775 
L 256.839601 239.116994 
L 257.435225 242.57341 
L 258.030849 247.286705 
L 258.626472 244.458728 
L 259.222096 242.88763 
L 259.817719 249.486243 
L 260.413343 242.259191 
L 261.008966 233.146821 
L 261.60459 241.944971 
L 262.200213 244.144509 
L 262.795837 245.401387 
L 263.391461 243.20185 
L 263.987084 240.373873 
L 264.582708 235.346358 
L 265.178331 242.57341 
L 265.773955 237.545896 
L 266.369578 236.289017 
L 266.965202 242.57341 
L 267.560825 241.630751 
L 268.156449 247.915145 
L 268.752073 244.772948 
L 269.347696 244.458728 
L 270.538943 245.715607 
L 271.134567 239.116994 
L 271.73019 240.688092 
L 272.325814 242.88763 
L 272.921437 240.688092 
L 273.517061 243.830289 
L 274.112685 244.772948 
L 274.708308 243.516069 
L 275.303932 244.144509 
L 275.899555 229.690405 
L 276.495179 240.373873 
L 277.090802 242.57341 
L 277.686426 242.57341 
L 278.282049 241.944971 
L 278.877673 241.944971 
L 279.473297 252 
L 280.06892 237.860116 
L 280.664544 238.802775 
L 281.260167 241.630751 
L 281.855791 241.316532 
L 282.451414 250.114682 
L 283.047038 238.488555 
L 283.642661 241.316532 
L 284.238285 241.630751 
L 284.833909 247.286705 
L 286.025156 242.88763 
L 286.620779 245.087168 
L 287.216403 244.144509 
L 287.812026 239.116994 
L 288.40765 247.286705 
L 289.003273 239.745434 
L 289.598897 236.917457 
L 290.194521 250.428902 
L 290.790144 242.57341 
L 291.385768 238.488555 
L 291.981391 239.116994 
L 292.577015 244.458728 
L 293.172638 247.600925 
L 293.768262 245.715607 
L 294.363885 240.059653 
L 294.959509 238.174335 
L 295.555133 242.57341 
L 296.150756 243.830289 
L 296.74638 244.144509 
L 297.342003 236.289017 
L 297.937627 234.403699 
L 299.128874 243.20185 
L 299.724497 243.830289 
L 300.320121 236.917457 
L 300.915745 246.344046 
L 301.511368 245.401387 
L 302.106992 242.259191 
L 302.702615 241.316532 
L 303.298239 243.830289 
L 303.893862 238.174335 
L 304.489486 238.488555 
L 305.085109 241.316532 
L 305.680733 232.832601 
L 306.276357 241.944971 
L 306.87198 243.20185 
L 307.467604 239.116994 
L 308.063227 240.373873 
L 308.658851 242.57341 
L 309.254474 241.944971 
L 309.850098 241.002312 
L 310.445721 246.029827 
L 311.041345 238.488555 
L 311.636969 246.344046 
L 312.232592 244.772948 
L 312.828216 248.229364 
L 313.423839 243.830289 
L 314.019463 241.944971 
L 314.615086 241.002312 
L 315.21071 242.259191 
L 315.806333 239.745434 
L 316.401957 241.944971 
L 316.997581 234.717919 
L 317.593204 243.20185 
L 318.188828 245.401387 
L 318.784451 243.830289 
L 319.380075 244.144509 
L 319.975698 233.146821 
L 320.571322 241.630751 
L 321.166945 237.231676 
L 321.762569 241.002312 
L 322.358192 240.373873 
L 322.953816 243.20185 
L 323.54944 241.630751 
L 324.145063 236.917457 
L 324.740687 238.488555 
L 325.33631 242.259191 
L 325.931934 236.917457 
L 326.527557 240.059653 
L 327.123181 248.543584 
L 327.718804 238.174335 
L 328.314428 248.229364 
L 328.910052 238.802775 
L 329.505675 245.401387 
L 330.101299 246.972486 
L 330.696922 235.660578 
L 331.292546 241.630751 
L 331.888169 245.715607 
L 332.483793 239.745434 
L 333.079416 240.688092 
L 333.67504 242.57341 
L 334.270664 242.57341 
L 334.866287 236.289017 
L 335.461911 239.116994 
L 336.057534 243.516069 
L 336.653158 241.630751 
L 337.248781 238.488555 
L 337.844405 236.603237 
L 338.440028 241.002312 
L 339.035652 237.860116 
L 339.631276 238.488555 
L 340.226899 245.087168 
L 340.822523 239.431214 
L 341.418146 236.603237 
L 342.01377 244.772948 
L 343.205017 240.059653 
L 343.80064 239.116994 
L 344.396264 238.488555 
L 344.991888 243.516069 
L 345.587511 238.802775 
L 346.183135 240.373873 
L 346.778758 243.830289 
L 347.374382 243.830289 
L 347.970005 235.974798 
L 348.565629 237.860116 
L 349.161252 238.802775 
L 349.756876 245.715607 
L 350.3525 239.431214 
L 350.948123 239.431214 
L 351.543747 249.800462 
L 352.13937 242.88763 
L 352.734994 244.458728 
L 353.330617 239.431214 
L 353.926241 242.88763 
L 354.521864 240.373873 
L 355.117488 235.660578 
L 355.713112 229.690405 
L 356.904359 242.88763 
L 357.499982 240.059653 
L 358.095606 248.543584 
L 358.691229 246.972486 
L 359.286853 241.002312 
L 359.882476 239.116994 
L 360.4781 242.259191 
L 361.073724 238.488555 
L 361.669347 250.114682 
L 362.264971 239.116994 
L 362.860594 237.860116 
L 363.456218 248.229364 
L 364.051841 237.545896 
L 364.647465 230.947283 
L 365.243088 241.002312 
L 365.838712 244.144509 
L 366.434336 238.488555 
L 367.029959 246.344046 
L 367.625583 240.688092 
L 368.221206 239.116994 
L 368.81683 249.486243 
L 369.412453 246.029827 
L 370.6037 234.403699 
L 371.199324 239.745434 
L 371.794948 242.88763 
L 372.390571 240.688092 
L 372.986195 244.144509 
L 373.581818 241.944971 
L 373.581818 241.944971 
" clip-path="url(#pde7663a99f)" style="fill: none; stroke: #2ca02c; stroke-width: 1.5; stroke-linecap: square"/>
   </g>
   <g id="patch_3">
    <path d="M 54 252 
L 54 34.56 
" style="fill: none; stroke: #000000; stroke-width: 0.8; stroke-linejoin: miter; stroke-linecap: square"/>
   </g>
   <g id="patch_4">
    <path d="M 388.8 252 
L 388.8 34.56 
" style="fill: none; stroke: #000000; stroke-width: 0.8; stroke-linejoin: miter; stroke-linecap: square"/>
   </g>
   <g id="patch_5">
    <path d="M 54 252 
L 388.8 252 
" style="fill: none; stroke: #000000; stroke-width: 0.8; stroke-linejoin: miter; stroke-linecap: square"/>
   </g>
   <g id="patch_6">
    <path d="M 54 34.56 
L 388.8 34.56 
" style="fill: none; stroke: #000000; stroke-width: 0.8; stroke-linejoin: miter; stroke-linecap: square"/>
   </g>
   <g id="text_15">
    <!-- Label 8 normalized -->
    <g transform="translate(164.240625 28.56)scale(0.12 -0.12)">
     <defs>
      <path id="DejaVuSans-4c" d="M 628 4666 
L 1259 4666 
L 1259 531 
L 3531 531 
L 3531 0 
L 628 0 
L 628 4666 
z
" transform="scale(0.015625)"/>
      <path id="DejaVuSans-61" d="M 2194 1759 
Q 1497 1759 1228 1600 
Q 959 1441 959 1056 
Q 959 750 1161 570 
Q 1363 391 1709 391 
Q 2188 391 2477 730 
Q 2766 1069 2766 1631 
L 2766 1759 
L 2194 1759 
z
M 3341 1997 
L 3341 0 
L 2766 0 
L 2766 531 
Q 2569 213 2275 61 
Q 1981 -91 1556 -91 
Q 1019 -91 701 211 
Q 384 513 384 1019 
Q 384 1609 779 1909 
Q 1175 2209 1959 2209 
L 2766 2209 
L 2766 2266 
Q 2766 2663 2505 2880 
Q 2244 3097 1772 3097 
Q 1472 3097 1187 3025 
Q 903 2953 641 2809 
L 641 3341 
Q 956 3463 1253 3523 
Q 1550 3584 1831 3584 
Q 2591 3584 2966 3190 
Q 3341 2797 3341 1997 
z
" transform="scale(0.015625)"/>
      <path id="DejaVuSans-65" d="M 3597 1894 
L 3597 1613 
L 953 1613 
Q 991 1019 1311 708 
Q 1631 397 2203 397 
Q 2534 397 2845 478 
Q 3156 559 3463 722 
L 3463 178 
Q 3153 47 2828 -22 
Q 2503 -91 2169 -91 
Q 1331 -91 842 396 
Q 353 884 353 1716 
Q 353 2575 817 3079 
Q 1281 3584 2069 3584 
Q 2775 3584 3186 3129 
Q 3597 2675 3597 1894 
z
M 3022 2063 
Q 3016 2534 2758 2815 
Q 2500 3097 2075 3097 
Q 1594 3097 1305 2825 
Q 1016 2553 972 2059 
L 3022 2063 
z
" transform="scale(0.015625)"/>
      <path id="DejaVuSans-6c" d="M 603 4863 
L 1178 4863 
L 1178 0 
L 603 0 
L 603 4863 
z
" transform="scale(0.015625)"/>
      <path id="DejaVuSans-20" transform="scale(0.015625)"/>
      <path id="DejaVuSans-72" d="M 2631 2963 
Q 2534 3019 2420 3045 
Q 2306 3072 2169 3072 
Q 1681 3072 1420 2755 
Q 1159 2438 1159 1844 
L 1159 0 
L 581 0 
L 581 3500 
L 1159 3500 
L 1159 2956 
Q 1341 3275 1631 3429 
Q 1922 3584 2338 3584 
Q 2397 3584 2469 3576 
Q 2541 3569 2628 3553 
L 2631 2963 
z
" transform="scale(0.015625)"/>
      <path id="DejaVuSans-6d" d="M 3328 2828 
Q 3544 3216 3844 3400 
Q 4144 3584 4550 3584 
Q 5097 3584 5394 3201 
Q 5691 2819 5691 2113 
L 5691 0 
L 5113 0 
L 5113 2094 
Q 5113 2597 4934 2840 
Q 4756 3084 4391 3084 
Q 3944 3084 3684 2787 
Q 3425 2491 3425 1978 
L 3425 0 
L 2847 0 
L 2847 2094 
Q 2847 2600 2669 2842 
Q 2491 3084 2119 3084 
Q 1678 3084 1418 2786 
Q 1159 2488 1159 1978 
L 1159 0 
L 581 0 
L 581 3500 
L 1159 3500 
L 1159 2956 
Q 1356 3278 1631 3431 
Q 1906 3584 2284 3584 
Q 2666 3584 2933 3390 
Q 3200 3197 3328 2828 
z
" transform="scale(0.015625)"/>
      <path id="DejaVuSans-7a" d="M 353 3500 
L 3084 3500 
L 3084 2975 
L 922 459 
L 3084 459 
L 3084 0 
L 275 0 
L 275 525 
L 2438 3041 
L 353 3041 
L 353 3500 
z
" transform="scale(0.015625)"/>
      <path id="DejaVuSans-64" d="M 2906 2969 
L 2906 4863 
L 3481 4863 
L 3481 0 
L 2906 0 
L 2906 525 
Q 2725 213 2448 61 
Q 2172 -91 1784 -91 
Q 1150 -91 751 415 
Q 353 922 353 1747 
Q 353 2572 751 3078 
Q 1150 3584 1784 3584 
Q 2172 3584 2448 3432 
Q 2725 3281 2906 2969 
z
M 947 1747 
Q 947 1113 1208 752 
Q 1469 391 1925 391 
Q 2381 391 2643 752 
Q 2906 1113 2906 1747 
Q 2906 2381 2643 2742 
Q 2381 3103 1925 3103 
Q 1469 3103 1208 2742 
Q 947 2381 947 1747 
z
" transform="scale(0.015625)"/>
     </defs>
     <use xlink:href="#DejaVuSans-4c"/>
     <use xlink:href="#DejaVuSans-61" x="55.712891"/>
     <use xlink:href="#DejaVuSans-62" x="116.992188"/>
     <use xlink:href="#DejaVuSans-65" x="180.46875"/>
     <use xlink:href="#DejaVuSans-6c" x="241.992188"/>
     <use xlink:href="#DejaVuSans-20" x="269.775391"/>
     <use xlink:href="#DejaVuSans-38" x="301.5625"/>
     <use xlink:href="#DejaVuSans-20" x="365.185547"/>
     <use xlink:href="#DejaVuSans-6e" x="396.972656"/>
     <use xlink:href="#DejaVuSans-6f" x="460.351562"/>
     <use xlink:href="#DejaVuSans-72" x="521.533203"/>
     <use xlink:href="#DejaVuSans-6d" x="560.896484"/>
     <use xlink:href="#DejaVuSans-61" x="658.308594"/>
     <use xlink:href="#DejaVuSans-6c" x="719.587891"/>
     <use xlink:href="#DejaVuSans-69" x="747.371094"/>
     <use xlink:href="#DejaVuSans-7a" x="775.154297"/>
     <use xlink:href="#DejaVuSans-65" x="827.644531"/>
     <use xlink:href="#DejaVuSans-64" x="889.167969"/>
    </g>
   </g>
   <g id="legend_1">
    <g id="patch_7">
     <path d="M 309.070312 101.2725 
L 381.8 101.2725 
Q 383.8 101.2725 383.8 99.2725 
L 383.8 41.56 
Q 383.8 39.56 381.8 39.56 
L 309.070312 39.56 
Q 307.070312 39.56 307.070312 41.56 
L 307.070312 99.2725 
Q 307.070312 101.2725 309.070312 101.2725 
z
" style="fill: #ffffff; opacity: 0.8; stroke: #cccccc; stroke-linejoin: miter"/>
    </g>
    <g id="text_16">
     <!-- Trace number -->
     <g transform="translate(311.070312 51.158437)scale(0.1 -0.1)">
      <defs>
       <path id="DejaVuSans-54" d="M -19 4666 
L 3928 4666 
L 3928 4134 
L 2272 4134 
L 2272 0 
L 1638 0 
L 1638 4134 
L -19 4134 
L -19 4666 
z
" transform="scale(0.015625)"/>
      </defs>
      <use xlink:href="#DejaVuSans-54"/>
      <use xlink:href="#DejaVuSans-72" x="46.333984"/>
      <use xlink:href="#DejaVuSans-61" x="87.447266"/>
      <use xlink:href="#DejaVuSans-63" x="148.726562"/>
      <use xlink:href="#DejaVuSans-65" x="203.707031"/>
      <use xlink:href="#DejaVuSans-20" x="265.230469"/>
      <use xlink:href="#DejaVuSans-6e" x="297.017578"/>
      <use xlink:href="#DejaVuSans-75" x="360.396484"/>
      <use xlink:href="#DejaVuSans-6d" x="423.775391"/>
      <use xlink:href="#DejaVuSans-62" x="521.1875"/>
      <use xlink:href="#DejaVuSans-65" x="584.664062"/>
      <use xlink:href="#DejaVuSans-72" x="646.1875"/>
     </g>
    </g>
    <g id="line2d_28">
     <path d="M 325.072656 62.336562 
L 335.072656 62.336562 
L 345.072656 62.336562 
" style="fill: none; stroke: #1f77b4; stroke-width: 1.5; stroke-linecap: square"/>
    </g>
    <g id="text_17">
     <!-- 14 -->
     <g transform="translate(353.072656 65.836562)scale(0.1 -0.1)">
      <use xlink:href="#DejaVuSans-31"/>
      <use xlink:href="#DejaVuSans-34" x="63.623047"/>
     </g>
    </g>
    <g id="line2d_29">
     <path d="M 325.072656 77.014687 
L 335.072656 77.014687 
L 345.072656 77.014687 
" style="fill: none; stroke: #ff7f0e; stroke-width: 1.5; stroke-linecap: square"/>
    </g>
    <g id="text_18">
     <!-- 24 -->
     <g transform="translate(353.072656 80.514687)scale(0.1 -0.1)">
      <use xlink:href="#DejaVuSans-32"/>
      <use xlink:href="#DejaVuSans-34" x="63.623047"/>
     </g>
    </g>
    <g id="line2d_30">
     <path d="M 325.072656 91.692813 
L 335.072656 91.692813 
L 345.072656 91.692813 
" style="fill: none; stroke: #2ca02c; stroke-width: 1.5; stroke-linecap: square"/>
    </g>
    <g id="text_19">
     <!-- 53 -->
     <g transform="translate(353.072656 95.192813)scale(0.1 -0.1)">
      <use xlink:href="#DejaVuSans-35"/>
      <use xlink:href="#DejaVuSans-33" x="63.623047"/>
     </g>
    </g>
   </g>
  </g>
 </g>
 <defs>
  <clipPath id="pde7663a99f">
   <rect x="54" y="34.56" width="334.8" height="217.44"/>
  </clipPath>
 </defs>
</svg>
