<?xml version="1.0" encoding="utf-8" standalone="no"?>
<!DOCTYPE svg PUBLIC "-//W3C//DTD SVG 1.1//EN"
  "http://www.w3.org/Graphics/SVG/1.1/DTD/svg11.dtd">
<svg xmlns:xlink="http://www.w3.org/1999/xlink" width="432pt" height="288pt" viewBox="0 0 432 288" xmlns="http://www.w3.org/2000/svg" version="1.1">
 <metadata>
  <rdf:RDF xmlns:dc="http://purl.org/dc/elements/1.1/" xmlns:cc="http://creativecommons.org/ns#" xmlns:rdf="http://www.w3.org/1999/02/22-rdf-syntax-ns#">
   <cc:Work>
    <dc:type rdf:resource="http://purl.org/dc/dcmitype/StillImage"/>
    <dc:date>2022-03-30T13:12:48.199460</dc:date>
    <dc:format>image/svg+xml</dc:format>
    <dc:creator>
     <cc:Agent>
      <dc:title>Matplotlib v3.5.1, https://matplotlib.org/</dc:title>
     </cc:Agent>
    </dc:creator>
   </cc:Work>
  </rdf:RDF>
 </metadata>
 <defs>
  <style type="text/css">*{stroke-linejoin: round; stroke-linecap: butt}</style>
 </defs>
 <g id="figure_1">
  <g id="patch_1">
   <path d="M 0 288 
L 432 288 
L 432 0 
L 0 0 
z
" style="fill: #ffffff"/>
  </g>
  <g id="axes_1">
   <g id="patch_2">
    <path d="M 54 252 
L 388.8 252 
L 388.8 34.56 
L 54 34.56 
z
" style="fill: #ffffff"/>
   </g>
   <g id="matplotlib.axis_1">
    <g id="xtick_1">
     <g id="line2d_1">
      <path d="M 69.218182 252 
L 69.218182 34.56 
" clip-path="url(#p7273b2312d)" style="fill: none; stroke: #b0b0b0; stroke-width: 0.8; stroke-linecap: square"/>
     </g>
     <g id="line2d_2">
      <defs>
       <path id="m6ee1f58de7" d="M 0 0 
L 0 3.5 
" style="stroke: #000000; stroke-width: 0.8"/>
      </defs>
      <g>
       <use xlink:href="#m6ee1f58de7" x="69.218182" y="252" style="stroke: #000000; stroke-width: 0.8"/>
      </g>
     </g>
     <g id="text_1">
      <!-- 0 -->
      <g transform="translate(66.036932 266.598437)scale(0.1 -0.1)">
       <defs>
        <path id="DejaVuSans-30" d="M 2034 4250 
Q 1547 4250 1301 3770 
Q 1056 3291 1056 2328 
Q 1056 1369 1301 889 
Q 1547 409 2034 409 
Q 2525 409 2770 889 
Q 3016 1369 3016 2328 
Q 3016 3291 2770 3770 
Q 2525 4250 2034 4250 
z
M 2034 4750 
Q 2819 4750 3233 4129 
Q 3647 3509 3647 2328 
Q 3647 1150 3233 529 
Q 2819 -91 2034 -91 
Q 1250 -91 836 529 
Q 422 1150 422 2328 
Q 422 3509 836 4129 
Q 1250 4750 2034 4750 
z
" transform="scale(0.015625)"/>
       </defs>
       <use xlink:href="#DejaVuSans-30"/>
      </g>
     </g>
    </g>
    <g id="xtick_2">
     <g id="line2d_3">
      <path d="M 128.780537 252 
L 128.780537 34.56 
" clip-path="url(#p7273b2312d)" style="fill: none; stroke: #b0b0b0; stroke-width: 0.8; stroke-linecap: square"/>
     </g>
     <g id="line2d_4">
      <g>
       <use xlink:href="#m6ee1f58de7" x="128.780537" y="252" style="stroke: #000000; stroke-width: 0.8"/>
      </g>
     </g>
     <g id="text_2">
      <!-- 100 -->
      <g transform="translate(119.236787 266.598437)scale(0.1 -0.1)">
       <defs>
        <path id="DejaVuSans-31" d="M 794 531 
L 1825 531 
L 1825 4091 
L 703 3866 
L 703 4441 
L 1819 4666 
L 2450 4666 
L 2450 531 
L 3481 531 
L 3481 0 
L 794 0 
L 794 531 
z
" transform="scale(0.015625)"/>
       </defs>
       <use xlink:href="#DejaVuSans-31"/>
       <use xlink:href="#DejaVuSans-30" x="63.623047"/>
       <use xlink:href="#DejaVuSans-30" x="127.246094"/>
      </g>
     </g>
    </g>
    <g id="xtick_3">
     <g id="line2d_5">
      <path d="M 188.342893 252 
L 188.342893 34.56 
" clip-path="url(#p7273b2312d)" style="fill: none; stroke: #b0b0b0; stroke-width: 0.8; stroke-linecap: square"/>
     </g>
     <g id="line2d_6">
      <g>
       <use xlink:href="#m6ee1f58de7" x="188.342893" y="252" style="stroke: #000000; stroke-width: 0.8"/>
      </g>
     </g>
     <g id="text_3">
      <!-- 200 -->
      <g transform="translate(178.799143 266.598437)scale(0.1 -0.1)">
       <defs>
        <path id="DejaVuSans-32" d="M 1228 531 
L 3431 531 
L 3431 0 
L 469 0 
L 469 531 
Q 828 903 1448 1529 
Q 2069 2156 2228 2338 
Q 2531 2678 2651 2914 
Q 2772 3150 2772 3378 
Q 2772 3750 2511 3984 
Q 2250 4219 1831 4219 
Q 1534 4219 1204 4116 
Q 875 4013 500 3803 
L 500 4441 
Q 881 4594 1212 4672 
Q 1544 4750 1819 4750 
Q 2544 4750 2975 4387 
Q 3406 4025 3406 3419 
Q 3406 3131 3298 2873 
Q 3191 2616 2906 2266 
Q 2828 2175 2409 1742 
Q 1991 1309 1228 531 
z
" transform="scale(0.015625)"/>
       </defs>
       <use xlink:href="#DejaVuSans-32"/>
       <use xlink:href="#DejaVuSans-30" x="63.623047"/>
       <use xlink:href="#DejaVuSans-30" x="127.246094"/>
      </g>
     </g>
    </g>
    <g id="xtick_4">
     <g id="line2d_7">
      <path d="M 247.905248 252 
L 247.905248 34.56 
" clip-path="url(#p7273b2312d)" style="fill: none; stroke: #b0b0b0; stroke-width: 0.8; stroke-linecap: square"/>
     </g>
     <g id="line2d_8">
      <g>
       <use xlink:href="#m6ee1f58de7" x="247.905248" y="252" style="stroke: #000000; stroke-width: 0.8"/>
      </g>
     </g>
     <g id="text_4">
      <!-- 300 -->
      <g transform="translate(238.361498 266.598437)scale(0.1 -0.1)">
       <defs>
        <path id="DejaVuSans-33" d="M 2597 2516 
Q 3050 2419 3304 2112 
Q 3559 1806 3559 1356 
Q 3559 666 3084 287 
Q 2609 -91 1734 -91 
Q 1441 -91 1130 -33 
Q 819 25 488 141 
L 488 750 
Q 750 597 1062 519 
Q 1375 441 1716 441 
Q 2309 441 2620 675 
Q 2931 909 2931 1356 
Q 2931 1769 2642 2001 
Q 2353 2234 1838 2234 
L 1294 2234 
L 1294 2753 
L 1863 2753 
Q 2328 2753 2575 2939 
Q 2822 3125 2822 3475 
Q 2822 3834 2567 4026 
Q 2313 4219 1838 4219 
Q 1578 4219 1281 4162 
Q 984 4106 628 3988 
L 628 4550 
Q 988 4650 1302 4700 
Q 1616 4750 1894 4750 
Q 2613 4750 3031 4423 
Q 3450 4097 3450 3541 
Q 3450 3153 3228 2886 
Q 3006 2619 2597 2516 
z
" transform="scale(0.015625)"/>
       </defs>
       <use xlink:href="#DejaVuSans-33"/>
       <use xlink:href="#DejaVuSans-30" x="63.623047"/>
       <use xlink:href="#DejaVuSans-30" x="127.246094"/>
      </g>
     </g>
    </g>
    <g id="xtick_5">
     <g id="line2d_9">
      <path d="M 307.467604 252 
L 307.467604 34.56 
" clip-path="url(#p7273b2312d)" style="fill: none; stroke: #b0b0b0; stroke-width: 0.8; stroke-linecap: square"/>
     </g>
     <g id="line2d_10">
      <g>
       <use xlink:href="#m6ee1f58de7" x="307.467604" y="252" style="stroke: #000000; stroke-width: 0.8"/>
      </g>
     </g>
     <g id="text_5">
      <!-- 400 -->
      <g transform="translate(297.923854 266.598437)scale(0.1 -0.1)">
       <defs>
        <path id="DejaVuSans-34" d="M 2419 4116 
L 825 1625 
L 2419 1625 
L 2419 4116 
z
M 2253 4666 
L 3047 4666 
L 3047 1625 
L 3713 1625 
L 3713 1100 
L 3047 1100 
L 3047 0 
L 2419 0 
L 2419 1100 
L 313 1100 
L 313 1709 
L 2253 4666 
z
" transform="scale(0.015625)"/>
       </defs>
       <use xlink:href="#DejaVuSans-34"/>
       <use xlink:href="#DejaVuSans-30" x="63.623047"/>
       <use xlink:href="#DejaVuSans-30" x="127.246094"/>
      </g>
     </g>
    </g>
    <g id="xtick_6">
     <g id="line2d_11">
      <path d="M 367.029959 252 
L 367.029959 34.56 
" clip-path="url(#p7273b2312d)" style="fill: none; stroke: #b0b0b0; stroke-width: 0.8; stroke-linecap: square"/>
     </g>
     <g id="line2d_12">
      <g>
       <use xlink:href="#m6ee1f58de7" x="367.029959" y="252" style="stroke: #000000; stroke-width: 0.8"/>
      </g>
     </g>
     <g id="text_6">
      <!-- 500 -->
      <g transform="translate(357.486209 266.598437)scale(0.1 -0.1)">
       <defs>
        <path id="DejaVuSans-35" d="M 691 4666 
L 3169 4666 
L 3169 4134 
L 1269 4134 
L 1269 2991 
Q 1406 3038 1543 3061 
Q 1681 3084 1819 3084 
Q 2600 3084 3056 2656 
Q 3513 2228 3513 1497 
Q 3513 744 3044 326 
Q 2575 -91 1722 -91 
Q 1428 -91 1123 -41 
Q 819 9 494 109 
L 494 744 
Q 775 591 1075 516 
Q 1375 441 1709 441 
Q 2250 441 2565 725 
Q 2881 1009 2881 1497 
Q 2881 1984 2565 2268 
Q 2250 2553 1709 2553 
Q 1456 2553 1204 2497 
Q 953 2441 691 2322 
L 691 4666 
z
" transform="scale(0.015625)"/>
       </defs>
       <use xlink:href="#DejaVuSans-35"/>
       <use xlink:href="#DejaVuSans-30" x="63.623047"/>
       <use xlink:href="#DejaVuSans-30" x="127.246094"/>
      </g>
     </g>
    </g>
    <g id="text_7">
     <!-- bin -->
     <g transform="translate(213.667969 280.276563)scale(0.1 -0.1)">
      <defs>
       <path id="DejaVuSans-62" d="M 3116 1747 
Q 3116 2381 2855 2742 
Q 2594 3103 2138 3103 
Q 1681 3103 1420 2742 
Q 1159 2381 1159 1747 
Q 1159 1113 1420 752 
Q 1681 391 2138 391 
Q 2594 391 2855 752 
Q 3116 1113 3116 1747 
z
M 1159 2969 
Q 1341 3281 1617 3432 
Q 1894 3584 2278 3584 
Q 2916 3584 3314 3078 
Q 3713 2572 3713 1747 
Q 3713 922 3314 415 
Q 2916 -91 2278 -91 
Q 1894 -91 1617 61 
Q 1341 213 1159 525 
L 1159 0 
L 581 0 
L 581 4863 
L 1159 4863 
L 1159 2969 
z
" transform="scale(0.015625)"/>
       <path id="DejaVuSans-69" d="M 603 3500 
L 1178 3500 
L 1178 0 
L 603 0 
L 603 3500 
z
M 603 4863 
L 1178 4863 
L 1178 4134 
L 603 4134 
L 603 4863 
z
" transform="scale(0.015625)"/>
       <path id="DejaVuSans-6e" d="M 3513 2113 
L 3513 0 
L 2938 0 
L 2938 2094 
Q 2938 2591 2744 2837 
Q 2550 3084 2163 3084 
Q 1697 3084 1428 2787 
Q 1159 2491 1159 1978 
L 1159 0 
L 581 0 
L 581 3500 
L 1159 3500 
L 1159 2956 
Q 1366 3272 1645 3428 
Q 1925 3584 2291 3584 
Q 2894 3584 3203 3211 
Q 3513 2838 3513 2113 
z
" transform="scale(0.015625)"/>
      </defs>
      <use xlink:href="#DejaVuSans-62"/>
      <use xlink:href="#DejaVuSans-69" x="63.476562"/>
      <use xlink:href="#DejaVuSans-6e" x="91.259766"/>
     </g>
    </g>
   </g>
   <g id="matplotlib.axis_2">
    <g id="ytick_1">
     <g id="line2d_13">
      <path d="M 54 252 
L 388.8 252 
" clip-path="url(#p7273b2312d)" style="fill: none; stroke: #b0b0b0; stroke-width: 0.8; stroke-linecap: square"/>
     </g>
     <g id="line2d_14">
      <defs>
       <path id="m26a16199d6" d="M 0 0 
L -3.5 0 
" style="stroke: #000000; stroke-width: 0.8"/>
      </defs>
      <g>
       <use xlink:href="#m26a16199d6" x="54" y="252" style="stroke: #000000; stroke-width: 0.8"/>
      </g>
     </g>
     <g id="text_8">
      <!-- 0 -->
      <g transform="translate(40.6375 255.799219)scale(0.1 -0.1)">
       <use xlink:href="#DejaVuSans-30"/>
      </g>
     </g>
    </g>
    <g id="ytick_2">
     <g id="line2d_15">
      <path d="M 54 226.418824 
L 388.8 226.418824 
" clip-path="url(#p7273b2312d)" style="fill: none; stroke: #b0b0b0; stroke-width: 0.8; stroke-linecap: square"/>
     </g>
     <g id="line2d_16">
      <g>
       <use xlink:href="#m26a16199d6" x="54" y="226.418824" style="stroke: #000000; stroke-width: 0.8"/>
      </g>
     </g>
     <g id="text_9">
      <!-- 200 -->
      <g transform="translate(27.9125 230.218042)scale(0.1 -0.1)">
       <use xlink:href="#DejaVuSans-32"/>
       <use xlink:href="#DejaVuSans-30" x="63.623047"/>
       <use xlink:href="#DejaVuSans-30" x="127.246094"/>
      </g>
     </g>
    </g>
    <g id="ytick_3">
     <g id="line2d_17">
      <path d="M 54 200.837647 
L 388.8 200.837647 
" clip-path="url(#p7273b2312d)" style="fill: none; stroke: #b0b0b0; stroke-width: 0.8; stroke-linecap: square"/>
     </g>
     <g id="line2d_18">
      <g>
       <use xlink:href="#m26a16199d6" x="54" y="200.837647" style="stroke: #000000; stroke-width: 0.8"/>
      </g>
     </g>
     <g id="text_10">
      <!-- 400 -->
      <g transform="translate(27.9125 204.636866)scale(0.1 -0.1)">
       <use xlink:href="#DejaVuSans-34"/>
       <use xlink:href="#DejaVuSans-30" x="63.623047"/>
       <use xlink:href="#DejaVuSans-30" x="127.246094"/>
      </g>
     </g>
    </g>
    <g id="ytick_4">
     <g id="line2d_19">
      <path d="M 54 175.256471 
L 388.8 175.256471 
" clip-path="url(#p7273b2312d)" style="fill: none; stroke: #b0b0b0; stroke-width: 0.8; stroke-linecap: square"/>
     </g>
     <g id="line2d_20">
      <g>
       <use xlink:href="#m26a16199d6" x="54" y="175.256471" style="stroke: #000000; stroke-width: 0.8"/>
      </g>
     </g>
     <g id="text_11">
      <!-- 600 -->
      <g transform="translate(27.9125 179.055689)scale(0.1 -0.1)">
       <defs>
        <path id="DejaVuSans-36" d="M 2113 2584 
Q 1688 2584 1439 2293 
Q 1191 2003 1191 1497 
Q 1191 994 1439 701 
Q 1688 409 2113 409 
Q 2538 409 2786 701 
Q 3034 994 3034 1497 
Q 3034 2003 2786 2293 
Q 2538 2584 2113 2584 
z
M 3366 4563 
L 3366 3988 
Q 3128 4100 2886 4159 
Q 2644 4219 2406 4219 
Q 1781 4219 1451 3797 
Q 1122 3375 1075 2522 
Q 1259 2794 1537 2939 
Q 1816 3084 2150 3084 
Q 2853 3084 3261 2657 
Q 3669 2231 3669 1497 
Q 3669 778 3244 343 
Q 2819 -91 2113 -91 
Q 1303 -91 875 529 
Q 447 1150 447 2328 
Q 447 3434 972 4092 
Q 1497 4750 2381 4750 
Q 2619 4750 2861 4703 
Q 3103 4656 3366 4563 
z
" transform="scale(0.015625)"/>
       </defs>
       <use xlink:href="#DejaVuSans-36"/>
       <use xlink:href="#DejaVuSans-30" x="63.623047"/>
       <use xlink:href="#DejaVuSans-30" x="127.246094"/>
      </g>
     </g>
    </g>
    <g id="ytick_5">
     <g id="line2d_21">
      <path d="M 54 149.675294 
L 388.8 149.675294 
" clip-path="url(#p7273b2312d)" style="fill: none; stroke: #b0b0b0; stroke-width: 0.8; stroke-linecap: square"/>
     </g>
     <g id="line2d_22">
      <g>
       <use xlink:href="#m26a16199d6" x="54" y="149.675294" style="stroke: #000000; stroke-width: 0.8"/>
      </g>
     </g>
     <g id="text_12">
      <!-- 800 -->
      <g transform="translate(27.9125 153.474513)scale(0.1 -0.1)">
       <defs>
        <path id="DejaVuSans-38" d="M 2034 2216 
Q 1584 2216 1326 1975 
Q 1069 1734 1069 1313 
Q 1069 891 1326 650 
Q 1584 409 2034 409 
Q 2484 409 2743 651 
Q 3003 894 3003 1313 
Q 3003 1734 2745 1975 
Q 2488 2216 2034 2216 
z
M 1403 2484 
Q 997 2584 770 2862 
Q 544 3141 544 3541 
Q 544 4100 942 4425 
Q 1341 4750 2034 4750 
Q 2731 4750 3128 4425 
Q 3525 4100 3525 3541 
Q 3525 3141 3298 2862 
Q 3072 2584 2669 2484 
Q 3125 2378 3379 2068 
Q 3634 1759 3634 1313 
Q 3634 634 3220 271 
Q 2806 -91 2034 -91 
Q 1263 -91 848 271 
Q 434 634 434 1313 
Q 434 1759 690 2068 
Q 947 2378 1403 2484 
z
M 1172 3481 
Q 1172 3119 1398 2916 
Q 1625 2713 2034 2713 
Q 2441 2713 2670 2916 
Q 2900 3119 2900 3481 
Q 2900 3844 2670 4047 
Q 2441 4250 2034 4250 
Q 1625 4250 1398 4047 
Q 1172 3844 1172 3481 
z
" transform="scale(0.015625)"/>
       </defs>
       <use xlink:href="#DejaVuSans-38"/>
       <use xlink:href="#DejaVuSans-30" x="63.623047"/>
       <use xlink:href="#DejaVuSans-30" x="127.246094"/>
      </g>
     </g>
    </g>
    <g id="ytick_6">
     <g id="line2d_23">
      <path d="M 54 124.094118 
L 388.8 124.094118 
" clip-path="url(#p7273b2312d)" style="fill: none; stroke: #b0b0b0; stroke-width: 0.8; stroke-linecap: square"/>
     </g>
     <g id="line2d_24">
      <g>
       <use xlink:href="#m26a16199d6" x="54" y="124.094118" style="stroke: #000000; stroke-width: 0.8"/>
      </g>
     </g>
     <g id="text_13">
      <!-- 1000 -->
      <g transform="translate(21.55 127.893336)scale(0.1 -0.1)">
       <use xlink:href="#DejaVuSans-31"/>
       <use xlink:href="#DejaVuSans-30" x="63.623047"/>
       <use xlink:href="#DejaVuSans-30" x="127.246094"/>
       <use xlink:href="#DejaVuSans-30" x="190.869141"/>
      </g>
     </g>
    </g>
    <g id="ytick_7">
     <g id="line2d_25">
      <path d="M 54 98.512941 
L 388.8 98.512941 
" clip-path="url(#p7273b2312d)" style="fill: none; stroke: #b0b0b0; stroke-width: 0.8; stroke-linecap: square"/>
     </g>
     <g id="line2d_26">
      <g>
       <use xlink:href="#m26a16199d6" x="54" y="98.512941" style="stroke: #000000; stroke-width: 0.8"/>
      </g>
     </g>
     <g id="text_14">
      <!-- 1200 -->
      <g transform="translate(21.55 102.31216)scale(0.1 -0.1)">
       <use xlink:href="#DejaVuSans-31"/>
       <use xlink:href="#DejaVuSans-32" x="63.623047"/>
       <use xlink:href="#DejaVuSans-30" x="127.246094"/>
       <use xlink:href="#DejaVuSans-30" x="190.869141"/>
      </g>
     </g>
    </g>
    <g id="ytick_8">
     <g id="line2d_27">
      <path d="M 54 72.931765 
L 388.8 72.931765 
" clip-path="url(#p7273b2312d)" style="fill: none; stroke: #b0b0b0; stroke-width: 0.8; stroke-linecap: square"/>
     </g>
     <g id="line2d_28">
      <g>
       <use xlink:href="#m26a16199d6" x="54" y="72.931765" style="stroke: #000000; stroke-width: 0.8"/>
      </g>
     </g>
     <g id="text_15">
      <!-- 1400 -->
      <g transform="translate(21.55 76.730983)scale(0.1 -0.1)">
       <use xlink:href="#DejaVuSans-31"/>
       <use xlink:href="#DejaVuSans-34" x="63.623047"/>
       <use xlink:href="#DejaVuSans-30" x="127.246094"/>
       <use xlink:href="#DejaVuSans-30" x="190.869141"/>
      </g>
     </g>
    </g>
    <g id="ytick_9">
     <g id="line2d_29">
      <path d="M 54 47.350588 
L 388.8 47.350588 
" clip-path="url(#p7273b2312d)" style="fill: none; stroke: #b0b0b0; stroke-width: 0.8; stroke-linecap: square"/>
     </g>
     <g id="line2d_30">
      <g>
       <use xlink:href="#m26a16199d6" x="54" y="47.350588" style="stroke: #000000; stroke-width: 0.8"/>
      </g>
     </g>
     <g id="text_16">
      <!-- 1600 -->
      <g transform="translate(21.55 51.149807)scale(0.1 -0.1)">
       <use xlink:href="#DejaVuSans-31"/>
       <use xlink:href="#DejaVuSans-36" x="63.623047"/>
       <use xlink:href="#DejaVuSans-30" x="127.246094"/>
       <use xlink:href="#DejaVuSans-30" x="190.869141"/>
      </g>
     </g>
    </g>
    <g id="text_17">
     <!-- count -->
     <g transform="translate(15.470312 157.38625)rotate(-90)scale(0.1 -0.1)">
      <defs>
       <path id="DejaVuSans-63" d="M 3122 3366 
L 3122 2828 
Q 2878 2963 2633 3030 
Q 2388 3097 2138 3097 
Q 1578 3097 1268 2742 
Q 959 2388 959 1747 
Q 959 1106 1268 751 
Q 1578 397 2138 397 
Q 2388 397 2633 464 
Q 2878 531 3122 666 
L 3122 134 
Q 2881 22 2623 -34 
Q 2366 -91 2075 -91 
Q 1284 -91 818 406 
Q 353 903 353 1747 
Q 353 2603 823 3093 
Q 1294 3584 2113 3584 
Q 2378 3584 2631 3529 
Q 2884 3475 3122 3366 
z
" transform="scale(0.015625)"/>
       <path id="DejaVuSans-6f" d="M 1959 3097 
Q 1497 3097 1228 2736 
Q 959 2375 959 1747 
Q 959 1119 1226 758 
Q 1494 397 1959 397 
Q 2419 397 2687 759 
Q 2956 1122 2956 1747 
Q 2956 2369 2687 2733 
Q 2419 3097 1959 3097 
z
M 1959 3584 
Q 2709 3584 3137 3096 
Q 3566 2609 3566 1747 
Q 3566 888 3137 398 
Q 2709 -91 1959 -91 
Q 1206 -91 779 398 
Q 353 888 353 1747 
Q 353 2609 779 3096 
Q 1206 3584 1959 3584 
z
" transform="scale(0.015625)"/>
       <path id="DejaVuSans-75" d="M 544 1381 
L 544 3500 
L 1119 3500 
L 1119 1403 
Q 1119 906 1312 657 
Q 1506 409 1894 409 
Q 2359 409 2629 706 
Q 2900 1003 2900 1516 
L 2900 3500 
L 3475 3500 
L 3475 0 
L 2900 0 
L 2900 538 
Q 2691 219 2414 64 
Q 2138 -91 1772 -91 
Q 1169 -91 856 284 
Q 544 659 544 1381 
z
M 1991 3584 
L 1991 3584 
z
" transform="scale(0.015625)"/>
       <path id="DejaVuSans-74" d="M 1172 4494 
L 1172 3500 
L 2356 3500 
L 2356 3053 
L 1172 3053 
L 1172 1153 
Q 1172 725 1289 603 
Q 1406 481 1766 481 
L 2356 481 
L 2356 0 
L 1766 0 
Q 1100 0 847 248 
Q 594 497 594 1153 
L 594 3053 
L 172 3053 
L 172 3500 
L 594 3500 
L 594 4494 
L 1172 4494 
z
" transform="scale(0.015625)"/>
      </defs>
      <use xlink:href="#DejaVuSans-63"/>
      <use xlink:href="#DejaVuSans-6f" x="54.980469"/>
      <use xlink:href="#DejaVuSans-75" x="116.162109"/>
      <use xlink:href="#DejaVuSans-6e" x="179.541016"/>
      <use xlink:href="#DejaVuSans-74" x="242.919922"/>
     </g>
    </g>
   </g>
   <g id="line2d_31">
    <path d="M 69.218182 241.128 
L 69.813805 242.151247 
L 70.409429 237.930353 
L 71.005052 239.721035 
L 71.600676 242.662871 
L 72.1963 242.918682 
L 72.791923 240.232659 
L 73.387547 239.976847 
L 73.98317 242.790776 
L 74.578794 241.255906 
L 75.174417 241.767529 
L 75.770041 245.093082 
L 76.365664 240.872188 
L 76.961288 243.174494 
L 77.556912 242.023341 
L 78.152535 239.337318 
L 78.748159 240.104753 
L 79.343782 239.721035 
L 79.939406 240.744282 
L 80.535029 240.744282 
L 81.130653 240.616376 
L 81.726276 243.686118 
L 82.3219 240.616376 
L 82.917524 240.872188 
L 83.513147 242.662871 
L 84.108771 238.058259 
L 84.704394 239.848941 
L 85.300018 242.023341 
L 85.895641 240.232659 
L 86.491265 242.407059 
L 87.086888 240.616376 
L 87.682512 239.593129 
L 88.278136 240.872188 
L 88.873759 242.662871 
L 89.469383 241.639624 
L 90.065006 241.000094 
L 90.66063 242.279153 
L 91.256253 242.023341 
L 91.851877 240.616376 
L 92.4475 240.744282 
L 93.043124 241.128 
L 93.638748 240.744282 
L 94.234371 241.000094 
L 94.829995 242.023341 
L 95.425618 241.767529 
L 96.021242 239.465224 
L 96.616865 241.255906 
L 97.212489 242.023341 
L 97.808112 241.895435 
L 98.403736 242.023341 
L 98.99936 243.558212 
L 99.594983 243.174494 
L 100.190607 240.744282 
L 100.78623 241.383812 
L 101.381854 241.383812 
L 101.977477 241.511718 
L 102.573101 242.662871 
L 103.168724 242.023341 
L 103.764348 240.232659 
L 104.359972 239.593129 
L 104.955595 240.488471 
L 105.551219 239.081506 
L 106.146842 239.721035 
L 106.742466 241.255906 
L 107.338089 241.128 
L 107.933713 241.511718 
L 108.529336 240.616376 
L 109.12496 240.104753 
L 109.720584 241.128 
L 110.316207 241.000094 
L 110.911831 238.441976 
L 111.507454 241.255906 
L 112.103078 237.930353 
L 112.698701 241.128 
L 113.294325 240.232659 
L 113.889948 240.104753 
L 114.485572 239.465224 
L 115.081196 241.895435 
L 115.676819 241.895435 
L 116.272443 244.709365 
L 116.868066 239.081506 
L 117.46369 241.383812 
L 118.059313 241.639624 
L 118.654937 241.511718 
L 119.25056 238.569882 
L 119.846184 240.872188 
L 120.441808 241.383812 
L 121.037431 242.279153 
L 121.633055 241.383812 
L 122.228678 239.721035 
L 122.824302 240.232659 
L 123.419925 241.639624 
L 124.015549 241.511718 
L 124.611172 239.593129 
L 125.802419 241.000094 
L 126.398043 240.616376 
L 126.993667 242.151247 
L 127.58929 241.255906 
L 128.184914 241.895435 
L 128.780537 240.104753 
L 129.376161 241.895435 
L 129.971784 240.744282 
L 130.567408 241.511718 
L 131.163031 241.255906 
L 131.758655 240.360565 
L 132.354279 241.895435 
L 132.949902 239.593129 
L 133.545526 240.872188 
L 134.141149 239.976847 
L 134.736773 241.767529 
L 135.332396 241.511718 
L 135.92802 241.511718 
L 136.523643 240.360565 
L 137.119267 241.000094 
L 137.714891 240.104753 
L 138.310514 239.976847 
L 138.906138 242.151247 
L 139.501761 243.174494 
L 140.097385 243.686118 
L 140.693008 241.000094 
L 141.288632 241.895435 
L 142.479879 239.081506 
L 143.075503 239.593129 
L 143.671126 239.465224 
L 144.862373 240.616376 
L 145.457997 241.511718 
L 146.05362 242.662871 
L 146.649244 243.174494 
L 147.244867 242.151247 
L 147.840491 242.407059 
L 148.436115 238.186165 
L 149.031738 241.511718 
L 149.627362 240.232659 
L 150.222985 242.023341 
L 150.818609 240.104753 
L 151.414232 241.639624 
L 152.605479 242.151247 
L 153.201103 241.000094 
L 153.796727 241.383812 
L 154.39235 243.430306 
L 154.987974 241.255906 
L 155.583597 241.383812 
L 156.179221 241.128 
L 156.774844 241.255906 
L 157.370468 240.232659 
L 157.966091 240.744282 
L 158.561715 239.209412 
L 159.157339 242.662871 
L 159.752962 240.872188 
L 160.348586 241.255906 
L 160.944209 239.848941 
L 161.539833 241.255906 
L 162.135456 240.616376 
L 162.73108 240.360565 
L 163.326703 241.383812 
L 163.922327 241.255906 
L 164.517951 242.279153 
L 165.113574 239.081506 
L 165.709198 238.441976 
L 166.900445 241.511718 
L 167.496068 242.918682 
L 168.091692 241.128 
L 168.687315 241.639624 
L 169.282939 241.128 
L 169.878563 242.279153 
L 170.474186 239.721035 
L 171.06981 241.000094 
L 171.665433 239.465224 
L 172.261057 240.872188 
L 172.85668 240.616376 
L 173.452304 239.337318 
L 174.047927 241.511718 
L 174.643551 241.895435 
L 175.239175 239.209412 
L 175.834798 239.976847 
L 177.026045 241.128 
L 177.621669 243.046588 
L 178.217292 240.488471 
L 178.812916 241.128 
L 179.408539 241.383812 
L 180.004163 241.000094 
L 180.599787 242.662871 
L 181.19541 242.662871 
L 182.386657 241.383812 
L 182.982281 239.593129 
L 184.173528 241.639624 
L 184.769151 240.488471 
L 185.364775 240.104753 
L 185.960399 238.825694 
L 186.556022 243.174494 
L 187.151646 243.174494 
L 187.747269 240.744282 
L 188.342893 232.174588 
L 188.938516 217.849129 
L 189.53414 208.000376 
L 190.129763 210.302682 
L 190.725387 224.244424 
L 191.32101 235.244329 
L 191.916634 240.872188 
L 192.512258 240.360565 
L 193.107881 241.511718 
L 193.703505 241.383812 
L 194.299128 241.383812 
L 194.894752 242.407059 
L 195.490375 242.151247 
L 196.085999 242.534965 
L 196.681622 236.523388 
L 197.277246 228.976941 
L 197.87287 227.697882 
L 198.468493 218.360753 
L 199.064117 201.860894 
L 199.65974 198.663247 
L 200.255364 200.965553 
L 201.446611 219.256094 
L 202.042234 228.337412 
L 202.637858 235.244329 
L 203.233482 239.848941 
L 203.829105 241.128 
L 204.424729 240.488471 
L 205.020352 239.465224 
L 205.615976 239.081506 
L 206.211599 242.534965 
L 206.807223 242.151247 
L 207.402846 240.488471 
L 207.99847 242.279153 
L 208.594094 239.593129 
L 209.189717 239.337318 
L 209.785341 242.662871 
L 210.380964 243.174494 
L 210.976588 240.872188 
L 211.572211 241.511718 
L 212.167835 240.232659 
L 212.763458 239.848941 
L 213.359082 243.174494 
L 213.954706 239.848941 
L 214.550329 241.511718 
L 215.145953 241.895435 
L 216.3372 240.616376 
L 216.932823 240.232659 
L 217.528447 241.511718 
L 218.12407 240.488471 
L 218.719694 241.000094 
L 219.315318 239.848941 
L 220.506565 241.128 
L 221.102188 240.744282 
L 221.697812 240.872188 
L 222.293435 239.593129 
L 222.889059 242.151247 
L 223.484682 242.662871 
L 224.080306 241.511718 
L 224.67593 241.895435 
L 225.271553 241.511718 
L 225.867177 240.744282 
L 226.4628 242.662871 
L 227.058424 241.767529 
L 227.654047 241.128 
L 228.249671 241.511718 
L 228.845294 242.534965 
L 229.440918 240.616376 
L 230.036542 240.744282 
L 230.632165 241.511718 
L 231.227789 239.465224 
L 231.823412 240.744282 
L 232.419036 239.976847 
L 233.014659 240.360565 
L 233.610283 240.360565 
L 234.205906 238.186165 
L 234.80153 241.639624 
L 235.397154 237.674541 
L 235.992777 241.383812 
L 236.588401 241.128 
L 237.184024 239.721035 
L 237.779648 240.360565 
L 238.375271 240.744282 
L 238.970895 238.186165 
L 239.566518 238.441976 
L 240.162142 243.558212 
L 240.757766 244.197741 
L 241.353389 239.337318 
L 241.949013 240.872188 
L 242.544636 241.895435 
L 243.14026 240.488471 
L 243.735883 240.488471 
L 244.331507 242.407059 
L 244.92713 242.279153 
L 245.522754 240.360565 
L 246.118378 241.639624 
L 246.714001 240.616376 
L 247.309625 241.000094 
L 247.905248 240.360565 
L 248.500872 239.081506 
L 249.096495 242.023341 
L 249.692119 240.872188 
L 250.287742 240.744282 
L 250.883366 240.488471 
L 251.47899 239.976847 
L 252.074613 241.511718 
L 252.670237 240.104753 
L 253.26586 241.255906 
L 253.861484 241.128 
L 254.457107 241.639624 
L 255.052731 241.128 
L 255.648354 241.767529 
L 256.243978 244.069835 
L 256.839601 241.511718 
L 257.435225 241.255906 
L 258.030849 238.9536 
L 258.626472 240.232659 
L 259.222096 239.848941 
L 259.817719 241.255906 
L 260.413343 242.279153 
L 261.008966 240.360565 
L 261.60459 240.872188 
L 262.200213 241.895435 
L 262.795837 240.104753 
L 263.391461 242.279153 
L 263.987084 241.767529 
L 264.582708 238.314071 
L 265.178331 241.000094 
L 265.773955 240.616376 
L 266.369578 240.744282 
L 266.965202 240.488471 
L 267.560825 241.000094 
L 268.156449 243.046588 
L 268.752073 241.511718 
L 269.347696 242.151247 
L 269.94332 240.616376 
L 270.538943 238.441976 
L 271.134567 241.128 
L 271.73019 240.232659 
L 272.325814 241.383812 
L 274.112685 240.360565 
L 274.708308 240.872188 
L 275.303932 240.360565 
L 276.495179 242.534965 
L 277.090802 240.744282 
L 277.686426 240.488471 
L 278.282049 241.255906 
L 278.877673 241.000094 
L 279.473297 241.511718 
L 280.06892 238.825694 
L 280.664544 242.023341 
L 281.260167 239.976847 
L 281.855791 240.360565 
L 282.451414 242.407059 
L 283.047038 240.232659 
L 283.642661 240.232659 
L 284.238285 240.616376 
L 284.833909 241.511718 
L 285.429532 241.000094 
L 286.025156 243.3024 
L 286.620779 240.872188 
L 287.216403 240.104753 
L 287.812026 242.023341 
L 288.40765 237.674541 
L 289.598897 242.662871 
L 290.194521 242.023341 
L 290.790144 239.976847 
L 291.385768 241.639624 
L 291.981391 241.128 
L 292.577015 241.255906 
L 293.172638 239.081506 
L 293.768262 241.000094 
L 294.363885 242.279153 
L 294.959509 240.232659 
L 295.555133 242.279153 
L 296.150756 240.360565 
L 296.74638 242.151247 
L 297.342003 241.895435 
L 297.937627 240.488471 
L 298.53325 240.488471 
L 299.128874 241.767529 
L 299.724497 242.279153 
L 300.320121 240.616376 
L 300.915745 241.767529 
L 301.511368 240.744282 
L 302.106992 240.104753 
L 302.702615 239.721035 
L 303.893862 242.407059 
L 304.489486 242.407059 
L 305.085109 238.9536 
L 305.680733 239.721035 
L 306.276357 242.151247 
L 306.87198 242.279153 
L 307.467604 242.534965 
L 308.063227 240.104753 
L 308.658851 241.255906 
L 309.254474 240.488471 
L 309.850098 241.767529 
L 310.445721 241.000094 
L 311.041345 241.255906 
L 311.636969 242.151247 
L 312.232592 242.279153 
L 312.828216 243.046588 
L 313.423839 238.825694 
L 314.019463 243.941929 
L 314.615086 241.511718 
L 315.21071 240.616376 
L 316.401957 240.872188 
L 316.997581 240.872188 
L 317.593204 239.465224 
L 318.188828 240.616376 
L 318.784451 241.128 
L 319.380075 241.895435 
L 319.975698 240.872188 
L 320.571322 240.872188 
L 321.166945 241.255906 
L 321.762569 240.744282 
L 322.358192 239.721035 
L 322.953816 240.104753 
L 323.54944 238.825694 
L 324.740687 243.3024 
L 325.33631 240.872188 
L 325.931934 241.639624 
L 326.527557 239.721035 
L 327.123181 241.000094 
L 327.718804 240.616376 
L 328.314428 240.744282 
L 328.910052 240.616376 
L 329.505675 242.279153 
L 330.101299 238.9536 
L 330.696922 242.151247 
L 331.292546 240.744282 
L 331.888169 241.767529 
L 332.483793 241.255906 
L 333.079416 242.407059 
L 333.67504 240.232659 
L 334.270664 242.407059 
L 334.866287 239.976847 
L 335.461911 241.511718 
L 336.057534 241.895435 
L 336.653158 241.383812 
L 337.248781 240.360565 
L 337.844405 241.767529 
L 338.440028 242.151247 
L 339.035652 242.151247 
L 339.631276 242.790776 
L 340.822523 240.360565 
L 341.418146 240.744282 
L 342.609393 242.662871 
L 343.205017 239.465224 
L 343.80064 240.744282 
L 344.396264 242.790776 
L 344.991888 239.848941 
L 345.587511 241.639624 
L 346.183135 240.488471 
L 346.778758 240.232659 
L 347.374382 241.000094 
L 347.970005 239.721035 
L 348.565629 241.128 
L 349.161252 242.023341 
L 349.756876 242.534965 
L 350.3525 240.744282 
L 350.948123 241.383812 
L 351.543747 239.721035 
L 352.13937 239.209412 
L 352.734994 240.360565 
L 353.330617 240.232659 
L 353.926241 241.000094 
L 354.521864 242.534965 
L 355.117488 241.511718 
L 355.713112 240.104753 
L 356.308735 240.104753 
L 356.904359 240.872188 
L 357.499982 239.465224 
L 358.095606 239.593129 
L 358.691229 240.104753 
L 359.286853 237.802447 
L 359.882476 241.255906 
L 360.4781 242.151247 
L 361.073724 238.9536 
L 361.669347 242.790776 
L 362.264971 239.721035 
L 362.860594 239.848941 
L 363.456218 242.534965 
L 364.051841 240.872188 
L 364.647465 238.697788 
L 365.243088 241.639624 
L 366.434336 240.872188 
L 367.029959 240.872188 
L 368.221206 243.430306 
L 369.412453 239.848941 
L 370.008077 241.511718 
L 370.6037 240.360565 
L 371.199324 240.104753 
L 371.794948 241.255906 
L 372.390571 241.255906 
L 372.986195 241.383812 
L 373.581818 241.639624 
L 373.581818 241.639624 
" clip-path="url(#p7273b2312d)" style="fill: none; stroke: #1f77b4; stroke-width: 1.5; stroke-linecap: square"/>
   </g>
   <g id="line2d_32">
    <path d="M 69.218182 221.686306 
L 69.813805 220.790965 
L 70.409429 222.965365 
L 71.005052 222.581647 
L 71.600676 223.476988 
L 72.1963 224.756047 
L 72.791923 221.430494 
L 73.387547 223.604894 
L 73.98317 223.604894 
L 74.578794 219.511906 
L 75.174417 224.500235 
L 75.770041 222.325835 
L 76.365664 224.372329 
L 76.961288 224.500235 
L 77.556912 221.174682 
L 78.152535 221.686306 
L 78.748159 225.779294 
L 79.343782 220.023529 
L 79.939406 223.988612 
L 80.535029 222.581647 
L 81.130653 222.453741 
L 81.726276 222.070024 
L 82.3219 223.988612 
L 82.917524 223.476988 
L 83.513147 221.430494 
L 84.108771 224.500235 
L 84.704394 224.116518 
L 85.895641 222.070024 
L 86.491265 222.070024 
L 87.086888 219.000282 
L 87.682512 220.535153 
L 88.278136 221.5584 
L 88.873759 221.942118 
L 89.469383 220.535153 
L 90.065006 221.5584 
L 90.66063 222.070024 
L 91.256253 221.430494 
L 91.851877 223.860706 
L 92.4475 220.407247 
L 93.043124 225.651388 
L 93.638748 222.837459 
L 94.234371 224.244424 
L 94.829995 224.628141 
L 95.425618 220.407247 
L 96.021242 221.814212 
L 96.616865 225.779294 
L 97.212489 221.942118 
L 97.808112 219.256094 
L 98.403736 224.756047 
L 98.99936 223.604894 
L 99.594983 223.860706 
L 100.190607 226.930447 
L 100.78623 221.942118 
L 101.381854 224.116518 
L 101.977477 223.988612 
L 102.573101 220.407247 
L 103.168724 225.9072 
L 103.764348 222.070024 
L 104.359972 220.918871 
L 104.955595 221.174682 
L 105.551219 222.197929 
L 106.146842 224.116518 
L 106.742466 219.895624 
L 107.338089 223.093271 
L 107.933713 220.918871 
L 108.529336 225.523482 
L 109.12496 225.395576 
L 110.316207 220.790965 
L 110.911831 224.628141 
L 111.507454 225.011859 
L 112.103078 222.197929 
L 112.698701 220.407247 
L 113.294325 222.453741 
L 113.889948 223.221176 
L 114.485572 222.325835 
L 115.081196 222.965365 
L 115.676819 222.965365 
L 116.272443 222.197929 
L 116.868066 219.511906 
L 117.46369 223.604894 
L 118.059313 223.349082 
L 118.654937 224.756047 
L 119.25056 220.663059 
L 119.846184 223.476988 
L 120.441808 223.349082 
L 121.037431 224.883953 
L 121.633055 221.814212 
L 122.824302 222.453741 
L 123.419925 225.651388 
L 124.015549 226.163012 
L 124.611172 225.011859 
L 125.206796 221.302588 
L 125.802419 225.523482 
L 126.398043 221.430494 
L 126.993667 224.500235 
L 127.58929 222.325835 
L 128.184914 222.581647 
L 128.780537 223.221176 
L 129.376161 225.9072 
L 129.971784 221.174682 
L 130.567408 221.046776 
L 131.163031 222.453741 
L 131.758655 221.302588 
L 132.354279 222.197929 
L 132.949902 221.686306 
L 133.545526 222.837459 
L 134.141149 221.686306 
L 134.736773 225.011859 
L 135.332396 220.918871 
L 135.92802 222.453741 
L 136.523643 225.651388 
L 137.119267 219.639812 
L 137.714891 219.511906 
L 138.310514 221.302588 
L 138.906138 220.279341 
L 139.501761 224.372329 
L 140.097385 222.197929 
L 140.693008 224.116518 
L 141.288632 220.023529 
L 142.479879 222.581647 
L 143.075503 225.267671 
L 143.671126 222.325835 
L 144.26675 222.837459 
L 144.862373 222.581647 
L 145.457997 225.011859 
L 146.05362 223.604894 
L 146.649244 218.360753 
L 147.244867 223.604894 
L 147.840491 221.302588 
L 148.436115 223.604894 
L 149.031738 223.221176 
L 149.627362 221.942118 
L 150.222985 225.139765 
L 152.009856 223.604894 
L 152.605479 223.476988 
L 153.201103 224.628141 
L 153.796727 223.093271 
L 154.39235 223.476988 
L 154.987974 221.5584 
L 155.583597 225.523482 
L 156.179221 224.244424 
L 156.774844 218.104941 
L 157.370468 222.709553 
L 157.966091 222.965365 
L 158.561715 224.372329 
L 159.157339 224.500235 
L 159.752962 220.535153 
L 160.348586 222.453741 
L 160.944209 221.814212 
L 161.539833 224.883953 
L 162.135456 219.128188 
L 162.73108 220.535153 
L 163.326703 220.151435 
L 163.922327 222.581647 
L 164.517951 220.407247 
L 165.113574 221.430494 
L 165.709198 223.093271 
L 166.304821 220.151435 
L 166.900445 221.174682 
L 167.496068 220.023529 
L 168.091692 227.058353 
L 168.687315 221.174682 
L 169.282939 223.860706 
L 169.878563 223.349082 
L 171.06981 221.942118 
L 171.665433 221.5584 
L 172.261057 222.070024 
L 172.85668 224.883953 
L 173.452304 222.965365 
L 174.047927 222.709553 
L 174.643551 221.814212 
L 175.239175 220.151435 
L 175.834798 220.663059 
L 176.430422 225.011859 
L 177.026045 226.290918 
L 177.621669 223.860706 
L 178.217292 229.488565 
L 178.812916 224.756047 
L 180.004163 220.151435 
L 180.599787 214.651482 
L 181.19541 195.337694 
L 181.791034 181.907576 
L 182.386657 184.977318 
L 182.982281 199.174871 
L 183.577904 216.697976 
L 184.173528 223.7328 
L 184.769151 221.174682 
L 185.364775 224.244424 
L 185.960399 221.5584 
L 186.556022 217.849129 
L 187.151646 223.093271 
L 187.747269 223.093271 
L 188.342893 219.895624 
L 188.938516 220.151435 
L 189.53414 212.221271 
L 191.32101 176.535529 
L 191.916634 181.012235 
L 192.512258 171.930918 
L 193.107881 182.930824 
L 193.703505 198.663247 
L 194.299128 208.128282 
L 194.894752 215.802635 
L 195.490375 221.814212 
L 196.085999 219.256094 
L 196.681622 224.500235 
L 197.277246 222.709553 
L 197.87287 220.023529 
L 198.468493 221.302588 
L 199.064117 222.070024 
L 199.65974 221.686306 
L 200.255364 220.918871 
L 200.850987 223.604894 
L 201.446611 222.070024 
L 202.042234 222.837459 
L 202.637858 222.453741 
L 203.233482 220.663059 
L 203.829105 222.581647 
L 204.424729 222.453741 
L 205.020352 221.174682 
L 205.615976 225.267671 
L 206.211599 226.290918 
L 206.807223 225.139765 
L 207.402846 223.349082 
L 207.99847 222.581647 
L 208.594094 224.372329 
L 209.189717 220.918871 
L 209.785341 225.267671 
L 210.380964 220.790965 
L 210.976588 220.790965 
L 211.572211 222.453741 
L 212.167835 223.221176 
L 212.763458 222.837459 
L 213.359082 221.302588 
L 213.954706 226.035106 
L 214.550329 220.023529 
L 215.145953 225.139765 
L 215.741576 224.756047 
L 216.3372 219.128188 
L 216.932823 223.093271 
L 217.528447 221.942118 
L 218.12407 223.221176 
L 218.719694 219.511906 
L 219.315318 225.9072 
L 219.910941 220.535153 
L 220.506565 221.174682 
L 221.102188 224.372329 
L 221.697812 221.814212 
L 222.293435 223.093271 
L 222.889059 224.883953 
L 223.484682 222.965365 
L 224.080306 223.988612 
L 224.67593 220.663059 
L 225.271553 221.814212 
L 225.867177 220.151435 
L 226.4628 224.372329 
L 227.058424 220.407247 
L 227.654047 224.372329 
L 228.249671 222.070024 
L 228.845294 222.325835 
L 229.440918 220.918871 
L 230.036542 224.756047 
L 230.632165 222.070024 
L 231.823412 222.325835 
L 232.419036 226.163012 
L 233.014659 225.779294 
L 233.610283 221.942118 
L 234.205906 221.5584 
L 234.80153 224.500235 
L 235.397154 220.151435 
L 235.992777 223.604894 
L 236.588401 223.221176 
L 237.184024 219.000282 
L 238.375271 225.011859 
L 238.970895 223.093271 
L 239.566518 225.523482 
L 240.162142 219.511906 
L 240.757766 224.244424 
L 241.353389 224.628141 
L 241.949013 219.895624 
L 242.544636 222.581647 
L 243.14026 226.163012 
L 243.735883 220.151435 
L 244.331507 221.814212 
L 244.92713 218.616565 
L 245.522754 222.070024 
L 246.714001 222.965365 
L 247.309625 220.407247 
L 247.905248 223.093271 
L 248.500872 220.918871 
L 249.096495 221.046776 
L 249.692119 223.093271 
L 250.287742 221.686306 
L 250.883366 223.988612 
L 251.47899 222.581647 
L 252.074613 227.314165 
L 252.670237 222.453741 
L 253.26586 222.453741 
L 253.861484 220.407247 
L 254.457107 220.918871 
L 255.052731 223.093271 
L 255.648354 221.174682 
L 256.243978 223.093271 
L 256.839601 219.384 
L 257.435225 222.709553 
L 258.030849 222.197929 
L 258.626472 218.616565 
L 259.222096 223.860706 
L 259.817719 221.814212 
L 260.413343 221.814212 
L 261.008966 223.860706 
L 261.60459 220.918871 
L 262.795837 224.883953 
L 263.391461 223.7328 
L 263.987084 221.814212 
L 264.582708 223.604894 
L 265.178331 224.116518 
L 265.773955 223.7328 
L 266.369578 219.511906 
L 266.965202 224.244424 
L 268.156449 220.790965 
L 268.752073 222.837459 
L 269.347696 222.837459 
L 270.538943 225.779294 
L 271.134567 222.453741 
L 271.73019 220.535153 
L 272.325814 219.767718 
L 272.921437 223.860706 
L 273.517061 222.197929 
L 274.112685 221.174682 
L 274.708308 225.395576 
L 275.899555 221.046776 
L 276.495179 220.663059 
L 277.090802 221.302588 
L 277.686426 218.104941 
L 278.282049 223.349082 
L 278.877673 219.384 
L 279.473297 220.790965 
L 280.06892 223.221176 
L 280.664544 224.372329 
L 281.260167 224.116518 
L 281.855791 224.500235 
L 282.451414 225.267671 
L 283.047038 225.011859 
L 283.642661 221.686306 
L 284.238285 222.709553 
L 284.833909 223.476988 
L 285.429532 220.790965 
L 286.025156 225.395576 
L 286.620779 223.860706 
L 287.216403 227.314165 
L 287.812026 226.163012 
L 288.40765 222.965365 
L 289.003273 223.604894 
L 289.598897 221.814212 
L 290.194521 221.5584 
L 291.385768 225.651388 
L 291.981391 222.070024 
L 292.577015 222.837459 
L 293.768262 221.5584 
L 294.363885 222.197929 
L 294.959509 224.756047 
L 295.555133 224.244424 
L 296.150756 222.070024 
L 296.74638 218.488659 
L 297.342003 221.174682 
L 297.937627 217.337506 
L 298.53325 224.756047 
L 299.128874 221.5584 
L 299.724497 222.325835 
L 300.320121 223.860706 
L 300.915745 218.744471 
L 301.511368 221.814212 
L 302.106992 221.814212 
L 302.702615 223.349082 
L 303.298239 220.023529 
L 303.893862 219.511906 
L 304.489486 222.325835 
L 305.085109 223.988612 
L 305.680733 222.070024 
L 306.276357 223.349082 
L 306.87198 223.7328 
L 307.467604 222.070024 
L 308.063227 218.872376 
L 308.658851 223.221176 
L 309.254474 222.709553 
L 309.850098 221.814212 
L 310.445721 219.767718 
L 311.041345 222.965365 
L 311.636969 220.535153 
L 312.232592 224.244424 
L 312.828216 218.616565 
L 313.423839 223.093271 
L 314.019463 224.883953 
L 314.615086 223.988612 
L 315.21071 220.407247 
L 315.806333 220.279341 
L 316.401957 222.581647 
L 316.997581 222.325835 
L 317.593204 223.093271 
L 318.188828 221.302588 
L 318.784451 225.779294 
L 319.380075 224.500235 
L 319.975698 222.709553 
L 320.571322 224.244424 
L 321.166945 223.860706 
L 321.762569 224.628141 
L 322.953816 221.046776 
L 323.54944 223.093271 
L 324.145063 223.349082 
L 324.740687 221.174682 
L 325.33631 223.604894 
L 325.931934 223.988612 
L 326.527557 222.070024 
L 327.123181 222.581647 
L 327.718804 220.023529 
L 328.314428 226.930447 
L 328.910052 223.860706 
L 329.505675 222.197929 
L 330.101299 219.895624 
L 330.696922 225.395576 
L 331.292546 221.686306 
L 331.888169 223.860706 
L 332.483793 218.488659 
L 333.079416 220.663059 
L 333.67504 224.116518 
L 334.270664 219.639812 
L 334.866287 224.116518 
L 335.461911 223.860706 
L 336.057534 224.500235 
L 337.248781 221.5584 
L 337.844405 224.244424 
L 338.440028 217.721224 
L 339.035652 221.046776 
L 339.631276 221.942118 
L 340.226899 220.790965 
L 340.822523 223.221176 
L 341.418146 224.244424 
L 342.01377 222.197929 
L 342.609393 222.581647 
L 343.205017 219.256094 
L 343.80064 220.407247 
L 344.396264 224.500235 
L 344.991888 223.221176 
L 345.587511 221.302588 
L 346.183135 224.372329 
L 346.778758 222.325835 
L 347.374382 220.790965 
L 347.970005 220.535153 
L 348.565629 221.174682 
L 349.161252 220.663059 
L 349.756876 219.639812 
L 350.3525 222.837459 
L 350.948123 220.918871 
L 351.543747 224.244424 
L 352.13937 223.7328 
L 352.734994 226.290918 
L 353.330617 223.988612 
L 353.926241 216.825882 
L 354.521864 223.988612 
L 355.117488 224.244424 
L 355.713112 226.802541 
L 356.308735 222.965365 
L 356.904359 225.523482 
L 357.499982 222.453741 
L 359.286853 218.744471 
L 359.882476 224.756047 
L 360.4781 222.197929 
L 361.073724 220.663059 
L 361.669347 220.790965 
L 362.264971 226.802541 
L 362.860594 223.7328 
L 363.456218 222.965365 
L 364.051841 224.628141 
L 364.647465 223.349082 
L 365.243088 220.151435 
L 365.838712 223.093271 
L 366.434336 224.116518 
L 367.029959 223.093271 
L 367.625583 224.500235 
L 368.221206 223.221176 
L 368.81683 222.325835 
L 369.412453 219.256094 
L 370.008077 225.395576 
L 370.6037 223.988612 
L 371.199324 221.5584 
L 371.794948 222.325835 
L 372.390571 223.604894 
L 372.986195 219.767718 
L 373.581818 222.837459 
L 373.581818 222.837459 
" clip-path="url(#p7273b2312d)" style="fill: none; stroke: #ff7f0e; stroke-width: 1.5; stroke-linecap: square"/>
   </g>
   <g id="line2d_33">
    <path d="M 69.218182 194.570259 
L 69.813805 187.919153 
L 70.409429 195.209788 
L 71.005052 194.953976 
L 71.600676 197.64 
L 72.1963 195.337694 
L 72.791923 193.547012 
L 73.387547 189.198212 
L 73.98317 191.628424 
L 74.578794 188.9424 
L 75.174417 195.337694 
L 75.770041 196.360941 
L 76.365664 199.302776 
L 76.961288 193.802824 
L 77.556912 196.233035 
L 78.152535 193.802824 
L 78.748159 196.105129 
L 79.343782 200.326024 
L 79.939406 194.058635 
L 80.535029 190.221459 
L 81.130653 196.105129 
L 81.726276 198.151624 
L 82.3219 192.907482 
L 82.917524 193.163294 
L 83.513147 192.779576 
L 84.108771 191.1168 
L 84.704394 191.884235 
L 85.300018 193.035388 
L 85.895641 190.860988 
L 86.491265 191.1168 
L 87.086888 194.058635 
L 87.682512 196.233035 
L 88.278136 193.2912 
L 88.873759 197.256282 
L 89.469383 192.267953 
L 90.065006 193.930729 
L 90.66063 197.767906 
L 92.4475 192.523765 
L 93.043124 193.163294 
L 93.638748 191.756329 
L 94.234371 191.756329 
L 94.829995 194.698165 
L 95.425618 195.209788 
L 96.021242 191.1168 
L 96.616865 193.163294 
L 97.212489 186.384282 
L 97.808112 194.698165 
L 98.403736 194.186541 
L 98.99936 190.733082 
L 99.594983 200.581835 
L 100.190607 195.849318 
L 100.78623 196.616753 
L 101.381854 189.837741 
L 101.977477 193.547012 
L 102.573101 189.070306 
L 103.168724 198.023718 
L 104.359972 190.349365 
L 104.955595 196.744659 
L 105.551219 194.058635 
L 106.146842 188.9424 
L 106.742466 188.558682 
L 107.338089 196.105129 
L 107.933713 192.140047 
L 108.529336 189.837741 
L 109.12496 193.163294 
L 109.720584 191.884235 
L 110.316207 195.849318 
L 110.911831 197.256282 
L 111.507454 194.186541 
L 112.103078 192.395859 
L 112.698701 194.314447 
L 113.294325 197.512094 
L 113.889948 186.640094 
L 114.485572 196.616753 
L 115.676819 195.209788 
L 116.272443 193.2912 
L 116.868066 192.907482 
L 117.46369 191.756329 
L 118.059313 194.570259 
L 118.654937 194.442353 
L 119.25056 195.721412 
L 119.846184 196.488847 
L 120.441808 189.581929 
L 121.037431 198.023718 
L 121.633055 189.198212 
L 122.228678 196.872565 
L 122.824302 191.628424 
L 123.419925 193.2912 
L 124.015549 194.058635 
L 124.611172 188.9424 
L 125.206796 195.209788 
L 125.802419 192.140047 
L 126.398043 190.860988 
L 127.58929 192.907482 
L 128.184914 196.233035 
L 128.780537 192.779576 
L 129.376161 194.186541 
L 129.971784 193.930729 
L 130.567408 190.349365 
L 131.163031 192.012141 
L 131.758655 192.140047 
L 132.354279 191.756329 
L 132.949902 192.395859 
L 133.545526 199.046965 
L 134.141149 195.849318 
L 134.736773 191.500518 
L 135.332396 191.244706 
L 135.92802 191.756329 
L 136.523643 194.058635 
L 137.119267 193.674918 
L 137.714891 192.907482 
L 138.310514 196.872565 
L 138.906138 190.988894 
L 139.501761 190.605176 
L 140.097385 194.826071 
L 140.693008 195.977224 
L 141.288632 197.64 
L 141.884255 194.058635 
L 142.479879 195.209788 
L 143.075503 194.186541 
L 143.671126 191.884235 
L 144.26675 191.372612 
L 144.862373 197.64 
L 145.457997 198.023718 
L 146.05362 193.035388 
L 146.649244 192.395859 
L 147.244867 192.140047 
L 147.840491 194.186541 
L 148.436115 195.593506 
L 149.031738 194.442353 
L 149.627362 191.500518 
L 150.818609 193.802824 
L 151.414232 192.779576 
L 152.009856 189.326118 
L 152.605479 195.209788 
L 153.201103 193.674918 
L 153.796727 200.581835 
L 154.39235 193.547012 
L 154.987974 198.407435 
L 155.583597 194.953976 
L 156.179221 194.186541 
L 156.774844 194.442353 
L 157.370468 195.081882 
L 157.966091 196.360941 
L 158.561715 195.209788 
L 159.157339 189.581929 
L 159.752962 201.605082 
L 160.348586 189.965647 
L 161.539833 193.547012 
L 162.135456 189.454024 
L 162.73108 192.140047 
L 163.326703 194.058635 
L 163.922327 197.128376 
L 164.517951 186.256376 
L 165.709198 194.058635 
L 166.304821 192.140047 
L 166.900445 197.64 
L 167.496068 193.163294 
L 168.091692 192.907482 
L 168.687315 195.593506 
L 169.282939 195.977224 
L 169.878563 193.547012 
L 170.474186 192.395859 
L 171.06981 196.616753 
L 171.665433 195.4656 
L 172.261057 190.349365 
L 172.85668 198.535341 
L 173.452304 196.872565 
L 174.047927 197.895812 
L 174.643551 187.663341 
L 175.239175 195.721412 
L 175.834798 189.709835 
L 176.430422 195.593506 
L 177.026045 195.081882 
L 177.621669 195.849318 
L 178.217292 192.523765 
L 178.812916 192.395859 
L 179.408539 195.081882 
L 180.004163 198.791153 
L 180.599787 197.64 
L 181.19541 190.349365 
L 181.791034 190.221459 
L 182.386657 196.488847 
L 182.982281 194.058635 
L 183.577904 187.791247 
L 184.173528 190.093553 
L 184.769151 197.895812 
L 185.364775 196.360941 
L 185.960399 195.849318 
L 186.556022 190.605176 
L 187.151646 193.930729 
L 187.747269 192.907482 
L 188.342893 191.372612 
L 188.938516 193.2912 
L 189.53414 193.547012 
L 190.129763 194.570259 
L 190.725387 189.070306 
L 191.32101 192.651671 
L 191.916634 198.535341 
L 192.512258 192.779576 
L 193.107881 197.000471 
L 193.703505 196.105129 
L 194.299128 187.151718 
L 194.894752 192.523765 
L 195.490375 195.721412 
L 196.085999 192.395859 
L 196.681622 195.977224 
L 197.277246 190.988894 
L 197.87287 193.035388 
L 198.468493 198.023718 
L 199.064117 196.360941 
L 199.65974 199.302776 
L 200.255364 196.616753 
L 200.850987 197.384188 
L 201.446611 191.372612 
L 202.042234 195.721412 
L 202.637858 192.140047 
L 203.233482 194.826071 
L 203.829105 193.930729 
L 204.424729 196.488847 
L 205.020352 192.523765 
L 205.615976 197.767906 
L 206.211599 189.454024 
L 206.807223 176.535529 
L 207.402846 160.931012 
L 207.99847 167.1984 
L 208.594094 178.326212 
L 209.189717 185.105224 
L 209.785341 197.64 
L 210.380964 194.058635 
L 210.976588 194.442353 
L 211.572211 196.872565 
L 212.167835 190.605176 
L 212.763458 193.930729 
L 213.359082 198.023718 
L 213.954706 196.872565 
L 214.550329 190.093553 
L 215.145953 186.384282 
L 215.741576 179.221553 
L 216.3372 169.244894 
L 216.932823 170.651859 
L 217.528447 160.419388 
L 218.12407 156.070588 
L 218.719694 162.465882 
L 219.910941 186.384282 
L 220.506565 188.814494 
L 221.102188 193.547012 
L 221.697812 192.651671 
L 222.293435 191.244706 
L 222.889059 192.140047 
L 223.484682 194.186541 
L 224.080306 193.674918 
L 224.67593 191.500518 
L 225.271553 195.721412 
L 225.867177 196.488847 
L 226.4628 196.488847 
L 227.058424 197.128376 
L 227.654047 195.593506 
L 228.249671 192.140047 
L 228.845294 194.698165 
L 229.440918 191.372612 
L 230.036542 193.163294 
L 230.632165 198.279529 
L 231.227789 189.965647 
L 231.823412 191.1168 
L 232.419036 188.430776 
L 233.014659 190.605176 
L 233.610283 190.733082 
L 234.205906 192.395859 
L 234.80153 196.872565 
L 235.992777 190.988894 
L 236.588401 192.523765 
L 237.184024 189.070306 
L 237.779648 194.314447 
L 238.375271 188.686588 
L 238.970895 195.721412 
L 239.566518 197.64 
L 240.162142 195.593506 
L 240.757766 194.314447 
L 241.353389 196.616753 
L 241.949013 195.721412 
L 242.544636 190.860988 
L 243.14026 195.081882 
L 243.735883 194.186541 
L 244.331507 194.314447 
L 244.92713 200.198118 
L 246.118378 191.500518 
L 246.714001 194.953976 
L 247.309625 193.035388 
L 247.905248 196.233035 
L 248.500872 196.872565 
L 249.692119 193.163294 
L 250.287742 192.651671 
L 250.883366 189.581929 
L 251.47899 193.930729 
L 252.074613 196.233035 
L 252.670237 194.186541 
L 253.26586 196.872565 
L 253.861484 193.930729 
L 254.457107 197.895812 
L 255.052731 192.140047 
L 255.648354 191.884235 
L 256.243978 194.314447 
L 256.839601 195.337694 
L 257.435225 194.698165 
L 258.030849 191.756329 
L 258.626472 199.046965 
L 259.222096 191.884235 
L 259.817719 190.988894 
L 260.413343 192.140047 
L 261.008966 191.884235 
L 261.60459 194.058635 
L 262.200213 192.267953 
L 262.795837 193.802824 
L 263.987084 193.163294 
L 264.582708 188.047059 
L 265.178331 192.140047 
L 265.773955 194.442353 
L 266.369578 195.337694 
L 266.965202 191.372612 
L 267.560825 193.419106 
L 268.156449 197.128376 
L 268.752073 188.9424 
L 269.347696 197.895812 
L 269.94332 195.209788 
L 271.134567 196.105129 
L 272.325814 191.244706 
L 272.921437 194.186541 
L 273.517061 188.047059 
L 274.112685 197.256282 
L 275.303932 191.628424 
L 275.899555 195.977224 
L 276.495179 188.686588 
L 277.090802 197.512094 
L 277.686426 196.616753 
L 278.282049 199.174871 
L 278.877673 199.046965 
L 279.473297 190.221459 
L 280.06892 194.442353 
L 280.664544 190.349365 
L 281.260167 195.209788 
L 281.855791 191.1168 
L 282.451414 197.895812 
L 283.047038 195.593506 
L 283.642661 192.523765 
L 284.238285 193.419106 
L 284.833909 192.523765 
L 285.429532 196.616753 
L 286.025156 190.349365 
L 286.620779 191.884235 
L 287.216403 191.500518 
L 287.812026 190.221459 
L 288.40765 192.267953 
L 289.003273 189.965647 
L 289.598897 191.500518 
L 290.194521 194.826071 
L 290.790144 195.977224 
L 291.385768 194.953976 
L 291.981391 191.756329 
L 292.577015 189.581929 
L 293.172638 195.209788 
L 293.768262 195.849318 
L 294.363885 193.547012 
L 294.959509 196.872565 
L 295.555133 192.779576 
L 296.150756 194.826071 
L 296.74638 192.267953 
L 297.342003 198.919059 
L 297.937627 197.256282 
L 298.53325 197.895812 
L 299.128874 193.674918 
L 299.724497 190.988894 
L 300.320121 196.744659 
L 300.915745 196.488847 
L 301.511368 191.372612 
L 302.106992 194.314447 
L 302.702615 193.547012 
L 303.298239 194.058635 
L 303.893862 193.419106 
L 304.489486 195.081882 
L 305.085109 192.907482 
L 305.680733 192.523765 
L 306.276357 193.674918 
L 306.87198 196.872565 
L 307.467604 188.558682 
L 308.063227 191.1168 
L 308.658851 195.209788 
L 309.254474 193.930729 
L 309.850098 201.605082 
L 310.445721 190.988894 
L 311.041345 195.4656 
L 311.636969 196.233035 
L 312.232592 193.419106 
L 312.828216 188.174965 
L 313.423839 197.000471 
L 314.019463 195.4656 
L 314.615086 193.035388 
L 315.21071 197.64 
L 315.806333 196.488847 
L 316.401957 191.244706 
L 316.997581 190.733082 
L 318.188828 200.326024 
L 319.380075 188.686588 
L 319.975698 192.395859 
L 320.571322 193.547012 
L 321.166945 196.616753 
L 321.762569 193.2912 
L 322.358192 197.767906 
L 322.953816 195.849318 
L 323.54944 199.558588 
L 324.145063 191.500518 
L 324.740687 195.721412 
L 325.33631 194.058635 
L 325.931934 190.605176 
L 326.527557 193.802824 
L 327.123181 190.349365 
L 327.718804 196.233035 
L 328.314428 192.012141 
L 328.910052 196.744659 
L 330.101299 190.988894 
L 330.696922 193.163294 
L 331.292546 191.500518 
L 331.888169 192.523765 
L 332.483793 189.454024 
L 333.079416 194.314447 
L 333.67504 200.965553 
L 334.270664 188.814494 
L 334.866287 194.058635 
L 335.461911 187.791247 
L 336.057534 191.372612 
L 336.653158 192.012141 
L 337.844405 196.360941 
L 338.440028 192.395859 
L 339.035652 195.081882 
L 339.631276 189.965647 
L 340.226899 197.256282 
L 340.822523 190.988894 
L 341.418146 193.2912 
L 342.01377 194.186541 
L 342.609393 195.593506 
L 343.205017 197.895812 
L 343.80064 195.081882 
L 344.396264 194.953976 
L 344.991888 195.209788 
L 346.183135 193.419106 
L 346.778758 193.419106 
L 347.374382 194.570259 
L 347.970005 197.256282 
L 348.565629 193.035388 
L 349.161252 192.907482 
L 349.756876 193.419106 
L 350.3525 198.535341 
L 350.948123 195.209788 
L 351.543747 193.802824 
L 352.13937 197.000471 
L 352.734994 193.035388 
L 353.330617 190.477271 
L 353.926241 193.2912 
L 354.521864 194.186541 
L 355.117488 192.907482 
L 355.713112 195.593506 
L 356.308735 191.884235 
L 356.904359 192.140047 
L 357.499982 194.698165 
L 358.095606 199.8144 
L 358.691229 193.419106 
L 359.286853 190.605176 
L 359.882476 194.698165 
L 360.4781 195.593506 
L 361.073724 192.267953 
L 361.669347 196.233035 
L 362.264971 195.081882 
L 362.860594 198.535341 
L 363.456218 192.651671 
L 364.051841 191.628424 
L 364.647465 192.012141 
L 365.243088 196.488847 
L 365.838712 192.651671 
L 366.434336 190.733082 
L 367.625583 195.721412 
L 368.221206 194.826071 
L 368.81683 194.314447 
L 369.412453 194.698165 
L 370.008077 193.547012 
L 370.6037 193.674918 
L 371.199324 189.581929 
L 371.794948 193.035388 
L 372.390571 197.64 
L 372.986195 193.802824 
L 373.581818 193.930729 
L 373.581818 193.930729 
" clip-path="url(#p7273b2312d)" style="fill: none; stroke: #2ca02c; stroke-width: 1.5; stroke-linecap: square"/>
   </g>
   <g id="patch_3">
    <path d="M 54 252 
L 54 34.56 
" style="fill: none; stroke: #000000; stroke-width: 0.8; stroke-linejoin: miter; stroke-linecap: square"/>
   </g>
   <g id="patch_4">
    <path d="M 388.8 252 
L 388.8 34.56 
" style="fill: none; stroke: #000000; stroke-width: 0.8; stroke-linejoin: miter; stroke-linecap: square"/>
   </g>
   <g id="patch_5">
    <path d="M 54 252 
L 388.8 252 
" style="fill: none; stroke: #000000; stroke-width: 0.8; stroke-linejoin: miter; stroke-linecap: square"/>
   </g>
   <g id="patch_6">
    <path d="M 54 34.56 
L 388.8 34.56 
" style="fill: none; stroke: #000000; stroke-width: 0.8; stroke-linejoin: miter; stroke-linecap: square"/>
   </g>
   <g id="text_18">
    <!-- Label 12 -->
    <g transform="translate(195.670312 28.56)scale(0.12 -0.12)">
     <defs>
      <path id="DejaVuSans-4c" d="M 628 4666 
L 1259 4666 
L 1259 531 
L 3531 531 
L 3531 0 
L 628 0 
L 628 4666 
z
" transform="scale(0.015625)"/>
      <path id="DejaVuSans-61" d="M 2194 1759 
Q 1497 1759 1228 1600 
Q 959 1441 959 1056 
Q 959 750 1161 570 
Q 1363 391 1709 391 
Q 2188 391 2477 730 
Q 2766 1069 2766 1631 
L 2766 1759 
L 2194 1759 
z
M 3341 1997 
L 3341 0 
L 2766 0 
L 2766 531 
Q 2569 213 2275 61 
Q 1981 -91 1556 -91 
Q 1019 -91 701 211 
Q 384 513 384 1019 
Q 384 1609 779 1909 
Q 1175 2209 1959 2209 
L 2766 2209 
L 2766 2266 
Q 2766 2663 2505 2880 
Q 2244 3097 1772 3097 
Q 1472 3097 1187 3025 
Q 903 2953 641 2809 
L 641 3341 
Q 956 3463 1253 3523 
Q 1550 3584 1831 3584 
Q 2591 3584 2966 3190 
Q 3341 2797 3341 1997 
z
" transform="scale(0.015625)"/>
      <path id="DejaVuSans-65" d="M 3597 1894 
L 3597 1613 
L 953 1613 
Q 991 1019 1311 708 
Q 1631 397 2203 397 
Q 2534 397 2845 478 
Q 3156 559 3463 722 
L 3463 178 
Q 3153 47 2828 -22 
Q 2503 -91 2169 -91 
Q 1331 -91 842 396 
Q 353 884 353 1716 
Q 353 2575 817 3079 
Q 1281 3584 2069 3584 
Q 2775 3584 3186 3129 
Q 3597 2675 3597 1894 
z
M 3022 2063 
Q 3016 2534 2758 2815 
Q 2500 3097 2075 3097 
Q 1594 3097 1305 2825 
Q 1016 2553 972 2059 
L 3022 2063 
z
" transform="scale(0.015625)"/>
      <path id="DejaVuSans-6c" d="M 603 4863 
L 1178 4863 
L 1178 0 
L 603 0 
L 603 4863 
z
" transform="scale(0.015625)"/>
      <path id="DejaVuSans-20" transform="scale(0.015625)"/>
     </defs>
     <use xlink:href="#DejaVuSans-4c"/>
     <use xlink:href="#DejaVuSans-61" x="55.712891"/>
     <use xlink:href="#DejaVuSans-62" x="116.992188"/>
     <use xlink:href="#DejaVuSans-65" x="180.46875"/>
     <use xlink:href="#DejaVuSans-6c" x="241.992188"/>
     <use xlink:href="#DejaVuSans-20" x="269.775391"/>
     <use xlink:href="#DejaVuSans-31" x="301.5625"/>
     <use xlink:href="#DejaVuSans-32" x="365.185547"/>
    </g>
   </g>
   <g id="legend_1">
    <g id="patch_7">
     <path d="M 309.070312 101.2725 
L 381.8 101.2725 
Q 383.8 101.2725 383.8 99.2725 
L 383.8 41.56 
Q 383.8 39.56 381.8 39.56 
L 309.070312 39.56 
Q 307.070312 39.56 307.070312 41.56 
L 307.070312 99.2725 
Q 307.070312 101.2725 309.070312 101.2725 
z
" style="fill: #ffffff; opacity: 0.8; stroke: #cccccc; stroke-linejoin: miter"/>
    </g>
    <g id="text_19">
     <!-- Trace number -->
     <g transform="translate(311.070312 51.158437)scale(0.1 -0.1)">
      <defs>
       <path id="DejaVuSans-54" d="M -19 4666 
L 3928 4666 
L 3928 4134 
L 2272 4134 
L 2272 0 
L 1638 0 
L 1638 4134 
L -19 4134 
L -19 4666 
z
" transform="scale(0.015625)"/>
       <path id="DejaVuSans-72" d="M 2631 2963 
Q 2534 3019 2420 3045 
Q 2306 3072 2169 3072 
Q 1681 3072 1420 2755 
Q 1159 2438 1159 1844 
L 1159 0 
L 581 0 
L 581 3500 
L 1159 3500 
L 1159 2956 
Q 1341 3275 1631 3429 
Q 1922 3584 2338 3584 
Q 2397 3584 2469 3576 
Q 2541 3569 2628 3553 
L 2631 2963 
z
" transform="scale(0.015625)"/>
       <path id="DejaVuSans-6d" d="M 3328 2828 
Q 3544 3216 3844 3400 
Q 4144 3584 4550 3584 
Q 5097 3584 5394 3201 
Q 5691 2819 5691 2113 
L 5691 0 
L 5113 0 
L 5113 2094 
Q 5113 2597 4934 2840 
Q 4756 3084 4391 3084 
Q 3944 3084 3684 2787 
Q 3425 2491 3425 1978 
L 3425 0 
L 2847 0 
L 2847 2094 
Q 2847 2600 2669 2842 
Q 2491 3084 2119 3084 
Q 1678 3084 1418 2786 
Q 1159 2488 1159 1978 
L 1159 0 
L 581 0 
L 581 3500 
L 1159 3500 
L 1159 2956 
Q 1356 3278 1631 3431 
Q 1906 3584 2284 3584 
Q 2666 3584 2933 3390 
Q 3200 3197 3328 2828 
z
" transform="scale(0.015625)"/>
      </defs>
      <use xlink:href="#DejaVuSans-54"/>
      <use xlink:href="#DejaVuSans-72" x="46.333984"/>
      <use xlink:href="#DejaVuSans-61" x="87.447266"/>
      <use xlink:href="#DejaVuSans-63" x="148.726562"/>
      <use xlink:href="#DejaVuSans-65" x="203.707031"/>
      <use xlink:href="#DejaVuSans-20" x="265.230469"/>
      <use xlink:href="#DejaVuSans-6e" x="297.017578"/>
      <use xlink:href="#DejaVuSans-75" x="360.396484"/>
      <use xlink:href="#DejaVuSans-6d" x="423.775391"/>
      <use xlink:href="#DejaVuSans-62" x="521.1875"/>
      <use xlink:href="#DejaVuSans-65" x="584.664062"/>
      <use xlink:href="#DejaVuSans-72" x="646.1875"/>
     </g>
    </g>
    <g id="line2d_34">
     <path d="M 325.072656 62.336562 
L 335.072656 62.336562 
L 345.072656 62.336562 
" style="fill: none; stroke: #1f77b4; stroke-width: 1.5; stroke-linecap: square"/>
    </g>
    <g id="text_20">
     <!-- 10 -->
     <g transform="translate(353.072656 65.836562)scale(0.1 -0.1)">
      <use xlink:href="#DejaVuSans-31"/>
      <use xlink:href="#DejaVuSans-30" x="63.623047"/>
     </g>
    </g>
    <g id="line2d_35">
     <path d="M 325.072656 77.014687 
L 335.072656 77.014687 
L 345.072656 77.014687 
" style="fill: none; stroke: #ff7f0e; stroke-width: 1.5; stroke-linecap: square"/>
    </g>
    <g id="text_21">
     <!-- 23 -->
     <g transform="translate(353.072656 80.514687)scale(0.1 -0.1)">
      <use xlink:href="#DejaVuSans-32"/>
      <use xlink:href="#DejaVuSans-33" x="63.623047"/>
     </g>
    </g>
    <g id="line2d_36">
     <path d="M 325.072656 91.692813 
L 335.072656 91.692813 
L 345.072656 91.692813 
" style="fill: none; stroke: #2ca02c; stroke-width: 1.5; stroke-linecap: square"/>
    </g>
    <g id="text_22">
     <!-- 35 -->
     <g transform="translate(353.072656 95.192813)scale(0.1 -0.1)">
      <use xlink:href="#DejaVuSans-33"/>
      <use xlink:href="#DejaVuSans-35" x="63.623047"/>
     </g>
    </g>
   </g>
  </g>
 </g>
 <defs>
  <clipPath id="p7273b2312d">
   <rect x="54" y="34.56" width="334.8" height="217.44"/>
  </clipPath>
 </defs>
</svg>
