<?xml version="1.0" encoding="utf-8" standalone="no"?>
<!DOCTYPE svg PUBLIC "-//W3C//DTD SVG 1.1//EN"
  "http://www.w3.org/Graphics/SVG/1.1/DTD/svg11.dtd">
<svg xmlns:xlink="http://www.w3.org/1999/xlink" width="432pt" height="288pt" viewBox="0 0 432 288" xmlns="http://www.w3.org/2000/svg" version="1.1">
 <metadata>
  <rdf:RDF xmlns:dc="http://purl.org/dc/elements/1.1/" xmlns:cc="http://creativecommons.org/ns#" xmlns:rdf="http://www.w3.org/1999/02/22-rdf-syntax-ns#">
   <cc:Work>
    <dc:type rdf:resource="http://purl.org/dc/dcmitype/StillImage"/>
    <dc:date>2022-03-30T13:12:47.224975</dc:date>
    <dc:format>image/svg+xml</dc:format>
    <dc:creator>
     <cc:Agent>
      <dc:title>Matplotlib v3.5.1, https://matplotlib.org/</dc:title>
     </cc:Agent>
    </dc:creator>
   </cc:Work>
  </rdf:RDF>
 </metadata>
 <defs>
  <style type="text/css">*{stroke-linejoin: round; stroke-linecap: butt}</style>
 </defs>
 <g id="figure_1">
  <g id="patch_1">
   <path d="M 0 288 
L 432 288 
L 432 0 
L 0 0 
z
" style="fill: #ffffff"/>
  </g>
  <g id="axes_1">
   <g id="patch_2">
    <path d="M 54 252 
L 388.8 252 
L 388.8 34.56 
L 54 34.56 
z
" style="fill: #ffffff"/>
   </g>
   <g id="matplotlib.axis_1">
    <g id="xtick_1">
     <g id="line2d_1">
      <path d="M 69.218182 252 
L 69.218182 34.56 
" clip-path="url(#p1dd4ed7aa1)" style="fill: none; stroke: #b0b0b0; stroke-width: 0.8; stroke-linecap: square"/>
     </g>
     <g id="line2d_2">
      <defs>
       <path id="mf13b202ffa" d="M 0 0 
L 0 3.5 
" style="stroke: #000000; stroke-width: 0.8"/>
      </defs>
      <g>
       <use xlink:href="#mf13b202ffa" x="69.218182" y="252" style="stroke: #000000; stroke-width: 0.8"/>
      </g>
     </g>
     <g id="text_1">
      <!-- 0 -->
      <g transform="translate(66.036932 266.598437)scale(0.1 -0.1)">
       <defs>
        <path id="DejaVuSans-30" d="M 2034 4250 
Q 1547 4250 1301 3770 
Q 1056 3291 1056 2328 
Q 1056 1369 1301 889 
Q 1547 409 2034 409 
Q 2525 409 2770 889 
Q 3016 1369 3016 2328 
Q 3016 3291 2770 3770 
Q 2525 4250 2034 4250 
z
M 2034 4750 
Q 2819 4750 3233 4129 
Q 3647 3509 3647 2328 
Q 3647 1150 3233 529 
Q 2819 -91 2034 -91 
Q 1250 -91 836 529 
Q 422 1150 422 2328 
Q 422 3509 836 4129 
Q 1250 4750 2034 4750 
z
" transform="scale(0.015625)"/>
       </defs>
       <use xlink:href="#DejaVuSans-30"/>
      </g>
     </g>
    </g>
    <g id="xtick_2">
     <g id="line2d_3">
      <path d="M 128.780537 252 
L 128.780537 34.56 
" clip-path="url(#p1dd4ed7aa1)" style="fill: none; stroke: #b0b0b0; stroke-width: 0.8; stroke-linecap: square"/>
     </g>
     <g id="line2d_4">
      <g>
       <use xlink:href="#mf13b202ffa" x="128.780537" y="252" style="stroke: #000000; stroke-width: 0.8"/>
      </g>
     </g>
     <g id="text_2">
      <!-- 100 -->
      <g transform="translate(119.236787 266.598437)scale(0.1 -0.1)">
       <defs>
        <path id="DejaVuSans-31" d="M 794 531 
L 1825 531 
L 1825 4091 
L 703 3866 
L 703 4441 
L 1819 4666 
L 2450 4666 
L 2450 531 
L 3481 531 
L 3481 0 
L 794 0 
L 794 531 
z
" transform="scale(0.015625)"/>
       </defs>
       <use xlink:href="#DejaVuSans-31"/>
       <use xlink:href="#DejaVuSans-30" x="63.623047"/>
       <use xlink:href="#DejaVuSans-30" x="127.246094"/>
      </g>
     </g>
    </g>
    <g id="xtick_3">
     <g id="line2d_5">
      <path d="M 188.342893 252 
L 188.342893 34.56 
" clip-path="url(#p1dd4ed7aa1)" style="fill: none; stroke: #b0b0b0; stroke-width: 0.8; stroke-linecap: square"/>
     </g>
     <g id="line2d_6">
      <g>
       <use xlink:href="#mf13b202ffa" x="188.342893" y="252" style="stroke: #000000; stroke-width: 0.8"/>
      </g>
     </g>
     <g id="text_3">
      <!-- 200 -->
      <g transform="translate(178.799143 266.598437)scale(0.1 -0.1)">
       <defs>
        <path id="DejaVuSans-32" d="M 1228 531 
L 3431 531 
L 3431 0 
L 469 0 
L 469 531 
Q 828 903 1448 1529 
Q 2069 2156 2228 2338 
Q 2531 2678 2651 2914 
Q 2772 3150 2772 3378 
Q 2772 3750 2511 3984 
Q 2250 4219 1831 4219 
Q 1534 4219 1204 4116 
Q 875 4013 500 3803 
L 500 4441 
Q 881 4594 1212 4672 
Q 1544 4750 1819 4750 
Q 2544 4750 2975 4387 
Q 3406 4025 3406 3419 
Q 3406 3131 3298 2873 
Q 3191 2616 2906 2266 
Q 2828 2175 2409 1742 
Q 1991 1309 1228 531 
z
" transform="scale(0.015625)"/>
       </defs>
       <use xlink:href="#DejaVuSans-32"/>
       <use xlink:href="#DejaVuSans-30" x="63.623047"/>
       <use xlink:href="#DejaVuSans-30" x="127.246094"/>
      </g>
     </g>
    </g>
    <g id="xtick_4">
     <g id="line2d_7">
      <path d="M 247.905248 252 
L 247.905248 34.56 
" clip-path="url(#p1dd4ed7aa1)" style="fill: none; stroke: #b0b0b0; stroke-width: 0.8; stroke-linecap: square"/>
     </g>
     <g id="line2d_8">
      <g>
       <use xlink:href="#mf13b202ffa" x="247.905248" y="252" style="stroke: #000000; stroke-width: 0.8"/>
      </g>
     </g>
     <g id="text_4">
      <!-- 300 -->
      <g transform="translate(238.361498 266.598437)scale(0.1 -0.1)">
       <defs>
        <path id="DejaVuSans-33" d="M 2597 2516 
Q 3050 2419 3304 2112 
Q 3559 1806 3559 1356 
Q 3559 666 3084 287 
Q 2609 -91 1734 -91 
Q 1441 -91 1130 -33 
Q 819 25 488 141 
L 488 750 
Q 750 597 1062 519 
Q 1375 441 1716 441 
Q 2309 441 2620 675 
Q 2931 909 2931 1356 
Q 2931 1769 2642 2001 
Q 2353 2234 1838 2234 
L 1294 2234 
L 1294 2753 
L 1863 2753 
Q 2328 2753 2575 2939 
Q 2822 3125 2822 3475 
Q 2822 3834 2567 4026 
Q 2313 4219 1838 4219 
Q 1578 4219 1281 4162 
Q 984 4106 628 3988 
L 628 4550 
Q 988 4650 1302 4700 
Q 1616 4750 1894 4750 
Q 2613 4750 3031 4423 
Q 3450 4097 3450 3541 
Q 3450 3153 3228 2886 
Q 3006 2619 2597 2516 
z
" transform="scale(0.015625)"/>
       </defs>
       <use xlink:href="#DejaVuSans-33"/>
       <use xlink:href="#DejaVuSans-30" x="63.623047"/>
       <use xlink:href="#DejaVuSans-30" x="127.246094"/>
      </g>
     </g>
    </g>
    <g id="xtick_5">
     <g id="line2d_9">
      <path d="M 307.467604 252 
L 307.467604 34.56 
" clip-path="url(#p1dd4ed7aa1)" style="fill: none; stroke: #b0b0b0; stroke-width: 0.8; stroke-linecap: square"/>
     </g>
     <g id="line2d_10">
      <g>
       <use xlink:href="#mf13b202ffa" x="307.467604" y="252" style="stroke: #000000; stroke-width: 0.8"/>
      </g>
     </g>
     <g id="text_5">
      <!-- 400 -->
      <g transform="translate(297.923854 266.598437)scale(0.1 -0.1)">
       <defs>
        <path id="DejaVuSans-34" d="M 2419 4116 
L 825 1625 
L 2419 1625 
L 2419 4116 
z
M 2253 4666 
L 3047 4666 
L 3047 1625 
L 3713 1625 
L 3713 1100 
L 3047 1100 
L 3047 0 
L 2419 0 
L 2419 1100 
L 313 1100 
L 313 1709 
L 2253 4666 
z
" transform="scale(0.015625)"/>
       </defs>
       <use xlink:href="#DejaVuSans-34"/>
       <use xlink:href="#DejaVuSans-30" x="63.623047"/>
       <use xlink:href="#DejaVuSans-30" x="127.246094"/>
      </g>
     </g>
    </g>
    <g id="xtick_6">
     <g id="line2d_11">
      <path d="M 367.029959 252 
L 367.029959 34.56 
" clip-path="url(#p1dd4ed7aa1)" style="fill: none; stroke: #b0b0b0; stroke-width: 0.8; stroke-linecap: square"/>
     </g>
     <g id="line2d_12">
      <g>
       <use xlink:href="#mf13b202ffa" x="367.029959" y="252" style="stroke: #000000; stroke-width: 0.8"/>
      </g>
     </g>
     <g id="text_6">
      <!-- 500 -->
      <g transform="translate(357.486209 266.598437)scale(0.1 -0.1)">
       <defs>
        <path id="DejaVuSans-35" d="M 691 4666 
L 3169 4666 
L 3169 4134 
L 1269 4134 
L 1269 2991 
Q 1406 3038 1543 3061 
Q 1681 3084 1819 3084 
Q 2600 3084 3056 2656 
Q 3513 2228 3513 1497 
Q 3513 744 3044 326 
Q 2575 -91 1722 -91 
Q 1428 -91 1123 -41 
Q 819 9 494 109 
L 494 744 
Q 775 591 1075 516 
Q 1375 441 1709 441 
Q 2250 441 2565 725 
Q 2881 1009 2881 1497 
Q 2881 1984 2565 2268 
Q 2250 2553 1709 2553 
Q 1456 2553 1204 2497 
Q 953 2441 691 2322 
L 691 4666 
z
" transform="scale(0.015625)"/>
       </defs>
       <use xlink:href="#DejaVuSans-35"/>
       <use xlink:href="#DejaVuSans-30" x="63.623047"/>
       <use xlink:href="#DejaVuSans-30" x="127.246094"/>
      </g>
     </g>
    </g>
    <g id="text_7">
     <!-- bin -->
     <g transform="translate(213.667969 280.276563)scale(0.1 -0.1)">
      <defs>
       <path id="DejaVuSans-62" d="M 3116 1747 
Q 3116 2381 2855 2742 
Q 2594 3103 2138 3103 
Q 1681 3103 1420 2742 
Q 1159 2381 1159 1747 
Q 1159 1113 1420 752 
Q 1681 391 2138 391 
Q 2594 391 2855 752 
Q 3116 1113 3116 1747 
z
M 1159 2969 
Q 1341 3281 1617 3432 
Q 1894 3584 2278 3584 
Q 2916 3584 3314 3078 
Q 3713 2572 3713 1747 
Q 3713 922 3314 415 
Q 2916 -91 2278 -91 
Q 1894 -91 1617 61 
Q 1341 213 1159 525 
L 1159 0 
L 581 0 
L 581 4863 
L 1159 4863 
L 1159 2969 
z
" transform="scale(0.015625)"/>
       <path id="DejaVuSans-69" d="M 603 3500 
L 1178 3500 
L 1178 0 
L 603 0 
L 603 3500 
z
M 603 4863 
L 1178 4863 
L 1178 4134 
L 603 4134 
L 603 4863 
z
" transform="scale(0.015625)"/>
       <path id="DejaVuSans-6e" d="M 3513 2113 
L 3513 0 
L 2938 0 
L 2938 2094 
Q 2938 2591 2744 2837 
Q 2550 3084 2163 3084 
Q 1697 3084 1428 2787 
Q 1159 2491 1159 1978 
L 1159 0 
L 581 0 
L 581 3500 
L 1159 3500 
L 1159 2956 
Q 1366 3272 1645 3428 
Q 1925 3584 2291 3584 
Q 2894 3584 3203 3211 
Q 3513 2838 3513 2113 
z
" transform="scale(0.015625)"/>
      </defs>
      <use xlink:href="#DejaVuSans-62"/>
      <use xlink:href="#DejaVuSans-69" x="63.476562"/>
      <use xlink:href="#DejaVuSans-6e" x="91.259766"/>
     </g>
    </g>
   </g>
   <g id="matplotlib.axis_2">
    <g id="ytick_1">
     <g id="line2d_13">
      <path d="M 54 252 
L 388.8 252 
" clip-path="url(#p1dd4ed7aa1)" style="fill: none; stroke: #b0b0b0; stroke-width: 0.8; stroke-linecap: square"/>
     </g>
     <g id="line2d_14">
      <defs>
       <path id="m088002fe1e" d="M 0 0 
L -3.5 0 
" style="stroke: #000000; stroke-width: 0.8"/>
      </defs>
      <g>
       <use xlink:href="#m088002fe1e" x="54" y="252" style="stroke: #000000; stroke-width: 0.8"/>
      </g>
     </g>
     <g id="text_8">
      <!-- 0 -->
      <g transform="translate(40.6375 255.799219)scale(0.1 -0.1)">
       <use xlink:href="#DejaVuSans-30"/>
      </g>
     </g>
    </g>
    <g id="ytick_2">
     <g id="line2d_15">
      <path d="M 54 226.418824 
L 388.8 226.418824 
" clip-path="url(#p1dd4ed7aa1)" style="fill: none; stroke: #b0b0b0; stroke-width: 0.8; stroke-linecap: square"/>
     </g>
     <g id="line2d_16">
      <g>
       <use xlink:href="#m088002fe1e" x="54" y="226.418824" style="stroke: #000000; stroke-width: 0.8"/>
      </g>
     </g>
     <g id="text_9">
      <!-- 200 -->
      <g transform="translate(27.9125 230.218042)scale(0.1 -0.1)">
       <use xlink:href="#DejaVuSans-32"/>
       <use xlink:href="#DejaVuSans-30" x="63.623047"/>
       <use xlink:href="#DejaVuSans-30" x="127.246094"/>
      </g>
     </g>
    </g>
    <g id="ytick_3">
     <g id="line2d_17">
      <path d="M 54 200.837647 
L 388.8 200.837647 
" clip-path="url(#p1dd4ed7aa1)" style="fill: none; stroke: #b0b0b0; stroke-width: 0.8; stroke-linecap: square"/>
     </g>
     <g id="line2d_18">
      <g>
       <use xlink:href="#m088002fe1e" x="54" y="200.837647" style="stroke: #000000; stroke-width: 0.8"/>
      </g>
     </g>
     <g id="text_10">
      <!-- 400 -->
      <g transform="translate(27.9125 204.636866)scale(0.1 -0.1)">
       <use xlink:href="#DejaVuSans-34"/>
       <use xlink:href="#DejaVuSans-30" x="63.623047"/>
       <use xlink:href="#DejaVuSans-30" x="127.246094"/>
      </g>
     </g>
    </g>
    <g id="ytick_4">
     <g id="line2d_19">
      <path d="M 54 175.256471 
L 388.8 175.256471 
" clip-path="url(#p1dd4ed7aa1)" style="fill: none; stroke: #b0b0b0; stroke-width: 0.8; stroke-linecap: square"/>
     </g>
     <g id="line2d_20">
      <g>
       <use xlink:href="#m088002fe1e" x="54" y="175.256471" style="stroke: #000000; stroke-width: 0.8"/>
      </g>
     </g>
     <g id="text_11">
      <!-- 600 -->
      <g transform="translate(27.9125 179.055689)scale(0.1 -0.1)">
       <defs>
        <path id="DejaVuSans-36" d="M 2113 2584 
Q 1688 2584 1439 2293 
Q 1191 2003 1191 1497 
Q 1191 994 1439 701 
Q 1688 409 2113 409 
Q 2538 409 2786 701 
Q 3034 994 3034 1497 
Q 3034 2003 2786 2293 
Q 2538 2584 2113 2584 
z
M 3366 4563 
L 3366 3988 
Q 3128 4100 2886 4159 
Q 2644 4219 2406 4219 
Q 1781 4219 1451 3797 
Q 1122 3375 1075 2522 
Q 1259 2794 1537 2939 
Q 1816 3084 2150 3084 
Q 2853 3084 3261 2657 
Q 3669 2231 3669 1497 
Q 3669 778 3244 343 
Q 2819 -91 2113 -91 
Q 1303 -91 875 529 
Q 447 1150 447 2328 
Q 447 3434 972 4092 
Q 1497 4750 2381 4750 
Q 2619 4750 2861 4703 
Q 3103 4656 3366 4563 
z
" transform="scale(0.015625)"/>
       </defs>
       <use xlink:href="#DejaVuSans-36"/>
       <use xlink:href="#DejaVuSans-30" x="63.623047"/>
       <use xlink:href="#DejaVuSans-30" x="127.246094"/>
      </g>
     </g>
    </g>
    <g id="ytick_5">
     <g id="line2d_21">
      <path d="M 54 149.675294 
L 388.8 149.675294 
" clip-path="url(#p1dd4ed7aa1)" style="fill: none; stroke: #b0b0b0; stroke-width: 0.8; stroke-linecap: square"/>
     </g>
     <g id="line2d_22">
      <g>
       <use xlink:href="#m088002fe1e" x="54" y="149.675294" style="stroke: #000000; stroke-width: 0.8"/>
      </g>
     </g>
     <g id="text_12">
      <!-- 800 -->
      <g transform="translate(27.9125 153.474513)scale(0.1 -0.1)">
       <defs>
        <path id="DejaVuSans-38" d="M 2034 2216 
Q 1584 2216 1326 1975 
Q 1069 1734 1069 1313 
Q 1069 891 1326 650 
Q 1584 409 2034 409 
Q 2484 409 2743 651 
Q 3003 894 3003 1313 
Q 3003 1734 2745 1975 
Q 2488 2216 2034 2216 
z
M 1403 2484 
Q 997 2584 770 2862 
Q 544 3141 544 3541 
Q 544 4100 942 4425 
Q 1341 4750 2034 4750 
Q 2731 4750 3128 4425 
Q 3525 4100 3525 3541 
Q 3525 3141 3298 2862 
Q 3072 2584 2669 2484 
Q 3125 2378 3379 2068 
Q 3634 1759 3634 1313 
Q 3634 634 3220 271 
Q 2806 -91 2034 -91 
Q 1263 -91 848 271 
Q 434 634 434 1313 
Q 434 1759 690 2068 
Q 947 2378 1403 2484 
z
M 1172 3481 
Q 1172 3119 1398 2916 
Q 1625 2713 2034 2713 
Q 2441 2713 2670 2916 
Q 2900 3119 2900 3481 
Q 2900 3844 2670 4047 
Q 2441 4250 2034 4250 
Q 1625 4250 1398 4047 
Q 1172 3844 1172 3481 
z
" transform="scale(0.015625)"/>
       </defs>
       <use xlink:href="#DejaVuSans-38"/>
       <use xlink:href="#DejaVuSans-30" x="63.623047"/>
       <use xlink:href="#DejaVuSans-30" x="127.246094"/>
      </g>
     </g>
    </g>
    <g id="ytick_6">
     <g id="line2d_23">
      <path d="M 54 124.094118 
L 388.8 124.094118 
" clip-path="url(#p1dd4ed7aa1)" style="fill: none; stroke: #b0b0b0; stroke-width: 0.8; stroke-linecap: square"/>
     </g>
     <g id="line2d_24">
      <g>
       <use xlink:href="#m088002fe1e" x="54" y="124.094118" style="stroke: #000000; stroke-width: 0.8"/>
      </g>
     </g>
     <g id="text_13">
      <!-- 1000 -->
      <g transform="translate(21.55 127.893336)scale(0.1 -0.1)">
       <use xlink:href="#DejaVuSans-31"/>
       <use xlink:href="#DejaVuSans-30" x="63.623047"/>
       <use xlink:href="#DejaVuSans-30" x="127.246094"/>
       <use xlink:href="#DejaVuSans-30" x="190.869141"/>
      </g>
     </g>
    </g>
    <g id="ytick_7">
     <g id="line2d_25">
      <path d="M 54 98.512941 
L 388.8 98.512941 
" clip-path="url(#p1dd4ed7aa1)" style="fill: none; stroke: #b0b0b0; stroke-width: 0.8; stroke-linecap: square"/>
     </g>
     <g id="line2d_26">
      <g>
       <use xlink:href="#m088002fe1e" x="54" y="98.512941" style="stroke: #000000; stroke-width: 0.8"/>
      </g>
     </g>
     <g id="text_14">
      <!-- 1200 -->
      <g transform="translate(21.55 102.31216)scale(0.1 -0.1)">
       <use xlink:href="#DejaVuSans-31"/>
       <use xlink:href="#DejaVuSans-32" x="63.623047"/>
       <use xlink:href="#DejaVuSans-30" x="127.246094"/>
       <use xlink:href="#DejaVuSans-30" x="190.869141"/>
      </g>
     </g>
    </g>
    <g id="ytick_8">
     <g id="line2d_27">
      <path d="M 54 72.931765 
L 388.8 72.931765 
" clip-path="url(#p1dd4ed7aa1)" style="fill: none; stroke: #b0b0b0; stroke-width: 0.8; stroke-linecap: square"/>
     </g>
     <g id="line2d_28">
      <g>
       <use xlink:href="#m088002fe1e" x="54" y="72.931765" style="stroke: #000000; stroke-width: 0.8"/>
      </g>
     </g>
     <g id="text_15">
      <!-- 1400 -->
      <g transform="translate(21.55 76.730983)scale(0.1 -0.1)">
       <use xlink:href="#DejaVuSans-31"/>
       <use xlink:href="#DejaVuSans-34" x="63.623047"/>
       <use xlink:href="#DejaVuSans-30" x="127.246094"/>
       <use xlink:href="#DejaVuSans-30" x="190.869141"/>
      </g>
     </g>
    </g>
    <g id="ytick_9">
     <g id="line2d_29">
      <path d="M 54 47.350588 
L 388.8 47.350588 
" clip-path="url(#p1dd4ed7aa1)" style="fill: none; stroke: #b0b0b0; stroke-width: 0.8; stroke-linecap: square"/>
     </g>
     <g id="line2d_30">
      <g>
       <use xlink:href="#m088002fe1e" x="54" y="47.350588" style="stroke: #000000; stroke-width: 0.8"/>
      </g>
     </g>
     <g id="text_16">
      <!-- 1600 -->
      <g transform="translate(21.55 51.149807)scale(0.1 -0.1)">
       <use xlink:href="#DejaVuSans-31"/>
       <use xlink:href="#DejaVuSans-36" x="63.623047"/>
       <use xlink:href="#DejaVuSans-30" x="127.246094"/>
       <use xlink:href="#DejaVuSans-30" x="190.869141"/>
      </g>
     </g>
    </g>
    <g id="text_17">
     <!-- count -->
     <g transform="translate(15.470312 157.38625)rotate(-90)scale(0.1 -0.1)">
      <defs>
       <path id="DejaVuSans-63" d="M 3122 3366 
L 3122 2828 
Q 2878 2963 2633 3030 
Q 2388 3097 2138 3097 
Q 1578 3097 1268 2742 
Q 959 2388 959 1747 
Q 959 1106 1268 751 
Q 1578 397 2138 397 
Q 2388 397 2633 464 
Q 2878 531 3122 666 
L 3122 134 
Q 2881 22 2623 -34 
Q 2366 -91 2075 -91 
Q 1284 -91 818 406 
Q 353 903 353 1747 
Q 353 2603 823 3093 
Q 1294 3584 2113 3584 
Q 2378 3584 2631 3529 
Q 2884 3475 3122 3366 
z
" transform="scale(0.015625)"/>
       <path id="DejaVuSans-6f" d="M 1959 3097 
Q 1497 3097 1228 2736 
Q 959 2375 959 1747 
Q 959 1119 1226 758 
Q 1494 397 1959 397 
Q 2419 397 2687 759 
Q 2956 1122 2956 1747 
Q 2956 2369 2687 2733 
Q 2419 3097 1959 3097 
z
M 1959 3584 
Q 2709 3584 3137 3096 
Q 3566 2609 3566 1747 
Q 3566 888 3137 398 
Q 2709 -91 1959 -91 
Q 1206 -91 779 398 
Q 353 888 353 1747 
Q 353 2609 779 3096 
Q 1206 3584 1959 3584 
z
" transform="scale(0.015625)"/>
       <path id="DejaVuSans-75" d="M 544 1381 
L 544 3500 
L 1119 3500 
L 1119 1403 
Q 1119 906 1312 657 
Q 1506 409 1894 409 
Q 2359 409 2629 706 
Q 2900 1003 2900 1516 
L 2900 3500 
L 3475 3500 
L 3475 0 
L 2900 0 
L 2900 538 
Q 2691 219 2414 64 
Q 2138 -91 1772 -91 
Q 1169 -91 856 284 
Q 544 659 544 1381 
z
M 1991 3584 
L 1991 3584 
z
" transform="scale(0.015625)"/>
       <path id="DejaVuSans-74" d="M 1172 4494 
L 1172 3500 
L 2356 3500 
L 2356 3053 
L 1172 3053 
L 1172 1153 
Q 1172 725 1289 603 
Q 1406 481 1766 481 
L 2356 481 
L 2356 0 
L 1766 0 
Q 1100 0 847 248 
Q 594 497 594 1153 
L 594 3053 
L 172 3053 
L 172 3500 
L 594 3500 
L 594 4494 
L 1172 4494 
z
" transform="scale(0.015625)"/>
      </defs>
      <use xlink:href="#DejaVuSans-63"/>
      <use xlink:href="#DejaVuSans-6f" x="54.980469"/>
      <use xlink:href="#DejaVuSans-75" x="116.162109"/>
      <use xlink:href="#DejaVuSans-6e" x="179.541016"/>
      <use xlink:href="#DejaVuSans-74" x="242.919922"/>
     </g>
    </g>
   </g>
   <g id="line2d_31">
    <path d="M 69.218182 244.197741 
L 69.813805 245.860518 
L 70.409429 245.4768 
L 71.005052 246.627953 
L 71.600676 245.604706 
L 72.1963 245.860518 
L 73.387547 244.069835 
L 73.98317 246.244235 
L 74.578794 243.174494 
L 75.174417 245.732612 
L 76.365664 244.197741 
L 76.961288 245.604706 
L 77.556912 244.453553 
L 78.152535 245.220988 
L 78.748159 244.965176 
L 79.343782 245.093082 
L 79.939406 244.965176 
L 81.130653 245.732612 
L 81.726276 245.093082 
L 82.3219 244.197741 
L 82.917524 245.860518 
L 83.513147 246.116329 
L 84.108771 244.453553 
L 84.704394 245.220988 
L 85.300018 245.4768 
L 85.895641 244.965176 
L 86.491265 242.918682 
L 87.086888 246.627953 
L 87.682512 246.244235 
L 88.278136 244.709365 
L 88.873759 246.116329 
L 89.469383 246.755859 
L 90.065006 245.348894 
L 90.66063 244.965176 
L 91.256253 245.093082 
L 91.851877 245.860518 
L 92.4475 245.604706 
L 93.043124 244.837271 
L 93.638748 245.220988 
L 94.234371 245.348894 
L 94.829995 246.883765 
L 96.021242 245.988424 
L 96.616865 244.325647 
L 97.212489 245.348894 
L 97.808112 244.069835 
L 98.403736 245.604706 
L 98.99936 243.814024 
L 99.594983 245.220988 
L 100.190607 243.686118 
L 100.78623 246.116329 
L 101.381854 244.709365 
L 101.977477 246.116329 
L 102.573101 246.500047 
L 103.168724 245.093082 
L 103.764348 244.325647 
L 104.359972 243.941929 
L 104.955595 246.627953 
L 105.551219 245.093082 
L 106.146842 245.348894 
L 106.742466 245.093082 
L 107.338089 245.4768 
L 107.933713 244.837271 
L 108.529336 244.453553 
L 109.12496 244.325647 
L 109.720584 244.581459 
L 110.316207 243.941929 
L 110.911831 245.4768 
L 111.507454 244.325647 
L 112.103078 242.790776 
L 112.698701 245.604706 
L 113.294325 245.604706 
L 113.889948 245.732612 
L 114.485572 244.837271 
L 115.081196 244.581459 
L 115.676819 245.348894 
L 116.272443 245.220988 
L 116.868066 244.069835 
L 117.46369 243.814024 
L 118.059313 246.755859 
L 119.25056 246.244235 
L 119.846184 246.755859 
L 120.441808 246.755859 
L 121.037431 244.453553 
L 121.633055 245.220988 
L 122.228678 245.220988 
L 122.824302 245.4768 
L 123.419925 244.581459 
L 124.015549 245.4768 
L 124.611172 243.046588 
L 125.206796 247.139576 
L 125.802419 245.220988 
L 126.398043 245.604706 
L 126.993667 243.814024 
L 127.58929 243.814024 
L 128.184914 245.4768 
L 128.780537 245.4768 
L 129.376161 244.837271 
L 129.971784 243.558212 
L 130.567408 245.604706 
L 131.163031 245.4768 
L 131.758655 246.244235 
L 132.354279 244.325647 
L 132.949902 243.686118 
L 133.545526 245.732612 
L 134.141149 245.860518 
L 134.736773 245.732612 
L 135.332396 244.709365 
L 135.92802 245.093082 
L 136.523643 243.686118 
L 137.119267 245.860518 
L 137.714891 245.093082 
L 138.310514 243.174494 
L 138.906138 245.348894 
L 140.097385 244.581459 
L 140.693008 247.011671 
L 141.288632 245.604706 
L 141.884255 244.709365 
L 142.479879 246.755859 
L 143.075503 245.348894 
L 143.671126 245.988424 
L 144.26675 244.453553 
L 144.862373 245.732612 
L 145.457997 243.430306 
L 146.05362 244.581459 
L 146.649244 242.662871 
L 147.244867 244.069835 
L 147.840491 242.023341 
L 148.436115 242.534965 
L 149.031738 239.721035 
L 149.627362 240.616376 
L 150.222985 240.232659 
L 150.818609 240.488471 
L 151.414232 238.825694 
L 152.009856 239.081506 
L 152.605479 241.511718 
L 153.201103 240.744282 
L 153.796727 242.918682 
L 154.39235 243.430306 
L 156.179221 244.197741 
L 156.774844 243.3024 
L 157.370468 243.686118 
L 157.966091 246.372141 
L 158.561715 244.837271 
L 159.157339 244.069835 
L 159.752962 245.4768 
L 160.348586 243.3024 
L 160.944209 243.174494 
L 161.539833 245.4768 
L 162.135456 243.430306 
L 162.73108 245.220988 
L 163.326703 245.4768 
L 163.922327 244.069835 
L 164.517951 244.837271 
L 165.113574 244.581459 
L 165.709198 244.197741 
L 166.304821 247.395388 
L 166.900445 245.220988 
L 167.496068 245.860518 
L 168.091692 246.116329 
L 168.687315 244.453553 
L 169.282939 245.860518 
L 169.878563 243.941929 
L 170.474186 243.814024 
L 171.06981 244.837271 
L 171.665433 243.941929 
L 172.85668 246.500047 
L 173.452304 244.453553 
L 174.047927 244.453553 
L 174.643551 244.837271 
L 175.239175 245.4768 
L 175.834798 245.4768 
L 176.430422 246.883765 
L 177.026045 243.046588 
L 177.621669 245.4768 
L 178.217292 243.941929 
L 179.408539 245.604706 
L 180.004163 245.093082 
L 180.599787 245.220988 
L 181.791034 244.581459 
L 182.386657 245.4768 
L 182.982281 245.093082 
L 183.577904 244.453553 
L 184.173528 244.325647 
L 185.364775 245.732612 
L 185.960399 244.709365 
L 186.556022 246.244235 
L 187.151646 244.197741 
L 187.747269 245.4768 
L 188.342893 244.581459 
L 188.938516 245.348894 
L 189.53414 245.093082 
L 190.129763 244.453553 
L 190.725387 245.4768 
L 191.32101 244.453553 
L 191.916634 244.453553 
L 192.512258 245.093082 
L 193.107881 245.093082 
L 193.703505 245.220988 
L 194.299128 245.4768 
L 194.894752 245.093082 
L 195.490375 245.4768 
L 196.085999 245.4768 
L 196.681622 245.604706 
L 197.277246 243.941929 
L 197.87287 245.732612 
L 198.468493 245.732612 
L 199.064117 243.814024 
L 199.65974 245.348894 
L 200.255364 244.197741 
L 200.850987 243.941929 
L 201.446611 245.093082 
L 202.042234 246.627953 
L 202.637858 243.814024 
L 203.233482 246.244235 
L 203.829105 246.372141 
L 204.424729 242.918682 
L 205.020352 245.732612 
L 205.615976 243.686118 
L 206.211599 244.581459 
L 206.807223 243.174494 
L 207.402846 247.267482 
L 207.99847 246.116329 
L 209.189717 244.581459 
L 209.785341 243.3024 
L 210.380964 243.174494 
L 210.976588 245.348894 
L 211.572211 244.965176 
L 212.167835 246.244235 
L 212.763458 247.139576 
L 213.359082 246.116329 
L 213.954706 244.197741 
L 214.550329 244.709365 
L 215.145953 246.372141 
L 215.741576 243.430306 
L 216.3372 245.860518 
L 216.932823 245.093082 
L 217.528447 245.604706 
L 218.12407 244.965176 
L 218.719694 247.011671 
L 219.315318 243.558212 
L 219.910941 246.500047 
L 220.506565 245.093082 
L 221.102188 245.604706 
L 221.697812 244.581459 
L 222.293435 246.116329 
L 222.889059 243.814024 
L 223.484682 244.837271 
L 224.080306 243.174494 
L 224.67593 243.686118 
L 225.271553 243.941929 
L 225.867177 243.814024 
L 226.4628 244.965176 
L 227.654047 244.965176 
L 228.249671 244.197741 
L 228.845294 245.093082 
L 229.440918 245.604706 
L 230.036542 244.837271 
L 230.632165 242.918682 
L 231.227789 245.348894 
L 231.823412 245.732612 
L 232.419036 243.046588 
L 233.014659 245.348894 
L 233.610283 245.860518 
L 234.205906 244.069835 
L 234.80153 245.604706 
L 235.397154 245.604706 
L 235.992777 243.941929 
L 236.588401 245.348894 
L 237.184024 245.093082 
L 237.779648 246.116329 
L 238.375271 246.883765 
L 238.970895 244.709365 
L 239.566518 245.093082 
L 240.162142 243.430306 
L 240.757766 244.453553 
L 241.353389 244.709365 
L 241.949013 244.581459 
L 242.544636 245.093082 
L 243.14026 244.581459 
L 244.331507 245.4768 
L 244.92713 245.4768 
L 245.522754 245.732612 
L 246.118378 245.220988 
L 246.714001 246.500047 
L 247.905248 244.325647 
L 248.500872 245.860518 
L 249.096495 245.093082 
L 249.692119 243.3024 
L 250.287742 245.093082 
L 250.883366 243.430306 
L 251.47899 245.988424 
L 252.670237 244.197741 
L 253.861484 245.732612 
L 254.457107 247.011671 
L 255.052731 244.581459 
L 255.648354 244.581459 
L 256.243978 246.244235 
L 257.435225 244.837271 
L 258.030849 245.093082 
L 258.626472 244.325647 
L 259.222096 246.883765 
L 259.817719 242.151247 
L 260.413343 245.604706 
L 261.008966 244.837271 
L 262.200213 243.941929 
L 263.391461 246.372141 
L 263.987084 243.814024 
L 264.582708 245.348894 
L 265.178331 245.988424 
L 265.773955 244.453553 
L 266.369578 244.453553 
L 266.965202 246.116329 
L 267.560825 245.093082 
L 268.156449 243.686118 
L 268.752073 245.860518 
L 269.347696 245.988424 
L 269.94332 245.732612 
L 270.538943 242.918682 
L 271.73019 246.244235 
L 272.325814 245.093082 
L 272.921437 245.604706 
L 273.517061 244.837271 
L 274.112685 243.686118 
L 274.708308 244.197741 
L 275.303932 244.965176 
L 275.899555 244.965176 
L 276.495179 242.918682 
L 277.090802 245.988424 
L 277.686426 246.883765 
L 278.282049 243.558212 
L 278.877673 246.500047 
L 279.473297 245.220988 
L 280.06892 245.348894 
L 280.664544 243.3024 
L 281.260167 244.837271 
L 281.855791 244.453553 
L 282.451414 244.709365 
L 283.047038 243.814024 
L 283.642661 246.755859 
L 284.238285 244.965176 
L 284.833909 244.197741 
L 285.429532 244.965176 
L 286.025156 246.244235 
L 286.620779 245.732612 
L 287.216403 247.6512 
L 287.812026 246.372141 
L 288.40765 246.244235 
L 289.003273 244.581459 
L 289.598897 243.941929 
L 290.194521 246.372141 
L 290.790144 244.453553 
L 291.385768 245.348894 
L 291.981391 242.918682 
L 292.577015 245.093082 
L 293.172638 245.732612 
L 293.768262 244.197741 
L 294.363885 244.581459 
L 294.959509 244.709365 
L 295.555133 245.4768 
L 296.150756 244.837271 
L 296.74638 243.686118 
L 297.342003 244.453553 
L 297.937627 245.4768 
L 298.53325 244.069835 
L 299.128874 245.732612 
L 299.724497 244.965176 
L 300.320121 245.220988 
L 300.915745 246.500047 
L 301.511368 245.348894 
L 302.106992 246.500047 
L 302.702615 246.116329 
L 303.298239 244.965176 
L 303.893862 244.453553 
L 304.489486 246.500047 
L 305.085109 245.220988 
L 305.680733 243.3024 
L 306.276357 245.4768 
L 306.87198 245.4768 
L 307.467604 243.174494 
L 308.658851 244.581459 
L 309.254474 243.686118 
L 309.850098 244.325647 
L 310.445721 243.814024 
L 311.041345 244.453553 
L 311.636969 245.604706 
L 312.232592 245.220988 
L 312.828216 245.860518 
L 313.423839 245.093082 
L 314.615086 245.093082 
L 315.21071 245.988424 
L 315.806333 244.709365 
L 316.401957 243.814024 
L 316.997581 245.4768 
L 317.593204 242.662871 
L 318.188828 244.837271 
L 318.784451 245.4768 
L 319.380075 243.3024 
L 319.975698 244.965176 
L 320.571322 244.837271 
L 321.166945 245.988424 
L 321.762569 245.732612 
L 322.358192 244.709365 
L 322.953816 245.732612 
L 324.145063 243.558212 
L 324.740687 244.069835 
L 325.33631 245.348894 
L 325.931934 246.244235 
L 326.527557 245.732612 
L 327.123181 246.372141 
L 327.718804 243.941929 
L 328.314428 245.093082 
L 328.910052 245.988424 
L 329.505675 243.814024 
L 330.101299 242.790776 
L 330.696922 245.348894 
L 331.292546 243.558212 
L 331.888169 245.604706 
L 332.483793 246.244235 
L 333.079416 243.941929 
L 333.67504 245.4768 
L 334.866287 243.558212 
L 335.461911 244.709365 
L 336.057534 244.581459 
L 336.653158 244.069835 
L 337.844405 245.732612 
L 338.440028 245.604706 
L 339.035652 244.965176 
L 339.631276 244.069835 
L 340.226899 245.4768 
L 340.822523 244.197741 
L 341.418146 245.732612 
L 342.609393 243.046588 
L 343.80064 245.348894 
L 344.396264 244.709365 
L 344.991888 242.151247 
L 345.587511 244.197741 
L 346.183135 244.197741 
L 346.778758 244.325647 
L 347.374382 245.732612 
L 347.970005 243.941929 
L 348.565629 245.732612 
L 349.161252 245.604706 
L 349.756876 245.093082 
L 350.3525 245.4768 
L 350.948123 245.093082 
L 351.543747 244.965176 
L 352.13937 245.732612 
L 352.734994 246.244235 
L 353.330617 244.453553 
L 353.926241 246.627953 
L 354.521864 243.3024 
L 355.713112 246.116329 
L 356.904359 244.709365 
L 357.499982 245.732612 
L 358.095606 244.581459 
L 358.691229 246.116329 
L 359.286853 244.965176 
L 359.882476 244.069835 
L 360.4781 246.244235 
L 361.073724 245.220988 
L 361.669347 244.837271 
L 362.264971 245.4768 
L 362.860594 243.174494 
L 363.456218 245.4768 
L 364.051841 245.4768 
L 364.647465 243.941929 
L 365.243088 243.686118 
L 365.838712 244.965176 
L 366.434336 245.860518 
L 367.029959 244.581459 
L 367.625583 244.197741 
L 368.221206 245.860518 
L 369.412453 243.174494 
L 370.008077 244.965176 
L 370.6037 244.069835 
L 371.199324 243.686118 
L 371.794948 244.837271 
L 372.390571 245.093082 
L 372.986195 244.837271 
L 373.581818 245.220988 
L 373.581818 245.220988 
" clip-path="url(#p1dd4ed7aa1)" style="fill: none; stroke: #1f77b4; stroke-width: 1.5; stroke-linecap: square"/>
   </g>
   <g id="line2d_32">
    <path d="M 69.218182 234.988518 
L 69.813805 230.895529 
L 70.409429 236.139671 
L 71.005052 236.139671 
L 71.600676 234.476894 
L 72.1963 234.221082 
L 72.791923 235.244329 
L 73.387547 238.058259 
L 73.98317 235.372235 
L 74.578794 234.860612 
L 75.174417 233.965271 
L 75.770041 236.523388 
L 76.365664 234.860612 
L 76.961288 232.046682 
L 77.556912 232.942024 
L 78.152535 234.6048 
L 78.748159 235.372235 
L 79.343782 237.418729 
L 79.939406 235.755953 
L 80.535029 238.058259 
L 81.130653 233.069929 
L 81.726276 234.988518 
L 82.3219 236.011765 
L 82.917524 232.814118 
L 83.513147 234.860612 
L 84.108771 238.314071 
L 84.704394 236.139671 
L 85.300018 235.883859 
L 85.895641 234.093176 
L 86.491265 235.883859 
L 87.086888 236.011765 
L 87.682512 233.965271 
L 88.278136 234.6048 
L 88.873759 233.837365 
L 89.469383 235.755953 
L 90.065006 234.988518 
L 90.66063 234.732706 
L 91.256253 235.244329 
L 91.851877 235.244329 
L 92.4475 234.476894 
L 93.043124 234.860612 
L 93.638748 234.348988 
L 94.234371 235.500141 
L 94.829995 238.058259 
L 95.425618 231.790871 
L 96.021242 234.6048 
L 96.616865 234.732706 
L 97.212489 237.290824 
L 97.808112 232.558306 
L 98.403736 235.244329 
L 98.99936 235.883859 
L 99.594983 235.244329 
L 100.190607 236.907106 
L 100.78623 234.348988 
L 101.381854 234.348988 
L 101.977477 236.267576 
L 102.573101 235.883859 
L 103.168724 236.395482 
L 103.764348 235.244329 
L 104.359972 235.116424 
L 104.955595 234.093176 
L 105.551219 234.476894 
L 106.146842 234.221082 
L 106.742466 234.221082 
L 107.338089 234.732706 
L 107.933713 235.755953 
L 108.529336 234.093176 
L 109.12496 235.628047 
L 109.720584 236.139671 
L 110.316207 233.197835 
L 110.911831 234.732706 
L 111.507454 234.860612 
L 112.698701 238.825694 
L 113.294325 237.290824 
L 113.889948 234.348988 
L 114.485572 236.523388 
L 115.081196 231.407153 
L 115.676819 236.011765 
L 116.272443 238.441976 
L 116.868066 234.476894 
L 117.46369 238.058259 
L 118.059313 234.860612 
L 118.654937 232.686212 
L 119.25056 233.581553 
L 119.846184 236.523388 
L 120.441808 234.6048 
L 121.037431 234.348988 
L 121.633055 236.907106 
L 122.228678 236.011765 
L 122.824302 234.6048 
L 123.419925 235.372235 
L 124.015549 236.651294 
L 124.611172 234.476894 
L 125.206796 234.348988 
L 125.802419 234.988518 
L 126.398043 236.651294 
L 127.58929 236.395482 
L 128.184914 236.139671 
L 128.780537 237.290824 
L 129.376161 234.221082 
L 129.971784 233.581553 
L 130.567408 236.523388 
L 131.163031 235.628047 
L 131.758655 234.221082 
L 132.354279 235.628047 
L 132.949902 236.651294 
L 133.545526 237.418729 
L 134.141149 236.907106 
L 134.736773 233.325741 
L 135.332396 236.7792 
L 135.92802 232.4304 
L 136.523643 236.395482 
L 137.119267 234.221082 
L 137.714891 236.651294 
L 138.310514 234.093176 
L 138.906138 235.883859 
L 139.501761 234.860612 
L 140.097385 234.476894 
L 140.693008 235.372235 
L 141.288632 237.162918 
L 141.884255 234.093176 
L 142.479879 236.139671 
L 143.075503 232.174588 
L 143.671126 237.290824 
L 144.862373 234.093176 
L 146.05362 236.523388 
L 146.649244 238.697788 
L 147.244867 237.418729 
L 147.840491 233.965271 
L 148.436115 236.267576 
L 149.031738 236.139671 
L 149.627362 233.709459 
L 150.222985 235.628047 
L 150.818609 236.267576 
L 151.414232 235.755953 
L 152.009856 238.697788 
L 152.605479 234.732706 
L 153.201103 235.755953 
L 153.796727 233.325741 
L 154.39235 234.6048 
L 154.987974 234.6048 
L 155.583597 236.907106 
L 156.179221 236.651294 
L 156.774844 235.116424 
L 157.370468 234.6048 
L 157.966091 233.709459 
L 158.561715 235.500141 
L 159.157339 233.837365 
L 160.348586 236.395482 
L 160.944209 234.732706 
L 161.539833 235.500141 
L 162.135456 235.755953 
L 162.73108 236.395482 
L 163.326703 235.372235 
L 163.922327 235.116424 
L 164.517951 235.244329 
L 165.113574 234.6048 
L 165.709198 234.6048 
L 166.304821 234.988518 
L 166.900445 236.651294 
L 167.496068 234.732706 
L 168.091692 233.709459 
L 168.687315 234.6048 
L 169.282939 237.930353 
L 169.878563 235.883859 
L 170.474186 236.907106 
L 171.06981 236.011765 
L 171.665433 233.325741 
L 172.261057 234.6048 
L 172.85668 234.093176 
L 173.452304 232.686212 
L 174.047927 236.907106 
L 174.643551 234.348988 
L 175.239175 236.651294 
L 175.834798 236.523388 
L 176.430422 233.069929 
L 177.026045 234.988518 
L 177.621669 233.197835 
L 178.217292 236.139671 
L 178.812916 236.267576 
L 179.408539 235.500141 
L 180.004163 234.221082 
L 180.599787 234.221082 
L 181.19541 234.6048 
L 181.791034 234.6048 
L 182.386657 236.011765 
L 182.982281 236.267576 
L 183.577904 235.500141 
L 184.173528 233.453647 
L 184.769151 236.651294 
L 185.364775 233.325741 
L 185.960399 236.523388 
L 186.556022 235.372235 
L 187.151646 236.139671 
L 187.747269 231.790871 
L 188.938516 236.523388 
L 189.53414 234.221082 
L 190.129763 233.581553 
L 190.725387 237.035012 
L 191.32101 233.581553 
L 191.916634 234.476894 
L 192.512258 232.4304 
L 193.107881 236.523388 
L 193.703505 234.732706 
L 194.299128 238.186165 
L 194.894752 236.267576 
L 195.490375 235.244329 
L 196.085999 236.267576 
L 196.681622 234.348988 
L 197.277246 234.732706 
L 197.87287 234.093176 
L 198.468493 235.500141 
L 199.064117 233.325741 
L 199.65974 232.174588 
L 200.255364 234.476894 
L 200.850987 234.6048 
L 201.446611 236.395482 
L 202.042234 236.907106 
L 202.637858 234.6048 
L 203.233482 235.116424 
L 203.829105 233.325741 
L 204.424729 235.755953 
L 205.020352 235.883859 
L 205.615976 235.244329 
L 206.211599 235.755953 
L 206.807223 235.755953 
L 207.402846 234.221082 
L 207.99847 231.918776 
L 208.594094 233.837365 
L 209.189717 237.546635 
L 209.785341 236.011765 
L 210.380964 235.372235 
L 210.976588 235.500141 
L 211.572211 237.035012 
L 212.167835 234.860612 
L 212.763458 234.6048 
L 213.359082 231.662965 
L 213.954706 231.151341 
L 214.550329 223.604894 
L 215.145953 224.883953 
L 215.741576 221.686306 
L 216.3372 211.709647 
L 216.932823 203.779482 
L 217.528447 205.186447 
L 218.719694 197.64 
L 219.315318 198.279529 
L 219.910941 195.081882 
L 220.506565 200.198118 
L 221.697812 214.011953 
L 222.293435 216.825882 
L 222.889059 222.325835 
L 223.484682 225.139765 
L 224.67593 232.558306 
L 225.271553 234.093176 
L 225.867177 232.942024 
L 226.4628 235.628047 
L 227.058424 234.988518 
L 227.654047 236.011765 
L 229.440918 234.093176 
L 230.036542 236.7792 
L 230.632165 236.7792 
L 231.227789 237.546635 
L 231.823412 237.035012 
L 232.419036 237.162918 
L 233.014659 237.162918 
L 233.610283 234.476894 
L 234.205906 235.500141 
L 234.80153 236.139671 
L 235.397154 234.476894 
L 235.992777 236.651294 
L 236.588401 233.453647 
L 237.184024 238.186165 
L 237.779648 233.837365 
L 238.375271 233.709459 
L 239.566518 236.7792 
L 240.757766 233.837365 
L 241.353389 232.686212 
L 241.949013 234.860612 
L 242.544636 233.837365 
L 243.14026 236.267576 
L 243.735883 236.907106 
L 244.92713 234.093176 
L 245.522754 235.755953 
L 246.118378 235.244329 
L 246.714001 235.883859 
L 247.309625 238.697788 
L 247.905248 234.476894 
L 248.500872 234.093176 
L 249.096495 235.116424 
L 249.692119 235.755953 
L 250.287742 237.290824 
L 252.670237 235.244329 
L 253.26586 236.139671 
L 253.861484 237.546635 
L 254.457107 233.837365 
L 255.052731 236.267576 
L 255.648354 231.918776 
L 256.243978 236.139671 
L 256.839601 233.837365 
L 257.435225 236.139671 
L 258.030849 236.523388 
L 258.626472 234.221082 
L 259.222096 232.558306 
L 259.817719 232.686212 
L 260.413343 235.883859 
L 261.008966 234.348988 
L 261.60459 237.546635 
L 262.200213 236.011765 
L 262.795837 233.965271 
L 263.391461 236.267576 
L 263.987084 234.221082 
L 264.582708 234.093176 
L 265.178331 233.837365 
L 265.773955 235.883859 
L 266.369578 233.581553 
L 266.965202 235.244329 
L 267.560825 231.918776 
L 268.156449 233.069929 
L 269.347696 236.011765 
L 269.94332 235.883859 
L 270.538943 235.628047 
L 271.73019 234.732706 
L 272.325814 234.6048 
L 272.921437 237.290824 
L 273.517061 235.883859 
L 274.112685 234.093176 
L 274.708308 234.6048 
L 275.303932 235.628047 
L 275.899555 235.500141 
L 276.495179 236.139671 
L 277.090802 233.325741 
L 277.686426 235.628047 
L 278.282049 234.732706 
L 278.877673 236.011765 
L 279.473297 237.930353 
L 280.06892 234.093176 
L 280.664544 237.674541 
L 281.855791 233.965271 
L 282.451414 234.093176 
L 283.047038 233.197835 
L 284.238285 233.709459 
L 284.833909 234.860612 
L 285.429532 235.244329 
L 286.025156 235.244329 
L 286.620779 234.476894 
L 287.216403 237.162918 
L 287.812026 234.476894 
L 288.40765 235.500141 
L 289.003273 236.139671 
L 289.598897 234.093176 
L 290.194521 234.732706 
L 290.790144 237.546635 
L 291.385768 232.686212 
L 291.981391 236.011765 
L 292.577015 236.395482 
L 293.172638 238.441976 
L 293.768262 237.035012 
L 294.363885 236.011765 
L 294.959509 232.302494 
L 295.555133 235.372235 
L 296.150756 233.837365 
L 296.74638 233.837365 
L 297.342003 235.116424 
L 297.937627 233.837365 
L 298.53325 236.395482 
L 299.128874 233.197835 
L 299.724497 234.476894 
L 300.320121 234.348988 
L 300.915745 235.755953 
L 301.511368 236.7792 
L 302.106992 233.837365 
L 303.298239 237.546635 
L 303.893862 237.802447 
L 304.489486 232.686212 
L 305.085109 235.244329 
L 305.680733 235.628047 
L 306.276357 236.651294 
L 306.87198 234.348988 
L 307.467604 237.035012 
L 308.063227 233.837365 
L 308.658851 237.162918 
L 309.254474 235.244329 
L 309.850098 236.011765 
L 310.445721 236.267576 
L 311.041345 233.325741 
L 311.636969 235.755953 
L 312.232592 230.383906 
L 312.828216 234.348988 
L 313.423839 235.244329 
L 314.019463 235.116424 
L 314.615086 233.581553 
L 315.806333 234.093176 
L 316.401957 234.476894 
L 316.997581 236.139671 
L 317.593204 236.7792 
L 318.188828 234.221082 
L 318.784451 233.965271 
L 319.380075 233.965271 
L 319.975698 233.069929 
L 320.571322 233.453647 
L 321.166945 232.942024 
L 321.762569 236.395482 
L 322.358192 233.709459 
L 322.953816 233.709459 
L 323.54944 236.523388 
L 324.145063 234.476894 
L 324.740687 236.395482 
L 325.33631 233.325741 
L 325.931934 234.732706 
L 326.527557 233.965271 
L 327.123181 235.500141 
L 327.718804 234.348988 
L 328.314428 234.6048 
L 328.910052 234.348988 
L 330.101299 237.035012 
L 330.696922 237.418729 
L 331.292546 235.500141 
L 331.888169 237.930353 
L 332.483793 234.093176 
L 333.079416 236.7792 
L 333.67504 234.732706 
L 334.270664 233.197835 
L 334.866287 234.988518 
L 335.461911 234.860612 
L 336.057534 234.348988 
L 336.653158 234.348988 
L 337.248781 234.988518 
L 337.844405 237.418729 
L 338.440028 233.965271 
L 339.035652 235.883859 
L 339.631276 234.860612 
L 340.226899 235.628047 
L 340.822523 237.418729 
L 341.418146 236.011765 
L 342.01377 235.372235 
L 342.609393 237.035012 
L 343.205017 236.395482 
L 343.80064 233.709459 
L 344.396264 235.755953 
L 344.991888 236.651294 
L 345.587511 236.395482 
L 346.183135 233.069929 
L 346.778758 238.9536 
L 347.374382 233.453647 
L 347.970005 233.453647 
L 348.565629 236.651294 
L 349.161252 234.988518 
L 349.756876 236.139671 
L 350.3525 235.628047 
L 350.948123 236.651294 
L 351.543747 234.6048 
L 352.13937 237.035012 
L 352.734994 235.628047 
L 353.330617 235.755953 
L 353.926241 231.023435 
L 354.521864 234.093176 
L 355.117488 238.825694 
L 355.713112 236.907106 
L 356.308735 237.035012 
L 356.904359 234.860612 
L 357.499982 236.011765 
L 358.095606 236.523388 
L 359.286853 234.348988 
L 359.882476 236.395482 
L 360.4781 235.883859 
L 361.073724 234.6048 
L 361.669347 235.116424 
L 362.860594 235.628047 
L 363.456218 233.965271 
L 364.051841 236.7792 
L 364.647465 236.651294 
L 365.243088 233.069929 
L 365.838712 239.081506 
L 366.434336 232.814118 
L 367.029959 235.500141 
L 367.625583 233.325741 
L 368.221206 236.523388 
L 369.412453 234.221082 
L 370.008077 237.162918 
L 370.6037 235.500141 
L 372.390571 234.221082 
L 372.986195 235.116424 
L 373.581818 234.476894 
L 373.581818 234.476894 
" clip-path="url(#p1dd4ed7aa1)" style="fill: none; stroke: #ff7f0e; stroke-width: 1.5; stroke-linecap: square"/>
   </g>
   <g id="line2d_33">
    <path d="M 69.218182 211.453835 
L 69.813805 210.814306 
L 70.409429 209.023624 
L 71.005052 210.6864 
L 71.600676 204.930635 
L 72.1963 208.000376 
L 72.791923 213.500329 
L 73.387547 206.465506 
L 73.98317 205.825976 
L 74.578794 211.070118 
L 75.174417 210.814306 
L 75.770041 212.8608 
L 76.365664 209.663153 
L 76.961288 209.663153 
L 77.556912 208.767812 
L 78.152535 212.477082 
L 78.748159 209.151529 
L 79.343782 208.128282 
L 79.939406 212.8608 
L 80.535029 203.012047 
L 81.130653 210.942212 
L 81.726276 207.616659 
L 82.3219 210.302682 
L 82.917524 210.174776 
L 83.513147 209.279435 
L 84.108771 208.639906 
L 84.704394 209.663153 
L 85.300018 210.174776 
L 85.895641 211.198024 
L 86.491265 210.046871 
L 87.682512 206.977129 
L 88.278136 210.6864 
L 88.873759 208.256188 
L 89.469383 209.023624 
L 90.065006 209.023624 
L 90.66063 213.884047 
L 91.256253 203.779482 
L 91.851877 209.791059 
L 92.4475 211.325929 
L 93.043124 208.000376 
L 93.638748 210.302682 
L 94.234371 213.628235 
L 94.829995 208.000376 
L 95.425618 210.430588 
L 96.021242 205.825976 
L 96.616865 206.081788 
L 97.212489 205.953882 
L 97.808112 207.232941 
L 98.403736 212.093365 
L 98.99936 210.430588 
L 99.594983 205.442259 
L 100.190607 205.186447 
L 100.78623 208.895718 
L 101.381854 208.384094 
L 101.977477 205.058541 
L 103.168724 210.302682 
L 103.764348 211.070118 
L 104.359972 207.105035 
L 104.955595 214.139859 
L 105.551219 209.023624 
L 106.146842 214.779388 
L 106.742466 209.791059 
L 107.338089 213.500329 
L 107.933713 212.988706 
L 108.529336 210.558494 
L 109.12496 204.930635 
L 109.720584 216.058447 
L 110.316207 206.081788 
L 110.911831 204.802729 
L 111.507454 210.942212 
L 112.103078 209.407341 
L 112.698701 208.512 
L 113.294325 206.465506 
L 113.889948 210.174776 
L 114.485572 212.604988 
L 115.081196 210.174776 
L 115.676819 213.244518 
L 116.272443 206.465506 
L 116.868066 209.279435 
L 117.46369 210.558494 
L 118.059313 208.895718 
L 118.654937 207.872471 
L 119.25056 211.709647 
L 119.846184 209.407341 
L 120.441808 211.325929 
L 121.037431 214.011953 
L 121.633055 209.279435 
L 122.228678 210.430588 
L 122.824302 206.977129 
L 123.419925 212.093365 
L 124.015549 210.302682 
L 124.611172 214.139859 
L 125.206796 211.198024 
L 125.802419 206.209694 
L 126.398043 213.884047 
L 126.993667 212.349176 
L 127.58929 212.221271 
L 128.184914 207.488753 
L 128.780537 207.616659 
L 129.376161 210.558494 
L 130.567408 206.465506 
L 131.163031 209.663153 
L 131.758655 210.814306 
L 132.354279 206.465506 
L 132.949902 211.965459 
L 134.141149 210.046871 
L 134.736773 211.709647 
L 135.332396 212.221271 
L 135.92802 208.639906 
L 136.523643 211.709647 
L 137.119267 211.453835 
L 137.714891 211.453835 
L 138.310514 208.639906 
L 138.906138 207.872471 
L 139.501761 210.302682 
L 140.097385 206.849224 
L 140.693008 213.628235 
L 141.288632 205.570165 
L 141.884255 210.6864 
L 142.479879 206.977129 
L 143.075503 210.558494 
L 143.671126 208.384094 
L 144.26675 210.046871 
L 144.862373 210.302682 
L 145.457997 212.477082 
L 146.05362 207.616659 
L 146.649244 209.918965 
L 147.244867 208.639906 
L 147.840491 211.070118 
L 148.436115 208.512 
L 149.031738 215.418918 
L 149.627362 209.918965 
L 150.222985 210.942212 
L 150.818609 204.419012 
L 151.414232 212.732894 
L 152.009856 206.3376 
L 152.605479 207.488753 
L 153.201103 207.744565 
L 153.796727 208.639906 
L 154.39235 211.965459 
L 154.987974 212.604988 
L 155.583597 212.477082 
L 156.179221 211.709647 
L 156.774844 209.407341 
L 157.370468 209.535247 
L 157.966091 207.616659 
L 158.561715 213.628235 
L 159.157339 208.512 
L 159.752962 209.535247 
L 160.348586 205.058541 
L 160.944209 211.965459 
L 161.539833 208.639906 
L 162.135456 210.814306 
L 162.73108 205.825976 
L 163.922327 211.965459 
L 164.517951 210.046871 
L 165.113574 207.232941 
L 165.709198 206.721318 
L 166.304821 209.663153 
L 166.900445 209.791059 
L 167.496068 211.581741 
L 168.091692 204.674824 
L 169.282939 212.604988 
L 169.878563 205.442259 
L 170.474186 211.709647 
L 171.06981 211.709647 
L 171.665433 208.128282 
L 172.261057 207.360847 
L 172.85668 215.0352 
L 173.452304 211.453835 
L 174.047927 212.093365 
L 174.643551 208.256188 
L 175.239175 210.302682 
L 175.834798 210.046871 
L 176.430422 208.639906 
L 177.026045 210.302682 
L 177.621669 206.081788 
L 178.217292 208.639906 
L 178.812916 206.977129 
L 179.408539 204.419012 
L 180.004163 210.942212 
L 180.599787 206.593412 
L 181.19541 214.267765 
L 181.791034 209.535247 
L 182.386657 206.3376 
L 182.982281 205.570165 
L 183.577904 207.105035 
L 184.173528 207.744565 
L 184.769151 211.709647 
L 185.364775 208.384094 
L 185.960399 209.023624 
L 186.556022 207.232941 
L 187.151646 210.6864 
L 187.747269 208.384094 
L 188.342893 210.302682 
L 188.938516 203.779482 
L 189.53414 202.116706 
L 190.129763 202.500424 
L 190.725387 189.198212 
L 191.32101 188.302871 
L 191.916634 187.663341 
L 192.512258 181.651765 
L 193.107881 186.128471 
L 193.703505 180.628518 
L 194.299128 177.047153 
L 194.894752 180.500612 
L 195.490375 180.116894 
L 196.085999 191.884235 
L 196.681622 190.477271 
L 197.277246 191.756329 
L 197.87287 197.767906 
L 198.468493 198.791153 
L 199.064117 210.174776 
L 199.65974 203.012047 
L 200.255364 203.907388 
L 201.446611 210.174776 
L 202.042234 211.837553 
L 202.637858 212.732894 
L 203.233482 212.349176 
L 203.829105 210.6864 
L 204.424729 208.128282 
L 205.020352 212.8608 
L 205.615976 211.837553 
L 206.211599 205.698071 
L 206.807223 211.965459 
L 207.402846 210.814306 
L 207.99847 208.767812 
L 208.594094 210.046871 
L 209.189717 212.988706 
L 209.785341 212.221271 
L 210.380964 210.814306 
L 210.976588 207.616659 
L 211.572211 210.430588 
L 212.167835 210.046871 
L 212.763458 212.349176 
L 213.954706 214.523576 
L 214.550329 210.6864 
L 215.145953 209.279435 
L 215.741576 209.663153 
L 216.3372 209.279435 
L 216.932823 209.407341 
L 217.528447 209.407341 
L 218.12407 204.419012 
L 218.719694 209.535247 
L 219.910941 208.128282 
L 221.102188 209.023624 
L 221.697812 210.814306 
L 222.293435 211.837553 
L 222.889059 208.512 
L 223.484682 209.791059 
L 224.080306 212.732894 
L 224.67593 213.756141 
L 225.271553 210.430588 
L 225.867177 212.988706 
L 226.4628 214.011953 
L 227.058424 210.302682 
L 227.654047 213.372424 
L 228.249671 210.6864 
L 228.845294 206.977129 
L 229.440918 210.6864 
L 230.036542 210.6864 
L 230.632165 206.209694 
L 231.227789 213.372424 
L 231.823412 207.232941 
L 232.419036 209.279435 
L 233.014659 210.6864 
L 233.610283 209.663153 
L 234.205906 209.663153 
L 234.80153 208.000376 
L 235.992777 212.732894 
L 236.588401 206.977129 
L 237.184024 212.221271 
L 237.779648 210.174776 
L 238.375271 210.430588 
L 238.970895 211.581741 
L 239.566518 206.593412 
L 240.162142 212.221271 
L 241.353389 209.407341 
L 241.949013 209.663153 
L 242.544636 209.279435 
L 243.14026 207.488753 
L 243.735883 208.512 
L 244.331507 211.837553 
L 244.92713 206.209694 
L 245.522754 211.453835 
L 246.118378 209.663153 
L 246.714001 212.093365 
L 247.309625 208.000376 
L 247.905248 208.000376 
L 248.500872 211.581741 
L 249.096495 210.302682 
L 249.692119 209.407341 
L 250.287742 206.081788 
L 250.883366 207.744565 
L 251.47899 208.895718 
L 252.074613 207.232941 
L 252.670237 206.977129 
L 253.26586 213.244518 
L 253.861484 207.105035 
L 254.457107 208.767812 
L 255.052731 211.198024 
L 255.648354 211.070118 
L 256.243978 210.302682 
L 256.839601 212.8608 
L 257.435225 205.442259 
L 258.030849 212.093365 
L 258.626472 212.349176 
L 259.222096 210.302682 
L 259.817719 211.070118 
L 261.008966 206.593412 
L 261.60459 205.442259 
L 262.200213 209.535247 
L 262.795837 212.093365 
L 263.391461 211.581741 
L 263.987084 208.639906 
L 264.582708 206.721318 
L 265.773955 209.407341 
L 266.369578 213.756141 
L 266.965202 205.186447 
L 267.560825 208.256188 
L 268.156449 207.872471 
L 268.752073 209.151529 
L 269.347696 208.000376 
L 269.94332 209.791059 
L 270.538943 207.872471 
L 271.134567 212.093365 
L 272.325814 207.744565 
L 272.921437 214.651482 
L 274.112685 208.767812 
L 274.708308 210.814306 
L 275.303932 208.128282 
L 275.899555 207.488753 
L 276.495179 208.767812 
L 277.090802 207.488753 
L 277.686426 208.895718 
L 278.282049 212.093365 
L 278.877673 205.314353 
L 279.473297 209.407341 
L 280.06892 210.430588 
L 280.664544 209.535247 
L 281.260167 213.756141 
L 281.855791 209.023624 
L 282.451414 209.151529 
L 283.047038 210.174776 
L 283.642661 212.093365 
L 284.238285 216.570071 
L 284.833909 209.407341 
L 285.429532 212.8608 
L 286.025156 211.198024 
L 286.620779 210.302682 
L 287.216403 211.709647 
L 287.812026 209.918965 
L 288.40765 207.616659 
L 289.003273 211.070118 
L 289.598897 209.791059 
L 290.194521 209.023624 
L 290.790144 210.558494 
L 291.385768 210.430588 
L 291.981391 206.3376 
L 292.577015 209.151529 
L 293.172638 210.046871 
L 293.768262 207.616659 
L 295.555133 210.302682 
L 296.150756 206.849224 
L 296.74638 208.000376 
L 297.342003 210.430588 
L 297.937627 208.895718 
L 298.53325 209.791059 
L 299.128874 204.930635 
L 299.724497 211.581741 
L 300.320121 208.000376 
L 300.915745 206.209694 
L 301.511368 206.977129 
L 302.106992 209.918965 
L 302.702615 209.151529 
L 303.298239 211.453835 
L 303.893862 206.977129 
L 304.489486 209.023624 
L 305.085109 208.512 
L 305.680733 215.291012 
L 306.276357 206.593412 
L 306.87198 209.279435 
L 307.467604 206.721318 
L 308.063227 209.407341 
L 308.658851 209.791059 
L 309.254474 208.256188 
L 309.850098 213.756141 
L 310.445721 208.512 
L 311.041345 210.942212 
L 311.636969 210.302682 
L 312.232592 207.744565 
L 312.828216 211.325929 
L 313.423839 213.244518 
L 314.019463 209.918965 
L 314.615086 210.174776 
L 315.21071 210.6864 
L 315.806333 208.639906 
L 316.401957 209.279435 
L 316.997581 211.581741 
L 317.593204 209.023624 
L 318.188828 207.744565 
L 318.784451 207.360847 
L 319.380075 206.593412 
L 319.975698 212.221271 
L 320.571322 212.732894 
L 321.166945 209.151529 
L 321.762569 211.453835 
L 322.358192 211.837553 
L 322.953816 209.663153 
L 323.54944 212.093365 
L 324.145063 208.000376 
L 324.740687 210.174776 
L 325.33631 208.639906 
L 325.931934 210.942212 
L 326.527557 214.779388 
L 327.123181 212.732894 
L 327.718804 208.767812 
L 328.314428 208.128282 
L 328.910052 210.046871 
L 329.505675 211.198024 
L 330.101299 209.023624 
L 330.696922 207.616659 
L 331.292546 205.442259 
L 331.888169 214.011953 
L 332.483793 214.395671 
L 333.079416 208.384094 
L 333.67504 208.256188 
L 334.270664 210.814306 
L 334.866287 212.732894 
L 335.461911 207.744565 
L 336.057534 211.837553 
L 337.248781 205.314353 
L 337.844405 207.872471 
L 338.440028 211.581741 
L 339.035652 212.477082 
L 339.631276 205.953882 
L 340.226899 210.558494 
L 340.822523 208.639906 
L 341.418146 209.663153 
L 342.01377 210.174776 
L 342.609393 210.430588 
L 343.205017 210.942212 
L 343.80064 209.407341 
L 344.396264 212.349176 
L 344.991888 211.581741 
L 345.587511 213.372424 
L 346.183135 205.442259 
L 346.778758 212.349176 
L 347.374382 211.581741 
L 347.970005 209.535247 
L 349.161252 211.837553 
L 349.756876 206.081788 
L 350.3525 211.709647 
L 350.948123 209.918965 
L 352.13937 208.000376 
L 352.734994 210.814306 
L 353.330617 207.872471 
L 353.926241 211.325929 
L 354.521864 212.093365 
L 355.117488 207.232941 
L 355.713112 207.488753 
L 356.308735 210.046871 
L 356.904359 203.651576 
L 357.499982 207.232941 
L 358.095606 208.639906 
L 358.691229 204.035294 
L 359.286853 211.709647 
L 359.882476 208.767812 
L 360.4781 209.791059 
L 361.073724 211.965459 
L 361.669347 209.791059 
L 362.264971 208.767812 
L 362.860594 207.360847 
L 363.456218 211.198024 
L 364.051841 208.639906 
L 364.647465 213.756141 
L 365.243088 207.105035 
L 365.838712 211.453835 
L 366.434336 207.232941 
L 367.029959 213.244518 
L 367.625583 208.000376 
L 368.221206 209.407341 
L 368.81683 213.244518 
L 369.412453 212.8608 
L 370.008077 210.174776 
L 370.6037 205.058541 
L 371.199324 211.581741 
L 371.794948 213.756141 
L 372.390571 208.895718 
L 372.986195 211.965459 
L 373.581818 210.302682 
L 373.581818 210.302682 
" clip-path="url(#p1dd4ed7aa1)" style="fill: none; stroke: #2ca02c; stroke-width: 1.5; stroke-linecap: square"/>
   </g>
   <g id="patch_3">
    <path d="M 54 252 
L 54 34.56 
" style="fill: none; stroke: #000000; stroke-width: 0.8; stroke-linejoin: miter; stroke-linecap: square"/>
   </g>
   <g id="patch_4">
    <path d="M 388.8 252 
L 388.8 34.56 
" style="fill: none; stroke: #000000; stroke-width: 0.8; stroke-linejoin: miter; stroke-linecap: square"/>
   </g>
   <g id="patch_5">
    <path d="M 54 252 
L 388.8 252 
" style="fill: none; stroke: #000000; stroke-width: 0.8; stroke-linejoin: miter; stroke-linecap: square"/>
   </g>
   <g id="patch_6">
    <path d="M 54 34.56 
L 388.8 34.56 
" style="fill: none; stroke: #000000; stroke-width: 0.8; stroke-linejoin: miter; stroke-linecap: square"/>
   </g>
   <g id="text_18">
    <!-- Label 4 -->
    <g transform="translate(199.487813 28.56)scale(0.12 -0.12)">
     <defs>
      <path id="DejaVuSans-4c" d="M 628 4666 
L 1259 4666 
L 1259 531 
L 3531 531 
L 3531 0 
L 628 0 
L 628 4666 
z
" transform="scale(0.015625)"/>
      <path id="DejaVuSans-61" d="M 2194 1759 
Q 1497 1759 1228 1600 
Q 959 1441 959 1056 
Q 959 750 1161 570 
Q 1363 391 1709 391 
Q 2188 391 2477 730 
Q 2766 1069 2766 1631 
L 2766 1759 
L 2194 1759 
z
M 3341 1997 
L 3341 0 
L 2766 0 
L 2766 531 
Q 2569 213 2275 61 
Q 1981 -91 1556 -91 
Q 1019 -91 701 211 
Q 384 513 384 1019 
Q 384 1609 779 1909 
Q 1175 2209 1959 2209 
L 2766 2209 
L 2766 2266 
Q 2766 2663 2505 2880 
Q 2244 3097 1772 3097 
Q 1472 3097 1187 3025 
Q 903 2953 641 2809 
L 641 3341 
Q 956 3463 1253 3523 
Q 1550 3584 1831 3584 
Q 2591 3584 2966 3190 
Q 3341 2797 3341 1997 
z
" transform="scale(0.015625)"/>
      <path id="DejaVuSans-65" d="M 3597 1894 
L 3597 1613 
L 953 1613 
Q 991 1019 1311 708 
Q 1631 397 2203 397 
Q 2534 397 2845 478 
Q 3156 559 3463 722 
L 3463 178 
Q 3153 47 2828 -22 
Q 2503 -91 2169 -91 
Q 1331 -91 842 396 
Q 353 884 353 1716 
Q 353 2575 817 3079 
Q 1281 3584 2069 3584 
Q 2775 3584 3186 3129 
Q 3597 2675 3597 1894 
z
M 3022 2063 
Q 3016 2534 2758 2815 
Q 2500 3097 2075 3097 
Q 1594 3097 1305 2825 
Q 1016 2553 972 2059 
L 3022 2063 
z
" transform="scale(0.015625)"/>
      <path id="DejaVuSans-6c" d="M 603 4863 
L 1178 4863 
L 1178 0 
L 603 0 
L 603 4863 
z
" transform="scale(0.015625)"/>
      <path id="DejaVuSans-20" transform="scale(0.015625)"/>
     </defs>
     <use xlink:href="#DejaVuSans-4c"/>
     <use xlink:href="#DejaVuSans-61" x="55.712891"/>
     <use xlink:href="#DejaVuSans-62" x="116.992188"/>
     <use xlink:href="#DejaVuSans-65" x="180.46875"/>
     <use xlink:href="#DejaVuSans-6c" x="241.992188"/>
     <use xlink:href="#DejaVuSans-20" x="269.775391"/>
     <use xlink:href="#DejaVuSans-34" x="301.5625"/>
    </g>
   </g>
   <g id="legend_1">
    <g id="patch_7">
     <path d="M 309.070312 101.2725 
L 381.8 101.2725 
Q 383.8 101.2725 383.8 99.2725 
L 383.8 41.56 
Q 383.8 39.56 381.8 39.56 
L 309.070312 39.56 
Q 307.070312 39.56 307.070312 41.56 
L 307.070312 99.2725 
Q 307.070312 101.2725 309.070312 101.2725 
z
" style="fill: #ffffff; opacity: 0.8; stroke: #cccccc; stroke-linejoin: miter"/>
    </g>
    <g id="text_19">
     <!-- Trace number -->
     <g transform="translate(311.070312 51.158437)scale(0.1 -0.1)">
      <defs>
       <path id="DejaVuSans-54" d="M -19 4666 
L 3928 4666 
L 3928 4134 
L 2272 4134 
L 2272 0 
L 1638 0 
L 1638 4134 
L -19 4134 
L -19 4666 
z
" transform="scale(0.015625)"/>
       <path id="DejaVuSans-72" d="M 2631 2963 
Q 2534 3019 2420 3045 
Q 2306 3072 2169 3072 
Q 1681 3072 1420 2755 
Q 1159 2438 1159 1844 
L 1159 0 
L 581 0 
L 581 3500 
L 1159 3500 
L 1159 2956 
Q 1341 3275 1631 3429 
Q 1922 3584 2338 3584 
Q 2397 3584 2469 3576 
Q 2541 3569 2628 3553 
L 2631 2963 
z
" transform="scale(0.015625)"/>
       <path id="DejaVuSans-6d" d="M 3328 2828 
Q 3544 3216 3844 3400 
Q 4144 3584 4550 3584 
Q 5097 3584 5394 3201 
Q 5691 2819 5691 2113 
L 5691 0 
L 5113 0 
L 5113 2094 
Q 5113 2597 4934 2840 
Q 4756 3084 4391 3084 
Q 3944 3084 3684 2787 
Q 3425 2491 3425 1978 
L 3425 0 
L 2847 0 
L 2847 2094 
Q 2847 2600 2669 2842 
Q 2491 3084 2119 3084 
Q 1678 3084 1418 2786 
Q 1159 2488 1159 1978 
L 1159 0 
L 581 0 
L 581 3500 
L 1159 3500 
L 1159 2956 
Q 1356 3278 1631 3431 
Q 1906 3584 2284 3584 
Q 2666 3584 2933 3390 
Q 3200 3197 3328 2828 
z
" transform="scale(0.015625)"/>
      </defs>
      <use xlink:href="#DejaVuSans-54"/>
      <use xlink:href="#DejaVuSans-72" x="46.333984"/>
      <use xlink:href="#DejaVuSans-61" x="87.447266"/>
      <use xlink:href="#DejaVuSans-63" x="148.726562"/>
      <use xlink:href="#DejaVuSans-65" x="203.707031"/>
      <use xlink:href="#DejaVuSans-20" x="265.230469"/>
      <use xlink:href="#DejaVuSans-6e" x="297.017578"/>
      <use xlink:href="#DejaVuSans-75" x="360.396484"/>
      <use xlink:href="#DejaVuSans-6d" x="423.775391"/>
      <use xlink:href="#DejaVuSans-62" x="521.1875"/>
      <use xlink:href="#DejaVuSans-65" x="584.664062"/>
      <use xlink:href="#DejaVuSans-72" x="646.1875"/>
     </g>
    </g>
    <g id="line2d_34">
     <path d="M 325.072656 62.336562 
L 335.072656 62.336562 
L 345.072656 62.336562 
" style="fill: none; stroke: #1f77b4; stroke-width: 1.5; stroke-linecap: square"/>
    </g>
    <g id="text_20">
     <!-- 0 -->
     <g transform="translate(353.072656 65.836562)scale(0.1 -0.1)">
      <use xlink:href="#DejaVuSans-30"/>
     </g>
    </g>
    <g id="line2d_35">
     <path d="M 325.072656 77.014687 
L 335.072656 77.014687 
L 345.072656 77.014687 
" style="fill: none; stroke: #ff7f0e; stroke-width: 1.5; stroke-linecap: square"/>
    </g>
    <g id="text_21">
     <!-- 16 -->
     <g transform="translate(353.072656 80.514687)scale(0.1 -0.1)">
      <use xlink:href="#DejaVuSans-31"/>
      <use xlink:href="#DejaVuSans-36" x="63.623047"/>
     </g>
    </g>
    <g id="line2d_36">
     <path d="M 325.072656 91.692813 
L 335.072656 91.692813 
L 345.072656 91.692813 
" style="fill: none; stroke: #2ca02c; stroke-width: 1.5; stroke-linecap: square"/>
    </g>
    <g id="text_22">
     <!-- 26 -->
     <g transform="translate(353.072656 95.192813)scale(0.1 -0.1)">
      <use xlink:href="#DejaVuSans-32"/>
      <use xlink:href="#DejaVuSans-36" x="63.623047"/>
     </g>
    </g>
   </g>
  </g>
 </g>
 <defs>
  <clipPath id="p1dd4ed7aa1">
   <rect x="54" y="34.56" width="334.8" height="217.44"/>
  </clipPath>
 </defs>
</svg>
