<?xml version="1.0" encoding="utf-8" standalone="no"?>
<!DOCTYPE svg PUBLIC "-//W3C//DTD SVG 1.1//EN"
  "http://www.w3.org/Graphics/SVG/1.1/DTD/svg11.dtd">
<svg xmlns:xlink="http://www.w3.org/1999/xlink" width="432pt" height="288pt" viewBox="0 0 432 288" xmlns="http://www.w3.org/2000/svg" version="1.1">
 <metadata>
  <rdf:RDF xmlns:dc="http://purl.org/dc/elements/1.1/" xmlns:cc="http://creativecommons.org/ns#" xmlns:rdf="http://www.w3.org/1999/02/22-rdf-syntax-ns#">
   <cc:Work>
    <dc:type rdf:resource="http://purl.org/dc/dcmitype/StillImage"/>
    <dc:date>2022-03-30T13:12:47.553164</dc:date>
    <dc:format>image/svg+xml</dc:format>
    <dc:creator>
     <cc:Agent>
      <dc:title>Matplotlib v3.5.1, https://matplotlib.org/</dc:title>
     </cc:Agent>
    </dc:creator>
   </cc:Work>
  </rdf:RDF>
 </metadata>
 <defs>
  <style type="text/css">*{stroke-linejoin: round; stroke-linecap: butt}</style>
 </defs>
 <g id="figure_1">
  <g id="patch_1">
   <path d="M 0 288 
L 432 288 
L 432 0 
L 0 0 
z
" style="fill: #ffffff"/>
  </g>
  <g id="axes_1">
   <g id="patch_2">
    <path d="M 54 252 
L 388.8 252 
L 388.8 34.56 
L 54 34.56 
z
" style="fill: #ffffff"/>
   </g>
   <g id="matplotlib.axis_1">
    <g id="xtick_1">
     <g id="line2d_1">
      <path d="M 69.218182 252 
L 69.218182 34.56 
" clip-path="url(#pdaad3bf23a)" style="fill: none; stroke: #b0b0b0; stroke-width: 0.8; stroke-linecap: square"/>
     </g>
     <g id="line2d_2">
      <defs>
       <path id="m3bc62a8903" d="M 0 0 
L 0 3.5 
" style="stroke: #000000; stroke-width: 0.8"/>
      </defs>
      <g>
       <use xlink:href="#m3bc62a8903" x="69.218182" y="252" style="stroke: #000000; stroke-width: 0.8"/>
      </g>
     </g>
     <g id="text_1">
      <!-- 0 -->
      <g transform="translate(66.036932 266.598437)scale(0.1 -0.1)">
       <defs>
        <path id="DejaVuSans-30" d="M 2034 4250 
Q 1547 4250 1301 3770 
Q 1056 3291 1056 2328 
Q 1056 1369 1301 889 
Q 1547 409 2034 409 
Q 2525 409 2770 889 
Q 3016 1369 3016 2328 
Q 3016 3291 2770 3770 
Q 2525 4250 2034 4250 
z
M 2034 4750 
Q 2819 4750 3233 4129 
Q 3647 3509 3647 2328 
Q 3647 1150 3233 529 
Q 2819 -91 2034 -91 
Q 1250 -91 836 529 
Q 422 1150 422 2328 
Q 422 3509 836 4129 
Q 1250 4750 2034 4750 
z
" transform="scale(0.015625)"/>
       </defs>
       <use xlink:href="#DejaVuSans-30"/>
      </g>
     </g>
    </g>
    <g id="xtick_2">
     <g id="line2d_3">
      <path d="M 128.780537 252 
L 128.780537 34.56 
" clip-path="url(#pdaad3bf23a)" style="fill: none; stroke: #b0b0b0; stroke-width: 0.8; stroke-linecap: square"/>
     </g>
     <g id="line2d_4">
      <g>
       <use xlink:href="#m3bc62a8903" x="128.780537" y="252" style="stroke: #000000; stroke-width: 0.8"/>
      </g>
     </g>
     <g id="text_2">
      <!-- 100 -->
      <g transform="translate(119.236787 266.598437)scale(0.1 -0.1)">
       <defs>
        <path id="DejaVuSans-31" d="M 794 531 
L 1825 531 
L 1825 4091 
L 703 3866 
L 703 4441 
L 1819 4666 
L 2450 4666 
L 2450 531 
L 3481 531 
L 3481 0 
L 794 0 
L 794 531 
z
" transform="scale(0.015625)"/>
       </defs>
       <use xlink:href="#DejaVuSans-31"/>
       <use xlink:href="#DejaVuSans-30" x="63.623047"/>
       <use xlink:href="#DejaVuSans-30" x="127.246094"/>
      </g>
     </g>
    </g>
    <g id="xtick_3">
     <g id="line2d_5">
      <path d="M 188.342893 252 
L 188.342893 34.56 
" clip-path="url(#pdaad3bf23a)" style="fill: none; stroke: #b0b0b0; stroke-width: 0.8; stroke-linecap: square"/>
     </g>
     <g id="line2d_6">
      <g>
       <use xlink:href="#m3bc62a8903" x="188.342893" y="252" style="stroke: #000000; stroke-width: 0.8"/>
      </g>
     </g>
     <g id="text_3">
      <!-- 200 -->
      <g transform="translate(178.799143 266.598437)scale(0.1 -0.1)">
       <defs>
        <path id="DejaVuSans-32" d="M 1228 531 
L 3431 531 
L 3431 0 
L 469 0 
L 469 531 
Q 828 903 1448 1529 
Q 2069 2156 2228 2338 
Q 2531 2678 2651 2914 
Q 2772 3150 2772 3378 
Q 2772 3750 2511 3984 
Q 2250 4219 1831 4219 
Q 1534 4219 1204 4116 
Q 875 4013 500 3803 
L 500 4441 
Q 881 4594 1212 4672 
Q 1544 4750 1819 4750 
Q 2544 4750 2975 4387 
Q 3406 4025 3406 3419 
Q 3406 3131 3298 2873 
Q 3191 2616 2906 2266 
Q 2828 2175 2409 1742 
Q 1991 1309 1228 531 
z
" transform="scale(0.015625)"/>
       </defs>
       <use xlink:href="#DejaVuSans-32"/>
       <use xlink:href="#DejaVuSans-30" x="63.623047"/>
       <use xlink:href="#DejaVuSans-30" x="127.246094"/>
      </g>
     </g>
    </g>
    <g id="xtick_4">
     <g id="line2d_7">
      <path d="M 247.905248 252 
L 247.905248 34.56 
" clip-path="url(#pdaad3bf23a)" style="fill: none; stroke: #b0b0b0; stroke-width: 0.8; stroke-linecap: square"/>
     </g>
     <g id="line2d_8">
      <g>
       <use xlink:href="#m3bc62a8903" x="247.905248" y="252" style="stroke: #000000; stroke-width: 0.8"/>
      </g>
     </g>
     <g id="text_4">
      <!-- 300 -->
      <g transform="translate(238.361498 266.598437)scale(0.1 -0.1)">
       <defs>
        <path id="DejaVuSans-33" d="M 2597 2516 
Q 3050 2419 3304 2112 
Q 3559 1806 3559 1356 
Q 3559 666 3084 287 
Q 2609 -91 1734 -91 
Q 1441 -91 1130 -33 
Q 819 25 488 141 
L 488 750 
Q 750 597 1062 519 
Q 1375 441 1716 441 
Q 2309 441 2620 675 
Q 2931 909 2931 1356 
Q 2931 1769 2642 2001 
Q 2353 2234 1838 2234 
L 1294 2234 
L 1294 2753 
L 1863 2753 
Q 2328 2753 2575 2939 
Q 2822 3125 2822 3475 
Q 2822 3834 2567 4026 
Q 2313 4219 1838 4219 
Q 1578 4219 1281 4162 
Q 984 4106 628 3988 
L 628 4550 
Q 988 4650 1302 4700 
Q 1616 4750 1894 4750 
Q 2613 4750 3031 4423 
Q 3450 4097 3450 3541 
Q 3450 3153 3228 2886 
Q 3006 2619 2597 2516 
z
" transform="scale(0.015625)"/>
       </defs>
       <use xlink:href="#DejaVuSans-33"/>
       <use xlink:href="#DejaVuSans-30" x="63.623047"/>
       <use xlink:href="#DejaVuSans-30" x="127.246094"/>
      </g>
     </g>
    </g>
    <g id="xtick_5">
     <g id="line2d_9">
      <path d="M 307.467604 252 
L 307.467604 34.56 
" clip-path="url(#pdaad3bf23a)" style="fill: none; stroke: #b0b0b0; stroke-width: 0.8; stroke-linecap: square"/>
     </g>
     <g id="line2d_10">
      <g>
       <use xlink:href="#m3bc62a8903" x="307.467604" y="252" style="stroke: #000000; stroke-width: 0.8"/>
      </g>
     </g>
     <g id="text_5">
      <!-- 400 -->
      <g transform="translate(297.923854 266.598437)scale(0.1 -0.1)">
       <defs>
        <path id="DejaVuSans-34" d="M 2419 4116 
L 825 1625 
L 2419 1625 
L 2419 4116 
z
M 2253 4666 
L 3047 4666 
L 3047 1625 
L 3713 1625 
L 3713 1100 
L 3047 1100 
L 3047 0 
L 2419 0 
L 2419 1100 
L 313 1100 
L 313 1709 
L 2253 4666 
z
" transform="scale(0.015625)"/>
       </defs>
       <use xlink:href="#DejaVuSans-34"/>
       <use xlink:href="#DejaVuSans-30" x="63.623047"/>
       <use xlink:href="#DejaVuSans-30" x="127.246094"/>
      </g>
     </g>
    </g>
    <g id="xtick_6">
     <g id="line2d_11">
      <path d="M 367.029959 252 
L 367.029959 34.56 
" clip-path="url(#pdaad3bf23a)" style="fill: none; stroke: #b0b0b0; stroke-width: 0.8; stroke-linecap: square"/>
     </g>
     <g id="line2d_12">
      <g>
       <use xlink:href="#m3bc62a8903" x="367.029959" y="252" style="stroke: #000000; stroke-width: 0.8"/>
      </g>
     </g>
     <g id="text_6">
      <!-- 500 -->
      <g transform="translate(357.486209 266.598437)scale(0.1 -0.1)">
       <defs>
        <path id="DejaVuSans-35" d="M 691 4666 
L 3169 4666 
L 3169 4134 
L 1269 4134 
L 1269 2991 
Q 1406 3038 1543 3061 
Q 1681 3084 1819 3084 
Q 2600 3084 3056 2656 
Q 3513 2228 3513 1497 
Q 3513 744 3044 326 
Q 2575 -91 1722 -91 
Q 1428 -91 1123 -41 
Q 819 9 494 109 
L 494 744 
Q 775 591 1075 516 
Q 1375 441 1709 441 
Q 2250 441 2565 725 
Q 2881 1009 2881 1497 
Q 2881 1984 2565 2268 
Q 2250 2553 1709 2553 
Q 1456 2553 1204 2497 
Q 953 2441 691 2322 
L 691 4666 
z
" transform="scale(0.015625)"/>
       </defs>
       <use xlink:href="#DejaVuSans-35"/>
       <use xlink:href="#DejaVuSans-30" x="63.623047"/>
       <use xlink:href="#DejaVuSans-30" x="127.246094"/>
      </g>
     </g>
    </g>
    <g id="text_7">
     <!-- bin -->
     <g transform="translate(213.667969 280.276563)scale(0.1 -0.1)">
      <defs>
       <path id="DejaVuSans-62" d="M 3116 1747 
Q 3116 2381 2855 2742 
Q 2594 3103 2138 3103 
Q 1681 3103 1420 2742 
Q 1159 2381 1159 1747 
Q 1159 1113 1420 752 
Q 1681 391 2138 391 
Q 2594 391 2855 752 
Q 3116 1113 3116 1747 
z
M 1159 2969 
Q 1341 3281 1617 3432 
Q 1894 3584 2278 3584 
Q 2916 3584 3314 3078 
Q 3713 2572 3713 1747 
Q 3713 922 3314 415 
Q 2916 -91 2278 -91 
Q 1894 -91 1617 61 
Q 1341 213 1159 525 
L 1159 0 
L 581 0 
L 581 4863 
L 1159 4863 
L 1159 2969 
z
" transform="scale(0.015625)"/>
       <path id="DejaVuSans-69" d="M 603 3500 
L 1178 3500 
L 1178 0 
L 603 0 
L 603 3500 
z
M 603 4863 
L 1178 4863 
L 1178 4134 
L 603 4134 
L 603 4863 
z
" transform="scale(0.015625)"/>
       <path id="DejaVuSans-6e" d="M 3513 2113 
L 3513 0 
L 2938 0 
L 2938 2094 
Q 2938 2591 2744 2837 
Q 2550 3084 2163 3084 
Q 1697 3084 1428 2787 
Q 1159 2491 1159 1978 
L 1159 0 
L 581 0 
L 581 3500 
L 1159 3500 
L 1159 2956 
Q 1366 3272 1645 3428 
Q 1925 3584 2291 3584 
Q 2894 3584 3203 3211 
Q 3513 2838 3513 2113 
z
" transform="scale(0.015625)"/>
      </defs>
      <use xlink:href="#DejaVuSans-62"/>
      <use xlink:href="#DejaVuSans-69" x="63.476562"/>
      <use xlink:href="#DejaVuSans-6e" x="91.259766"/>
     </g>
    </g>
   </g>
   <g id="matplotlib.axis_2">
    <g id="ytick_1">
     <g id="line2d_13">
      <path d="M 54 252 
L 388.8 252 
" clip-path="url(#pdaad3bf23a)" style="fill: none; stroke: #b0b0b0; stroke-width: 0.8; stroke-linecap: square"/>
     </g>
     <g id="line2d_14">
      <defs>
       <path id="mca038e35d5" d="M 0 0 
L -3.5 0 
" style="stroke: #000000; stroke-width: 0.8"/>
      </defs>
      <g>
       <use xlink:href="#mca038e35d5" x="54" y="252" style="stroke: #000000; stroke-width: 0.8"/>
      </g>
     </g>
     <g id="text_8">
      <!-- 0 -->
      <g transform="translate(40.6375 255.799219)scale(0.1 -0.1)">
       <use xlink:href="#DejaVuSans-30"/>
      </g>
     </g>
    </g>
    <g id="ytick_2">
     <g id="line2d_15">
      <path d="M 54 226.418824 
L 388.8 226.418824 
" clip-path="url(#pdaad3bf23a)" style="fill: none; stroke: #b0b0b0; stroke-width: 0.8; stroke-linecap: square"/>
     </g>
     <g id="line2d_16">
      <g>
       <use xlink:href="#mca038e35d5" x="54" y="226.418824" style="stroke: #000000; stroke-width: 0.8"/>
      </g>
     </g>
     <g id="text_9">
      <!-- 200 -->
      <g transform="translate(27.9125 230.218042)scale(0.1 -0.1)">
       <use xlink:href="#DejaVuSans-32"/>
       <use xlink:href="#DejaVuSans-30" x="63.623047"/>
       <use xlink:href="#DejaVuSans-30" x="127.246094"/>
      </g>
     </g>
    </g>
    <g id="ytick_3">
     <g id="line2d_17">
      <path d="M 54 200.837647 
L 388.8 200.837647 
" clip-path="url(#pdaad3bf23a)" style="fill: none; stroke: #b0b0b0; stroke-width: 0.8; stroke-linecap: square"/>
     </g>
     <g id="line2d_18">
      <g>
       <use xlink:href="#mca038e35d5" x="54" y="200.837647" style="stroke: #000000; stroke-width: 0.8"/>
      </g>
     </g>
     <g id="text_10">
      <!-- 400 -->
      <g transform="translate(27.9125 204.636866)scale(0.1 -0.1)">
       <use xlink:href="#DejaVuSans-34"/>
       <use xlink:href="#DejaVuSans-30" x="63.623047"/>
       <use xlink:href="#DejaVuSans-30" x="127.246094"/>
      </g>
     </g>
    </g>
    <g id="ytick_4">
     <g id="line2d_19">
      <path d="M 54 175.256471 
L 388.8 175.256471 
" clip-path="url(#pdaad3bf23a)" style="fill: none; stroke: #b0b0b0; stroke-width: 0.8; stroke-linecap: square"/>
     </g>
     <g id="line2d_20">
      <g>
       <use xlink:href="#mca038e35d5" x="54" y="175.256471" style="stroke: #000000; stroke-width: 0.8"/>
      </g>
     </g>
     <g id="text_11">
      <!-- 600 -->
      <g transform="translate(27.9125 179.055689)scale(0.1 -0.1)">
       <defs>
        <path id="DejaVuSans-36" d="M 2113 2584 
Q 1688 2584 1439 2293 
Q 1191 2003 1191 1497 
Q 1191 994 1439 701 
Q 1688 409 2113 409 
Q 2538 409 2786 701 
Q 3034 994 3034 1497 
Q 3034 2003 2786 2293 
Q 2538 2584 2113 2584 
z
M 3366 4563 
L 3366 3988 
Q 3128 4100 2886 4159 
Q 2644 4219 2406 4219 
Q 1781 4219 1451 3797 
Q 1122 3375 1075 2522 
Q 1259 2794 1537 2939 
Q 1816 3084 2150 3084 
Q 2853 3084 3261 2657 
Q 3669 2231 3669 1497 
Q 3669 778 3244 343 
Q 2819 -91 2113 -91 
Q 1303 -91 875 529 
Q 447 1150 447 2328 
Q 447 3434 972 4092 
Q 1497 4750 2381 4750 
Q 2619 4750 2861 4703 
Q 3103 4656 3366 4563 
z
" transform="scale(0.015625)"/>
       </defs>
       <use xlink:href="#DejaVuSans-36"/>
       <use xlink:href="#DejaVuSans-30" x="63.623047"/>
       <use xlink:href="#DejaVuSans-30" x="127.246094"/>
      </g>
     </g>
    </g>
    <g id="ytick_5">
     <g id="line2d_21">
      <path d="M 54 149.675294 
L 388.8 149.675294 
" clip-path="url(#pdaad3bf23a)" style="fill: none; stroke: #b0b0b0; stroke-width: 0.8; stroke-linecap: square"/>
     </g>
     <g id="line2d_22">
      <g>
       <use xlink:href="#mca038e35d5" x="54" y="149.675294" style="stroke: #000000; stroke-width: 0.8"/>
      </g>
     </g>
     <g id="text_12">
      <!-- 800 -->
      <g transform="translate(27.9125 153.474513)scale(0.1 -0.1)">
       <defs>
        <path id="DejaVuSans-38" d="M 2034 2216 
Q 1584 2216 1326 1975 
Q 1069 1734 1069 1313 
Q 1069 891 1326 650 
Q 1584 409 2034 409 
Q 2484 409 2743 651 
Q 3003 894 3003 1313 
Q 3003 1734 2745 1975 
Q 2488 2216 2034 2216 
z
M 1403 2484 
Q 997 2584 770 2862 
Q 544 3141 544 3541 
Q 544 4100 942 4425 
Q 1341 4750 2034 4750 
Q 2731 4750 3128 4425 
Q 3525 4100 3525 3541 
Q 3525 3141 3298 2862 
Q 3072 2584 2669 2484 
Q 3125 2378 3379 2068 
Q 3634 1759 3634 1313 
Q 3634 634 3220 271 
Q 2806 -91 2034 -91 
Q 1263 -91 848 271 
Q 434 634 434 1313 
Q 434 1759 690 2068 
Q 947 2378 1403 2484 
z
M 1172 3481 
Q 1172 3119 1398 2916 
Q 1625 2713 2034 2713 
Q 2441 2713 2670 2916 
Q 2900 3119 2900 3481 
Q 2900 3844 2670 4047 
Q 2441 4250 2034 4250 
Q 1625 4250 1398 4047 
Q 1172 3844 1172 3481 
z
" transform="scale(0.015625)"/>
       </defs>
       <use xlink:href="#DejaVuSans-38"/>
       <use xlink:href="#DejaVuSans-30" x="63.623047"/>
       <use xlink:href="#DejaVuSans-30" x="127.246094"/>
      </g>
     </g>
    </g>
    <g id="ytick_6">
     <g id="line2d_23">
      <path d="M 54 124.094118 
L 388.8 124.094118 
" clip-path="url(#pdaad3bf23a)" style="fill: none; stroke: #b0b0b0; stroke-width: 0.8; stroke-linecap: square"/>
     </g>
     <g id="line2d_24">
      <g>
       <use xlink:href="#mca038e35d5" x="54" y="124.094118" style="stroke: #000000; stroke-width: 0.8"/>
      </g>
     </g>
     <g id="text_13">
      <!-- 1000 -->
      <g transform="translate(21.55 127.893336)scale(0.1 -0.1)">
       <use xlink:href="#DejaVuSans-31"/>
       <use xlink:href="#DejaVuSans-30" x="63.623047"/>
       <use xlink:href="#DejaVuSans-30" x="127.246094"/>
       <use xlink:href="#DejaVuSans-30" x="190.869141"/>
      </g>
     </g>
    </g>
    <g id="ytick_7">
     <g id="line2d_25">
      <path d="M 54 98.512941 
L 388.8 98.512941 
" clip-path="url(#pdaad3bf23a)" style="fill: none; stroke: #b0b0b0; stroke-width: 0.8; stroke-linecap: square"/>
     </g>
     <g id="line2d_26">
      <g>
       <use xlink:href="#mca038e35d5" x="54" y="98.512941" style="stroke: #000000; stroke-width: 0.8"/>
      </g>
     </g>
     <g id="text_14">
      <!-- 1200 -->
      <g transform="translate(21.55 102.31216)scale(0.1 -0.1)">
       <use xlink:href="#DejaVuSans-31"/>
       <use xlink:href="#DejaVuSans-32" x="63.623047"/>
       <use xlink:href="#DejaVuSans-30" x="127.246094"/>
       <use xlink:href="#DejaVuSans-30" x="190.869141"/>
      </g>
     </g>
    </g>
    <g id="ytick_8">
     <g id="line2d_27">
      <path d="M 54 72.931765 
L 388.8 72.931765 
" clip-path="url(#pdaad3bf23a)" style="fill: none; stroke: #b0b0b0; stroke-width: 0.8; stroke-linecap: square"/>
     </g>
     <g id="line2d_28">
      <g>
       <use xlink:href="#mca038e35d5" x="54" y="72.931765" style="stroke: #000000; stroke-width: 0.8"/>
      </g>
     </g>
     <g id="text_15">
      <!-- 1400 -->
      <g transform="translate(21.55 76.730983)scale(0.1 -0.1)">
       <use xlink:href="#DejaVuSans-31"/>
       <use xlink:href="#DejaVuSans-34" x="63.623047"/>
       <use xlink:href="#DejaVuSans-30" x="127.246094"/>
       <use xlink:href="#DejaVuSans-30" x="190.869141"/>
      </g>
     </g>
    </g>
    <g id="ytick_9">
     <g id="line2d_29">
      <path d="M 54 47.350588 
L 388.8 47.350588 
" clip-path="url(#pdaad3bf23a)" style="fill: none; stroke: #b0b0b0; stroke-width: 0.8; stroke-linecap: square"/>
     </g>
     <g id="line2d_30">
      <g>
       <use xlink:href="#mca038e35d5" x="54" y="47.350588" style="stroke: #000000; stroke-width: 0.8"/>
      </g>
     </g>
     <g id="text_16">
      <!-- 1600 -->
      <g transform="translate(21.55 51.149807)scale(0.1 -0.1)">
       <use xlink:href="#DejaVuSans-31"/>
       <use xlink:href="#DejaVuSans-36" x="63.623047"/>
       <use xlink:href="#DejaVuSans-30" x="127.246094"/>
       <use xlink:href="#DejaVuSans-30" x="190.869141"/>
      </g>
     </g>
    </g>
    <g id="text_17">
     <!-- count -->
     <g transform="translate(15.470312 157.38625)rotate(-90)scale(0.1 -0.1)">
      <defs>
       <path id="DejaVuSans-63" d="M 3122 3366 
L 3122 2828 
Q 2878 2963 2633 3030 
Q 2388 3097 2138 3097 
Q 1578 3097 1268 2742 
Q 959 2388 959 1747 
Q 959 1106 1268 751 
Q 1578 397 2138 397 
Q 2388 397 2633 464 
Q 2878 531 3122 666 
L 3122 134 
Q 2881 22 2623 -34 
Q 2366 -91 2075 -91 
Q 1284 -91 818 406 
Q 353 903 353 1747 
Q 353 2603 823 3093 
Q 1294 3584 2113 3584 
Q 2378 3584 2631 3529 
Q 2884 3475 3122 3366 
z
" transform="scale(0.015625)"/>
       <path id="DejaVuSans-6f" d="M 1959 3097 
Q 1497 3097 1228 2736 
Q 959 2375 959 1747 
Q 959 1119 1226 758 
Q 1494 397 1959 397 
Q 2419 397 2687 759 
Q 2956 1122 2956 1747 
Q 2956 2369 2687 2733 
Q 2419 3097 1959 3097 
z
M 1959 3584 
Q 2709 3584 3137 3096 
Q 3566 2609 3566 1747 
Q 3566 888 3137 398 
Q 2709 -91 1959 -91 
Q 1206 -91 779 398 
Q 353 888 353 1747 
Q 353 2609 779 3096 
Q 1206 3584 1959 3584 
z
" transform="scale(0.015625)"/>
       <path id="DejaVuSans-75" d="M 544 1381 
L 544 3500 
L 1119 3500 
L 1119 1403 
Q 1119 906 1312 657 
Q 1506 409 1894 409 
Q 2359 409 2629 706 
Q 2900 1003 2900 1516 
L 2900 3500 
L 3475 3500 
L 3475 0 
L 2900 0 
L 2900 538 
Q 2691 219 2414 64 
Q 2138 -91 1772 -91 
Q 1169 -91 856 284 
Q 544 659 544 1381 
z
M 1991 3584 
L 1991 3584 
z
" transform="scale(0.015625)"/>
       <path id="DejaVuSans-74" d="M 1172 4494 
L 1172 3500 
L 2356 3500 
L 2356 3053 
L 1172 3053 
L 1172 1153 
Q 1172 725 1289 603 
Q 1406 481 1766 481 
L 2356 481 
L 2356 0 
L 1766 0 
Q 1100 0 847 248 
Q 594 497 594 1153 
L 594 3053 
L 172 3053 
L 172 3500 
L 594 3500 
L 594 4494 
L 1172 4494 
z
" transform="scale(0.015625)"/>
      </defs>
      <use xlink:href="#DejaVuSans-63"/>
      <use xlink:href="#DejaVuSans-6f" x="54.980469"/>
      <use xlink:href="#DejaVuSans-75" x="116.162109"/>
      <use xlink:href="#DejaVuSans-6e" x="179.541016"/>
      <use xlink:href="#DejaVuSans-74" x="242.919922"/>
     </g>
    </g>
   </g>
   <g id="line2d_31">
    <path d="M 69.218182 200.965553 
L 69.813805 203.907388 
L 70.409429 200.581835 
L 71.005052 200.965553 
L 71.600676 199.8144 
L 72.1963 203.012047 
L 72.791923 200.709741 
L 73.387547 202.116706 
L 73.98317 195.849318 
L 74.578794 201.093459 
L 75.174417 200.837647 
L 75.770041 203.907388 
L 76.365664 202.628329 
L 76.961288 202.244612 
L 77.556912 200.965553 
L 78.152535 200.453929 
L 78.748159 203.139953 
L 79.343782 199.174871 
L 79.939406 198.023718 
L 80.535029 198.919059 
L 81.130653 200.709741 
L 81.726276 199.686494 
L 82.3219 200.965553 
L 82.917524 201.349271 
L 83.513147 204.419012 
L 84.108771 201.9888 
L 84.704394 202.884141 
L 85.300018 200.965553 
L 85.895641 197.767906 
L 86.491265 203.523671 
L 87.086888 200.837647 
L 87.682512 196.872565 
L 88.278136 203.651576 
L 88.873759 199.302776 
L 89.469383 201.9888 
L 90.66063 200.326024 
L 91.256253 202.756235 
L 91.851877 203.395765 
L 92.4475 204.546918 
L 93.043124 202.756235 
L 93.638748 198.023718 
L 94.234371 206.081788 
L 94.829995 206.465506 
L 95.425618 199.942306 
L 96.021242 199.942306 
L 96.616865 201.477176 
L 97.212489 195.977224 
L 97.808112 200.837647 
L 98.99936 198.407435 
L 99.594983 197.64 
L 100.190607 198.919059 
L 101.977477 206.081788 
L 102.573101 196.488847 
L 103.168724 200.581835 
L 103.764348 201.093459 
L 104.359972 198.663247 
L 104.955595 202.244612 
L 105.551219 202.500424 
L 106.146842 201.605082 
L 106.742466 204.419012 
L 107.338089 199.430682 
L 107.933713 207.105035 
L 108.529336 202.756235 
L 109.12496 200.326024 
L 109.720584 197.256282 
L 110.316207 199.174871 
L 110.911831 199.302776 
L 111.507454 198.151624 
L 112.103078 203.651576 
L 112.698701 203.907388 
L 113.889948 200.326024 
L 114.485572 201.349271 
L 115.081196 204.035294 
L 115.676819 199.942306 
L 116.272443 199.942306 
L 116.868066 205.186447 
L 117.46369 203.267859 
L 118.059313 199.686494 
L 118.654937 201.093459 
L 119.25056 199.8144 
L 119.846184 200.709741 
L 120.441808 201.221365 
L 121.037431 203.012047 
L 121.633055 202.884141 
L 122.228678 200.581835 
L 122.824302 199.302776 
L 123.419925 204.802729 
L 124.015549 201.349271 
L 124.611172 201.9888 
L 125.206796 197.384188 
L 126.398043 201.860894 
L 126.993667 199.558588 
L 127.58929 196.744659 
L 128.184914 204.419012 
L 128.780537 204.291106 
L 129.376161 199.558588 
L 129.971784 197.895812 
L 130.567408 200.581835 
L 131.163031 198.407435 
L 131.758655 200.709741 
L 132.354279 200.070212 
L 132.949902 204.419012 
L 133.545526 201.093459 
L 134.141149 200.326024 
L 134.736773 201.477176 
L 135.332396 200.453929 
L 135.92802 202.500424 
L 136.523643 196.360941 
L 137.119267 196.616753 
L 137.714891 195.4656 
L 138.310514 202.884141 
L 138.906138 207.488753 
L 139.501761 205.953882 
L 140.097385 202.500424 
L 140.693008 204.546918 
L 141.288632 200.326024 
L 141.884255 202.372518 
L 142.479879 200.070212 
L 143.075503 198.279529 
L 143.671126 201.9888 
L 144.26675 196.233035 
L 144.862373 205.442259 
L 145.457997 203.651576 
L 146.05362 202.244612 
L 147.244867 206.465506 
L 147.840491 199.046965 
L 148.436115 203.267859 
L 149.031738 203.651576 
L 149.627362 200.453929 
L 150.222985 201.605082 
L 150.818609 205.058541 
L 151.414232 198.023718 
L 152.009856 198.919059 
L 152.605479 203.907388 
L 153.201103 199.302776 
L 153.796727 201.860894 
L 154.39235 200.070212 
L 154.987974 201.605082 
L 155.583597 196.872565 
L 156.179221 199.046965 
L 156.774844 203.907388 
L 157.370468 202.756235 
L 157.966091 207.232941 
L 158.561715 197.512094 
L 159.157339 199.302776 
L 159.752962 199.430682 
L 160.348586 202.884141 
L 160.944209 204.419012 
L 161.539833 203.012047 
L 162.135456 204.674824 
L 162.73108 201.732988 
L 163.326703 200.837647 
L 163.922327 197.128376 
L 164.517951 198.791153 
L 165.113574 199.558588 
L 165.709198 202.756235 
L 166.304821 200.070212 
L 166.900445 198.663247 
L 167.496068 201.860894 
L 168.091692 201.9888 
L 168.687315 198.919059 
L 169.282939 199.8144 
L 169.878563 203.779482 
L 170.474186 196.360941 
L 171.06981 204.674824 
L 171.665433 203.523671 
L 172.261057 203.651576 
L 172.85668 201.221365 
L 173.452304 200.837647 
L 174.047927 207.232941 
L 174.643551 197.384188 
L 175.239175 197.128376 
L 175.834798 203.395765 
L 176.430422 204.419012 
L 177.026045 200.326024 
L 177.621669 201.732988 
L 178.217292 200.581835 
L 178.812916 204.419012 
L 179.408539 201.732988 
L 180.004163 197.512094 
L 180.599787 202.244612 
L 181.19541 195.337694 
L 181.791034 198.919059 
L 182.386657 196.872565 
L 182.982281 202.756235 
L 183.577904 199.686494 
L 184.173528 206.209694 
L 184.769151 201.093459 
L 185.364775 200.965553 
L 185.960399 205.442259 
L 186.556022 202.756235 
L 187.151646 199.046965 
L 187.747269 206.849224 
L 188.342893 199.302776 
L 188.938516 198.151624 
L 189.53414 198.407435 
L 190.129763 195.337694 
L 190.725387 194.186541 
L 191.32101 189.198212 
L 191.916634 186.895906 
L 193.107881 169.3728 
L 194.299128 158.5008 
L 194.894752 146.861365 
L 195.490375 144.559059 
L 196.681622 126.908047 
L 197.277246 123.454588 
L 198.468493 130.873129 
L 199.064117 132.280094 
L 199.65974 125.628988 
L 200.255364 127.675482 
L 200.850987 130.489412 
L 202.637858 117.315106 
L 203.233482 128.187106 
L 203.829105 120.896471 
L 204.424729 122.431341 
L 205.020352 119.105788 
L 205.615976 126.268518 
L 206.211599 125.245271 
L 206.807223 133.814965 
L 207.402846 147.6288 
L 207.99847 157.221741 
L 208.594094 164.000753 
L 209.785341 184.465694 
L 210.380964 184.209882 
L 210.976588 193.163294 
L 211.572211 190.605176 
L 212.167835 202.244612 
L 212.763458 199.558588 
L 213.359082 198.535341 
L 213.954706 197.128376 
L 214.550329 183.698259 
L 215.145953 199.302776 
L 215.741576 197.000471 
L 216.3372 203.012047 
L 216.932823 198.919059 
L 217.528447 201.860894 
L 218.12407 198.023718 
L 218.719694 197.256282 
L 219.315318 202.756235 
L 219.910941 198.407435 
L 220.506565 199.686494 
L 221.102188 205.698071 
L 221.697812 199.686494 
L 222.293435 196.872565 
L 222.889059 199.558588 
L 223.484682 205.953882 
L 224.080306 200.453929 
L 224.67593 205.314353 
L 225.271553 199.686494 
L 225.867177 202.244612 
L 226.4628 202.116706 
L 227.058424 201.093459 
L 227.654047 201.349271 
L 228.249671 199.430682 
L 228.845294 198.663247 
L 229.440918 200.581835 
L 230.036542 200.709741 
L 230.632165 198.919059 
L 231.227789 199.430682 
L 232.419036 206.209694 
L 233.014659 198.407435 
L 233.610283 205.186447 
L 234.205906 204.419012 
L 234.80153 199.8144 
L 235.397154 196.105129 
L 235.992777 203.395765 
L 236.588401 197.384188 
L 237.184024 203.139953 
L 237.779648 202.500424 
L 238.375271 200.965553 
L 238.970895 202.500424 
L 239.566518 199.302776 
L 240.162142 197.895812 
L 240.757766 199.686494 
L 241.353389 205.570165 
L 241.949013 198.023718 
L 242.544636 199.686494 
L 243.14026 202.756235 
L 243.735883 204.291106 
L 244.331507 201.093459 
L 244.92713 202.244612 
L 245.522754 197.767906 
L 246.118378 197.895812 
L 246.714001 199.8144 
L 247.309625 202.884141 
L 247.905248 199.686494 
L 249.096495 200.581835 
L 249.692119 200.581835 
L 250.287742 200.198118 
L 250.883366 201.093459 
L 251.47899 201.221365 
L 252.074613 203.651576 
L 253.26586 197.128376 
L 253.861484 197.767906 
L 255.052731 202.244612 
L 255.648354 202.500424 
L 256.243978 203.139953 
L 256.839601 202.372518 
L 257.435225 201.349271 
L 258.030849 200.965553 
L 258.626472 194.314447 
L 259.222096 200.070212 
L 259.817719 204.419012 
L 260.413343 205.953882 
L 261.008966 199.174871 
L 261.60459 197.64 
L 262.200213 198.791153 
L 262.795837 200.198118 
L 263.391461 202.372518 
L 263.987084 200.453929 
L 264.582708 204.419012 
L 265.178331 204.035294 
L 265.773955 203.267859 
L 266.369578 203.139953 
L 266.965202 204.419012 
L 267.560825 200.709741 
L 268.156449 202.756235 
L 268.752073 203.267859 
L 269.347696 198.919059 
L 270.538943 202.372518 
L 271.134567 200.965553 
L 271.73019 201.477176 
L 272.325814 200.581835 
L 272.921437 198.791153 
L 273.517061 202.116706 
L 274.112685 201.860894 
L 274.708308 199.302776 
L 275.303932 203.012047 
L 275.899555 205.825976 
L 276.495179 202.244612 
L 277.090802 204.930635 
L 277.686426 201.477176 
L 278.282049 203.395765 
L 278.877673 202.756235 
L 279.473297 202.756235 
L 280.06892 202.500424 
L 280.664544 205.825976 
L 281.260167 202.244612 
L 281.855791 201.732988 
L 282.451414 201.9888 
L 283.047038 205.314353 
L 283.642661 203.012047 
L 284.238285 201.605082 
L 284.833909 201.349271 
L 285.429532 202.884141 
L 286.025156 199.430682 
L 286.620779 203.267859 
L 287.216403 201.221365 
L 287.812026 201.860894 
L 288.40765 196.105129 
L 289.003273 202.116706 
L 289.598897 199.302776 
L 290.194521 203.651576 
L 290.790144 200.198118 
L 291.981391 202.244612 
L 292.577015 202.372518 
L 293.172638 200.965553 
L 293.768262 199.174871 
L 294.363885 201.732988 
L 294.959509 203.779482 
L 295.555133 203.523671 
L 296.150756 201.349271 
L 296.74638 203.395765 
L 297.342003 197.512094 
L 297.937627 198.407435 
L 298.53325 201.349271 
L 299.128874 203.012047 
L 299.724497 202.116706 
L 300.320121 203.267859 
L 300.915745 202.244612 
L 301.511368 202.500424 
L 302.106992 199.8144 
L 302.702615 204.035294 
L 303.298239 198.791153 
L 303.893862 196.233035 
L 304.489486 203.139953 
L 305.085109 199.174871 
L 305.680733 203.012047 
L 306.276357 205.442259 
L 306.87198 198.023718 
L 307.467604 202.884141 
L 308.063227 205.186447 
L 308.658851 198.407435 
L 309.254474 205.058541 
L 309.850098 200.326024 
L 310.445721 198.279529 
L 311.041345 199.686494 
L 311.636969 200.070212 
L 312.232592 200.837647 
L 312.828216 200.581835 
L 313.423839 200.453929 
L 314.019463 202.500424 
L 314.615086 201.477176 
L 315.21071 200.070212 
L 315.806333 204.802729 
L 316.401957 197.512094 
L 316.997581 201.477176 
L 318.188828 200.965553 
L 319.380075 200.326024 
L 319.975698 200.070212 
L 320.571322 205.570165 
L 321.166945 198.791153 
L 321.762569 201.732988 
L 322.358192 200.198118 
L 322.953816 202.628329 
L 323.54944 199.430682 
L 324.145063 200.326024 
L 324.740687 203.012047 
L 325.33631 203.012047 
L 325.931934 201.221365 
L 326.527557 200.581835 
L 327.123181 198.535341 
L 327.718804 200.453929 
L 328.314428 198.023718 
L 328.910052 196.872565 
L 329.505675 203.779482 
L 330.101299 201.732988 
L 330.696922 201.349271 
L 331.292546 199.174871 
L 331.888169 202.756235 
L 332.483793 200.837647 
L 333.079416 200.070212 
L 333.67504 200.581835 
L 334.270664 198.407435 
L 335.461911 201.9888 
L 336.057534 200.709741 
L 336.653158 201.9888 
L 337.248781 204.419012 
L 337.844405 198.151624 
L 338.440028 197.384188 
L 339.035652 203.523671 
L 339.631276 195.337694 
L 340.226899 201.349271 
L 340.822523 198.791153 
L 341.418146 201.477176 
L 342.01377 199.174871 
L 342.609393 199.558588 
L 343.205017 200.581835 
L 343.80064 200.709741 
L 344.396264 203.012047 
L 344.991888 203.012047 
L 345.587511 202.628329 
L 346.183135 201.860894 
L 346.778758 202.756235 
L 347.374382 198.663247 
L 347.970005 200.965553 
L 348.565629 202.244612 
L 349.161252 197.64 
L 350.3525 201.605082 
L 350.948123 197.000471 
L 351.543747 204.674824 
L 352.13937 197.256282 
L 352.734994 197.64 
L 353.330617 200.709741 
L 353.926241 200.709741 
L 354.521864 202.500424 
L 355.117488 196.488847 
L 355.713112 204.291106 
L 356.308735 202.884141 
L 356.904359 203.651576 
L 357.499982 202.372518 
L 358.095606 199.942306 
L 358.691229 201.477176 
L 359.286853 207.105035 
L 359.882476 203.523671 
L 360.4781 204.930635 
L 361.073724 201.477176 
L 361.669347 200.070212 
L 362.264971 202.756235 
L 362.860594 204.291106 
L 363.456218 203.267859 
L 364.051841 199.942306 
L 364.647465 200.326024 
L 365.243088 195.849318 
L 365.838712 201.605082 
L 366.434336 198.535341 
L 367.029959 205.186447 
L 368.81683 198.919059 
L 369.412453 201.605082 
L 370.6037 195.081882 
L 371.199324 200.581835 
L 371.794948 203.267859 
L 372.390571 200.965553 
L 372.986195 199.558588 
L 373.581818 198.663247 
L 373.581818 198.663247 
" clip-path="url(#pdaad3bf23a)" style="fill: none; stroke: #1f77b4; stroke-width: 1.5; stroke-linecap: square"/>
   </g>
   <g id="line2d_32">
    <path d="M 69.218182 186.512188 
L 69.813805 184.081976 
L 70.409429 189.070306 
L 71.005052 188.686588 
L 71.600676 191.756329 
L 72.1963 184.721506 
L 72.791923 185.616847 
L 73.387547 188.558682 
L 73.98317 183.058729 
L 74.578794 189.198212 
L 75.174417 187.023812 
L 75.770041 179.349459 
L 76.365664 187.535435 
L 76.961288 182.035482 
L 77.556912 190.733082 
L 78.152535 188.814494 
L 78.748159 187.663341 
L 79.343782 187.407529 
L 79.939406 184.977318 
L 80.535029 190.860988 
L 81.130653 189.454024 
L 81.726276 190.733082 
L 82.3219 187.279624 
L 82.917524 187.279624 
L 83.513147 187.023812 
L 84.108771 189.581929 
L 84.704394 185.744753 
L 85.300018 184.5936 
L 85.895641 182.163388 
L 86.491265 188.174965 
L 87.086888 189.070306 
L 87.682512 188.047059 
L 88.278136 187.407529 
L 88.873759 184.081976 
L 89.469383 186.384282 
L 90.065006 184.721506 
L 90.66063 184.337788 
L 91.256253 187.791247 
L 91.851877 190.221459 
L 92.4475 187.407529 
L 93.043124 187.151718 
L 93.638748 189.837741 
L 94.234371 191.628424 
L 94.829995 188.558682 
L 95.425618 188.814494 
L 96.021242 183.954071 
L 96.616865 184.721506 
L 97.212489 184.721506 
L 97.808112 189.326118 
L 98.403736 183.314541 
L 98.99936 191.372612 
L 99.594983 182.291294 
L 100.190607 184.337788 
L 100.78623 183.570353 
L 101.381854 186.512188 
L 101.977477 186.640094 
L 102.573101 189.326118 
L 103.168724 184.721506 
L 103.764348 192.779576 
L 104.359972 181.012235 
L 104.955595 184.5936 
L 105.551219 185.488941 
L 106.146842 188.174965 
L 106.742466 186.384282 
L 107.338089 189.326118 
L 107.933713 190.605176 
L 108.529336 183.954071 
L 109.12496 182.930824 
L 109.720584 185.105224 
L 110.316207 189.326118 
L 110.911831 184.721506 
L 111.507454 187.407529 
L 112.103078 188.430776 
L 112.698701 191.628424 
L 113.889948 188.047059 
L 114.485572 188.174965 
L 115.081196 188.558682 
L 115.676819 188.558682 
L 116.272443 189.709835 
L 116.868066 186.640094 
L 117.46369 180.116894 
L 118.059313 183.698259 
L 118.654937 184.977318 
L 119.25056 185.361035 
L 119.846184 185.233129 
L 120.441808 187.663341 
L 121.037431 189.581929 
L 121.633055 181.651765 
L 122.228678 180.884329 
L 122.824302 186.512188 
L 123.419925 183.442447 
L 124.015549 185.872659 
L 124.611172 187.535435 
L 125.206796 188.558682 
L 125.802419 187.535435 
L 126.398043 187.279624 
L 126.993667 182.675012 
L 127.58929 190.860988 
L 128.184914 186.128471 
L 128.780537 189.709835 
L 129.376161 188.686588 
L 129.971784 187.151718 
L 130.567408 182.802918 
L 131.163031 187.023812 
L 131.758655 188.9424 
L 132.354279 189.454024 
L 132.949902 185.105224 
L 133.545526 184.465694 
L 134.141149 190.093553 
L 134.736773 188.430776 
L 135.332396 183.186635 
L 135.92802 189.070306 
L 136.523643 189.326118 
L 137.119267 191.372612 
L 137.714891 187.407529 
L 138.310514 186.895906 
L 138.906138 183.698259 
L 139.501761 186.384282 
L 140.097385 186.895906 
L 140.693008 187.151718 
L 141.288632 187.023812 
L 141.884255 185.233129 
L 142.479879 189.709835 
L 143.075503 183.058729 
L 143.671126 186.512188 
L 144.26675 183.954071 
L 144.862373 188.302871 
L 145.457997 187.151718 
L 146.05362 188.302871 
L 146.649244 183.058729 
L 147.244867 187.151718 
L 147.840491 188.302871 
L 148.436115 189.070306 
L 149.031738 187.023812 
L 150.222985 184.337788 
L 150.818609 186.256376 
L 151.414232 190.349365 
L 152.009856 185.361035 
L 152.605479 189.070306 
L 153.201103 187.279624 
L 153.796727 189.581929 
L 154.987974 182.035482 
L 155.583597 184.465694 
L 156.179221 182.930824 
L 156.774844 184.209882 
L 157.370468 182.4192 
L 157.966091 191.1168 
L 158.561715 184.465694 
L 159.157339 187.279624 
L 159.752962 186.768 
L 160.348586 185.744753 
L 160.944209 182.930824 
L 161.539833 185.105224 
L 162.135456 186.512188 
L 162.73108 181.651765 
L 163.326703 173.465788 
L 163.922327 178.837835 
L 164.517951 166.558871 
L 165.113574 160.931012 
L 165.709198 146.989271 
L 166.304821 147.756706 
L 167.496068 120.001129 
L 168.091692 111.175624 
L 168.687315 106.826824 
L 169.282939 94.292047 
L 169.878563 94.036235 
L 170.474186 98.896659 
L 171.06981 90.966494 
L 171.665433 99.408282 
L 172.261057 93.652518 
L 172.85668 106.187294 
L 174.047927 94.036235 
L 174.643551 97.489694 
L 175.239175 95.954824 
L 175.834798 90.582776 
L 176.430422 90.199059 
L 177.026045 92.373459 
L 177.621669 89.303718 
L 178.812916 101.710588 
L 179.408539 106.954729 
L 180.004163 128.698729 
L 180.599787 134.326588 
L 181.791034 156.582212 
L 182.386657 165.791435 
L 182.982281 173.082071 
L 183.577904 183.314541 
L 184.173528 184.209882 
L 184.769151 185.616847 
L 185.364775 189.198212 
L 185.960399 189.454024 
L 186.556022 186.000565 
L 187.151646 164.000753 
L 187.747269 188.814494 
L 188.342893 192.779576 
L 188.938516 184.337788 
L 189.53414 185.105224 
L 190.129763 187.535435 
L 190.725387 189.454024 
L 191.32101 185.488941 
L 191.916634 184.081976 
L 192.512258 188.174965 
L 193.107881 188.174965 
L 193.703505 181.140141 
L 194.299128 187.919153 
L 194.894752 186.384282 
L 195.490375 188.686588 
L 196.085999 189.965647 
L 196.681622 184.209882 
L 197.277246 187.407529 
L 197.87287 188.558682 
L 198.468493 191.372612 
L 199.064117 185.105224 
L 199.65974 186.000565 
L 200.255364 190.349365 
L 200.850987 186.768 
L 201.446611 188.430776 
L 202.042234 186.384282 
L 202.637858 187.407529 
L 203.233482 191.628424 
L 203.829105 189.965647 
L 204.424729 186.512188 
L 205.020352 187.791247 
L 205.615976 183.826165 
L 206.807223 186.895906 
L 207.402846 186.512188 
L 207.99847 184.721506 
L 208.594094 183.314541 
L 209.189717 183.826165 
L 209.785341 185.488941 
L 210.380964 186.000565 
L 210.976588 186.256376 
L 211.572211 188.558682 
L 212.167835 184.849412 
L 212.763458 186.640094 
L 213.359082 186.256376 
L 213.954706 188.686588 
L 214.550329 186.512188 
L 215.145953 181.779671 
L 215.741576 185.616847 
L 216.3372 187.919153 
L 216.932823 183.058729 
L 217.528447 185.233129 
L 218.12407 188.686588 
L 218.719694 187.279624 
L 219.315318 181.907576 
L 219.910941 189.198212 
L 220.506565 183.826165 
L 221.102188 186.512188 
L 221.697812 178.709929 
L 222.293435 194.058635 
L 222.889059 191.500518 
L 223.484682 187.663341 
L 224.080306 188.558682 
L 224.67593 182.930824 
L 225.271553 189.837741 
L 225.867177 194.186541 
L 226.4628 182.930824 
L 227.058424 190.349365 
L 227.654047 188.047059 
L 228.249671 188.9424 
L 228.845294 182.035482 
L 229.440918 187.407529 
L 230.036542 190.605176 
L 230.632165 184.465694 
L 231.227789 186.128471 
L 231.823412 184.209882 
L 232.419036 188.430776 
L 233.014659 195.209788 
L 233.610283 187.663341 
L 234.205906 183.186635 
L 234.80153 186.768 
L 235.397154 183.698259 
L 235.992777 188.047059 
L 236.588401 183.314541 
L 237.184024 185.233129 
L 237.779648 186.128471 
L 238.375271 186.128471 
L 238.970895 189.837741 
L 239.566518 185.488941 
L 240.162142 189.198212 
L 240.757766 181.395953 
L 241.353389 185.744753 
L 241.949013 188.814494 
L 242.544636 184.977318 
L 243.14026 190.733082 
L 243.735883 185.233129 
L 244.331507 190.221459 
L 244.92713 187.279624 
L 245.522754 188.430776 
L 246.118378 187.535435 
L 246.714001 187.151718 
L 247.309625 185.872659 
L 247.905248 181.140141 
L 248.500872 183.826165 
L 249.096495 188.047059 
L 249.692119 189.581929 
L 250.287742 185.488941 
L 251.47899 186.640094 
L 252.074613 184.209882 
L 252.670237 183.954071 
L 253.26586 190.988894 
L 253.861484 182.547106 
L 254.457107 187.023812 
L 255.052731 190.221459 
L 256.243978 186.768 
L 256.839601 182.930824 
L 257.435225 186.768 
L 258.030849 188.9424 
L 258.626472 186.256376 
L 259.222096 186.512188 
L 259.817719 182.675012 
L 261.008966 187.023812 
L 261.60459 187.151718 
L 262.200213 184.977318 
L 262.795837 188.814494 
L 263.391461 184.977318 
L 263.987084 183.826165 
L 264.582708 188.558682 
L 265.178331 183.186635 
L 265.773955 187.663341 
L 266.369578 186.384282 
L 267.560825 190.221459 
L 268.156449 181.523859 
L 268.752073 191.372612 
L 269.347696 187.791247 
L 269.94332 188.558682 
L 270.538943 185.233129 
L 271.134567 191.1168 
L 271.73019 185.744753 
L 272.325814 187.791247 
L 272.921437 190.477271 
L 273.517061 188.9424 
L 274.112685 189.709835 
L 274.708308 185.488941 
L 275.303932 187.791247 
L 275.899555 185.872659 
L 276.495179 194.186541 
L 277.090802 186.000565 
L 277.686426 188.558682 
L 278.282049 187.023812 
L 278.877673 190.221459 
L 279.473297 189.326118 
L 280.06892 187.407529 
L 280.664544 187.151718 
L 281.260167 189.837741 
L 282.451414 182.291294 
L 283.047038 183.954071 
L 283.642661 187.151718 
L 284.238285 189.709835 
L 284.833909 189.070306 
L 285.429532 189.454024 
L 286.620779 183.186635 
L 287.216403 186.256376 
L 287.812026 186.512188 
L 288.40765 187.663341 
L 289.003273 189.326118 
L 289.598897 188.047059 
L 290.194521 184.721506 
L 290.790144 183.442447 
L 291.385768 182.802918 
L 291.981391 187.663341 
L 292.577015 186.256376 
L 293.172638 190.093553 
L 293.768262 188.302871 
L 294.363885 189.454024 
L 294.959509 187.279624 
L 295.555133 185.872659 
L 296.150756 189.454024 
L 296.74638 185.361035 
L 297.342003 186.000565 
L 297.937627 184.465694 
L 298.53325 188.558682 
L 299.128874 187.151718 
L 299.724497 189.581929 
L 300.320121 187.151718 
L 300.915745 184.209882 
L 301.511368 185.872659 
L 302.106992 186.000565 
L 302.702615 191.372612 
L 303.298239 187.023812 
L 303.893862 186.256376 
L 304.489486 185.233129 
L 305.085109 188.430776 
L 305.680733 188.558682 
L 306.276357 188.174965 
L 306.87198 188.302871 
L 307.467604 190.605176 
L 308.063227 190.221459 
L 308.658851 191.372612 
L 309.254474 185.361035 
L 309.850098 187.407529 
L 310.445721 187.663341 
L 311.041345 188.174965 
L 311.636969 183.698259 
L 312.232592 184.5936 
L 312.828216 186.768 
L 313.423839 189.837741 
L 314.019463 186.128471 
L 314.615086 183.826165 
L 315.21071 188.047059 
L 315.806333 189.965647 
L 316.997581 190.733082 
L 317.593204 182.035482 
L 318.188828 189.070306 
L 318.784451 189.326118 
L 319.380075 181.395953 
L 319.975698 185.361035 
L 320.571322 188.302871 
L 321.166945 183.954071 
L 321.762569 191.756329 
L 322.358192 187.407529 
L 322.953816 188.302871 
L 323.54944 184.849412 
L 324.145063 184.081976 
L 325.33631 192.651671 
L 325.931934 186.384282 
L 327.123181 183.186635 
L 327.718804 186.384282 
L 328.314428 184.721506 
L 328.910052 190.349365 
L 329.505675 185.744753 
L 330.101299 184.465694 
L 330.696922 187.151718 
L 331.292546 184.081976 
L 331.888169 185.872659 
L 332.483793 183.698259 
L 333.079416 188.430776 
L 333.67504 189.326118 
L 334.270664 187.919153 
L 334.866287 183.570353 
L 335.461911 186.640094 
L 336.057534 186.128471 
L 336.653158 186.895906 
L 337.248781 182.035482 
L 337.844405 184.081976 
L 338.440028 184.209882 
L 339.035652 186.384282 
L 339.631276 187.151718 
L 340.226899 190.221459 
L 340.822523 185.105224 
L 341.418146 186.512188 
L 342.01377 192.651671 
L 342.609393 183.058729 
L 343.205017 179.093647 
L 343.80064 188.302871 
L 344.396264 185.616847 
L 344.991888 188.174965 
L 345.587511 188.814494 
L 346.183135 184.849412 
L 346.778758 190.221459 
L 347.374382 187.407529 
L 347.970005 188.302871 
L 348.565629 180.500612 
L 349.161252 186.768 
L 349.756876 179.605271 
L 350.3525 189.326118 
L 350.948123 190.733082 
L 351.543747 186.768 
L 352.13937 187.663341 
L 352.734994 182.675012 
L 353.330617 190.093553 
L 353.926241 186.384282 
L 354.521864 185.233129 
L 355.117488 185.616847 
L 355.713112 186.768 
L 356.308735 189.965647 
L 356.904359 190.221459 
L 357.499982 186.895906 
L 358.095606 187.663341 
L 358.691229 182.675012 
L 359.286853 187.023812 
L 359.882476 189.070306 
L 360.4781 186.768 
L 361.073724 187.919153 
L 361.669347 190.349365 
L 362.264971 186.000565 
L 362.860594 189.326118 
L 363.456218 190.988894 
L 364.051841 187.151718 
L 364.647465 187.407529 
L 365.243088 187.407529 
L 365.838712 190.605176 
L 366.434336 188.430776 
L 367.029959 187.791247 
L 367.625583 190.988894 
L 368.221206 190.605176 
L 368.81683 191.372612 
L 369.412453 187.919153 
L 370.008077 185.361035 
L 370.6037 189.454024 
L 371.199324 186.512188 
L 371.794948 187.407529 
L 372.390571 187.279624 
L 372.986195 181.779671 
L 373.581818 184.337788 
L 373.581818 184.337788 
" clip-path="url(#pdaad3bf23a)" style="fill: none; stroke: #ff7f0e; stroke-width: 1.5; stroke-linecap: square"/>
   </g>
   <g id="line2d_33">
    <path d="M 69.218182 198.023718 
L 69.813805 196.616753 
L 70.409429 203.012047 
L 71.005052 195.337694 
L 71.600676 196.360941 
L 72.1963 195.849318 
L 72.791923 198.023718 
L 73.387547 197.000471 
L 73.98317 194.826071 
L 74.578794 194.314447 
L 75.174417 194.953976 
L 75.770041 204.035294 
L 76.365664 199.942306 
L 76.961288 197.000471 
L 77.556912 199.174871 
L 78.152535 194.314447 
L 78.748159 199.046965 
L 79.343782 198.023718 
L 79.939406 199.302776 
L 80.535029 201.221365 
L 81.130653 198.151624 
L 81.726276 197.128376 
L 82.3219 197.000471 
L 82.917524 192.267953 
L 83.513147 198.023718 
L 84.108771 195.977224 
L 84.704394 196.360941 
L 85.300018 198.663247 
L 85.895641 197.384188 
L 86.491265 199.686494 
L 87.086888 196.872565 
L 87.682512 200.198118 
L 88.278136 199.302776 
L 88.873759 199.430682 
L 89.469383 199.942306 
L 90.065006 195.081882 
L 90.66063 196.233035 
L 91.256253 199.8144 
L 91.851877 200.709741 
L 92.4475 198.151624 
L 93.043124 199.046965 
L 93.638748 194.314447 
L 94.234371 199.558588 
L 94.829995 197.512094 
L 95.425618 192.140047 
L 96.021242 195.977224 
L 96.616865 198.151624 
L 97.212489 193.674918 
L 97.808112 201.221365 
L 98.403736 202.628329 
L 98.99936 198.535341 
L 99.594983 198.535341 
L 100.190607 198.151624 
L 100.78623 195.4656 
L 101.381854 199.430682 
L 101.977477 198.663247 
L 102.573101 199.430682 
L 103.168724 198.535341 
L 103.764348 203.139953 
L 104.359972 197.256282 
L 104.955595 195.081882 
L 105.551219 197.767906 
L 106.146842 197.256282 
L 106.742466 201.9888 
L 107.338089 200.965553 
L 107.933713 195.849318 
L 108.529336 196.105129 
L 109.12496 199.942306 
L 109.720584 204.674824 
L 110.316207 197.000471 
L 110.911831 194.698165 
L 111.507454 196.360941 
L 112.103078 196.233035 
L 112.698701 198.919059 
L 113.294325 196.488847 
L 113.889948 197.384188 
L 114.485572 199.046965 
L 115.081196 199.430682 
L 115.676819 194.698165 
L 116.272443 199.302776 
L 116.868066 195.977224 
L 117.46369 197.128376 
L 118.059313 196.488847 
L 118.654937 196.360941 
L 119.25056 196.744659 
L 119.846184 198.663247 
L 120.441808 199.686494 
L 121.037431 197.895812 
L 121.633055 197.256282 
L 122.228678 199.942306 
L 122.824302 199.8144 
L 123.419925 190.988894 
L 124.015549 199.046965 
L 124.611172 201.349271 
L 125.206796 200.581835 
L 125.802419 195.593506 
L 126.398043 199.046965 
L 126.993667 199.302776 
L 127.58929 194.698165 
L 128.184914 197.64 
L 129.376161 195.593506 
L 129.971784 197.895812 
L 130.567408 195.593506 
L 131.163031 194.442353 
L 131.758655 198.279529 
L 132.354279 196.488847 
L 132.949902 195.593506 
L 133.545526 197.000471 
L 134.141149 195.721412 
L 134.736773 199.174871 
L 135.332396 197.256282 
L 135.92802 199.942306 
L 136.523643 197.64 
L 137.119267 199.558588 
L 137.714891 202.756235 
L 138.310514 196.360941 
L 138.906138 199.8144 
L 139.501761 192.651671 
L 140.097385 196.360941 
L 140.693008 191.1168 
L 141.884255 200.070212 
L 142.479879 201.221365 
L 143.075503 197.512094 
L 143.671126 199.942306 
L 144.26675 194.953976 
L 144.862373 198.663247 
L 145.457997 197.000471 
L 146.05362 194.058635 
L 146.649244 201.477176 
L 147.244867 193.802824 
L 147.840491 198.023718 
L 148.436115 199.558588 
L 149.031738 198.279529 
L 149.627362 194.186541 
L 150.222985 200.326024 
L 150.818609 198.919059 
L 151.414232 195.081882 
L 152.605479 198.407435 
L 153.201103 202.884141 
L 153.796727 199.942306 
L 154.39235 201.732988 
L 154.987974 194.826071 
L 156.179221 200.965553 
L 156.774844 195.4656 
L 157.370468 196.744659 
L 157.966091 195.593506 
L 158.561715 201.605082 
L 159.157339 194.058635 
L 159.752962 200.326024 
L 160.348586 200.965553 
L 160.944209 193.802824 
L 161.539833 195.081882 
L 162.135456 194.314447 
L 162.73108 199.046965 
L 163.326703 199.430682 
L 163.922327 206.465506 
L 164.517951 197.64 
L 165.113574 197.64 
L 165.709198 194.953976 
L 166.304821 198.663247 
L 166.900445 195.337694 
L 167.496068 199.430682 
L 168.091692 195.593506 
L 168.687315 199.430682 
L 169.282939 198.279529 
L 170.474186 195.337694 
L 171.06981 198.535341 
L 171.665433 197.256282 
L 172.261057 198.535341 
L 172.85668 202.884141 
L 173.452304 198.151624 
L 174.047927 196.872565 
L 174.643551 199.430682 
L 175.239175 190.988894 
L 175.834798 198.791153 
L 176.430422 195.4656 
L 177.026045 200.198118 
L 177.621669 196.872565 
L 178.217292 199.8144 
L 178.812916 200.965553 
L 179.408539 197.767906 
L 180.004163 197.000471 
L 180.599787 198.023718 
L 181.19541 196.105129 
L 181.791034 195.593506 
L 182.386657 193.419106 
L 182.982281 197.767906 
L 183.577904 198.151624 
L 184.173528 200.965553 
L 184.769151 194.442353 
L 185.364775 199.430682 
L 185.960399 200.070212 
L 186.556022 199.174871 
L 187.151646 198.919059 
L 187.747269 196.872565 
L 188.342893 202.372518 
L 188.938516 197.64 
L 189.53414 196.360941 
L 190.129763 196.488847 
L 190.725387 193.674918 
L 191.32101 198.535341 
L 191.916634 199.942306 
L 192.512258 196.360941 
L 193.107881 198.791153 
L 193.703505 197.000471 
L 194.299128 199.686494 
L 194.894752 197.128376 
L 195.490375 199.558588 
L 196.085999 194.953976 
L 196.681622 191.884235 
L 197.277246 196.360941 
L 197.87287 199.686494 
L 198.468493 197.128376 
L 199.064117 195.337694 
L 199.65974 194.314447 
L 200.255364 198.407435 
L 200.850987 198.791153 
L 201.446611 197.384188 
L 202.042234 201.093459 
L 202.637858 201.349271 
L 203.233482 197.384188 
L 203.829105 194.442353 
L 204.424729 198.151624 
L 205.020352 192.907482 
L 205.615976 196.488847 
L 206.211599 196.488847 
L 206.807223 197.384188 
L 207.402846 196.744659 
L 207.99847 202.628329 
L 208.594094 197.512094 
L 209.189717 195.209788 
L 209.785341 200.837647 
L 210.380964 195.849318 
L 210.976588 199.174871 
L 211.572211 200.837647 
L 212.167835 199.8144 
L 212.763458 200.709741 
L 213.359082 196.105129 
L 213.954706 197.128376 
L 215.145953 201.093459 
L 215.741576 194.186541 
L 216.3372 201.477176 
L 216.932823 202.116706 
L 217.528447 196.744659 
L 218.12407 197.64 
L 218.719694 194.314447 
L 219.315318 198.023718 
L 219.910941 200.453929 
L 220.506565 195.337694 
L 221.102188 195.721412 
L 221.697812 202.756235 
L 222.293435 196.488847 
L 222.889059 197.64 
L 223.484682 197.64 
L 224.080306 198.535341 
L 224.67593 200.837647 
L 225.271553 192.012141 
L 225.867177 197.000471 
L 226.4628 200.070212 
L 227.058424 198.535341 
L 227.654047 201.349271 
L 228.249671 194.570259 
L 228.845294 201.860894 
L 229.440918 192.779576 
L 230.036542 205.953882 
L 231.227789 190.988894 
L 231.823412 197.895812 
L 232.419036 195.593506 
L 233.014659 195.4656 
L 233.610283 191.756329 
L 234.205906 191.500518 
L 235.397154 186.512188 
L 235.992777 184.849412 
L 236.588401 173.082071 
L 237.184024 167.070494 
L 237.779648 165.919341 
L 238.375271 150.186918 
L 238.970895 144.303247 
L 239.566518 131.768471 
L 240.162142 125.756894 
L 240.757766 126.268518 
L 241.353389 119.873224 
L 241.949013 120.001129 
L 242.544636 122.942965 
L 243.14026 121.152282 
L 243.735883 122.815059 
L 244.331507 123.838306 
L 244.92713 128.0592 
L 245.522754 130.617318 
L 246.118378 123.326682 
L 246.714001 118.594165 
L 247.309625 118.722071 
L 247.905248 105.803576 
L 248.500872 105.675671 
L 249.096495 121.152282 
L 249.692119 123.454588 
L 250.287742 130.745224 
L 250.883366 140.082353 
L 251.47899 144.431153 
L 252.074613 153.256659 
L 252.670237 165.535624 
L 253.861484 181.268047 
L 254.457107 186.128471 
L 255.648354 190.988894 
L 256.243978 193.930729 
L 256.839601 199.046965 
L 257.435225 195.081882 
L 258.030849 199.430682 
L 258.626472 177.558776 
L 259.222096 195.849318 
L 259.817719 201.9888 
L 260.413343 198.535341 
L 261.008966 200.326024 
L 261.60459 195.593506 
L 262.200213 196.360941 
L 262.795837 195.721412 
L 263.391461 200.198118 
L 263.987084 197.128376 
L 264.582708 195.849318 
L 265.178331 198.919059 
L 265.773955 203.779482 
L 266.369578 195.593506 
L 266.965202 195.337694 
L 267.560825 196.105129 
L 268.156449 197.895812 
L 268.752073 192.012141 
L 269.347696 192.779576 
L 270.538943 200.326024 
L 271.134567 195.721412 
L 271.73019 196.744659 
L 272.325814 196.360941 
L 272.921437 199.174871 
L 273.517061 197.895812 
L 274.112685 199.430682 
L 274.708308 199.046965 
L 275.303932 193.930729 
L 275.899555 195.337694 
L 276.495179 198.663247 
L 277.090802 192.779576 
L 277.686426 204.291106 
L 278.282049 195.721412 
L 278.877673 197.256282 
L 279.473297 196.105129 
L 280.06892 193.035388 
L 280.664544 198.279529 
L 281.260167 198.919059 
L 281.855791 196.233035 
L 282.451414 197.512094 
L 283.047038 193.547012 
L 283.642661 198.023718 
L 284.238285 198.663247 
L 284.833909 195.337694 
L 285.429532 196.616753 
L 286.025156 201.477176 
L 287.216403 196.744659 
L 287.812026 200.453929 
L 288.40765 200.965553 
L 289.003273 199.942306 
L 289.598897 197.256282 
L 290.194521 197.767906 
L 290.790144 200.709741 
L 291.385768 192.012141 
L 291.981391 196.872565 
L 292.577015 197.000471 
L 293.172638 194.570259 
L 293.768262 198.407435 
L 294.363885 196.360941 
L 294.959509 188.558682 
L 295.555133 197.767906 
L 296.150756 199.430682 
L 296.74638 196.872565 
L 297.342003 197.512094 
L 297.937627 201.732988 
L 298.53325 192.907482 
L 299.128874 200.198118 
L 299.724497 198.023718 
L 300.320121 199.302776 
L 300.915745 195.4656 
L 301.511368 201.605082 
L 302.106992 191.884235 
L 302.702615 197.384188 
L 303.298239 200.453929 
L 303.893862 197.128376 
L 304.489486 198.407435 
L 305.680733 197.64 
L 306.276357 195.977224 
L 306.87198 198.919059 
L 308.063227 194.442353 
L 308.658851 196.105129 
L 309.254474 197.256282 
L 309.850098 198.151624 
L 310.445721 197.895812 
L 311.041345 200.326024 
L 312.232592 196.233035 
L 312.828216 198.791153 
L 313.423839 197.128376 
L 314.019463 191.884235 
L 314.615086 198.023718 
L 315.21071 195.593506 
L 315.806333 199.046965 
L 316.401957 201.093459 
L 316.997581 198.023718 
L 317.593204 196.360941 
L 318.188828 197.767906 
L 318.784451 198.151624 
L 319.380075 202.244612 
L 320.571322 199.8144 
L 321.166945 202.116706 
L 321.762569 198.919059 
L 322.358192 202.244612 
L 322.953816 196.488847 
L 323.54944 201.860894 
L 324.145063 194.826071 
L 324.740687 197.64 
L 325.33631 195.209788 
L 325.931934 195.849318 
L 326.527557 203.267859 
L 327.123181 198.791153 
L 327.718804 199.942306 
L 328.314428 195.849318 
L 328.910052 198.279529 
L 329.505675 200.070212 
L 330.101299 200.709741 
L 330.696922 197.64 
L 331.292546 198.663247 
L 331.888169 197.767906 
L 332.483793 200.326024 
L 333.079416 193.674918 
L 333.67504 200.326024 
L 334.270664 197.895812 
L 334.866287 202.372518 
L 335.461911 195.721412 
L 336.057534 197.256282 
L 336.653158 195.209788 
L 337.248781 190.349365 
L 337.844405 201.093459 
L 338.440028 198.535341 
L 339.035652 196.616753 
L 339.631276 200.070212 
L 340.226899 196.105129 
L 340.822523 198.279529 
L 341.418146 196.872565 
L 342.01377 200.453929 
L 342.609393 201.477176 
L 343.205017 197.128376 
L 343.80064 200.965553 
L 344.396264 200.709741 
L 344.991888 195.977224 
L 345.587511 198.791153 
L 346.778758 195.849318 
L 347.374382 195.4656 
L 347.970005 199.174871 
L 348.565629 195.081882 
L 349.161252 196.872565 
L 349.756876 198.151624 
L 350.3525 197.895812 
L 350.948123 198.407435 
L 351.543747 200.453929 
L 352.13937 200.198118 
L 352.734994 195.593506 
L 353.330617 195.593506 
L 353.926241 198.663247 
L 354.521864 199.686494 
L 355.713112 197.384188 
L 356.308735 200.198118 
L 356.904359 196.360941 
L 357.499982 195.209788 
L 358.095606 199.8144 
L 358.691229 199.430682 
L 359.286853 200.326024 
L 359.882476 193.2912 
L 360.4781 201.349271 
L 361.073724 203.779482 
L 361.669347 197.895812 
L 362.264971 202.884141 
L 363.456218 194.698165 
L 364.051841 194.442353 
L 364.647465 195.721412 
L 365.243088 198.919059 
L 365.838712 192.523765 
L 366.434336 192.779576 
L 367.029959 198.407435 
L 367.625583 199.302776 
L 368.221206 196.744659 
L 368.81683 199.046965 
L 369.412453 197.895812 
L 370.008077 201.605082 
L 370.6037 200.326024 
L 371.199324 196.744659 
L 371.794948 195.209788 
L 372.390571 197.767906 
L 372.986195 199.046965 
L 373.581818 197.767906 
L 373.581818 197.767906 
" clip-path="url(#pdaad3bf23a)" style="fill: none; stroke: #2ca02c; stroke-width: 1.5; stroke-linecap: square"/>
   </g>
   <g id="patch_3">
    <path d="M 54 252 
L 54 34.56 
" style="fill: none; stroke: #000000; stroke-width: 0.8; stroke-linejoin: miter; stroke-linecap: square"/>
   </g>
   <g id="patch_4">
    <path d="M 388.8 252 
L 388.8 34.56 
" style="fill: none; stroke: #000000; stroke-width: 0.8; stroke-linejoin: miter; stroke-linecap: square"/>
   </g>
   <g id="patch_5">
    <path d="M 54 252 
L 388.8 252 
" style="fill: none; stroke: #000000; stroke-width: 0.8; stroke-linejoin: miter; stroke-linecap: square"/>
   </g>
   <g id="patch_6">
    <path d="M 54 34.56 
L 388.8 34.56 
" style="fill: none; stroke: #000000; stroke-width: 0.8; stroke-linejoin: miter; stroke-linecap: square"/>
   </g>
   <g id="text_18">
    <!-- Label 7 -->
    <g transform="translate(199.487813 28.56)scale(0.12 -0.12)">
     <defs>
      <path id="DejaVuSans-4c" d="M 628 4666 
L 1259 4666 
L 1259 531 
L 3531 531 
L 3531 0 
L 628 0 
L 628 4666 
z
" transform="scale(0.015625)"/>
      <path id="DejaVuSans-61" d="M 2194 1759 
Q 1497 1759 1228 1600 
Q 959 1441 959 1056 
Q 959 750 1161 570 
Q 1363 391 1709 391 
Q 2188 391 2477 730 
Q 2766 1069 2766 1631 
L 2766 1759 
L 2194 1759 
z
M 3341 1997 
L 3341 0 
L 2766 0 
L 2766 531 
Q 2569 213 2275 61 
Q 1981 -91 1556 -91 
Q 1019 -91 701 211 
Q 384 513 384 1019 
Q 384 1609 779 1909 
Q 1175 2209 1959 2209 
L 2766 2209 
L 2766 2266 
Q 2766 2663 2505 2880 
Q 2244 3097 1772 3097 
Q 1472 3097 1187 3025 
Q 903 2953 641 2809 
L 641 3341 
Q 956 3463 1253 3523 
Q 1550 3584 1831 3584 
Q 2591 3584 2966 3190 
Q 3341 2797 3341 1997 
z
" transform="scale(0.015625)"/>
      <path id="DejaVuSans-65" d="M 3597 1894 
L 3597 1613 
L 953 1613 
Q 991 1019 1311 708 
Q 1631 397 2203 397 
Q 2534 397 2845 478 
Q 3156 559 3463 722 
L 3463 178 
Q 3153 47 2828 -22 
Q 2503 -91 2169 -91 
Q 1331 -91 842 396 
Q 353 884 353 1716 
Q 353 2575 817 3079 
Q 1281 3584 2069 3584 
Q 2775 3584 3186 3129 
Q 3597 2675 3597 1894 
z
M 3022 2063 
Q 3016 2534 2758 2815 
Q 2500 3097 2075 3097 
Q 1594 3097 1305 2825 
Q 1016 2553 972 2059 
L 3022 2063 
z
" transform="scale(0.015625)"/>
      <path id="DejaVuSans-6c" d="M 603 4863 
L 1178 4863 
L 1178 0 
L 603 0 
L 603 4863 
z
" transform="scale(0.015625)"/>
      <path id="DejaVuSans-20" transform="scale(0.015625)"/>
      <path id="DejaVuSans-37" d="M 525 4666 
L 3525 4666 
L 3525 4397 
L 1831 0 
L 1172 0 
L 2766 4134 
L 525 4134 
L 525 4666 
z
" transform="scale(0.015625)"/>
     </defs>
     <use xlink:href="#DejaVuSans-4c"/>
     <use xlink:href="#DejaVuSans-61" x="55.712891"/>
     <use xlink:href="#DejaVuSans-62" x="116.992188"/>
     <use xlink:href="#DejaVuSans-65" x="180.46875"/>
     <use xlink:href="#DejaVuSans-6c" x="241.992188"/>
     <use xlink:href="#DejaVuSans-20" x="269.775391"/>
     <use xlink:href="#DejaVuSans-37" x="301.5625"/>
    </g>
   </g>
   <g id="legend_1">
    <g id="patch_7">
     <path d="M 309.070312 101.2725 
L 381.8 101.2725 
Q 383.8 101.2725 383.8 99.2725 
L 383.8 41.56 
Q 383.8 39.56 381.8 39.56 
L 309.070312 39.56 
Q 307.070312 39.56 307.070312 41.56 
L 307.070312 99.2725 
Q 307.070312 101.2725 309.070312 101.2725 
z
" style="fill: #ffffff; opacity: 0.8; stroke: #cccccc; stroke-linejoin: miter"/>
    </g>
    <g id="text_19">
     <!-- Trace number -->
     <g transform="translate(311.070312 51.158437)scale(0.1 -0.1)">
      <defs>
       <path id="DejaVuSans-54" d="M -19 4666 
L 3928 4666 
L 3928 4134 
L 2272 4134 
L 2272 0 
L 1638 0 
L 1638 4134 
L -19 4134 
L -19 4666 
z
" transform="scale(0.015625)"/>
       <path id="DejaVuSans-72" d="M 2631 2963 
Q 2534 3019 2420 3045 
Q 2306 3072 2169 3072 
Q 1681 3072 1420 2755 
Q 1159 2438 1159 1844 
L 1159 0 
L 581 0 
L 581 3500 
L 1159 3500 
L 1159 2956 
Q 1341 3275 1631 3429 
Q 1922 3584 2338 3584 
Q 2397 3584 2469 3576 
Q 2541 3569 2628 3553 
L 2631 2963 
z
" transform="scale(0.015625)"/>
       <path id="DejaVuSans-6d" d="M 3328 2828 
Q 3544 3216 3844 3400 
Q 4144 3584 4550 3584 
Q 5097 3584 5394 3201 
Q 5691 2819 5691 2113 
L 5691 0 
L 5113 0 
L 5113 2094 
Q 5113 2597 4934 2840 
Q 4756 3084 4391 3084 
Q 3944 3084 3684 2787 
Q 3425 2491 3425 1978 
L 3425 0 
L 2847 0 
L 2847 2094 
Q 2847 2600 2669 2842 
Q 2491 3084 2119 3084 
Q 1678 3084 1418 2786 
Q 1159 2488 1159 1978 
L 1159 0 
L 581 0 
L 581 3500 
L 1159 3500 
L 1159 2956 
Q 1356 3278 1631 3431 
Q 1906 3584 2284 3584 
Q 2666 3584 2933 3390 
Q 3200 3197 3328 2828 
z
" transform="scale(0.015625)"/>
      </defs>
      <use xlink:href="#DejaVuSans-54"/>
      <use xlink:href="#DejaVuSans-72" x="46.333984"/>
      <use xlink:href="#DejaVuSans-61" x="87.447266"/>
      <use xlink:href="#DejaVuSans-63" x="148.726562"/>
      <use xlink:href="#DejaVuSans-65" x="203.707031"/>
      <use xlink:href="#DejaVuSans-20" x="265.230469"/>
      <use xlink:href="#DejaVuSans-6e" x="297.017578"/>
      <use xlink:href="#DejaVuSans-75" x="360.396484"/>
      <use xlink:href="#DejaVuSans-6d" x="423.775391"/>
      <use xlink:href="#DejaVuSans-62" x="521.1875"/>
      <use xlink:href="#DejaVuSans-65" x="584.664062"/>
      <use xlink:href="#DejaVuSans-72" x="646.1875"/>
     </g>
    </g>
    <g id="line2d_34">
     <path d="M 321.891406 62.336562 
L 331.891406 62.336562 
L 341.891406 62.336562 
" style="fill: none; stroke: #1f77b4; stroke-width: 1.5; stroke-linecap: square"/>
    </g>
    <g id="text_20">
     <!-- 19 -->
     <g transform="translate(349.891406 65.836562)scale(0.1 -0.1)">
      <defs>
       <path id="DejaVuSans-39" d="M 703 97 
L 703 672 
Q 941 559 1184 500 
Q 1428 441 1663 441 
Q 2288 441 2617 861 
Q 2947 1281 2994 2138 
Q 2813 1869 2534 1725 
Q 2256 1581 1919 1581 
Q 1219 1581 811 2004 
Q 403 2428 403 3163 
Q 403 3881 828 4315 
Q 1253 4750 1959 4750 
Q 2769 4750 3195 4129 
Q 3622 3509 3622 2328 
Q 3622 1225 3098 567 
Q 2575 -91 1691 -91 
Q 1453 -91 1209 -44 
Q 966 3 703 97 
z
M 1959 2075 
Q 2384 2075 2632 2365 
Q 2881 2656 2881 3163 
Q 2881 3666 2632 3958 
Q 2384 4250 1959 4250 
Q 1534 4250 1286 3958 
Q 1038 3666 1038 3163 
Q 1038 2656 1286 2365 
Q 1534 2075 1959 2075 
z
" transform="scale(0.015625)"/>
      </defs>
      <use xlink:href="#DejaVuSans-31"/>
      <use xlink:href="#DejaVuSans-39" x="63.623047"/>
     </g>
    </g>
    <g id="line2d_35">
     <path d="M 321.891406 77.014687 
L 331.891406 77.014687 
L 341.891406 77.014687 
" style="fill: none; stroke: #ff7f0e; stroke-width: 1.5; stroke-linecap: square"/>
    </g>
    <g id="text_21">
     <!-- 49 -->
     <g transform="translate(349.891406 80.514687)scale(0.1 -0.1)">
      <use xlink:href="#DejaVuSans-34"/>
      <use xlink:href="#DejaVuSans-39" x="63.623047"/>
     </g>
    </g>
    <g id="line2d_36">
     <path d="M 321.891406 91.692813 
L 331.891406 91.692813 
L 341.891406 91.692813 
" style="fill: none; stroke: #2ca02c; stroke-width: 1.5; stroke-linecap: square"/>
    </g>
    <g id="text_22">
     <!-- 102 -->
     <g transform="translate(349.891406 95.192813)scale(0.1 -0.1)">
      <use xlink:href="#DejaVuSans-31"/>
      <use xlink:href="#DejaVuSans-30" x="63.623047"/>
      <use xlink:href="#DejaVuSans-32" x="127.246094"/>
     </g>
    </g>
   </g>
  </g>
 </g>
 <defs>
  <clipPath id="pdaad3bf23a">
   <rect x="54" y="34.56" width="334.8" height="217.44"/>
  </clipPath>
 </defs>
</svg>
