<?xml version="1.0" encoding="utf-8" standalone="no"?>
<!DOCTYPE svg PUBLIC "-//W3C//DTD SVG 1.1//EN"
  "http://www.w3.org/Graphics/SVG/1.1/DTD/svg11.dtd">
<svg xmlns:xlink="http://www.w3.org/1999/xlink" width="432pt" height="288pt" viewBox="0 0 432 288" xmlns="http://www.w3.org/2000/svg" version="1.1">
 <metadata>
  <rdf:RDF xmlns:dc="http://purl.org/dc/elements/1.1/" xmlns:cc="http://creativecommons.org/ns#" xmlns:rdf="http://www.w3.org/1999/02/22-rdf-syntax-ns#">
   <cc:Work>
    <dc:type rdf:resource="http://purl.org/dc/dcmitype/StillImage"/>
    <dc:date>2022-03-30T13:12:48.423211</dc:date>
    <dc:format>image/svg+xml</dc:format>
    <dc:creator>
     <cc:Agent>
      <dc:title>Matplotlib v3.5.1, https://matplotlib.org/</dc:title>
     </cc:Agent>
    </dc:creator>
   </cc:Work>
  </rdf:RDF>
 </metadata>
 <defs>
  <style type="text/css">*{stroke-linejoin: round; stroke-linecap: butt}</style>
 </defs>
 <g id="figure_1">
  <g id="patch_1">
   <path d="M 0 288 
L 432 288 
L 432 0 
L 0 0 
z
" style="fill: #ffffff"/>
  </g>
  <g id="axes_1">
   <g id="patch_2">
    <path d="M 54 252 
L 388.8 252 
L 388.8 34.56 
L 54 34.56 
z
" style="fill: #ffffff"/>
   </g>
   <g id="matplotlib.axis_1">
    <g id="xtick_1">
     <g id="line2d_1">
      <path d="M 69.218182 252 
L 69.218182 34.56 
" clip-path="url(#p039b2b2198)" style="fill: none; stroke: #b0b0b0; stroke-width: 0.8; stroke-linecap: square"/>
     </g>
     <g id="line2d_2">
      <defs>
       <path id="m474c61bf70" d="M 0 0 
L 0 3.5 
" style="stroke: #000000; stroke-width: 0.8"/>
      </defs>
      <g>
       <use xlink:href="#m474c61bf70" x="69.218182" y="252" style="stroke: #000000; stroke-width: 0.8"/>
      </g>
     </g>
     <g id="text_1">
      <!-- 0 -->
      <g transform="translate(66.036932 266.598437)scale(0.1 -0.1)">
       <defs>
        <path id="DejaVuSans-30" d="M 2034 4250 
Q 1547 4250 1301 3770 
Q 1056 3291 1056 2328 
Q 1056 1369 1301 889 
Q 1547 409 2034 409 
Q 2525 409 2770 889 
Q 3016 1369 3016 2328 
Q 3016 3291 2770 3770 
Q 2525 4250 2034 4250 
z
M 2034 4750 
Q 2819 4750 3233 4129 
Q 3647 3509 3647 2328 
Q 3647 1150 3233 529 
Q 2819 -91 2034 -91 
Q 1250 -91 836 529 
Q 422 1150 422 2328 
Q 422 3509 836 4129 
Q 1250 4750 2034 4750 
z
" transform="scale(0.015625)"/>
       </defs>
       <use xlink:href="#DejaVuSans-30"/>
      </g>
     </g>
    </g>
    <g id="xtick_2">
     <g id="line2d_3">
      <path d="M 128.780537 252 
L 128.780537 34.56 
" clip-path="url(#p039b2b2198)" style="fill: none; stroke: #b0b0b0; stroke-width: 0.8; stroke-linecap: square"/>
     </g>
     <g id="line2d_4">
      <g>
       <use xlink:href="#m474c61bf70" x="128.780537" y="252" style="stroke: #000000; stroke-width: 0.8"/>
      </g>
     </g>
     <g id="text_2">
      <!-- 100 -->
      <g transform="translate(119.236787 266.598437)scale(0.1 -0.1)">
       <defs>
        <path id="DejaVuSans-31" d="M 794 531 
L 1825 531 
L 1825 4091 
L 703 3866 
L 703 4441 
L 1819 4666 
L 2450 4666 
L 2450 531 
L 3481 531 
L 3481 0 
L 794 0 
L 794 531 
z
" transform="scale(0.015625)"/>
       </defs>
       <use xlink:href="#DejaVuSans-31"/>
       <use xlink:href="#DejaVuSans-30" x="63.623047"/>
       <use xlink:href="#DejaVuSans-30" x="127.246094"/>
      </g>
     </g>
    </g>
    <g id="xtick_3">
     <g id="line2d_5">
      <path d="M 188.342893 252 
L 188.342893 34.56 
" clip-path="url(#p039b2b2198)" style="fill: none; stroke: #b0b0b0; stroke-width: 0.8; stroke-linecap: square"/>
     </g>
     <g id="line2d_6">
      <g>
       <use xlink:href="#m474c61bf70" x="188.342893" y="252" style="stroke: #000000; stroke-width: 0.8"/>
      </g>
     </g>
     <g id="text_3">
      <!-- 200 -->
      <g transform="translate(178.799143 266.598437)scale(0.1 -0.1)">
       <defs>
        <path id="DejaVuSans-32" d="M 1228 531 
L 3431 531 
L 3431 0 
L 469 0 
L 469 531 
Q 828 903 1448 1529 
Q 2069 2156 2228 2338 
Q 2531 2678 2651 2914 
Q 2772 3150 2772 3378 
Q 2772 3750 2511 3984 
Q 2250 4219 1831 4219 
Q 1534 4219 1204 4116 
Q 875 4013 500 3803 
L 500 4441 
Q 881 4594 1212 4672 
Q 1544 4750 1819 4750 
Q 2544 4750 2975 4387 
Q 3406 4025 3406 3419 
Q 3406 3131 3298 2873 
Q 3191 2616 2906 2266 
Q 2828 2175 2409 1742 
Q 1991 1309 1228 531 
z
" transform="scale(0.015625)"/>
       </defs>
       <use xlink:href="#DejaVuSans-32"/>
       <use xlink:href="#DejaVuSans-30" x="63.623047"/>
       <use xlink:href="#DejaVuSans-30" x="127.246094"/>
      </g>
     </g>
    </g>
    <g id="xtick_4">
     <g id="line2d_7">
      <path d="M 247.905248 252 
L 247.905248 34.56 
" clip-path="url(#p039b2b2198)" style="fill: none; stroke: #b0b0b0; stroke-width: 0.8; stroke-linecap: square"/>
     </g>
     <g id="line2d_8">
      <g>
       <use xlink:href="#m474c61bf70" x="247.905248" y="252" style="stroke: #000000; stroke-width: 0.8"/>
      </g>
     </g>
     <g id="text_4">
      <!-- 300 -->
      <g transform="translate(238.361498 266.598437)scale(0.1 -0.1)">
       <defs>
        <path id="DejaVuSans-33" d="M 2597 2516 
Q 3050 2419 3304 2112 
Q 3559 1806 3559 1356 
Q 3559 666 3084 287 
Q 2609 -91 1734 -91 
Q 1441 -91 1130 -33 
Q 819 25 488 141 
L 488 750 
Q 750 597 1062 519 
Q 1375 441 1716 441 
Q 2309 441 2620 675 
Q 2931 909 2931 1356 
Q 2931 1769 2642 2001 
Q 2353 2234 1838 2234 
L 1294 2234 
L 1294 2753 
L 1863 2753 
Q 2328 2753 2575 2939 
Q 2822 3125 2822 3475 
Q 2822 3834 2567 4026 
Q 2313 4219 1838 4219 
Q 1578 4219 1281 4162 
Q 984 4106 628 3988 
L 628 4550 
Q 988 4650 1302 4700 
Q 1616 4750 1894 4750 
Q 2613 4750 3031 4423 
Q 3450 4097 3450 3541 
Q 3450 3153 3228 2886 
Q 3006 2619 2597 2516 
z
" transform="scale(0.015625)"/>
       </defs>
       <use xlink:href="#DejaVuSans-33"/>
       <use xlink:href="#DejaVuSans-30" x="63.623047"/>
       <use xlink:href="#DejaVuSans-30" x="127.246094"/>
      </g>
     </g>
    </g>
    <g id="xtick_5">
     <g id="line2d_9">
      <path d="M 307.467604 252 
L 307.467604 34.56 
" clip-path="url(#p039b2b2198)" style="fill: none; stroke: #b0b0b0; stroke-width: 0.8; stroke-linecap: square"/>
     </g>
     <g id="line2d_10">
      <g>
       <use xlink:href="#m474c61bf70" x="307.467604" y="252" style="stroke: #000000; stroke-width: 0.8"/>
      </g>
     </g>
     <g id="text_5">
      <!-- 400 -->
      <g transform="translate(297.923854 266.598437)scale(0.1 -0.1)">
       <defs>
        <path id="DejaVuSans-34" d="M 2419 4116 
L 825 1625 
L 2419 1625 
L 2419 4116 
z
M 2253 4666 
L 3047 4666 
L 3047 1625 
L 3713 1625 
L 3713 1100 
L 3047 1100 
L 3047 0 
L 2419 0 
L 2419 1100 
L 313 1100 
L 313 1709 
L 2253 4666 
z
" transform="scale(0.015625)"/>
       </defs>
       <use xlink:href="#DejaVuSans-34"/>
       <use xlink:href="#DejaVuSans-30" x="63.623047"/>
       <use xlink:href="#DejaVuSans-30" x="127.246094"/>
      </g>
     </g>
    </g>
    <g id="xtick_6">
     <g id="line2d_11">
      <path d="M 367.029959 252 
L 367.029959 34.56 
" clip-path="url(#p039b2b2198)" style="fill: none; stroke: #b0b0b0; stroke-width: 0.8; stroke-linecap: square"/>
     </g>
     <g id="line2d_12">
      <g>
       <use xlink:href="#m474c61bf70" x="367.029959" y="252" style="stroke: #000000; stroke-width: 0.8"/>
      </g>
     </g>
     <g id="text_6">
      <!-- 500 -->
      <g transform="translate(357.486209 266.598437)scale(0.1 -0.1)">
       <defs>
        <path id="DejaVuSans-35" d="M 691 4666 
L 3169 4666 
L 3169 4134 
L 1269 4134 
L 1269 2991 
Q 1406 3038 1543 3061 
Q 1681 3084 1819 3084 
Q 2600 3084 3056 2656 
Q 3513 2228 3513 1497 
Q 3513 744 3044 326 
Q 2575 -91 1722 -91 
Q 1428 -91 1123 -41 
Q 819 9 494 109 
L 494 744 
Q 775 591 1075 516 
Q 1375 441 1709 441 
Q 2250 441 2565 725 
Q 2881 1009 2881 1497 
Q 2881 1984 2565 2268 
Q 2250 2553 1709 2553 
Q 1456 2553 1204 2497 
Q 953 2441 691 2322 
L 691 4666 
z
" transform="scale(0.015625)"/>
       </defs>
       <use xlink:href="#DejaVuSans-35"/>
       <use xlink:href="#DejaVuSans-30" x="63.623047"/>
       <use xlink:href="#DejaVuSans-30" x="127.246094"/>
      </g>
     </g>
    </g>
    <g id="text_7">
     <!-- bin -->
     <g transform="translate(213.667969 280.276563)scale(0.1 -0.1)">
      <defs>
       <path id="DejaVuSans-62" d="M 3116 1747 
Q 3116 2381 2855 2742 
Q 2594 3103 2138 3103 
Q 1681 3103 1420 2742 
Q 1159 2381 1159 1747 
Q 1159 1113 1420 752 
Q 1681 391 2138 391 
Q 2594 391 2855 752 
Q 3116 1113 3116 1747 
z
M 1159 2969 
Q 1341 3281 1617 3432 
Q 1894 3584 2278 3584 
Q 2916 3584 3314 3078 
Q 3713 2572 3713 1747 
Q 3713 922 3314 415 
Q 2916 -91 2278 -91 
Q 1894 -91 1617 61 
Q 1341 213 1159 525 
L 1159 0 
L 581 0 
L 581 4863 
L 1159 4863 
L 1159 2969 
z
" transform="scale(0.015625)"/>
       <path id="DejaVuSans-69" d="M 603 3500 
L 1178 3500 
L 1178 0 
L 603 0 
L 603 3500 
z
M 603 4863 
L 1178 4863 
L 1178 4134 
L 603 4134 
L 603 4863 
z
" transform="scale(0.015625)"/>
       <path id="DejaVuSans-6e" d="M 3513 2113 
L 3513 0 
L 2938 0 
L 2938 2094 
Q 2938 2591 2744 2837 
Q 2550 3084 2163 3084 
Q 1697 3084 1428 2787 
Q 1159 2491 1159 1978 
L 1159 0 
L 581 0 
L 581 3500 
L 1159 3500 
L 1159 2956 
Q 1366 3272 1645 3428 
Q 1925 3584 2291 3584 
Q 2894 3584 3203 3211 
Q 3513 2838 3513 2113 
z
" transform="scale(0.015625)"/>
      </defs>
      <use xlink:href="#DejaVuSans-62"/>
      <use xlink:href="#DejaVuSans-69" x="63.476562"/>
      <use xlink:href="#DejaVuSans-6e" x="91.259766"/>
     </g>
    </g>
   </g>
   <g id="matplotlib.axis_2">
    <g id="ytick_1">
     <g id="line2d_13">
      <path d="M 54 252 
L 388.8 252 
" clip-path="url(#p039b2b2198)" style="fill: none; stroke: #b0b0b0; stroke-width: 0.8; stroke-linecap: square"/>
     </g>
     <g id="line2d_14">
      <defs>
       <path id="mde18a46f0e" d="M 0 0 
L -3.5 0 
" style="stroke: #000000; stroke-width: 0.8"/>
      </defs>
      <g>
       <use xlink:href="#mde18a46f0e" x="54" y="252" style="stroke: #000000; stroke-width: 0.8"/>
      </g>
     </g>
     <g id="text_8">
      <!-- 0 -->
      <g transform="translate(40.6375 255.799219)scale(0.1 -0.1)">
       <use xlink:href="#DejaVuSans-30"/>
      </g>
     </g>
    </g>
    <g id="ytick_2">
     <g id="line2d_15">
      <path d="M 54 226.418824 
L 388.8 226.418824 
" clip-path="url(#p039b2b2198)" style="fill: none; stroke: #b0b0b0; stroke-width: 0.8; stroke-linecap: square"/>
     </g>
     <g id="line2d_16">
      <g>
       <use xlink:href="#mde18a46f0e" x="54" y="226.418824" style="stroke: #000000; stroke-width: 0.8"/>
      </g>
     </g>
     <g id="text_9">
      <!-- 200 -->
      <g transform="translate(27.9125 230.218042)scale(0.1 -0.1)">
       <use xlink:href="#DejaVuSans-32"/>
       <use xlink:href="#DejaVuSans-30" x="63.623047"/>
       <use xlink:href="#DejaVuSans-30" x="127.246094"/>
      </g>
     </g>
    </g>
    <g id="ytick_3">
     <g id="line2d_17">
      <path d="M 54 200.837647 
L 388.8 200.837647 
" clip-path="url(#p039b2b2198)" style="fill: none; stroke: #b0b0b0; stroke-width: 0.8; stroke-linecap: square"/>
     </g>
     <g id="line2d_18">
      <g>
       <use xlink:href="#mde18a46f0e" x="54" y="200.837647" style="stroke: #000000; stroke-width: 0.8"/>
      </g>
     </g>
     <g id="text_10">
      <!-- 400 -->
      <g transform="translate(27.9125 204.636866)scale(0.1 -0.1)">
       <use xlink:href="#DejaVuSans-34"/>
       <use xlink:href="#DejaVuSans-30" x="63.623047"/>
       <use xlink:href="#DejaVuSans-30" x="127.246094"/>
      </g>
     </g>
    </g>
    <g id="ytick_4">
     <g id="line2d_19">
      <path d="M 54 175.256471 
L 388.8 175.256471 
" clip-path="url(#p039b2b2198)" style="fill: none; stroke: #b0b0b0; stroke-width: 0.8; stroke-linecap: square"/>
     </g>
     <g id="line2d_20">
      <g>
       <use xlink:href="#mde18a46f0e" x="54" y="175.256471" style="stroke: #000000; stroke-width: 0.8"/>
      </g>
     </g>
     <g id="text_11">
      <!-- 600 -->
      <g transform="translate(27.9125 179.055689)scale(0.1 -0.1)">
       <defs>
        <path id="DejaVuSans-36" d="M 2113 2584 
Q 1688 2584 1439 2293 
Q 1191 2003 1191 1497 
Q 1191 994 1439 701 
Q 1688 409 2113 409 
Q 2538 409 2786 701 
Q 3034 994 3034 1497 
Q 3034 2003 2786 2293 
Q 2538 2584 2113 2584 
z
M 3366 4563 
L 3366 3988 
Q 3128 4100 2886 4159 
Q 2644 4219 2406 4219 
Q 1781 4219 1451 3797 
Q 1122 3375 1075 2522 
Q 1259 2794 1537 2939 
Q 1816 3084 2150 3084 
Q 2853 3084 3261 2657 
Q 3669 2231 3669 1497 
Q 3669 778 3244 343 
Q 2819 -91 2113 -91 
Q 1303 -91 875 529 
Q 447 1150 447 2328 
Q 447 3434 972 4092 
Q 1497 4750 2381 4750 
Q 2619 4750 2861 4703 
Q 3103 4656 3366 4563 
z
" transform="scale(0.015625)"/>
       </defs>
       <use xlink:href="#DejaVuSans-36"/>
       <use xlink:href="#DejaVuSans-30" x="63.623047"/>
       <use xlink:href="#DejaVuSans-30" x="127.246094"/>
      </g>
     </g>
    </g>
    <g id="ytick_5">
     <g id="line2d_21">
      <path d="M 54 149.675294 
L 388.8 149.675294 
" clip-path="url(#p039b2b2198)" style="fill: none; stroke: #b0b0b0; stroke-width: 0.8; stroke-linecap: square"/>
     </g>
     <g id="line2d_22">
      <g>
       <use xlink:href="#mde18a46f0e" x="54" y="149.675294" style="stroke: #000000; stroke-width: 0.8"/>
      </g>
     </g>
     <g id="text_12">
      <!-- 800 -->
      <g transform="translate(27.9125 153.474513)scale(0.1 -0.1)">
       <defs>
        <path id="DejaVuSans-38" d="M 2034 2216 
Q 1584 2216 1326 1975 
Q 1069 1734 1069 1313 
Q 1069 891 1326 650 
Q 1584 409 2034 409 
Q 2484 409 2743 651 
Q 3003 894 3003 1313 
Q 3003 1734 2745 1975 
Q 2488 2216 2034 2216 
z
M 1403 2484 
Q 997 2584 770 2862 
Q 544 3141 544 3541 
Q 544 4100 942 4425 
Q 1341 4750 2034 4750 
Q 2731 4750 3128 4425 
Q 3525 4100 3525 3541 
Q 3525 3141 3298 2862 
Q 3072 2584 2669 2484 
Q 3125 2378 3379 2068 
Q 3634 1759 3634 1313 
Q 3634 634 3220 271 
Q 2806 -91 2034 -91 
Q 1263 -91 848 271 
Q 434 634 434 1313 
Q 434 1759 690 2068 
Q 947 2378 1403 2484 
z
M 1172 3481 
Q 1172 3119 1398 2916 
Q 1625 2713 2034 2713 
Q 2441 2713 2670 2916 
Q 2900 3119 2900 3481 
Q 2900 3844 2670 4047 
Q 2441 4250 2034 4250 
Q 1625 4250 1398 4047 
Q 1172 3844 1172 3481 
z
" transform="scale(0.015625)"/>
       </defs>
       <use xlink:href="#DejaVuSans-38"/>
       <use xlink:href="#DejaVuSans-30" x="63.623047"/>
       <use xlink:href="#DejaVuSans-30" x="127.246094"/>
      </g>
     </g>
    </g>
    <g id="ytick_6">
     <g id="line2d_23">
      <path d="M 54 124.094118 
L 388.8 124.094118 
" clip-path="url(#p039b2b2198)" style="fill: none; stroke: #b0b0b0; stroke-width: 0.8; stroke-linecap: square"/>
     </g>
     <g id="line2d_24">
      <g>
       <use xlink:href="#mde18a46f0e" x="54" y="124.094118" style="stroke: #000000; stroke-width: 0.8"/>
      </g>
     </g>
     <g id="text_13">
      <!-- 1000 -->
      <g transform="translate(21.55 127.893336)scale(0.1 -0.1)">
       <use xlink:href="#DejaVuSans-31"/>
       <use xlink:href="#DejaVuSans-30" x="63.623047"/>
       <use xlink:href="#DejaVuSans-30" x="127.246094"/>
       <use xlink:href="#DejaVuSans-30" x="190.869141"/>
      </g>
     </g>
    </g>
    <g id="ytick_7">
     <g id="line2d_25">
      <path d="M 54 98.512941 
L 388.8 98.512941 
" clip-path="url(#p039b2b2198)" style="fill: none; stroke: #b0b0b0; stroke-width: 0.8; stroke-linecap: square"/>
     </g>
     <g id="line2d_26">
      <g>
       <use xlink:href="#mde18a46f0e" x="54" y="98.512941" style="stroke: #000000; stroke-width: 0.8"/>
      </g>
     </g>
     <g id="text_14">
      <!-- 1200 -->
      <g transform="translate(21.55 102.31216)scale(0.1 -0.1)">
       <use xlink:href="#DejaVuSans-31"/>
       <use xlink:href="#DejaVuSans-32" x="63.623047"/>
       <use xlink:href="#DejaVuSans-30" x="127.246094"/>
       <use xlink:href="#DejaVuSans-30" x="190.869141"/>
      </g>
     </g>
    </g>
    <g id="ytick_8">
     <g id="line2d_27">
      <path d="M 54 72.931765 
L 388.8 72.931765 
" clip-path="url(#p039b2b2198)" style="fill: none; stroke: #b0b0b0; stroke-width: 0.8; stroke-linecap: square"/>
     </g>
     <g id="line2d_28">
      <g>
       <use xlink:href="#mde18a46f0e" x="54" y="72.931765" style="stroke: #000000; stroke-width: 0.8"/>
      </g>
     </g>
     <g id="text_15">
      <!-- 1400 -->
      <g transform="translate(21.55 76.730983)scale(0.1 -0.1)">
       <use xlink:href="#DejaVuSans-31"/>
       <use xlink:href="#DejaVuSans-34" x="63.623047"/>
       <use xlink:href="#DejaVuSans-30" x="127.246094"/>
       <use xlink:href="#DejaVuSans-30" x="190.869141"/>
      </g>
     </g>
    </g>
    <g id="ytick_9">
     <g id="line2d_29">
      <path d="M 54 47.350588 
L 388.8 47.350588 
" clip-path="url(#p039b2b2198)" style="fill: none; stroke: #b0b0b0; stroke-width: 0.8; stroke-linecap: square"/>
     </g>
     <g id="line2d_30">
      <g>
       <use xlink:href="#mde18a46f0e" x="54" y="47.350588" style="stroke: #000000; stroke-width: 0.8"/>
      </g>
     </g>
     <g id="text_16">
      <!-- 1600 -->
      <g transform="translate(21.55 51.149807)scale(0.1 -0.1)">
       <use xlink:href="#DejaVuSans-31"/>
       <use xlink:href="#DejaVuSans-36" x="63.623047"/>
       <use xlink:href="#DejaVuSans-30" x="127.246094"/>
       <use xlink:href="#DejaVuSans-30" x="190.869141"/>
      </g>
     </g>
    </g>
    <g id="text_17">
     <!-- count -->
     <g transform="translate(15.470312 157.38625)rotate(-90)scale(0.1 -0.1)">
      <defs>
       <path id="DejaVuSans-63" d="M 3122 3366 
L 3122 2828 
Q 2878 2963 2633 3030 
Q 2388 3097 2138 3097 
Q 1578 3097 1268 2742 
Q 959 2388 959 1747 
Q 959 1106 1268 751 
Q 1578 397 2138 397 
Q 2388 397 2633 464 
Q 2878 531 3122 666 
L 3122 134 
Q 2881 22 2623 -34 
Q 2366 -91 2075 -91 
Q 1284 -91 818 406 
Q 353 903 353 1747 
Q 353 2603 823 3093 
Q 1294 3584 2113 3584 
Q 2378 3584 2631 3529 
Q 2884 3475 3122 3366 
z
" transform="scale(0.015625)"/>
       <path id="DejaVuSans-6f" d="M 1959 3097 
Q 1497 3097 1228 2736 
Q 959 2375 959 1747 
Q 959 1119 1226 758 
Q 1494 397 1959 397 
Q 2419 397 2687 759 
Q 2956 1122 2956 1747 
Q 2956 2369 2687 2733 
Q 2419 3097 1959 3097 
z
M 1959 3584 
Q 2709 3584 3137 3096 
Q 3566 2609 3566 1747 
Q 3566 888 3137 398 
Q 2709 -91 1959 -91 
Q 1206 -91 779 398 
Q 353 888 353 1747 
Q 353 2609 779 3096 
Q 1206 3584 1959 3584 
z
" transform="scale(0.015625)"/>
       <path id="DejaVuSans-75" d="M 544 1381 
L 544 3500 
L 1119 3500 
L 1119 1403 
Q 1119 906 1312 657 
Q 1506 409 1894 409 
Q 2359 409 2629 706 
Q 2900 1003 2900 1516 
L 2900 3500 
L 3475 3500 
L 3475 0 
L 2900 0 
L 2900 538 
Q 2691 219 2414 64 
Q 2138 -91 1772 -91 
Q 1169 -91 856 284 
Q 544 659 544 1381 
z
M 1991 3584 
L 1991 3584 
z
" transform="scale(0.015625)"/>
       <path id="DejaVuSans-74" d="M 1172 4494 
L 1172 3500 
L 2356 3500 
L 2356 3053 
L 1172 3053 
L 1172 1153 
Q 1172 725 1289 603 
Q 1406 481 1766 481 
L 2356 481 
L 2356 0 
L 1766 0 
Q 1100 0 847 248 
Q 594 497 594 1153 
L 594 3053 
L 172 3053 
L 172 3500 
L 594 3500 
L 594 4494 
L 1172 4494 
z
" transform="scale(0.015625)"/>
      </defs>
      <use xlink:href="#DejaVuSans-63"/>
      <use xlink:href="#DejaVuSans-6f" x="54.980469"/>
      <use xlink:href="#DejaVuSans-75" x="116.162109"/>
      <use xlink:href="#DejaVuSans-6e" x="179.541016"/>
      <use xlink:href="#DejaVuSans-74" x="242.919922"/>
     </g>
    </g>
   </g>
   <g id="line2d_31">
    <path d="M 69.218182 229.488565 
L 69.813805 230.895529 
L 70.409429 231.023435 
L 71.005052 232.4304 
L 71.600676 232.046682 
L 72.1963 232.174588 
L 72.791923 231.790871 
L 73.387547 228.593224 
L 73.98317 229.104847 
L 74.578794 232.814118 
L 75.174417 232.686212 
L 75.770041 231.023435 
L 76.365664 230.000188 
L 76.961288 231.662965 
L 77.556912 229.872282 
L 79.343782 232.174588 
L 79.939406 228.337412 
L 80.535029 229.360659 
L 81.130653 232.814118 
L 81.726276 228.593224 
L 82.3219 233.197835 
L 82.917524 233.069929 
L 83.513147 228.593224 
L 84.108771 229.488565 
L 84.704394 230.000188 
L 85.300018 230.767624 
L 85.895641 231.279247 
L 86.491265 229.232753 
L 87.086888 231.790871 
L 87.682512 231.151341 
L 88.278136 228.593224 
L 88.873759 232.686212 
L 89.469383 229.872282 
L 90.065006 231.662965 
L 90.66063 228.593224 
L 91.256253 230.128094 
L 91.851877 230.511812 
L 92.4475 232.174588 
L 93.043124 232.558306 
L 93.638748 234.348988 
L 94.234371 230.000188 
L 94.829995 229.104847 
L 95.425618 230.639718 
L 96.021242 230.895529 
L 96.616865 229.488565 
L 97.212489 229.104847 
L 97.808112 230.383906 
L 98.99936 231.279247 
L 100.190607 228.593224 
L 100.78623 227.825788 
L 101.381854 234.732706 
L 101.977477 231.151341 
L 102.573101 229.872282 
L 103.168724 229.616471 
L 103.764348 229.232753 
L 104.359972 233.581553 
L 104.955595 230.639718 
L 105.551219 229.744376 
L 106.146842 231.535059 
L 106.742466 232.046682 
L 107.338089 232.942024 
L 107.933713 231.790871 
L 108.529336 229.616471 
L 109.12496 231.662965 
L 109.720584 226.802541 
L 110.316207 229.872282 
L 110.911831 228.465318 
L 111.507454 231.790871 
L 112.103078 231.662965 
L 112.698701 228.849035 
L 113.889948 231.662965 
L 114.485572 231.662965 
L 115.081196 230.256 
L 115.676819 233.069929 
L 116.272443 230.639718 
L 116.868066 230.767624 
L 117.46369 234.348988 
L 118.059313 230.000188 
L 118.654937 230.895529 
L 119.25056 231.535059 
L 119.846184 233.197835 
L 120.441808 229.872282 
L 121.037431 230.128094 
L 121.633055 229.872282 
L 122.228678 230.000188 
L 122.824302 230.895529 
L 123.419925 230.895529 
L 124.015549 234.6048 
L 124.611172 230.639718 
L 125.206796 231.790871 
L 125.802419 231.407153 
L 126.398043 228.465318 
L 126.993667 231.151341 
L 127.58929 229.488565 
L 128.184914 228.721129 
L 128.780537 231.407153 
L 129.376161 228.593224 
L 129.971784 233.837365 
L 130.567408 231.790871 
L 131.163031 229.232753 
L 131.758655 230.511812 
L 132.354279 227.825788 
L 132.949902 232.174588 
L 133.545526 232.4304 
L 134.141149 228.337412 
L 134.736773 232.046682 
L 135.332396 231.535059 
L 135.92802 230.511812 
L 136.523643 231.662965 
L 137.119267 232.046682 
L 137.714891 233.069929 
L 138.310514 231.023435 
L 138.906138 231.918776 
L 139.501761 231.918776 
L 140.097385 230.383906 
L 140.693008 231.918776 
L 141.288632 228.976941 
L 141.884255 229.104847 
L 142.479879 232.046682 
L 143.075503 231.023435 
L 143.671126 229.488565 
L 144.26675 229.360659 
L 144.862373 232.814118 
L 145.457997 232.046682 
L 146.05362 228.849035 
L 146.649244 228.849035 
L 147.244867 233.325741 
L 147.840491 228.849035 
L 148.436115 230.128094 
L 149.031738 230.895529 
L 149.627362 229.232753 
L 150.222985 232.174588 
L 150.818609 231.151341 
L 151.414232 230.767624 
L 152.009856 232.558306 
L 153.201103 228.976941 
L 153.796727 230.767624 
L 154.39235 230.511812 
L 154.987974 229.744376 
L 155.583597 233.325741 
L 156.179221 230.511812 
L 156.774844 225.651388 
L 157.370468 233.197835 
L 158.561715 229.872282 
L 159.157339 231.279247 
L 159.752962 228.593224 
L 160.348586 229.616471 
L 160.944209 230.895529 
L 161.539833 228.0816 
L 162.135456 227.825788 
L 163.326703 229.360659 
L 163.922327 231.023435 
L 164.517951 230.256 
L 165.113574 229.744376 
L 165.709198 227.569976 
L 166.304821 233.197835 
L 166.900445 230.383906 
L 167.496068 231.407153 
L 168.091692 232.942024 
L 168.687315 232.302494 
L 169.282939 231.407153 
L 169.878563 233.069929 
L 170.474186 228.976941 
L 171.06981 230.511812 
L 171.665433 227.697882 
L 172.261057 229.488565 
L 172.85668 229.360659 
L 173.452304 233.581553 
L 174.047927 230.895529 
L 174.643551 232.174588 
L 175.239175 231.790871 
L 175.834798 231.790871 
L 176.430422 230.895529 
L 177.026045 228.721129 
L 177.621669 230.000188 
L 178.217292 232.558306 
L 178.812916 232.558306 
L 179.408539 230.256 
L 180.004163 232.4304 
L 180.599787 232.686212 
L 181.19541 227.186259 
L 181.791034 232.4304 
L 182.386657 229.232753 
L 182.982281 230.767624 
L 183.577904 229.104847 
L 184.173528 229.616471 
L 184.769151 231.279247 
L 185.364775 232.046682 
L 185.960399 228.0816 
L 186.556022 230.128094 
L 187.151646 228.976941 
L 187.747269 232.686212 
L 188.342893 231.279247 
L 188.938516 230.895529 
L 189.53414 230.895529 
L 190.129763 227.825788 
L 190.725387 230.511812 
L 191.32101 230.767624 
L 191.916634 231.279247 
L 192.512258 230.639718 
L 193.107881 231.407153 
L 193.703505 228.209506 
L 194.299128 227.314165 
L 194.894752 230.511812 
L 195.490375 229.232753 
L 196.085999 231.918776 
L 196.681622 232.174588 
L 197.277246 231.023435 
L 197.87287 230.511812 
L 198.468493 231.535059 
L 199.064117 231.023435 
L 199.65974 232.046682 
L 200.255364 229.488565 
L 200.850987 231.535059 
L 201.446611 230.639718 
L 202.042234 231.790871 
L 203.233482 231.535059 
L 203.829105 229.232753 
L 204.424729 231.662965 
L 205.020352 231.662965 
L 205.615976 233.453647 
L 206.211599 232.4304 
L 206.807223 229.360659 
L 207.402846 232.302494 
L 207.99847 230.639718 
L 208.594094 231.023435 
L 209.189717 231.662965 
L 209.785341 231.662965 
L 210.380964 230.000188 
L 210.976588 231.662965 
L 211.572211 232.174588 
L 212.167835 230.256 
L 212.763458 229.616471 
L 213.359082 232.558306 
L 213.954706 232.046682 
L 214.550329 231.023435 
L 215.145953 231.151341 
L 215.741576 230.383906 
L 216.3372 227.058353 
L 216.932823 226.802541 
L 217.528447 227.442071 
L 218.12407 224.756047 
L 218.719694 223.221176 
L 219.910941 212.732894 
L 220.506565 208.512 
L 221.102188 200.453929 
L 221.697812 196.488847 
L 222.293435 186.384282 
L 222.889059 173.465788 
L 223.484682 173.337882 
L 224.080306 164.512376 
L 224.67593 161.186824 
L 225.271553 161.314729 
L 225.867177 160.803106 
L 226.4628 162.082165 
L 227.654047 171.035576 
L 228.249671 179.605271 
L 228.845294 193.2912 
L 229.440918 195.209788 
L 230.036542 206.849224 
L 230.632165 210.6864 
L 231.227789 219.256094 
L 231.823412 223.860706 
L 232.419036 220.279341 
L 233.014659 222.581647 
L 233.610283 226.163012 
L 234.205906 228.721129 
L 234.80153 228.209506 
L 235.397154 230.000188 
L 235.992777 228.849035 
L 236.588401 231.790871 
L 237.184024 229.104847 
L 238.375271 232.174588 
L 238.970895 231.407153 
L 239.566518 228.721129 
L 240.162142 228.976941 
L 240.757766 230.895529 
L 241.353389 232.046682 
L 242.544636 229.232753 
L 243.14026 228.849035 
L 243.735883 229.872282 
L 244.331507 229.744376 
L 244.92713 231.023435 
L 245.522754 231.279247 
L 246.118378 232.686212 
L 246.714001 230.767624 
L 247.309625 230.383906 
L 247.905248 234.348988 
L 248.500872 229.104847 
L 249.692119 232.4304 
L 250.287742 228.465318 
L 250.883366 230.895529 
L 251.47899 231.023435 
L 252.074613 228.593224 
L 252.670237 229.616471 
L 253.26586 230.256 
L 253.861484 229.616471 
L 254.457107 229.872282 
L 255.052731 232.174588 
L 255.648354 232.302494 
L 256.243978 229.872282 
L 256.839601 229.872282 
L 257.435225 229.744376 
L 258.030849 230.767624 
L 258.626472 230.767624 
L 259.222096 232.174588 
L 259.817719 231.662965 
L 260.413343 229.360659 
L 261.008966 232.174588 
L 261.60459 228.849035 
L 262.200213 231.535059 
L 262.795837 230.511812 
L 263.391461 231.279247 
L 263.987084 230.128094 
L 264.582708 230.256 
L 265.178331 227.569976 
L 265.773955 230.256 
L 266.369578 229.232753 
L 266.965202 227.953694 
L 267.560825 227.697882 
L 268.156449 232.942024 
L 268.752073 229.104847 
L 269.347696 230.383906 
L 269.94332 228.593224 
L 270.538943 229.744376 
L 271.134567 229.744376 
L 271.73019 228.209506 
L 272.325814 233.965271 
L 272.921437 230.383906 
L 273.517061 229.488565 
L 274.112685 230.128094 
L 274.708308 230.128094 
L 275.303932 230.000188 
L 275.899555 231.023435 
L 276.495179 230.895529 
L 278.282049 232.174588 
L 278.877673 231.151341 
L 279.473297 228.337412 
L 280.06892 232.046682 
L 280.664544 229.616471 
L 281.260167 230.511812 
L 281.855791 228.593224 
L 283.047038 229.488565 
L 283.642661 231.790871 
L 284.238285 229.744376 
L 284.833909 232.558306 
L 285.429532 233.581553 
L 286.025156 228.337412 
L 286.620779 228.976941 
L 287.216403 230.128094 
L 287.812026 231.918776 
L 288.40765 231.662965 
L 289.003273 233.965271 
L 289.598897 231.790871 
L 290.194521 230.256 
L 290.790144 226.674635 
L 291.385768 231.151341 
L 291.981391 233.069929 
L 292.577015 227.186259 
L 293.172638 231.407153 
L 293.768262 233.453647 
L 294.363885 233.709459 
L 294.959509 229.360659 
L 295.555133 228.337412 
L 296.150756 231.535059 
L 296.74638 228.721129 
L 297.342003 230.000188 
L 297.937627 231.662965 
L 298.53325 233.837365 
L 299.128874 231.023435 
L 299.724497 230.128094 
L 300.320121 228.337412 
L 300.915745 231.023435 
L 301.511368 232.302494 
L 302.106992 230.256 
L 302.702615 232.942024 
L 303.298239 232.046682 
L 303.893862 231.662965 
L 304.489486 233.965271 
L 305.085109 230.767624 
L 305.680733 231.918776 
L 306.276357 228.849035 
L 306.87198 228.849035 
L 308.063227 230.383906 
L 308.658851 229.360659 
L 309.254474 230.128094 
L 309.850098 229.488565 
L 310.445721 229.232753 
L 311.041345 228.209506 
L 311.636969 229.360659 
L 312.232592 232.814118 
L 312.828216 232.046682 
L 313.423839 230.256 
L 314.019463 231.279247 
L 314.615086 230.511812 
L 315.21071 226.930447 
L 315.806333 232.046682 
L 316.401957 231.918776 
L 316.997581 231.151341 
L 317.593204 230.639718 
L 318.188828 231.151341 
L 318.784451 229.488565 
L 319.380075 229.360659 
L 319.975698 233.453647 
L 320.571322 230.383906 
L 321.166945 231.535059 
L 321.762569 233.197835 
L 322.358192 231.023435 
L 322.953816 232.814118 
L 323.54944 230.128094 
L 324.145063 234.348988 
L 324.740687 232.686212 
L 325.33631 230.383906 
L 325.931934 231.790871 
L 326.527557 231.407153 
L 327.123181 233.453647 
L 327.718804 233.837365 
L 328.314428 232.046682 
L 328.910052 230.767624 
L 329.505675 232.686212 
L 330.101299 231.151341 
L 330.696922 230.383906 
L 331.292546 232.686212 
L 331.888169 229.360659 
L 332.483793 231.023435 
L 333.079416 228.337412 
L 333.67504 231.151341 
L 334.270664 228.337412 
L 334.866287 231.407153 
L 335.461911 228.465318 
L 336.057534 232.686212 
L 336.653158 232.046682 
L 337.248781 232.174588 
L 337.844405 231.918776 
L 338.440028 230.383906 
L 339.035652 229.232753 
L 339.631276 233.069929 
L 340.226899 230.639718 
L 340.822523 231.407153 
L 341.418146 231.790871 
L 342.01377 231.662965 
L 342.609393 230.128094 
L 343.205017 229.616471 
L 343.80064 232.4304 
L 344.396264 231.918776 
L 344.991888 229.872282 
L 345.587511 231.918776 
L 346.183135 231.662965 
L 346.778758 234.221082 
L 347.374382 232.4304 
L 347.970005 228.465318 
L 348.565629 229.488565 
L 349.161252 231.662965 
L 349.756876 229.488565 
L 350.3525 230.511812 
L 350.948123 231.279247 
L 351.543747 231.151341 
L 352.13937 232.814118 
L 352.734994 233.709459 
L 353.330617 230.639718 
L 353.926241 231.151341 
L 354.521864 229.744376 
L 355.117488 231.662965 
L 355.713112 232.174588 
L 356.308735 230.000188 
L 356.904359 234.348988 
L 357.499982 229.104847 
L 358.095606 229.104847 
L 358.691229 232.558306 
L 359.286853 231.790871 
L 359.882476 232.046682 
L 360.4781 226.802541 
L 361.073724 230.000188 
L 361.669347 230.767624 
L 362.264971 230.767624 
L 362.860594 229.360659 
L 363.456218 233.581553 
L 364.051841 232.302494 
L 364.647465 233.709459 
L 365.243088 228.849035 
L 365.838712 230.128094 
L 366.434336 234.860612 
L 367.029959 230.639718 
L 367.625583 231.790871 
L 368.221206 227.569976 
L 368.81683 230.639718 
L 369.412453 232.174588 
L 370.008077 230.767624 
L 370.6037 233.069929 
L 371.199324 230.511812 
L 372.390571 231.918776 
L 372.986195 232.558306 
L 373.581818 228.465318 
L 373.581818 228.465318 
" clip-path="url(#p039b2b2198)" style="fill: none; stroke: #1f77b4; stroke-width: 1.5; stroke-linecap: square"/>
   </g>
   <g id="line2d_32">
    <path d="M 69.218182 185.105224 
L 69.813805 185.361035 
L 70.409429 186.256376 
L 71.005052 185.744753 
L 71.600676 181.523859 
L 72.1963 182.547106 
L 72.791923 179.221553 
L 73.387547 179.988988 
L 73.98317 184.081976 
L 75.174417 177.302965 
L 75.770041 180.500612 
L 76.365664 184.337788 
L 77.556912 180.2448 
L 78.748159 186.256376 
L 79.343782 180.628518 
L 79.939406 180.372706 
L 80.535029 186.512188 
L 81.130653 182.802918 
L 81.726276 188.302871 
L 82.917524 184.465694 
L 83.513147 181.140141 
L 84.108771 187.023812 
L 84.704394 179.349459 
L 85.300018 180.372706 
L 85.895641 184.081976 
L 86.491265 186.128471 
L 87.086888 184.849412 
L 87.682512 188.302871 
L 88.278136 182.802918 
L 89.469383 188.558682 
L 90.065006 183.442447 
L 90.66063 185.233129 
L 91.256253 180.116894 
L 91.851877 185.105224 
L 92.4475 186.640094 
L 93.043124 183.442447 
L 93.638748 182.163388 
L 94.234371 183.954071 
L 94.829995 183.698259 
L 95.425618 186.256376 
L 96.021242 183.314541 
L 96.616865 183.698259 
L 97.212489 186.256376 
L 97.808112 187.663341 
L 98.403736 184.465694 
L 98.99936 177.430871 
L 99.594983 186.512188 
L 100.190607 181.395953 
L 100.78623 189.837741 
L 101.381854 179.605271 
L 101.977477 183.058729 
L 102.573101 179.733176 
L 103.168724 185.361035 
L 103.764348 184.081976 
L 104.359972 177.047153 
L 104.955595 182.547106 
L 105.551219 185.616847 
L 106.146842 185.488941 
L 106.742466 185.488941 
L 107.338089 175.640188 
L 107.933713 186.000565 
L 108.529336 184.209882 
L 109.12496 188.558682 
L 109.720584 182.547106 
L 110.316207 179.349459 
L 110.911831 182.930824 
L 111.507454 182.035482 
L 112.103078 187.663341 
L 112.698701 177.430871 
L 113.294325 179.349459 
L 113.889948 184.977318 
L 114.485572 181.907576 
L 115.081196 182.675012 
L 115.676819 182.930824 
L 116.272443 186.256376 
L 116.868066 184.721506 
L 117.46369 185.744753 
L 118.059313 187.535435 
L 118.654937 184.5936 
L 119.25056 186.384282 
L 119.846184 177.814588 
L 121.037431 186.000565 
L 121.633055 183.186635 
L 122.228678 181.907576 
L 122.824302 174.105318 
L 123.419925 183.314541 
L 124.015549 181.012235 
L 124.611172 183.570353 
L 125.206796 182.547106 
L 125.802419 188.686588 
L 126.398043 186.768 
L 126.993667 183.826165 
L 127.58929 185.488941 
L 128.184914 186.128471 
L 129.376161 180.756424 
L 129.971784 184.849412 
L 130.567408 185.361035 
L 131.163031 177.047153 
L 131.758655 184.849412 
L 132.354279 181.523859 
L 132.949902 182.163388 
L 133.545526 182.291294 
L 134.141149 183.570353 
L 134.736773 189.326118 
L 135.332396 185.105224 
L 135.92802 186.768 
L 137.119267 182.675012 
L 137.714891 181.651765 
L 138.310514 182.675012 
L 138.906138 183.442447 
L 139.501761 178.454118 
L 140.097385 185.233129 
L 140.693008 183.570353 
L 141.288632 184.5936 
L 141.884255 190.349365 
L 142.479879 179.093647 
L 143.075503 180.372706 
L 143.671126 179.861082 
L 144.862373 187.279624 
L 145.457997 182.163388 
L 146.05362 183.314541 
L 146.649244 176.279718 
L 147.244867 190.477271 
L 147.840491 187.407529 
L 148.436115 181.651765 
L 149.031738 184.5936 
L 149.627362 181.395953 
L 150.222985 182.163388 
L 150.818609 182.675012 
L 151.414232 182.4192 
L 152.009856 186.256376 
L 152.605479 178.326212 
L 153.201103 179.861082 
L 153.796727 184.5936 
L 154.39235 185.105224 
L 154.987974 182.035482 
L 155.583597 186.384282 
L 156.179221 175.512282 
L 156.774844 183.826165 
L 157.370468 179.861082 
L 157.966091 181.140141 
L 158.561715 183.186635 
L 159.157339 184.5936 
L 159.752962 184.081976 
L 160.348586 187.151718 
L 160.944209 180.500612 
L 161.539833 184.849412 
L 162.135456 187.919153 
L 162.73108 181.395953 
L 163.326703 179.988988 
L 163.922327 184.337788 
L 164.517951 183.314541 
L 165.113574 184.209882 
L 165.709198 175.640188 
L 166.900445 182.035482 
L 167.496068 190.221459 
L 168.091692 179.605271 
L 168.687315 182.4192 
L 169.282939 180.756424 
L 169.878563 183.058729 
L 170.474186 180.500612 
L 171.06981 178.837835 
L 171.665433 186.256376 
L 172.261057 188.302871 
L 172.85668 176.919247 
L 173.452304 180.116894 
L 174.047927 182.163388 
L 174.643551 181.779671 
L 175.239175 178.709929 
L 175.834798 182.547106 
L 176.430422 180.884329 
L 177.026045 180.628518 
L 177.621669 183.186635 
L 178.217292 182.930824 
L 178.812916 190.988894 
L 179.408539 179.093647 
L 180.004163 186.000565 
L 180.599787 188.302871 
L 181.19541 185.616847 
L 181.791034 186.000565 
L 182.386657 181.395953 
L 183.577904 184.977318 
L 184.173528 188.814494 
L 184.769151 183.186635 
L 185.364775 186.512188 
L 185.960399 190.733082 
L 186.556022 184.5936 
L 187.151646 183.186635 
L 187.747269 180.884329 
L 188.342893 176.407624 
L 188.938516 185.361035 
L 189.53414 179.733176 
L 190.129763 180.884329 
L 190.725387 184.081976 
L 191.32101 184.5936 
L 191.916634 180.884329 
L 192.512258 184.849412 
L 193.107881 181.012235 
L 193.703505 183.570353 
L 194.299128 180.372706 
L 194.894752 181.268047 
L 195.490375 183.698259 
L 196.085999 182.802918 
L 196.681622 184.465694 
L 197.277246 182.4192 
L 197.87287 182.547106 
L 198.468493 183.570353 
L 199.064117 182.4192 
L 199.65974 185.488941 
L 200.255364 185.105224 
L 200.850987 183.186635 
L 201.446611 181.907576 
L 202.042234 180.2448 
L 202.637858 187.791247 
L 203.233482 184.721506 
L 204.424729 185.361035 
L 205.020352 184.465694 
L 205.615976 184.465694 
L 206.211599 183.186635 
L 206.807223 179.988988 
L 207.402846 181.523859 
L 207.99847 183.570353 
L 208.594094 184.081976 
L 209.189717 179.733176 
L 209.785341 179.349459 
L 210.380964 184.5936 
L 211.572211 182.675012 
L 212.167835 185.616847 
L 212.763458 179.093647 
L 213.359082 182.802918 
L 213.954706 182.291294 
L 214.550329 186.768 
L 215.145953 182.675012 
L 215.741576 186.512188 
L 216.3372 182.291294 
L 216.932823 182.035482 
L 217.528447 186.512188 
L 218.12407 184.849412 
L 218.719694 184.337788 
L 219.315318 187.535435 
L 219.910941 185.361035 
L 220.506565 178.709929 
L 221.102188 185.361035 
L 221.697812 179.349459 
L 222.293435 180.884329 
L 222.889059 177.686682 
L 223.484682 183.314541 
L 224.080306 183.186635 
L 224.67593 182.675012 
L 225.271553 182.802918 
L 225.867177 186.768 
L 226.4628 184.977318 
L 227.058424 183.698259 
L 227.654047 173.593694 
L 228.249671 178.582024 
L 228.845294 186.000565 
L 229.440918 188.558682 
L 230.036542 184.465694 
L 230.632165 189.326118 
L 231.227789 183.058729 
L 231.823412 188.430776 
L 232.419036 191.1168 
L 233.610283 183.314541 
L 234.205906 187.535435 
L 234.80153 178.454118 
L 235.397154 179.988988 
L 235.992777 179.349459 
L 237.184024 176.663435 
L 237.779648 171.803012 
L 238.375271 169.756518 
L 238.970895 165.151906 
L 239.566518 157.989176 
L 240.162142 160.547294 
L 240.757766 142.896282 
L 241.353389 139.570729 
L 241.949013 142.000941 
L 242.544636 135.861459 
L 243.14026 131.384753 
L 243.735883 126.012706 
L 244.331507 124.989459 
L 244.92713 124.477835 
L 245.522754 128.187106 
L 246.118378 141.1056 
L 246.714001 147.6288 
L 247.309625 140.082353 
L 247.905248 154.535718 
L 248.500872 162.977506 
L 250.287742 178.582024 
L 250.883366 181.907576 
L 252.074613 179.093647 
L 252.670237 183.314541 
L 253.26586 177.430871 
L 253.861484 184.209882 
L 254.457107 188.814494 
L 255.052731 184.081976 
L 255.648354 181.012235 
L 256.839601 187.791247 
L 257.435225 181.268047 
L 258.030849 176.663435 
L 258.626472 184.849412 
L 259.222096 180.628518 
L 259.817719 184.977318 
L 260.413343 186.768 
L 261.008966 185.488941 
L 261.60459 185.488941 
L 262.200213 187.151718 
L 262.795837 185.105224 
L 263.391461 184.465694 
L 263.987084 187.919153 
L 264.582708 186.895906 
L 265.773955 184.081976 
L 266.369578 178.0704 
L 266.965202 186.640094 
L 267.560825 184.081976 
L 268.156449 183.698259 
L 268.752073 179.733176 
L 269.347696 181.523859 
L 269.94332 180.372706 
L 270.538943 183.442447 
L 271.134567 188.9424 
L 271.73019 183.314541 
L 272.325814 182.035482 
L 272.921437 182.802918 
L 273.517061 188.686588 
L 274.112685 181.395953 
L 274.708308 188.430776 
L 275.303932 182.547106 
L 275.899555 184.849412 
L 276.495179 182.4192 
L 277.090802 187.791247 
L 277.686426 183.826165 
L 278.282049 182.675012 
L 278.877673 180.372706 
L 279.473297 184.465694 
L 280.06892 184.081976 
L 280.664544 181.651765 
L 281.260167 187.151718 
L 281.855791 180.2448 
L 282.451414 179.733176 
L 283.047038 185.616847 
L 283.642661 184.721506 
L 284.238285 182.163388 
L 284.833909 181.523859 
L 285.429532 184.465694 
L 286.025156 183.826165 
L 286.620779 184.209882 
L 287.216403 183.570353 
L 287.812026 186.895906 
L 288.40765 184.209882 
L 289.003273 187.663341 
L 289.598897 176.279718 
L 290.194521 179.477365 
L 290.790144 185.105224 
L 291.981391 180.2448 
L 293.172638 188.047059 
L 293.768262 182.547106 
L 294.363885 175.000659 
L 294.959509 178.454118 
L 295.555133 186.000565 
L 296.150756 187.279624 
L 296.74638 185.105224 
L 297.342003 187.407529 
L 297.937627 180.628518 
L 298.53325 182.802918 
L 299.128874 182.4192 
L 299.724497 187.663341 
L 300.320121 182.802918 
L 300.915745 186.512188 
L 301.511368 186.384282 
L 302.106992 187.407529 
L 302.702615 181.012235 
L 303.298239 182.163388 
L 303.893862 183.826165 
L 304.489486 181.012235 
L 305.085109 186.384282 
L 305.680733 187.407529 
L 306.276357 180.372706 
L 306.87198 189.581929 
L 308.658851 180.2448 
L 309.254474 180.372706 
L 309.850098 185.872659 
L 310.445721 183.314541 
L 311.041345 184.209882 
L 311.636969 182.675012 
L 312.232592 180.628518 
L 312.828216 183.058729 
L 313.423839 183.314541 
L 314.019463 188.302871 
L 314.615086 187.279624 
L 315.21071 178.326212 
L 315.806333 189.837741 
L 316.401957 184.5936 
L 316.997581 182.930824 
L 317.593204 182.675012 
L 318.188828 185.233129 
L 318.784451 184.337788 
L 319.380075 183.058729 
L 319.975698 179.605271 
L 320.571322 184.721506 
L 321.762569 184.081976 
L 322.358192 184.5936 
L 322.953816 183.442447 
L 323.54944 181.140141 
L 324.145063 186.768 
L 324.740687 182.163388 
L 325.33631 182.4192 
L 325.931934 178.0704 
L 326.527557 187.023812 
L 327.123181 178.709929 
L 327.718804 184.465694 
L 328.314428 183.570353 
L 328.910052 181.012235 
L 329.505675 185.105224 
L 330.101299 185.105224 
L 330.696922 179.221553 
L 331.292546 180.372706 
L 331.888169 179.988988 
L 332.483793 181.907576 
L 333.079416 188.047059 
L 333.67504 178.326212 
L 334.270664 184.721506 
L 334.866287 180.372706 
L 335.461911 182.675012 
L 336.057534 181.779671 
L 336.653158 182.035482 
L 337.248781 184.337788 
L 337.844405 181.907576 
L 338.440028 184.977318 
L 339.035652 187.407529 
L 339.631276 184.337788 
L 340.226899 177.686682 
L 340.822523 185.616847 
L 341.418146 185.105224 
L 342.01377 185.872659 
L 342.609393 182.163388 
L 343.205017 186.000565 
L 343.80064 182.291294 
L 344.396264 184.337788 
L 344.991888 184.337788 
L 345.587511 185.744753 
L 346.183135 184.849412 
L 346.778758 186.128471 
L 347.374382 182.163388 
L 347.970005 182.291294 
L 348.565629 185.872659 
L 349.161252 184.465694 
L 349.756876 184.081976 
L 350.3525 182.035482 
L 350.948123 181.907576 
L 351.543747 182.930824 
L 352.13937 188.047059 
L 352.734994 182.547106 
L 353.330617 186.256376 
L 353.926241 183.442447 
L 354.521864 181.779671 
L 355.117488 188.047059 
L 355.713112 179.861082 
L 356.308735 178.582024 
L 356.904359 181.012235 
L 357.499982 187.151718 
L 358.095606 182.802918 
L 358.691229 189.326118 
L 359.286853 182.035482 
L 359.882476 184.337788 
L 360.4781 185.872659 
L 361.073724 185.616847 
L 361.669347 185.616847 
L 362.264971 186.512188 
L 362.860594 177.686682 
L 363.456218 183.826165 
L 364.051841 183.954071 
L 364.647465 184.977318 
L 365.243088 181.779671 
L 365.838712 184.721506 
L 366.434336 185.744753 
L 367.029959 184.977318 
L 367.625583 179.349459 
L 368.221206 183.314541 
L 368.81683 182.4192 
L 369.412453 181.907576 
L 370.008077 184.5936 
L 370.6037 183.826165 
L 371.199324 184.209882 
L 371.794948 182.4192 
L 372.390571 182.163388 
L 372.986195 180.756424 
L 373.581818 189.070306 
L 373.581818 189.070306 
" clip-path="url(#p039b2b2198)" style="fill: none; stroke: #ff7f0e; stroke-width: 1.5; stroke-linecap: square"/>
   </g>
   <g id="line2d_33">
    <path d="M 69.218182 229.360659 
L 69.813805 228.337412 
L 70.409429 230.767624 
L 71.005052 230.767624 
L 71.600676 231.023435 
L 72.1963 229.104847 
L 72.791923 232.4304 
L 73.387547 229.232753 
L 73.98317 230.128094 
L 74.578794 228.849035 
L 75.174417 230.511812 
L 75.770041 227.314165 
L 76.365664 227.953694 
L 76.961288 228.849035 
L 77.556912 231.535059 
L 78.152535 228.721129 
L 78.748159 228.849035 
L 79.343782 228.209506 
L 79.939406 230.128094 
L 80.535029 227.953694 
L 81.130653 230.128094 
L 81.726276 229.744376 
L 82.3219 227.442071 
L 82.917524 230.639718 
L 84.108771 231.662965 
L 85.300018 229.744376 
L 85.895641 227.697882 
L 86.491265 231.151341 
L 87.086888 228.976941 
L 87.682512 228.209506 
L 88.278136 226.290918 
L 88.873759 229.488565 
L 89.469383 229.616471 
L 90.065006 229.232753 
L 90.66063 232.686212 
L 91.256253 231.279247 
L 91.851877 227.186259 
L 92.4475 227.058353 
L 93.043124 230.383906 
L 93.638748 227.825788 
L 94.234371 228.849035 
L 94.829995 228.0816 
L 95.425618 227.569976 
L 96.021242 232.174588 
L 96.616865 227.825788 
L 97.212489 228.337412 
L 97.808112 230.895529 
L 98.403736 227.697882 
L 98.99936 231.023435 
L 99.594983 229.872282 
L 100.190607 232.942024 
L 100.78623 230.256 
L 101.381854 228.465318 
L 101.977477 227.186259 
L 102.573101 230.000188 
L 103.168724 228.465318 
L 103.764348 231.151341 
L 104.359972 228.593224 
L 104.955595 228.976941 
L 105.551219 231.535059 
L 106.146842 230.767624 
L 106.742466 231.151341 
L 107.338089 226.290918 
L 107.933713 227.825788 
L 108.529336 228.209506 
L 109.12496 226.930447 
L 109.720584 228.849035 
L 110.316207 229.488565 
L 110.911831 231.790871 
L 111.507454 228.849035 
L 112.103078 226.674635 
L 112.698701 227.953694 
L 113.294325 228.593224 
L 113.889948 229.872282 
L 114.485572 229.104847 
L 115.081196 229.488565 
L 115.676819 227.953694 
L 116.272443 228.976941 
L 116.868066 232.558306 
L 117.46369 229.104847 
L 118.059313 229.104847 
L 118.654937 228.976941 
L 119.25056 231.279247 
L 119.846184 231.151341 
L 121.633055 229.872282 
L 122.228678 229.232753 
L 122.824302 230.767624 
L 123.419925 229.360659 
L 124.015549 230.895529 
L 124.611172 230.895529 
L 125.206796 229.488565 
L 125.802419 229.232753 
L 126.398043 231.790871 
L 126.993667 231.407153 
L 127.58929 229.872282 
L 128.184914 230.000188 
L 128.780537 228.209506 
L 129.376161 229.232753 
L 129.971784 229.488565 
L 130.567408 231.279247 
L 131.163031 229.232753 
L 131.758655 229.616471 
L 132.354279 231.279247 
L 132.949902 228.0816 
L 133.545526 232.558306 
L 134.141149 227.569976 
L 134.736773 226.163012 
L 135.332396 230.128094 
L 135.92802 230.895529 
L 136.523643 229.104847 
L 137.119267 226.290918 
L 137.714891 227.058353 
L 138.906138 230.000188 
L 139.501761 230.128094 
L 140.097385 227.569976 
L 140.693008 229.872282 
L 141.288632 228.337412 
L 141.884255 228.593224 
L 142.479879 229.232753 
L 143.075503 233.581553 
L 143.671126 228.465318 
L 144.26675 229.488565 
L 144.862373 226.674635 
L 145.457997 232.046682 
L 146.05362 232.174588 
L 146.649244 230.895529 
L 147.244867 227.314165 
L 147.840491 227.058353 
L 148.436115 233.197835 
L 149.031738 230.895529 
L 149.627362 226.802541 
L 150.222985 230.256 
L 150.818609 228.593224 
L 151.414232 228.337412 
L 152.009856 227.186259 
L 152.605479 227.825788 
L 153.201103 233.325741 
L 153.796727 227.569976 
L 154.39235 227.825788 
L 154.987974 230.639718 
L 155.583597 229.744376 
L 156.179221 226.930447 
L 156.774844 231.151341 
L 157.370468 227.186259 
L 157.966091 228.976941 
L 158.561715 231.662965 
L 159.157339 229.872282 
L 159.752962 227.697882 
L 160.348586 227.697882 
L 160.944209 231.407153 
L 161.539833 230.383906 
L 162.135456 229.104847 
L 162.73108 231.151341 
L 163.326703 228.593224 
L 163.922327 232.174588 
L 164.517951 230.128094 
L 165.113574 230.128094 
L 165.709198 231.023435 
L 166.304821 229.872282 
L 166.900445 225.011859 
L 167.496068 230.256 
L 168.091692 229.488565 
L 168.687315 230.767624 
L 169.282939 230.639718 
L 169.878563 227.825788 
L 170.474186 231.407153 
L 171.06981 232.302494 
L 171.665433 232.942024 
L 172.261057 227.186259 
L 172.85668 228.593224 
L 173.452304 231.023435 
L 174.047927 228.465318 
L 174.643551 229.104847 
L 175.239175 230.256 
L 175.834798 229.232753 
L 176.430422 230.639718 
L 177.026045 229.232753 
L 178.217292 233.197835 
L 178.812916 229.232753 
L 179.408539 230.383906 
L 180.004163 231.151341 
L 180.599787 230.895529 
L 181.19541 228.209506 
L 181.791034 229.232753 
L 182.386657 230.767624 
L 182.982281 228.849035 
L 183.577904 229.872282 
L 184.173528 231.918776 
L 184.769151 226.674635 
L 185.364775 224.756047 
L 185.960399 226.290918 
L 186.556022 230.639718 
L 187.151646 227.569976 
L 187.747269 229.104847 
L 188.342893 227.697882 
L 188.938516 228.209506 
L 189.53414 230.128094 
L 190.129763 233.325741 
L 190.725387 229.104847 
L 191.32101 228.0816 
L 191.916634 232.814118 
L 192.512258 228.721129 
L 193.107881 228.0816 
L 193.703505 227.697882 
L 194.299128 226.802541 
L 195.490375 231.023435 
L 196.085999 227.569976 
L 196.681622 231.790871 
L 197.277246 227.314165 
L 197.87287 230.000188 
L 198.468493 228.721129 
L 199.064117 231.407153 
L 199.65974 228.0816 
L 200.255364 233.197835 
L 200.850987 227.058353 
L 201.446611 229.872282 
L 202.042234 229.232753 
L 202.637858 231.023435 
L 203.233482 226.290918 
L 203.829105 228.721129 
L 204.424729 232.814118 
L 205.020352 229.104847 
L 205.615976 226.930447 
L 206.211599 230.000188 
L 206.807223 231.790871 
L 207.402846 228.849035 
L 207.99847 229.360659 
L 208.594094 229.232753 
L 209.189717 228.593224 
L 209.785341 230.895529 
L 210.380964 228.721129 
L 210.976588 228.0816 
L 211.572211 229.872282 
L 212.167835 230.128094 
L 212.763458 229.616471 
L 213.359082 230.895529 
L 213.954706 229.488565 
L 215.145953 230.511812 
L 216.3372 228.0816 
L 216.932823 232.686212 
L 217.528447 227.825788 
L 218.12407 230.767624 
L 218.719694 230.511812 
L 219.315318 231.662965 
L 219.910941 231.023435 
L 220.506565 230.128094 
L 221.102188 230.000188 
L 221.697812 229.104847 
L 222.293435 228.721129 
L 222.889059 227.953694 
L 223.484682 228.721129 
L 224.080306 230.383906 
L 224.67593 226.802541 
L 225.271553 227.058353 
L 225.867177 230.895529 
L 226.4628 230.511812 
L 227.058424 228.209506 
L 227.654047 228.0816 
L 228.249671 232.942024 
L 228.845294 227.953694 
L 229.440918 231.279247 
L 230.036542 229.360659 
L 230.632165 229.744376 
L 231.227789 228.849035 
L 231.823412 227.697882 
L 232.419036 229.488565 
L 233.014659 232.174588 
L 233.610283 230.767624 
L 234.205906 230.383906 
L 234.80153 227.569976 
L 235.397154 229.488565 
L 235.992777 228.337412 
L 236.588401 230.383906 
L 237.184024 228.721129 
L 237.779648 230.511812 
L 238.375271 227.569976 
L 238.970895 230.128094 
L 239.566518 229.616471 
L 240.162142 231.918776 
L 240.757766 230.895529 
L 241.949013 226.930447 
L 242.544636 227.058353 
L 243.14026 230.511812 
L 243.735883 231.151341 
L 244.331507 227.442071 
L 244.92713 233.069929 
L 245.522754 230.383906 
L 246.118378 231.662965 
L 246.714001 226.930447 
L 247.309625 231.535059 
L 247.905248 228.849035 
L 248.500872 230.383906 
L 249.096495 229.616471 
L 249.692119 229.360659 
L 250.287742 227.569976 
L 250.883366 230.000188 
L 251.47899 229.872282 
L 252.074613 231.023435 
L 252.670237 229.488565 
L 253.26586 232.046682 
L 253.861484 226.418824 
L 254.457107 229.488565 
L 255.052731 230.767624 
L 255.648354 229.616471 
L 256.243978 230.767624 
L 256.839601 228.976941 
L 257.435225 231.279247 
L 258.030849 231.407153 
L 258.626472 229.872282 
L 259.222096 227.314165 
L 259.817719 229.872282 
L 260.413343 229.104847 
L 261.008966 228.721129 
L 261.60459 226.802541 
L 262.200213 231.023435 
L 262.795837 231.151341 
L 263.391461 229.488565 
L 263.987084 229.616471 
L 264.582708 231.279247 
L 265.178331 229.360659 
L 265.773955 228.976941 
L 266.369578 231.407153 
L 266.965202 232.4304 
L 267.560825 227.314165 
L 268.156449 231.662965 
L 268.752073 226.418824 
L 269.347696 230.128094 
L 269.94332 229.744376 
L 270.538943 232.174588 
L 271.134567 229.872282 
L 271.73019 231.535059 
L 272.325814 229.488565 
L 272.921437 229.488565 
L 273.517061 228.465318 
L 274.112685 231.918776 
L 274.708308 230.383906 
L 275.303932 225.779294 
L 275.899555 226.035106 
L 276.495179 227.569976 
L 277.090802 224.244424 
L 277.686426 223.349082 
L 278.282049 221.046776 
L 280.664544 205.698071 
L 281.260167 206.209694 
L 281.855791 203.523671 
L 282.451414 198.535341 
L 283.047038 201.349271 
L 283.642661 198.663247 
L 284.238285 199.302776 
L 284.833909 208.384094 
L 285.429532 206.977129 
L 286.025156 209.407341 
L 286.620779 209.151529 
L 287.812026 217.977035 
L 288.40765 220.918871 
L 289.003273 223.221176 
L 289.598897 226.290918 
L 290.194521 224.628141 
L 290.790144 226.035106 
L 291.385768 227.058353 
L 291.981391 231.535059 
L 292.577015 230.511812 
L 293.172638 232.942024 
L 293.768262 227.442071 
L 294.363885 233.069929 
L 294.959509 229.616471 
L 295.555133 229.360659 
L 296.150756 227.442071 
L 296.74638 231.151341 
L 297.342003 229.872282 
L 297.937627 230.383906 
L 298.53325 232.046682 
L 299.128874 230.511812 
L 299.724497 230.000188 
L 300.320121 231.023435 
L 300.915745 228.337412 
L 301.511368 230.895529 
L 302.106992 230.000188 
L 302.702615 230.256 
L 303.298239 228.976941 
L 303.893862 228.465318 
L 304.489486 231.023435 
L 305.085109 226.546729 
L 305.680733 230.383906 
L 306.276357 230.128094 
L 307.467604 230.895529 
L 308.063227 226.674635 
L 308.658851 227.825788 
L 309.254474 229.872282 
L 309.850098 230.767624 
L 310.445721 230.639718 
L 311.041345 230.383906 
L 311.636969 231.151341 
L 312.828216 228.337412 
L 313.423839 229.616471 
L 314.019463 228.0816 
L 314.615086 230.128094 
L 315.21071 235.372235 
L 316.401957 226.035106 
L 316.997581 231.279247 
L 317.593204 231.790871 
L 318.188828 229.232753 
L 318.784451 228.209506 
L 319.380075 227.442071 
L 319.975698 229.616471 
L 320.571322 229.872282 
L 321.166945 233.197835 
L 321.762569 229.360659 
L 322.358192 229.104847 
L 322.953816 230.767624 
L 323.54944 229.744376 
L 324.145063 230.256 
L 324.740687 229.104847 
L 325.33631 230.767624 
L 325.931934 227.569976 
L 326.527557 230.383906 
L 327.123181 230.256 
L 327.718804 229.744376 
L 328.314428 227.569976 
L 329.505675 228.849035 
L 330.101299 229.744376 
L 330.696922 232.174588 
L 331.292546 231.407153 
L 331.888169 227.697882 
L 332.483793 231.790871 
L 333.079416 228.721129 
L 333.67504 227.953694 
L 334.270664 231.279247 
L 334.866287 228.337412 
L 335.461911 230.256 
L 336.057534 230.639718 
L 336.653158 229.360659 
L 337.248781 231.662965 
L 337.844405 230.639718 
L 338.440028 230.000188 
L 339.035652 228.465318 
L 339.631276 226.546729 
L 340.822523 230.895529 
L 341.418146 228.849035 
L 342.01377 229.616471 
L 342.609393 229.744376 
L 343.205017 231.790871 
L 343.80064 231.279247 
L 344.396264 228.337412 
L 344.991888 228.976941 
L 345.587511 230.256 
L 346.183135 228.0816 
L 346.778758 231.279247 
L 347.374382 228.721129 
L 347.970005 227.058353 
L 348.565629 230.128094 
L 349.161252 230.256 
L 349.756876 226.802541 
L 350.3525 225.9072 
L 350.948123 228.721129 
L 351.543747 230.767624 
L 352.13937 232.046682 
L 352.734994 232.302494 
L 353.330617 231.151341 
L 353.926241 229.104847 
L 354.521864 228.976941 
L 355.117488 229.232753 
L 356.308735 228.337412 
L 356.904359 228.721129 
L 357.499982 228.465318 
L 358.095606 229.616471 
L 358.691229 231.279247 
L 359.286853 229.872282 
L 359.882476 232.174588 
L 360.4781 228.849035 
L 361.073724 230.128094 
L 361.669347 229.616471 
L 362.264971 230.000188 
L 362.860594 229.232753 
L 363.456218 229.872282 
L 364.051841 228.209506 
L 364.647465 228.593224 
L 365.243088 229.360659 
L 365.838712 230.895529 
L 366.434336 227.569976 
L 367.029959 229.872282 
L 367.625583 229.104847 
L 368.221206 227.569976 
L 368.81683 228.0816 
L 369.412453 230.128094 
L 370.008077 229.360659 
L 370.6037 225.9072 
L 371.199324 229.872282 
L 371.794948 229.488565 
L 372.390571 226.930447 
L 372.986195 229.232753 
L 373.581818 229.872282 
L 373.581818 229.872282 
" clip-path="url(#p039b2b2198)" style="fill: none; stroke: #2ca02c; stroke-width: 1.5; stroke-linecap: square"/>
   </g>
   <g id="patch_3">
    <path d="M 54 252 
L 54 34.56 
" style="fill: none; stroke: #000000; stroke-width: 0.8; stroke-linejoin: miter; stroke-linecap: square"/>
   </g>
   <g id="patch_4">
    <path d="M 388.8 252 
L 388.8 34.56 
" style="fill: none; stroke: #000000; stroke-width: 0.8; stroke-linejoin: miter; stroke-linecap: square"/>
   </g>
   <g id="patch_5">
    <path d="M 54 252 
L 388.8 252 
" style="fill: none; stroke: #000000; stroke-width: 0.8; stroke-linejoin: miter; stroke-linecap: square"/>
   </g>
   <g id="patch_6">
    <path d="M 54 34.56 
L 388.8 34.56 
" style="fill: none; stroke: #000000; stroke-width: 0.8; stroke-linejoin: miter; stroke-linecap: square"/>
   </g>
   <g id="text_18">
    <!-- Label 14 -->
    <g transform="translate(195.670312 28.56)scale(0.12 -0.12)">
     <defs>
      <path id="DejaVuSans-4c" d="M 628 4666 
L 1259 4666 
L 1259 531 
L 3531 531 
L 3531 0 
L 628 0 
L 628 4666 
z
" transform="scale(0.015625)"/>
      <path id="DejaVuSans-61" d="M 2194 1759 
Q 1497 1759 1228 1600 
Q 959 1441 959 1056 
Q 959 750 1161 570 
Q 1363 391 1709 391 
Q 2188 391 2477 730 
Q 2766 1069 2766 1631 
L 2766 1759 
L 2194 1759 
z
M 3341 1997 
L 3341 0 
L 2766 0 
L 2766 531 
Q 2569 213 2275 61 
Q 1981 -91 1556 -91 
Q 1019 -91 701 211 
Q 384 513 384 1019 
Q 384 1609 779 1909 
Q 1175 2209 1959 2209 
L 2766 2209 
L 2766 2266 
Q 2766 2663 2505 2880 
Q 2244 3097 1772 3097 
Q 1472 3097 1187 3025 
Q 903 2953 641 2809 
L 641 3341 
Q 956 3463 1253 3523 
Q 1550 3584 1831 3584 
Q 2591 3584 2966 3190 
Q 3341 2797 3341 1997 
z
" transform="scale(0.015625)"/>
      <path id="DejaVuSans-65" d="M 3597 1894 
L 3597 1613 
L 953 1613 
Q 991 1019 1311 708 
Q 1631 397 2203 397 
Q 2534 397 2845 478 
Q 3156 559 3463 722 
L 3463 178 
Q 3153 47 2828 -22 
Q 2503 -91 2169 -91 
Q 1331 -91 842 396 
Q 353 884 353 1716 
Q 353 2575 817 3079 
Q 1281 3584 2069 3584 
Q 2775 3584 3186 3129 
Q 3597 2675 3597 1894 
z
M 3022 2063 
Q 3016 2534 2758 2815 
Q 2500 3097 2075 3097 
Q 1594 3097 1305 2825 
Q 1016 2553 972 2059 
L 3022 2063 
z
" transform="scale(0.015625)"/>
      <path id="DejaVuSans-6c" d="M 603 4863 
L 1178 4863 
L 1178 0 
L 603 0 
L 603 4863 
z
" transform="scale(0.015625)"/>
      <path id="DejaVuSans-20" transform="scale(0.015625)"/>
     </defs>
     <use xlink:href="#DejaVuSans-4c"/>
     <use xlink:href="#DejaVuSans-61" x="55.712891"/>
     <use xlink:href="#DejaVuSans-62" x="116.992188"/>
     <use xlink:href="#DejaVuSans-65" x="180.46875"/>
     <use xlink:href="#DejaVuSans-6c" x="241.992188"/>
     <use xlink:href="#DejaVuSans-20" x="269.775391"/>
     <use xlink:href="#DejaVuSans-31" x="301.5625"/>
     <use xlink:href="#DejaVuSans-34" x="365.185547"/>
    </g>
   </g>
   <g id="legend_1">
    <g id="patch_7">
     <path d="M 309.070312 101.2725 
L 381.8 101.2725 
Q 383.8 101.2725 383.8 99.2725 
L 383.8 41.56 
Q 383.8 39.56 381.8 39.56 
L 309.070312 39.56 
Q 307.070312 39.56 307.070312 41.56 
L 307.070312 99.2725 
Q 307.070312 101.2725 309.070312 101.2725 
z
" style="fill: #ffffff; opacity: 0.8; stroke: #cccccc; stroke-linejoin: miter"/>
    </g>
    <g id="text_19">
     <!-- Trace number -->
     <g transform="translate(311.070312 51.158437)scale(0.1 -0.1)">
      <defs>
       <path id="DejaVuSans-54" d="M -19 4666 
L 3928 4666 
L 3928 4134 
L 2272 4134 
L 2272 0 
L 1638 0 
L 1638 4134 
L -19 4134 
L -19 4666 
z
" transform="scale(0.015625)"/>
       <path id="DejaVuSans-72" d="M 2631 2963 
Q 2534 3019 2420 3045 
Q 2306 3072 2169 3072 
Q 1681 3072 1420 2755 
Q 1159 2438 1159 1844 
L 1159 0 
L 581 0 
L 581 3500 
L 1159 3500 
L 1159 2956 
Q 1341 3275 1631 3429 
Q 1922 3584 2338 3584 
Q 2397 3584 2469 3576 
Q 2541 3569 2628 3553 
L 2631 2963 
z
" transform="scale(0.015625)"/>
       <path id="DejaVuSans-6d" d="M 3328 2828 
Q 3544 3216 3844 3400 
Q 4144 3584 4550 3584 
Q 5097 3584 5394 3201 
Q 5691 2819 5691 2113 
L 5691 0 
L 5113 0 
L 5113 2094 
Q 5113 2597 4934 2840 
Q 4756 3084 4391 3084 
Q 3944 3084 3684 2787 
Q 3425 2491 3425 1978 
L 3425 0 
L 2847 0 
L 2847 2094 
Q 2847 2600 2669 2842 
Q 2491 3084 2119 3084 
Q 1678 3084 1418 2786 
Q 1159 2488 1159 1978 
L 1159 0 
L 581 0 
L 581 3500 
L 1159 3500 
L 1159 2956 
Q 1356 3278 1631 3431 
Q 1906 3584 2284 3584 
Q 2666 3584 2933 3390 
Q 3200 3197 3328 2828 
z
" transform="scale(0.015625)"/>
      </defs>
      <use xlink:href="#DejaVuSans-54"/>
      <use xlink:href="#DejaVuSans-72" x="46.333984"/>
      <use xlink:href="#DejaVuSans-61" x="87.447266"/>
      <use xlink:href="#DejaVuSans-63" x="148.726562"/>
      <use xlink:href="#DejaVuSans-65" x="203.707031"/>
      <use xlink:href="#DejaVuSans-20" x="265.230469"/>
      <use xlink:href="#DejaVuSans-6e" x="297.017578"/>
      <use xlink:href="#DejaVuSans-75" x="360.396484"/>
      <use xlink:href="#DejaVuSans-6d" x="423.775391"/>
      <use xlink:href="#DejaVuSans-62" x="521.1875"/>
      <use xlink:href="#DejaVuSans-65" x="584.664062"/>
      <use xlink:href="#DejaVuSans-72" x="646.1875"/>
     </g>
    </g>
    <g id="line2d_34">
     <path d="M 325.072656 62.336562 
L 335.072656 62.336562 
L 345.072656 62.336562 
" style="fill: none; stroke: #1f77b4; stroke-width: 1.5; stroke-linecap: square"/>
    </g>
    <g id="text_20">
     <!-- 15 -->
     <g transform="translate(353.072656 65.836562)scale(0.1 -0.1)">
      <use xlink:href="#DejaVuSans-31"/>
      <use xlink:href="#DejaVuSans-35" x="63.623047"/>
     </g>
    </g>
    <g id="line2d_35">
     <path d="M 325.072656 77.014687 
L 335.072656 77.014687 
L 345.072656 77.014687 
" style="fill: none; stroke: #ff7f0e; stroke-width: 1.5; stroke-linecap: square"/>
    </g>
    <g id="text_21">
     <!-- 22 -->
     <g transform="translate(353.072656 80.514687)scale(0.1 -0.1)">
      <use xlink:href="#DejaVuSans-32"/>
      <use xlink:href="#DejaVuSans-32" x="63.623047"/>
     </g>
    </g>
    <g id="line2d_36">
     <path d="M 325.072656 91.692813 
L 335.072656 91.692813 
L 345.072656 91.692813 
" style="fill: none; stroke: #2ca02c; stroke-width: 1.5; stroke-linecap: square"/>
    </g>
    <g id="text_22">
     <!-- 55 -->
     <g transform="translate(353.072656 95.192813)scale(0.1 -0.1)">
      <use xlink:href="#DejaVuSans-35"/>
      <use xlink:href="#DejaVuSans-35" x="63.623047"/>
     </g>
    </g>
   </g>
  </g>
 </g>
 <defs>
  <clipPath id="p039b2b2198">
   <rect x="54" y="34.56" width="334.8" height="217.44"/>
  </clipPath>
 </defs>
</svg>
