<?xml version="1.0" encoding="utf-8" standalone="no"?>
<!DOCTYPE svg PUBLIC "-//W3C//DTD SVG 1.1//EN"
  "http://www.w3.org/Graphics/SVG/1.1/DTD/svg11.dtd">
<svg xmlns:xlink="http://www.w3.org/1999/xlink" width="432pt" height="288pt" viewBox="0 0 432 288" xmlns="http://www.w3.org/2000/svg" version="1.1">
 <metadata>
  <rdf:RDF xmlns:dc="http://purl.org/dc/elements/1.1/" xmlns:cc="http://creativecommons.org/ns#" xmlns:rdf="http://www.w3.org/1999/02/22-rdf-syntax-ns#">
   <cc:Work>
    <dc:type rdf:resource="http://purl.org/dc/dcmitype/StillImage"/>
    <dc:date>2022-03-30T13:12:47.446099</dc:date>
    <dc:format>image/svg+xml</dc:format>
    <dc:creator>
     <cc:Agent>
      <dc:title>Matplotlib v3.5.1, https://matplotlib.org/</dc:title>
     </cc:Agent>
    </dc:creator>
   </cc:Work>
  </rdf:RDF>
 </metadata>
 <defs>
  <style type="text/css">*{stroke-linejoin: round; stroke-linecap: butt}</style>
 </defs>
 <g id="figure_1">
  <g id="patch_1">
   <path d="M 0 288 
L 432 288 
L 432 0 
L 0 0 
z
" style="fill: #ffffff"/>
  </g>
  <g id="axes_1">
   <g id="patch_2">
    <path d="M 54 252 
L 388.8 252 
L 388.8 34.56 
L 54 34.56 
z
" style="fill: #ffffff"/>
   </g>
   <g id="matplotlib.axis_1">
    <g id="xtick_1">
     <g id="line2d_1">
      <path d="M 69.218182 252 
L 69.218182 34.56 
" clip-path="url(#pe41d9e6473)" style="fill: none; stroke: #b0b0b0; stroke-width: 0.8; stroke-linecap: square"/>
     </g>
     <g id="line2d_2">
      <defs>
       <path id="ma559cf5049" d="M 0 0 
L 0 3.5 
" style="stroke: #000000; stroke-width: 0.8"/>
      </defs>
      <g>
       <use xlink:href="#ma559cf5049" x="69.218182" y="252" style="stroke: #000000; stroke-width: 0.8"/>
      </g>
     </g>
     <g id="text_1">
      <!-- 0 -->
      <g transform="translate(66.036932 266.598437)scale(0.1 -0.1)">
       <defs>
        <path id="DejaVuSans-30" d="M 2034 4250 
Q 1547 4250 1301 3770 
Q 1056 3291 1056 2328 
Q 1056 1369 1301 889 
Q 1547 409 2034 409 
Q 2525 409 2770 889 
Q 3016 1369 3016 2328 
Q 3016 3291 2770 3770 
Q 2525 4250 2034 4250 
z
M 2034 4750 
Q 2819 4750 3233 4129 
Q 3647 3509 3647 2328 
Q 3647 1150 3233 529 
Q 2819 -91 2034 -91 
Q 1250 -91 836 529 
Q 422 1150 422 2328 
Q 422 3509 836 4129 
Q 1250 4750 2034 4750 
z
" transform="scale(0.015625)"/>
       </defs>
       <use xlink:href="#DejaVuSans-30"/>
      </g>
     </g>
    </g>
    <g id="xtick_2">
     <g id="line2d_3">
      <path d="M 128.780537 252 
L 128.780537 34.56 
" clip-path="url(#pe41d9e6473)" style="fill: none; stroke: #b0b0b0; stroke-width: 0.8; stroke-linecap: square"/>
     </g>
     <g id="line2d_4">
      <g>
       <use xlink:href="#ma559cf5049" x="128.780537" y="252" style="stroke: #000000; stroke-width: 0.8"/>
      </g>
     </g>
     <g id="text_2">
      <!-- 100 -->
      <g transform="translate(119.236787 266.598437)scale(0.1 -0.1)">
       <defs>
        <path id="DejaVuSans-31" d="M 794 531 
L 1825 531 
L 1825 4091 
L 703 3866 
L 703 4441 
L 1819 4666 
L 2450 4666 
L 2450 531 
L 3481 531 
L 3481 0 
L 794 0 
L 794 531 
z
" transform="scale(0.015625)"/>
       </defs>
       <use xlink:href="#DejaVuSans-31"/>
       <use xlink:href="#DejaVuSans-30" x="63.623047"/>
       <use xlink:href="#DejaVuSans-30" x="127.246094"/>
      </g>
     </g>
    </g>
    <g id="xtick_3">
     <g id="line2d_5">
      <path d="M 188.342893 252 
L 188.342893 34.56 
" clip-path="url(#pe41d9e6473)" style="fill: none; stroke: #b0b0b0; stroke-width: 0.8; stroke-linecap: square"/>
     </g>
     <g id="line2d_6">
      <g>
       <use xlink:href="#ma559cf5049" x="188.342893" y="252" style="stroke: #000000; stroke-width: 0.8"/>
      </g>
     </g>
     <g id="text_3">
      <!-- 200 -->
      <g transform="translate(178.799143 266.598437)scale(0.1 -0.1)">
       <defs>
        <path id="DejaVuSans-32" d="M 1228 531 
L 3431 531 
L 3431 0 
L 469 0 
L 469 531 
Q 828 903 1448 1529 
Q 2069 2156 2228 2338 
Q 2531 2678 2651 2914 
Q 2772 3150 2772 3378 
Q 2772 3750 2511 3984 
Q 2250 4219 1831 4219 
Q 1534 4219 1204 4116 
Q 875 4013 500 3803 
L 500 4441 
Q 881 4594 1212 4672 
Q 1544 4750 1819 4750 
Q 2544 4750 2975 4387 
Q 3406 4025 3406 3419 
Q 3406 3131 3298 2873 
Q 3191 2616 2906 2266 
Q 2828 2175 2409 1742 
Q 1991 1309 1228 531 
z
" transform="scale(0.015625)"/>
       </defs>
       <use xlink:href="#DejaVuSans-32"/>
       <use xlink:href="#DejaVuSans-30" x="63.623047"/>
       <use xlink:href="#DejaVuSans-30" x="127.246094"/>
      </g>
     </g>
    </g>
    <g id="xtick_4">
     <g id="line2d_7">
      <path d="M 247.905248 252 
L 247.905248 34.56 
" clip-path="url(#pe41d9e6473)" style="fill: none; stroke: #b0b0b0; stroke-width: 0.8; stroke-linecap: square"/>
     </g>
     <g id="line2d_8">
      <g>
       <use xlink:href="#ma559cf5049" x="247.905248" y="252" style="stroke: #000000; stroke-width: 0.8"/>
      </g>
     </g>
     <g id="text_4">
      <!-- 300 -->
      <g transform="translate(238.361498 266.598437)scale(0.1 -0.1)">
       <defs>
        <path id="DejaVuSans-33" d="M 2597 2516 
Q 3050 2419 3304 2112 
Q 3559 1806 3559 1356 
Q 3559 666 3084 287 
Q 2609 -91 1734 -91 
Q 1441 -91 1130 -33 
Q 819 25 488 141 
L 488 750 
Q 750 597 1062 519 
Q 1375 441 1716 441 
Q 2309 441 2620 675 
Q 2931 909 2931 1356 
Q 2931 1769 2642 2001 
Q 2353 2234 1838 2234 
L 1294 2234 
L 1294 2753 
L 1863 2753 
Q 2328 2753 2575 2939 
Q 2822 3125 2822 3475 
Q 2822 3834 2567 4026 
Q 2313 4219 1838 4219 
Q 1578 4219 1281 4162 
Q 984 4106 628 3988 
L 628 4550 
Q 988 4650 1302 4700 
Q 1616 4750 1894 4750 
Q 2613 4750 3031 4423 
Q 3450 4097 3450 3541 
Q 3450 3153 3228 2886 
Q 3006 2619 2597 2516 
z
" transform="scale(0.015625)"/>
       </defs>
       <use xlink:href="#DejaVuSans-33"/>
       <use xlink:href="#DejaVuSans-30" x="63.623047"/>
       <use xlink:href="#DejaVuSans-30" x="127.246094"/>
      </g>
     </g>
    </g>
    <g id="xtick_5">
     <g id="line2d_9">
      <path d="M 307.467604 252 
L 307.467604 34.56 
" clip-path="url(#pe41d9e6473)" style="fill: none; stroke: #b0b0b0; stroke-width: 0.8; stroke-linecap: square"/>
     </g>
     <g id="line2d_10">
      <g>
       <use xlink:href="#ma559cf5049" x="307.467604" y="252" style="stroke: #000000; stroke-width: 0.8"/>
      </g>
     </g>
     <g id="text_5">
      <!-- 400 -->
      <g transform="translate(297.923854 266.598437)scale(0.1 -0.1)">
       <defs>
        <path id="DejaVuSans-34" d="M 2419 4116 
L 825 1625 
L 2419 1625 
L 2419 4116 
z
M 2253 4666 
L 3047 4666 
L 3047 1625 
L 3713 1625 
L 3713 1100 
L 3047 1100 
L 3047 0 
L 2419 0 
L 2419 1100 
L 313 1100 
L 313 1709 
L 2253 4666 
z
" transform="scale(0.015625)"/>
       </defs>
       <use xlink:href="#DejaVuSans-34"/>
       <use xlink:href="#DejaVuSans-30" x="63.623047"/>
       <use xlink:href="#DejaVuSans-30" x="127.246094"/>
      </g>
     </g>
    </g>
    <g id="xtick_6">
     <g id="line2d_11">
      <path d="M 367.029959 252 
L 367.029959 34.56 
" clip-path="url(#pe41d9e6473)" style="fill: none; stroke: #b0b0b0; stroke-width: 0.8; stroke-linecap: square"/>
     </g>
     <g id="line2d_12">
      <g>
       <use xlink:href="#ma559cf5049" x="367.029959" y="252" style="stroke: #000000; stroke-width: 0.8"/>
      </g>
     </g>
     <g id="text_6">
      <!-- 500 -->
      <g transform="translate(357.486209 266.598437)scale(0.1 -0.1)">
       <defs>
        <path id="DejaVuSans-35" d="M 691 4666 
L 3169 4666 
L 3169 4134 
L 1269 4134 
L 1269 2991 
Q 1406 3038 1543 3061 
Q 1681 3084 1819 3084 
Q 2600 3084 3056 2656 
Q 3513 2228 3513 1497 
Q 3513 744 3044 326 
Q 2575 -91 1722 -91 
Q 1428 -91 1123 -41 
Q 819 9 494 109 
L 494 744 
Q 775 591 1075 516 
Q 1375 441 1709 441 
Q 2250 441 2565 725 
Q 2881 1009 2881 1497 
Q 2881 1984 2565 2268 
Q 2250 2553 1709 2553 
Q 1456 2553 1204 2497 
Q 953 2441 691 2322 
L 691 4666 
z
" transform="scale(0.015625)"/>
       </defs>
       <use xlink:href="#DejaVuSans-35"/>
       <use xlink:href="#DejaVuSans-30" x="63.623047"/>
       <use xlink:href="#DejaVuSans-30" x="127.246094"/>
      </g>
     </g>
    </g>
    <g id="text_7">
     <!-- bin -->
     <g transform="translate(213.667969 280.276563)scale(0.1 -0.1)">
      <defs>
       <path id="DejaVuSans-62" d="M 3116 1747 
Q 3116 2381 2855 2742 
Q 2594 3103 2138 3103 
Q 1681 3103 1420 2742 
Q 1159 2381 1159 1747 
Q 1159 1113 1420 752 
Q 1681 391 2138 391 
Q 2594 391 2855 752 
Q 3116 1113 3116 1747 
z
M 1159 2969 
Q 1341 3281 1617 3432 
Q 1894 3584 2278 3584 
Q 2916 3584 3314 3078 
Q 3713 2572 3713 1747 
Q 3713 922 3314 415 
Q 2916 -91 2278 -91 
Q 1894 -91 1617 61 
Q 1341 213 1159 525 
L 1159 0 
L 581 0 
L 581 4863 
L 1159 4863 
L 1159 2969 
z
" transform="scale(0.015625)"/>
       <path id="DejaVuSans-69" d="M 603 3500 
L 1178 3500 
L 1178 0 
L 603 0 
L 603 3500 
z
M 603 4863 
L 1178 4863 
L 1178 4134 
L 603 4134 
L 603 4863 
z
" transform="scale(0.015625)"/>
       <path id="DejaVuSans-6e" d="M 3513 2113 
L 3513 0 
L 2938 0 
L 2938 2094 
Q 2938 2591 2744 2837 
Q 2550 3084 2163 3084 
Q 1697 3084 1428 2787 
Q 1159 2491 1159 1978 
L 1159 0 
L 581 0 
L 581 3500 
L 1159 3500 
L 1159 2956 
Q 1366 3272 1645 3428 
Q 1925 3584 2291 3584 
Q 2894 3584 3203 3211 
Q 3513 2838 3513 2113 
z
" transform="scale(0.015625)"/>
      </defs>
      <use xlink:href="#DejaVuSans-62"/>
      <use xlink:href="#DejaVuSans-69" x="63.476562"/>
      <use xlink:href="#DejaVuSans-6e" x="91.259766"/>
     </g>
    </g>
   </g>
   <g id="matplotlib.axis_2">
    <g id="ytick_1">
     <g id="line2d_13">
      <path d="M 54 252 
L 388.8 252 
" clip-path="url(#pe41d9e6473)" style="fill: none; stroke: #b0b0b0; stroke-width: 0.8; stroke-linecap: square"/>
     </g>
     <g id="line2d_14">
      <defs>
       <path id="m0ae348b318" d="M 0 0 
L -3.5 0 
" style="stroke: #000000; stroke-width: 0.8"/>
      </defs>
      <g>
       <use xlink:href="#m0ae348b318" x="54" y="252" style="stroke: #000000; stroke-width: 0.8"/>
      </g>
     </g>
     <g id="text_8">
      <!-- 0 -->
      <g transform="translate(40.6375 255.799219)scale(0.1 -0.1)">
       <use xlink:href="#DejaVuSans-30"/>
      </g>
     </g>
    </g>
    <g id="ytick_2">
     <g id="line2d_15">
      <path d="M 54 226.418824 
L 388.8 226.418824 
" clip-path="url(#pe41d9e6473)" style="fill: none; stroke: #b0b0b0; stroke-width: 0.8; stroke-linecap: square"/>
     </g>
     <g id="line2d_16">
      <g>
       <use xlink:href="#m0ae348b318" x="54" y="226.418824" style="stroke: #000000; stroke-width: 0.8"/>
      </g>
     </g>
     <g id="text_9">
      <!-- 200 -->
      <g transform="translate(27.9125 230.218042)scale(0.1 -0.1)">
       <use xlink:href="#DejaVuSans-32"/>
       <use xlink:href="#DejaVuSans-30" x="63.623047"/>
       <use xlink:href="#DejaVuSans-30" x="127.246094"/>
      </g>
     </g>
    </g>
    <g id="ytick_3">
     <g id="line2d_17">
      <path d="M 54 200.837647 
L 388.8 200.837647 
" clip-path="url(#pe41d9e6473)" style="fill: none; stroke: #b0b0b0; stroke-width: 0.8; stroke-linecap: square"/>
     </g>
     <g id="line2d_18">
      <g>
       <use xlink:href="#m0ae348b318" x="54" y="200.837647" style="stroke: #000000; stroke-width: 0.8"/>
      </g>
     </g>
     <g id="text_10">
      <!-- 400 -->
      <g transform="translate(27.9125 204.636866)scale(0.1 -0.1)">
       <use xlink:href="#DejaVuSans-34"/>
       <use xlink:href="#DejaVuSans-30" x="63.623047"/>
       <use xlink:href="#DejaVuSans-30" x="127.246094"/>
      </g>
     </g>
    </g>
    <g id="ytick_4">
     <g id="line2d_19">
      <path d="M 54 175.256471 
L 388.8 175.256471 
" clip-path="url(#pe41d9e6473)" style="fill: none; stroke: #b0b0b0; stroke-width: 0.8; stroke-linecap: square"/>
     </g>
     <g id="line2d_20">
      <g>
       <use xlink:href="#m0ae348b318" x="54" y="175.256471" style="stroke: #000000; stroke-width: 0.8"/>
      </g>
     </g>
     <g id="text_11">
      <!-- 600 -->
      <g transform="translate(27.9125 179.055689)scale(0.1 -0.1)">
       <defs>
        <path id="DejaVuSans-36" d="M 2113 2584 
Q 1688 2584 1439 2293 
Q 1191 2003 1191 1497 
Q 1191 994 1439 701 
Q 1688 409 2113 409 
Q 2538 409 2786 701 
Q 3034 994 3034 1497 
Q 3034 2003 2786 2293 
Q 2538 2584 2113 2584 
z
M 3366 4563 
L 3366 3988 
Q 3128 4100 2886 4159 
Q 2644 4219 2406 4219 
Q 1781 4219 1451 3797 
Q 1122 3375 1075 2522 
Q 1259 2794 1537 2939 
Q 1816 3084 2150 3084 
Q 2853 3084 3261 2657 
Q 3669 2231 3669 1497 
Q 3669 778 3244 343 
Q 2819 -91 2113 -91 
Q 1303 -91 875 529 
Q 447 1150 447 2328 
Q 447 3434 972 4092 
Q 1497 4750 2381 4750 
Q 2619 4750 2861 4703 
Q 3103 4656 3366 4563 
z
" transform="scale(0.015625)"/>
       </defs>
       <use xlink:href="#DejaVuSans-36"/>
       <use xlink:href="#DejaVuSans-30" x="63.623047"/>
       <use xlink:href="#DejaVuSans-30" x="127.246094"/>
      </g>
     </g>
    </g>
    <g id="ytick_5">
     <g id="line2d_21">
      <path d="M 54 149.675294 
L 388.8 149.675294 
" clip-path="url(#pe41d9e6473)" style="fill: none; stroke: #b0b0b0; stroke-width: 0.8; stroke-linecap: square"/>
     </g>
     <g id="line2d_22">
      <g>
       <use xlink:href="#m0ae348b318" x="54" y="149.675294" style="stroke: #000000; stroke-width: 0.8"/>
      </g>
     </g>
     <g id="text_12">
      <!-- 800 -->
      <g transform="translate(27.9125 153.474513)scale(0.1 -0.1)">
       <defs>
        <path id="DejaVuSans-38" d="M 2034 2216 
Q 1584 2216 1326 1975 
Q 1069 1734 1069 1313 
Q 1069 891 1326 650 
Q 1584 409 2034 409 
Q 2484 409 2743 651 
Q 3003 894 3003 1313 
Q 3003 1734 2745 1975 
Q 2488 2216 2034 2216 
z
M 1403 2484 
Q 997 2584 770 2862 
Q 544 3141 544 3541 
Q 544 4100 942 4425 
Q 1341 4750 2034 4750 
Q 2731 4750 3128 4425 
Q 3525 4100 3525 3541 
Q 3525 3141 3298 2862 
Q 3072 2584 2669 2484 
Q 3125 2378 3379 2068 
Q 3634 1759 3634 1313 
Q 3634 634 3220 271 
Q 2806 -91 2034 -91 
Q 1263 -91 848 271 
Q 434 634 434 1313 
Q 434 1759 690 2068 
Q 947 2378 1403 2484 
z
M 1172 3481 
Q 1172 3119 1398 2916 
Q 1625 2713 2034 2713 
Q 2441 2713 2670 2916 
Q 2900 3119 2900 3481 
Q 2900 3844 2670 4047 
Q 2441 4250 2034 4250 
Q 1625 4250 1398 4047 
Q 1172 3844 1172 3481 
z
" transform="scale(0.015625)"/>
       </defs>
       <use xlink:href="#DejaVuSans-38"/>
       <use xlink:href="#DejaVuSans-30" x="63.623047"/>
       <use xlink:href="#DejaVuSans-30" x="127.246094"/>
      </g>
     </g>
    </g>
    <g id="ytick_6">
     <g id="line2d_23">
      <path d="M 54 124.094118 
L 388.8 124.094118 
" clip-path="url(#pe41d9e6473)" style="fill: none; stroke: #b0b0b0; stroke-width: 0.8; stroke-linecap: square"/>
     </g>
     <g id="line2d_24">
      <g>
       <use xlink:href="#m0ae348b318" x="54" y="124.094118" style="stroke: #000000; stroke-width: 0.8"/>
      </g>
     </g>
     <g id="text_13">
      <!-- 1000 -->
      <g transform="translate(21.55 127.893336)scale(0.1 -0.1)">
       <use xlink:href="#DejaVuSans-31"/>
       <use xlink:href="#DejaVuSans-30" x="63.623047"/>
       <use xlink:href="#DejaVuSans-30" x="127.246094"/>
       <use xlink:href="#DejaVuSans-30" x="190.869141"/>
      </g>
     </g>
    </g>
    <g id="ytick_7">
     <g id="line2d_25">
      <path d="M 54 98.512941 
L 388.8 98.512941 
" clip-path="url(#pe41d9e6473)" style="fill: none; stroke: #b0b0b0; stroke-width: 0.8; stroke-linecap: square"/>
     </g>
     <g id="line2d_26">
      <g>
       <use xlink:href="#m0ae348b318" x="54" y="98.512941" style="stroke: #000000; stroke-width: 0.8"/>
      </g>
     </g>
     <g id="text_14">
      <!-- 1200 -->
      <g transform="translate(21.55 102.31216)scale(0.1 -0.1)">
       <use xlink:href="#DejaVuSans-31"/>
       <use xlink:href="#DejaVuSans-32" x="63.623047"/>
       <use xlink:href="#DejaVuSans-30" x="127.246094"/>
       <use xlink:href="#DejaVuSans-30" x="190.869141"/>
      </g>
     </g>
    </g>
    <g id="ytick_8">
     <g id="line2d_27">
      <path d="M 54 72.931765 
L 388.8 72.931765 
" clip-path="url(#pe41d9e6473)" style="fill: none; stroke: #b0b0b0; stroke-width: 0.8; stroke-linecap: square"/>
     </g>
     <g id="line2d_28">
      <g>
       <use xlink:href="#m0ae348b318" x="54" y="72.931765" style="stroke: #000000; stroke-width: 0.8"/>
      </g>
     </g>
     <g id="text_15">
      <!-- 1400 -->
      <g transform="translate(21.55 76.730983)scale(0.1 -0.1)">
       <use xlink:href="#DejaVuSans-31"/>
       <use xlink:href="#DejaVuSans-34" x="63.623047"/>
       <use xlink:href="#DejaVuSans-30" x="127.246094"/>
       <use xlink:href="#DejaVuSans-30" x="190.869141"/>
      </g>
     </g>
    </g>
    <g id="ytick_9">
     <g id="line2d_29">
      <path d="M 54 47.350588 
L 388.8 47.350588 
" clip-path="url(#pe41d9e6473)" style="fill: none; stroke: #b0b0b0; stroke-width: 0.8; stroke-linecap: square"/>
     </g>
     <g id="line2d_30">
      <g>
       <use xlink:href="#m0ae348b318" x="54" y="47.350588" style="stroke: #000000; stroke-width: 0.8"/>
      </g>
     </g>
     <g id="text_16">
      <!-- 1600 -->
      <g transform="translate(21.55 51.149807)scale(0.1 -0.1)">
       <use xlink:href="#DejaVuSans-31"/>
       <use xlink:href="#DejaVuSans-36" x="63.623047"/>
       <use xlink:href="#DejaVuSans-30" x="127.246094"/>
       <use xlink:href="#DejaVuSans-30" x="190.869141"/>
      </g>
     </g>
    </g>
    <g id="text_17">
     <!-- count -->
     <g transform="translate(15.470312 157.38625)rotate(-90)scale(0.1 -0.1)">
      <defs>
       <path id="DejaVuSans-63" d="M 3122 3366 
L 3122 2828 
Q 2878 2963 2633 3030 
Q 2388 3097 2138 3097 
Q 1578 3097 1268 2742 
Q 959 2388 959 1747 
Q 959 1106 1268 751 
Q 1578 397 2138 397 
Q 2388 397 2633 464 
Q 2878 531 3122 666 
L 3122 134 
Q 2881 22 2623 -34 
Q 2366 -91 2075 -91 
Q 1284 -91 818 406 
Q 353 903 353 1747 
Q 353 2603 823 3093 
Q 1294 3584 2113 3584 
Q 2378 3584 2631 3529 
Q 2884 3475 3122 3366 
z
" transform="scale(0.015625)"/>
       <path id="DejaVuSans-6f" d="M 1959 3097 
Q 1497 3097 1228 2736 
Q 959 2375 959 1747 
Q 959 1119 1226 758 
Q 1494 397 1959 397 
Q 2419 397 2687 759 
Q 2956 1122 2956 1747 
Q 2956 2369 2687 2733 
Q 2419 3097 1959 3097 
z
M 1959 3584 
Q 2709 3584 3137 3096 
Q 3566 2609 3566 1747 
Q 3566 888 3137 398 
Q 2709 -91 1959 -91 
Q 1206 -91 779 398 
Q 353 888 353 1747 
Q 353 2609 779 3096 
Q 1206 3584 1959 3584 
z
" transform="scale(0.015625)"/>
       <path id="DejaVuSans-75" d="M 544 1381 
L 544 3500 
L 1119 3500 
L 1119 1403 
Q 1119 906 1312 657 
Q 1506 409 1894 409 
Q 2359 409 2629 706 
Q 2900 1003 2900 1516 
L 2900 3500 
L 3475 3500 
L 3475 0 
L 2900 0 
L 2900 538 
Q 2691 219 2414 64 
Q 2138 -91 1772 -91 
Q 1169 -91 856 284 
Q 544 659 544 1381 
z
M 1991 3584 
L 1991 3584 
z
" transform="scale(0.015625)"/>
       <path id="DejaVuSans-74" d="M 1172 4494 
L 1172 3500 
L 2356 3500 
L 2356 3053 
L 1172 3053 
L 1172 1153 
Q 1172 725 1289 603 
Q 1406 481 1766 481 
L 2356 481 
L 2356 0 
L 1766 0 
Q 1100 0 847 248 
Q 594 497 594 1153 
L 594 3053 
L 172 3053 
L 172 3500 
L 594 3500 
L 594 4494 
L 1172 4494 
z
" transform="scale(0.015625)"/>
      </defs>
      <use xlink:href="#DejaVuSans-63"/>
      <use xlink:href="#DejaVuSans-6f" x="54.980469"/>
      <use xlink:href="#DejaVuSans-75" x="116.162109"/>
      <use xlink:href="#DejaVuSans-6e" x="179.541016"/>
      <use xlink:href="#DejaVuSans-74" x="242.919922"/>
     </g>
    </g>
   </g>
   <g id="line2d_31">
    <path d="M 69.218182 224.883953 
L 69.813805 221.430494 
L 70.409429 220.151435 
L 71.005052 222.325835 
L 71.600676 221.046776 
L 72.1963 218.360753 
L 72.791923 216.442165 
L 73.387547 221.430494 
L 73.98317 222.837459 
L 75.174417 216.570071 
L 75.770041 221.686306 
L 76.365664 221.046776 
L 76.961288 222.837459 
L 77.556912 218.872376 
L 78.152535 221.302588 
L 78.748159 222.197929 
L 79.343782 220.023529 
L 80.535029 219.511906 
L 81.726276 220.663059 
L 82.3219 222.453741 
L 82.917524 218.616565 
L 83.513147 222.070024 
L 84.108771 223.221176 
L 84.704394 215.930541 
L 85.300018 223.221176 
L 85.895641 222.325835 
L 86.491265 223.221176 
L 87.086888 219.511906 
L 87.682512 217.977035 
L 88.278136 220.790965 
L 88.873759 220.023529 
L 89.469383 219.895624 
L 90.065006 220.790965 
L 90.66063 223.604894 
L 91.256253 223.221176 
L 91.851877 220.790965 
L 92.4475 220.151435 
L 93.043124 220.407247 
L 93.638748 219.384 
L 94.234371 220.279341 
L 94.829995 223.476988 
L 95.425618 220.790965 
L 96.616865 220.151435 
L 97.212489 225.139765 
L 98.403736 218.744471 
L 98.99936 221.430494 
L 100.190607 220.407247 
L 100.78623 220.407247 
L 101.381854 219.511906 
L 101.977477 220.535153 
L 102.573101 219.895624 
L 103.168724 220.535153 
L 103.764348 221.686306 
L 104.359972 224.372329 
L 104.955595 221.174682 
L 105.551219 222.837459 
L 106.146842 218.104941 
L 106.742466 219.384 
L 107.338089 217.977035 
L 107.933713 223.476988 
L 108.529336 218.104941 
L 109.12496 221.430494 
L 109.720584 222.453741 
L 110.316207 220.023529 
L 110.911831 218.616565 
L 111.507454 224.372329 
L 112.103078 224.244424 
L 112.698701 222.709553 
L 113.294325 219.256094 
L 113.889948 219.767718 
L 114.485572 222.325835 
L 115.081196 223.093271 
L 115.676819 220.790965 
L 116.272443 224.372329 
L 117.46369 222.581647 
L 118.059313 220.023529 
L 118.654937 219.767718 
L 119.25056 222.709553 
L 119.846184 221.942118 
L 120.441808 218.360753 
L 121.037431 218.872376 
L 121.633055 222.325835 
L 122.228678 219.511906 
L 122.824302 223.860706 
L 124.015549 221.686306 
L 124.611172 220.023529 
L 125.802419 215.930541 
L 126.993667 222.965365 
L 127.58929 223.221176 
L 128.184914 221.686306 
L 128.780537 222.581647 
L 129.376161 222.965365 
L 129.971784 220.663059 
L 130.567408 220.151435 
L 131.163031 222.197929 
L 131.758655 219.895624 
L 132.354279 224.500235 
L 132.949902 225.267671 
L 133.545526 221.942118 
L 134.141149 221.5584 
L 134.736773 220.790965 
L 135.332396 218.872376 
L 135.92802 221.430494 
L 136.523643 221.430494 
L 137.119267 220.279341 
L 137.714891 222.581647 
L 138.310514 219.384 
L 138.906138 222.325835 
L 139.501761 220.407247 
L 140.097385 223.604894 
L 140.693008 223.221176 
L 141.288632 221.5584 
L 141.884255 221.430494 
L 142.479879 221.814212 
L 143.075503 224.116518 
L 143.671126 220.407247 
L 144.26675 223.604894 
L 145.457997 220.918871 
L 146.05362 220.918871 
L 146.649244 221.046776 
L 147.244867 220.790965 
L 147.840491 221.942118 
L 148.436115 222.070024 
L 149.031738 218.616565 
L 149.627362 223.988612 
L 150.222985 219.895624 
L 150.818609 221.430494 
L 151.414232 221.814212 
L 152.009856 222.965365 
L 152.605479 220.790965 
L 153.201103 224.500235 
L 153.796727 223.349082 
L 154.39235 219.000282 
L 154.987974 221.174682 
L 155.583597 219.767718 
L 156.179221 223.604894 
L 156.774844 221.814212 
L 157.370468 219.128188 
L 158.561715 222.070024 
L 159.157339 224.116518 
L 159.752962 220.023529 
L 160.348586 221.430494 
L 161.539833 221.942118 
L 162.135456 222.070024 
L 162.73108 221.046776 
L 163.326703 218.488659 
L 163.922327 221.430494 
L 164.517951 216.314259 
L 165.113574 223.860706 
L 165.709198 220.023529 
L 166.304821 223.604894 
L 166.900445 222.965365 
L 167.496068 222.965365 
L 168.091692 224.628141 
L 168.687315 224.116518 
L 169.282939 221.686306 
L 169.878563 223.604894 
L 170.474186 221.174682 
L 171.06981 219.511906 
L 171.665433 222.325835 
L 172.261057 221.686306 
L 172.85668 220.790965 
L 173.452304 221.046776 
L 174.047927 224.116518 
L 174.643551 221.174682 
L 175.239175 221.942118 
L 175.834798 220.535153 
L 176.430422 223.476988 
L 177.026045 219.767718 
L 177.621669 221.046776 
L 178.217292 221.814212 
L 178.812916 223.349082 
L 179.408539 220.663059 
L 180.004163 219.639812 
L 180.599787 220.535153 
L 181.19541 221.046776 
L 181.791034 224.244424 
L 182.982281 219.128188 
L 183.577904 220.918871 
L 184.173528 221.174682 
L 184.769151 222.070024 
L 185.364775 220.407247 
L 185.960399 221.302588 
L 186.556022 219.639812 
L 187.151646 219.895624 
L 187.747269 218.232847 
L 188.342893 222.325835 
L 188.938516 219.895624 
L 189.53414 219.511906 
L 190.129763 221.814212 
L 190.725387 219.128188 
L 191.32101 223.7328 
L 192.512258 220.407247 
L 193.107881 220.407247 
L 193.703505 219.895624 
L 194.299128 215.930541 
L 194.894752 222.453741 
L 195.490375 224.116518 
L 196.085999 221.046776 
L 196.681622 221.814212 
L 197.277246 219.767718 
L 197.87287 223.476988 
L 198.468493 225.395576 
L 199.064117 225.651388 
L 199.65974 219.511906 
L 200.255364 223.7328 
L 200.850987 217.081694 
L 201.446611 216.314259 
L 202.042234 221.686306 
L 202.637858 219.128188 
L 203.233482 223.093271 
L 203.829105 222.325835 
L 204.424729 218.872376 
L 205.020352 218.104941 
L 205.615976 220.663059 
L 206.211599 218.744471 
L 206.807223 221.5584 
L 207.99847 220.279341 
L 208.594094 217.081694 
L 209.189717 217.465412 
L 209.785341 220.535153 
L 210.380964 219.256094 
L 210.976588 212.604988 
L 211.572211 192.651671 
L 212.167835 199.686494 
L 212.763458 216.442165 
L 213.359082 221.942118 
L 213.954706 219.767718 
L 214.550329 220.407247 
L 215.145953 222.197929 
L 215.741576 220.790965 
L 216.3372 217.977035 
L 216.932823 222.581647 
L 217.528447 218.104941 
L 218.12407 221.686306 
L 218.719694 220.151435 
L 219.315318 216.697976 
L 220.506565 220.918871 
L 221.102188 221.046776 
L 221.697812 222.197929 
L 222.293435 220.407247 
L 223.484682 223.860706 
L 224.080306 220.535153 
L 224.67593 222.453741 
L 225.271553 218.232847 
L 225.867177 221.430494 
L 226.4628 221.046776 
L 227.058424 218.616565 
L 228.249671 223.988612 
L 228.845294 216.570071 
L 229.440918 221.174682 
L 230.036542 220.790965 
L 230.632165 218.360753 
L 231.227789 220.663059 
L 232.419036 221.430494 
L 233.014659 220.663059 
L 233.610283 220.535153 
L 234.205906 221.302588 
L 234.80153 221.302588 
L 235.397154 224.628141 
L 235.992777 222.965365 
L 236.588401 223.476988 
L 237.184024 221.302588 
L 237.779648 220.151435 
L 238.375271 221.174682 
L 238.970895 220.790965 
L 239.566518 222.453741 
L 240.162142 220.663059 
L 240.757766 220.790965 
L 241.353389 220.151435 
L 241.949013 220.918871 
L 242.544636 223.988612 
L 243.14026 223.988612 
L 243.735883 218.872376 
L 244.331507 222.453741 
L 244.92713 218.104941 
L 245.522754 218.616565 
L 246.118378 224.372329 
L 246.714001 219.767718 
L 247.309625 222.965365 
L 247.905248 222.325835 
L 248.500872 220.023529 
L 249.692119 219.256094 
L 250.287742 220.535153 
L 250.883366 218.360753 
L 251.47899 219.384 
L 252.074613 219.511906 
L 252.670237 216.697976 
L 253.26586 223.349082 
L 253.861484 218.360753 
L 254.457107 223.093271 
L 255.052731 221.5584 
L 255.648354 221.430494 
L 256.243978 218.488659 
L 256.839601 221.686306 
L 257.435225 223.988612 
L 258.030849 221.942118 
L 258.626472 218.488659 
L 259.222096 221.686306 
L 259.817719 218.872376 
L 260.413343 219.639812 
L 261.008966 223.7328 
L 262.200213 217.849129 
L 262.795837 220.407247 
L 263.391461 219.639812 
L 263.987084 221.046776 
L 264.582708 221.174682 
L 265.178331 221.046776 
L 265.773955 222.709553 
L 266.369578 224.756047 
L 266.965202 220.535153 
L 267.560825 220.151435 
L 268.156449 219.000282 
L 268.752073 221.174682 
L 269.347696 224.372329 
L 269.94332 224.116518 
L 270.538943 220.535153 
L 271.134567 223.604894 
L 271.73019 221.430494 
L 272.325814 222.709553 
L 272.921437 219.000282 
L 273.517061 221.046776 
L 274.112685 224.116518 
L 274.708308 222.837459 
L 275.303932 218.360753 
L 275.899555 219.256094 
L 276.495179 221.686306 
L 278.282049 205.825976 
L 278.877673 204.1632 
L 279.473297 200.326024 
L 280.664544 195.209788 
L 281.260167 199.430682 
L 281.855791 202.372518 
L 282.451414 207.872471 
L 283.047038 216.442165 
L 283.642661 217.465412 
L 284.238285 213.628235 
L 284.833909 221.046776 
L 285.429532 223.604894 
L 286.025156 222.453741 
L 286.620779 222.325835 
L 287.216403 222.453741 
L 287.812026 222.453741 
L 288.40765 219.256094 
L 289.003273 221.942118 
L 289.598897 222.837459 
L 290.194521 218.488659 
L 290.790144 221.430494 
L 291.385768 221.302588 
L 291.981391 222.837459 
L 292.577015 219.128188 
L 293.172638 220.918871 
L 293.768262 221.686306 
L 294.363885 220.663059 
L 295.555133 219.767718 
L 296.150756 217.465412 
L 296.74638 221.302588 
L 297.342003 221.046776 
L 297.937627 220.279341 
L 298.53325 223.988612 
L 299.128874 224.244424 
L 299.724497 222.070024 
L 300.320121 216.953788 
L 300.915745 221.046776 
L 301.511368 220.663059 
L 302.106992 218.360753 
L 302.702615 222.709553 
L 303.298239 219.384 
L 303.893862 223.093271 
L 304.489486 220.151435 
L 305.085109 221.174682 
L 305.680733 223.221176 
L 306.276357 222.070024 
L 306.87198 218.872376 
L 307.467604 225.267671 
L 308.063227 222.453741 
L 308.658851 225.267671 
L 309.254474 219.767718 
L 309.850098 225.011859 
L 310.445721 220.023529 
L 311.041345 221.5584 
L 311.636969 217.849129 
L 312.232592 219.639812 
L 312.828216 217.465412 
L 313.423839 223.476988 
L 314.019463 222.837459 
L 314.615086 220.918871 
L 315.21071 220.023529 
L 315.806333 222.837459 
L 316.401957 221.5584 
L 316.997581 221.686306 
L 317.593204 222.837459 
L 318.188828 222.837459 
L 318.784451 220.023529 
L 319.380075 223.7328 
L 319.975698 220.407247 
L 320.571322 222.581647 
L 321.166945 220.407247 
L 321.762569 221.174682 
L 322.358192 218.360753 
L 322.953816 220.790965 
L 323.54944 219.511906 
L 324.145063 219.256094 
L 324.740687 223.7328 
L 325.33631 220.918871 
L 325.931934 223.221176 
L 326.527557 218.872376 
L 327.123181 219.384 
L 327.718804 221.814212 
L 328.314428 219.639812 
L 328.910052 221.5584 
L 329.505675 219.256094 
L 330.101299 221.174682 
L 330.696922 220.535153 
L 331.292546 223.988612 
L 331.888169 223.349082 
L 332.483793 221.430494 
L 333.079416 216.953788 
L 333.67504 222.070024 
L 334.270664 218.360753 
L 334.866287 218.104941 
L 335.461911 221.430494 
L 336.057534 218.104941 
L 336.653158 221.5584 
L 337.844405 218.616565 
L 338.440028 223.093271 
L 339.035652 217.849129 
L 339.631276 221.942118 
L 340.226899 217.337506 
L 340.822523 223.7328 
L 341.418146 223.604894 
L 342.01377 223.7328 
L 342.609393 220.663059 
L 343.205017 220.151435 
L 343.80064 221.174682 
L 344.396264 221.686306 
L 344.991888 219.384 
L 345.587511 221.046776 
L 346.183135 218.488659 
L 346.778758 221.430494 
L 347.374382 222.709553 
L 347.970005 223.604894 
L 348.565629 219.384 
L 349.756876 222.197929 
L 350.3525 218.872376 
L 351.543747 223.604894 
L 352.13937 220.790965 
L 352.734994 221.686306 
L 353.330617 219.256094 
L 353.926241 220.023529 
L 354.521864 223.093271 
L 355.117488 219.639812 
L 355.713112 222.070024 
L 356.904359 222.581647 
L 357.499982 220.663059 
L 358.095606 220.023529 
L 358.691229 220.663059 
L 359.286853 223.476988 
L 359.882476 222.325835 
L 360.4781 224.244424 
L 361.073724 221.5584 
L 361.669347 223.7328 
L 362.264971 223.604894 
L 362.860594 221.174682 
L 363.456218 219.256094 
L 364.051841 218.104941 
L 364.647465 221.942118 
L 365.243088 221.942118 
L 366.434336 218.104941 
L 367.029959 221.046776 
L 367.625583 217.977035 
L 368.221206 224.116518 
L 368.81683 219.256094 
L 369.412453 217.849129 
L 370.008077 223.221176 
L 370.6037 221.686306 
L 371.794948 220.790965 
L 372.986195 223.221176 
L 373.581818 222.709553 
L 373.581818 222.709553 
" clip-path="url(#pe41d9e6473)" style="fill: none; stroke: #1f77b4; stroke-width: 1.5; stroke-linecap: square"/>
   </g>
   <g id="line2d_32">
    <path d="M 69.218182 230.000188 
L 69.813805 226.674635 
L 70.409429 227.697882 
L 71.005052 228.976941 
L 71.600676 225.651388 
L 72.1963 227.442071 
L 72.791923 230.256 
L 73.387547 230.256 
L 73.98317 227.697882 
L 74.578794 225.651388 
L 75.174417 227.953694 
L 75.770041 228.976941 
L 76.365664 228.721129 
L 76.961288 228.337412 
L 77.556912 229.744376 
L 78.152535 226.418824 
L 78.748159 227.697882 
L 79.343782 228.465318 
L 79.939406 227.058353 
L 80.535029 228.465318 
L 81.130653 227.186259 
L 81.726276 227.442071 
L 82.3219 224.372329 
L 82.917524 226.035106 
L 83.513147 231.535059 
L 84.108771 227.569976 
L 84.704394 231.407153 
L 85.300018 228.593224 
L 85.895641 227.825788 
L 86.491265 232.814118 
L 87.086888 229.488565 
L 87.682512 231.918776 
L 88.278136 228.0816 
L 88.873759 227.953694 
L 89.469383 229.488565 
L 90.065006 230.383906 
L 90.66063 229.616471 
L 91.256253 230.128094 
L 91.851877 228.593224 
L 92.4475 227.825788 
L 93.638748 228.976941 
L 94.234371 227.442071 
L 95.425618 230.767624 
L 96.616865 226.802541 
L 97.212489 229.488565 
L 97.808112 227.953694 
L 98.403736 228.593224 
L 98.99936 228.209506 
L 99.594983 226.674635 
L 100.190607 228.976941 
L 100.78623 227.314165 
L 101.381854 228.465318 
L 101.977477 229.872282 
L 102.573101 225.267671 
L 103.168724 225.523482 
L 103.764348 227.825788 
L 104.359972 227.442071 
L 104.955595 226.546729 
L 105.551219 226.163012 
L 106.146842 230.256 
L 106.742466 229.104847 
L 107.338089 231.023435 
L 107.933713 227.825788 
L 108.529336 228.209506 
L 109.12496 230.895529 
L 109.720584 231.662965 
L 110.316207 228.976941 
L 110.911831 227.569976 
L 111.507454 228.849035 
L 112.103078 227.569976 
L 112.698701 229.104847 
L 113.294325 229.104847 
L 113.889948 227.442071 
L 114.485572 231.023435 
L 115.081196 231.279247 
L 115.676819 227.953694 
L 116.272443 226.546729 
L 116.868066 228.976941 
L 117.46369 226.802541 
L 118.059313 227.953694 
L 118.654937 229.872282 
L 119.25056 229.488565 
L 119.846184 230.000188 
L 120.441808 227.953694 
L 121.037431 229.488565 
L 121.633055 226.035106 
L 122.228678 227.058353 
L 122.824302 229.232753 
L 123.419925 227.314165 
L 124.015549 228.849035 
L 124.611172 226.802541 
L 125.206796 226.802541 
L 125.802419 228.465318 
L 126.398043 229.232753 
L 126.993667 229.104847 
L 127.58929 229.616471 
L 128.184914 230.383906 
L 128.780537 230.128094 
L 129.376161 230.256 
L 129.971784 226.930447 
L 130.567408 229.360659 
L 131.163031 230.511812 
L 132.354279 228.0816 
L 132.949902 230.767624 
L 133.545526 227.825788 
L 134.141149 227.314165 
L 134.736773 226.546729 
L 135.332396 229.616471 
L 135.92802 227.569976 
L 136.523643 228.721129 
L 137.119267 228.976941 
L 137.714891 226.546729 
L 138.310514 228.0816 
L 138.906138 231.023435 
L 139.501761 230.256 
L 140.097385 231.279247 
L 140.693008 227.953694 
L 141.288632 227.058353 
L 141.884255 232.558306 
L 142.479879 227.314165 
L 143.075503 227.569976 
L 143.671126 227.953694 
L 145.457997 227.953694 
L 146.05362 227.314165 
L 146.649244 228.465318 
L 147.244867 230.511812 
L 147.840491 226.802541 
L 148.436115 232.4304 
L 149.031738 229.872282 
L 149.627362 228.721129 
L 150.222985 226.290918 
L 150.818609 228.0816 
L 151.414232 228.976941 
L 152.009856 228.721129 
L 152.605479 229.744376 
L 153.201103 227.569976 
L 153.796727 227.442071 
L 154.39235 225.779294 
L 154.987974 226.802541 
L 155.583597 228.976941 
L 156.179221 226.546729 
L 156.774844 228.337412 
L 157.370468 226.930447 
L 157.966091 228.849035 
L 158.561715 225.9072 
L 159.157339 231.151341 
L 159.752962 228.337412 
L 160.348586 228.976941 
L 160.944209 228.849035 
L 161.539833 227.697882 
L 162.135456 228.209506 
L 162.73108 225.267671 
L 163.326703 219.000282 
L 163.922327 195.977224 
L 165.113574 226.035106 
L 165.709198 232.686212 
L 166.304821 227.186259 
L 166.900445 227.058353 
L 167.496068 228.849035 
L 168.091692 230.256 
L 168.687315 229.232753 
L 169.282939 228.465318 
L 169.878563 229.488565 
L 170.474186 227.953694 
L 171.06981 227.442071 
L 171.665433 226.674635 
L 172.261057 227.697882 
L 173.452304 228.465318 
L 174.047927 228.0816 
L 174.643551 228.849035 
L 175.239175 231.790871 
L 175.834798 228.593224 
L 176.430422 228.976941 
L 177.621669 226.290918 
L 178.217292 226.674635 
L 179.408539 228.465318 
L 180.004163 228.593224 
L 180.599787 227.697882 
L 181.19541 230.256 
L 181.791034 225.523482 
L 182.386657 229.104847 
L 182.982281 230.000188 
L 183.577904 229.232753 
L 184.173528 228.976941 
L 184.769151 231.535059 
L 185.364775 229.744376 
L 185.960399 230.511812 
L 186.556022 230.000188 
L 187.151646 228.721129 
L 187.747269 229.360659 
L 188.342893 228.849035 
L 188.938516 227.825788 
L 189.53414 230.639718 
L 190.129763 227.442071 
L 190.725387 228.849035 
L 191.32101 228.593224 
L 191.916634 227.442071 
L 192.512258 224.756047 
L 193.107881 227.825788 
L 193.703505 227.058353 
L 194.299128 226.035106 
L 194.894752 229.488565 
L 195.490375 223.221176 
L 196.085999 228.976941 
L 196.681622 226.674635 
L 197.277246 230.128094 
L 197.87287 228.0816 
L 198.468493 228.337412 
L 199.064117 227.697882 
L 199.65974 227.442071 
L 200.255364 223.988612 
L 200.850987 227.186259 
L 201.446611 229.104847 
L 202.042234 229.360659 
L 202.637858 226.035106 
L 203.233482 226.930447 
L 203.829105 228.0816 
L 204.424729 225.779294 
L 205.020352 230.639718 
L 205.615976 229.360659 
L 206.211599 231.407153 
L 206.807223 229.872282 
L 207.402846 227.442071 
L 207.99847 230.128094 
L 208.594094 229.744376 
L 209.189717 231.535059 
L 210.380964 227.442071 
L 210.976588 229.232753 
L 212.167835 230.639718 
L 212.763458 229.232753 
L 213.359082 227.186259 
L 213.954706 231.662965 
L 214.550329 227.697882 
L 215.145953 229.232753 
L 215.741576 225.779294 
L 216.3372 228.849035 
L 216.932823 228.849035 
L 217.528447 227.314165 
L 218.12407 227.569976 
L 218.719694 231.535059 
L 219.315318 231.279247 
L 219.910941 228.593224 
L 220.506565 228.721129 
L 221.102188 227.569976 
L 221.697812 228.849035 
L 222.293435 226.418824 
L 222.889059 227.186259 
L 223.484682 227.314165 
L 224.080306 229.872282 
L 224.67593 228.0816 
L 225.271553 227.314165 
L 225.867177 231.023435 
L 226.4628 230.000188 
L 227.058424 231.023435 
L 227.654047 230.383906 
L 228.845294 225.9072 
L 229.440918 226.290918 
L 230.036542 218.104941 
L 230.632165 218.744471 
L 231.227789 213.884047 
L 231.823412 207.488753 
L 232.419036 205.442259 
L 233.014659 201.221365 
L 233.610283 211.325929 
L 234.205906 212.093365 
L 234.80153 217.465412 
L 235.992777 223.093271 
L 236.588401 228.849035 
L 237.184024 227.953694 
L 237.779648 228.593224 
L 238.375271 225.523482 
L 238.970895 230.256 
L 239.566518 230.000188 
L 240.162142 227.186259 
L 240.757766 228.849035 
L 241.353389 229.360659 
L 241.949013 227.058353 
L 242.544636 227.825788 
L 243.14026 231.151341 
L 243.735883 226.035106 
L 244.331507 228.849035 
L 244.92713 233.069929 
L 246.118378 226.674635 
L 246.714001 228.721129 
L 247.309625 226.035106 
L 247.905248 232.558306 
L 248.500872 232.558306 
L 249.096495 226.035106 
L 249.692119 229.232753 
L 250.287742 230.767624 
L 250.883366 230.000188 
L 251.47899 228.976941 
L 252.074613 227.697882 
L 252.670237 231.407153 
L 253.26586 225.779294 
L 253.861484 230.128094 
L 254.457107 226.930447 
L 255.052731 227.953694 
L 255.648354 229.488565 
L 256.243978 228.721129 
L 256.839601 227.442071 
L 257.435225 227.442071 
L 258.030849 226.930447 
L 258.626472 227.569976 
L 259.222096 229.360659 
L 259.817719 226.930447 
L 260.413343 227.442071 
L 261.008966 229.616471 
L 261.60459 225.523482 
L 262.200213 229.616471 
L 262.795837 230.511812 
L 263.391461 232.4304 
L 263.987084 225.651388 
L 264.582708 223.860706 
L 265.178331 228.0816 
L 265.773955 225.651388 
L 266.369578 228.976941 
L 266.965202 226.674635 
L 267.560825 229.360659 
L 268.156449 225.523482 
L 268.752073 226.802541 
L 269.347696 230.128094 
L 269.94332 228.721129 
L 270.538943 224.883953 
L 271.134567 232.686212 
L 271.73019 229.360659 
L 272.921437 227.186259 
L 273.517061 231.279247 
L 274.112685 230.000188 
L 274.708308 226.035106 
L 275.303932 227.314165 
L 275.899555 227.825788 
L 276.495179 228.721129 
L 277.686426 231.279247 
L 278.282049 228.849035 
L 278.877673 230.383906 
L 279.473297 227.697882 
L 280.06892 228.465318 
L 280.664544 225.651388 
L 281.260167 228.593224 
L 281.855791 227.697882 
L 282.451414 227.825788 
L 283.047038 230.000188 
L 283.642661 228.593224 
L 284.238285 228.721129 
L 284.833909 229.744376 
L 285.429532 226.930447 
L 286.025156 229.616471 
L 287.216403 227.697882 
L 287.812026 228.721129 
L 288.40765 227.569976 
L 289.003273 227.314165 
L 289.598897 227.442071 
L 290.194521 229.744376 
L 290.790144 227.314165 
L 291.385768 227.825788 
L 291.981391 227.953694 
L 292.577015 227.314165 
L 293.172638 228.593224 
L 293.768262 227.186259 
L 294.363885 231.662965 
L 294.959509 227.953694 
L 295.555133 229.616471 
L 296.150756 230.639718 
L 296.74638 227.825788 
L 297.342003 228.976941 
L 297.937627 227.442071 
L 298.53325 227.697882 
L 299.128874 226.163012 
L 299.724497 231.662965 
L 300.320121 229.488565 
L 300.915745 230.256 
L 301.511368 226.290918 
L 302.106992 226.290918 
L 302.702615 228.976941 
L 303.298239 229.104847 
L 303.893862 228.721129 
L 304.489486 229.104847 
L 305.085109 227.186259 
L 305.680733 227.442071 
L 306.276357 226.290918 
L 306.87198 229.488565 
L 307.467604 228.721129 
L 308.063227 226.930447 
L 308.658851 228.465318 
L 309.254474 228.0816 
L 309.850098 230.000188 
L 311.041345 227.825788 
L 311.636969 227.442071 
L 312.232592 229.616471 
L 312.828216 228.593224 
L 313.423839 227.186259 
L 314.019463 230.383906 
L 314.615086 226.290918 
L 315.21071 234.348988 
L 315.806333 227.314165 
L 316.401957 230.383906 
L 316.997581 227.697882 
L 317.593204 230.511812 
L 318.188828 227.825788 
L 318.784451 227.058353 
L 319.380075 227.953694 
L 320.571322 227.953694 
L 321.166945 228.593224 
L 321.762569 230.767624 
L 322.358192 228.976941 
L 322.953816 228.721129 
L 323.54944 225.267671 
L 324.145063 227.442071 
L 325.33631 230.511812 
L 325.931934 227.569976 
L 326.527557 229.744376 
L 327.718804 230.895529 
L 328.314428 225.779294 
L 328.910052 230.128094 
L 329.505675 226.802541 
L 330.101299 228.849035 
L 330.696922 225.651388 
L 331.292546 228.465318 
L 331.888169 228.593224 
L 332.483793 228.849035 
L 333.079416 226.674635 
L 333.67504 227.953694 
L 334.270664 231.662965 
L 334.866287 229.360659 
L 335.461911 226.035106 
L 336.057534 228.593224 
L 336.653158 226.674635 
L 337.248781 229.488565 
L 337.844405 231.279247 
L 338.440028 229.488565 
L 339.035652 229.616471 
L 339.631276 230.256 
L 340.226899 226.546729 
L 340.822523 230.128094 
L 341.418146 225.139765 
L 342.01377 229.232753 
L 342.609393 226.418824 
L 343.205017 228.593224 
L 343.80064 227.314165 
L 344.396264 226.802541 
L 344.991888 228.337412 
L 345.587511 228.976941 
L 346.183135 230.895529 
L 346.778758 229.872282 
L 347.374382 229.744376 
L 347.970005 229.744376 
L 348.565629 228.465318 
L 349.161252 231.151341 
L 349.756876 227.186259 
L 350.3525 230.383906 
L 350.948123 228.0816 
L 351.543747 231.535059 
L 352.13937 227.314165 
L 352.734994 228.593224 
L 353.330617 230.639718 
L 353.926241 228.465318 
L 354.521864 228.721129 
L 355.117488 227.825788 
L 355.713112 228.593224 
L 356.308735 225.779294 
L 356.904359 228.465318 
L 357.499982 229.360659 
L 358.095606 230.639718 
L 358.691229 231.023435 
L 359.286853 227.569976 
L 359.882476 228.465318 
L 360.4781 228.721129 
L 361.073724 226.035106 
L 361.669347 228.337412 
L 362.264971 230.000188 
L 362.860594 229.616471 
L 363.456218 228.209506 
L 364.051841 228.0816 
L 364.647465 229.104847 
L 365.243088 228.976941 
L 365.838712 230.895529 
L 366.434336 226.163012 
L 367.029959 229.872282 
L 367.625583 230.639718 
L 368.221206 223.221176 
L 368.81683 229.872282 
L 369.412453 233.453647 
L 370.008077 226.674635 
L 370.6037 230.000188 
L 371.199324 227.186259 
L 371.794948 230.639718 
L 372.390571 228.593224 
L 372.986195 230.000188 
L 373.581818 227.058353 
L 373.581818 227.058353 
" clip-path="url(#pe41d9e6473)" style="fill: none; stroke: #ff7f0e; stroke-width: 1.5; stroke-linecap: square"/>
   </g>
   <g id="line2d_33">
    <path d="M 69.218182 138.9312 
L 69.813805 144.047435 
L 70.409429 136.117271 
L 71.005052 137.012612 
L 71.600676 129.849882 
L 72.1963 129.594071 
L 72.791923 133.303341 
L 73.387547 135.733553 
L 73.98317 134.070776 
L 74.578794 136.884706 
L 75.770041 133.431247 
L 76.365664 133.047529 
L 76.961288 136.884706 
L 77.556912 132.535906 
L 78.152535 139.698635 
L 78.748159 133.559153 
L 79.939406 142.000941 
L 80.535029 138.547482 
L 81.130653 133.175435 
L 81.726276 133.431247 
L 82.3219 135.349835 
L 82.917524 135.733553 
L 83.513147 129.594071 
L 84.108771 135.861459 
L 84.704394 137.012612 
L 85.300018 139.314918 
L 85.895641 138.547482 
L 86.491265 131.001035 
L 87.086888 137.396329 
L 87.682512 129.977788 
L 88.278136 130.745224 
L 88.873759 135.221929 
L 89.469383 138.163765 
L 90.065006 140.082353 
L 90.66063 129.849882 
L 91.256253 137.140518 
L 91.851877 140.721882 
L 92.4475 132.024282 
L 93.043124 143.919529 
L 93.638748 132.408 
L 94.234371 137.012612 
L 94.829995 143.28 
L 95.425618 134.454494 
L 96.021242 139.442824 
L 96.616865 135.989365 
L 97.212489 139.826541 
L 97.808112 129.082447 
L 98.99936 143.663718 
L 99.594983 135.733553 
L 100.190607 134.070776 
L 100.78623 141.361412 
L 101.381854 135.861459 
L 101.977477 139.954447 
L 102.573101 140.466071 
L 103.168724 139.187012 
L 103.764348 134.070776 
L 104.359972 131.001035 
L 104.955595 139.826541 
L 105.551219 131.001035 
L 106.146842 130.361506 
L 106.742466 138.9312 
L 107.338089 135.221929 
L 107.933713 136.628894 
L 108.529336 134.838212 
L 109.12496 138.035859 
L 109.720584 138.291671 
L 110.316207 134.966118 
L 110.911831 132.663812 
L 111.507454 132.408 
L 112.103078 141.745129 
L 112.698701 137.524235 
L 113.294325 141.233506 
L 113.889948 135.861459 
L 114.485572 133.047529 
L 115.081196 138.675388 
L 115.676819 136.628894 
L 116.272443 132.919624 
L 116.868066 134.838212 
L 117.46369 141.1056 
L 118.059313 133.814965 
L 118.654937 135.094024 
L 119.25056 146.605553 
L 119.846184 137.652141 
L 120.441808 140.082353 
L 121.037431 137.268424 
L 121.633055 129.849882 
L 122.824302 139.059106 
L 123.419925 131.896376 
L 124.015549 137.907953 
L 124.611172 138.9312 
L 125.206796 131.896376 
L 125.802419 141.617224 
L 126.398043 134.454494 
L 126.993667 138.547482 
L 127.58929 141.361412 
L 128.184914 130.361506 
L 128.780537 136.245176 
L 129.376161 134.5824 
L 129.971784 135.861459 
L 130.567408 142.768376 
L 131.163031 130.489412 
L 131.758655 137.268424 
L 132.354279 140.338165 
L 132.949902 138.803294 
L 133.545526 131.512659 
L 134.141149 138.547482 
L 134.736773 134.454494 
L 135.332396 137.780047 
L 135.92802 128.826635 
L 137.119267 136.7568 
L 137.714891 138.291671 
L 138.310514 138.547482 
L 138.906138 134.070776 
L 139.501761 135.605647 
L 140.097385 134.326588 
L 140.693008 141.1056 
L 141.288632 141.489318 
L 141.884255 135.477741 
L 142.479879 136.884706 
L 143.075503 140.338165 
L 143.671126 129.977788 
L 144.26675 133.047529 
L 144.862373 132.791718 
L 145.457997 129.977788 
L 146.05362 138.163765 
L 146.649244 138.675388 
L 147.244867 137.268424 
L 147.840491 129.466165 
L 148.436115 133.942871 
L 149.031738 140.210259 
L 149.627362 134.838212 
L 150.222985 137.268424 
L 150.818609 140.466071 
L 151.414232 138.803294 
L 152.605479 132.024282 
L 153.201103 136.373082 
L 153.796727 130.2336 
L 154.39235 137.140518 
L 154.987974 135.861459 
L 155.583597 138.291671 
L 156.179221 129.082447 
L 157.370468 142.896282 
L 157.966091 136.245176 
L 158.561715 135.861459 
L 159.157339 140.977694 
L 159.752962 138.547482 
L 160.348586 124.477835 
L 161.539833 138.803294 
L 162.135456 132.663812 
L 162.73108 128.442918 
L 163.326703 137.012612 
L 163.922327 128.187106 
L 164.517951 139.826541 
L 165.113574 135.605647 
L 165.709198 134.710306 
L 166.304821 139.570729 
L 166.900445 140.849788 
L 167.496068 143.024188 
L 168.091692 135.861459 
L 169.282939 131.256847 
L 169.878563 137.780047 
L 170.474186 136.7568 
L 171.06981 98.768753 
L 171.665433 43.129694 
L 172.261057 72.164329 
L 172.85668 125.501082 
L 173.452304 145.838118 
L 174.047927 134.198682 
L 174.643551 142.000941 
L 175.239175 143.152094 
L 175.834798 136.117271 
L 176.430422 133.303341 
L 177.026045 136.7568 
L 177.621669 141.617224 
L 178.217292 138.035859 
L 178.812916 140.849788 
L 179.408539 139.954447 
L 180.004163 142.128847 
L 180.599787 139.826541 
L 181.19541 136.884706 
L 181.791034 136.373082 
L 182.386657 138.675388 
L 182.982281 138.035859 
L 183.577904 136.7568 
L 184.173528 130.617318 
L 184.769151 134.198682 
L 185.364775 131.640565 
L 185.960399 139.187012 
L 186.556022 135.733553 
L 187.151646 137.907953 
L 187.747269 140.721882 
L 188.342893 134.198682 
L 188.938516 132.408 
L 189.53414 140.082353 
L 190.129763 137.140518 
L 190.725387 136.7568 
L 191.32101 131.384753 
L 191.916634 144.175341 
L 192.512258 132.408 
L 193.107881 131.640565 
L 193.703505 140.082353 
L 194.299128 135.349835 
L 194.894752 139.570729 
L 195.490375 140.466071 
L 196.085999 139.187012 
L 196.681622 132.919624 
L 197.277246 135.733553 
L 197.87287 140.466071 
L 198.468493 133.047529 
L 199.064117 136.7568 
L 199.65974 139.187012 
L 200.255364 134.198682 
L 200.850987 132.791718 
L 201.446611 136.7568 
L 202.042234 137.780047 
L 202.637858 134.710306 
L 203.233482 132.791718 
L 203.829105 139.314918 
L 204.424729 127.291765 
L 205.020352 140.849788 
L 205.615976 139.570729 
L 206.211599 137.140518 
L 206.807223 142.896282 
L 207.99847 139.698635 
L 208.594094 128.954541 
L 209.189717 140.338165 
L 209.785341 133.559153 
L 210.380964 144.942776 
L 210.976588 131.128941 
L 211.572211 138.419576 
L 212.167835 134.966118 
L 212.763458 134.326588 
L 213.359082 143.28 
L 213.954706 135.477741 
L 214.550329 132.919624 
L 215.145953 139.314918 
L 215.741576 133.431247 
L 216.3372 134.710306 
L 216.932823 135.349835 
L 217.528447 125.373176 
L 218.12407 136.373082 
L 218.719694 141.361412 
L 219.315318 134.198682 
L 219.910941 136.628894 
L 220.506565 137.396329 
L 221.102188 127.291765 
L 221.697812 134.966118 
L 222.293435 134.5824 
L 222.889059 131.256847 
L 223.484682 142.640471 
L 224.080306 136.373082 
L 224.67593 134.966118 
L 225.271553 131.640565 
L 225.867177 135.221929 
L 226.4628 144.175341 
L 227.058424 134.710306 
L 227.654047 136.117271 
L 228.249671 134.5824 
L 228.845294 140.593976 
L 229.440918 135.477741 
L 230.036542 132.791718 
L 230.632165 132.663812 
L 231.227789 138.291671 
L 231.823412 138.163765 
L 232.419036 139.570729 
L 233.014659 131.256847 
L 233.610283 137.652141 
L 234.205906 127.931294 
L 234.80153 134.838212 
L 235.992777 133.175435 
L 236.588401 123.198776 
L 237.184024 121.791812 
L 237.779648 106.571012 
L 238.375271 96.594353 
L 239.566518 52.850541 
L 240.162142 48.118024 
L 240.757766 51.699388 
L 241.353389 53.490071 
L 241.949013 73.571294 
L 242.544636 80.606118 
L 243.735883 121.919718 
L 244.331507 118.466259 
L 244.92713 135.477741 
L 245.522754 130.361506 
L 246.118378 143.919529 
L 246.714001 131.768471 
L 247.309625 141.233506 
L 247.905248 135.605647 
L 248.500872 140.338165 
L 249.692119 131.384753 
L 250.287742 137.140518 
L 250.883366 127.675482 
L 251.47899 133.175435 
L 252.670237 132.408 
L 253.26586 133.431247 
L 253.861484 132.535906 
L 254.457107 139.442824 
L 255.052731 136.7568 
L 255.648354 136.884706 
L 256.243978 132.024282 
L 256.839601 139.059106 
L 257.435225 133.559153 
L 258.030849 136.7568 
L 258.626472 135.349835 
L 259.222096 141.617224 
L 259.817719 138.419576 
L 260.413343 135.861459 
L 261.008966 141.361412 
L 261.60459 134.838212 
L 262.200213 135.094024 
L 262.795837 141.617224 
L 263.391461 136.373082 
L 263.987084 134.070776 
L 264.582708 137.140518 
L 265.178331 138.291671 
L 265.773955 133.687059 
L 266.369578 136.628894 
L 266.965202 136.373082 
L 267.560825 132.152188 
L 268.156449 137.524235 
L 268.752073 140.977694 
L 269.347696 128.698729 
L 269.94332 134.454494 
L 270.538943 141.745129 
L 271.134567 137.524235 
L 271.73019 139.954447 
L 272.325814 133.303341 
L 272.921437 142.384659 
L 273.517061 132.024282 
L 274.112685 137.907953 
L 274.708308 137.140518 
L 275.303932 129.594071 
L 275.899555 127.163859 
L 276.495179 131.512659 
L 277.090802 132.663812 
L 277.686426 136.245176 
L 278.282049 138.547482 
L 278.877673 137.907953 
L 279.473297 134.326588 
L 280.06892 128.315012 
L 280.664544 145.838118 
L 281.260167 135.733553 
L 281.855791 135.605647 
L 282.451414 135.989365 
L 283.047038 146.349741 
L 283.642661 136.373082 
L 284.238285 135.094024 
L 284.833909 141.361412 
L 285.429532 138.163765 
L 286.025156 131.512659 
L 286.620779 138.675388 
L 287.216403 135.221929 
L 287.812026 133.559153 
L 288.40765 137.652141 
L 289.003273 126.780141 
L 289.598897 137.907953 
L 290.194521 135.221929 
L 290.790144 135.349835 
L 291.385768 146.093929 
L 291.981391 137.396329 
L 292.577015 139.570729 
L 293.172638 132.791718 
L 293.768262 134.838212 
L 294.363885 126.268518 
L 294.959509 132.152188 
L 295.555133 129.977788 
L 296.150756 143.024188 
L 296.74638 139.314918 
L 297.342003 148.268329 
L 297.937627 128.442918 
L 298.53325 140.977694 
L 299.128874 131.256847 
L 299.724497 144.175341 
L 300.320121 143.28 
L 300.915745 146.733459 
L 301.511368 137.652141 
L 302.106992 136.500988 
L 302.702615 130.105694 
L 303.298239 134.966118 
L 303.893862 132.791718 
L 304.489486 134.710306 
L 305.085109 143.535812 
L 305.680733 140.338165 
L 306.276357 132.919624 
L 306.87198 136.628894 
L 307.467604 134.710306 
L 308.063227 129.338259 
L 308.658851 132.152188 
L 309.254474 130.361506 
L 309.850098 140.466071 
L 310.445721 138.419576 
L 311.041345 137.524235 
L 311.636969 134.454494 
L 312.232592 135.989365 
L 312.828216 131.640565 
L 313.423839 142.640471 
L 314.019463 141.745129 
L 314.615086 137.652141 
L 315.21071 136.7568 
L 315.806333 134.5824 
L 316.997581 137.268424 
L 317.593204 142.000941 
L 318.188828 138.035859 
L 318.784451 132.919624 
L 319.380075 136.7568 
L 319.975698 142.256753 
L 321.166945 130.2336 
L 321.762569 137.780047 
L 322.358192 128.442918 
L 322.953816 141.233506 
L 323.54944 141.233506 
L 324.740687 132.408 
L 325.33631 135.477741 
L 325.931934 139.570729 
L 326.527557 134.710306 
L 327.123181 131.768471 
L 327.718804 139.187012 
L 328.314428 136.628894 
L 328.910052 139.442824 
L 329.505675 136.500988 
L 330.101299 137.780047 
L 330.696922 134.966118 
L 331.292546 141.489318 
L 331.888169 136.628894 
L 332.483793 133.047529 
L 333.079416 140.593976 
L 333.67504 143.791624 
L 334.270664 132.408 
L 334.866287 137.268424 
L 335.461911 133.559153 
L 336.057534 143.919529 
L 336.653158 131.256847 
L 337.248781 142.256753 
L 337.844405 137.140518 
L 338.440028 138.675388 
L 339.035652 132.919624 
L 339.631276 143.152094 
L 340.226899 139.059106 
L 340.822523 142.768376 
L 341.418146 134.5824 
L 342.01377 142.000941 
L 342.609393 140.082353 
L 343.205017 141.873035 
L 343.80064 135.477741 
L 344.396264 133.047529 
L 344.991888 141.873035 
L 345.587511 131.768471 
L 346.183135 138.675388 
L 346.778758 133.175435 
L 347.374382 142.768376 
L 347.970005 131.001035 
L 349.161252 137.396329 
L 349.756876 137.524235 
L 350.3525 145.4544 
L 350.948123 132.280094 
L 351.543747 132.024282 
L 352.13937 136.373082 
L 352.734994 133.431247 
L 353.330617 134.454494 
L 353.926241 138.163765 
L 354.521864 127.035953 
L 355.117488 138.547482 
L 355.713112 143.024188 
L 356.308735 131.896376 
L 356.904359 140.849788 
L 357.499982 133.431247 
L 358.095606 132.024282 
L 358.691229 134.454494 
L 359.286853 141.873035 
L 359.882476 134.5824 
L 360.4781 138.163765 
L 361.073724 135.221929 
L 361.669347 133.687059 
L 362.264971 129.977788 
L 362.860594 138.163765 
L 363.456218 134.070776 
L 364.051841 138.547482 
L 364.647465 135.605647 
L 365.243088 136.500988 
L 365.838712 133.687059 
L 366.434336 139.954447 
L 367.029959 128.826635 
L 367.625583 142.128847 
L 368.221206 133.175435 
L 368.81683 141.233506 
L 369.412453 145.4544 
L 370.008077 127.035953 
L 370.6037 142.000941 
L 371.199324 142.640471 
L 371.794948 136.628894 
L 372.390571 137.524235 
L 372.986195 131.896376 
L 373.581818 139.314918 
L 373.581818 139.314918 
" clip-path="url(#pe41d9e6473)" style="fill: none; stroke: #2ca02c; stroke-width: 1.5; stroke-linecap: square"/>
   </g>
   <g id="patch_3">
    <path d="M 54 252 
L 54 34.56 
" style="fill: none; stroke: #000000; stroke-width: 0.8; stroke-linejoin: miter; stroke-linecap: square"/>
   </g>
   <g id="patch_4">
    <path d="M 388.8 252 
L 388.8 34.56 
" style="fill: none; stroke: #000000; stroke-width: 0.8; stroke-linejoin: miter; stroke-linecap: square"/>
   </g>
   <g id="patch_5">
    <path d="M 54 252 
L 388.8 252 
" style="fill: none; stroke: #000000; stroke-width: 0.8; stroke-linejoin: miter; stroke-linecap: square"/>
   </g>
   <g id="patch_6">
    <path d="M 54 34.56 
L 388.8 34.56 
" style="fill: none; stroke: #000000; stroke-width: 0.8; stroke-linejoin: miter; stroke-linecap: square"/>
   </g>
   <g id="text_18">
    <!-- Label 6 -->
    <g transform="translate(199.487813 28.56)scale(0.12 -0.12)">
     <defs>
      <path id="DejaVuSans-4c" d="M 628 4666 
L 1259 4666 
L 1259 531 
L 3531 531 
L 3531 0 
L 628 0 
L 628 4666 
z
" transform="scale(0.015625)"/>
      <path id="DejaVuSans-61" d="M 2194 1759 
Q 1497 1759 1228 1600 
Q 959 1441 959 1056 
Q 959 750 1161 570 
Q 1363 391 1709 391 
Q 2188 391 2477 730 
Q 2766 1069 2766 1631 
L 2766 1759 
L 2194 1759 
z
M 3341 1997 
L 3341 0 
L 2766 0 
L 2766 531 
Q 2569 213 2275 61 
Q 1981 -91 1556 -91 
Q 1019 -91 701 211 
Q 384 513 384 1019 
Q 384 1609 779 1909 
Q 1175 2209 1959 2209 
L 2766 2209 
L 2766 2266 
Q 2766 2663 2505 2880 
Q 2244 3097 1772 3097 
Q 1472 3097 1187 3025 
Q 903 2953 641 2809 
L 641 3341 
Q 956 3463 1253 3523 
Q 1550 3584 1831 3584 
Q 2591 3584 2966 3190 
Q 3341 2797 3341 1997 
z
" transform="scale(0.015625)"/>
      <path id="DejaVuSans-65" d="M 3597 1894 
L 3597 1613 
L 953 1613 
Q 991 1019 1311 708 
Q 1631 397 2203 397 
Q 2534 397 2845 478 
Q 3156 559 3463 722 
L 3463 178 
Q 3153 47 2828 -22 
Q 2503 -91 2169 -91 
Q 1331 -91 842 396 
Q 353 884 353 1716 
Q 353 2575 817 3079 
Q 1281 3584 2069 3584 
Q 2775 3584 3186 3129 
Q 3597 2675 3597 1894 
z
M 3022 2063 
Q 3016 2534 2758 2815 
Q 2500 3097 2075 3097 
Q 1594 3097 1305 2825 
Q 1016 2553 972 2059 
L 3022 2063 
z
" transform="scale(0.015625)"/>
      <path id="DejaVuSans-6c" d="M 603 4863 
L 1178 4863 
L 1178 0 
L 603 0 
L 603 4863 
z
" transform="scale(0.015625)"/>
      <path id="DejaVuSans-20" transform="scale(0.015625)"/>
     </defs>
     <use xlink:href="#DejaVuSans-4c"/>
     <use xlink:href="#DejaVuSans-61" x="55.712891"/>
     <use xlink:href="#DejaVuSans-62" x="116.992188"/>
     <use xlink:href="#DejaVuSans-65" x="180.46875"/>
     <use xlink:href="#DejaVuSans-6c" x="241.992188"/>
     <use xlink:href="#DejaVuSans-20" x="269.775391"/>
     <use xlink:href="#DejaVuSans-36" x="301.5625"/>
    </g>
   </g>
   <g id="legend_1">
    <g id="patch_7">
     <path d="M 309.070312 101.2725 
L 381.8 101.2725 
Q 383.8 101.2725 383.8 99.2725 
L 383.8 41.56 
Q 383.8 39.56 381.8 39.56 
L 309.070312 39.56 
Q 307.070312 39.56 307.070312 41.56 
L 307.070312 99.2725 
Q 307.070312 101.2725 309.070312 101.2725 
z
" style="fill: #ffffff; opacity: 0.8; stroke: #cccccc; stroke-linejoin: miter"/>
    </g>
    <g id="text_19">
     <!-- Trace number -->
     <g transform="translate(311.070312 51.158437)scale(0.1 -0.1)">
      <defs>
       <path id="DejaVuSans-54" d="M -19 4666 
L 3928 4666 
L 3928 4134 
L 2272 4134 
L 2272 0 
L 1638 0 
L 1638 4134 
L -19 4134 
L -19 4666 
z
" transform="scale(0.015625)"/>
       <path id="DejaVuSans-72" d="M 2631 2963 
Q 2534 3019 2420 3045 
Q 2306 3072 2169 3072 
Q 1681 3072 1420 2755 
Q 1159 2438 1159 1844 
L 1159 0 
L 581 0 
L 581 3500 
L 1159 3500 
L 1159 2956 
Q 1341 3275 1631 3429 
Q 1922 3584 2338 3584 
Q 2397 3584 2469 3576 
Q 2541 3569 2628 3553 
L 2631 2963 
z
" transform="scale(0.015625)"/>
       <path id="DejaVuSans-6d" d="M 3328 2828 
Q 3544 3216 3844 3400 
Q 4144 3584 4550 3584 
Q 5097 3584 5394 3201 
Q 5691 2819 5691 2113 
L 5691 0 
L 5113 0 
L 5113 2094 
Q 5113 2597 4934 2840 
Q 4756 3084 4391 3084 
Q 3944 3084 3684 2787 
Q 3425 2491 3425 1978 
L 3425 0 
L 2847 0 
L 2847 2094 
Q 2847 2600 2669 2842 
Q 2491 3084 2119 3084 
Q 1678 3084 1418 2786 
Q 1159 2488 1159 1978 
L 1159 0 
L 581 0 
L 581 3500 
L 1159 3500 
L 1159 2956 
Q 1356 3278 1631 3431 
Q 1906 3584 2284 3584 
Q 2666 3584 2933 3390 
Q 3200 3197 3328 2828 
z
" transform="scale(0.015625)"/>
      </defs>
      <use xlink:href="#DejaVuSans-54"/>
      <use xlink:href="#DejaVuSans-72" x="46.333984"/>
      <use xlink:href="#DejaVuSans-61" x="87.447266"/>
      <use xlink:href="#DejaVuSans-63" x="148.726562"/>
      <use xlink:href="#DejaVuSans-65" x="203.707031"/>
      <use xlink:href="#DejaVuSans-20" x="265.230469"/>
      <use xlink:href="#DejaVuSans-6e" x="297.017578"/>
      <use xlink:href="#DejaVuSans-75" x="360.396484"/>
      <use xlink:href="#DejaVuSans-6d" x="423.775391"/>
      <use xlink:href="#DejaVuSans-62" x="521.1875"/>
      <use xlink:href="#DejaVuSans-65" x="584.664062"/>
      <use xlink:href="#DejaVuSans-72" x="646.1875"/>
     </g>
    </g>
    <g id="line2d_34">
     <path d="M 325.072656 62.336562 
L 335.072656 62.336562 
L 345.072656 62.336562 
" style="fill: none; stroke: #1f77b4; stroke-width: 1.5; stroke-linecap: square"/>
    </g>
    <g id="text_20">
     <!-- 12 -->
     <g transform="translate(353.072656 65.836562)scale(0.1 -0.1)">
      <use xlink:href="#DejaVuSans-31"/>
      <use xlink:href="#DejaVuSans-32" x="63.623047"/>
     </g>
    </g>
    <g id="line2d_35">
     <path d="M 325.072656 77.014687 
L 335.072656 77.014687 
L 345.072656 77.014687 
" style="fill: none; stroke: #ff7f0e; stroke-width: 1.5; stroke-linecap: square"/>
    </g>
    <g id="text_21">
     <!-- 34 -->
     <g transform="translate(353.072656 80.514687)scale(0.1 -0.1)">
      <use xlink:href="#DejaVuSans-33"/>
      <use xlink:href="#DejaVuSans-34" x="63.623047"/>
     </g>
    </g>
    <g id="line2d_36">
     <path d="M 325.072656 91.692813 
L 335.072656 91.692813 
L 345.072656 91.692813 
" style="fill: none; stroke: #2ca02c; stroke-width: 1.5; stroke-linecap: square"/>
    </g>
    <g id="text_22">
     <!-- 45 -->
     <g transform="translate(353.072656 95.192813)scale(0.1 -0.1)">
      <use xlink:href="#DejaVuSans-34"/>
      <use xlink:href="#DejaVuSans-35" x="63.623047"/>
     </g>
    </g>
   </g>
  </g>
 </g>
 <defs>
  <clipPath id="pe41d9e6473">
   <rect x="54" y="34.56" width="334.8" height="217.44"/>
  </clipPath>
 </defs>
</svg>
