<?xml version="1.0" encoding="utf-8" standalone="no"?>
<!DOCTYPE svg PUBLIC "-//W3C//DTD SVG 1.1//EN"
  "http://www.w3.org/Graphics/SVG/1.1/DTD/svg11.dtd">
<svg xmlns:xlink="http://www.w3.org/1999/xlink" width="432pt" height="288pt" viewBox="0 0 432 288" xmlns="http://www.w3.org/2000/svg" version="1.1">
 <metadata>
  <rdf:RDF xmlns:dc="http://purl.org/dc/elements/1.1/" xmlns:cc="http://creativecommons.org/ns#" xmlns:rdf="http://www.w3.org/1999/02/22-rdf-syntax-ns#">
   <cc:Work>
    <dc:type rdf:resource="http://purl.org/dc/dcmitype/StillImage"/>
    <dc:date>2022-03-30T13:12:46.782962</dc:date>
    <dc:format>image/svg+xml</dc:format>
    <dc:creator>
     <cc:Agent>
      <dc:title>Matplotlib v3.5.1, https://matplotlib.org/</dc:title>
     </cc:Agent>
    </dc:creator>
   </cc:Work>
  </rdf:RDF>
 </metadata>
 <defs>
  <style type="text/css">*{stroke-linejoin: round; stroke-linecap: butt}</style>
 </defs>
 <g id="figure_1">
  <g id="patch_1">
   <path d="M 0 288 
L 432 288 
L 432 0 
L 0 0 
z
" style="fill: #ffffff"/>
  </g>
  <g id="axes_1">
   <g id="patch_2">
    <path d="M 54 252 
L 388.8 252 
L 388.8 34.56 
L 54 34.56 
z
" style="fill: #ffffff"/>
   </g>
   <g id="matplotlib.axis_1">
    <g id="xtick_1">
     <g id="line2d_1">
      <path d="M 69.218182 252 
L 69.218182 34.56 
" clip-path="url(#p768a02bbd4)" style="fill: none; stroke: #b0b0b0; stroke-width: 0.8; stroke-linecap: square"/>
     </g>
     <g id="line2d_2">
      <defs>
       <path id="m21793731f5" d="M 0 0 
L 0 3.5 
" style="stroke: #000000; stroke-width: 0.8"/>
      </defs>
      <g>
       <use xlink:href="#m21793731f5" x="69.218182" y="252" style="stroke: #000000; stroke-width: 0.8"/>
      </g>
     </g>
     <g id="text_1">
      <!-- 0 -->
      <g transform="translate(66.036932 266.598437)scale(0.1 -0.1)">
       <defs>
        <path id="DejaVuSans-30" d="M 2034 4250 
Q 1547 4250 1301 3770 
Q 1056 3291 1056 2328 
Q 1056 1369 1301 889 
Q 1547 409 2034 409 
Q 2525 409 2770 889 
Q 3016 1369 3016 2328 
Q 3016 3291 2770 3770 
Q 2525 4250 2034 4250 
z
M 2034 4750 
Q 2819 4750 3233 4129 
Q 3647 3509 3647 2328 
Q 3647 1150 3233 529 
Q 2819 -91 2034 -91 
Q 1250 -91 836 529 
Q 422 1150 422 2328 
Q 422 3509 836 4129 
Q 1250 4750 2034 4750 
z
" transform="scale(0.015625)"/>
       </defs>
       <use xlink:href="#DejaVuSans-30"/>
      </g>
     </g>
    </g>
    <g id="xtick_2">
     <g id="line2d_3">
      <path d="M 128.780537 252 
L 128.780537 34.56 
" clip-path="url(#p768a02bbd4)" style="fill: none; stroke: #b0b0b0; stroke-width: 0.8; stroke-linecap: square"/>
     </g>
     <g id="line2d_4">
      <g>
       <use xlink:href="#m21793731f5" x="128.780537" y="252" style="stroke: #000000; stroke-width: 0.8"/>
      </g>
     </g>
     <g id="text_2">
      <!-- 100 -->
      <g transform="translate(119.236787 266.598437)scale(0.1 -0.1)">
       <defs>
        <path id="DejaVuSans-31" d="M 794 531 
L 1825 531 
L 1825 4091 
L 703 3866 
L 703 4441 
L 1819 4666 
L 2450 4666 
L 2450 531 
L 3481 531 
L 3481 0 
L 794 0 
L 794 531 
z
" transform="scale(0.015625)"/>
       </defs>
       <use xlink:href="#DejaVuSans-31"/>
       <use xlink:href="#DejaVuSans-30" x="63.623047"/>
       <use xlink:href="#DejaVuSans-30" x="127.246094"/>
      </g>
     </g>
    </g>
    <g id="xtick_3">
     <g id="line2d_5">
      <path d="M 188.342893 252 
L 188.342893 34.56 
" clip-path="url(#p768a02bbd4)" style="fill: none; stroke: #b0b0b0; stroke-width: 0.8; stroke-linecap: square"/>
     </g>
     <g id="line2d_6">
      <g>
       <use xlink:href="#m21793731f5" x="188.342893" y="252" style="stroke: #000000; stroke-width: 0.8"/>
      </g>
     </g>
     <g id="text_3">
      <!-- 200 -->
      <g transform="translate(178.799143 266.598437)scale(0.1 -0.1)">
       <defs>
        <path id="DejaVuSans-32" d="M 1228 531 
L 3431 531 
L 3431 0 
L 469 0 
L 469 531 
Q 828 903 1448 1529 
Q 2069 2156 2228 2338 
Q 2531 2678 2651 2914 
Q 2772 3150 2772 3378 
Q 2772 3750 2511 3984 
Q 2250 4219 1831 4219 
Q 1534 4219 1204 4116 
Q 875 4013 500 3803 
L 500 4441 
Q 881 4594 1212 4672 
Q 1544 4750 1819 4750 
Q 2544 4750 2975 4387 
Q 3406 4025 3406 3419 
Q 3406 3131 3298 2873 
Q 3191 2616 2906 2266 
Q 2828 2175 2409 1742 
Q 1991 1309 1228 531 
z
" transform="scale(0.015625)"/>
       </defs>
       <use xlink:href="#DejaVuSans-32"/>
       <use xlink:href="#DejaVuSans-30" x="63.623047"/>
       <use xlink:href="#DejaVuSans-30" x="127.246094"/>
      </g>
     </g>
    </g>
    <g id="xtick_4">
     <g id="line2d_7">
      <path d="M 247.905248 252 
L 247.905248 34.56 
" clip-path="url(#p768a02bbd4)" style="fill: none; stroke: #b0b0b0; stroke-width: 0.8; stroke-linecap: square"/>
     </g>
     <g id="line2d_8">
      <g>
       <use xlink:href="#m21793731f5" x="247.905248" y="252" style="stroke: #000000; stroke-width: 0.8"/>
      </g>
     </g>
     <g id="text_4">
      <!-- 300 -->
      <g transform="translate(238.361498 266.598437)scale(0.1 -0.1)">
       <defs>
        <path id="DejaVuSans-33" d="M 2597 2516 
Q 3050 2419 3304 2112 
Q 3559 1806 3559 1356 
Q 3559 666 3084 287 
Q 2609 -91 1734 -91 
Q 1441 -91 1130 -33 
Q 819 25 488 141 
L 488 750 
Q 750 597 1062 519 
Q 1375 441 1716 441 
Q 2309 441 2620 675 
Q 2931 909 2931 1356 
Q 2931 1769 2642 2001 
Q 2353 2234 1838 2234 
L 1294 2234 
L 1294 2753 
L 1863 2753 
Q 2328 2753 2575 2939 
Q 2822 3125 2822 3475 
Q 2822 3834 2567 4026 
Q 2313 4219 1838 4219 
Q 1578 4219 1281 4162 
Q 984 4106 628 3988 
L 628 4550 
Q 988 4650 1302 4700 
Q 1616 4750 1894 4750 
Q 2613 4750 3031 4423 
Q 3450 4097 3450 3541 
Q 3450 3153 3228 2886 
Q 3006 2619 2597 2516 
z
" transform="scale(0.015625)"/>
       </defs>
       <use xlink:href="#DejaVuSans-33"/>
       <use xlink:href="#DejaVuSans-30" x="63.623047"/>
       <use xlink:href="#DejaVuSans-30" x="127.246094"/>
      </g>
     </g>
    </g>
    <g id="xtick_5">
     <g id="line2d_9">
      <path d="M 307.467604 252 
L 307.467604 34.56 
" clip-path="url(#p768a02bbd4)" style="fill: none; stroke: #b0b0b0; stroke-width: 0.8; stroke-linecap: square"/>
     </g>
     <g id="line2d_10">
      <g>
       <use xlink:href="#m21793731f5" x="307.467604" y="252" style="stroke: #000000; stroke-width: 0.8"/>
      </g>
     </g>
     <g id="text_5">
      <!-- 400 -->
      <g transform="translate(297.923854 266.598437)scale(0.1 -0.1)">
       <defs>
        <path id="DejaVuSans-34" d="M 2419 4116 
L 825 1625 
L 2419 1625 
L 2419 4116 
z
M 2253 4666 
L 3047 4666 
L 3047 1625 
L 3713 1625 
L 3713 1100 
L 3047 1100 
L 3047 0 
L 2419 0 
L 2419 1100 
L 313 1100 
L 313 1709 
L 2253 4666 
z
" transform="scale(0.015625)"/>
       </defs>
       <use xlink:href="#DejaVuSans-34"/>
       <use xlink:href="#DejaVuSans-30" x="63.623047"/>
       <use xlink:href="#DejaVuSans-30" x="127.246094"/>
      </g>
     </g>
    </g>
    <g id="xtick_6">
     <g id="line2d_11">
      <path d="M 367.029959 252 
L 367.029959 34.56 
" clip-path="url(#p768a02bbd4)" style="fill: none; stroke: #b0b0b0; stroke-width: 0.8; stroke-linecap: square"/>
     </g>
     <g id="line2d_12">
      <g>
       <use xlink:href="#m21793731f5" x="367.029959" y="252" style="stroke: #000000; stroke-width: 0.8"/>
      </g>
     </g>
     <g id="text_6">
      <!-- 500 -->
      <g transform="translate(357.486209 266.598437)scale(0.1 -0.1)">
       <defs>
        <path id="DejaVuSans-35" d="M 691 4666 
L 3169 4666 
L 3169 4134 
L 1269 4134 
L 1269 2991 
Q 1406 3038 1543 3061 
Q 1681 3084 1819 3084 
Q 2600 3084 3056 2656 
Q 3513 2228 3513 1497 
Q 3513 744 3044 326 
Q 2575 -91 1722 -91 
Q 1428 -91 1123 -41 
Q 819 9 494 109 
L 494 744 
Q 775 591 1075 516 
Q 1375 441 1709 441 
Q 2250 441 2565 725 
Q 2881 1009 2881 1497 
Q 2881 1984 2565 2268 
Q 2250 2553 1709 2553 
Q 1456 2553 1204 2497 
Q 953 2441 691 2322 
L 691 4666 
z
" transform="scale(0.015625)"/>
       </defs>
       <use xlink:href="#DejaVuSans-35"/>
       <use xlink:href="#DejaVuSans-30" x="63.623047"/>
       <use xlink:href="#DejaVuSans-30" x="127.246094"/>
      </g>
     </g>
    </g>
    <g id="text_7">
     <!-- bin -->
     <g transform="translate(213.667969 280.276563)scale(0.1 -0.1)">
      <defs>
       <path id="DejaVuSans-62" d="M 3116 1747 
Q 3116 2381 2855 2742 
Q 2594 3103 2138 3103 
Q 1681 3103 1420 2742 
Q 1159 2381 1159 1747 
Q 1159 1113 1420 752 
Q 1681 391 2138 391 
Q 2594 391 2855 752 
Q 3116 1113 3116 1747 
z
M 1159 2969 
Q 1341 3281 1617 3432 
Q 1894 3584 2278 3584 
Q 2916 3584 3314 3078 
Q 3713 2572 3713 1747 
Q 3713 922 3314 415 
Q 2916 -91 2278 -91 
Q 1894 -91 1617 61 
Q 1341 213 1159 525 
L 1159 0 
L 581 0 
L 581 4863 
L 1159 4863 
L 1159 2969 
z
" transform="scale(0.015625)"/>
       <path id="DejaVuSans-69" d="M 603 3500 
L 1178 3500 
L 1178 0 
L 603 0 
L 603 3500 
z
M 603 4863 
L 1178 4863 
L 1178 4134 
L 603 4134 
L 603 4863 
z
" transform="scale(0.015625)"/>
       <path id="DejaVuSans-6e" d="M 3513 2113 
L 3513 0 
L 2938 0 
L 2938 2094 
Q 2938 2591 2744 2837 
Q 2550 3084 2163 3084 
Q 1697 3084 1428 2787 
Q 1159 2491 1159 1978 
L 1159 0 
L 581 0 
L 581 3500 
L 1159 3500 
L 1159 2956 
Q 1366 3272 1645 3428 
Q 1925 3584 2291 3584 
Q 2894 3584 3203 3211 
Q 3513 2838 3513 2113 
z
" transform="scale(0.015625)"/>
      </defs>
      <use xlink:href="#DejaVuSans-62"/>
      <use xlink:href="#DejaVuSans-69" x="63.476562"/>
      <use xlink:href="#DejaVuSans-6e" x="91.259766"/>
     </g>
    </g>
   </g>
   <g id="matplotlib.axis_2">
    <g id="ytick_1">
     <g id="line2d_13">
      <path d="M 54 252 
L 388.8 252 
" clip-path="url(#p768a02bbd4)" style="fill: none; stroke: #b0b0b0; stroke-width: 0.8; stroke-linecap: square"/>
     </g>
     <g id="line2d_14">
      <defs>
       <path id="mb8c52d6d02" d="M 0 0 
L -3.5 0 
" style="stroke: #000000; stroke-width: 0.8"/>
      </defs>
      <g>
       <use xlink:href="#mb8c52d6d02" x="54" y="252" style="stroke: #000000; stroke-width: 0.8"/>
      </g>
     </g>
     <g id="text_8">
      <!-- 0 -->
      <g transform="translate(40.6375 255.799219)scale(0.1 -0.1)">
       <use xlink:href="#DejaVuSans-30"/>
      </g>
     </g>
    </g>
    <g id="ytick_2">
     <g id="line2d_15">
      <path d="M 54 226.418824 
L 388.8 226.418824 
" clip-path="url(#p768a02bbd4)" style="fill: none; stroke: #b0b0b0; stroke-width: 0.8; stroke-linecap: square"/>
     </g>
     <g id="line2d_16">
      <g>
       <use xlink:href="#mb8c52d6d02" x="54" y="226.418824" style="stroke: #000000; stroke-width: 0.8"/>
      </g>
     </g>
     <g id="text_9">
      <!-- 200 -->
      <g transform="translate(27.9125 230.218042)scale(0.1 -0.1)">
       <use xlink:href="#DejaVuSans-32"/>
       <use xlink:href="#DejaVuSans-30" x="63.623047"/>
       <use xlink:href="#DejaVuSans-30" x="127.246094"/>
      </g>
     </g>
    </g>
    <g id="ytick_3">
     <g id="line2d_17">
      <path d="M 54 200.837647 
L 388.8 200.837647 
" clip-path="url(#p768a02bbd4)" style="fill: none; stroke: #b0b0b0; stroke-width: 0.8; stroke-linecap: square"/>
     </g>
     <g id="line2d_18">
      <g>
       <use xlink:href="#mb8c52d6d02" x="54" y="200.837647" style="stroke: #000000; stroke-width: 0.8"/>
      </g>
     </g>
     <g id="text_10">
      <!-- 400 -->
      <g transform="translate(27.9125 204.636866)scale(0.1 -0.1)">
       <use xlink:href="#DejaVuSans-34"/>
       <use xlink:href="#DejaVuSans-30" x="63.623047"/>
       <use xlink:href="#DejaVuSans-30" x="127.246094"/>
      </g>
     </g>
    </g>
    <g id="ytick_4">
     <g id="line2d_19">
      <path d="M 54 175.256471 
L 388.8 175.256471 
" clip-path="url(#p768a02bbd4)" style="fill: none; stroke: #b0b0b0; stroke-width: 0.8; stroke-linecap: square"/>
     </g>
     <g id="line2d_20">
      <g>
       <use xlink:href="#mb8c52d6d02" x="54" y="175.256471" style="stroke: #000000; stroke-width: 0.8"/>
      </g>
     </g>
     <g id="text_11">
      <!-- 600 -->
      <g transform="translate(27.9125 179.055689)scale(0.1 -0.1)">
       <defs>
        <path id="DejaVuSans-36" d="M 2113 2584 
Q 1688 2584 1439 2293 
Q 1191 2003 1191 1497 
Q 1191 994 1439 701 
Q 1688 409 2113 409 
Q 2538 409 2786 701 
Q 3034 994 3034 1497 
Q 3034 2003 2786 2293 
Q 2538 2584 2113 2584 
z
M 3366 4563 
L 3366 3988 
Q 3128 4100 2886 4159 
Q 2644 4219 2406 4219 
Q 1781 4219 1451 3797 
Q 1122 3375 1075 2522 
Q 1259 2794 1537 2939 
Q 1816 3084 2150 3084 
Q 2853 3084 3261 2657 
Q 3669 2231 3669 1497 
Q 3669 778 3244 343 
Q 2819 -91 2113 -91 
Q 1303 -91 875 529 
Q 447 1150 447 2328 
Q 447 3434 972 4092 
Q 1497 4750 2381 4750 
Q 2619 4750 2861 4703 
Q 3103 4656 3366 4563 
z
" transform="scale(0.015625)"/>
       </defs>
       <use xlink:href="#DejaVuSans-36"/>
       <use xlink:href="#DejaVuSans-30" x="63.623047"/>
       <use xlink:href="#DejaVuSans-30" x="127.246094"/>
      </g>
     </g>
    </g>
    <g id="ytick_5">
     <g id="line2d_21">
      <path d="M 54 149.675294 
L 388.8 149.675294 
" clip-path="url(#p768a02bbd4)" style="fill: none; stroke: #b0b0b0; stroke-width: 0.8; stroke-linecap: square"/>
     </g>
     <g id="line2d_22">
      <g>
       <use xlink:href="#mb8c52d6d02" x="54" y="149.675294" style="stroke: #000000; stroke-width: 0.8"/>
      </g>
     </g>
     <g id="text_12">
      <!-- 800 -->
      <g transform="translate(27.9125 153.474513)scale(0.1 -0.1)">
       <defs>
        <path id="DejaVuSans-38" d="M 2034 2216 
Q 1584 2216 1326 1975 
Q 1069 1734 1069 1313 
Q 1069 891 1326 650 
Q 1584 409 2034 409 
Q 2484 409 2743 651 
Q 3003 894 3003 1313 
Q 3003 1734 2745 1975 
Q 2488 2216 2034 2216 
z
M 1403 2484 
Q 997 2584 770 2862 
Q 544 3141 544 3541 
Q 544 4100 942 4425 
Q 1341 4750 2034 4750 
Q 2731 4750 3128 4425 
Q 3525 4100 3525 3541 
Q 3525 3141 3298 2862 
Q 3072 2584 2669 2484 
Q 3125 2378 3379 2068 
Q 3634 1759 3634 1313 
Q 3634 634 3220 271 
Q 2806 -91 2034 -91 
Q 1263 -91 848 271 
Q 434 634 434 1313 
Q 434 1759 690 2068 
Q 947 2378 1403 2484 
z
M 1172 3481 
Q 1172 3119 1398 2916 
Q 1625 2713 2034 2713 
Q 2441 2713 2670 2916 
Q 2900 3119 2900 3481 
Q 2900 3844 2670 4047 
Q 2441 4250 2034 4250 
Q 1625 4250 1398 4047 
Q 1172 3844 1172 3481 
z
" transform="scale(0.015625)"/>
       </defs>
       <use xlink:href="#DejaVuSans-38"/>
       <use xlink:href="#DejaVuSans-30" x="63.623047"/>
       <use xlink:href="#DejaVuSans-30" x="127.246094"/>
      </g>
     </g>
    </g>
    <g id="ytick_6">
     <g id="line2d_23">
      <path d="M 54 124.094118 
L 388.8 124.094118 
" clip-path="url(#p768a02bbd4)" style="fill: none; stroke: #b0b0b0; stroke-width: 0.8; stroke-linecap: square"/>
     </g>
     <g id="line2d_24">
      <g>
       <use xlink:href="#mb8c52d6d02" x="54" y="124.094118" style="stroke: #000000; stroke-width: 0.8"/>
      </g>
     </g>
     <g id="text_13">
      <!-- 1000 -->
      <g transform="translate(21.55 127.893336)scale(0.1 -0.1)">
       <use xlink:href="#DejaVuSans-31"/>
       <use xlink:href="#DejaVuSans-30" x="63.623047"/>
       <use xlink:href="#DejaVuSans-30" x="127.246094"/>
       <use xlink:href="#DejaVuSans-30" x="190.869141"/>
      </g>
     </g>
    </g>
    <g id="ytick_7">
     <g id="line2d_25">
      <path d="M 54 98.512941 
L 388.8 98.512941 
" clip-path="url(#p768a02bbd4)" style="fill: none; stroke: #b0b0b0; stroke-width: 0.8; stroke-linecap: square"/>
     </g>
     <g id="line2d_26">
      <g>
       <use xlink:href="#mb8c52d6d02" x="54" y="98.512941" style="stroke: #000000; stroke-width: 0.8"/>
      </g>
     </g>
     <g id="text_14">
      <!-- 1200 -->
      <g transform="translate(21.55 102.31216)scale(0.1 -0.1)">
       <use xlink:href="#DejaVuSans-31"/>
       <use xlink:href="#DejaVuSans-32" x="63.623047"/>
       <use xlink:href="#DejaVuSans-30" x="127.246094"/>
       <use xlink:href="#DejaVuSans-30" x="190.869141"/>
      </g>
     </g>
    </g>
    <g id="ytick_8">
     <g id="line2d_27">
      <path d="M 54 72.931765 
L 388.8 72.931765 
" clip-path="url(#p768a02bbd4)" style="fill: none; stroke: #b0b0b0; stroke-width: 0.8; stroke-linecap: square"/>
     </g>
     <g id="line2d_28">
      <g>
       <use xlink:href="#mb8c52d6d02" x="54" y="72.931765" style="stroke: #000000; stroke-width: 0.8"/>
      </g>
     </g>
     <g id="text_15">
      <!-- 1400 -->
      <g transform="translate(21.55 76.730983)scale(0.1 -0.1)">
       <use xlink:href="#DejaVuSans-31"/>
       <use xlink:href="#DejaVuSans-34" x="63.623047"/>
       <use xlink:href="#DejaVuSans-30" x="127.246094"/>
       <use xlink:href="#DejaVuSans-30" x="190.869141"/>
      </g>
     </g>
    </g>
    <g id="ytick_9">
     <g id="line2d_29">
      <path d="M 54 47.350588 
L 388.8 47.350588 
" clip-path="url(#p768a02bbd4)" style="fill: none; stroke: #b0b0b0; stroke-width: 0.8; stroke-linecap: square"/>
     </g>
     <g id="line2d_30">
      <g>
       <use xlink:href="#mb8c52d6d02" x="54" y="47.350588" style="stroke: #000000; stroke-width: 0.8"/>
      </g>
     </g>
     <g id="text_16">
      <!-- 1600 -->
      <g transform="translate(21.55 51.149807)scale(0.1 -0.1)">
       <use xlink:href="#DejaVuSans-31"/>
       <use xlink:href="#DejaVuSans-36" x="63.623047"/>
       <use xlink:href="#DejaVuSans-30" x="127.246094"/>
       <use xlink:href="#DejaVuSans-30" x="190.869141"/>
      </g>
     </g>
    </g>
    <g id="text_17">
     <!-- count -->
     <g transform="translate(15.470312 157.38625)rotate(-90)scale(0.1 -0.1)">
      <defs>
       <path id="DejaVuSans-63" d="M 3122 3366 
L 3122 2828 
Q 2878 2963 2633 3030 
Q 2388 3097 2138 3097 
Q 1578 3097 1268 2742 
Q 959 2388 959 1747 
Q 959 1106 1268 751 
Q 1578 397 2138 397 
Q 2388 397 2633 464 
Q 2878 531 3122 666 
L 3122 134 
Q 2881 22 2623 -34 
Q 2366 -91 2075 -91 
Q 1284 -91 818 406 
Q 353 903 353 1747 
Q 353 2603 823 3093 
Q 1294 3584 2113 3584 
Q 2378 3584 2631 3529 
Q 2884 3475 3122 3366 
z
" transform="scale(0.015625)"/>
       <path id="DejaVuSans-6f" d="M 1959 3097 
Q 1497 3097 1228 2736 
Q 959 2375 959 1747 
Q 959 1119 1226 758 
Q 1494 397 1959 397 
Q 2419 397 2687 759 
Q 2956 1122 2956 1747 
Q 2956 2369 2687 2733 
Q 2419 3097 1959 3097 
z
M 1959 3584 
Q 2709 3584 3137 3096 
Q 3566 2609 3566 1747 
Q 3566 888 3137 398 
Q 2709 -91 1959 -91 
Q 1206 -91 779 398 
Q 353 888 353 1747 
Q 353 2609 779 3096 
Q 1206 3584 1959 3584 
z
" transform="scale(0.015625)"/>
       <path id="DejaVuSans-75" d="M 544 1381 
L 544 3500 
L 1119 3500 
L 1119 1403 
Q 1119 906 1312 657 
Q 1506 409 1894 409 
Q 2359 409 2629 706 
Q 2900 1003 2900 1516 
L 2900 3500 
L 3475 3500 
L 3475 0 
L 2900 0 
L 2900 538 
Q 2691 219 2414 64 
Q 2138 -91 1772 -91 
Q 1169 -91 856 284 
Q 544 659 544 1381 
z
M 1991 3584 
L 1991 3584 
z
" transform="scale(0.015625)"/>
       <path id="DejaVuSans-74" d="M 1172 4494 
L 1172 3500 
L 2356 3500 
L 2356 3053 
L 1172 3053 
L 1172 1153 
Q 1172 725 1289 603 
Q 1406 481 1766 481 
L 2356 481 
L 2356 0 
L 1766 0 
Q 1100 0 847 248 
Q 594 497 594 1153 
L 594 3053 
L 172 3053 
L 172 3500 
L 594 3500 
L 594 4494 
L 1172 4494 
z
" transform="scale(0.015625)"/>
      </defs>
      <use xlink:href="#DejaVuSans-63"/>
      <use xlink:href="#DejaVuSans-6f" x="54.980469"/>
      <use xlink:href="#DejaVuSans-75" x="116.162109"/>
      <use xlink:href="#DejaVuSans-6e" x="179.541016"/>
      <use xlink:href="#DejaVuSans-74" x="242.919922"/>
     </g>
    </g>
   </g>
   <g id="line2d_31">
    <path d="M 69.218182 234.732706 
L 69.813805 234.6048 
L 70.409429 232.686212 
L 71.005052 233.069929 
L 71.600676 236.139671 
L 72.1963 232.302494 
L 72.791923 232.4304 
L 73.387547 233.837365 
L 73.98317 231.023435 
L 74.578794 232.174588 
L 75.174417 233.581553 
L 76.365664 232.174588 
L 76.961288 233.197835 
L 77.556912 232.558306 
L 78.152535 233.581553 
L 78.748159 236.7792 
L 79.343782 230.639718 
L 80.535029 232.942024 
L 81.130653 231.151341 
L 81.726276 231.790871 
L 82.3219 233.581553 
L 82.917524 233.453647 
L 83.513147 234.221082 
L 84.108771 234.732706 
L 84.704394 230.767624 
L 85.300018 231.023435 
L 85.895641 235.628047 
L 86.491265 231.535059 
L 87.086888 232.302494 
L 87.682512 232.302494 
L 88.278136 231.662965 
L 88.873759 228.209506 
L 90.065006 236.011765 
L 90.66063 235.500141 
L 91.256253 233.197835 
L 91.851877 233.325741 
L 92.4475 234.348988 
L 93.043124 232.814118 
L 93.638748 232.686212 
L 94.234371 233.197835 
L 94.829995 236.139671 
L 95.425618 233.709459 
L 96.021242 233.453647 
L 96.616865 233.453647 
L 97.212489 235.628047 
L 97.808112 231.023435 
L 98.403736 231.023435 
L 98.99936 236.139671 
L 99.594983 230.383906 
L 100.190607 233.069929 
L 100.78623 233.965271 
L 101.381854 233.453647 
L 101.977477 231.662965 
L 102.573101 232.558306 
L 103.168724 230.383906 
L 103.764348 231.662965 
L 104.955595 234.732706 
L 105.551219 231.151341 
L 106.146842 235.372235 
L 107.338089 232.4304 
L 107.933713 232.942024 
L 108.529336 231.535059 
L 109.12496 232.942024 
L 109.720584 231.918776 
L 110.316207 232.814118 
L 110.911831 230.767624 
L 111.507454 234.221082 
L 112.103078 232.814118 
L 112.698701 236.907106 
L 113.294325 232.942024 
L 113.889948 231.023435 
L 114.485572 232.4304 
L 115.081196 230.895529 
L 115.676819 234.860612 
L 116.272443 232.686212 
L 116.868066 233.197835 
L 117.46369 234.732706 
L 118.059313 233.325741 
L 118.654937 232.4304 
L 119.25056 234.093176 
L 119.846184 231.279247 
L 120.441808 233.325741 
L 121.037431 231.535059 
L 121.633055 232.558306 
L 122.228678 231.407153 
L 122.824302 233.581553 
L 123.419925 234.988518 
L 124.015549 232.174588 
L 124.611172 235.628047 
L 125.206796 232.4304 
L 125.802419 232.686212 
L 126.993667 234.988518 
L 127.58929 232.4304 
L 128.184914 232.942024 
L 128.780537 230.639718 
L 129.376161 232.558306 
L 129.971784 233.965271 
L 130.567408 236.523388 
L 131.163031 234.476894 
L 131.758655 231.918776 
L 132.354279 233.325741 
L 132.949902 232.558306 
L 133.545526 233.837365 
L 134.141149 232.046682 
L 134.736773 233.069929 
L 135.332396 235.755953 
L 135.92802 231.662965 
L 136.523643 233.325741 
L 137.119267 233.069929 
L 137.714891 232.174588 
L 138.310514 234.988518 
L 138.906138 232.4304 
L 139.501761 231.151341 
L 140.097385 234.860612 
L 140.693008 232.686212 
L 141.288632 233.965271 
L 141.884255 233.837365 
L 142.479879 232.302494 
L 143.075503 231.662965 
L 143.671126 233.709459 
L 144.26675 233.965271 
L 144.862373 232.046682 
L 145.457997 232.686212 
L 146.05362 234.348988 
L 146.649244 233.069929 
L 147.244867 234.476894 
L 147.840491 231.535059 
L 148.436115 231.407153 
L 149.031738 233.325741 
L 149.627362 234.348988 
L 150.222985 230.383906 
L 150.818609 236.139671 
L 152.009856 232.046682 
L 152.605479 232.942024 
L 153.201103 234.732706 
L 153.796727 234.093176 
L 155.583597 232.942024 
L 156.179221 233.325741 
L 156.774844 231.662965 
L 157.370468 231.279247 
L 157.966091 232.558306 
L 158.561715 233.453647 
L 159.157339 231.023435 
L 159.752962 235.755953 
L 160.348586 233.965271 
L 160.944209 235.116424 
L 161.539833 233.837365 
L 162.135456 234.860612 
L 162.73108 233.709459 
L 163.326703 235.372235 
L 163.922327 232.4304 
L 164.517951 233.069929 
L 165.113574 232.4304 
L 166.304821 233.837365 
L 166.900445 235.244329 
L 167.496068 233.709459 
L 168.091692 234.221082 
L 168.687315 231.918776 
L 169.282939 233.325741 
L 169.878563 233.965271 
L 170.474186 232.046682 
L 171.06981 232.686212 
L 171.665433 232.814118 
L 172.261057 231.023435 
L 172.85668 230.895529 
L 173.452304 233.965271 
L 174.047927 233.197835 
L 174.643551 231.662965 
L 175.239175 233.069929 
L 175.834798 232.942024 
L 176.430422 232.686212 
L 177.026045 235.883859 
L 177.621669 232.558306 
L 178.217292 232.302494 
L 178.812916 233.453647 
L 179.408539 232.942024 
L 180.004163 231.407153 
L 180.599787 235.244329 
L 181.19541 231.279247 
L 181.791034 234.6048 
L 182.386657 231.535059 
L 182.982281 232.814118 
L 183.577904 232.174588 
L 184.173528 232.814118 
L 184.769151 233.837365 
L 185.364775 232.558306 
L 185.960399 233.197835 
L 186.556022 231.790871 
L 187.151646 232.4304 
L 187.747269 235.372235 
L 188.342893 232.046682 
L 188.938516 233.581553 
L 189.53414 234.093176 
L 190.129763 234.093176 
L 190.725387 233.069929 
L 191.32101 231.535059 
L 191.916634 233.709459 
L 192.512258 234.221082 
L 193.107881 233.581553 
L 193.703505 234.988518 
L 194.299128 234.221082 
L 194.894752 233.069929 
L 195.490375 231.151341 
L 196.085999 234.6048 
L 197.277246 231.662965 
L 197.87287 231.662965 
L 198.468493 235.372235 
L 199.064117 234.348988 
L 199.65974 235.883859 
L 200.255364 231.662965 
L 200.850987 235.628047 
L 201.446611 231.535059 
L 202.637858 232.686212 
L 203.233482 235.116424 
L 203.829105 234.476894 
L 204.424729 232.942024 
L 205.020352 235.755953 
L 205.615976 237.290824 
L 206.211599 235.116424 
L 206.807223 236.395482 
L 207.402846 234.093176 
L 207.99847 230.767624 
L 208.594094 232.942024 
L 209.189717 233.453647 
L 209.785341 232.174588 
L 210.380964 234.093176 
L 210.976588 231.790871 
L 211.572211 231.535059 
L 212.167835 230.767624 
L 212.763458 229.744376 
L 213.359082 229.104847 
L 213.954706 221.302588 
L 214.550329 217.465412 
L 215.145953 207.616659 
L 215.741576 195.849318 
L 216.932823 161.058918 
L 217.528447 139.314918 
L 218.12407 128.187106 
L 219.315318 98.385035 
L 219.910941 98.512941 
L 220.506565 102.478024 
L 221.697812 159.524047 
L 223.484682 215.418918 
L 224.080306 224.756047 
L 224.67593 227.314165 
L 225.271553 231.790871 
L 225.867177 232.942024 
L 227.058424 232.302494 
L 227.654047 233.325741 
L 228.249671 233.709459 
L 228.845294 233.325741 
L 229.440918 231.151341 
L 230.036542 231.279247 
L 231.227789 217.977035 
L 232.419036 173.593694 
L 233.014659 166.942588 
L 233.610283 166.430965 
L 234.205906 189.965647 
L 234.80153 208.895718 
L 235.397154 223.349082 
L 235.992777 227.569976 
L 237.184024 232.942024 
L 237.779648 233.453647 
L 238.375271 232.686212 
L 238.970895 235.244329 
L 239.566518 232.814118 
L 240.162142 235.116424 
L 240.757766 232.686212 
L 241.353389 235.244329 
L 241.949013 232.174588 
L 242.544636 231.279247 
L 243.14026 231.407153 
L 244.92713 234.093176 
L 245.522754 231.279247 
L 246.714001 234.348988 
L 247.309625 232.302494 
L 247.905248 226.546729 
L 248.500872 204.419012 
L 249.096495 163.361224 
L 249.692119 151.593882 
L 250.287742 173.7216 
L 250.883366 213.372424 
L 251.47899 228.849035 
L 252.074613 232.558306 
L 252.670237 231.151341 
L 253.26586 232.942024 
L 253.861484 233.069929 
L 254.457107 229.744376 
L 255.052731 232.686212 
L 255.648354 232.558306 
L 256.243978 231.790871 
L 256.839601 230.767624 
L 257.435225 234.221082 
L 258.030849 234.732706 
L 258.626472 234.221082 
L 259.222096 231.918776 
L 259.817719 234.988518 
L 261.60459 232.046682 
L 262.200213 233.453647 
L 262.795837 234.348988 
L 263.391461 236.011765 
L 263.987084 232.174588 
L 264.582708 234.988518 
L 265.178331 230.767624 
L 265.773955 230.895529 
L 266.369578 232.302494 
L 266.965202 234.860612 
L 267.560825 232.814118 
L 268.156449 233.325741 
L 268.752073 231.151341 
L 269.347696 233.837365 
L 269.94332 233.453647 
L 271.134567 233.453647 
L 271.73019 233.965271 
L 272.325814 234.860612 
L 272.921437 236.267576 
L 273.517061 232.942024 
L 274.112685 237.162918 
L 274.708308 233.069929 
L 275.303932 233.709459 
L 275.899555 233.709459 
L 276.495179 233.069929 
L 277.090802 234.476894 
L 277.686426 233.453647 
L 278.877673 228.0816 
L 280.06892 165.663529 
L 280.664544 184.081976 
L 281.260167 221.430494 
L 281.855791 231.407153 
L 282.451414 235.116424 
L 283.047038 232.942024 
L 283.642661 232.4304 
L 284.238285 232.4304 
L 284.833909 234.093176 
L 285.429532 231.918776 
L 286.025156 233.325741 
L 286.620779 234.221082 
L 287.216403 234.860612 
L 287.812026 235.116424 
L 289.003273 232.558306 
L 289.598897 232.4304 
L 290.194521 231.535059 
L 290.790144 234.348988 
L 291.385768 232.558306 
L 291.981391 235.883859 
L 292.577015 231.662965 
L 293.172638 232.046682 
L 293.768262 230.639718 
L 294.363885 230.383906 
L 294.959509 234.476894 
L 295.555133 235.372235 
L 296.150756 230.511812 
L 296.74638 233.197835 
L 297.342003 232.942024 
L 297.937627 230.383906 
L 298.53325 231.023435 
L 299.128874 234.093176 
L 299.724497 235.372235 
L 300.320121 233.453647 
L 300.915745 232.814118 
L 301.511368 233.709459 
L 302.106992 232.174588 
L 302.702615 233.837365 
L 303.298239 233.581553 
L 303.893862 233.965271 
L 304.489486 235.116424 
L 305.085109 237.035012 
L 305.680733 232.686212 
L 306.276357 234.221082 
L 306.87198 234.6048 
L 307.467604 232.558306 
L 308.063227 231.790871 
L 309.254474 234.6048 
L 309.850098 232.558306 
L 310.445721 236.011765 
L 311.041345 234.221082 
L 311.636969 235.116424 
L 312.232592 234.093176 
L 312.828216 231.790871 
L 313.423839 231.023435 
L 314.019463 233.453647 
L 314.615086 232.814118 
L 315.806333 234.6048 
L 316.401957 234.221082 
L 316.997581 232.174588 
L 317.593204 232.942024 
L 318.188828 232.686212 
L 318.784451 236.011765 
L 319.380075 235.500141 
L 319.975698 232.558306 
L 320.571322 234.988518 
L 321.166945 232.302494 
L 322.358192 234.6048 
L 322.953816 233.709459 
L 323.54944 234.6048 
L 324.145063 230.895529 
L 324.740687 234.988518 
L 325.931934 234.093176 
L 326.527557 232.174588 
L 327.123181 235.628047 
L 327.718804 232.686212 
L 328.314428 233.197835 
L 328.910052 235.244329 
L 329.505675 234.988518 
L 330.101299 231.279247 
L 330.696922 232.046682 
L 331.292546 234.6048 
L 331.888169 231.407153 
L 332.483793 233.709459 
L 333.079416 232.174588 
L 333.67504 234.6048 
L 334.270664 232.174588 
L 334.866287 230.895529 
L 335.461911 232.942024 
L 336.057534 231.407153 
L 336.653158 232.046682 
L 337.248781 234.093176 
L 337.844405 230.511812 
L 338.440028 231.790871 
L 339.035652 232.302494 
L 339.631276 231.662965 
L 340.226899 235.116424 
L 340.822523 236.267576 
L 341.418146 234.6048 
L 342.01377 233.581553 
L 342.609393 233.325741 
L 343.205017 234.348988 
L 343.80064 234.732706 
L 344.396264 233.069929 
L 344.991888 233.837365 
L 345.587511 232.814118 
L 346.183135 231.023435 
L 346.778758 233.453647 
L 347.374382 234.988518 
L 347.970005 235.244329 
L 348.565629 234.732706 
L 349.161252 230.000188 
L 349.756876 232.046682 
L 350.3525 232.942024 
L 350.948123 232.686212 
L 351.543747 232.046682 
L 352.13937 233.453647 
L 352.734994 233.069929 
L 353.330617 233.325741 
L 353.926241 233.069929 
L 354.521864 234.988518 
L 355.117488 232.174588 
L 355.713112 230.256 
L 356.308735 234.221082 
L 356.904359 234.860612 
L 357.499982 234.348988 
L 358.095606 234.476894 
L 358.691229 231.407153 
L 359.286853 232.942024 
L 359.882476 233.325741 
L 360.4781 232.942024 
L 361.073724 231.279247 
L 361.669347 228.337412 
L 362.264971 233.837365 
L 362.860594 234.221082 
L 364.051841 233.581553 
L 364.647465 231.407153 
L 365.243088 235.116424 
L 365.838712 235.116424 
L 366.434336 237.418729 
L 367.029959 233.453647 
L 367.625583 232.4304 
L 368.221206 231.918776 
L 368.81683 232.046682 
L 369.412453 230.895529 
L 370.008077 233.325741 
L 370.6037 233.709459 
L 371.199324 235.372235 
L 371.794948 232.4304 
L 372.390571 232.174588 
L 372.986195 233.325741 
L 373.581818 233.965271 
L 373.581818 233.965271 
" clip-path="url(#p768a02bbd4)" style="fill: none; stroke: #1f77b4; stroke-width: 1.5; stroke-linecap: square"/>
   </g>
   <g id="line2d_32">
    <path d="M 69.218182 178.837835 
L 69.813805 183.570353 
L 70.409429 184.5936 
L 71.005052 179.221553 
L 71.600676 183.314541 
L 72.1963 188.558682 
L 72.791923 186.000565 
L 73.387547 180.884329 
L 74.578794 186.256376 
L 75.174417 179.861082 
L 75.770041 183.570353 
L 76.365664 186.128471 
L 77.556912 180.116894 
L 78.748159 185.616847 
L 79.343782 188.302871 
L 79.939406 178.709929 
L 80.535029 184.337788 
L 81.130653 185.233129 
L 81.726276 184.465694 
L 82.3219 180.372706 
L 82.917524 180.628518 
L 83.513147 187.151718 
L 84.108771 178.709929 
L 84.704394 178.582024 
L 85.300018 182.802918 
L 85.895641 181.907576 
L 86.491265 182.163388 
L 87.086888 182.547106 
L 87.682512 184.337788 
L 88.278136 187.535435 
L 88.873759 183.954071 
L 89.469383 183.954071 
L 90.065006 185.616847 
L 90.66063 185.488941 
L 91.256253 182.675012 
L 91.851877 180.756424 
L 92.4475 185.105224 
L 93.043124 181.779671 
L 93.638748 181.140141 
L 94.234371 185.744753 
L 94.829995 182.675012 
L 95.425618 187.279624 
L 96.021242 183.314541 
L 96.616865 185.488941 
L 97.212489 188.174965 
L 97.808112 179.349459 
L 98.403736 178.326212 
L 98.99936 180.2448 
L 99.594983 181.012235 
L 100.190607 184.465694 
L 100.78623 185.361035 
L 101.381854 183.698259 
L 102.573101 182.291294 
L 103.168724 185.361035 
L 103.764348 179.605271 
L 104.359972 186.512188 
L 104.955595 187.279624 
L 105.551219 177.942494 
L 106.146842 181.012235 
L 106.742466 180.884329 
L 107.338089 182.035482 
L 107.933713 183.570353 
L 108.529336 182.930824 
L 109.12496 175.512282 
L 109.720584 174.616941 
L 110.316207 180.2448 
L 110.911831 180.884329 
L 111.507454 184.337788 
L 112.103078 180.884329 
L 112.698701 182.035482 
L 113.294325 184.849412 
L 113.889948 185.361035 
L 114.485572 178.326212 
L 115.081196 180.116894 
L 115.676819 176.535529 
L 116.272443 181.012235 
L 116.868066 179.349459 
L 117.46369 180.372706 
L 118.059313 181.012235 
L 118.654937 185.872659 
L 119.25056 179.861082 
L 119.846184 179.221553 
L 120.441808 185.233129 
L 121.037431 180.756424 
L 121.633055 178.198306 
L 122.228678 181.651765 
L 122.824302 183.826165 
L 123.419925 183.314541 
L 124.015549 184.337788 
L 124.611172 183.570353 
L 125.206796 182.291294 
L 125.802419 186.640094 
L 126.398043 189.198212 
L 126.993667 184.465694 
L 127.58929 178.582024 
L 128.780537 185.361035 
L 129.971784 179.733176 
L 130.567408 184.721506 
L 131.163031 182.675012 
L 131.758655 182.802918 
L 132.354279 184.721506 
L 132.949902 182.163388 
L 133.545526 182.675012 
L 134.141149 185.616847 
L 134.736773 180.756424 
L 135.332396 183.186635 
L 135.92802 180.628518 
L 136.523643 182.675012 
L 137.119267 183.570353 
L 137.714891 177.814588 
L 138.310514 181.651765 
L 138.906138 184.209882 
L 139.501761 184.081976 
L 140.097385 175.896 
L 140.693008 182.930824 
L 141.288632 184.465694 
L 141.884255 177.175059 
L 142.479879 181.523859 
L 143.075503 181.268047 
L 143.671126 181.395953 
L 144.26675 178.709929 
L 144.862373 179.477365 
L 145.457997 177.047153 
L 146.05362 182.291294 
L 146.649244 180.2448 
L 147.244867 185.105224 
L 147.840491 184.721506 
L 148.436115 183.570353 
L 149.031738 182.802918 
L 149.627362 182.675012 
L 150.222985 183.570353 
L 150.818609 177.942494 
L 151.414232 188.047059 
L 152.009856 177.175059 
L 152.605479 184.081976 
L 153.201103 181.907576 
L 153.796727 183.570353 
L 154.39235 192.395859 
L 154.987974 183.186635 
L 155.583597 181.779671 
L 156.179221 178.965741 
L 156.774844 182.930824 
L 157.370468 185.488941 
L 157.966091 184.977318 
L 158.561715 179.349459 
L 159.157339 188.174965 
L 159.752962 183.314541 
L 160.348586 181.523859 
L 160.944209 181.907576 
L 161.539833 183.570353 
L 162.135456 186.256376 
L 162.73108 179.477365 
L 163.326703 187.663341 
L 163.922327 183.186635 
L 164.517951 180.756424 
L 165.113574 182.802918 
L 165.709198 186.768 
L 166.304821 183.186635 
L 166.900445 182.547106 
L 168.091692 186.000565 
L 168.687315 178.198306 
L 169.282939 186.895906 
L 169.878563 183.186635 
L 170.474186 182.291294 
L 171.06981 178.965741 
L 171.665433 179.605271 
L 172.261057 183.186635 
L 172.85668 179.605271 
L 173.452304 186.256376 
L 174.643551 178.454118 
L 175.239175 179.221553 
L 175.834798 178.0704 
L 177.026045 157.733365 
L 177.621669 154.152 
L 178.217292 131.128941 
L 178.812916 121.791812 
L 179.408539 88.536282 
L 180.004163 87.257224 
L 180.599787 56.559812 
L 181.19541 41.339012 
L 181.791034 32.513506 
L 182.386657 44.152941 
L 182.982281 43.513412 
L 184.769151 128.187106 
L 185.364775 142.512565 
L 185.960399 162.210071 
L 186.556022 168.093741 
L 187.151646 182.675012 
L 187.747269 178.198306 
L 188.342893 181.268047 
L 188.938516 181.012235 
L 189.53414 176.919247 
L 190.129763 180.2448 
L 190.725387 186.640094 
L 191.32101 183.186635 
L 191.916634 184.721506 
L 192.512258 181.268047 
L 193.107881 172.442541 
L 194.299128 145.838118 
L 194.894752 121.408094 
L 195.490375 111.047718 
L 196.085999 112.582588 
L 196.681622 133.047529 
L 197.277246 148.140424 
L 197.87287 168.733271 
L 198.468493 181.651765 
L 199.064117 179.733176 
L 199.65974 178.837835 
L 200.255364 183.058729 
L 200.850987 183.826165 
L 201.446611 176.791341 
L 202.042234 185.488941 
L 202.637858 184.5936 
L 203.233482 180.2448 
L 203.829105 183.570353 
L 204.424729 183.442447 
L 205.020352 181.395953 
L 205.615976 184.081976 
L 206.211599 178.837835 
L 206.807223 185.233129 
L 207.402846 180.756424 
L 207.99847 186.000565 
L 208.594094 184.5936 
L 209.189717 182.675012 
L 209.785341 183.570353 
L 210.380964 178.837835 
L 210.976588 153.512471 
L 211.572211 107.082635 
L 212.167835 91.861835 
L 212.763458 120.129035 
L 213.359082 158.244988 
L 213.954706 180.2448 
L 214.550329 180.884329 
L 215.145953 180.116894 
L 215.741576 181.395953 
L 216.3372 185.105224 
L 216.932823 182.291294 
L 217.528447 182.802918 
L 218.12407 180.884329 
L 218.719694 184.209882 
L 219.315318 185.744753 
L 219.910941 179.093647 
L 220.506565 187.535435 
L 221.102188 181.140141 
L 221.697812 183.186635 
L 222.293435 180.628518 
L 222.889059 181.395953 
L 223.484682 183.314541 
L 224.080306 179.988988 
L 224.67593 183.954071 
L 225.271553 180.372706 
L 225.867177 179.221553 
L 226.4628 183.442447 
L 227.058424 183.826165 
L 228.249671 180.884329 
L 228.845294 178.454118 
L 229.440918 180.756424 
L 230.036542 180.500612 
L 230.632165 184.849412 
L 231.227789 185.361035 
L 231.823412 181.268047 
L 232.419036 186.000565 
L 233.014659 181.140141 
L 233.610283 186.512188 
L 234.205906 182.675012 
L 234.80153 179.733176 
L 235.397154 180.2448 
L 235.992777 172.826259 
L 236.588401 182.035482 
L 237.184024 187.663341 
L 237.779648 183.570353 
L 238.375271 185.233129 
L 238.970895 181.012235 
L 239.566518 182.547106 
L 240.162142 183.442447 
L 240.757766 185.233129 
L 241.353389 177.047153 
L 242.544636 102.733835 
L 243.14026 132.663812 
L 243.735883 169.116988 
L 244.331507 179.605271 
L 244.92713 185.872659 
L 245.522754 180.2448 
L 246.118378 181.779671 
L 246.714001 191.500518 
L 247.905248 183.698259 
L 248.500872 184.465694 
L 249.096495 183.570353 
L 249.692119 185.616847 
L 250.287742 182.163388 
L 250.883366 182.163388 
L 251.47899 187.279624 
L 252.074613 176.023906 
L 252.670237 178.326212 
L 253.26586 186.768 
L 253.861484 185.488941 
L 254.457107 180.116894 
L 255.052731 183.826165 
L 255.648354 180.628518 
L 256.243978 181.779671 
L 256.839601 180.628518 
L 257.435225 185.872659 
L 258.030849 182.291294 
L 258.626472 183.826165 
L 259.222096 181.523859 
L 259.817719 181.268047 
L 260.413343 177.302965 
L 261.008966 181.523859 
L 261.60459 183.570353 
L 262.200213 178.326212 
L 262.795837 182.547106 
L 263.391461 180.2448 
L 263.987084 183.442447 
L 264.582708 188.686588 
L 265.178331 182.675012 
L 265.773955 180.500612 
L 266.369578 184.977318 
L 266.965202 184.209882 
L 267.560825 177.942494 
L 268.156449 180.500612 
L 268.752073 181.140141 
L 269.347696 182.675012 
L 269.94332 177.814588 
L 270.538943 188.9424 
L 272.325814 178.582024 
L 272.921437 179.988988 
L 273.517061 184.721506 
L 274.112685 182.930824 
L 274.708308 176.791341 
L 275.303932 176.279718 
L 275.899555 180.500612 
L 276.495179 185.872659 
L 277.090802 177.175059 
L 277.686426 183.570353 
L 278.877673 183.314541 
L 279.473297 180.884329 
L 280.06892 182.291294 
L 280.664544 182.4192 
L 281.260167 187.663341 
L 281.855791 181.012235 
L 282.451414 188.047059 
L 283.047038 181.779671 
L 283.642661 183.698259 
L 284.238285 181.268047 
L 284.833909 182.163388 
L 285.429532 183.442447 
L 286.025156 182.675012 
L 286.620779 184.977318 
L 287.216403 180.116894 
L 287.812026 188.558682 
L 288.40765 186.384282 
L 289.003273 182.163388 
L 289.598897 183.314541 
L 290.194521 187.023812 
L 290.790144 189.709835 
L 291.385768 187.279624 
L 291.981391 183.442447 
L 292.577015 180.500612 
L 293.172638 182.035482 
L 293.768262 181.907576 
L 294.363885 187.407529 
L 294.959509 180.628518 
L 295.555133 187.023812 
L 296.150756 181.651765 
L 296.74638 181.651765 
L 297.342003 189.198212 
L 297.937627 182.163388 
L 298.53325 181.779671 
L 299.128874 182.675012 
L 299.724497 184.081976 
L 300.320121 177.942494 
L 300.915745 180.2448 
L 301.511368 184.209882 
L 302.106992 180.628518 
L 302.702615 186.512188 
L 303.298239 183.698259 
L 303.893862 179.349459 
L 304.489486 189.581929 
L 305.085109 184.849412 
L 305.680733 183.442447 
L 306.276357 183.314541 
L 306.87198 184.337788 
L 307.467604 177.686682 
L 308.063227 178.0704 
L 308.658851 181.779671 
L 309.254474 180.884329 
L 309.850098 185.105224 
L 310.445721 182.4192 
L 311.041345 184.849412 
L 311.636969 178.837835 
L 312.232592 186.384282 
L 312.828216 184.5936 
L 313.423839 184.977318 
L 314.019463 185.744753 
L 314.615086 179.733176 
L 315.21071 181.523859 
L 315.806333 184.081976 
L 316.401957 183.314541 
L 316.997581 185.361035 
L 317.593204 185.872659 
L 318.188828 183.570353 
L 318.784451 182.547106 
L 319.380075 188.174965 
L 319.975698 183.314541 
L 320.571322 183.826165 
L 321.166945 178.326212 
L 321.762569 184.721506 
L 322.358192 181.651765 
L 322.953816 181.268047 
L 323.54944 186.128471 
L 324.145063 183.570353 
L 324.740687 181.779671 
L 325.33631 177.430871 
L 325.931934 183.186635 
L 326.527557 185.105224 
L 327.123181 178.198306 
L 327.718804 184.849412 
L 328.314428 182.035482 
L 328.910052 178.0704 
L 329.505675 187.279624 
L 330.101299 183.186635 
L 330.696922 183.186635 
L 331.292546 180.2448 
L 331.888169 182.547106 
L 332.483793 183.058729 
L 333.079416 183.186635 
L 333.67504 182.291294 
L 334.270664 182.930824 
L 334.866287 180.628518 
L 336.057534 183.442447 
L 336.653158 180.884329 
L 337.248781 181.651765 
L 337.844405 186.256376 
L 338.440028 181.907576 
L 339.035652 185.616847 
L 339.631276 183.826165 
L 340.226899 186.256376 
L 340.822523 180.628518 
L 341.418146 181.012235 
L 342.01377 178.709929 
L 342.609393 181.779671 
L 343.205017 182.547106 
L 343.80064 175.896 
L 344.396264 181.012235 
L 344.991888 181.779671 
L 345.587511 180.116894 
L 346.183135 182.802918 
L 346.778758 178.454118 
L 347.374382 182.802918 
L 347.970005 185.872659 
L 348.565629 183.186635 
L 349.161252 183.954071 
L 349.756876 180.628518 
L 350.3525 178.0704 
L 350.948123 182.035482 
L 351.543747 184.5936 
L 352.13937 183.570353 
L 352.734994 181.140141 
L 353.330617 182.163388 
L 353.926241 191.500518 
L 354.521864 184.465694 
L 355.117488 184.849412 
L 355.713112 181.651765 
L 356.308735 181.907576 
L 356.904359 183.442447 
L 358.095606 179.605271 
L 358.691229 183.058729 
L 359.286853 187.791247 
L 359.882476 186.640094 
L 361.073724 180.2448 
L 361.669347 181.907576 
L 362.264971 185.616847 
L 362.860594 182.802918 
L 363.456218 185.872659 
L 364.647465 178.0704 
L 365.243088 184.081976 
L 365.838712 186.512188 
L 366.434336 183.570353 
L 367.029959 181.395953 
L 367.625583 178.582024 
L 368.221206 180.372706 
L 368.81683 184.977318 
L 369.412453 185.616847 
L 370.008077 179.733176 
L 370.6037 183.186635 
L 371.199324 178.582024 
L 371.794948 181.651765 
L 372.390571 185.872659 
L 372.986195 183.698259 
L 373.581818 179.733176 
L 373.581818 179.733176 
" clip-path="url(#p768a02bbd4)" style="fill: none; stroke: #ff7f0e; stroke-width: 1.5; stroke-linecap: square"/>
   </g>
   <g id="line2d_33">
    <path d="M 69.218182 216.442165 
L 69.813805 214.395671 
L 70.409429 213.372424 
L 71.005052 213.628235 
L 71.600676 217.977035 
L 72.1963 216.314259 
L 72.791923 212.8608 
L 73.387547 214.779388 
L 73.98317 214.907294 
L 74.578794 214.523576 
L 75.174417 218.104941 
L 75.770041 216.825882 
L 76.365664 210.174776 
L 76.961288 216.442165 
L 77.556912 214.011953 
L 78.152535 218.104941 
L 78.748159 214.011953 
L 79.343782 215.674729 
L 79.939406 213.372424 
L 80.535029 217.081694 
L 81.130653 219.639812 
L 81.726276 212.732894 
L 82.3219 213.628235 
L 82.917524 216.697976 
L 83.513147 214.395671 
L 84.108771 216.570071 
L 84.704394 210.6864 
L 85.300018 210.174776 
L 85.895641 215.546824 
L 86.491265 215.163106 
L 87.086888 214.011953 
L 87.682512 215.930541 
L 88.278136 214.395671 
L 88.873759 210.430588 
L 89.469383 215.546824 
L 90.065006 217.2096 
L 90.66063 212.093365 
L 91.256253 214.267765 
L 91.851877 215.163106 
L 92.4475 208.895718 
L 93.043124 218.104941 
L 93.638748 216.825882 
L 94.234371 215.163106 
L 94.829995 212.604988 
L 95.425618 216.825882 
L 96.021242 216.697976 
L 96.616865 215.802635 
L 97.212489 213.244518 
L 97.808112 215.674729 
L 98.403736 215.0352 
L 98.99936 215.930541 
L 99.594983 215.802635 
L 100.190607 215.930541 
L 100.78623 214.779388 
L 101.381854 216.570071 
L 101.977477 214.395671 
L 102.573101 213.244518 
L 103.764348 213.884047 
L 104.359972 210.558494 
L 105.551219 214.011953 
L 106.146842 215.0352 
L 106.742466 216.953788 
L 107.338089 208.128282 
L 107.933713 215.418918 
L 108.529336 215.930541 
L 109.12496 212.604988 
L 109.720584 211.070118 
L 110.316207 216.442165 
L 110.911831 213.884047 
L 111.507454 211.837553 
L 112.103078 215.291012 
L 112.698701 217.721224 
L 113.294325 215.291012 
L 113.889948 216.442165 
L 114.485572 215.0352 
L 115.081196 214.267765 
L 115.676819 215.0352 
L 116.272443 213.628235 
L 116.868066 214.011953 
L 117.46369 218.872376 
L 118.059313 214.139859 
L 118.654937 214.651482 
L 119.25056 215.418918 
L 119.846184 218.232847 
L 120.441808 217.721224 
L 121.037431 214.139859 
L 121.633055 214.395671 
L 122.228678 214.139859 
L 122.824302 215.291012 
L 123.419925 210.046871 
L 124.015549 215.0352 
L 124.611172 212.988706 
L 125.206796 213.884047 
L 125.802419 216.058447 
L 126.398043 212.732894 
L 126.993667 213.116612 
L 127.58929 218.488659 
L 128.780537 211.709647 
L 129.376161 215.0352 
L 129.971784 216.058447 
L 130.567408 213.244518 
L 131.163031 212.988706 
L 131.758655 215.0352 
L 132.354279 215.291012 
L 132.949902 216.186353 
L 133.545526 213.756141 
L 134.141149 215.674729 
L 134.736773 215.674729 
L 135.332396 215.418918 
L 135.92802 214.011953 
L 136.523643 215.674729 
L 137.119267 216.697976 
L 137.714891 214.011953 
L 138.310514 215.546824 
L 138.906138 216.058447 
L 139.501761 215.930541 
L 140.097385 216.314259 
L 140.693008 213.372424 
L 141.288632 215.674729 
L 141.884255 216.058447 
L 142.479879 212.093365 
L 143.075503 213.884047 
L 143.671126 214.779388 
L 144.26675 214.651482 
L 144.862373 213.756141 
L 145.457997 214.523576 
L 146.05362 213.884047 
L 146.649244 214.523576 
L 147.244867 211.325929 
L 148.436115 215.418918 
L 149.031738 214.395671 
L 149.627362 215.802635 
L 150.222985 213.372424 
L 150.818609 217.081694 
L 151.414232 214.779388 
L 152.009856 215.291012 
L 152.605479 217.337506 
L 153.201103 212.988706 
L 153.796727 217.465412 
L 154.39235 212.093365 
L 154.987974 214.651482 
L 155.583597 213.116612 
L 156.774844 211.709647 
L 157.370468 213.116612 
L 157.966091 217.081694 
L 158.561715 213.756141 
L 159.157339 215.418918 
L 159.752962 216.697976 
L 160.348586 219.128188 
L 160.944209 215.291012 
L 161.539833 205.953882 
L 162.135456 212.988706 
L 162.73108 214.779388 
L 163.326703 217.465412 
L 163.922327 215.291012 
L 164.517951 218.104941 
L 165.113574 217.465412 
L 165.709198 214.779388 
L 166.304821 213.372424 
L 166.900445 212.732894 
L 167.496068 214.011953 
L 168.091692 215.802635 
L 168.687315 215.0352 
L 169.282939 213.756141 
L 169.878563 214.523576 
L 170.474186 217.2096 
L 171.06981 212.988706 
L 171.665433 211.581741 
L 172.261057 217.465412 
L 172.85668 213.628235 
L 173.452304 215.418918 
L 174.047927 212.604988 
L 174.643551 210.942212 
L 175.239175 214.651482 
L 175.834798 215.546824 
L 176.430422 214.779388 
L 177.026045 210.942212 
L 177.621669 216.953788 
L 178.217292 215.802635 
L 178.812916 214.907294 
L 179.408539 217.337506 
L 180.004163 214.139859 
L 180.599787 217.977035 
L 181.19541 214.267765 
L 181.791034 216.314259 
L 182.386657 214.395671 
L 182.982281 210.174776 
L 183.577904 214.907294 
L 184.173528 213.244518 
L 184.769151 215.0352 
L 185.364775 214.523576 
L 185.960399 218.744471 
L 186.556022 215.930541 
L 187.151646 211.965459 
L 187.747269 215.418918 
L 188.342893 211.581741 
L 188.938516 208.639906 
L 189.53414 211.070118 
L 190.129763 209.663153 
L 190.725387 205.186447 
L 191.32101 197.64 
L 191.916634 194.058635 
L 193.107881 169.756518 
L 193.703505 160.931012 
L 194.299128 154.791529 
L 194.894752 145.582306 
L 195.490375 133.942871 
L 196.085999 135.989365 
L 197.277246 155.814776 
L 197.87287 172.698353 
L 198.468493 184.721506 
L 199.064117 199.302776 
L 199.65974 201.9888 
L 200.850987 214.139859 
L 201.446611 211.837553 
L 202.042234 215.163106 
L 202.637858 215.802635 
L 203.233482 214.779388 
L 203.829105 216.186353 
L 204.424729 213.116612 
L 205.020352 215.674729 
L 205.615976 212.093365 
L 206.211599 210.302682 
L 206.807223 211.070118 
L 209.189717 176.919247 
L 209.785341 172.826259 
L 210.976588 201.093459 
L 211.572211 210.814306 
L 212.167835 215.0352 
L 212.763458 216.058447 
L 213.359082 217.593318 
L 213.954706 217.465412 
L 214.550329 212.604988 
L 215.145953 217.849129 
L 215.741576 220.023529 
L 216.3372 215.0352 
L 216.932823 212.604988 
L 217.528447 211.837553 
L 218.12407 213.372424 
L 218.719694 214.395671 
L 219.315318 214.267765 
L 219.910941 214.267765 
L 220.506565 214.139859 
L 221.102188 211.709647 
L 221.697812 213.244518 
L 222.293435 214.267765 
L 222.889059 214.011953 
L 223.484682 215.163106 
L 224.080306 210.558494 
L 224.67593 201.093459 
L 225.271553 174.233224 
L 225.867177 163.489129 
L 227.058424 200.198118 
L 227.654047 212.349176 
L 228.249671 216.058447 
L 228.845294 216.442165 
L 229.440918 215.546824 
L 230.036542 214.139859 
L 230.632165 211.325929 
L 231.227789 214.395671 
L 231.823412 215.546824 
L 232.419036 215.674729 
L 233.014659 214.139859 
L 233.610283 219.384 
L 234.205906 217.593318 
L 234.80153 218.744471 
L 235.397154 214.651482 
L 235.992777 213.884047 
L 236.588401 214.523576 
L 237.184024 212.604988 
L 237.779648 213.116612 
L 238.375271 216.442165 
L 238.970895 214.779388 
L 239.566518 216.953788 
L 240.162142 213.756141 
L 240.757766 213.500329 
L 241.353389 214.139859 
L 241.949013 216.825882 
L 242.544636 215.546824 
L 243.14026 212.221271 
L 243.735883 213.116612 
L 244.331507 216.697976 
L 244.92713 215.163106 
L 245.522754 215.674729 
L 246.118378 214.011953 
L 246.714001 213.628235 
L 247.309625 217.465412 
L 247.905248 212.732894 
L 248.500872 214.651482 
L 249.096495 214.267765 
L 249.692119 206.977129 
L 250.287742 214.011953 
L 250.883366 213.756141 
L 251.47899 215.418918 
L 252.074613 213.116612 
L 252.670237 214.907294 
L 253.26586 213.244518 
L 253.861484 214.907294 
L 254.457107 212.988706 
L 255.052731 211.837553 
L 255.648354 195.4656 
L 256.243978 173.977412 
L 258.030849 214.523576 
L 258.626472 216.570071 
L 259.222096 215.291012 
L 259.817719 217.337506 
L 260.413343 214.139859 
L 261.008966 216.570071 
L 261.60459 214.139859 
L 262.200213 216.442165 
L 262.795837 211.965459 
L 263.987084 217.593318 
L 264.582708 216.825882 
L 265.178331 215.163106 
L 265.773955 214.139859 
L 266.369578 214.267765 
L 266.965202 213.116612 
L 267.560825 213.756141 
L 268.156449 214.907294 
L 268.752073 213.628235 
L 269.347696 213.244518 
L 269.94332 219.895624 
L 270.538943 215.291012 
L 271.134567 214.139859 
L 271.73019 211.965459 
L 272.325814 212.732894 
L 272.921437 214.651482 
L 273.517061 213.372424 
L 274.112685 212.604988 
L 274.708308 215.291012 
L 275.303932 213.372424 
L 275.899555 218.232847 
L 276.495179 214.011953 
L 277.090802 208.256188 
L 277.686426 214.523576 
L 278.282049 213.244518 
L 279.473297 219.511906 
L 280.06892 213.884047 
L 280.664544 214.139859 
L 281.260167 214.523576 
L 281.855791 218.104941 
L 282.451414 213.756141 
L 283.047038 214.651482 
L 283.642661 216.825882 
L 284.833909 211.965459 
L 285.429532 213.756141 
L 286.025156 212.477082 
L 286.620779 215.163106 
L 287.216403 213.628235 
L 287.812026 216.570071 
L 288.40765 214.395671 
L 289.003273 217.977035 
L 289.598897 214.779388 
L 290.194521 214.139859 
L 290.790144 212.221271 
L 291.385768 217.977035 
L 291.981391 213.500329 
L 292.577015 216.186353 
L 293.172638 213.756141 
L 293.768262 213.884047 
L 294.363885 215.418918 
L 294.959509 216.314259 
L 295.555133 218.616565 
L 296.150756 213.756141 
L 297.342003 217.337506 
L 297.937627 216.186353 
L 298.53325 213.500329 
L 299.128874 211.709647 
L 299.724497 215.802635 
L 300.915745 214.907294 
L 301.511368 215.930541 
L 302.106992 217.337506 
L 302.702615 217.721224 
L 303.298239 219.767718 
L 303.893862 216.697976 
L 304.489486 214.651482 
L 305.085109 217.849129 
L 305.680733 215.930541 
L 306.276357 216.314259 
L 306.87198 215.0352 
L 307.467604 211.709647 
L 308.063227 216.314259 
L 308.658851 212.988706 
L 309.254474 216.186353 
L 309.850098 214.907294 
L 310.445721 211.198024 
L 311.041345 218.616565 
L 311.636969 216.058447 
L 312.232592 216.314259 
L 312.828216 214.267765 
L 313.423839 217.337506 
L 314.019463 212.221271 
L 314.615086 212.988706 
L 315.21071 216.570071 
L 315.806333 215.674729 
L 316.401957 212.604988 
L 316.997581 212.604988 
L 317.593204 214.523576 
L 318.188828 218.744471 
L 318.784451 211.581741 
L 319.380075 212.732894 
L 319.975698 212.221271 
L 320.571322 217.465412 
L 321.166945 213.884047 
L 321.762569 217.593318 
L 322.358192 217.081694 
L 322.953816 213.116612 
L 323.54944 216.314259 
L 324.740687 213.500329 
L 325.33631 210.046871 
L 325.931934 212.732894 
L 326.527557 213.372424 
L 327.123181 216.058447 
L 327.718804 215.546824 
L 328.314428 218.488659 
L 328.910052 211.709647 
L 329.505675 214.651482 
L 330.101299 212.732894 
L 330.696922 215.291012 
L 331.292546 216.442165 
L 331.888169 219.000282 
L 332.483793 214.651482 
L 333.079416 214.523576 
L 333.67504 212.093365 
L 334.270664 212.8608 
L 334.866287 216.058447 
L 335.461911 211.453835 
L 336.057534 212.732894 
L 336.653158 218.360753 
L 337.248781 216.186353 
L 337.844405 215.802635 
L 338.440028 212.093365 
L 339.035652 213.756141 
L 339.631276 214.267765 
L 340.226899 213.116612 
L 340.822523 215.0352 
L 342.01377 210.6864 
L 342.609393 216.186353 
L 343.205017 213.884047 
L 343.80064 213.116612 
L 344.396264 214.779388 
L 344.991888 215.291012 
L 345.587511 212.477082 
L 346.183135 215.802635 
L 346.778758 216.697976 
L 347.374382 215.802635 
L 347.970005 214.139859 
L 348.565629 215.163106 
L 349.161252 214.139859 
L 349.756876 214.011953 
L 350.948123 212.988706 
L 351.543747 217.465412 
L 352.13937 216.825882 
L 352.734994 212.093365 
L 353.330617 214.523576 
L 353.926241 217.465412 
L 354.521864 213.756141 
L 355.117488 214.779388 
L 355.713112 214.651482 
L 356.308735 218.360753 
L 356.904359 212.221271 
L 357.499982 215.0352 
L 358.095606 209.023624 
L 358.691229 213.628235 
L 359.286853 213.884047 
L 359.882476 215.674729 
L 360.4781 213.500329 
L 361.073724 213.116612 
L 361.669347 216.186353 
L 362.264971 213.756141 
L 362.860594 213.628235 
L 363.456218 214.523576 
L 364.051841 216.186353 
L 364.647465 211.581741 
L 365.243088 213.244518 
L 365.838712 213.756141 
L 366.434336 213.884047 
L 367.029959 213.628235 
L 367.625583 215.0352 
L 368.221206 211.325929 
L 368.81683 212.988706 
L 369.412453 212.732894 
L 370.008077 215.163106 
L 370.6037 214.139859 
L 371.199324 213.628235 
L 371.794948 213.756141 
L 372.390571 214.011953 
L 372.986195 214.395671 
L 373.581818 214.011953 
L 373.581818 214.011953 
" clip-path="url(#p768a02bbd4)" style="fill: none; stroke: #2ca02c; stroke-width: 1.5; stroke-linecap: square"/>
   </g>
   <g id="patch_3">
    <path d="M 54 252 
L 54 34.56 
" style="fill: none; stroke: #000000; stroke-width: 0.8; stroke-linejoin: miter; stroke-linecap: square"/>
   </g>
   <g id="patch_4">
    <path d="M 388.8 252 
L 388.8 34.56 
" style="fill: none; stroke: #000000; stroke-width: 0.8; stroke-linejoin: miter; stroke-linecap: square"/>
   </g>
   <g id="patch_5">
    <path d="M 54 252 
L 388.8 252 
" style="fill: none; stroke: #000000; stroke-width: 0.8; stroke-linejoin: miter; stroke-linecap: square"/>
   </g>
   <g id="patch_6">
    <path d="M 54 34.56 
L 388.8 34.56 
" style="fill: none; stroke: #000000; stroke-width: 0.8; stroke-linejoin: miter; stroke-linecap: square"/>
   </g>
   <g id="text_18">
    <!-- Label 0 -->
    <g transform="translate(199.487813 28.56)scale(0.12 -0.12)">
     <defs>
      <path id="DejaVuSans-4c" d="M 628 4666 
L 1259 4666 
L 1259 531 
L 3531 531 
L 3531 0 
L 628 0 
L 628 4666 
z
" transform="scale(0.015625)"/>
      <path id="DejaVuSans-61" d="M 2194 1759 
Q 1497 1759 1228 1600 
Q 959 1441 959 1056 
Q 959 750 1161 570 
Q 1363 391 1709 391 
Q 2188 391 2477 730 
Q 2766 1069 2766 1631 
L 2766 1759 
L 2194 1759 
z
M 3341 1997 
L 3341 0 
L 2766 0 
L 2766 531 
Q 2569 213 2275 61 
Q 1981 -91 1556 -91 
Q 1019 -91 701 211 
Q 384 513 384 1019 
Q 384 1609 779 1909 
Q 1175 2209 1959 2209 
L 2766 2209 
L 2766 2266 
Q 2766 2663 2505 2880 
Q 2244 3097 1772 3097 
Q 1472 3097 1187 3025 
Q 903 2953 641 2809 
L 641 3341 
Q 956 3463 1253 3523 
Q 1550 3584 1831 3584 
Q 2591 3584 2966 3190 
Q 3341 2797 3341 1997 
z
" transform="scale(0.015625)"/>
      <path id="DejaVuSans-65" d="M 3597 1894 
L 3597 1613 
L 953 1613 
Q 991 1019 1311 708 
Q 1631 397 2203 397 
Q 2534 397 2845 478 
Q 3156 559 3463 722 
L 3463 178 
Q 3153 47 2828 -22 
Q 2503 -91 2169 -91 
Q 1331 -91 842 396 
Q 353 884 353 1716 
Q 353 2575 817 3079 
Q 1281 3584 2069 3584 
Q 2775 3584 3186 3129 
Q 3597 2675 3597 1894 
z
M 3022 2063 
Q 3016 2534 2758 2815 
Q 2500 3097 2075 3097 
Q 1594 3097 1305 2825 
Q 1016 2553 972 2059 
L 3022 2063 
z
" transform="scale(0.015625)"/>
      <path id="DejaVuSans-6c" d="M 603 4863 
L 1178 4863 
L 1178 0 
L 603 0 
L 603 4863 
z
" transform="scale(0.015625)"/>
      <path id="DejaVuSans-20" transform="scale(0.015625)"/>
     </defs>
     <use xlink:href="#DejaVuSans-4c"/>
     <use xlink:href="#DejaVuSans-61" x="55.712891"/>
     <use xlink:href="#DejaVuSans-62" x="116.992188"/>
     <use xlink:href="#DejaVuSans-65" x="180.46875"/>
     <use xlink:href="#DejaVuSans-6c" x="241.992188"/>
     <use xlink:href="#DejaVuSans-20" x="269.775391"/>
     <use xlink:href="#DejaVuSans-30" x="301.5625"/>
    </g>
   </g>
   <g id="legend_1">
    <g id="patch_7">
     <path d="M 309.070312 101.2725 
L 381.8 101.2725 
Q 383.8 101.2725 383.8 99.2725 
L 383.8 41.56 
Q 383.8 39.56 381.8 39.56 
L 309.070312 39.56 
Q 307.070312 39.56 307.070312 41.56 
L 307.070312 99.2725 
Q 307.070312 101.2725 309.070312 101.2725 
z
" style="fill: #ffffff; opacity: 0.8; stroke: #cccccc; stroke-linejoin: miter"/>
    </g>
    <g id="text_19">
     <!-- Trace number -->
     <g transform="translate(311.070312 51.158437)scale(0.1 -0.1)">
      <defs>
       <path id="DejaVuSans-54" d="M -19 4666 
L 3928 4666 
L 3928 4134 
L 2272 4134 
L 2272 0 
L 1638 0 
L 1638 4134 
L -19 4134 
L -19 4666 
z
" transform="scale(0.015625)"/>
       <path id="DejaVuSans-72" d="M 2631 2963 
Q 2534 3019 2420 3045 
Q 2306 3072 2169 3072 
Q 1681 3072 1420 2755 
Q 1159 2438 1159 1844 
L 1159 0 
L 581 0 
L 581 3500 
L 1159 3500 
L 1159 2956 
Q 1341 3275 1631 3429 
Q 1922 3584 2338 3584 
Q 2397 3584 2469 3576 
Q 2541 3569 2628 3553 
L 2631 2963 
z
" transform="scale(0.015625)"/>
       <path id="DejaVuSans-6d" d="M 3328 2828 
Q 3544 3216 3844 3400 
Q 4144 3584 4550 3584 
Q 5097 3584 5394 3201 
Q 5691 2819 5691 2113 
L 5691 0 
L 5113 0 
L 5113 2094 
Q 5113 2597 4934 2840 
Q 4756 3084 4391 3084 
Q 3944 3084 3684 2787 
Q 3425 2491 3425 1978 
L 3425 0 
L 2847 0 
L 2847 2094 
Q 2847 2600 2669 2842 
Q 2491 3084 2119 3084 
Q 1678 3084 1418 2786 
Q 1159 2488 1159 1978 
L 1159 0 
L 581 0 
L 581 3500 
L 1159 3500 
L 1159 2956 
Q 1356 3278 1631 3431 
Q 1906 3584 2284 3584 
Q 2666 3584 2933 3390 
Q 3200 3197 3328 2828 
z
" transform="scale(0.015625)"/>
      </defs>
      <use xlink:href="#DejaVuSans-54"/>
      <use xlink:href="#DejaVuSans-72" x="46.333984"/>
      <use xlink:href="#DejaVuSans-61" x="87.447266"/>
      <use xlink:href="#DejaVuSans-63" x="148.726562"/>
      <use xlink:href="#DejaVuSans-65" x="203.707031"/>
      <use xlink:href="#DejaVuSans-20" x="265.230469"/>
      <use xlink:href="#DejaVuSans-6e" x="297.017578"/>
      <use xlink:href="#DejaVuSans-75" x="360.396484"/>
      <use xlink:href="#DejaVuSans-6d" x="423.775391"/>
      <use xlink:href="#DejaVuSans-62" x="521.1875"/>
      <use xlink:href="#DejaVuSans-65" x="584.664062"/>
      <use xlink:href="#DejaVuSans-72" x="646.1875"/>
     </g>
    </g>
    <g id="line2d_34">
     <path d="M 328.253906 62.336562 
L 338.253906 62.336562 
L 348.253906 62.336562 
" style="fill: none; stroke: #1f77b4; stroke-width: 1.5; stroke-linecap: square"/>
    </g>
    <g id="text_20">
     <!-- 2 -->
     <g transform="translate(356.253906 65.836562)scale(0.1 -0.1)">
      <use xlink:href="#DejaVuSans-32"/>
     </g>
    </g>
    <g id="line2d_35">
     <path d="M 328.253906 77.014687 
L 338.253906 77.014687 
L 348.253906 77.014687 
" style="fill: none; stroke: #ff7f0e; stroke-width: 1.5; stroke-linecap: square"/>
    </g>
    <g id="text_21">
     <!-- 5 -->
     <g transform="translate(356.253906 80.514687)scale(0.1 -0.1)">
      <use xlink:href="#DejaVuSans-35"/>
     </g>
    </g>
    <g id="line2d_36">
     <path d="M 328.253906 91.692813 
L 338.253906 91.692813 
L 348.253906 91.692813 
" style="fill: none; stroke: #2ca02c; stroke-width: 1.5; stroke-linecap: square"/>
    </g>
    <g id="text_22">
     <!-- 7 -->
     <g transform="translate(356.253906 95.192813)scale(0.1 -0.1)">
      <defs>
       <path id="DejaVuSans-37" d="M 525 4666 
L 3525 4666 
L 3525 4397 
L 1831 0 
L 1172 0 
L 2766 4134 
L 525 4134 
L 525 4666 
z
" transform="scale(0.015625)"/>
      </defs>
      <use xlink:href="#DejaVuSans-37"/>
     </g>
    </g>
   </g>
  </g>
 </g>
 <defs>
  <clipPath id="p768a02bbd4">
   <rect x="54" y="34.56" width="334.8" height="217.44"/>
  </clipPath>
 </defs>
</svg>
