<?xml version="1.0" encoding="utf-8" standalone="no"?>
<!DOCTYPE svg PUBLIC "-//W3C//DTD SVG 1.1//EN"
  "http://www.w3.org/Graphics/SVG/1.1/DTD/svg11.dtd">
<svg xmlns:xlink="http://www.w3.org/1999/xlink" width="432pt" height="288pt" viewBox="0 0 432 288" xmlns="http://www.w3.org/2000/svg" version="1.1">
 <metadata>
  <rdf:RDF xmlns:dc="http://purl.org/dc/elements/1.1/" xmlns:cc="http://creativecommons.org/ns#" xmlns:rdf="http://www.w3.org/1999/02/22-rdf-syntax-ns#">
   <cc:Work>
    <dc:type rdf:resource="http://purl.org/dc/dcmitype/StillImage"/>
    <dc:date>2022-03-30T13:12:47.871305</dc:date>
    <dc:format>image/svg+xml</dc:format>
    <dc:creator>
     <cc:Agent>
      <dc:title>Matplotlib v3.5.1, https://matplotlib.org/</dc:title>
     </cc:Agent>
    </dc:creator>
   </cc:Work>
  </rdf:RDF>
 </metadata>
 <defs>
  <style type="text/css">*{stroke-linejoin: round; stroke-linecap: butt}</style>
 </defs>
 <g id="figure_1">
  <g id="patch_1">
   <path d="M 0 288 
L 432 288 
L 432 0 
L 0 0 
z
" style="fill: #ffffff"/>
  </g>
  <g id="axes_1">
   <g id="patch_2">
    <path d="M 54 252 
L 388.8 252 
L 388.8 34.56 
L 54 34.56 
z
" style="fill: #ffffff"/>
   </g>
   <g id="matplotlib.axis_1">
    <g id="xtick_1">
     <g id="line2d_1">
      <path d="M 69.218182 252 
L 69.218182 34.56 
" clip-path="url(#pb3b1324a99)" style="fill: none; stroke: #b0b0b0; stroke-width: 0.8; stroke-linecap: square"/>
     </g>
     <g id="line2d_2">
      <defs>
       <path id="m4bdbcb40a6" d="M 0 0 
L 0 3.5 
" style="stroke: #000000; stroke-width: 0.8"/>
      </defs>
      <g>
       <use xlink:href="#m4bdbcb40a6" x="69.218182" y="252" style="stroke: #000000; stroke-width: 0.8"/>
      </g>
     </g>
     <g id="text_1">
      <!-- 0 -->
      <g transform="translate(66.036932 266.598437)scale(0.1 -0.1)">
       <defs>
        <path id="DejaVuSans-30" d="M 2034 4250 
Q 1547 4250 1301 3770 
Q 1056 3291 1056 2328 
Q 1056 1369 1301 889 
Q 1547 409 2034 409 
Q 2525 409 2770 889 
Q 3016 1369 3016 2328 
Q 3016 3291 2770 3770 
Q 2525 4250 2034 4250 
z
M 2034 4750 
Q 2819 4750 3233 4129 
Q 3647 3509 3647 2328 
Q 3647 1150 3233 529 
Q 2819 -91 2034 -91 
Q 1250 -91 836 529 
Q 422 1150 422 2328 
Q 422 3509 836 4129 
Q 1250 4750 2034 4750 
z
" transform="scale(0.015625)"/>
       </defs>
       <use xlink:href="#DejaVuSans-30"/>
      </g>
     </g>
    </g>
    <g id="xtick_2">
     <g id="line2d_3">
      <path d="M 128.780537 252 
L 128.780537 34.56 
" clip-path="url(#pb3b1324a99)" style="fill: none; stroke: #b0b0b0; stroke-width: 0.8; stroke-linecap: square"/>
     </g>
     <g id="line2d_4">
      <g>
       <use xlink:href="#m4bdbcb40a6" x="128.780537" y="252" style="stroke: #000000; stroke-width: 0.8"/>
      </g>
     </g>
     <g id="text_2">
      <!-- 100 -->
      <g transform="translate(119.236787 266.598437)scale(0.1 -0.1)">
       <defs>
        <path id="DejaVuSans-31" d="M 794 531 
L 1825 531 
L 1825 4091 
L 703 3866 
L 703 4441 
L 1819 4666 
L 2450 4666 
L 2450 531 
L 3481 531 
L 3481 0 
L 794 0 
L 794 531 
z
" transform="scale(0.015625)"/>
       </defs>
       <use xlink:href="#DejaVuSans-31"/>
       <use xlink:href="#DejaVuSans-30" x="63.623047"/>
       <use xlink:href="#DejaVuSans-30" x="127.246094"/>
      </g>
     </g>
    </g>
    <g id="xtick_3">
     <g id="line2d_5">
      <path d="M 188.342893 252 
L 188.342893 34.56 
" clip-path="url(#pb3b1324a99)" style="fill: none; stroke: #b0b0b0; stroke-width: 0.8; stroke-linecap: square"/>
     </g>
     <g id="line2d_6">
      <g>
       <use xlink:href="#m4bdbcb40a6" x="188.342893" y="252" style="stroke: #000000; stroke-width: 0.8"/>
      </g>
     </g>
     <g id="text_3">
      <!-- 200 -->
      <g transform="translate(178.799143 266.598437)scale(0.1 -0.1)">
       <defs>
        <path id="DejaVuSans-32" d="M 1228 531 
L 3431 531 
L 3431 0 
L 469 0 
L 469 531 
Q 828 903 1448 1529 
Q 2069 2156 2228 2338 
Q 2531 2678 2651 2914 
Q 2772 3150 2772 3378 
Q 2772 3750 2511 3984 
Q 2250 4219 1831 4219 
Q 1534 4219 1204 4116 
Q 875 4013 500 3803 
L 500 4441 
Q 881 4594 1212 4672 
Q 1544 4750 1819 4750 
Q 2544 4750 2975 4387 
Q 3406 4025 3406 3419 
Q 3406 3131 3298 2873 
Q 3191 2616 2906 2266 
Q 2828 2175 2409 1742 
Q 1991 1309 1228 531 
z
" transform="scale(0.015625)"/>
       </defs>
       <use xlink:href="#DejaVuSans-32"/>
       <use xlink:href="#DejaVuSans-30" x="63.623047"/>
       <use xlink:href="#DejaVuSans-30" x="127.246094"/>
      </g>
     </g>
    </g>
    <g id="xtick_4">
     <g id="line2d_7">
      <path d="M 247.905248 252 
L 247.905248 34.56 
" clip-path="url(#pb3b1324a99)" style="fill: none; stroke: #b0b0b0; stroke-width: 0.8; stroke-linecap: square"/>
     </g>
     <g id="line2d_8">
      <g>
       <use xlink:href="#m4bdbcb40a6" x="247.905248" y="252" style="stroke: #000000; stroke-width: 0.8"/>
      </g>
     </g>
     <g id="text_4">
      <!-- 300 -->
      <g transform="translate(238.361498 266.598437)scale(0.1 -0.1)">
       <defs>
        <path id="DejaVuSans-33" d="M 2597 2516 
Q 3050 2419 3304 2112 
Q 3559 1806 3559 1356 
Q 3559 666 3084 287 
Q 2609 -91 1734 -91 
Q 1441 -91 1130 -33 
Q 819 25 488 141 
L 488 750 
Q 750 597 1062 519 
Q 1375 441 1716 441 
Q 2309 441 2620 675 
Q 2931 909 2931 1356 
Q 2931 1769 2642 2001 
Q 2353 2234 1838 2234 
L 1294 2234 
L 1294 2753 
L 1863 2753 
Q 2328 2753 2575 2939 
Q 2822 3125 2822 3475 
Q 2822 3834 2567 4026 
Q 2313 4219 1838 4219 
Q 1578 4219 1281 4162 
Q 984 4106 628 3988 
L 628 4550 
Q 988 4650 1302 4700 
Q 1616 4750 1894 4750 
Q 2613 4750 3031 4423 
Q 3450 4097 3450 3541 
Q 3450 3153 3228 2886 
Q 3006 2619 2597 2516 
z
" transform="scale(0.015625)"/>
       </defs>
       <use xlink:href="#DejaVuSans-33"/>
       <use xlink:href="#DejaVuSans-30" x="63.623047"/>
       <use xlink:href="#DejaVuSans-30" x="127.246094"/>
      </g>
     </g>
    </g>
    <g id="xtick_5">
     <g id="line2d_9">
      <path d="M 307.467604 252 
L 307.467604 34.56 
" clip-path="url(#pb3b1324a99)" style="fill: none; stroke: #b0b0b0; stroke-width: 0.8; stroke-linecap: square"/>
     </g>
     <g id="line2d_10">
      <g>
       <use xlink:href="#m4bdbcb40a6" x="307.467604" y="252" style="stroke: #000000; stroke-width: 0.8"/>
      </g>
     </g>
     <g id="text_5">
      <!-- 400 -->
      <g transform="translate(297.923854 266.598437)scale(0.1 -0.1)">
       <defs>
        <path id="DejaVuSans-34" d="M 2419 4116 
L 825 1625 
L 2419 1625 
L 2419 4116 
z
M 2253 4666 
L 3047 4666 
L 3047 1625 
L 3713 1625 
L 3713 1100 
L 3047 1100 
L 3047 0 
L 2419 0 
L 2419 1100 
L 313 1100 
L 313 1709 
L 2253 4666 
z
" transform="scale(0.015625)"/>
       </defs>
       <use xlink:href="#DejaVuSans-34"/>
       <use xlink:href="#DejaVuSans-30" x="63.623047"/>
       <use xlink:href="#DejaVuSans-30" x="127.246094"/>
      </g>
     </g>
    </g>
    <g id="xtick_6">
     <g id="line2d_11">
      <path d="M 367.029959 252 
L 367.029959 34.56 
" clip-path="url(#pb3b1324a99)" style="fill: none; stroke: #b0b0b0; stroke-width: 0.8; stroke-linecap: square"/>
     </g>
     <g id="line2d_12">
      <g>
       <use xlink:href="#m4bdbcb40a6" x="367.029959" y="252" style="stroke: #000000; stroke-width: 0.8"/>
      </g>
     </g>
     <g id="text_6">
      <!-- 500 -->
      <g transform="translate(357.486209 266.598437)scale(0.1 -0.1)">
       <defs>
        <path id="DejaVuSans-35" d="M 691 4666 
L 3169 4666 
L 3169 4134 
L 1269 4134 
L 1269 2991 
Q 1406 3038 1543 3061 
Q 1681 3084 1819 3084 
Q 2600 3084 3056 2656 
Q 3513 2228 3513 1497 
Q 3513 744 3044 326 
Q 2575 -91 1722 -91 
Q 1428 -91 1123 -41 
Q 819 9 494 109 
L 494 744 
Q 775 591 1075 516 
Q 1375 441 1709 441 
Q 2250 441 2565 725 
Q 2881 1009 2881 1497 
Q 2881 1984 2565 2268 
Q 2250 2553 1709 2553 
Q 1456 2553 1204 2497 
Q 953 2441 691 2322 
L 691 4666 
z
" transform="scale(0.015625)"/>
       </defs>
       <use xlink:href="#DejaVuSans-35"/>
       <use xlink:href="#DejaVuSans-30" x="63.623047"/>
       <use xlink:href="#DejaVuSans-30" x="127.246094"/>
      </g>
     </g>
    </g>
    <g id="text_7">
     <!-- bin -->
     <g transform="translate(213.667969 280.276563)scale(0.1 -0.1)">
      <defs>
       <path id="DejaVuSans-62" d="M 3116 1747 
Q 3116 2381 2855 2742 
Q 2594 3103 2138 3103 
Q 1681 3103 1420 2742 
Q 1159 2381 1159 1747 
Q 1159 1113 1420 752 
Q 1681 391 2138 391 
Q 2594 391 2855 752 
Q 3116 1113 3116 1747 
z
M 1159 2969 
Q 1341 3281 1617 3432 
Q 1894 3584 2278 3584 
Q 2916 3584 3314 3078 
Q 3713 2572 3713 1747 
Q 3713 922 3314 415 
Q 2916 -91 2278 -91 
Q 1894 -91 1617 61 
Q 1341 213 1159 525 
L 1159 0 
L 581 0 
L 581 4863 
L 1159 4863 
L 1159 2969 
z
" transform="scale(0.015625)"/>
       <path id="DejaVuSans-69" d="M 603 3500 
L 1178 3500 
L 1178 0 
L 603 0 
L 603 3500 
z
M 603 4863 
L 1178 4863 
L 1178 4134 
L 603 4134 
L 603 4863 
z
" transform="scale(0.015625)"/>
       <path id="DejaVuSans-6e" d="M 3513 2113 
L 3513 0 
L 2938 0 
L 2938 2094 
Q 2938 2591 2744 2837 
Q 2550 3084 2163 3084 
Q 1697 3084 1428 2787 
Q 1159 2491 1159 1978 
L 1159 0 
L 581 0 
L 581 3500 
L 1159 3500 
L 1159 2956 
Q 1366 3272 1645 3428 
Q 1925 3584 2291 3584 
Q 2894 3584 3203 3211 
Q 3513 2838 3513 2113 
z
" transform="scale(0.015625)"/>
      </defs>
      <use xlink:href="#DejaVuSans-62"/>
      <use xlink:href="#DejaVuSans-69" x="63.476562"/>
      <use xlink:href="#DejaVuSans-6e" x="91.259766"/>
     </g>
    </g>
   </g>
   <g id="matplotlib.axis_2">
    <g id="ytick_1">
     <g id="line2d_13">
      <path d="M 54 252 
L 388.8 252 
" clip-path="url(#pb3b1324a99)" style="fill: none; stroke: #b0b0b0; stroke-width: 0.8; stroke-linecap: square"/>
     </g>
     <g id="line2d_14">
      <defs>
       <path id="m0a0590a90e" d="M 0 0 
L -3.5 0 
" style="stroke: #000000; stroke-width: 0.8"/>
      </defs>
      <g>
       <use xlink:href="#m0a0590a90e" x="54" y="252" style="stroke: #000000; stroke-width: 0.8"/>
      </g>
     </g>
     <g id="text_8">
      <!-- 0 -->
      <g transform="translate(40.6375 255.799219)scale(0.1 -0.1)">
       <use xlink:href="#DejaVuSans-30"/>
      </g>
     </g>
    </g>
    <g id="ytick_2">
     <g id="line2d_15">
      <path d="M 54 226.418824 
L 388.8 226.418824 
" clip-path="url(#pb3b1324a99)" style="fill: none; stroke: #b0b0b0; stroke-width: 0.8; stroke-linecap: square"/>
     </g>
     <g id="line2d_16">
      <g>
       <use xlink:href="#m0a0590a90e" x="54" y="226.418824" style="stroke: #000000; stroke-width: 0.8"/>
      </g>
     </g>
     <g id="text_9">
      <!-- 200 -->
      <g transform="translate(27.9125 230.218042)scale(0.1 -0.1)">
       <use xlink:href="#DejaVuSans-32"/>
       <use xlink:href="#DejaVuSans-30" x="63.623047"/>
       <use xlink:href="#DejaVuSans-30" x="127.246094"/>
      </g>
     </g>
    </g>
    <g id="ytick_3">
     <g id="line2d_17">
      <path d="M 54 200.837647 
L 388.8 200.837647 
" clip-path="url(#pb3b1324a99)" style="fill: none; stroke: #b0b0b0; stroke-width: 0.8; stroke-linecap: square"/>
     </g>
     <g id="line2d_18">
      <g>
       <use xlink:href="#m0a0590a90e" x="54" y="200.837647" style="stroke: #000000; stroke-width: 0.8"/>
      </g>
     </g>
     <g id="text_10">
      <!-- 400 -->
      <g transform="translate(27.9125 204.636866)scale(0.1 -0.1)">
       <use xlink:href="#DejaVuSans-34"/>
       <use xlink:href="#DejaVuSans-30" x="63.623047"/>
       <use xlink:href="#DejaVuSans-30" x="127.246094"/>
      </g>
     </g>
    </g>
    <g id="ytick_4">
     <g id="line2d_19">
      <path d="M 54 175.256471 
L 388.8 175.256471 
" clip-path="url(#pb3b1324a99)" style="fill: none; stroke: #b0b0b0; stroke-width: 0.8; stroke-linecap: square"/>
     </g>
     <g id="line2d_20">
      <g>
       <use xlink:href="#m0a0590a90e" x="54" y="175.256471" style="stroke: #000000; stroke-width: 0.8"/>
      </g>
     </g>
     <g id="text_11">
      <!-- 600 -->
      <g transform="translate(27.9125 179.055689)scale(0.1 -0.1)">
       <defs>
        <path id="DejaVuSans-36" d="M 2113 2584 
Q 1688 2584 1439 2293 
Q 1191 2003 1191 1497 
Q 1191 994 1439 701 
Q 1688 409 2113 409 
Q 2538 409 2786 701 
Q 3034 994 3034 1497 
Q 3034 2003 2786 2293 
Q 2538 2584 2113 2584 
z
M 3366 4563 
L 3366 3988 
Q 3128 4100 2886 4159 
Q 2644 4219 2406 4219 
Q 1781 4219 1451 3797 
Q 1122 3375 1075 2522 
Q 1259 2794 1537 2939 
Q 1816 3084 2150 3084 
Q 2853 3084 3261 2657 
Q 3669 2231 3669 1497 
Q 3669 778 3244 343 
Q 2819 -91 2113 -91 
Q 1303 -91 875 529 
Q 447 1150 447 2328 
Q 447 3434 972 4092 
Q 1497 4750 2381 4750 
Q 2619 4750 2861 4703 
Q 3103 4656 3366 4563 
z
" transform="scale(0.015625)"/>
       </defs>
       <use xlink:href="#DejaVuSans-36"/>
       <use xlink:href="#DejaVuSans-30" x="63.623047"/>
       <use xlink:href="#DejaVuSans-30" x="127.246094"/>
      </g>
     </g>
    </g>
    <g id="ytick_5">
     <g id="line2d_21">
      <path d="M 54 149.675294 
L 388.8 149.675294 
" clip-path="url(#pb3b1324a99)" style="fill: none; stroke: #b0b0b0; stroke-width: 0.8; stroke-linecap: square"/>
     </g>
     <g id="line2d_22">
      <g>
       <use xlink:href="#m0a0590a90e" x="54" y="149.675294" style="stroke: #000000; stroke-width: 0.8"/>
      </g>
     </g>
     <g id="text_12">
      <!-- 800 -->
      <g transform="translate(27.9125 153.474513)scale(0.1 -0.1)">
       <defs>
        <path id="DejaVuSans-38" d="M 2034 2216 
Q 1584 2216 1326 1975 
Q 1069 1734 1069 1313 
Q 1069 891 1326 650 
Q 1584 409 2034 409 
Q 2484 409 2743 651 
Q 3003 894 3003 1313 
Q 3003 1734 2745 1975 
Q 2488 2216 2034 2216 
z
M 1403 2484 
Q 997 2584 770 2862 
Q 544 3141 544 3541 
Q 544 4100 942 4425 
Q 1341 4750 2034 4750 
Q 2731 4750 3128 4425 
Q 3525 4100 3525 3541 
Q 3525 3141 3298 2862 
Q 3072 2584 2669 2484 
Q 3125 2378 3379 2068 
Q 3634 1759 3634 1313 
Q 3634 634 3220 271 
Q 2806 -91 2034 -91 
Q 1263 -91 848 271 
Q 434 634 434 1313 
Q 434 1759 690 2068 
Q 947 2378 1403 2484 
z
M 1172 3481 
Q 1172 3119 1398 2916 
Q 1625 2713 2034 2713 
Q 2441 2713 2670 2916 
Q 2900 3119 2900 3481 
Q 2900 3844 2670 4047 
Q 2441 4250 2034 4250 
Q 1625 4250 1398 4047 
Q 1172 3844 1172 3481 
z
" transform="scale(0.015625)"/>
       </defs>
       <use xlink:href="#DejaVuSans-38"/>
       <use xlink:href="#DejaVuSans-30" x="63.623047"/>
       <use xlink:href="#DejaVuSans-30" x="127.246094"/>
      </g>
     </g>
    </g>
    <g id="ytick_6">
     <g id="line2d_23">
      <path d="M 54 124.094118 
L 388.8 124.094118 
" clip-path="url(#pb3b1324a99)" style="fill: none; stroke: #b0b0b0; stroke-width: 0.8; stroke-linecap: square"/>
     </g>
     <g id="line2d_24">
      <g>
       <use xlink:href="#m0a0590a90e" x="54" y="124.094118" style="stroke: #000000; stroke-width: 0.8"/>
      </g>
     </g>
     <g id="text_13">
      <!-- 1000 -->
      <g transform="translate(21.55 127.893336)scale(0.1 -0.1)">
       <use xlink:href="#DejaVuSans-31"/>
       <use xlink:href="#DejaVuSans-30" x="63.623047"/>
       <use xlink:href="#DejaVuSans-30" x="127.246094"/>
       <use xlink:href="#DejaVuSans-30" x="190.869141"/>
      </g>
     </g>
    </g>
    <g id="ytick_7">
     <g id="line2d_25">
      <path d="M 54 98.512941 
L 388.8 98.512941 
" clip-path="url(#pb3b1324a99)" style="fill: none; stroke: #b0b0b0; stroke-width: 0.8; stroke-linecap: square"/>
     </g>
     <g id="line2d_26">
      <g>
       <use xlink:href="#m0a0590a90e" x="54" y="98.512941" style="stroke: #000000; stroke-width: 0.8"/>
      </g>
     </g>
     <g id="text_14">
      <!-- 1200 -->
      <g transform="translate(21.55 102.31216)scale(0.1 -0.1)">
       <use xlink:href="#DejaVuSans-31"/>
       <use xlink:href="#DejaVuSans-32" x="63.623047"/>
       <use xlink:href="#DejaVuSans-30" x="127.246094"/>
       <use xlink:href="#DejaVuSans-30" x="190.869141"/>
      </g>
     </g>
    </g>
    <g id="ytick_8">
     <g id="line2d_27">
      <path d="M 54 72.931765 
L 388.8 72.931765 
" clip-path="url(#pb3b1324a99)" style="fill: none; stroke: #b0b0b0; stroke-width: 0.8; stroke-linecap: square"/>
     </g>
     <g id="line2d_28">
      <g>
       <use xlink:href="#m0a0590a90e" x="54" y="72.931765" style="stroke: #000000; stroke-width: 0.8"/>
      </g>
     </g>
     <g id="text_15">
      <!-- 1400 -->
      <g transform="translate(21.55 76.730983)scale(0.1 -0.1)">
       <use xlink:href="#DejaVuSans-31"/>
       <use xlink:href="#DejaVuSans-34" x="63.623047"/>
       <use xlink:href="#DejaVuSans-30" x="127.246094"/>
       <use xlink:href="#DejaVuSans-30" x="190.869141"/>
      </g>
     </g>
    </g>
    <g id="ytick_9">
     <g id="line2d_29">
      <path d="M 54 47.350588 
L 388.8 47.350588 
" clip-path="url(#pb3b1324a99)" style="fill: none; stroke: #b0b0b0; stroke-width: 0.8; stroke-linecap: square"/>
     </g>
     <g id="line2d_30">
      <g>
       <use xlink:href="#m0a0590a90e" x="54" y="47.350588" style="stroke: #000000; stroke-width: 0.8"/>
      </g>
     </g>
     <g id="text_16">
      <!-- 1600 -->
      <g transform="translate(21.55 51.149807)scale(0.1 -0.1)">
       <use xlink:href="#DejaVuSans-31"/>
       <use xlink:href="#DejaVuSans-36" x="63.623047"/>
       <use xlink:href="#DejaVuSans-30" x="127.246094"/>
       <use xlink:href="#DejaVuSans-30" x="190.869141"/>
      </g>
     </g>
    </g>
    <g id="text_17">
     <!-- count -->
     <g transform="translate(15.470312 157.38625)rotate(-90)scale(0.1 -0.1)">
      <defs>
       <path id="DejaVuSans-63" d="M 3122 3366 
L 3122 2828 
Q 2878 2963 2633 3030 
Q 2388 3097 2138 3097 
Q 1578 3097 1268 2742 
Q 959 2388 959 1747 
Q 959 1106 1268 751 
Q 1578 397 2138 397 
Q 2388 397 2633 464 
Q 2878 531 3122 666 
L 3122 134 
Q 2881 22 2623 -34 
Q 2366 -91 2075 -91 
Q 1284 -91 818 406 
Q 353 903 353 1747 
Q 353 2603 823 3093 
Q 1294 3584 2113 3584 
Q 2378 3584 2631 3529 
Q 2884 3475 3122 3366 
z
" transform="scale(0.015625)"/>
       <path id="DejaVuSans-6f" d="M 1959 3097 
Q 1497 3097 1228 2736 
Q 959 2375 959 1747 
Q 959 1119 1226 758 
Q 1494 397 1959 397 
Q 2419 397 2687 759 
Q 2956 1122 2956 1747 
Q 2956 2369 2687 2733 
Q 2419 3097 1959 3097 
z
M 1959 3584 
Q 2709 3584 3137 3096 
Q 3566 2609 3566 1747 
Q 3566 888 3137 398 
Q 2709 -91 1959 -91 
Q 1206 -91 779 398 
Q 353 888 353 1747 
Q 353 2609 779 3096 
Q 1206 3584 1959 3584 
z
" transform="scale(0.015625)"/>
       <path id="DejaVuSans-75" d="M 544 1381 
L 544 3500 
L 1119 3500 
L 1119 1403 
Q 1119 906 1312 657 
Q 1506 409 1894 409 
Q 2359 409 2629 706 
Q 2900 1003 2900 1516 
L 2900 3500 
L 3475 3500 
L 3475 0 
L 2900 0 
L 2900 538 
Q 2691 219 2414 64 
Q 2138 -91 1772 -91 
Q 1169 -91 856 284 
Q 544 659 544 1381 
z
M 1991 3584 
L 1991 3584 
z
" transform="scale(0.015625)"/>
       <path id="DejaVuSans-74" d="M 1172 4494 
L 1172 3500 
L 2356 3500 
L 2356 3053 
L 1172 3053 
L 1172 1153 
Q 1172 725 1289 603 
Q 1406 481 1766 481 
L 2356 481 
L 2356 0 
L 1766 0 
Q 1100 0 847 248 
Q 594 497 594 1153 
L 594 3053 
L 172 3053 
L 172 3500 
L 594 3500 
L 594 4494 
L 1172 4494 
z
" transform="scale(0.015625)"/>
      </defs>
      <use xlink:href="#DejaVuSans-63"/>
      <use xlink:href="#DejaVuSans-6f" x="54.980469"/>
      <use xlink:href="#DejaVuSans-75" x="116.162109"/>
      <use xlink:href="#DejaVuSans-6e" x="179.541016"/>
      <use xlink:href="#DejaVuSans-74" x="242.919922"/>
     </g>
    </g>
   </g>
   <g id="line2d_31">
    <path d="M 69.218182 206.081788 
L 69.813805 209.791059 
L 70.409429 204.802729 
L 71.005052 205.442259 
L 71.600676 207.616659 
L 72.1963 206.849224 
L 73.387547 207.488753 
L 73.98317 205.698071 
L 74.578794 208.639906 
L 75.174417 208.639906 
L 75.770041 210.558494 
L 76.365664 207.360847 
L 76.961288 213.244518 
L 77.556912 211.709647 
L 78.152535 212.221271 
L 78.748159 210.302682 
L 79.343782 207.872471 
L 79.939406 210.046871 
L 80.535029 211.709647 
L 81.130653 211.325929 
L 81.726276 207.232941 
L 82.3219 205.825976 
L 82.917524 210.558494 
L 84.108771 205.186447 
L 84.704394 204.035294 
L 85.300018 211.070118 
L 85.895641 209.151529 
L 86.491265 205.698071 
L 87.086888 205.570165 
L 87.682512 214.011953 
L 88.278136 210.174776 
L 88.873759 204.674824 
L 89.469383 209.791059 
L 90.66063 206.081788 
L 91.256253 207.232941 
L 91.851877 209.791059 
L 92.4475 206.721318 
L 93.043124 211.198024 
L 93.638748 207.744565 
L 94.234371 210.174776 
L 94.829995 211.325929 
L 95.425618 209.407341 
L 96.021242 203.779482 
L 96.616865 204.546918 
L 97.212489 206.209694 
L 97.808112 209.023624 
L 98.403736 207.105035 
L 98.99936 207.872471 
L 99.594983 209.151529 
L 100.190607 213.500329 
L 100.78623 209.279435 
L 101.381854 208.000376 
L 101.977477 202.756235 
L 102.573101 212.477082 
L 103.168724 207.232941 
L 103.764348 208.767812 
L 104.359972 212.093365 
L 104.955595 207.105035 
L 105.551219 205.698071 
L 106.146842 208.128282 
L 106.742466 207.616659 
L 107.338089 210.174776 
L 107.933713 206.209694 
L 108.529336 210.046871 
L 109.12496 207.105035 
L 109.720584 212.732894 
L 110.316207 206.3376 
L 110.911831 210.814306 
L 111.507454 207.232941 
L 112.103078 208.895718 
L 112.698701 207.744565 
L 113.294325 209.023624 
L 113.889948 211.198024 
L 114.485572 207.744565 
L 115.081196 209.151529 
L 115.676819 209.918965 
L 116.272443 208.128282 
L 116.868066 207.744565 
L 117.46369 211.581741 
L 118.059313 210.558494 
L 118.654937 209.918965 
L 119.25056 211.070118 
L 119.846184 210.814306 
L 120.441808 205.314353 
L 121.037431 208.128282 
L 121.633055 213.244518 
L 122.228678 209.791059 
L 122.824302 207.232941 
L 123.419925 208.895718 
L 124.015549 204.674824 
L 125.206796 212.093365 
L 125.802419 209.023624 
L 126.398043 208.639906 
L 126.993667 209.279435 
L 127.58929 205.698071 
L 128.184914 207.488753 
L 128.780537 208.128282 
L 129.376161 205.058541 
L 129.971784 206.081788 
L 130.567408 210.430588 
L 131.163031 211.709647 
L 131.758655 207.744565 
L 132.354279 210.942212 
L 132.949902 210.174776 
L 133.545526 210.046871 
L 134.141149 208.512 
L 134.736773 212.732894 
L 135.332396 209.918965 
L 135.92802 211.965459 
L 136.523643 211.070118 
L 137.119267 206.081788 
L 137.714891 210.174776 
L 138.310514 205.825976 
L 138.906138 208.639906 
L 139.501761 206.081788 
L 140.097385 209.663153 
L 140.693008 210.942212 
L 141.288632 209.918965 
L 142.479879 206.849224 
L 143.075503 209.023624 
L 143.671126 210.174776 
L 144.26675 208.128282 
L 144.862373 212.093365 
L 145.457997 211.325929 
L 146.05362 205.442259 
L 146.649244 205.570165 
L 147.244867 210.302682 
L 147.840491 208.256188 
L 148.436115 204.930635 
L 149.031738 209.151529 
L 149.627362 209.663153 
L 150.222985 205.058541 
L 152.009856 213.628235 
L 152.605479 211.325929 
L 153.201103 205.186447 
L 153.796727 213.500329 
L 154.39235 208.767812 
L 154.987974 209.151529 
L 156.179221 205.314353 
L 156.774844 205.442259 
L 157.370468 204.802729 
L 157.966091 204.930635 
L 158.561715 207.744565 
L 159.157339 208.000376 
L 159.752962 202.756235 
L 160.348586 206.849224 
L 160.944209 201.860894 
L 162.135456 209.407341 
L 162.73108 206.849224 
L 163.326703 210.558494 
L 163.922327 210.174776 
L 164.517951 210.046871 
L 165.113574 210.046871 
L 165.709198 205.186447 
L 166.304821 209.918965 
L 166.900445 208.639906 
L 167.496068 208.128282 
L 168.091692 206.849224 
L 168.687315 203.523671 
L 169.282939 207.232941 
L 169.878563 201.477176 
L 170.474186 206.465506 
L 171.06981 209.791059 
L 171.665433 208.895718 
L 172.261057 205.058541 
L 172.85668 209.023624 
L 173.452304 212.093365 
L 174.047927 207.488753 
L 174.643551 207.616659 
L 175.239175 208.767812 
L 175.834798 210.430588 
L 176.430422 209.918965 
L 177.026045 208.895718 
L 177.621669 209.151529 
L 178.217292 208.000376 
L 178.812916 203.651576 
L 179.408539 205.186447 
L 180.004163 205.314353 
L 180.599787 210.302682 
L 181.19541 206.209694 
L 181.791034 207.105035 
L 182.386657 210.6864 
L 182.982281 210.174776 
L 183.577904 207.488753 
L 184.173528 206.081788 
L 184.769151 209.535247 
L 185.364775 202.756235 
L 185.960399 208.128282 
L 186.556022 211.837553 
L 187.151646 207.744565 
L 187.747269 210.558494 
L 188.342893 208.512 
L 188.938516 209.151529 
L 189.53414 202.116706 
L 190.129763 211.198024 
L 190.725387 209.918965 
L 191.32101 203.651576 
L 191.916634 208.000376 
L 192.512258 207.744565 
L 193.107881 205.570165 
L 193.703505 209.279435 
L 194.299128 209.535247 
L 194.894752 208.000376 
L 195.490375 207.744565 
L 196.085999 206.593412 
L 196.681622 207.872471 
L 197.277246 202.884141 
L 197.87287 207.744565 
L 198.468493 204.546918 
L 199.064117 207.488753 
L 199.65974 211.325929 
L 200.255364 205.698071 
L 200.850987 211.965459 
L 201.446611 205.314353 
L 202.042234 206.465506 
L 202.637858 210.430588 
L 203.829105 205.698071 
L 204.424729 207.360847 
L 205.020352 205.442259 
L 205.615976 204.674824 
L 206.211599 204.930635 
L 206.807223 202.372518 
L 207.402846 202.500424 
L 207.99847 205.186447 
L 208.594094 209.407341 
L 209.189717 208.895718 
L 209.785341 207.488753 
L 210.380964 205.058541 
L 211.572211 208.128282 
L 212.167835 211.070118 
L 212.763458 208.000376 
L 213.359082 207.872471 
L 214.550329 210.046871 
L 215.145953 206.081788 
L 215.741576 210.814306 
L 216.3372 208.895718 
L 216.932823 207.488753 
L 217.528447 210.046871 
L 218.12407 207.360847 
L 218.719694 215.0352 
L 219.315318 205.442259 
L 219.910941 205.058541 
L 220.506565 205.953882 
L 221.102188 202.244612 
L 221.697812 202.884141 
L 222.293435 201.860894 
L 222.889059 202.884141 
L 223.484682 193.674918 
L 224.080306 199.942306 
L 224.67593 198.023718 
L 225.271553 197.767906 
L 225.867177 200.581835 
L 226.4628 196.744659 
L 227.058424 194.953976 
L 227.654047 200.709741 
L 228.249671 201.349271 
L 228.845294 197.767906 
L 229.440918 196.616753 
L 230.036542 198.663247 
L 230.632165 198.535341 
L 231.227789 195.337694 
L 231.823412 198.151624 
L 232.419036 196.233035 
L 233.014659 192.523765 
L 233.610283 193.419106 
L 234.205906 194.058635 
L 234.80153 189.070306 
L 235.397154 189.070306 
L 235.992777 162.593788 
L 236.588401 192.267953 
L 237.184024 193.802824 
L 237.779648 190.860988 
L 238.375271 206.593412 
L 238.970895 202.500424 
L 239.566518 201.860894 
L 240.162142 202.372518 
L 240.757766 210.046871 
L 241.353389 207.744565 
L 241.949013 206.081788 
L 243.14026 211.070118 
L 243.735883 208.512 
L 244.331507 208.512 
L 244.92713 208.000376 
L 245.522754 210.174776 
L 246.118378 207.105035 
L 246.714001 211.070118 
L 247.309625 204.1632 
L 247.905248 206.209694 
L 248.500872 206.977129 
L 249.692119 212.604988 
L 250.287742 208.767812 
L 250.883366 207.616659 
L 251.47899 207.360847 
L 252.074613 208.256188 
L 252.670237 206.593412 
L 253.26586 208.512 
L 253.861484 206.081788 
L 254.457107 209.023624 
L 255.052731 205.442259 
L 255.648354 204.674824 
L 256.243978 209.279435 
L 256.839601 208.000376 
L 257.435225 211.837553 
L 258.030849 208.000376 
L 258.626472 207.488753 
L 259.222096 209.023624 
L 259.817719 206.209694 
L 261.008966 209.791059 
L 261.60459 207.105035 
L 262.200213 206.977129 
L 262.795837 209.918965 
L 263.391461 210.942212 
L 263.987084 207.872471 
L 264.582708 209.535247 
L 265.178331 208.128282 
L 265.773955 208.639906 
L 266.369578 207.488753 
L 266.965202 209.791059 
L 267.560825 210.302682 
L 268.156449 204.930635 
L 268.752073 206.849224 
L 269.347696 205.058541 
L 269.94332 204.802729 
L 270.538943 208.512 
L 271.134567 207.105035 
L 271.73019 208.895718 
L 272.325814 206.3376 
L 272.921437 207.488753 
L 273.517061 204.291106 
L 274.112685 209.023624 
L 274.708308 212.221271 
L 275.303932 210.6864 
L 275.899555 210.046871 
L 276.495179 208.384094 
L 277.090802 208.384094 
L 277.686426 206.3376 
L 278.282049 210.558494 
L 278.877673 206.849224 
L 279.473297 205.825976 
L 280.06892 210.302682 
L 280.664544 211.325929 
L 281.260167 205.570165 
L 281.855791 207.616659 
L 282.451414 206.849224 
L 283.047038 210.174776 
L 283.642661 211.198024 
L 284.238285 202.884141 
L 284.833909 210.302682 
L 285.429532 207.488753 
L 286.025156 205.570165 
L 286.620779 211.198024 
L 287.216403 212.093365 
L 287.812026 208.639906 
L 288.40765 208.512 
L 289.003273 208.639906 
L 289.598897 209.023624 
L 290.194521 212.477082 
L 290.790144 209.535247 
L 291.385768 207.744565 
L 291.981391 206.465506 
L 292.577015 205.570165 
L 293.172638 208.895718 
L 293.768262 211.453835 
L 294.363885 209.407341 
L 294.959509 209.663153 
L 295.555133 205.698071 
L 296.150756 207.360847 
L 296.74638 214.395671 
L 297.342003 207.360847 
L 297.937627 209.279435 
L 298.53325 206.3376 
L 299.128874 206.977129 
L 299.724497 207.872471 
L 300.320121 204.1632 
L 300.915745 212.8608 
L 301.511368 210.6864 
L 302.106992 207.488753 
L 302.702615 206.3376 
L 303.298239 208.128282 
L 303.893862 209.151529 
L 304.489486 202.500424 
L 305.680733 210.814306 
L 306.276357 210.942212 
L 306.87198 199.302776 
L 308.063227 212.221271 
L 308.658851 206.465506 
L 309.254474 206.977129 
L 309.850098 208.384094 
L 310.445721 211.325929 
L 311.041345 210.430588 
L 311.636969 211.453835 
L 312.828216 202.628329 
L 313.423839 210.558494 
L 314.019463 209.407341 
L 314.615086 209.535247 
L 315.21071 205.314353 
L 315.806333 204.802729 
L 316.401957 209.918965 
L 316.997581 208.767812 
L 317.593204 208.256188 
L 318.188828 211.709647 
L 318.784451 212.732894 
L 319.380075 212.221271 
L 319.975698 208.000376 
L 320.571322 214.267765 
L 321.166945 208.000376 
L 321.762569 208.895718 
L 322.358192 206.209694 
L 322.953816 210.302682 
L 323.54944 208.767812 
L 324.145063 207.616659 
L 324.740687 207.744565 
L 325.33631 209.791059 
L 325.931934 210.174776 
L 326.527557 207.616659 
L 327.123181 208.639906 
L 327.718804 206.465506 
L 328.314428 211.198024 
L 328.910052 208.767812 
L 329.505675 211.837553 
L 330.101299 210.942212 
L 330.696922 204.802729 
L 331.292546 210.302682 
L 331.888169 208.256188 
L 332.483793 208.128282 
L 333.079416 209.663153 
L 333.67504 208.256188 
L 334.270664 208.128282 
L 334.866287 206.849224 
L 335.461911 206.849224 
L 336.057534 208.512 
L 336.653158 210.814306 
L 337.248781 210.174776 
L 337.844405 206.081788 
L 338.440028 206.081788 
L 339.035652 211.070118 
L 339.631276 203.651576 
L 340.226899 202.372518 
L 340.822523 206.3376 
L 341.418146 211.198024 
L 342.01377 208.639906 
L 342.609393 208.895718 
L 343.205017 209.407341 
L 343.80064 205.058541 
L 344.396264 211.070118 
L 344.991888 212.477082 
L 345.587511 206.721318 
L 346.183135 212.349176 
L 346.778758 210.942212 
L 347.374382 208.895718 
L 347.970005 209.407341 
L 348.565629 212.221271 
L 349.161252 208.895718 
L 349.756876 207.744565 
L 350.3525 209.279435 
L 350.948123 208.767812 
L 351.543747 205.953882 
L 352.13937 209.279435 
L 352.734994 206.593412 
L 353.330617 208.000376 
L 353.926241 208.767812 
L 354.521864 209.791059 
L 355.713112 209.151529 
L 356.308735 208.000376 
L 356.904359 211.581741 
L 357.499982 207.872471 
L 358.095606 205.186447 
L 358.691229 209.151529 
L 359.286853 207.232941 
L 359.882476 210.942212 
L 360.4781 208.895718 
L 361.073724 205.698071 
L 361.669347 212.477082 
L 362.264971 207.232941 
L 362.860594 209.407341 
L 363.456218 207.232941 
L 364.051841 207.872471 
L 364.647465 211.581741 
L 365.838712 208.895718 
L 366.434336 208.384094 
L 367.029959 212.988706 
L 367.625583 206.593412 
L 368.221206 207.488753 
L 368.81683 211.070118 
L 369.412453 206.849224 
L 370.008077 207.488753 
L 370.6037 204.419012 
L 371.199324 210.814306 
L 371.794948 210.814306 
L 372.390571 209.023624 
L 372.986195 205.186447 
L 373.581818 207.744565 
L 373.581818 207.744565 
" clip-path="url(#pb3b1324a99)" style="fill: none; stroke: #1f77b4; stroke-width: 1.5; stroke-linecap: square"/>
   </g>
   <g id="line2d_32">
    <path d="M 69.218182 252 
L 69.813805 251.872094 
L 70.409429 252 
L 73.387547 252 
L 73.98317 251.872094 
L 75.174417 251.872094 
L 75.770041 252 
L 76.365664 251.872094 
L 76.961288 251.872094 
L 77.556912 252 
L 78.152535 252 
L 78.748159 251.872094 
L 79.343782 251.872094 
L 79.939406 252 
L 81.130653 252 
L 81.726276 251.872094 
L 82.3219 251.872094 
L 82.917524 252 
L 83.513147 251.872094 
L 85.300018 251.872094 
L 85.895641 252 
L 86.491265 251.616282 
L 87.086888 252 
L 88.278136 251.744188 
L 88.873759 251.744188 
L 89.469383 251.872094 
L 90.065006 251.872094 
L 90.66063 252 
L 91.256253 251.872094 
L 91.851877 252 
L 92.4475 251.872094 
L 93.043124 251.872094 
L 93.638748 252 
L 94.234371 252 
L 94.829995 251.744188 
L 95.425618 251.744188 
L 96.021242 252 
L 97.808112 252 
L 98.403736 251.744188 
L 98.99936 252 
L 99.594983 251.872094 
L 100.78623 251.872094 
L 101.381854 251.744188 
L 102.573101 252 
L 103.168724 252 
L 103.764348 251.872094 
L 104.359972 252 
L 104.955595 251.872094 
L 105.551219 252 
L 106.742466 252 
L 107.338089 251.872094 
L 107.933713 252 
L 108.529336 252 
L 109.12496 251.872094 
L 110.316207 251.872094 
L 110.911831 252 
L 111.507454 251.872094 
L 112.103078 252 
L 112.698701 251.872094 
L 113.294325 251.872094 
L 113.889948 252 
L 116.272443 252 
L 116.868066 251.744188 
L 117.46369 252 
L 118.654937 252 
L 119.25056 251.872094 
L 119.846184 251.872094 
L 120.441808 251.744188 
L 121.037431 252 
L 122.228678 252 
L 122.824302 251.872094 
L 123.419925 252 
L 124.015549 252 
L 124.611172 251.872094 
L 125.206796 252 
L 125.802419 252 
L 126.398043 251.744188 
L 126.993667 251.616282 
L 127.58929 251.872094 
L 128.184914 252 
L 128.780537 252 
L 129.376161 251.872094 
L 129.971784 251.872094 
L 130.567408 252 
L 132.354279 252 
L 132.949902 251.616282 
L 133.545526 252 
L 135.332396 252 
L 135.92802 251.872094 
L 136.523643 252 
L 137.714891 251.744188 
L 138.310514 252 
L 138.906138 251.872094 
L 139.501761 252 
L 140.097385 251.872094 
L 140.693008 252 
L 141.288632 252 
L 141.884255 251.872094 
L 142.479879 252 
L 143.075503 252 
L 143.671126 251.616282 
L 144.26675 252 
L 144.862373 251.872094 
L 145.457997 252 
L 146.649244 252 
L 147.244867 251.872094 
L 147.840491 251.872094 
L 148.436115 252 
L 149.031738 252 
L 149.627362 251.744188 
L 150.222985 252 
L 150.818609 251.744188 
L 151.414232 252 
L 152.009856 251.872094 
L 152.605479 251.488376 
L 153.201103 251.872094 
L 153.796727 252 
L 154.987974 251.744188 
L 155.583597 251.744188 
L 156.179221 252 
L 157.966091 252 
L 158.561715 251.872094 
L 159.157339 252 
L 159.752962 251.744188 
L 160.348586 252 
L 160.944209 251.744188 
L 161.539833 251.616282 
L 162.135456 252 
L 165.113574 252 
L 165.709198 251.872094 
L 166.304821 251.872094 
L 166.900445 252 
L 167.496068 252 
L 168.687315 251.744188 
L 169.282939 251.488376 
L 169.878563 251.744188 
L 170.474186 251.872094 
L 172.261057 251.104659 
L 172.85668 250.593035 
L 173.452304 250.848847 
L 174.047927 250.976753 
L 174.643551 251.232565 
L 175.239175 251.360471 
L 176.430422 250.209318 
L 177.026045 250.720941 
L 177.621669 250.593035 
L 179.408539 251.616282 
L 180.004163 251.104659 
L 180.599787 251.488376 
L 181.791034 251.744188 
L 182.386657 251.616282 
L 182.982281 251.616282 
L 183.577904 251.872094 
L 184.173528 252 
L 184.769151 251.872094 
L 185.364775 252 
L 185.960399 252 
L 186.556022 251.744188 
L 187.151646 251.616282 
L 187.747269 251.616282 
L 188.342893 251.360471 
L 188.938516 251.488376 
L 189.53414 251.232565 
L 190.129763 251.744188 
L 190.725387 249.569788 
L 191.32101 249.058165 
L 191.916634 248.290729 
L 192.512258 248.162824 
L 193.107881 249.441882 
L 193.703505 246.883765 
L 194.299128 246.755859 
L 194.894752 246.883765 
L 195.490375 249.186071 
L 196.085999 245.860518 
L 196.681622 245.860518 
L 197.277246 245.604706 
L 197.87287 245.860518 
L 198.468493 247.395388 
L 199.064117 245.860518 
L 199.65974 246.372141 
L 200.255364 247.6512 
L 200.850987 247.011671 
L 202.042234 245.093082 
L 202.637858 245.732612 
L 203.233482 243.558212 
L 203.829105 243.558212 
L 204.424729 243.814024 
L 205.020352 242.279153 
L 205.615976 226.930447 
L 206.211599 243.686118 
L 206.807223 244.709365 
L 207.402846 246.116329 
L 207.99847 246.372141 
L 208.594094 249.313976 
L 209.189717 250.081412 
L 209.785341 251.360471 
L 210.380964 251.232565 
L 210.976588 251.360471 
L 211.572211 251.872094 
L 212.167835 252 
L 212.763458 251.872094 
L 213.359082 252 
L 213.954706 252 
L 214.550329 251.872094 
L 215.145953 252 
L 217.528447 252 
L 218.12407 251.872094 
L 218.719694 251.872094 
L 219.315318 252 
L 219.910941 251.872094 
L 220.506565 252 
L 221.102188 251.872094 
L 222.293435 251.872094 
L 222.889059 252 
L 223.484682 251.872094 
L 224.080306 252 
L 226.4628 252 
L 227.058424 251.872094 
L 227.654047 252 
L 228.249671 252 
L 228.845294 251.744188 
L 229.440918 251.872094 
L 230.036542 251.872094 
L 230.632165 251.744188 
L 231.227789 252 
L 231.823412 251.872094 
L 232.419036 252 
L 233.014659 251.744188 
L 233.610283 252 
L 234.205906 251.872094 
L 235.397154 251.872094 
L 235.992777 251.744188 
L 236.588401 252 
L 237.184024 252 
L 237.779648 251.872094 
L 238.375271 252 
L 238.970895 251.744188 
L 240.162142 252 
L 240.757766 252 
L 241.353389 251.872094 
L 241.949013 252 
L 243.735883 252 
L 244.331507 251.744188 
L 245.522754 252 
L 246.118378 251.872094 
L 246.714001 252 
L 249.692119 252 
L 250.287742 251.872094 
L 250.883366 252 
L 251.47899 251.872094 
L 252.074613 252 
L 253.26586 252 
L 253.861484 251.744188 
L 255.052731 252 
L 255.648354 252 
L 256.243978 251.744188 
L 256.839601 252 
L 257.435225 251.872094 
L 258.030849 252 
L 258.626472 251.744188 
L 259.222096 252 
L 259.817719 251.872094 
L 260.413343 251.872094 
L 261.008966 252 
L 261.60459 251.872094 
L 262.200213 251.872094 
L 262.795837 251.744188 
L 263.391461 252 
L 264.582708 252 
L 265.178331 251.872094 
L 268.156449 251.872094 
L 268.752073 252 
L 270.538943 252 
L 271.134567 251.872094 
L 272.325814 251.872094 
L 272.921437 252 
L 273.517061 252 
L 274.112685 251.872094 
L 274.708308 252 
L 275.303932 251.872094 
L 275.899555 252 
L 277.090802 252 
L 277.686426 251.872094 
L 278.282049 252 
L 278.877673 252 
L 279.473297 251.744188 
L 280.06892 251.744188 
L 280.664544 252 
L 281.260167 251.872094 
L 283.047038 251.872094 
L 283.642661 251.744188 
L 284.238285 252 
L 284.833909 252 
L 285.429532 251.872094 
L 286.025156 252 
L 290.194521 252 
L 290.790144 251.744188 
L 291.385768 252 
L 291.981391 251.744188 
L 292.577015 251.872094 
L 293.172638 251.744188 
L 293.768262 252 
L 294.363885 251.744188 
L 294.959509 252 
L 295.555133 252 
L 296.150756 251.872094 
L 296.74638 251.872094 
L 297.342003 252 
L 297.937627 251.872094 
L 298.53325 252 
L 299.128874 251.744188 
L 300.320121 252 
L 301.511368 251.744188 
L 302.106992 252 
L 302.702615 251.744188 
L 303.298239 252 
L 303.893862 252 
L 305.085109 251.744188 
L 305.680733 251.872094 
L 307.467604 251.872094 
L 308.063227 251.744188 
L 308.658851 251.872094 
L 310.445721 251.872094 
L 311.041345 252 
L 311.636969 251.872094 
L 312.232592 252 
L 312.828216 251.744188 
L 313.423839 252 
L 314.019463 251.872094 
L 315.806333 251.872094 
L 316.401957 252 
L 316.997581 251.744188 
L 317.593204 252 
L 318.188828 252 
L 318.784451 251.872094 
L 319.380075 251.872094 
L 319.975698 252 
L 320.571322 252 
L 321.166945 251.616282 
L 321.762569 252 
L 322.358192 251.872094 
L 322.953816 252 
L 323.54944 251.616282 
L 324.145063 252 
L 324.740687 252 
L 325.33631 251.872094 
L 325.931934 252 
L 326.527557 251.872094 
L 327.123181 251.872094 
L 327.718804 251.744188 
L 328.314428 251.872094 
L 330.696922 251.872094 
L 331.292546 252 
L 331.888169 251.744188 
L 332.483793 251.872094 
L 333.079416 251.872094 
L 333.67504 252 
L 334.270664 251.872094 
L 334.866287 252 
L 336.057534 251.744188 
L 336.653158 252 
L 338.440028 252 
L 339.035652 251.744188 
L 339.631276 252 
L 340.226899 252 
L 340.822523 251.872094 
L 341.418146 252 
L 343.205017 252 
L 343.80064 251.616282 
L 344.396264 251.872094 
L 344.991888 251.744188 
L 345.587511 251.872094 
L 346.183135 251.616282 
L 346.778758 252 
L 347.374382 251.872094 
L 347.970005 252 
L 348.565629 251.872094 
L 349.161252 251.872094 
L 349.756876 252 
L 350.3525 251.872094 
L 350.948123 252 
L 351.543747 252 
L 352.13937 251.744188 
L 353.330617 252 
L 353.926241 252 
L 354.521864 251.872094 
L 355.117488 252 
L 355.713112 252 
L 356.308735 251.744188 
L 357.499982 252 
L 358.095606 251.872094 
L 358.691229 251.872094 
L 359.286853 252 
L 359.882476 251.744188 
L 360.4781 251.872094 
L 361.073724 251.744188 
L 361.669347 252 
L 362.264971 251.872094 
L 362.860594 252 
L 363.456218 251.872094 
L 364.051841 252 
L 365.838712 252 
L 366.434336 251.872094 
L 367.029959 252 
L 367.625583 252 
L 368.221206 251.872094 
L 368.81683 251.488376 
L 369.412453 251.872094 
L 370.008077 252 
L 370.6037 252 
L 371.199324 251.872094 
L 371.794948 252 
L 372.390571 252 
L 373.581818 251.744188 
L 373.581818 251.744188 
" clip-path="url(#pb3b1324a99)" style="fill: none; stroke: #ff7f0e; stroke-width: 1.5; stroke-linecap: square"/>
   </g>
   <g id="line2d_33">
    <path d="M 69.218182 205.314353 
L 69.813805 204.035294 
L 70.409429 204.419012 
L 71.005052 207.872471 
L 71.600676 203.395765 
L 72.1963 206.721318 
L 72.791923 207.616659 
L 73.387547 201.605082 
L 73.98317 206.081788 
L 74.578794 206.3376 
L 75.174417 202.500424 
L 75.770041 204.419012 
L 76.365664 207.744565 
L 76.961288 203.523671 
L 77.556912 207.105035 
L 78.152535 206.081788 
L 78.748159 208.256188 
L 79.343782 205.953882 
L 79.939406 205.953882 
L 80.535029 206.849224 
L 81.130653 200.709741 
L 81.726276 206.721318 
L 82.3219 203.012047 
L 82.917524 205.442259 
L 83.513147 206.3376 
L 84.108771 208.000376 
L 84.704394 201.9888 
L 85.300018 206.465506 
L 85.895641 206.3376 
L 86.491265 205.058541 
L 87.086888 206.465506 
L 87.682512 207.105035 
L 88.278136 205.825976 
L 88.873759 203.012047 
L 89.469383 205.314353 
L 90.065006 203.267859 
L 90.66063 205.825976 
L 91.256253 204.291106 
L 91.851877 203.523671 
L 92.4475 206.3376 
L 93.043124 207.872471 
L 93.638748 209.918965 
L 94.234371 201.093459 
L 94.829995 199.430682 
L 95.425618 206.849224 
L 96.021242 208.256188 
L 96.616865 208.256188 
L 97.212489 207.360847 
L 97.808112 208.256188 
L 98.403736 207.360847 
L 98.99936 204.419012 
L 99.594983 205.442259 
L 100.190607 198.023718 
L 100.78623 208.767812 
L 101.381854 206.849224 
L 101.977477 198.791153 
L 102.573101 207.232941 
L 103.168724 206.977129 
L 103.764348 203.139953 
L 104.359972 209.663153 
L 104.955595 208.000376 
L 105.551219 204.674824 
L 106.146842 208.639906 
L 106.742466 207.360847 
L 107.338089 207.744565 
L 107.933713 203.779482 
L 108.529336 204.035294 
L 109.12496 206.465506 
L 109.720584 208.384094 
L 110.316207 203.267859 
L 110.911831 205.442259 
L 111.507454 210.302682 
L 112.103078 210.046871 
L 112.698701 205.314353 
L 113.294325 209.023624 
L 113.889948 206.3376 
L 114.485572 206.977129 
L 115.081196 202.756235 
L 115.676819 209.279435 
L 116.272443 206.081788 
L 116.868066 206.3376 
L 117.46369 206.977129 
L 118.059313 203.267859 
L 118.654937 205.953882 
L 119.25056 205.698071 
L 119.846184 204.546918 
L 120.441808 206.593412 
L 121.037431 206.209694 
L 121.633055 204.930635 
L 122.228678 204.419012 
L 122.824302 212.221271 
L 123.419925 201.732988 
L 124.015549 209.279435 
L 124.611172 205.442259 
L 125.206796 205.570165 
L 125.802419 208.767812 
L 126.398043 205.953882 
L 126.993667 205.314353 
L 127.58929 209.023624 
L 128.184914 204.1632 
L 128.780537 204.419012 
L 129.376161 203.012047 
L 129.971784 205.570165 
L 130.567408 205.186447 
L 131.758655 202.244612 
L 132.354279 202.372518 
L 132.949902 205.186447 
L 133.545526 207.105035 
L 134.141149 202.884141 
L 134.736773 204.802729 
L 135.92802 206.849224 
L 136.523643 207.360847 
L 137.119267 207.232941 
L 137.714891 208.639906 
L 138.310514 206.081788 
L 138.906138 203.012047 
L 139.501761 205.825976 
L 140.097385 210.6864 
L 140.693008 209.663153 
L 141.288632 208.128282 
L 141.884255 205.442259 
L 142.479879 205.570165 
L 143.075503 206.209694 
L 143.671126 206.081788 
L 144.26675 206.3376 
L 144.862373 201.732988 
L 145.457997 205.953882 
L 146.05362 201.605082 
L 146.649244 203.907388 
L 147.244867 209.663153 
L 147.840491 204.546918 
L 148.436115 210.046871 
L 149.031738 203.139953 
L 149.627362 198.535341 
L 150.222985 206.3376 
L 150.818609 201.860894 
L 151.414232 205.442259 
L 152.009856 205.442259 
L 152.605479 202.500424 
L 153.201103 203.779482 
L 153.796727 210.302682 
L 154.39235 208.256188 
L 154.987974 202.628329 
L 155.583597 203.012047 
L 156.179221 206.465506 
L 156.774844 209.151529 
L 157.370468 205.314353 
L 157.966091 206.593412 
L 158.561715 208.767812 
L 159.157339 206.209694 
L 159.752962 205.825976 
L 160.348586 206.849224 
L 160.944209 203.651576 
L 161.539833 208.767812 
L 162.135456 205.953882 
L 162.73108 206.849224 
L 163.326703 211.581741 
L 163.922327 207.232941 
L 164.517951 206.977129 
L 165.113574 209.279435 
L 166.304821 200.837647 
L 166.900445 202.244612 
L 167.496068 204.291106 
L 168.091692 200.453929 
L 168.687315 206.3376 
L 169.282939 205.314353 
L 169.878563 206.977129 
L 170.474186 201.221365 
L 171.06981 206.721318 
L 171.665433 201.9888 
L 172.261057 208.128282 
L 172.85668 207.232941 
L 173.452304 206.849224 
L 174.047927 207.488753 
L 174.643551 203.267859 
L 175.239175 208.128282 
L 175.834798 208.639906 
L 176.430422 204.674824 
L 177.026045 210.046871 
L 177.621669 205.058541 
L 178.217292 207.105035 
L 178.812916 208.000376 
L 179.408539 206.977129 
L 180.004163 206.3376 
L 180.599787 206.721318 
L 181.19541 203.907388 
L 181.791034 204.546918 
L 182.386657 206.721318 
L 182.982281 205.186447 
L 183.577904 205.698071 
L 184.173528 203.395765 
L 184.769151 204.419012 
L 185.364775 201.605082 
L 185.960399 208.767812 
L 186.556022 209.151529 
L 187.151646 203.267859 
L 187.747269 201.477176 
L 188.342893 203.779482 
L 188.938516 203.907388 
L 189.53414 211.709647 
L 190.129763 204.674824 
L 190.725387 200.453929 
L 191.32101 207.744565 
L 191.916634 204.546918 
L 193.107881 207.744565 
L 193.703505 207.105035 
L 194.299128 208.384094 
L 194.894752 205.570165 
L 195.490375 201.349271 
L 196.681622 206.3376 
L 197.277246 204.419012 
L 197.87287 207.232941 
L 198.468493 207.232941 
L 199.064117 208.639906 
L 199.65974 206.3376 
L 200.255364 207.744565 
L 200.850987 206.209694 
L 201.446611 206.977129 
L 202.042234 206.3376 
L 202.637858 206.209694 
L 203.829105 201.221365 
L 204.424729 200.070212 
L 205.020352 200.198118 
L 205.615976 203.139953 
L 206.211599 199.302776 
L 206.807223 199.174871 
L 207.402846 199.174871 
L 207.99847 198.535341 
L 208.594094 195.977224 
L 209.189717 200.326024 
L 209.785341 197.128376 
L 210.380964 201.477176 
L 210.976588 203.651576 
L 211.572211 196.360941 
L 212.167835 200.581835 
L 212.763458 198.663247 
L 213.359082 208.639906 
L 213.954706 201.9888 
L 214.550329 204.1632 
L 215.145953 208.512 
L 215.741576 204.802729 
L 216.3372 205.698071 
L 216.932823 205.698071 
L 217.528447 206.721318 
L 218.12407 206.593412 
L 218.719694 205.953882 
L 219.315318 205.953882 
L 219.910941 204.419012 
L 220.506565 204.419012 
L 221.102188 197.895812 
L 221.697812 206.977129 
L 222.293435 200.837647 
L 222.889059 196.616753 
L 223.484682 194.442353 
L 224.080306 192.779576 
L 224.67593 193.547012 
L 225.271553 189.965647 
L 225.867177 188.302871 
L 226.4628 184.337788 
L 227.058424 178.0704 
L 227.654047 183.314541 
L 228.249671 171.803012 
L 228.845294 169.244894 
L 229.440918 175.384376 
L 230.036542 175.640188 
L 230.632165 175.640188 
L 231.227789 173.465788 
L 232.419036 180.2448 
L 233.014659 176.919247 
L 233.610283 175.896 
L 234.205906 176.151812 
L 234.80153 172.698353 
L 235.397154 172.058824 
L 235.992777 169.884424 
L 236.588401 166.814682 
L 237.184024 162.721694 
L 237.779648 150.570635 
L 238.375271 80.861929 
L 238.970895 163.489129 
L 239.566518 167.070494 
L 240.162142 178.837835 
L 240.757766 183.954071 
L 241.353389 187.791247 
L 241.949013 188.558682 
L 243.14026 197.64 
L 243.735883 203.651576 
L 244.331507 201.093459 
L 246.118378 205.825976 
L 246.714001 203.907388 
L 247.309625 207.105035 
L 247.905248 205.442259 
L 248.500872 205.953882 
L 249.096495 205.314353 
L 249.692119 206.465506 
L 250.287742 209.663153 
L 250.883366 204.419012 
L 251.47899 206.721318 
L 252.074613 202.500424 
L 252.670237 211.070118 
L 253.26586 209.279435 
L 253.861484 205.314353 
L 254.457107 208.512 
L 255.052731 209.151529 
L 255.648354 206.465506 
L 256.243978 205.953882 
L 256.839601 205.953882 
L 257.435225 203.267859 
L 258.030849 210.302682 
L 258.626472 205.953882 
L 259.222096 206.849224 
L 259.817719 206.721318 
L 260.413343 205.570165 
L 261.008966 205.570165 
L 261.60459 208.128282 
L 262.795837 204.419012 
L 263.987084 205.825976 
L 264.582708 203.651576 
L 265.178331 207.360847 
L 265.773955 207.488753 
L 266.369578 206.3376 
L 266.965202 201.860894 
L 267.560825 207.360847 
L 268.156449 205.570165 
L 268.752073 208.384094 
L 269.347696 205.953882 
L 269.94332 204.674824 
L 270.538943 206.849224 
L 271.134567 204.035294 
L 271.73019 204.291106 
L 272.921437 206.465506 
L 273.517061 206.849224 
L 274.112685 205.442259 
L 274.708308 203.267859 
L 275.303932 204.674824 
L 275.899555 201.732988 
L 276.495179 206.721318 
L 277.090802 200.070212 
L 277.686426 203.779482 
L 278.282049 205.314353 
L 278.877673 201.221365 
L 279.473297 207.105035 
L 280.06892 204.419012 
L 280.664544 204.035294 
L 281.260167 207.488753 
L 281.855791 207.105035 
L 282.451414 204.802729 
L 283.047038 203.907388 
L 283.642661 207.616659 
L 284.238285 204.546918 
L 284.833909 202.372518 
L 285.429532 204.035294 
L 286.025156 204.802729 
L 286.620779 208.767812 
L 287.216403 203.012047 
L 287.812026 205.570165 
L 288.40765 203.395765 
L 289.003273 205.186447 
L 290.194521 200.837647 
L 291.385768 208.639906 
L 291.981391 211.325929 
L 292.577015 207.105035 
L 293.172638 207.232941 
L 293.768262 204.802729 
L 294.363885 204.419012 
L 294.959509 204.291106 
L 295.555133 202.372518 
L 296.150756 201.477176 
L 296.74638 205.314353 
L 297.342003 204.802729 
L 297.937627 204.674824 
L 298.53325 206.3376 
L 299.128874 204.802729 
L 299.724497 205.698071 
L 300.320121 206.977129 
L 300.915745 206.465506 
L 301.511368 204.930635 
L 302.106992 207.488753 
L 302.702615 210.6864 
L 303.298239 204.546918 
L 303.893862 209.535247 
L 304.489486 206.209694 
L 305.085109 203.779482 
L 305.680733 210.6864 
L 306.87198 206.3376 
L 307.467604 205.825976 
L 308.063227 209.279435 
L 308.658851 202.628329 
L 309.254474 206.849224 
L 309.850098 205.442259 
L 310.445721 208.256188 
L 311.041345 205.825976 
L 311.636969 204.035294 
L 312.232592 203.523671 
L 312.828216 206.593412 
L 313.423839 210.6864 
L 314.019463 210.558494 
L 315.21071 203.395765 
L 315.806333 207.232941 
L 316.401957 200.581835 
L 316.997581 203.523671 
L 317.593204 204.1632 
L 318.188828 203.139953 
L 318.784451 205.442259 
L 319.380075 200.965553 
L 319.975698 207.360847 
L 320.571322 205.570165 
L 321.166945 203.012047 
L 321.762569 206.081788 
L 322.358192 206.849224 
L 322.953816 206.721318 
L 323.54944 206.081788 
L 324.145063 205.953882 
L 324.740687 204.035294 
L 325.33631 207.360847 
L 325.931934 203.523671 
L 326.527557 205.314353 
L 327.123181 204.546918 
L 327.718804 211.581741 
L 328.314428 203.139953 
L 328.910052 198.663247 
L 329.505675 208.895718 
L 330.101299 200.837647 
L 330.696922 208.128282 
L 331.292546 206.977129 
L 331.888169 204.930635 
L 332.483793 207.105035 
L 333.079416 211.709647 
L 333.67504 204.546918 
L 334.270664 203.651576 
L 335.461911 211.453835 
L 336.057534 203.395765 
L 336.653158 201.605082 
L 337.248781 205.698071 
L 337.844405 205.698071 
L 338.440028 201.605082 
L 339.035652 204.674824 
L 339.631276 208.639906 
L 340.226899 202.884141 
L 340.822523 208.639906 
L 341.418146 208.256188 
L 342.01377 205.186447 
L 342.609393 204.546918 
L 343.205017 204.802729 
L 343.80064 207.360847 
L 344.396264 207.105035 
L 344.991888 202.116706 
L 345.587511 202.244612 
L 346.183135 201.9888 
L 346.778758 211.070118 
L 347.374382 202.500424 
L 347.970005 203.523671 
L 348.565629 202.116706 
L 349.161252 203.267859 
L 349.756876 211.325929 
L 350.3525 203.139953 
L 350.948123 199.942306 
L 351.543747 209.407341 
L 352.13937 201.477176 
L 352.734994 211.709647 
L 353.330617 206.3376 
L 353.926241 208.767812 
L 354.521864 204.546918 
L 355.117488 206.465506 
L 355.713112 208.767812 
L 356.308735 205.698071 
L 356.904359 201.605082 
L 357.499982 205.058541 
L 358.095606 205.698071 
L 358.691229 204.291106 
L 359.286853 210.430588 
L 359.882476 203.651576 
L 360.4781 204.674824 
L 361.073724 206.081788 
L 361.669347 203.012047 
L 362.264971 203.139953 
L 362.860594 203.012047 
L 363.456218 206.209694 
L 364.051841 207.232941 
L 364.647465 212.477082 
L 365.243088 206.209694 
L 365.838712 207.232941 
L 366.434336 205.953882 
L 367.029959 203.651576 
L 367.625583 204.546918 
L 368.221206 207.105035 
L 369.412453 204.291106 
L 370.008077 207.232941 
L 370.6037 203.523671 
L 371.199324 203.523671 
L 371.794948 205.825976 
L 372.390571 199.558588 
L 372.986195 209.407341 
L 373.581818 205.570165 
L 373.581818 205.570165 
" clip-path="url(#pb3b1324a99)" style="fill: none; stroke: #2ca02c; stroke-width: 1.5; stroke-linecap: square"/>
   </g>
   <g id="patch_3">
    <path d="M 54 252 
L 54 34.56 
" style="fill: none; stroke: #000000; stroke-width: 0.8; stroke-linejoin: miter; stroke-linecap: square"/>
   </g>
   <g id="patch_4">
    <path d="M 388.8 252 
L 388.8 34.56 
" style="fill: none; stroke: #000000; stroke-width: 0.8; stroke-linejoin: miter; stroke-linecap: square"/>
   </g>
   <g id="patch_5">
    <path d="M 54 252 
L 388.8 252 
" style="fill: none; stroke: #000000; stroke-width: 0.8; stroke-linejoin: miter; stroke-linecap: square"/>
   </g>
   <g id="patch_6">
    <path d="M 54 34.56 
L 388.8 34.56 
" style="fill: none; stroke: #000000; stroke-width: 0.8; stroke-linejoin: miter; stroke-linecap: square"/>
   </g>
   <g id="text_18">
    <!-- Label 9 -->
    <g transform="translate(199.487813 28.56)scale(0.12 -0.12)">
     <defs>
      <path id="DejaVuSans-4c" d="M 628 4666 
L 1259 4666 
L 1259 531 
L 3531 531 
L 3531 0 
L 628 0 
L 628 4666 
z
" transform="scale(0.015625)"/>
      <path id="DejaVuSans-61" d="M 2194 1759 
Q 1497 1759 1228 1600 
Q 959 1441 959 1056 
Q 959 750 1161 570 
Q 1363 391 1709 391 
Q 2188 391 2477 730 
Q 2766 1069 2766 1631 
L 2766 1759 
L 2194 1759 
z
M 3341 1997 
L 3341 0 
L 2766 0 
L 2766 531 
Q 2569 213 2275 61 
Q 1981 -91 1556 -91 
Q 1019 -91 701 211 
Q 384 513 384 1019 
Q 384 1609 779 1909 
Q 1175 2209 1959 2209 
L 2766 2209 
L 2766 2266 
Q 2766 2663 2505 2880 
Q 2244 3097 1772 3097 
Q 1472 3097 1187 3025 
Q 903 2953 641 2809 
L 641 3341 
Q 956 3463 1253 3523 
Q 1550 3584 1831 3584 
Q 2591 3584 2966 3190 
Q 3341 2797 3341 1997 
z
" transform="scale(0.015625)"/>
      <path id="DejaVuSans-65" d="M 3597 1894 
L 3597 1613 
L 953 1613 
Q 991 1019 1311 708 
Q 1631 397 2203 397 
Q 2534 397 2845 478 
Q 3156 559 3463 722 
L 3463 178 
Q 3153 47 2828 -22 
Q 2503 -91 2169 -91 
Q 1331 -91 842 396 
Q 353 884 353 1716 
Q 353 2575 817 3079 
Q 1281 3584 2069 3584 
Q 2775 3584 3186 3129 
Q 3597 2675 3597 1894 
z
M 3022 2063 
Q 3016 2534 2758 2815 
Q 2500 3097 2075 3097 
Q 1594 3097 1305 2825 
Q 1016 2553 972 2059 
L 3022 2063 
z
" transform="scale(0.015625)"/>
      <path id="DejaVuSans-6c" d="M 603 4863 
L 1178 4863 
L 1178 0 
L 603 0 
L 603 4863 
z
" transform="scale(0.015625)"/>
      <path id="DejaVuSans-20" transform="scale(0.015625)"/>
      <path id="DejaVuSans-39" d="M 703 97 
L 703 672 
Q 941 559 1184 500 
Q 1428 441 1663 441 
Q 2288 441 2617 861 
Q 2947 1281 2994 2138 
Q 2813 1869 2534 1725 
Q 2256 1581 1919 1581 
Q 1219 1581 811 2004 
Q 403 2428 403 3163 
Q 403 3881 828 4315 
Q 1253 4750 1959 4750 
Q 2769 4750 3195 4129 
Q 3622 3509 3622 2328 
Q 3622 1225 3098 567 
Q 2575 -91 1691 -91 
Q 1453 -91 1209 -44 
Q 966 3 703 97 
z
M 1959 2075 
Q 2384 2075 2632 2365 
Q 2881 2656 2881 3163 
Q 2881 3666 2632 3958 
Q 2384 4250 1959 4250 
Q 1534 4250 1286 3958 
Q 1038 3666 1038 3163 
Q 1038 2656 1286 2365 
Q 1534 2075 1959 2075 
z
" transform="scale(0.015625)"/>
     </defs>
     <use xlink:href="#DejaVuSans-4c"/>
     <use xlink:href="#DejaVuSans-61" x="55.712891"/>
     <use xlink:href="#DejaVuSans-62" x="116.992188"/>
     <use xlink:href="#DejaVuSans-65" x="180.46875"/>
     <use xlink:href="#DejaVuSans-6c" x="241.992188"/>
     <use xlink:href="#DejaVuSans-20" x="269.775391"/>
     <use xlink:href="#DejaVuSans-39" x="301.5625"/>
    </g>
   </g>
   <g id="legend_1">
    <g id="patch_7">
     <path d="M 309.070312 101.2725 
L 381.8 101.2725 
Q 383.8 101.2725 383.8 99.2725 
L 383.8 41.56 
Q 383.8 39.56 381.8 39.56 
L 309.070312 39.56 
Q 307.070312 39.56 307.070312 41.56 
L 307.070312 99.2725 
Q 307.070312 101.2725 309.070312 101.2725 
z
" style="fill: #ffffff; opacity: 0.8; stroke: #cccccc; stroke-linejoin: miter"/>
    </g>
    <g id="text_19">
     <!-- Trace number -->
     <g transform="translate(311.070312 51.158437)scale(0.1 -0.1)">
      <defs>
       <path id="DejaVuSans-54" d="M -19 4666 
L 3928 4666 
L 3928 4134 
L 2272 4134 
L 2272 0 
L 1638 0 
L 1638 4134 
L -19 4134 
L -19 4666 
z
" transform="scale(0.015625)"/>
       <path id="DejaVuSans-72" d="M 2631 2963 
Q 2534 3019 2420 3045 
Q 2306 3072 2169 3072 
Q 1681 3072 1420 2755 
Q 1159 2438 1159 1844 
L 1159 0 
L 581 0 
L 581 3500 
L 1159 3500 
L 1159 2956 
Q 1341 3275 1631 3429 
Q 1922 3584 2338 3584 
Q 2397 3584 2469 3576 
Q 2541 3569 2628 3553 
L 2631 2963 
z
" transform="scale(0.015625)"/>
       <path id="DejaVuSans-6d" d="M 3328 2828 
Q 3544 3216 3844 3400 
Q 4144 3584 4550 3584 
Q 5097 3584 5394 3201 
Q 5691 2819 5691 2113 
L 5691 0 
L 5113 0 
L 5113 2094 
Q 5113 2597 4934 2840 
Q 4756 3084 4391 3084 
Q 3944 3084 3684 2787 
Q 3425 2491 3425 1978 
L 3425 0 
L 2847 0 
L 2847 2094 
Q 2847 2600 2669 2842 
Q 2491 3084 2119 3084 
Q 1678 3084 1418 2786 
Q 1159 2488 1159 1978 
L 1159 0 
L 581 0 
L 581 3500 
L 1159 3500 
L 1159 2956 
Q 1356 3278 1631 3431 
Q 1906 3584 2284 3584 
Q 2666 3584 2933 3390 
Q 3200 3197 3328 2828 
z
" transform="scale(0.015625)"/>
      </defs>
      <use xlink:href="#DejaVuSans-54"/>
      <use xlink:href="#DejaVuSans-72" x="46.333984"/>
      <use xlink:href="#DejaVuSans-61" x="87.447266"/>
      <use xlink:href="#DejaVuSans-63" x="148.726562"/>
      <use xlink:href="#DejaVuSans-65" x="203.707031"/>
      <use xlink:href="#DejaVuSans-20" x="265.230469"/>
      <use xlink:href="#DejaVuSans-6e" x="297.017578"/>
      <use xlink:href="#DejaVuSans-75" x="360.396484"/>
      <use xlink:href="#DejaVuSans-6d" x="423.775391"/>
      <use xlink:href="#DejaVuSans-62" x="521.1875"/>
      <use xlink:href="#DejaVuSans-65" x="584.664062"/>
      <use xlink:href="#DejaVuSans-72" x="646.1875"/>
     </g>
    </g>
    <g id="line2d_34">
     <path d="M 321.891406 62.336562 
L 331.891406 62.336562 
L 341.891406 62.336562 
" style="fill: none; stroke: #1f77b4; stroke-width: 1.5; stroke-linecap: square"/>
    </g>
    <g id="text_20">
     <!-- 8 -->
     <g transform="translate(349.891406 65.836562)scale(0.1 -0.1)">
      <use xlink:href="#DejaVuSans-38"/>
     </g>
    </g>
    <g id="line2d_35">
     <path d="M 321.891406 77.014687 
L 331.891406 77.014687 
L 341.891406 77.014687 
" style="fill: none; stroke: #ff7f0e; stroke-width: 1.5; stroke-linecap: square"/>
    </g>
    <g id="text_21">
     <!-- 31 -->
     <g transform="translate(349.891406 80.514687)scale(0.1 -0.1)">
      <use xlink:href="#DejaVuSans-33"/>
      <use xlink:href="#DejaVuSans-31" x="63.623047"/>
     </g>
    </g>
    <g id="line2d_36">
     <path d="M 321.891406 91.692813 
L 331.891406 91.692813 
L 341.891406 91.692813 
" style="fill: none; stroke: #2ca02c; stroke-width: 1.5; stroke-linecap: square"/>
    </g>
    <g id="text_22">
     <!-- 101 -->
     <g transform="translate(349.891406 95.192813)scale(0.1 -0.1)">
      <use xlink:href="#DejaVuSans-31"/>
      <use xlink:href="#DejaVuSans-30" x="63.623047"/>
      <use xlink:href="#DejaVuSans-31" x="127.246094"/>
     </g>
    </g>
   </g>
  </g>
 </g>
 <defs>
  <clipPath id="pb3b1324a99">
   <rect x="54" y="34.56" width="334.8" height="217.44"/>
  </clipPath>
 </defs>
</svg>
