<?xml version="1.0" encoding="utf-8" standalone="no"?>
<!DOCTYPE svg PUBLIC "-//W3C//DTD SVG 1.1//EN"
  "http://www.w3.org/Graphics/SVG/1.1/DTD/svg11.dtd">
<svg xmlns:xlink="http://www.w3.org/1999/xlink" width="432pt" height="288pt" viewBox="0 0 432 288" xmlns="http://www.w3.org/2000/svg" version="1.1">
 <metadata>
  <rdf:RDF xmlns:dc="http://purl.org/dc/elements/1.1/" xmlns:cc="http://creativecommons.org/ns#" xmlns:rdf="http://www.w3.org/1999/02/22-rdf-syntax-ns#">
   <cc:Work>
    <dc:type rdf:resource="http://purl.org/dc/dcmitype/StillImage"/>
    <dc:date>2022-03-30T13:12:46.893407</dc:date>
    <dc:format>image/svg+xml</dc:format>
    <dc:creator>
     <cc:Agent>
      <dc:title>Matplotlib v3.5.1, https://matplotlib.org/</dc:title>
     </cc:Agent>
    </dc:creator>
   </cc:Work>
  </rdf:RDF>
 </metadata>
 <defs>
  <style type="text/css">*{stroke-linejoin: round; stroke-linecap: butt}</style>
 </defs>
 <g id="figure_1">
  <g id="patch_1">
   <path d="M 0 288 
L 432 288 
L 432 0 
L 0 0 
z
" style="fill: #ffffff"/>
  </g>
  <g id="axes_1">
   <g id="patch_2">
    <path d="M 54 252 
L 388.8 252 
L 388.8 34.56 
L 54 34.56 
z
" style="fill: #ffffff"/>
   </g>
   <g id="matplotlib.axis_1">
    <g id="xtick_1">
     <g id="line2d_1">
      <path d="M 69.218182 252 
L 69.218182 34.56 
" clip-path="url(#pf5266dfc56)" style="fill: none; stroke: #b0b0b0; stroke-width: 0.8; stroke-linecap: square"/>
     </g>
     <g id="line2d_2">
      <defs>
       <path id="m03a691ff0d" d="M 0 0 
L 0 3.5 
" style="stroke: #000000; stroke-width: 0.8"/>
      </defs>
      <g>
       <use xlink:href="#m03a691ff0d" x="69.218182" y="252" style="stroke: #000000; stroke-width: 0.8"/>
      </g>
     </g>
     <g id="text_1">
      <!-- 0 -->
      <g transform="translate(66.036932 266.598437)scale(0.1 -0.1)">
       <defs>
        <path id="DejaVuSans-30" d="M 2034 4250 
Q 1547 4250 1301 3770 
Q 1056 3291 1056 2328 
Q 1056 1369 1301 889 
Q 1547 409 2034 409 
Q 2525 409 2770 889 
Q 3016 1369 3016 2328 
Q 3016 3291 2770 3770 
Q 2525 4250 2034 4250 
z
M 2034 4750 
Q 2819 4750 3233 4129 
Q 3647 3509 3647 2328 
Q 3647 1150 3233 529 
Q 2819 -91 2034 -91 
Q 1250 -91 836 529 
Q 422 1150 422 2328 
Q 422 3509 836 4129 
Q 1250 4750 2034 4750 
z
" transform="scale(0.015625)"/>
       </defs>
       <use xlink:href="#DejaVuSans-30"/>
      </g>
     </g>
    </g>
    <g id="xtick_2">
     <g id="line2d_3">
      <path d="M 128.780537 252 
L 128.780537 34.56 
" clip-path="url(#pf5266dfc56)" style="fill: none; stroke: #b0b0b0; stroke-width: 0.8; stroke-linecap: square"/>
     </g>
     <g id="line2d_4">
      <g>
       <use xlink:href="#m03a691ff0d" x="128.780537" y="252" style="stroke: #000000; stroke-width: 0.8"/>
      </g>
     </g>
     <g id="text_2">
      <!-- 100 -->
      <g transform="translate(119.236787 266.598437)scale(0.1 -0.1)">
       <defs>
        <path id="DejaVuSans-31" d="M 794 531 
L 1825 531 
L 1825 4091 
L 703 3866 
L 703 4441 
L 1819 4666 
L 2450 4666 
L 2450 531 
L 3481 531 
L 3481 0 
L 794 0 
L 794 531 
z
" transform="scale(0.015625)"/>
       </defs>
       <use xlink:href="#DejaVuSans-31"/>
       <use xlink:href="#DejaVuSans-30" x="63.623047"/>
       <use xlink:href="#DejaVuSans-30" x="127.246094"/>
      </g>
     </g>
    </g>
    <g id="xtick_3">
     <g id="line2d_5">
      <path d="M 188.342893 252 
L 188.342893 34.56 
" clip-path="url(#pf5266dfc56)" style="fill: none; stroke: #b0b0b0; stroke-width: 0.8; stroke-linecap: square"/>
     </g>
     <g id="line2d_6">
      <g>
       <use xlink:href="#m03a691ff0d" x="188.342893" y="252" style="stroke: #000000; stroke-width: 0.8"/>
      </g>
     </g>
     <g id="text_3">
      <!-- 200 -->
      <g transform="translate(178.799143 266.598437)scale(0.1 -0.1)">
       <defs>
        <path id="DejaVuSans-32" d="M 1228 531 
L 3431 531 
L 3431 0 
L 469 0 
L 469 531 
Q 828 903 1448 1529 
Q 2069 2156 2228 2338 
Q 2531 2678 2651 2914 
Q 2772 3150 2772 3378 
Q 2772 3750 2511 3984 
Q 2250 4219 1831 4219 
Q 1534 4219 1204 4116 
Q 875 4013 500 3803 
L 500 4441 
Q 881 4594 1212 4672 
Q 1544 4750 1819 4750 
Q 2544 4750 2975 4387 
Q 3406 4025 3406 3419 
Q 3406 3131 3298 2873 
Q 3191 2616 2906 2266 
Q 2828 2175 2409 1742 
Q 1991 1309 1228 531 
z
" transform="scale(0.015625)"/>
       </defs>
       <use xlink:href="#DejaVuSans-32"/>
       <use xlink:href="#DejaVuSans-30" x="63.623047"/>
       <use xlink:href="#DejaVuSans-30" x="127.246094"/>
      </g>
     </g>
    </g>
    <g id="xtick_4">
     <g id="line2d_7">
      <path d="M 247.905248 252 
L 247.905248 34.56 
" clip-path="url(#pf5266dfc56)" style="fill: none; stroke: #b0b0b0; stroke-width: 0.8; stroke-linecap: square"/>
     </g>
     <g id="line2d_8">
      <g>
       <use xlink:href="#m03a691ff0d" x="247.905248" y="252" style="stroke: #000000; stroke-width: 0.8"/>
      </g>
     </g>
     <g id="text_4">
      <!-- 300 -->
      <g transform="translate(238.361498 266.598437)scale(0.1 -0.1)">
       <defs>
        <path id="DejaVuSans-33" d="M 2597 2516 
Q 3050 2419 3304 2112 
Q 3559 1806 3559 1356 
Q 3559 666 3084 287 
Q 2609 -91 1734 -91 
Q 1441 -91 1130 -33 
Q 819 25 488 141 
L 488 750 
Q 750 597 1062 519 
Q 1375 441 1716 441 
Q 2309 441 2620 675 
Q 2931 909 2931 1356 
Q 2931 1769 2642 2001 
Q 2353 2234 1838 2234 
L 1294 2234 
L 1294 2753 
L 1863 2753 
Q 2328 2753 2575 2939 
Q 2822 3125 2822 3475 
Q 2822 3834 2567 4026 
Q 2313 4219 1838 4219 
Q 1578 4219 1281 4162 
Q 984 4106 628 3988 
L 628 4550 
Q 988 4650 1302 4700 
Q 1616 4750 1894 4750 
Q 2613 4750 3031 4423 
Q 3450 4097 3450 3541 
Q 3450 3153 3228 2886 
Q 3006 2619 2597 2516 
z
" transform="scale(0.015625)"/>
       </defs>
       <use xlink:href="#DejaVuSans-33"/>
       <use xlink:href="#DejaVuSans-30" x="63.623047"/>
       <use xlink:href="#DejaVuSans-30" x="127.246094"/>
      </g>
     </g>
    </g>
    <g id="xtick_5">
     <g id="line2d_9">
      <path d="M 307.467604 252 
L 307.467604 34.56 
" clip-path="url(#pf5266dfc56)" style="fill: none; stroke: #b0b0b0; stroke-width: 0.8; stroke-linecap: square"/>
     </g>
     <g id="line2d_10">
      <g>
       <use xlink:href="#m03a691ff0d" x="307.467604" y="252" style="stroke: #000000; stroke-width: 0.8"/>
      </g>
     </g>
     <g id="text_5">
      <!-- 400 -->
      <g transform="translate(297.923854 266.598437)scale(0.1 -0.1)">
       <defs>
        <path id="DejaVuSans-34" d="M 2419 4116 
L 825 1625 
L 2419 1625 
L 2419 4116 
z
M 2253 4666 
L 3047 4666 
L 3047 1625 
L 3713 1625 
L 3713 1100 
L 3047 1100 
L 3047 0 
L 2419 0 
L 2419 1100 
L 313 1100 
L 313 1709 
L 2253 4666 
z
" transform="scale(0.015625)"/>
       </defs>
       <use xlink:href="#DejaVuSans-34"/>
       <use xlink:href="#DejaVuSans-30" x="63.623047"/>
       <use xlink:href="#DejaVuSans-30" x="127.246094"/>
      </g>
     </g>
    </g>
    <g id="xtick_6">
     <g id="line2d_11">
      <path d="M 367.029959 252 
L 367.029959 34.56 
" clip-path="url(#pf5266dfc56)" style="fill: none; stroke: #b0b0b0; stroke-width: 0.8; stroke-linecap: square"/>
     </g>
     <g id="line2d_12">
      <g>
       <use xlink:href="#m03a691ff0d" x="367.029959" y="252" style="stroke: #000000; stroke-width: 0.8"/>
      </g>
     </g>
     <g id="text_6">
      <!-- 500 -->
      <g transform="translate(357.486209 266.598437)scale(0.1 -0.1)">
       <defs>
        <path id="DejaVuSans-35" d="M 691 4666 
L 3169 4666 
L 3169 4134 
L 1269 4134 
L 1269 2991 
Q 1406 3038 1543 3061 
Q 1681 3084 1819 3084 
Q 2600 3084 3056 2656 
Q 3513 2228 3513 1497 
Q 3513 744 3044 326 
Q 2575 -91 1722 -91 
Q 1428 -91 1123 -41 
Q 819 9 494 109 
L 494 744 
Q 775 591 1075 516 
Q 1375 441 1709 441 
Q 2250 441 2565 725 
Q 2881 1009 2881 1497 
Q 2881 1984 2565 2268 
Q 2250 2553 1709 2553 
Q 1456 2553 1204 2497 
Q 953 2441 691 2322 
L 691 4666 
z
" transform="scale(0.015625)"/>
       </defs>
       <use xlink:href="#DejaVuSans-35"/>
       <use xlink:href="#DejaVuSans-30" x="63.623047"/>
       <use xlink:href="#DejaVuSans-30" x="127.246094"/>
      </g>
     </g>
    </g>
    <g id="text_7">
     <!-- bin -->
     <g transform="translate(213.667969 280.276563)scale(0.1 -0.1)">
      <defs>
       <path id="DejaVuSans-62" d="M 3116 1747 
Q 3116 2381 2855 2742 
Q 2594 3103 2138 3103 
Q 1681 3103 1420 2742 
Q 1159 2381 1159 1747 
Q 1159 1113 1420 752 
Q 1681 391 2138 391 
Q 2594 391 2855 752 
Q 3116 1113 3116 1747 
z
M 1159 2969 
Q 1341 3281 1617 3432 
Q 1894 3584 2278 3584 
Q 2916 3584 3314 3078 
Q 3713 2572 3713 1747 
Q 3713 922 3314 415 
Q 2916 -91 2278 -91 
Q 1894 -91 1617 61 
Q 1341 213 1159 525 
L 1159 0 
L 581 0 
L 581 4863 
L 1159 4863 
L 1159 2969 
z
" transform="scale(0.015625)"/>
       <path id="DejaVuSans-69" d="M 603 3500 
L 1178 3500 
L 1178 0 
L 603 0 
L 603 3500 
z
M 603 4863 
L 1178 4863 
L 1178 4134 
L 603 4134 
L 603 4863 
z
" transform="scale(0.015625)"/>
       <path id="DejaVuSans-6e" d="M 3513 2113 
L 3513 0 
L 2938 0 
L 2938 2094 
Q 2938 2591 2744 2837 
Q 2550 3084 2163 3084 
Q 1697 3084 1428 2787 
Q 1159 2491 1159 1978 
L 1159 0 
L 581 0 
L 581 3500 
L 1159 3500 
L 1159 2956 
Q 1366 3272 1645 3428 
Q 1925 3584 2291 3584 
Q 2894 3584 3203 3211 
Q 3513 2838 3513 2113 
z
" transform="scale(0.015625)"/>
      </defs>
      <use xlink:href="#DejaVuSans-62"/>
      <use xlink:href="#DejaVuSans-69" x="63.476562"/>
      <use xlink:href="#DejaVuSans-6e" x="91.259766"/>
     </g>
    </g>
   </g>
   <g id="matplotlib.axis_2">
    <g id="ytick_1">
     <g id="line2d_13">
      <path d="M 54 252 
L 388.8 252 
" clip-path="url(#pf5266dfc56)" style="fill: none; stroke: #b0b0b0; stroke-width: 0.8; stroke-linecap: square"/>
     </g>
     <g id="line2d_14">
      <defs>
       <path id="me4e58d60d3" d="M 0 0 
L -3.5 0 
" style="stroke: #000000; stroke-width: 0.8"/>
      </defs>
      <g>
       <use xlink:href="#me4e58d60d3" x="54" y="252" style="stroke: #000000; stroke-width: 0.8"/>
      </g>
     </g>
     <g id="text_8">
      <!-- 0 -->
      <g transform="translate(40.6375 255.799219)scale(0.1 -0.1)">
       <use xlink:href="#DejaVuSans-30"/>
      </g>
     </g>
    </g>
    <g id="ytick_2">
     <g id="line2d_15">
      <path d="M 54 226.418824 
L 388.8 226.418824 
" clip-path="url(#pf5266dfc56)" style="fill: none; stroke: #b0b0b0; stroke-width: 0.8; stroke-linecap: square"/>
     </g>
     <g id="line2d_16">
      <g>
       <use xlink:href="#me4e58d60d3" x="54" y="226.418824" style="stroke: #000000; stroke-width: 0.8"/>
      </g>
     </g>
     <g id="text_9">
      <!-- 200 -->
      <g transform="translate(27.9125 230.218042)scale(0.1 -0.1)">
       <use xlink:href="#DejaVuSans-32"/>
       <use xlink:href="#DejaVuSans-30" x="63.623047"/>
       <use xlink:href="#DejaVuSans-30" x="127.246094"/>
      </g>
     </g>
    </g>
    <g id="ytick_3">
     <g id="line2d_17">
      <path d="M 54 200.837647 
L 388.8 200.837647 
" clip-path="url(#pf5266dfc56)" style="fill: none; stroke: #b0b0b0; stroke-width: 0.8; stroke-linecap: square"/>
     </g>
     <g id="line2d_18">
      <g>
       <use xlink:href="#me4e58d60d3" x="54" y="200.837647" style="stroke: #000000; stroke-width: 0.8"/>
      </g>
     </g>
     <g id="text_10">
      <!-- 400 -->
      <g transform="translate(27.9125 204.636866)scale(0.1 -0.1)">
       <use xlink:href="#DejaVuSans-34"/>
       <use xlink:href="#DejaVuSans-30" x="63.623047"/>
       <use xlink:href="#DejaVuSans-30" x="127.246094"/>
      </g>
     </g>
    </g>
    <g id="ytick_4">
     <g id="line2d_19">
      <path d="M 54 175.256471 
L 388.8 175.256471 
" clip-path="url(#pf5266dfc56)" style="fill: none; stroke: #b0b0b0; stroke-width: 0.8; stroke-linecap: square"/>
     </g>
     <g id="line2d_20">
      <g>
       <use xlink:href="#me4e58d60d3" x="54" y="175.256471" style="stroke: #000000; stroke-width: 0.8"/>
      </g>
     </g>
     <g id="text_11">
      <!-- 600 -->
      <g transform="translate(27.9125 179.055689)scale(0.1 -0.1)">
       <defs>
        <path id="DejaVuSans-36" d="M 2113 2584 
Q 1688 2584 1439 2293 
Q 1191 2003 1191 1497 
Q 1191 994 1439 701 
Q 1688 409 2113 409 
Q 2538 409 2786 701 
Q 3034 994 3034 1497 
Q 3034 2003 2786 2293 
Q 2538 2584 2113 2584 
z
M 3366 4563 
L 3366 3988 
Q 3128 4100 2886 4159 
Q 2644 4219 2406 4219 
Q 1781 4219 1451 3797 
Q 1122 3375 1075 2522 
Q 1259 2794 1537 2939 
Q 1816 3084 2150 3084 
Q 2853 3084 3261 2657 
Q 3669 2231 3669 1497 
Q 3669 778 3244 343 
Q 2819 -91 2113 -91 
Q 1303 -91 875 529 
Q 447 1150 447 2328 
Q 447 3434 972 4092 
Q 1497 4750 2381 4750 
Q 2619 4750 2861 4703 
Q 3103 4656 3366 4563 
z
" transform="scale(0.015625)"/>
       </defs>
       <use xlink:href="#DejaVuSans-36"/>
       <use xlink:href="#DejaVuSans-30" x="63.623047"/>
       <use xlink:href="#DejaVuSans-30" x="127.246094"/>
      </g>
     </g>
    </g>
    <g id="ytick_5">
     <g id="line2d_21">
      <path d="M 54 149.675294 
L 388.8 149.675294 
" clip-path="url(#pf5266dfc56)" style="fill: none; stroke: #b0b0b0; stroke-width: 0.8; stroke-linecap: square"/>
     </g>
     <g id="line2d_22">
      <g>
       <use xlink:href="#me4e58d60d3" x="54" y="149.675294" style="stroke: #000000; stroke-width: 0.8"/>
      </g>
     </g>
     <g id="text_12">
      <!-- 800 -->
      <g transform="translate(27.9125 153.474513)scale(0.1 -0.1)">
       <defs>
        <path id="DejaVuSans-38" d="M 2034 2216 
Q 1584 2216 1326 1975 
Q 1069 1734 1069 1313 
Q 1069 891 1326 650 
Q 1584 409 2034 409 
Q 2484 409 2743 651 
Q 3003 894 3003 1313 
Q 3003 1734 2745 1975 
Q 2488 2216 2034 2216 
z
M 1403 2484 
Q 997 2584 770 2862 
Q 544 3141 544 3541 
Q 544 4100 942 4425 
Q 1341 4750 2034 4750 
Q 2731 4750 3128 4425 
Q 3525 4100 3525 3541 
Q 3525 3141 3298 2862 
Q 3072 2584 2669 2484 
Q 3125 2378 3379 2068 
Q 3634 1759 3634 1313 
Q 3634 634 3220 271 
Q 2806 -91 2034 -91 
Q 1263 -91 848 271 
Q 434 634 434 1313 
Q 434 1759 690 2068 
Q 947 2378 1403 2484 
z
M 1172 3481 
Q 1172 3119 1398 2916 
Q 1625 2713 2034 2713 
Q 2441 2713 2670 2916 
Q 2900 3119 2900 3481 
Q 2900 3844 2670 4047 
Q 2441 4250 2034 4250 
Q 1625 4250 1398 4047 
Q 1172 3844 1172 3481 
z
" transform="scale(0.015625)"/>
       </defs>
       <use xlink:href="#DejaVuSans-38"/>
       <use xlink:href="#DejaVuSans-30" x="63.623047"/>
       <use xlink:href="#DejaVuSans-30" x="127.246094"/>
      </g>
     </g>
    </g>
    <g id="ytick_6">
     <g id="line2d_23">
      <path d="M 54 124.094118 
L 388.8 124.094118 
" clip-path="url(#pf5266dfc56)" style="fill: none; stroke: #b0b0b0; stroke-width: 0.8; stroke-linecap: square"/>
     </g>
     <g id="line2d_24">
      <g>
       <use xlink:href="#me4e58d60d3" x="54" y="124.094118" style="stroke: #000000; stroke-width: 0.8"/>
      </g>
     </g>
     <g id="text_13">
      <!-- 1000 -->
      <g transform="translate(21.55 127.893336)scale(0.1 -0.1)">
       <use xlink:href="#DejaVuSans-31"/>
       <use xlink:href="#DejaVuSans-30" x="63.623047"/>
       <use xlink:href="#DejaVuSans-30" x="127.246094"/>
       <use xlink:href="#DejaVuSans-30" x="190.869141"/>
      </g>
     </g>
    </g>
    <g id="ytick_7">
     <g id="line2d_25">
      <path d="M 54 98.512941 
L 388.8 98.512941 
" clip-path="url(#pf5266dfc56)" style="fill: none; stroke: #b0b0b0; stroke-width: 0.8; stroke-linecap: square"/>
     </g>
     <g id="line2d_26">
      <g>
       <use xlink:href="#me4e58d60d3" x="54" y="98.512941" style="stroke: #000000; stroke-width: 0.8"/>
      </g>
     </g>
     <g id="text_14">
      <!-- 1200 -->
      <g transform="translate(21.55 102.31216)scale(0.1 -0.1)">
       <use xlink:href="#DejaVuSans-31"/>
       <use xlink:href="#DejaVuSans-32" x="63.623047"/>
       <use xlink:href="#DejaVuSans-30" x="127.246094"/>
       <use xlink:href="#DejaVuSans-30" x="190.869141"/>
      </g>
     </g>
    </g>
    <g id="ytick_8">
     <g id="line2d_27">
      <path d="M 54 72.931765 
L 388.8 72.931765 
" clip-path="url(#pf5266dfc56)" style="fill: none; stroke: #b0b0b0; stroke-width: 0.8; stroke-linecap: square"/>
     </g>
     <g id="line2d_28">
      <g>
       <use xlink:href="#me4e58d60d3" x="54" y="72.931765" style="stroke: #000000; stroke-width: 0.8"/>
      </g>
     </g>
     <g id="text_15">
      <!-- 1400 -->
      <g transform="translate(21.55 76.730983)scale(0.1 -0.1)">
       <use xlink:href="#DejaVuSans-31"/>
       <use xlink:href="#DejaVuSans-34" x="63.623047"/>
       <use xlink:href="#DejaVuSans-30" x="127.246094"/>
       <use xlink:href="#DejaVuSans-30" x="190.869141"/>
      </g>
     </g>
    </g>
    <g id="ytick_9">
     <g id="line2d_29">
      <path d="M 54 47.350588 
L 388.8 47.350588 
" clip-path="url(#pf5266dfc56)" style="fill: none; stroke: #b0b0b0; stroke-width: 0.8; stroke-linecap: square"/>
     </g>
     <g id="line2d_30">
      <g>
       <use xlink:href="#me4e58d60d3" x="54" y="47.350588" style="stroke: #000000; stroke-width: 0.8"/>
      </g>
     </g>
     <g id="text_16">
      <!-- 1600 -->
      <g transform="translate(21.55 51.149807)scale(0.1 -0.1)">
       <use xlink:href="#DejaVuSans-31"/>
       <use xlink:href="#DejaVuSans-36" x="63.623047"/>
       <use xlink:href="#DejaVuSans-30" x="127.246094"/>
       <use xlink:href="#DejaVuSans-30" x="190.869141"/>
      </g>
     </g>
    </g>
    <g id="text_17">
     <!-- count -->
     <g transform="translate(15.470312 157.38625)rotate(-90)scale(0.1 -0.1)">
      <defs>
       <path id="DejaVuSans-63" d="M 3122 3366 
L 3122 2828 
Q 2878 2963 2633 3030 
Q 2388 3097 2138 3097 
Q 1578 3097 1268 2742 
Q 959 2388 959 1747 
Q 959 1106 1268 751 
Q 1578 397 2138 397 
Q 2388 397 2633 464 
Q 2878 531 3122 666 
L 3122 134 
Q 2881 22 2623 -34 
Q 2366 -91 2075 -91 
Q 1284 -91 818 406 
Q 353 903 353 1747 
Q 353 2603 823 3093 
Q 1294 3584 2113 3584 
Q 2378 3584 2631 3529 
Q 2884 3475 3122 3366 
z
" transform="scale(0.015625)"/>
       <path id="DejaVuSans-6f" d="M 1959 3097 
Q 1497 3097 1228 2736 
Q 959 2375 959 1747 
Q 959 1119 1226 758 
Q 1494 397 1959 397 
Q 2419 397 2687 759 
Q 2956 1122 2956 1747 
Q 2956 2369 2687 2733 
Q 2419 3097 1959 3097 
z
M 1959 3584 
Q 2709 3584 3137 3096 
Q 3566 2609 3566 1747 
Q 3566 888 3137 398 
Q 2709 -91 1959 -91 
Q 1206 -91 779 398 
Q 353 888 353 1747 
Q 353 2609 779 3096 
Q 1206 3584 1959 3584 
z
" transform="scale(0.015625)"/>
       <path id="DejaVuSans-75" d="M 544 1381 
L 544 3500 
L 1119 3500 
L 1119 1403 
Q 1119 906 1312 657 
Q 1506 409 1894 409 
Q 2359 409 2629 706 
Q 2900 1003 2900 1516 
L 2900 3500 
L 3475 3500 
L 3475 0 
L 2900 0 
L 2900 538 
Q 2691 219 2414 64 
Q 2138 -91 1772 -91 
Q 1169 -91 856 284 
Q 544 659 544 1381 
z
M 1991 3584 
L 1991 3584 
z
" transform="scale(0.015625)"/>
       <path id="DejaVuSans-74" d="M 1172 4494 
L 1172 3500 
L 2356 3500 
L 2356 3053 
L 1172 3053 
L 1172 1153 
Q 1172 725 1289 603 
Q 1406 481 1766 481 
L 2356 481 
L 2356 0 
L 1766 0 
Q 1100 0 847 248 
Q 594 497 594 1153 
L 594 3053 
L 172 3053 
L 172 3500 
L 594 3500 
L 594 4494 
L 1172 4494 
z
" transform="scale(0.015625)"/>
      </defs>
      <use xlink:href="#DejaVuSans-63"/>
      <use xlink:href="#DejaVuSans-6f" x="54.980469"/>
      <use xlink:href="#DejaVuSans-75" x="116.162109"/>
      <use xlink:href="#DejaVuSans-6e" x="179.541016"/>
      <use xlink:href="#DejaVuSans-74" x="242.919922"/>
     </g>
    </g>
   </g>
   <g id="line2d_31">
    <path d="M 69.218182 220.790965 
L 69.813805 217.465412 
L 70.409429 218.104941 
L 71.005052 219.639812 
L 71.600676 215.418918 
L 72.1963 215.802635 
L 72.791923 217.593318 
L 73.387547 218.104941 
L 73.98317 215.802635 
L 74.578794 221.686306 
L 75.174417 212.477082 
L 75.770041 220.663059 
L 76.365664 220.535153 
L 76.961288 216.442165 
L 77.556912 218.360753 
L 78.152535 215.163106 
L 78.748159 220.151435 
L 79.343782 217.337506 
L 79.939406 216.570071 
L 80.535029 218.744471 
L 81.130653 215.674729 
L 82.3219 218.872376 
L 82.917524 219.895624 
L 83.513147 218.488659 
L 84.108771 215.546824 
L 84.704394 219.511906 
L 85.300018 220.023529 
L 85.895641 216.314259 
L 86.491265 220.151435 
L 87.086888 220.535153 
L 87.682512 220.407247 
L 88.278136 217.849129 
L 88.873759 213.116612 
L 89.469383 217.465412 
L 90.065006 220.663059 
L 90.66063 217.465412 
L 91.256253 215.674729 
L 91.851877 214.267765 
L 92.4475 218.360753 
L 93.043124 219.767718 
L 93.638748 219.511906 
L 94.234371 218.360753 
L 94.829995 215.930541 
L 95.425618 217.465412 
L 96.021242 217.849129 
L 96.616865 212.349176 
L 97.808112 217.849129 
L 98.403736 217.465412 
L 98.99936 220.023529 
L 99.594983 215.546824 
L 100.190607 217.977035 
L 100.78623 218.360753 
L 101.381854 217.849129 
L 101.977477 215.930541 
L 102.573101 214.651482 
L 103.168724 218.104941 
L 103.764348 217.465412 
L 104.359972 217.465412 
L 104.955595 219.384 
L 105.551219 218.872376 
L 106.146842 218.744471 
L 106.742466 217.593318 
L 107.338089 216.953788 
L 107.933713 219.384 
L 108.529336 216.186353 
L 109.12496 219.384 
L 109.720584 216.442165 
L 110.316207 216.570071 
L 110.911831 216.058447 
L 111.507454 220.151435 
L 112.103078 217.977035 
L 112.698701 216.570071 
L 113.294325 217.721224 
L 113.889948 216.953788 
L 114.485572 216.953788 
L 115.081196 216.825882 
L 115.676819 221.430494 
L 116.272443 215.418918 
L 116.868066 218.872376 
L 117.46369 219.128188 
L 118.059313 220.790965 
L 118.654937 215.0352 
L 119.25056 218.744471 
L 119.846184 217.977035 
L 120.441808 218.872376 
L 121.633055 217.721224 
L 122.228678 219.895624 
L 122.824302 218.872376 
L 123.419925 217.465412 
L 124.015549 218.488659 
L 124.611172 214.907294 
L 125.206796 219.767718 
L 125.802419 219.256094 
L 126.398043 216.825882 
L 126.993667 214.907294 
L 127.58929 219.000282 
L 128.184914 218.104941 
L 128.780537 214.651482 
L 130.567408 219.256094 
L 131.163031 214.395671 
L 131.758655 221.430494 
L 132.354279 217.977035 
L 132.949902 219.895624 
L 133.545526 215.163106 
L 134.141149 216.825882 
L 134.736773 220.023529 
L 135.332396 220.918871 
L 135.92802 217.465412 
L 136.523643 218.360753 
L 137.119267 219.767718 
L 137.714891 216.825882 
L 138.310514 219.000282 
L 138.906138 217.977035 
L 139.501761 219.511906 
L 140.097385 220.279341 
L 140.693008 216.697976 
L 141.288632 218.872376 
L 141.884255 216.570071 
L 142.479879 220.790965 
L 143.075503 217.2096 
L 143.671126 215.546824 
L 144.26675 215.546824 
L 144.862373 213.884047 
L 145.457997 217.465412 
L 146.05362 219.000282 
L 146.649244 219.128188 
L 147.244867 216.825882 
L 147.840491 219.639812 
L 148.436115 221.814212 
L 149.627362 219.000282 
L 150.222985 213.116612 
L 150.818609 217.337506 
L 151.414232 223.093271 
L 152.009856 218.744471 
L 152.605479 218.488659 
L 153.201103 217.849129 
L 153.796727 215.930541 
L 154.39235 219.000282 
L 154.987974 214.011953 
L 155.583597 220.918871 
L 156.179221 220.663059 
L 156.774844 214.779388 
L 157.370468 219.000282 
L 157.966091 215.802635 
L 158.561715 214.651482 
L 159.157339 217.081694 
L 159.752962 215.930541 
L 160.348586 217.081694 
L 160.944209 216.953788 
L 161.539833 214.139859 
L 162.135456 215.930541 
L 162.73108 222.709553 
L 163.326703 215.418918 
L 163.922327 218.360753 
L 165.113574 215.930541 
L 165.709198 217.081694 
L 166.304821 219.511906 
L 166.900445 218.360753 
L 167.496068 214.651482 
L 168.091692 216.825882 
L 168.687315 218.232847 
L 169.282939 216.825882 
L 169.878563 219.128188 
L 170.474186 218.872376 
L 171.06981 217.977035 
L 171.665433 219.000282 
L 172.261057 216.058447 
L 172.85668 217.081694 
L 174.047927 215.163106 
L 174.643551 215.163106 
L 175.239175 213.372424 
L 175.834798 214.395671 
L 176.430422 218.104941 
L 177.026045 214.139859 
L 177.621669 220.279341 
L 178.217292 215.0352 
L 178.812916 215.418918 
L 179.408539 215.546824 
L 180.004163 219.256094 
L 180.599787 217.593318 
L 181.19541 214.395671 
L 181.791034 218.872376 
L 182.386657 211.965459 
L 182.982281 219.767718 
L 183.577904 219.511906 
L 184.173528 220.151435 
L 184.769151 213.756141 
L 185.364775 217.721224 
L 185.960399 216.442165 
L 186.556022 217.721224 
L 187.151646 217.849129 
L 187.747269 218.104941 
L 188.342893 214.011953 
L 188.938516 215.546824 
L 189.53414 221.302588 
L 190.129763 219.000282 
L 190.725387 218.744471 
L 191.32101 218.744471 
L 191.916634 218.488659 
L 192.512258 214.907294 
L 193.107881 216.697976 
L 193.703505 213.628235 
L 194.299128 218.872376 
L 194.894752 215.930541 
L 195.490375 216.058447 
L 196.085999 219.256094 
L 196.681622 220.407247 
L 197.277246 216.186353 
L 197.87287 216.442165 
L 198.468493 220.151435 
L 199.064117 216.186353 
L 199.65974 219.384 
L 200.255364 214.011953 
L 200.850987 219.000282 
L 201.446611 221.686306 
L 202.042234 215.418918 
L 202.637858 218.360753 
L 203.233482 212.8608 
L 203.829105 216.442165 
L 204.424729 216.186353 
L 205.020352 218.232847 
L 205.615976 217.465412 
L 206.211599 216.058447 
L 206.807223 217.593318 
L 207.402846 215.674729 
L 207.99847 216.570071 
L 208.594094 217.977035 
L 209.189717 217.337506 
L 209.785341 213.372424 
L 210.380964 219.384 
L 212.167835 214.139859 
L 212.763458 217.337506 
L 213.359082 216.058447 
L 213.954706 216.314259 
L 214.550329 214.907294 
L 215.145953 219.128188 
L 215.741576 216.314259 
L 216.3372 215.546824 
L 216.932823 218.744471 
L 217.528447 219.000282 
L 218.12407 217.593318 
L 218.719694 217.849129 
L 219.315318 215.674729 
L 219.910941 217.849129 
L 220.506565 214.907294 
L 221.102188 219.767718 
L 221.697812 219.000282 
L 222.293435 218.872376 
L 222.889059 218.104941 
L 223.484682 218.232847 
L 224.080306 215.674729 
L 225.271553 218.488659 
L 225.867177 217.081694 
L 227.058424 213.116612 
L 227.654047 211.965459 
L 228.249671 210.558494 
L 228.845294 201.221365 
L 229.440918 205.058541 
L 230.036542 194.442353 
L 230.632165 194.186541 
L 231.227789 189.581929 
L 231.823412 188.047059 
L 232.419036 190.988894 
L 233.014659 197.384188 
L 233.610283 196.488847 
L 235.397154 210.6864 
L 235.992777 212.093365 
L 236.588401 212.477082 
L 237.184024 214.395671 
L 237.779648 218.360753 
L 238.375271 218.232847 
L 238.970895 216.058447 
L 239.566518 216.570071 
L 240.162142 219.128188 
L 240.757766 215.674729 
L 241.353389 216.570071 
L 241.949013 221.5584 
L 242.544636 216.697976 
L 243.14026 212.988706 
L 243.735883 217.593318 
L 244.331507 218.360753 
L 244.92713 217.593318 
L 245.522754 219.000282 
L 246.118378 219.256094 
L 246.714001 215.802635 
L 247.309625 215.163106 
L 247.905248 216.953788 
L 248.500872 219.128188 
L 249.096495 220.151435 
L 249.692119 218.616565 
L 250.287742 217.849129 
L 250.883366 219.384 
L 251.47899 215.930541 
L 252.074613 215.0352 
L 252.670237 219.895624 
L 253.26586 215.418918 
L 253.861484 218.616565 
L 254.457107 215.674729 
L 255.052731 214.267765 
L 255.648354 214.011953 
L 256.243978 215.802635 
L 256.839601 219.895624 
L 258.030849 215.546824 
L 258.626472 215.163106 
L 259.222096 216.953788 
L 259.817719 214.651482 
L 260.413343 219.511906 
L 261.008966 220.023529 
L 261.60459 219.895624 
L 262.200213 221.302588 
L 262.795837 215.0352 
L 263.391461 215.802635 
L 263.987084 218.616565 
L 264.582708 212.221271 
L 265.178331 220.407247 
L 265.773955 213.372424 
L 266.369578 218.616565 
L 266.965202 216.825882 
L 267.560825 217.593318 
L 268.156449 217.849129 
L 268.752073 216.953788 
L 269.347696 219.639812 
L 269.94332 218.360753 
L 270.538943 216.570071 
L 271.134567 219.384 
L 271.73019 215.0352 
L 272.325814 218.616565 
L 272.921437 220.151435 
L 273.517061 218.232847 
L 274.112685 220.790965 
L 274.708308 216.825882 
L 275.303932 215.418918 
L 275.899555 215.418918 
L 277.090802 220.279341 
L 277.686426 215.546824 
L 278.877673 217.721224 
L 279.473297 217.337506 
L 280.06892 216.442165 
L 281.260167 217.2096 
L 281.855791 212.221271 
L 282.451414 214.139859 
L 283.047038 218.360753 
L 283.642661 217.337506 
L 284.238285 215.674729 
L 284.833909 212.8608 
L 285.429532 219.895624 
L 286.620779 217.081694 
L 287.216403 218.872376 
L 287.812026 216.058447 
L 288.40765 217.977035 
L 289.598897 215.163106 
L 290.194521 216.825882 
L 290.790144 218.104941 
L 291.385768 213.628235 
L 291.981391 217.465412 
L 292.577015 217.977035 
L 293.172638 216.697976 
L 293.768262 214.779388 
L 294.363885 219.767718 
L 294.959509 215.418918 
L 295.555133 214.139859 
L 296.150756 217.593318 
L 296.74638 219.511906 
L 297.342003 218.360753 
L 297.937627 214.907294 
L 298.53325 218.232847 
L 299.128874 219.000282 
L 299.724497 215.802635 
L 300.320121 217.2096 
L 300.915745 220.790965 
L 301.511368 218.744471 
L 302.106992 214.395671 
L 303.298239 221.942118 
L 303.893862 220.535153 
L 304.489486 215.163106 
L 305.085109 217.2096 
L 305.680733 217.849129 
L 306.276357 218.744471 
L 306.87198 215.674729 
L 307.467604 216.058447 
L 308.063227 218.488659 
L 308.658851 214.907294 
L 309.850098 220.790965 
L 311.041345 215.674729 
L 311.636969 216.697976 
L 312.232592 219.128188 
L 312.828216 218.488659 
L 314.019463 215.0352 
L 314.615086 214.139859 
L 315.21071 220.918871 
L 315.806333 215.291012 
L 316.401957 217.081694 
L 316.997581 215.0352 
L 317.593204 218.360753 
L 318.188828 217.337506 
L 318.784451 218.104941 
L 319.975698 220.535153 
L 320.571322 215.674729 
L 321.166945 216.953788 
L 321.762569 217.2096 
L 322.358192 214.523576 
L 322.953816 214.779388 
L 323.54944 214.139859 
L 324.145063 217.465412 
L 324.740687 216.825882 
L 325.33631 215.163106 
L 325.931934 219.000282 
L 326.527557 221.686306 
L 327.123181 213.628235 
L 327.718804 216.825882 
L 328.314428 217.593318 
L 328.910052 216.570071 
L 329.505675 219.639812 
L 330.101299 221.5584 
L 330.696922 216.186353 
L 331.292546 217.977035 
L 331.888169 216.058447 
L 332.483793 215.802635 
L 333.079416 218.616565 
L 333.67504 217.593318 
L 334.270664 219.511906 
L 334.866287 217.977035 
L 335.461911 220.023529 
L 336.057534 220.151435 
L 336.653158 217.337506 
L 337.248781 215.930541 
L 337.844405 218.232847 
L 338.440028 216.314259 
L 339.035652 216.314259 
L 339.631276 220.663059 
L 340.226899 215.291012 
L 340.822523 214.651482 
L 341.418146 217.721224 
L 342.01377 218.744471 
L 342.609393 216.058447 
L 343.205017 215.418918 
L 343.80064 218.104941 
L 344.396264 218.872376 
L 344.991888 218.872376 
L 345.587511 212.221271 
L 346.183135 221.5584 
L 346.778758 215.418918 
L 348.565629 218.744471 
L 349.161252 215.163106 
L 349.756876 214.651482 
L 350.3525 219.000282 
L 350.948123 216.058447 
L 351.543747 217.465412 
L 352.13937 215.291012 
L 352.734994 220.023529 
L 353.330617 216.953788 
L 353.926241 219.256094 
L 354.521864 215.802635 
L 355.117488 216.186353 
L 355.713112 218.488659 
L 356.308735 219.384 
L 356.904359 215.674729 
L 357.499982 219.000282 
L 358.095606 216.825882 
L 358.691229 213.500329 
L 359.286853 215.163106 
L 359.882476 212.8608 
L 360.4781 218.232847 
L 361.073724 221.430494 
L 361.669347 220.407247 
L 362.264971 214.907294 
L 362.860594 217.849129 
L 363.456218 218.360753 
L 364.051841 219.767718 
L 364.647465 219.384 
L 365.243088 217.593318 
L 365.838712 216.186353 
L 366.434336 219.256094 
L 367.029959 214.779388 
L 367.625583 219.639812 
L 368.221206 216.186353 
L 368.81683 216.825882 
L 369.412453 216.825882 
L 370.008077 216.058447 
L 370.6037 214.907294 
L 371.199324 217.977035 
L 371.794948 219.895624 
L 372.390571 219.895624 
L 372.986195 217.081694 
L 373.581818 216.058447 
L 373.581818 216.058447 
" clip-path="url(#pf5266dfc56)" style="fill: none; stroke: #1f77b4; stroke-width: 1.5; stroke-linecap: square"/>
   </g>
   <g id="line2d_32">
    <path d="M 69.218182 187.535435 
L 69.813805 185.488941 
L 70.409429 188.047059 
L 71.005052 189.326118 
L 71.600676 181.268047 
L 72.1963 189.709835 
L 72.791923 190.988894 
L 73.387547 183.698259 
L 73.98317 180.372706 
L 74.578794 187.023812 
L 75.174417 183.186635 
L 75.770041 186.512188 
L 76.365664 188.047059 
L 76.961288 186.768 
L 77.556912 187.663341 
L 78.152535 189.070306 
L 78.748159 187.663341 
L 79.343782 187.919153 
L 79.939406 184.081976 
L 80.535029 187.151718 
L 81.130653 187.023812 
L 81.726276 187.663341 
L 82.3219 182.802918 
L 82.917524 189.198212 
L 83.513147 188.814494 
L 84.108771 187.919153 
L 84.704394 195.4656 
L 85.300018 195.209788 
L 85.895641 184.721506 
L 86.491265 185.872659 
L 87.086888 188.174965 
L 87.682512 186.256376 
L 88.278136 186.256376 
L 88.873759 186.512188 
L 89.469383 187.919153 
L 90.065006 186.128471 
L 90.66063 183.698259 
L 91.256253 190.349365 
L 91.851877 185.616847 
L 92.4475 184.5936 
L 93.638748 188.814494 
L 94.234371 182.802918 
L 94.829995 188.174965 
L 95.425618 182.930824 
L 96.021242 189.709835 
L 96.616865 186.000565 
L 97.212489 190.093553 
L 97.808112 187.151718 
L 98.403736 188.430776 
L 98.99936 180.500612 
L 99.594983 190.477271 
L 100.190607 184.721506 
L 100.78623 187.407529 
L 101.381854 191.628424 
L 101.977477 186.768 
L 102.573101 191.884235 
L 103.168724 185.233129 
L 103.764348 187.023812 
L 104.359972 189.581929 
L 104.955595 187.535435 
L 105.551219 184.081976 
L 106.146842 190.349365 
L 106.742466 188.686588 
L 107.338089 183.570353 
L 107.933713 189.198212 
L 108.529336 191.244706 
L 109.12496 185.361035 
L 109.720584 187.151718 
L 110.316207 185.872659 
L 110.911831 186.000565 
L 111.507454 188.9424 
L 112.103078 190.093553 
L 112.698701 184.849412 
L 113.294325 186.000565 
L 113.889948 180.756424 
L 114.485572 190.988894 
L 115.081196 187.407529 
L 115.676819 188.558682 
L 116.272443 184.465694 
L 116.868066 182.4192 
L 117.46369 189.837741 
L 118.059313 189.326118 
L 118.654937 186.384282 
L 119.25056 186.512188 
L 119.846184 186.128471 
L 120.441808 186.768 
L 121.037431 188.814494 
L 121.633055 188.686588 
L 122.228678 190.605176 
L 122.824302 185.872659 
L 123.419925 185.744753 
L 124.015549 185.105224 
L 124.611172 183.570353 
L 125.206796 186.512188 
L 125.802419 187.791247 
L 126.398043 186.895906 
L 126.993667 182.163388 
L 127.58929 189.198212 
L 128.184914 187.151718 
L 128.780537 184.465694 
L 129.376161 179.861082 
L 129.971784 183.698259 
L 130.567408 186.000565 
L 131.163031 187.407529 
L 131.758655 188.302871 
L 132.354279 186.895906 
L 133.545526 189.965647 
L 134.141149 185.233129 
L 134.736773 188.430776 
L 135.332396 190.988894 
L 135.92802 182.930824 
L 136.523643 188.047059 
L 137.119267 189.326118 
L 137.714891 192.140047 
L 138.310514 183.698259 
L 138.906138 182.035482 
L 139.501761 188.686588 
L 140.097385 189.709835 
L 140.693008 189.581929 
L 141.288632 186.384282 
L 141.884255 187.279624 
L 142.479879 183.058729 
L 143.075503 184.209882 
L 143.671126 185.744753 
L 144.26675 186.640094 
L 144.862373 183.954071 
L 145.457997 188.430776 
L 146.05362 183.058729 
L 146.649244 186.128471 
L 147.244867 186.384282 
L 147.840491 186.768 
L 148.436115 185.361035 
L 149.031738 187.023812 
L 149.627362 179.988988 
L 150.818609 185.233129 
L 151.414232 188.9424 
L 152.009856 183.698259 
L 152.605479 191.244706 
L 153.201103 190.860988 
L 153.796727 186.768 
L 154.987974 192.779576 
L 155.583597 185.488941 
L 156.179221 192.779576 
L 157.966091 186.000565 
L 158.561715 182.930824 
L 159.157339 181.268047 
L 159.752962 187.151718 
L 160.348586 180.500612 
L 161.539833 187.663341 
L 162.135456 189.326118 
L 162.73108 186.256376 
L 163.326703 189.198212 
L 163.922327 186.640094 
L 164.517951 182.547106 
L 165.113574 188.9424 
L 165.709198 189.070306 
L 166.304821 188.430776 
L 166.900445 188.047059 
L 167.496068 185.361035 
L 168.091692 190.988894 
L 168.687315 190.221459 
L 169.282939 182.930824 
L 169.878563 189.198212 
L 170.474186 184.337788 
L 171.06981 184.721506 
L 171.665433 187.279624 
L 172.261057 184.721506 
L 172.85668 186.128471 
L 173.452304 188.9424 
L 174.047927 187.663341 
L 174.643551 188.430776 
L 175.239175 190.093553 
L 175.834798 186.256376 
L 176.430422 183.314541 
L 177.026045 188.302871 
L 177.621669 189.965647 
L 178.217292 188.9424 
L 178.812916 188.430776 
L 179.408539 186.000565 
L 180.004163 189.326118 
L 180.599787 186.512188 
L 181.19541 187.023812 
L 181.791034 189.581929 
L 182.386657 188.558682 
L 182.982281 182.035482 
L 184.173528 190.605176 
L 184.769151 182.291294 
L 185.364775 190.477271 
L 185.960399 190.221459 
L 186.556022 183.954071 
L 187.151646 187.407529 
L 187.747269 189.454024 
L 188.342893 189.709835 
L 188.938516 188.174965 
L 189.53414 184.977318 
L 190.129763 189.454024 
L 190.725387 189.326118 
L 191.32101 187.791247 
L 191.916634 190.860988 
L 192.512258 186.000565 
L 193.107881 187.151718 
L 193.703505 191.500518 
L 194.299128 191.372612 
L 194.894752 185.233129 
L 195.490375 183.826165 
L 196.085999 187.663341 
L 196.681622 188.686588 
L 197.277246 184.209882 
L 197.87287 183.442447 
L 198.468493 187.407529 
L 199.064117 185.361035 
L 200.255364 191.628424 
L 200.850987 190.221459 
L 201.446611 191.500518 
L 202.042234 187.919153 
L 202.637858 186.640094 
L 203.233482 183.186635 
L 203.829105 187.151718 
L 204.424729 193.547012 
L 205.020352 188.9424 
L 205.615976 185.361035 
L 206.211599 192.907482 
L 206.807223 186.895906 
L 207.402846 185.872659 
L 207.99847 184.5936 
L 209.189717 188.558682 
L 210.380964 189.965647 
L 210.976588 190.349365 
L 211.572211 187.919153 
L 212.167835 186.768 
L 212.763458 192.651671 
L 213.359082 187.663341 
L 214.550329 189.837741 
L 215.145953 184.465694 
L 215.741576 186.000565 
L 216.3372 183.186635 
L 216.932823 186.256376 
L 217.528447 188.430776 
L 218.12407 188.686588 
L 218.719694 186.128471 
L 219.315318 179.221553 
L 219.910941 185.616847 
L 220.506565 185.488941 
L 221.102188 185.105224 
L 221.697812 186.128471 
L 222.293435 186.512188 
L 222.889059 181.395953 
L 223.484682 188.558682 
L 224.080306 190.988894 
L 224.67593 188.686588 
L 225.271553 182.547106 
L 225.867177 185.872659 
L 226.4628 186.256376 
L 227.058424 188.047059 
L 227.654047 188.047059 
L 228.249671 190.605176 
L 228.845294 186.640094 
L 229.440918 186.256376 
L 230.036542 188.558682 
L 230.632165 188.174965 
L 231.227789 185.105224 
L 231.823412 184.337788 
L 232.419036 186.640094 
L 233.014659 188.430776 
L 233.610283 181.268047 
L 234.205906 190.349365 
L 234.80153 189.326118 
L 235.397154 184.081976 
L 235.992777 187.919153 
L 236.588401 190.093553 
L 237.184024 187.663341 
L 237.779648 188.174965 
L 238.375271 185.233129 
L 238.970895 188.047059 
L 239.566518 189.326118 
L 240.162142 189.070306 
L 240.757766 182.4192 
L 241.353389 184.977318 
L 241.949013 186.768 
L 242.544636 187.535435 
L 243.14026 184.5936 
L 243.735883 189.709835 
L 244.331507 183.314541 
L 245.522754 189.198212 
L 246.118378 183.826165 
L 246.714001 184.209882 
L 247.309625 187.023812 
L 247.905248 188.430776 
L 248.500872 185.872659 
L 249.096495 189.581929 
L 249.692119 185.361035 
L 250.883366 187.919153 
L 251.47899 188.174965 
L 252.074613 187.279624 
L 252.670237 188.9424 
L 253.26586 177.558776 
L 253.861484 187.407529 
L 254.457107 183.058729 
L 255.052731 190.860988 
L 255.648354 186.000565 
L 256.243978 184.081976 
L 256.839601 175.384376 
L 257.435225 175.256471 
L 258.030849 170.523953 
L 258.626472 161.058918 
L 259.817719 151.849694 
L 260.413343 137.780047 
L 261.008966 146.733459 
L 261.60459 144.047435 
L 262.200213 137.268424 
L 262.795837 147.245082 
L 263.391461 154.024094 
L 263.987084 156.3264 
L 264.582708 166.814682 
L 265.773955 179.988988 
L 266.369578 179.349459 
L 266.965202 187.919153 
L 267.560825 191.628424 
L 268.156449 188.174965 
L 268.752073 190.349365 
L 269.347696 181.268047 
L 269.94332 183.186635 
L 270.538943 190.349365 
L 271.73019 185.233129 
L 272.325814 187.151718 
L 272.921437 183.058729 
L 273.517061 190.221459 
L 274.112685 188.814494 
L 274.708308 182.4192 
L 275.303932 191.500518 
L 275.899555 185.616847 
L 276.495179 190.733082 
L 277.090802 187.791247 
L 277.686426 191.500518 
L 278.282049 189.581929 
L 278.877673 185.233129 
L 279.473297 189.837741 
L 280.06892 182.675012 
L 280.664544 181.523859 
L 281.260167 186.256376 
L 281.855791 183.186635 
L 282.451414 181.907576 
L 283.047038 191.756329 
L 283.642661 186.384282 
L 284.833909 190.988894 
L 285.429532 182.291294 
L 286.025156 189.837741 
L 286.620779 185.744753 
L 287.216403 185.872659 
L 287.812026 188.9424 
L 288.40765 189.965647 
L 289.003273 189.965647 
L 289.598897 190.860988 
L 290.194521 185.488941 
L 290.790144 188.047059 
L 291.385768 189.581929 
L 291.981391 182.035482 
L 292.577015 189.198212 
L 293.172638 188.9424 
L 293.768262 186.000565 
L 294.363885 189.965647 
L 294.959509 189.070306 
L 295.555133 185.616847 
L 296.150756 186.256376 
L 296.74638 191.1168 
L 297.937627 181.012235 
L 298.53325 187.791247 
L 299.128874 185.872659 
L 300.320121 186.768 
L 300.915745 188.814494 
L 301.511368 187.663341 
L 302.106992 181.907576 
L 302.702615 182.547106 
L 303.298239 183.442447 
L 303.893862 188.047059 
L 304.489486 188.814494 
L 305.085109 189.326118 
L 305.680733 188.302871 
L 306.276357 190.477271 
L 306.87198 186.895906 
L 307.467604 188.047059 
L 308.063227 181.012235 
L 308.658851 190.988894 
L 309.254474 187.151718 
L 309.850098 188.174965 
L 310.445721 188.430776 
L 311.041345 191.1168 
L 311.636969 191.372612 
L 312.232592 186.512188 
L 312.828216 185.105224 
L 313.423839 188.558682 
L 314.019463 187.407529 
L 314.615086 185.361035 
L 315.21071 189.070306 
L 315.806333 184.977318 
L 316.401957 188.558682 
L 316.997581 186.384282 
L 317.593204 190.733082 
L 318.188828 180.500612 
L 318.784451 189.326118 
L 319.380075 187.535435 
L 319.975698 190.221459 
L 320.571322 189.326118 
L 321.166945 183.698259 
L 321.762569 191.756329 
L 322.358192 189.965647 
L 322.953816 192.012141 
L 323.54944 185.105224 
L 324.145063 186.768 
L 324.740687 186.128471 
L 325.33631 187.919153 
L 325.931934 185.233129 
L 326.527557 183.826165 
L 327.718804 188.430776 
L 328.314428 184.081976 
L 328.910052 181.907576 
L 329.505675 184.337788 
L 330.101299 185.105224 
L 330.696922 189.198212 
L 331.292546 188.814494 
L 331.888169 184.849412 
L 332.483793 189.198212 
L 333.079416 189.454024 
L 333.67504 187.151718 
L 334.270664 188.047059 
L 334.866287 182.930824 
L 335.461911 187.919153 
L 336.057534 188.9424 
L 336.653158 183.186635 
L 337.248781 189.070306 
L 337.844405 182.547106 
L 338.440028 184.081976 
L 339.035652 188.814494 
L 339.631276 185.872659 
L 340.226899 190.860988 
L 340.822523 185.488941 
L 341.418146 188.047059 
L 342.01377 179.733176 
L 342.609393 186.384282 
L 343.205017 191.372612 
L 343.80064 186.000565 
L 344.396264 189.454024 
L 344.991888 189.070306 
L 345.587511 187.535435 
L 346.183135 189.198212 
L 346.778758 189.454024 
L 347.374382 190.860988 
L 347.970005 185.872659 
L 348.565629 185.488941 
L 349.161252 184.5936 
L 349.756876 188.9424 
L 350.3525 184.721506 
L 351.543747 190.221459 
L 352.13937 185.233129 
L 352.734994 184.209882 
L 353.330617 190.093553 
L 353.926241 185.872659 
L 354.521864 187.535435 
L 355.117488 188.047059 
L 355.713112 183.442447 
L 356.308735 188.174965 
L 356.904359 188.558682 
L 357.499982 188.302871 
L 358.095606 185.616847 
L 358.691229 187.535435 
L 359.286853 188.047059 
L 359.882476 191.884235 
L 360.4781 189.198212 
L 361.073724 188.430776 
L 361.669347 187.407529 
L 362.264971 193.2912 
L 362.860594 183.442447 
L 363.456218 185.744753 
L 364.051841 184.849412 
L 364.647465 189.070306 
L 365.243088 190.093553 
L 365.838712 187.407529 
L 366.434336 186.000565 
L 367.029959 185.872659 
L 367.625583 188.302871 
L 368.221206 188.814494 
L 369.412453 182.547106 
L 370.008077 186.000565 
L 370.6037 190.349365 
L 371.199324 183.570353 
L 371.794948 187.407529 
L 372.390571 182.547106 
L 372.986195 187.919153 
L 373.581818 183.698259 
L 373.581818 183.698259 
" clip-path="url(#pf5266dfc56)" style="fill: none; stroke: #ff7f0e; stroke-width: 1.5; stroke-linecap: square"/>
   </g>
   <g id="line2d_33">
    <path d="M 69.218182 243.686118 
L 69.813805 242.023341 
L 70.409429 242.407059 
L 71.005052 243.558212 
L 71.600676 244.197741 
L 72.1963 245.093082 
L 72.791923 243.941929 
L 73.387547 243.046588 
L 73.98317 242.407059 
L 74.578794 242.918682 
L 75.174417 243.814024 
L 75.770041 243.046588 
L 76.365664 243.046588 
L 76.961288 245.732612 
L 77.556912 245.732612 
L 78.152535 245.348894 
L 78.748159 247.139576 
L 79.343782 245.093082 
L 79.939406 243.686118 
L 80.535029 243.430306 
L 81.130653 243.941929 
L 81.726276 245.220988 
L 82.3219 242.407059 
L 82.917524 244.965176 
L 83.513147 245.348894 
L 84.108771 243.814024 
L 84.704394 244.325647 
L 85.300018 243.174494 
L 85.895641 243.430306 
L 86.491265 244.709365 
L 87.086888 244.581459 
L 87.682512 244.965176 
L 88.278136 242.918682 
L 88.873759 244.069835 
L 89.469383 242.790776 
L 90.065006 243.686118 
L 90.66063 243.174494 
L 91.256253 241.895435 
L 91.851877 244.837271 
L 92.4475 243.3024 
L 93.043124 245.220988 
L 93.638748 244.325647 
L 94.829995 241.639624 
L 95.425618 244.709365 
L 96.021242 244.581459 
L 96.616865 244.069835 
L 97.212489 242.918682 
L 97.808112 243.814024 
L 98.403736 244.453553 
L 98.99936 242.662871 
L 99.594983 243.814024 
L 100.190607 243.174494 
L 100.78623 243.686118 
L 101.381854 243.686118 
L 101.977477 244.325647 
L 103.168724 242.918682 
L 103.764348 245.093082 
L 104.359972 242.151247 
L 104.955595 243.174494 
L 105.551219 243.686118 
L 106.146842 245.4768 
L 106.742466 245.860518 
L 107.338089 244.069835 
L 107.933713 243.430306 
L 108.529336 244.197741 
L 109.720584 244.709365 
L 110.911831 242.279153 
L 111.507454 244.709365 
L 112.698701 242.023341 
L 113.294325 244.453553 
L 113.889948 242.790776 
L 114.485572 244.709365 
L 115.081196 245.4768 
L 115.676819 243.814024 
L 116.272443 245.348894 
L 116.868066 244.837271 
L 117.46369 242.534965 
L 118.059313 244.581459 
L 118.654937 244.965176 
L 119.846184 243.174494 
L 120.441808 240.232659 
L 121.037431 243.686118 
L 121.633055 242.918682 
L 122.228678 243.686118 
L 122.824302 244.965176 
L 123.419925 242.534965 
L 124.015549 243.941929 
L 124.611172 243.941929 
L 125.206796 245.093082 
L 125.802419 243.686118 
L 126.398043 243.814024 
L 126.993667 245.4768 
L 127.58929 242.790776 
L 128.184914 243.430306 
L 128.780537 242.918682 
L 129.376161 243.941929 
L 129.971784 243.686118 
L 130.567408 244.581459 
L 131.163031 244.965176 
L 132.354279 244.453553 
L 132.949902 242.023341 
L 133.545526 244.069835 
L 134.736773 243.558212 
L 135.332396 242.407059 
L 135.92802 243.558212 
L 136.523643 243.046588 
L 137.119267 245.4768 
L 137.714891 242.407059 
L 138.310514 243.814024 
L 138.906138 242.279153 
L 139.501761 243.814024 
L 140.097385 244.197741 
L 140.693008 243.3024 
L 141.288632 244.453553 
L 141.884255 245.860518 
L 143.075503 241.767529 
L 143.671126 243.814024 
L 144.26675 244.069835 
L 144.862373 243.686118 
L 145.457997 241.639624 
L 146.649244 244.197741 
L 147.244867 244.709365 
L 147.840491 243.3024 
L 148.436115 244.069835 
L 149.031738 243.174494 
L 149.627362 245.988424 
L 150.222985 244.709365 
L 150.818609 242.279153 
L 151.414232 242.790776 
L 152.009856 242.662871 
L 152.605479 244.325647 
L 153.201103 243.046588 
L 153.796727 242.279153 
L 154.39235 243.174494 
L 154.987974 243.814024 
L 155.583597 246.500047 
L 156.179221 246.244235 
L 156.774844 244.709365 
L 157.370468 245.093082 
L 158.561715 243.814024 
L 159.157339 244.709365 
L 159.752962 243.046588 
L 160.348586 243.174494 
L 160.944209 245.220988 
L 161.539833 244.197741 
L 162.135456 245.604706 
L 162.73108 243.558212 
L 163.326703 245.732612 
L 163.922327 243.686118 
L 164.517951 243.941929 
L 165.709198 242.790776 
L 166.304821 243.3024 
L 166.900445 243.558212 
L 167.496068 241.639624 
L 168.091692 243.814024 
L 168.687315 243.814024 
L 169.282939 244.709365 
L 169.878563 245.093082 
L 171.06981 242.790776 
L 171.665433 244.965176 
L 172.261057 243.558212 
L 172.85668 242.790776 
L 173.452304 243.046588 
L 174.047927 242.151247 
L 174.643551 242.790776 
L 175.239175 242.790776 
L 175.834798 244.709365 
L 176.430422 244.453553 
L 177.026045 245.348894 
L 177.621669 244.453553 
L 179.408539 242.534965 
L 180.004163 244.325647 
L 180.599787 245.732612 
L 181.19541 243.814024 
L 182.386657 244.837271 
L 182.982281 244.197741 
L 183.577904 243.941929 
L 184.173528 243.430306 
L 184.769151 243.941929 
L 185.364775 241.511718 
L 186.556022 244.069835 
L 187.151646 243.686118 
L 187.747269 243.046588 
L 188.342893 243.174494 
L 189.53414 245.988424 
L 190.129763 244.709365 
L 190.725387 242.279153 
L 191.32101 244.965176 
L 191.916634 245.988424 
L 192.512258 244.197741 
L 193.107881 241.383812 
L 193.703505 243.558212 
L 194.299128 243.046588 
L 194.894752 244.197741 
L 196.085999 242.662871 
L 196.681622 243.046588 
L 197.277246 244.069835 
L 197.87287 243.558212 
L 198.468493 244.581459 
L 199.064117 245.348894 
L 199.65974 244.197741 
L 200.255364 245.348894 
L 200.850987 244.069835 
L 201.446611 242.407059 
L 202.042234 242.790776 
L 202.637858 243.941929 
L 203.233482 244.325647 
L 203.829105 244.325647 
L 204.424729 243.814024 
L 205.020352 243.046588 
L 205.615976 241.639624 
L 206.211599 244.197741 
L 207.402846 242.534965 
L 207.99847 242.534965 
L 208.594094 243.3024 
L 209.189717 243.3024 
L 209.785341 245.4768 
L 210.380964 244.709365 
L 210.976588 245.860518 
L 211.572211 242.023341 
L 212.167835 244.325647 
L 213.359082 242.662871 
L 213.954706 244.709365 
L 214.550329 244.453553 
L 215.145953 241.511718 
L 215.741576 245.220988 
L 216.3372 243.558212 
L 216.932823 242.918682 
L 218.12407 244.581459 
L 218.719694 242.534965 
L 219.315318 243.686118 
L 219.910941 243.430306 
L 220.506565 241.895435 
L 221.102188 243.686118 
L 221.697812 240.488471 
L 222.293435 236.523388 
L 222.889059 237.290824 
L 223.484682 232.302494 
L 224.080306 231.662965 
L 224.67593 233.197835 
L 225.271553 229.616471 
L 225.867177 229.872282 
L 226.4628 228.976941 
L 227.058424 231.279247 
L 227.654047 232.046682 
L 228.249671 234.6048 
L 228.845294 235.500141 
L 229.440918 239.337318 
L 230.036542 241.000094 
L 230.632165 239.465224 
L 231.227789 240.872188 
L 231.823412 243.941929 
L 232.419036 242.534965 
L 233.014659 244.197741 
L 233.610283 243.686118 
L 234.205906 244.325647 
L 234.80153 243.3024 
L 235.397154 244.325647 
L 235.992777 243.3024 
L 236.588401 245.348894 
L 237.184024 243.174494 
L 237.779648 244.197741 
L 238.375271 244.069835 
L 238.970895 243.558212 
L 239.566518 243.686118 
L 240.162142 242.279153 
L 240.757766 243.174494 
L 241.353389 245.988424 
L 241.949013 244.197741 
L 242.544636 244.581459 
L 243.14026 243.558212 
L 243.735883 242.918682 
L 244.331507 245.4768 
L 244.92713 242.790776 
L 245.522754 243.046588 
L 246.118378 243.174494 
L 246.714001 244.197741 
L 247.309625 243.046588 
L 247.905248 245.220988 
L 248.500872 244.325647 
L 249.096495 242.662871 
L 249.692119 244.709365 
L 250.287742 245.604706 
L 250.883366 243.686118 
L 251.47899 243.941929 
L 252.074613 243.686118 
L 252.670237 241.895435 
L 253.26586 243.558212 
L 254.457107 242.918682 
L 255.648354 245.093082 
L 256.243978 245.604706 
L 256.839601 243.430306 
L 257.435225 243.430306 
L 258.030849 244.709365 
L 258.626472 243.941929 
L 259.222096 241.255906 
L 259.817719 244.965176 
L 260.413343 244.325647 
L 261.008966 245.604706 
L 261.60459 244.325647 
L 262.200213 243.430306 
L 262.795837 244.197741 
L 263.391461 244.069835 
L 263.987084 243.558212 
L 264.582708 243.3024 
L 265.178331 243.941929 
L 266.369578 243.430306 
L 266.965202 243.3024 
L 267.560825 243.046588 
L 268.752073 244.197741 
L 269.347696 243.174494 
L 269.94332 245.093082 
L 270.538943 244.837271 
L 271.134567 242.534965 
L 271.73019 244.197741 
L 272.325814 243.814024 
L 272.921437 244.069835 
L 273.517061 241.895435 
L 274.112685 244.581459 
L 274.708308 242.662871 
L 275.303932 244.197741 
L 275.899555 245.093082 
L 276.495179 245.732612 
L 277.090802 241.255906 
L 278.282049 244.325647 
L 278.877673 243.430306 
L 279.473297 243.686118 
L 280.06892 242.151247 
L 280.664544 243.941929 
L 281.260167 243.686118 
L 281.855791 243.3024 
L 282.451414 242.662871 
L 283.047038 244.453553 
L 283.642661 245.220988 
L 284.238285 244.197741 
L 284.833909 245.4768 
L 285.429532 243.686118 
L 286.025156 243.941929 
L 286.620779 244.453553 
L 287.216403 244.709365 
L 287.812026 243.174494 
L 288.40765 243.430306 
L 289.003273 243.941929 
L 289.598897 245.604706 
L 290.194521 241.767529 
L 290.790144 243.686118 
L 291.385768 245.093082 
L 291.981391 243.941929 
L 292.577015 244.069835 
L 293.172638 243.174494 
L 293.768262 242.918682 
L 294.959509 243.941929 
L 295.555133 243.3024 
L 296.150756 243.941929 
L 296.74638 244.197741 
L 297.342003 242.407059 
L 297.937627 243.558212 
L 298.53325 243.174494 
L 299.128874 243.686118 
L 299.724497 243.814024 
L 300.320121 243.558212 
L 300.915745 243.686118 
L 301.511368 243.558212 
L 302.106992 243.686118 
L 302.702615 242.790776 
L 303.893862 244.069835 
L 304.489486 244.197741 
L 305.085109 242.279153 
L 305.680733 245.604706 
L 306.276357 243.558212 
L 306.87198 243.3024 
L 307.467604 242.662871 
L 308.063227 243.686118 
L 308.658851 245.348894 
L 309.254474 244.837271 
L 309.850098 243.046588 
L 310.445721 244.069835 
L 311.041345 243.558212 
L 311.636969 244.837271 
L 312.828216 243.941929 
L 313.423839 244.325647 
L 314.019463 242.407059 
L 314.615086 244.069835 
L 315.21071 246.116329 
L 315.806333 245.860518 
L 316.401957 242.151247 
L 316.997581 246.627953 
L 317.593204 243.046588 
L 318.188828 244.197741 
L 318.784451 245.093082 
L 319.380075 245.220988 
L 319.975698 243.558212 
L 320.571322 243.174494 
L 321.166945 242.407059 
L 321.762569 243.046588 
L 322.358192 241.895435 
L 322.953816 245.348894 
L 323.54944 243.3024 
L 324.145063 245.4768 
L 324.740687 244.453553 
L 325.33631 244.581459 
L 325.931934 243.558212 
L 326.527557 241.255906 
L 327.123181 244.709365 
L 327.718804 242.790776 
L 328.314428 243.430306 
L 328.910052 243.814024 
L 329.505675 243.430306 
L 330.101299 245.093082 
L 330.696922 243.430306 
L 331.292546 244.453553 
L 331.888169 242.790776 
L 332.483793 245.348894 
L 333.079416 243.814024 
L 333.67504 243.941929 
L 334.270664 245.220988 
L 334.866287 243.686118 
L 335.461911 242.790776 
L 336.057534 241.639624 
L 337.248781 245.093082 
L 337.844405 244.837271 
L 338.440028 244.197741 
L 339.035652 243.3024 
L 339.631276 243.430306 
L 340.226899 243.430306 
L 340.822523 241.639624 
L 341.418146 242.023341 
L 342.01377 244.581459 
L 342.609393 241.511718 
L 343.205017 241.511718 
L 343.80064 244.965176 
L 344.396264 243.814024 
L 344.991888 245.093082 
L 345.587511 242.279153 
L 346.183135 244.965176 
L 346.778758 246.372141 
L 347.374382 243.686118 
L 347.970005 245.604706 
L 348.565629 245.4768 
L 349.161252 244.197741 
L 350.948123 243.174494 
L 351.543747 246.627953 
L 352.13937 243.046588 
L 352.734994 243.814024 
L 353.330617 242.790776 
L 353.926241 243.941929 
L 354.521864 242.790776 
L 355.117488 243.558212 
L 355.713112 243.3024 
L 356.308735 243.558212 
L 356.904359 242.790776 
L 357.499982 243.558212 
L 358.095606 245.860518 
L 358.691229 243.3024 
L 359.286853 243.430306 
L 359.882476 244.453553 
L 360.4781 244.069835 
L 361.073724 244.069835 
L 361.669347 244.709365 
L 362.860594 244.197741 
L 363.456218 243.430306 
L 364.051841 243.174494 
L 364.647465 244.197741 
L 365.243088 244.709365 
L 365.838712 244.581459 
L 366.434336 243.3024 
L 367.029959 244.837271 
L 367.625583 242.023341 
L 368.221206 243.558212 
L 368.81683 243.686118 
L 369.412453 242.151247 
L 370.008077 243.046588 
L 370.6037 241.383812 
L 371.199324 242.918682 
L 371.794948 243.174494 
L 372.390571 241.511718 
L 372.986195 244.325647 
L 373.581818 242.790776 
L 373.581818 242.790776 
" clip-path="url(#pf5266dfc56)" style="fill: none; stroke: #2ca02c; stroke-width: 1.5; stroke-linecap: square"/>
   </g>
   <g id="patch_3">
    <path d="M 54 252 
L 54 34.56 
" style="fill: none; stroke: #000000; stroke-width: 0.8; stroke-linejoin: miter; stroke-linecap: square"/>
   </g>
   <g id="patch_4">
    <path d="M 388.8 252 
L 388.8 34.56 
" style="fill: none; stroke: #000000; stroke-width: 0.8; stroke-linejoin: miter; stroke-linecap: square"/>
   </g>
   <g id="patch_5">
    <path d="M 54 252 
L 388.8 252 
" style="fill: none; stroke: #000000; stroke-width: 0.8; stroke-linejoin: miter; stroke-linecap: square"/>
   </g>
   <g id="patch_6">
    <path d="M 54 34.56 
L 388.8 34.56 
" style="fill: none; stroke: #000000; stroke-width: 0.8; stroke-linejoin: miter; stroke-linecap: square"/>
   </g>
   <g id="text_18">
    <!-- Label 1 -->
    <g transform="translate(199.487813 28.56)scale(0.12 -0.12)">
     <defs>
      <path id="DejaVuSans-4c" d="M 628 4666 
L 1259 4666 
L 1259 531 
L 3531 531 
L 3531 0 
L 628 0 
L 628 4666 
z
" transform="scale(0.015625)"/>
      <path id="DejaVuSans-61" d="M 2194 1759 
Q 1497 1759 1228 1600 
Q 959 1441 959 1056 
Q 959 750 1161 570 
Q 1363 391 1709 391 
Q 2188 391 2477 730 
Q 2766 1069 2766 1631 
L 2766 1759 
L 2194 1759 
z
M 3341 1997 
L 3341 0 
L 2766 0 
L 2766 531 
Q 2569 213 2275 61 
Q 1981 -91 1556 -91 
Q 1019 -91 701 211 
Q 384 513 384 1019 
Q 384 1609 779 1909 
Q 1175 2209 1959 2209 
L 2766 2209 
L 2766 2266 
Q 2766 2663 2505 2880 
Q 2244 3097 1772 3097 
Q 1472 3097 1187 3025 
Q 903 2953 641 2809 
L 641 3341 
Q 956 3463 1253 3523 
Q 1550 3584 1831 3584 
Q 2591 3584 2966 3190 
Q 3341 2797 3341 1997 
z
" transform="scale(0.015625)"/>
      <path id="DejaVuSans-65" d="M 3597 1894 
L 3597 1613 
L 953 1613 
Q 991 1019 1311 708 
Q 1631 397 2203 397 
Q 2534 397 2845 478 
Q 3156 559 3463 722 
L 3463 178 
Q 3153 47 2828 -22 
Q 2503 -91 2169 -91 
Q 1331 -91 842 396 
Q 353 884 353 1716 
Q 353 2575 817 3079 
Q 1281 3584 2069 3584 
Q 2775 3584 3186 3129 
Q 3597 2675 3597 1894 
z
M 3022 2063 
Q 3016 2534 2758 2815 
Q 2500 3097 2075 3097 
Q 1594 3097 1305 2825 
Q 1016 2553 972 2059 
L 3022 2063 
z
" transform="scale(0.015625)"/>
      <path id="DejaVuSans-6c" d="M 603 4863 
L 1178 4863 
L 1178 0 
L 603 0 
L 603 4863 
z
" transform="scale(0.015625)"/>
      <path id="DejaVuSans-20" transform="scale(0.015625)"/>
     </defs>
     <use xlink:href="#DejaVuSans-4c"/>
     <use xlink:href="#DejaVuSans-61" x="55.712891"/>
     <use xlink:href="#DejaVuSans-62" x="116.992188"/>
     <use xlink:href="#DejaVuSans-65" x="180.46875"/>
     <use xlink:href="#DejaVuSans-6c" x="241.992188"/>
     <use xlink:href="#DejaVuSans-20" x="269.775391"/>
     <use xlink:href="#DejaVuSans-31" x="301.5625"/>
    </g>
   </g>
   <g id="legend_1">
    <g id="patch_7">
     <path d="M 309.070312 101.2725 
L 381.8 101.2725 
Q 383.8 101.2725 383.8 99.2725 
L 383.8 41.56 
Q 383.8 39.56 381.8 39.56 
L 309.070312 39.56 
Q 307.070312 39.56 307.070312 41.56 
L 307.070312 99.2725 
Q 307.070312 101.2725 309.070312 101.2725 
z
" style="fill: #ffffff; opacity: 0.8; stroke: #cccccc; stroke-linejoin: miter"/>
    </g>
    <g id="text_19">
     <!-- Trace number -->
     <g transform="translate(311.070312 51.158437)scale(0.1 -0.1)">
      <defs>
       <path id="DejaVuSans-54" d="M -19 4666 
L 3928 4666 
L 3928 4134 
L 2272 4134 
L 2272 0 
L 1638 0 
L 1638 4134 
L -19 4134 
L -19 4666 
z
" transform="scale(0.015625)"/>
       <path id="DejaVuSans-72" d="M 2631 2963 
Q 2534 3019 2420 3045 
Q 2306 3072 2169 3072 
Q 1681 3072 1420 2755 
Q 1159 2438 1159 1844 
L 1159 0 
L 581 0 
L 581 3500 
L 1159 3500 
L 1159 2956 
Q 1341 3275 1631 3429 
Q 1922 3584 2338 3584 
Q 2397 3584 2469 3576 
Q 2541 3569 2628 3553 
L 2631 2963 
z
" transform="scale(0.015625)"/>
       <path id="DejaVuSans-6d" d="M 3328 2828 
Q 3544 3216 3844 3400 
Q 4144 3584 4550 3584 
Q 5097 3584 5394 3201 
Q 5691 2819 5691 2113 
L 5691 0 
L 5113 0 
L 5113 2094 
Q 5113 2597 4934 2840 
Q 4756 3084 4391 3084 
Q 3944 3084 3684 2787 
Q 3425 2491 3425 1978 
L 3425 0 
L 2847 0 
L 2847 2094 
Q 2847 2600 2669 2842 
Q 2491 3084 2119 3084 
Q 1678 3084 1418 2786 
Q 1159 2488 1159 1978 
L 1159 0 
L 581 0 
L 581 3500 
L 1159 3500 
L 1159 2956 
Q 1356 3278 1631 3431 
Q 1906 3584 2284 3584 
Q 2666 3584 2933 3390 
Q 3200 3197 3328 2828 
z
" transform="scale(0.015625)"/>
      </defs>
      <use xlink:href="#DejaVuSans-54"/>
      <use xlink:href="#DejaVuSans-72" x="46.333984"/>
      <use xlink:href="#DejaVuSans-61" x="87.447266"/>
      <use xlink:href="#DejaVuSans-63" x="148.726562"/>
      <use xlink:href="#DejaVuSans-65" x="203.707031"/>
      <use xlink:href="#DejaVuSans-20" x="265.230469"/>
      <use xlink:href="#DejaVuSans-6e" x="297.017578"/>
      <use xlink:href="#DejaVuSans-75" x="360.396484"/>
      <use xlink:href="#DejaVuSans-6d" x="423.775391"/>
      <use xlink:href="#DejaVuSans-62" x="521.1875"/>
      <use xlink:href="#DejaVuSans-65" x="584.664062"/>
      <use xlink:href="#DejaVuSans-72" x="646.1875"/>
     </g>
    </g>
    <g id="line2d_34">
     <path d="M 325.072656 62.336562 
L 335.072656 62.336562 
L 345.072656 62.336562 
" style="fill: none; stroke: #1f77b4; stroke-width: 1.5; stroke-linecap: square"/>
    </g>
    <g id="text_20">
     <!-- 3 -->
     <g transform="translate(353.072656 65.836562)scale(0.1 -0.1)">
      <use xlink:href="#DejaVuSans-33"/>
     </g>
    </g>
    <g id="line2d_35">
     <path d="M 325.072656 77.014687 
L 335.072656 77.014687 
L 345.072656 77.014687 
" style="fill: none; stroke: #ff7f0e; stroke-width: 1.5; stroke-linecap: square"/>
    </g>
    <g id="text_21">
     <!-- 21 -->
     <g transform="translate(353.072656 80.514687)scale(0.1 -0.1)">
      <use xlink:href="#DejaVuSans-32"/>
      <use xlink:href="#DejaVuSans-31" x="63.623047"/>
     </g>
    </g>
    <g id="line2d_36">
     <path d="M 325.072656 91.692813 
L 335.072656 91.692813 
L 345.072656 91.692813 
" style="fill: none; stroke: #2ca02c; stroke-width: 1.5; stroke-linecap: square"/>
    </g>
    <g id="text_22">
     <!-- 33 -->
     <g transform="translate(353.072656 95.192813)scale(0.1 -0.1)">
      <use xlink:href="#DejaVuSans-33"/>
      <use xlink:href="#DejaVuSans-33" x="63.623047"/>
     </g>
    </g>
   </g>
  </g>
 </g>
 <defs>
  <clipPath id="pf5266dfc56">
   <rect x="54" y="34.56" width="334.8" height="217.44"/>
  </clipPath>
 </defs>
</svg>
