<?xml version="1.0" encoding="utf-8" standalone="no"?>
<!DOCTYPE svg PUBLIC "-//W3C//DTD SVG 1.1//EN"
  "http://www.w3.org/Graphics/SVG/1.1/DTD/svg11.dtd">
<svg xmlns:xlink="http://www.w3.org/1999/xlink" width="432pt" height="288pt" viewBox="0 0 432 288" xmlns="http://www.w3.org/2000/svg" version="1.1">
 <metadata>
  <rdf:RDF xmlns:dc="http://purl.org/dc/elements/1.1/" xmlns:cc="http://creativecommons.org/ns#" xmlns:rdf="http://www.w3.org/1999/02/22-rdf-syntax-ns#">
   <cc:Work>
    <dc:type rdf:resource="http://purl.org/dc/dcmitype/StillImage"/>
    <dc:date>2022-03-30T13:12:48.311117</dc:date>
    <dc:format>image/svg+xml</dc:format>
    <dc:creator>
     <cc:Agent>
      <dc:title>Matplotlib v3.5.1, https://matplotlib.org/</dc:title>
     </cc:Agent>
    </dc:creator>
   </cc:Work>
  </rdf:RDF>
 </metadata>
 <defs>
  <style type="text/css">*{stroke-linejoin: round; stroke-linecap: butt}</style>
 </defs>
 <g id="figure_1">
  <g id="patch_1">
   <path d="M 0 288 
L 432 288 
L 432 0 
L 0 0 
z
" style="fill: #ffffff"/>
  </g>
  <g id="axes_1">
   <g id="patch_2">
    <path d="M 54 252 
L 388.8 252 
L 388.8 34.56 
L 54 34.56 
z
" style="fill: #ffffff"/>
   </g>
   <g id="matplotlib.axis_1">
    <g id="xtick_1">
     <g id="line2d_1">
      <path d="M 69.218182 252 
L 69.218182 34.56 
" clip-path="url(#p631a16724f)" style="fill: none; stroke: #b0b0b0; stroke-width: 0.8; stroke-linecap: square"/>
     </g>
     <g id="line2d_2">
      <defs>
       <path id="ma06183e47f" d="M 0 0 
L 0 3.5 
" style="stroke: #000000; stroke-width: 0.8"/>
      </defs>
      <g>
       <use xlink:href="#ma06183e47f" x="69.218182" y="252" style="stroke: #000000; stroke-width: 0.8"/>
      </g>
     </g>
     <g id="text_1">
      <!-- 0 -->
      <g transform="translate(66.036932 266.598437)scale(0.1 -0.1)">
       <defs>
        <path id="DejaVuSans-30" d="M 2034 4250 
Q 1547 4250 1301 3770 
Q 1056 3291 1056 2328 
Q 1056 1369 1301 889 
Q 1547 409 2034 409 
Q 2525 409 2770 889 
Q 3016 1369 3016 2328 
Q 3016 3291 2770 3770 
Q 2525 4250 2034 4250 
z
M 2034 4750 
Q 2819 4750 3233 4129 
Q 3647 3509 3647 2328 
Q 3647 1150 3233 529 
Q 2819 -91 2034 -91 
Q 1250 -91 836 529 
Q 422 1150 422 2328 
Q 422 3509 836 4129 
Q 1250 4750 2034 4750 
z
" transform="scale(0.015625)"/>
       </defs>
       <use xlink:href="#DejaVuSans-30"/>
      </g>
     </g>
    </g>
    <g id="xtick_2">
     <g id="line2d_3">
      <path d="M 128.780537 252 
L 128.780537 34.56 
" clip-path="url(#p631a16724f)" style="fill: none; stroke: #b0b0b0; stroke-width: 0.8; stroke-linecap: square"/>
     </g>
     <g id="line2d_4">
      <g>
       <use xlink:href="#ma06183e47f" x="128.780537" y="252" style="stroke: #000000; stroke-width: 0.8"/>
      </g>
     </g>
     <g id="text_2">
      <!-- 100 -->
      <g transform="translate(119.236787 266.598437)scale(0.1 -0.1)">
       <defs>
        <path id="DejaVuSans-31" d="M 794 531 
L 1825 531 
L 1825 4091 
L 703 3866 
L 703 4441 
L 1819 4666 
L 2450 4666 
L 2450 531 
L 3481 531 
L 3481 0 
L 794 0 
L 794 531 
z
" transform="scale(0.015625)"/>
       </defs>
       <use xlink:href="#DejaVuSans-31"/>
       <use xlink:href="#DejaVuSans-30" x="63.623047"/>
       <use xlink:href="#DejaVuSans-30" x="127.246094"/>
      </g>
     </g>
    </g>
    <g id="xtick_3">
     <g id="line2d_5">
      <path d="M 188.342893 252 
L 188.342893 34.56 
" clip-path="url(#p631a16724f)" style="fill: none; stroke: #b0b0b0; stroke-width: 0.8; stroke-linecap: square"/>
     </g>
     <g id="line2d_6">
      <g>
       <use xlink:href="#ma06183e47f" x="188.342893" y="252" style="stroke: #000000; stroke-width: 0.8"/>
      </g>
     </g>
     <g id="text_3">
      <!-- 200 -->
      <g transform="translate(178.799143 266.598437)scale(0.1 -0.1)">
       <defs>
        <path id="DejaVuSans-32" d="M 1228 531 
L 3431 531 
L 3431 0 
L 469 0 
L 469 531 
Q 828 903 1448 1529 
Q 2069 2156 2228 2338 
Q 2531 2678 2651 2914 
Q 2772 3150 2772 3378 
Q 2772 3750 2511 3984 
Q 2250 4219 1831 4219 
Q 1534 4219 1204 4116 
Q 875 4013 500 3803 
L 500 4441 
Q 881 4594 1212 4672 
Q 1544 4750 1819 4750 
Q 2544 4750 2975 4387 
Q 3406 4025 3406 3419 
Q 3406 3131 3298 2873 
Q 3191 2616 2906 2266 
Q 2828 2175 2409 1742 
Q 1991 1309 1228 531 
z
" transform="scale(0.015625)"/>
       </defs>
       <use xlink:href="#DejaVuSans-32"/>
       <use xlink:href="#DejaVuSans-30" x="63.623047"/>
       <use xlink:href="#DejaVuSans-30" x="127.246094"/>
      </g>
     </g>
    </g>
    <g id="xtick_4">
     <g id="line2d_7">
      <path d="M 247.905248 252 
L 247.905248 34.56 
" clip-path="url(#p631a16724f)" style="fill: none; stroke: #b0b0b0; stroke-width: 0.8; stroke-linecap: square"/>
     </g>
     <g id="line2d_8">
      <g>
       <use xlink:href="#ma06183e47f" x="247.905248" y="252" style="stroke: #000000; stroke-width: 0.8"/>
      </g>
     </g>
     <g id="text_4">
      <!-- 300 -->
      <g transform="translate(238.361498 266.598437)scale(0.1 -0.1)">
       <defs>
        <path id="DejaVuSans-33" d="M 2597 2516 
Q 3050 2419 3304 2112 
Q 3559 1806 3559 1356 
Q 3559 666 3084 287 
Q 2609 -91 1734 -91 
Q 1441 -91 1130 -33 
Q 819 25 488 141 
L 488 750 
Q 750 597 1062 519 
Q 1375 441 1716 441 
Q 2309 441 2620 675 
Q 2931 909 2931 1356 
Q 2931 1769 2642 2001 
Q 2353 2234 1838 2234 
L 1294 2234 
L 1294 2753 
L 1863 2753 
Q 2328 2753 2575 2939 
Q 2822 3125 2822 3475 
Q 2822 3834 2567 4026 
Q 2313 4219 1838 4219 
Q 1578 4219 1281 4162 
Q 984 4106 628 3988 
L 628 4550 
Q 988 4650 1302 4700 
Q 1616 4750 1894 4750 
Q 2613 4750 3031 4423 
Q 3450 4097 3450 3541 
Q 3450 3153 3228 2886 
Q 3006 2619 2597 2516 
z
" transform="scale(0.015625)"/>
       </defs>
       <use xlink:href="#DejaVuSans-33"/>
       <use xlink:href="#DejaVuSans-30" x="63.623047"/>
       <use xlink:href="#DejaVuSans-30" x="127.246094"/>
      </g>
     </g>
    </g>
    <g id="xtick_5">
     <g id="line2d_9">
      <path d="M 307.467604 252 
L 307.467604 34.56 
" clip-path="url(#p631a16724f)" style="fill: none; stroke: #b0b0b0; stroke-width: 0.8; stroke-linecap: square"/>
     </g>
     <g id="line2d_10">
      <g>
       <use xlink:href="#ma06183e47f" x="307.467604" y="252" style="stroke: #000000; stroke-width: 0.8"/>
      </g>
     </g>
     <g id="text_5">
      <!-- 400 -->
      <g transform="translate(297.923854 266.598437)scale(0.1 -0.1)">
       <defs>
        <path id="DejaVuSans-34" d="M 2419 4116 
L 825 1625 
L 2419 1625 
L 2419 4116 
z
M 2253 4666 
L 3047 4666 
L 3047 1625 
L 3713 1625 
L 3713 1100 
L 3047 1100 
L 3047 0 
L 2419 0 
L 2419 1100 
L 313 1100 
L 313 1709 
L 2253 4666 
z
" transform="scale(0.015625)"/>
       </defs>
       <use xlink:href="#DejaVuSans-34"/>
       <use xlink:href="#DejaVuSans-30" x="63.623047"/>
       <use xlink:href="#DejaVuSans-30" x="127.246094"/>
      </g>
     </g>
    </g>
    <g id="xtick_6">
     <g id="line2d_11">
      <path d="M 367.029959 252 
L 367.029959 34.56 
" clip-path="url(#p631a16724f)" style="fill: none; stroke: #b0b0b0; stroke-width: 0.8; stroke-linecap: square"/>
     </g>
     <g id="line2d_12">
      <g>
       <use xlink:href="#ma06183e47f" x="367.029959" y="252" style="stroke: #000000; stroke-width: 0.8"/>
      </g>
     </g>
     <g id="text_6">
      <!-- 500 -->
      <g transform="translate(357.486209 266.598437)scale(0.1 -0.1)">
       <defs>
        <path id="DejaVuSans-35" d="M 691 4666 
L 3169 4666 
L 3169 4134 
L 1269 4134 
L 1269 2991 
Q 1406 3038 1543 3061 
Q 1681 3084 1819 3084 
Q 2600 3084 3056 2656 
Q 3513 2228 3513 1497 
Q 3513 744 3044 326 
Q 2575 -91 1722 -91 
Q 1428 -91 1123 -41 
Q 819 9 494 109 
L 494 744 
Q 775 591 1075 516 
Q 1375 441 1709 441 
Q 2250 441 2565 725 
Q 2881 1009 2881 1497 
Q 2881 1984 2565 2268 
Q 2250 2553 1709 2553 
Q 1456 2553 1204 2497 
Q 953 2441 691 2322 
L 691 4666 
z
" transform="scale(0.015625)"/>
       </defs>
       <use xlink:href="#DejaVuSans-35"/>
       <use xlink:href="#DejaVuSans-30" x="63.623047"/>
       <use xlink:href="#DejaVuSans-30" x="127.246094"/>
      </g>
     </g>
    </g>
    <g id="text_7">
     <!-- bin -->
     <g transform="translate(213.667969 280.276563)scale(0.1 -0.1)">
      <defs>
       <path id="DejaVuSans-62" d="M 3116 1747 
Q 3116 2381 2855 2742 
Q 2594 3103 2138 3103 
Q 1681 3103 1420 2742 
Q 1159 2381 1159 1747 
Q 1159 1113 1420 752 
Q 1681 391 2138 391 
Q 2594 391 2855 752 
Q 3116 1113 3116 1747 
z
M 1159 2969 
Q 1341 3281 1617 3432 
Q 1894 3584 2278 3584 
Q 2916 3584 3314 3078 
Q 3713 2572 3713 1747 
Q 3713 922 3314 415 
Q 2916 -91 2278 -91 
Q 1894 -91 1617 61 
Q 1341 213 1159 525 
L 1159 0 
L 581 0 
L 581 4863 
L 1159 4863 
L 1159 2969 
z
" transform="scale(0.015625)"/>
       <path id="DejaVuSans-69" d="M 603 3500 
L 1178 3500 
L 1178 0 
L 603 0 
L 603 3500 
z
M 603 4863 
L 1178 4863 
L 1178 4134 
L 603 4134 
L 603 4863 
z
" transform="scale(0.015625)"/>
       <path id="DejaVuSans-6e" d="M 3513 2113 
L 3513 0 
L 2938 0 
L 2938 2094 
Q 2938 2591 2744 2837 
Q 2550 3084 2163 3084 
Q 1697 3084 1428 2787 
Q 1159 2491 1159 1978 
L 1159 0 
L 581 0 
L 581 3500 
L 1159 3500 
L 1159 2956 
Q 1366 3272 1645 3428 
Q 1925 3584 2291 3584 
Q 2894 3584 3203 3211 
Q 3513 2838 3513 2113 
z
" transform="scale(0.015625)"/>
      </defs>
      <use xlink:href="#DejaVuSans-62"/>
      <use xlink:href="#DejaVuSans-69" x="63.476562"/>
      <use xlink:href="#DejaVuSans-6e" x="91.259766"/>
     </g>
    </g>
   </g>
   <g id="matplotlib.axis_2">
    <g id="ytick_1">
     <g id="line2d_13">
      <path d="M 54 252 
L 388.8 252 
" clip-path="url(#p631a16724f)" style="fill: none; stroke: #b0b0b0; stroke-width: 0.8; stroke-linecap: square"/>
     </g>
     <g id="line2d_14">
      <defs>
       <path id="m7caf3d0f25" d="M 0 0 
L -3.5 0 
" style="stroke: #000000; stroke-width: 0.8"/>
      </defs>
      <g>
       <use xlink:href="#m7caf3d0f25" x="54" y="252" style="stroke: #000000; stroke-width: 0.8"/>
      </g>
     </g>
     <g id="text_8">
      <!-- 0 -->
      <g transform="translate(40.6375 255.799219)scale(0.1 -0.1)">
       <use xlink:href="#DejaVuSans-30"/>
      </g>
     </g>
    </g>
    <g id="ytick_2">
     <g id="line2d_15">
      <path d="M 54 226.418824 
L 388.8 226.418824 
" clip-path="url(#p631a16724f)" style="fill: none; stroke: #b0b0b0; stroke-width: 0.8; stroke-linecap: square"/>
     </g>
     <g id="line2d_16">
      <g>
       <use xlink:href="#m7caf3d0f25" x="54" y="226.418824" style="stroke: #000000; stroke-width: 0.8"/>
      </g>
     </g>
     <g id="text_9">
      <!-- 200 -->
      <g transform="translate(27.9125 230.218042)scale(0.1 -0.1)">
       <use xlink:href="#DejaVuSans-32"/>
       <use xlink:href="#DejaVuSans-30" x="63.623047"/>
       <use xlink:href="#DejaVuSans-30" x="127.246094"/>
      </g>
     </g>
    </g>
    <g id="ytick_3">
     <g id="line2d_17">
      <path d="M 54 200.837647 
L 388.8 200.837647 
" clip-path="url(#p631a16724f)" style="fill: none; stroke: #b0b0b0; stroke-width: 0.8; stroke-linecap: square"/>
     </g>
     <g id="line2d_18">
      <g>
       <use xlink:href="#m7caf3d0f25" x="54" y="200.837647" style="stroke: #000000; stroke-width: 0.8"/>
      </g>
     </g>
     <g id="text_10">
      <!-- 400 -->
      <g transform="translate(27.9125 204.636866)scale(0.1 -0.1)">
       <use xlink:href="#DejaVuSans-34"/>
       <use xlink:href="#DejaVuSans-30" x="63.623047"/>
       <use xlink:href="#DejaVuSans-30" x="127.246094"/>
      </g>
     </g>
    </g>
    <g id="ytick_4">
     <g id="line2d_19">
      <path d="M 54 175.256471 
L 388.8 175.256471 
" clip-path="url(#p631a16724f)" style="fill: none; stroke: #b0b0b0; stroke-width: 0.8; stroke-linecap: square"/>
     </g>
     <g id="line2d_20">
      <g>
       <use xlink:href="#m7caf3d0f25" x="54" y="175.256471" style="stroke: #000000; stroke-width: 0.8"/>
      </g>
     </g>
     <g id="text_11">
      <!-- 600 -->
      <g transform="translate(27.9125 179.055689)scale(0.1 -0.1)">
       <defs>
        <path id="DejaVuSans-36" d="M 2113 2584 
Q 1688 2584 1439 2293 
Q 1191 2003 1191 1497 
Q 1191 994 1439 701 
Q 1688 409 2113 409 
Q 2538 409 2786 701 
Q 3034 994 3034 1497 
Q 3034 2003 2786 2293 
Q 2538 2584 2113 2584 
z
M 3366 4563 
L 3366 3988 
Q 3128 4100 2886 4159 
Q 2644 4219 2406 4219 
Q 1781 4219 1451 3797 
Q 1122 3375 1075 2522 
Q 1259 2794 1537 2939 
Q 1816 3084 2150 3084 
Q 2853 3084 3261 2657 
Q 3669 2231 3669 1497 
Q 3669 778 3244 343 
Q 2819 -91 2113 -91 
Q 1303 -91 875 529 
Q 447 1150 447 2328 
Q 447 3434 972 4092 
Q 1497 4750 2381 4750 
Q 2619 4750 2861 4703 
Q 3103 4656 3366 4563 
z
" transform="scale(0.015625)"/>
       </defs>
       <use xlink:href="#DejaVuSans-36"/>
       <use xlink:href="#DejaVuSans-30" x="63.623047"/>
       <use xlink:href="#DejaVuSans-30" x="127.246094"/>
      </g>
     </g>
    </g>
    <g id="ytick_5">
     <g id="line2d_21">
      <path d="M 54 149.675294 
L 388.8 149.675294 
" clip-path="url(#p631a16724f)" style="fill: none; stroke: #b0b0b0; stroke-width: 0.8; stroke-linecap: square"/>
     </g>
     <g id="line2d_22">
      <g>
       <use xlink:href="#m7caf3d0f25" x="54" y="149.675294" style="stroke: #000000; stroke-width: 0.8"/>
      </g>
     </g>
     <g id="text_12">
      <!-- 800 -->
      <g transform="translate(27.9125 153.474513)scale(0.1 -0.1)">
       <defs>
        <path id="DejaVuSans-38" d="M 2034 2216 
Q 1584 2216 1326 1975 
Q 1069 1734 1069 1313 
Q 1069 891 1326 650 
Q 1584 409 2034 409 
Q 2484 409 2743 651 
Q 3003 894 3003 1313 
Q 3003 1734 2745 1975 
Q 2488 2216 2034 2216 
z
M 1403 2484 
Q 997 2584 770 2862 
Q 544 3141 544 3541 
Q 544 4100 942 4425 
Q 1341 4750 2034 4750 
Q 2731 4750 3128 4425 
Q 3525 4100 3525 3541 
Q 3525 3141 3298 2862 
Q 3072 2584 2669 2484 
Q 3125 2378 3379 2068 
Q 3634 1759 3634 1313 
Q 3634 634 3220 271 
Q 2806 -91 2034 -91 
Q 1263 -91 848 271 
Q 434 634 434 1313 
Q 434 1759 690 2068 
Q 947 2378 1403 2484 
z
M 1172 3481 
Q 1172 3119 1398 2916 
Q 1625 2713 2034 2713 
Q 2441 2713 2670 2916 
Q 2900 3119 2900 3481 
Q 2900 3844 2670 4047 
Q 2441 4250 2034 4250 
Q 1625 4250 1398 4047 
Q 1172 3844 1172 3481 
z
" transform="scale(0.015625)"/>
       </defs>
       <use xlink:href="#DejaVuSans-38"/>
       <use xlink:href="#DejaVuSans-30" x="63.623047"/>
       <use xlink:href="#DejaVuSans-30" x="127.246094"/>
      </g>
     </g>
    </g>
    <g id="ytick_6">
     <g id="line2d_23">
      <path d="M 54 124.094118 
L 388.8 124.094118 
" clip-path="url(#p631a16724f)" style="fill: none; stroke: #b0b0b0; stroke-width: 0.8; stroke-linecap: square"/>
     </g>
     <g id="line2d_24">
      <g>
       <use xlink:href="#m7caf3d0f25" x="54" y="124.094118" style="stroke: #000000; stroke-width: 0.8"/>
      </g>
     </g>
     <g id="text_13">
      <!-- 1000 -->
      <g transform="translate(21.55 127.893336)scale(0.1 -0.1)">
       <use xlink:href="#DejaVuSans-31"/>
       <use xlink:href="#DejaVuSans-30" x="63.623047"/>
       <use xlink:href="#DejaVuSans-30" x="127.246094"/>
       <use xlink:href="#DejaVuSans-30" x="190.869141"/>
      </g>
     </g>
    </g>
    <g id="ytick_7">
     <g id="line2d_25">
      <path d="M 54 98.512941 
L 388.8 98.512941 
" clip-path="url(#p631a16724f)" style="fill: none; stroke: #b0b0b0; stroke-width: 0.8; stroke-linecap: square"/>
     </g>
     <g id="line2d_26">
      <g>
       <use xlink:href="#m7caf3d0f25" x="54" y="98.512941" style="stroke: #000000; stroke-width: 0.8"/>
      </g>
     </g>
     <g id="text_14">
      <!-- 1200 -->
      <g transform="translate(21.55 102.31216)scale(0.1 -0.1)">
       <use xlink:href="#DejaVuSans-31"/>
       <use xlink:href="#DejaVuSans-32" x="63.623047"/>
       <use xlink:href="#DejaVuSans-30" x="127.246094"/>
       <use xlink:href="#DejaVuSans-30" x="190.869141"/>
      </g>
     </g>
    </g>
    <g id="ytick_8">
     <g id="line2d_27">
      <path d="M 54 72.931765 
L 388.8 72.931765 
" clip-path="url(#p631a16724f)" style="fill: none; stroke: #b0b0b0; stroke-width: 0.8; stroke-linecap: square"/>
     </g>
     <g id="line2d_28">
      <g>
       <use xlink:href="#m7caf3d0f25" x="54" y="72.931765" style="stroke: #000000; stroke-width: 0.8"/>
      </g>
     </g>
     <g id="text_15">
      <!-- 1400 -->
      <g transform="translate(21.55 76.730983)scale(0.1 -0.1)">
       <use xlink:href="#DejaVuSans-31"/>
       <use xlink:href="#DejaVuSans-34" x="63.623047"/>
       <use xlink:href="#DejaVuSans-30" x="127.246094"/>
       <use xlink:href="#DejaVuSans-30" x="190.869141"/>
      </g>
     </g>
    </g>
    <g id="ytick_9">
     <g id="line2d_29">
      <path d="M 54 47.350588 
L 388.8 47.350588 
" clip-path="url(#p631a16724f)" style="fill: none; stroke: #b0b0b0; stroke-width: 0.8; stroke-linecap: square"/>
     </g>
     <g id="line2d_30">
      <g>
       <use xlink:href="#m7caf3d0f25" x="54" y="47.350588" style="stroke: #000000; stroke-width: 0.8"/>
      </g>
     </g>
     <g id="text_16">
      <!-- 1600 -->
      <g transform="translate(21.55 51.149807)scale(0.1 -0.1)">
       <use xlink:href="#DejaVuSans-31"/>
       <use xlink:href="#DejaVuSans-36" x="63.623047"/>
       <use xlink:href="#DejaVuSans-30" x="127.246094"/>
       <use xlink:href="#DejaVuSans-30" x="190.869141"/>
      </g>
     </g>
    </g>
    <g id="text_17">
     <!-- count -->
     <g transform="translate(15.470312 157.38625)rotate(-90)scale(0.1 -0.1)">
      <defs>
       <path id="DejaVuSans-63" d="M 3122 3366 
L 3122 2828 
Q 2878 2963 2633 3030 
Q 2388 3097 2138 3097 
Q 1578 3097 1268 2742 
Q 959 2388 959 1747 
Q 959 1106 1268 751 
Q 1578 397 2138 397 
Q 2388 397 2633 464 
Q 2878 531 3122 666 
L 3122 134 
Q 2881 22 2623 -34 
Q 2366 -91 2075 -91 
Q 1284 -91 818 406 
Q 353 903 353 1747 
Q 353 2603 823 3093 
Q 1294 3584 2113 3584 
Q 2378 3584 2631 3529 
Q 2884 3475 3122 3366 
z
" transform="scale(0.015625)"/>
       <path id="DejaVuSans-6f" d="M 1959 3097 
Q 1497 3097 1228 2736 
Q 959 2375 959 1747 
Q 959 1119 1226 758 
Q 1494 397 1959 397 
Q 2419 397 2687 759 
Q 2956 1122 2956 1747 
Q 2956 2369 2687 2733 
Q 2419 3097 1959 3097 
z
M 1959 3584 
Q 2709 3584 3137 3096 
Q 3566 2609 3566 1747 
Q 3566 888 3137 398 
Q 2709 -91 1959 -91 
Q 1206 -91 779 398 
Q 353 888 353 1747 
Q 353 2609 779 3096 
Q 1206 3584 1959 3584 
z
" transform="scale(0.015625)"/>
       <path id="DejaVuSans-75" d="M 544 1381 
L 544 3500 
L 1119 3500 
L 1119 1403 
Q 1119 906 1312 657 
Q 1506 409 1894 409 
Q 2359 409 2629 706 
Q 2900 1003 2900 1516 
L 2900 3500 
L 3475 3500 
L 3475 0 
L 2900 0 
L 2900 538 
Q 2691 219 2414 64 
Q 2138 -91 1772 -91 
Q 1169 -91 856 284 
Q 544 659 544 1381 
z
M 1991 3584 
L 1991 3584 
z
" transform="scale(0.015625)"/>
       <path id="DejaVuSans-74" d="M 1172 4494 
L 1172 3500 
L 2356 3500 
L 2356 3053 
L 1172 3053 
L 1172 1153 
Q 1172 725 1289 603 
Q 1406 481 1766 481 
L 2356 481 
L 2356 0 
L 1766 0 
Q 1100 0 847 248 
Q 594 497 594 1153 
L 594 3053 
L 172 3053 
L 172 3500 
L 594 3500 
L 594 4494 
L 1172 4494 
z
" transform="scale(0.015625)"/>
      </defs>
      <use xlink:href="#DejaVuSans-63"/>
      <use xlink:href="#DejaVuSans-6f" x="54.980469"/>
      <use xlink:href="#DejaVuSans-75" x="116.162109"/>
      <use xlink:href="#DejaVuSans-6e" x="179.541016"/>
      <use xlink:href="#DejaVuSans-74" x="242.919922"/>
     </g>
    </g>
   </g>
   <g id="line2d_31">
    <path d="M 69.218182 219.511906 
L 69.813805 218.488659 
L 70.409429 222.837459 
L 71.005052 221.302588 
L 71.600676 219.128188 
L 72.1963 218.744471 
L 72.791923 222.965365 
L 73.387547 219.511906 
L 73.98317 222.581647 
L 74.578794 220.790965 
L 75.174417 223.093271 
L 75.770041 219.767718 
L 76.365664 221.430494 
L 76.961288 219.000282 
L 77.556912 218.488659 
L 78.152535 221.430494 
L 78.748159 222.581647 
L 79.343782 219.384 
L 79.939406 220.918871 
L 80.535029 220.535153 
L 81.130653 221.302588 
L 81.726276 219.128188 
L 82.3219 216.442165 
L 82.917524 220.790965 
L 83.513147 222.070024 
L 84.108771 218.488659 
L 84.704394 219.895624 
L 85.300018 223.221176 
L 85.895641 215.418918 
L 86.491265 221.174682 
L 87.086888 218.232847 
L 87.682512 222.965365 
L 88.278136 221.686306 
L 88.873759 221.814212 
L 89.469383 221.430494 
L 90.065006 217.977035 
L 90.66063 221.430494 
L 91.851877 220.407247 
L 92.4475 222.197929 
L 93.043124 221.430494 
L 93.638748 221.174682 
L 94.234371 220.790965 
L 94.829995 221.430494 
L 95.425618 221.174682 
L 96.021242 220.279341 
L 96.616865 222.709553 
L 97.212489 221.046776 
L 97.808112 218.488659 
L 98.403736 219.767718 
L 98.99936 218.616565 
L 99.594983 219.767718 
L 100.190607 220.279341 
L 100.78623 222.197929 
L 101.381854 219.000282 
L 101.977477 219.767718 
L 102.573101 219.511906 
L 103.168724 219.000282 
L 103.764348 221.046776 
L 104.359972 224.756047 
L 104.955595 224.244424 
L 105.551219 218.744471 
L 106.146842 222.581647 
L 106.742466 217.721224 
L 107.338089 220.535153 
L 107.933713 222.709553 
L 108.529336 222.197929 
L 109.12496 221.174682 
L 109.720584 219.895624 
L 110.316207 221.302588 
L 110.911831 221.814212 
L 111.507454 219.767718 
L 112.103078 222.070024 
L 112.698701 220.151435 
L 113.294325 223.604894 
L 113.889948 221.302588 
L 114.485572 223.604894 
L 115.081196 219.000282 
L 115.676819 222.070024 
L 116.272443 220.023529 
L 116.868066 222.070024 
L 117.46369 218.744471 
L 118.654937 223.093271 
L 119.25056 221.174682 
L 119.846184 217.593318 
L 120.441808 223.7328 
L 121.037431 222.709553 
L 121.633055 220.151435 
L 122.228678 221.5584 
L 122.824302 221.814212 
L 123.419925 224.500235 
L 124.015549 223.604894 
L 124.611172 224.500235 
L 125.206796 223.988612 
L 125.802419 222.070024 
L 126.398043 221.046776 
L 127.58929 220.535153 
L 128.184914 222.965365 
L 128.780537 218.232847 
L 129.376161 221.5584 
L 129.971784 220.535153 
L 130.567408 218.488659 
L 131.163031 219.511906 
L 131.758655 223.476988 
L 132.354279 220.279341 
L 132.949902 221.430494 
L 133.545526 220.790965 
L 134.141149 219.767718 
L 134.736773 219.256094 
L 135.332396 219.511906 
L 136.523643 224.500235 
L 137.119267 221.942118 
L 137.714891 222.837459 
L 138.310514 221.046776 
L 138.906138 222.837459 
L 139.501761 219.128188 
L 140.097385 221.942118 
L 140.693008 218.872376 
L 141.288632 224.883953 
L 141.884255 220.151435 
L 142.479879 219.000282 
L 143.075503 219.767718 
L 143.671126 221.046776 
L 144.26675 223.093271 
L 144.862373 219.895624 
L 145.457997 220.918871 
L 146.05362 223.476988 
L 146.649244 219.384 
L 147.244867 220.790965 
L 147.840491 217.721224 
L 148.436115 220.790965 
L 149.031738 224.628141 
L 149.627362 220.918871 
L 150.818609 219.511906 
L 151.414232 220.023529 
L 152.009856 219.256094 
L 152.605479 222.070024 
L 153.201103 221.5584 
L 153.796727 218.232847 
L 154.39235 220.535153 
L 154.987974 224.756047 
L 155.583597 217.593318 
L 156.179221 221.430494 
L 156.774844 222.070024 
L 157.370468 221.174682 
L 157.966091 221.302588 
L 158.561715 219.384 
L 159.157339 224.500235 
L 159.752962 217.721224 
L 160.348586 222.709553 
L 160.944209 222.709553 
L 161.539833 223.221176 
L 162.135456 221.046776 
L 162.73108 222.837459 
L 163.326703 222.581647 
L 163.922327 223.860706 
L 164.517951 223.349082 
L 165.113574 219.384 
L 165.709198 219.511906 
L 166.304821 221.942118 
L 166.900445 222.070024 
L 167.496068 222.070024 
L 168.091692 221.814212 
L 168.687315 222.325835 
L 169.282939 221.686306 
L 169.878563 222.453741 
L 170.474186 219.511906 
L 171.06981 219.256094 
L 171.665433 219.895624 
L 172.261057 220.023529 
L 172.85668 217.337506 
L 173.452304 221.686306 
L 174.047927 221.430494 
L 174.643551 220.535153 
L 175.239175 222.325835 
L 175.834798 220.790965 
L 176.430422 221.814212 
L 177.026045 223.860706 
L 177.621669 221.942118 
L 178.217292 219.511906 
L 178.812916 220.918871 
L 179.408539 217.081694 
L 180.004163 221.5584 
L 180.599787 219.384 
L 181.19541 221.686306 
L 181.791034 220.151435 
L 182.386657 217.465412 
L 182.982281 218.232847 
L 183.577904 223.349082 
L 184.173528 221.5584 
L 184.769151 220.407247 
L 185.364775 224.372329 
L 185.960399 219.128188 
L 186.556022 216.314259 
L 187.151646 218.104941 
L 187.747269 216.314259 
L 188.342893 217.593318 
L 188.938516 215.802635 
L 189.53414 211.198024 
L 190.129763 209.023624 
L 190.725387 204.674824 
L 191.32101 204.035294 
L 191.916634 196.105129 
L 192.512258 195.977224 
L 193.107881 192.523765 
L 193.703505 182.547106 
L 194.299128 188.302871 
L 194.894752 182.035482 
L 195.490375 180.2448 
L 196.085999 182.930824 
L 196.681622 188.686588 
L 197.277246 191.884235 
L 197.87287 193.547012 
L 198.468493 196.488847 
L 199.064117 196.744659 
L 199.65974 208.384094 
L 200.255364 206.849224 
L 200.850987 215.291012 
L 201.446611 218.232847 
L 202.637858 216.442165 
L 203.233482 217.593318 
L 203.829105 221.942118 
L 204.424729 217.337506 
L 205.020352 218.744471 
L 205.615976 224.756047 
L 206.807223 220.535153 
L 207.402846 221.5584 
L 207.99847 219.767718 
L 208.594094 221.174682 
L 209.189717 220.663059 
L 209.785341 221.942118 
L 210.380964 221.046776 
L 210.976588 223.7328 
L 211.572211 221.046776 
L 212.167835 221.814212 
L 212.763458 220.279341 
L 213.359082 223.221176 
L 213.954706 218.616565 
L 214.550329 222.709553 
L 215.145953 221.5584 
L 215.741576 219.256094 
L 216.3372 222.965365 
L 216.932823 220.663059 
L 217.528447 221.302588 
L 218.12407 220.663059 
L 218.719694 222.325835 
L 219.315318 221.5584 
L 219.910941 225.011859 
L 220.506565 225.779294 
L 221.102188 219.895624 
L 221.697812 221.046776 
L 222.293435 220.790965 
L 222.889059 222.581647 
L 223.484682 220.023529 
L 224.080306 220.535153 
L 224.67593 220.535153 
L 225.271553 221.174682 
L 225.867177 222.965365 
L 226.4628 225.523482 
L 227.058424 218.360753 
L 227.654047 218.232847 
L 228.249671 221.686306 
L 228.845294 222.453741 
L 229.440918 221.814212 
L 230.036542 220.790965 
L 230.632165 221.942118 
L 231.227789 221.174682 
L 231.823412 217.977035 
L 232.419036 218.744471 
L 233.014659 218.360753 
L 233.610283 216.314259 
L 234.80153 205.825976 
L 235.397154 201.221365 
L 235.992777 193.419106 
L 236.588401 182.163388 
L 237.184024 177.047153 
L 237.779648 164.640282 
L 238.375271 161.314729 
L 238.970895 162.210071 
L 239.566518 153.000847 
L 240.162142 153.768282 
L 241.353389 160.035671 
L 242.544636 170.907671 
L 243.14026 189.837741 
L 243.735883 192.907482 
L 244.331507 200.581835 
L 244.92713 205.825976 
L 245.522754 208.384094 
L 246.118378 216.186353 
L 246.714001 216.058447 
L 247.309625 220.279341 
L 247.905248 222.709553 
L 248.500872 217.337506 
L 249.096495 221.814212 
L 249.692119 219.256094 
L 250.287742 221.814212 
L 250.883366 220.790965 
L 251.47899 221.814212 
L 252.074613 219.256094 
L 252.670237 219.511906 
L 253.26586 222.965365 
L 253.861484 222.197929 
L 254.457107 223.093271 
L 255.052731 221.814212 
L 255.648354 219.895624 
L 256.243978 220.023529 
L 256.839601 219.639812 
L 257.435225 222.197929 
L 258.030849 223.476988 
L 258.626472 220.535153 
L 259.222096 218.616565 
L 259.817719 219.895624 
L 260.413343 221.5584 
L 261.008966 212.988706 
L 261.60459 217.337506 
L 262.200213 210.430588 
L 262.795837 206.977129 
L 263.391461 198.279529 
L 263.987084 194.698165 
L 264.582708 184.337788 
L 265.178331 168.221647 
L 265.773955 170.396047 
L 266.369578 156.198494 
L 267.560825 146.989271 
L 268.156449 148.012518 
L 268.752073 156.965929 
L 269.347696 151.465976 
L 269.94332 170.523953 
L 270.538943 175.128565 
L 271.134567 188.430776 
L 271.73019 194.698165 
L 272.325814 198.279529 
L 272.921437 206.721318 
L 274.708308 220.535153 
L 275.303932 221.5584 
L 276.495179 218.872376 
L 277.090802 222.453741 
L 277.686426 215.291012 
L 278.282049 219.384 
L 279.473297 222.197929 
L 280.06892 220.918871 
L 280.664544 219.000282 
L 281.260167 218.232847 
L 281.855791 221.5584 
L 282.451414 220.151435 
L 283.047038 219.895624 
L 283.642661 223.093271 
L 284.238285 224.372329 
L 284.833909 224.372329 
L 285.429532 218.360753 
L 286.620779 221.814212 
L 287.216403 221.686306 
L 287.812026 220.023529 
L 288.40765 220.535153 
L 289.003273 220.279341 
L 289.598897 218.616565 
L 290.194521 220.151435 
L 290.790144 223.221176 
L 291.385768 218.360753 
L 291.981391 221.686306 
L 292.577015 222.197929 
L 293.172638 221.5584 
L 293.768262 221.430494 
L 294.363885 221.686306 
L 294.959509 224.244424 
L 296.150756 219.895624 
L 296.74638 221.686306 
L 297.342003 219.511906 
L 297.937627 221.5584 
L 298.53325 221.5584 
L 299.128874 222.965365 
L 299.724497 223.476988 
L 300.320121 220.407247 
L 300.915745 219.767718 
L 301.511368 221.430494 
L 302.106992 220.918871 
L 302.702615 220.663059 
L 303.298239 217.337506 
L 303.893862 221.5584 
L 304.489486 222.837459 
L 305.085109 218.872376 
L 305.680733 218.488659 
L 306.276357 220.663059 
L 306.87198 221.430494 
L 307.467604 220.023529 
L 308.063227 221.046776 
L 308.658851 221.686306 
L 309.254474 225.139765 
L 309.850098 220.279341 
L 310.445721 218.360753 
L 311.041345 220.918871 
L 311.636969 218.104941 
L 312.232592 218.488659 
L 312.828216 223.221176 
L 313.423839 218.616565 
L 314.019463 222.325835 
L 314.615086 222.837459 
L 315.21071 219.639812 
L 315.806333 219.895624 
L 316.401957 222.709553 
L 316.997581 221.686306 
L 317.593204 219.511906 
L 318.188828 218.744471 
L 318.784451 222.965365 
L 319.380075 219.384 
L 319.975698 218.872376 
L 320.571322 218.616565 
L 321.166945 221.046776 
L 321.762569 221.686306 
L 322.358192 220.790965 
L 323.54944 219.895624 
L 324.145063 221.5584 
L 324.740687 219.767718 
L 325.33631 220.918871 
L 325.931934 220.023529 
L 326.527557 222.965365 
L 327.123181 213.500329 
L 327.718804 222.453741 
L 328.314428 221.5584 
L 328.910052 219.639812 
L 329.505675 220.535153 
L 330.101299 218.104941 
L 330.696922 224.372329 
L 331.292546 221.302588 
L 331.888169 222.453741 
L 332.483793 217.977035 
L 333.079416 221.686306 
L 333.67504 221.942118 
L 334.270664 217.081694 
L 334.866287 222.965365 
L 335.461911 218.616565 
L 336.057534 222.837459 
L 336.653158 221.814212 
L 337.248781 220.407247 
L 337.844405 223.221176 
L 338.440028 214.907294 
L 339.035652 218.744471 
L 339.631276 224.244424 
L 340.226899 222.325835 
L 340.822523 220.023529 
L 341.418146 222.453741 
L 342.01377 219.639812 
L 342.609393 224.244424 
L 343.205017 220.535153 
L 343.80064 220.790965 
L 344.396264 221.302588 
L 344.991888 217.465412 
L 345.587511 224.372329 
L 346.183135 220.663059 
L 346.778758 220.663059 
L 347.374382 222.197929 
L 347.970005 220.151435 
L 348.565629 220.535153 
L 349.161252 220.407247 
L 349.756876 216.953788 
L 350.3525 223.349082 
L 350.948123 224.756047 
L 351.543747 220.918871 
L 352.13937 218.872376 
L 352.734994 220.023529 
L 353.330617 222.070024 
L 353.926241 221.046776 
L 354.521864 217.977035 
L 355.117488 219.767718 
L 355.713112 222.581647 
L 356.308735 221.302588 
L 356.904359 222.325835 
L 358.095606 220.535153 
L 358.691229 220.918871 
L 359.286853 223.604894 
L 359.882476 219.767718 
L 361.073724 221.174682 
L 361.669347 221.174682 
L 362.264971 223.349082 
L 362.860594 219.384 
L 363.456218 220.407247 
L 364.051841 219.000282 
L 364.647465 218.616565 
L 365.243088 224.116518 
L 365.838712 220.918871 
L 366.434336 219.384 
L 367.029959 222.197929 
L 367.625583 220.279341 
L 368.221206 221.5584 
L 368.81683 219.767718 
L 369.412453 219.000282 
L 370.008077 219.639812 
L 370.6037 219.767718 
L 371.199324 217.465412 
L 371.794948 223.604894 
L 372.390571 225.139765 
L 372.986195 221.046776 
L 373.581818 222.837459 
L 373.581818 222.837459 
" clip-path="url(#p631a16724f)" style="fill: none; stroke: #1f77b4; stroke-width: 1.5; stroke-linecap: square"/>
   </g>
   <g id="line2d_32">
    <path d="M 69.218182 233.453647 
L 69.813805 230.128094 
L 70.409429 229.104847 
L 71.005052 229.872282 
L 71.600676 231.918776 
L 72.791923 231.023435 
L 73.387547 231.790871 
L 73.98317 233.581553 
L 74.578794 228.0816 
L 75.174417 231.023435 
L 75.770041 229.616471 
L 76.365664 228.849035 
L 76.961288 232.174588 
L 77.556912 231.790871 
L 78.152535 230.383906 
L 78.748159 229.488565 
L 79.343782 227.442071 
L 79.939406 230.128094 
L 80.535029 229.104847 
L 81.130653 228.337412 
L 81.726276 230.767624 
L 82.3219 232.174588 
L 82.917524 228.593224 
L 83.513147 229.616471 
L 84.108771 231.662965 
L 84.704394 227.442071 
L 85.300018 230.511812 
L 85.895641 230.511812 
L 86.491265 227.058353 
L 87.086888 229.104847 
L 87.682512 229.872282 
L 88.278136 229.488565 
L 88.873759 227.697882 
L 89.469383 229.104847 
L 90.065006 229.360659 
L 90.66063 227.825788 
L 91.256253 232.4304 
L 91.851877 228.465318 
L 92.4475 231.662965 
L 93.043124 229.744376 
L 93.638748 230.256 
L 94.234371 229.616471 
L 94.829995 228.337412 
L 95.425618 231.662965 
L 96.021242 228.465318 
L 96.616865 230.639718 
L 97.212489 228.593224 
L 97.808112 228.337412 
L 98.403736 228.593224 
L 98.99936 230.128094 
L 99.594983 227.953694 
L 100.190607 227.825788 
L 100.78623 229.616471 
L 101.381854 228.593224 
L 101.977477 228.849035 
L 102.573101 233.069929 
L 103.168724 231.662965 
L 103.764348 228.209506 
L 104.359972 231.023435 
L 105.551219 228.721129 
L 106.146842 231.023435 
L 106.742466 231.662965 
L 107.338089 230.511812 
L 107.933713 231.662965 
L 108.529336 227.569976 
L 109.12496 227.697882 
L 109.720584 230.511812 
L 110.316207 231.151341 
L 110.911831 230.639718 
L 111.507454 231.279247 
L 112.103078 228.0816 
L 112.698701 229.232753 
L 113.294325 227.953694 
L 113.889948 231.407153 
L 114.485572 227.825788 
L 115.081196 230.383906 
L 115.676819 228.593224 
L 116.272443 232.302494 
L 116.868066 230.639718 
L 117.46369 230.767624 
L 118.059313 233.325741 
L 118.654937 231.279247 
L 119.25056 231.151341 
L 119.846184 230.767624 
L 120.441808 234.221082 
L 121.037431 228.849035 
L 121.633055 230.128094 
L 122.228678 232.046682 
L 122.824302 229.488565 
L 123.419925 230.895529 
L 124.015549 229.872282 
L 124.611172 230.767624 
L 125.206796 229.488565 
L 125.802419 230.895529 
L 126.398043 228.337412 
L 126.993667 227.058353 
L 127.58929 233.197835 
L 128.184914 227.442071 
L 128.780537 231.535059 
L 129.376161 232.4304 
L 129.971784 228.337412 
L 130.567408 228.465318 
L 131.163031 231.535059 
L 131.758655 229.616471 
L 132.354279 230.383906 
L 132.949902 229.488565 
L 133.545526 231.023435 
L 134.736773 227.953694 
L 135.332396 230.383906 
L 135.92802 230.895529 
L 136.523643 228.721129 
L 137.119267 232.046682 
L 137.714891 228.721129 
L 138.310514 230.256 
L 138.906138 229.744376 
L 139.501761 229.616471 
L 140.097385 230.256 
L 140.693008 228.337412 
L 141.288632 232.686212 
L 141.884255 231.918776 
L 142.479879 230.128094 
L 143.075503 230.000188 
L 143.671126 231.279247 
L 144.26675 231.918776 
L 144.862373 227.314165 
L 145.457997 232.046682 
L 146.05362 230.000188 
L 146.649244 230.767624 
L 147.244867 230.639718 
L 148.436115 229.872282 
L 149.031738 228.465318 
L 149.627362 228.721129 
L 150.222985 231.023435 
L 150.818609 230.256 
L 151.414232 231.279247 
L 152.009856 232.942024 
L 152.605479 231.535059 
L 153.201103 230.767624 
L 153.796727 228.465318 
L 154.39235 231.151341 
L 154.987974 232.558306 
L 155.583597 230.895529 
L 156.179221 229.744376 
L 156.774844 229.360659 
L 157.370468 230.256 
L 157.966091 230.767624 
L 158.561715 232.4304 
L 159.752962 228.721129 
L 160.348586 230.511812 
L 160.944209 230.511812 
L 161.539833 228.721129 
L 162.135456 229.232753 
L 162.73108 230.128094 
L 163.326703 230.511812 
L 163.922327 231.151341 
L 164.517951 230.895529 
L 165.113574 231.151341 
L 165.709198 233.197835 
L 166.304821 229.232753 
L 166.900445 229.232753 
L 167.496068 230.128094 
L 168.091692 229.616471 
L 168.687315 230.511812 
L 169.282939 229.104847 
L 169.878563 232.558306 
L 170.474186 229.488565 
L 171.06981 230.383906 
L 171.665433 227.953694 
L 172.261057 230.000188 
L 172.85668 228.593224 
L 173.452304 228.337412 
L 174.047927 229.232753 
L 174.643551 232.302494 
L 175.239175 227.442071 
L 175.834798 229.488565 
L 176.430422 230.511812 
L 177.026045 228.209506 
L 177.621669 233.325741 
L 178.217292 231.535059 
L 178.812916 231.023435 
L 180.004163 229.488565 
L 180.599787 231.151341 
L 181.19541 229.616471 
L 181.791034 228.721129 
L 182.386657 230.000188 
L 182.982281 229.232753 
L 183.577904 229.104847 
L 184.173528 230.383906 
L 184.769151 228.465318 
L 185.364775 229.616471 
L 185.960399 231.918776 
L 186.556022 232.686212 
L 187.151646 231.023435 
L 187.747269 228.721129 
L 188.342893 228.209506 
L 188.938516 228.209506 
L 189.53414 231.023435 
L 190.129763 230.000188 
L 190.725387 228.0816 
L 191.32101 231.535059 
L 191.916634 228.849035 
L 192.512258 230.895529 
L 193.107881 229.104847 
L 193.703505 228.849035 
L 194.299128 231.023435 
L 195.490375 229.744376 
L 196.085999 228.721129 
L 196.681622 228.849035 
L 197.277246 226.930447 
L 197.87287 228.593224 
L 198.468493 229.616471 
L 199.064117 225.651388 
L 199.65974 225.267671 
L 200.255364 227.442071 
L 200.850987 224.244424 
L 201.446611 223.093271 
L 202.042234 221.046776 
L 202.637858 220.918871 
L 203.233482 222.581647 
L 203.829105 220.151435 
L 204.424729 216.697976 
L 205.020352 220.279341 
L 205.615976 219.256094 
L 206.211599 217.849129 
L 206.807223 220.663059 
L 207.402846 220.279341 
L 207.99847 223.349082 
L 208.594094 223.988612 
L 209.189717 225.779294 
L 209.785341 224.883953 
L 210.380964 227.058353 
L 210.976588 229.744376 
L 211.572211 228.976941 
L 212.167835 227.442071 
L 213.954706 232.046682 
L 214.550329 232.686212 
L 215.145953 229.360659 
L 215.741576 231.151341 
L 216.3372 232.558306 
L 216.932823 230.256 
L 217.528447 230.895529 
L 218.12407 227.314165 
L 218.719694 227.825788 
L 219.315318 231.023435 
L 219.910941 230.767624 
L 220.506565 226.035106 
L 221.102188 231.662965 
L 221.697812 229.360659 
L 222.293435 230.128094 
L 222.889059 232.046682 
L 223.484682 227.186259 
L 224.080306 230.000188 
L 224.67593 229.872282 
L 225.867177 226.802541 
L 226.4628 232.046682 
L 227.058424 230.511812 
L 227.654047 234.6048 
L 228.249671 229.744376 
L 228.845294 230.128094 
L 229.440918 227.697882 
L 230.036542 231.023435 
L 230.632165 232.558306 
L 231.227789 229.488565 
L 231.823412 233.325741 
L 232.419036 230.767624 
L 233.014659 231.279247 
L 233.610283 231.023435 
L 234.205906 231.151341 
L 234.80153 232.174588 
L 235.397154 227.314165 
L 235.992777 227.569976 
L 236.588401 231.790871 
L 237.184024 229.744376 
L 237.779648 229.872282 
L 238.375271 232.4304 
L 238.970895 229.616471 
L 239.566518 228.209506 
L 240.162142 229.744376 
L 240.757766 227.697882 
L 241.353389 232.686212 
L 241.949013 225.139765 
L 242.544636 227.058353 
L 243.14026 226.418824 
L 243.735883 227.186259 
L 244.331507 229.104847 
L 244.92713 220.535153 
L 245.522754 221.814212 
L 246.118378 218.232847 
L 246.714001 211.325929 
L 247.309625 214.779388 
L 247.905248 211.198024 
L 248.500872 209.407341 
L 249.096495 204.546918 
L 249.692119 208.384094 
L 250.287742 201.349271 
L 250.883366 209.535247 
L 251.47899 209.918965 
L 252.074613 212.8608 
L 252.670237 217.849129 
L 253.861484 221.174682 
L 254.457107 223.604894 
L 255.052731 228.849035 
L 255.648354 227.697882 
L 256.243978 232.4304 
L 256.839601 227.697882 
L 257.435225 227.569976 
L 258.030849 228.849035 
L 258.626472 232.174588 
L 259.222096 227.569976 
L 259.817719 231.151341 
L 260.413343 229.744376 
L 261.008966 232.4304 
L 261.60459 227.314165 
L 262.200213 232.302494 
L 263.391461 228.849035 
L 263.987084 228.593224 
L 264.582708 232.174588 
L 265.178331 228.0816 
L 265.773955 230.256 
L 266.369578 233.069929 
L 266.965202 229.744376 
L 267.560825 228.721129 
L 268.156449 227.442071 
L 268.752073 227.953694 
L 269.347696 230.639718 
L 269.94332 227.442071 
L 270.538943 232.302494 
L 271.134567 228.0816 
L 271.73019 229.104847 
L 272.325814 226.418824 
L 272.921437 219.256094 
L 273.517061 222.325835 
L 274.112685 216.058447 
L 274.708308 213.372424 
L 275.303932 213.372424 
L 276.495179 208.767812 
L 277.090802 209.407341 
L 277.686426 204.035294 
L 278.282049 206.465506 
L 278.877673 210.6864 
L 279.473297 212.349176 
L 280.06892 213.500329 
L 280.664544 218.872376 
L 281.855791 225.011859 
L 282.451414 229.616471 
L 283.642661 226.546729 
L 284.238285 230.895529 
L 284.833909 229.232753 
L 285.429532 230.383906 
L 286.025156 228.337412 
L 287.216403 229.488565 
L 287.812026 226.418824 
L 288.40765 230.895529 
L 289.598897 229.104847 
L 290.194521 229.872282 
L 291.385768 225.9072 
L 292.577015 229.360659 
L 293.172638 231.918776 
L 293.768262 230.000188 
L 294.363885 231.535059 
L 294.959509 229.616471 
L 295.555133 228.337412 
L 296.150756 228.849035 
L 296.74638 232.4304 
L 297.342003 227.697882 
L 297.937627 230.895529 
L 298.53325 231.279247 
L 299.128874 228.337412 
L 299.724497 230.767624 
L 300.320121 225.9072 
L 300.915745 230.639718 
L 301.511368 232.4304 
L 302.106992 230.767624 
L 302.702615 230.000188 
L 303.298239 229.488565 
L 303.893862 226.930447 
L 305.085109 231.535059 
L 305.680733 231.023435 
L 306.276357 229.104847 
L 306.87198 226.546729 
L 307.467604 233.453647 
L 308.063227 231.023435 
L 308.658851 230.383906 
L 309.254474 232.046682 
L 309.850098 230.639718 
L 310.445721 231.790871 
L 311.041345 229.744376 
L 312.232592 231.535059 
L 312.828216 231.023435 
L 313.423839 231.279247 
L 314.019463 230.511812 
L 314.615086 233.453647 
L 315.21071 231.535059 
L 315.806333 231.023435 
L 316.401957 229.104847 
L 316.997581 230.128094 
L 317.593204 227.442071 
L 318.784451 231.535059 
L 319.380075 228.849035 
L 319.975698 228.337412 
L 320.571322 230.895529 
L 321.166945 229.360659 
L 321.762569 229.488565 
L 322.358192 227.569976 
L 322.953816 230.128094 
L 323.54944 230.256 
L 324.145063 231.407153 
L 324.740687 229.104847 
L 325.33631 227.569976 
L 325.931934 229.104847 
L 326.527557 229.104847 
L 327.123181 230.639718 
L 327.718804 226.163012 
L 328.314428 229.232753 
L 328.910052 228.976941 
L 329.505675 231.662965 
L 330.101299 230.128094 
L 330.696922 230.128094 
L 331.292546 231.535059 
L 331.888169 233.325741 
L 332.483793 230.895529 
L 333.079416 227.953694 
L 333.67504 230.383906 
L 334.270664 228.0816 
L 334.866287 232.302494 
L 335.461911 229.360659 
L 336.653158 230.000188 
L 337.248781 230.000188 
L 337.844405 233.837365 
L 338.440028 229.232753 
L 339.035652 235.372235 
L 339.631276 229.744376 
L 340.226899 226.035106 
L 340.822523 230.256 
L 341.418146 228.465318 
L 342.01377 232.942024 
L 342.609393 226.035106 
L 343.205017 229.360659 
L 343.80064 228.721129 
L 344.396264 229.488565 
L 344.991888 229.744376 
L 345.587511 230.128094 
L 346.183135 231.790871 
L 346.778758 230.639718 
L 347.374382 231.535059 
L 347.970005 233.069929 
L 348.565629 228.593224 
L 349.161252 228.849035 
L 349.756876 227.953694 
L 350.3525 231.151341 
L 350.948123 231.790871 
L 351.543747 228.849035 
L 352.13937 230.000188 
L 352.734994 232.814118 
L 353.330617 229.360659 
L 353.926241 227.569976 
L 355.117488 231.279247 
L 355.713112 228.593224 
L 356.308735 230.000188 
L 356.904359 231.790871 
L 357.499982 229.104847 
L 358.095606 230.383906 
L 358.691229 228.465318 
L 359.286853 228.593224 
L 360.4781 231.151341 
L 361.073724 232.302494 
L 361.669347 231.279247 
L 362.264971 227.953694 
L 362.860594 232.814118 
L 363.456218 230.256 
L 364.051841 230.639718 
L 364.647465 227.442071 
L 365.243088 230.767624 
L 365.838712 230.000188 
L 366.434336 232.558306 
L 367.029959 228.976941 
L 367.625583 229.104847 
L 368.221206 226.290918 
L 368.81683 231.790871 
L 369.412453 231.023435 
L 370.008077 230.511812 
L 370.6037 228.465318 
L 371.199324 229.104847 
L 371.794948 229.360659 
L 372.390571 231.151341 
L 372.986195 231.535059 
L 373.581818 230.000188 
L 373.581818 230.000188 
" clip-path="url(#p631a16724f)" style="fill: none; stroke: #ff7f0e; stroke-width: 1.5; stroke-linecap: square"/>
   </g>
   <g id="line2d_33">
    <path d="M 69.218182 234.860612 
L 69.813805 232.814118 
L 70.409429 234.988518 
L 71.005052 231.279247 
L 71.600676 234.348988 
L 72.1963 231.535059 
L 72.791923 234.221082 
L 73.387547 233.453647 
L 73.98317 232.4304 
L 74.578794 233.453647 
L 75.174417 236.011765 
L 75.770041 235.500141 
L 76.365664 234.6048 
L 76.961288 233.325741 
L 77.556912 234.732706 
L 78.152535 232.302494 
L 78.748159 234.093176 
L 79.343782 232.174588 
L 79.939406 233.197835 
L 80.535029 230.895529 
L 81.130653 231.790871 
L 81.726276 236.139671 
L 82.3219 233.837365 
L 82.917524 234.988518 
L 83.513147 231.151341 
L 84.108771 231.535059 
L 84.704394 235.372235 
L 85.300018 231.279247 
L 85.895641 234.476894 
L 86.491265 232.302494 
L 87.086888 232.4304 
L 88.278136 233.453647 
L 88.873759 236.395482 
L 89.469383 232.558306 
L 90.065006 235.755953 
L 90.66063 234.221082 
L 91.256253 233.325741 
L 91.851877 232.942024 
L 92.4475 235.244329 
L 93.043124 234.6048 
L 94.234371 234.093176 
L 94.829995 233.581553 
L 95.425618 233.837365 
L 96.021242 232.814118 
L 96.616865 233.837365 
L 97.212489 232.174588 
L 97.808112 232.174588 
L 98.403736 233.581553 
L 98.99936 234.348988 
L 99.594983 231.662965 
L 100.190607 233.581553 
L 100.78623 234.476894 
L 101.381854 235.883859 
L 101.977477 234.860612 
L 102.573101 234.348988 
L 103.168724 232.942024 
L 103.764348 233.709459 
L 104.359972 234.732706 
L 104.955595 231.918776 
L 105.551219 236.011765 
L 106.146842 234.732706 
L 106.742466 232.174588 
L 107.338089 235.116424 
L 107.933713 233.709459 
L 108.529336 232.942024 
L 109.12496 233.965271 
L 109.720584 231.023435 
L 110.316207 233.709459 
L 110.911831 233.709459 
L 111.507454 236.523388 
L 112.103078 229.360659 
L 112.698701 233.709459 
L 113.889948 235.500141 
L 114.485572 232.686212 
L 115.081196 232.686212 
L 115.676819 232.814118 
L 116.272443 231.407153 
L 116.868066 233.453647 
L 117.46369 232.686212 
L 118.059313 234.221082 
L 118.654937 235.372235 
L 119.25056 232.686212 
L 119.846184 233.965271 
L 120.441808 234.732706 
L 121.037431 234.093176 
L 121.633055 234.732706 
L 122.824302 234.221082 
L 123.419925 235.116424 
L 124.015549 236.267576 
L 124.611172 234.348988 
L 125.206796 234.988518 
L 126.398043 231.918776 
L 126.993667 232.814118 
L 127.58929 233.965271 
L 128.184914 233.837365 
L 128.780537 232.558306 
L 129.376161 235.883859 
L 129.971784 231.151341 
L 130.567408 233.197835 
L 131.163031 236.523388 
L 131.758655 233.453647 
L 132.354279 234.6048 
L 132.949902 233.325741 
L 133.545526 232.4304 
L 134.141149 232.174588 
L 134.736773 234.988518 
L 135.332396 235.116424 
L 135.92802 235.628047 
L 136.523643 232.686212 
L 137.119267 234.476894 
L 137.714891 232.686212 
L 138.310514 231.662965 
L 138.906138 234.348988 
L 139.501761 228.849035 
L 140.097385 235.500141 
L 141.288632 227.825788 
L 141.884255 226.802541 
L 142.479879 226.802541 
L 143.075503 222.837459 
L 143.671126 221.430494 
L 144.26675 220.663059 
L 144.862373 219.128188 
L 145.457997 221.302588 
L 146.05362 218.232847 
L 146.649244 223.093271 
L 147.244867 222.325835 
L 147.840491 225.011859 
L 148.436115 218.360753 
L 149.031738 222.837459 
L 149.627362 226.163012 
L 150.222985 226.290918 
L 150.818609 229.872282 
L 151.414232 229.872282 
L 152.605479 230.128094 
L 153.201103 232.4304 
L 153.796727 233.453647 
L 154.39235 234.093176 
L 154.987974 235.628047 
L 155.583597 230.895529 
L 156.179221 232.558306 
L 156.774844 233.453647 
L 157.370468 233.837365 
L 157.966091 235.500141 
L 158.561715 234.348988 
L 159.157339 236.7792 
L 159.752962 231.535059 
L 160.348586 231.023435 
L 161.539833 233.709459 
L 162.135456 238.186165 
L 162.73108 232.174588 
L 163.326703 234.348988 
L 163.922327 233.581553 
L 164.517951 232.4304 
L 165.113574 232.4304 
L 165.709198 232.558306 
L 166.304821 234.476894 
L 166.900445 233.581553 
L 167.496068 230.895529 
L 168.091692 231.151341 
L 168.687315 234.093176 
L 169.282939 231.535059 
L 169.878563 233.709459 
L 170.474186 234.476894 
L 171.06981 236.651294 
L 171.665433 231.918776 
L 172.261057 235.500141 
L 172.85668 236.651294 
L 173.452304 236.011765 
L 174.047927 233.965271 
L 174.643551 234.093176 
L 175.239175 235.883859 
L 175.834798 233.581553 
L 176.430422 235.500141 
L 177.026045 233.453647 
L 177.621669 234.348988 
L 178.217292 233.965271 
L 178.812916 232.558306 
L 179.408539 235.372235 
L 180.004163 233.453647 
L 180.599787 230.767624 
L 181.19541 232.942024 
L 182.386657 231.790871 
L 182.982281 233.325741 
L 183.577904 228.0816 
L 184.173528 231.790871 
L 184.769151 234.221082 
L 185.364775 230.256 
L 185.960399 230.511812 
L 187.151646 225.011859 
L 187.747269 218.616565 
L 188.342893 217.977035 
L 188.938516 213.884047 
L 189.53414 214.011953 
L 190.129763 210.174776 
L 190.725387 210.558494 
L 191.32101 207.744565 
L 191.916634 210.558494 
L 192.512258 210.6864 
L 193.107881 214.139859 
L 193.703505 219.767718 
L 194.299128 221.942118 
L 194.894752 223.093271 
L 195.490375 231.662965 
L 196.085999 227.697882 
L 196.681622 227.825788 
L 197.277246 231.918776 
L 197.87287 232.4304 
L 198.468493 233.453647 
L 199.064117 232.302494 
L 199.65974 232.814118 
L 200.255364 232.686212 
L 200.850987 233.197835 
L 201.446611 232.942024 
L 202.042234 234.348988 
L 202.637858 232.814118 
L 203.829105 233.965271 
L 204.424729 231.279247 
L 205.020352 235.372235 
L 205.615976 235.500141 
L 206.211599 234.6048 
L 206.807223 234.348988 
L 207.402846 232.686212 
L 207.99847 234.860612 
L 208.594094 235.755953 
L 209.189717 231.151341 
L 209.785341 234.860612 
L 210.380964 232.942024 
L 210.976588 235.372235 
L 211.572211 233.325741 
L 212.763458 233.837365 
L 213.359082 230.895529 
L 213.954706 227.186259 
L 214.550329 225.9072 
L 215.145953 222.709553 
L 215.741576 221.430494 
L 216.3372 215.930541 
L 216.932823 215.418918 
L 217.528447 208.256188 
L 218.719694 205.186447 
L 219.315318 208.256188 
L 219.910941 207.360847 
L 220.506565 213.500329 
L 221.102188 212.093365 
L 221.697812 215.163106 
L 222.293435 222.837459 
L 222.889059 225.139765 
L 223.484682 226.035106 
L 224.080306 228.337412 
L 224.67593 228.721129 
L 225.271553 231.918776 
L 225.867177 233.709459 
L 226.4628 233.069929 
L 227.058424 232.174588 
L 227.654047 233.069929 
L 228.249671 235.116424 
L 230.036542 233.581553 
L 230.632165 231.918776 
L 231.227789 237.035012 
L 231.823412 232.942024 
L 232.419036 233.965271 
L 233.014659 232.558306 
L 233.610283 234.093176 
L 234.205906 231.790871 
L 235.397154 234.476894 
L 235.992777 232.942024 
L 236.588401 234.093176 
L 237.184024 233.965271 
L 237.779648 231.918776 
L 238.375271 232.814118 
L 238.970895 232.174588 
L 239.566518 232.814118 
L 240.162142 236.395482 
L 240.757766 231.790871 
L 241.353389 233.581553 
L 241.949013 234.093176 
L 242.544636 233.837365 
L 243.14026 233.453647 
L 243.735883 232.302494 
L 244.331507 235.372235 
L 244.92713 232.814118 
L 245.522754 234.476894 
L 246.118378 229.488565 
L 246.714001 234.6048 
L 247.309625 233.069929 
L 247.905248 234.6048 
L 248.500872 231.790871 
L 249.096495 232.942024 
L 249.692119 233.325741 
L 250.287742 235.244329 
L 250.883366 233.197835 
L 251.47899 235.755953 
L 252.074613 234.093176 
L 252.670237 235.500141 
L 253.26586 231.790871 
L 253.861484 233.069929 
L 254.457107 236.139671 
L 255.052731 233.709459 
L 255.648354 231.790871 
L 256.243978 232.174588 
L 256.839601 233.453647 
L 257.435225 230.767624 
L 258.030849 231.151341 
L 258.626472 233.453647 
L 259.222096 234.860612 
L 259.817719 233.965271 
L 260.413343 228.976941 
L 261.60459 236.139671 
L 262.200213 235.628047 
L 262.795837 233.581553 
L 263.391461 237.674541 
L 263.987084 231.918776 
L 264.582708 234.6048 
L 265.178331 232.942024 
L 265.773955 230.128094 
L 266.369578 233.453647 
L 266.965202 232.814118 
L 267.560825 234.732706 
L 268.156449 233.453647 
L 268.752073 235.116424 
L 269.347696 235.244329 
L 269.94332 233.069929 
L 270.538943 233.325741 
L 271.134567 233.069929 
L 271.73019 233.453647 
L 272.325814 230.128094 
L 272.921437 232.302494 
L 273.517061 233.581553 
L 274.112685 232.686212 
L 274.708308 232.046682 
L 275.303932 233.325741 
L 275.899555 233.197835 
L 276.495179 235.116424 
L 277.090802 235.372235 
L 277.686426 233.069929 
L 278.282049 231.918776 
L 278.877673 233.325741 
L 279.473297 234.348988 
L 280.06892 236.267576 
L 280.664544 233.069929 
L 281.260167 233.325741 
L 283.047038 236.139671 
L 283.642661 231.023435 
L 284.238285 237.035012 
L 284.833909 232.814118 
L 285.429532 235.628047 
L 286.025156 234.860612 
L 286.620779 234.732706 
L 287.812026 232.558306 
L 288.40765 231.535059 
L 289.003273 235.500141 
L 290.194521 230.639718 
L 290.790144 235.116424 
L 291.385768 234.476894 
L 291.981391 232.686212 
L 292.577015 234.093176 
L 293.172638 231.918776 
L 293.768262 233.837365 
L 294.363885 236.907106 
L 294.959509 232.4304 
L 295.555133 232.046682 
L 296.150756 230.639718 
L 296.74638 232.174588 
L 297.342003 232.302494 
L 297.937627 233.453647 
L 298.53325 232.558306 
L 299.128874 235.244329 
L 299.724497 232.046682 
L 300.320121 234.221082 
L 300.915745 231.535059 
L 301.511368 236.139671 
L 302.106992 233.709459 
L 302.702615 232.046682 
L 303.298239 235.500141 
L 303.893862 233.325741 
L 304.489486 234.348988 
L 305.085109 231.790871 
L 305.680733 231.535059 
L 306.87198 235.500141 
L 307.467604 231.918776 
L 308.063227 233.197835 
L 308.658851 232.4304 
L 309.254474 233.965271 
L 309.850098 233.453647 
L 310.445721 234.732706 
L 311.041345 230.383906 
L 311.636969 232.686212 
L 312.232592 231.407153 
L 312.828216 237.162918 
L 313.423839 231.918776 
L 314.019463 234.476894 
L 314.615086 230.895529 
L 315.21071 232.4304 
L 315.806333 234.988518 
L 316.401957 233.965271 
L 316.997581 230.256 
L 317.593204 233.965271 
L 318.188828 233.325741 
L 318.784451 235.628047 
L 319.380075 232.814118 
L 319.975698 231.151341 
L 320.571322 234.6048 
L 321.166945 234.348988 
L 321.762569 232.942024 
L 322.358192 235.244329 
L 322.953816 230.639718 
L 323.54944 234.6048 
L 324.145063 230.639718 
L 325.33631 234.348988 
L 325.931934 233.197835 
L 326.527557 232.814118 
L 327.123181 231.918776 
L 327.718804 235.116424 
L 328.314428 232.814118 
L 328.910052 235.244329 
L 329.505675 232.942024 
L 330.696922 234.732706 
L 331.292546 233.709459 
L 331.888169 233.453647 
L 332.483793 235.628047 
L 333.079416 236.651294 
L 333.67504 234.6048 
L 334.270664 233.453647 
L 334.866287 231.023435 
L 335.461911 232.686212 
L 336.057534 232.942024 
L 336.653158 233.581553 
L 337.248781 236.523388 
L 337.844405 235.372235 
L 338.440028 232.686212 
L 339.035652 234.6048 
L 339.631276 233.965271 
L 340.226899 232.302494 
L 340.822523 234.988518 
L 341.418146 232.814118 
L 342.01377 236.139671 
L 342.609393 233.965271 
L 343.205017 234.093176 
L 343.80064 233.325741 
L 344.991888 237.162918 
L 345.587511 235.244329 
L 346.183135 234.093176 
L 346.778758 231.407153 
L 347.374382 234.476894 
L 347.970005 232.046682 
L 348.565629 232.302494 
L 349.161252 233.069929 
L 349.756876 234.860612 
L 350.3525 232.046682 
L 350.948123 231.151341 
L 351.543747 232.302494 
L 352.13937 234.221082 
L 352.734994 234.860612 
L 353.330617 234.476894 
L 353.926241 231.790871 
L 354.521864 235.244329 
L 355.117488 232.814118 
L 355.713112 236.907106 
L 356.308735 233.709459 
L 356.904359 233.837365 
L 357.499982 231.023435 
L 358.095606 233.325741 
L 358.691229 234.093176 
L 359.286853 234.221082 
L 359.882476 235.116424 
L 360.4781 233.581553 
L 361.073724 234.093176 
L 361.669347 232.942024 
L 362.264971 235.755953 
L 362.860594 237.674541 
L 363.456218 234.348988 
L 364.051841 235.500141 
L 364.647465 231.790871 
L 365.243088 235.244329 
L 365.838712 234.6048 
L 366.434336 230.767624 
L 367.029959 232.814118 
L 367.625583 233.709459 
L 368.221206 232.4304 
L 368.81683 235.755953 
L 369.412453 233.197835 
L 370.008077 234.348988 
L 370.6037 235.244329 
L 371.199324 230.767624 
L 371.794948 234.476894 
L 372.390571 234.221082 
L 372.986195 235.372235 
L 373.581818 233.837365 
L 373.581818 233.837365 
" clip-path="url(#p631a16724f)" style="fill: none; stroke: #2ca02c; stroke-width: 1.5; stroke-linecap: square"/>
   </g>
   <g id="patch_3">
    <path d="M 54 252 
L 54 34.56 
" style="fill: none; stroke: #000000; stroke-width: 0.8; stroke-linejoin: miter; stroke-linecap: square"/>
   </g>
   <g id="patch_4">
    <path d="M 388.8 252 
L 388.8 34.56 
" style="fill: none; stroke: #000000; stroke-width: 0.8; stroke-linejoin: miter; stroke-linecap: square"/>
   </g>
   <g id="patch_5">
    <path d="M 54 252 
L 388.8 252 
" style="fill: none; stroke: #000000; stroke-width: 0.8; stroke-linejoin: miter; stroke-linecap: square"/>
   </g>
   <g id="patch_6">
    <path d="M 54 34.56 
L 388.8 34.56 
" style="fill: none; stroke: #000000; stroke-width: 0.8; stroke-linejoin: miter; stroke-linecap: square"/>
   </g>
   <g id="text_18">
    <!-- Label 13 -->
    <g transform="translate(195.670312 28.56)scale(0.12 -0.12)">
     <defs>
      <path id="DejaVuSans-4c" d="M 628 4666 
L 1259 4666 
L 1259 531 
L 3531 531 
L 3531 0 
L 628 0 
L 628 4666 
z
" transform="scale(0.015625)"/>
      <path id="DejaVuSans-61" d="M 2194 1759 
Q 1497 1759 1228 1600 
Q 959 1441 959 1056 
Q 959 750 1161 570 
Q 1363 391 1709 391 
Q 2188 391 2477 730 
Q 2766 1069 2766 1631 
L 2766 1759 
L 2194 1759 
z
M 3341 1997 
L 3341 0 
L 2766 0 
L 2766 531 
Q 2569 213 2275 61 
Q 1981 -91 1556 -91 
Q 1019 -91 701 211 
Q 384 513 384 1019 
Q 384 1609 779 1909 
Q 1175 2209 1959 2209 
L 2766 2209 
L 2766 2266 
Q 2766 2663 2505 2880 
Q 2244 3097 1772 3097 
Q 1472 3097 1187 3025 
Q 903 2953 641 2809 
L 641 3341 
Q 956 3463 1253 3523 
Q 1550 3584 1831 3584 
Q 2591 3584 2966 3190 
Q 3341 2797 3341 1997 
z
" transform="scale(0.015625)"/>
      <path id="DejaVuSans-65" d="M 3597 1894 
L 3597 1613 
L 953 1613 
Q 991 1019 1311 708 
Q 1631 397 2203 397 
Q 2534 397 2845 478 
Q 3156 559 3463 722 
L 3463 178 
Q 3153 47 2828 -22 
Q 2503 -91 2169 -91 
Q 1331 -91 842 396 
Q 353 884 353 1716 
Q 353 2575 817 3079 
Q 1281 3584 2069 3584 
Q 2775 3584 3186 3129 
Q 3597 2675 3597 1894 
z
M 3022 2063 
Q 3016 2534 2758 2815 
Q 2500 3097 2075 3097 
Q 1594 3097 1305 2825 
Q 1016 2553 972 2059 
L 3022 2063 
z
" transform="scale(0.015625)"/>
      <path id="DejaVuSans-6c" d="M 603 4863 
L 1178 4863 
L 1178 0 
L 603 0 
L 603 4863 
z
" transform="scale(0.015625)"/>
      <path id="DejaVuSans-20" transform="scale(0.015625)"/>
     </defs>
     <use xlink:href="#DejaVuSans-4c"/>
     <use xlink:href="#DejaVuSans-61" x="55.712891"/>
     <use xlink:href="#DejaVuSans-62" x="116.992188"/>
     <use xlink:href="#DejaVuSans-65" x="180.46875"/>
     <use xlink:href="#DejaVuSans-6c" x="241.992188"/>
     <use xlink:href="#DejaVuSans-20" x="269.775391"/>
     <use xlink:href="#DejaVuSans-31" x="301.5625"/>
     <use xlink:href="#DejaVuSans-33" x="365.185547"/>
    </g>
   </g>
   <g id="legend_1">
    <g id="patch_7">
     <path d="M 309.070312 101.2725 
L 381.8 101.2725 
Q 383.8 101.2725 383.8 99.2725 
L 383.8 41.56 
Q 383.8 39.56 381.8 39.56 
L 309.070312 39.56 
Q 307.070312 39.56 307.070312 41.56 
L 307.070312 99.2725 
Q 307.070312 101.2725 309.070312 101.2725 
z
" style="fill: #ffffff; opacity: 0.8; stroke: #cccccc; stroke-linejoin: miter"/>
    </g>
    <g id="text_19">
     <!-- Trace number -->
     <g transform="translate(311.070312 51.158437)scale(0.1 -0.1)">
      <defs>
       <path id="DejaVuSans-54" d="M -19 4666 
L 3928 4666 
L 3928 4134 
L 2272 4134 
L 2272 0 
L 1638 0 
L 1638 4134 
L -19 4134 
L -19 4666 
z
" transform="scale(0.015625)"/>
       <path id="DejaVuSans-72" d="M 2631 2963 
Q 2534 3019 2420 3045 
Q 2306 3072 2169 3072 
Q 1681 3072 1420 2755 
Q 1159 2438 1159 1844 
L 1159 0 
L 581 0 
L 581 3500 
L 1159 3500 
L 1159 2956 
Q 1341 3275 1631 3429 
Q 1922 3584 2338 3584 
Q 2397 3584 2469 3576 
Q 2541 3569 2628 3553 
L 2631 2963 
z
" transform="scale(0.015625)"/>
       <path id="DejaVuSans-6d" d="M 3328 2828 
Q 3544 3216 3844 3400 
Q 4144 3584 4550 3584 
Q 5097 3584 5394 3201 
Q 5691 2819 5691 2113 
L 5691 0 
L 5113 0 
L 5113 2094 
Q 5113 2597 4934 2840 
Q 4756 3084 4391 3084 
Q 3944 3084 3684 2787 
Q 3425 2491 3425 1978 
L 3425 0 
L 2847 0 
L 2847 2094 
Q 2847 2600 2669 2842 
Q 2491 3084 2119 3084 
Q 1678 3084 1418 2786 
Q 1159 2488 1159 1978 
L 1159 0 
L 581 0 
L 581 3500 
L 1159 3500 
L 1159 2956 
Q 1356 3278 1631 3431 
Q 1906 3584 2284 3584 
Q 2666 3584 2933 3390 
Q 3200 3197 3328 2828 
z
" transform="scale(0.015625)"/>
      </defs>
      <use xlink:href="#DejaVuSans-54"/>
      <use xlink:href="#DejaVuSans-72" x="46.333984"/>
      <use xlink:href="#DejaVuSans-61" x="87.447266"/>
      <use xlink:href="#DejaVuSans-63" x="148.726562"/>
      <use xlink:href="#DejaVuSans-65" x="203.707031"/>
      <use xlink:href="#DejaVuSans-20" x="265.230469"/>
      <use xlink:href="#DejaVuSans-6e" x="297.017578"/>
      <use xlink:href="#DejaVuSans-75" x="360.396484"/>
      <use xlink:href="#DejaVuSans-6d" x="423.775391"/>
      <use xlink:href="#DejaVuSans-62" x="521.1875"/>
      <use xlink:href="#DejaVuSans-65" x="584.664062"/>
      <use xlink:href="#DejaVuSans-72" x="646.1875"/>
     </g>
    </g>
    <g id="line2d_34">
     <path d="M 325.072656 62.336562 
L 335.072656 62.336562 
L 345.072656 62.336562 
" style="fill: none; stroke: #1f77b4; stroke-width: 1.5; stroke-linecap: square"/>
    </g>
    <g id="text_20">
     <!-- 1 -->
     <g transform="translate(353.072656 65.836562)scale(0.1 -0.1)">
      <use xlink:href="#DejaVuSans-31"/>
     </g>
    </g>
    <g id="line2d_35">
     <path d="M 325.072656 77.014687 
L 335.072656 77.014687 
L 345.072656 77.014687 
" style="fill: none; stroke: #ff7f0e; stroke-width: 1.5; stroke-linecap: square"/>
    </g>
    <g id="text_21">
     <!-- 4 -->
     <g transform="translate(353.072656 80.514687)scale(0.1 -0.1)">
      <use xlink:href="#DejaVuSans-34"/>
     </g>
    </g>
    <g id="line2d_36">
     <path d="M 325.072656 91.692813 
L 335.072656 91.692813 
L 345.072656 91.692813 
" style="fill: none; stroke: #2ca02c; stroke-width: 1.5; stroke-linecap: square"/>
    </g>
    <g id="text_22">
     <!-- 25 -->
     <g transform="translate(353.072656 95.192813)scale(0.1 -0.1)">
      <use xlink:href="#DejaVuSans-32"/>
      <use xlink:href="#DejaVuSans-35" x="63.623047"/>
     </g>
    </g>
   </g>
  </g>
 </g>
 <defs>
  <clipPath id="p631a16724f">
   <rect x="54" y="34.56" width="334.8" height="217.44"/>
  </clipPath>
 </defs>
</svg>
