<?xml version="1.0" encoding="utf-8" standalone="no"?>
<!DOCTYPE svg PUBLIC "-//W3C//DTD SVG 1.1//EN"
  "http://www.w3.org/Graphics/SVG/1.1/DTD/svg11.dtd">
<svg xmlns:xlink="http://www.w3.org/1999/xlink" width="432pt" height="288pt" viewBox="0 0 432 288" xmlns="http://www.w3.org/2000/svg" version="1.1">
 <metadata>
  <rdf:RDF xmlns:dc="http://purl.org/dc/elements/1.1/" xmlns:cc="http://creativecommons.org/ns#" xmlns:rdf="http://www.w3.org/1999/02/22-rdf-syntax-ns#">
   <cc:Work>
    <dc:type rdf:resource="http://purl.org/dc/dcmitype/StillImage"/>
    <dc:date>2022-03-30T13:12:47.003718</dc:date>
    <dc:format>image/svg+xml</dc:format>
    <dc:creator>
     <cc:Agent>
      <dc:title>Matplotlib v3.5.1, https://matplotlib.org/</dc:title>
     </cc:Agent>
    </dc:creator>
   </cc:Work>
  </rdf:RDF>
 </metadata>
 <defs>
  <style type="text/css">*{stroke-linejoin: round; stroke-linecap: butt}</style>
 </defs>
 <g id="figure_1">
  <g id="patch_1">
   <path d="M 0 288 
L 432 288 
L 432 0 
L 0 0 
z
" style="fill: #ffffff"/>
  </g>
  <g id="axes_1">
   <g id="patch_2">
    <path d="M 54 252 
L 388.8 252 
L 388.8 34.56 
L 54 34.56 
z
" style="fill: #ffffff"/>
   </g>
   <g id="matplotlib.axis_1">
    <g id="xtick_1">
     <g id="line2d_1">
      <path d="M 69.218182 252 
L 69.218182 34.56 
" clip-path="url(#pa3b8f76595)" style="fill: none; stroke: #b0b0b0; stroke-width: 0.8; stroke-linecap: square"/>
     </g>
     <g id="line2d_2">
      <defs>
       <path id="m40d232ee5e" d="M 0 0 
L 0 3.5 
" style="stroke: #000000; stroke-width: 0.8"/>
      </defs>
      <g>
       <use xlink:href="#m40d232ee5e" x="69.218182" y="252" style="stroke: #000000; stroke-width: 0.8"/>
      </g>
     </g>
     <g id="text_1">
      <!-- 0 -->
      <g transform="translate(66.036932 266.598437)scale(0.1 -0.1)">
       <defs>
        <path id="DejaVuSans-30" d="M 2034 4250 
Q 1547 4250 1301 3770 
Q 1056 3291 1056 2328 
Q 1056 1369 1301 889 
Q 1547 409 2034 409 
Q 2525 409 2770 889 
Q 3016 1369 3016 2328 
Q 3016 3291 2770 3770 
Q 2525 4250 2034 4250 
z
M 2034 4750 
Q 2819 4750 3233 4129 
Q 3647 3509 3647 2328 
Q 3647 1150 3233 529 
Q 2819 -91 2034 -91 
Q 1250 -91 836 529 
Q 422 1150 422 2328 
Q 422 3509 836 4129 
Q 1250 4750 2034 4750 
z
" transform="scale(0.015625)"/>
       </defs>
       <use xlink:href="#DejaVuSans-30"/>
      </g>
     </g>
    </g>
    <g id="xtick_2">
     <g id="line2d_3">
      <path d="M 128.780537 252 
L 128.780537 34.56 
" clip-path="url(#pa3b8f76595)" style="fill: none; stroke: #b0b0b0; stroke-width: 0.8; stroke-linecap: square"/>
     </g>
     <g id="line2d_4">
      <g>
       <use xlink:href="#m40d232ee5e" x="128.780537" y="252" style="stroke: #000000; stroke-width: 0.8"/>
      </g>
     </g>
     <g id="text_2">
      <!-- 100 -->
      <g transform="translate(119.236787 266.598437)scale(0.1 -0.1)">
       <defs>
        <path id="DejaVuSans-31" d="M 794 531 
L 1825 531 
L 1825 4091 
L 703 3866 
L 703 4441 
L 1819 4666 
L 2450 4666 
L 2450 531 
L 3481 531 
L 3481 0 
L 794 0 
L 794 531 
z
" transform="scale(0.015625)"/>
       </defs>
       <use xlink:href="#DejaVuSans-31"/>
       <use xlink:href="#DejaVuSans-30" x="63.623047"/>
       <use xlink:href="#DejaVuSans-30" x="127.246094"/>
      </g>
     </g>
    </g>
    <g id="xtick_3">
     <g id="line2d_5">
      <path d="M 188.342893 252 
L 188.342893 34.56 
" clip-path="url(#pa3b8f76595)" style="fill: none; stroke: #b0b0b0; stroke-width: 0.8; stroke-linecap: square"/>
     </g>
     <g id="line2d_6">
      <g>
       <use xlink:href="#m40d232ee5e" x="188.342893" y="252" style="stroke: #000000; stroke-width: 0.8"/>
      </g>
     </g>
     <g id="text_3">
      <!-- 200 -->
      <g transform="translate(178.799143 266.598437)scale(0.1 -0.1)">
       <defs>
        <path id="DejaVuSans-32" d="M 1228 531 
L 3431 531 
L 3431 0 
L 469 0 
L 469 531 
Q 828 903 1448 1529 
Q 2069 2156 2228 2338 
Q 2531 2678 2651 2914 
Q 2772 3150 2772 3378 
Q 2772 3750 2511 3984 
Q 2250 4219 1831 4219 
Q 1534 4219 1204 4116 
Q 875 4013 500 3803 
L 500 4441 
Q 881 4594 1212 4672 
Q 1544 4750 1819 4750 
Q 2544 4750 2975 4387 
Q 3406 4025 3406 3419 
Q 3406 3131 3298 2873 
Q 3191 2616 2906 2266 
Q 2828 2175 2409 1742 
Q 1991 1309 1228 531 
z
" transform="scale(0.015625)"/>
       </defs>
       <use xlink:href="#DejaVuSans-32"/>
       <use xlink:href="#DejaVuSans-30" x="63.623047"/>
       <use xlink:href="#DejaVuSans-30" x="127.246094"/>
      </g>
     </g>
    </g>
    <g id="xtick_4">
     <g id="line2d_7">
      <path d="M 247.905248 252 
L 247.905248 34.56 
" clip-path="url(#pa3b8f76595)" style="fill: none; stroke: #b0b0b0; stroke-width: 0.8; stroke-linecap: square"/>
     </g>
     <g id="line2d_8">
      <g>
       <use xlink:href="#m40d232ee5e" x="247.905248" y="252" style="stroke: #000000; stroke-width: 0.8"/>
      </g>
     </g>
     <g id="text_4">
      <!-- 300 -->
      <g transform="translate(238.361498 266.598437)scale(0.1 -0.1)">
       <defs>
        <path id="DejaVuSans-33" d="M 2597 2516 
Q 3050 2419 3304 2112 
Q 3559 1806 3559 1356 
Q 3559 666 3084 287 
Q 2609 -91 1734 -91 
Q 1441 -91 1130 -33 
Q 819 25 488 141 
L 488 750 
Q 750 597 1062 519 
Q 1375 441 1716 441 
Q 2309 441 2620 675 
Q 2931 909 2931 1356 
Q 2931 1769 2642 2001 
Q 2353 2234 1838 2234 
L 1294 2234 
L 1294 2753 
L 1863 2753 
Q 2328 2753 2575 2939 
Q 2822 3125 2822 3475 
Q 2822 3834 2567 4026 
Q 2313 4219 1838 4219 
Q 1578 4219 1281 4162 
Q 984 4106 628 3988 
L 628 4550 
Q 988 4650 1302 4700 
Q 1616 4750 1894 4750 
Q 2613 4750 3031 4423 
Q 3450 4097 3450 3541 
Q 3450 3153 3228 2886 
Q 3006 2619 2597 2516 
z
" transform="scale(0.015625)"/>
       </defs>
       <use xlink:href="#DejaVuSans-33"/>
       <use xlink:href="#DejaVuSans-30" x="63.623047"/>
       <use xlink:href="#DejaVuSans-30" x="127.246094"/>
      </g>
     </g>
    </g>
    <g id="xtick_5">
     <g id="line2d_9">
      <path d="M 307.467604 252 
L 307.467604 34.56 
" clip-path="url(#pa3b8f76595)" style="fill: none; stroke: #b0b0b0; stroke-width: 0.8; stroke-linecap: square"/>
     </g>
     <g id="line2d_10">
      <g>
       <use xlink:href="#m40d232ee5e" x="307.467604" y="252" style="stroke: #000000; stroke-width: 0.8"/>
      </g>
     </g>
     <g id="text_5">
      <!-- 400 -->
      <g transform="translate(297.923854 266.598437)scale(0.1 -0.1)">
       <defs>
        <path id="DejaVuSans-34" d="M 2419 4116 
L 825 1625 
L 2419 1625 
L 2419 4116 
z
M 2253 4666 
L 3047 4666 
L 3047 1625 
L 3713 1625 
L 3713 1100 
L 3047 1100 
L 3047 0 
L 2419 0 
L 2419 1100 
L 313 1100 
L 313 1709 
L 2253 4666 
z
" transform="scale(0.015625)"/>
       </defs>
       <use xlink:href="#DejaVuSans-34"/>
       <use xlink:href="#DejaVuSans-30" x="63.623047"/>
       <use xlink:href="#DejaVuSans-30" x="127.246094"/>
      </g>
     </g>
    </g>
    <g id="xtick_6">
     <g id="line2d_11">
      <path d="M 367.029959 252 
L 367.029959 34.56 
" clip-path="url(#pa3b8f76595)" style="fill: none; stroke: #b0b0b0; stroke-width: 0.8; stroke-linecap: square"/>
     </g>
     <g id="line2d_12">
      <g>
       <use xlink:href="#m40d232ee5e" x="367.029959" y="252" style="stroke: #000000; stroke-width: 0.8"/>
      </g>
     </g>
     <g id="text_6">
      <!-- 500 -->
      <g transform="translate(357.486209 266.598437)scale(0.1 -0.1)">
       <defs>
        <path id="DejaVuSans-35" d="M 691 4666 
L 3169 4666 
L 3169 4134 
L 1269 4134 
L 1269 2991 
Q 1406 3038 1543 3061 
Q 1681 3084 1819 3084 
Q 2600 3084 3056 2656 
Q 3513 2228 3513 1497 
Q 3513 744 3044 326 
Q 2575 -91 1722 -91 
Q 1428 -91 1123 -41 
Q 819 9 494 109 
L 494 744 
Q 775 591 1075 516 
Q 1375 441 1709 441 
Q 2250 441 2565 725 
Q 2881 1009 2881 1497 
Q 2881 1984 2565 2268 
Q 2250 2553 1709 2553 
Q 1456 2553 1204 2497 
Q 953 2441 691 2322 
L 691 4666 
z
" transform="scale(0.015625)"/>
       </defs>
       <use xlink:href="#DejaVuSans-35"/>
       <use xlink:href="#DejaVuSans-30" x="63.623047"/>
       <use xlink:href="#DejaVuSans-30" x="127.246094"/>
      </g>
     </g>
    </g>
    <g id="text_7">
     <!-- bin -->
     <g transform="translate(213.667969 280.276563)scale(0.1 -0.1)">
      <defs>
       <path id="DejaVuSans-62" d="M 3116 1747 
Q 3116 2381 2855 2742 
Q 2594 3103 2138 3103 
Q 1681 3103 1420 2742 
Q 1159 2381 1159 1747 
Q 1159 1113 1420 752 
Q 1681 391 2138 391 
Q 2594 391 2855 752 
Q 3116 1113 3116 1747 
z
M 1159 2969 
Q 1341 3281 1617 3432 
Q 1894 3584 2278 3584 
Q 2916 3584 3314 3078 
Q 3713 2572 3713 1747 
Q 3713 922 3314 415 
Q 2916 -91 2278 -91 
Q 1894 -91 1617 61 
Q 1341 213 1159 525 
L 1159 0 
L 581 0 
L 581 4863 
L 1159 4863 
L 1159 2969 
z
" transform="scale(0.015625)"/>
       <path id="DejaVuSans-69" d="M 603 3500 
L 1178 3500 
L 1178 0 
L 603 0 
L 603 3500 
z
M 603 4863 
L 1178 4863 
L 1178 4134 
L 603 4134 
L 603 4863 
z
" transform="scale(0.015625)"/>
       <path id="DejaVuSans-6e" d="M 3513 2113 
L 3513 0 
L 2938 0 
L 2938 2094 
Q 2938 2591 2744 2837 
Q 2550 3084 2163 3084 
Q 1697 3084 1428 2787 
Q 1159 2491 1159 1978 
L 1159 0 
L 581 0 
L 581 3500 
L 1159 3500 
L 1159 2956 
Q 1366 3272 1645 3428 
Q 1925 3584 2291 3584 
Q 2894 3584 3203 3211 
Q 3513 2838 3513 2113 
z
" transform="scale(0.015625)"/>
      </defs>
      <use xlink:href="#DejaVuSans-62"/>
      <use xlink:href="#DejaVuSans-69" x="63.476562"/>
      <use xlink:href="#DejaVuSans-6e" x="91.259766"/>
     </g>
    </g>
   </g>
   <g id="matplotlib.axis_2">
    <g id="ytick_1">
     <g id="line2d_13">
      <path d="M 54 252 
L 388.8 252 
" clip-path="url(#pa3b8f76595)" style="fill: none; stroke: #b0b0b0; stroke-width: 0.8; stroke-linecap: square"/>
     </g>
     <g id="line2d_14">
      <defs>
       <path id="m92c7711e8c" d="M 0 0 
L -3.5 0 
" style="stroke: #000000; stroke-width: 0.8"/>
      </defs>
      <g>
       <use xlink:href="#m92c7711e8c" x="54" y="252" style="stroke: #000000; stroke-width: 0.8"/>
      </g>
     </g>
     <g id="text_8">
      <!-- 0 -->
      <g transform="translate(40.6375 255.799219)scale(0.1 -0.1)">
       <use xlink:href="#DejaVuSans-30"/>
      </g>
     </g>
    </g>
    <g id="ytick_2">
     <g id="line2d_15">
      <path d="M 54 226.418824 
L 388.8 226.418824 
" clip-path="url(#pa3b8f76595)" style="fill: none; stroke: #b0b0b0; stroke-width: 0.8; stroke-linecap: square"/>
     </g>
     <g id="line2d_16">
      <g>
       <use xlink:href="#m92c7711e8c" x="54" y="226.418824" style="stroke: #000000; stroke-width: 0.8"/>
      </g>
     </g>
     <g id="text_9">
      <!-- 200 -->
      <g transform="translate(27.9125 230.218042)scale(0.1 -0.1)">
       <use xlink:href="#DejaVuSans-32"/>
       <use xlink:href="#DejaVuSans-30" x="63.623047"/>
       <use xlink:href="#DejaVuSans-30" x="127.246094"/>
      </g>
     </g>
    </g>
    <g id="ytick_3">
     <g id="line2d_17">
      <path d="M 54 200.837647 
L 388.8 200.837647 
" clip-path="url(#pa3b8f76595)" style="fill: none; stroke: #b0b0b0; stroke-width: 0.8; stroke-linecap: square"/>
     </g>
     <g id="line2d_18">
      <g>
       <use xlink:href="#m92c7711e8c" x="54" y="200.837647" style="stroke: #000000; stroke-width: 0.8"/>
      </g>
     </g>
     <g id="text_10">
      <!-- 400 -->
      <g transform="translate(27.9125 204.636866)scale(0.1 -0.1)">
       <use xlink:href="#DejaVuSans-34"/>
       <use xlink:href="#DejaVuSans-30" x="63.623047"/>
       <use xlink:href="#DejaVuSans-30" x="127.246094"/>
      </g>
     </g>
    </g>
    <g id="ytick_4">
     <g id="line2d_19">
      <path d="M 54 175.256471 
L 388.8 175.256471 
" clip-path="url(#pa3b8f76595)" style="fill: none; stroke: #b0b0b0; stroke-width: 0.8; stroke-linecap: square"/>
     </g>
     <g id="line2d_20">
      <g>
       <use xlink:href="#m92c7711e8c" x="54" y="175.256471" style="stroke: #000000; stroke-width: 0.8"/>
      </g>
     </g>
     <g id="text_11">
      <!-- 600 -->
      <g transform="translate(27.9125 179.055689)scale(0.1 -0.1)">
       <defs>
        <path id="DejaVuSans-36" d="M 2113 2584 
Q 1688 2584 1439 2293 
Q 1191 2003 1191 1497 
Q 1191 994 1439 701 
Q 1688 409 2113 409 
Q 2538 409 2786 701 
Q 3034 994 3034 1497 
Q 3034 2003 2786 2293 
Q 2538 2584 2113 2584 
z
M 3366 4563 
L 3366 3988 
Q 3128 4100 2886 4159 
Q 2644 4219 2406 4219 
Q 1781 4219 1451 3797 
Q 1122 3375 1075 2522 
Q 1259 2794 1537 2939 
Q 1816 3084 2150 3084 
Q 2853 3084 3261 2657 
Q 3669 2231 3669 1497 
Q 3669 778 3244 343 
Q 2819 -91 2113 -91 
Q 1303 -91 875 529 
Q 447 1150 447 2328 
Q 447 3434 972 4092 
Q 1497 4750 2381 4750 
Q 2619 4750 2861 4703 
Q 3103 4656 3366 4563 
z
" transform="scale(0.015625)"/>
       </defs>
       <use xlink:href="#DejaVuSans-36"/>
       <use xlink:href="#DejaVuSans-30" x="63.623047"/>
       <use xlink:href="#DejaVuSans-30" x="127.246094"/>
      </g>
     </g>
    </g>
    <g id="ytick_5">
     <g id="line2d_21">
      <path d="M 54 149.675294 
L 388.8 149.675294 
" clip-path="url(#pa3b8f76595)" style="fill: none; stroke: #b0b0b0; stroke-width: 0.8; stroke-linecap: square"/>
     </g>
     <g id="line2d_22">
      <g>
       <use xlink:href="#m92c7711e8c" x="54" y="149.675294" style="stroke: #000000; stroke-width: 0.8"/>
      </g>
     </g>
     <g id="text_12">
      <!-- 800 -->
      <g transform="translate(27.9125 153.474513)scale(0.1 -0.1)">
       <defs>
        <path id="DejaVuSans-38" d="M 2034 2216 
Q 1584 2216 1326 1975 
Q 1069 1734 1069 1313 
Q 1069 891 1326 650 
Q 1584 409 2034 409 
Q 2484 409 2743 651 
Q 3003 894 3003 1313 
Q 3003 1734 2745 1975 
Q 2488 2216 2034 2216 
z
M 1403 2484 
Q 997 2584 770 2862 
Q 544 3141 544 3541 
Q 544 4100 942 4425 
Q 1341 4750 2034 4750 
Q 2731 4750 3128 4425 
Q 3525 4100 3525 3541 
Q 3525 3141 3298 2862 
Q 3072 2584 2669 2484 
Q 3125 2378 3379 2068 
Q 3634 1759 3634 1313 
Q 3634 634 3220 271 
Q 2806 -91 2034 -91 
Q 1263 -91 848 271 
Q 434 634 434 1313 
Q 434 1759 690 2068 
Q 947 2378 1403 2484 
z
M 1172 3481 
Q 1172 3119 1398 2916 
Q 1625 2713 2034 2713 
Q 2441 2713 2670 2916 
Q 2900 3119 2900 3481 
Q 2900 3844 2670 4047 
Q 2441 4250 2034 4250 
Q 1625 4250 1398 4047 
Q 1172 3844 1172 3481 
z
" transform="scale(0.015625)"/>
       </defs>
       <use xlink:href="#DejaVuSans-38"/>
       <use xlink:href="#DejaVuSans-30" x="63.623047"/>
       <use xlink:href="#DejaVuSans-30" x="127.246094"/>
      </g>
     </g>
    </g>
    <g id="ytick_6">
     <g id="line2d_23">
      <path d="M 54 124.094118 
L 388.8 124.094118 
" clip-path="url(#pa3b8f76595)" style="fill: none; stroke: #b0b0b0; stroke-width: 0.8; stroke-linecap: square"/>
     </g>
     <g id="line2d_24">
      <g>
       <use xlink:href="#m92c7711e8c" x="54" y="124.094118" style="stroke: #000000; stroke-width: 0.8"/>
      </g>
     </g>
     <g id="text_13">
      <!-- 1000 -->
      <g transform="translate(21.55 127.893336)scale(0.1 -0.1)">
       <use xlink:href="#DejaVuSans-31"/>
       <use xlink:href="#DejaVuSans-30" x="63.623047"/>
       <use xlink:href="#DejaVuSans-30" x="127.246094"/>
       <use xlink:href="#DejaVuSans-30" x="190.869141"/>
      </g>
     </g>
    </g>
    <g id="ytick_7">
     <g id="line2d_25">
      <path d="M 54 98.512941 
L 388.8 98.512941 
" clip-path="url(#pa3b8f76595)" style="fill: none; stroke: #b0b0b0; stroke-width: 0.8; stroke-linecap: square"/>
     </g>
     <g id="line2d_26">
      <g>
       <use xlink:href="#m92c7711e8c" x="54" y="98.512941" style="stroke: #000000; stroke-width: 0.8"/>
      </g>
     </g>
     <g id="text_14">
      <!-- 1200 -->
      <g transform="translate(21.55 102.31216)scale(0.1 -0.1)">
       <use xlink:href="#DejaVuSans-31"/>
       <use xlink:href="#DejaVuSans-32" x="63.623047"/>
       <use xlink:href="#DejaVuSans-30" x="127.246094"/>
       <use xlink:href="#DejaVuSans-30" x="190.869141"/>
      </g>
     </g>
    </g>
    <g id="ytick_8">
     <g id="line2d_27">
      <path d="M 54 72.931765 
L 388.8 72.931765 
" clip-path="url(#pa3b8f76595)" style="fill: none; stroke: #b0b0b0; stroke-width: 0.8; stroke-linecap: square"/>
     </g>
     <g id="line2d_28">
      <g>
       <use xlink:href="#m92c7711e8c" x="54" y="72.931765" style="stroke: #000000; stroke-width: 0.8"/>
      </g>
     </g>
     <g id="text_15">
      <!-- 1400 -->
      <g transform="translate(21.55 76.730983)scale(0.1 -0.1)">
       <use xlink:href="#DejaVuSans-31"/>
       <use xlink:href="#DejaVuSans-34" x="63.623047"/>
       <use xlink:href="#DejaVuSans-30" x="127.246094"/>
       <use xlink:href="#DejaVuSans-30" x="190.869141"/>
      </g>
     </g>
    </g>
    <g id="ytick_9">
     <g id="line2d_29">
      <path d="M 54 47.350588 
L 388.8 47.350588 
" clip-path="url(#pa3b8f76595)" style="fill: none; stroke: #b0b0b0; stroke-width: 0.8; stroke-linecap: square"/>
     </g>
     <g id="line2d_30">
      <g>
       <use xlink:href="#m92c7711e8c" x="54" y="47.350588" style="stroke: #000000; stroke-width: 0.8"/>
      </g>
     </g>
     <g id="text_16">
      <!-- 1600 -->
      <g transform="translate(21.55 51.149807)scale(0.1 -0.1)">
       <use xlink:href="#DejaVuSans-31"/>
       <use xlink:href="#DejaVuSans-36" x="63.623047"/>
       <use xlink:href="#DejaVuSans-30" x="127.246094"/>
       <use xlink:href="#DejaVuSans-30" x="190.869141"/>
      </g>
     </g>
    </g>
    <g id="text_17">
     <!-- count -->
     <g transform="translate(15.470312 157.38625)rotate(-90)scale(0.1 -0.1)">
      <defs>
       <path id="DejaVuSans-63" d="M 3122 3366 
L 3122 2828 
Q 2878 2963 2633 3030 
Q 2388 3097 2138 3097 
Q 1578 3097 1268 2742 
Q 959 2388 959 1747 
Q 959 1106 1268 751 
Q 1578 397 2138 397 
Q 2388 397 2633 464 
Q 2878 531 3122 666 
L 3122 134 
Q 2881 22 2623 -34 
Q 2366 -91 2075 -91 
Q 1284 -91 818 406 
Q 353 903 353 1747 
Q 353 2603 823 3093 
Q 1294 3584 2113 3584 
Q 2378 3584 2631 3529 
Q 2884 3475 3122 3366 
z
" transform="scale(0.015625)"/>
       <path id="DejaVuSans-6f" d="M 1959 3097 
Q 1497 3097 1228 2736 
Q 959 2375 959 1747 
Q 959 1119 1226 758 
Q 1494 397 1959 397 
Q 2419 397 2687 759 
Q 2956 1122 2956 1747 
Q 2956 2369 2687 2733 
Q 2419 3097 1959 3097 
z
M 1959 3584 
Q 2709 3584 3137 3096 
Q 3566 2609 3566 1747 
Q 3566 888 3137 398 
Q 2709 -91 1959 -91 
Q 1206 -91 779 398 
Q 353 888 353 1747 
Q 353 2609 779 3096 
Q 1206 3584 1959 3584 
z
" transform="scale(0.015625)"/>
       <path id="DejaVuSans-75" d="M 544 1381 
L 544 3500 
L 1119 3500 
L 1119 1403 
Q 1119 906 1312 657 
Q 1506 409 1894 409 
Q 2359 409 2629 706 
Q 2900 1003 2900 1516 
L 2900 3500 
L 3475 3500 
L 3475 0 
L 2900 0 
L 2900 538 
Q 2691 219 2414 64 
Q 2138 -91 1772 -91 
Q 1169 -91 856 284 
Q 544 659 544 1381 
z
M 1991 3584 
L 1991 3584 
z
" transform="scale(0.015625)"/>
       <path id="DejaVuSans-74" d="M 1172 4494 
L 1172 3500 
L 2356 3500 
L 2356 3053 
L 1172 3053 
L 1172 1153 
Q 1172 725 1289 603 
Q 1406 481 1766 481 
L 2356 481 
L 2356 0 
L 1766 0 
Q 1100 0 847 248 
Q 594 497 594 1153 
L 594 3053 
L 172 3053 
L 172 3500 
L 594 3500 
L 594 4494 
L 1172 4494 
z
" transform="scale(0.015625)"/>
      </defs>
      <use xlink:href="#DejaVuSans-63"/>
      <use xlink:href="#DejaVuSans-6f" x="54.980469"/>
      <use xlink:href="#DejaVuSans-75" x="116.162109"/>
      <use xlink:href="#DejaVuSans-6e" x="179.541016"/>
      <use xlink:href="#DejaVuSans-74" x="242.919922"/>
     </g>
    </g>
   </g>
   <g id="line2d_31">
    <path d="M 69.218182 203.779482 
L 69.813805 204.930635 
L 70.409429 203.779482 
L 71.005052 200.965553 
L 71.600676 196.360941 
L 72.1963 196.233035 
L 72.791923 204.419012 
L 73.387547 204.802729 
L 73.98317 203.523671 
L 74.578794 201.605082 
L 75.174417 204.802729 
L 75.770041 204.035294 
L 76.365664 200.198118 
L 76.961288 206.465506 
L 77.556912 200.965553 
L 78.152535 203.267859 
L 78.748159 203.779482 
L 79.343782 204.930635 
L 79.939406 204.930635 
L 80.535029 199.8144 
L 81.130653 200.453929 
L 81.726276 204.546918 
L 82.3219 204.802729 
L 82.917524 203.651576 
L 83.513147 196.488847 
L 84.108771 202.372518 
L 84.704394 204.1632 
L 85.300018 201.860894 
L 85.895641 205.186447 
L 86.491265 200.581835 
L 87.086888 204.035294 
L 87.682512 204.674824 
L 88.278136 209.791059 
L 88.873759 204.802729 
L 89.469383 203.779482 
L 90.065006 200.198118 
L 90.66063 199.174871 
L 91.256253 203.012047 
L 91.851877 201.732988 
L 92.4475 204.802729 
L 93.043124 195.849318 
L 93.638748 202.884141 
L 94.234371 202.116706 
L 94.829995 204.419012 
L 95.425618 197.64 
L 96.021242 203.907388 
L 96.616865 208.256188 
L 97.212489 201.349271 
L 97.808112 204.546918 
L 98.403736 202.500424 
L 98.99936 201.732988 
L 99.594983 204.546918 
L 100.190607 202.628329 
L 100.78623 201.477176 
L 101.381854 204.674824 
L 101.977477 204.930635 
L 102.573101 204.035294 
L 103.168724 201.9888 
L 103.764348 204.802729 
L 104.359972 205.442259 
L 104.955595 202.628329 
L 105.551219 205.825976 
L 106.146842 204.1632 
L 106.742466 200.070212 
L 107.338089 205.058541 
L 107.933713 196.616753 
L 108.529336 197.64 
L 109.12496 203.523671 
L 109.720584 206.081788 
L 110.316207 205.058541 
L 110.911831 200.326024 
L 111.507454 206.3376 
L 112.103078 204.419012 
L 112.698701 200.198118 
L 113.294325 204.1632 
L 113.889948 204.1632 
L 114.485572 206.593412 
L 115.081196 203.139953 
L 115.676819 205.825976 
L 116.272443 200.709741 
L 116.868066 202.628329 
L 118.059313 204.035294 
L 118.654937 206.3376 
L 119.25056 198.023718 
L 119.846184 204.802729 
L 120.441808 203.395765 
L 121.037431 202.500424 
L 121.633055 206.465506 
L 122.228678 205.442259 
L 122.824302 204.035294 
L 123.419925 205.570165 
L 124.015549 203.267859 
L 124.611172 202.884141 
L 125.206796 199.558588 
L 125.802419 205.186447 
L 126.398043 201.349271 
L 126.993667 203.779482 
L 127.58929 205.314353 
L 128.184914 204.035294 
L 128.780537 204.930635 
L 129.376161 203.267859 
L 129.971784 208.639906 
L 130.567408 204.802729 
L 131.163031 207.360847 
L 131.758655 203.012047 
L 132.354279 203.907388 
L 132.949902 202.116706 
L 133.545526 209.918965 
L 134.141149 200.965553 
L 134.736773 205.570165 
L 135.332396 203.779482 
L 135.92802 206.849224 
L 136.523643 204.802729 
L 137.119267 200.837647 
L 137.714891 204.035294 
L 138.310514 203.523671 
L 138.906138 203.907388 
L 139.501761 200.965553 
L 140.097385 203.651576 
L 140.693008 200.581835 
L 141.288632 203.651576 
L 141.884255 210.6864 
L 142.479879 200.581835 
L 143.075503 206.081788 
L 143.671126 203.395765 
L 144.26675 204.419012 
L 144.862373 201.860894 
L 145.457997 204.802729 
L 146.05362 204.1632 
L 146.649244 206.081788 
L 147.244867 208.767812 
L 147.840491 204.1632 
L 148.436115 205.953882 
L 149.031738 200.837647 
L 149.627362 203.651576 
L 150.222985 204.674824 
L 150.818609 200.453929 
L 151.414232 203.012047 
L 152.605479 201.477176 
L 153.201103 205.953882 
L 153.796727 200.326024 
L 154.39235 203.012047 
L 154.987974 207.232941 
L 155.583597 200.837647 
L 156.179221 205.186447 
L 156.774844 206.721318 
L 157.370468 205.953882 
L 157.966091 204.674824 
L 158.561715 204.930635 
L 159.157339 202.500424 
L 159.752962 205.698071 
L 160.348586 199.174871 
L 160.944209 201.732988 
L 161.539833 203.651576 
L 162.135456 201.605082 
L 162.73108 203.267859 
L 163.326703 200.326024 
L 163.922327 202.372518 
L 164.517951 201.860894 
L 165.113574 205.442259 
L 165.709198 205.825976 
L 166.304821 203.267859 
L 167.496068 196.360941 
L 168.091692 195.977224 
L 168.687315 182.675012 
L 169.282939 179.988988 
L 169.878563 164.768188 
L 170.474186 156.710118 
L 171.06981 151.721788 
L 171.665433 149.163671 
L 172.261057 165.024 
L 173.452304 179.605271 
L 174.643551 198.791153 
L 175.239175 194.826071 
L 175.834798 200.965553 
L 176.430422 201.349271 
L 177.026045 202.372518 
L 177.621669 199.302776 
L 178.217292 200.198118 
L 178.812916 201.732988 
L 179.408539 206.849224 
L 180.004163 200.709741 
L 180.599787 208.895718 
L 181.19541 204.291106 
L 181.791034 201.349271 
L 182.386657 200.837647 
L 182.982281 207.232941 
L 183.577904 199.8144 
L 184.173528 204.674824 
L 184.769151 203.779482 
L 185.364775 200.198118 
L 185.960399 203.139953 
L 186.556022 204.291106 
L 187.151646 201.605082 
L 187.747269 205.953882 
L 188.342893 203.012047 
L 188.938516 202.756235 
L 189.53414 205.570165 
L 190.129763 202.372518 
L 190.725387 202.500424 
L 191.32101 200.198118 
L 191.916634 202.756235 
L 192.512258 203.267859 
L 193.107881 200.198118 
L 193.703505 200.965553 
L 194.299128 207.488753 
L 194.894752 202.628329 
L 195.490375 202.116706 
L 196.085999 205.570165 
L 196.681622 206.849224 
L 197.87287 205.186447 
L 198.468493 203.523671 
L 199.064117 203.779482 
L 199.65974 205.058541 
L 200.255364 205.058541 
L 200.850987 205.186447 
L 201.446611 204.1632 
L 202.042234 204.1632 
L 202.637858 205.186447 
L 203.233482 203.651576 
L 203.829105 199.686494 
L 204.424729 201.9888 
L 205.020352 201.605082 
L 205.615976 205.570165 
L 206.211599 204.930635 
L 206.807223 202.372518 
L 207.402846 202.628329 
L 207.99847 202.244612 
L 208.594094 199.8144 
L 209.189717 202.756235 
L 209.785341 202.756235 
L 210.976588 204.419012 
L 211.572211 206.081788 
L 212.167835 200.709741 
L 212.763458 203.523671 
L 213.359082 202.884141 
L 213.954706 201.221365 
L 214.550329 204.930635 
L 215.145953 203.395765 
L 215.741576 205.186447 
L 216.3372 204.674824 
L 216.932823 201.477176 
L 217.528447 203.651576 
L 218.12407 202.884141 
L 218.719694 201.605082 
L 219.315318 203.139953 
L 219.910941 202.628329 
L 220.506565 197.895812 
L 221.102188 204.419012 
L 221.697812 202.884141 
L 222.293435 200.070212 
L 222.889059 201.860894 
L 223.484682 204.674824 
L 224.080306 201.732988 
L 224.67593 204.1632 
L 225.271553 202.116706 
L 225.867177 203.012047 
L 226.4628 206.081788 
L 227.058424 200.709741 
L 227.654047 205.442259 
L 228.249671 204.674824 
L 228.845294 202.756235 
L 229.440918 202.372518 
L 230.036542 205.442259 
L 230.632165 199.942306 
L 231.227789 198.535341 
L 231.823412 204.674824 
L 232.419036 204.035294 
L 233.014659 202.884141 
L 233.610283 199.174871 
L 234.205906 205.058541 
L 234.80153 203.012047 
L 235.397154 197.384188 
L 235.992777 204.035294 
L 236.588401 205.698071 
L 237.184024 201.860894 
L 237.779648 208.512 
L 238.375271 206.465506 
L 238.970895 200.581835 
L 239.566518 207.616659 
L 240.162142 205.698071 
L 240.757766 205.442259 
L 241.353389 203.907388 
L 241.949013 207.232941 
L 242.544636 205.314353 
L 243.14026 208.128282 
L 243.735883 200.581835 
L 244.331507 204.291106 
L 244.92713 200.965553 
L 245.522754 195.4656 
L 246.118378 195.209788 
L 246.714001 184.465694 
L 247.309625 169.628612 
L 247.905248 149.035765 
L 248.500872 144.942776 
L 249.096495 159.779859 
L 249.692119 165.024 
L 250.883366 198.279529 
L 252.074613 205.825976 
L 252.670237 201.349271 
L 253.26586 206.593412 
L 253.861484 203.651576 
L 254.457107 201.477176 
L 255.052731 204.930635 
L 255.648354 200.709741 
L 256.243978 200.453929 
L 257.435225 201.9888 
L 258.030849 207.105035 
L 258.626472 200.709741 
L 259.817719 202.116706 
L 260.413343 202.884141 
L 261.008966 202.244612 
L 261.60459 203.523671 
L 262.795837 200.709741 
L 263.391461 203.012047 
L 263.987084 202.116706 
L 264.582708 208.512 
L 265.178331 203.012047 
L 265.773955 203.395765 
L 266.369578 201.093459 
L 266.965202 205.442259 
L 267.560825 201.093459 
L 268.156449 205.314353 
L 268.752073 205.825976 
L 269.347696 201.605082 
L 270.538943 205.953882 
L 271.134567 202.500424 
L 272.325814 203.012047 
L 272.921437 203.651576 
L 273.517061 198.407435 
L 274.112685 199.942306 
L 274.708308 207.744565 
L 275.303932 199.302776 
L 275.899555 203.267859 
L 276.495179 204.291106 
L 277.090802 207.616659 
L 277.686426 206.081788 
L 278.282049 204.1632 
L 278.877673 204.1632 
L 279.473297 205.698071 
L 280.06892 200.581835 
L 280.664544 204.1632 
L 281.260167 205.953882 
L 281.855791 200.326024 
L 282.451414 203.012047 
L 283.047038 200.453929 
L 284.238285 201.732988 
L 284.833909 204.1632 
L 285.429532 201.349271 
L 286.025156 205.825976 
L 286.620779 203.267859 
L 287.216403 202.884141 
L 287.812026 203.523671 
L 288.40765 202.116706 
L 289.003273 201.349271 
L 289.598897 206.849224 
L 290.194521 202.628329 
L 290.790144 203.395765 
L 291.385768 203.523671 
L 291.981391 202.116706 
L 292.577015 201.9888 
L 293.172638 206.721318 
L 293.768262 201.605082 
L 294.363885 204.674824 
L 294.959509 205.698071 
L 295.555133 205.570165 
L 296.150756 207.488753 
L 296.74638 202.116706 
L 297.342003 202.116706 
L 297.937627 200.581835 
L 298.53325 202.884141 
L 299.128874 202.884141 
L 299.724497 200.709741 
L 300.320121 199.558588 
L 300.915745 204.419012 
L 301.511368 207.616659 
L 302.106992 205.825976 
L 302.702615 203.012047 
L 303.298239 201.605082 
L 303.893862 199.558588 
L 304.489486 202.244612 
L 306.276357 206.209694 
L 306.87198 202.372518 
L 308.063227 205.953882 
L 309.254474 200.198118 
L 309.850098 197.512094 
L 310.445721 208.000376 
L 311.041345 202.244612 
L 311.636969 203.012047 
L 312.232592 202.116706 
L 312.828216 205.186447 
L 313.423839 202.116706 
L 314.019463 204.291106 
L 315.21071 201.732988 
L 315.806333 204.291106 
L 316.401957 201.605082 
L 316.997581 201.093459 
L 317.593204 205.825976 
L 318.188828 206.3376 
L 318.784451 209.023624 
L 319.380075 206.209694 
L 319.975698 202.372518 
L 320.571322 205.186447 
L 321.166945 200.965553 
L 321.762569 208.512 
L 322.358192 201.221365 
L 322.953816 203.267859 
L 323.54944 198.535341 
L 324.145063 204.930635 
L 324.740687 203.779482 
L 325.33631 203.651576 
L 325.931934 204.1632 
L 326.527557 201.732988 
L 327.123181 200.837647 
L 327.718804 206.849224 
L 328.314428 202.500424 
L 328.910052 201.9888 
L 329.505675 205.698071 
L 330.101299 204.674824 
L 330.696922 202.372518 
L 331.292546 204.291106 
L 331.888169 199.558588 
L 332.483793 201.221365 
L 333.079416 203.779482 
L 333.67504 200.965553 
L 334.270664 202.628329 
L 334.866287 199.430682 
L 335.461911 199.430682 
L 336.057534 204.802729 
L 336.653158 203.139953 
L 337.248781 204.419012 
L 338.440028 201.9888 
L 339.035652 203.651576 
L 339.631276 202.116706 
L 340.226899 205.442259 
L 340.822523 202.628329 
L 341.418146 207.232941 
L 342.01377 204.035294 
L 342.609393 201.732988 
L 343.205017 201.9888 
L 343.80064 208.384094 
L 344.396264 203.779482 
L 344.991888 208.384094 
L 345.587511 204.546918 
L 346.183135 206.3376 
L 346.778758 202.244612 
L 347.374382 205.825976 
L 347.970005 203.523671 
L 348.565629 205.314353 
L 349.161252 205.698071 
L 349.756876 200.453929 
L 350.3525 205.314353 
L 350.948123 201.732988 
L 351.543747 201.860894 
L 352.13937 199.174871 
L 353.330617 202.244612 
L 353.926241 207.232941 
L 354.521864 201.732988 
L 355.117488 203.395765 
L 355.713112 201.221365 
L 356.904359 200.326024 
L 357.499982 204.546918 
L 358.095606 207.744565 
L 358.691229 203.651576 
L 359.286853 202.756235 
L 359.882476 206.721318 
L 361.073724 205.825976 
L 361.669347 201.605082 
L 362.264971 205.570165 
L 362.860594 203.012047 
L 364.051841 203.523671 
L 364.647465 202.628329 
L 365.243088 209.918965 
L 365.838712 202.500424 
L 366.434336 202.500424 
L 367.625583 199.174871 
L 368.221206 203.395765 
L 368.81683 201.860894 
L 369.412453 203.523671 
L 370.008077 202.500424 
L 370.6037 201.221365 
L 371.199324 203.395765 
L 371.794948 200.453929 
L 372.390571 202.244612 
L 372.986195 199.174871 
L 373.581818 202.372518 
L 373.581818 202.372518 
" clip-path="url(#pa3b8f76595)" style="fill: none; stroke: #1f77b4; stroke-width: 1.5; stroke-linecap: square"/>
   </g>
   <g id="line2d_32">
    <path d="M 69.218182 213.884047 
L 69.813805 214.779388 
L 70.409429 209.663153 
L 71.005052 211.965459 
L 71.600676 212.093365 
L 72.1963 211.581741 
L 72.791923 214.395671 
L 73.387547 209.535247 
L 73.98317 217.2096 
L 74.578794 211.965459 
L 75.174417 213.628235 
L 76.365664 214.139859 
L 76.961288 212.604988 
L 77.556912 208.256188 
L 78.152535 211.325929 
L 78.748159 209.023624 
L 79.343782 210.814306 
L 79.939406 212.093365 
L 80.535029 212.349176 
L 81.130653 216.058447 
L 81.726276 211.965459 
L 82.3219 212.604988 
L 82.917524 212.8608 
L 83.513147 213.756141 
L 84.108771 210.942212 
L 84.704394 211.198024 
L 85.300018 209.279435 
L 85.895641 213.372424 
L 86.491265 213.500329 
L 87.086888 213.756141 
L 87.682512 212.221271 
L 88.278136 208.128282 
L 88.873759 216.825882 
L 89.469383 213.372424 
L 90.065006 209.023624 
L 90.66063 211.070118 
L 91.256253 210.430588 
L 91.851877 210.302682 
L 92.4475 213.884047 
L 93.043124 215.291012 
L 93.638748 209.151529 
L 94.234371 212.349176 
L 94.829995 211.837553 
L 95.425618 211.965459 
L 96.021242 208.384094 
L 96.616865 214.779388 
L 97.212489 210.430588 
L 97.808112 211.453835 
L 98.403736 216.442165 
L 98.99936 210.302682 
L 99.594983 212.477082 
L 100.190607 210.430588 
L 100.78623 211.965459 
L 101.381854 215.0352 
L 101.977477 210.814306 
L 102.573101 208.256188 
L 103.168724 212.732894 
L 103.764348 209.407341 
L 104.359972 212.093365 
L 104.955595 213.628235 
L 105.551219 212.732894 
L 106.146842 210.558494 
L 106.742466 212.477082 
L 107.338089 212.093365 
L 107.933713 210.430588 
L 108.529336 211.325929 
L 109.12496 211.581741 
L 109.720584 208.384094 
L 110.316207 209.791059 
L 110.911831 215.0352 
L 111.507454 211.837553 
L 112.103078 212.093365 
L 112.698701 214.523576 
L 113.294325 208.767812 
L 113.889948 212.221271 
L 114.485572 209.663153 
L 115.081196 211.453835 
L 115.676819 211.581741 
L 116.272443 214.907294 
L 116.868066 211.837553 
L 117.46369 209.663153 
L 118.059313 208.895718 
L 118.654937 211.070118 
L 119.25056 215.0352 
L 119.846184 214.139859 
L 120.441808 214.779388 
L 121.037431 211.965459 
L 121.633055 215.674729 
L 122.228678 214.267765 
L 122.824302 213.628235 
L 123.419925 211.837553 
L 124.015549 212.093365 
L 124.611172 213.628235 
L 125.206796 212.604988 
L 125.802419 213.244518 
L 126.398043 213.628235 
L 126.993667 213.628235 
L 127.58929 213.244518 
L 128.184914 210.6864 
L 128.780537 212.988706 
L 129.376161 213.756141 
L 129.971784 212.349176 
L 130.567408 211.965459 
L 131.758655 214.523576 
L 132.354279 211.198024 
L 132.949902 212.604988 
L 133.545526 212.732894 
L 134.141149 211.325929 
L 134.736773 214.779388 
L 135.332396 213.244518 
L 135.92802 213.116612 
L 136.523643 211.709647 
L 137.119267 210.6864 
L 137.714891 208.895718 
L 138.310514 208.639906 
L 138.906138 211.325929 
L 139.501761 215.674729 
L 140.693008 207.872471 
L 141.288632 214.395671 
L 141.884255 209.791059 
L 142.479879 212.349176 
L 143.075503 208.128282 
L 143.671126 211.325929 
L 144.26675 211.965459 
L 144.862373 211.453835 
L 145.457997 209.023624 
L 146.05362 210.174776 
L 146.649244 214.011953 
L 147.244867 209.663153 
L 147.840491 213.628235 
L 148.436115 215.802635 
L 149.031738 214.011953 
L 149.627362 212.732894 
L 150.222985 210.430588 
L 150.818609 213.884047 
L 151.414232 208.256188 
L 152.605479 211.965459 
L 153.201103 209.918965 
L 153.796727 212.349176 
L 154.39235 211.453835 
L 154.987974 209.407341 
L 155.583597 211.198024 
L 156.179221 210.046871 
L 156.774844 214.779388 
L 157.370468 210.174776 
L 157.966091 211.581741 
L 158.561715 211.325929 
L 159.157339 211.453835 
L 159.752962 212.477082 
L 160.348586 209.791059 
L 160.944209 210.174776 
L 161.539833 209.407341 
L 162.135456 212.604988 
L 162.73108 207.872471 
L 163.326703 212.732894 
L 163.922327 213.500329 
L 164.517951 214.779388 
L 165.113574 214.523576 
L 165.709198 210.942212 
L 166.304821 210.558494 
L 166.900445 209.407341 
L 167.496068 211.198024 
L 168.091692 214.523576 
L 168.687315 211.325929 
L 169.282939 209.151529 
L 169.878563 212.477082 
L 170.474186 212.988706 
L 171.06981 212.604988 
L 171.665433 208.384094 
L 172.261057 209.407341 
L 172.85668 208.000376 
L 173.452304 201.093459 
L 174.047927 200.453929 
L 174.643551 191.244706 
L 175.239175 186.640094 
L 175.834798 186.384282 
L 177.026045 174.105318 
L 178.217292 184.209882 
L 178.812916 192.395859 
L 179.408539 197.64 
L 180.004163 207.744565 
L 180.599787 206.465506 
L 181.19541 211.325929 
L 181.791034 211.453835 
L 182.386657 211.709647 
L 183.577904 216.825882 
L 184.173528 210.174776 
L 184.769151 214.651482 
L 185.364775 214.139859 
L 185.960399 213.116612 
L 186.556022 214.779388 
L 187.151646 210.942212 
L 187.747269 212.8608 
L 188.342893 210.6864 
L 188.938516 210.942212 
L 189.53414 212.988706 
L 190.129763 212.8608 
L 190.725387 209.151529 
L 191.32101 208.256188 
L 191.916634 210.814306 
L 192.512258 210.302682 
L 193.107881 209.407341 
L 193.703505 209.151529 
L 194.299128 210.430588 
L 194.894752 214.267765 
L 195.490375 212.988706 
L 196.085999 210.814306 
L 196.681622 212.221271 
L 197.277246 218.232847 
L 197.87287 211.325929 
L 198.468493 207.744565 
L 199.064117 211.709647 
L 199.65974 209.791059 
L 200.255364 211.837553 
L 201.446611 213.244518 
L 202.042234 213.116612 
L 202.637858 212.221271 
L 203.233482 212.093365 
L 203.829105 211.325929 
L 204.424729 213.884047 
L 205.020352 209.535247 
L 205.615976 210.942212 
L 206.211599 209.663153 
L 206.807223 210.174776 
L 207.402846 213.628235 
L 207.99847 213.884047 
L 208.594094 214.395671 
L 209.189717 209.407341 
L 210.380964 216.058447 
L 210.976588 210.046871 
L 211.572211 215.546824 
L 212.167835 211.837553 
L 212.763458 214.651482 
L 213.359082 213.116612 
L 213.954706 211.070118 
L 214.550329 210.6864 
L 215.145953 208.895718 
L 215.741576 214.011953 
L 216.3372 213.884047 
L 216.932823 212.221271 
L 217.528447 213.372424 
L 218.719694 212.349176 
L 219.315318 214.907294 
L 219.910941 212.8608 
L 220.506565 212.221271 
L 221.102188 212.093365 
L 221.697812 213.116612 
L 222.293435 214.651482 
L 222.889059 211.198024 
L 223.484682 212.604988 
L 224.080306 211.965459 
L 224.67593 213.628235 
L 225.271553 210.814306 
L 225.867177 211.709647 
L 226.4628 212.8608 
L 227.058424 212.8608 
L 227.654047 215.802635 
L 228.249671 208.000376 
L 228.845294 209.791059 
L 229.440918 214.907294 
L 230.036542 208.384094 
L 230.632165 214.651482 
L 231.823412 212.477082 
L 232.419036 212.349176 
L 233.014659 211.709647 
L 233.610283 210.046871 
L 234.205906 215.0352 
L 234.80153 212.8608 
L 235.992777 214.267765 
L 236.588401 210.942212 
L 237.184024 211.070118 
L 237.779648 214.011953 
L 238.375271 209.918965 
L 238.970895 211.070118 
L 240.162142 211.709647 
L 240.757766 210.174776 
L 241.353389 206.721318 
L 241.949013 211.709647 
L 242.544636 211.453835 
L 243.14026 213.372424 
L 243.735883 212.732894 
L 244.331507 215.546824 
L 244.92713 213.116612 
L 245.522754 207.616659 
L 246.714001 212.8608 
L 247.309625 211.198024 
L 247.905248 211.837553 
L 248.500872 212.8608 
L 249.096495 212.477082 
L 250.287742 210.046871 
L 250.883366 209.791059 
L 251.47899 203.779482 
L 252.074613 199.174871 
L 252.670237 184.081976 
L 253.26586 177.430871 
L 253.861484 172.826259 
L 254.457107 177.047153 
L 255.052731 189.070306 
L 255.648354 198.663247 
L 256.243978 206.081788 
L 256.839601 207.872471 
L 257.435225 213.884047 
L 258.030849 213.628235 
L 258.626472 208.512 
L 259.222096 209.407341 
L 259.817719 218.616565 
L 261.008966 208.767812 
L 261.60459 213.116612 
L 262.200213 215.674729 
L 262.795837 213.116612 
L 263.391461 212.349176 
L 263.987084 213.244518 
L 264.582708 210.558494 
L 265.178331 211.325929 
L 265.773955 210.814306 
L 266.369578 216.186353 
L 266.965202 211.837553 
L 267.560825 216.314259 
L 268.156449 211.837553 
L 268.752073 213.116612 
L 269.347696 212.732894 
L 269.94332 209.407341 
L 270.538943 212.221271 
L 271.134567 210.942212 
L 271.73019 213.244518 
L 272.325814 211.965459 
L 272.921437 211.965459 
L 273.517061 214.395671 
L 274.112685 212.349176 
L 274.708308 211.198024 
L 275.303932 209.023624 
L 276.495179 214.907294 
L 277.090802 209.023624 
L 277.686426 212.477082 
L 278.282049 214.907294 
L 278.877673 212.221271 
L 279.473297 212.732894 
L 280.06892 210.558494 
L 280.664544 207.232941 
L 281.260167 214.395671 
L 281.855791 213.628235 
L 282.451414 206.977129 
L 283.047038 211.709647 
L 283.642661 208.767812 
L 284.238285 213.372424 
L 284.833909 213.372424 
L 285.429532 213.884047 
L 286.025156 212.221271 
L 286.620779 211.325929 
L 287.216403 211.070118 
L 287.812026 211.709647 
L 288.40765 211.198024 
L 289.003273 215.930541 
L 289.598897 210.942212 
L 290.194521 214.907294 
L 290.790144 214.523576 
L 291.385768 215.0352 
L 291.981391 213.884047 
L 292.577015 211.198024 
L 293.172638 214.395671 
L 293.768262 212.477082 
L 294.363885 209.535247 
L 294.959509 213.756141 
L 296.150756 210.430588 
L 296.74638 212.477082 
L 297.342003 210.942212 
L 297.937627 211.453835 
L 298.53325 210.6864 
L 299.128874 213.244518 
L 299.724497 212.604988 
L 300.320121 216.314259 
L 300.915745 212.093365 
L 301.511368 210.942212 
L 302.106992 212.477082 
L 302.702615 208.256188 
L 303.893862 210.942212 
L 304.489486 211.453835 
L 305.085109 212.477082 
L 305.680733 211.325929 
L 306.276357 211.581741 
L 306.87198 210.814306 
L 307.467604 210.6864 
L 308.063227 212.221271 
L 308.658851 212.221271 
L 309.254474 212.093365 
L 309.850098 211.453835 
L 310.445721 213.884047 
L 311.041345 211.325929 
L 311.636969 209.279435 
L 312.232592 214.779388 
L 312.828216 215.418918 
L 313.423839 214.395671 
L 314.019463 207.105035 
L 314.615086 212.093365 
L 315.21071 212.732894 
L 315.806333 209.918965 
L 316.401957 214.267765 
L 316.997581 208.128282 
L 317.593204 214.523576 
L 318.188828 212.349176 
L 318.784451 214.651482 
L 319.380075 212.604988 
L 319.975698 214.651482 
L 320.571322 213.116612 
L 321.166945 213.756141 
L 321.762569 208.384094 
L 322.358192 211.453835 
L 322.953816 210.942212 
L 323.54944 212.8608 
L 324.145063 208.512 
L 324.740687 216.314259 
L 325.33631 208.000376 
L 325.931934 213.116612 
L 326.527557 213.628235 
L 327.123181 209.663153 
L 327.718804 213.372424 
L 328.314428 208.128282 
L 329.505675 214.011953 
L 330.101299 210.942212 
L 330.696922 213.500329 
L 331.292546 212.604988 
L 331.888169 214.267765 
L 332.483793 211.198024 
L 333.079416 213.884047 
L 333.67504 210.558494 
L 334.270664 208.767812 
L 334.866287 210.6864 
L 335.461911 211.453835 
L 336.057534 211.325929 
L 337.248781 216.442165 
L 337.844405 207.232941 
L 338.440028 215.802635 
L 339.035652 214.139859 
L 339.631276 213.628235 
L 340.226899 209.791059 
L 340.822523 213.116612 
L 341.418146 214.907294 
L 342.609393 211.709647 
L 343.205017 210.430588 
L 343.80064 211.965459 
L 344.396264 211.453835 
L 344.991888 209.791059 
L 345.587511 211.453835 
L 346.183135 211.198024 
L 346.778758 217.465412 
L 347.374382 211.325929 
L 347.970005 209.663153 
L 348.565629 212.604988 
L 349.161252 211.581741 
L 349.756876 213.500329 
L 350.3525 210.302682 
L 350.948123 212.8608 
L 351.543747 212.988706 
L 352.13937 213.756141 
L 352.734994 206.977129 
L 353.330617 212.221271 
L 353.926241 215.418918 
L 354.521864 211.709647 
L 355.117488 209.151529 
L 355.713112 209.279435 
L 356.308735 214.395671 
L 356.904359 208.895718 
L 357.499982 214.139859 
L 358.095606 211.453835 
L 358.691229 212.221271 
L 359.286853 212.093365 
L 360.4781 218.360753 
L 361.073724 213.628235 
L 362.264971 211.453835 
L 362.860594 208.767812 
L 363.456218 213.372424 
L 364.051841 214.907294 
L 364.647465 211.837553 
L 365.243088 210.302682 
L 365.838712 211.709647 
L 366.434336 211.070118 
L 367.029959 211.453835 
L 367.625583 215.418918 
L 368.221206 212.8608 
L 368.81683 211.581741 
L 369.412453 214.523576 
L 370.6037 210.6864 
L 371.199324 214.395671 
L 372.390571 212.093365 
L 372.986195 214.651482 
L 373.581818 209.151529 
L 373.581818 209.151529 
" clip-path="url(#pa3b8f76595)" style="fill: none; stroke: #ff7f0e; stroke-width: 1.5; stroke-linecap: square"/>
   </g>
   <g id="line2d_33">
    <path d="M 69.218182 202.372518 
L 69.813805 206.465506 
L 70.409429 208.128282 
L 71.005052 204.674824 
L 71.600676 206.593412 
L 72.1963 207.744565 
L 72.791923 205.058541 
L 73.387547 206.209694 
L 73.98317 203.523671 
L 74.578794 208.128282 
L 75.174417 207.105035 
L 75.770041 206.849224 
L 76.365664 207.232941 
L 76.961288 205.570165 
L 77.556912 209.407341 
L 78.152535 211.709647 
L 78.748159 200.070212 
L 79.343782 208.384094 
L 79.939406 204.419012 
L 80.535029 205.442259 
L 81.130653 207.872471 
L 81.726276 203.779482 
L 82.3219 206.977129 
L 82.917524 206.465506 
L 83.513147 201.9888 
L 84.108771 205.314353 
L 84.704394 204.419012 
L 85.300018 202.372518 
L 85.895641 204.035294 
L 86.491265 200.326024 
L 87.086888 201.860894 
L 87.682512 208.767812 
L 88.278136 203.395765 
L 88.873759 206.721318 
L 89.469383 207.872471 
L 90.065006 203.907388 
L 90.66063 206.3376 
L 91.851877 201.860894 
L 92.4475 210.6864 
L 93.043124 203.139953 
L 93.638748 203.267859 
L 94.234371 207.488753 
L 94.829995 209.279435 
L 95.425618 204.674824 
L 96.021242 205.953882 
L 96.616865 208.639906 
L 97.212489 207.360847 
L 97.808112 207.105035 
L 98.403736 206.081788 
L 98.99936 205.442259 
L 99.594983 205.186447 
L 100.190607 205.698071 
L 100.78623 201.605082 
L 101.381854 209.791059 
L 102.573101 205.953882 
L 103.168724 204.674824 
L 103.764348 204.291106 
L 104.359972 207.616659 
L 104.955595 201.221365 
L 105.551219 205.698071 
L 106.146842 204.930635 
L 106.742466 201.349271 
L 107.338089 207.744565 
L 107.933713 209.023624 
L 108.529336 209.023624 
L 109.12496 209.663153 
L 109.720584 207.232941 
L 110.316207 205.953882 
L 110.911831 205.442259 
L 111.507454 205.186447 
L 112.103078 204.802729 
L 112.698701 206.721318 
L 113.294325 203.267859 
L 113.889948 207.232941 
L 114.485572 203.907388 
L 115.081196 203.139953 
L 115.676819 207.744565 
L 116.272443 201.9888 
L 116.868066 203.395765 
L 117.46369 205.186447 
L 118.059313 207.616659 
L 119.25056 203.267859 
L 119.846184 203.651576 
L 120.441808 207.872471 
L 121.037431 207.105035 
L 122.228678 202.500424 
L 122.824302 204.291106 
L 123.419925 210.430588 
L 124.015549 202.244612 
L 124.611172 211.325929 
L 125.206796 205.442259 
L 125.802419 205.314353 
L 126.398043 204.1632 
L 126.993667 203.267859 
L 127.58929 210.174776 
L 128.184914 204.674824 
L 128.780537 201.732988 
L 129.376161 201.093459 
L 129.971784 200.709741 
L 130.567408 202.884141 
L 131.163031 206.849224 
L 131.758655 206.209694 
L 132.354279 203.012047 
L 132.949902 202.372518 
L 133.545526 200.453929 
L 134.141149 206.721318 
L 134.736773 200.198118 
L 135.332396 207.616659 
L 135.92802 203.523671 
L 136.523643 205.570165 
L 137.119267 204.674824 
L 137.714891 205.570165 
L 138.310514 207.232941 
L 138.906138 208.512 
L 139.501761 203.395765 
L 140.097385 203.139953 
L 140.693008 203.267859 
L 141.288632 203.907388 
L 141.884255 208.639906 
L 142.479879 204.802729 
L 143.075503 204.035294 
L 143.671126 204.035294 
L 144.26675 204.1632 
L 144.862373 205.314353 
L 145.457997 207.872471 
L 146.05362 208.128282 
L 146.649244 207.488753 
L 147.244867 208.512 
L 147.840491 206.977129 
L 148.436115 203.139953 
L 149.031738 201.477176 
L 149.627362 208.512 
L 150.222985 207.616659 
L 150.818609 209.663153 
L 151.414232 207.488753 
L 152.009856 208.895718 
L 152.605479 205.570165 
L 153.201103 207.616659 
L 153.796727 203.139953 
L 154.39235 209.279435 
L 154.987974 204.1632 
L 156.179221 206.209694 
L 156.774844 204.291106 
L 157.370468 203.139953 
L 158.561715 210.814306 
L 159.157339 207.488753 
L 159.752962 207.744565 
L 160.348586 204.930635 
L 160.944209 208.128282 
L 161.539833 202.628329 
L 162.135456 205.825976 
L 162.73108 203.651576 
L 163.326703 203.907388 
L 163.922327 205.058541 
L 165.113574 202.244612 
L 165.709198 208.767812 
L 166.304821 205.186447 
L 166.900445 211.070118 
L 167.496068 200.581835 
L 168.091692 207.105035 
L 168.687315 207.744565 
L 169.282939 206.849224 
L 169.878563 201.9888 
L 170.474186 204.1632 
L 171.06981 206.977129 
L 171.665433 207.232941 
L 172.261057 204.419012 
L 172.85668 207.105035 
L 173.452304 202.244612 
L 174.643551 210.302682 
L 175.834798 206.465506 
L 176.430422 206.849224 
L 177.026045 207.488753 
L 177.621669 205.314353 
L 178.217292 207.488753 
L 178.812916 207.872471 
L 180.004163 202.884141 
L 180.599787 204.419012 
L 181.19541 207.232941 
L 181.791034 198.791153 
L 182.982281 207.744565 
L 183.577904 204.674824 
L 184.173528 209.279435 
L 184.769151 204.035294 
L 185.960399 208.895718 
L 186.556022 210.558494 
L 187.151646 206.977129 
L 187.747269 206.593412 
L 188.342893 203.139953 
L 188.938516 208.256188 
L 189.53414 203.139953 
L 190.129763 202.628329 
L 190.725387 208.512 
L 191.32101 207.360847 
L 192.512258 206.849224 
L 193.107881 203.139953 
L 193.703505 204.930635 
L 194.299128 205.442259 
L 194.894752 203.267859 
L 195.490375 207.232941 
L 196.085999 205.570165 
L 196.681622 207.872471 
L 197.277246 203.012047 
L 197.87287 202.372518 
L 198.468493 199.302776 
L 199.064117 190.221459 
L 199.65974 188.814494 
L 200.255364 175.896 
L 201.446611 137.780047 
L 202.042234 127.163859 
L 202.637858 121.663906 
L 203.233482 124.605741 
L 203.829105 131.128941 
L 206.211599 187.919153 
L 207.402846 202.244612 
L 207.99847 202.244612 
L 208.594094 204.674824 
L 209.189717 205.953882 
L 209.785341 207.616659 
L 210.380964 201.477176 
L 210.976588 203.139953 
L 211.572211 207.360847 
L 212.167835 209.535247 
L 212.763458 203.651576 
L 213.359082 207.105035 
L 213.954706 204.802729 
L 214.550329 205.186447 
L 215.145953 201.093459 
L 216.3372 208.128282 
L 216.932823 205.058541 
L 217.528447 199.430682 
L 218.12407 205.314353 
L 218.719694 205.442259 
L 219.315318 205.698071 
L 219.910941 204.802729 
L 220.506565 201.349271 
L 221.102188 210.302682 
L 221.697812 204.546918 
L 222.293435 205.314353 
L 222.889059 204.674824 
L 223.484682 203.139953 
L 224.080306 206.209694 
L 224.67593 200.837647 
L 225.271553 208.512 
L 225.867177 206.209694 
L 226.4628 205.570165 
L 227.058424 207.744565 
L 227.654047 205.825976 
L 228.249671 205.314353 
L 228.845294 207.744565 
L 229.440918 212.349176 
L 230.036542 203.779482 
L 230.632165 204.546918 
L 231.227789 204.546918 
L 232.419036 201.093459 
L 233.014659 206.3376 
L 233.610283 208.256188 
L 234.205906 206.3376 
L 234.80153 205.825976 
L 235.397154 208.128282 
L 235.992777 208.000376 
L 236.588401 206.3376 
L 237.184024 206.849224 
L 237.779648 209.023624 
L 238.375271 203.651576 
L 238.970895 205.698071 
L 239.566518 202.628329 
L 240.162142 205.442259 
L 240.757766 209.918965 
L 241.353389 207.105035 
L 241.949013 201.732988 
L 242.544636 206.081788 
L 243.14026 207.360847 
L 243.735883 203.395765 
L 244.331507 204.035294 
L 244.92713 204.035294 
L 245.522754 208.639906 
L 246.118378 202.372518 
L 246.714001 203.395765 
L 247.309625 202.500424 
L 247.905248 206.977129 
L 248.500872 205.442259 
L 249.096495 204.674824 
L 249.692119 208.384094 
L 250.287742 203.779482 
L 250.883366 207.105035 
L 251.47899 203.907388 
L 252.074613 205.953882 
L 252.670237 201.732988 
L 253.26586 201.732988 
L 253.861484 203.907388 
L 254.457107 203.779482 
L 255.052731 208.639906 
L 256.243978 206.465506 
L 256.839601 208.639906 
L 257.435225 206.849224 
L 258.030849 209.791059 
L 258.626472 203.267859 
L 259.222096 204.802729 
L 259.817719 210.174776 
L 260.413343 206.977129 
L 261.008966 206.3376 
L 261.60459 206.081788 
L 262.795837 207.232941 
L 263.391461 202.628329 
L 263.987084 208.000376 
L 264.582708 199.8144 
L 265.773955 207.872471 
L 266.369578 203.395765 
L 266.965202 201.349271 
L 267.560825 203.779482 
L 268.156449 207.105035 
L 268.752073 206.721318 
L 269.347696 206.849224 
L 269.94332 204.930635 
L 270.538943 206.593412 
L 271.134567 202.372518 
L 271.73019 206.721318 
L 272.325814 205.698071 
L 272.921437 206.3376 
L 273.517061 204.546918 
L 274.112685 206.849224 
L 274.708308 203.907388 
L 275.303932 206.081788 
L 275.899555 201.860894 
L 276.495179 204.035294 
L 277.686426 189.965647 
L 278.282049 171.163482 
L 279.473297 112.582588 
L 280.06892 97.489694 
L 280.664544 109.129129 
L 281.855791 176.535529 
L 283.047038 202.116706 
L 283.642661 206.721318 
L 284.238285 207.360847 
L 284.833909 204.419012 
L 285.429532 206.209694 
L 286.025156 204.674824 
L 286.620779 207.488753 
L 287.216403 206.977129 
L 287.812026 207.105035 
L 288.40765 205.442259 
L 289.003273 208.767812 
L 290.194521 202.884141 
L 290.790144 205.186447 
L 291.385768 203.267859 
L 291.981391 205.698071 
L 292.577015 204.1632 
L 293.172638 207.360847 
L 293.768262 203.907388 
L 294.363885 204.674824 
L 294.959509 200.198118 
L 295.555133 206.081788 
L 296.74638 208.256188 
L 297.342003 203.523671 
L 297.937627 201.093459 
L 298.53325 204.291106 
L 299.128874 200.581835 
L 299.724497 208.384094 
L 300.320121 205.314353 
L 300.915745 208.000376 
L 301.511368 205.825976 
L 302.106992 204.419012 
L 302.702615 206.849224 
L 303.298239 205.825976 
L 303.893862 208.512 
L 304.489486 209.663153 
L 305.085109 207.360847 
L 305.680733 209.023624 
L 306.276357 200.965553 
L 306.87198 205.825976 
L 307.467604 207.360847 
L 308.063227 207.105035 
L 308.658851 209.663153 
L 310.445721 202.116706 
L 311.041345 207.232941 
L 311.636969 205.570165 
L 312.232592 204.546918 
L 312.828216 207.488753 
L 313.423839 199.302776 
L 314.019463 200.581835 
L 314.615086 207.105035 
L 315.21071 205.698071 
L 315.806333 201.860894 
L 316.401957 207.360847 
L 316.997581 205.314353 
L 317.593204 206.3376 
L 318.188828 206.593412 
L 318.784451 204.802729 
L 319.380075 205.186447 
L 319.975698 206.3376 
L 320.571322 205.314353 
L 321.166945 201.093459 
L 321.762569 207.360847 
L 322.358192 206.849224 
L 322.953816 205.825976 
L 323.54944 202.884141 
L 324.145063 207.488753 
L 324.740687 205.825976 
L 325.33631 203.523671 
L 325.931934 202.244612 
L 326.527557 206.977129 
L 327.123181 205.186447 
L 327.718804 207.872471 
L 328.314428 206.977129 
L 328.910052 203.651576 
L 329.505675 205.186447 
L 330.101299 204.930635 
L 330.696922 206.3376 
L 331.292546 204.291106 
L 331.888169 204.546918 
L 332.483793 206.209694 
L 333.079416 206.465506 
L 333.67504 205.314353 
L 334.270664 206.209694 
L 334.866287 212.604988 
L 335.461911 206.465506 
L 336.057534 209.407341 
L 336.653158 207.488753 
L 337.248781 204.930635 
L 337.844405 208.384094 
L 338.440028 210.814306 
L 339.035652 206.977129 
L 339.631276 202.244612 
L 340.226899 202.372518 
L 340.822523 207.232941 
L 341.418146 204.546918 
L 342.01377 205.058541 
L 342.609393 209.407341 
L 343.205017 206.593412 
L 343.80064 206.721318 
L 344.396264 204.802729 
L 344.991888 206.721318 
L 345.587511 206.593412 
L 346.183135 204.1632 
L 346.778758 207.360847 
L 347.374382 207.232941 
L 347.970005 208.767812 
L 348.565629 205.058541 
L 349.161252 204.802729 
L 349.756876 206.465506 
L 350.3525 206.209694 
L 350.948123 203.267859 
L 351.543747 206.209694 
L 352.13937 210.430588 
L 352.734994 208.256188 
L 353.330617 200.965553 
L 353.926241 208.000376 
L 354.521864 201.221365 
L 355.117488 208.128282 
L 355.713112 208.384094 
L 356.308735 212.221271 
L 356.904359 204.802729 
L 357.499982 203.139953 
L 358.095606 206.3376 
L 358.691229 201.732988 
L 359.286853 206.849224 
L 359.882476 203.523671 
L 360.4781 206.081788 
L 361.073724 207.744565 
L 361.669347 208.639906 
L 362.264971 205.698071 
L 362.860594 203.395765 
L 363.456218 208.384094 
L 364.051841 200.965553 
L 364.647465 205.058541 
L 365.243088 205.825976 
L 365.838712 206.849224 
L 366.434336 201.605082 
L 367.625583 210.046871 
L 368.221206 200.837647 
L 368.81683 204.035294 
L 369.412453 202.756235 
L 370.008077 204.419012 
L 370.6037 203.523671 
L 371.199324 205.698071 
L 371.794948 203.012047 
L 372.390571 202.116706 
L 372.986195 207.105035 
L 373.581818 205.953882 
L 373.581818 205.953882 
" clip-path="url(#pa3b8f76595)" style="fill: none; stroke: #2ca02c; stroke-width: 1.5; stroke-linecap: square"/>
   </g>
   <g id="patch_3">
    <path d="M 54 252 
L 54 34.56 
" style="fill: none; stroke: #000000; stroke-width: 0.8; stroke-linejoin: miter; stroke-linecap: square"/>
   </g>
   <g id="patch_4">
    <path d="M 388.8 252 
L 388.8 34.56 
" style="fill: none; stroke: #000000; stroke-width: 0.8; stroke-linejoin: miter; stroke-linecap: square"/>
   </g>
   <g id="patch_5">
    <path d="M 54 252 
L 388.8 252 
" style="fill: none; stroke: #000000; stroke-width: 0.8; stroke-linejoin: miter; stroke-linecap: square"/>
   </g>
   <g id="patch_6">
    <path d="M 54 34.56 
L 388.8 34.56 
" style="fill: none; stroke: #000000; stroke-width: 0.8; stroke-linejoin: miter; stroke-linecap: square"/>
   </g>
   <g id="text_18">
    <!-- Label 2 -->
    <g transform="translate(199.487813 28.56)scale(0.12 -0.12)">
     <defs>
      <path id="DejaVuSans-4c" d="M 628 4666 
L 1259 4666 
L 1259 531 
L 3531 531 
L 3531 0 
L 628 0 
L 628 4666 
z
" transform="scale(0.015625)"/>
      <path id="DejaVuSans-61" d="M 2194 1759 
Q 1497 1759 1228 1600 
Q 959 1441 959 1056 
Q 959 750 1161 570 
Q 1363 391 1709 391 
Q 2188 391 2477 730 
Q 2766 1069 2766 1631 
L 2766 1759 
L 2194 1759 
z
M 3341 1997 
L 3341 0 
L 2766 0 
L 2766 531 
Q 2569 213 2275 61 
Q 1981 -91 1556 -91 
Q 1019 -91 701 211 
Q 384 513 384 1019 
Q 384 1609 779 1909 
Q 1175 2209 1959 2209 
L 2766 2209 
L 2766 2266 
Q 2766 2663 2505 2880 
Q 2244 3097 1772 3097 
Q 1472 3097 1187 3025 
Q 903 2953 641 2809 
L 641 3341 
Q 956 3463 1253 3523 
Q 1550 3584 1831 3584 
Q 2591 3584 2966 3190 
Q 3341 2797 3341 1997 
z
" transform="scale(0.015625)"/>
      <path id="DejaVuSans-65" d="M 3597 1894 
L 3597 1613 
L 953 1613 
Q 991 1019 1311 708 
Q 1631 397 2203 397 
Q 2534 397 2845 478 
Q 3156 559 3463 722 
L 3463 178 
Q 3153 47 2828 -22 
Q 2503 -91 2169 -91 
Q 1331 -91 842 396 
Q 353 884 353 1716 
Q 353 2575 817 3079 
Q 1281 3584 2069 3584 
Q 2775 3584 3186 3129 
Q 3597 2675 3597 1894 
z
M 3022 2063 
Q 3016 2534 2758 2815 
Q 2500 3097 2075 3097 
Q 1594 3097 1305 2825 
Q 1016 2553 972 2059 
L 3022 2063 
z
" transform="scale(0.015625)"/>
      <path id="DejaVuSans-6c" d="M 603 4863 
L 1178 4863 
L 1178 0 
L 603 0 
L 603 4863 
z
" transform="scale(0.015625)"/>
      <path id="DejaVuSans-20" transform="scale(0.015625)"/>
     </defs>
     <use xlink:href="#DejaVuSans-4c"/>
     <use xlink:href="#DejaVuSans-61" x="55.712891"/>
     <use xlink:href="#DejaVuSans-62" x="116.992188"/>
     <use xlink:href="#DejaVuSans-65" x="180.46875"/>
     <use xlink:href="#DejaVuSans-6c" x="241.992188"/>
     <use xlink:href="#DejaVuSans-20" x="269.775391"/>
     <use xlink:href="#DejaVuSans-32" x="301.5625"/>
    </g>
   </g>
   <g id="legend_1">
    <g id="patch_7">
     <path d="M 309.070312 101.2725 
L 381.8 101.2725 
Q 383.8 101.2725 383.8 99.2725 
L 383.8 41.56 
Q 383.8 39.56 381.8 39.56 
L 309.070312 39.56 
Q 307.070312 39.56 307.070312 41.56 
L 307.070312 99.2725 
Q 307.070312 101.2725 309.070312 101.2725 
z
" style="fill: #ffffff; opacity: 0.8; stroke: #cccccc; stroke-linejoin: miter"/>
    </g>
    <g id="text_19">
     <!-- Trace number -->
     <g transform="translate(311.070312 51.158437)scale(0.1 -0.1)">
      <defs>
       <path id="DejaVuSans-54" d="M -19 4666 
L 3928 4666 
L 3928 4134 
L 2272 4134 
L 2272 0 
L 1638 0 
L 1638 4134 
L -19 4134 
L -19 4666 
z
" transform="scale(0.015625)"/>
       <path id="DejaVuSans-72" d="M 2631 2963 
Q 2534 3019 2420 3045 
Q 2306 3072 2169 3072 
Q 1681 3072 1420 2755 
Q 1159 2438 1159 1844 
L 1159 0 
L 581 0 
L 581 3500 
L 1159 3500 
L 1159 2956 
Q 1341 3275 1631 3429 
Q 1922 3584 2338 3584 
Q 2397 3584 2469 3576 
Q 2541 3569 2628 3553 
L 2631 2963 
z
" transform="scale(0.015625)"/>
       <path id="DejaVuSans-6d" d="M 3328 2828 
Q 3544 3216 3844 3400 
Q 4144 3584 4550 3584 
Q 5097 3584 5394 3201 
Q 5691 2819 5691 2113 
L 5691 0 
L 5113 0 
L 5113 2094 
Q 5113 2597 4934 2840 
Q 4756 3084 4391 3084 
Q 3944 3084 3684 2787 
Q 3425 2491 3425 1978 
L 3425 0 
L 2847 0 
L 2847 2094 
Q 2847 2600 2669 2842 
Q 2491 3084 2119 3084 
Q 1678 3084 1418 2786 
Q 1159 2488 1159 1978 
L 1159 0 
L 581 0 
L 581 3500 
L 1159 3500 
L 1159 2956 
Q 1356 3278 1631 3431 
Q 1906 3584 2284 3584 
Q 2666 3584 2933 3390 
Q 3200 3197 3328 2828 
z
" transform="scale(0.015625)"/>
      </defs>
      <use xlink:href="#DejaVuSans-54"/>
      <use xlink:href="#DejaVuSans-72" x="46.333984"/>
      <use xlink:href="#DejaVuSans-61" x="87.447266"/>
      <use xlink:href="#DejaVuSans-63" x="148.726562"/>
      <use xlink:href="#DejaVuSans-65" x="203.707031"/>
      <use xlink:href="#DejaVuSans-20" x="265.230469"/>
      <use xlink:href="#DejaVuSans-6e" x="297.017578"/>
      <use xlink:href="#DejaVuSans-75" x="360.396484"/>
      <use xlink:href="#DejaVuSans-6d" x="423.775391"/>
      <use xlink:href="#DejaVuSans-62" x="521.1875"/>
      <use xlink:href="#DejaVuSans-65" x="584.664062"/>
      <use xlink:href="#DejaVuSans-72" x="646.1875"/>
     </g>
    </g>
    <g id="line2d_34">
     <path d="M 325.072656 62.336562 
L 335.072656 62.336562 
L 345.072656 62.336562 
" style="fill: none; stroke: #1f77b4; stroke-width: 1.5; stroke-linecap: square"/>
    </g>
    <g id="text_20">
     <!-- 17 -->
     <g transform="translate(353.072656 65.836562)scale(0.1 -0.1)">
      <defs>
       <path id="DejaVuSans-37" d="M 525 4666 
L 3525 4666 
L 3525 4397 
L 1831 0 
L 1172 0 
L 2766 4134 
L 525 4134 
L 525 4666 
z
" transform="scale(0.015625)"/>
      </defs>
      <use xlink:href="#DejaVuSans-31"/>
      <use xlink:href="#DejaVuSans-37" x="63.623047"/>
     </g>
    </g>
    <g id="line2d_35">
     <path d="M 325.072656 77.014687 
L 335.072656 77.014687 
L 345.072656 77.014687 
" style="fill: none; stroke: #ff7f0e; stroke-width: 1.5; stroke-linecap: square"/>
    </g>
    <g id="text_21">
     <!-- 20 -->
     <g transform="translate(353.072656 80.514687)scale(0.1 -0.1)">
      <use xlink:href="#DejaVuSans-32"/>
      <use xlink:href="#DejaVuSans-30" x="63.623047"/>
     </g>
    </g>
    <g id="line2d_36">
     <path d="M 325.072656 91.692813 
L 335.072656 91.692813 
L 345.072656 91.692813 
" style="fill: none; stroke: #2ca02c; stroke-width: 1.5; stroke-linecap: square"/>
    </g>
    <g id="text_22">
     <!-- 32 -->
     <g transform="translate(353.072656 95.192813)scale(0.1 -0.1)">
      <use xlink:href="#DejaVuSans-33"/>
      <use xlink:href="#DejaVuSans-32" x="63.623047"/>
     </g>
    </g>
   </g>
  </g>
 </g>
 <defs>
  <clipPath id="pa3b8f76595">
   <rect x="54" y="34.56" width="334.8" height="217.44"/>
  </clipPath>
 </defs>
</svg>
