<?xml version="1.0" encoding="utf-8" standalone="no"?>
<!DOCTYPE svg PUBLIC "-//W3C//DTD SVG 1.1//EN"
  "http://www.w3.org/Graphics/SVG/1.1/DTD/svg11.dtd">
<svg xmlns:xlink="http://www.w3.org/1999/xlink" width="432pt" height="288pt" viewBox="0 0 432 288" xmlns="http://www.w3.org/2000/svg" version="1.1">
 <metadata>
  <rdf:RDF xmlns:dc="http://purl.org/dc/elements/1.1/" xmlns:cc="http://creativecommons.org/ns#" xmlns:rdf="http://www.w3.org/1999/02/22-rdf-syntax-ns#">
   <cc:Work>
    <dc:type rdf:resource="http://purl.org/dc/dcmitype/StillImage"/>
    <dc:date>2022-03-30T13:12:47.978526</dc:date>
    <dc:format>image/svg+xml</dc:format>
    <dc:creator>
     <cc:Agent>
      <dc:title>Matplotlib v3.5.1, https://matplotlib.org/</dc:title>
     </cc:Agent>
    </dc:creator>
   </cc:Work>
  </rdf:RDF>
 </metadata>
 <defs>
  <style type="text/css">*{stroke-linejoin: round; stroke-linecap: butt}</style>
 </defs>
 <g id="figure_1">
  <g id="patch_1">
   <path d="M 0 288 
L 432 288 
L 432 0 
L 0 0 
z
" style="fill: #ffffff"/>
  </g>
  <g id="axes_1">
   <g id="patch_2">
    <path d="M 54 252 
L 388.8 252 
L 388.8 34.56 
L 54 34.56 
z
" style="fill: #ffffff"/>
   </g>
   <g id="matplotlib.axis_1">
    <g id="xtick_1">
     <g id="line2d_1">
      <path d="M 69.218182 252 
L 69.218182 34.56 
" clip-path="url(#p76acb4e82d)" style="fill: none; stroke: #b0b0b0; stroke-width: 0.8; stroke-linecap: square"/>
     </g>
     <g id="line2d_2">
      <defs>
       <path id="me37f9ec7fd" d="M 0 0 
L 0 3.5 
" style="stroke: #000000; stroke-width: 0.8"/>
      </defs>
      <g>
       <use xlink:href="#me37f9ec7fd" x="69.218182" y="252" style="stroke: #000000; stroke-width: 0.8"/>
      </g>
     </g>
     <g id="text_1">
      <!-- 0 -->
      <g transform="translate(66.036932 266.598437)scale(0.1 -0.1)">
       <defs>
        <path id="DejaVuSans-30" d="M 2034 4250 
Q 1547 4250 1301 3770 
Q 1056 3291 1056 2328 
Q 1056 1369 1301 889 
Q 1547 409 2034 409 
Q 2525 409 2770 889 
Q 3016 1369 3016 2328 
Q 3016 3291 2770 3770 
Q 2525 4250 2034 4250 
z
M 2034 4750 
Q 2819 4750 3233 4129 
Q 3647 3509 3647 2328 
Q 3647 1150 3233 529 
Q 2819 -91 2034 -91 
Q 1250 -91 836 529 
Q 422 1150 422 2328 
Q 422 3509 836 4129 
Q 1250 4750 2034 4750 
z
" transform="scale(0.015625)"/>
       </defs>
       <use xlink:href="#DejaVuSans-30"/>
      </g>
     </g>
    </g>
    <g id="xtick_2">
     <g id="line2d_3">
      <path d="M 128.780537 252 
L 128.780537 34.56 
" clip-path="url(#p76acb4e82d)" style="fill: none; stroke: #b0b0b0; stroke-width: 0.8; stroke-linecap: square"/>
     </g>
     <g id="line2d_4">
      <g>
       <use xlink:href="#me37f9ec7fd" x="128.780537" y="252" style="stroke: #000000; stroke-width: 0.8"/>
      </g>
     </g>
     <g id="text_2">
      <!-- 100 -->
      <g transform="translate(119.236787 266.598437)scale(0.1 -0.1)">
       <defs>
        <path id="DejaVuSans-31" d="M 794 531 
L 1825 531 
L 1825 4091 
L 703 3866 
L 703 4441 
L 1819 4666 
L 2450 4666 
L 2450 531 
L 3481 531 
L 3481 0 
L 794 0 
L 794 531 
z
" transform="scale(0.015625)"/>
       </defs>
       <use xlink:href="#DejaVuSans-31"/>
       <use xlink:href="#DejaVuSans-30" x="63.623047"/>
       <use xlink:href="#DejaVuSans-30" x="127.246094"/>
      </g>
     </g>
    </g>
    <g id="xtick_3">
     <g id="line2d_5">
      <path d="M 188.342893 252 
L 188.342893 34.56 
" clip-path="url(#p76acb4e82d)" style="fill: none; stroke: #b0b0b0; stroke-width: 0.8; stroke-linecap: square"/>
     </g>
     <g id="line2d_6">
      <g>
       <use xlink:href="#me37f9ec7fd" x="188.342893" y="252" style="stroke: #000000; stroke-width: 0.8"/>
      </g>
     </g>
     <g id="text_3">
      <!-- 200 -->
      <g transform="translate(178.799143 266.598437)scale(0.1 -0.1)">
       <defs>
        <path id="DejaVuSans-32" d="M 1228 531 
L 3431 531 
L 3431 0 
L 469 0 
L 469 531 
Q 828 903 1448 1529 
Q 2069 2156 2228 2338 
Q 2531 2678 2651 2914 
Q 2772 3150 2772 3378 
Q 2772 3750 2511 3984 
Q 2250 4219 1831 4219 
Q 1534 4219 1204 4116 
Q 875 4013 500 3803 
L 500 4441 
Q 881 4594 1212 4672 
Q 1544 4750 1819 4750 
Q 2544 4750 2975 4387 
Q 3406 4025 3406 3419 
Q 3406 3131 3298 2873 
Q 3191 2616 2906 2266 
Q 2828 2175 2409 1742 
Q 1991 1309 1228 531 
z
" transform="scale(0.015625)"/>
       </defs>
       <use xlink:href="#DejaVuSans-32"/>
       <use xlink:href="#DejaVuSans-30" x="63.623047"/>
       <use xlink:href="#DejaVuSans-30" x="127.246094"/>
      </g>
     </g>
    </g>
    <g id="xtick_4">
     <g id="line2d_7">
      <path d="M 247.905248 252 
L 247.905248 34.56 
" clip-path="url(#p76acb4e82d)" style="fill: none; stroke: #b0b0b0; stroke-width: 0.8; stroke-linecap: square"/>
     </g>
     <g id="line2d_8">
      <g>
       <use xlink:href="#me37f9ec7fd" x="247.905248" y="252" style="stroke: #000000; stroke-width: 0.8"/>
      </g>
     </g>
     <g id="text_4">
      <!-- 300 -->
      <g transform="translate(238.361498 266.598437)scale(0.1 -0.1)">
       <defs>
        <path id="DejaVuSans-33" d="M 2597 2516 
Q 3050 2419 3304 2112 
Q 3559 1806 3559 1356 
Q 3559 666 3084 287 
Q 2609 -91 1734 -91 
Q 1441 -91 1130 -33 
Q 819 25 488 141 
L 488 750 
Q 750 597 1062 519 
Q 1375 441 1716 441 
Q 2309 441 2620 675 
Q 2931 909 2931 1356 
Q 2931 1769 2642 2001 
Q 2353 2234 1838 2234 
L 1294 2234 
L 1294 2753 
L 1863 2753 
Q 2328 2753 2575 2939 
Q 2822 3125 2822 3475 
Q 2822 3834 2567 4026 
Q 2313 4219 1838 4219 
Q 1578 4219 1281 4162 
Q 984 4106 628 3988 
L 628 4550 
Q 988 4650 1302 4700 
Q 1616 4750 1894 4750 
Q 2613 4750 3031 4423 
Q 3450 4097 3450 3541 
Q 3450 3153 3228 2886 
Q 3006 2619 2597 2516 
z
" transform="scale(0.015625)"/>
       </defs>
       <use xlink:href="#DejaVuSans-33"/>
       <use xlink:href="#DejaVuSans-30" x="63.623047"/>
       <use xlink:href="#DejaVuSans-30" x="127.246094"/>
      </g>
     </g>
    </g>
    <g id="xtick_5">
     <g id="line2d_9">
      <path d="M 307.467604 252 
L 307.467604 34.56 
" clip-path="url(#p76acb4e82d)" style="fill: none; stroke: #b0b0b0; stroke-width: 0.8; stroke-linecap: square"/>
     </g>
     <g id="line2d_10">
      <g>
       <use xlink:href="#me37f9ec7fd" x="307.467604" y="252" style="stroke: #000000; stroke-width: 0.8"/>
      </g>
     </g>
     <g id="text_5">
      <!-- 400 -->
      <g transform="translate(297.923854 266.598437)scale(0.1 -0.1)">
       <defs>
        <path id="DejaVuSans-34" d="M 2419 4116 
L 825 1625 
L 2419 1625 
L 2419 4116 
z
M 2253 4666 
L 3047 4666 
L 3047 1625 
L 3713 1625 
L 3713 1100 
L 3047 1100 
L 3047 0 
L 2419 0 
L 2419 1100 
L 313 1100 
L 313 1709 
L 2253 4666 
z
" transform="scale(0.015625)"/>
       </defs>
       <use xlink:href="#DejaVuSans-34"/>
       <use xlink:href="#DejaVuSans-30" x="63.623047"/>
       <use xlink:href="#DejaVuSans-30" x="127.246094"/>
      </g>
     </g>
    </g>
    <g id="xtick_6">
     <g id="line2d_11">
      <path d="M 367.029959 252 
L 367.029959 34.56 
" clip-path="url(#p76acb4e82d)" style="fill: none; stroke: #b0b0b0; stroke-width: 0.8; stroke-linecap: square"/>
     </g>
     <g id="line2d_12">
      <g>
       <use xlink:href="#me37f9ec7fd" x="367.029959" y="252" style="stroke: #000000; stroke-width: 0.8"/>
      </g>
     </g>
     <g id="text_6">
      <!-- 500 -->
      <g transform="translate(357.486209 266.598437)scale(0.1 -0.1)">
       <defs>
        <path id="DejaVuSans-35" d="M 691 4666 
L 3169 4666 
L 3169 4134 
L 1269 4134 
L 1269 2991 
Q 1406 3038 1543 3061 
Q 1681 3084 1819 3084 
Q 2600 3084 3056 2656 
Q 3513 2228 3513 1497 
Q 3513 744 3044 326 
Q 2575 -91 1722 -91 
Q 1428 -91 1123 -41 
Q 819 9 494 109 
L 494 744 
Q 775 591 1075 516 
Q 1375 441 1709 441 
Q 2250 441 2565 725 
Q 2881 1009 2881 1497 
Q 2881 1984 2565 2268 
Q 2250 2553 1709 2553 
Q 1456 2553 1204 2497 
Q 953 2441 691 2322 
L 691 4666 
z
" transform="scale(0.015625)"/>
       </defs>
       <use xlink:href="#DejaVuSans-35"/>
       <use xlink:href="#DejaVuSans-30" x="63.623047"/>
       <use xlink:href="#DejaVuSans-30" x="127.246094"/>
      </g>
     </g>
    </g>
    <g id="text_7">
     <!-- bin -->
     <g transform="translate(213.667969 280.276563)scale(0.1 -0.1)">
      <defs>
       <path id="DejaVuSans-62" d="M 3116 1747 
Q 3116 2381 2855 2742 
Q 2594 3103 2138 3103 
Q 1681 3103 1420 2742 
Q 1159 2381 1159 1747 
Q 1159 1113 1420 752 
Q 1681 391 2138 391 
Q 2594 391 2855 752 
Q 3116 1113 3116 1747 
z
M 1159 2969 
Q 1341 3281 1617 3432 
Q 1894 3584 2278 3584 
Q 2916 3584 3314 3078 
Q 3713 2572 3713 1747 
Q 3713 922 3314 415 
Q 2916 -91 2278 -91 
Q 1894 -91 1617 61 
Q 1341 213 1159 525 
L 1159 0 
L 581 0 
L 581 4863 
L 1159 4863 
L 1159 2969 
z
" transform="scale(0.015625)"/>
       <path id="DejaVuSans-69" d="M 603 3500 
L 1178 3500 
L 1178 0 
L 603 0 
L 603 3500 
z
M 603 4863 
L 1178 4863 
L 1178 4134 
L 603 4134 
L 603 4863 
z
" transform="scale(0.015625)"/>
       <path id="DejaVuSans-6e" d="M 3513 2113 
L 3513 0 
L 2938 0 
L 2938 2094 
Q 2938 2591 2744 2837 
Q 2550 3084 2163 3084 
Q 1697 3084 1428 2787 
Q 1159 2491 1159 1978 
L 1159 0 
L 581 0 
L 581 3500 
L 1159 3500 
L 1159 2956 
Q 1366 3272 1645 3428 
Q 1925 3584 2291 3584 
Q 2894 3584 3203 3211 
Q 3513 2838 3513 2113 
z
" transform="scale(0.015625)"/>
      </defs>
      <use xlink:href="#DejaVuSans-62"/>
      <use xlink:href="#DejaVuSans-69" x="63.476562"/>
      <use xlink:href="#DejaVuSans-6e" x="91.259766"/>
     </g>
    </g>
   </g>
   <g id="matplotlib.axis_2">
    <g id="ytick_1">
     <g id="line2d_13">
      <path d="M 54 252 
L 388.8 252 
" clip-path="url(#p76acb4e82d)" style="fill: none; stroke: #b0b0b0; stroke-width: 0.8; stroke-linecap: square"/>
     </g>
     <g id="line2d_14">
      <defs>
       <path id="md473780002" d="M 0 0 
L -3.5 0 
" style="stroke: #000000; stroke-width: 0.8"/>
      </defs>
      <g>
       <use xlink:href="#md473780002" x="54" y="252" style="stroke: #000000; stroke-width: 0.8"/>
      </g>
     </g>
     <g id="text_8">
      <!-- 0 -->
      <g transform="translate(40.6375 255.799219)scale(0.1 -0.1)">
       <use xlink:href="#DejaVuSans-30"/>
      </g>
     </g>
    </g>
    <g id="ytick_2">
     <g id="line2d_15">
      <path d="M 54 226.418824 
L 388.8 226.418824 
" clip-path="url(#p76acb4e82d)" style="fill: none; stroke: #b0b0b0; stroke-width: 0.8; stroke-linecap: square"/>
     </g>
     <g id="line2d_16">
      <g>
       <use xlink:href="#md473780002" x="54" y="226.418824" style="stroke: #000000; stroke-width: 0.8"/>
      </g>
     </g>
     <g id="text_9">
      <!-- 200 -->
      <g transform="translate(27.9125 230.218042)scale(0.1 -0.1)">
       <use xlink:href="#DejaVuSans-32"/>
       <use xlink:href="#DejaVuSans-30" x="63.623047"/>
       <use xlink:href="#DejaVuSans-30" x="127.246094"/>
      </g>
     </g>
    </g>
    <g id="ytick_3">
     <g id="line2d_17">
      <path d="M 54 200.837647 
L 388.8 200.837647 
" clip-path="url(#p76acb4e82d)" style="fill: none; stroke: #b0b0b0; stroke-width: 0.8; stroke-linecap: square"/>
     </g>
     <g id="line2d_18">
      <g>
       <use xlink:href="#md473780002" x="54" y="200.837647" style="stroke: #000000; stroke-width: 0.8"/>
      </g>
     </g>
     <g id="text_10">
      <!-- 400 -->
      <g transform="translate(27.9125 204.636866)scale(0.1 -0.1)">
       <use xlink:href="#DejaVuSans-34"/>
       <use xlink:href="#DejaVuSans-30" x="63.623047"/>
       <use xlink:href="#DejaVuSans-30" x="127.246094"/>
      </g>
     </g>
    </g>
    <g id="ytick_4">
     <g id="line2d_19">
      <path d="M 54 175.256471 
L 388.8 175.256471 
" clip-path="url(#p76acb4e82d)" style="fill: none; stroke: #b0b0b0; stroke-width: 0.8; stroke-linecap: square"/>
     </g>
     <g id="line2d_20">
      <g>
       <use xlink:href="#md473780002" x="54" y="175.256471" style="stroke: #000000; stroke-width: 0.8"/>
      </g>
     </g>
     <g id="text_11">
      <!-- 600 -->
      <g transform="translate(27.9125 179.055689)scale(0.1 -0.1)">
       <defs>
        <path id="DejaVuSans-36" d="M 2113 2584 
Q 1688 2584 1439 2293 
Q 1191 2003 1191 1497 
Q 1191 994 1439 701 
Q 1688 409 2113 409 
Q 2538 409 2786 701 
Q 3034 994 3034 1497 
Q 3034 2003 2786 2293 
Q 2538 2584 2113 2584 
z
M 3366 4563 
L 3366 3988 
Q 3128 4100 2886 4159 
Q 2644 4219 2406 4219 
Q 1781 4219 1451 3797 
Q 1122 3375 1075 2522 
Q 1259 2794 1537 2939 
Q 1816 3084 2150 3084 
Q 2853 3084 3261 2657 
Q 3669 2231 3669 1497 
Q 3669 778 3244 343 
Q 2819 -91 2113 -91 
Q 1303 -91 875 529 
Q 447 1150 447 2328 
Q 447 3434 972 4092 
Q 1497 4750 2381 4750 
Q 2619 4750 2861 4703 
Q 3103 4656 3366 4563 
z
" transform="scale(0.015625)"/>
       </defs>
       <use xlink:href="#DejaVuSans-36"/>
       <use xlink:href="#DejaVuSans-30" x="63.623047"/>
       <use xlink:href="#DejaVuSans-30" x="127.246094"/>
      </g>
     </g>
    </g>
    <g id="ytick_5">
     <g id="line2d_21">
      <path d="M 54 149.675294 
L 388.8 149.675294 
" clip-path="url(#p76acb4e82d)" style="fill: none; stroke: #b0b0b0; stroke-width: 0.8; stroke-linecap: square"/>
     </g>
     <g id="line2d_22">
      <g>
       <use xlink:href="#md473780002" x="54" y="149.675294" style="stroke: #000000; stroke-width: 0.8"/>
      </g>
     </g>
     <g id="text_12">
      <!-- 800 -->
      <g transform="translate(27.9125 153.474513)scale(0.1 -0.1)">
       <defs>
        <path id="DejaVuSans-38" d="M 2034 2216 
Q 1584 2216 1326 1975 
Q 1069 1734 1069 1313 
Q 1069 891 1326 650 
Q 1584 409 2034 409 
Q 2484 409 2743 651 
Q 3003 894 3003 1313 
Q 3003 1734 2745 1975 
Q 2488 2216 2034 2216 
z
M 1403 2484 
Q 997 2584 770 2862 
Q 544 3141 544 3541 
Q 544 4100 942 4425 
Q 1341 4750 2034 4750 
Q 2731 4750 3128 4425 
Q 3525 4100 3525 3541 
Q 3525 3141 3298 2862 
Q 3072 2584 2669 2484 
Q 3125 2378 3379 2068 
Q 3634 1759 3634 1313 
Q 3634 634 3220 271 
Q 2806 -91 2034 -91 
Q 1263 -91 848 271 
Q 434 634 434 1313 
Q 434 1759 690 2068 
Q 947 2378 1403 2484 
z
M 1172 3481 
Q 1172 3119 1398 2916 
Q 1625 2713 2034 2713 
Q 2441 2713 2670 2916 
Q 2900 3119 2900 3481 
Q 2900 3844 2670 4047 
Q 2441 4250 2034 4250 
Q 1625 4250 1398 4047 
Q 1172 3844 1172 3481 
z
" transform="scale(0.015625)"/>
       </defs>
       <use xlink:href="#DejaVuSans-38"/>
       <use xlink:href="#DejaVuSans-30" x="63.623047"/>
       <use xlink:href="#DejaVuSans-30" x="127.246094"/>
      </g>
     </g>
    </g>
    <g id="ytick_6">
     <g id="line2d_23">
      <path d="M 54 124.094118 
L 388.8 124.094118 
" clip-path="url(#p76acb4e82d)" style="fill: none; stroke: #b0b0b0; stroke-width: 0.8; stroke-linecap: square"/>
     </g>
     <g id="line2d_24">
      <g>
       <use xlink:href="#md473780002" x="54" y="124.094118" style="stroke: #000000; stroke-width: 0.8"/>
      </g>
     </g>
     <g id="text_13">
      <!-- 1000 -->
      <g transform="translate(21.55 127.893336)scale(0.1 -0.1)">
       <use xlink:href="#DejaVuSans-31"/>
       <use xlink:href="#DejaVuSans-30" x="63.623047"/>
       <use xlink:href="#DejaVuSans-30" x="127.246094"/>
       <use xlink:href="#DejaVuSans-30" x="190.869141"/>
      </g>
     </g>
    </g>
    <g id="ytick_7">
     <g id="line2d_25">
      <path d="M 54 98.512941 
L 388.8 98.512941 
" clip-path="url(#p76acb4e82d)" style="fill: none; stroke: #b0b0b0; stroke-width: 0.8; stroke-linecap: square"/>
     </g>
     <g id="line2d_26">
      <g>
       <use xlink:href="#md473780002" x="54" y="98.512941" style="stroke: #000000; stroke-width: 0.8"/>
      </g>
     </g>
     <g id="text_14">
      <!-- 1200 -->
      <g transform="translate(21.55 102.31216)scale(0.1 -0.1)">
       <use xlink:href="#DejaVuSans-31"/>
       <use xlink:href="#DejaVuSans-32" x="63.623047"/>
       <use xlink:href="#DejaVuSans-30" x="127.246094"/>
       <use xlink:href="#DejaVuSans-30" x="190.869141"/>
      </g>
     </g>
    </g>
    <g id="ytick_8">
     <g id="line2d_27">
      <path d="M 54 72.931765 
L 388.8 72.931765 
" clip-path="url(#p76acb4e82d)" style="fill: none; stroke: #b0b0b0; stroke-width: 0.8; stroke-linecap: square"/>
     </g>
     <g id="line2d_28">
      <g>
       <use xlink:href="#md473780002" x="54" y="72.931765" style="stroke: #000000; stroke-width: 0.8"/>
      </g>
     </g>
     <g id="text_15">
      <!-- 1400 -->
      <g transform="translate(21.55 76.730983)scale(0.1 -0.1)">
       <use xlink:href="#DejaVuSans-31"/>
       <use xlink:href="#DejaVuSans-34" x="63.623047"/>
       <use xlink:href="#DejaVuSans-30" x="127.246094"/>
       <use xlink:href="#DejaVuSans-30" x="190.869141"/>
      </g>
     </g>
    </g>
    <g id="ytick_9">
     <g id="line2d_29">
      <path d="M 54 47.350588 
L 388.8 47.350588 
" clip-path="url(#p76acb4e82d)" style="fill: none; stroke: #b0b0b0; stroke-width: 0.8; stroke-linecap: square"/>
     </g>
     <g id="line2d_30">
      <g>
       <use xlink:href="#md473780002" x="54" y="47.350588" style="stroke: #000000; stroke-width: 0.8"/>
      </g>
     </g>
     <g id="text_16">
      <!-- 1600 -->
      <g transform="translate(21.55 51.149807)scale(0.1 -0.1)">
       <use xlink:href="#DejaVuSans-31"/>
       <use xlink:href="#DejaVuSans-36" x="63.623047"/>
       <use xlink:href="#DejaVuSans-30" x="127.246094"/>
       <use xlink:href="#DejaVuSans-30" x="190.869141"/>
      </g>
     </g>
    </g>
    <g id="text_17">
     <!-- count -->
     <g transform="translate(15.470312 157.38625)rotate(-90)scale(0.1 -0.1)">
      <defs>
       <path id="DejaVuSans-63" d="M 3122 3366 
L 3122 2828 
Q 2878 2963 2633 3030 
Q 2388 3097 2138 3097 
Q 1578 3097 1268 2742 
Q 959 2388 959 1747 
Q 959 1106 1268 751 
Q 1578 397 2138 397 
Q 2388 397 2633 464 
Q 2878 531 3122 666 
L 3122 134 
Q 2881 22 2623 -34 
Q 2366 -91 2075 -91 
Q 1284 -91 818 406 
Q 353 903 353 1747 
Q 353 2603 823 3093 
Q 1294 3584 2113 3584 
Q 2378 3584 2631 3529 
Q 2884 3475 3122 3366 
z
" transform="scale(0.015625)"/>
       <path id="DejaVuSans-6f" d="M 1959 3097 
Q 1497 3097 1228 2736 
Q 959 2375 959 1747 
Q 959 1119 1226 758 
Q 1494 397 1959 397 
Q 2419 397 2687 759 
Q 2956 1122 2956 1747 
Q 2956 2369 2687 2733 
Q 2419 3097 1959 3097 
z
M 1959 3584 
Q 2709 3584 3137 3096 
Q 3566 2609 3566 1747 
Q 3566 888 3137 398 
Q 2709 -91 1959 -91 
Q 1206 -91 779 398 
Q 353 888 353 1747 
Q 353 2609 779 3096 
Q 1206 3584 1959 3584 
z
" transform="scale(0.015625)"/>
       <path id="DejaVuSans-75" d="M 544 1381 
L 544 3500 
L 1119 3500 
L 1119 1403 
Q 1119 906 1312 657 
Q 1506 409 1894 409 
Q 2359 409 2629 706 
Q 2900 1003 2900 1516 
L 2900 3500 
L 3475 3500 
L 3475 0 
L 2900 0 
L 2900 538 
Q 2691 219 2414 64 
Q 2138 -91 1772 -91 
Q 1169 -91 856 284 
Q 544 659 544 1381 
z
M 1991 3584 
L 1991 3584 
z
" transform="scale(0.015625)"/>
       <path id="DejaVuSans-74" d="M 1172 4494 
L 1172 3500 
L 2356 3500 
L 2356 3053 
L 1172 3053 
L 1172 1153 
Q 1172 725 1289 603 
Q 1406 481 1766 481 
L 2356 481 
L 2356 0 
L 1766 0 
Q 1100 0 847 248 
Q 594 497 594 1153 
L 594 3053 
L 172 3053 
L 172 3500 
L 594 3500 
L 594 4494 
L 1172 4494 
z
" transform="scale(0.015625)"/>
      </defs>
      <use xlink:href="#DejaVuSans-63"/>
      <use xlink:href="#DejaVuSans-6f" x="54.980469"/>
      <use xlink:href="#DejaVuSans-75" x="116.162109"/>
      <use xlink:href="#DejaVuSans-6e" x="179.541016"/>
      <use xlink:href="#DejaVuSans-74" x="242.919922"/>
     </g>
    </g>
   </g>
   <g id="line2d_31">
    <path d="M 69.218182 240.488471 
L 69.813805 239.081506 
L 70.409429 239.337318 
L 71.005052 236.139671 
L 71.600676 236.139671 
L 72.1963 236.395482 
L 72.791923 238.441976 
L 73.387547 239.848941 
L 73.98317 239.209412 
L 74.578794 239.081506 
L 75.174417 240.360565 
L 75.770041 240.360565 
L 76.365664 238.569882 
L 76.961288 239.337318 
L 77.556912 237.418729 
L 78.152535 238.569882 
L 78.748159 240.232659 
L 79.343782 236.395482 
L 79.939406 237.930353 
L 80.535029 236.011765 
L 81.130653 239.209412 
L 81.726276 238.9536 
L 82.3219 237.802447 
L 82.917524 236.395482 
L 83.513147 239.848941 
L 84.108771 238.697788 
L 84.704394 239.848941 
L 85.300018 239.593129 
L 85.895641 239.209412 
L 86.491265 238.441976 
L 87.086888 237.418729 
L 87.682512 240.360565 
L 88.278136 237.930353 
L 88.873759 238.186165 
L 89.469383 239.721035 
L 90.065006 237.930353 
L 90.66063 237.546635 
L 91.256253 238.825694 
L 91.851877 238.569882 
L 92.4475 237.802447 
L 93.043124 238.441976 
L 93.638748 240.360565 
L 94.234371 238.441976 
L 94.829995 236.907106 
L 95.425618 240.232659 
L 96.021242 236.651294 
L 96.616865 238.441976 
L 97.212489 240.872188 
L 97.808112 238.441976 
L 98.403736 239.848941 
L 98.99936 239.337318 
L 99.594983 238.441976 
L 100.190607 239.593129 
L 100.78623 238.441976 
L 101.381854 237.546635 
L 101.977477 237.290824 
L 102.573101 239.593129 
L 103.168724 236.651294 
L 103.764348 237.930353 
L 104.359972 235.500141 
L 104.955595 238.058259 
L 105.551219 237.035012 
L 106.146842 239.593129 
L 106.742466 239.976847 
L 107.338089 237.418729 
L 107.933713 240.104753 
L 108.529336 239.976847 
L 109.12496 238.569882 
L 110.911831 239.976847 
L 111.507454 237.546635 
L 112.103078 238.9536 
L 112.698701 239.081506 
L 113.294325 239.465224 
L 113.889948 239.081506 
L 114.485572 239.081506 
L 115.081196 237.674541 
L 115.676819 238.314071 
L 116.272443 241.000094 
L 116.868066 239.465224 
L 117.46369 238.569882 
L 118.059313 239.976847 
L 118.654937 237.930353 
L 119.25056 236.907106 
L 119.846184 239.337318 
L 120.441808 238.697788 
L 121.037431 238.314071 
L 121.633055 238.9536 
L 122.228678 239.209412 
L 122.824302 237.290824 
L 123.419925 237.162918 
L 124.015549 238.9536 
L 124.611172 237.546635 
L 125.206796 239.593129 
L 125.802419 236.651294 
L 126.398043 239.337318 
L 126.993667 238.9536 
L 127.58929 239.209412 
L 128.184914 239.593129 
L 128.780537 236.651294 
L 129.376161 238.569882 
L 129.971784 238.569882 
L 130.567408 237.290824 
L 131.163031 237.035012 
L 131.758655 238.697788 
L 132.354279 237.546635 
L 132.949902 239.593129 
L 133.545526 237.290824 
L 135.332396 240.616376 
L 135.92802 239.976847 
L 136.523643 238.058259 
L 137.119267 239.209412 
L 137.714891 237.930353 
L 138.310514 239.593129 
L 138.906138 237.418729 
L 139.501761 238.058259 
L 140.097385 237.930353 
L 140.693008 239.081506 
L 141.288632 239.465224 
L 141.884255 237.802447 
L 142.479879 237.290824 
L 143.075503 238.9536 
L 143.671126 237.418729 
L 144.26675 237.290824 
L 144.862373 238.058259 
L 145.457997 239.848941 
L 146.05362 239.593129 
L 146.649244 238.569882 
L 147.244867 239.465224 
L 147.840491 239.593129 
L 149.627362 235.628047 
L 150.222985 238.569882 
L 150.818609 240.488471 
L 151.414232 236.395482 
L 152.009856 240.232659 
L 152.605479 239.976847 
L 153.201103 236.907106 
L 153.796727 239.337318 
L 154.39235 237.546635 
L 154.987974 239.209412 
L 155.583597 238.697788 
L 156.179221 238.697788 
L 156.774844 237.930353 
L 157.370468 236.523388 
L 157.966091 236.395482 
L 158.561715 235.500141 
L 159.157339 236.011765 
L 159.752962 232.814118 
L 160.348586 232.302494 
L 160.944209 230.256 
L 162.135456 221.814212 
L 163.326703 217.593318 
L 163.922327 216.314259 
L 164.517951 211.453835 
L 165.113574 209.279435 
L 165.709198 205.442259 
L 166.304821 207.744565 
L 166.900445 203.267859 
L 167.496068 205.186447 
L 168.091692 206.593412 
L 168.687315 203.651576 
L 169.282939 205.442259 
L 169.878563 204.802729 
L 170.474186 217.465412 
L 171.06981 214.779388 
L 171.665433 215.930541 
L 172.85668 223.7328 
L 173.452304 220.663059 
L 174.047927 223.860706 
L 174.643551 223.860706 
L 175.239175 223.988612 
L 175.834798 225.395576 
L 176.430422 224.244424 
L 177.026045 224.116518 
L 177.621669 220.535153 
L 178.217292 219.000282 
L 178.812916 218.104941 
L 179.408539 217.977035 
L 180.004163 222.709553 
L 180.599787 220.151435 
L 181.19541 220.918871 
L 181.791034 226.418824 
L 182.386657 226.930447 
L 182.982281 224.756047 
L 183.577904 230.256 
L 184.173528 230.383906 
L 184.769151 231.662965 
L 185.364775 234.732706 
L 185.960399 236.523388 
L 186.556022 236.651294 
L 187.151646 234.6048 
L 187.747269 238.186165 
L 188.342893 235.500141 
L 188.938516 237.930353 
L 189.53414 236.651294 
L 190.129763 237.802447 
L 190.725387 236.651294 
L 191.32101 237.546635 
L 191.916634 238.825694 
L 192.512258 238.186165 
L 193.107881 241.639624 
L 193.703505 235.116424 
L 194.299128 240.616376 
L 194.894752 237.930353 
L 195.490375 237.930353 
L 196.085999 237.290824 
L 196.681622 238.314071 
L 197.277246 238.314071 
L 197.87287 237.930353 
L 198.468493 236.139671 
L 199.064117 238.9536 
L 199.65974 235.755953 
L 200.255364 240.104753 
L 200.850987 235.755953 
L 202.042234 240.232659 
L 202.637858 237.035012 
L 203.233482 226.163012 
L 203.829105 235.883859 
L 204.424729 238.441976 
L 205.020352 237.290824 
L 205.615976 237.546635 
L 206.211599 238.569882 
L 206.807223 236.267576 
L 207.402846 239.081506 
L 207.99847 238.825694 
L 208.594094 238.314071 
L 209.189717 239.593129 
L 209.785341 238.9536 
L 210.380964 236.395482 
L 210.976588 237.674541 
L 211.572211 237.035012 
L 212.167835 240.488471 
L 212.763458 241.255906 
L 213.359082 238.314071 
L 213.954706 238.058259 
L 214.550329 238.314071 
L 215.145953 239.209412 
L 215.741576 239.081506 
L 216.3372 238.569882 
L 216.932823 238.314071 
L 217.528447 237.418729 
L 218.12407 239.337318 
L 218.719694 238.186165 
L 219.315318 237.290824 
L 219.910941 238.058259 
L 220.506565 237.674541 
L 221.102188 239.209412 
L 221.697812 239.337318 
L 222.293435 240.488471 
L 222.889059 240.104753 
L 223.484682 237.418729 
L 224.080306 237.546635 
L 224.67593 236.523388 
L 225.271553 236.523388 
L 225.867177 234.348988 
L 226.4628 233.965271 
L 227.058424 232.558306 
L 227.654047 230.128094 
L 228.845294 222.453741 
L 229.440918 221.046776 
L 230.036542 219.000282 
L 231.227789 209.407341 
L 231.823412 207.744565 
L 232.419036 206.593412 
L 233.014659 196.488847 
L 233.610283 191.884235 
L 234.205906 197.128376 
L 234.80153 198.663247 
L 235.397154 197.128376 
L 235.992777 195.209788 
L 236.588401 194.953976 
L 237.184024 202.884141 
L 237.779648 203.523671 
L 238.375271 203.651576 
L 238.970895 208.256188 
L 239.566518 217.081694 
L 240.162142 220.663059 
L 240.757766 225.011859 
L 241.353389 225.267671 
L 242.544636 232.686212 
L 243.14026 232.4304 
L 243.735883 235.244329 
L 244.331507 236.395482 
L 244.92713 235.755953 
L 245.522754 236.7792 
L 246.118378 236.267576 
L 246.714001 236.011765 
L 247.309625 239.721035 
L 247.905248 238.697788 
L 248.500872 239.209412 
L 249.096495 238.441976 
L 250.287742 238.697788 
L 250.883366 238.441976 
L 251.47899 236.267576 
L 252.074613 237.802447 
L 252.670237 237.035012 
L 253.26586 239.465224 
L 253.861484 235.628047 
L 254.457107 238.186165 
L 255.052731 236.907106 
L 255.648354 237.930353 
L 256.243978 237.546635 
L 256.839601 239.593129 
L 257.435225 239.593129 
L 258.030849 236.907106 
L 258.626472 236.7792 
L 259.222096 240.744282 
L 259.817719 242.279153 
L 260.413343 238.441976 
L 261.008966 235.372235 
L 261.60459 239.209412 
L 262.200213 240.232659 
L 262.795837 238.058259 
L 263.391461 241.128 
L 263.987084 235.883859 
L 264.582708 239.081506 
L 265.178331 238.825694 
L 265.773955 238.697788 
L 266.369578 237.418729 
L 266.965202 236.523388 
L 267.560825 238.569882 
L 268.156449 237.418729 
L 268.752073 237.802447 
L 269.347696 239.081506 
L 269.94332 238.441976 
L 270.538943 236.139671 
L 271.134567 237.290824 
L 272.325814 238.569882 
L 272.921437 235.628047 
L 273.517061 239.593129 
L 274.708308 235.244329 
L 275.303932 238.9536 
L 275.899555 236.907106 
L 276.495179 237.290824 
L 277.090802 237.418729 
L 277.686426 237.674541 
L 278.282049 239.465224 
L 278.877673 238.186165 
L 279.473297 238.186165 
L 280.06892 237.418729 
L 280.664544 239.209412 
L 281.260167 238.697788 
L 281.855791 236.011765 
L 282.451414 238.186165 
L 283.047038 238.825694 
L 283.642661 236.395482 
L 284.833909 239.465224 
L 285.429532 240.104753 
L 286.025156 237.418729 
L 286.620779 237.290824 
L 287.216403 240.232659 
L 287.812026 236.011765 
L 288.40765 234.988518 
L 289.003273 237.674541 
L 289.598897 238.441976 
L 290.194521 241.639624 
L 290.790144 237.290824 
L 291.385768 236.395482 
L 291.981391 239.337318 
L 292.577015 236.651294 
L 293.172638 238.569882 
L 294.363885 237.035012 
L 294.959509 237.418729 
L 295.555133 237.546635 
L 296.150756 239.081506 
L 296.74638 238.9536 
L 297.342003 237.035012 
L 297.937627 239.081506 
L 299.128874 238.569882 
L 299.724497 240.104753 
L 300.320121 239.337318 
L 300.915745 237.930353 
L 301.511368 237.930353 
L 302.106992 237.290824 
L 302.702615 237.290824 
L 303.298239 238.569882 
L 303.893862 236.907106 
L 304.489486 238.186165 
L 305.085109 237.162918 
L 305.680733 242.534965 
L 306.87198 238.186165 
L 307.467604 237.546635 
L 308.063227 237.802447 
L 308.658851 237.546635 
L 309.254474 241.895435 
L 309.850098 240.232659 
L 310.445721 237.930353 
L 311.041345 238.186165 
L 311.636969 239.721035 
L 312.232592 237.674541 
L 312.828216 238.058259 
L 313.423839 239.337318 
L 314.019463 237.546635 
L 314.615086 237.674541 
L 315.21071 239.209412 
L 315.806333 240.232659 
L 316.401957 238.697788 
L 316.997581 239.848941 
L 317.593204 237.418729 
L 318.188828 236.651294 
L 318.784451 238.825694 
L 319.380075 240.488471 
L 319.975698 237.162918 
L 320.571322 237.290824 
L 321.166945 238.314071 
L 321.762569 237.930353 
L 322.358192 238.441976 
L 322.953816 240.872188 
L 324.740687 236.907106 
L 325.33631 238.9536 
L 325.931934 238.825694 
L 326.527557 236.7792 
L 327.123181 237.930353 
L 327.718804 236.907106 
L 328.314428 238.186165 
L 328.910052 238.569882 
L 329.505675 238.441976 
L 330.101299 238.697788 
L 330.696922 240.488471 
L 331.292546 237.035012 
L 331.888169 237.035012 
L 332.483793 240.360565 
L 333.079416 238.9536 
L 333.67504 239.337318 
L 334.270664 238.441976 
L 334.866287 239.209412 
L 335.461911 239.209412 
L 336.057534 237.162918 
L 336.653158 239.976847 
L 337.248781 239.337318 
L 337.844405 237.930353 
L 338.440028 241.639624 
L 339.035652 236.267576 
L 339.631276 239.209412 
L 340.226899 235.244329 
L 340.822523 238.058259 
L 341.418146 237.290824 
L 342.01377 239.721035 
L 342.609393 235.244329 
L 343.205017 241.639624 
L 343.80064 236.139671 
L 344.396264 238.825694 
L 344.991888 238.441976 
L 345.587511 238.9536 
L 346.183135 234.860612 
L 346.778758 239.337318 
L 347.374382 237.546635 
L 347.970005 236.7792 
L 348.565629 239.976847 
L 349.161252 239.976847 
L 349.756876 239.593129 
L 350.3525 240.232659 
L 350.948123 241.255906 
L 351.543747 237.546635 
L 352.13937 241.255906 
L 352.734994 239.337318 
L 353.330617 238.441976 
L 353.926241 238.186165 
L 354.521864 238.569882 
L 355.117488 242.151247 
L 355.713112 238.314071 
L 356.308735 238.9536 
L 356.904359 241.511718 
L 357.499982 236.267576 
L 358.095606 241.895435 
L 358.691229 238.569882 
L 359.286853 239.337318 
L 359.882476 238.186165 
L 360.4781 238.058259 
L 361.073724 238.9536 
L 361.669347 238.441976 
L 362.264971 237.674541 
L 362.860594 237.418729 
L 364.051841 238.825694 
L 364.647465 237.035012 
L 365.243088 238.697788 
L 365.838712 241.511718 
L 366.434336 239.721035 
L 367.029959 240.104753 
L 367.625583 239.848941 
L 368.221206 238.058259 
L 368.81683 238.825694 
L 369.412453 238.9536 
L 370.008077 238.441976 
L 370.6037 237.035012 
L 371.794948 238.314071 
L 372.390571 241.000094 
L 372.986195 237.930353 
L 373.581818 237.418729 
L 373.581818 237.418729 
" clip-path="url(#p76acb4e82d)" style="fill: none; stroke: #1f77b4; stroke-width: 1.5; stroke-linecap: square"/>
   </g>
   <g id="line2d_32">
    <path d="M 69.218182 148.396235 
L 69.813805 148.652047 
L 70.409429 143.407906 
L 71.005052 145.198588 
L 71.600676 141.745129 
L 72.1963 141.1056 
L 72.791923 144.047435 
L 73.387547 145.582306 
L 73.98317 142.640471 
L 74.578794 138.291671 
L 75.174417 145.838118 
L 75.770041 140.721882 
L 76.365664 139.570729 
L 76.961288 139.570729 
L 77.556912 148.524141 
L 78.152535 138.163765 
L 78.748159 140.593976 
L 79.343782 137.012612 
L 79.939406 145.966024 
L 80.535029 145.070682 
L 81.130653 146.733459 
L 81.726276 139.187012 
L 82.3219 141.873035 
L 82.917524 140.210259 
L 83.513147 143.791624 
L 84.108771 143.791624 
L 84.704394 146.221835 
L 85.300018 144.175341 
L 85.895641 150.059012 
L 86.491265 140.849788 
L 87.086888 141.745129 
L 87.682512 136.373082 
L 88.278136 140.593976 
L 88.873759 137.012612 
L 89.469383 143.663718 
L 90.065006 140.721882 
L 90.66063 147.117176 
L 91.256253 147.245082 
L 91.851877 135.094024 
L 92.4475 145.070682 
L 93.043124 139.698635 
L 93.638748 135.989365 
L 94.829995 145.582306 
L 95.425618 148.012518 
L 96.021242 147.245082 
L 96.616865 143.152094 
L 97.212489 144.303247 
L 97.808112 138.803294 
L 98.403736 138.547482 
L 98.99936 145.838118 
L 99.594983 142.512565 
L 100.190607 142.512565 
L 101.381854 146.093929 
L 101.977477 141.361412 
L 102.573101 142.000941 
L 103.168724 143.024188 
L 103.764348 150.059012 
L 104.359972 147.372988 
L 104.955595 138.547482 
L 105.551219 147.500894 
L 106.146842 145.838118 
L 106.742466 142.512565 
L 107.338089 147.117176 
L 107.933713 141.745129 
L 108.529336 147.245082 
L 109.12496 140.466071 
L 109.720584 140.466071 
L 110.316207 145.070682 
L 110.911831 141.745129 
L 111.507454 136.500988 
L 112.103078 143.024188 
L 112.698701 141.489318 
L 113.294325 143.791624 
L 113.889948 140.466071 
L 114.485572 144.559059 
L 115.081196 142.768376 
L 115.676819 143.791624 
L 116.272443 142.128847 
L 116.868066 139.826541 
L 117.46369 142.640471 
L 118.059313 149.163671 
L 118.654937 138.803294 
L 119.25056 138.803294 
L 119.846184 133.942871 
L 120.441808 143.152094 
L 121.037431 135.477741 
L 121.633055 146.221835 
L 122.228678 144.047435 
L 122.824302 142.896282 
L 123.419925 144.175341 
L 124.015549 146.605553 
L 124.611172 143.791624 
L 125.206796 139.442824 
L 125.802419 153.896188 
L 126.398043 137.268424 
L 126.993667 147.500894 
L 127.58929 150.442729 
L 128.184914 145.070682 
L 128.780537 144.686965 
L 129.376161 147.372988 
L 129.971784 147.245082 
L 130.567408 147.884612 
L 131.163031 145.070682 
L 131.758655 140.849788 
L 132.354279 143.535812 
L 132.949902 140.593976 
L 133.545526 138.803294 
L 134.141149 140.721882 
L 134.736773 138.291671 
L 135.332396 140.082353 
L 135.92802 144.686965 
L 136.523643 142.128847 
L 137.119267 151.210165 
L 137.714891 138.803294 
L 138.906138 141.617224 
L 139.501761 141.489318 
L 140.097385 145.4544 
L 140.693008 145.582306 
L 141.288632 139.826541 
L 141.884255 146.733459 
L 142.479879 135.221929 
L 143.075503 142.256753 
L 143.671126 139.187012 
L 144.26675 144.942776 
L 144.862373 142.512565 
L 145.457997 145.198588 
L 146.05362 142.000941 
L 146.649244 143.919529 
L 147.244867 152.361318 
L 147.840491 148.268329 
L 148.436115 147.117176 
L 149.031738 142.896282 
L 149.627362 134.326588 
L 150.222985 143.407906 
L 150.818609 140.721882 
L 151.414232 145.710212 
L 152.009856 149.675294 
L 152.605479 145.838118 
L 153.201103 143.791624 
L 153.796727 143.791624 
L 154.39235 141.1056 
L 154.987974 147.117176 
L 155.583597 145.4544 
L 156.179221 138.163765 
L 156.774844 143.791624 
L 157.370468 143.152094 
L 157.966091 144.047435 
L 158.561715 139.314918 
L 159.157339 146.477647 
L 159.752962 146.477647 
L 160.348586 142.128847 
L 161.539833 148.524141 
L 162.135456 145.966024 
L 162.73108 148.012518 
L 163.326703 144.942776 
L 163.922327 145.582306 
L 164.517951 138.291671 
L 165.113574 140.338165 
L 165.709198 141.617224 
L 166.304821 145.198588 
L 166.900445 138.163765 
L 167.496068 145.4544 
L 168.091692 144.431153 
L 168.687315 146.093929 
L 169.282939 147.245082 
L 169.878563 143.791624 
L 170.474186 147.500894 
L 171.06981 143.791624 
L 171.665433 140.849788 
L 172.261057 148.140424 
L 172.85668 138.675388 
L 173.452304 143.663718 
L 174.047927 144.175341 
L 174.643551 135.733553 
L 175.239175 142.896282 
L 175.834798 141.1056 
L 176.430422 148.012518 
L 177.026045 148.907859 
L 177.621669 152.105506 
L 178.217292 143.024188 
L 178.812916 146.605553 
L 179.408539 142.256753 
L 180.004163 145.070682 
L 180.599787 143.152094 
L 181.19541 139.187012 
L 181.791034 147.6288 
L 182.386657 139.954447 
L 182.982281 138.291671 
L 183.577904 146.989271 
L 184.173528 148.524141 
L 184.769151 145.198588 
L 185.960399 151.082259 
L 186.556022 148.268329 
L 187.151646 140.338165 
L 187.747269 137.012612 
L 188.342893 140.082353 
L 188.938516 148.396235 
L 189.53414 138.419576 
L 190.129763 139.314918 
L 190.725387 142.256753 
L 191.916634 140.593976 
L 192.512258 144.814871 
L 193.107881 139.187012 
L 193.703505 134.966118 
L 194.299128 135.733553 
L 194.894752 135.605647 
L 195.490375 128.954541 
L 196.085999 124.349929 
L 196.681622 122.175529 
L 197.277246 113.094212 
L 197.87287 109.896565 
L 198.468493 98.385035 
L 200.255364 89.815341 
L 201.446611 66.408565 
L 202.042234 70.757365 
L 202.637858 76.129412 
L 203.233482 63.338824 
L 203.829105 64.362071 
L 204.424729 69.989929 
L 205.020352 69.222494 
L 205.615976 82.524706 
L 206.211599 83.292141 
L 206.807223 78.559624 
L 207.402846 95.315294 
L 207.99847 108.361694 
L 208.594094 107.338447 
L 209.189717 109.001224 
L 209.785341 107.338447 
L 210.380964 109.512847 
L 210.976588 112.582588 
L 211.572211 107.210541 
L 212.167835 116.419765 
L 212.763458 104.268706 
L 213.359082 110.536094 
L 213.954706 110.536094 
L 214.550329 103.884988 
L 215.145953 100.047812 
L 215.741576 106.187294 
L 216.3372 105.036141 
L 216.932823 108.745412 
L 218.12407 114.245365 
L 218.719694 114.373271 
L 219.315318 126.652235 
L 219.910941 126.780141 
L 220.506565 129.721976 
L 221.102188 129.338259 
L 221.697812 134.070776 
L 222.293435 145.4544 
L 222.889059 138.9312 
L 223.484682 139.826541 
L 224.080306 148.140424 
L 224.67593 145.710212 
L 225.867177 138.803294 
L 226.4628 144.431153 
L 227.058424 145.966024 
L 227.654047 138.035859 
L 228.249671 145.710212 
L 228.845294 145.582306 
L 229.440918 140.977694 
L 230.036542 144.431153 
L 230.632165 141.233506 
L 231.227789 135.605647 
L 231.823412 141.361412 
L 232.419036 139.826541 
L 233.014659 149.675294 
L 233.610283 148.907859 
L 234.205906 145.710212 
L 234.80153 149.035765 
L 235.397154 145.838118 
L 235.992777 140.849788 
L 236.588401 145.838118 
L 237.184024 138.803294 
L 237.779648 141.1056 
L 238.375271 145.710212 
L 238.970895 113.222118 
L 239.566518 138.9312 
L 240.162142 149.291576 
L 240.757766 145.966024 
L 241.353389 147.6288 
L 241.949013 147.884612 
L 242.544636 140.977694 
L 243.14026 145.326494 
L 243.735883 151.593882 
L 244.331507 135.221929 
L 244.92713 142.128847 
L 245.522754 138.803294 
L 246.118378 142.896282 
L 246.714001 143.791624 
L 247.309625 138.419576 
L 247.905248 143.919529 
L 248.500872 142.768376 
L 249.096495 145.326494 
L 249.692119 147.245082 
L 250.287742 140.849788 
L 250.883366 144.175341 
L 251.47899 140.721882 
L 252.074613 154.663624 
L 252.670237 142.384659 
L 253.26586 143.152094 
L 253.861484 146.989271 
L 254.457107 147.500894 
L 255.052731 145.198588 
L 255.648354 145.582306 
L 256.243978 143.28 
L 256.839601 140.082353 
L 257.435225 135.094024 
L 258.030849 143.535812 
L 258.626472 133.303341 
L 259.222096 138.419576 
L 259.817719 139.698635 
L 260.413343 139.059106 
L 261.008966 141.361412 
L 261.60459 127.547576 
L 262.200213 132.535906 
L 262.795837 125.628988 
L 263.391461 126.012706 
L 263.987084 113.989553 
L 264.582708 106.826824 
L 265.178331 108.105882 
L 265.773955 90.582776 
L 266.369578 96.210635 
L 267.560825 71.268988 
L 268.156449 57.199341 
L 268.752073 58.350494 
L 269.347696 43.129694 
L 269.94332 40.955294 
L 270.538943 40.571576 
L 271.134567 44.792471 
L 271.73019 45.432 
L 272.325814 51.9552 
L 272.921437 55.792376 
L 273.517061 68.838776 
L 274.112685 68.327153 
L 274.708308 78.687529 
L 275.303932 84.699106 
L 275.899555 105.803576 
L 276.495179 110.664 
L 277.090802 108.361694 
L 277.686426 129.977788 
L 278.282049 126.140612 
L 279.473297 135.733553 
L 280.06892 138.163765 
L 280.664544 142.640471 
L 281.260167 135.989365 
L 281.855791 140.849788 
L 282.451414 142.896282 
L 283.047038 149.8032 
L 283.642661 145.4544 
L 284.238285 144.814871 
L 284.833909 143.791624 
L 285.429532 144.303247 
L 286.025156 139.954447 
L 286.620779 144.303247 
L 287.216403 145.582306 
L 287.812026 149.291576 
L 288.40765 146.477647 
L 289.003273 146.477647 
L 289.598897 145.838118 
L 290.194521 143.535812 
L 290.790144 148.140424 
L 291.981391 139.059106 
L 292.577015 139.826541 
L 293.172638 148.012518 
L 293.768262 151.9776 
L 294.363885 143.919529 
L 294.959509 145.710212 
L 295.555133 144.814871 
L 296.150756 139.314918 
L 296.74638 142.256753 
L 297.342003 142.384659 
L 297.937627 139.698635 
L 298.53325 143.152094 
L 299.128874 145.326494 
L 299.724497 137.652141 
L 300.320121 144.559059 
L 300.915745 140.082353 
L 301.511368 142.384659 
L 302.106992 142.896282 
L 302.702615 142.384659 
L 303.298239 147.500894 
L 303.893862 143.024188 
L 304.489486 147.500894 
L 305.085109 148.140424 
L 305.680733 145.710212 
L 306.276357 147.6288 
L 306.87198 146.221835 
L 307.467604 144.175341 
L 308.063227 144.559059 
L 308.658851 141.361412 
L 309.254474 144.686965 
L 309.850098 142.512565 
L 310.445721 146.605553 
L 311.041345 146.349741 
L 311.636969 143.28 
L 312.232592 145.198588 
L 312.828216 142.896282 
L 313.423839 146.349741 
L 314.019463 143.535812 
L 314.615086 144.431153 
L 315.21071 144.686965 
L 315.806333 142.768376 
L 316.401957 146.477647 
L 316.997581 140.082353 
L 317.593204 142.000941 
L 318.188828 145.070682 
L 318.784451 144.559059 
L 319.380075 146.861365 
L 319.975698 139.187012 
L 320.571322 146.605553 
L 321.166945 151.849694 
L 321.762569 140.721882 
L 322.358192 145.710212 
L 322.953816 140.721882 
L 323.54944 143.791624 
L 324.145063 140.338165 
L 324.740687 140.210259 
L 325.33631 143.28 
L 325.931934 141.873035 
L 326.527557 138.803294 
L 327.123181 146.477647 
L 327.718804 147.884612 
L 328.314428 141.617224 
L 328.910052 146.349741 
L 329.505675 146.989271 
L 330.101299 146.349741 
L 330.696922 147.245082 
L 331.888169 142.640471 
L 332.483793 138.547482 
L 333.079416 147.372988 
L 333.67504 145.838118 
L 334.270664 148.779953 
L 334.866287 148.012518 
L 335.461911 144.175341 
L 336.057534 144.431153 
L 336.653158 141.361412 
L 337.248781 140.721882 
L 337.844405 143.791624 
L 338.440028 144.431153 
L 339.631276 134.966118 
L 340.226899 149.931106 
L 340.822523 143.28 
L 341.418146 150.442729 
L 342.01377 142.384659 
L 342.609393 143.791624 
L 343.205017 143.791624 
L 343.80064 147.756706 
L 344.396264 142.128847 
L 344.991888 145.710212 
L 345.587511 144.175341 
L 346.183135 147.6288 
L 346.778758 142.512565 
L 347.374382 143.024188 
L 347.970005 140.977694 
L 348.565629 145.710212 
L 349.161252 141.1056 
L 349.756876 141.617224 
L 350.3525 142.384659 
L 350.948123 140.338165 
L 351.543747 146.989271 
L 352.13937 144.814871 
L 352.734994 151.465976 
L 353.330617 143.28 
L 353.926241 142.000941 
L 354.521864 139.187012 
L 355.117488 143.535812 
L 355.713112 140.849788 
L 356.308735 141.745129 
L 356.904359 137.652141 
L 357.499982 146.861365 
L 358.095606 139.059106 
L 359.286853 145.326494 
L 359.882476 141.873035 
L 360.4781 142.768376 
L 361.073724 144.303247 
L 361.669347 143.407906 
L 362.264971 143.28 
L 362.860594 148.396235 
L 363.456218 148.268329 
L 364.051841 147.884612 
L 364.647465 143.535812 
L 365.243088 145.198588 
L 365.838712 142.000941 
L 366.434336 145.710212 
L 367.029959 141.745129 
L 367.625583 146.093929 
L 368.221206 138.675388 
L 368.81683 138.675388 
L 369.412453 147.245082 
L 370.008077 148.140424 
L 370.6037 140.210259 
L 371.199324 142.640471 
L 371.794948 140.721882 
L 372.390571 148.012518 
L 372.986195 143.535812 
L 373.581818 145.326494 
L 373.581818 145.326494 
" clip-path="url(#p76acb4e82d)" style="fill: none; stroke: #ff7f0e; stroke-width: 1.5; stroke-linecap: square"/>
   </g>
   <g id="line2d_33">
    <path d="M 69.218182 223.093271 
L 69.813805 225.267671 
L 70.409429 225.9072 
L 71.005052 226.802541 
L 71.600676 226.802541 
L 72.1963 227.058353 
L 72.791923 225.9072 
L 73.387547 225.395576 
L 73.98317 223.7328 
L 74.578794 228.593224 
L 75.174417 224.372329 
L 76.365664 226.418824 
L 76.961288 226.290918 
L 77.556912 224.883953 
L 78.152535 225.651388 
L 78.748159 224.500235 
L 79.343782 224.500235 
L 79.939406 225.267671 
L 81.130653 223.604894 
L 81.726276 223.7328 
L 82.3219 225.651388 
L 82.917524 223.604894 
L 83.513147 227.569976 
L 84.108771 224.500235 
L 84.704394 225.9072 
L 85.300018 224.372329 
L 85.895641 227.569976 
L 86.491265 225.651388 
L 87.682512 223.604894 
L 88.278136 224.244424 
L 88.873759 224.244424 
L 89.469383 227.442071 
L 90.065006 227.697882 
L 90.66063 225.267671 
L 91.256253 226.035106 
L 91.851877 223.349082 
L 92.4475 226.418824 
L 93.043124 224.244424 
L 93.638748 225.651388 
L 94.234371 224.244424 
L 94.829995 225.395576 
L 95.425618 225.139765 
L 96.616865 223.988612 
L 97.212489 224.628141 
L 97.808112 226.290918 
L 98.403736 224.883953 
L 98.99936 224.500235 
L 99.594983 226.930447 
L 100.190607 225.651388 
L 101.381854 224.500235 
L 101.977477 225.779294 
L 102.573101 225.651388 
L 103.168724 223.349082 
L 103.764348 227.442071 
L 104.359972 224.500235 
L 104.955595 226.418824 
L 105.551219 224.372329 
L 106.146842 226.674635 
L 106.742466 223.221176 
L 107.338089 221.942118 
L 107.933713 228.209506 
L 108.529336 228.976941 
L 109.12496 228.849035 
L 109.720584 227.314165 
L 110.316207 224.756047 
L 110.911831 227.442071 
L 111.507454 227.697882 
L 112.103078 225.9072 
L 112.698701 225.523482 
L 113.294325 223.476988 
L 113.889948 226.035106 
L 114.485572 224.244424 
L 115.081196 227.314165 
L 115.676819 226.930447 
L 116.272443 225.651388 
L 116.868066 227.569976 
L 117.46369 225.395576 
L 118.059313 225.779294 
L 118.654937 223.860706 
L 119.25056 227.186259 
L 119.846184 223.349082 
L 120.441808 227.058353 
L 121.037431 225.779294 
L 121.633055 226.674635 
L 122.228678 222.965365 
L 122.824302 226.546729 
L 123.419925 227.953694 
L 124.015549 227.314165 
L 124.611172 227.697882 
L 125.206796 223.604894 
L 125.802419 227.825788 
L 126.398043 223.860706 
L 126.993667 222.581647 
L 127.58929 225.395576 
L 128.184914 227.314165 
L 128.780537 228.0816 
L 129.971784 224.500235 
L 130.567408 224.500235 
L 131.163031 225.395576 
L 131.758655 227.314165 
L 132.354279 227.442071 
L 132.949902 222.965365 
L 133.545526 222.837459 
L 134.141149 222.197929 
L 134.736773 223.860706 
L 135.332396 227.697882 
L 135.92802 225.139765 
L 136.523643 227.953694 
L 137.119267 227.186259 
L 137.714891 225.9072 
L 138.310514 225.651388 
L 138.906138 224.116518 
L 139.501761 227.697882 
L 140.097385 227.697882 
L 140.693008 224.756047 
L 141.288632 224.756047 
L 141.884255 225.9072 
L 142.479879 226.290918 
L 143.075503 224.372329 
L 143.671126 223.093271 
L 144.26675 227.186259 
L 144.862373 227.825788 
L 145.457997 228.0816 
L 146.05362 226.290918 
L 146.649244 225.395576 
L 147.244867 226.290918 
L 148.436115 223.221176 
L 149.031738 224.244424 
L 149.627362 227.569976 
L 150.222985 223.604894 
L 150.818609 224.372329 
L 151.414232 226.930447 
L 152.009856 224.244424 
L 152.605479 227.953694 
L 153.201103 226.418824 
L 153.796727 227.569976 
L 154.39235 226.035106 
L 154.987974 225.9072 
L 155.583597 226.802541 
L 156.179221 223.221176 
L 156.774844 220.407247 
L 157.370468 224.883953 
L 157.966091 228.337412 
L 158.561715 226.930447 
L 159.157339 226.290918 
L 159.752962 229.616471 
L 160.348586 224.756047 
L 160.944209 225.267671 
L 161.539833 223.860706 
L 162.135456 228.976941 
L 162.73108 226.930447 
L 163.326703 225.395576 
L 163.922327 228.593224 
L 164.517951 223.476988 
L 165.113574 223.7328 
L 165.709198 227.314165 
L 166.304821 224.372329 
L 166.900445 226.930447 
L 167.496068 223.860706 
L 168.091692 226.674635 
L 168.687315 225.267671 
L 169.282939 224.756047 
L 169.878563 228.209506 
L 170.474186 223.988612 
L 171.06981 224.628141 
L 171.665433 222.453741 
L 172.261057 223.860706 
L 172.85668 227.314165 
L 173.452304 222.581647 
L 174.047927 226.802541 
L 174.643551 225.523482 
L 175.239175 227.186259 
L 175.834798 225.267671 
L 176.430422 225.011859 
L 177.026045 228.593224 
L 177.621669 224.244424 
L 178.217292 225.395576 
L 178.812916 225.9072 
L 179.408539 228.849035 
L 180.004163 223.476988 
L 180.599787 228.465318 
L 181.19541 222.325835 
L 181.791034 227.186259 
L 182.386657 227.058353 
L 182.982281 222.070024 
L 183.577904 224.883953 
L 184.173528 228.849035 
L 184.769151 227.058353 
L 185.364775 227.953694 
L 185.960399 224.756047 
L 186.556022 226.035106 
L 187.151646 226.802541 
L 187.747269 228.209506 
L 188.342893 227.442071 
L 188.938516 223.988612 
L 189.53414 227.186259 
L 190.129763 225.779294 
L 190.725387 221.942118 
L 191.32101 227.314165 
L 191.916634 225.267671 
L 192.512258 224.372329 
L 193.107881 225.139765 
L 193.703505 224.244424 
L 194.299128 225.9072 
L 194.894752 225.779294 
L 195.490375 226.290918 
L 196.085999 222.581647 
L 196.681622 222.581647 
L 197.277246 229.872282 
L 197.87287 224.244424 
L 198.468493 224.628141 
L 199.064117 223.604894 
L 199.65974 225.011859 
L 200.255364 221.046776 
L 200.850987 218.488659 
L 201.446611 210.6864 
L 202.042234 212.093365 
L 202.637858 212.093365 
L 203.233482 211.198024 
L 204.424729 205.698071 
L 205.020352 197.384188 
L 205.615976 200.198118 
L 206.211599 194.698165 
L 206.807223 192.907482 
L 207.402846 189.581929 
L 207.99847 188.686588 
L 208.594094 187.407529 
L 209.189717 191.1168 
L 209.785341 190.605176 
L 210.380964 192.523765 
L 210.976588 193.674918 
L 211.572211 191.756329 
L 212.167835 202.116706 
L 212.763458 206.465506 
L 213.359082 205.058541 
L 213.954706 208.384094 
L 214.550329 206.593412 
L 215.145953 209.023624 
L 215.741576 209.535247 
L 216.3372 208.384094 
L 216.932823 212.604988 
L 217.528447 209.663153 
L 218.12407 207.360847 
L 218.719694 208.767812 
L 219.315318 207.360847 
L 219.910941 206.721318 
L 220.506565 206.977129 
L 221.102188 207.105035 
L 221.697812 203.779482 
L 222.293435 205.825976 
L 222.889059 210.942212 
L 223.484682 212.349176 
L 224.080306 210.942212 
L 224.67593 215.291012 
L 225.271553 214.395671 
L 225.867177 223.093271 
L 226.4628 220.663059 
L 227.058424 226.546729 
L 228.249671 220.151435 
L 228.845294 225.9072 
L 229.440918 225.139765 
L 230.036542 226.546729 
L 230.632165 224.756047 
L 231.227789 227.442071 
L 231.823412 227.058353 
L 232.419036 229.744376 
L 233.014659 227.186259 
L 233.610283 226.163012 
L 234.205906 221.5584 
L 234.80153 224.500235 
L 235.397154 229.232753 
L 235.992777 224.883953 
L 236.588401 225.395576 
L 237.184024 222.453741 
L 237.779648 226.546729 
L 238.375271 226.163012 
L 238.970895 226.674635 
L 239.566518 223.093271 
L 240.162142 223.7328 
L 240.757766 226.546729 
L 241.353389 226.418824 
L 241.949013 225.523482 
L 242.544636 225.651388 
L 243.14026 228.465318 
L 243.735883 228.337412 
L 244.331507 209.663153 
L 244.92713 224.756047 
L 245.522754 226.290918 
L 246.118378 225.779294 
L 246.714001 226.546729 
L 247.309625 227.697882 
L 247.905248 222.837459 
L 248.500872 225.779294 
L 249.096495 227.058353 
L 249.692119 224.116518 
L 250.287742 226.546729 
L 250.883366 226.290918 
L 251.47899 224.628141 
L 252.074613 226.546729 
L 253.26586 228.209506 
L 253.861484 225.651388 
L 254.457107 229.104847 
L 255.052731 229.232753 
L 255.648354 224.628141 
L 256.243978 227.186259 
L 256.839601 218.744471 
L 257.435225 229.872282 
L 258.030849 222.837459 
L 258.626472 226.546729 
L 259.222096 225.267671 
L 259.817719 225.523482 
L 260.413343 227.569976 
L 261.008966 223.988612 
L 261.60459 225.011859 
L 262.200213 230.767624 
L 262.795837 225.139765 
L 263.391461 226.035106 
L 263.987084 223.860706 
L 264.582708 226.418824 
L 265.178331 224.500235 
L 265.773955 224.116518 
L 266.369578 221.302588 
L 266.965202 224.372329 
L 267.560825 223.221176 
L 268.156449 217.977035 
L 268.752073 215.291012 
L 269.347696 213.884047 
L 269.94332 213.116612 
L 270.538943 211.581741 
L 271.134567 203.139953 
L 271.73019 200.198118 
L 272.325814 192.779576 
L 272.921437 193.547012 
L 273.517061 187.407529 
L 274.112685 188.686588 
L 274.708308 184.081976 
L 275.303932 185.872659 
L 275.899555 175.256471 
L 276.495179 181.012235 
L 277.090802 181.140141 
L 277.686426 180.116894 
L 278.282049 180.372706 
L 278.877673 187.279624 
L 279.473297 187.791247 
L 280.06892 192.395859 
L 280.664544 200.709741 
L 281.260167 206.977129 
L 281.855791 207.232941 
L 282.451414 210.558494 
L 283.642661 217.849129 
L 284.238285 218.744471 
L 284.833909 222.070024 
L 285.429532 224.500235 
L 286.025156 228.337412 
L 286.620779 223.221176 
L 287.216403 220.790965 
L 287.812026 225.395576 
L 288.40765 220.663059 
L 289.003273 221.942118 
L 289.598897 224.500235 
L 290.194521 225.267671 
L 290.790144 226.802541 
L 291.385768 227.569976 
L 291.981391 227.569976 
L 292.577015 228.976941 
L 293.172638 223.988612 
L 293.768262 224.500235 
L 294.363885 230.256 
L 294.959509 227.825788 
L 295.555133 228.337412 
L 296.150756 226.163012 
L 296.74638 229.232753 
L 297.342003 225.523482 
L 297.937627 226.163012 
L 298.53325 224.372329 
L 299.128874 225.395576 
L 299.724497 224.244424 
L 300.320121 227.825788 
L 300.915745 225.011859 
L 301.511368 226.418824 
L 302.106992 226.163012 
L 302.702615 224.628141 
L 303.298239 228.721129 
L 303.893862 226.674635 
L 304.489486 223.221176 
L 305.085109 223.988612 
L 305.680733 225.779294 
L 306.276357 227.058353 
L 306.87198 225.651388 
L 307.467604 226.674635 
L 308.658851 224.372329 
L 309.254474 223.988612 
L 309.850098 228.465318 
L 310.445721 227.697882 
L 311.041345 224.883953 
L 311.636969 225.651388 
L 312.232592 228.593224 
L 312.828216 225.9072 
L 313.423839 226.163012 
L 314.019463 225.523482 
L 314.615086 223.860706 
L 315.21071 228.976941 
L 315.806333 223.604894 
L 316.401957 227.314165 
L 316.997581 231.790871 
L 317.593204 227.825788 
L 318.188828 227.058353 
L 318.784451 224.628141 
L 319.380075 226.802541 
L 320.571322 222.325835 
L 321.166945 227.953694 
L 321.762569 223.860706 
L 322.358192 227.697882 
L 322.953816 224.244424 
L 323.54944 224.756047 
L 324.145063 229.104847 
L 324.740687 229.232753 
L 325.33631 224.756047 
L 325.931934 225.395576 
L 326.527557 226.418824 
L 327.123181 226.674635 
L 327.718804 223.988612 
L 328.314428 226.035106 
L 328.910052 226.035106 
L 329.505675 229.104847 
L 330.101299 225.395576 
L 330.696922 226.290918 
L 331.292546 225.395576 
L 331.888169 226.802541 
L 332.483793 226.418824 
L 333.079416 224.628141 
L 333.67504 227.186259 
L 334.270664 223.860706 
L 334.866287 226.418824 
L 335.461911 227.953694 
L 336.653158 224.883953 
L 337.248781 225.523482 
L 337.844405 225.779294 
L 338.440028 227.825788 
L 339.035652 222.965365 
L 339.631276 224.756047 
L 340.226899 229.616471 
L 340.822523 228.209506 
L 341.418146 228.593224 
L 342.01377 226.802541 
L 342.609393 226.290918 
L 343.205017 223.7328 
L 343.80064 226.290918 
L 344.396264 225.779294 
L 344.991888 227.058353 
L 345.587511 228.976941 
L 346.183135 228.976941 
L 346.778758 226.546729 
L 347.374382 225.267671 
L 347.970005 223.349082 
L 348.565629 225.139765 
L 349.161252 226.163012 
L 349.756876 225.267671 
L 350.3525 226.035106 
L 350.948123 225.139765 
L 351.543747 229.616471 
L 352.734994 225.139765 
L 353.330617 227.953694 
L 353.926241 227.314165 
L 354.521864 227.186259 
L 355.117488 223.221176 
L 355.713112 222.581647 
L 356.308735 226.802541 
L 356.904359 227.058353 
L 357.499982 228.209506 
L 358.095606 230.256 
L 358.691229 227.058353 
L 359.286853 226.546729 
L 359.882476 226.546729 
L 360.4781 226.290918 
L 361.073724 224.372329 
L 361.669347 225.9072 
L 362.264971 224.116518 
L 362.860594 228.976941 
L 363.456218 227.058353 
L 364.051841 225.779294 
L 364.647465 226.035106 
L 365.243088 223.7328 
L 365.838712 225.523482 
L 366.434336 222.581647 
L 367.029959 224.628141 
L 367.625583 224.628141 
L 368.221206 225.523482 
L 368.81683 224.244424 
L 370.008077 226.930447 
L 370.6037 222.070024 
L 371.199324 227.314165 
L 371.794948 227.569976 
L 372.390571 227.442071 
L 372.986195 224.756047 
L 373.581818 224.244424 
L 373.581818 224.244424 
" clip-path="url(#p76acb4e82d)" style="fill: none; stroke: #2ca02c; stroke-width: 1.5; stroke-linecap: square"/>
   </g>
   <g id="patch_3">
    <path d="M 54 252 
L 54 34.56 
" style="fill: none; stroke: #000000; stroke-width: 0.8; stroke-linejoin: miter; stroke-linecap: square"/>
   </g>
   <g id="patch_4">
    <path d="M 388.8 252 
L 388.8 34.56 
" style="fill: none; stroke: #000000; stroke-width: 0.8; stroke-linejoin: miter; stroke-linecap: square"/>
   </g>
   <g id="patch_5">
    <path d="M 54 252 
L 388.8 252 
" style="fill: none; stroke: #000000; stroke-width: 0.8; stroke-linejoin: miter; stroke-linecap: square"/>
   </g>
   <g id="patch_6">
    <path d="M 54 34.56 
L 388.8 34.56 
" style="fill: none; stroke: #000000; stroke-width: 0.8; stroke-linejoin: miter; stroke-linecap: square"/>
   </g>
   <g id="text_18">
    <!-- Label 10 -->
    <g transform="translate(195.670312 28.56)scale(0.12 -0.12)">
     <defs>
      <path id="DejaVuSans-4c" d="M 628 4666 
L 1259 4666 
L 1259 531 
L 3531 531 
L 3531 0 
L 628 0 
L 628 4666 
z
" transform="scale(0.015625)"/>
      <path id="DejaVuSans-61" d="M 2194 1759 
Q 1497 1759 1228 1600 
Q 959 1441 959 1056 
Q 959 750 1161 570 
Q 1363 391 1709 391 
Q 2188 391 2477 730 
Q 2766 1069 2766 1631 
L 2766 1759 
L 2194 1759 
z
M 3341 1997 
L 3341 0 
L 2766 0 
L 2766 531 
Q 2569 213 2275 61 
Q 1981 -91 1556 -91 
Q 1019 -91 701 211 
Q 384 513 384 1019 
Q 384 1609 779 1909 
Q 1175 2209 1959 2209 
L 2766 2209 
L 2766 2266 
Q 2766 2663 2505 2880 
Q 2244 3097 1772 3097 
Q 1472 3097 1187 3025 
Q 903 2953 641 2809 
L 641 3341 
Q 956 3463 1253 3523 
Q 1550 3584 1831 3584 
Q 2591 3584 2966 3190 
Q 3341 2797 3341 1997 
z
" transform="scale(0.015625)"/>
      <path id="DejaVuSans-65" d="M 3597 1894 
L 3597 1613 
L 953 1613 
Q 991 1019 1311 708 
Q 1631 397 2203 397 
Q 2534 397 2845 478 
Q 3156 559 3463 722 
L 3463 178 
Q 3153 47 2828 -22 
Q 2503 -91 2169 -91 
Q 1331 -91 842 396 
Q 353 884 353 1716 
Q 353 2575 817 3079 
Q 1281 3584 2069 3584 
Q 2775 3584 3186 3129 
Q 3597 2675 3597 1894 
z
M 3022 2063 
Q 3016 2534 2758 2815 
Q 2500 3097 2075 3097 
Q 1594 3097 1305 2825 
Q 1016 2553 972 2059 
L 3022 2063 
z
" transform="scale(0.015625)"/>
      <path id="DejaVuSans-6c" d="M 603 4863 
L 1178 4863 
L 1178 0 
L 603 0 
L 603 4863 
z
" transform="scale(0.015625)"/>
      <path id="DejaVuSans-20" transform="scale(0.015625)"/>
     </defs>
     <use xlink:href="#DejaVuSans-4c"/>
     <use xlink:href="#DejaVuSans-61" x="55.712891"/>
     <use xlink:href="#DejaVuSans-62" x="116.992188"/>
     <use xlink:href="#DejaVuSans-65" x="180.46875"/>
     <use xlink:href="#DejaVuSans-6c" x="241.992188"/>
     <use xlink:href="#DejaVuSans-20" x="269.775391"/>
     <use xlink:href="#DejaVuSans-31" x="301.5625"/>
     <use xlink:href="#DejaVuSans-30" x="365.185547"/>
    </g>
   </g>
   <g id="legend_1">
    <g id="patch_7">
     <path d="M 309.070312 101.2725 
L 381.8 101.2725 
Q 383.8 101.2725 383.8 99.2725 
L 383.8 41.56 
Q 383.8 39.56 381.8 39.56 
L 309.070312 39.56 
Q 307.070312 39.56 307.070312 41.56 
L 307.070312 99.2725 
Q 307.070312 101.2725 309.070312 101.2725 
z
" style="fill: #ffffff; opacity: 0.8; stroke: #cccccc; stroke-linejoin: miter"/>
    </g>
    <g id="text_19">
     <!-- Trace number -->
     <g transform="translate(311.070312 51.158437)scale(0.1 -0.1)">
      <defs>
       <path id="DejaVuSans-54" d="M -19 4666 
L 3928 4666 
L 3928 4134 
L 2272 4134 
L 2272 0 
L 1638 0 
L 1638 4134 
L -19 4134 
L -19 4666 
z
" transform="scale(0.015625)"/>
       <path id="DejaVuSans-72" d="M 2631 2963 
Q 2534 3019 2420 3045 
Q 2306 3072 2169 3072 
Q 1681 3072 1420 2755 
Q 1159 2438 1159 1844 
L 1159 0 
L 581 0 
L 581 3500 
L 1159 3500 
L 1159 2956 
Q 1341 3275 1631 3429 
Q 1922 3584 2338 3584 
Q 2397 3584 2469 3576 
Q 2541 3569 2628 3553 
L 2631 2963 
z
" transform="scale(0.015625)"/>
       <path id="DejaVuSans-6d" d="M 3328 2828 
Q 3544 3216 3844 3400 
Q 4144 3584 4550 3584 
Q 5097 3584 5394 3201 
Q 5691 2819 5691 2113 
L 5691 0 
L 5113 0 
L 5113 2094 
Q 5113 2597 4934 2840 
Q 4756 3084 4391 3084 
Q 3944 3084 3684 2787 
Q 3425 2491 3425 1978 
L 3425 0 
L 2847 0 
L 2847 2094 
Q 2847 2600 2669 2842 
Q 2491 3084 2119 3084 
Q 1678 3084 1418 2786 
Q 1159 2488 1159 1978 
L 1159 0 
L 581 0 
L 581 3500 
L 1159 3500 
L 1159 2956 
Q 1356 3278 1631 3431 
Q 1906 3584 2284 3584 
Q 2666 3584 2933 3390 
Q 3200 3197 3328 2828 
z
" transform="scale(0.015625)"/>
      </defs>
      <use xlink:href="#DejaVuSans-54"/>
      <use xlink:href="#DejaVuSans-72" x="46.333984"/>
      <use xlink:href="#DejaVuSans-61" x="87.447266"/>
      <use xlink:href="#DejaVuSans-63" x="148.726562"/>
      <use xlink:href="#DejaVuSans-65" x="203.707031"/>
      <use xlink:href="#DejaVuSans-20" x="265.230469"/>
      <use xlink:href="#DejaVuSans-6e" x="297.017578"/>
      <use xlink:href="#DejaVuSans-75" x="360.396484"/>
      <use xlink:href="#DejaVuSans-6d" x="423.775391"/>
      <use xlink:href="#DejaVuSans-62" x="521.1875"/>
      <use xlink:href="#DejaVuSans-65" x="584.664062"/>
      <use xlink:href="#DejaVuSans-72" x="646.1875"/>
     </g>
    </g>
    <g id="line2d_34">
     <path d="M 325.072656 62.336562 
L 335.072656 62.336562 
L 345.072656 62.336562 
" style="fill: none; stroke: #1f77b4; stroke-width: 1.5; stroke-linecap: square"/>
    </g>
    <g id="text_20">
     <!-- 18 -->
     <g transform="translate(353.072656 65.836562)scale(0.1 -0.1)">
      <use xlink:href="#DejaVuSans-31"/>
      <use xlink:href="#DejaVuSans-38" x="63.623047"/>
     </g>
    </g>
    <g id="line2d_35">
     <path d="M 325.072656 77.014687 
L 335.072656 77.014687 
L 345.072656 77.014687 
" style="fill: none; stroke: #ff7f0e; stroke-width: 1.5; stroke-linecap: square"/>
    </g>
    <g id="text_21">
     <!-- 54 -->
     <g transform="translate(353.072656 80.514687)scale(0.1 -0.1)">
      <use xlink:href="#DejaVuSans-35"/>
      <use xlink:href="#DejaVuSans-34" x="63.623047"/>
     </g>
    </g>
    <g id="line2d_36">
     <path d="M 325.072656 91.692813 
L 335.072656 91.692813 
L 345.072656 91.692813 
" style="fill: none; stroke: #2ca02c; stroke-width: 1.5; stroke-linecap: square"/>
    </g>
    <g id="text_22">
     <!-- 57 -->
     <g transform="translate(353.072656 95.192813)scale(0.1 -0.1)">
      <defs>
       <path id="DejaVuSans-37" d="M 525 4666 
L 3525 4666 
L 3525 4397 
L 1831 0 
L 1172 0 
L 2766 4134 
L 525 4134 
L 525 4666 
z
" transform="scale(0.015625)"/>
      </defs>
      <use xlink:href="#DejaVuSans-35"/>
      <use xlink:href="#DejaVuSans-37" x="63.623047"/>
     </g>
    </g>
   </g>
  </g>
 </g>
 <defs>
  <clipPath id="p76acb4e82d">
   <rect x="54" y="34.56" width="334.8" height="217.44"/>
  </clipPath>
 </defs>
</svg>
