<?xml version="1.0" encoding="utf-8" standalone="no"?>
<!DOCTYPE svg PUBLIC "-//W3C//DTD SVG 1.1//EN"
  "http://www.w3.org/Graphics/SVG/1.1/DTD/svg11.dtd">
<svg xmlns:xlink="http://www.w3.org/1999/xlink" width="432pt" height="288pt" viewBox="0 0 432 288" xmlns="http://www.w3.org/2000/svg" version="1.1">
 <metadata>
  <rdf:RDF xmlns:dc="http://purl.org/dc/elements/1.1/" xmlns:cc="http://creativecommons.org/ns#" xmlns:rdf="http://www.w3.org/1999/02/22-rdf-syntax-ns#">
   <cc:Work>
    <dc:type rdf:resource="http://purl.org/dc/dcmitype/StillImage"/>
    <dc:date>2022-03-30T13:12:48.879866</dc:date>
    <dc:format>image/svg+xml</dc:format>
    <dc:creator>
     <cc:Agent>
      <dc:title>Matplotlib v3.5.1, https://matplotlib.org/</dc:title>
     </cc:Agent>
    </dc:creator>
   </cc:Work>
  </rdf:RDF>
 </metadata>
 <defs>
  <style type="text/css">*{stroke-linejoin: round; stroke-linecap: butt}</style>
 </defs>
 <g id="figure_1">
  <g id="patch_1">
   <path d="M 0 288 
L 432 288 
L 432 0 
L 0 0 
z
" style="fill: #ffffff"/>
  </g>
  <g id="axes_1">
   <g id="patch_2">
    <path d="M 54 252 
L 388.8 252 
L 388.8 34.56 
L 54 34.56 
z
" style="fill: #ffffff"/>
   </g>
   <g id="matplotlib.axis_1">
    <g id="xtick_1">
     <g id="line2d_1">
      <path d="M 69.218182 252 
L 69.218182 34.56 
" clip-path="url(#pb60a47a9e9)" style="fill: none; stroke: #b0b0b0; stroke-width: 0.8; stroke-linecap: square"/>
     </g>
     <g id="line2d_2">
      <defs>
       <path id="m5b51cffdff" d="M 0 0 
L 0 3.5 
" style="stroke: #000000; stroke-width: 0.8"/>
      </defs>
      <g>
       <use xlink:href="#m5b51cffdff" x="69.218182" y="252" style="stroke: #000000; stroke-width: 0.8"/>
      </g>
     </g>
     <g id="text_1">
      <!-- 0 -->
      <g transform="translate(66.036932 266.598437)scale(0.1 -0.1)">
       <defs>
        <path id="DejaVuSans-30" d="M 2034 4250 
Q 1547 4250 1301 3770 
Q 1056 3291 1056 2328 
Q 1056 1369 1301 889 
Q 1547 409 2034 409 
Q 2525 409 2770 889 
Q 3016 1369 3016 2328 
Q 3016 3291 2770 3770 
Q 2525 4250 2034 4250 
z
M 2034 4750 
Q 2819 4750 3233 4129 
Q 3647 3509 3647 2328 
Q 3647 1150 3233 529 
Q 2819 -91 2034 -91 
Q 1250 -91 836 529 
Q 422 1150 422 2328 
Q 422 3509 836 4129 
Q 1250 4750 2034 4750 
z
" transform="scale(0.015625)"/>
       </defs>
       <use xlink:href="#DejaVuSans-30"/>
      </g>
     </g>
    </g>
    <g id="xtick_2">
     <g id="line2d_3">
      <path d="M 128.780537 252 
L 128.780537 34.56 
" clip-path="url(#pb60a47a9e9)" style="fill: none; stroke: #b0b0b0; stroke-width: 0.8; stroke-linecap: square"/>
     </g>
     <g id="line2d_4">
      <g>
       <use xlink:href="#m5b51cffdff" x="128.780537" y="252" style="stroke: #000000; stroke-width: 0.8"/>
      </g>
     </g>
     <g id="text_2">
      <!-- 100 -->
      <g transform="translate(119.236787 266.598437)scale(0.1 -0.1)">
       <defs>
        <path id="DejaVuSans-31" d="M 794 531 
L 1825 531 
L 1825 4091 
L 703 3866 
L 703 4441 
L 1819 4666 
L 2450 4666 
L 2450 531 
L 3481 531 
L 3481 0 
L 794 0 
L 794 531 
z
" transform="scale(0.015625)"/>
       </defs>
       <use xlink:href="#DejaVuSans-31"/>
       <use xlink:href="#DejaVuSans-30" x="63.623047"/>
       <use xlink:href="#DejaVuSans-30" x="127.246094"/>
      </g>
     </g>
    </g>
    <g id="xtick_3">
     <g id="line2d_5">
      <path d="M 188.342893 252 
L 188.342893 34.56 
" clip-path="url(#pb60a47a9e9)" style="fill: none; stroke: #b0b0b0; stroke-width: 0.8; stroke-linecap: square"/>
     </g>
     <g id="line2d_6">
      <g>
       <use xlink:href="#m5b51cffdff" x="188.342893" y="252" style="stroke: #000000; stroke-width: 0.8"/>
      </g>
     </g>
     <g id="text_3">
      <!-- 200 -->
      <g transform="translate(178.799143 266.598437)scale(0.1 -0.1)">
       <defs>
        <path id="DejaVuSans-32" d="M 1228 531 
L 3431 531 
L 3431 0 
L 469 0 
L 469 531 
Q 828 903 1448 1529 
Q 2069 2156 2228 2338 
Q 2531 2678 2651 2914 
Q 2772 3150 2772 3378 
Q 2772 3750 2511 3984 
Q 2250 4219 1831 4219 
Q 1534 4219 1204 4116 
Q 875 4013 500 3803 
L 500 4441 
Q 881 4594 1212 4672 
Q 1544 4750 1819 4750 
Q 2544 4750 2975 4387 
Q 3406 4025 3406 3419 
Q 3406 3131 3298 2873 
Q 3191 2616 2906 2266 
Q 2828 2175 2409 1742 
Q 1991 1309 1228 531 
z
" transform="scale(0.015625)"/>
       </defs>
       <use xlink:href="#DejaVuSans-32"/>
       <use xlink:href="#DejaVuSans-30" x="63.623047"/>
       <use xlink:href="#DejaVuSans-30" x="127.246094"/>
      </g>
     </g>
    </g>
    <g id="xtick_4">
     <g id="line2d_7">
      <path d="M 247.905248 252 
L 247.905248 34.56 
" clip-path="url(#pb60a47a9e9)" style="fill: none; stroke: #b0b0b0; stroke-width: 0.8; stroke-linecap: square"/>
     </g>
     <g id="line2d_8">
      <g>
       <use xlink:href="#m5b51cffdff" x="247.905248" y="252" style="stroke: #000000; stroke-width: 0.8"/>
      </g>
     </g>
     <g id="text_4">
      <!-- 300 -->
      <g transform="translate(238.361498 266.598437)scale(0.1 -0.1)">
       <defs>
        <path id="DejaVuSans-33" d="M 2597 2516 
Q 3050 2419 3304 2112 
Q 3559 1806 3559 1356 
Q 3559 666 3084 287 
Q 2609 -91 1734 -91 
Q 1441 -91 1130 -33 
Q 819 25 488 141 
L 488 750 
Q 750 597 1062 519 
Q 1375 441 1716 441 
Q 2309 441 2620 675 
Q 2931 909 2931 1356 
Q 2931 1769 2642 2001 
Q 2353 2234 1838 2234 
L 1294 2234 
L 1294 2753 
L 1863 2753 
Q 2328 2753 2575 2939 
Q 2822 3125 2822 3475 
Q 2822 3834 2567 4026 
Q 2313 4219 1838 4219 
Q 1578 4219 1281 4162 
Q 984 4106 628 3988 
L 628 4550 
Q 988 4650 1302 4700 
Q 1616 4750 1894 4750 
Q 2613 4750 3031 4423 
Q 3450 4097 3450 3541 
Q 3450 3153 3228 2886 
Q 3006 2619 2597 2516 
z
" transform="scale(0.015625)"/>
       </defs>
       <use xlink:href="#DejaVuSans-33"/>
       <use xlink:href="#DejaVuSans-30" x="63.623047"/>
       <use xlink:href="#DejaVuSans-30" x="127.246094"/>
      </g>
     </g>
    </g>
    <g id="xtick_5">
     <g id="line2d_9">
      <path d="M 307.467604 252 
L 307.467604 34.56 
" clip-path="url(#pb60a47a9e9)" style="fill: none; stroke: #b0b0b0; stroke-width: 0.8; stroke-linecap: square"/>
     </g>
     <g id="line2d_10">
      <g>
       <use xlink:href="#m5b51cffdff" x="307.467604" y="252" style="stroke: #000000; stroke-width: 0.8"/>
      </g>
     </g>
     <g id="text_5">
      <!-- 400 -->
      <g transform="translate(297.923854 266.598437)scale(0.1 -0.1)">
       <defs>
        <path id="DejaVuSans-34" d="M 2419 4116 
L 825 1625 
L 2419 1625 
L 2419 4116 
z
M 2253 4666 
L 3047 4666 
L 3047 1625 
L 3713 1625 
L 3713 1100 
L 3047 1100 
L 3047 0 
L 2419 0 
L 2419 1100 
L 313 1100 
L 313 1709 
L 2253 4666 
z
" transform="scale(0.015625)"/>
       </defs>
       <use xlink:href="#DejaVuSans-34"/>
       <use xlink:href="#DejaVuSans-30" x="63.623047"/>
       <use xlink:href="#DejaVuSans-30" x="127.246094"/>
      </g>
     </g>
    </g>
    <g id="xtick_6">
     <g id="line2d_11">
      <path d="M 367.029959 252 
L 367.029959 34.56 
" clip-path="url(#pb60a47a9e9)" style="fill: none; stroke: #b0b0b0; stroke-width: 0.8; stroke-linecap: square"/>
     </g>
     <g id="line2d_12">
      <g>
       <use xlink:href="#m5b51cffdff" x="367.029959" y="252" style="stroke: #000000; stroke-width: 0.8"/>
      </g>
     </g>
     <g id="text_6">
      <!-- 500 -->
      <g transform="translate(357.486209 266.598437)scale(0.1 -0.1)">
       <defs>
        <path id="DejaVuSans-35" d="M 691 4666 
L 3169 4666 
L 3169 4134 
L 1269 4134 
L 1269 2991 
Q 1406 3038 1543 3061 
Q 1681 3084 1819 3084 
Q 2600 3084 3056 2656 
Q 3513 2228 3513 1497 
Q 3513 744 3044 326 
Q 2575 -91 1722 -91 
Q 1428 -91 1123 -41 
Q 819 9 494 109 
L 494 744 
Q 775 591 1075 516 
Q 1375 441 1709 441 
Q 2250 441 2565 725 
Q 2881 1009 2881 1497 
Q 2881 1984 2565 2268 
Q 2250 2553 1709 2553 
Q 1456 2553 1204 2497 
Q 953 2441 691 2322 
L 691 4666 
z
" transform="scale(0.015625)"/>
       </defs>
       <use xlink:href="#DejaVuSans-35"/>
       <use xlink:href="#DejaVuSans-30" x="63.623047"/>
       <use xlink:href="#DejaVuSans-30" x="127.246094"/>
      </g>
     </g>
    </g>
    <g id="text_7">
     <!-- bin -->
     <g transform="translate(213.667969 280.276563)scale(0.1 -0.1)">
      <defs>
       <path id="DejaVuSans-62" d="M 3116 1747 
Q 3116 2381 2855 2742 
Q 2594 3103 2138 3103 
Q 1681 3103 1420 2742 
Q 1159 2381 1159 1747 
Q 1159 1113 1420 752 
Q 1681 391 2138 391 
Q 2594 391 2855 752 
Q 3116 1113 3116 1747 
z
M 1159 2969 
Q 1341 3281 1617 3432 
Q 1894 3584 2278 3584 
Q 2916 3584 3314 3078 
Q 3713 2572 3713 1747 
Q 3713 922 3314 415 
Q 2916 -91 2278 -91 
Q 1894 -91 1617 61 
Q 1341 213 1159 525 
L 1159 0 
L 581 0 
L 581 4863 
L 1159 4863 
L 1159 2969 
z
" transform="scale(0.015625)"/>
       <path id="DejaVuSans-69" d="M 603 3500 
L 1178 3500 
L 1178 0 
L 603 0 
L 603 3500 
z
M 603 4863 
L 1178 4863 
L 1178 4134 
L 603 4134 
L 603 4863 
z
" transform="scale(0.015625)"/>
       <path id="DejaVuSans-6e" d="M 3513 2113 
L 3513 0 
L 2938 0 
L 2938 2094 
Q 2938 2591 2744 2837 
Q 2550 3084 2163 3084 
Q 1697 3084 1428 2787 
Q 1159 2491 1159 1978 
L 1159 0 
L 581 0 
L 581 3500 
L 1159 3500 
L 1159 2956 
Q 1366 3272 1645 3428 
Q 1925 3584 2291 3584 
Q 2894 3584 3203 3211 
Q 3513 2838 3513 2113 
z
" transform="scale(0.015625)"/>
      </defs>
      <use xlink:href="#DejaVuSans-62"/>
      <use xlink:href="#DejaVuSans-69" x="63.476562"/>
      <use xlink:href="#DejaVuSans-6e" x="91.259766"/>
     </g>
    </g>
   </g>
   <g id="matplotlib.axis_2">
    <g id="ytick_1">
     <g id="line2d_13">
      <path d="M 54 252 
L 388.8 252 
" clip-path="url(#pb60a47a9e9)" style="fill: none; stroke: #b0b0b0; stroke-width: 0.8; stroke-linecap: square"/>
     </g>
     <g id="line2d_14">
      <defs>
       <path id="m880b7f3723" d="M 0 0 
L -3.5 0 
" style="stroke: #000000; stroke-width: 0.8"/>
      </defs>
      <g>
       <use xlink:href="#m880b7f3723" x="54" y="252" style="stroke: #000000; stroke-width: 0.8"/>
      </g>
     </g>
     <g id="text_8">
      <!-- 0 -->
      <g transform="translate(40.6375 255.799219)scale(0.1 -0.1)">
       <use xlink:href="#DejaVuSans-30"/>
      </g>
     </g>
    </g>
    <g id="ytick_2">
     <g id="line2d_15">
      <path d="M 54 226.418824 
L 388.8 226.418824 
" clip-path="url(#pb60a47a9e9)" style="fill: none; stroke: #b0b0b0; stroke-width: 0.8; stroke-linecap: square"/>
     </g>
     <g id="line2d_16">
      <g>
       <use xlink:href="#m880b7f3723" x="54" y="226.418824" style="stroke: #000000; stroke-width: 0.8"/>
      </g>
     </g>
     <g id="text_9">
      <!-- 200 -->
      <g transform="translate(27.9125 230.218042)scale(0.1 -0.1)">
       <use xlink:href="#DejaVuSans-32"/>
       <use xlink:href="#DejaVuSans-30" x="63.623047"/>
       <use xlink:href="#DejaVuSans-30" x="127.246094"/>
      </g>
     </g>
    </g>
    <g id="ytick_3">
     <g id="line2d_17">
      <path d="M 54 200.837647 
L 388.8 200.837647 
" clip-path="url(#pb60a47a9e9)" style="fill: none; stroke: #b0b0b0; stroke-width: 0.8; stroke-linecap: square"/>
     </g>
     <g id="line2d_18">
      <g>
       <use xlink:href="#m880b7f3723" x="54" y="200.837647" style="stroke: #000000; stroke-width: 0.8"/>
      </g>
     </g>
     <g id="text_10">
      <!-- 400 -->
      <g transform="translate(27.9125 204.636866)scale(0.1 -0.1)">
       <use xlink:href="#DejaVuSans-34"/>
       <use xlink:href="#DejaVuSans-30" x="63.623047"/>
       <use xlink:href="#DejaVuSans-30" x="127.246094"/>
      </g>
     </g>
    </g>
    <g id="ytick_4">
     <g id="line2d_19">
      <path d="M 54 175.256471 
L 388.8 175.256471 
" clip-path="url(#pb60a47a9e9)" style="fill: none; stroke: #b0b0b0; stroke-width: 0.8; stroke-linecap: square"/>
     </g>
     <g id="line2d_20">
      <g>
       <use xlink:href="#m880b7f3723" x="54" y="175.256471" style="stroke: #000000; stroke-width: 0.8"/>
      </g>
     </g>
     <g id="text_11">
      <!-- 600 -->
      <g transform="translate(27.9125 179.055689)scale(0.1 -0.1)">
       <defs>
        <path id="DejaVuSans-36" d="M 2113 2584 
Q 1688 2584 1439 2293 
Q 1191 2003 1191 1497 
Q 1191 994 1439 701 
Q 1688 409 2113 409 
Q 2538 409 2786 701 
Q 3034 994 3034 1497 
Q 3034 2003 2786 2293 
Q 2538 2584 2113 2584 
z
M 3366 4563 
L 3366 3988 
Q 3128 4100 2886 4159 
Q 2644 4219 2406 4219 
Q 1781 4219 1451 3797 
Q 1122 3375 1075 2522 
Q 1259 2794 1537 2939 
Q 1816 3084 2150 3084 
Q 2853 3084 3261 2657 
Q 3669 2231 3669 1497 
Q 3669 778 3244 343 
Q 2819 -91 2113 -91 
Q 1303 -91 875 529 
Q 447 1150 447 2328 
Q 447 3434 972 4092 
Q 1497 4750 2381 4750 
Q 2619 4750 2861 4703 
Q 3103 4656 3366 4563 
z
" transform="scale(0.015625)"/>
       </defs>
       <use xlink:href="#DejaVuSans-36"/>
       <use xlink:href="#DejaVuSans-30" x="63.623047"/>
       <use xlink:href="#DejaVuSans-30" x="127.246094"/>
      </g>
     </g>
    </g>
    <g id="ytick_5">
     <g id="line2d_21">
      <path d="M 54 149.675294 
L 388.8 149.675294 
" clip-path="url(#pb60a47a9e9)" style="fill: none; stroke: #b0b0b0; stroke-width: 0.8; stroke-linecap: square"/>
     </g>
     <g id="line2d_22">
      <g>
       <use xlink:href="#m880b7f3723" x="54" y="149.675294" style="stroke: #000000; stroke-width: 0.8"/>
      </g>
     </g>
     <g id="text_12">
      <!-- 800 -->
      <g transform="translate(27.9125 153.474513)scale(0.1 -0.1)">
       <defs>
        <path id="DejaVuSans-38" d="M 2034 2216 
Q 1584 2216 1326 1975 
Q 1069 1734 1069 1313 
Q 1069 891 1326 650 
Q 1584 409 2034 409 
Q 2484 409 2743 651 
Q 3003 894 3003 1313 
Q 3003 1734 2745 1975 
Q 2488 2216 2034 2216 
z
M 1403 2484 
Q 997 2584 770 2862 
Q 544 3141 544 3541 
Q 544 4100 942 4425 
Q 1341 4750 2034 4750 
Q 2731 4750 3128 4425 
Q 3525 4100 3525 3541 
Q 3525 3141 3298 2862 
Q 3072 2584 2669 2484 
Q 3125 2378 3379 2068 
Q 3634 1759 3634 1313 
Q 3634 634 3220 271 
Q 2806 -91 2034 -91 
Q 1263 -91 848 271 
Q 434 634 434 1313 
Q 434 1759 690 2068 
Q 947 2378 1403 2484 
z
M 1172 3481 
Q 1172 3119 1398 2916 
Q 1625 2713 2034 2713 
Q 2441 2713 2670 2916 
Q 2900 3119 2900 3481 
Q 2900 3844 2670 4047 
Q 2441 4250 2034 4250 
Q 1625 4250 1398 4047 
Q 1172 3844 1172 3481 
z
" transform="scale(0.015625)"/>
       </defs>
       <use xlink:href="#DejaVuSans-38"/>
       <use xlink:href="#DejaVuSans-30" x="63.623047"/>
       <use xlink:href="#DejaVuSans-30" x="127.246094"/>
      </g>
     </g>
    </g>
    <g id="ytick_6">
     <g id="line2d_23">
      <path d="M 54 124.094118 
L 388.8 124.094118 
" clip-path="url(#pb60a47a9e9)" style="fill: none; stroke: #b0b0b0; stroke-width: 0.8; stroke-linecap: square"/>
     </g>
     <g id="line2d_24">
      <g>
       <use xlink:href="#m880b7f3723" x="54" y="124.094118" style="stroke: #000000; stroke-width: 0.8"/>
      </g>
     </g>
     <g id="text_13">
      <!-- 1000 -->
      <g transform="translate(21.55 127.893336)scale(0.1 -0.1)">
       <use xlink:href="#DejaVuSans-31"/>
       <use xlink:href="#DejaVuSans-30" x="63.623047"/>
       <use xlink:href="#DejaVuSans-30" x="127.246094"/>
       <use xlink:href="#DejaVuSans-30" x="190.869141"/>
      </g>
     </g>
    </g>
    <g id="ytick_7">
     <g id="line2d_25">
      <path d="M 54 98.512941 
L 388.8 98.512941 
" clip-path="url(#pb60a47a9e9)" style="fill: none; stroke: #b0b0b0; stroke-width: 0.8; stroke-linecap: square"/>
     </g>
     <g id="line2d_26">
      <g>
       <use xlink:href="#m880b7f3723" x="54" y="98.512941" style="stroke: #000000; stroke-width: 0.8"/>
      </g>
     </g>
     <g id="text_14">
      <!-- 1200 -->
      <g transform="translate(21.55 102.31216)scale(0.1 -0.1)">
       <use xlink:href="#DejaVuSans-31"/>
       <use xlink:href="#DejaVuSans-32" x="63.623047"/>
       <use xlink:href="#DejaVuSans-30" x="127.246094"/>
       <use xlink:href="#DejaVuSans-30" x="190.869141"/>
      </g>
     </g>
    </g>
    <g id="ytick_8">
     <g id="line2d_27">
      <path d="M 54 72.931765 
L 388.8 72.931765 
" clip-path="url(#pb60a47a9e9)" style="fill: none; stroke: #b0b0b0; stroke-width: 0.8; stroke-linecap: square"/>
     </g>
     <g id="line2d_28">
      <g>
       <use xlink:href="#m880b7f3723" x="54" y="72.931765" style="stroke: #000000; stroke-width: 0.8"/>
      </g>
     </g>
     <g id="text_15">
      <!-- 1400 -->
      <g transform="translate(21.55 76.730983)scale(0.1 -0.1)">
       <use xlink:href="#DejaVuSans-31"/>
       <use xlink:href="#DejaVuSans-34" x="63.623047"/>
       <use xlink:href="#DejaVuSans-30" x="127.246094"/>
       <use xlink:href="#DejaVuSans-30" x="190.869141"/>
      </g>
     </g>
    </g>
    <g id="ytick_9">
     <g id="line2d_29">
      <path d="M 54 47.350588 
L 388.8 47.350588 
" clip-path="url(#pb60a47a9e9)" style="fill: none; stroke: #b0b0b0; stroke-width: 0.8; stroke-linecap: square"/>
     </g>
     <g id="line2d_30">
      <g>
       <use xlink:href="#m880b7f3723" x="54" y="47.350588" style="stroke: #000000; stroke-width: 0.8"/>
      </g>
     </g>
     <g id="text_16">
      <!-- 1600 -->
      <g transform="translate(21.55 51.149807)scale(0.1 -0.1)">
       <use xlink:href="#DejaVuSans-31"/>
       <use xlink:href="#DejaVuSans-36" x="63.623047"/>
       <use xlink:href="#DejaVuSans-30" x="127.246094"/>
       <use xlink:href="#DejaVuSans-30" x="190.869141"/>
      </g>
     </g>
    </g>
    <g id="text_17">
     <!-- count -->
     <g transform="translate(15.470312 157.38625)rotate(-90)scale(0.1 -0.1)">
      <defs>
       <path id="DejaVuSans-63" d="M 3122 3366 
L 3122 2828 
Q 2878 2963 2633 3030 
Q 2388 3097 2138 3097 
Q 1578 3097 1268 2742 
Q 959 2388 959 1747 
Q 959 1106 1268 751 
Q 1578 397 2138 397 
Q 2388 397 2633 464 
Q 2878 531 3122 666 
L 3122 134 
Q 2881 22 2623 -34 
Q 2366 -91 2075 -91 
Q 1284 -91 818 406 
Q 353 903 353 1747 
Q 353 2603 823 3093 
Q 1294 3584 2113 3584 
Q 2378 3584 2631 3529 
Q 2884 3475 3122 3366 
z
" transform="scale(0.015625)"/>
       <path id="DejaVuSans-6f" d="M 1959 3097 
Q 1497 3097 1228 2736 
Q 959 2375 959 1747 
Q 959 1119 1226 758 
Q 1494 397 1959 397 
Q 2419 397 2687 759 
Q 2956 1122 2956 1747 
Q 2956 2369 2687 2733 
Q 2419 3097 1959 3097 
z
M 1959 3584 
Q 2709 3584 3137 3096 
Q 3566 2609 3566 1747 
Q 3566 888 3137 398 
Q 2709 -91 1959 -91 
Q 1206 -91 779 398 
Q 353 888 353 1747 
Q 353 2609 779 3096 
Q 1206 3584 1959 3584 
z
" transform="scale(0.015625)"/>
       <path id="DejaVuSans-75" d="M 544 1381 
L 544 3500 
L 1119 3500 
L 1119 1403 
Q 1119 906 1312 657 
Q 1506 409 1894 409 
Q 2359 409 2629 706 
Q 2900 1003 2900 1516 
L 2900 3500 
L 3475 3500 
L 3475 0 
L 2900 0 
L 2900 538 
Q 2691 219 2414 64 
Q 2138 -91 1772 -91 
Q 1169 -91 856 284 
Q 544 659 544 1381 
z
M 1991 3584 
L 1991 3584 
z
" transform="scale(0.015625)"/>
       <path id="DejaVuSans-74" d="M 1172 4494 
L 1172 3500 
L 2356 3500 
L 2356 3053 
L 1172 3053 
L 1172 1153 
Q 1172 725 1289 603 
Q 1406 481 1766 481 
L 2356 481 
L 2356 0 
L 1766 0 
Q 1100 0 847 248 
Q 594 497 594 1153 
L 594 3053 
L 172 3053 
L 172 3500 
L 594 3500 
L 594 4494 
L 1172 4494 
z
" transform="scale(0.015625)"/>
      </defs>
      <use xlink:href="#DejaVuSans-63"/>
      <use xlink:href="#DejaVuSans-6f" x="54.980469"/>
      <use xlink:href="#DejaVuSans-75" x="116.162109"/>
      <use xlink:href="#DejaVuSans-6e" x="179.541016"/>
      <use xlink:href="#DejaVuSans-74" x="242.919922"/>
     </g>
    </g>
   </g>
   <g id="line2d_31">
    <path d="M 69.218182 251.616282 
L 69.813805 251.360471 
L 70.409429 251.872094 
L 71.005052 251.616282 
L 71.600676 251.872094 
L 72.1963 252 
L 72.791923 251.488376 
L 73.387547 251.872094 
L 73.98317 251.744188 
L 74.578794 251.872094 
L 75.174417 251.232565 
L 75.770041 251.616282 
L 76.365664 251.360471 
L 76.961288 251.872094 
L 77.556912 251.744188 
L 78.748159 251.744188 
L 79.343782 252 
L 79.939406 251.744188 
L 80.535029 251.616282 
L 81.130653 251.744188 
L 81.726276 251.616282 
L 82.3219 251.616282 
L 82.917524 251.744188 
L 83.513147 251.488376 
L 84.108771 251.744188 
L 84.704394 251.488376 
L 85.300018 252 
L 85.895641 251.360471 
L 86.491265 251.360471 
L 87.086888 251.744188 
L 87.682512 251.232565 
L 88.278136 251.360471 
L 88.873759 251.744188 
L 89.469383 251.616282 
L 90.065006 251.616282 
L 90.66063 251.488376 
L 91.256253 251.616282 
L 91.851877 250.720941 
L 92.4475 251.488376 
L 93.043124 251.744188 
L 93.638748 251.360471 
L 94.234371 251.616282 
L 94.829995 251.616282 
L 95.425618 251.488376 
L 96.021242 251.488376 
L 96.616865 251.744188 
L 97.212489 251.616282 
L 97.808112 251.616282 
L 98.99936 251.872094 
L 99.594983 251.616282 
L 100.190607 251.616282 
L 100.78623 251.872094 
L 101.381854 251.616282 
L 101.977477 252 
L 102.573101 251.488376 
L 103.168724 251.744188 
L 103.764348 251.872094 
L 104.359972 251.744188 
L 104.955595 252 
L 105.551219 251.744188 
L 106.146842 251.744188 
L 106.742466 251.488376 
L 107.338089 251.872094 
L 107.933713 251.616282 
L 109.12496 251.872094 
L 109.720584 251.744188 
L 110.316207 251.488376 
L 110.911831 251.616282 
L 111.507454 251.488376 
L 112.103078 251.872094 
L 112.698701 251.872094 
L 113.294325 252 
L 113.889948 251.616282 
L 114.485572 251.616282 
L 115.676819 251.872094 
L 116.272443 251.232565 
L 116.868066 251.872094 
L 117.46369 251.872094 
L 118.059313 251.616282 
L 118.654937 251.744188 
L 119.25056 251.232565 
L 119.846184 251.104659 
L 121.037431 251.872094 
L 121.633055 251.360471 
L 122.228678 251.232565 
L 122.824302 251.488376 
L 123.419925 251.488376 
L 124.015549 251.616282 
L 124.611172 251.616282 
L 125.206796 251.872094 
L 126.398043 251.872094 
L 126.993667 251.488376 
L 127.58929 251.744188 
L 128.184914 251.616282 
L 128.780537 251.872094 
L 129.376161 251.744188 
L 129.971784 251.488376 
L 130.567408 251.744188 
L 131.163031 251.872094 
L 131.758655 251.872094 
L 132.354279 252 
L 133.545526 251.104659 
L 134.141149 251.872094 
L 134.736773 251.488376 
L 135.92802 251.744188 
L 136.523643 251.488376 
L 137.119267 251.744188 
L 137.714891 251.744188 
L 138.310514 251.872094 
L 138.906138 251.872094 
L 139.501761 252 
L 140.097385 251.488376 
L 140.693008 251.872094 
L 141.288632 251.872094 
L 141.884255 251.744188 
L 142.479879 251.744188 
L 143.075503 252 
L 143.671126 251.232565 
L 144.26675 251.488376 
L 144.862373 251.360471 
L 146.05362 252 
L 147.244867 251.744188 
L 147.840491 251.488376 
L 148.436115 251.616282 
L 149.627362 251.616282 
L 150.222985 251.488376 
L 150.818609 251.488376 
L 151.414232 251.872094 
L 152.009856 251.616282 
L 152.605479 251.872094 
L 153.201103 251.104659 
L 153.796727 251.744188 
L 154.39235 251.744188 
L 154.987974 251.360471 
L 156.179221 251.872094 
L 157.370468 251.616282 
L 157.966091 251.744188 
L 158.561715 251.232565 
L 159.157339 251.616282 
L 159.752962 251.488376 
L 160.348586 251.232565 
L 160.944209 251.872094 
L 161.539833 251.616282 
L 162.73108 251.616282 
L 163.326703 251.872094 
L 163.922327 251.744188 
L 164.517951 251.744188 
L 165.709198 251.488376 
L 166.304821 251.744188 
L 166.900445 251.744188 
L 167.496068 251.488376 
L 168.091692 251.872094 
L 168.687315 251.744188 
L 169.282939 251.744188 
L 169.878563 251.872094 
L 170.474186 251.488376 
L 171.06981 251.616282 
L 171.665433 251.872094 
L 172.261057 251.616282 
L 172.85668 251.488376 
L 173.452304 251.744188 
L 174.047927 251.616282 
L 175.239175 251.872094 
L 175.834798 251.616282 
L 176.430422 251.488376 
L 177.026045 251.872094 
L 177.621669 251.744188 
L 178.217292 251.872094 
L 178.812916 251.744188 
L 180.004163 251.744188 
L 180.599787 250.976753 
L 181.791034 251.744188 
L 182.386657 251.360471 
L 182.982281 251.616282 
L 184.173528 251.616282 
L 184.769151 251.744188 
L 185.960399 251.488376 
L 186.556022 251.488376 
L 187.151646 251.744188 
L 187.747269 251.360471 
L 188.342893 251.872094 
L 188.938516 252 
L 189.53414 251.488376 
L 190.129763 251.744188 
L 190.725387 251.872094 
L 191.32101 251.872094 
L 191.916634 251.616282 
L 192.512258 251.616282 
L 193.107881 251.872094 
L 194.299128 251.872094 
L 194.894752 251.744188 
L 195.490375 251.232565 
L 196.085999 251.744188 
L 196.681622 251.872094 
L 197.277246 251.360471 
L 197.87287 251.744188 
L 198.468493 251.872094 
L 199.064117 251.872094 
L 200.255364 251.616282 
L 200.850987 252 
L 201.446611 251.616282 
L 202.042234 251.488376 
L 203.233482 251.744188 
L 203.829105 251.616282 
L 204.424729 251.616282 
L 205.020352 251.872094 
L 205.615976 251.616282 
L 206.211599 251.744188 
L 206.807223 251.616282 
L 207.402846 251.616282 
L 207.99847 252 
L 209.189717 251.744188 
L 209.785341 251.872094 
L 210.380964 251.488376 
L 210.976588 251.360471 
L 211.572211 252 
L 212.167835 251.488376 
L 212.763458 251.744188 
L 213.359082 251.616282 
L 213.954706 251.872094 
L 214.550329 251.488376 
L 215.145953 251.488376 
L 215.741576 251.872094 
L 216.3372 251.488376 
L 216.932823 251.360471 
L 217.528447 251.744188 
L 218.12407 251.616282 
L 218.719694 251.360471 
L 219.315318 251.232565 
L 219.910941 251.744188 
L 221.697812 251.744188 
L 222.293435 251.360471 
L 222.889059 251.616282 
L 223.484682 252 
L 224.080306 251.744188 
L 225.271553 251.744188 
L 225.867177 251.232565 
L 226.4628 251.744188 
L 227.058424 251.488376 
L 227.654047 251.744188 
L 228.249671 251.488376 
L 228.845294 251.360471 
L 229.440918 251.360471 
L 230.632165 251.872094 
L 231.227789 251.872094 
L 231.823412 251.744188 
L 232.419036 251.872094 
L 233.014659 251.616282 
L 233.610283 251.872094 
L 234.205906 251.616282 
L 234.80153 251.232565 
L 235.397154 251.744188 
L 235.992777 251.616282 
L 236.588401 251.616282 
L 237.184024 251.360471 
L 237.779648 251.744188 
L 238.375271 251.488376 
L 238.970895 251.872094 
L 239.566518 251.360471 
L 240.162142 251.616282 
L 240.757766 251.616282 
L 241.353389 251.872094 
L 241.949013 251.616282 
L 242.544636 251.744188 
L 243.14026 251.360471 
L 243.735883 251.744188 
L 244.331507 251.872094 
L 244.92713 251.872094 
L 245.522754 252 
L 246.118378 251.104659 
L 246.714001 251.872094 
L 248.500872 251.872094 
L 249.692119 251.616282 
L 250.287742 251.616282 
L 250.883366 251.744188 
L 251.47899 251.616282 
L 252.074613 251.232565 
L 252.670237 251.872094 
L 253.26586 251.232565 
L 253.861484 252 
L 254.457107 251.872094 
L 255.648354 251.872094 
L 256.243978 251.104659 
L 256.839601 251.360471 
L 257.435225 251.360471 
L 258.626472 251.872094 
L 259.222096 251.488376 
L 259.817719 251.360471 
L 260.413343 251.872094 
L 261.008966 251.616282 
L 261.60459 251.616282 
L 262.795837 251.872094 
L 263.391461 251.744188 
L 263.987084 252 
L 264.582708 251.872094 
L 265.178331 251.616282 
L 265.773955 251.744188 
L 266.369578 251.360471 
L 266.965202 251.744188 
L 267.560825 251.232565 
L 268.156449 251.872094 
L 268.752073 251.616282 
L 269.347696 251.488376 
L 269.94332 251.744188 
L 270.538943 251.232565 
L 271.134567 251.744188 
L 271.73019 251.616282 
L 272.325814 251.744188 
L 272.921437 251.616282 
L 273.517061 251.744188 
L 274.112685 251.616282 
L 275.303932 251.872094 
L 275.899555 251.360471 
L 276.495179 251.616282 
L 277.090802 251.360471 
L 277.686426 251.872094 
L 278.282049 251.872094 
L 278.877673 251.744188 
L 279.473297 251.744188 
L 280.06892 251.616282 
L 280.664544 251.872094 
L 282.451414 251.488376 
L 283.047038 251.488376 
L 283.642661 251.872094 
L 284.238285 251.872094 
L 284.833909 251.616282 
L 285.429532 251.872094 
L 286.025156 251.360471 
L 286.620779 251.872094 
L 288.40765 251.488376 
L 289.003273 251.872094 
L 289.598897 251.744188 
L 290.194521 251.360471 
L 290.790144 251.616282 
L 291.385768 251.744188 
L 291.981391 251.744188 
L 292.577015 251.488376 
L 293.768262 252 
L 294.363885 252 
L 296.150756 251.616282 
L 296.74638 251.744188 
L 297.342003 251.744188 
L 297.937627 251.488376 
L 298.53325 251.872094 
L 299.128874 251.360471 
L 299.724497 251.872094 
L 300.320121 252 
L 300.915745 251.488376 
L 301.511368 251.744188 
L 302.106992 251.744188 
L 302.702615 250.976753 
L 303.298239 251.616282 
L 303.893862 251.488376 
L 304.489486 252 
L 305.085109 251.744188 
L 306.276357 252 
L 306.87198 252 
L 307.467604 251.616282 
L 308.063227 251.872094 
L 308.658851 250.976753 
L 309.254474 251.872094 
L 309.850098 251.872094 
L 310.445721 251.616282 
L 311.041345 251.616282 
L 311.636969 251.488376 
L 312.232592 251.872094 
L 312.828216 251.488376 
L 313.423839 251.744188 
L 314.019463 251.488376 
L 314.615086 251.360471 
L 315.21071 251.744188 
L 315.806333 251.360471 
L 316.401957 251.360471 
L 316.997581 251.744188 
L 317.593204 251.616282 
L 318.188828 251.872094 
L 318.784451 251.616282 
L 319.380075 251.872094 
L 319.975698 251.616282 
L 320.571322 251.616282 
L 321.166945 251.488376 
L 321.762569 252 
L 322.358192 251.744188 
L 322.953816 251.616282 
L 323.54944 251.744188 
L 324.145063 251.616282 
L 324.740687 251.872094 
L 325.33631 251.616282 
L 325.931934 251.616282 
L 326.527557 252 
L 327.123181 251.488376 
L 327.718804 251.360471 
L 328.314428 251.744188 
L 329.505675 251.488376 
L 330.101299 251.872094 
L 330.696922 251.616282 
L 331.292546 250.976753 
L 331.888169 251.872094 
L 332.483793 252 
L 333.079416 251.616282 
L 333.67504 251.488376 
L 334.270664 251.744188 
L 334.866287 251.744188 
L 335.461911 251.232565 
L 336.057534 251.488376 
L 336.653158 251.872094 
L 337.248781 251.488376 
L 337.844405 251.360471 
L 338.440028 251.872094 
L 339.035652 251.744188 
L 339.631276 251.872094 
L 340.226899 251.744188 
L 340.822523 251.488376 
L 342.01377 251.744188 
L 342.609393 251.488376 
L 343.205017 251.616282 
L 343.80064 251.872094 
L 344.396264 251.488376 
L 344.991888 251.872094 
L 346.183135 251.872094 
L 346.778758 251.616282 
L 347.374382 251.744188 
L 347.970005 251.616282 
L 348.565629 251.872094 
L 349.161252 251.616282 
L 350.3525 251.616282 
L 350.948123 251.872094 
L 351.543747 251.232565 
L 352.13937 252 
L 353.330617 251.744188 
L 353.926241 251.872094 
L 354.521864 251.360471 
L 355.117488 251.232565 
L 355.713112 251.872094 
L 356.308735 251.872094 
L 357.499982 251.616282 
L 358.095606 251.104659 
L 358.691229 251.744188 
L 359.286853 251.616282 
L 359.882476 251.744188 
L 360.4781 251.616282 
L 361.073724 251.872094 
L 361.669347 251.488376 
L 362.264971 251.872094 
L 362.860594 251.872094 
L 363.456218 252 
L 365.243088 251.232565 
L 365.838712 251.616282 
L 366.434336 251.104659 
L 367.029959 251.360471 
L 367.625583 252 
L 368.221206 251.488376 
L 368.81683 251.616282 
L 369.412453 251.872094 
L 370.6037 251.616282 
L 371.794948 251.616282 
L 372.390571 251.872094 
L 372.986195 251.872094 
L 373.581818 251.360471 
L 373.581818 251.360471 
" clip-path="url(#pb60a47a9e9)" style="fill: none; stroke: #1f77b4; stroke-width: 1.5; stroke-linecap: square"/>
   </g>
   <g id="line2d_32">
    <path d="M 69.218182 244.325647 
L 69.813805 244.453553 
L 70.409429 242.279153 
L 71.005052 241.128 
L 71.600676 244.197741 
L 72.1963 244.325647 
L 72.791923 242.790776 
L 73.387547 244.325647 
L 73.98317 242.918682 
L 74.578794 242.407059 
L 75.174417 243.046588 
L 75.770041 243.3024 
L 76.365664 242.023341 
L 76.961288 241.895435 
L 77.556912 243.046588 
L 78.152535 243.046588 
L 78.748159 244.709365 
L 79.343782 242.534965 
L 79.939406 241.000094 
L 80.535029 244.069835 
L 81.130653 244.325647 
L 81.726276 241.255906 
L 82.3219 244.453553 
L 82.917524 242.790776 
L 83.513147 243.430306 
L 84.108771 242.023341 
L 84.704394 242.662871 
L 85.300018 244.197741 
L 85.895641 242.790776 
L 86.491265 243.941929 
L 87.086888 243.3024 
L 87.682512 243.430306 
L 88.278136 243.686118 
L 88.873759 244.453553 
L 89.469383 244.453553 
L 90.065006 244.709365 
L 90.66063 243.3024 
L 91.256253 243.686118 
L 91.851877 242.023341 
L 92.4475 242.662871 
L 93.043124 242.023341 
L 93.638748 241.128 
L 94.234371 243.814024 
L 94.829995 243.046588 
L 95.425618 244.453553 
L 96.021242 242.407059 
L 96.616865 243.174494 
L 97.212489 244.965176 
L 97.808112 244.325647 
L 98.403736 243.046588 
L 98.99936 242.662871 
L 99.594983 243.558212 
L 100.190607 243.814024 
L 100.78623 243.941929 
L 101.381854 243.430306 
L 101.977477 243.430306 
L 102.573101 243.558212 
L 103.168724 243.174494 
L 103.764348 243.941929 
L 104.359972 243.941929 
L 104.955595 241.767529 
L 105.551219 242.407059 
L 106.146842 243.3024 
L 106.742466 243.430306 
L 107.338089 244.325647 
L 107.933713 241.511718 
L 108.529336 242.279153 
L 109.12496 244.069835 
L 109.720584 243.558212 
L 110.316207 244.709365 
L 110.911831 242.662871 
L 111.507454 241.767529 
L 112.698701 243.174494 
L 113.294325 243.174494 
L 113.889948 244.581459 
L 115.081196 240.744282 
L 115.676819 243.3024 
L 116.272443 243.046588 
L 116.868066 244.581459 
L 117.46369 243.430306 
L 118.059313 243.174494 
L 118.654937 243.3024 
L 119.25056 244.837271 
L 119.846184 241.767529 
L 120.441808 241.895435 
L 121.037431 243.430306 
L 121.633055 243.174494 
L 122.228678 243.941929 
L 122.824302 243.686118 
L 123.419925 242.534965 
L 124.015549 242.279153 
L 124.611172 244.069835 
L 125.206796 242.790776 
L 125.802419 244.069835 
L 126.398043 244.581459 
L 126.993667 244.069835 
L 127.58929 244.197741 
L 128.184914 244.069835 
L 128.780537 242.534965 
L 129.376161 243.046588 
L 129.971784 245.093082 
L 130.567408 242.662871 
L 131.163031 242.023341 
L 131.758655 245.4768 
L 132.949902 242.918682 
L 133.545526 243.814024 
L 134.141149 243.046588 
L 134.736773 243.3024 
L 135.332396 241.639624 
L 135.92802 242.790776 
L 136.523643 244.837271 
L 137.119267 242.023341 
L 138.310514 244.069835 
L 138.906138 243.558212 
L 139.501761 243.430306 
L 140.097385 241.767529 
L 140.693008 243.046588 
L 141.288632 241.895435 
L 141.884255 242.407059 
L 142.479879 244.069835 
L 143.075503 242.918682 
L 143.671126 243.558212 
L 144.26675 243.814024 
L 144.862373 243.941929 
L 145.457997 243.686118 
L 146.05362 244.581459 
L 146.649244 243.814024 
L 147.244867 243.3024 
L 147.840491 243.046588 
L 148.436115 244.965176 
L 149.627362 243.814024 
L 150.222985 243.046588 
L 150.818609 244.325647 
L 151.414232 244.453553 
L 152.009856 245.348894 
L 152.605479 243.814024 
L 153.201103 244.709365 
L 153.796727 241.767529 
L 154.39235 242.662871 
L 154.987974 242.662871 
L 155.583597 243.941929 
L 156.179221 243.941929 
L 156.774844 242.790776 
L 157.370468 245.4768 
L 157.966091 244.709365 
L 158.561715 244.325647 
L 159.157339 243.430306 
L 159.752962 243.686118 
L 160.348586 242.534965 
L 160.944209 244.581459 
L 161.539833 245.220988 
L 162.135456 241.255906 
L 162.73108 242.023341 
L 163.326703 241.000094 
L 163.922327 245.220988 
L 164.517951 241.639624 
L 165.113574 243.430306 
L 165.709198 243.3024 
L 166.304821 244.709365 
L 166.900445 242.662871 
L 167.496068 244.197741 
L 168.091692 244.069835 
L 168.687315 244.197741 
L 169.282939 245.348894 
L 169.878563 245.988424 
L 170.474186 242.534965 
L 171.06981 244.709365 
L 171.665433 244.453553 
L 172.261057 242.279153 
L 172.85668 242.790776 
L 173.452304 242.918682 
L 174.047927 242.790776 
L 175.834798 242.790776 
L 176.430422 243.430306 
L 177.026045 242.918682 
L 177.621669 241.895435 
L 178.217292 244.197741 
L 178.812916 241.767529 
L 179.408539 245.093082 
L 180.004163 242.790776 
L 180.599787 243.941929 
L 181.791034 241.511718 
L 182.386657 241.767529 
L 182.982281 244.069835 
L 183.577904 243.174494 
L 184.173528 242.918682 
L 184.769151 242.279153 
L 185.364775 244.709365 
L 185.960399 245.093082 
L 186.556022 243.814024 
L 187.151646 243.686118 
L 187.747269 244.325647 
L 188.342893 243.174494 
L 188.938516 242.534965 
L 189.53414 243.046588 
L 190.129763 243.174494 
L 190.725387 245.220988 
L 191.32101 243.814024 
L 191.916634 244.197741 
L 192.512258 243.941929 
L 193.107881 242.534965 
L 193.703505 244.069835 
L 194.299128 243.430306 
L 194.894752 243.686118 
L 195.490375 243.3024 
L 196.085999 244.709365 
L 196.681622 243.558212 
L 197.277246 243.941929 
L 197.87287 243.814024 
L 198.468493 241.767529 
L 199.064117 245.220988 
L 199.65974 243.814024 
L 200.255364 242.918682 
L 200.850987 242.918682 
L 202.042234 243.686118 
L 202.637858 242.790776 
L 203.233482 243.3024 
L 203.829105 242.918682 
L 204.424729 245.4768 
L 205.020352 242.790776 
L 205.615976 241.255906 
L 206.211599 242.279153 
L 206.807223 242.023341 
L 207.99847 242.662871 
L 209.189717 242.662871 
L 209.785341 243.046588 
L 210.380964 241.639624 
L 210.976588 244.325647 
L 211.572211 244.069835 
L 212.167835 241.767529 
L 212.763458 242.534965 
L 213.359082 240.616376 
L 213.954706 243.430306 
L 214.550329 241.767529 
L 215.145953 241.128 
L 215.741576 224.628141 
L 216.3372 239.976847 
L 216.932823 243.814024 
L 217.528447 244.197741 
L 218.12407 244.197741 
L 218.719694 242.790776 
L 219.315318 244.837271 
L 219.910941 245.4768 
L 220.506565 244.197741 
L 221.102188 246.244235 
L 221.697812 242.407059 
L 222.293435 241.383812 
L 222.889059 243.941929 
L 223.484682 243.814024 
L 224.080306 242.662871 
L 224.67593 243.814024 
L 225.271553 242.407059 
L 225.867177 243.558212 
L 226.4628 243.430306 
L 227.654047 243.941929 
L 228.249671 237.035012 
L 228.845294 222.837459 
L 229.440918 225.139765 
L 230.036542 243.046588 
L 230.632165 244.709365 
L 231.227789 242.151247 
L 231.823412 244.965176 
L 232.419036 242.279153 
L 233.014659 241.000094 
L 233.610283 243.430306 
L 234.205906 245.348894 
L 234.80153 245.348894 
L 235.397154 242.918682 
L 235.992777 243.558212 
L 236.588401 241.767529 
L 237.184024 243.430306 
L 237.779648 244.709365 
L 238.970895 244.197741 
L 239.566518 244.069835 
L 240.162142 242.662871 
L 240.757766 243.430306 
L 241.353389 244.453553 
L 241.949013 244.069835 
L 242.544636 243.941929 
L 243.14026 242.023341 
L 243.735883 243.046588 
L 244.331507 243.174494 
L 244.92713 245.093082 
L 245.522754 243.814024 
L 246.118378 244.325647 
L 246.714001 241.895435 
L 247.905248 243.430306 
L 248.500872 243.046588 
L 249.096495 242.023341 
L 249.692119 244.197741 
L 250.287742 244.581459 
L 250.883366 244.197741 
L 251.47899 242.407059 
L 252.074613 242.662871 
L 253.26586 242.407059 
L 253.861484 245.348894 
L 255.052731 242.279153 
L 256.243978 243.686118 
L 256.839601 244.709365 
L 257.435225 245.093082 
L 258.030849 244.197741 
L 258.626472 244.453553 
L 259.222096 242.279153 
L 259.817719 243.174494 
L 260.413343 242.151247 
L 261.008966 242.790776 
L 261.60459 243.941929 
L 262.200213 243.686118 
L 262.795837 244.453553 
L 263.391461 243.686118 
L 263.987084 243.814024 
L 264.582708 243.814024 
L 265.178331 242.918682 
L 266.369578 242.151247 
L 267.560825 245.093082 
L 268.156449 242.023341 
L 268.752073 241.128 
L 269.347696 244.581459 
L 269.94332 243.814024 
L 270.538943 243.558212 
L 271.134567 244.453553 
L 271.73019 243.558212 
L 272.325814 243.430306 
L 272.921437 243.558212 
L 273.517061 241.767529 
L 274.112685 244.965176 
L 274.708308 241.000094 
L 275.303932 243.941929 
L 275.899555 245.220988 
L 276.495179 241.255906 
L 277.090802 242.918682 
L 277.686426 243.046588 
L 278.282049 242.023341 
L 278.877673 242.918682 
L 279.473297 242.918682 
L 280.06892 241.895435 
L 280.664544 244.325647 
L 281.260167 243.430306 
L 281.855791 242.790776 
L 282.451414 244.453553 
L 283.047038 243.558212 
L 283.642661 244.581459 
L 284.238285 242.407059 
L 284.833909 244.069835 
L 285.429532 243.430306 
L 286.025156 242.407059 
L 286.620779 244.837271 
L 287.216403 244.581459 
L 288.40765 241.511718 
L 289.003273 242.790776 
L 289.598897 242.918682 
L 290.194521 244.453553 
L 290.790144 243.3024 
L 291.981391 244.453553 
L 292.577015 243.558212 
L 293.172638 243.941929 
L 293.768262 245.093082 
L 294.363885 242.662871 
L 294.959509 242.918682 
L 295.555133 241.383812 
L 296.74638 242.023341 
L 297.342003 243.174494 
L 297.937627 242.407059 
L 298.53325 243.430306 
L 299.724497 243.686118 
L 300.320121 245.4768 
L 300.915745 241.895435 
L 301.511368 244.197741 
L 302.106992 242.534965 
L 302.702615 243.174494 
L 303.298239 242.023341 
L 303.893862 241.383812 
L 304.489486 243.686118 
L 305.085109 244.069835 
L 305.680733 242.407059 
L 306.276357 243.046588 
L 306.87198 241.767529 
L 308.063227 243.941929 
L 308.658851 244.197741 
L 309.254474 241.895435 
L 309.850098 244.965176 
L 310.445721 243.430306 
L 311.041345 242.918682 
L 312.232592 244.581459 
L 312.828216 242.407059 
L 313.423839 241.128 
L 314.019463 243.814024 
L 314.615086 242.662871 
L 315.21071 242.662871 
L 315.806333 243.941929 
L 316.401957 244.197741 
L 316.997581 242.407059 
L 318.188828 244.325647 
L 318.784451 244.325647 
L 319.380075 242.407059 
L 319.975698 242.918682 
L 320.571322 242.790776 
L 321.166945 245.604706 
L 321.762569 243.941929 
L 322.358192 243.558212 
L 322.953816 240.744282 
L 323.54944 243.174494 
L 324.145063 243.3024 
L 324.740687 241.000094 
L 325.33631 243.558212 
L 325.931934 243.686118 
L 327.123181 243.686118 
L 327.718804 242.662871 
L 328.314428 244.197741 
L 328.910052 242.534965 
L 329.505675 242.662871 
L 330.101299 243.174494 
L 330.696922 243.941929 
L 331.292546 244.453553 
L 331.888169 243.558212 
L 332.483793 242.023341 
L 333.079416 243.174494 
L 333.67504 243.558212 
L 334.270664 242.534965 
L 334.866287 242.918682 
L 335.461911 243.941929 
L 336.057534 239.593129 
L 336.653158 242.534965 
L 337.248781 241.895435 
L 337.844405 245.093082 
L 338.440028 241.000094 
L 339.035652 241.255906 
L 339.631276 242.790776 
L 340.226899 241.895435 
L 340.822523 244.197741 
L 341.418146 244.069835 
L 342.01377 241.639624 
L 343.205017 245.4768 
L 343.80064 242.407059 
L 344.396264 242.407059 
L 344.991888 244.453553 
L 345.587511 244.965176 
L 346.183135 243.941929 
L 347.374382 243.046588 
L 347.970005 243.814024 
L 348.565629 243.814024 
L 349.161252 242.918682 
L 349.756876 241.767529 
L 350.3525 242.918682 
L 350.948123 243.430306 
L 351.543747 242.662871 
L 352.13937 241.383812 
L 352.734994 244.069835 
L 353.330617 243.3024 
L 353.926241 244.069835 
L 354.521864 240.872188 
L 355.117488 242.534965 
L 355.713112 243.686118 
L 356.904359 242.790776 
L 357.499982 243.941929 
L 358.095606 243.941929 
L 358.691229 242.534965 
L 359.286853 243.941929 
L 359.882476 244.197741 
L 360.4781 243.430306 
L 361.073724 242.279153 
L 361.669347 242.151247 
L 362.264971 243.046588 
L 362.860594 242.534965 
L 363.456218 242.279153 
L 364.051841 244.581459 
L 364.647465 244.581459 
L 365.243088 243.046588 
L 365.838712 244.325647 
L 366.434336 241.767529 
L 367.625583 242.918682 
L 368.221206 243.174494 
L 368.81683 243.046588 
L 369.412453 242.662871 
L 370.008077 244.453553 
L 370.6037 242.918682 
L 371.199324 243.174494 
L 371.794948 243.941929 
L 372.390571 243.941929 
L 372.986195 243.558212 
L 373.581818 243.430306 
L 373.581818 243.430306 
" clip-path="url(#pb60a47a9e9)" style="fill: none; stroke: #ff7f0e; stroke-width: 1.5; stroke-linecap: square"/>
   </g>
   <g id="line2d_33">
    <path d="M 69.218182 142.768376 
L 69.813805 147.6288 
L 70.409429 143.024188 
L 71.005052 144.175341 
L 71.600676 148.268329 
L 72.1963 145.966024 
L 72.791923 138.291671 
L 73.387547 145.198588 
L 73.98317 149.163671 
L 75.174417 136.884706 
L 75.770041 144.175341 
L 76.365664 145.838118 
L 76.961288 145.966024 
L 77.556912 145.4544 
L 78.152535 145.710212 
L 78.748159 145.710212 
L 79.343782 145.326494 
L 79.939406 138.419576 
L 80.535029 137.907953 
L 81.130653 144.559059 
L 81.726276 135.989365 
L 82.3219 145.198588 
L 82.917524 139.698635 
L 83.513147 147.117176 
L 84.108771 144.047435 
L 84.704394 137.012612 
L 85.300018 139.314918 
L 85.895641 144.047435 
L 86.491265 146.093929 
L 87.086888 142.256753 
L 87.682512 148.779953 
L 88.278136 146.093929 
L 88.873759 149.931106 
L 89.469383 140.338165 
L 90.065006 146.093929 
L 90.66063 141.617224 
L 91.256253 142.384659 
L 91.851877 143.791624 
L 92.4475 142.896282 
L 93.043124 142.384659 
L 93.638748 148.779953 
L 94.234371 150.186918 
L 94.829995 147.372988 
L 95.425618 142.640471 
L 96.021242 140.082353 
L 96.616865 138.163765 
L 97.212489 143.152094 
L 97.808112 146.221835 
L 98.403736 145.582306 
L 98.99936 148.012518 
L 99.594983 143.791624 
L 100.190607 146.477647 
L 100.78623 142.768376 
L 101.381854 144.559059 
L 101.977477 151.082259 
L 102.573101 142.768376 
L 103.168724 140.210259 
L 103.764348 145.710212 
L 104.359972 145.070682 
L 104.955595 146.349741 
L 105.551219 145.070682 
L 106.146842 140.593976 
L 106.742466 140.466071 
L 107.338089 143.407906 
L 107.933713 149.035765 
L 108.529336 150.570635 
L 109.12496 141.489318 
L 109.720584 138.419576 
L 110.316207 149.163671 
L 111.507454 139.954447 
L 112.698701 151.082259 
L 113.294325 148.396235 
L 113.889948 139.442824 
L 114.485572 146.093929 
L 115.081196 147.884612 
L 115.676819 143.535812 
L 116.272443 150.826447 
L 116.868066 136.628894 
L 117.46369 143.28 
L 118.059313 143.407906 
L 118.654937 139.187012 
L 119.25056 142.128847 
L 119.846184 143.791624 
L 120.441808 143.535812 
L 121.037431 141.745129 
L 121.633055 150.059012 
L 122.228678 142.000941 
L 122.824302 144.686965 
L 124.015549 142.000941 
L 124.611172 145.582306 
L 125.206796 145.966024 
L 125.802419 143.791624 
L 126.398043 151.593882 
L 126.993667 142.640471 
L 127.58929 149.035765 
L 128.184914 149.547388 
L 128.780537 146.477647 
L 129.376161 138.035859 
L 129.971784 143.663718 
L 130.567408 136.884706 
L 131.758655 144.303247 
L 132.354279 141.1056 
L 132.949902 143.28 
L 133.545526 140.593976 
L 134.141149 149.419482 
L 134.736773 145.4544 
L 135.332396 144.175341 
L 135.92802 142.256753 
L 136.523643 143.535812 
L 137.119267 143.024188 
L 137.714891 143.791624 
L 138.310514 146.221835 
L 138.906138 144.303247 
L 139.501761 139.570729 
L 140.097385 147.117176 
L 140.693008 139.698635 
L 141.288632 142.640471 
L 141.884255 146.733459 
L 142.479879 142.384659 
L 143.075503 147.500894 
L 143.671126 146.733459 
L 144.862373 138.9312 
L 145.457997 141.361412 
L 146.05362 139.954447 
L 146.649244 141.873035 
L 147.244867 142.256753 
L 147.840491 151.338071 
L 149.031738 145.4544 
L 149.627362 139.059106 
L 150.222985 149.035765 
L 150.818609 141.745129 
L 152.009856 144.559059 
L 152.605479 141.873035 
L 153.201103 140.338165 
L 153.796727 142.000941 
L 154.39235 141.745129 
L 155.583597 148.907859 
L 156.179221 150.698541 
L 156.774844 146.221835 
L 157.370468 151.338071 
L 157.966091 141.1056 
L 158.561715 140.849788 
L 159.157339 141.489318 
L 159.752962 146.477647 
L 160.348586 141.233506 
L 160.944209 144.047435 
L 161.539833 145.198588 
L 162.135456 141.1056 
L 162.73108 147.245082 
L 163.326703 143.407906 
L 163.922327 143.663718 
L 164.517951 146.989271 
L 165.113574 139.826541 
L 165.709198 151.849694 
L 166.304821 139.698635 
L 166.900445 143.791624 
L 167.496068 140.593976 
L 168.091692 145.4544 
L 169.282939 139.826541 
L 169.878563 146.733459 
L 170.474186 143.791624 
L 171.06981 145.198588 
L 171.665433 147.117176 
L 172.261057 143.28 
L 172.85668 140.466071 
L 174.047927 145.326494 
L 174.643551 147.117176 
L 175.239175 143.152094 
L 177.026045 145.198588 
L 177.621669 139.314918 
L 178.217292 148.652047 
L 178.812916 147.372988 
L 179.408539 142.512565 
L 180.004163 148.396235 
L 180.599787 143.791624 
L 181.19541 142.000941 
L 181.791034 145.326494 
L 182.386657 146.221835 
L 182.982281 140.721882 
L 183.577904 144.686965 
L 184.173528 141.1056 
L 184.769151 149.675294 
L 185.364775 152.745035 
L 185.960399 149.547388 
L 186.556022 141.873035 
L 187.151646 140.721882 
L 187.747269 143.407906 
L 188.342893 149.8032 
L 188.938516 145.4544 
L 189.53414 147.756706 
L 190.129763 148.140424 
L 190.725387 147.884612 
L 191.32101 148.396235 
L 191.916634 148.140424 
L 192.512258 142.640471 
L 193.107881 138.547482 
L 193.703505 140.210259 
L 194.299128 142.512565 
L 194.894752 140.210259 
L 195.490375 144.047435 
L 196.085999 145.966024 
L 196.681622 143.407906 
L 197.277246 143.535812 
L 197.87287 140.338165 
L 198.468493 148.779953 
L 199.064117 137.780047 
L 199.65974 143.919529 
L 200.255364 144.431153 
L 200.850987 140.721882 
L 201.446611 145.4544 
L 202.042234 138.9312 
L 202.637858 144.431153 
L 203.233482 143.535812 
L 203.829105 148.396235 
L 204.424729 145.966024 
L 205.020352 144.431153 
L 205.615976 144.942776 
L 206.211599 147.500894 
L 207.402846 144.431153 
L 207.99847 146.477647 
L 209.189717 143.152094 
L 209.785341 148.779953 
L 210.380964 143.791624 
L 210.976588 144.175341 
L 211.572211 136.117271 
L 212.167835 142.128847 
L 212.763458 151.9776 
L 213.954706 138.035859 
L 214.550329 149.163671 
L 215.145953 146.989271 
L 215.741576 148.396235 
L 216.3372 138.035859 
L 216.932823 142.128847 
L 217.528447 139.698635 
L 218.12407 143.407906 
L 218.719694 144.047435 
L 219.315318 139.954447 
L 220.506565 147.6288 
L 221.102188 142.768376 
L 221.697812 147.372988 
L 222.293435 147.884612 
L 222.889059 142.384659 
L 223.484682 150.059012 
L 224.080306 139.059106 
L 224.67593 152.489224 
L 225.271553 146.477647 
L 225.867177 135.349835 
L 226.4628 50.931953 
L 227.058424 122.047624 
L 227.654047 139.826541 
L 228.249671 138.419576 
L 228.845294 140.210259 
L 229.440918 147.372988 
L 230.036542 140.466071 
L 230.632165 146.733459 
L 231.227789 147.372988 
L 231.823412 142.000941 
L 232.419036 145.070682 
L 233.014659 146.605553 
L 233.610283 150.059012 
L 234.205906 147.884612 
L 234.80153 144.175341 
L 235.397154 145.326494 
L 235.992777 146.221835 
L 236.588401 142.000941 
L 237.184024 148.396235 
L 237.779648 147.500894 
L 238.375271 140.338165 
L 238.970895 127.035953 
L 239.566518 53.106353 
L 240.162142 72.931765 
L 240.757766 132.024282 
L 241.353389 146.989271 
L 241.949013 151.082259 
L 242.544636 137.012612 
L 243.14026 145.966024 
L 243.735883 146.989271 
L 244.331507 141.617224 
L 244.92713 140.466071 
L 246.118378 144.942776 
L 246.714001 144.942776 
L 247.309625 143.152094 
L 247.905248 150.698541 
L 248.500872 150.698541 
L 249.096495 138.9312 
L 249.692119 145.838118 
L 250.287742 145.326494 
L 250.883366 142.512565 
L 251.47899 143.28 
L 252.074613 143.024188 
L 252.670237 151.9776 
L 253.26586 143.28 
L 253.861484 141.361412 
L 254.457107 138.803294 
L 255.052731 144.303247 
L 255.648354 148.140424 
L 256.243978 146.093929 
L 256.839601 148.907859 
L 257.435225 142.256753 
L 258.030849 144.686965 
L 258.626472 140.210259 
L 259.222096 147.245082 
L 259.817719 145.198588 
L 260.413343 139.442824 
L 261.008966 145.966024 
L 261.60459 135.477741 
L 262.200213 148.268329 
L 262.795837 146.349741 
L 263.391461 142.512565 
L 265.178331 146.221835 
L 265.773955 148.012518 
L 266.369578 147.756706 
L 266.965202 142.256753 
L 267.560825 138.163765 
L 268.156449 140.721882 
L 268.752073 147.756706 
L 269.347696 139.954447 
L 269.94332 145.966024 
L 270.538943 147.372988 
L 271.134567 139.442824 
L 271.73019 142.384659 
L 272.325814 147.117176 
L 272.921437 144.175341 
L 273.517061 139.314918 
L 274.112685 145.838118 
L 274.708308 142.000941 
L 275.303932 140.593976 
L 275.899555 136.628894 
L 276.495179 143.919529 
L 277.090802 142.640471 
L 278.282049 152.361318 
L 279.473297 145.198588 
L 280.06892 145.838118 
L 280.664544 150.059012 
L 281.260167 143.407906 
L 281.855791 142.128847 
L 282.451414 142.512565 
L 283.047038 136.884706 
L 283.642661 143.152094 
L 284.833909 147.245082 
L 285.429532 151.210165 
L 286.025156 137.780047 
L 286.620779 139.187012 
L 287.216403 142.512565 
L 287.812026 141.233506 
L 288.40765 145.582306 
L 289.003273 145.710212 
L 289.598897 146.733459 
L 290.194521 146.989271 
L 290.790144 139.826541 
L 291.385768 148.779953 
L 291.981391 145.198588 
L 292.577015 140.082353 
L 293.172638 138.675388 
L 293.768262 140.466071 
L 294.363885 143.024188 
L 294.959509 147.884612 
L 295.555133 142.640471 
L 296.150756 138.803294 
L 296.74638 150.186918 
L 297.342003 144.686965 
L 297.937627 142.384659 
L 298.53325 137.780047 
L 299.128874 143.152094 
L 299.724497 145.838118 
L 300.320121 140.338165 
L 300.915745 141.1056 
L 301.511368 136.245176 
L 302.106992 142.896282 
L 302.702615 138.675388 
L 303.298239 142.000941 
L 303.893862 138.9312 
L 304.489486 141.745129 
L 305.085109 142.768376 
L 305.680733 142.640471 
L 306.276357 139.187012 
L 306.87198 144.303247 
L 307.467604 140.721882 
L 308.063227 147.372988 
L 308.658851 143.152094 
L 309.254474 137.396329 
L 309.850098 143.535812 
L 310.445721 137.907953 
L 311.041345 143.663718 
L 311.636969 145.198588 
L 312.232592 151.210165 
L 312.828216 144.686965 
L 313.423839 143.663718 
L 314.019463 138.163765 
L 314.615086 141.873035 
L 315.21071 140.721882 
L 315.806333 144.686965 
L 316.401957 145.326494 
L 316.997581 143.28 
L 317.593204 146.989271 
L 318.188828 142.384659 
L 318.784451 145.326494 
L 319.380075 143.919529 
L 319.975698 143.024188 
L 320.571322 150.314824 
L 321.166945 142.640471 
L 321.762569 147.6288 
L 322.358192 142.896282 
L 322.953816 140.210259 
L 323.54944 142.384659 
L 324.145063 147.884612 
L 324.740687 143.407906 
L 325.33631 136.628894 
L 325.931934 140.466071 
L 326.527557 146.733459 
L 327.123181 147.117176 
L 327.718804 141.489318 
L 328.314428 144.175341 
L 328.910052 145.326494 
L 329.505675 134.070776 
L 330.101299 133.303341 
L 330.696922 146.733459 
L 331.292546 140.338165 
L 331.888169 141.617224 
L 332.483793 146.989271 
L 333.079416 145.070682 
L 333.67504 138.803294 
L 334.270664 144.431153 
L 334.866287 145.4544 
L 335.461911 144.559059 
L 336.057534 140.721882 
L 336.653158 145.326494 
L 337.248781 147.500894 
L 337.844405 140.466071 
L 339.035652 150.954353 
L 339.631276 138.163765 
L 340.226899 140.338165 
L 340.822523 143.663718 
L 341.418146 148.140424 
L 342.01377 144.686965 
L 342.609393 145.966024 
L 343.205017 142.640471 
L 343.80064 154.024094 
L 344.396264 140.338165 
L 344.991888 141.873035 
L 345.587511 141.617224 
L 346.183135 142.000941 
L 346.778758 146.861365 
L 347.374382 144.559059 
L 347.970005 145.710212 
L 348.565629 147.884612 
L 349.161252 142.896282 
L 349.756876 139.314918 
L 350.3525 143.28 
L 350.948123 150.314824 
L 351.543747 149.547388 
L 352.13937 143.919529 
L 352.734994 140.849788 
L 353.330617 146.861365 
L 354.521864 141.361412 
L 355.117488 144.686965 
L 355.713112 145.070682 
L 356.904359 141.1056 
L 357.499982 144.686965 
L 358.095606 146.733459 
L 358.691229 134.326588 
L 359.286853 144.942776 
L 359.882476 142.128847 
L 360.4781 143.919529 
L 361.073724 146.477647 
L 361.669347 138.9312 
L 362.264971 144.431153 
L 362.860594 140.977694 
L 363.456218 143.919529 
L 364.051841 138.675388 
L 364.647465 143.663718 
L 365.243088 144.175341 
L 365.838712 143.919529 
L 366.434336 151.338071 
L 367.029959 148.396235 
L 367.625583 147.6288 
L 368.221206 147.6288 
L 368.81683 140.210259 
L 369.412453 139.314918 
L 370.008077 147.245082 
L 370.6037 147.372988 
L 371.199324 143.919529 
L 371.794948 144.175341 
L 372.390571 145.838118 
L 372.986195 141.233506 
L 373.581818 137.907953 
L 373.581818 137.907953 
" clip-path="url(#pb60a47a9e9)" style="fill: none; stroke: #2ca02c; stroke-width: 1.5; stroke-linecap: square"/>
   </g>
   <g id="patch_3">
    <path d="M 54 252 
L 54 34.56 
" style="fill: none; stroke: #000000; stroke-width: 0.8; stroke-linejoin: miter; stroke-linecap: square"/>
   </g>
   <g id="patch_4">
    <path d="M 388.8 252 
L 388.8 34.56 
" style="fill: none; stroke: #000000; stroke-width: 0.8; stroke-linejoin: miter; stroke-linecap: square"/>
   </g>
   <g id="patch_5">
    <path d="M 54 252 
L 388.8 252 
" style="fill: none; stroke: #000000; stroke-width: 0.8; stroke-linejoin: miter; stroke-linecap: square"/>
   </g>
   <g id="patch_6">
    <path d="M 54 34.56 
L 388.8 34.56 
" style="fill: none; stroke: #000000; stroke-width: 0.8; stroke-linejoin: miter; stroke-linecap: square"/>
   </g>
   <g id="text_18">
    <!-- Label 18 -->
    <g transform="translate(195.670312 28.56)scale(0.12 -0.12)">
     <defs>
      <path id="DejaVuSans-4c" d="M 628 4666 
L 1259 4666 
L 1259 531 
L 3531 531 
L 3531 0 
L 628 0 
L 628 4666 
z
" transform="scale(0.015625)"/>
      <path id="DejaVuSans-61" d="M 2194 1759 
Q 1497 1759 1228 1600 
Q 959 1441 959 1056 
Q 959 750 1161 570 
Q 1363 391 1709 391 
Q 2188 391 2477 730 
Q 2766 1069 2766 1631 
L 2766 1759 
L 2194 1759 
z
M 3341 1997 
L 3341 0 
L 2766 0 
L 2766 531 
Q 2569 213 2275 61 
Q 1981 -91 1556 -91 
Q 1019 -91 701 211 
Q 384 513 384 1019 
Q 384 1609 779 1909 
Q 1175 2209 1959 2209 
L 2766 2209 
L 2766 2266 
Q 2766 2663 2505 2880 
Q 2244 3097 1772 3097 
Q 1472 3097 1187 3025 
Q 903 2953 641 2809 
L 641 3341 
Q 956 3463 1253 3523 
Q 1550 3584 1831 3584 
Q 2591 3584 2966 3190 
Q 3341 2797 3341 1997 
z
" transform="scale(0.015625)"/>
      <path id="DejaVuSans-65" d="M 3597 1894 
L 3597 1613 
L 953 1613 
Q 991 1019 1311 708 
Q 1631 397 2203 397 
Q 2534 397 2845 478 
Q 3156 559 3463 722 
L 3463 178 
Q 3153 47 2828 -22 
Q 2503 -91 2169 -91 
Q 1331 -91 842 396 
Q 353 884 353 1716 
Q 353 2575 817 3079 
Q 1281 3584 2069 3584 
Q 2775 3584 3186 3129 
Q 3597 2675 3597 1894 
z
M 3022 2063 
Q 3016 2534 2758 2815 
Q 2500 3097 2075 3097 
Q 1594 3097 1305 2825 
Q 1016 2553 972 2059 
L 3022 2063 
z
" transform="scale(0.015625)"/>
      <path id="DejaVuSans-6c" d="M 603 4863 
L 1178 4863 
L 1178 0 
L 603 0 
L 603 4863 
z
" transform="scale(0.015625)"/>
      <path id="DejaVuSans-20" transform="scale(0.015625)"/>
     </defs>
     <use xlink:href="#DejaVuSans-4c"/>
     <use xlink:href="#DejaVuSans-61" x="55.712891"/>
     <use xlink:href="#DejaVuSans-62" x="116.992188"/>
     <use xlink:href="#DejaVuSans-65" x="180.46875"/>
     <use xlink:href="#DejaVuSans-6c" x="241.992188"/>
     <use xlink:href="#DejaVuSans-20" x="269.775391"/>
     <use xlink:href="#DejaVuSans-31" x="301.5625"/>
     <use xlink:href="#DejaVuSans-38" x="365.185547"/>
    </g>
   </g>
   <g id="legend_1">
    <g id="patch_7">
     <path d="M 309.070312 101.2725 
L 381.8 101.2725 
Q 383.8 101.2725 383.8 99.2725 
L 383.8 41.56 
Q 383.8 39.56 381.8 39.56 
L 309.070312 39.56 
Q 307.070312 39.56 307.070312 41.56 
L 307.070312 99.2725 
Q 307.070312 101.2725 309.070312 101.2725 
z
" style="fill: #ffffff; opacity: 0.8; stroke: #cccccc; stroke-linejoin: miter"/>
    </g>
    <g id="text_19">
     <!-- Trace number -->
     <g transform="translate(311.070312 51.158437)scale(0.1 -0.1)">
      <defs>
       <path id="DejaVuSans-54" d="M -19 4666 
L 3928 4666 
L 3928 4134 
L 2272 4134 
L 2272 0 
L 1638 0 
L 1638 4134 
L -19 4134 
L -19 4666 
z
" transform="scale(0.015625)"/>
       <path id="DejaVuSans-72" d="M 2631 2963 
Q 2534 3019 2420 3045 
Q 2306 3072 2169 3072 
Q 1681 3072 1420 2755 
Q 1159 2438 1159 1844 
L 1159 0 
L 581 0 
L 581 3500 
L 1159 3500 
L 1159 2956 
Q 1341 3275 1631 3429 
Q 1922 3584 2338 3584 
Q 2397 3584 2469 3576 
Q 2541 3569 2628 3553 
L 2631 2963 
z
" transform="scale(0.015625)"/>
       <path id="DejaVuSans-6d" d="M 3328 2828 
Q 3544 3216 3844 3400 
Q 4144 3584 4550 3584 
Q 5097 3584 5394 3201 
Q 5691 2819 5691 2113 
L 5691 0 
L 5113 0 
L 5113 2094 
Q 5113 2597 4934 2840 
Q 4756 3084 4391 3084 
Q 3944 3084 3684 2787 
Q 3425 2491 3425 1978 
L 3425 0 
L 2847 0 
L 2847 2094 
Q 2847 2600 2669 2842 
Q 2491 3084 2119 3084 
Q 1678 3084 1418 2786 
Q 1159 2488 1159 1978 
L 1159 0 
L 581 0 
L 581 3500 
L 1159 3500 
L 1159 2956 
Q 1356 3278 1631 3431 
Q 1906 3584 2284 3584 
Q 2666 3584 2933 3390 
Q 3200 3197 3328 2828 
z
" transform="scale(0.015625)"/>
      </defs>
      <use xlink:href="#DejaVuSans-54"/>
      <use xlink:href="#DejaVuSans-72" x="46.333984"/>
      <use xlink:href="#DejaVuSans-61" x="87.447266"/>
      <use xlink:href="#DejaVuSans-63" x="148.726562"/>
      <use xlink:href="#DejaVuSans-65" x="203.707031"/>
      <use xlink:href="#DejaVuSans-20" x="265.230469"/>
      <use xlink:href="#DejaVuSans-6e" x="297.017578"/>
      <use xlink:href="#DejaVuSans-75" x="360.396484"/>
      <use xlink:href="#DejaVuSans-6d" x="423.775391"/>
      <use xlink:href="#DejaVuSans-62" x="521.1875"/>
      <use xlink:href="#DejaVuSans-65" x="584.664062"/>
      <use xlink:href="#DejaVuSans-72" x="646.1875"/>
     </g>
    </g>
    <g id="line2d_34">
     <path d="M 325.072656 62.336562 
L 335.072656 62.336562 
L 345.072656 62.336562 
" style="fill: none; stroke: #1f77b4; stroke-width: 1.5; stroke-linecap: square"/>
    </g>
    <g id="text_20">
     <!-- 37 -->
     <g transform="translate(353.072656 65.836562)scale(0.1 -0.1)">
      <defs>
       <path id="DejaVuSans-37" d="M 525 4666 
L 3525 4666 
L 3525 4397 
L 1831 0 
L 1172 0 
L 2766 4134 
L 525 4134 
L 525 4666 
z
" transform="scale(0.015625)"/>
      </defs>
      <use xlink:href="#DejaVuSans-33"/>
      <use xlink:href="#DejaVuSans-37" x="63.623047"/>
     </g>
    </g>
    <g id="line2d_35">
     <path d="M 325.072656 77.014687 
L 335.072656 77.014687 
L 345.072656 77.014687 
" style="fill: none; stroke: #ff7f0e; stroke-width: 1.5; stroke-linecap: square"/>
    </g>
    <g id="text_21">
     <!-- 40 -->
     <g transform="translate(353.072656 80.514687)scale(0.1 -0.1)">
      <use xlink:href="#DejaVuSans-34"/>
      <use xlink:href="#DejaVuSans-30" x="63.623047"/>
     </g>
    </g>
    <g id="line2d_36">
     <path d="M 325.072656 91.692813 
L 335.072656 91.692813 
L 345.072656 91.692813 
" style="fill: none; stroke: #2ca02c; stroke-width: 1.5; stroke-linecap: square"/>
    </g>
    <g id="text_22">
     <!-- 58 -->
     <g transform="translate(353.072656 95.192813)scale(0.1 -0.1)">
      <use xlink:href="#DejaVuSans-35"/>
      <use xlink:href="#DejaVuSans-38" x="63.623047"/>
     </g>
    </g>
   </g>
  </g>
 </g>
 <defs>
  <clipPath id="pb60a47a9e9">
   <rect x="54" y="34.56" width="334.8" height="217.44"/>
  </clipPath>
 </defs>
</svg>
