<?xml version="1.0" encoding="utf-8" standalone="no"?>
<!DOCTYPE svg PUBLIC "-//W3C//DTD SVG 1.1//EN"
  "http://www.w3.org/Graphics/SVG/1.1/DTD/svg11.dtd">
<svg xmlns:xlink="http://www.w3.org/1999/xlink" width="432pt" height="288pt" viewBox="0 0 432 288" xmlns="http://www.w3.org/2000/svg" version="1.1">
 <metadata>
  <rdf:RDF xmlns:dc="http://purl.org/dc/elements/1.1/" xmlns:cc="http://creativecommons.org/ns#" xmlns:rdf="http://www.w3.org/1999/02/22-rdf-syntax-ns#">
   <cc:Work>
    <dc:type rdf:resource="http://purl.org/dc/dcmitype/StillImage"/>
    <dc:date>2022-03-30T13:12:47.113618</dc:date>
    <dc:format>image/svg+xml</dc:format>
    <dc:creator>
     <cc:Agent>
      <dc:title>Matplotlib v3.5.1, https://matplotlib.org/</dc:title>
     </cc:Agent>
    </dc:creator>
   </cc:Work>
  </rdf:RDF>
 </metadata>
 <defs>
  <style type="text/css">*{stroke-linejoin: round; stroke-linecap: butt}</style>
 </defs>
 <g id="figure_1">
  <g id="patch_1">
   <path d="M 0 288 
L 432 288 
L 432 0 
L 0 0 
z
" style="fill: #ffffff"/>
  </g>
  <g id="axes_1">
   <g id="patch_2">
    <path d="M 54 252 
L 388.8 252 
L 388.8 34.56 
L 54 34.56 
z
" style="fill: #ffffff"/>
   </g>
   <g id="matplotlib.axis_1">
    <g id="xtick_1">
     <g id="line2d_1">
      <path d="M 69.218182 252 
L 69.218182 34.56 
" clip-path="url(#p1408397d6c)" style="fill: none; stroke: #b0b0b0; stroke-width: 0.8; stroke-linecap: square"/>
     </g>
     <g id="line2d_2">
      <defs>
       <path id="m721c95bc91" d="M 0 0 
L 0 3.5 
" style="stroke: #000000; stroke-width: 0.8"/>
      </defs>
      <g>
       <use xlink:href="#m721c95bc91" x="69.218182" y="252" style="stroke: #000000; stroke-width: 0.8"/>
      </g>
     </g>
     <g id="text_1">
      <!-- 0 -->
      <g transform="translate(66.036932 266.598437)scale(0.1 -0.1)">
       <defs>
        <path id="DejaVuSans-30" d="M 2034 4250 
Q 1547 4250 1301 3770 
Q 1056 3291 1056 2328 
Q 1056 1369 1301 889 
Q 1547 409 2034 409 
Q 2525 409 2770 889 
Q 3016 1369 3016 2328 
Q 3016 3291 2770 3770 
Q 2525 4250 2034 4250 
z
M 2034 4750 
Q 2819 4750 3233 4129 
Q 3647 3509 3647 2328 
Q 3647 1150 3233 529 
Q 2819 -91 2034 -91 
Q 1250 -91 836 529 
Q 422 1150 422 2328 
Q 422 3509 836 4129 
Q 1250 4750 2034 4750 
z
" transform="scale(0.015625)"/>
       </defs>
       <use xlink:href="#DejaVuSans-30"/>
      </g>
     </g>
    </g>
    <g id="xtick_2">
     <g id="line2d_3">
      <path d="M 128.780537 252 
L 128.780537 34.56 
" clip-path="url(#p1408397d6c)" style="fill: none; stroke: #b0b0b0; stroke-width: 0.8; stroke-linecap: square"/>
     </g>
     <g id="line2d_4">
      <g>
       <use xlink:href="#m721c95bc91" x="128.780537" y="252" style="stroke: #000000; stroke-width: 0.8"/>
      </g>
     </g>
     <g id="text_2">
      <!-- 100 -->
      <g transform="translate(119.236787 266.598437)scale(0.1 -0.1)">
       <defs>
        <path id="DejaVuSans-31" d="M 794 531 
L 1825 531 
L 1825 4091 
L 703 3866 
L 703 4441 
L 1819 4666 
L 2450 4666 
L 2450 531 
L 3481 531 
L 3481 0 
L 794 0 
L 794 531 
z
" transform="scale(0.015625)"/>
       </defs>
       <use xlink:href="#DejaVuSans-31"/>
       <use xlink:href="#DejaVuSans-30" x="63.623047"/>
       <use xlink:href="#DejaVuSans-30" x="127.246094"/>
      </g>
     </g>
    </g>
    <g id="xtick_3">
     <g id="line2d_5">
      <path d="M 188.342893 252 
L 188.342893 34.56 
" clip-path="url(#p1408397d6c)" style="fill: none; stroke: #b0b0b0; stroke-width: 0.8; stroke-linecap: square"/>
     </g>
     <g id="line2d_6">
      <g>
       <use xlink:href="#m721c95bc91" x="188.342893" y="252" style="stroke: #000000; stroke-width: 0.8"/>
      </g>
     </g>
     <g id="text_3">
      <!-- 200 -->
      <g transform="translate(178.799143 266.598437)scale(0.1 -0.1)">
       <defs>
        <path id="DejaVuSans-32" d="M 1228 531 
L 3431 531 
L 3431 0 
L 469 0 
L 469 531 
Q 828 903 1448 1529 
Q 2069 2156 2228 2338 
Q 2531 2678 2651 2914 
Q 2772 3150 2772 3378 
Q 2772 3750 2511 3984 
Q 2250 4219 1831 4219 
Q 1534 4219 1204 4116 
Q 875 4013 500 3803 
L 500 4441 
Q 881 4594 1212 4672 
Q 1544 4750 1819 4750 
Q 2544 4750 2975 4387 
Q 3406 4025 3406 3419 
Q 3406 3131 3298 2873 
Q 3191 2616 2906 2266 
Q 2828 2175 2409 1742 
Q 1991 1309 1228 531 
z
" transform="scale(0.015625)"/>
       </defs>
       <use xlink:href="#DejaVuSans-32"/>
       <use xlink:href="#DejaVuSans-30" x="63.623047"/>
       <use xlink:href="#DejaVuSans-30" x="127.246094"/>
      </g>
     </g>
    </g>
    <g id="xtick_4">
     <g id="line2d_7">
      <path d="M 247.905248 252 
L 247.905248 34.56 
" clip-path="url(#p1408397d6c)" style="fill: none; stroke: #b0b0b0; stroke-width: 0.8; stroke-linecap: square"/>
     </g>
     <g id="line2d_8">
      <g>
       <use xlink:href="#m721c95bc91" x="247.905248" y="252" style="stroke: #000000; stroke-width: 0.8"/>
      </g>
     </g>
     <g id="text_4">
      <!-- 300 -->
      <g transform="translate(238.361498 266.598437)scale(0.1 -0.1)">
       <defs>
        <path id="DejaVuSans-33" d="M 2597 2516 
Q 3050 2419 3304 2112 
Q 3559 1806 3559 1356 
Q 3559 666 3084 287 
Q 2609 -91 1734 -91 
Q 1441 -91 1130 -33 
Q 819 25 488 141 
L 488 750 
Q 750 597 1062 519 
Q 1375 441 1716 441 
Q 2309 441 2620 675 
Q 2931 909 2931 1356 
Q 2931 1769 2642 2001 
Q 2353 2234 1838 2234 
L 1294 2234 
L 1294 2753 
L 1863 2753 
Q 2328 2753 2575 2939 
Q 2822 3125 2822 3475 
Q 2822 3834 2567 4026 
Q 2313 4219 1838 4219 
Q 1578 4219 1281 4162 
Q 984 4106 628 3988 
L 628 4550 
Q 988 4650 1302 4700 
Q 1616 4750 1894 4750 
Q 2613 4750 3031 4423 
Q 3450 4097 3450 3541 
Q 3450 3153 3228 2886 
Q 3006 2619 2597 2516 
z
" transform="scale(0.015625)"/>
       </defs>
       <use xlink:href="#DejaVuSans-33"/>
       <use xlink:href="#DejaVuSans-30" x="63.623047"/>
       <use xlink:href="#DejaVuSans-30" x="127.246094"/>
      </g>
     </g>
    </g>
    <g id="xtick_5">
     <g id="line2d_9">
      <path d="M 307.467604 252 
L 307.467604 34.56 
" clip-path="url(#p1408397d6c)" style="fill: none; stroke: #b0b0b0; stroke-width: 0.8; stroke-linecap: square"/>
     </g>
     <g id="line2d_10">
      <g>
       <use xlink:href="#m721c95bc91" x="307.467604" y="252" style="stroke: #000000; stroke-width: 0.8"/>
      </g>
     </g>
     <g id="text_5">
      <!-- 400 -->
      <g transform="translate(297.923854 266.598437)scale(0.1 -0.1)">
       <defs>
        <path id="DejaVuSans-34" d="M 2419 4116 
L 825 1625 
L 2419 1625 
L 2419 4116 
z
M 2253 4666 
L 3047 4666 
L 3047 1625 
L 3713 1625 
L 3713 1100 
L 3047 1100 
L 3047 0 
L 2419 0 
L 2419 1100 
L 313 1100 
L 313 1709 
L 2253 4666 
z
" transform="scale(0.015625)"/>
       </defs>
       <use xlink:href="#DejaVuSans-34"/>
       <use xlink:href="#DejaVuSans-30" x="63.623047"/>
       <use xlink:href="#DejaVuSans-30" x="127.246094"/>
      </g>
     </g>
    </g>
    <g id="xtick_6">
     <g id="line2d_11">
      <path d="M 367.029959 252 
L 367.029959 34.56 
" clip-path="url(#p1408397d6c)" style="fill: none; stroke: #b0b0b0; stroke-width: 0.8; stroke-linecap: square"/>
     </g>
     <g id="line2d_12">
      <g>
       <use xlink:href="#m721c95bc91" x="367.029959" y="252" style="stroke: #000000; stroke-width: 0.8"/>
      </g>
     </g>
     <g id="text_6">
      <!-- 500 -->
      <g transform="translate(357.486209 266.598437)scale(0.1 -0.1)">
       <defs>
        <path id="DejaVuSans-35" d="M 691 4666 
L 3169 4666 
L 3169 4134 
L 1269 4134 
L 1269 2991 
Q 1406 3038 1543 3061 
Q 1681 3084 1819 3084 
Q 2600 3084 3056 2656 
Q 3513 2228 3513 1497 
Q 3513 744 3044 326 
Q 2575 -91 1722 -91 
Q 1428 -91 1123 -41 
Q 819 9 494 109 
L 494 744 
Q 775 591 1075 516 
Q 1375 441 1709 441 
Q 2250 441 2565 725 
Q 2881 1009 2881 1497 
Q 2881 1984 2565 2268 
Q 2250 2553 1709 2553 
Q 1456 2553 1204 2497 
Q 953 2441 691 2322 
L 691 4666 
z
" transform="scale(0.015625)"/>
       </defs>
       <use xlink:href="#DejaVuSans-35"/>
       <use xlink:href="#DejaVuSans-30" x="63.623047"/>
       <use xlink:href="#DejaVuSans-30" x="127.246094"/>
      </g>
     </g>
    </g>
    <g id="text_7">
     <!-- bin -->
     <g transform="translate(213.667969 280.276563)scale(0.1 -0.1)">
      <defs>
       <path id="DejaVuSans-62" d="M 3116 1747 
Q 3116 2381 2855 2742 
Q 2594 3103 2138 3103 
Q 1681 3103 1420 2742 
Q 1159 2381 1159 1747 
Q 1159 1113 1420 752 
Q 1681 391 2138 391 
Q 2594 391 2855 752 
Q 3116 1113 3116 1747 
z
M 1159 2969 
Q 1341 3281 1617 3432 
Q 1894 3584 2278 3584 
Q 2916 3584 3314 3078 
Q 3713 2572 3713 1747 
Q 3713 922 3314 415 
Q 2916 -91 2278 -91 
Q 1894 -91 1617 61 
Q 1341 213 1159 525 
L 1159 0 
L 581 0 
L 581 4863 
L 1159 4863 
L 1159 2969 
z
" transform="scale(0.015625)"/>
       <path id="DejaVuSans-69" d="M 603 3500 
L 1178 3500 
L 1178 0 
L 603 0 
L 603 3500 
z
M 603 4863 
L 1178 4863 
L 1178 4134 
L 603 4134 
L 603 4863 
z
" transform="scale(0.015625)"/>
       <path id="DejaVuSans-6e" d="M 3513 2113 
L 3513 0 
L 2938 0 
L 2938 2094 
Q 2938 2591 2744 2837 
Q 2550 3084 2163 3084 
Q 1697 3084 1428 2787 
Q 1159 2491 1159 1978 
L 1159 0 
L 581 0 
L 581 3500 
L 1159 3500 
L 1159 2956 
Q 1366 3272 1645 3428 
Q 1925 3584 2291 3584 
Q 2894 3584 3203 3211 
Q 3513 2838 3513 2113 
z
" transform="scale(0.015625)"/>
      </defs>
      <use xlink:href="#DejaVuSans-62"/>
      <use xlink:href="#DejaVuSans-69" x="63.476562"/>
      <use xlink:href="#DejaVuSans-6e" x="91.259766"/>
     </g>
    </g>
   </g>
   <g id="matplotlib.axis_2">
    <g id="ytick_1">
     <g id="line2d_13">
      <path d="M 54 252 
L 388.8 252 
" clip-path="url(#p1408397d6c)" style="fill: none; stroke: #b0b0b0; stroke-width: 0.8; stroke-linecap: square"/>
     </g>
     <g id="line2d_14">
      <defs>
       <path id="m59a7b5866a" d="M 0 0 
L -3.5 0 
" style="stroke: #000000; stroke-width: 0.8"/>
      </defs>
      <g>
       <use xlink:href="#m59a7b5866a" x="54" y="252" style="stroke: #000000; stroke-width: 0.8"/>
      </g>
     </g>
     <g id="text_8">
      <!-- 0 -->
      <g transform="translate(40.6375 255.799219)scale(0.1 -0.1)">
       <use xlink:href="#DejaVuSans-30"/>
      </g>
     </g>
    </g>
    <g id="ytick_2">
     <g id="line2d_15">
      <path d="M 54 226.418824 
L 388.8 226.418824 
" clip-path="url(#p1408397d6c)" style="fill: none; stroke: #b0b0b0; stroke-width: 0.8; stroke-linecap: square"/>
     </g>
     <g id="line2d_16">
      <g>
       <use xlink:href="#m59a7b5866a" x="54" y="226.418824" style="stroke: #000000; stroke-width: 0.8"/>
      </g>
     </g>
     <g id="text_9">
      <!-- 200 -->
      <g transform="translate(27.9125 230.218042)scale(0.1 -0.1)">
       <use xlink:href="#DejaVuSans-32"/>
       <use xlink:href="#DejaVuSans-30" x="63.623047"/>
       <use xlink:href="#DejaVuSans-30" x="127.246094"/>
      </g>
     </g>
    </g>
    <g id="ytick_3">
     <g id="line2d_17">
      <path d="M 54 200.837647 
L 388.8 200.837647 
" clip-path="url(#p1408397d6c)" style="fill: none; stroke: #b0b0b0; stroke-width: 0.8; stroke-linecap: square"/>
     </g>
     <g id="line2d_18">
      <g>
       <use xlink:href="#m59a7b5866a" x="54" y="200.837647" style="stroke: #000000; stroke-width: 0.8"/>
      </g>
     </g>
     <g id="text_10">
      <!-- 400 -->
      <g transform="translate(27.9125 204.636866)scale(0.1 -0.1)">
       <use xlink:href="#DejaVuSans-34"/>
       <use xlink:href="#DejaVuSans-30" x="63.623047"/>
       <use xlink:href="#DejaVuSans-30" x="127.246094"/>
      </g>
     </g>
    </g>
    <g id="ytick_4">
     <g id="line2d_19">
      <path d="M 54 175.256471 
L 388.8 175.256471 
" clip-path="url(#p1408397d6c)" style="fill: none; stroke: #b0b0b0; stroke-width: 0.8; stroke-linecap: square"/>
     </g>
     <g id="line2d_20">
      <g>
       <use xlink:href="#m59a7b5866a" x="54" y="175.256471" style="stroke: #000000; stroke-width: 0.8"/>
      </g>
     </g>
     <g id="text_11">
      <!-- 600 -->
      <g transform="translate(27.9125 179.055689)scale(0.1 -0.1)">
       <defs>
        <path id="DejaVuSans-36" d="M 2113 2584 
Q 1688 2584 1439 2293 
Q 1191 2003 1191 1497 
Q 1191 994 1439 701 
Q 1688 409 2113 409 
Q 2538 409 2786 701 
Q 3034 994 3034 1497 
Q 3034 2003 2786 2293 
Q 2538 2584 2113 2584 
z
M 3366 4563 
L 3366 3988 
Q 3128 4100 2886 4159 
Q 2644 4219 2406 4219 
Q 1781 4219 1451 3797 
Q 1122 3375 1075 2522 
Q 1259 2794 1537 2939 
Q 1816 3084 2150 3084 
Q 2853 3084 3261 2657 
Q 3669 2231 3669 1497 
Q 3669 778 3244 343 
Q 2819 -91 2113 -91 
Q 1303 -91 875 529 
Q 447 1150 447 2328 
Q 447 3434 972 4092 
Q 1497 4750 2381 4750 
Q 2619 4750 2861 4703 
Q 3103 4656 3366 4563 
z
" transform="scale(0.015625)"/>
       </defs>
       <use xlink:href="#DejaVuSans-36"/>
       <use xlink:href="#DejaVuSans-30" x="63.623047"/>
       <use xlink:href="#DejaVuSans-30" x="127.246094"/>
      </g>
     </g>
    </g>
    <g id="ytick_5">
     <g id="line2d_21">
      <path d="M 54 149.675294 
L 388.8 149.675294 
" clip-path="url(#p1408397d6c)" style="fill: none; stroke: #b0b0b0; stroke-width: 0.8; stroke-linecap: square"/>
     </g>
     <g id="line2d_22">
      <g>
       <use xlink:href="#m59a7b5866a" x="54" y="149.675294" style="stroke: #000000; stroke-width: 0.8"/>
      </g>
     </g>
     <g id="text_12">
      <!-- 800 -->
      <g transform="translate(27.9125 153.474513)scale(0.1 -0.1)">
       <defs>
        <path id="DejaVuSans-38" d="M 2034 2216 
Q 1584 2216 1326 1975 
Q 1069 1734 1069 1313 
Q 1069 891 1326 650 
Q 1584 409 2034 409 
Q 2484 409 2743 651 
Q 3003 894 3003 1313 
Q 3003 1734 2745 1975 
Q 2488 2216 2034 2216 
z
M 1403 2484 
Q 997 2584 770 2862 
Q 544 3141 544 3541 
Q 544 4100 942 4425 
Q 1341 4750 2034 4750 
Q 2731 4750 3128 4425 
Q 3525 4100 3525 3541 
Q 3525 3141 3298 2862 
Q 3072 2584 2669 2484 
Q 3125 2378 3379 2068 
Q 3634 1759 3634 1313 
Q 3634 634 3220 271 
Q 2806 -91 2034 -91 
Q 1263 -91 848 271 
Q 434 634 434 1313 
Q 434 1759 690 2068 
Q 947 2378 1403 2484 
z
M 1172 3481 
Q 1172 3119 1398 2916 
Q 1625 2713 2034 2713 
Q 2441 2713 2670 2916 
Q 2900 3119 2900 3481 
Q 2900 3844 2670 4047 
Q 2441 4250 2034 4250 
Q 1625 4250 1398 4047 
Q 1172 3844 1172 3481 
z
" transform="scale(0.015625)"/>
       </defs>
       <use xlink:href="#DejaVuSans-38"/>
       <use xlink:href="#DejaVuSans-30" x="63.623047"/>
       <use xlink:href="#DejaVuSans-30" x="127.246094"/>
      </g>
     </g>
    </g>
    <g id="ytick_6">
     <g id="line2d_23">
      <path d="M 54 124.094118 
L 388.8 124.094118 
" clip-path="url(#p1408397d6c)" style="fill: none; stroke: #b0b0b0; stroke-width: 0.8; stroke-linecap: square"/>
     </g>
     <g id="line2d_24">
      <g>
       <use xlink:href="#m59a7b5866a" x="54" y="124.094118" style="stroke: #000000; stroke-width: 0.8"/>
      </g>
     </g>
     <g id="text_13">
      <!-- 1000 -->
      <g transform="translate(21.55 127.893336)scale(0.1 -0.1)">
       <use xlink:href="#DejaVuSans-31"/>
       <use xlink:href="#DejaVuSans-30" x="63.623047"/>
       <use xlink:href="#DejaVuSans-30" x="127.246094"/>
       <use xlink:href="#DejaVuSans-30" x="190.869141"/>
      </g>
     </g>
    </g>
    <g id="ytick_7">
     <g id="line2d_25">
      <path d="M 54 98.512941 
L 388.8 98.512941 
" clip-path="url(#p1408397d6c)" style="fill: none; stroke: #b0b0b0; stroke-width: 0.8; stroke-linecap: square"/>
     </g>
     <g id="line2d_26">
      <g>
       <use xlink:href="#m59a7b5866a" x="54" y="98.512941" style="stroke: #000000; stroke-width: 0.8"/>
      </g>
     </g>
     <g id="text_14">
      <!-- 1200 -->
      <g transform="translate(21.55 102.31216)scale(0.1 -0.1)">
       <use xlink:href="#DejaVuSans-31"/>
       <use xlink:href="#DejaVuSans-32" x="63.623047"/>
       <use xlink:href="#DejaVuSans-30" x="127.246094"/>
       <use xlink:href="#DejaVuSans-30" x="190.869141"/>
      </g>
     </g>
    </g>
    <g id="ytick_8">
     <g id="line2d_27">
      <path d="M 54 72.931765 
L 388.8 72.931765 
" clip-path="url(#p1408397d6c)" style="fill: none; stroke: #b0b0b0; stroke-width: 0.8; stroke-linecap: square"/>
     </g>
     <g id="line2d_28">
      <g>
       <use xlink:href="#m59a7b5866a" x="54" y="72.931765" style="stroke: #000000; stroke-width: 0.8"/>
      </g>
     </g>
     <g id="text_15">
      <!-- 1400 -->
      <g transform="translate(21.55 76.730983)scale(0.1 -0.1)">
       <use xlink:href="#DejaVuSans-31"/>
       <use xlink:href="#DejaVuSans-34" x="63.623047"/>
       <use xlink:href="#DejaVuSans-30" x="127.246094"/>
       <use xlink:href="#DejaVuSans-30" x="190.869141"/>
      </g>
     </g>
    </g>
    <g id="ytick_9">
     <g id="line2d_29">
      <path d="M 54 47.350588 
L 388.8 47.350588 
" clip-path="url(#p1408397d6c)" style="fill: none; stroke: #b0b0b0; stroke-width: 0.8; stroke-linecap: square"/>
     </g>
     <g id="line2d_30">
      <g>
       <use xlink:href="#m59a7b5866a" x="54" y="47.350588" style="stroke: #000000; stroke-width: 0.8"/>
      </g>
     </g>
     <g id="text_16">
      <!-- 1600 -->
      <g transform="translate(21.55 51.149807)scale(0.1 -0.1)">
       <use xlink:href="#DejaVuSans-31"/>
       <use xlink:href="#DejaVuSans-36" x="63.623047"/>
       <use xlink:href="#DejaVuSans-30" x="127.246094"/>
       <use xlink:href="#DejaVuSans-30" x="190.869141"/>
      </g>
     </g>
    </g>
    <g id="text_17">
     <!-- count -->
     <g transform="translate(15.470312 157.38625)rotate(-90)scale(0.1 -0.1)">
      <defs>
       <path id="DejaVuSans-63" d="M 3122 3366 
L 3122 2828 
Q 2878 2963 2633 3030 
Q 2388 3097 2138 3097 
Q 1578 3097 1268 2742 
Q 959 2388 959 1747 
Q 959 1106 1268 751 
Q 1578 397 2138 397 
Q 2388 397 2633 464 
Q 2878 531 3122 666 
L 3122 134 
Q 2881 22 2623 -34 
Q 2366 -91 2075 -91 
Q 1284 -91 818 406 
Q 353 903 353 1747 
Q 353 2603 823 3093 
Q 1294 3584 2113 3584 
Q 2378 3584 2631 3529 
Q 2884 3475 3122 3366 
z
" transform="scale(0.015625)"/>
       <path id="DejaVuSans-6f" d="M 1959 3097 
Q 1497 3097 1228 2736 
Q 959 2375 959 1747 
Q 959 1119 1226 758 
Q 1494 397 1959 397 
Q 2419 397 2687 759 
Q 2956 1122 2956 1747 
Q 2956 2369 2687 2733 
Q 2419 3097 1959 3097 
z
M 1959 3584 
Q 2709 3584 3137 3096 
Q 3566 2609 3566 1747 
Q 3566 888 3137 398 
Q 2709 -91 1959 -91 
Q 1206 -91 779 398 
Q 353 888 353 1747 
Q 353 2609 779 3096 
Q 1206 3584 1959 3584 
z
" transform="scale(0.015625)"/>
       <path id="DejaVuSans-75" d="M 544 1381 
L 544 3500 
L 1119 3500 
L 1119 1403 
Q 1119 906 1312 657 
Q 1506 409 1894 409 
Q 2359 409 2629 706 
Q 2900 1003 2900 1516 
L 2900 3500 
L 3475 3500 
L 3475 0 
L 2900 0 
L 2900 538 
Q 2691 219 2414 64 
Q 2138 -91 1772 -91 
Q 1169 -91 856 284 
Q 544 659 544 1381 
z
M 1991 3584 
L 1991 3584 
z
" transform="scale(0.015625)"/>
       <path id="DejaVuSans-74" d="M 1172 4494 
L 1172 3500 
L 2356 3500 
L 2356 3053 
L 1172 3053 
L 1172 1153 
Q 1172 725 1289 603 
Q 1406 481 1766 481 
L 2356 481 
L 2356 0 
L 1766 0 
Q 1100 0 847 248 
Q 594 497 594 1153 
L 594 3053 
L 172 3053 
L 172 3500 
L 594 3500 
L 594 4494 
L 1172 4494 
z
" transform="scale(0.015625)"/>
      </defs>
      <use xlink:href="#DejaVuSans-63"/>
      <use xlink:href="#DejaVuSans-6f" x="54.980469"/>
      <use xlink:href="#DejaVuSans-75" x="116.162109"/>
      <use xlink:href="#DejaVuSans-6e" x="179.541016"/>
      <use xlink:href="#DejaVuSans-74" x="242.919922"/>
     </g>
    </g>
   </g>
   <g id="line2d_31">
    <path d="M 69.218182 185.105224 
L 69.813805 185.361035 
L 70.409429 184.465694 
L 71.005052 182.4192 
L 71.600676 186.128471 
L 72.1963 180.372706 
L 72.791923 184.337788 
L 73.387547 189.198212 
L 73.98317 189.454024 
L 74.578794 182.4192 
L 75.174417 185.744753 
L 75.770041 187.663341 
L 76.365664 184.721506 
L 76.961288 188.814494 
L 77.556912 188.9424 
L 78.152535 182.035482 
L 78.748159 185.105224 
L 79.343782 183.314541 
L 79.939406 184.209882 
L 80.535029 187.535435 
L 81.130653 185.233129 
L 81.726276 185.105224 
L 82.3219 188.430776 
L 82.917524 181.907576 
L 83.513147 186.895906 
L 84.108771 185.872659 
L 84.704394 186.384282 
L 85.300018 184.849412 
L 85.895641 186.512188 
L 86.491265 184.5936 
L 87.682512 189.837741 
L 88.278136 186.384282 
L 88.873759 181.779671 
L 89.469383 187.151718 
L 90.065006 181.395953 
L 90.66063 181.651765 
L 91.256253 187.535435 
L 91.851877 185.488941 
L 92.4475 189.326118 
L 93.043124 185.744753 
L 93.638748 188.174965 
L 94.234371 187.535435 
L 94.829995 190.477271 
L 95.425618 183.826165 
L 96.021242 187.535435 
L 96.616865 186.895906 
L 97.212489 191.500518 
L 97.808112 185.872659 
L 98.403736 186.512188 
L 98.99936 188.430776 
L 99.594983 188.558682 
L 100.190607 184.977318 
L 100.78623 187.151718 
L 101.381854 185.105224 
L 101.977477 185.744753 
L 102.573101 190.477271 
L 103.168724 183.826165 
L 103.764348 182.802918 
L 104.359972 182.930824 
L 104.955595 185.488941 
L 105.551219 184.5936 
L 106.146842 184.849412 
L 106.742466 187.663341 
L 107.338089 184.209882 
L 107.933713 187.279624 
L 108.529336 184.209882 
L 109.12496 183.570353 
L 109.720584 183.442447 
L 110.316207 184.465694 
L 110.911831 184.337788 
L 111.507454 179.221553 
L 112.103078 184.721506 
L 112.698701 182.930824 
L 113.294325 187.279624 
L 113.889948 186.640094 
L 114.485572 182.930824 
L 115.081196 184.209882 
L 115.676819 186.895906 
L 116.272443 183.186635 
L 116.868066 185.361035 
L 117.46369 183.442447 
L 118.059313 185.744753 
L 118.654937 182.930824 
L 119.25056 188.558682 
L 119.846184 187.791247 
L 120.441808 188.430776 
L 121.633055 184.5936 
L 122.228678 182.802918 
L 122.824302 187.791247 
L 123.419925 189.965647 
L 124.015549 182.802918 
L 124.611172 184.977318 
L 125.206796 188.9424 
L 126.398043 186.384282 
L 126.993667 187.407529 
L 127.58929 189.454024 
L 128.184914 187.791247 
L 128.780537 187.279624 
L 129.376161 188.686588 
L 129.971784 183.954071 
L 130.567408 186.640094 
L 131.163031 190.605176 
L 131.758655 191.1168 
L 132.949902 185.233129 
L 134.141149 187.535435 
L 134.736773 185.233129 
L 135.332396 181.140141 
L 135.92802 186.000565 
L 136.523643 184.209882 
L 137.119267 190.988894 
L 137.714891 185.872659 
L 138.310514 187.535435 
L 138.906138 184.977318 
L 139.501761 189.709835 
L 140.097385 184.977318 
L 140.693008 181.779671 
L 141.288632 188.430776 
L 141.884255 186.895906 
L 142.479879 184.721506 
L 143.671126 188.047059 
L 144.26675 184.337788 
L 144.862373 185.744753 
L 145.457997 183.058729 
L 146.05362 181.907576 
L 146.649244 182.035482 
L 147.244867 180.756424 
L 147.840491 185.361035 
L 148.436115 187.407529 
L 149.031738 182.4192 
L 149.627362 190.093553 
L 150.222985 185.233129 
L 150.818609 186.128471 
L 151.414232 188.558682 
L 152.009856 184.465694 
L 152.605479 181.395953 
L 153.201103 190.221459 
L 153.796727 180.628518 
L 154.39235 189.581929 
L 154.987974 184.337788 
L 155.583597 192.651671 
L 156.179221 184.209882 
L 156.774844 184.209882 
L 157.370468 188.814494 
L 157.966091 188.686588 
L 158.561715 192.012141 
L 159.157339 183.698259 
L 159.752962 187.407529 
L 160.348586 187.151718 
L 160.944209 182.163388 
L 161.539833 182.163388 
L 162.135456 178.0704 
L 162.73108 185.616847 
L 163.326703 183.442447 
L 163.922327 182.930824 
L 164.517951 182.675012 
L 165.113574 183.186635 
L 165.709198 186.512188 
L 166.304821 182.930824 
L 166.900445 185.105224 
L 167.496068 185.488941 
L 168.091692 185.616847 
L 168.687315 184.465694 
L 169.282939 188.174965 
L 169.878563 188.047059 
L 170.474186 190.349365 
L 171.06981 188.430776 
L 171.665433 182.291294 
L 172.261057 183.570353 
L 172.85668 187.151718 
L 173.452304 184.465694 
L 174.047927 187.791247 
L 174.643551 182.035482 
L 175.239175 184.849412 
L 175.834798 188.302871 
L 176.430422 179.477365 
L 177.026045 185.488941 
L 177.621669 188.430776 
L 178.217292 182.675012 
L 178.812916 184.721506 
L 179.408539 183.314541 
L 180.004163 183.058729 
L 180.599787 187.279624 
L 181.19541 184.337788 
L 181.791034 186.256376 
L 182.386657 186.128471 
L 182.982281 186.256376 
L 183.577904 185.488941 
L 184.173528 191.756329 
L 184.769151 185.233129 
L 185.364775 184.5936 
L 185.960399 186.640094 
L 186.556022 186.768 
L 187.151646 192.395859 
L 187.747269 189.965647 
L 188.342893 184.081976 
L 188.938516 186.256376 
L 189.53414 180.500612 
L 190.129763 184.465694 
L 190.725387 182.291294 
L 191.32101 186.895906 
L 191.916634 189.581929 
L 192.512258 184.209882 
L 193.107881 189.070306 
L 193.703505 191.1168 
L 194.299128 183.442447 
L 194.894752 189.965647 
L 195.490375 182.163388 
L 196.085999 186.128471 
L 196.681622 186.384282 
L 197.87287 187.791247 
L 198.468493 189.965647 
L 199.064117 184.5936 
L 199.65974 178.0704 
L 200.255364 184.5936 
L 200.850987 188.686588 
L 201.446611 186.128471 
L 202.042234 191.884235 
L 202.637858 183.058729 
L 203.233482 189.965647 
L 203.829105 186.000565 
L 204.424729 188.047059 
L 205.020352 188.174965 
L 205.615976 180.372706 
L 206.211599 190.221459 
L 206.807223 183.442447 
L 207.402846 186.384282 
L 207.99847 186.768 
L 208.594094 176.151812 
L 209.189717 181.907576 
L 209.785341 186.128471 
L 210.380964 185.105224 
L 210.976588 181.012235 
L 211.572211 180.116894 
L 212.167835 184.5936 
L 212.763458 190.605176 
L 213.359082 187.151718 
L 213.954706 189.326118 
L 214.550329 187.407529 
L 215.145953 186.512188 
L 215.741576 179.988988 
L 216.3372 190.733082 
L 216.932823 183.826165 
L 217.528447 184.081976 
L 218.12407 187.279624 
L 218.719694 186.895906 
L 219.315318 186.895906 
L 219.910941 182.547106 
L 220.506565 186.128471 
L 221.102188 181.651765 
L 221.697812 188.047059 
L 222.293435 184.721506 
L 222.889059 187.023812 
L 223.484682 191.628424 
L 224.080306 188.047059 
L 224.67593 185.488941 
L 225.271553 190.093553 
L 225.867177 186.895906 
L 226.4628 186.895906 
L 227.058424 184.081976 
L 227.654047 183.698259 
L 228.249671 183.698259 
L 228.845294 188.047059 
L 229.440918 188.814494 
L 230.036542 187.151718 
L 230.632165 184.721506 
L 231.227789 188.9424 
L 231.823412 184.337788 
L 232.419036 183.570353 
L 233.014659 181.523859 
L 233.610283 187.791247 
L 234.205906 179.349459 
L 234.80153 180.500612 
L 235.397154 175.896 
L 235.992777 173.977412 
L 236.588401 162.593788 
L 237.184024 154.279906 
L 237.779648 143.663718 
L 238.375271 125.628988 
L 238.970895 123.838306 
L 239.566518 106.571012 
L 240.162142 109.257035 
L 240.757766 119.617412 
L 241.949013 134.710306 
L 243.14026 161.826353 
L 243.735883 159.779859 
L 244.331507 178.709929 
L 244.92713 182.291294 
L 245.522754 181.012235 
L 246.118378 182.675012 
L 246.714001 186.895906 
L 247.309625 179.349459 
L 247.905248 185.616847 
L 248.500872 185.872659 
L 249.096495 186.512188 
L 250.287742 182.035482 
L 250.883366 183.826165 
L 251.47899 185.105224 
L 252.074613 191.1168 
L 252.670237 184.5936 
L 253.26586 184.849412 
L 253.861484 183.570353 
L 254.457107 184.465694 
L 255.052731 184.081976 
L 255.648354 189.837741 
L 256.243978 186.640094 
L 256.839601 186.128471 
L 257.435225 185.105224 
L 258.030849 185.872659 
L 258.626472 183.186635 
L 259.222096 182.930824 
L 259.817719 189.454024 
L 260.413343 188.686588 
L 261.008966 187.279624 
L 261.60459 186.640094 
L 262.200213 184.977318 
L 262.795837 187.663341 
L 263.391461 179.988988 
L 263.987084 181.907576 
L 264.582708 186.256376 
L 265.178331 182.930824 
L 265.773955 186.128471 
L 266.369578 186.768 
L 266.965202 188.558682 
L 267.560825 185.233129 
L 268.156449 185.233129 
L 268.752073 181.268047 
L 269.347696 183.698259 
L 269.94332 185.233129 
L 270.538943 175.640188 
L 271.134567 174.489035 
L 271.73019 155.942682 
L 272.325814 155.558965 
L 273.517061 127.547576 
L 274.112685 110.664 
L 275.303932 92.501365 
L 275.899555 88.536282 
L 276.495179 85.722353 
L 277.090802 102.861741 
L 277.686426 116.036047 
L 278.282049 124.605741 
L 279.473297 154.024094 
L 280.06892 159.140329 
L 280.664544 169.756518 
L 281.260167 175.000659 
L 281.855791 181.779671 
L 282.451414 176.791341 
L 283.047038 178.965741 
L 283.642661 174.105318 
L 284.238285 171.5472 
L 284.833909 159.779859 
L 285.429532 162.210071 
L 286.025156 154.024094 
L 286.620779 139.826541 
L 287.216403 120.384847 
L 287.812026 112.582588 
L 288.40765 92.373459 
L 289.003273 108.4896 
L 289.598897 109.768659 
L 290.790144 126.524329 
L 291.385768 129.466165 
L 291.981391 129.721976 
L 292.577015 144.175341 
L 293.172638 142.000941 
L 293.768262 156.198494 
L 294.363885 155.558965 
L 294.959509 163.105412 
L 295.555133 168.093741 
L 296.150756 171.675106 
L 296.74638 179.733176 
L 297.342003 180.500612 
L 297.937627 178.454118 
L 298.53325 183.826165 
L 299.128874 185.872659 
L 299.724497 188.814494 
L 300.320121 187.407529 
L 300.915745 182.4192 
L 301.511368 181.523859 
L 302.106992 184.849412 
L 302.702615 182.930824 
L 303.298239 181.395953 
L 303.893862 185.872659 
L 304.489486 180.116894 
L 305.085109 186.512188 
L 305.680733 182.930824 
L 306.276357 183.058729 
L 306.87198 183.058729 
L 307.467604 183.314541 
L 308.063227 188.302871 
L 308.658851 187.407529 
L 309.254474 182.035482 
L 309.850098 186.768 
L 310.445721 184.337788 
L 311.041345 184.977318 
L 311.636969 184.5936 
L 312.232592 190.221459 
L 312.828216 183.442447 
L 313.423839 187.151718 
L 314.019463 189.198212 
L 314.615086 182.291294 
L 315.21071 185.488941 
L 315.806333 187.535435 
L 316.401957 180.2448 
L 316.997581 190.605176 
L 317.593204 182.4192 
L 318.188828 188.302871 
L 318.784451 178.582024 
L 319.380075 188.302871 
L 319.975698 184.5936 
L 320.571322 188.686588 
L 321.166945 184.849412 
L 321.762569 186.256376 
L 322.358192 188.686588 
L 322.953816 187.023812 
L 323.54944 188.174965 
L 324.145063 181.395953 
L 324.740687 189.070306 
L 325.33631 190.860988 
L 325.931934 186.128471 
L 326.527557 183.186635 
L 327.123181 184.081976 
L 327.718804 184.337788 
L 328.314428 185.744753 
L 328.910052 187.791247 
L 329.505675 184.5936 
L 330.101299 190.349365 
L 330.696922 183.186635 
L 331.292546 189.326118 
L 331.888169 184.209882 
L 332.483793 189.965647 
L 333.079416 186.256376 
L 333.67504 184.721506 
L 334.270664 186.512188 
L 334.866287 184.337788 
L 335.461911 183.954071 
L 336.057534 191.1168 
L 336.653158 187.023812 
L 337.248781 186.640094 
L 337.844405 183.826165 
L 338.440028 190.477271 
L 339.035652 186.128471 
L 339.631276 190.093553 
L 340.226899 185.361035 
L 340.822523 182.163388 
L 341.418146 183.698259 
L 342.01377 184.721506 
L 342.609393 183.698259 
L 343.205017 191.628424 
L 343.80064 185.744753 
L 344.991888 186.000565 
L 345.587511 182.4192 
L 346.183135 186.384282 
L 346.778758 184.721506 
L 347.374382 186.128471 
L 347.970005 186.384282 
L 348.565629 185.872659 
L 349.161252 184.337788 
L 349.756876 187.663341 
L 350.3525 186.768 
L 351.543747 183.058729 
L 352.13937 185.488941 
L 352.734994 183.186635 
L 353.926241 190.221459 
L 354.521864 191.244706 
L 355.117488 188.174965 
L 355.713112 184.209882 
L 356.308735 189.198212 
L 356.904359 179.605271 
L 357.499982 192.395859 
L 358.095606 185.616847 
L 358.691229 184.337788 
L 359.286853 188.9424 
L 359.882476 187.279624 
L 360.4781 181.140141 
L 361.073724 188.9424 
L 361.669347 186.512188 
L 362.264971 184.849412 
L 362.860594 193.2912 
L 363.456218 184.849412 
L 364.051841 184.721506 
L 364.647465 187.279624 
L 365.243088 185.616847 
L 365.838712 186.000565 
L 366.434336 189.326118 
L 367.029959 185.744753 
L 367.625583 186.512188 
L 368.221206 182.035482 
L 368.81683 181.907576 
L 369.412453 191.244706 
L 370.008077 189.198212 
L 370.6037 184.721506 
L 371.199324 186.256376 
L 371.794948 181.779671 
L 372.390571 182.547106 
L 372.986195 188.686588 
L 373.581818 189.709835 
L 373.581818 189.709835 
" clip-path="url(#p1408397d6c)" style="fill: none; stroke: #1f77b4; stroke-width: 1.5; stroke-linecap: square"/>
   </g>
   <g id="line2d_32">
    <path d="M 69.218182 187.279624 
L 69.813805 192.267953 
L 70.409429 189.454024 
L 71.005052 189.965647 
L 71.600676 193.802824 
L 72.1963 190.093553 
L 72.791923 196.233035 
L 73.387547 188.430776 
L 73.98317 188.430776 
L 74.578794 192.779576 
L 75.770041 186.128471 
L 76.365664 190.733082 
L 76.961288 191.756329 
L 77.556912 190.733082 
L 78.152535 191.244706 
L 78.748159 192.267953 
L 79.343782 189.581929 
L 79.939406 193.419106 
L 80.535029 192.779576 
L 81.130653 184.849412 
L 82.3219 190.860988 
L 82.917524 194.953976 
L 83.513147 185.361035 
L 84.108771 186.640094 
L 84.704394 189.837741 
L 85.300018 187.279624 
L 85.895641 189.198212 
L 86.491265 192.012141 
L 87.086888 188.9424 
L 87.682512 190.477271 
L 88.278136 183.186635 
L 88.873759 192.523765 
L 89.469383 196.872565 
L 90.065006 190.860988 
L 90.66063 188.814494 
L 91.256253 189.965647 
L 91.851877 188.558682 
L 92.4475 186.384282 
L 93.043124 197.128376 
L 93.638748 189.070306 
L 94.234371 195.337694 
L 94.829995 188.558682 
L 95.425618 191.244706 
L 96.021242 190.093553 
L 96.616865 192.651671 
L 97.212489 190.860988 
L 97.808112 190.093553 
L 98.403736 186.384282 
L 98.99936 184.721506 
L 99.594983 188.302871 
L 100.190607 189.837741 
L 100.78623 189.837741 
L 101.381854 186.000565 
L 101.977477 189.070306 
L 102.573101 189.326118 
L 103.168724 186.384282 
L 103.764348 190.477271 
L 104.359972 191.628424 
L 104.955595 188.174965 
L 105.551219 185.616847 
L 106.146842 195.977224 
L 106.742466 188.686588 
L 107.338089 192.523765 
L 107.933713 189.454024 
L 108.529336 189.965647 
L 109.12496 190.733082 
L 109.720584 187.407529 
L 110.316207 189.709835 
L 110.911831 187.919153 
L 111.507454 190.477271 
L 112.103078 190.349365 
L 113.294325 186.128471 
L 113.889948 193.035388 
L 114.485572 194.442353 
L 115.081196 192.395859 
L 115.676819 188.558682 
L 116.272443 187.279624 
L 116.868066 188.047059 
L 117.46369 193.674918 
L 118.059313 192.140047 
L 118.654937 195.721412 
L 119.25056 186.384282 
L 119.846184 191.1168 
L 120.441808 183.186635 
L 121.037431 194.698165 
L 121.633055 185.616847 
L 122.228678 187.151718 
L 122.824302 189.198212 
L 123.419925 186.384282 
L 124.015549 191.372612 
L 124.611172 189.454024 
L 125.206796 190.349365 
L 125.802419 187.151718 
L 126.398043 189.837741 
L 126.993667 190.221459 
L 127.58929 186.000565 
L 128.184914 190.988894 
L 128.780537 193.930729 
L 129.376161 193.547012 
L 129.971784 186.000565 
L 130.567408 193.547012 
L 131.163031 191.756329 
L 131.758655 194.698165 
L 132.354279 189.454024 
L 132.949902 191.372612 
L 133.545526 189.070306 
L 134.141149 188.174965 
L 134.736773 194.698165 
L 135.332396 191.372612 
L 135.92802 189.965647 
L 136.523643 189.070306 
L 137.119267 190.860988 
L 137.714891 188.558682 
L 138.310514 191.244706 
L 138.906138 192.651671 
L 139.501761 188.814494 
L 140.097385 188.814494 
L 140.693008 184.209882 
L 141.288632 191.500518 
L 141.884255 190.477271 
L 142.479879 191.756329 
L 143.075503 190.093553 
L 143.671126 185.616847 
L 144.862373 188.814494 
L 145.457997 193.419106 
L 146.05362 189.070306 
L 146.649244 188.9424 
L 147.244867 187.023812 
L 147.840491 188.302871 
L 148.436115 190.349365 
L 149.031738 190.988894 
L 149.627362 191.884235 
L 150.222985 195.209788 
L 150.818609 188.047059 
L 151.414232 188.174965 
L 152.009856 188.174965 
L 153.201103 194.570259 
L 153.796727 190.733082 
L 154.987974 188.430776 
L 155.583597 190.733082 
L 156.179221 191.244706 
L 156.774844 193.930729 
L 157.370468 189.581929 
L 157.966091 193.035388 
L 158.561715 183.954071 
L 159.752962 191.884235 
L 160.348586 189.454024 
L 160.944209 190.477271 
L 161.539833 190.860988 
L 162.135456 188.047059 
L 162.73108 194.953976 
L 163.326703 187.535435 
L 163.922327 187.919153 
L 164.517951 189.198212 
L 165.113574 190.093553 
L 165.709198 188.558682 
L 166.304821 190.605176 
L 166.900445 187.151718 
L 167.496068 193.035388 
L 168.091692 186.000565 
L 168.687315 187.919153 
L 169.282939 190.477271 
L 169.878563 192.012141 
L 170.474186 194.953976 
L 171.665433 182.675012 
L 172.261057 191.244706 
L 172.85668 190.093553 
L 173.452304 192.267953 
L 174.047927 192.012141 
L 174.643551 186.384282 
L 175.239175 197.512094 
L 175.834798 187.151718 
L 176.430422 195.4656 
L 177.026045 194.953976 
L 177.621669 190.605176 
L 178.217292 188.558682 
L 178.812916 185.105224 
L 179.408539 187.407529 
L 180.004163 193.035388 
L 180.599787 188.430776 
L 181.19541 191.756329 
L 181.791034 189.326118 
L 182.386657 186.000565 
L 182.982281 199.046965 
L 183.577904 189.454024 
L 184.173528 188.047059 
L 184.769151 187.919153 
L 185.364775 189.326118 
L 185.960399 189.070306 
L 186.556022 189.454024 
L 187.151646 188.9424 
L 187.747269 184.977318 
L 188.342893 189.070306 
L 188.938516 186.640094 
L 189.53414 192.651671 
L 190.129763 187.791247 
L 190.725387 188.558682 
L 191.32101 190.605176 
L 191.916634 191.756329 
L 192.512258 195.721412 
L 193.107881 188.302871 
L 193.703505 190.988894 
L 194.299128 182.547106 
L 194.894752 177.430871 
L 196.085999 161.826353 
L 197.87287 116.547671 
L 198.468493 112.966306 
L 199.064117 101.198965 
L 200.255364 127.803388 
L 203.233482 180.628518 
L 203.829105 182.802918 
L 204.424729 183.570353 
L 205.020352 187.407529 
L 205.615976 192.267953 
L 206.211599 193.035388 
L 206.807223 185.488941 
L 207.402846 191.1168 
L 207.99847 185.744753 
L 208.594094 193.163294 
L 209.189717 191.372612 
L 209.785341 186.512188 
L 210.976588 191.628424 
L 212.167835 192.267953 
L 212.763458 196.105129 
L 213.359082 188.302871 
L 213.954706 188.686588 
L 214.550329 188.302871 
L 215.145953 191.1168 
L 215.741576 189.198212 
L 216.3372 189.581929 
L 216.932823 189.198212 
L 217.528447 184.337788 
L 218.12407 191.372612 
L 218.719694 192.907482 
L 219.315318 187.407529 
L 219.910941 190.477271 
L 220.506565 190.988894 
L 221.102188 187.791247 
L 221.697812 189.454024 
L 222.293435 196.233035 
L 222.889059 187.535435 
L 223.484682 188.047059 
L 224.080306 186.895906 
L 224.67593 190.221459 
L 225.271553 188.430776 
L 225.867177 189.326118 
L 226.4628 188.814494 
L 227.058424 187.151718 
L 227.654047 188.686588 
L 228.249671 188.686588 
L 228.845294 189.837741 
L 229.440918 177.686682 
L 230.036542 182.4192 
L 230.632165 165.663529 
L 231.227789 154.663624 
L 231.823412 147.245082 
L 232.419036 122.047624 
L 233.014659 112.070965 
L 234.205906 86.361882 
L 234.80153 85.082824 
L 235.397154 88.536282 
L 235.992777 96.210635 
L 236.588401 109.512847 
L 238.375271 159.396141 
L 238.970895 166.047247 
L 239.566518 175.768094 
L 240.162142 180.500612 
L 240.757766 179.733176 
L 241.353389 173.337882 
L 241.949013 181.523859 
L 242.544636 176.663435 
L 243.14026 176.663435 
L 243.735883 167.326306 
L 244.331507 155.558965 
L 244.92713 149.675294 
L 245.522754 139.570729 
L 246.118378 117.570918 
L 246.714001 110.536094 
L 247.309625 94.675765 
L 247.905248 93.780424 
L 248.500872 113.094212 
L 249.096495 112.710494 
L 249.692119 125.501082 
L 250.287742 126.780141 
L 250.883366 144.175341 
L 251.47899 145.326494 
L 252.074613 140.466071 
L 252.670237 153.768282 
L 253.861484 165.919341 
L 254.457107 170.396047 
L 255.648354 184.209882 
L 256.243978 182.675012 
L 256.839601 188.814494 
L 257.435225 187.151718 
L 258.030849 187.407529 
L 258.626472 185.361035 
L 259.222096 190.477271 
L 259.817719 189.581929 
L 260.413343 184.849412 
L 261.008966 187.791247 
L 261.60459 188.9424 
L 262.200213 184.721506 
L 262.795837 185.361035 
L 263.391461 192.012141 
L 263.987084 186.128471 
L 264.582708 184.337788 
L 265.178331 189.454024 
L 265.773955 186.256376 
L 266.369578 190.988894 
L 266.965202 191.756329 
L 267.560825 194.953976 
L 268.156449 185.616847 
L 268.752073 190.477271 
L 269.347696 191.244706 
L 269.94332 189.709835 
L 270.538943 193.802824 
L 271.134567 196.616753 
L 271.73019 185.744753 
L 272.325814 187.663341 
L 272.921437 193.2912 
L 273.517061 193.163294 
L 274.112685 194.698165 
L 274.708308 193.419106 
L 275.303932 196.233035 
L 275.899555 190.477271 
L 276.495179 189.198212 
L 277.090802 195.337694 
L 277.686426 187.791247 
L 278.282049 192.267953 
L 278.877673 188.174965 
L 279.473297 190.477271 
L 280.06892 188.430776 
L 280.664544 192.012141 
L 281.260167 187.151718 
L 281.855791 188.686588 
L 282.451414 189.454024 
L 283.047038 186.512188 
L 283.642661 189.837741 
L 284.238285 194.442353 
L 284.833909 190.093553 
L 285.429532 190.733082 
L 286.025156 193.163294 
L 286.620779 188.302871 
L 287.216403 194.314447 
L 287.812026 189.070306 
L 288.40765 192.140047 
L 289.003273 192.140047 
L 289.598897 189.326118 
L 290.194521 191.756329 
L 290.790144 189.837741 
L 291.385768 192.012141 
L 291.981391 190.988894 
L 293.172638 186.512188 
L 293.768262 189.198212 
L 294.363885 186.128471 
L 294.959509 184.721506 
L 295.555133 186.895906 
L 296.150756 193.547012 
L 296.74638 192.395859 
L 297.342003 189.326118 
L 297.937627 192.523765 
L 298.53325 190.477271 
L 299.128874 189.965647 
L 299.724497 192.779576 
L 300.320121 187.663341 
L 300.915745 188.302871 
L 301.511368 192.267953 
L 302.106992 188.174965 
L 302.702615 193.035388 
L 303.298239 186.640094 
L 303.893862 191.1168 
L 305.085109 189.965647 
L 305.680733 190.605176 
L 306.276357 193.2912 
L 306.87198 184.081976 
L 307.467604 192.395859 
L 308.063227 187.791247 
L 308.658851 187.023812 
L 309.254474 195.593506 
L 309.850098 188.814494 
L 310.445721 193.035388 
L 311.041345 193.419106 
L 311.636969 184.849412 
L 312.232592 193.930729 
L 312.828216 187.151718 
L 313.423839 192.012141 
L 314.019463 187.791247 
L 314.615086 184.849412 
L 315.21071 192.651671 
L 315.806333 186.512188 
L 316.401957 187.279624 
L 316.997581 193.674918 
L 317.593204 192.140047 
L 318.188828 187.663341 
L 318.784451 190.605176 
L 319.380075 188.047059 
L 319.975698 194.953976 
L 320.571322 192.395859 
L 321.166945 183.314541 
L 321.762569 190.093553 
L 322.358192 190.349365 
L 322.953816 192.012141 
L 323.54944 188.9424 
L 324.145063 194.570259 
L 324.740687 196.488847 
L 325.33631 192.140047 
L 325.931934 194.314447 
L 326.527557 190.349365 
L 327.123181 190.093553 
L 327.718804 191.244706 
L 328.314428 185.744753 
L 329.505675 190.093553 
L 330.101299 187.151718 
L 330.696922 194.314447 
L 331.292546 189.837741 
L 331.888169 191.756329 
L 332.483793 195.081882 
L 333.079416 194.442353 
L 333.67504 187.151718 
L 334.270664 190.093553 
L 334.866287 186.640094 
L 335.461911 192.907482 
L 336.057534 189.454024 
L 336.653158 191.1168 
L 337.248781 189.198212 
L 337.844405 186.256376 
L 338.440028 186.256376 
L 339.035652 189.581929 
L 339.631276 193.547012 
L 340.226899 191.884235 
L 340.822523 186.512188 
L 341.418146 193.802824 
L 342.01377 187.407529 
L 342.609393 190.988894 
L 343.205017 188.430776 
L 343.80064 188.686588 
L 344.396264 188.174965 
L 344.991888 190.860988 
L 345.587511 187.151718 
L 346.183135 190.605176 
L 346.778758 189.965647 
L 347.374382 188.814494 
L 347.970005 190.733082 
L 348.565629 191.372612 
L 349.161252 190.733082 
L 349.756876 192.012141 
L 350.3525 191.372612 
L 350.948123 192.012141 
L 351.543747 185.744753 
L 352.13937 192.779576 
L 352.734994 187.919153 
L 353.330617 189.581929 
L 353.926241 192.907482 
L 354.521864 190.349365 
L 355.117488 188.814494 
L 355.713112 191.1168 
L 356.308735 189.837741 
L 356.904359 193.802824 
L 357.499982 198.535341 
L 358.095606 188.430776 
L 358.691229 197.256282 
L 359.286853 188.302871 
L 359.882476 191.1168 
L 360.4781 190.860988 
L 361.073724 198.279529 
L 361.669347 189.326118 
L 362.264971 184.081976 
L 362.860594 192.651671 
L 363.456218 191.628424 
L 364.051841 191.244706 
L 364.647465 192.779576 
L 365.243088 187.663341 
L 365.838712 185.233129 
L 366.434336 190.988894 
L 367.029959 188.686588 
L 367.625583 193.2912 
L 368.221206 187.663341 
L 368.81683 186.128471 
L 369.412453 189.581929 
L 370.008077 186.128471 
L 370.6037 194.826071 
L 371.199324 191.756329 
L 371.794948 182.291294 
L 372.390571 191.372612 
L 372.986195 188.302871 
L 373.581818 188.686588 
L 373.581818 188.686588 
" clip-path="url(#p1408397d6c)" style="fill: none; stroke: #ff7f0e; stroke-width: 1.5; stroke-linecap: square"/>
   </g>
   <g id="line2d_33">
    <path d="M 69.218182 194.058635 
L 69.813805 193.547012 
L 70.409429 200.837647 
L 71.005052 195.4656 
L 71.600676 193.674918 
L 72.1963 194.442353 
L 72.791923 194.058635 
L 73.387547 194.570259 
L 73.98317 192.651671 
L 74.578794 195.849318 
L 75.174417 193.419106 
L 75.770041 196.616753 
L 76.961288 197.767906 
L 77.556912 196.360941 
L 78.152535 195.4656 
L 78.748159 195.209788 
L 79.343782 194.826071 
L 79.939406 195.4656 
L 81.130653 192.140047 
L 81.726276 194.186541 
L 82.3219 194.314447 
L 82.917524 193.419106 
L 83.513147 195.337694 
L 84.108771 191.756329 
L 84.704394 197.000471 
L 85.300018 190.860988 
L 85.895641 193.930729 
L 86.491265 194.570259 
L 87.086888 192.779576 
L 87.682512 195.977224 
L 88.278136 192.395859 
L 88.873759 196.233035 
L 89.469383 193.163294 
L 90.065006 192.523765 
L 90.66063 188.430776 
L 91.256253 195.337694 
L 91.851877 195.4656 
L 92.4475 196.616753 
L 93.043124 190.093553 
L 93.638748 194.186541 
L 94.234371 190.860988 
L 94.829995 193.674918 
L 95.425618 192.140047 
L 96.021242 193.930729 
L 96.616865 197.895812 
L 97.212489 196.360941 
L 97.808112 195.977224 
L 98.403736 195.849318 
L 98.99936 193.163294 
L 99.594983 195.209788 
L 100.190607 194.314447 
L 100.78623 192.267953 
L 101.381854 192.651671 
L 101.977477 195.081882 
L 102.573101 190.477271 
L 103.168724 193.2912 
L 103.764348 197.64 
L 104.359972 187.535435 
L 104.955595 197.000471 
L 105.551219 194.570259 
L 106.146842 193.802824 
L 106.742466 195.849318 
L 107.338089 193.547012 
L 107.933713 192.907482 
L 108.529336 193.163294 
L 109.12496 195.593506 
L 109.720584 194.314447 
L 110.316207 188.686588 
L 110.911831 193.163294 
L 111.507454 193.674918 
L 112.103078 190.349365 
L 112.698701 192.140047 
L 113.294325 193.035388 
L 113.889948 194.826071 
L 114.485572 190.605176 
L 115.081196 200.326024 
L 115.676819 195.4656 
L 116.272443 188.686588 
L 116.868066 195.593506 
L 117.46369 196.616753 
L 118.059313 194.186541 
L 118.654937 190.349365 
L 119.25056 195.337694 
L 119.846184 193.163294 
L 120.441808 195.593506 
L 121.037431 197.512094 
L 121.633055 192.651671 
L 122.228678 196.233035 
L 122.824302 192.907482 
L 123.419925 193.930729 
L 124.015549 198.023718 
L 124.611172 192.779576 
L 125.206796 190.477271 
L 125.802419 193.419106 
L 126.398043 192.267953 
L 126.993667 192.907482 
L 127.58929 194.186541 
L 128.184914 197.512094 
L 129.376161 192.651671 
L 129.971784 192.012141 
L 130.567408 195.337694 
L 131.163031 192.907482 
L 131.758655 189.709835 
L 132.354279 193.2912 
L 132.949902 193.035388 
L 133.545526 190.605176 
L 134.141149 190.860988 
L 134.736773 192.651671 
L 135.332396 189.198212 
L 136.523643 194.570259 
L 137.119267 194.442353 
L 137.714891 192.907482 
L 138.310514 194.698165 
L 138.906138 191.372612 
L 139.501761 188.686588 
L 140.693008 195.849318 
L 141.288632 191.500518 
L 141.884255 195.721412 
L 142.479879 190.477271 
L 143.075503 193.2912 
L 143.671126 193.2912 
L 144.26675 190.733082 
L 144.862373 191.244706 
L 145.457997 193.163294 
L 146.05362 192.907482 
L 147.244867 193.163294 
L 147.840491 193.035388 
L 148.436115 194.058635 
L 149.031738 194.826071 
L 149.627362 192.267953 
L 150.222985 194.442353 
L 150.818609 193.547012 
L 151.414232 190.221459 
L 152.009856 195.849318 
L 152.605479 195.721412 
L 153.201103 197.895812 
L 153.796727 189.965647 
L 154.39235 193.547012 
L 154.987974 196.233035 
L 155.583597 195.977224 
L 156.179221 190.605176 
L 156.774844 196.744659 
L 157.370468 193.930729 
L 157.966091 193.802824 
L 158.561715 191.372612 
L 159.157339 193.2912 
L 159.752962 189.837741 
L 160.348586 190.221459 
L 160.944209 193.419106 
L 161.539833 197.256282 
L 162.135456 194.570259 
L 162.73108 192.779576 
L 163.326703 197.512094 
L 163.922327 192.651671 
L 164.517951 192.523765 
L 165.113574 193.802824 
L 165.709198 195.4656 
L 166.304821 193.035388 
L 166.900445 193.674918 
L 167.496068 198.535341 
L 168.091692 192.140047 
L 168.687315 192.395859 
L 169.282939 197.128376 
L 169.878563 199.174871 
L 170.474186 193.674918 
L 171.06981 190.605176 
L 171.665433 193.930729 
L 172.261057 192.907482 
L 172.85668 192.907482 
L 173.452304 189.581929 
L 174.047927 193.163294 
L 174.643551 192.779576 
L 175.239175 193.802824 
L 175.834798 190.860988 
L 176.430422 186.895906 
L 177.026045 187.407529 
L 177.621669 178.965741 
L 178.217292 172.698353 
L 178.812916 163.361224 
L 179.408539 156.3264 
L 180.004163 158.117082 
L 180.599787 156.965929 
L 181.19541 161.698447 
L 181.791034 158.628706 
L 182.386657 162.082165 
L 182.982281 176.151812 
L 183.577904 177.942494 
L 184.173528 184.721506 
L 184.769151 189.837741 
L 185.364775 189.965647 
L 185.960399 192.012141 
L 186.556022 188.814494 
L 187.151646 194.442353 
L 187.747269 197.895812 
L 188.342893 193.163294 
L 188.938516 194.570259 
L 189.53414 189.070306 
L 190.129763 193.419106 
L 190.725387 190.988894 
L 191.32101 196.105129 
L 191.916634 193.163294 
L 192.512258 195.849318 
L 193.107881 193.163294 
L 193.703505 198.791153 
L 194.299128 194.442353 
L 194.894752 192.779576 
L 195.490375 191.500518 
L 196.085999 195.849318 
L 196.681622 194.314447 
L 197.277246 191.1168 
L 197.87287 196.744659 
L 198.468493 195.337694 
L 199.064117 195.209788 
L 199.65974 194.570259 
L 200.255364 193.674918 
L 200.850987 200.070212 
L 201.446611 199.686494 
L 202.042234 193.930729 
L 202.637858 190.988894 
L 203.233482 195.593506 
L 204.424729 192.907482 
L 205.615976 195.849318 
L 206.211599 191.500518 
L 206.807223 190.988894 
L 207.402846 198.151624 
L 207.99847 194.826071 
L 208.594094 197.256282 
L 209.189717 190.988894 
L 209.785341 194.058635 
L 210.380964 192.651671 
L 210.976588 192.907482 
L 211.572211 185.872659 
L 212.167835 180.756424 
L 212.763458 177.558776 
L 213.359082 164.896094 
L 213.954706 163.872847 
L 215.145953 146.733459 
L 215.741576 143.919529 
L 216.3372 140.210259 
L 216.932823 144.303247 
L 217.528447 144.686965 
L 218.12407 156.3264 
L 218.719694 159.524047 
L 219.315318 159.779859 
L 219.910941 173.977412 
L 220.506565 180.2448 
L 221.102188 181.268047 
L 221.697812 188.686588 
L 222.293435 187.407529 
L 222.889059 188.430776 
L 223.484682 188.047059 
L 224.080306 184.5936 
L 224.67593 184.465694 
L 225.271553 185.488941 
L 225.867177 175.768094 
L 226.4628 169.756518 
L 227.058424 162.593788 
L 227.654047 161.698447 
L 228.249671 151.721788 
L 228.845294 149.675294 
L 229.440918 144.814871 
L 230.036542 150.954353 
L 230.632165 154.919435 
L 231.227789 160.163576 
L 231.823412 159.140329 
L 233.014659 171.419294 
L 233.610283 173.7216 
L 234.205906 179.221553 
L 234.80153 179.988988 
L 235.397154 179.349459 
L 235.992777 182.930824 
L 236.588401 191.756329 
L 237.184024 187.791247 
L 237.779648 191.372612 
L 238.375271 193.419106 
L 238.970895 188.9424 
L 239.566518 192.907482 
L 240.162142 194.442353 
L 240.757766 195.593506 
L 241.353389 198.279529 
L 241.949013 195.4656 
L 242.544636 188.814494 
L 243.14026 193.547012 
L 243.735883 195.337694 
L 244.331507 195.209788 
L 244.92713 193.163294 
L 245.522754 192.140047 
L 246.118378 191.628424 
L 247.309625 189.326118 
L 247.905248 199.174871 
L 248.500872 193.2912 
L 249.096495 193.802824 
L 249.692119 191.500518 
L 250.287742 191.1168 
L 251.47899 198.535341 
L 252.074613 194.314447 
L 252.670237 194.698165 
L 253.26586 196.616753 
L 253.861484 197.256282 
L 254.457107 190.477271 
L 255.052731 197.64 
L 255.648354 194.314447 
L 256.243978 195.593506 
L 256.839601 192.395859 
L 257.435225 190.221459 
L 258.030849 189.965647 
L 258.626472 190.477271 
L 259.222096 193.802824 
L 259.817719 191.500518 
L 260.413343 190.221459 
L 261.008966 193.674918 
L 261.60459 195.721412 
L 262.200213 194.186541 
L 262.795837 196.872565 
L 263.391461 192.779576 
L 263.987084 195.721412 
L 264.582708 197.384188 
L 265.178331 193.035388 
L 265.773955 194.570259 
L 266.369578 195.337694 
L 266.965202 189.965647 
L 267.560825 193.163294 
L 268.156449 193.163294 
L 268.752073 195.593506 
L 269.347696 193.163294 
L 269.94332 194.698165 
L 271.134567 193.930729 
L 271.73019 192.523765 
L 272.325814 194.186541 
L 272.921437 191.1168 
L 273.517061 187.279624 
L 274.112685 193.419106 
L 274.708308 196.233035 
L 275.303932 197.384188 
L 275.899555 193.674918 
L 276.495179 192.523765 
L 277.090802 194.442353 
L 277.686426 195.081882 
L 278.282049 195.081882 
L 278.877673 189.326118 
L 279.473297 192.012141 
L 280.06892 191.372612 
L 280.664544 195.081882 
L 281.260167 191.628424 
L 281.855791 194.442353 
L 282.451414 196.360941 
L 283.047038 197.895812 
L 283.642661 197.512094 
L 284.238285 192.267953 
L 284.833909 192.267953 
L 285.429532 196.744659 
L 286.025156 192.395859 
L 286.620779 195.593506 
L 287.216403 192.140047 
L 287.812026 197.767906 
L 288.40765 190.477271 
L 289.003273 191.884235 
L 289.598897 194.058635 
L 290.194521 195.081882 
L 290.790144 193.035388 
L 291.385768 195.337694 
L 291.981391 194.058635 
L 292.577015 196.872565 
L 293.172638 191.628424 
L 293.768262 198.535341 
L 294.363885 198.791153 
L 294.959509 188.814494 
L 295.555133 195.081882 
L 296.150756 197.767906 
L 296.74638 196.233035 
L 297.342003 192.651671 
L 297.937627 195.081882 
L 298.53325 195.977224 
L 299.724497 199.046965 
L 300.915745 189.070306 
L 301.511368 189.581929 
L 302.106992 192.651671 
L 302.702615 190.349365 
L 303.298239 197.384188 
L 303.893862 191.244706 
L 304.489486 195.593506 
L 305.085109 194.314447 
L 305.680733 188.814494 
L 306.276357 190.477271 
L 306.87198 193.547012 
L 307.467604 198.791153 
L 308.063227 193.163294 
L 309.254474 192.140047 
L 309.850098 197.256282 
L 310.445721 196.872565 
L 311.041345 200.837647 
L 311.636969 191.372612 
L 312.232592 189.454024 
L 312.828216 193.163294 
L 313.423839 201.349271 
L 314.019463 194.953976 
L 314.615086 193.163294 
L 315.21071 198.023718 
L 315.806333 191.628424 
L 316.401957 195.337694 
L 316.997581 192.523765 
L 317.593204 193.419106 
L 318.188828 197.256282 
L 318.784451 193.930729 
L 319.380075 194.698165 
L 319.975698 197.128376 
L 320.571322 196.872565 
L 321.762569 195.977224 
L 322.358192 194.314447 
L 322.953816 191.1168 
L 323.54944 191.372612 
L 324.145063 190.988894 
L 324.740687 190.988894 
L 325.33631 192.651671 
L 325.931934 197.128376 
L 326.527557 195.977224 
L 327.123181 196.616753 
L 328.314428 195.081882 
L 328.910052 194.826071 
L 329.505675 194.698165 
L 330.101299 195.081882 
L 330.696922 189.454024 
L 331.292546 196.360941 
L 331.888169 191.756329 
L 332.483793 193.802824 
L 333.079416 193.163294 
L 333.67504 195.4656 
L 334.270664 188.558682 
L 334.866287 190.093553 
L 335.461911 198.535341 
L 336.057534 193.547012 
L 336.653158 195.081882 
L 337.248781 193.802824 
L 337.844405 196.360941 
L 338.440028 185.744753 
L 339.035652 195.4656 
L 339.631276 194.442353 
L 340.822523 195.4656 
L 341.418146 193.547012 
L 342.01377 196.744659 
L 342.609393 190.860988 
L 343.205017 193.802824 
L 343.80064 192.907482 
L 344.396264 192.267953 
L 344.991888 189.837741 
L 345.587511 198.663247 
L 346.183135 192.140047 
L 346.778758 194.698165 
L 347.374382 192.523765 
L 347.970005 195.209788 
L 348.565629 189.837741 
L 349.161252 190.733082 
L 349.756876 196.360941 
L 350.948123 192.140047 
L 351.543747 196.616753 
L 352.13937 192.779576 
L 352.734994 190.988894 
L 353.330617 196.360941 
L 354.521864 192.779576 
L 355.117488 193.930729 
L 355.713112 195.721412 
L 356.904359 198.279529 
L 358.095606 191.628424 
L 358.691229 191.756329 
L 359.286853 196.872565 
L 359.882476 193.163294 
L 360.4781 193.802824 
L 361.073724 197.000471 
L 361.669347 197.256282 
L 362.264971 192.907482 
L 362.860594 193.419106 
L 363.456218 195.593506 
L 364.051841 197.000471 
L 364.647465 192.779576 
L 365.243088 190.093553 
L 365.838712 192.779576 
L 366.434336 191.884235 
L 367.029959 197.384188 
L 367.625583 193.547012 
L 368.221206 195.081882 
L 368.81683 194.058635 
L 369.412453 196.105129 
L 370.008077 197.256282 
L 370.6037 197.000471 
L 371.199324 191.628424 
L 371.794948 194.826071 
L 372.986195 195.721412 
L 373.581818 189.326118 
L 373.581818 189.326118 
" clip-path="url(#p1408397d6c)" style="fill: none; stroke: #2ca02c; stroke-width: 1.5; stroke-linecap: square"/>
   </g>
   <g id="patch_3">
    <path d="M 54 252 
L 54 34.56 
" style="fill: none; stroke: #000000; stroke-width: 0.8; stroke-linejoin: miter; stroke-linecap: square"/>
   </g>
   <g id="patch_4">
    <path d="M 388.8 252 
L 388.8 34.56 
" style="fill: none; stroke: #000000; stroke-width: 0.8; stroke-linejoin: miter; stroke-linecap: square"/>
   </g>
   <g id="patch_5">
    <path d="M 54 252 
L 388.8 252 
" style="fill: none; stroke: #000000; stroke-width: 0.8; stroke-linejoin: miter; stroke-linecap: square"/>
   </g>
   <g id="patch_6">
    <path d="M 54 34.56 
L 388.8 34.56 
" style="fill: none; stroke: #000000; stroke-width: 0.8; stroke-linejoin: miter; stroke-linecap: square"/>
   </g>
   <g id="text_18">
    <!-- Label 3 -->
    <g transform="translate(199.487813 28.56)scale(0.12 -0.12)">
     <defs>
      <path id="DejaVuSans-4c" d="M 628 4666 
L 1259 4666 
L 1259 531 
L 3531 531 
L 3531 0 
L 628 0 
L 628 4666 
z
" transform="scale(0.015625)"/>
      <path id="DejaVuSans-61" d="M 2194 1759 
Q 1497 1759 1228 1600 
Q 959 1441 959 1056 
Q 959 750 1161 570 
Q 1363 391 1709 391 
Q 2188 391 2477 730 
Q 2766 1069 2766 1631 
L 2766 1759 
L 2194 1759 
z
M 3341 1997 
L 3341 0 
L 2766 0 
L 2766 531 
Q 2569 213 2275 61 
Q 1981 -91 1556 -91 
Q 1019 -91 701 211 
Q 384 513 384 1019 
Q 384 1609 779 1909 
Q 1175 2209 1959 2209 
L 2766 2209 
L 2766 2266 
Q 2766 2663 2505 2880 
Q 2244 3097 1772 3097 
Q 1472 3097 1187 3025 
Q 903 2953 641 2809 
L 641 3341 
Q 956 3463 1253 3523 
Q 1550 3584 1831 3584 
Q 2591 3584 2966 3190 
Q 3341 2797 3341 1997 
z
" transform="scale(0.015625)"/>
      <path id="DejaVuSans-65" d="M 3597 1894 
L 3597 1613 
L 953 1613 
Q 991 1019 1311 708 
Q 1631 397 2203 397 
Q 2534 397 2845 478 
Q 3156 559 3463 722 
L 3463 178 
Q 3153 47 2828 -22 
Q 2503 -91 2169 -91 
Q 1331 -91 842 396 
Q 353 884 353 1716 
Q 353 2575 817 3079 
Q 1281 3584 2069 3584 
Q 2775 3584 3186 3129 
Q 3597 2675 3597 1894 
z
M 3022 2063 
Q 3016 2534 2758 2815 
Q 2500 3097 2075 3097 
Q 1594 3097 1305 2825 
Q 1016 2553 972 2059 
L 3022 2063 
z
" transform="scale(0.015625)"/>
      <path id="DejaVuSans-6c" d="M 603 4863 
L 1178 4863 
L 1178 0 
L 603 0 
L 603 4863 
z
" transform="scale(0.015625)"/>
      <path id="DejaVuSans-20" transform="scale(0.015625)"/>
     </defs>
     <use xlink:href="#DejaVuSans-4c"/>
     <use xlink:href="#DejaVuSans-61" x="55.712891"/>
     <use xlink:href="#DejaVuSans-62" x="116.992188"/>
     <use xlink:href="#DejaVuSans-65" x="180.46875"/>
     <use xlink:href="#DejaVuSans-6c" x="241.992188"/>
     <use xlink:href="#DejaVuSans-20" x="269.775391"/>
     <use xlink:href="#DejaVuSans-33" x="301.5625"/>
    </g>
   </g>
   <g id="legend_1">
    <g id="patch_7">
     <path d="M 309.070312 101.2725 
L 381.8 101.2725 
Q 383.8 101.2725 383.8 99.2725 
L 383.8 41.56 
Q 383.8 39.56 381.8 39.56 
L 309.070312 39.56 
Q 307.070312 39.56 307.070312 41.56 
L 307.070312 99.2725 
Q 307.070312 101.2725 309.070312 101.2725 
z
" style="fill: #ffffff; opacity: 0.8; stroke: #cccccc; stroke-linejoin: miter"/>
    </g>
    <g id="text_19">
     <!-- Trace number -->
     <g transform="translate(311.070312 51.158437)scale(0.1 -0.1)">
      <defs>
       <path id="DejaVuSans-54" d="M -19 4666 
L 3928 4666 
L 3928 4134 
L 2272 4134 
L 2272 0 
L 1638 0 
L 1638 4134 
L -19 4134 
L -19 4666 
z
" transform="scale(0.015625)"/>
       <path id="DejaVuSans-72" d="M 2631 2963 
Q 2534 3019 2420 3045 
Q 2306 3072 2169 3072 
Q 1681 3072 1420 2755 
Q 1159 2438 1159 1844 
L 1159 0 
L 581 0 
L 581 3500 
L 1159 3500 
L 1159 2956 
Q 1341 3275 1631 3429 
Q 1922 3584 2338 3584 
Q 2397 3584 2469 3576 
Q 2541 3569 2628 3553 
L 2631 2963 
z
" transform="scale(0.015625)"/>
       <path id="DejaVuSans-6d" d="M 3328 2828 
Q 3544 3216 3844 3400 
Q 4144 3584 4550 3584 
Q 5097 3584 5394 3201 
Q 5691 2819 5691 2113 
L 5691 0 
L 5113 0 
L 5113 2094 
Q 5113 2597 4934 2840 
Q 4756 3084 4391 3084 
Q 3944 3084 3684 2787 
Q 3425 2491 3425 1978 
L 3425 0 
L 2847 0 
L 2847 2094 
Q 2847 2600 2669 2842 
Q 2491 3084 2119 3084 
Q 1678 3084 1418 2786 
Q 1159 2488 1159 1978 
L 1159 0 
L 581 0 
L 581 3500 
L 1159 3500 
L 1159 2956 
Q 1356 3278 1631 3431 
Q 1906 3584 2284 3584 
Q 2666 3584 2933 3390 
Q 3200 3197 3328 2828 
z
" transform="scale(0.015625)"/>
      </defs>
      <use xlink:href="#DejaVuSans-54"/>
      <use xlink:href="#DejaVuSans-72" x="46.333984"/>
      <use xlink:href="#DejaVuSans-61" x="87.447266"/>
      <use xlink:href="#DejaVuSans-63" x="148.726562"/>
      <use xlink:href="#DejaVuSans-65" x="203.707031"/>
      <use xlink:href="#DejaVuSans-20" x="265.230469"/>
      <use xlink:href="#DejaVuSans-6e" x="297.017578"/>
      <use xlink:href="#DejaVuSans-75" x="360.396484"/>
      <use xlink:href="#DejaVuSans-6d" x="423.775391"/>
      <use xlink:href="#DejaVuSans-62" x="521.1875"/>
      <use xlink:href="#DejaVuSans-65" x="584.664062"/>
      <use xlink:href="#DejaVuSans-72" x="646.1875"/>
     </g>
    </g>
    <g id="line2d_34">
     <path d="M 325.072656 62.336562 
L 335.072656 62.336562 
L 345.072656 62.336562 
" style="fill: none; stroke: #1f77b4; stroke-width: 1.5; stroke-linecap: square"/>
    </g>
    <g id="text_20">
     <!-- 28 -->
     <g transform="translate(353.072656 65.836562)scale(0.1 -0.1)">
      <use xlink:href="#DejaVuSans-32"/>
      <use xlink:href="#DejaVuSans-38" x="63.623047"/>
     </g>
    </g>
    <g id="line2d_35">
     <path d="M 325.072656 77.014687 
L 335.072656 77.014687 
L 345.072656 77.014687 
" style="fill: none; stroke: #ff7f0e; stroke-width: 1.5; stroke-linecap: square"/>
    </g>
    <g id="text_21">
     <!-- 71 -->
     <g transform="translate(353.072656 80.514687)scale(0.1 -0.1)">
      <defs>
       <path id="DejaVuSans-37" d="M 525 4666 
L 3525 4666 
L 3525 4397 
L 1831 0 
L 1172 0 
L 2766 4134 
L 525 4134 
L 525 4666 
z
" transform="scale(0.015625)"/>
      </defs>
      <use xlink:href="#DejaVuSans-37"/>
      <use xlink:href="#DejaVuSans-31" x="63.623047"/>
     </g>
    </g>
    <g id="line2d_36">
     <path d="M 325.072656 91.692813 
L 335.072656 91.692813 
L 345.072656 91.692813 
" style="fill: none; stroke: #2ca02c; stroke-width: 1.5; stroke-linecap: square"/>
    </g>
    <g id="text_22">
     <!-- 75 -->
     <g transform="translate(353.072656 95.192813)scale(0.1 -0.1)">
      <use xlink:href="#DejaVuSans-37"/>
      <use xlink:href="#DejaVuSans-35" x="63.623047"/>
     </g>
    </g>
   </g>
  </g>
 </g>
 <defs>
  <clipPath id="p1408397d6c">
   <rect x="54" y="34.56" width="334.8" height="217.44"/>
  </clipPath>
 </defs>
</svg>
