<?xml version="1.0" encoding="utf-8" standalone="no"?>
<!DOCTYPE svg PUBLIC "-//W3C//DTD SVG 1.1//EN"
  "http://www.w3.org/Graphics/SVG/1.1/DTD/svg11.dtd">
<svg xmlns:xlink="http://www.w3.org/1999/xlink" width="432pt" height="288pt" viewBox="0 0 432 288" xmlns="http://www.w3.org/2000/svg" version="1.1">
 <metadata>
  <rdf:RDF xmlns:dc="http://purl.org/dc/elements/1.1/" xmlns:cc="http://creativecommons.org/ns#" xmlns:rdf="http://www.w3.org/1999/02/22-rdf-syntax-ns#">
   <cc:Work>
    <dc:type rdf:resource="http://purl.org/dc/dcmitype/StillImage"/>
    <dc:date>2022-03-30T13:12:48.767391</dc:date>
    <dc:format>image/svg+xml</dc:format>
    <dc:creator>
     <cc:Agent>
      <dc:title>Matplotlib v3.5.1, https://matplotlib.org/</dc:title>
     </cc:Agent>
    </dc:creator>
   </cc:Work>
  </rdf:RDF>
 </metadata>
 <defs>
  <style type="text/css">*{stroke-linejoin: round; stroke-linecap: butt}</style>
 </defs>
 <g id="figure_1">
  <g id="patch_1">
   <path d="M 0 288 
L 432 288 
L 432 0 
L 0 0 
z
" style="fill: #ffffff"/>
  </g>
  <g id="axes_1">
   <g id="patch_2">
    <path d="M 54 252 
L 388.8 252 
L 388.8 34.56 
L 54 34.56 
z
" style="fill: #ffffff"/>
   </g>
   <g id="matplotlib.axis_1">
    <g id="xtick_1">
     <g id="line2d_1">
      <path d="M 69.218182 252 
L 69.218182 34.56 
" clip-path="url(#pc096174a62)" style="fill: none; stroke: #b0b0b0; stroke-width: 0.8; stroke-linecap: square"/>
     </g>
     <g id="line2d_2">
      <defs>
       <path id="mea261b0e90" d="M 0 0 
L 0 3.5 
" style="stroke: #000000; stroke-width: 0.8"/>
      </defs>
      <g>
       <use xlink:href="#mea261b0e90" x="69.218182" y="252" style="stroke: #000000; stroke-width: 0.8"/>
      </g>
     </g>
     <g id="text_1">
      <!-- 0 -->
      <g transform="translate(66.036932 266.598437)scale(0.1 -0.1)">
       <defs>
        <path id="DejaVuSans-30" d="M 2034 4250 
Q 1547 4250 1301 3770 
Q 1056 3291 1056 2328 
Q 1056 1369 1301 889 
Q 1547 409 2034 409 
Q 2525 409 2770 889 
Q 3016 1369 3016 2328 
Q 3016 3291 2770 3770 
Q 2525 4250 2034 4250 
z
M 2034 4750 
Q 2819 4750 3233 4129 
Q 3647 3509 3647 2328 
Q 3647 1150 3233 529 
Q 2819 -91 2034 -91 
Q 1250 -91 836 529 
Q 422 1150 422 2328 
Q 422 3509 836 4129 
Q 1250 4750 2034 4750 
z
" transform="scale(0.015625)"/>
       </defs>
       <use xlink:href="#DejaVuSans-30"/>
      </g>
     </g>
    </g>
    <g id="xtick_2">
     <g id="line2d_3">
      <path d="M 128.780537 252 
L 128.780537 34.56 
" clip-path="url(#pc096174a62)" style="fill: none; stroke: #b0b0b0; stroke-width: 0.8; stroke-linecap: square"/>
     </g>
     <g id="line2d_4">
      <g>
       <use xlink:href="#mea261b0e90" x="128.780537" y="252" style="stroke: #000000; stroke-width: 0.8"/>
      </g>
     </g>
     <g id="text_2">
      <!-- 100 -->
      <g transform="translate(119.236787 266.598437)scale(0.1 -0.1)">
       <defs>
        <path id="DejaVuSans-31" d="M 794 531 
L 1825 531 
L 1825 4091 
L 703 3866 
L 703 4441 
L 1819 4666 
L 2450 4666 
L 2450 531 
L 3481 531 
L 3481 0 
L 794 0 
L 794 531 
z
" transform="scale(0.015625)"/>
       </defs>
       <use xlink:href="#DejaVuSans-31"/>
       <use xlink:href="#DejaVuSans-30" x="63.623047"/>
       <use xlink:href="#DejaVuSans-30" x="127.246094"/>
      </g>
     </g>
    </g>
    <g id="xtick_3">
     <g id="line2d_5">
      <path d="M 188.342893 252 
L 188.342893 34.56 
" clip-path="url(#pc096174a62)" style="fill: none; stroke: #b0b0b0; stroke-width: 0.8; stroke-linecap: square"/>
     </g>
     <g id="line2d_6">
      <g>
       <use xlink:href="#mea261b0e90" x="188.342893" y="252" style="stroke: #000000; stroke-width: 0.8"/>
      </g>
     </g>
     <g id="text_3">
      <!-- 200 -->
      <g transform="translate(178.799143 266.598437)scale(0.1 -0.1)">
       <defs>
        <path id="DejaVuSans-32" d="M 1228 531 
L 3431 531 
L 3431 0 
L 469 0 
L 469 531 
Q 828 903 1448 1529 
Q 2069 2156 2228 2338 
Q 2531 2678 2651 2914 
Q 2772 3150 2772 3378 
Q 2772 3750 2511 3984 
Q 2250 4219 1831 4219 
Q 1534 4219 1204 4116 
Q 875 4013 500 3803 
L 500 4441 
Q 881 4594 1212 4672 
Q 1544 4750 1819 4750 
Q 2544 4750 2975 4387 
Q 3406 4025 3406 3419 
Q 3406 3131 3298 2873 
Q 3191 2616 2906 2266 
Q 2828 2175 2409 1742 
Q 1991 1309 1228 531 
z
" transform="scale(0.015625)"/>
       </defs>
       <use xlink:href="#DejaVuSans-32"/>
       <use xlink:href="#DejaVuSans-30" x="63.623047"/>
       <use xlink:href="#DejaVuSans-30" x="127.246094"/>
      </g>
     </g>
    </g>
    <g id="xtick_4">
     <g id="line2d_7">
      <path d="M 247.905248 252 
L 247.905248 34.56 
" clip-path="url(#pc096174a62)" style="fill: none; stroke: #b0b0b0; stroke-width: 0.8; stroke-linecap: square"/>
     </g>
     <g id="line2d_8">
      <g>
       <use xlink:href="#mea261b0e90" x="247.905248" y="252" style="stroke: #000000; stroke-width: 0.8"/>
      </g>
     </g>
     <g id="text_4">
      <!-- 300 -->
      <g transform="translate(238.361498 266.598437)scale(0.1 -0.1)">
       <defs>
        <path id="DejaVuSans-33" d="M 2597 2516 
Q 3050 2419 3304 2112 
Q 3559 1806 3559 1356 
Q 3559 666 3084 287 
Q 2609 -91 1734 -91 
Q 1441 -91 1130 -33 
Q 819 25 488 141 
L 488 750 
Q 750 597 1062 519 
Q 1375 441 1716 441 
Q 2309 441 2620 675 
Q 2931 909 2931 1356 
Q 2931 1769 2642 2001 
Q 2353 2234 1838 2234 
L 1294 2234 
L 1294 2753 
L 1863 2753 
Q 2328 2753 2575 2939 
Q 2822 3125 2822 3475 
Q 2822 3834 2567 4026 
Q 2313 4219 1838 4219 
Q 1578 4219 1281 4162 
Q 984 4106 628 3988 
L 628 4550 
Q 988 4650 1302 4700 
Q 1616 4750 1894 4750 
Q 2613 4750 3031 4423 
Q 3450 4097 3450 3541 
Q 3450 3153 3228 2886 
Q 3006 2619 2597 2516 
z
" transform="scale(0.015625)"/>
       </defs>
       <use xlink:href="#DejaVuSans-33"/>
       <use xlink:href="#DejaVuSans-30" x="63.623047"/>
       <use xlink:href="#DejaVuSans-30" x="127.246094"/>
      </g>
     </g>
    </g>
    <g id="xtick_5">
     <g id="line2d_9">
      <path d="M 307.467604 252 
L 307.467604 34.56 
" clip-path="url(#pc096174a62)" style="fill: none; stroke: #b0b0b0; stroke-width: 0.8; stroke-linecap: square"/>
     </g>
     <g id="line2d_10">
      <g>
       <use xlink:href="#mea261b0e90" x="307.467604" y="252" style="stroke: #000000; stroke-width: 0.8"/>
      </g>
     </g>
     <g id="text_5">
      <!-- 400 -->
      <g transform="translate(297.923854 266.598437)scale(0.1 -0.1)">
       <defs>
        <path id="DejaVuSans-34" d="M 2419 4116 
L 825 1625 
L 2419 1625 
L 2419 4116 
z
M 2253 4666 
L 3047 4666 
L 3047 1625 
L 3713 1625 
L 3713 1100 
L 3047 1100 
L 3047 0 
L 2419 0 
L 2419 1100 
L 313 1100 
L 313 1709 
L 2253 4666 
z
" transform="scale(0.015625)"/>
       </defs>
       <use xlink:href="#DejaVuSans-34"/>
       <use xlink:href="#DejaVuSans-30" x="63.623047"/>
       <use xlink:href="#DejaVuSans-30" x="127.246094"/>
      </g>
     </g>
    </g>
    <g id="xtick_6">
     <g id="line2d_11">
      <path d="M 367.029959 252 
L 367.029959 34.56 
" clip-path="url(#pc096174a62)" style="fill: none; stroke: #b0b0b0; stroke-width: 0.8; stroke-linecap: square"/>
     </g>
     <g id="line2d_12">
      <g>
       <use xlink:href="#mea261b0e90" x="367.029959" y="252" style="stroke: #000000; stroke-width: 0.8"/>
      </g>
     </g>
     <g id="text_6">
      <!-- 500 -->
      <g transform="translate(357.486209 266.598437)scale(0.1 -0.1)">
       <defs>
        <path id="DejaVuSans-35" d="M 691 4666 
L 3169 4666 
L 3169 4134 
L 1269 4134 
L 1269 2991 
Q 1406 3038 1543 3061 
Q 1681 3084 1819 3084 
Q 2600 3084 3056 2656 
Q 3513 2228 3513 1497 
Q 3513 744 3044 326 
Q 2575 -91 1722 -91 
Q 1428 -91 1123 -41 
Q 819 9 494 109 
L 494 744 
Q 775 591 1075 516 
Q 1375 441 1709 441 
Q 2250 441 2565 725 
Q 2881 1009 2881 1497 
Q 2881 1984 2565 2268 
Q 2250 2553 1709 2553 
Q 1456 2553 1204 2497 
Q 953 2441 691 2322 
L 691 4666 
z
" transform="scale(0.015625)"/>
       </defs>
       <use xlink:href="#DejaVuSans-35"/>
       <use xlink:href="#DejaVuSans-30" x="63.623047"/>
       <use xlink:href="#DejaVuSans-30" x="127.246094"/>
      </g>
     </g>
    </g>
    <g id="text_7">
     <!-- bin -->
     <g transform="translate(213.667969 280.276563)scale(0.1 -0.1)">
      <defs>
       <path id="DejaVuSans-62" d="M 3116 1747 
Q 3116 2381 2855 2742 
Q 2594 3103 2138 3103 
Q 1681 3103 1420 2742 
Q 1159 2381 1159 1747 
Q 1159 1113 1420 752 
Q 1681 391 2138 391 
Q 2594 391 2855 752 
Q 3116 1113 3116 1747 
z
M 1159 2969 
Q 1341 3281 1617 3432 
Q 1894 3584 2278 3584 
Q 2916 3584 3314 3078 
Q 3713 2572 3713 1747 
Q 3713 922 3314 415 
Q 2916 -91 2278 -91 
Q 1894 -91 1617 61 
Q 1341 213 1159 525 
L 1159 0 
L 581 0 
L 581 4863 
L 1159 4863 
L 1159 2969 
z
" transform="scale(0.015625)"/>
       <path id="DejaVuSans-69" d="M 603 3500 
L 1178 3500 
L 1178 0 
L 603 0 
L 603 3500 
z
M 603 4863 
L 1178 4863 
L 1178 4134 
L 603 4134 
L 603 4863 
z
" transform="scale(0.015625)"/>
       <path id="DejaVuSans-6e" d="M 3513 2113 
L 3513 0 
L 2938 0 
L 2938 2094 
Q 2938 2591 2744 2837 
Q 2550 3084 2163 3084 
Q 1697 3084 1428 2787 
Q 1159 2491 1159 1978 
L 1159 0 
L 581 0 
L 581 3500 
L 1159 3500 
L 1159 2956 
Q 1366 3272 1645 3428 
Q 1925 3584 2291 3584 
Q 2894 3584 3203 3211 
Q 3513 2838 3513 2113 
z
" transform="scale(0.015625)"/>
      </defs>
      <use xlink:href="#DejaVuSans-62"/>
      <use xlink:href="#DejaVuSans-69" x="63.476562"/>
      <use xlink:href="#DejaVuSans-6e" x="91.259766"/>
     </g>
    </g>
   </g>
   <g id="matplotlib.axis_2">
    <g id="ytick_1">
     <g id="line2d_13">
      <path d="M 54 252 
L 388.8 252 
" clip-path="url(#pc096174a62)" style="fill: none; stroke: #b0b0b0; stroke-width: 0.8; stroke-linecap: square"/>
     </g>
     <g id="line2d_14">
      <defs>
       <path id="m3ef3bb4153" d="M 0 0 
L -3.5 0 
" style="stroke: #000000; stroke-width: 0.8"/>
      </defs>
      <g>
       <use xlink:href="#m3ef3bb4153" x="54" y="252" style="stroke: #000000; stroke-width: 0.8"/>
      </g>
     </g>
     <g id="text_8">
      <!-- 0 -->
      <g transform="translate(40.6375 255.799219)scale(0.1 -0.1)">
       <use xlink:href="#DejaVuSans-30"/>
      </g>
     </g>
    </g>
    <g id="ytick_2">
     <g id="line2d_15">
      <path d="M 54 226.418824 
L 388.8 226.418824 
" clip-path="url(#pc096174a62)" style="fill: none; stroke: #b0b0b0; stroke-width: 0.8; stroke-linecap: square"/>
     </g>
     <g id="line2d_16">
      <g>
       <use xlink:href="#m3ef3bb4153" x="54" y="226.418824" style="stroke: #000000; stroke-width: 0.8"/>
      </g>
     </g>
     <g id="text_9">
      <!-- 200 -->
      <g transform="translate(27.9125 230.218042)scale(0.1 -0.1)">
       <use xlink:href="#DejaVuSans-32"/>
       <use xlink:href="#DejaVuSans-30" x="63.623047"/>
       <use xlink:href="#DejaVuSans-30" x="127.246094"/>
      </g>
     </g>
    </g>
    <g id="ytick_3">
     <g id="line2d_17">
      <path d="M 54 200.837647 
L 388.8 200.837647 
" clip-path="url(#pc096174a62)" style="fill: none; stroke: #b0b0b0; stroke-width: 0.8; stroke-linecap: square"/>
     </g>
     <g id="line2d_18">
      <g>
       <use xlink:href="#m3ef3bb4153" x="54" y="200.837647" style="stroke: #000000; stroke-width: 0.8"/>
      </g>
     </g>
     <g id="text_10">
      <!-- 400 -->
      <g transform="translate(27.9125 204.636866)scale(0.1 -0.1)">
       <use xlink:href="#DejaVuSans-34"/>
       <use xlink:href="#DejaVuSans-30" x="63.623047"/>
       <use xlink:href="#DejaVuSans-30" x="127.246094"/>
      </g>
     </g>
    </g>
    <g id="ytick_4">
     <g id="line2d_19">
      <path d="M 54 175.256471 
L 388.8 175.256471 
" clip-path="url(#pc096174a62)" style="fill: none; stroke: #b0b0b0; stroke-width: 0.8; stroke-linecap: square"/>
     </g>
     <g id="line2d_20">
      <g>
       <use xlink:href="#m3ef3bb4153" x="54" y="175.256471" style="stroke: #000000; stroke-width: 0.8"/>
      </g>
     </g>
     <g id="text_11">
      <!-- 600 -->
      <g transform="translate(27.9125 179.055689)scale(0.1 -0.1)">
       <defs>
        <path id="DejaVuSans-36" d="M 2113 2584 
Q 1688 2584 1439 2293 
Q 1191 2003 1191 1497 
Q 1191 994 1439 701 
Q 1688 409 2113 409 
Q 2538 409 2786 701 
Q 3034 994 3034 1497 
Q 3034 2003 2786 2293 
Q 2538 2584 2113 2584 
z
M 3366 4563 
L 3366 3988 
Q 3128 4100 2886 4159 
Q 2644 4219 2406 4219 
Q 1781 4219 1451 3797 
Q 1122 3375 1075 2522 
Q 1259 2794 1537 2939 
Q 1816 3084 2150 3084 
Q 2853 3084 3261 2657 
Q 3669 2231 3669 1497 
Q 3669 778 3244 343 
Q 2819 -91 2113 -91 
Q 1303 -91 875 529 
Q 447 1150 447 2328 
Q 447 3434 972 4092 
Q 1497 4750 2381 4750 
Q 2619 4750 2861 4703 
Q 3103 4656 3366 4563 
z
" transform="scale(0.015625)"/>
       </defs>
       <use xlink:href="#DejaVuSans-36"/>
       <use xlink:href="#DejaVuSans-30" x="63.623047"/>
       <use xlink:href="#DejaVuSans-30" x="127.246094"/>
      </g>
     </g>
    </g>
    <g id="ytick_5">
     <g id="line2d_21">
      <path d="M 54 149.675294 
L 388.8 149.675294 
" clip-path="url(#pc096174a62)" style="fill: none; stroke: #b0b0b0; stroke-width: 0.8; stroke-linecap: square"/>
     </g>
     <g id="line2d_22">
      <g>
       <use xlink:href="#m3ef3bb4153" x="54" y="149.675294" style="stroke: #000000; stroke-width: 0.8"/>
      </g>
     </g>
     <g id="text_12">
      <!-- 800 -->
      <g transform="translate(27.9125 153.474513)scale(0.1 -0.1)">
       <defs>
        <path id="DejaVuSans-38" d="M 2034 2216 
Q 1584 2216 1326 1975 
Q 1069 1734 1069 1313 
Q 1069 891 1326 650 
Q 1584 409 2034 409 
Q 2484 409 2743 651 
Q 3003 894 3003 1313 
Q 3003 1734 2745 1975 
Q 2488 2216 2034 2216 
z
M 1403 2484 
Q 997 2584 770 2862 
Q 544 3141 544 3541 
Q 544 4100 942 4425 
Q 1341 4750 2034 4750 
Q 2731 4750 3128 4425 
Q 3525 4100 3525 3541 
Q 3525 3141 3298 2862 
Q 3072 2584 2669 2484 
Q 3125 2378 3379 2068 
Q 3634 1759 3634 1313 
Q 3634 634 3220 271 
Q 2806 -91 2034 -91 
Q 1263 -91 848 271 
Q 434 634 434 1313 
Q 434 1759 690 2068 
Q 947 2378 1403 2484 
z
M 1172 3481 
Q 1172 3119 1398 2916 
Q 1625 2713 2034 2713 
Q 2441 2713 2670 2916 
Q 2900 3119 2900 3481 
Q 2900 3844 2670 4047 
Q 2441 4250 2034 4250 
Q 1625 4250 1398 4047 
Q 1172 3844 1172 3481 
z
" transform="scale(0.015625)"/>
       </defs>
       <use xlink:href="#DejaVuSans-38"/>
       <use xlink:href="#DejaVuSans-30" x="63.623047"/>
       <use xlink:href="#DejaVuSans-30" x="127.246094"/>
      </g>
     </g>
    </g>
    <g id="ytick_6">
     <g id="line2d_23">
      <path d="M 54 124.094118 
L 388.8 124.094118 
" clip-path="url(#pc096174a62)" style="fill: none; stroke: #b0b0b0; stroke-width: 0.8; stroke-linecap: square"/>
     </g>
     <g id="line2d_24">
      <g>
       <use xlink:href="#m3ef3bb4153" x="54" y="124.094118" style="stroke: #000000; stroke-width: 0.8"/>
      </g>
     </g>
     <g id="text_13">
      <!-- 1000 -->
      <g transform="translate(21.55 127.893336)scale(0.1 -0.1)">
       <use xlink:href="#DejaVuSans-31"/>
       <use xlink:href="#DejaVuSans-30" x="63.623047"/>
       <use xlink:href="#DejaVuSans-30" x="127.246094"/>
       <use xlink:href="#DejaVuSans-30" x="190.869141"/>
      </g>
     </g>
    </g>
    <g id="ytick_7">
     <g id="line2d_25">
      <path d="M 54 98.512941 
L 388.8 98.512941 
" clip-path="url(#pc096174a62)" style="fill: none; stroke: #b0b0b0; stroke-width: 0.8; stroke-linecap: square"/>
     </g>
     <g id="line2d_26">
      <g>
       <use xlink:href="#m3ef3bb4153" x="54" y="98.512941" style="stroke: #000000; stroke-width: 0.8"/>
      </g>
     </g>
     <g id="text_14">
      <!-- 1200 -->
      <g transform="translate(21.55 102.31216)scale(0.1 -0.1)">
       <use xlink:href="#DejaVuSans-31"/>
       <use xlink:href="#DejaVuSans-32" x="63.623047"/>
       <use xlink:href="#DejaVuSans-30" x="127.246094"/>
       <use xlink:href="#DejaVuSans-30" x="190.869141"/>
      </g>
     </g>
    </g>
    <g id="ytick_8">
     <g id="line2d_27">
      <path d="M 54 72.931765 
L 388.8 72.931765 
" clip-path="url(#pc096174a62)" style="fill: none; stroke: #b0b0b0; stroke-width: 0.8; stroke-linecap: square"/>
     </g>
     <g id="line2d_28">
      <g>
       <use xlink:href="#m3ef3bb4153" x="54" y="72.931765" style="stroke: #000000; stroke-width: 0.8"/>
      </g>
     </g>
     <g id="text_15">
      <!-- 1400 -->
      <g transform="translate(21.55 76.730983)scale(0.1 -0.1)">
       <use xlink:href="#DejaVuSans-31"/>
       <use xlink:href="#DejaVuSans-34" x="63.623047"/>
       <use xlink:href="#DejaVuSans-30" x="127.246094"/>
       <use xlink:href="#DejaVuSans-30" x="190.869141"/>
      </g>
     </g>
    </g>
    <g id="ytick_9">
     <g id="line2d_29">
      <path d="M 54 47.350588 
L 388.8 47.350588 
" clip-path="url(#pc096174a62)" style="fill: none; stroke: #b0b0b0; stroke-width: 0.8; stroke-linecap: square"/>
     </g>
     <g id="line2d_30">
      <g>
       <use xlink:href="#m3ef3bb4153" x="54" y="47.350588" style="stroke: #000000; stroke-width: 0.8"/>
      </g>
     </g>
     <g id="text_16">
      <!-- 1600 -->
      <g transform="translate(21.55 51.149807)scale(0.1 -0.1)">
       <use xlink:href="#DejaVuSans-31"/>
       <use xlink:href="#DejaVuSans-36" x="63.623047"/>
       <use xlink:href="#DejaVuSans-30" x="127.246094"/>
       <use xlink:href="#DejaVuSans-30" x="190.869141"/>
      </g>
     </g>
    </g>
    <g id="text_17">
     <!-- count -->
     <g transform="translate(15.470312 157.38625)rotate(-90)scale(0.1 -0.1)">
      <defs>
       <path id="DejaVuSans-63" d="M 3122 3366 
L 3122 2828 
Q 2878 2963 2633 3030 
Q 2388 3097 2138 3097 
Q 1578 3097 1268 2742 
Q 959 2388 959 1747 
Q 959 1106 1268 751 
Q 1578 397 2138 397 
Q 2388 397 2633 464 
Q 2878 531 3122 666 
L 3122 134 
Q 2881 22 2623 -34 
Q 2366 -91 2075 -91 
Q 1284 -91 818 406 
Q 353 903 353 1747 
Q 353 2603 823 3093 
Q 1294 3584 2113 3584 
Q 2378 3584 2631 3529 
Q 2884 3475 3122 3366 
z
" transform="scale(0.015625)"/>
       <path id="DejaVuSans-6f" d="M 1959 3097 
Q 1497 3097 1228 2736 
Q 959 2375 959 1747 
Q 959 1119 1226 758 
Q 1494 397 1959 397 
Q 2419 397 2687 759 
Q 2956 1122 2956 1747 
Q 2956 2369 2687 2733 
Q 2419 3097 1959 3097 
z
M 1959 3584 
Q 2709 3584 3137 3096 
Q 3566 2609 3566 1747 
Q 3566 888 3137 398 
Q 2709 -91 1959 -91 
Q 1206 -91 779 398 
Q 353 888 353 1747 
Q 353 2609 779 3096 
Q 1206 3584 1959 3584 
z
" transform="scale(0.015625)"/>
       <path id="DejaVuSans-75" d="M 544 1381 
L 544 3500 
L 1119 3500 
L 1119 1403 
Q 1119 906 1312 657 
Q 1506 409 1894 409 
Q 2359 409 2629 706 
Q 2900 1003 2900 1516 
L 2900 3500 
L 3475 3500 
L 3475 0 
L 2900 0 
L 2900 538 
Q 2691 219 2414 64 
Q 2138 -91 1772 -91 
Q 1169 -91 856 284 
Q 544 659 544 1381 
z
M 1991 3584 
L 1991 3584 
z
" transform="scale(0.015625)"/>
       <path id="DejaVuSans-74" d="M 1172 4494 
L 1172 3500 
L 2356 3500 
L 2356 3053 
L 1172 3053 
L 1172 1153 
Q 1172 725 1289 603 
Q 1406 481 1766 481 
L 2356 481 
L 2356 0 
L 1766 0 
Q 1100 0 847 248 
Q 594 497 594 1153 
L 594 3053 
L 172 3053 
L 172 3500 
L 594 3500 
L 594 4494 
L 1172 4494 
z
" transform="scale(0.015625)"/>
      </defs>
      <use xlink:href="#DejaVuSans-63"/>
      <use xlink:href="#DejaVuSans-6f" x="54.980469"/>
      <use xlink:href="#DejaVuSans-75" x="116.162109"/>
      <use xlink:href="#DejaVuSans-6e" x="179.541016"/>
      <use xlink:href="#DejaVuSans-74" x="242.919922"/>
     </g>
    </g>
   </g>
   <g id="line2d_31">
    <path d="M 69.218182 235.755953 
L 69.813805 232.686212 
L 70.409429 235.116424 
L 71.005052 230.767624 
L 71.600676 232.558306 
L 72.1963 235.244329 
L 72.791923 232.046682 
L 73.387547 231.918776 
L 74.578794 233.325741 
L 75.174417 233.837365 
L 76.365664 233.197835 
L 76.961288 232.174588 
L 78.152535 235.500141 
L 78.748159 233.965271 
L 79.343782 233.069929 
L 79.939406 233.965271 
L 80.535029 230.767624 
L 81.130653 233.453647 
L 81.726276 237.035012 
L 82.3219 231.918776 
L 82.917524 235.883859 
L 83.513147 235.755953 
L 84.108771 233.197835 
L 84.704394 234.476894 
L 85.300018 232.558306 
L 85.895641 233.069929 
L 86.491265 233.197835 
L 87.086888 234.348988 
L 87.682512 231.918776 
L 88.278136 233.197835 
L 88.873759 230.895529 
L 89.469383 234.348988 
L 90.065006 231.662965 
L 90.66063 232.4304 
L 91.256253 234.860612 
L 91.851877 235.372235 
L 92.4475 232.942024 
L 93.043124 231.023435 
L 93.638748 230.511812 
L 94.234371 234.476894 
L 94.829995 233.837365 
L 95.425618 234.221082 
L 96.021242 232.558306 
L 96.616865 233.453647 
L 97.212489 233.325741 
L 97.808112 233.325741 
L 98.403736 235.116424 
L 98.99936 234.6048 
L 99.594983 234.988518 
L 100.190607 232.046682 
L 100.78623 230.256 
L 101.381854 231.662965 
L 101.977477 231.662965 
L 102.573101 231.151341 
L 103.168724 232.686212 
L 103.764348 232.942024 
L 104.359972 231.918776 
L 104.955595 232.942024 
L 105.551219 233.325741 
L 106.146842 232.686212 
L 106.742466 233.965271 
L 107.338089 234.860612 
L 107.933713 234.348988 
L 108.529336 234.860612 
L 109.12496 234.093176 
L 109.720584 233.069929 
L 110.316207 234.221082 
L 110.911831 235.883859 
L 112.103078 229.872282 
L 112.698701 235.116424 
L 113.294325 231.918776 
L 113.889948 236.011765 
L 114.485572 235.244329 
L 115.081196 232.558306 
L 115.676819 231.279247 
L 116.272443 231.535059 
L 116.868066 232.174588 
L 117.46369 232.046682 
L 118.654937 232.686212 
L 119.25056 234.221082 
L 119.846184 234.093176 
L 120.441808 234.6048 
L 121.037431 233.069929 
L 122.824302 234.093176 
L 123.419925 232.4304 
L 124.015549 233.069929 
L 124.611172 232.302494 
L 125.206796 231.023435 
L 126.398043 233.837365 
L 126.993667 232.4304 
L 127.58929 232.046682 
L 128.184914 232.686212 
L 128.780537 235.244329 
L 129.376161 232.174588 
L 129.971784 234.860612 
L 130.567408 233.069929 
L 131.163031 236.523388 
L 131.758655 232.814118 
L 132.354279 233.837365 
L 132.949902 231.535059 
L 133.545526 233.709459 
L 134.141149 233.453647 
L 134.736773 235.244329 
L 135.332396 231.151341 
L 135.92802 230.256 
L 136.523643 233.965271 
L 137.119267 231.279247 
L 137.714891 235.372235 
L 138.310514 234.476894 
L 138.906138 233.069929 
L 140.097385 232.046682 
L 140.693008 231.790871 
L 141.288632 231.279247 
L 141.884255 234.093176 
L 142.479879 233.837365 
L 143.075503 232.814118 
L 143.671126 231.279247 
L 144.26675 232.302494 
L 144.862373 236.139671 
L 145.457997 235.244329 
L 146.05362 232.558306 
L 147.244867 234.476894 
L 147.840491 233.581553 
L 148.436115 233.197835 
L 149.031738 232.174588 
L 149.627362 232.302494 
L 150.222985 234.093176 
L 150.818609 232.814118 
L 151.414232 235.372235 
L 152.009856 233.965271 
L 152.605479 234.476894 
L 153.201103 234.348988 
L 153.796727 231.790871 
L 154.39235 235.372235 
L 154.987974 232.046682 
L 155.583597 232.174588 
L 156.179221 232.942024 
L 157.370468 231.918776 
L 157.966091 235.500141 
L 158.561715 232.174588 
L 159.157339 234.221082 
L 159.752962 233.965271 
L 160.348586 233.197835 
L 160.944209 231.918776 
L 161.539833 231.535059 
L 162.135456 233.709459 
L 162.73108 232.558306 
L 163.326703 232.942024 
L 163.922327 234.6048 
L 164.517951 235.116424 
L 165.113574 232.942024 
L 165.709198 229.232753 
L 166.304821 233.325741 
L 166.900445 232.046682 
L 167.496068 234.732706 
L 168.091692 232.814118 
L 168.687315 232.4304 
L 169.282939 232.686212 
L 169.878563 231.023435 
L 170.474186 234.348988 
L 171.06981 229.872282 
L 171.665433 233.709459 
L 172.261057 232.558306 
L 172.85668 234.093176 
L 173.452304 231.662965 
L 174.047927 234.732706 
L 174.643551 231.407153 
L 175.239175 234.093176 
L 175.834798 233.325741 
L 176.430422 234.093176 
L 177.026045 234.6048 
L 177.621669 235.883859 
L 178.217292 233.581553 
L 178.812916 233.069929 
L 179.408539 234.093176 
L 180.004163 235.883859 
L 181.19541 232.302494 
L 181.791034 234.988518 
L 182.386657 232.302494 
L 182.982281 232.686212 
L 183.577904 233.581553 
L 184.173528 232.046682 
L 184.769151 234.476894 
L 185.364775 234.732706 
L 185.960399 235.755953 
L 186.556022 229.616471 
L 187.151646 234.093176 
L 187.747269 233.837365 
L 188.342893 231.535059 
L 188.938516 234.476894 
L 189.53414 231.790871 
L 190.129763 233.069929 
L 190.725387 232.686212 
L 191.32101 232.942024 
L 191.916634 234.988518 
L 192.512258 232.686212 
L 193.107881 235.755953 
L 193.703505 232.942024 
L 194.299128 234.476894 
L 194.894752 232.174588 
L 195.490375 233.581553 
L 196.085999 233.581553 
L 196.681622 230.767624 
L 197.277246 232.814118 
L 197.87287 232.686212 
L 198.468493 234.476894 
L 199.064117 234.221082 
L 199.65974 231.918776 
L 200.850987 234.860612 
L 201.446611 234.093176 
L 202.042234 234.348988 
L 202.637858 232.174588 
L 203.233482 232.302494 
L 203.829105 232.174588 
L 204.424729 234.6048 
L 205.020352 233.581553 
L 205.615976 236.139671 
L 206.807223 230.000188 
L 207.402846 230.000188 
L 207.99847 233.709459 
L 208.594094 233.197835 
L 209.189717 232.942024 
L 209.785341 232.814118 
L 210.380964 232.302494 
L 210.976588 232.302494 
L 211.572211 232.4304 
L 212.167835 234.093176 
L 212.763458 229.744376 
L 213.359082 232.046682 
L 213.954706 231.918776 
L 214.550329 233.709459 
L 215.145953 234.093176 
L 215.741576 233.581553 
L 216.932823 234.732706 
L 217.528447 231.918776 
L 218.12407 234.221082 
L 218.719694 233.325741 
L 219.315318 231.790871 
L 219.910941 234.988518 
L 220.506565 232.814118 
L 221.697812 233.069929 
L 222.293435 233.453647 
L 222.889059 230.128094 
L 223.484682 233.837365 
L 224.080306 232.686212 
L 224.67593 232.174588 
L 225.271553 232.814118 
L 225.867177 234.221082 
L 226.4628 232.558306 
L 227.058424 232.942024 
L 227.654047 232.686212 
L 228.249671 228.721129 
L 228.845294 234.348988 
L 229.440918 234.860612 
L 230.036542 233.581553 
L 230.632165 233.069929 
L 231.227789 233.069929 
L 231.823412 230.383906 
L 232.419036 232.4304 
L 233.014659 232.814118 
L 233.610283 230.511812 
L 234.205906 227.058353 
L 234.80153 226.546729 
L 235.397154 227.058353 
L 235.992777 222.325835 
L 236.588401 221.174682 
L 237.184024 224.756047 
L 237.779648 223.7328 
L 238.375271 224.628141 
L 238.970895 223.093271 
L 239.566518 224.500235 
L 240.162142 228.593224 
L 240.757766 230.767624 
L 241.353389 230.511812 
L 241.949013 230.895529 
L 242.544636 233.709459 
L 243.14026 233.069929 
L 243.735883 229.872282 
L 244.331507 234.221082 
L 244.92713 230.511812 
L 245.522754 233.965271 
L 246.118378 232.558306 
L 246.714001 232.558306 
L 247.309625 231.279247 
L 247.905248 234.221082 
L 249.096495 230.128094 
L 249.692119 230.511812 
L 250.287742 226.674635 
L 251.47899 222.965365 
L 252.074613 224.116518 
L 252.670237 214.139859 
L 253.26586 213.500329 
L 254.457107 210.558494 
L 255.052731 210.558494 
L 255.648354 208.512 
L 256.243978 209.535247 
L 256.839601 207.616659 
L 257.435225 209.279435 
L 258.030849 210.430588 
L 258.626472 205.442259 
L 259.222096 207.616659 
L 259.817719 208.639906 
L 260.413343 203.012047 
L 261.008966 214.139859 
L 261.60459 215.163106 
L 262.200213 214.523576 
L 262.795837 215.930541 
L 263.391461 216.314259 
L 263.987084 218.360753 
L 264.582708 224.628141 
L 265.178331 225.651388 
L 265.773955 227.186259 
L 266.369578 227.953694 
L 266.965202 232.4304 
L 268.156449 229.872282 
L 268.752073 230.383906 
L 269.347696 232.174588 
L 269.94332 231.662965 
L 270.538943 232.686212 
L 271.134567 235.628047 
L 271.73019 232.686212 
L 272.325814 231.151341 
L 272.921437 233.965271 
L 273.517061 233.965271 
L 274.112685 232.302494 
L 275.303932 232.558306 
L 275.899555 234.348988 
L 276.495179 231.918776 
L 277.090802 234.860612 
L 277.686426 236.523388 
L 278.282049 234.093176 
L 278.877673 232.4304 
L 279.473297 231.918776 
L 280.06892 232.174588 
L 280.664544 233.453647 
L 281.260167 235.628047 
L 282.451414 233.453647 
L 283.047038 233.709459 
L 283.642661 232.4304 
L 284.238285 232.302494 
L 284.833909 234.732706 
L 285.429532 231.023435 
L 286.025156 232.174588 
L 286.620779 233.837365 
L 287.216403 232.814118 
L 287.812026 236.139671 
L 288.40765 232.302494 
L 289.003273 235.755953 
L 289.598897 232.302494 
L 290.194521 232.174588 
L 290.790144 234.860612 
L 291.385768 230.639718 
L 291.981391 232.302494 
L 292.577015 232.174588 
L 293.172638 234.860612 
L 293.768262 230.639718 
L 294.363885 233.325741 
L 294.959509 233.069929 
L 295.555133 232.302494 
L 296.150756 234.093176 
L 296.74638 231.790871 
L 297.342003 235.755953 
L 297.937627 234.860612 
L 298.53325 236.395482 
L 299.128874 234.093176 
L 299.724497 236.395482 
L 300.320121 234.6048 
L 301.511368 234.348988 
L 302.106992 231.662965 
L 302.702615 234.6048 
L 303.298239 234.221082 
L 303.893862 232.302494 
L 304.489486 232.302494 
L 305.085109 231.918776 
L 305.680733 233.709459 
L 306.276357 232.942024 
L 306.87198 231.407153 
L 307.467604 232.942024 
L 308.063227 232.942024 
L 309.254474 232.174588 
L 309.850098 234.093176 
L 310.445721 233.197835 
L 311.041345 231.918776 
L 311.636969 233.965271 
L 312.232592 232.558306 
L 312.828216 233.197835 
L 313.423839 233.453647 
L 314.019463 231.662965 
L 314.615086 234.860612 
L 315.21071 230.000188 
L 315.806333 234.476894 
L 316.401957 232.4304 
L 316.997581 231.662965 
L 317.593204 233.325741 
L 318.188828 232.942024 
L 318.784451 231.918776 
L 319.380075 236.139671 
L 319.975698 231.790871 
L 320.571322 234.221082 
L 321.166945 232.686212 
L 321.762569 232.686212 
L 322.358192 233.453647 
L 322.953816 231.535059 
L 323.54944 234.476894 
L 324.145063 230.511812 
L 324.740687 234.221082 
L 325.33631 233.197835 
L 325.931934 230.000188 
L 326.527557 232.302494 
L 327.123181 231.151341 
L 327.718804 232.174588 
L 328.314428 233.965271 
L 328.910052 232.686212 
L 330.101299 235.116424 
L 330.696922 232.174588 
L 331.292546 233.581553 
L 331.888169 232.814118 
L 332.483793 234.732706 
L 333.079416 233.453647 
L 333.67504 233.197835 
L 334.270664 232.686212 
L 334.866287 234.6048 
L 335.461911 233.197835 
L 336.057534 233.709459 
L 336.653158 231.662965 
L 337.248781 232.942024 
L 337.844405 232.686212 
L 338.440028 234.476894 
L 339.035652 233.069929 
L 339.631276 235.116424 
L 340.226899 234.093176 
L 340.822523 230.000188 
L 341.418146 233.581553 
L 342.01377 231.662965 
L 343.205017 233.837365 
L 343.80064 232.942024 
L 344.396264 229.872282 
L 344.991888 234.348988 
L 345.587511 232.558306 
L 346.183135 234.6048 
L 346.778758 234.860612 
L 347.374382 233.837365 
L 347.970005 233.581553 
L 348.565629 231.407153 
L 349.161252 234.221082 
L 349.756876 232.686212 
L 350.3525 234.732706 
L 350.948123 232.302494 
L 351.543747 232.174588 
L 352.13937 233.453647 
L 352.734994 235.372235 
L 353.330617 234.221082 
L 353.926241 236.139671 
L 354.521864 235.116424 
L 355.117488 232.174588 
L 355.713112 232.942024 
L 356.308735 232.686212 
L 356.904359 232.814118 
L 357.499982 233.197835 
L 358.095606 233.837365 
L 359.286853 229.872282 
L 359.882476 232.942024 
L 360.4781 230.256 
L 361.073724 232.302494 
L 361.669347 232.302494 
L 362.264971 232.4304 
L 362.860594 234.732706 
L 363.456218 234.732706 
L 364.051841 232.942024 
L 364.647465 235.755953 
L 365.243088 234.860612 
L 365.838712 233.581553 
L 366.434336 233.837365 
L 367.029959 233.581553 
L 367.625583 230.256 
L 368.221206 234.093176 
L 368.81683 234.732706 
L 369.412453 234.732706 
L 370.008077 234.221082 
L 370.6037 233.965271 
L 371.199324 230.767624 
L 371.794948 232.558306 
L 372.390571 235.244329 
L 372.986195 233.709459 
L 373.581818 236.395482 
L 373.581818 236.395482 
" clip-path="url(#pc096174a62)" style="fill: none; stroke: #1f77b4; stroke-width: 1.5; stroke-linecap: square"/>
   </g>
   <g id="line2d_32">
    <path d="M 69.218182 201.349271 
L 69.813805 200.581835 
L 70.409429 200.709741 
L 71.005052 204.1632 
L 71.600676 202.884141 
L 72.1963 200.453929 
L 72.791923 205.058541 
L 73.387547 200.709741 
L 73.98317 201.9888 
L 74.578794 197.512094 
L 75.174417 199.558588 
L 75.770041 201.093459 
L 76.365664 193.035388 
L 76.961288 196.744659 
L 77.556912 197.512094 
L 78.152535 199.8144 
L 78.748159 196.616753 
L 79.343782 203.395765 
L 79.939406 202.372518 
L 80.535029 203.523671 
L 81.130653 199.302776 
L 81.726276 201.349271 
L 82.3219 199.174871 
L 82.917524 198.535341 
L 83.513147 195.849318 
L 84.108771 196.360941 
L 84.704394 196.233035 
L 85.300018 196.744659 
L 85.895641 201.349271 
L 86.491265 199.8144 
L 87.086888 201.349271 
L 87.682512 199.046965 
L 88.278136 202.244612 
L 88.873759 198.663247 
L 89.469383 197.128376 
L 90.065006 198.663247 
L 90.66063 198.279529 
L 91.256253 200.070212 
L 91.851877 198.535341 
L 92.4475 199.558588 
L 93.043124 201.221365 
L 93.638748 197.256282 
L 94.234371 201.732988 
L 94.829995 203.651576 
L 95.425618 204.035294 
L 96.021242 194.826071 
L 96.616865 206.081788 
L 97.212489 199.686494 
L 97.808112 199.302776 
L 98.403736 200.709741 
L 98.99936 199.430682 
L 99.594983 199.046965 
L 100.190607 200.709741 
L 100.78623 200.965553 
L 101.381854 201.860894 
L 101.977477 203.395765 
L 102.573101 200.198118 
L 103.168724 204.1632 
L 103.764348 197.767906 
L 104.359972 199.558588 
L 104.955595 199.046965 
L 105.551219 199.430682 
L 106.146842 197.767906 
L 106.742466 200.837647 
L 107.338089 196.872565 
L 107.933713 199.686494 
L 108.529336 201.221365 
L 109.12496 201.9888 
L 109.720584 199.046965 
L 110.316207 207.872471 
L 110.911831 198.535341 
L 111.507454 198.535341 
L 112.103078 204.546918 
L 112.698701 200.326024 
L 113.294325 201.732988 
L 113.889948 199.8144 
L 114.485572 199.8144 
L 115.081196 199.174871 
L 115.676819 201.860894 
L 116.272443 199.558588 
L 116.868066 201.477176 
L 117.46369 201.349271 
L 118.059313 199.558588 
L 118.654937 204.291106 
L 119.25056 202.500424 
L 119.846184 204.035294 
L 120.441808 197.767906 
L 121.037431 201.349271 
L 121.633055 198.407435 
L 122.228678 198.279529 
L 122.824302 199.942306 
L 123.419925 197.64 
L 124.015549 201.221365 
L 124.611172 200.453929 
L 125.206796 199.046965 
L 125.802419 198.919059 
L 126.398043 204.1632 
L 126.993667 194.826071 
L 127.58929 198.023718 
L 128.184914 202.500424 
L 128.780537 203.395765 
L 129.971784 198.407435 
L 130.567408 198.023718 
L 131.163031 198.919059 
L 131.758655 200.198118 
L 132.354279 206.849224 
L 132.949902 201.349271 
L 133.545526 199.942306 
L 134.141149 203.523671 
L 134.736773 196.616753 
L 135.332396 203.651576 
L 135.92802 202.756235 
L 136.523643 203.651576 
L 137.119267 200.326024 
L 137.714891 197.64 
L 138.310514 198.663247 
L 138.906138 201.093459 
L 139.501761 202.116706 
L 140.097385 199.046965 
L 140.693008 200.070212 
L 141.288632 199.430682 
L 141.884255 200.198118 
L 142.479879 198.663247 
L 143.075503 201.477176 
L 143.671126 198.919059 
L 144.26675 194.698165 
L 144.862373 202.116706 
L 145.457997 204.1632 
L 146.05362 202.884141 
L 146.649244 199.302776 
L 147.244867 198.279529 
L 147.840491 201.349271 
L 148.436115 200.198118 
L 149.627362 207.105035 
L 150.818609 198.023718 
L 151.414232 202.244612 
L 152.009856 198.663247 
L 152.605479 201.349271 
L 153.201103 198.279529 
L 153.796727 200.198118 
L 154.39235 195.4656 
L 154.987974 200.837647 
L 155.583597 202.884141 
L 156.179221 194.186541 
L 156.774844 201.477176 
L 157.370468 199.558588 
L 157.966091 199.558588 
L 158.561715 197.767906 
L 159.157339 201.349271 
L 159.752962 197.64 
L 160.348586 202.500424 
L 160.944209 199.430682 
L 161.539833 199.302776 
L 162.135456 199.686494 
L 162.73108 199.046965 
L 163.326703 199.302776 
L 163.922327 198.663247 
L 164.517951 199.174871 
L 165.113574 204.930635 
L 166.304821 196.744659 
L 166.900445 197.767906 
L 167.496068 201.9888 
L 168.091692 198.919059 
L 168.687315 204.674824 
L 169.282939 199.8144 
L 169.878563 198.919059 
L 170.474186 198.919059 
L 171.06981 201.349271 
L 171.665433 196.488847 
L 172.261057 195.849318 
L 172.85668 196.488847 
L 173.452304 205.825976 
L 174.047927 197.128376 
L 174.643551 200.198118 
L 175.239175 192.395859 
L 175.834798 188.302871 
L 176.430422 187.151718 
L 177.621669 178.582024 
L 178.217292 177.686682 
L 178.812916 168.733271 
L 179.408539 164.768188 
L 180.004163 167.1984 
L 180.599787 174.616941 
L 181.19541 174.105318 
L 181.791034 171.419294 
L 182.386657 177.686682 
L 182.982281 178.454118 
L 184.173528 186.768 
L 184.769151 192.140047 
L 185.960399 200.198118 
L 186.556022 195.209788 
L 187.747269 201.605082 
L 188.342893 200.326024 
L 188.938516 201.477176 
L 190.129763 196.105129 
L 190.725387 197.767906 
L 191.32101 195.849318 
L 191.916634 194.570259 
L 192.512258 187.279624 
L 193.107881 181.523859 
L 193.703505 179.861082 
L 194.299128 164.128659 
L 194.894752 166.686776 
L 195.490375 157.861271 
L 196.085999 140.210259 
L 196.681622 137.268424 
L 197.277246 138.9312 
L 197.87287 121.919718 
L 198.468493 126.268518 
L 199.65974 126.524329 
L 200.255364 126.012706 
L 200.850987 127.419671 
L 201.446611 122.687153 
L 202.042234 130.873129 
L 202.637858 127.035953 
L 203.233482 128.315012 
L 203.829105 133.431247 
L 204.424729 128.315012 
L 205.020352 129.594071 
L 205.615976 143.663718 
L 206.211599 147.117176 
L 206.807223 159.779859 
L 207.402846 163.617035 
L 208.594094 188.558682 
L 209.189717 182.291294 
L 209.785341 191.884235 
L 210.380964 193.547012 
L 210.976588 196.488847 
L 211.572211 195.4656 
L 212.167835 199.302776 
L 212.763458 199.046965 
L 213.359082 196.616753 
L 213.954706 199.302776 
L 214.550329 197.000471 
L 215.145953 201.093459 
L 215.741576 198.151624 
L 216.3372 201.9888 
L 216.932823 207.744565 
L 217.528447 203.395765 
L 218.12407 197.512094 
L 218.719694 208.512 
L 219.315318 197.895812 
L 219.910941 201.9888 
L 220.506565 198.023718 
L 221.102188 202.756235 
L 221.697812 201.093459 
L 222.293435 198.023718 
L 222.889059 197.895812 
L 223.484682 200.581835 
L 224.080306 200.453929 
L 224.67593 197.512094 
L 225.271553 201.221365 
L 225.867177 199.046965 
L 226.4628 200.453929 
L 227.058424 196.744659 
L 227.654047 195.593506 
L 228.249671 201.605082 
L 228.845294 197.256282 
L 229.440918 196.233035 
L 230.036542 198.023718 
L 230.632165 202.884141 
L 231.227789 199.942306 
L 231.823412 198.279529 
L 232.419036 200.453929 
L 233.014659 196.616753 
L 233.610283 197.512094 
L 234.205906 206.3376 
L 234.80153 200.709741 
L 235.397154 201.9888 
L 235.992777 198.663247 
L 236.588401 199.302776 
L 237.184024 199.558588 
L 237.779648 200.070212 
L 238.375271 199.8144 
L 238.970895 199.302776 
L 239.566518 198.279529 
L 240.162142 196.872565 
L 240.757766 196.105129 
L 241.353389 203.012047 
L 241.949013 203.139953 
L 242.544636 196.744659 
L 243.735883 197.767906 
L 244.92713 201.732988 
L 245.522754 202.244612 
L 246.118378 199.558588 
L 246.714001 199.942306 
L 247.309625 202.244612 
L 247.905248 198.535341 
L 248.500872 200.581835 
L 249.096495 198.791153 
L 249.692119 201.732988 
L 250.287742 202.244612 
L 250.883366 199.174871 
L 251.47899 198.407435 
L 252.074613 198.919059 
L 252.670237 196.744659 
L 253.26586 197.895812 
L 253.861484 198.535341 
L 254.457107 198.919059 
L 255.052731 201.093459 
L 255.648354 201.605082 
L 256.243978 199.046965 
L 256.839601 198.279529 
L 257.435225 196.233035 
L 258.030849 199.686494 
L 258.626472 198.023718 
L 259.222096 200.070212 
L 259.817719 200.837647 
L 260.413343 198.791153 
L 261.008966 198.535341 
L 261.60459 196.872565 
L 262.200213 197.64 
L 262.795837 196.488847 
L 263.391461 203.523671 
L 263.987084 205.698071 
L 264.582708 203.139953 
L 265.178331 201.221365 
L 265.773955 202.628329 
L 266.965202 197.128376 
L 267.560825 202.244612 
L 268.156449 199.302776 
L 268.752073 206.3376 
L 269.347696 200.965553 
L 269.94332 199.430682 
L 270.538943 201.860894 
L 271.134567 197.512094 
L 271.73019 205.058541 
L 272.325814 202.500424 
L 272.921437 198.535341 
L 273.517061 199.430682 
L 274.112685 203.012047 
L 274.708308 198.663247 
L 275.303932 198.535341 
L 275.899555 199.302776 
L 276.495179 202.372518 
L 277.090802 204.291106 
L 277.686426 198.407435 
L 278.282049 198.023718 
L 278.877673 195.849318 
L 279.473297 201.221365 
L 280.06892 196.233035 
L 280.664544 197.895812 
L 281.260167 200.965553 
L 281.855791 197.512094 
L 282.451414 201.732988 
L 283.047038 199.686494 
L 283.642661 195.4656 
L 284.238285 202.884141 
L 284.833909 198.407435 
L 285.429532 197.384188 
L 286.025156 198.151624 
L 286.620779 199.430682 
L 287.216403 204.035294 
L 287.812026 197.895812 
L 288.40765 203.139953 
L 289.003273 199.558588 
L 289.598897 199.558588 
L 290.194521 199.046965 
L 290.790144 208.384094 
L 291.385768 201.093459 
L 291.981391 204.930635 
L 292.577015 199.558588 
L 293.172638 197.384188 
L 293.768262 197.64 
L 294.363885 201.477176 
L 294.959509 199.302776 
L 295.555133 202.500424 
L 296.150756 200.070212 
L 296.74638 202.244612 
L 297.342003 205.825976 
L 297.937627 198.663247 
L 298.53325 205.186447 
L 299.128874 199.302776 
L 299.724497 198.791153 
L 300.320121 202.628329 
L 300.915745 199.430682 
L 301.511368 201.605082 
L 302.106992 201.349271 
L 302.702615 200.837647 
L 303.893862 195.721412 
L 304.489486 204.802729 
L 305.680733 199.942306 
L 306.276357 198.151624 
L 306.87198 200.198118 
L 307.467604 199.686494 
L 308.063227 201.221365 
L 308.658851 200.326024 
L 309.254474 201.860894 
L 309.850098 203.779482 
L 310.445721 199.558588 
L 311.041345 197.128376 
L 311.636969 200.581835 
L 312.232592 198.023718 
L 312.828216 196.105129 
L 313.423839 199.942306 
L 314.019463 200.070212 
L 314.615086 202.116706 
L 315.21071 199.8144 
L 315.806333 199.174871 
L 316.401957 198.023718 
L 316.997581 203.523671 
L 317.593204 202.884141 
L 318.188828 198.791153 
L 318.784451 199.942306 
L 319.380075 194.186541 
L 319.975698 198.663247 
L 320.571322 201.860894 
L 321.166945 198.023718 
L 321.762569 202.756235 
L 322.358192 200.837647 
L 322.953816 198.407435 
L 323.54944 200.837647 
L 324.145063 199.8144 
L 324.740687 201.732988 
L 325.33631 205.570165 
L 325.931934 198.407435 
L 326.527557 197.000471 
L 327.123181 200.070212 
L 327.718804 200.070212 
L 328.314428 197.384188 
L 328.910052 200.453929 
L 329.505675 205.058541 
L 330.101299 203.267859 
L 330.696922 197.256282 
L 331.292546 196.872565 
L 332.483793 205.953882 
L 333.079416 198.919059 
L 333.67504 204.930635 
L 334.270664 200.709741 
L 334.866287 200.198118 
L 335.461911 200.837647 
L 336.057534 202.244612 
L 336.653158 205.186447 
L 337.248781 195.081882 
L 337.844405 203.779482 
L 338.440028 198.919059 
L 339.035652 196.233035 
L 339.631276 198.279529 
L 340.226899 199.686494 
L 340.822523 202.756235 
L 341.418146 201.221365 
L 342.01377 201.860894 
L 342.609393 197.384188 
L 343.80064 199.302776 
L 344.396264 199.046965 
L 344.991888 203.395765 
L 345.587511 198.023718 
L 346.183135 201.093459 
L 346.778758 205.186447 
L 347.374382 202.116706 
L 347.970005 204.546918 
L 348.565629 202.244612 
L 349.756876 199.046965 
L 350.3525 204.1632 
L 350.948123 203.267859 
L 351.543747 198.151624 
L 352.13937 203.779482 
L 352.734994 202.756235 
L 353.330617 200.581835 
L 353.926241 193.163294 
L 354.521864 197.895812 
L 355.117488 200.326024 
L 355.713112 200.837647 
L 356.308735 199.942306 
L 356.904359 200.837647 
L 357.499982 198.791153 
L 358.095606 202.116706 
L 358.691229 196.744659 
L 359.286853 202.756235 
L 359.882476 205.698071 
L 360.4781 199.430682 
L 361.073724 199.558588 
L 361.669347 199.430682 
L 362.264971 201.860894 
L 362.860594 195.593506 
L 363.456218 200.453929 
L 364.051841 199.8144 
L 364.647465 199.558588 
L 365.243088 198.535341 
L 365.838712 197.256282 
L 366.434336 200.453929 
L 367.029959 198.151624 
L 367.625583 194.826071 
L 368.221206 196.744659 
L 368.81683 200.070212 
L 369.412453 201.9888 
L 370.008077 198.791153 
L 370.6037 194.698165 
L 371.199324 201.349271 
L 371.794948 199.686494 
L 372.390571 203.267859 
L 372.986195 200.453929 
L 373.581818 204.1632 
L 373.581818 204.1632 
" clip-path="url(#pc096174a62)" style="fill: none; stroke: #ff7f0e; stroke-width: 1.5; stroke-linecap: square"/>
   </g>
   <g id="line2d_33">
    <path d="M 69.218182 246.372141 
L 69.813805 245.604706 
L 70.409429 245.988424 
L 71.005052 247.395388 
L 71.600676 246.244235 
L 72.1963 246.244235 
L 72.791923 247.139576 
L 73.387547 245.732612 
L 73.98317 246.244235 
L 74.578794 245.732612 
L 75.174417 246.244235 
L 75.770041 247.779106 
L 76.365664 245.988424 
L 76.961288 244.837271 
L 77.556912 245.093082 
L 78.748159 246.627953 
L 79.343782 244.453553 
L 79.939406 246.244235 
L 81.130653 245.604706 
L 81.726276 247.011671 
L 82.3219 245.220988 
L 82.917524 245.988424 
L 83.513147 246.500047 
L 84.108771 246.500047 
L 84.704394 246.627953 
L 85.300018 245.860518 
L 86.491265 246.755859 
L 87.086888 246.116329 
L 87.682512 245.093082 
L 88.873759 246.500047 
L 89.469383 246.372141 
L 90.065006 246.755859 
L 90.66063 245.220988 
L 91.256253 246.500047 
L 91.851877 246.372141 
L 92.4475 245.988424 
L 93.043124 245.988424 
L 93.638748 246.627953 
L 94.234371 246.883765 
L 94.829995 245.604706 
L 95.425618 246.500047 
L 96.021242 244.965176 
L 96.616865 245.4768 
L 97.212489 246.627953 
L 97.808112 246.883765 
L 98.403736 244.325647 
L 98.99936 247.011671 
L 99.594983 246.883765 
L 100.190607 245.4768 
L 100.78623 246.244235 
L 101.381854 245.348894 
L 101.977477 244.837271 
L 102.573101 245.732612 
L 103.168724 247.6512 
L 103.764348 246.883765 
L 104.359972 244.965176 
L 104.955595 245.348894 
L 105.551219 246.244235 
L 106.146842 245.604706 
L 106.742466 246.116329 
L 107.338089 245.604706 
L 107.933713 245.732612 
L 108.529336 247.267482 
L 109.12496 244.453553 
L 109.720584 247.011671 
L 110.316207 245.988424 
L 110.911831 243.686118 
L 111.507454 245.860518 
L 112.103078 246.116329 
L 112.698701 245.988424 
L 113.294325 245.988424 
L 113.889948 245.732612 
L 114.485572 245.604706 
L 115.081196 246.627953 
L 115.676819 247.011671 
L 116.272443 245.988424 
L 116.868066 245.604706 
L 117.46369 245.4768 
L 118.059313 246.244235 
L 118.654937 245.348894 
L 119.25056 246.500047 
L 119.846184 246.627953 
L 120.441808 244.453553 
L 121.037431 246.755859 
L 121.633055 245.988424 
L 122.228678 247.139576 
L 122.824302 244.197741 
L 123.419925 247.139576 
L 124.015549 246.755859 
L 124.611172 246.627953 
L 125.206796 244.197741 
L 125.802419 245.988424 
L 126.398043 246.627953 
L 126.993667 245.732612 
L 128.184914 246.883765 
L 128.780537 245.093082 
L 129.376161 246.755859 
L 129.971784 246.627953 
L 130.567408 245.348894 
L 131.163031 245.4768 
L 131.758655 245.093082 
L 132.354279 247.523294 
L 132.949902 245.348894 
L 133.545526 246.116329 
L 134.141149 246.372141 
L 134.736773 245.604706 
L 135.332396 246.500047 
L 135.92802 247.139576 
L 136.523643 244.965176 
L 137.119267 247.523294 
L 137.714891 245.093082 
L 138.310514 246.500047 
L 138.906138 244.197741 
L 139.501761 245.4768 
L 140.097385 245.732612 
L 140.693008 245.093082 
L 141.288632 246.372141 
L 141.884255 244.965176 
L 142.479879 245.604706 
L 143.075503 246.627953 
L 143.671126 245.348894 
L 144.26675 246.372141 
L 144.862373 244.837271 
L 145.457997 244.453553 
L 146.05362 245.604706 
L 146.649244 245.604706 
L 147.244867 247.139576 
L 147.840491 245.732612 
L 148.436115 245.860518 
L 149.031738 246.116329 
L 149.627362 245.988424 
L 150.222985 244.965176 
L 150.818609 246.116329 
L 152.605479 245.093082 
L 153.201103 246.244235 
L 153.796727 244.069835 
L 154.39235 247.011671 
L 154.987974 246.244235 
L 155.583597 247.267482 
L 156.179221 246.372141 
L 156.774844 246.116329 
L 157.370468 244.709365 
L 157.966091 245.860518 
L 158.561715 246.755859 
L 159.157339 245.4768 
L 159.752962 246.372141 
L 160.348586 245.348894 
L 160.944209 246.755859 
L 161.539833 245.604706 
L 162.135456 244.965176 
L 162.73108 244.581459 
L 163.326703 244.837271 
L 163.922327 245.860518 
L 164.517951 244.581459 
L 165.113574 245.4768 
L 165.709198 245.860518 
L 166.304821 244.709365 
L 166.900445 245.732612 
L 167.496068 245.860518 
L 168.687315 246.372141 
L 169.282939 244.453553 
L 169.878563 246.755859 
L 170.474186 247.267482 
L 171.06981 245.220988 
L 171.665433 246.372141 
L 172.261057 245.348894 
L 172.85668 246.500047 
L 173.452304 245.348894 
L 174.047927 245.348894 
L 174.643551 245.220988 
L 175.239175 245.988424 
L 175.834798 247.139576 
L 176.430422 245.220988 
L 177.026045 245.860518 
L 177.621669 245.348894 
L 178.812916 246.500047 
L 179.408539 245.4768 
L 180.004163 246.244235 
L 180.599787 244.965176 
L 181.19541 246.244235 
L 182.386657 245.093082 
L 182.982281 243.941929 
L 183.577904 245.604706 
L 184.173528 245.220988 
L 184.769151 246.627953 
L 185.364775 246.116329 
L 185.960399 247.011671 
L 186.556022 245.220988 
L 187.151646 246.500047 
L 187.747269 246.883765 
L 188.342893 245.604706 
L 188.938516 246.116329 
L 189.53414 243.3024 
L 190.129763 246.116329 
L 190.725387 247.6512 
L 191.32101 245.732612 
L 191.916634 245.348894 
L 192.512258 243.558212 
L 193.107881 243.814024 
L 193.703505 245.988424 
L 194.299128 245.732612 
L 194.894752 246.627953 
L 195.490375 245.860518 
L 196.085999 245.860518 
L 196.681622 245.093082 
L 197.277246 246.627953 
L 197.87287 245.348894 
L 198.468493 244.709365 
L 199.064117 246.627953 
L 199.65974 246.372141 
L 200.850987 245.732612 
L 201.446611 247.011671 
L 202.042234 246.372141 
L 202.637858 245.220988 
L 203.233482 245.732612 
L 203.829105 245.860518 
L 204.424729 245.732612 
L 205.020352 245.4768 
L 206.211599 246.372141 
L 206.807223 246.116329 
L 207.402846 244.453553 
L 207.99847 246.244235 
L 208.594094 245.4768 
L 209.189717 243.558212 
L 209.785341 246.372141 
L 210.380964 245.4768 
L 210.976588 245.860518 
L 211.572211 244.197741 
L 212.167835 243.046588 
L 212.763458 244.581459 
L 213.359082 243.430306 
L 213.954706 245.860518 
L 214.550329 243.430306 
L 215.145953 243.814024 
L 215.741576 242.407059 
L 216.3372 243.3024 
L 216.932823 245.093082 
L 217.528447 246.372141 
L 218.12407 246.244235 
L 218.719694 245.093082 
L 219.315318 243.686118 
L 219.910941 245.348894 
L 220.506565 247.779106 
L 221.102188 247.139576 
L 221.697812 245.604706 
L 222.293435 246.244235 
L 222.889059 246.500047 
L 223.484682 245.988424 
L 224.67593 244.069835 
L 225.271553 245.860518 
L 225.867177 242.918682 
L 226.4628 243.686118 
L 227.058424 242.151247 
L 227.654047 243.3024 
L 228.249671 241.255906 
L 228.845294 241.639624 
L 229.440918 240.872188 
L 230.036542 238.9536 
L 231.227789 240.360565 
L 231.823412 242.790776 
L 232.419036 239.593129 
L 233.610283 241.255906 
L 234.205906 240.104753 
L 234.80153 241.639624 
L 235.397154 241.511718 
L 235.992777 241.000094 
L 236.588401 239.848941 
L 237.184024 240.488471 
L 238.375271 243.558212 
L 238.970895 244.325647 
L 239.566518 240.360565 
L 240.162142 243.941929 
L 240.757766 244.581459 
L 241.353389 245.860518 
L 241.949013 245.860518 
L 242.544636 245.093082 
L 243.14026 245.4768 
L 243.735883 245.4768 
L 244.331507 244.965176 
L 244.92713 244.069835 
L 245.522754 247.011671 
L 246.118378 246.372141 
L 246.714001 246.627953 
L 247.309625 244.965176 
L 247.905248 244.453553 
L 248.500872 246.500047 
L 249.096495 246.372141 
L 249.692119 246.627953 
L 250.287742 247.139576 
L 250.883366 244.453553 
L 251.47899 245.732612 
L 252.074613 245.988424 
L 252.670237 246.883765 
L 253.26586 245.604706 
L 253.861484 246.500047 
L 254.457107 246.627953 
L 255.052731 245.988424 
L 255.648354 246.500047 
L 256.243978 244.965176 
L 256.839601 244.581459 
L 257.435225 246.372141 
L 258.030849 244.325647 
L 258.626472 245.604706 
L 259.222096 246.244235 
L 259.817719 245.988424 
L 260.413343 246.244235 
L 261.008966 246.116329 
L 261.60459 244.325647 
L 262.200213 246.116329 
L 262.795837 246.755859 
L 263.987084 245.348894 
L 264.582708 245.860518 
L 265.178331 245.604706 
L 266.369578 246.372141 
L 267.560825 247.523294 
L 268.156449 245.604706 
L 268.752073 247.267482 
L 269.347696 243.814024 
L 269.94332 245.220988 
L 270.538943 247.523294 
L 271.134567 245.604706 
L 271.73019 246.372141 
L 272.325814 245.348894 
L 272.921437 244.965176 
L 273.517061 248.034918 
L 274.112685 243.814024 
L 274.708308 244.453553 
L 275.303932 245.988424 
L 276.495179 246.500047 
L 277.090802 245.988424 
L 277.686426 246.116329 
L 278.282049 245.348894 
L 278.877673 247.267482 
L 279.473297 245.220988 
L 280.06892 247.139576 
L 280.664544 243.3024 
L 281.260167 246.883765 
L 281.855791 245.988424 
L 282.451414 246.500047 
L 283.047038 243.686118 
L 283.642661 246.372141 
L 284.238285 244.965176 
L 284.833909 246.755859 
L 285.429532 244.837271 
L 286.025156 245.348894 
L 286.620779 244.581459 
L 287.216403 247.523294 
L 287.812026 246.500047 
L 288.40765 243.941929 
L 289.003273 244.837271 
L 289.598897 245.220988 
L 290.194521 245.220988 
L 290.790144 246.116329 
L 291.385768 244.965176 
L 291.981391 246.500047 
L 292.577015 245.220988 
L 293.172638 245.348894 
L 293.768262 245.860518 
L 294.363885 244.453553 
L 294.959509 244.965176 
L 295.555133 247.139576 
L 296.150756 244.453553 
L 296.74638 247.011671 
L 297.342003 245.732612 
L 297.937627 245.732612 
L 298.53325 245.4768 
L 299.128874 244.581459 
L 299.724497 246.627953 
L 300.320121 244.709365 
L 300.915745 246.500047 
L 302.106992 246.755859 
L 302.702615 245.348894 
L 303.298239 246.116329 
L 303.893862 248.418635 
L 304.489486 245.860518 
L 305.085109 245.860518 
L 305.680733 244.965176 
L 306.276357 246.883765 
L 307.467604 244.965176 
L 308.063227 245.348894 
L 308.658851 244.837271 
L 309.254474 245.4768 
L 309.850098 247.907012 
L 310.445721 246.627953 
L 311.041345 244.965176 
L 311.636969 246.244235 
L 312.232592 243.941929 
L 313.423839 245.732612 
L 314.019463 245.4768 
L 314.615086 246.244235 
L 315.21071 246.372141 
L 315.806333 244.069835 
L 316.997581 246.244235 
L 317.593204 244.837271 
L 318.188828 246.116329 
L 318.784451 244.581459 
L 319.380075 244.197741 
L 319.975698 246.116329 
L 320.571322 244.965176 
L 321.166945 246.372141 
L 321.762569 245.604706 
L 322.358192 244.197741 
L 322.953816 245.732612 
L 323.54944 244.837271 
L 324.145063 246.116329 
L 324.740687 246.372141 
L 325.33631 243.814024 
L 325.931934 244.709365 
L 326.527557 246.627953 
L 327.123181 246.500047 
L 327.718804 246.627953 
L 328.314428 243.3024 
L 328.910052 244.709365 
L 329.505675 244.453553 
L 330.101299 245.988424 
L 330.696922 245.988424 
L 331.292546 245.604706 
L 331.888169 246.755859 
L 332.483793 243.046588 
L 333.079416 244.325647 
L 333.67504 246.116329 
L 334.270664 247.011671 
L 334.866287 245.604706 
L 335.461911 245.988424 
L 336.057534 245.220988 
L 336.653158 247.6512 
L 337.248781 244.709365 
L 337.844405 246.244235 
L 338.440028 244.581459 
L 339.035652 246.627953 
L 339.631276 247.011671 
L 340.226899 245.348894 
L 340.822523 245.732612 
L 341.418146 245.348894 
L 342.609393 246.755859 
L 343.205017 245.4768 
L 343.80064 246.116329 
L 344.396264 244.837271 
L 344.991888 246.627953 
L 346.183135 243.174494 
L 346.778758 245.220988 
L 347.374382 246.244235 
L 347.970005 245.220988 
L 349.161252 246.116329 
L 349.756876 245.988424 
L 350.3525 245.732612 
L 350.948123 245.988424 
L 351.543747 245.220988 
L 352.13937 246.883765 
L 352.734994 245.732612 
L 353.330617 245.220988 
L 353.926241 244.453553 
L 354.521864 246.883765 
L 355.117488 246.116329 
L 355.713112 247.267482 
L 356.308735 244.837271 
L 356.904359 246.883765 
L 357.499982 243.430306 
L 358.095606 244.709365 
L 358.691229 245.093082 
L 359.286853 246.116329 
L 359.882476 245.860518 
L 360.4781 244.965176 
L 361.073724 246.500047 
L 361.669347 246.627953 
L 362.264971 246.244235 
L 362.860594 247.523294 
L 363.456218 244.837271 
L 364.051841 245.604706 
L 364.647465 245.860518 
L 365.243088 244.197741 
L 365.838712 245.093082 
L 366.434336 246.883765 
L 367.029959 246.372141 
L 367.625583 244.709365 
L 368.221206 245.860518 
L 368.81683 246.500047 
L 369.412453 246.372141 
L 370.008077 245.348894 
L 370.6037 247.523294 
L 371.199324 245.732612 
L 371.794948 246.755859 
L 372.390571 245.4768 
L 372.986195 245.988424 
L 373.581818 245.860518 
L 373.581818 245.860518 
" clip-path="url(#pc096174a62)" style="fill: none; stroke: #2ca02c; stroke-width: 1.5; stroke-linecap: square"/>
   </g>
   <g id="patch_3">
    <path d="M 54 252 
L 54 34.56 
" style="fill: none; stroke: #000000; stroke-width: 0.8; stroke-linejoin: miter; stroke-linecap: square"/>
   </g>
   <g id="patch_4">
    <path d="M 388.8 252 
L 388.8 34.56 
" style="fill: none; stroke: #000000; stroke-width: 0.8; stroke-linejoin: miter; stroke-linecap: square"/>
   </g>
   <g id="patch_5">
    <path d="M 54 252 
L 388.8 252 
" style="fill: none; stroke: #000000; stroke-width: 0.8; stroke-linejoin: miter; stroke-linecap: square"/>
   </g>
   <g id="patch_6">
    <path d="M 54 34.56 
L 388.8 34.56 
" style="fill: none; stroke: #000000; stroke-width: 0.8; stroke-linejoin: miter; stroke-linecap: square"/>
   </g>
   <g id="text_18">
    <!-- Label 17 -->
    <g transform="translate(195.670312 28.56)scale(0.12 -0.12)">
     <defs>
      <path id="DejaVuSans-4c" d="M 628 4666 
L 1259 4666 
L 1259 531 
L 3531 531 
L 3531 0 
L 628 0 
L 628 4666 
z
" transform="scale(0.015625)"/>
      <path id="DejaVuSans-61" d="M 2194 1759 
Q 1497 1759 1228 1600 
Q 959 1441 959 1056 
Q 959 750 1161 570 
Q 1363 391 1709 391 
Q 2188 391 2477 730 
Q 2766 1069 2766 1631 
L 2766 1759 
L 2194 1759 
z
M 3341 1997 
L 3341 0 
L 2766 0 
L 2766 531 
Q 2569 213 2275 61 
Q 1981 -91 1556 -91 
Q 1019 -91 701 211 
Q 384 513 384 1019 
Q 384 1609 779 1909 
Q 1175 2209 1959 2209 
L 2766 2209 
L 2766 2266 
Q 2766 2663 2505 2880 
Q 2244 3097 1772 3097 
Q 1472 3097 1187 3025 
Q 903 2953 641 2809 
L 641 3341 
Q 956 3463 1253 3523 
Q 1550 3584 1831 3584 
Q 2591 3584 2966 3190 
Q 3341 2797 3341 1997 
z
" transform="scale(0.015625)"/>
      <path id="DejaVuSans-65" d="M 3597 1894 
L 3597 1613 
L 953 1613 
Q 991 1019 1311 708 
Q 1631 397 2203 397 
Q 2534 397 2845 478 
Q 3156 559 3463 722 
L 3463 178 
Q 3153 47 2828 -22 
Q 2503 -91 2169 -91 
Q 1331 -91 842 396 
Q 353 884 353 1716 
Q 353 2575 817 3079 
Q 1281 3584 2069 3584 
Q 2775 3584 3186 3129 
Q 3597 2675 3597 1894 
z
M 3022 2063 
Q 3016 2534 2758 2815 
Q 2500 3097 2075 3097 
Q 1594 3097 1305 2825 
Q 1016 2553 972 2059 
L 3022 2063 
z
" transform="scale(0.015625)"/>
      <path id="DejaVuSans-6c" d="M 603 4863 
L 1178 4863 
L 1178 0 
L 603 0 
L 603 4863 
z
" transform="scale(0.015625)"/>
      <path id="DejaVuSans-20" transform="scale(0.015625)"/>
      <path id="DejaVuSans-37" d="M 525 4666 
L 3525 4666 
L 3525 4397 
L 1831 0 
L 1172 0 
L 2766 4134 
L 525 4134 
L 525 4666 
z
" transform="scale(0.015625)"/>
     </defs>
     <use xlink:href="#DejaVuSans-4c"/>
     <use xlink:href="#DejaVuSans-61" x="55.712891"/>
     <use xlink:href="#DejaVuSans-62" x="116.992188"/>
     <use xlink:href="#DejaVuSans-65" x="180.46875"/>
     <use xlink:href="#DejaVuSans-6c" x="241.992188"/>
     <use xlink:href="#DejaVuSans-20" x="269.775391"/>
     <use xlink:href="#DejaVuSans-31" x="301.5625"/>
     <use xlink:href="#DejaVuSans-37" x="365.185547"/>
    </g>
   </g>
   <g id="legend_1">
    <g id="patch_7">
     <path d="M 309.070312 101.2725 
L 381.8 101.2725 
Q 383.8 101.2725 383.8 99.2725 
L 383.8 41.56 
Q 383.8 39.56 381.8 39.56 
L 309.070312 39.56 
Q 307.070312 39.56 307.070312 41.56 
L 307.070312 99.2725 
Q 307.070312 101.2725 309.070312 101.2725 
z
" style="fill: #ffffff; opacity: 0.8; stroke: #cccccc; stroke-linejoin: miter"/>
    </g>
    <g id="text_19">
     <!-- Trace number -->
     <g transform="translate(311.070312 51.158437)scale(0.1 -0.1)">
      <defs>
       <path id="DejaVuSans-54" d="M -19 4666 
L 3928 4666 
L 3928 4134 
L 2272 4134 
L 2272 0 
L 1638 0 
L 1638 4134 
L -19 4134 
L -19 4666 
z
" transform="scale(0.015625)"/>
       <path id="DejaVuSans-72" d="M 2631 2963 
Q 2534 3019 2420 3045 
Q 2306 3072 2169 3072 
Q 1681 3072 1420 2755 
Q 1159 2438 1159 1844 
L 1159 0 
L 581 0 
L 581 3500 
L 1159 3500 
L 1159 2956 
Q 1341 3275 1631 3429 
Q 1922 3584 2338 3584 
Q 2397 3584 2469 3576 
Q 2541 3569 2628 3553 
L 2631 2963 
z
" transform="scale(0.015625)"/>
       <path id="DejaVuSans-6d" d="M 3328 2828 
Q 3544 3216 3844 3400 
Q 4144 3584 4550 3584 
Q 5097 3584 5394 3201 
Q 5691 2819 5691 2113 
L 5691 0 
L 5113 0 
L 5113 2094 
Q 5113 2597 4934 2840 
Q 4756 3084 4391 3084 
Q 3944 3084 3684 2787 
Q 3425 2491 3425 1978 
L 3425 0 
L 2847 0 
L 2847 2094 
Q 2847 2600 2669 2842 
Q 2491 3084 2119 3084 
Q 1678 3084 1418 2786 
Q 1159 2488 1159 1978 
L 1159 0 
L 581 0 
L 581 3500 
L 1159 3500 
L 1159 2956 
Q 1356 3278 1631 3431 
Q 1906 3584 2284 3584 
Q 2666 3584 2933 3390 
Q 3200 3197 3328 2828 
z
" transform="scale(0.015625)"/>
      </defs>
      <use xlink:href="#DejaVuSans-54"/>
      <use xlink:href="#DejaVuSans-72" x="46.333984"/>
      <use xlink:href="#DejaVuSans-61" x="87.447266"/>
      <use xlink:href="#DejaVuSans-63" x="148.726562"/>
      <use xlink:href="#DejaVuSans-65" x="203.707031"/>
      <use xlink:href="#DejaVuSans-20" x="265.230469"/>
      <use xlink:href="#DejaVuSans-6e" x="297.017578"/>
      <use xlink:href="#DejaVuSans-75" x="360.396484"/>
      <use xlink:href="#DejaVuSans-6d" x="423.775391"/>
      <use xlink:href="#DejaVuSans-62" x="521.1875"/>
      <use xlink:href="#DejaVuSans-65" x="584.664062"/>
      <use xlink:href="#DejaVuSans-72" x="646.1875"/>
     </g>
    </g>
    <g id="line2d_34">
     <path d="M 321.891406 62.336562 
L 331.891406 62.336562 
L 341.891406 62.336562 
" style="fill: none; stroke: #1f77b4; stroke-width: 1.5; stroke-linecap: square"/>
    </g>
    <g id="text_20">
     <!-- 61 -->
     <g transform="translate(349.891406 65.836562)scale(0.1 -0.1)">
      <use xlink:href="#DejaVuSans-36"/>
      <use xlink:href="#DejaVuSans-31" x="63.623047"/>
     </g>
    </g>
    <g id="line2d_35">
     <path d="M 321.891406 77.014687 
L 331.891406 77.014687 
L 341.891406 77.014687 
" style="fill: none; stroke: #ff7f0e; stroke-width: 1.5; stroke-linecap: square"/>
    </g>
    <g id="text_21">
     <!-- 83 -->
     <g transform="translate(349.891406 80.514687)scale(0.1 -0.1)">
      <use xlink:href="#DejaVuSans-38"/>
      <use xlink:href="#DejaVuSans-33" x="63.623047"/>
     </g>
    </g>
    <g id="line2d_36">
     <path d="M 321.891406 91.692813 
L 331.891406 91.692813 
L 341.891406 91.692813 
" style="fill: none; stroke: #2ca02c; stroke-width: 1.5; stroke-linecap: square"/>
    </g>
    <g id="text_22">
     <!-- 122 -->
     <g transform="translate(349.891406 95.192813)scale(0.1 -0.1)">
      <use xlink:href="#DejaVuSans-31"/>
      <use xlink:href="#DejaVuSans-32" x="63.623047"/>
      <use xlink:href="#DejaVuSans-32" x="127.246094"/>
     </g>
    </g>
   </g>
  </g>
 </g>
 <defs>
  <clipPath id="pc096174a62">
   <rect x="54" y="34.56" width="334.8" height="217.44"/>
  </clipPath>
 </defs>
</svg>
