<?xml version="1.0" encoding="utf-8" standalone="no"?>
<!DOCTYPE svg PUBLIC "-//W3C//DTD SVG 1.1//EN"
  "http://www.w3.org/Graphics/SVG/1.1/DTD/svg11.dtd">
<svg xmlns:xlink="http://www.w3.org/1999/xlink" width="432pt" height="288pt" viewBox="0 0 432 288" xmlns="http://www.w3.org/2000/svg" version="1.1">
 <metadata>
  <rdf:RDF xmlns:dc="http://purl.org/dc/elements/1.1/" xmlns:cc="http://creativecommons.org/ns#" xmlns:rdf="http://www.w3.org/1999/02/22-rdf-syntax-ns#">
   <cc:Work>
    <dc:type rdf:resource="http://purl.org/dc/dcmitype/StillImage"/>
    <dc:date>2022-03-30T13:12:48.990293</dc:date>
    <dc:format>image/svg+xml</dc:format>
    <dc:creator>
     <cc:Agent>
      <dc:title>Matplotlib v3.5.1, https://matplotlib.org/</dc:title>
     </cc:Agent>
    </dc:creator>
   </cc:Work>
  </rdf:RDF>
 </metadata>
 <defs>
  <style type="text/css">*{stroke-linejoin: round; stroke-linecap: butt}</style>
 </defs>
 <g id="figure_1">
  <g id="patch_1">
   <path d="M 0 288 
L 432 288 
L 432 0 
L 0 0 
z
" style="fill: #ffffff"/>
  </g>
  <g id="axes_1">
   <g id="patch_2">
    <path d="M 54 252 
L 388.8 252 
L 388.8 34.56 
L 54 34.56 
z
" style="fill: #ffffff"/>
   </g>
   <g id="matplotlib.axis_1">
    <g id="xtick_1">
     <g id="line2d_1">
      <path d="M 69.218182 252 
L 69.218182 34.56 
" clip-path="url(#p89b1762644)" style="fill: none; stroke: #b0b0b0; stroke-width: 0.8; stroke-linecap: square"/>
     </g>
     <g id="line2d_2">
      <defs>
       <path id="m2a2bf1f25c" d="M 0 0 
L 0 3.5 
" style="stroke: #000000; stroke-width: 0.8"/>
      </defs>
      <g>
       <use xlink:href="#m2a2bf1f25c" x="69.218182" y="252" style="stroke: #000000; stroke-width: 0.8"/>
      </g>
     </g>
     <g id="text_1">
      <!-- 0 -->
      <g transform="translate(66.036932 266.598437)scale(0.1 -0.1)">
       <defs>
        <path id="DejaVuSans-30" d="M 2034 4250 
Q 1547 4250 1301 3770 
Q 1056 3291 1056 2328 
Q 1056 1369 1301 889 
Q 1547 409 2034 409 
Q 2525 409 2770 889 
Q 3016 1369 3016 2328 
Q 3016 3291 2770 3770 
Q 2525 4250 2034 4250 
z
M 2034 4750 
Q 2819 4750 3233 4129 
Q 3647 3509 3647 2328 
Q 3647 1150 3233 529 
Q 2819 -91 2034 -91 
Q 1250 -91 836 529 
Q 422 1150 422 2328 
Q 422 3509 836 4129 
Q 1250 4750 2034 4750 
z
" transform="scale(0.015625)"/>
       </defs>
       <use xlink:href="#DejaVuSans-30"/>
      </g>
     </g>
    </g>
    <g id="xtick_2">
     <g id="line2d_3">
      <path d="M 128.780537 252 
L 128.780537 34.56 
" clip-path="url(#p89b1762644)" style="fill: none; stroke: #b0b0b0; stroke-width: 0.8; stroke-linecap: square"/>
     </g>
     <g id="line2d_4">
      <g>
       <use xlink:href="#m2a2bf1f25c" x="128.780537" y="252" style="stroke: #000000; stroke-width: 0.8"/>
      </g>
     </g>
     <g id="text_2">
      <!-- 100 -->
      <g transform="translate(119.236787 266.598437)scale(0.1 -0.1)">
       <defs>
        <path id="DejaVuSans-31" d="M 794 531 
L 1825 531 
L 1825 4091 
L 703 3866 
L 703 4441 
L 1819 4666 
L 2450 4666 
L 2450 531 
L 3481 531 
L 3481 0 
L 794 0 
L 794 531 
z
" transform="scale(0.015625)"/>
       </defs>
       <use xlink:href="#DejaVuSans-31"/>
       <use xlink:href="#DejaVuSans-30" x="63.623047"/>
       <use xlink:href="#DejaVuSans-30" x="127.246094"/>
      </g>
     </g>
    </g>
    <g id="xtick_3">
     <g id="line2d_5">
      <path d="M 188.342893 252 
L 188.342893 34.56 
" clip-path="url(#p89b1762644)" style="fill: none; stroke: #b0b0b0; stroke-width: 0.8; stroke-linecap: square"/>
     </g>
     <g id="line2d_6">
      <g>
       <use xlink:href="#m2a2bf1f25c" x="188.342893" y="252" style="stroke: #000000; stroke-width: 0.8"/>
      </g>
     </g>
     <g id="text_3">
      <!-- 200 -->
      <g transform="translate(178.799143 266.598437)scale(0.1 -0.1)">
       <defs>
        <path id="DejaVuSans-32" d="M 1228 531 
L 3431 531 
L 3431 0 
L 469 0 
L 469 531 
Q 828 903 1448 1529 
Q 2069 2156 2228 2338 
Q 2531 2678 2651 2914 
Q 2772 3150 2772 3378 
Q 2772 3750 2511 3984 
Q 2250 4219 1831 4219 
Q 1534 4219 1204 4116 
Q 875 4013 500 3803 
L 500 4441 
Q 881 4594 1212 4672 
Q 1544 4750 1819 4750 
Q 2544 4750 2975 4387 
Q 3406 4025 3406 3419 
Q 3406 3131 3298 2873 
Q 3191 2616 2906 2266 
Q 2828 2175 2409 1742 
Q 1991 1309 1228 531 
z
" transform="scale(0.015625)"/>
       </defs>
       <use xlink:href="#DejaVuSans-32"/>
       <use xlink:href="#DejaVuSans-30" x="63.623047"/>
       <use xlink:href="#DejaVuSans-30" x="127.246094"/>
      </g>
     </g>
    </g>
    <g id="xtick_4">
     <g id="line2d_7">
      <path d="M 247.905248 252 
L 247.905248 34.56 
" clip-path="url(#p89b1762644)" style="fill: none; stroke: #b0b0b0; stroke-width: 0.8; stroke-linecap: square"/>
     </g>
     <g id="line2d_8">
      <g>
       <use xlink:href="#m2a2bf1f25c" x="247.905248" y="252" style="stroke: #000000; stroke-width: 0.8"/>
      </g>
     </g>
     <g id="text_4">
      <!-- 300 -->
      <g transform="translate(238.361498 266.598437)scale(0.1 -0.1)">
       <defs>
        <path id="DejaVuSans-33" d="M 2597 2516 
Q 3050 2419 3304 2112 
Q 3559 1806 3559 1356 
Q 3559 666 3084 287 
Q 2609 -91 1734 -91 
Q 1441 -91 1130 -33 
Q 819 25 488 141 
L 488 750 
Q 750 597 1062 519 
Q 1375 441 1716 441 
Q 2309 441 2620 675 
Q 2931 909 2931 1356 
Q 2931 1769 2642 2001 
Q 2353 2234 1838 2234 
L 1294 2234 
L 1294 2753 
L 1863 2753 
Q 2328 2753 2575 2939 
Q 2822 3125 2822 3475 
Q 2822 3834 2567 4026 
Q 2313 4219 1838 4219 
Q 1578 4219 1281 4162 
Q 984 4106 628 3988 
L 628 4550 
Q 988 4650 1302 4700 
Q 1616 4750 1894 4750 
Q 2613 4750 3031 4423 
Q 3450 4097 3450 3541 
Q 3450 3153 3228 2886 
Q 3006 2619 2597 2516 
z
" transform="scale(0.015625)"/>
       </defs>
       <use xlink:href="#DejaVuSans-33"/>
       <use xlink:href="#DejaVuSans-30" x="63.623047"/>
       <use xlink:href="#DejaVuSans-30" x="127.246094"/>
      </g>
     </g>
    </g>
    <g id="xtick_5">
     <g id="line2d_9">
      <path d="M 307.467604 252 
L 307.467604 34.56 
" clip-path="url(#p89b1762644)" style="fill: none; stroke: #b0b0b0; stroke-width: 0.8; stroke-linecap: square"/>
     </g>
     <g id="line2d_10">
      <g>
       <use xlink:href="#m2a2bf1f25c" x="307.467604" y="252" style="stroke: #000000; stroke-width: 0.8"/>
      </g>
     </g>
     <g id="text_5">
      <!-- 400 -->
      <g transform="translate(297.923854 266.598437)scale(0.1 -0.1)">
       <defs>
        <path id="DejaVuSans-34" d="M 2419 4116 
L 825 1625 
L 2419 1625 
L 2419 4116 
z
M 2253 4666 
L 3047 4666 
L 3047 1625 
L 3713 1625 
L 3713 1100 
L 3047 1100 
L 3047 0 
L 2419 0 
L 2419 1100 
L 313 1100 
L 313 1709 
L 2253 4666 
z
" transform="scale(0.015625)"/>
       </defs>
       <use xlink:href="#DejaVuSans-34"/>
       <use xlink:href="#DejaVuSans-30" x="63.623047"/>
       <use xlink:href="#DejaVuSans-30" x="127.246094"/>
      </g>
     </g>
    </g>
    <g id="xtick_6">
     <g id="line2d_11">
      <path d="M 367.029959 252 
L 367.029959 34.56 
" clip-path="url(#p89b1762644)" style="fill: none; stroke: #b0b0b0; stroke-width: 0.8; stroke-linecap: square"/>
     </g>
     <g id="line2d_12">
      <g>
       <use xlink:href="#m2a2bf1f25c" x="367.029959" y="252" style="stroke: #000000; stroke-width: 0.8"/>
      </g>
     </g>
     <g id="text_6">
      <!-- 500 -->
      <g transform="translate(357.486209 266.598437)scale(0.1 -0.1)">
       <defs>
        <path id="DejaVuSans-35" d="M 691 4666 
L 3169 4666 
L 3169 4134 
L 1269 4134 
L 1269 2991 
Q 1406 3038 1543 3061 
Q 1681 3084 1819 3084 
Q 2600 3084 3056 2656 
Q 3513 2228 3513 1497 
Q 3513 744 3044 326 
Q 2575 -91 1722 -91 
Q 1428 -91 1123 -41 
Q 819 9 494 109 
L 494 744 
Q 775 591 1075 516 
Q 1375 441 1709 441 
Q 2250 441 2565 725 
Q 2881 1009 2881 1497 
Q 2881 1984 2565 2268 
Q 2250 2553 1709 2553 
Q 1456 2553 1204 2497 
Q 953 2441 691 2322 
L 691 4666 
z
" transform="scale(0.015625)"/>
       </defs>
       <use xlink:href="#DejaVuSans-35"/>
       <use xlink:href="#DejaVuSans-30" x="63.623047"/>
       <use xlink:href="#DejaVuSans-30" x="127.246094"/>
      </g>
     </g>
    </g>
    <g id="text_7">
     <!-- bin -->
     <g transform="translate(213.667969 280.276563)scale(0.1 -0.1)">
      <defs>
       <path id="DejaVuSans-62" d="M 3116 1747 
Q 3116 2381 2855 2742 
Q 2594 3103 2138 3103 
Q 1681 3103 1420 2742 
Q 1159 2381 1159 1747 
Q 1159 1113 1420 752 
Q 1681 391 2138 391 
Q 2594 391 2855 752 
Q 3116 1113 3116 1747 
z
M 1159 2969 
Q 1341 3281 1617 3432 
Q 1894 3584 2278 3584 
Q 2916 3584 3314 3078 
Q 3713 2572 3713 1747 
Q 3713 922 3314 415 
Q 2916 -91 2278 -91 
Q 1894 -91 1617 61 
Q 1341 213 1159 525 
L 1159 0 
L 581 0 
L 581 4863 
L 1159 4863 
L 1159 2969 
z
" transform="scale(0.015625)"/>
       <path id="DejaVuSans-69" d="M 603 3500 
L 1178 3500 
L 1178 0 
L 603 0 
L 603 3500 
z
M 603 4863 
L 1178 4863 
L 1178 4134 
L 603 4134 
L 603 4863 
z
" transform="scale(0.015625)"/>
       <path id="DejaVuSans-6e" d="M 3513 2113 
L 3513 0 
L 2938 0 
L 2938 2094 
Q 2938 2591 2744 2837 
Q 2550 3084 2163 3084 
Q 1697 3084 1428 2787 
Q 1159 2491 1159 1978 
L 1159 0 
L 581 0 
L 581 3500 
L 1159 3500 
L 1159 2956 
Q 1366 3272 1645 3428 
Q 1925 3584 2291 3584 
Q 2894 3584 3203 3211 
Q 3513 2838 3513 2113 
z
" transform="scale(0.015625)"/>
      </defs>
      <use xlink:href="#DejaVuSans-62"/>
      <use xlink:href="#DejaVuSans-69" x="63.476562"/>
      <use xlink:href="#DejaVuSans-6e" x="91.259766"/>
     </g>
    </g>
   </g>
   <g id="matplotlib.axis_2">
    <g id="ytick_1">
     <g id="line2d_13">
      <path d="M 54 252 
L 388.8 252 
" clip-path="url(#p89b1762644)" style="fill: none; stroke: #b0b0b0; stroke-width: 0.8; stroke-linecap: square"/>
     </g>
     <g id="line2d_14">
      <defs>
       <path id="mef1c9f4a84" d="M 0 0 
L -3.5 0 
" style="stroke: #000000; stroke-width: 0.8"/>
      </defs>
      <g>
       <use xlink:href="#mef1c9f4a84" x="54" y="252" style="stroke: #000000; stroke-width: 0.8"/>
      </g>
     </g>
     <g id="text_8">
      <!-- 0 -->
      <g transform="translate(40.6375 255.799219)scale(0.1 -0.1)">
       <use xlink:href="#DejaVuSans-30"/>
      </g>
     </g>
    </g>
    <g id="ytick_2">
     <g id="line2d_15">
      <path d="M 54 226.418824 
L 388.8 226.418824 
" clip-path="url(#p89b1762644)" style="fill: none; stroke: #b0b0b0; stroke-width: 0.8; stroke-linecap: square"/>
     </g>
     <g id="line2d_16">
      <g>
       <use xlink:href="#mef1c9f4a84" x="54" y="226.418824" style="stroke: #000000; stroke-width: 0.8"/>
      </g>
     </g>
     <g id="text_9">
      <!-- 200 -->
      <g transform="translate(27.9125 230.218042)scale(0.1 -0.1)">
       <use xlink:href="#DejaVuSans-32"/>
       <use xlink:href="#DejaVuSans-30" x="63.623047"/>
       <use xlink:href="#DejaVuSans-30" x="127.246094"/>
      </g>
     </g>
    </g>
    <g id="ytick_3">
     <g id="line2d_17">
      <path d="M 54 200.837647 
L 388.8 200.837647 
" clip-path="url(#p89b1762644)" style="fill: none; stroke: #b0b0b0; stroke-width: 0.8; stroke-linecap: square"/>
     </g>
     <g id="line2d_18">
      <g>
       <use xlink:href="#mef1c9f4a84" x="54" y="200.837647" style="stroke: #000000; stroke-width: 0.8"/>
      </g>
     </g>
     <g id="text_10">
      <!-- 400 -->
      <g transform="translate(27.9125 204.636866)scale(0.1 -0.1)">
       <use xlink:href="#DejaVuSans-34"/>
       <use xlink:href="#DejaVuSans-30" x="63.623047"/>
       <use xlink:href="#DejaVuSans-30" x="127.246094"/>
      </g>
     </g>
    </g>
    <g id="ytick_4">
     <g id="line2d_19">
      <path d="M 54 175.256471 
L 388.8 175.256471 
" clip-path="url(#p89b1762644)" style="fill: none; stroke: #b0b0b0; stroke-width: 0.8; stroke-linecap: square"/>
     </g>
     <g id="line2d_20">
      <g>
       <use xlink:href="#mef1c9f4a84" x="54" y="175.256471" style="stroke: #000000; stroke-width: 0.8"/>
      </g>
     </g>
     <g id="text_11">
      <!-- 600 -->
      <g transform="translate(27.9125 179.055689)scale(0.1 -0.1)">
       <defs>
        <path id="DejaVuSans-36" d="M 2113 2584 
Q 1688 2584 1439 2293 
Q 1191 2003 1191 1497 
Q 1191 994 1439 701 
Q 1688 409 2113 409 
Q 2538 409 2786 701 
Q 3034 994 3034 1497 
Q 3034 2003 2786 2293 
Q 2538 2584 2113 2584 
z
M 3366 4563 
L 3366 3988 
Q 3128 4100 2886 4159 
Q 2644 4219 2406 4219 
Q 1781 4219 1451 3797 
Q 1122 3375 1075 2522 
Q 1259 2794 1537 2939 
Q 1816 3084 2150 3084 
Q 2853 3084 3261 2657 
Q 3669 2231 3669 1497 
Q 3669 778 3244 343 
Q 2819 -91 2113 -91 
Q 1303 -91 875 529 
Q 447 1150 447 2328 
Q 447 3434 972 4092 
Q 1497 4750 2381 4750 
Q 2619 4750 2861 4703 
Q 3103 4656 3366 4563 
z
" transform="scale(0.015625)"/>
       </defs>
       <use xlink:href="#DejaVuSans-36"/>
       <use xlink:href="#DejaVuSans-30" x="63.623047"/>
       <use xlink:href="#DejaVuSans-30" x="127.246094"/>
      </g>
     </g>
    </g>
    <g id="ytick_5">
     <g id="line2d_21">
      <path d="M 54 149.675294 
L 388.8 149.675294 
" clip-path="url(#p89b1762644)" style="fill: none; stroke: #b0b0b0; stroke-width: 0.8; stroke-linecap: square"/>
     </g>
     <g id="line2d_22">
      <g>
       <use xlink:href="#mef1c9f4a84" x="54" y="149.675294" style="stroke: #000000; stroke-width: 0.8"/>
      </g>
     </g>
     <g id="text_12">
      <!-- 800 -->
      <g transform="translate(27.9125 153.474513)scale(0.1 -0.1)">
       <defs>
        <path id="DejaVuSans-38" d="M 2034 2216 
Q 1584 2216 1326 1975 
Q 1069 1734 1069 1313 
Q 1069 891 1326 650 
Q 1584 409 2034 409 
Q 2484 409 2743 651 
Q 3003 894 3003 1313 
Q 3003 1734 2745 1975 
Q 2488 2216 2034 2216 
z
M 1403 2484 
Q 997 2584 770 2862 
Q 544 3141 544 3541 
Q 544 4100 942 4425 
Q 1341 4750 2034 4750 
Q 2731 4750 3128 4425 
Q 3525 4100 3525 3541 
Q 3525 3141 3298 2862 
Q 3072 2584 2669 2484 
Q 3125 2378 3379 2068 
Q 3634 1759 3634 1313 
Q 3634 634 3220 271 
Q 2806 -91 2034 -91 
Q 1263 -91 848 271 
Q 434 634 434 1313 
Q 434 1759 690 2068 
Q 947 2378 1403 2484 
z
M 1172 3481 
Q 1172 3119 1398 2916 
Q 1625 2713 2034 2713 
Q 2441 2713 2670 2916 
Q 2900 3119 2900 3481 
Q 2900 3844 2670 4047 
Q 2441 4250 2034 4250 
Q 1625 4250 1398 4047 
Q 1172 3844 1172 3481 
z
" transform="scale(0.015625)"/>
       </defs>
       <use xlink:href="#DejaVuSans-38"/>
       <use xlink:href="#DejaVuSans-30" x="63.623047"/>
       <use xlink:href="#DejaVuSans-30" x="127.246094"/>
      </g>
     </g>
    </g>
    <g id="ytick_6">
     <g id="line2d_23">
      <path d="M 54 124.094118 
L 388.8 124.094118 
" clip-path="url(#p89b1762644)" style="fill: none; stroke: #b0b0b0; stroke-width: 0.8; stroke-linecap: square"/>
     </g>
     <g id="line2d_24">
      <g>
       <use xlink:href="#mef1c9f4a84" x="54" y="124.094118" style="stroke: #000000; stroke-width: 0.8"/>
      </g>
     </g>
     <g id="text_13">
      <!-- 1000 -->
      <g transform="translate(21.55 127.893336)scale(0.1 -0.1)">
       <use xlink:href="#DejaVuSans-31"/>
       <use xlink:href="#DejaVuSans-30" x="63.623047"/>
       <use xlink:href="#DejaVuSans-30" x="127.246094"/>
       <use xlink:href="#DejaVuSans-30" x="190.869141"/>
      </g>
     </g>
    </g>
    <g id="ytick_7">
     <g id="line2d_25">
      <path d="M 54 98.512941 
L 388.8 98.512941 
" clip-path="url(#p89b1762644)" style="fill: none; stroke: #b0b0b0; stroke-width: 0.8; stroke-linecap: square"/>
     </g>
     <g id="line2d_26">
      <g>
       <use xlink:href="#mef1c9f4a84" x="54" y="98.512941" style="stroke: #000000; stroke-width: 0.8"/>
      </g>
     </g>
     <g id="text_14">
      <!-- 1200 -->
      <g transform="translate(21.55 102.31216)scale(0.1 -0.1)">
       <use xlink:href="#DejaVuSans-31"/>
       <use xlink:href="#DejaVuSans-32" x="63.623047"/>
       <use xlink:href="#DejaVuSans-30" x="127.246094"/>
       <use xlink:href="#DejaVuSans-30" x="190.869141"/>
      </g>
     </g>
    </g>
    <g id="ytick_8">
     <g id="line2d_27">
      <path d="M 54 72.931765 
L 388.8 72.931765 
" clip-path="url(#p89b1762644)" style="fill: none; stroke: #b0b0b0; stroke-width: 0.8; stroke-linecap: square"/>
     </g>
     <g id="line2d_28">
      <g>
       <use xlink:href="#mef1c9f4a84" x="54" y="72.931765" style="stroke: #000000; stroke-width: 0.8"/>
      </g>
     </g>
     <g id="text_15">
      <!-- 1400 -->
      <g transform="translate(21.55 76.730983)scale(0.1 -0.1)">
       <use xlink:href="#DejaVuSans-31"/>
       <use xlink:href="#DejaVuSans-34" x="63.623047"/>
       <use xlink:href="#DejaVuSans-30" x="127.246094"/>
       <use xlink:href="#DejaVuSans-30" x="190.869141"/>
      </g>
     </g>
    </g>
    <g id="ytick_9">
     <g id="line2d_29">
      <path d="M 54 47.350588 
L 388.8 47.350588 
" clip-path="url(#p89b1762644)" style="fill: none; stroke: #b0b0b0; stroke-width: 0.8; stroke-linecap: square"/>
     </g>
     <g id="line2d_30">
      <g>
       <use xlink:href="#mef1c9f4a84" x="54" y="47.350588" style="stroke: #000000; stroke-width: 0.8"/>
      </g>
     </g>
     <g id="text_16">
      <!-- 1600 -->
      <g transform="translate(21.55 51.149807)scale(0.1 -0.1)">
       <use xlink:href="#DejaVuSans-31"/>
       <use xlink:href="#DejaVuSans-36" x="63.623047"/>
       <use xlink:href="#DejaVuSans-30" x="127.246094"/>
       <use xlink:href="#DejaVuSans-30" x="190.869141"/>
      </g>
     </g>
    </g>
    <g id="text_17">
     <!-- count -->
     <g transform="translate(15.470312 157.38625)rotate(-90)scale(0.1 -0.1)">
      <defs>
       <path id="DejaVuSans-63" d="M 3122 3366 
L 3122 2828 
Q 2878 2963 2633 3030 
Q 2388 3097 2138 3097 
Q 1578 3097 1268 2742 
Q 959 2388 959 1747 
Q 959 1106 1268 751 
Q 1578 397 2138 397 
Q 2388 397 2633 464 
Q 2878 531 3122 666 
L 3122 134 
Q 2881 22 2623 -34 
Q 2366 -91 2075 -91 
Q 1284 -91 818 406 
Q 353 903 353 1747 
Q 353 2603 823 3093 
Q 1294 3584 2113 3584 
Q 2378 3584 2631 3529 
Q 2884 3475 3122 3366 
z
" transform="scale(0.015625)"/>
       <path id="DejaVuSans-6f" d="M 1959 3097 
Q 1497 3097 1228 2736 
Q 959 2375 959 1747 
Q 959 1119 1226 758 
Q 1494 397 1959 397 
Q 2419 397 2687 759 
Q 2956 1122 2956 1747 
Q 2956 2369 2687 2733 
Q 2419 3097 1959 3097 
z
M 1959 3584 
Q 2709 3584 3137 3096 
Q 3566 2609 3566 1747 
Q 3566 888 3137 398 
Q 2709 -91 1959 -91 
Q 1206 -91 779 398 
Q 353 888 353 1747 
Q 353 2609 779 3096 
Q 1206 3584 1959 3584 
z
" transform="scale(0.015625)"/>
       <path id="DejaVuSans-75" d="M 544 1381 
L 544 3500 
L 1119 3500 
L 1119 1403 
Q 1119 906 1312 657 
Q 1506 409 1894 409 
Q 2359 409 2629 706 
Q 2900 1003 2900 1516 
L 2900 3500 
L 3475 3500 
L 3475 0 
L 2900 0 
L 2900 538 
Q 2691 219 2414 64 
Q 2138 -91 1772 -91 
Q 1169 -91 856 284 
Q 544 659 544 1381 
z
M 1991 3584 
L 1991 3584 
z
" transform="scale(0.015625)"/>
       <path id="DejaVuSans-74" d="M 1172 4494 
L 1172 3500 
L 2356 3500 
L 2356 3053 
L 1172 3053 
L 1172 1153 
Q 1172 725 1289 603 
Q 1406 481 1766 481 
L 2356 481 
L 2356 0 
L 1766 0 
Q 1100 0 847 248 
Q 594 497 594 1153 
L 594 3053 
L 172 3053 
L 172 3500 
L 594 3500 
L 594 4494 
L 1172 4494 
z
" transform="scale(0.015625)"/>
      </defs>
      <use xlink:href="#DejaVuSans-63"/>
      <use xlink:href="#DejaVuSans-6f" x="54.980469"/>
      <use xlink:href="#DejaVuSans-75" x="116.162109"/>
      <use xlink:href="#DejaVuSans-6e" x="179.541016"/>
      <use xlink:href="#DejaVuSans-74" x="242.919922"/>
     </g>
    </g>
   </g>
   <g id="line2d_31">
    <path d="M 69.218182 149.291576 
L 69.813805 147.245082 
L 70.409429 153.256659 
L 71.005052 146.989271 
L 71.600676 145.838118 
L 72.1963 148.907859 
L 72.791923 147.500894 
L 73.387547 144.942776 
L 73.98317 150.954353 
L 74.578794 146.349741 
L 75.174417 149.291576 
L 75.770041 151.338071 
L 76.365664 146.989271 
L 76.961288 153.000847 
L 77.556912 152.233412 
L 78.152535 145.582306 
L 78.748159 149.675294 
L 79.343782 149.419482 
L 79.939406 153.768282 
L 80.535029 152.745035 
L 81.130653 149.547388 
L 81.726276 149.675294 
L 82.3219 152.617129 
L 82.917524 150.186918 
L 83.513147 148.652047 
L 84.704394 151.082259 
L 85.300018 145.070682 
L 85.895641 151.210165 
L 86.491265 150.314824 
L 87.086888 148.524141 
L 87.682512 151.9776 
L 88.278136 149.419482 
L 88.873759 157.221741 
L 89.469383 145.326494 
L 90.065006 152.872941 
L 90.66063 149.291576 
L 91.256253 152.872941 
L 91.851877 146.861365 
L 92.4475 153.128753 
L 93.638748 145.326494 
L 94.234371 140.466071 
L 94.829995 150.698541 
L 95.425618 149.035765 
L 96.021242 141.617224 
L 96.616865 147.372988 
L 97.212489 144.814871 
L 97.808112 150.954353 
L 98.403736 154.279906 
L 98.99936 150.698541 
L 99.594983 144.686965 
L 100.190607 150.314824 
L 100.78623 150.570635 
L 101.381854 142.896282 
L 101.977477 140.721882 
L 102.573101 150.059012 
L 103.168724 152.361318 
L 103.764348 149.419482 
L 104.359972 151.593882 
L 104.955595 148.524141 
L 105.551219 150.059012 
L 106.146842 145.582306 
L 106.742466 149.035765 
L 107.338089 149.035765 
L 107.933713 148.396235 
L 108.529336 149.035765 
L 109.12496 148.012518 
L 109.720584 148.652047 
L 110.316207 146.861365 
L 110.911831 144.686965 
L 111.507454 150.442729 
L 112.103078 152.489224 
L 112.698701 146.861365 
L 113.294325 150.314824 
L 113.889948 144.047435 
L 114.485572 150.954353 
L 115.081196 151.082259 
L 115.676819 145.198588 
L 116.272443 146.861365 
L 116.868066 151.210165 
L 117.46369 146.605553 
L 118.059313 145.582306 
L 118.654937 143.791624 
L 119.25056 149.675294 
L 119.846184 149.163671 
L 120.441808 141.361412 
L 121.037431 148.140424 
L 121.633055 146.989271 
L 122.228678 148.012518 
L 122.824302 150.059012 
L 123.419925 150.314824 
L 124.015549 150.954353 
L 124.611172 141.873035 
L 125.802419 148.652047 
L 126.398043 150.059012 
L 126.993667 150.186918 
L 127.58929 143.791624 
L 128.780537 151.593882 
L 129.376161 142.256753 
L 129.971784 149.931106 
L 130.567408 145.710212 
L 131.163031 151.9776 
L 131.758655 144.686965 
L 132.354279 150.826447 
L 132.949902 143.791624 
L 133.545526 154.663624 
L 134.141149 149.035765 
L 134.736773 152.617129 
L 135.332396 151.082259 
L 135.92802 147.6288 
L 136.523643 149.931106 
L 137.119267 147.500894 
L 137.714891 150.826447 
L 138.310514 153.000847 
L 138.906138 145.966024 
L 139.501761 140.849788 
L 140.097385 146.605553 
L 140.693008 146.477647 
L 141.288632 147.372988 
L 141.884255 153.384565 
L 142.479879 147.245082 
L 143.075503 147.500894 
L 143.671126 154.024094 
L 144.26675 150.698541 
L 144.862373 149.163671 
L 145.457997 148.268329 
L 146.05362 143.407906 
L 146.649244 152.872941 
L 147.244867 153.768282 
L 147.840491 144.559059 
L 148.436115 144.814871 
L 149.031738 153.128753 
L 149.627362 143.535812 
L 150.222985 151.210165 
L 150.818609 146.861365 
L 151.414232 148.652047 
L 152.009856 149.8032 
L 152.605479 144.942776 
L 153.201103 154.407812 
L 153.796727 150.186918 
L 154.39235 149.547388 
L 154.987974 143.919529 
L 155.583597 151.338071 
L 156.179221 152.745035 
L 156.774844 149.8032 
L 157.370468 152.872941 
L 157.966091 152.233412 
L 158.561715 144.814871 
L 159.157339 147.372988 
L 159.752962 156.582212 
L 160.348586 149.675294 
L 160.944209 148.907859 
L 161.539833 149.419482 
L 162.135456 148.907859 
L 162.73108 157.861271 
L 163.326703 145.582306 
L 163.922327 150.826447 
L 164.517951 149.931106 
L 165.113574 146.989271 
L 165.709198 148.524141 
L 166.304821 146.349741 
L 166.900445 145.710212 
L 167.496068 149.291576 
L 168.091692 144.942776 
L 168.687315 143.28 
L 169.282939 143.28 
L 169.878563 136.373082 
L 170.474186 139.698635 
L 172.261057 102.733835 
L 172.85668 86.106071 
L 173.452304 74.082918 
L 174.047927 69.222494 
L 174.643551 74.082918 
L 175.239175 77.536376 
L 175.834798 89.943247 
L 176.430422 99.536188 
L 177.026045 105.419859 
L 177.621669 114.756988 
L 178.217292 128.187106 
L 178.812916 137.140518 
L 179.408539 137.140518 
L 180.004163 145.4544 
L 180.599787 146.093929 
L 181.19541 139.314918 
L 181.791034 149.163671 
L 182.386657 146.605553 
L 183.577904 149.291576 
L 184.173528 142.000941 
L 184.769151 151.210165 
L 185.364775 146.861365 
L 185.960399 139.314918 
L 186.556022 153.768282 
L 187.151646 146.093929 
L 187.747269 146.221835 
L 188.342893 154.535718 
L 188.938516 149.675294 
L 189.53414 147.884612 
L 190.129763 141.617224 
L 190.725387 142.000941 
L 191.32101 143.535812 
L 191.916634 136.7568 
L 192.512258 136.117271 
L 193.107881 142.000941 
L 193.703505 140.977694 
L 194.299128 143.919529 
L 194.894752 140.338165 
L 195.490375 140.338165 
L 196.085999 142.512565 
L 197.277246 143.919529 
L 197.87287 147.6288 
L 198.468493 140.338165 
L 199.064117 147.6288 
L 199.65974 146.093929 
L 200.255364 148.140424 
L 200.850987 142.640471 
L 201.446611 139.570729 
L 202.042234 141.489318 
L 202.637858 145.838118 
L 203.233482 145.198588 
L 203.829105 152.233412 
L 204.424729 154.407812 
L 205.020352 150.826447 
L 205.615976 146.221835 
L 206.211599 144.047435 
L 206.807223 148.396235 
L 207.402846 150.442729 
L 207.99847 149.419482 
L 208.594094 149.163671 
L 209.189717 149.547388 
L 209.785341 149.675294 
L 210.380964 151.593882 
L 210.976588 146.349741 
L 211.572211 146.093929 
L 212.167835 143.663718 
L 212.763458 151.465976 
L 213.954706 150.314824 
L 214.550329 155.558965 
L 215.145953 143.28 
L 215.741576 143.791624 
L 216.3372 145.966024 
L 216.932823 150.059012 
L 217.528447 147.500894 
L 218.12407 152.745035 
L 218.719694 145.070682 
L 219.315318 151.849694 
L 219.910941 147.372988 
L 220.506565 151.593882 
L 221.102188 152.872941 
L 221.697812 145.4544 
L 222.293435 141.745129 
L 222.889059 143.663718 
L 223.484682 147.884612 
L 224.080306 140.210259 
L 224.67593 147.372988 
L 225.271553 141.617224 
L 225.867177 143.919529 
L 226.4628 140.593976 
L 227.058424 131.512659 
L 227.654047 135.221929 
L 228.249671 129.721976 
L 228.845294 127.675482 
L 229.440918 128.0592 
L 230.036542 111.175624 
L 230.632165 126.524329 
L 231.227789 121.152282 
L 231.823412 120.640659 
L 232.419036 129.849882 
L 233.014659 144.559059 
L 233.610283 144.814871 
L 234.205906 146.989271 
L 234.80153 140.721882 
L 235.397154 150.314824 
L 235.992777 143.663718 
L 236.588401 149.035765 
L 237.184024 148.396235 
L 237.779648 148.779953 
L 238.375271 148.396235 
L 238.970895 154.024094 
L 239.566518 150.059012 
L 240.162142 150.186918 
L 240.757766 144.047435 
L 241.353389 146.221835 
L 241.949013 152.745035 
L 242.544636 151.721788 
L 243.14026 147.6288 
L 243.735883 153.128753 
L 244.331507 152.105506 
L 244.92713 144.686965 
L 245.522754 155.814776 
L 246.118378 155.558965 
L 246.714001 144.047435 
L 247.309625 150.314824 
L 247.905248 143.663718 
L 248.500872 150.059012 
L 249.096495 146.349741 
L 249.692119 149.547388 
L 250.287742 153.768282 
L 250.883366 144.559059 
L 251.47899 150.059012 
L 252.074613 149.8032 
L 252.670237 148.268329 
L 253.26586 147.372988 
L 253.861484 147.245082 
L 254.457107 145.838118 
L 255.052731 142.768376 
L 255.648354 156.198494 
L 256.243978 146.349741 
L 256.839601 150.314824 
L 257.435225 148.524141 
L 258.030849 151.082259 
L 258.626472 150.186918 
L 259.222096 156.070588 
L 259.817719 137.396329 
L 260.413343 151.465976 
L 261.60459 144.047435 
L 262.200213 146.861365 
L 262.795837 151.9776 
L 263.391461 145.4544 
L 263.987084 154.919435 
L 264.582708 146.861365 
L 265.178331 143.152094 
L 265.773955 151.465976 
L 266.369578 147.245082 
L 266.965202 145.710212 
L 267.560825 149.163671 
L 268.156449 136.245176 
L 268.752073 154.024094 
L 269.347696 146.605553 
L 269.94332 146.477647 
L 270.538943 150.314824 
L 271.134567 144.942776 
L 271.73019 152.233412 
L 272.325814 149.547388 
L 272.921437 153.768282 
L 273.517061 147.884612 
L 274.112685 146.093929 
L 274.708308 147.756706 
L 275.303932 147.245082 
L 275.899555 151.721788 
L 276.495179 146.349741 
L 277.090802 146.221835 
L 277.686426 149.419482 
L 278.282049 149.035765 
L 278.877673 146.221835 
L 279.473297 147.756706 
L 280.06892 153.000847 
L 280.664544 149.675294 
L 281.260167 148.140424 
L 281.855791 150.059012 
L 282.451414 144.814871 
L 283.047038 145.198588 
L 283.642661 150.826447 
L 284.238285 145.198588 
L 284.833909 150.186918 
L 285.429532 148.652047 
L 286.025156 141.1056 
L 286.620779 153.896188 
L 287.216403 145.710212 
L 287.812026 156.3264 
L 288.40765 147.245082 
L 289.003273 147.372988 
L 290.194521 151.465976 
L 290.790144 149.419482 
L 291.385768 144.047435 
L 291.981391 150.314824 
L 292.577015 145.070682 
L 293.172638 153.128753 
L 293.768262 143.535812 
L 294.363885 148.268329 
L 294.959509 145.198588 
L 295.555133 149.163671 
L 296.150756 152.233412 
L 296.74638 145.838118 
L 297.342003 149.675294 
L 298.53325 146.605553 
L 299.128874 159.524047 
L 300.320121 150.826447 
L 300.915745 142.512565 
L 301.511368 148.652047 
L 302.702615 152.745035 
L 303.298239 150.186918 
L 303.893862 145.582306 
L 304.489486 149.291576 
L 305.085109 150.826447 
L 305.680733 144.303247 
L 306.276357 146.861365 
L 306.87198 144.559059 
L 307.467604 149.419482 
L 308.063227 152.489224 
L 308.658851 154.279906 
L 309.254474 149.675294 
L 309.850098 150.186918 
L 310.445721 155.047341 
L 311.041345 150.698541 
L 311.636969 149.163671 
L 312.232592 149.675294 
L 312.828216 152.617129 
L 313.423839 151.9776 
L 314.019463 151.9776 
L 314.615086 144.942776 
L 315.21071 151.849694 
L 315.806333 151.210165 
L 316.401957 144.814871 
L 316.997581 148.396235 
L 317.593204 147.372988 
L 318.188828 149.547388 
L 318.784451 146.093929 
L 319.380075 148.140424 
L 319.975698 145.326494 
L 320.571322 151.721788 
L 321.166945 148.396235 
L 321.762569 149.675294 
L 322.358192 143.919529 
L 322.953816 150.954353 
L 323.54944 148.524141 
L 324.145063 150.059012 
L 324.740687 150.186918 
L 325.33631 144.942776 
L 325.931934 147.500894 
L 326.527557 158.884518 
L 327.123181 147.245082 
L 327.718804 147.6288 
L 328.314428 148.524141 
L 328.910052 144.431153 
L 329.505675 147.756706 
L 330.101299 148.140424 
L 330.696922 146.093929 
L 331.292546 150.954353 
L 331.888169 148.012518 
L 332.483793 147.6288 
L 333.079416 145.070682 
L 333.67504 151.465976 
L 334.270664 142.896282 
L 334.866287 146.989271 
L 335.461911 138.163765 
L 336.057534 149.8032 
L 336.653158 147.500894 
L 337.248781 147.756706 
L 337.844405 148.524141 
L 338.440028 148.524141 
L 339.035652 144.686965 
L 339.631276 143.535812 
L 340.226899 147.756706 
L 340.822523 156.838024 
L 341.418146 150.954353 
L 342.01377 146.605553 
L 342.609393 143.919529 
L 343.205017 156.454306 
L 343.80064 149.931106 
L 344.396264 150.186918 
L 344.991888 154.535718 
L 345.587511 146.989271 
L 346.183135 143.919529 
L 347.374382 148.524141 
L 347.970005 146.989271 
L 348.565629 144.175341 
L 349.161252 149.675294 
L 349.756876 143.152094 
L 350.3525 147.117176 
L 350.948123 145.326494 
L 351.543747 146.349741 
L 352.13937 146.349741 
L 352.734994 142.512565 
L 353.330617 151.593882 
L 353.926241 146.349741 
L 354.521864 147.756706 
L 355.117488 144.175341 
L 355.713112 145.582306 
L 356.308735 146.349741 
L 356.904359 146.349741 
L 357.499982 148.012518 
L 358.095606 149.163671 
L 358.691229 150.698541 
L 359.286853 152.745035 
L 359.882476 153.256659 
L 360.4781 141.361412 
L 361.073724 147.756706 
L 361.669347 148.396235 
L 362.264971 148.779953 
L 362.860594 145.838118 
L 363.456218 153.000847 
L 364.051841 143.407906 
L 364.647465 149.419482 
L 365.243088 144.303247 
L 365.838712 144.431153 
L 366.434336 152.489224 
L 367.029959 148.012518 
L 367.625583 144.559059 
L 368.221206 147.884612 
L 368.81683 151.849694 
L 369.412453 151.338071 
L 370.008077 148.907859 
L 370.6037 143.663718 
L 371.199324 152.233412 
L 371.794948 144.559059 
L 372.390571 146.861365 
L 372.986195 148.268329 
L 373.581818 150.954353 
L 373.581818 150.954353 
" clip-path="url(#p89b1762644)" style="fill: none; stroke: #1f77b4; stroke-width: 1.5; stroke-linecap: square"/>
   </g>
   <g id="line2d_32">
    <path d="M 69.218182 190.605176 
L 69.813805 199.942306 
L 70.409429 186.512188 
L 71.005052 196.488847 
L 71.600676 194.570259 
L 72.1963 197.256282 
L 72.791923 190.093553 
L 73.387547 193.035388 
L 73.98317 189.709835 
L 74.578794 194.698165 
L 75.174417 192.267953 
L 75.770041 199.558588 
L 76.365664 197.000471 
L 76.961288 192.267953 
L 77.556912 195.593506 
L 78.152535 196.744659 
L 78.748159 188.558682 
L 79.343782 198.151624 
L 79.939406 195.593506 
L 80.535029 201.093459 
L 81.130653 189.198212 
L 81.726276 194.953976 
L 82.3219 194.953976 
L 82.917524 190.093553 
L 83.513147 197.512094 
L 84.108771 197.384188 
L 84.704394 196.744659 
L 85.895641 193.163294 
L 86.491265 189.837741 
L 87.086888 196.488847 
L 87.682512 199.558588 
L 88.278136 190.349365 
L 88.873759 197.384188 
L 89.469383 196.233035 
L 90.065006 192.140047 
L 90.66063 193.419106 
L 91.256253 194.314447 
L 91.851877 198.919059 
L 92.4475 189.454024 
L 93.043124 194.953976 
L 93.638748 192.523765 
L 94.234371 192.267953 
L 94.829995 197.64 
L 95.425618 191.884235 
L 96.021242 193.547012 
L 96.616865 195.593506 
L 97.212489 195.849318 
L 97.808112 194.953976 
L 98.403736 194.570259 
L 99.594983 192.395859 
L 100.190607 194.058635 
L 100.78623 193.163294 
L 101.381854 195.849318 
L 101.977477 194.186541 
L 102.573101 197.000471 
L 103.168724 190.860988 
L 103.764348 196.488847 
L 104.359972 198.023718 
L 104.955595 193.2912 
L 105.551219 194.186541 
L 106.146842 193.802824 
L 106.742466 191.628424 
L 107.338089 195.4656 
L 107.933713 191.1168 
L 108.529336 196.488847 
L 109.12496 195.4656 
L 109.720584 199.430682 
L 110.316207 197.384188 
L 110.911831 192.267953 
L 111.507454 192.395859 
L 112.103078 199.046965 
L 112.698701 189.965647 
L 113.294325 192.523765 
L 113.889948 191.244706 
L 114.485572 191.884235 
L 115.081196 191.1168 
L 115.676819 194.186541 
L 116.272443 188.814494 
L 116.868066 194.953976 
L 117.46369 195.081882 
L 118.059313 193.2912 
L 118.654937 192.140047 
L 119.25056 196.488847 
L 119.846184 192.907482 
L 120.441808 197.000471 
L 121.037431 195.209788 
L 121.633055 196.616753 
L 122.228678 193.547012 
L 122.824302 193.163294 
L 123.419925 193.547012 
L 124.611172 189.198212 
L 125.206796 197.512094 
L 125.802419 196.233035 
L 126.398043 193.930729 
L 126.993667 193.2912 
L 127.58929 196.105129 
L 128.184914 194.570259 
L 128.780537 195.209788 
L 129.376161 191.244706 
L 129.971784 188.302871 
L 130.567408 189.454024 
L 131.163031 196.488847 
L 131.758655 195.977224 
L 132.354279 197.895812 
L 132.949902 190.093553 
L 133.545526 191.756329 
L 134.141149 185.361035 
L 134.736773 199.174871 
L 135.332396 190.221459 
L 135.92802 197.64 
L 136.523643 197.384188 
L 137.119267 196.872565 
L 137.714891 194.058635 
L 138.310514 196.616753 
L 138.906138 193.419106 
L 139.501761 194.058635 
L 140.097385 192.140047 
L 140.693008 196.488847 
L 141.288632 193.419106 
L 141.884255 191.244706 
L 142.479879 191.244706 
L 143.075503 194.058635 
L 143.671126 193.674918 
L 144.26675 193.674918 
L 144.862373 200.581835 
L 145.457997 194.442353 
L 146.05362 193.163294 
L 146.649244 189.965647 
L 147.244867 198.151624 
L 147.840491 194.186541 
L 148.436115 199.430682 
L 149.031738 196.233035 
L 149.627362 194.698165 
L 150.818609 190.477271 
L 151.414232 185.105224 
L 152.009856 182.163388 
L 152.605479 177.942494 
L 153.201103 162.977506 
L 153.796727 155.175247 
L 154.39235 151.210165 
L 154.987974 137.524235 
L 156.179221 126.396424 
L 156.774844 136.884706 
L 157.370468 133.047529 
L 158.561715 162.977506 
L 159.157339 173.849506 
L 159.752962 179.477365 
L 160.348586 181.140141 
L 160.944209 187.535435 
L 161.539833 191.372612 
L 162.135456 189.581929 
L 162.73108 198.151624 
L 163.326703 193.2912 
L 163.922327 195.209788 
L 164.517951 195.337694 
L 165.113574 194.953976 
L 165.709198 195.977224 
L 166.304821 195.977224 
L 166.900445 195.081882 
L 167.496068 196.105129 
L 168.091692 189.837741 
L 168.687315 192.267953 
L 169.282939 190.988894 
L 169.878563 193.802824 
L 170.474186 193.035388 
L 171.06981 196.233035 
L 171.665433 191.756329 
L 172.261057 188.302871 
L 172.85668 186.895906 
L 173.452304 191.628424 
L 174.047927 192.523765 
L 174.643551 186.768 
L 175.239175 188.174965 
L 175.834798 184.721506 
L 176.430422 188.047059 
L 177.026045 187.151718 
L 177.621669 190.733082 
L 178.217292 188.174965 
L 178.812916 183.570353 
L 179.408539 192.907482 
L 180.004163 186.640094 
L 180.599787 192.907482 
L 181.19541 191.756329 
L 181.791034 191.628424 
L 182.386657 193.035388 
L 182.982281 195.081882 
L 183.577904 190.988894 
L 184.173528 191.372612 
L 184.769151 192.395859 
L 185.364775 193.163294 
L 185.960399 194.826071 
L 186.556022 193.930729 
L 187.151646 195.4656 
L 187.747269 195.849318 
L 188.342893 190.988894 
L 189.53414 194.186541 
L 190.129763 191.756329 
L 191.916634 196.616753 
L 192.512258 195.081882 
L 193.107881 194.698165 
L 193.703505 186.768 
L 194.299128 194.058635 
L 194.894752 194.698165 
L 195.490375 195.081882 
L 196.085999 193.930729 
L 196.681622 195.593506 
L 197.277246 194.058635 
L 197.87287 196.616753 
L 198.468493 195.4656 
L 199.064117 191.628424 
L 199.65974 191.628424 
L 200.255364 194.314447 
L 200.850987 194.442353 
L 201.446611 191.628424 
L 202.042234 195.721412 
L 202.637858 192.267953 
L 203.233482 196.360941 
L 203.829105 190.349365 
L 204.424729 192.523765 
L 205.020352 192.395859 
L 205.615976 190.093553 
L 206.211599 189.198212 
L 206.807223 193.163294 
L 207.402846 190.221459 
L 207.99847 194.314447 
L 208.594094 187.151718 
L 209.189717 184.081976 
L 209.785341 177.814588 
L 210.380964 176.919247 
L 210.976588 168.093741 
L 211.572211 172.442541 
L 212.167835 174.233224 
L 212.763458 166.303059 
L 213.359082 175.000659 
L 213.954706 175.896 
L 215.741576 188.174965 
L 216.3372 193.2912 
L 216.932823 194.058635 
L 217.528447 191.372612 
L 218.12407 196.872565 
L 218.719694 195.849318 
L 219.315318 191.1168 
L 219.910941 191.372612 
L 220.506565 192.012141 
L 221.102188 195.721412 
L 221.697812 191.372612 
L 222.293435 194.442353 
L 222.889059 195.849318 
L 223.484682 195.849318 
L 224.080306 194.058635 
L 224.67593 189.837741 
L 225.867177 194.953976 
L 226.4628 192.395859 
L 227.058424 191.1168 
L 227.654047 193.419106 
L 228.249671 194.442353 
L 228.845294 200.709741 
L 229.440918 193.547012 
L 230.036542 191.756329 
L 230.632165 191.500518 
L 231.227789 193.930729 
L 231.823412 193.930729 
L 232.419036 190.221459 
L 233.014659 194.314447 
L 233.610283 195.721412 
L 234.205906 191.1168 
L 234.80153 195.977224 
L 235.397154 195.209788 
L 235.992777 196.616753 
L 236.588401 186.384282 
L 237.184024 190.605176 
L 237.779648 195.721412 
L 238.375271 192.267953 
L 238.970895 197.512094 
L 239.566518 195.593506 
L 240.162142 195.209788 
L 240.757766 196.105129 
L 241.353389 189.837741 
L 241.949013 192.012141 
L 242.544636 189.837741 
L 243.14026 195.4656 
L 243.735883 196.360941 
L 244.331507 194.570259 
L 244.92713 196.105129 
L 245.522754 193.163294 
L 246.118378 193.419106 
L 246.714001 197.64 
L 247.309625 193.035388 
L 247.905248 195.337694 
L 248.500872 195.337694 
L 249.096495 193.035388 
L 249.692119 195.081882 
L 250.287742 189.709835 
L 250.883366 198.151624 
L 251.47899 195.081882 
L 252.074613 189.965647 
L 253.26586 193.2912 
L 253.861484 199.302776 
L 254.457107 196.872565 
L 255.052731 188.686588 
L 255.648354 193.930729 
L 256.243978 194.442353 
L 256.839601 193.419106 
L 257.435225 197.000471 
L 258.030849 192.395859 
L 258.626472 192.651671 
L 259.222096 193.674918 
L 259.817719 192.779576 
L 261.008966 195.081882 
L 262.200213 193.674918 
L 262.795837 195.593506 
L 263.391461 192.012141 
L 263.987084 189.965647 
L 264.582708 196.488847 
L 265.178331 194.698165 
L 265.773955 190.221459 
L 266.369578 195.593506 
L 266.965202 193.035388 
L 267.560825 198.023718 
L 268.156449 190.605176 
L 268.752073 191.756329 
L 269.347696 192.651671 
L 269.94332 190.093553 
L 270.538943 194.442353 
L 271.134567 190.605176 
L 271.73019 190.349365 
L 272.921437 195.209788 
L 273.517061 193.163294 
L 274.112685 195.977224 
L 274.708308 195.721412 
L 275.303932 194.314447 
L 275.899555 197.767906 
L 276.495179 193.035388 
L 277.090802 193.930729 
L 277.686426 189.837741 
L 278.282049 193.2912 
L 278.877673 190.349365 
L 279.473297 199.558588 
L 280.06892 194.186541 
L 280.664544 196.105129 
L 281.260167 193.802824 
L 281.855791 190.733082 
L 282.451414 193.674918 
L 283.047038 189.965647 
L 283.642661 193.2912 
L 284.238285 193.163294 
L 284.833909 193.930729 
L 285.429532 192.523765 
L 286.025156 200.453929 
L 286.620779 189.454024 
L 287.216403 192.267953 
L 288.40765 193.802824 
L 289.003273 194.953976 
L 289.598897 193.419106 
L 290.194521 190.988894 
L 290.790144 191.628424 
L 291.385768 194.314447 
L 291.981391 195.4656 
L 292.577015 195.337694 
L 293.172638 192.140047 
L 293.768262 198.151624 
L 294.363885 190.477271 
L 294.959509 193.035388 
L 295.555133 193.2912 
L 296.150756 192.907482 
L 296.74638 195.209788 
L 297.342003 188.686588 
L 297.937627 189.837741 
L 298.53325 197.895812 
L 299.128874 198.407435 
L 299.724497 192.012141 
L 300.320121 196.744659 
L 300.915745 193.802824 
L 301.511368 195.977224 
L 302.106992 190.988894 
L 302.702615 194.570259 
L 303.298239 194.570259 
L 303.893862 192.523765 
L 304.489486 194.186541 
L 305.085109 192.140047 
L 305.680733 193.547012 
L 306.276357 191.756329 
L 306.87198 197.512094 
L 307.467604 192.012141 
L 308.063227 199.558588 
L 308.658851 191.756329 
L 309.254474 186.512188 
L 309.850098 194.314447 
L 310.445721 189.070306 
L 311.041345 193.674918 
L 311.636969 195.337694 
L 312.232592 195.593506 
L 312.828216 192.907482 
L 313.423839 195.721412 
L 314.019463 196.744659 
L 314.615086 190.988894 
L 315.21071 198.023718 
L 316.401957 188.558682 
L 316.997581 195.721412 
L 317.593204 191.500518 
L 318.188828 197.895812 
L 318.784451 195.081882 
L 319.380075 194.442353 
L 319.975698 194.314447 
L 320.571322 196.488847 
L 321.166945 195.081882 
L 321.762569 196.105129 
L 322.358192 195.081882 
L 322.953816 196.488847 
L 323.54944 194.953976 
L 324.145063 187.407529 
L 324.740687 192.779576 
L 325.33631 194.058635 
L 325.931934 189.326118 
L 326.527557 193.035388 
L 327.123181 191.756329 
L 327.718804 194.186541 
L 328.314428 190.733082 
L 328.910052 191.884235 
L 329.505675 191.756329 
L 330.101299 193.035388 
L 330.696922 193.2912 
L 331.292546 195.4656 
L 331.888169 194.314447 
L 332.483793 191.884235 
L 333.079416 192.267953 
L 333.67504 198.791153 
L 334.270664 193.2912 
L 334.866287 192.267953 
L 335.461911 193.163294 
L 336.057534 194.442353 
L 336.653158 192.012141 
L 337.844405 195.721412 
L 338.440028 191.756329 
L 339.035652 195.593506 
L 339.631276 196.488847 
L 340.226899 197.64 
L 340.822523 191.244706 
L 341.418146 194.314447 
L 342.01377 196.488847 
L 342.609393 195.081882 
L 343.205017 195.593506 
L 343.80064 191.372612 
L 344.396264 191.756329 
L 344.991888 197.64 
L 345.587511 192.907482 
L 346.183135 197.256282 
L 346.778758 193.419106 
L 347.374382 191.244706 
L 347.970005 190.477271 
L 348.565629 190.349365 
L 349.161252 191.628424 
L 349.756876 194.058635 
L 350.948123 193.419106 
L 351.543747 194.698165 
L 352.13937 190.349365 
L 352.734994 193.930729 
L 353.330617 196.616753 
L 353.926241 193.163294 
L 354.521864 191.756329 
L 355.117488 195.209788 
L 355.713112 194.442353 
L 356.308735 197.64 
L 356.904359 195.849318 
L 357.499982 193.547012 
L 358.095606 194.442353 
L 358.691229 191.1168 
L 359.286853 193.930729 
L 359.882476 193.2912 
L 360.4781 197.512094 
L 361.073724 191.500518 
L 361.669347 190.605176 
L 362.264971 193.930729 
L 362.860594 188.686588 
L 363.456218 194.186541 
L 364.051841 191.884235 
L 364.647465 197.64 
L 365.243088 193.547012 
L 365.838712 194.058635 
L 366.434336 193.930729 
L 367.029959 200.326024 
L 367.625583 197.000471 
L 368.221206 191.1168 
L 368.81683 192.779576 
L 369.412453 194.826071 
L 370.008077 194.186541 
L 370.6037 195.209788 
L 371.199324 192.395859 
L 371.794948 192.651671 
L 372.390571 195.209788 
L 372.986195 193.547012 
L 373.581818 195.209788 
L 373.581818 195.209788 
" clip-path="url(#p89b1762644)" style="fill: none; stroke: #ff7f0e; stroke-width: 1.5; stroke-linecap: square"/>
   </g>
   <g id="line2d_33">
    <path d="M 69.218182 246.500047 
L 69.813805 246.372141 
L 70.409429 245.4768 
L 71.005052 247.6512 
L 71.600676 245.988424 
L 72.1963 246.883765 
L 72.791923 247.523294 
L 73.387547 246.883765 
L 73.98317 246.627953 
L 74.578794 247.139576 
L 75.174417 246.755859 
L 76.365664 248.290729 
L 76.961288 246.500047 
L 77.556912 246.244235 
L 78.748159 247.6512 
L 79.343782 246.627953 
L 79.939406 245.348894 
L 80.535029 247.011671 
L 81.130653 245.860518 
L 81.726276 245.604706 
L 82.3219 247.779106 
L 83.513147 245.860518 
L 84.108771 246.244235 
L 84.704394 248.162824 
L 85.300018 247.395388 
L 85.895641 247.523294 
L 86.491265 247.395388 
L 87.086888 247.907012 
L 87.682512 247.267482 
L 88.278136 246.244235 
L 88.873759 248.162824 
L 89.469383 246.500047 
L 90.065006 244.453553 
L 90.66063 247.011671 
L 91.256253 247.011671 
L 91.851877 245.093082 
L 92.4475 247.779106 
L 93.043124 248.930259 
L 93.638748 247.267482 
L 94.234371 247.011671 
L 94.829995 247.523294 
L 95.425618 244.709365 
L 96.021242 246.883765 
L 96.616865 245.348894 
L 97.212489 247.011671 
L 97.808112 247.523294 
L 98.403736 247.139576 
L 98.99936 245.732612 
L 99.594983 245.604706 
L 100.190607 245.860518 
L 100.78623 246.883765 
L 101.381854 244.581459 
L 101.977477 245.988424 
L 102.573101 246.627953 
L 103.168724 247.523294 
L 103.764348 245.348894 
L 104.359972 246.883765 
L 104.955595 247.6512 
L 105.551219 246.755859 
L 106.742466 247.011671 
L 107.338089 246.883765 
L 107.933713 247.6512 
L 108.529336 246.755859 
L 109.12496 246.500047 
L 109.720584 245.860518 
L 110.316207 246.116329 
L 110.911831 245.860518 
L 111.507454 245.348894 
L 112.103078 246.116329 
L 113.294325 248.162824 
L 113.889948 247.267482 
L 114.485572 247.139576 
L 115.081196 247.267482 
L 115.676819 247.523294 
L 116.272443 246.755859 
L 116.868066 247.395388 
L 117.46369 247.267482 
L 118.059313 246.627953 
L 118.654937 246.500047 
L 119.25056 245.348894 
L 119.846184 246.500047 
L 120.441808 245.093082 
L 121.037431 247.779106 
L 121.633055 247.523294 
L 122.228678 245.860518 
L 122.824302 248.418635 
L 123.419925 246.244235 
L 124.611172 247.139576 
L 125.206796 246.883765 
L 125.802419 248.162824 
L 126.398043 247.267482 
L 126.993667 247.139576 
L 127.58929 246.883765 
L 128.184914 245.093082 
L 128.780537 247.139576 
L 129.376161 245.860518 
L 129.971784 245.860518 
L 130.567408 247.139576 
L 131.163031 246.116329 
L 131.758655 248.162824 
L 132.354279 245.348894 
L 132.949902 246.500047 
L 133.545526 246.755859 
L 134.141149 247.523294 
L 134.736773 247.011671 
L 135.332396 245.604706 
L 135.92802 247.139576 
L 136.523643 246.244235 
L 137.119267 247.779106 
L 137.714891 246.755859 
L 138.906138 247.395388 
L 139.501761 247.139576 
L 140.097385 247.523294 
L 141.288632 246.116329 
L 141.884255 247.779106 
L 142.479879 246.883765 
L 143.075503 245.604706 
L 143.671126 248.162824 
L 144.26675 245.093082 
L 144.862373 246.244235 
L 145.457997 246.116329 
L 146.05362 246.500047 
L 146.649244 247.267482 
L 147.244867 246.116329 
L 147.840491 247.011671 
L 148.436115 248.290729 
L 149.031738 247.139576 
L 149.627362 247.139576 
L 150.222985 247.395388 
L 151.414232 246.244235 
L 152.009856 247.523294 
L 152.605479 246.883765 
L 153.201103 246.883765 
L 153.796727 247.267482 
L 154.39235 246.500047 
L 154.987974 247.523294 
L 155.583597 246.116329 
L 156.179221 247.011671 
L 156.774844 247.395388 
L 157.370468 246.627953 
L 157.966091 247.395388 
L 158.561715 246.627953 
L 159.157339 246.755859 
L 159.752962 247.523294 
L 160.348586 246.883765 
L 160.944209 245.4768 
L 161.539833 245.860518 
L 162.135456 247.267482 
L 162.73108 247.523294 
L 163.326703 245.732612 
L 163.922327 247.395388 
L 164.517951 247.267482 
L 165.113574 246.244235 
L 165.709198 246.500047 
L 166.304821 247.523294 
L 166.900445 245.988424 
L 167.496068 247.011671 
L 168.091692 246.500047 
L 168.687315 246.627953 
L 169.282939 248.546541 
L 169.878563 245.220988 
L 170.474186 247.523294 
L 171.06981 247.6512 
L 173.452304 247.6512 
L 174.643551 246.755859 
L 175.239175 246.500047 
L 175.834798 245.348894 
L 176.430422 247.6512 
L 177.026045 245.348894 
L 177.621669 245.348894 
L 178.217292 244.709365 
L 178.812916 240.360565 
L 179.408539 239.848941 
L 180.004163 236.011765 
L 181.791034 219.384 
L 182.386657 220.023529 
L 182.982281 219.511906 
L 183.577904 212.093365 
L 184.173528 223.476988 
L 185.364775 230.383906 
L 185.960399 239.465224 
L 186.556022 241.000094 
L 187.151646 242.023341 
L 188.342893 245.732612 
L 188.938516 245.732612 
L 189.53414 247.267482 
L 190.129763 248.162824 
L 190.725387 247.907012 
L 191.32101 247.011671 
L 191.916634 247.139576 
L 192.512258 246.244235 
L 193.107881 246.500047 
L 193.703505 243.941929 
L 194.299128 246.500047 
L 194.894752 247.523294 
L 195.490375 245.988424 
L 196.085999 246.883765 
L 196.681622 245.604706 
L 197.277246 245.988424 
L 197.87287 245.220988 
L 198.468493 247.267482 
L 199.064117 245.4768 
L 199.65974 244.581459 
L 200.255364 246.244235 
L 200.850987 244.197741 
L 201.446611 244.069835 
L 202.042234 243.686118 
L 202.637858 243.558212 
L 203.233482 243.686118 
L 203.829105 244.069835 
L 204.424729 243.686118 
L 205.020352 245.4768 
L 205.615976 244.709365 
L 206.211599 244.197741 
L 206.807223 244.581459 
L 207.402846 244.453553 
L 207.99847 243.941929 
L 209.189717 245.604706 
L 209.785341 246.883765 
L 210.380964 246.116329 
L 210.976588 246.116329 
L 211.572211 247.395388 
L 212.167835 247.523294 
L 213.359082 245.860518 
L 213.954706 245.860518 
L 214.550329 247.6512 
L 215.145953 245.860518 
L 215.741576 244.581459 
L 216.3372 247.6512 
L 216.932823 246.627953 
L 217.528447 247.011671 
L 218.12407 245.4768 
L 218.719694 247.395388 
L 219.315318 246.500047 
L 219.910941 247.267482 
L 220.506565 247.011671 
L 221.102188 245.4768 
L 221.697812 247.523294 
L 222.293435 247.267482 
L 222.889059 246.116329 
L 223.484682 247.139576 
L 224.080306 245.860518 
L 224.67593 247.395388 
L 225.271553 246.883765 
L 226.4628 247.523294 
L 227.058424 246.755859 
L 227.654047 246.755859 
L 228.249671 246.883765 
L 228.845294 246.372141 
L 229.440918 247.523294 
L 230.036542 247.395388 
L 230.632165 245.732612 
L 231.227789 247.267482 
L 231.823412 248.034918 
L 232.419036 245.348894 
L 233.014659 248.290729 
L 233.610283 246.755859 
L 234.205906 245.860518 
L 234.80153 243.941929 
L 237.184024 238.441976 
L 237.779648 238.186165 
L 238.375271 235.755953 
L 238.970895 238.825694 
L 239.566518 238.825694 
L 240.162142 239.593129 
L 240.757766 239.593129 
L 241.353389 243.686118 
L 243.14026 245.860518 
L 243.735883 245.4768 
L 244.331507 246.244235 
L 244.92713 247.395388 
L 245.522754 248.162824 
L 246.118378 246.500047 
L 246.714001 247.6512 
L 247.309625 246.372141 
L 247.905248 247.139576 
L 249.096495 245.220988 
L 249.692119 247.6512 
L 250.883366 246.755859 
L 251.47899 245.348894 
L 252.074613 247.011671 
L 252.670237 247.267482 
L 253.26586 246.116329 
L 253.861484 247.011671 
L 254.457107 246.883765 
L 255.052731 246.372141 
L 255.648354 246.755859 
L 256.243978 248.034918 
L 256.839601 246.500047 
L 257.435225 247.267482 
L 258.030849 248.290729 
L 258.626472 246.244235 
L 259.222096 245.4768 
L 259.817719 246.627953 
L 260.413343 246.627953 
L 261.008966 246.244235 
L 261.60459 248.674447 
L 262.200213 247.267482 
L 262.795837 247.267482 
L 263.391461 247.395388 
L 263.987084 247.779106 
L 264.582708 246.116329 
L 265.178331 245.988424 
L 265.773955 246.244235 
L 266.369578 245.860518 
L 266.965202 244.197741 
L 267.560825 247.395388 
L 268.156449 249.058165 
L 268.752073 244.837271 
L 269.347696 246.883765 
L 269.94332 245.988424 
L 270.538943 245.988424 
L 271.134567 246.500047 
L 271.73019 248.418635 
L 272.325814 247.523294 
L 272.921437 245.860518 
L 273.517061 247.907012 
L 274.112685 246.883765 
L 274.708308 246.372141 
L 275.303932 247.267482 
L 275.899555 245.732612 
L 276.495179 246.755859 
L 277.090802 247.011671 
L 277.686426 245.860518 
L 278.282049 246.244235 
L 278.877673 247.523294 
L 279.473297 247.395388 
L 280.06892 247.139576 
L 281.260167 245.988424 
L 282.451414 248.674447 
L 283.047038 246.883765 
L 283.642661 246.500047 
L 284.238285 246.500047 
L 284.833909 246.244235 
L 285.429532 248.290729 
L 286.025156 246.244235 
L 286.620779 247.907012 
L 287.812026 245.604706 
L 288.40765 247.6512 
L 289.003273 246.755859 
L 289.598897 247.011671 
L 290.194521 246.116329 
L 290.790144 245.988424 
L 291.385768 248.034918 
L 291.981391 245.860518 
L 293.172638 247.267482 
L 293.768262 245.4768 
L 294.363885 246.755859 
L 294.959509 246.244235 
L 295.555133 247.011671 
L 296.150756 248.290729 
L 296.74638 246.755859 
L 297.342003 246.500047 
L 297.937627 248.162824 
L 298.53325 245.348894 
L 299.128874 247.523294 
L 299.724497 248.290729 
L 300.320121 247.523294 
L 300.915745 246.244235 
L 301.511368 247.6512 
L 302.106992 247.6512 
L 302.702615 246.627953 
L 303.298239 247.267482 
L 303.893862 246.627953 
L 304.489486 248.034918 
L 305.085109 246.500047 
L 305.680733 246.372141 
L 306.276357 246.755859 
L 306.87198 246.627953 
L 307.467604 244.837271 
L 308.063227 246.755859 
L 308.658851 246.244235 
L 309.254474 247.011671 
L 309.850098 245.220988 
L 310.445721 248.034918 
L 311.041345 246.755859 
L 311.636969 247.395388 
L 312.232592 247.139576 
L 312.828216 247.267482 
L 313.423839 245.093082 
L 314.019463 246.500047 
L 314.615086 246.755859 
L 315.21071 244.837271 
L 315.806333 247.907012 
L 316.401957 246.755859 
L 316.997581 246.116329 
L 317.593204 246.116329 
L 318.188828 246.500047 
L 318.784451 247.267482 
L 319.380075 245.604706 
L 319.975698 247.139576 
L 320.571322 246.372141 
L 321.166945 246.116329 
L 321.762569 246.116329 
L 322.358192 246.244235 
L 322.953816 245.604706 
L 323.54944 247.139576 
L 324.145063 246.244235 
L 324.740687 246.755859 
L 325.33631 245.4768 
L 326.527557 246.500047 
L 327.123181 245.988424 
L 327.718804 246.116329 
L 328.314428 247.139576 
L 328.910052 244.965176 
L 329.505675 245.604706 
L 330.101299 246.500047 
L 330.696922 244.581459 
L 331.292546 248.162824 
L 331.888169 246.500047 
L 332.483793 247.523294 
L 333.079416 247.139576 
L 333.67504 247.011671 
L 334.270664 245.348894 
L 334.866287 247.267482 
L 335.461911 247.139576 
L 336.057534 246.755859 
L 336.653158 247.6512 
L 337.248781 246.500047 
L 337.844405 247.523294 
L 338.440028 245.988424 
L 339.035652 247.523294 
L 339.631276 248.034918 
L 340.226899 247.139576 
L 341.418146 246.627953 
L 342.609393 248.034918 
L 343.205017 246.372141 
L 343.80064 247.011671 
L 344.396264 247.907012 
L 344.991888 245.988424 
L 345.587511 245.860518 
L 346.183135 246.116329 
L 346.778758 245.220988 
L 348.565629 247.523294 
L 349.161252 246.116329 
L 349.756876 245.220988 
L 350.3525 247.779106 
L 350.948123 245.988424 
L 352.13937 246.883765 
L 352.734994 245.860518 
L 353.330617 247.523294 
L 353.926241 245.4768 
L 354.521864 246.627953 
L 355.117488 245.988424 
L 355.713112 247.6512 
L 356.308735 245.220988 
L 356.904359 247.907012 
L 357.499982 247.779106 
L 358.095606 247.011671 
L 358.691229 246.627953 
L 359.286853 247.267482 
L 359.882476 246.244235 
L 360.4781 248.546541 
L 361.073724 247.6512 
L 361.669347 247.6512 
L 362.264971 246.500047 
L 362.860594 247.139576 
L 363.456218 245.220988 
L 364.051841 248.162824 
L 364.647465 246.372141 
L 365.243088 247.395388 
L 365.838712 244.709365 
L 366.434336 247.6512 
L 367.029959 247.011671 
L 368.221206 246.372141 
L 368.81683 247.011671 
L 369.412453 246.372141 
L 370.008077 246.627953 
L 370.6037 247.907012 
L 371.199324 247.523294 
L 372.390571 245.604706 
L 372.986195 247.395388 
L 373.581818 246.372141 
L 373.581818 246.372141 
" clip-path="url(#p89b1762644)" style="fill: none; stroke: #2ca02c; stroke-width: 1.5; stroke-linecap: square"/>
   </g>
   <g id="patch_3">
    <path d="M 54 252 
L 54 34.56 
" style="fill: none; stroke: #000000; stroke-width: 0.8; stroke-linejoin: miter; stroke-linecap: square"/>
   </g>
   <g id="patch_4">
    <path d="M 388.8 252 
L 388.8 34.56 
" style="fill: none; stroke: #000000; stroke-width: 0.8; stroke-linejoin: miter; stroke-linecap: square"/>
   </g>
   <g id="patch_5">
    <path d="M 54 252 
L 388.8 252 
" style="fill: none; stroke: #000000; stroke-width: 0.8; stroke-linejoin: miter; stroke-linecap: square"/>
   </g>
   <g id="patch_6">
    <path d="M 54 34.56 
L 388.8 34.56 
" style="fill: none; stroke: #000000; stroke-width: 0.8; stroke-linejoin: miter; stroke-linecap: square"/>
   </g>
   <g id="text_18">
    <!-- Label 19 -->
    <g transform="translate(195.670312 28.56)scale(0.12 -0.12)">
     <defs>
      <path id="DejaVuSans-4c" d="M 628 4666 
L 1259 4666 
L 1259 531 
L 3531 531 
L 3531 0 
L 628 0 
L 628 4666 
z
" transform="scale(0.015625)"/>
      <path id="DejaVuSans-61" d="M 2194 1759 
Q 1497 1759 1228 1600 
Q 959 1441 959 1056 
Q 959 750 1161 570 
Q 1363 391 1709 391 
Q 2188 391 2477 730 
Q 2766 1069 2766 1631 
L 2766 1759 
L 2194 1759 
z
M 3341 1997 
L 3341 0 
L 2766 0 
L 2766 531 
Q 2569 213 2275 61 
Q 1981 -91 1556 -91 
Q 1019 -91 701 211 
Q 384 513 384 1019 
Q 384 1609 779 1909 
Q 1175 2209 1959 2209 
L 2766 2209 
L 2766 2266 
Q 2766 2663 2505 2880 
Q 2244 3097 1772 3097 
Q 1472 3097 1187 3025 
Q 903 2953 641 2809 
L 641 3341 
Q 956 3463 1253 3523 
Q 1550 3584 1831 3584 
Q 2591 3584 2966 3190 
Q 3341 2797 3341 1997 
z
" transform="scale(0.015625)"/>
      <path id="DejaVuSans-65" d="M 3597 1894 
L 3597 1613 
L 953 1613 
Q 991 1019 1311 708 
Q 1631 397 2203 397 
Q 2534 397 2845 478 
Q 3156 559 3463 722 
L 3463 178 
Q 3153 47 2828 -22 
Q 2503 -91 2169 -91 
Q 1331 -91 842 396 
Q 353 884 353 1716 
Q 353 2575 817 3079 
Q 1281 3584 2069 3584 
Q 2775 3584 3186 3129 
Q 3597 2675 3597 1894 
z
M 3022 2063 
Q 3016 2534 2758 2815 
Q 2500 3097 2075 3097 
Q 1594 3097 1305 2825 
Q 1016 2553 972 2059 
L 3022 2063 
z
" transform="scale(0.015625)"/>
      <path id="DejaVuSans-6c" d="M 603 4863 
L 1178 4863 
L 1178 0 
L 603 0 
L 603 4863 
z
" transform="scale(0.015625)"/>
      <path id="DejaVuSans-20" transform="scale(0.015625)"/>
      <path id="DejaVuSans-39" d="M 703 97 
L 703 672 
Q 941 559 1184 500 
Q 1428 441 1663 441 
Q 2288 441 2617 861 
Q 2947 1281 2994 2138 
Q 2813 1869 2534 1725 
Q 2256 1581 1919 1581 
Q 1219 1581 811 2004 
Q 403 2428 403 3163 
Q 403 3881 828 4315 
Q 1253 4750 1959 4750 
Q 2769 4750 3195 4129 
Q 3622 3509 3622 2328 
Q 3622 1225 3098 567 
Q 2575 -91 1691 -91 
Q 1453 -91 1209 -44 
Q 966 3 703 97 
z
M 1959 2075 
Q 2384 2075 2632 2365 
Q 2881 2656 2881 3163 
Q 2881 3666 2632 3958 
Q 2384 4250 1959 4250 
Q 1534 4250 1286 3958 
Q 1038 3666 1038 3163 
Q 1038 2656 1286 2365 
Q 1534 2075 1959 2075 
z
" transform="scale(0.015625)"/>
     </defs>
     <use xlink:href="#DejaVuSans-4c"/>
     <use xlink:href="#DejaVuSans-61" x="55.712891"/>
     <use xlink:href="#DejaVuSans-62" x="116.992188"/>
     <use xlink:href="#DejaVuSans-65" x="180.46875"/>
     <use xlink:href="#DejaVuSans-6c" x="241.992188"/>
     <use xlink:href="#DejaVuSans-20" x="269.775391"/>
     <use xlink:href="#DejaVuSans-31" x="301.5625"/>
     <use xlink:href="#DejaVuSans-39" x="365.185547"/>
    </g>
   </g>
   <g id="legend_1">
    <g id="patch_7">
     <path d="M 309.070312 101.2725 
L 381.8 101.2725 
Q 383.8 101.2725 383.8 99.2725 
L 383.8 41.56 
Q 383.8 39.56 381.8 39.56 
L 309.070312 39.56 
Q 307.070312 39.56 307.070312 41.56 
L 307.070312 99.2725 
Q 307.070312 101.2725 309.070312 101.2725 
z
" style="fill: #ffffff; opacity: 0.8; stroke: #cccccc; stroke-linejoin: miter"/>
    </g>
    <g id="text_19">
     <!-- Trace number -->
     <g transform="translate(311.070312 51.158437)scale(0.1 -0.1)">
      <defs>
       <path id="DejaVuSans-54" d="M -19 4666 
L 3928 4666 
L 3928 4134 
L 2272 4134 
L 2272 0 
L 1638 0 
L 1638 4134 
L -19 4134 
L -19 4666 
z
" transform="scale(0.015625)"/>
       <path id="DejaVuSans-72" d="M 2631 2963 
Q 2534 3019 2420 3045 
Q 2306 3072 2169 3072 
Q 1681 3072 1420 2755 
Q 1159 2438 1159 1844 
L 1159 0 
L 581 0 
L 581 3500 
L 1159 3500 
L 1159 2956 
Q 1341 3275 1631 3429 
Q 1922 3584 2338 3584 
Q 2397 3584 2469 3576 
Q 2541 3569 2628 3553 
L 2631 2963 
z
" transform="scale(0.015625)"/>
       <path id="DejaVuSans-6d" d="M 3328 2828 
Q 3544 3216 3844 3400 
Q 4144 3584 4550 3584 
Q 5097 3584 5394 3201 
Q 5691 2819 5691 2113 
L 5691 0 
L 5113 0 
L 5113 2094 
Q 5113 2597 4934 2840 
Q 4756 3084 4391 3084 
Q 3944 3084 3684 2787 
Q 3425 2491 3425 1978 
L 3425 0 
L 2847 0 
L 2847 2094 
Q 2847 2600 2669 2842 
Q 2491 3084 2119 3084 
Q 1678 3084 1418 2786 
Q 1159 2488 1159 1978 
L 1159 0 
L 581 0 
L 581 3500 
L 1159 3500 
L 1159 2956 
Q 1356 3278 1631 3431 
Q 1906 3584 2284 3584 
Q 2666 3584 2933 3390 
Q 3200 3197 3328 2828 
z
" transform="scale(0.015625)"/>
      </defs>
      <use xlink:href="#DejaVuSans-54"/>
      <use xlink:href="#DejaVuSans-72" x="46.333984"/>
      <use xlink:href="#DejaVuSans-61" x="87.447266"/>
      <use xlink:href="#DejaVuSans-63" x="148.726562"/>
      <use xlink:href="#DejaVuSans-65" x="203.707031"/>
      <use xlink:href="#DejaVuSans-20" x="265.230469"/>
      <use xlink:href="#DejaVuSans-6e" x="297.017578"/>
      <use xlink:href="#DejaVuSans-75" x="360.396484"/>
      <use xlink:href="#DejaVuSans-6d" x="423.775391"/>
      <use xlink:href="#DejaVuSans-62" x="521.1875"/>
      <use xlink:href="#DejaVuSans-65" x="584.664062"/>
      <use xlink:href="#DejaVuSans-72" x="646.1875"/>
     </g>
    </g>
    <g id="line2d_34">
     <path d="M 321.891406 62.336562 
L 331.891406 62.336562 
L 341.891406 62.336562 
" style="fill: none; stroke: #1f77b4; stroke-width: 1.5; stroke-linecap: square"/>
    </g>
    <g id="text_20">
     <!-- 59 -->
     <g transform="translate(349.891406 65.836562)scale(0.1 -0.1)">
      <use xlink:href="#DejaVuSans-35"/>
      <use xlink:href="#DejaVuSans-39" x="63.623047"/>
     </g>
    </g>
    <g id="line2d_35">
     <path d="M 321.891406 77.014687 
L 331.891406 77.014687 
L 341.891406 77.014687 
" style="fill: none; stroke: #ff7f0e; stroke-width: 1.5; stroke-linecap: square"/>
    </g>
    <g id="text_21">
     <!-- 103 -->
     <g transform="translate(349.891406 80.514687)scale(0.1 -0.1)">
      <use xlink:href="#DejaVuSans-31"/>
      <use xlink:href="#DejaVuSans-30" x="63.623047"/>
      <use xlink:href="#DejaVuSans-33" x="127.246094"/>
     </g>
    </g>
    <g id="line2d_36">
     <path d="M 321.891406 91.692813 
L 331.891406 91.692813 
L 341.891406 91.692813 
" style="fill: none; stroke: #2ca02c; stroke-width: 1.5; stroke-linecap: square"/>
    </g>
    <g id="text_22">
     <!-- 111 -->
     <g transform="translate(349.891406 95.192813)scale(0.1 -0.1)">
      <use xlink:href="#DejaVuSans-31"/>
      <use xlink:href="#DejaVuSans-31" x="63.623047"/>
      <use xlink:href="#DejaVuSans-31" x="127.246094"/>
     </g>
    </g>
   </g>
  </g>
 </g>
 <defs>
  <clipPath id="p89b1762644">
   <rect x="54" y="34.56" width="334.8" height="217.44"/>
  </clipPath>
 </defs>
</svg>
