<?xml version="1.0" encoding="utf-8" standalone="no"?>
<!DOCTYPE svg PUBLIC "-//W3C//DTD SVG 1.1//EN"
  "http://www.w3.org/Graphics/SVG/1.1/DTD/svg11.dtd">
<svg xmlns:xlink="http://www.w3.org/1999/xlink" width="432pt" height="288pt" viewBox="0 0 432 288" xmlns="http://www.w3.org/2000/svg" version="1.1">
 <metadata>
  <rdf:RDF xmlns:dc="http://purl.org/dc/elements/1.1/" xmlns:cc="http://creativecommons.org/ns#" xmlns:rdf="http://www.w3.org/1999/02/22-rdf-syntax-ns#">
   <cc:Work>
    <dc:type rdf:resource="http://purl.org/dc/dcmitype/StillImage"/>
    <dc:date>2022-03-30T13:12:47.335629</dc:date>
    <dc:format>image/svg+xml</dc:format>
    <dc:creator>
     <cc:Agent>
      <dc:title>Matplotlib v3.5.1, https://matplotlib.org/</dc:title>
     </cc:Agent>
    </dc:creator>
   </cc:Work>
  </rdf:RDF>
 </metadata>
 <defs>
  <style type="text/css">*{stroke-linejoin: round; stroke-linecap: butt}</style>
 </defs>
 <g id="figure_1">
  <g id="patch_1">
   <path d="M 0 288 
L 432 288 
L 432 0 
L 0 0 
z
" style="fill: #ffffff"/>
  </g>
  <g id="axes_1">
   <g id="patch_2">
    <path d="M 54 252 
L 388.8 252 
L 388.8 34.56 
L 54 34.56 
z
" style="fill: #ffffff"/>
   </g>
   <g id="matplotlib.axis_1">
    <g id="xtick_1">
     <g id="line2d_1">
      <path d="M 69.218182 252 
L 69.218182 34.56 
" clip-path="url(#pe6782e6d13)" style="fill: none; stroke: #b0b0b0; stroke-width: 0.8; stroke-linecap: square"/>
     </g>
     <g id="line2d_2">
      <defs>
       <path id="mde0c4a6230" d="M 0 0 
L 0 3.5 
" style="stroke: #000000; stroke-width: 0.8"/>
      </defs>
      <g>
       <use xlink:href="#mde0c4a6230" x="69.218182" y="252" style="stroke: #000000; stroke-width: 0.8"/>
      </g>
     </g>
     <g id="text_1">
      <!-- 0 -->
      <g transform="translate(66.036932 266.598437)scale(0.1 -0.1)">
       <defs>
        <path id="DejaVuSans-30" d="M 2034 4250 
Q 1547 4250 1301 3770 
Q 1056 3291 1056 2328 
Q 1056 1369 1301 889 
Q 1547 409 2034 409 
Q 2525 409 2770 889 
Q 3016 1369 3016 2328 
Q 3016 3291 2770 3770 
Q 2525 4250 2034 4250 
z
M 2034 4750 
Q 2819 4750 3233 4129 
Q 3647 3509 3647 2328 
Q 3647 1150 3233 529 
Q 2819 -91 2034 -91 
Q 1250 -91 836 529 
Q 422 1150 422 2328 
Q 422 3509 836 4129 
Q 1250 4750 2034 4750 
z
" transform="scale(0.015625)"/>
       </defs>
       <use xlink:href="#DejaVuSans-30"/>
      </g>
     </g>
    </g>
    <g id="xtick_2">
     <g id="line2d_3">
      <path d="M 128.780537 252 
L 128.780537 34.56 
" clip-path="url(#pe6782e6d13)" style="fill: none; stroke: #b0b0b0; stroke-width: 0.8; stroke-linecap: square"/>
     </g>
     <g id="line2d_4">
      <g>
       <use xlink:href="#mde0c4a6230" x="128.780537" y="252" style="stroke: #000000; stroke-width: 0.8"/>
      </g>
     </g>
     <g id="text_2">
      <!-- 100 -->
      <g transform="translate(119.236787 266.598437)scale(0.1 -0.1)">
       <defs>
        <path id="DejaVuSans-31" d="M 794 531 
L 1825 531 
L 1825 4091 
L 703 3866 
L 703 4441 
L 1819 4666 
L 2450 4666 
L 2450 531 
L 3481 531 
L 3481 0 
L 794 0 
L 794 531 
z
" transform="scale(0.015625)"/>
       </defs>
       <use xlink:href="#DejaVuSans-31"/>
       <use xlink:href="#DejaVuSans-30" x="63.623047"/>
       <use xlink:href="#DejaVuSans-30" x="127.246094"/>
      </g>
     </g>
    </g>
    <g id="xtick_3">
     <g id="line2d_5">
      <path d="M 188.342893 252 
L 188.342893 34.56 
" clip-path="url(#pe6782e6d13)" style="fill: none; stroke: #b0b0b0; stroke-width: 0.8; stroke-linecap: square"/>
     </g>
     <g id="line2d_6">
      <g>
       <use xlink:href="#mde0c4a6230" x="188.342893" y="252" style="stroke: #000000; stroke-width: 0.8"/>
      </g>
     </g>
     <g id="text_3">
      <!-- 200 -->
      <g transform="translate(178.799143 266.598437)scale(0.1 -0.1)">
       <defs>
        <path id="DejaVuSans-32" d="M 1228 531 
L 3431 531 
L 3431 0 
L 469 0 
L 469 531 
Q 828 903 1448 1529 
Q 2069 2156 2228 2338 
Q 2531 2678 2651 2914 
Q 2772 3150 2772 3378 
Q 2772 3750 2511 3984 
Q 2250 4219 1831 4219 
Q 1534 4219 1204 4116 
Q 875 4013 500 3803 
L 500 4441 
Q 881 4594 1212 4672 
Q 1544 4750 1819 4750 
Q 2544 4750 2975 4387 
Q 3406 4025 3406 3419 
Q 3406 3131 3298 2873 
Q 3191 2616 2906 2266 
Q 2828 2175 2409 1742 
Q 1991 1309 1228 531 
z
" transform="scale(0.015625)"/>
       </defs>
       <use xlink:href="#DejaVuSans-32"/>
       <use xlink:href="#DejaVuSans-30" x="63.623047"/>
       <use xlink:href="#DejaVuSans-30" x="127.246094"/>
      </g>
     </g>
    </g>
    <g id="xtick_4">
     <g id="line2d_7">
      <path d="M 247.905248 252 
L 247.905248 34.56 
" clip-path="url(#pe6782e6d13)" style="fill: none; stroke: #b0b0b0; stroke-width: 0.8; stroke-linecap: square"/>
     </g>
     <g id="line2d_8">
      <g>
       <use xlink:href="#mde0c4a6230" x="247.905248" y="252" style="stroke: #000000; stroke-width: 0.8"/>
      </g>
     </g>
     <g id="text_4">
      <!-- 300 -->
      <g transform="translate(238.361498 266.598437)scale(0.1 -0.1)">
       <defs>
        <path id="DejaVuSans-33" d="M 2597 2516 
Q 3050 2419 3304 2112 
Q 3559 1806 3559 1356 
Q 3559 666 3084 287 
Q 2609 -91 1734 -91 
Q 1441 -91 1130 -33 
Q 819 25 488 141 
L 488 750 
Q 750 597 1062 519 
Q 1375 441 1716 441 
Q 2309 441 2620 675 
Q 2931 909 2931 1356 
Q 2931 1769 2642 2001 
Q 2353 2234 1838 2234 
L 1294 2234 
L 1294 2753 
L 1863 2753 
Q 2328 2753 2575 2939 
Q 2822 3125 2822 3475 
Q 2822 3834 2567 4026 
Q 2313 4219 1838 4219 
Q 1578 4219 1281 4162 
Q 984 4106 628 3988 
L 628 4550 
Q 988 4650 1302 4700 
Q 1616 4750 1894 4750 
Q 2613 4750 3031 4423 
Q 3450 4097 3450 3541 
Q 3450 3153 3228 2886 
Q 3006 2619 2597 2516 
z
" transform="scale(0.015625)"/>
       </defs>
       <use xlink:href="#DejaVuSans-33"/>
       <use xlink:href="#DejaVuSans-30" x="63.623047"/>
       <use xlink:href="#DejaVuSans-30" x="127.246094"/>
      </g>
     </g>
    </g>
    <g id="xtick_5">
     <g id="line2d_9">
      <path d="M 307.467604 252 
L 307.467604 34.56 
" clip-path="url(#pe6782e6d13)" style="fill: none; stroke: #b0b0b0; stroke-width: 0.8; stroke-linecap: square"/>
     </g>
     <g id="line2d_10">
      <g>
       <use xlink:href="#mde0c4a6230" x="307.467604" y="252" style="stroke: #000000; stroke-width: 0.8"/>
      </g>
     </g>
     <g id="text_5">
      <!-- 400 -->
      <g transform="translate(297.923854 266.598437)scale(0.1 -0.1)">
       <defs>
        <path id="DejaVuSans-34" d="M 2419 4116 
L 825 1625 
L 2419 1625 
L 2419 4116 
z
M 2253 4666 
L 3047 4666 
L 3047 1625 
L 3713 1625 
L 3713 1100 
L 3047 1100 
L 3047 0 
L 2419 0 
L 2419 1100 
L 313 1100 
L 313 1709 
L 2253 4666 
z
" transform="scale(0.015625)"/>
       </defs>
       <use xlink:href="#DejaVuSans-34"/>
       <use xlink:href="#DejaVuSans-30" x="63.623047"/>
       <use xlink:href="#DejaVuSans-30" x="127.246094"/>
      </g>
     </g>
    </g>
    <g id="xtick_6">
     <g id="line2d_11">
      <path d="M 367.029959 252 
L 367.029959 34.56 
" clip-path="url(#pe6782e6d13)" style="fill: none; stroke: #b0b0b0; stroke-width: 0.8; stroke-linecap: square"/>
     </g>
     <g id="line2d_12">
      <g>
       <use xlink:href="#mde0c4a6230" x="367.029959" y="252" style="stroke: #000000; stroke-width: 0.8"/>
      </g>
     </g>
     <g id="text_6">
      <!-- 500 -->
      <g transform="translate(357.486209 266.598437)scale(0.1 -0.1)">
       <defs>
        <path id="DejaVuSans-35" d="M 691 4666 
L 3169 4666 
L 3169 4134 
L 1269 4134 
L 1269 2991 
Q 1406 3038 1543 3061 
Q 1681 3084 1819 3084 
Q 2600 3084 3056 2656 
Q 3513 2228 3513 1497 
Q 3513 744 3044 326 
Q 2575 -91 1722 -91 
Q 1428 -91 1123 -41 
Q 819 9 494 109 
L 494 744 
Q 775 591 1075 516 
Q 1375 441 1709 441 
Q 2250 441 2565 725 
Q 2881 1009 2881 1497 
Q 2881 1984 2565 2268 
Q 2250 2553 1709 2553 
Q 1456 2553 1204 2497 
Q 953 2441 691 2322 
L 691 4666 
z
" transform="scale(0.015625)"/>
       </defs>
       <use xlink:href="#DejaVuSans-35"/>
       <use xlink:href="#DejaVuSans-30" x="63.623047"/>
       <use xlink:href="#DejaVuSans-30" x="127.246094"/>
      </g>
     </g>
    </g>
    <g id="text_7">
     <!-- bin -->
     <g transform="translate(213.667969 280.276563)scale(0.1 -0.1)">
      <defs>
       <path id="DejaVuSans-62" d="M 3116 1747 
Q 3116 2381 2855 2742 
Q 2594 3103 2138 3103 
Q 1681 3103 1420 2742 
Q 1159 2381 1159 1747 
Q 1159 1113 1420 752 
Q 1681 391 2138 391 
Q 2594 391 2855 752 
Q 3116 1113 3116 1747 
z
M 1159 2969 
Q 1341 3281 1617 3432 
Q 1894 3584 2278 3584 
Q 2916 3584 3314 3078 
Q 3713 2572 3713 1747 
Q 3713 922 3314 415 
Q 2916 -91 2278 -91 
Q 1894 -91 1617 61 
Q 1341 213 1159 525 
L 1159 0 
L 581 0 
L 581 4863 
L 1159 4863 
L 1159 2969 
z
" transform="scale(0.015625)"/>
       <path id="DejaVuSans-69" d="M 603 3500 
L 1178 3500 
L 1178 0 
L 603 0 
L 603 3500 
z
M 603 4863 
L 1178 4863 
L 1178 4134 
L 603 4134 
L 603 4863 
z
" transform="scale(0.015625)"/>
       <path id="DejaVuSans-6e" d="M 3513 2113 
L 3513 0 
L 2938 0 
L 2938 2094 
Q 2938 2591 2744 2837 
Q 2550 3084 2163 3084 
Q 1697 3084 1428 2787 
Q 1159 2491 1159 1978 
L 1159 0 
L 581 0 
L 581 3500 
L 1159 3500 
L 1159 2956 
Q 1366 3272 1645 3428 
Q 1925 3584 2291 3584 
Q 2894 3584 3203 3211 
Q 3513 2838 3513 2113 
z
" transform="scale(0.015625)"/>
      </defs>
      <use xlink:href="#DejaVuSans-62"/>
      <use xlink:href="#DejaVuSans-69" x="63.476562"/>
      <use xlink:href="#DejaVuSans-6e" x="91.259766"/>
     </g>
    </g>
   </g>
   <g id="matplotlib.axis_2">
    <g id="ytick_1">
     <g id="line2d_13">
      <path d="M 54 252 
L 388.8 252 
" clip-path="url(#pe6782e6d13)" style="fill: none; stroke: #b0b0b0; stroke-width: 0.8; stroke-linecap: square"/>
     </g>
     <g id="line2d_14">
      <defs>
       <path id="mdc8d8e2ec0" d="M 0 0 
L -3.5 0 
" style="stroke: #000000; stroke-width: 0.8"/>
      </defs>
      <g>
       <use xlink:href="#mdc8d8e2ec0" x="54" y="252" style="stroke: #000000; stroke-width: 0.8"/>
      </g>
     </g>
     <g id="text_8">
      <!-- 0 -->
      <g transform="translate(40.6375 255.799219)scale(0.1 -0.1)">
       <use xlink:href="#DejaVuSans-30"/>
      </g>
     </g>
    </g>
    <g id="ytick_2">
     <g id="line2d_15">
      <path d="M 54 226.418824 
L 388.8 226.418824 
" clip-path="url(#pe6782e6d13)" style="fill: none; stroke: #b0b0b0; stroke-width: 0.8; stroke-linecap: square"/>
     </g>
     <g id="line2d_16">
      <g>
       <use xlink:href="#mdc8d8e2ec0" x="54" y="226.418824" style="stroke: #000000; stroke-width: 0.8"/>
      </g>
     </g>
     <g id="text_9">
      <!-- 200 -->
      <g transform="translate(27.9125 230.218042)scale(0.1 -0.1)">
       <use xlink:href="#DejaVuSans-32"/>
       <use xlink:href="#DejaVuSans-30" x="63.623047"/>
       <use xlink:href="#DejaVuSans-30" x="127.246094"/>
      </g>
     </g>
    </g>
    <g id="ytick_3">
     <g id="line2d_17">
      <path d="M 54 200.837647 
L 388.8 200.837647 
" clip-path="url(#pe6782e6d13)" style="fill: none; stroke: #b0b0b0; stroke-width: 0.8; stroke-linecap: square"/>
     </g>
     <g id="line2d_18">
      <g>
       <use xlink:href="#mdc8d8e2ec0" x="54" y="200.837647" style="stroke: #000000; stroke-width: 0.8"/>
      </g>
     </g>
     <g id="text_10">
      <!-- 400 -->
      <g transform="translate(27.9125 204.636866)scale(0.1 -0.1)">
       <use xlink:href="#DejaVuSans-34"/>
       <use xlink:href="#DejaVuSans-30" x="63.623047"/>
       <use xlink:href="#DejaVuSans-30" x="127.246094"/>
      </g>
     </g>
    </g>
    <g id="ytick_4">
     <g id="line2d_19">
      <path d="M 54 175.256471 
L 388.8 175.256471 
" clip-path="url(#pe6782e6d13)" style="fill: none; stroke: #b0b0b0; stroke-width: 0.8; stroke-linecap: square"/>
     </g>
     <g id="line2d_20">
      <g>
       <use xlink:href="#mdc8d8e2ec0" x="54" y="175.256471" style="stroke: #000000; stroke-width: 0.8"/>
      </g>
     </g>
     <g id="text_11">
      <!-- 600 -->
      <g transform="translate(27.9125 179.055689)scale(0.1 -0.1)">
       <defs>
        <path id="DejaVuSans-36" d="M 2113 2584 
Q 1688 2584 1439 2293 
Q 1191 2003 1191 1497 
Q 1191 994 1439 701 
Q 1688 409 2113 409 
Q 2538 409 2786 701 
Q 3034 994 3034 1497 
Q 3034 2003 2786 2293 
Q 2538 2584 2113 2584 
z
M 3366 4563 
L 3366 3988 
Q 3128 4100 2886 4159 
Q 2644 4219 2406 4219 
Q 1781 4219 1451 3797 
Q 1122 3375 1075 2522 
Q 1259 2794 1537 2939 
Q 1816 3084 2150 3084 
Q 2853 3084 3261 2657 
Q 3669 2231 3669 1497 
Q 3669 778 3244 343 
Q 2819 -91 2113 -91 
Q 1303 -91 875 529 
Q 447 1150 447 2328 
Q 447 3434 972 4092 
Q 1497 4750 2381 4750 
Q 2619 4750 2861 4703 
Q 3103 4656 3366 4563 
z
" transform="scale(0.015625)"/>
       </defs>
       <use xlink:href="#DejaVuSans-36"/>
       <use xlink:href="#DejaVuSans-30" x="63.623047"/>
       <use xlink:href="#DejaVuSans-30" x="127.246094"/>
      </g>
     </g>
    </g>
    <g id="ytick_5">
     <g id="line2d_21">
      <path d="M 54 149.675294 
L 388.8 149.675294 
" clip-path="url(#pe6782e6d13)" style="fill: none; stroke: #b0b0b0; stroke-width: 0.8; stroke-linecap: square"/>
     </g>
     <g id="line2d_22">
      <g>
       <use xlink:href="#mdc8d8e2ec0" x="54" y="149.675294" style="stroke: #000000; stroke-width: 0.8"/>
      </g>
     </g>
     <g id="text_12">
      <!-- 800 -->
      <g transform="translate(27.9125 153.474513)scale(0.1 -0.1)">
       <defs>
        <path id="DejaVuSans-38" d="M 2034 2216 
Q 1584 2216 1326 1975 
Q 1069 1734 1069 1313 
Q 1069 891 1326 650 
Q 1584 409 2034 409 
Q 2484 409 2743 651 
Q 3003 894 3003 1313 
Q 3003 1734 2745 1975 
Q 2488 2216 2034 2216 
z
M 1403 2484 
Q 997 2584 770 2862 
Q 544 3141 544 3541 
Q 544 4100 942 4425 
Q 1341 4750 2034 4750 
Q 2731 4750 3128 4425 
Q 3525 4100 3525 3541 
Q 3525 3141 3298 2862 
Q 3072 2584 2669 2484 
Q 3125 2378 3379 2068 
Q 3634 1759 3634 1313 
Q 3634 634 3220 271 
Q 2806 -91 2034 -91 
Q 1263 -91 848 271 
Q 434 634 434 1313 
Q 434 1759 690 2068 
Q 947 2378 1403 2484 
z
M 1172 3481 
Q 1172 3119 1398 2916 
Q 1625 2713 2034 2713 
Q 2441 2713 2670 2916 
Q 2900 3119 2900 3481 
Q 2900 3844 2670 4047 
Q 2441 4250 2034 4250 
Q 1625 4250 1398 4047 
Q 1172 3844 1172 3481 
z
" transform="scale(0.015625)"/>
       </defs>
       <use xlink:href="#DejaVuSans-38"/>
       <use xlink:href="#DejaVuSans-30" x="63.623047"/>
       <use xlink:href="#DejaVuSans-30" x="127.246094"/>
      </g>
     </g>
    </g>
    <g id="ytick_6">
     <g id="line2d_23">
      <path d="M 54 124.094118 
L 388.8 124.094118 
" clip-path="url(#pe6782e6d13)" style="fill: none; stroke: #b0b0b0; stroke-width: 0.8; stroke-linecap: square"/>
     </g>
     <g id="line2d_24">
      <g>
       <use xlink:href="#mdc8d8e2ec0" x="54" y="124.094118" style="stroke: #000000; stroke-width: 0.8"/>
      </g>
     </g>
     <g id="text_13">
      <!-- 1000 -->
      <g transform="translate(21.55 127.893336)scale(0.1 -0.1)">
       <use xlink:href="#DejaVuSans-31"/>
       <use xlink:href="#DejaVuSans-30" x="63.623047"/>
       <use xlink:href="#DejaVuSans-30" x="127.246094"/>
       <use xlink:href="#DejaVuSans-30" x="190.869141"/>
      </g>
     </g>
    </g>
    <g id="ytick_7">
     <g id="line2d_25">
      <path d="M 54 98.512941 
L 388.8 98.512941 
" clip-path="url(#pe6782e6d13)" style="fill: none; stroke: #b0b0b0; stroke-width: 0.8; stroke-linecap: square"/>
     </g>
     <g id="line2d_26">
      <g>
       <use xlink:href="#mdc8d8e2ec0" x="54" y="98.512941" style="stroke: #000000; stroke-width: 0.8"/>
      </g>
     </g>
     <g id="text_14">
      <!-- 1200 -->
      <g transform="translate(21.55 102.31216)scale(0.1 -0.1)">
       <use xlink:href="#DejaVuSans-31"/>
       <use xlink:href="#DejaVuSans-32" x="63.623047"/>
       <use xlink:href="#DejaVuSans-30" x="127.246094"/>
       <use xlink:href="#DejaVuSans-30" x="190.869141"/>
      </g>
     </g>
    </g>
    <g id="ytick_8">
     <g id="line2d_27">
      <path d="M 54 72.931765 
L 388.8 72.931765 
" clip-path="url(#pe6782e6d13)" style="fill: none; stroke: #b0b0b0; stroke-width: 0.8; stroke-linecap: square"/>
     </g>
     <g id="line2d_28">
      <g>
       <use xlink:href="#mdc8d8e2ec0" x="54" y="72.931765" style="stroke: #000000; stroke-width: 0.8"/>
      </g>
     </g>
     <g id="text_15">
      <!-- 1400 -->
      <g transform="translate(21.55 76.730983)scale(0.1 -0.1)">
       <use xlink:href="#DejaVuSans-31"/>
       <use xlink:href="#DejaVuSans-34" x="63.623047"/>
       <use xlink:href="#DejaVuSans-30" x="127.246094"/>
       <use xlink:href="#DejaVuSans-30" x="190.869141"/>
      </g>
     </g>
    </g>
    <g id="ytick_9">
     <g id="line2d_29">
      <path d="M 54 47.350588 
L 388.8 47.350588 
" clip-path="url(#pe6782e6d13)" style="fill: none; stroke: #b0b0b0; stroke-width: 0.8; stroke-linecap: square"/>
     </g>
     <g id="line2d_30">
      <g>
       <use xlink:href="#mdc8d8e2ec0" x="54" y="47.350588" style="stroke: #000000; stroke-width: 0.8"/>
      </g>
     </g>
     <g id="text_16">
      <!-- 1600 -->
      <g transform="translate(21.55 51.149807)scale(0.1 -0.1)">
       <use xlink:href="#DejaVuSans-31"/>
       <use xlink:href="#DejaVuSans-36" x="63.623047"/>
       <use xlink:href="#DejaVuSans-30" x="127.246094"/>
       <use xlink:href="#DejaVuSans-30" x="190.869141"/>
      </g>
     </g>
    </g>
    <g id="text_17">
     <!-- count -->
     <g transform="translate(15.470312 157.38625)rotate(-90)scale(0.1 -0.1)">
      <defs>
       <path id="DejaVuSans-63" d="M 3122 3366 
L 3122 2828 
Q 2878 2963 2633 3030 
Q 2388 3097 2138 3097 
Q 1578 3097 1268 2742 
Q 959 2388 959 1747 
Q 959 1106 1268 751 
Q 1578 397 2138 397 
Q 2388 397 2633 464 
Q 2878 531 3122 666 
L 3122 134 
Q 2881 22 2623 -34 
Q 2366 -91 2075 -91 
Q 1284 -91 818 406 
Q 353 903 353 1747 
Q 353 2603 823 3093 
Q 1294 3584 2113 3584 
Q 2378 3584 2631 3529 
Q 2884 3475 3122 3366 
z
" transform="scale(0.015625)"/>
       <path id="DejaVuSans-6f" d="M 1959 3097 
Q 1497 3097 1228 2736 
Q 959 2375 959 1747 
Q 959 1119 1226 758 
Q 1494 397 1959 397 
Q 2419 397 2687 759 
Q 2956 1122 2956 1747 
Q 2956 2369 2687 2733 
Q 2419 3097 1959 3097 
z
M 1959 3584 
Q 2709 3584 3137 3096 
Q 3566 2609 3566 1747 
Q 3566 888 3137 398 
Q 2709 -91 1959 -91 
Q 1206 -91 779 398 
Q 353 888 353 1747 
Q 353 2609 779 3096 
Q 1206 3584 1959 3584 
z
" transform="scale(0.015625)"/>
       <path id="DejaVuSans-75" d="M 544 1381 
L 544 3500 
L 1119 3500 
L 1119 1403 
Q 1119 906 1312 657 
Q 1506 409 1894 409 
Q 2359 409 2629 706 
Q 2900 1003 2900 1516 
L 2900 3500 
L 3475 3500 
L 3475 0 
L 2900 0 
L 2900 538 
Q 2691 219 2414 64 
Q 2138 -91 1772 -91 
Q 1169 -91 856 284 
Q 544 659 544 1381 
z
M 1991 3584 
L 1991 3584 
z
" transform="scale(0.015625)"/>
       <path id="DejaVuSans-74" d="M 1172 4494 
L 1172 3500 
L 2356 3500 
L 2356 3053 
L 1172 3053 
L 1172 1153 
Q 1172 725 1289 603 
Q 1406 481 1766 481 
L 2356 481 
L 2356 0 
L 1766 0 
Q 1100 0 847 248 
Q 594 497 594 1153 
L 594 3053 
L 172 3053 
L 172 3500 
L 594 3500 
L 594 4494 
L 1172 4494 
z
" transform="scale(0.015625)"/>
      </defs>
      <use xlink:href="#DejaVuSans-63"/>
      <use xlink:href="#DejaVuSans-6f" x="54.980469"/>
      <use xlink:href="#DejaVuSans-75" x="116.162109"/>
      <use xlink:href="#DejaVuSans-6e" x="179.541016"/>
      <use xlink:href="#DejaVuSans-74" x="242.919922"/>
     </g>
    </g>
   </g>
   <g id="line2d_31">
    <path d="M 69.218182 240.488471 
L 69.813805 239.976847 
L 70.409429 237.802447 
L 71.005052 237.930353 
L 71.600676 241.511718 
L 72.1963 240.488471 
L 72.791923 239.081506 
L 73.387547 238.9536 
L 73.98317 239.976847 
L 74.578794 240.232659 
L 75.174417 241.255906 
L 75.770041 239.848941 
L 76.365664 241.767529 
L 76.961288 240.744282 
L 77.556912 238.697788 
L 78.152535 238.314071 
L 78.748159 238.186165 
L 79.343782 238.825694 
L 79.939406 238.825694 
L 80.535029 240.744282 
L 81.130653 238.569882 
L 81.726276 241.128 
L 82.3219 242.662871 
L 82.917524 239.593129 
L 83.513147 238.569882 
L 84.108771 238.314071 
L 84.704394 239.976847 
L 85.300018 239.209412 
L 85.895641 237.802447 
L 86.491265 238.697788 
L 87.086888 238.9536 
L 87.682512 240.104753 
L 88.278136 240.104753 
L 88.873759 239.721035 
L 89.469383 240.616376 
L 90.065006 238.697788 
L 90.66063 240.104753 
L 91.256253 240.872188 
L 91.851877 241.128 
L 92.4475 238.314071 
L 93.043124 238.9536 
L 93.638748 237.802447 
L 94.234371 237.674541 
L 94.829995 238.314071 
L 95.425618 238.441976 
L 96.021242 240.616376 
L 96.616865 240.872188 
L 97.212489 239.593129 
L 97.808112 240.616376 
L 98.99936 239.465224 
L 99.594983 241.128 
L 100.190607 241.255906 
L 100.78623 240.360565 
L 101.381854 241.255906 
L 101.977477 239.848941 
L 102.573101 240.232659 
L 103.168724 238.058259 
L 103.764348 238.697788 
L 104.359972 238.697788 
L 104.955595 240.232659 
L 105.551219 239.465224 
L 106.146842 239.976847 
L 106.742466 238.9536 
L 107.338089 242.023341 
L 107.933713 239.465224 
L 108.529336 241.511718 
L 109.12496 241.511718 
L 109.720584 241.255906 
L 110.316207 241.255906 
L 110.911831 240.104753 
L 111.507454 238.697788 
L 112.103078 241.511718 
L 112.698701 241.895435 
L 113.294325 240.360565 
L 113.889948 239.976847 
L 114.485572 240.616376 
L 115.081196 237.930353 
L 115.676819 240.104753 
L 116.272443 240.232659 
L 116.868066 239.465224 
L 117.46369 241.255906 
L 118.059313 239.593129 
L 119.25056 239.848941 
L 119.846184 239.081506 
L 120.441808 239.721035 
L 121.037431 240.744282 
L 121.633055 238.569882 
L 122.228678 238.825694 
L 122.824302 238.825694 
L 123.419925 241.000094 
L 124.015549 237.674541 
L 124.611172 240.360565 
L 125.206796 239.593129 
L 125.802419 239.593129 
L 126.398043 239.848941 
L 126.993667 239.337318 
L 127.58929 239.337318 
L 128.184914 239.593129 
L 129.376161 238.058259 
L 129.971784 238.9536 
L 130.567408 241.511718 
L 131.163031 239.465224 
L 131.758655 240.616376 
L 132.354279 240.232659 
L 132.949902 239.081506 
L 133.545526 240.104753 
L 134.141149 238.825694 
L 134.736773 240.104753 
L 135.332396 237.802447 
L 135.92802 241.511718 
L 136.523643 241.639624 
L 137.119267 237.802447 
L 137.714891 239.337318 
L 138.310514 238.441976 
L 138.906138 239.465224 
L 139.501761 238.569882 
L 140.097385 239.337318 
L 140.693008 238.9536 
L 141.288632 242.151247 
L 141.884255 239.465224 
L 142.479879 240.488471 
L 143.075503 239.848941 
L 143.671126 239.593129 
L 144.26675 240.232659 
L 144.862373 240.488471 
L 145.457997 241.128 
L 146.05362 240.744282 
L 146.649244 238.186165 
L 147.244867 239.209412 
L 147.840491 238.186165 
L 148.436115 239.976847 
L 149.031738 238.441976 
L 149.627362 239.209412 
L 150.222985 238.697788 
L 150.818609 239.721035 
L 151.414232 241.639624 
L 152.009856 234.860612 
L 152.605479 241.639624 
L 153.201103 239.976847 
L 154.39235 242.662871 
L 154.987974 239.209412 
L 155.583597 239.209412 
L 156.179221 240.744282 
L 156.774844 238.441976 
L 157.370468 240.872188 
L 157.966091 239.465224 
L 158.561715 240.616376 
L 159.157339 238.697788 
L 159.752962 240.488471 
L 160.348586 238.441976 
L 160.944209 239.465224 
L 161.539833 240.744282 
L 162.135456 239.337318 
L 162.73108 242.151247 
L 163.326703 238.314071 
L 163.922327 237.162918 
L 164.517951 239.848941 
L 165.113574 239.848941 
L 165.709198 239.465224 
L 166.304821 237.418729 
L 166.900445 240.872188 
L 168.091692 237.802447 
L 168.687315 239.081506 
L 169.282939 238.569882 
L 169.878563 238.825694 
L 170.474186 240.744282 
L 171.06981 239.976847 
L 171.665433 241.895435 
L 172.261057 242.023341 
L 172.85668 237.930353 
L 173.452304 238.825694 
L 174.047927 239.976847 
L 174.643551 238.697788 
L 175.239175 241.639624 
L 175.834798 240.488471 
L 176.430422 238.825694 
L 177.026045 239.593129 
L 178.217292 238.441976 
L 178.812916 242.662871 
L 179.408539 238.186165 
L 180.004163 241.255906 
L 180.599787 239.081506 
L 181.19541 239.593129 
L 181.791034 238.569882 
L 182.386657 238.186165 
L 182.982281 239.209412 
L 183.577904 238.697788 
L 184.173528 240.744282 
L 185.364775 238.825694 
L 185.960399 240.104753 
L 186.556022 239.081506 
L 187.151646 241.895435 
L 187.747269 239.337318 
L 188.342893 238.9536 
L 188.938516 239.337318 
L 189.53414 238.697788 
L 190.129763 238.569882 
L 190.725387 234.988518 
L 191.32101 228.465318 
L 191.916634 229.232753 
L 192.512258 226.546729 
L 193.107881 215.0352 
L 194.299128 198.791153 
L 194.894752 187.023812 
L 195.490375 178.454118 
L 196.085999 179.605271 
L 196.681622 175.256471 
L 197.277246 181.651765 
L 197.87287 185.105224 
L 199.65974 211.837553 
L 200.255364 220.407247 
L 200.850987 223.476988 
L 202.042234 236.011765 
L 202.637858 234.476894 
L 203.233482 237.035012 
L 203.829105 238.441976 
L 204.424729 238.825694 
L 205.020352 238.9536 
L 205.615976 239.465224 
L 206.211599 236.011765 
L 206.807223 238.441976 
L 207.402846 238.441976 
L 207.99847 237.290824 
L 208.594094 235.755953 
L 209.189717 234.860612 
L 210.380964 225.523482 
L 210.976588 222.453741 
L 211.572211 218.232847 
L 212.167835 217.337506 
L 212.763458 217.849129 
L 213.359082 223.349082 
L 213.954706 227.186259 
L 214.550329 228.209506 
L 215.145953 235.755953 
L 215.741576 232.558306 
L 216.3372 236.139671 
L 216.932823 238.314071 
L 217.528447 239.593129 
L 218.12407 240.488471 
L 218.719694 239.337318 
L 219.315318 238.9536 
L 219.910941 239.465224 
L 220.506565 237.802447 
L 221.102188 239.976847 
L 221.697812 239.721035 
L 222.293435 238.9536 
L 222.889059 241.000094 
L 223.484682 240.744282 
L 224.080306 239.209412 
L 224.67593 238.441976 
L 225.271553 241.000094 
L 225.867177 238.441976 
L 226.4628 238.9536 
L 227.058424 237.930353 
L 227.654047 242.151247 
L 228.249671 241.000094 
L 228.845294 241.895435 
L 229.440918 237.418729 
L 230.036542 240.360565 
L 230.632165 240.360565 
L 231.227789 239.976847 
L 231.823412 239.209412 
L 232.419036 240.232659 
L 233.014659 240.360565 
L 233.610283 237.802447 
L 234.205906 236.395482 
L 234.80153 240.360565 
L 235.397154 241.128 
L 235.992777 238.697788 
L 236.588401 240.872188 
L 237.184024 239.593129 
L 237.779648 239.081506 
L 238.375271 239.209412 
L 238.970895 239.976847 
L 239.566518 238.825694 
L 240.162142 239.848941 
L 240.757766 237.802447 
L 241.353389 240.744282 
L 241.949013 238.058259 
L 242.544636 240.616376 
L 243.14026 239.081506 
L 243.735883 239.465224 
L 244.331507 239.593129 
L 244.92713 242.407059 
L 245.522754 241.767529 
L 246.118378 236.907106 
L 246.714001 239.465224 
L 247.309625 237.546635 
L 247.905248 237.290824 
L 248.500872 239.081506 
L 249.096495 239.081506 
L 249.692119 238.058259 
L 250.287742 236.267576 
L 250.883366 240.616376 
L 251.47899 241.255906 
L 252.074613 238.314071 
L 252.670237 241.000094 
L 253.26586 239.593129 
L 253.861484 238.825694 
L 254.457107 239.848941 
L 255.052731 239.465224 
L 255.648354 236.523388 
L 256.243978 239.465224 
L 256.839601 239.593129 
L 257.435225 239.465224 
L 258.030849 238.825694 
L 258.626472 238.825694 
L 259.222096 241.128 
L 259.817719 239.721035 
L 260.413343 241.000094 
L 261.008966 238.058259 
L 261.60459 239.465224 
L 262.200213 240.360565 
L 262.795837 240.104753 
L 263.391461 238.825694 
L 263.987084 240.104753 
L 264.582708 239.721035 
L 265.178331 238.441976 
L 265.773955 241.895435 
L 266.369578 238.9536 
L 266.965202 241.511718 
L 267.560825 239.465224 
L 268.156449 239.337318 
L 268.752073 238.825694 
L 269.347696 241.383812 
L 269.94332 238.314071 
L 270.538943 238.314071 
L 271.134567 241.767529 
L 271.73019 241.000094 
L 272.325814 241.383812 
L 272.921437 238.186165 
L 273.517061 241.255906 
L 274.112685 239.848941 
L 274.708308 237.674541 
L 275.303932 239.465224 
L 275.899555 240.616376 
L 276.495179 240.360565 
L 277.090802 238.569882 
L 277.686426 238.569882 
L 278.282049 238.9536 
L 278.877673 241.000094 
L 279.473297 238.569882 
L 280.06892 239.337318 
L 281.260167 239.337318 
L 281.855791 242.023341 
L 282.451414 239.337318 
L 283.047038 238.314071 
L 283.642661 240.104753 
L 284.238285 240.360565 
L 285.429532 241.895435 
L 286.025156 238.441976 
L 286.620779 237.930353 
L 287.216403 242.151247 
L 287.812026 238.825694 
L 288.40765 239.848941 
L 289.003273 238.825694 
L 289.598897 240.232659 
L 290.194521 238.441976 
L 290.790144 241.639624 
L 291.385768 239.593129 
L 291.981391 239.848941 
L 292.577015 239.465224 
L 293.172638 238.825694 
L 293.768262 241.383812 
L 294.363885 240.232659 
L 294.959509 240.488471 
L 295.555133 239.593129 
L 296.150756 239.465224 
L 297.342003 241.511718 
L 297.937627 239.593129 
L 298.53325 240.488471 
L 299.128874 241.000094 
L 299.724497 239.209412 
L 300.320121 238.569882 
L 300.915745 239.976847 
L 301.511368 237.802447 
L 302.106992 240.488471 
L 302.702615 241.511718 
L 303.298239 238.825694 
L 303.893862 237.035012 
L 304.489486 240.744282 
L 305.085109 238.569882 
L 305.680733 237.546635 
L 306.276357 238.9536 
L 306.87198 238.9536 
L 307.467604 239.337318 
L 308.063227 239.209412 
L 308.658851 241.000094 
L 309.254474 238.569882 
L 309.850098 239.593129 
L 310.445721 238.825694 
L 311.041345 240.104753 
L 311.636969 239.976847 
L 312.232592 237.418729 
L 312.828216 239.848941 
L 313.423839 240.744282 
L 314.019463 237.802447 
L 314.615086 238.186165 
L 315.21071 241.128 
L 315.806333 239.209412 
L 316.401957 238.9536 
L 316.997581 239.209412 
L 317.593204 238.569882 
L 318.188828 237.674541 
L 318.784451 240.872188 
L 319.380075 239.976847 
L 319.975698 239.976847 
L 320.571322 240.232659 
L 321.166945 240.360565 
L 321.762569 241.255906 
L 322.358192 239.209412 
L 322.953816 240.104753 
L 323.54944 241.255906 
L 324.145063 237.674541 
L 324.740687 239.721035 
L 325.33631 238.9536 
L 325.931934 239.337318 
L 326.527557 239.209412 
L 327.123181 242.023341 
L 327.718804 238.825694 
L 328.314428 239.209412 
L 328.910052 239.081506 
L 329.505675 241.767529 
L 330.101299 237.802447 
L 330.696922 241.511718 
L 331.292546 240.104753 
L 331.888169 239.337318 
L 332.483793 239.337318 
L 333.079416 238.697788 
L 333.67504 238.697788 
L 334.270664 239.976847 
L 334.866287 241.639624 
L 335.461911 241.000094 
L 336.057534 240.744282 
L 336.653158 240.872188 
L 337.248781 239.337318 
L 337.844405 240.872188 
L 338.440028 237.802447 
L 339.035652 240.232659 
L 339.631276 240.232659 
L 340.226899 239.081506 
L 340.822523 238.441976 
L 341.418146 241.255906 
L 342.01377 240.744282 
L 343.205017 238.825694 
L 343.80064 241.000094 
L 344.396264 239.848941 
L 344.991888 240.744282 
L 345.587511 240.616376 
L 346.183135 237.802447 
L 346.778758 242.279153 
L 347.374382 239.337318 
L 347.970005 237.162918 
L 348.565629 240.360565 
L 349.161252 239.976847 
L 349.756876 240.488471 
L 350.3525 240.616376 
L 350.948123 241.383812 
L 351.543747 241.511718 
L 352.13937 238.569882 
L 352.734994 240.232659 
L 353.330617 239.337318 
L 353.926241 241.895435 
L 354.521864 238.697788 
L 355.117488 240.744282 
L 355.713112 240.872188 
L 356.308735 241.383812 
L 356.904359 240.232659 
L 357.499982 239.593129 
L 358.095606 238.697788 
L 358.691229 239.976847 
L 359.286853 238.697788 
L 359.882476 242.790776 
L 360.4781 239.337318 
L 361.073724 238.825694 
L 362.264971 240.616376 
L 362.860594 239.721035 
L 363.456218 240.360565 
L 364.051841 238.186165 
L 364.647465 240.616376 
L 365.243088 239.848941 
L 365.838712 237.674541 
L 366.434336 240.104753 
L 367.029959 238.697788 
L 367.625583 239.081506 
L 368.221206 239.976847 
L 368.81683 238.186165 
L 369.412453 240.104753 
L 370.008077 240.232659 
L 370.6037 240.488471 
L 371.199324 238.058259 
L 371.794948 240.104753 
L 372.390571 238.441976 
L 372.986195 240.360565 
L 373.581818 241.000094 
L 373.581818 241.000094 
" clip-path="url(#pe6782e6d13)" style="fill: none; stroke: #1f77b4; stroke-width: 1.5; stroke-linecap: square"/>
   </g>
   <g id="line2d_32">
    <path d="M 69.218182 222.581647 
L 69.813805 217.593318 
L 70.409429 223.7328 
L 71.005052 222.965365 
L 71.600676 221.942118 
L 72.1963 220.407247 
L 72.791923 218.360753 
L 73.387547 223.349082 
L 73.98317 220.023529 
L 74.578794 220.790965 
L 75.174417 222.070024 
L 75.770041 219.000282 
L 76.365664 220.918871 
L 76.961288 218.872376 
L 77.556912 217.337506 
L 78.152535 220.918871 
L 78.748159 216.442165 
L 79.343782 219.511906 
L 79.939406 219.639812 
L 80.535029 220.407247 
L 81.130653 223.476988 
L 81.726276 218.616565 
L 82.917524 220.279341 
L 83.513147 221.814212 
L 84.108771 222.581647 
L 84.704394 221.174682 
L 85.300018 221.814212 
L 85.895641 222.070024 
L 86.491265 217.977035 
L 87.086888 217.337506 
L 87.682512 221.174682 
L 88.278136 220.535153 
L 88.873759 217.977035 
L 89.469383 223.221176 
L 90.065006 218.616565 
L 90.66063 222.325835 
L 91.256253 222.837459 
L 91.851877 220.151435 
L 92.4475 220.663059 
L 93.043124 222.581647 
L 94.234371 220.790965 
L 94.829995 222.581647 
L 95.425618 217.337506 
L 96.021242 221.942118 
L 96.616865 221.046776 
L 97.212489 224.244424 
L 97.808112 225.267671 
L 98.403736 218.104941 
L 99.594983 222.965365 
L 100.78623 221.302588 
L 101.381854 222.837459 
L 101.977477 226.546729 
L 103.168724 221.302588 
L 103.764348 220.663059 
L 104.359972 219.639812 
L 104.955595 220.663059 
L 105.551219 220.151435 
L 106.146842 222.709553 
L 106.742466 218.872376 
L 107.933713 222.197929 
L 108.529336 220.535153 
L 109.12496 219.511906 
L 109.720584 220.663059 
L 110.316207 220.535153 
L 110.911831 220.790965 
L 111.507454 224.756047 
L 112.103078 220.535153 
L 112.698701 215.0352 
L 113.294325 223.604894 
L 113.889948 220.407247 
L 114.485572 221.430494 
L 115.081196 219.767718 
L 115.676819 221.686306 
L 116.272443 221.814212 
L 116.868066 220.918871 
L 117.46369 220.279341 
L 118.059313 219.256094 
L 118.654937 222.197929 
L 119.25056 217.2096 
L 119.846184 220.663059 
L 120.441808 223.093271 
L 121.037431 215.0352 
L 121.633055 220.279341 
L 122.228678 221.686306 
L 122.824302 219.767718 
L 123.419925 219.511906 
L 124.015549 223.093271 
L 124.611172 222.965365 
L 125.206796 222.325835 
L 125.802419 223.093271 
L 126.398043 222.453741 
L 126.993667 217.849129 
L 127.58929 217.977035 
L 128.184914 217.593318 
L 128.780537 221.430494 
L 129.376161 215.674729 
L 129.971784 221.814212 
L 130.567408 221.5584 
L 131.163031 219.384 
L 131.758655 226.290918 
L 132.354279 217.337506 
L 132.949902 222.965365 
L 133.545526 222.197929 
L 134.141149 222.325835 
L 134.736773 223.604894 
L 135.332396 221.302588 
L 135.92802 216.314259 
L 136.523643 221.5584 
L 137.119267 220.023529 
L 137.714891 223.093271 
L 138.310514 221.942118 
L 138.906138 219.256094 
L 139.501761 222.965365 
L 140.097385 224.883953 
L 140.693008 223.476988 
L 141.288632 219.895624 
L 141.884255 219.639812 
L 142.479879 220.023529 
L 143.075503 221.174682 
L 143.671126 218.744471 
L 144.26675 222.581647 
L 144.862373 220.279341 
L 145.457997 223.349082 
L 146.649244 222.070024 
L 147.244867 226.930447 
L 147.840491 224.756047 
L 148.436115 220.918871 
L 149.031738 223.988612 
L 149.627362 222.581647 
L 150.222985 220.023529 
L 150.818609 222.197929 
L 151.414232 221.686306 
L 152.009856 224.116518 
L 152.605479 219.128188 
L 153.201103 220.535153 
L 153.796727 220.151435 
L 154.39235 219.256094 
L 154.987974 217.721224 
L 155.583597 220.279341 
L 156.179221 221.046776 
L 156.774844 219.639812 
L 157.370468 220.790965 
L 157.966091 220.279341 
L 158.561715 222.581647 
L 159.157339 220.023529 
L 159.752962 223.7328 
L 160.348586 221.302588 
L 160.944209 223.604894 
L 161.539833 221.5584 
L 162.135456 222.709553 
L 162.73108 219.895624 
L 163.326703 220.663059 
L 163.922327 222.581647 
L 164.517951 219.511906 
L 165.113574 218.488659 
L 165.709198 221.174682 
L 166.304821 226.035106 
L 166.900445 220.918871 
L 167.496068 219.895624 
L 168.091692 223.221176 
L 168.687315 221.942118 
L 169.282939 219.511906 
L 169.878563 225.139765 
L 170.474186 224.883953 
L 171.06981 223.860706 
L 171.665433 217.2096 
L 172.261057 219.511906 
L 172.85668 222.709553 
L 173.452304 218.360753 
L 174.047927 220.407247 
L 174.643551 220.790965 
L 175.239175 222.837459 
L 175.834798 220.151435 
L 176.430422 223.604894 
L 177.026045 217.977035 
L 177.621669 217.849129 
L 178.217292 222.965365 
L 178.812916 226.163012 
L 179.408539 223.476988 
L 180.004163 219.511906 
L 180.599787 219.767718 
L 181.19541 221.430494 
L 181.791034 221.174682 
L 182.386657 217.721224 
L 182.982281 219.511906 
L 183.577904 218.616565 
L 184.769151 211.453835 
L 185.364775 205.058541 
L 185.960399 202.756235 
L 186.556022 193.163294 
L 187.151646 193.419106 
L 187.747269 187.407529 
L 188.342893 187.023812 
L 188.938516 186.384282 
L 189.53414 188.9424 
L 190.129763 190.733082 
L 190.725387 196.744659 
L 191.32101 200.198118 
L 193.107881 214.523576 
L 193.703505 210.6864 
L 194.299128 221.5584 
L 194.894752 222.325835 
L 195.490375 221.046776 
L 196.085999 220.663059 
L 196.681622 218.872376 
L 197.277246 222.837459 
L 197.87287 223.988612 
L 198.468493 220.535153 
L 199.064117 219.895624 
L 199.65974 221.942118 
L 200.255364 220.918871 
L 200.850987 221.5584 
L 201.446611 216.953788 
L 202.042234 218.744471 
L 202.637858 214.651482 
L 203.233482 213.628235 
L 203.829105 210.174776 
L 204.424729 208.767812 
L 205.020352 209.407341 
L 205.615976 208.639906 
L 206.211599 214.267765 
L 206.807223 217.081694 
L 207.402846 213.628235 
L 207.99847 214.907294 
L 208.594094 219.128188 
L 209.189717 219.128188 
L 209.785341 220.535153 
L 210.380964 224.116518 
L 210.976588 222.965365 
L 211.572211 219.384 
L 212.167835 219.767718 
L 212.763458 223.349082 
L 213.359082 218.616565 
L 213.954706 223.988612 
L 214.550329 222.581647 
L 215.145953 223.093271 
L 215.741576 219.384 
L 216.3372 222.197929 
L 216.932823 224.372329 
L 217.528447 224.372329 
L 218.12407 220.535153 
L 218.719694 221.814212 
L 219.315318 220.279341 
L 219.910941 220.151435 
L 220.506565 220.918871 
L 221.102188 220.407247 
L 221.697812 221.942118 
L 222.293435 220.151435 
L 222.889059 220.790965 
L 224.080306 225.139765 
L 224.67593 224.500235 
L 225.867177 221.814212 
L 226.4628 219.000282 
L 227.058424 224.116518 
L 227.654047 223.476988 
L 228.249671 225.139765 
L 228.845294 221.686306 
L 229.440918 220.151435 
L 230.036542 221.5584 
L 230.632165 222.197929 
L 231.227789 224.628141 
L 231.823412 220.279341 
L 232.419036 221.686306 
L 233.014659 222.197929 
L 233.610283 223.7328 
L 234.205906 218.616565 
L 234.80153 223.221176 
L 235.992777 217.593318 
L 236.588401 220.023529 
L 237.184024 219.895624 
L 237.779648 219.895624 
L 238.375271 221.942118 
L 238.970895 216.825882 
L 239.566518 222.709553 
L 240.162142 220.663059 
L 240.757766 221.942118 
L 241.353389 222.837459 
L 241.949013 221.814212 
L 242.544636 217.593318 
L 243.14026 223.093271 
L 243.735883 219.384 
L 244.331507 224.372329 
L 244.92713 220.023529 
L 245.522754 223.221176 
L 246.118378 221.302588 
L 246.714001 220.663059 
L 247.309625 224.116518 
L 248.500872 222.837459 
L 249.096495 216.314259 
L 249.692119 221.174682 
L 250.287742 222.581647 
L 250.883366 217.977035 
L 251.47899 222.965365 
L 252.074613 223.349082 
L 252.670237 216.953788 
L 253.26586 222.070024 
L 253.861484 222.965365 
L 254.457107 222.197929 
L 255.052731 217.593318 
L 256.243978 223.476988 
L 256.839601 224.244424 
L 258.030849 221.814212 
L 258.626472 215.546824 
L 259.222096 221.5584 
L 259.817719 221.5584 
L 260.413343 219.639812 
L 261.008966 222.965365 
L 261.60459 225.011859 
L 262.200213 223.349082 
L 262.795837 219.511906 
L 263.391461 218.744471 
L 263.987084 220.151435 
L 264.582708 225.139765 
L 265.178331 218.104941 
L 265.773955 221.430494 
L 266.369578 224.116518 
L 266.965202 218.744471 
L 267.560825 219.767718 
L 268.156449 221.814212 
L 268.752073 221.174682 
L 269.347696 227.186259 
L 270.538943 220.663059 
L 271.134567 219.767718 
L 271.73019 220.790965 
L 272.325814 223.860706 
L 272.921437 222.197929 
L 273.517061 222.837459 
L 274.112685 217.465412 
L 274.708308 219.384 
L 275.303932 222.581647 
L 275.899555 219.639812 
L 276.495179 219.128188 
L 277.090802 220.023529 
L 277.686426 224.628141 
L 278.282049 220.918871 
L 278.877673 221.942118 
L 279.473297 221.046776 
L 280.06892 224.372329 
L 280.664544 219.767718 
L 281.260167 222.070024 
L 281.855791 225.651388 
L 282.451414 217.977035 
L 283.047038 223.221176 
L 283.642661 217.337506 
L 284.238285 220.790965 
L 284.833909 219.128188 
L 285.429532 219.256094 
L 286.025156 217.593318 
L 286.620779 222.070024 
L 287.216403 222.837459 
L 287.812026 220.407247 
L 288.40765 223.093271 
L 289.003273 220.535153 
L 289.598897 219.639812 
L 290.194521 225.011859 
L 290.790144 215.546824 
L 291.385768 222.197929 
L 291.981391 221.942118 
L 292.577015 222.070024 
L 293.172638 218.616565 
L 293.768262 226.930447 
L 294.363885 224.372329 
L 294.959509 220.535153 
L 295.555133 220.151435 
L 296.150756 224.756047 
L 297.342003 221.814212 
L 297.937627 225.139765 
L 298.53325 220.790965 
L 299.128874 220.023529 
L 299.724497 224.628141 
L 300.320121 221.430494 
L 300.915745 218.872376 
L 302.106992 222.965365 
L 302.702615 218.232847 
L 303.893862 224.372329 
L 304.489486 217.721224 
L 305.085109 221.174682 
L 305.680733 218.872376 
L 306.276357 221.686306 
L 306.87198 221.174682 
L 307.467604 220.279341 
L 308.063227 224.244424 
L 308.658851 224.372329 
L 309.254474 217.849129 
L 309.850098 222.581647 
L 310.445721 222.453741 
L 311.041345 217.465412 
L 311.636969 222.197929 
L 312.232592 222.197929 
L 312.828216 223.221176 
L 313.423839 222.965365 
L 314.019463 224.628141 
L 314.615086 219.384 
L 315.21071 223.349082 
L 315.806333 221.046776 
L 316.401957 219.767718 
L 316.997581 221.174682 
L 317.593204 220.535153 
L 318.188828 222.325835 
L 318.784451 221.174682 
L 319.380075 222.197929 
L 319.975698 220.407247 
L 320.571322 225.395576 
L 321.762569 220.151435 
L 322.358192 221.686306 
L 322.953816 218.360753 
L 323.54944 222.325835 
L 324.145063 219.639812 
L 325.33631 223.093271 
L 325.931934 222.197929 
L 326.527557 217.2096 
L 327.718804 220.535153 
L 328.314428 221.942118 
L 328.910052 221.942118 
L 329.505675 219.767718 
L 330.101299 223.604894 
L 330.696922 219.895624 
L 331.292546 221.302588 
L 331.888169 219.384 
L 332.483793 224.116518 
L 333.079416 219.384 
L 333.67504 221.046776 
L 334.270664 222.325835 
L 334.866287 222.965365 
L 335.461911 225.395576 
L 336.057534 217.081694 
L 336.653158 219.128188 
L 337.248781 220.663059 
L 337.844405 219.256094 
L 338.440028 222.453741 
L 339.035652 221.430494 
L 339.631276 219.895624 
L 340.226899 222.070024 
L 340.822523 220.918871 
L 341.418146 224.500235 
L 342.01377 221.302588 
L 342.609393 221.174682 
L 343.205017 219.000282 
L 343.80064 217.721224 
L 344.991888 223.221176 
L 345.587511 222.581647 
L 346.183135 222.837459 
L 346.778758 222.837459 
L 347.374382 220.790965 
L 347.970005 221.174682 
L 348.565629 221.942118 
L 349.161252 221.430494 
L 349.756876 223.604894 
L 350.3525 221.046776 
L 350.948123 221.174682 
L 351.543747 219.256094 
L 352.13937 220.535153 
L 352.734994 217.977035 
L 353.330617 221.814212 
L 353.926241 221.942118 
L 354.521864 220.790965 
L 355.117488 220.151435 
L 355.713112 219.256094 
L 356.308735 220.151435 
L 356.904359 219.895624 
L 357.499982 220.151435 
L 358.095606 221.430494 
L 358.691229 222.197929 
L 359.286853 218.360753 
L 359.882476 220.918871 
L 360.4781 219.767718 
L 361.073724 220.918871 
L 361.669347 222.965365 
L 362.264971 221.430494 
L 362.860594 221.814212 
L 363.456218 222.453741 
L 364.051841 219.767718 
L 364.647465 224.116518 
L 365.243088 218.488659 
L 365.838712 223.221176 
L 366.434336 223.604894 
L 367.029959 215.0352 
L 367.625583 219.256094 
L 368.221206 217.081694 
L 368.81683 219.128188 
L 369.412453 218.360753 
L 370.008077 222.709553 
L 370.6037 223.988612 
L 371.199324 218.744471 
L 371.794948 217.465412 
L 372.390571 218.872376 
L 372.986195 222.070024 
L 373.581818 224.628141 
L 373.581818 224.628141 
" clip-path="url(#pe6782e6d13)" style="fill: none; stroke: #ff7f0e; stroke-width: 1.5; stroke-linecap: square"/>
   </g>
   <g id="line2d_33">
    <path d="M 69.218182 204.419012 
L 69.813805 207.488753 
L 70.409429 205.570165 
L 71.005052 209.279435 
L 71.600676 203.523671 
L 72.1963 206.081788 
L 72.791923 207.488753 
L 73.387547 204.035294 
L 73.98317 207.360847 
L 74.578794 206.081788 
L 75.174417 201.221365 
L 75.770041 209.535247 
L 76.365664 205.570165 
L 76.961288 210.942212 
L 77.556912 209.279435 
L 78.152535 210.814306 
L 79.343782 203.012047 
L 79.939406 209.279435 
L 80.535029 202.756235 
L 81.130653 207.232941 
L 81.726276 202.756235 
L 82.3219 203.779482 
L 82.917524 206.3376 
L 83.513147 205.698071 
L 84.108771 203.139953 
L 84.704394 208.256188 
L 85.300018 206.209694 
L 85.895641 201.732988 
L 86.491265 207.232941 
L 87.086888 205.186447 
L 87.682512 208.767812 
L 88.278136 204.419012 
L 88.873759 203.523671 
L 89.469383 204.802729 
L 90.065006 203.139953 
L 90.66063 205.953882 
L 91.256253 202.884141 
L 91.851877 207.232941 
L 92.4475 206.465506 
L 93.043124 204.674824 
L 93.638748 205.442259 
L 94.234371 209.151529 
L 94.829995 209.407341 
L 95.425618 209.407341 
L 96.021242 206.465506 
L 96.616865 206.465506 
L 97.808112 205.953882 
L 98.403736 203.907388 
L 98.99936 207.105035 
L 99.594983 206.081788 
L 100.190607 208.895718 
L 100.78623 207.488753 
L 101.381854 207.616659 
L 101.977477 208.256188 
L 102.573101 206.081788 
L 103.168724 207.232941 
L 103.764348 207.488753 
L 104.359972 205.058541 
L 104.955595 205.186447 
L 105.551219 199.686494 
L 106.146842 203.907388 
L 106.742466 204.674824 
L 107.338089 204.930635 
L 107.933713 206.3376 
L 108.529336 205.058541 
L 109.12496 204.419012 
L 109.720584 202.500424 
L 110.316207 206.977129 
L 110.911831 205.698071 
L 111.507454 205.442259 
L 112.103078 205.825976 
L 112.698701 210.302682 
L 113.294325 207.488753 
L 113.889948 207.744565 
L 114.485572 201.732988 
L 115.081196 203.267859 
L 115.676819 206.081788 
L 116.272443 203.012047 
L 116.868066 207.360847 
L 117.46369 205.058541 
L 118.059313 204.035294 
L 118.654937 202.244612 
L 119.25056 204.419012 
L 119.846184 209.151529 
L 120.441808 209.407341 
L 121.037431 205.314353 
L 121.633055 212.8608 
L 122.228678 203.267859 
L 122.824302 201.349271 
L 123.419925 206.593412 
L 124.015549 206.977129 
L 124.611172 206.593412 
L 125.206796 201.9888 
L 125.802419 203.907388 
L 126.993667 203.139953 
L 127.58929 208.256188 
L 128.184914 209.407341 
L 128.780537 208.256188 
L 129.376161 203.395765 
L 129.971784 204.291106 
L 130.567408 205.825976 
L 131.163031 208.512 
L 131.758655 204.802729 
L 132.949902 206.977129 
L 133.545526 206.721318 
L 134.141149 208.767812 
L 134.736773 202.500424 
L 135.332396 202.372518 
L 136.523643 208.256188 
L 137.119267 206.465506 
L 137.714891 211.837553 
L 138.310514 203.012047 
L 138.906138 204.035294 
L 139.501761 209.535247 
L 140.097385 205.058541 
L 140.693008 210.302682 
L 141.288632 203.395765 
L 141.884255 206.081788 
L 142.479879 206.3376 
L 143.075503 200.965553 
L 143.671126 206.3376 
L 144.26675 206.209694 
L 144.862373 209.535247 
L 145.457997 206.3376 
L 146.05362 204.291106 
L 146.649244 203.651576 
L 147.244867 208.512 
L 147.840491 202.500424 
L 148.436115 207.488753 
L 149.031738 209.791059 
L 149.627362 201.732988 
L 150.222985 206.721318 
L 150.818609 205.058541 
L 151.414232 210.6864 
L 152.009856 204.291106 
L 152.605479 202.116706 
L 153.201103 207.232941 
L 153.796727 209.407341 
L 154.39235 203.139953 
L 154.987974 206.209694 
L 155.583597 208.639906 
L 156.179221 207.744565 
L 156.774844 207.105035 
L 157.370468 208.384094 
L 157.966091 205.570165 
L 158.561715 209.023624 
L 159.157339 205.698071 
L 159.752962 205.825976 
L 160.348586 203.779482 
L 160.944209 200.709741 
L 161.539833 200.326024 
L 162.135456 205.314353 
L 162.73108 201.477176 
L 163.326703 201.732988 
L 163.922327 202.756235 
L 164.517951 206.209694 
L 165.113574 206.849224 
L 165.709198 204.1632 
L 166.304821 203.523671 
L 166.900445 204.291106 
L 167.496068 204.035294 
L 168.091692 204.674824 
L 168.687315 203.267859 
L 169.282939 206.081788 
L 169.878563 206.3376 
L 170.474186 204.291106 
L 171.06981 205.953882 
L 172.261057 202.500424 
L 172.85668 205.442259 
L 173.452304 203.907388 
L 174.047927 207.360847 
L 174.643551 206.3376 
L 175.239175 204.546918 
L 175.834798 210.430588 
L 176.430422 204.291106 
L 177.026045 203.907388 
L 177.621669 209.663153 
L 178.217292 207.616659 
L 178.812916 207.488753 
L 179.408539 207.105035 
L 180.004163 205.186447 
L 180.599787 203.779482 
L 181.19541 205.186447 
L 181.791034 204.291106 
L 182.386657 203.779482 
L 182.982281 210.814306 
L 183.577904 203.395765 
L 184.173528 206.081788 
L 184.769151 205.698071 
L 185.364775 204.930635 
L 185.960399 203.267859 
L 186.556022 207.616659 
L 187.151646 202.500424 
L 187.747269 200.837647 
L 188.342893 205.953882 
L 190.129763 204.419012 
L 190.725387 204.546918 
L 191.916634 206.721318 
L 192.512258 205.186447 
L 193.107881 205.186447 
L 193.703505 203.139953 
L 194.299128 208.384094 
L 194.894752 208.256188 
L 195.490375 207.105035 
L 196.085999 206.593412 
L 196.681622 202.756235 
L 197.277246 205.186447 
L 197.87287 201.9888 
L 198.468493 206.081788 
L 199.064117 202.116706 
L 199.65974 203.523671 
L 200.255364 197.895812 
L 200.850987 191.1168 
L 201.446611 177.686682 
L 202.042234 168.989082 
L 202.637858 165.919341 
L 203.233482 144.942776 
L 203.829105 137.140518 
L 204.424729 120.768565 
L 205.020352 121.152282 
L 205.615976 119.489506 
L 206.211599 128.442918 
L 206.807223 130.361506 
L 207.402846 149.8032 
L 207.99847 153.512471 
L 208.594094 169.116988 
L 209.189717 174.361129 
L 209.785341 175.896 
L 210.380964 191.756329 
L 210.976588 202.628329 
L 211.572211 204.930635 
L 212.167835 202.372518 
L 212.763458 204.546918 
L 213.359082 199.8144 
L 214.550329 207.744565 
L 215.741576 200.453929 
L 216.3372 205.314353 
L 216.932823 197.512094 
L 217.528447 202.884141 
L 218.12407 193.419106 
L 218.719694 193.035388 
L 219.910941 180.116894 
L 220.506565 182.4192 
L 221.102188 173.465788 
L 221.697812 179.733176 
L 222.293435 175.640188 
L 222.889059 187.279624 
L 223.484682 188.9424 
L 224.080306 194.314447 
L 224.67593 198.535341 
L 225.271553 199.430682 
L 225.867177 209.535247 
L 226.4628 207.488753 
L 227.058424 204.674824 
L 227.654047 204.035294 
L 228.249671 207.232941 
L 228.845294 206.849224 
L 229.440918 203.651576 
L 230.036542 206.721318 
L 230.632165 206.209694 
L 231.227789 205.953882 
L 231.823412 206.3376 
L 232.419036 202.500424 
L 233.610283 207.488753 
L 234.205906 207.872471 
L 234.80153 205.570165 
L 235.397154 208.512 
L 235.992777 204.291106 
L 236.588401 207.360847 
L 237.184024 206.3376 
L 237.779648 207.872471 
L 238.375271 206.593412 
L 238.970895 206.081788 
L 239.566518 205.825976 
L 240.162142 202.500424 
L 240.757766 203.523671 
L 241.353389 207.360847 
L 241.949013 209.663153 
L 242.544636 203.267859 
L 243.14026 206.081788 
L 243.735883 203.395765 
L 244.92713 206.593412 
L 245.522754 204.802729 
L 246.118378 206.209694 
L 246.714001 203.012047 
L 247.309625 204.035294 
L 247.905248 203.395765 
L 248.500872 207.232941 
L 249.096495 203.907388 
L 250.287742 208.767812 
L 250.883366 207.360847 
L 251.47899 204.930635 
L 252.074613 206.465506 
L 252.670237 208.639906 
L 253.26586 206.977129 
L 253.861484 202.628329 
L 254.457107 204.802729 
L 255.052731 206.3376 
L 255.648354 209.023624 
L 256.243978 200.709741 
L 256.839601 206.849224 
L 257.435225 206.593412 
L 258.030849 204.546918 
L 258.626472 204.291106 
L 259.222096 211.325929 
L 259.817719 204.930635 
L 261.008966 209.407341 
L 261.60459 204.546918 
L 262.795837 208.256188 
L 263.391461 206.721318 
L 263.987084 206.721318 
L 264.582708 203.651576 
L 265.178331 204.930635 
L 265.773955 206.593412 
L 266.369578 204.291106 
L 266.965202 205.953882 
L 267.560825 205.314353 
L 268.156449 207.105035 
L 268.752073 210.6864 
L 269.347696 199.046965 
L 269.94332 203.779482 
L 270.538943 204.291106 
L 271.134567 205.058541 
L 271.73019 205.314353 
L 272.325814 207.232941 
L 272.921437 201.477176 
L 273.517061 203.523671 
L 274.112685 208.384094 
L 274.708308 202.244612 
L 275.303932 208.384094 
L 275.899555 200.453929 
L 276.495179 207.488753 
L 277.090802 203.907388 
L 277.686426 205.314353 
L 278.282049 205.825976 
L 278.877673 204.930635 
L 279.473297 203.651576 
L 280.06892 204.1632 
L 280.664544 205.442259 
L 281.260167 205.570165 
L 281.855791 204.1632 
L 282.451414 208.512 
L 283.047038 204.291106 
L 283.642661 208.512 
L 284.238285 209.023624 
L 284.833909 207.232941 
L 285.429532 206.593412 
L 286.025156 206.465506 
L 286.620779 204.035294 
L 287.216403 206.209694 
L 287.812026 207.360847 
L 288.40765 207.616659 
L 289.003273 208.895718 
L 289.598897 206.3376 
L 290.194521 207.488753 
L 290.790144 199.8144 
L 291.385768 206.465506 
L 291.981391 203.139953 
L 292.577015 203.395765 
L 293.172638 209.151529 
L 293.768262 209.535247 
L 294.363885 206.3376 
L 294.959509 205.186447 
L 295.555133 205.825976 
L 296.150756 204.546918 
L 296.74638 202.244612 
L 297.342003 203.012047 
L 297.937627 209.918965 
L 298.53325 204.035294 
L 299.128874 203.139953 
L 299.724497 201.9888 
L 300.320121 204.674824 
L 300.915745 205.698071 
L 301.511368 203.907388 
L 302.106992 205.698071 
L 302.702615 204.930635 
L 303.298239 200.709741 
L 303.893862 207.360847 
L 304.489486 204.674824 
L 305.085109 210.046871 
L 305.680733 206.977129 
L 306.276357 207.488753 
L 306.87198 211.453835 
L 307.467604 206.849224 
L 308.063227 209.791059 
L 308.658851 205.953882 
L 309.254474 203.779482 
L 309.850098 204.930635 
L 310.445721 201.605082 
L 311.041345 206.593412 
L 311.636969 207.360847 
L 312.232592 204.035294 
L 312.828216 208.512 
L 313.423839 205.442259 
L 314.019463 205.570165 
L 314.615086 208.895718 
L 315.21071 206.977129 
L 315.806333 206.593412 
L 316.401957 205.058541 
L 316.997581 205.442259 
L 317.593204 206.977129 
L 318.188828 203.395765 
L 318.784451 205.186447 
L 319.380075 204.674824 
L 319.975698 204.674824 
L 320.571322 203.139953 
L 321.166945 208.000376 
L 321.762569 204.802729 
L 322.358192 205.570165 
L 322.953816 205.953882 
L 323.54944 204.419012 
L 324.145063 205.698071 
L 324.740687 208.128282 
L 325.33631 204.035294 
L 325.931934 206.849224 
L 326.527557 203.779482 
L 327.123181 207.616659 
L 327.718804 202.500424 
L 328.314428 208.767812 
L 328.910052 207.616659 
L 329.505675 203.395765 
L 330.101299 202.756235 
L 331.292546 206.465506 
L 331.888169 206.465506 
L 332.483793 208.895718 
L 333.079416 203.651576 
L 333.67504 204.419012 
L 334.270664 203.139953 
L 334.866287 208.128282 
L 335.461911 201.605082 
L 336.057534 201.221365 
L 336.653158 207.872471 
L 337.248781 206.721318 
L 337.844405 204.674824 
L 338.440028 203.907388 
L 339.035652 206.977129 
L 339.631276 207.105035 
L 340.226899 209.535247 
L 340.822523 204.291106 
L 341.418146 208.256188 
L 342.01377 205.186447 
L 342.609393 210.814306 
L 343.205017 206.081788 
L 343.80064 209.023624 
L 344.396264 206.721318 
L 344.991888 205.314353 
L 345.587511 204.546918 
L 346.183135 206.593412 
L 346.778758 207.872471 
L 347.374382 203.779482 
L 347.970005 206.593412 
L 348.565629 204.1632 
L 349.161252 204.1632 
L 349.756876 202.116706 
L 350.3525 209.023624 
L 350.948123 209.279435 
L 351.543747 205.442259 
L 352.13937 204.1632 
L 352.734994 201.349271 
L 353.330617 203.907388 
L 353.926241 205.186447 
L 354.521864 209.151529 
L 355.117488 202.756235 
L 355.713112 202.372518 
L 356.308735 203.395765 
L 356.904359 210.046871 
L 358.095606 204.291106 
L 358.691229 205.953882 
L 359.286853 202.628329 
L 359.882476 204.419012 
L 360.4781 204.1632 
L 361.073724 203.012047 
L 361.669347 203.651576 
L 362.264971 204.674824 
L 362.860594 206.849224 
L 363.456218 203.907388 
L 364.051841 203.395765 
L 364.647465 201.9888 
L 365.243088 204.291106 
L 365.838712 205.058541 
L 366.434336 208.256188 
L 367.029959 201.093459 
L 367.625583 205.186447 
L 368.221206 202.756235 
L 368.81683 206.3376 
L 369.412453 207.360847 
L 370.6037 203.012047 
L 371.199324 204.1632 
L 371.794948 201.732988 
L 372.390571 203.779482 
L 372.986195 204.291106 
L 373.581818 210.302682 
L 373.581818 210.302682 
" clip-path="url(#pe6782e6d13)" style="fill: none; stroke: #2ca02c; stroke-width: 1.5; stroke-linecap: square"/>
   </g>
   <g id="patch_3">
    <path d="M 54 252 
L 54 34.56 
" style="fill: none; stroke: #000000; stroke-width: 0.8; stroke-linejoin: miter; stroke-linecap: square"/>
   </g>
   <g id="patch_4">
    <path d="M 388.8 252 
L 388.8 34.56 
" style="fill: none; stroke: #000000; stroke-width: 0.8; stroke-linejoin: miter; stroke-linecap: square"/>
   </g>
   <g id="patch_5">
    <path d="M 54 252 
L 388.8 252 
" style="fill: none; stroke: #000000; stroke-width: 0.8; stroke-linejoin: miter; stroke-linecap: square"/>
   </g>
   <g id="patch_6">
    <path d="M 54 34.56 
L 388.8 34.56 
" style="fill: none; stroke: #000000; stroke-width: 0.8; stroke-linejoin: miter; stroke-linecap: square"/>
   </g>
   <g id="text_18">
    <!-- Label 5 -->
    <g transform="translate(199.487813 28.56)scale(0.12 -0.12)">
     <defs>
      <path id="DejaVuSans-4c" d="M 628 4666 
L 1259 4666 
L 1259 531 
L 3531 531 
L 3531 0 
L 628 0 
L 628 4666 
z
" transform="scale(0.015625)"/>
      <path id="DejaVuSans-61" d="M 2194 1759 
Q 1497 1759 1228 1600 
Q 959 1441 959 1056 
Q 959 750 1161 570 
Q 1363 391 1709 391 
Q 2188 391 2477 730 
Q 2766 1069 2766 1631 
L 2766 1759 
L 2194 1759 
z
M 3341 1997 
L 3341 0 
L 2766 0 
L 2766 531 
Q 2569 213 2275 61 
Q 1981 -91 1556 -91 
Q 1019 -91 701 211 
Q 384 513 384 1019 
Q 384 1609 779 1909 
Q 1175 2209 1959 2209 
L 2766 2209 
L 2766 2266 
Q 2766 2663 2505 2880 
Q 2244 3097 1772 3097 
Q 1472 3097 1187 3025 
Q 903 2953 641 2809 
L 641 3341 
Q 956 3463 1253 3523 
Q 1550 3584 1831 3584 
Q 2591 3584 2966 3190 
Q 3341 2797 3341 1997 
z
" transform="scale(0.015625)"/>
      <path id="DejaVuSans-65" d="M 3597 1894 
L 3597 1613 
L 953 1613 
Q 991 1019 1311 708 
Q 1631 397 2203 397 
Q 2534 397 2845 478 
Q 3156 559 3463 722 
L 3463 178 
Q 3153 47 2828 -22 
Q 2503 -91 2169 -91 
Q 1331 -91 842 396 
Q 353 884 353 1716 
Q 353 2575 817 3079 
Q 1281 3584 2069 3584 
Q 2775 3584 3186 3129 
Q 3597 2675 3597 1894 
z
M 3022 2063 
Q 3016 2534 2758 2815 
Q 2500 3097 2075 3097 
Q 1594 3097 1305 2825 
Q 1016 2553 972 2059 
L 3022 2063 
z
" transform="scale(0.015625)"/>
      <path id="DejaVuSans-6c" d="M 603 4863 
L 1178 4863 
L 1178 0 
L 603 0 
L 603 4863 
z
" transform="scale(0.015625)"/>
      <path id="DejaVuSans-20" transform="scale(0.015625)"/>
     </defs>
     <use xlink:href="#DejaVuSans-4c"/>
     <use xlink:href="#DejaVuSans-61" x="55.712891"/>
     <use xlink:href="#DejaVuSans-62" x="116.992188"/>
     <use xlink:href="#DejaVuSans-65" x="180.46875"/>
     <use xlink:href="#DejaVuSans-6c" x="241.992188"/>
     <use xlink:href="#DejaVuSans-20" x="269.775391"/>
     <use xlink:href="#DejaVuSans-35" x="301.5625"/>
    </g>
   </g>
   <g id="legend_1">
    <g id="patch_7">
     <path d="M 309.070312 101.2725 
L 381.8 101.2725 
Q 383.8 101.2725 383.8 99.2725 
L 383.8 41.56 
Q 383.8 39.56 381.8 39.56 
L 309.070312 39.56 
Q 307.070312 39.56 307.070312 41.56 
L 307.070312 99.2725 
Q 307.070312 101.2725 309.070312 101.2725 
z
" style="fill: #ffffff; opacity: 0.8; stroke: #cccccc; stroke-linejoin: miter"/>
    </g>
    <g id="text_19">
     <!-- Trace number -->
     <g transform="translate(311.070312 51.158437)scale(0.1 -0.1)">
      <defs>
       <path id="DejaVuSans-54" d="M -19 4666 
L 3928 4666 
L 3928 4134 
L 2272 4134 
L 2272 0 
L 1638 0 
L 1638 4134 
L -19 4134 
L -19 4666 
z
" transform="scale(0.015625)"/>
       <path id="DejaVuSans-72" d="M 2631 2963 
Q 2534 3019 2420 3045 
Q 2306 3072 2169 3072 
Q 1681 3072 1420 2755 
Q 1159 2438 1159 1844 
L 1159 0 
L 581 0 
L 581 3500 
L 1159 3500 
L 1159 2956 
Q 1341 3275 1631 3429 
Q 1922 3584 2338 3584 
Q 2397 3584 2469 3576 
Q 2541 3569 2628 3553 
L 2631 2963 
z
" transform="scale(0.015625)"/>
       <path id="DejaVuSans-6d" d="M 3328 2828 
Q 3544 3216 3844 3400 
Q 4144 3584 4550 3584 
Q 5097 3584 5394 3201 
Q 5691 2819 5691 2113 
L 5691 0 
L 5113 0 
L 5113 2094 
Q 5113 2597 4934 2840 
Q 4756 3084 4391 3084 
Q 3944 3084 3684 2787 
Q 3425 2491 3425 1978 
L 3425 0 
L 2847 0 
L 2847 2094 
Q 2847 2600 2669 2842 
Q 2491 3084 2119 3084 
Q 1678 3084 1418 2786 
Q 1159 2488 1159 1978 
L 1159 0 
L 581 0 
L 581 3500 
L 1159 3500 
L 1159 2956 
Q 1356 3278 1631 3431 
Q 1906 3584 2284 3584 
Q 2666 3584 2933 3390 
Q 3200 3197 3328 2828 
z
" transform="scale(0.015625)"/>
      </defs>
      <use xlink:href="#DejaVuSans-54"/>
      <use xlink:href="#DejaVuSans-72" x="46.333984"/>
      <use xlink:href="#DejaVuSans-61" x="87.447266"/>
      <use xlink:href="#DejaVuSans-63" x="148.726562"/>
      <use xlink:href="#DejaVuSans-65" x="203.707031"/>
      <use xlink:href="#DejaVuSans-20" x="265.230469"/>
      <use xlink:href="#DejaVuSans-6e" x="297.017578"/>
      <use xlink:href="#DejaVuSans-75" x="360.396484"/>
      <use xlink:href="#DejaVuSans-6d" x="423.775391"/>
      <use xlink:href="#DejaVuSans-62" x="521.1875"/>
      <use xlink:href="#DejaVuSans-65" x="584.664062"/>
      <use xlink:href="#DejaVuSans-72" x="646.1875"/>
     </g>
    </g>
    <g id="line2d_34">
     <path d="M 325.072656 62.336562 
L 335.072656 62.336562 
L 345.072656 62.336562 
" style="fill: none; stroke: #1f77b4; stroke-width: 1.5; stroke-linecap: square"/>
    </g>
    <g id="text_20">
     <!-- 74 -->
     <g transform="translate(353.072656 65.836562)scale(0.1 -0.1)">
      <defs>
       <path id="DejaVuSans-37" d="M 525 4666 
L 3525 4666 
L 3525 4397 
L 1831 0 
L 1172 0 
L 2766 4134 
L 525 4134 
L 525 4666 
z
" transform="scale(0.015625)"/>
      </defs>
      <use xlink:href="#DejaVuSans-37"/>
      <use xlink:href="#DejaVuSans-34" x="63.623047"/>
     </g>
    </g>
    <g id="line2d_35">
     <path d="M 325.072656 77.014687 
L 335.072656 77.014687 
L 345.072656 77.014687 
" style="fill: none; stroke: #ff7f0e; stroke-width: 1.5; stroke-linecap: square"/>
    </g>
    <g id="text_21">
     <!-- 80 -->
     <g transform="translate(353.072656 80.514687)scale(0.1 -0.1)">
      <use xlink:href="#DejaVuSans-38"/>
      <use xlink:href="#DejaVuSans-30" x="63.623047"/>
     </g>
    </g>
    <g id="line2d_36">
     <path d="M 325.072656 91.692813 
L 335.072656 91.692813 
L 345.072656 91.692813 
" style="fill: none; stroke: #2ca02c; stroke-width: 1.5; stroke-linecap: square"/>
    </g>
    <g id="text_22">
     <!-- 90 -->
     <g transform="translate(353.072656 95.192813)scale(0.1 -0.1)">
      <defs>
       <path id="DejaVuSans-39" d="M 703 97 
L 703 672 
Q 941 559 1184 500 
Q 1428 441 1663 441 
Q 2288 441 2617 861 
Q 2947 1281 2994 2138 
Q 2813 1869 2534 1725 
Q 2256 1581 1919 1581 
Q 1219 1581 811 2004 
Q 403 2428 403 3163 
Q 403 3881 828 4315 
Q 1253 4750 1959 4750 
Q 2769 4750 3195 4129 
Q 3622 3509 3622 2328 
Q 3622 1225 3098 567 
Q 2575 -91 1691 -91 
Q 1453 -91 1209 -44 
Q 966 3 703 97 
z
M 1959 2075 
Q 2384 2075 2632 2365 
Q 2881 2656 2881 3163 
Q 2881 3666 2632 3958 
Q 2384 4250 1959 4250 
Q 1534 4250 1286 3958 
Q 1038 3666 1038 3163 
Q 1038 2656 1286 2365 
Q 1534 2075 1959 2075 
z
" transform="scale(0.015625)"/>
      </defs>
      <use xlink:href="#DejaVuSans-39"/>
      <use xlink:href="#DejaVuSans-30" x="63.623047"/>
     </g>
    </g>
   </g>
  </g>
 </g>
 <defs>
  <clipPath id="pe6782e6d13">
   <rect x="54" y="34.56" width="334.8" height="217.44"/>
  </clipPath>
 </defs>
</svg>
