<?xml version="1.0" encoding="utf-8" standalone="no"?>
<!DOCTYPE svg PUBLIC "-//W3C//DTD SVG 1.1//EN"
  "http://www.w3.org/Graphics/SVG/1.1/DTD/svg11.dtd">
<svg xmlns:xlink="http://www.w3.org/1999/xlink" width="432pt" height="288pt" viewBox="0 0 432 288" xmlns="http://www.w3.org/2000/svg" version="1.1">
 <metadata>
  <rdf:RDF xmlns:dc="http://purl.org/dc/elements/1.1/" xmlns:cc="http://creativecommons.org/ns#" xmlns:rdf="http://www.w3.org/1999/02/22-rdf-syntax-ns#">
   <cc:Work>
    <dc:type rdf:resource="http://purl.org/dc/dcmitype/StillImage"/>
    <dc:date>2022-03-30T13:12:48.549260</dc:date>
    <dc:format>image/svg+xml</dc:format>
    <dc:creator>
     <cc:Agent>
      <dc:title>Matplotlib v3.5.1, https://matplotlib.org/</dc:title>
     </cc:Agent>
    </dc:creator>
   </cc:Work>
  </rdf:RDF>
 </metadata>
 <defs>
  <style type="text/css">*{stroke-linejoin: round; stroke-linecap: butt}</style>
 </defs>
 <g id="figure_1">
  <g id="patch_1">
   <path d="M 0 288 
L 432 288 
L 432 0 
L 0 0 
z
" style="fill: #ffffff"/>
  </g>
  <g id="axes_1">
   <g id="patch_2">
    <path d="M 54 252 
L 388.8 252 
L 388.8 34.56 
L 54 34.56 
z
" style="fill: #ffffff"/>
   </g>
   <g id="matplotlib.axis_1">
    <g id="xtick_1">
     <g id="line2d_1">
      <path d="M 69.218182 252 
L 69.218182 34.56 
" clip-path="url(#pbf649186a1)" style="fill: none; stroke: #b0b0b0; stroke-width: 0.8; stroke-linecap: square"/>
     </g>
     <g id="line2d_2">
      <defs>
       <path id="m99b0233e1d" d="M 0 0 
L 0 3.5 
" style="stroke: #000000; stroke-width: 0.8"/>
      </defs>
      <g>
       <use xlink:href="#m99b0233e1d" x="69.218182" y="252" style="stroke: #000000; stroke-width: 0.8"/>
      </g>
     </g>
     <g id="text_1">
      <!-- 0 -->
      <g transform="translate(66.036932 266.598437)scale(0.1 -0.1)">
       <defs>
        <path id="DejaVuSans-30" d="M 2034 4250 
Q 1547 4250 1301 3770 
Q 1056 3291 1056 2328 
Q 1056 1369 1301 889 
Q 1547 409 2034 409 
Q 2525 409 2770 889 
Q 3016 1369 3016 2328 
Q 3016 3291 2770 3770 
Q 2525 4250 2034 4250 
z
M 2034 4750 
Q 2819 4750 3233 4129 
Q 3647 3509 3647 2328 
Q 3647 1150 3233 529 
Q 2819 -91 2034 -91 
Q 1250 -91 836 529 
Q 422 1150 422 2328 
Q 422 3509 836 4129 
Q 1250 4750 2034 4750 
z
" transform="scale(0.015625)"/>
       </defs>
       <use xlink:href="#DejaVuSans-30"/>
      </g>
     </g>
    </g>
    <g id="xtick_2">
     <g id="line2d_3">
      <path d="M 128.780537 252 
L 128.780537 34.56 
" clip-path="url(#pbf649186a1)" style="fill: none; stroke: #b0b0b0; stroke-width: 0.8; stroke-linecap: square"/>
     </g>
     <g id="line2d_4">
      <g>
       <use xlink:href="#m99b0233e1d" x="128.780537" y="252" style="stroke: #000000; stroke-width: 0.8"/>
      </g>
     </g>
     <g id="text_2">
      <!-- 100 -->
      <g transform="translate(119.236787 266.598437)scale(0.1 -0.1)">
       <defs>
        <path id="DejaVuSans-31" d="M 794 531 
L 1825 531 
L 1825 4091 
L 703 3866 
L 703 4441 
L 1819 4666 
L 2450 4666 
L 2450 531 
L 3481 531 
L 3481 0 
L 794 0 
L 794 531 
z
" transform="scale(0.015625)"/>
       </defs>
       <use xlink:href="#DejaVuSans-31"/>
       <use xlink:href="#DejaVuSans-30" x="63.623047"/>
       <use xlink:href="#DejaVuSans-30" x="127.246094"/>
      </g>
     </g>
    </g>
    <g id="xtick_3">
     <g id="line2d_5">
      <path d="M 188.342893 252 
L 188.342893 34.56 
" clip-path="url(#pbf649186a1)" style="fill: none; stroke: #b0b0b0; stroke-width: 0.8; stroke-linecap: square"/>
     </g>
     <g id="line2d_6">
      <g>
       <use xlink:href="#m99b0233e1d" x="188.342893" y="252" style="stroke: #000000; stroke-width: 0.8"/>
      </g>
     </g>
     <g id="text_3">
      <!-- 200 -->
      <g transform="translate(178.799143 266.598437)scale(0.1 -0.1)">
       <defs>
        <path id="DejaVuSans-32" d="M 1228 531 
L 3431 531 
L 3431 0 
L 469 0 
L 469 531 
Q 828 903 1448 1529 
Q 2069 2156 2228 2338 
Q 2531 2678 2651 2914 
Q 2772 3150 2772 3378 
Q 2772 3750 2511 3984 
Q 2250 4219 1831 4219 
Q 1534 4219 1204 4116 
Q 875 4013 500 3803 
L 500 4441 
Q 881 4594 1212 4672 
Q 1544 4750 1819 4750 
Q 2544 4750 2975 4387 
Q 3406 4025 3406 3419 
Q 3406 3131 3298 2873 
Q 3191 2616 2906 2266 
Q 2828 2175 2409 1742 
Q 1991 1309 1228 531 
z
" transform="scale(0.015625)"/>
       </defs>
       <use xlink:href="#DejaVuSans-32"/>
       <use xlink:href="#DejaVuSans-30" x="63.623047"/>
       <use xlink:href="#DejaVuSans-30" x="127.246094"/>
      </g>
     </g>
    </g>
    <g id="xtick_4">
     <g id="line2d_7">
      <path d="M 247.905248 252 
L 247.905248 34.56 
" clip-path="url(#pbf649186a1)" style="fill: none; stroke: #b0b0b0; stroke-width: 0.8; stroke-linecap: square"/>
     </g>
     <g id="line2d_8">
      <g>
       <use xlink:href="#m99b0233e1d" x="247.905248" y="252" style="stroke: #000000; stroke-width: 0.8"/>
      </g>
     </g>
     <g id="text_4">
      <!-- 300 -->
      <g transform="translate(238.361498 266.598437)scale(0.1 -0.1)">
       <defs>
        <path id="DejaVuSans-33" d="M 2597 2516 
Q 3050 2419 3304 2112 
Q 3559 1806 3559 1356 
Q 3559 666 3084 287 
Q 2609 -91 1734 -91 
Q 1441 -91 1130 -33 
Q 819 25 488 141 
L 488 750 
Q 750 597 1062 519 
Q 1375 441 1716 441 
Q 2309 441 2620 675 
Q 2931 909 2931 1356 
Q 2931 1769 2642 2001 
Q 2353 2234 1838 2234 
L 1294 2234 
L 1294 2753 
L 1863 2753 
Q 2328 2753 2575 2939 
Q 2822 3125 2822 3475 
Q 2822 3834 2567 4026 
Q 2313 4219 1838 4219 
Q 1578 4219 1281 4162 
Q 984 4106 628 3988 
L 628 4550 
Q 988 4650 1302 4700 
Q 1616 4750 1894 4750 
Q 2613 4750 3031 4423 
Q 3450 4097 3450 3541 
Q 3450 3153 3228 2886 
Q 3006 2619 2597 2516 
z
" transform="scale(0.015625)"/>
       </defs>
       <use xlink:href="#DejaVuSans-33"/>
       <use xlink:href="#DejaVuSans-30" x="63.623047"/>
       <use xlink:href="#DejaVuSans-30" x="127.246094"/>
      </g>
     </g>
    </g>
    <g id="xtick_5">
     <g id="line2d_9">
      <path d="M 307.467604 252 
L 307.467604 34.56 
" clip-path="url(#pbf649186a1)" style="fill: none; stroke: #b0b0b0; stroke-width: 0.8; stroke-linecap: square"/>
     </g>
     <g id="line2d_10">
      <g>
       <use xlink:href="#m99b0233e1d" x="307.467604" y="252" style="stroke: #000000; stroke-width: 0.8"/>
      </g>
     </g>
     <g id="text_5">
      <!-- 400 -->
      <g transform="translate(297.923854 266.598437)scale(0.1 -0.1)">
       <defs>
        <path id="DejaVuSans-34" d="M 2419 4116 
L 825 1625 
L 2419 1625 
L 2419 4116 
z
M 2253 4666 
L 3047 4666 
L 3047 1625 
L 3713 1625 
L 3713 1100 
L 3047 1100 
L 3047 0 
L 2419 0 
L 2419 1100 
L 313 1100 
L 313 1709 
L 2253 4666 
z
" transform="scale(0.015625)"/>
       </defs>
       <use xlink:href="#DejaVuSans-34"/>
       <use xlink:href="#DejaVuSans-30" x="63.623047"/>
       <use xlink:href="#DejaVuSans-30" x="127.246094"/>
      </g>
     </g>
    </g>
    <g id="xtick_6">
     <g id="line2d_11">
      <path d="M 367.029959 252 
L 367.029959 34.56 
" clip-path="url(#pbf649186a1)" style="fill: none; stroke: #b0b0b0; stroke-width: 0.8; stroke-linecap: square"/>
     </g>
     <g id="line2d_12">
      <g>
       <use xlink:href="#m99b0233e1d" x="367.029959" y="252" style="stroke: #000000; stroke-width: 0.8"/>
      </g>
     </g>
     <g id="text_6">
      <!-- 500 -->
      <g transform="translate(357.486209 266.598437)scale(0.1 -0.1)">
       <defs>
        <path id="DejaVuSans-35" d="M 691 4666 
L 3169 4666 
L 3169 4134 
L 1269 4134 
L 1269 2991 
Q 1406 3038 1543 3061 
Q 1681 3084 1819 3084 
Q 2600 3084 3056 2656 
Q 3513 2228 3513 1497 
Q 3513 744 3044 326 
Q 2575 -91 1722 -91 
Q 1428 -91 1123 -41 
Q 819 9 494 109 
L 494 744 
Q 775 591 1075 516 
Q 1375 441 1709 441 
Q 2250 441 2565 725 
Q 2881 1009 2881 1497 
Q 2881 1984 2565 2268 
Q 2250 2553 1709 2553 
Q 1456 2553 1204 2497 
Q 953 2441 691 2322 
L 691 4666 
z
" transform="scale(0.015625)"/>
       </defs>
       <use xlink:href="#DejaVuSans-35"/>
       <use xlink:href="#DejaVuSans-30" x="63.623047"/>
       <use xlink:href="#DejaVuSans-30" x="127.246094"/>
      </g>
     </g>
    </g>
    <g id="text_7">
     <!-- bin -->
     <g transform="translate(213.667969 280.276563)scale(0.1 -0.1)">
      <defs>
       <path id="DejaVuSans-62" d="M 3116 1747 
Q 3116 2381 2855 2742 
Q 2594 3103 2138 3103 
Q 1681 3103 1420 2742 
Q 1159 2381 1159 1747 
Q 1159 1113 1420 752 
Q 1681 391 2138 391 
Q 2594 391 2855 752 
Q 3116 1113 3116 1747 
z
M 1159 2969 
Q 1341 3281 1617 3432 
Q 1894 3584 2278 3584 
Q 2916 3584 3314 3078 
Q 3713 2572 3713 1747 
Q 3713 922 3314 415 
Q 2916 -91 2278 -91 
Q 1894 -91 1617 61 
Q 1341 213 1159 525 
L 1159 0 
L 581 0 
L 581 4863 
L 1159 4863 
L 1159 2969 
z
" transform="scale(0.015625)"/>
       <path id="DejaVuSans-69" d="M 603 3500 
L 1178 3500 
L 1178 0 
L 603 0 
L 603 3500 
z
M 603 4863 
L 1178 4863 
L 1178 4134 
L 603 4134 
L 603 4863 
z
" transform="scale(0.015625)"/>
       <path id="DejaVuSans-6e" d="M 3513 2113 
L 3513 0 
L 2938 0 
L 2938 2094 
Q 2938 2591 2744 2837 
Q 2550 3084 2163 3084 
Q 1697 3084 1428 2787 
Q 1159 2491 1159 1978 
L 1159 0 
L 581 0 
L 581 3500 
L 1159 3500 
L 1159 2956 
Q 1366 3272 1645 3428 
Q 1925 3584 2291 3584 
Q 2894 3584 3203 3211 
Q 3513 2838 3513 2113 
z
" transform="scale(0.015625)"/>
      </defs>
      <use xlink:href="#DejaVuSans-62"/>
      <use xlink:href="#DejaVuSans-69" x="63.476562"/>
      <use xlink:href="#DejaVuSans-6e" x="91.259766"/>
     </g>
    </g>
   </g>
   <g id="matplotlib.axis_2">
    <g id="ytick_1">
     <g id="line2d_13">
      <path d="M 54 252 
L 388.8 252 
" clip-path="url(#pbf649186a1)" style="fill: none; stroke: #b0b0b0; stroke-width: 0.8; stroke-linecap: square"/>
     </g>
     <g id="line2d_14">
      <defs>
       <path id="mbfee022945" d="M 0 0 
L -3.5 0 
" style="stroke: #000000; stroke-width: 0.8"/>
      </defs>
      <g>
       <use xlink:href="#mbfee022945" x="54" y="252" style="stroke: #000000; stroke-width: 0.8"/>
      </g>
     </g>
     <g id="text_8">
      <!-- 0 -->
      <g transform="translate(40.6375 255.799219)scale(0.1 -0.1)">
       <use xlink:href="#DejaVuSans-30"/>
      </g>
     </g>
    </g>
    <g id="ytick_2">
     <g id="line2d_15">
      <path d="M 54 226.418824 
L 388.8 226.418824 
" clip-path="url(#pbf649186a1)" style="fill: none; stroke: #b0b0b0; stroke-width: 0.8; stroke-linecap: square"/>
     </g>
     <g id="line2d_16">
      <g>
       <use xlink:href="#mbfee022945" x="54" y="226.418824" style="stroke: #000000; stroke-width: 0.8"/>
      </g>
     </g>
     <g id="text_9">
      <!-- 200 -->
      <g transform="translate(27.9125 230.218042)scale(0.1 -0.1)">
       <use xlink:href="#DejaVuSans-32"/>
       <use xlink:href="#DejaVuSans-30" x="63.623047"/>
       <use xlink:href="#DejaVuSans-30" x="127.246094"/>
      </g>
     </g>
    </g>
    <g id="ytick_3">
     <g id="line2d_17">
      <path d="M 54 200.837647 
L 388.8 200.837647 
" clip-path="url(#pbf649186a1)" style="fill: none; stroke: #b0b0b0; stroke-width: 0.8; stroke-linecap: square"/>
     </g>
     <g id="line2d_18">
      <g>
       <use xlink:href="#mbfee022945" x="54" y="200.837647" style="stroke: #000000; stroke-width: 0.8"/>
      </g>
     </g>
     <g id="text_10">
      <!-- 400 -->
      <g transform="translate(27.9125 204.636866)scale(0.1 -0.1)">
       <use xlink:href="#DejaVuSans-34"/>
       <use xlink:href="#DejaVuSans-30" x="63.623047"/>
       <use xlink:href="#DejaVuSans-30" x="127.246094"/>
      </g>
     </g>
    </g>
    <g id="ytick_4">
     <g id="line2d_19">
      <path d="M 54 175.256471 
L 388.8 175.256471 
" clip-path="url(#pbf649186a1)" style="fill: none; stroke: #b0b0b0; stroke-width: 0.8; stroke-linecap: square"/>
     </g>
     <g id="line2d_20">
      <g>
       <use xlink:href="#mbfee022945" x="54" y="175.256471" style="stroke: #000000; stroke-width: 0.8"/>
      </g>
     </g>
     <g id="text_11">
      <!-- 600 -->
      <g transform="translate(27.9125 179.055689)scale(0.1 -0.1)">
       <defs>
        <path id="DejaVuSans-36" d="M 2113 2584 
Q 1688 2584 1439 2293 
Q 1191 2003 1191 1497 
Q 1191 994 1439 701 
Q 1688 409 2113 409 
Q 2538 409 2786 701 
Q 3034 994 3034 1497 
Q 3034 2003 2786 2293 
Q 2538 2584 2113 2584 
z
M 3366 4563 
L 3366 3988 
Q 3128 4100 2886 4159 
Q 2644 4219 2406 4219 
Q 1781 4219 1451 3797 
Q 1122 3375 1075 2522 
Q 1259 2794 1537 2939 
Q 1816 3084 2150 3084 
Q 2853 3084 3261 2657 
Q 3669 2231 3669 1497 
Q 3669 778 3244 343 
Q 2819 -91 2113 -91 
Q 1303 -91 875 529 
Q 447 1150 447 2328 
Q 447 3434 972 4092 
Q 1497 4750 2381 4750 
Q 2619 4750 2861 4703 
Q 3103 4656 3366 4563 
z
" transform="scale(0.015625)"/>
       </defs>
       <use xlink:href="#DejaVuSans-36"/>
       <use xlink:href="#DejaVuSans-30" x="63.623047"/>
       <use xlink:href="#DejaVuSans-30" x="127.246094"/>
      </g>
     </g>
    </g>
    <g id="ytick_5">
     <g id="line2d_21">
      <path d="M 54 149.675294 
L 388.8 149.675294 
" clip-path="url(#pbf649186a1)" style="fill: none; stroke: #b0b0b0; stroke-width: 0.8; stroke-linecap: square"/>
     </g>
     <g id="line2d_22">
      <g>
       <use xlink:href="#mbfee022945" x="54" y="149.675294" style="stroke: #000000; stroke-width: 0.8"/>
      </g>
     </g>
     <g id="text_12">
      <!-- 800 -->
      <g transform="translate(27.9125 153.474513)scale(0.1 -0.1)">
       <defs>
        <path id="DejaVuSans-38" d="M 2034 2216 
Q 1584 2216 1326 1975 
Q 1069 1734 1069 1313 
Q 1069 891 1326 650 
Q 1584 409 2034 409 
Q 2484 409 2743 651 
Q 3003 894 3003 1313 
Q 3003 1734 2745 1975 
Q 2488 2216 2034 2216 
z
M 1403 2484 
Q 997 2584 770 2862 
Q 544 3141 544 3541 
Q 544 4100 942 4425 
Q 1341 4750 2034 4750 
Q 2731 4750 3128 4425 
Q 3525 4100 3525 3541 
Q 3525 3141 3298 2862 
Q 3072 2584 2669 2484 
Q 3125 2378 3379 2068 
Q 3634 1759 3634 1313 
Q 3634 634 3220 271 
Q 2806 -91 2034 -91 
Q 1263 -91 848 271 
Q 434 634 434 1313 
Q 434 1759 690 2068 
Q 947 2378 1403 2484 
z
M 1172 3481 
Q 1172 3119 1398 2916 
Q 1625 2713 2034 2713 
Q 2441 2713 2670 2916 
Q 2900 3119 2900 3481 
Q 2900 3844 2670 4047 
Q 2441 4250 2034 4250 
Q 1625 4250 1398 4047 
Q 1172 3844 1172 3481 
z
" transform="scale(0.015625)"/>
       </defs>
       <use xlink:href="#DejaVuSans-38"/>
       <use xlink:href="#DejaVuSans-30" x="63.623047"/>
       <use xlink:href="#DejaVuSans-30" x="127.246094"/>
      </g>
     </g>
    </g>
    <g id="ytick_6">
     <g id="line2d_23">
      <path d="M 54 124.094118 
L 388.8 124.094118 
" clip-path="url(#pbf649186a1)" style="fill: none; stroke: #b0b0b0; stroke-width: 0.8; stroke-linecap: square"/>
     </g>
     <g id="line2d_24">
      <g>
       <use xlink:href="#mbfee022945" x="54" y="124.094118" style="stroke: #000000; stroke-width: 0.8"/>
      </g>
     </g>
     <g id="text_13">
      <!-- 1000 -->
      <g transform="translate(21.55 127.893336)scale(0.1 -0.1)">
       <use xlink:href="#DejaVuSans-31"/>
       <use xlink:href="#DejaVuSans-30" x="63.623047"/>
       <use xlink:href="#DejaVuSans-30" x="127.246094"/>
       <use xlink:href="#DejaVuSans-30" x="190.869141"/>
      </g>
     </g>
    </g>
    <g id="ytick_7">
     <g id="line2d_25">
      <path d="M 54 98.512941 
L 388.8 98.512941 
" clip-path="url(#pbf649186a1)" style="fill: none; stroke: #b0b0b0; stroke-width: 0.8; stroke-linecap: square"/>
     </g>
     <g id="line2d_26">
      <g>
       <use xlink:href="#mbfee022945" x="54" y="98.512941" style="stroke: #000000; stroke-width: 0.8"/>
      </g>
     </g>
     <g id="text_14">
      <!-- 1200 -->
      <g transform="translate(21.55 102.31216)scale(0.1 -0.1)">
       <use xlink:href="#DejaVuSans-31"/>
       <use xlink:href="#DejaVuSans-32" x="63.623047"/>
       <use xlink:href="#DejaVuSans-30" x="127.246094"/>
       <use xlink:href="#DejaVuSans-30" x="190.869141"/>
      </g>
     </g>
    </g>
    <g id="ytick_8">
     <g id="line2d_27">
      <path d="M 54 72.931765 
L 388.8 72.931765 
" clip-path="url(#pbf649186a1)" style="fill: none; stroke: #b0b0b0; stroke-width: 0.8; stroke-linecap: square"/>
     </g>
     <g id="line2d_28">
      <g>
       <use xlink:href="#mbfee022945" x="54" y="72.931765" style="stroke: #000000; stroke-width: 0.8"/>
      </g>
     </g>
     <g id="text_15">
      <!-- 1400 -->
      <g transform="translate(21.55 76.730983)scale(0.1 -0.1)">
       <use xlink:href="#DejaVuSans-31"/>
       <use xlink:href="#DejaVuSans-34" x="63.623047"/>
       <use xlink:href="#DejaVuSans-30" x="127.246094"/>
       <use xlink:href="#DejaVuSans-30" x="190.869141"/>
      </g>
     </g>
    </g>
    <g id="ytick_9">
     <g id="line2d_29">
      <path d="M 54 47.350588 
L 388.8 47.350588 
" clip-path="url(#pbf649186a1)" style="fill: none; stroke: #b0b0b0; stroke-width: 0.8; stroke-linecap: square"/>
     </g>
     <g id="line2d_30">
      <g>
       <use xlink:href="#mbfee022945" x="54" y="47.350588" style="stroke: #000000; stroke-width: 0.8"/>
      </g>
     </g>
     <g id="text_16">
      <!-- 1600 -->
      <g transform="translate(21.55 51.149807)scale(0.1 -0.1)">
       <use xlink:href="#DejaVuSans-31"/>
       <use xlink:href="#DejaVuSans-36" x="63.623047"/>
       <use xlink:href="#DejaVuSans-30" x="127.246094"/>
       <use xlink:href="#DejaVuSans-30" x="190.869141"/>
      </g>
     </g>
    </g>
    <g id="text_17">
     <!-- count -->
     <g transform="translate(15.470312 157.38625)rotate(-90)scale(0.1 -0.1)">
      <defs>
       <path id="DejaVuSans-63" d="M 3122 3366 
L 3122 2828 
Q 2878 2963 2633 3030 
Q 2388 3097 2138 3097 
Q 1578 3097 1268 2742 
Q 959 2388 959 1747 
Q 959 1106 1268 751 
Q 1578 397 2138 397 
Q 2388 397 2633 464 
Q 2878 531 3122 666 
L 3122 134 
Q 2881 22 2623 -34 
Q 2366 -91 2075 -91 
Q 1284 -91 818 406 
Q 353 903 353 1747 
Q 353 2603 823 3093 
Q 1294 3584 2113 3584 
Q 2378 3584 2631 3529 
Q 2884 3475 3122 3366 
z
" transform="scale(0.015625)"/>
       <path id="DejaVuSans-6f" d="M 1959 3097 
Q 1497 3097 1228 2736 
Q 959 2375 959 1747 
Q 959 1119 1226 758 
Q 1494 397 1959 397 
Q 2419 397 2687 759 
Q 2956 1122 2956 1747 
Q 2956 2369 2687 2733 
Q 2419 3097 1959 3097 
z
M 1959 3584 
Q 2709 3584 3137 3096 
Q 3566 2609 3566 1747 
Q 3566 888 3137 398 
Q 2709 -91 1959 -91 
Q 1206 -91 779 398 
Q 353 888 353 1747 
Q 353 2609 779 3096 
Q 1206 3584 1959 3584 
z
" transform="scale(0.015625)"/>
       <path id="DejaVuSans-75" d="M 544 1381 
L 544 3500 
L 1119 3500 
L 1119 1403 
Q 1119 906 1312 657 
Q 1506 409 1894 409 
Q 2359 409 2629 706 
Q 2900 1003 2900 1516 
L 2900 3500 
L 3475 3500 
L 3475 0 
L 2900 0 
L 2900 538 
Q 2691 219 2414 64 
Q 2138 -91 1772 -91 
Q 1169 -91 856 284 
Q 544 659 544 1381 
z
M 1991 3584 
L 1991 3584 
z
" transform="scale(0.015625)"/>
       <path id="DejaVuSans-74" d="M 1172 4494 
L 1172 3500 
L 2356 3500 
L 2356 3053 
L 1172 3053 
L 1172 1153 
Q 1172 725 1289 603 
Q 1406 481 1766 481 
L 2356 481 
L 2356 0 
L 1766 0 
Q 1100 0 847 248 
Q 594 497 594 1153 
L 594 3053 
L 172 3053 
L 172 3500 
L 594 3500 
L 594 4494 
L 1172 4494 
z
" transform="scale(0.015625)"/>
      </defs>
      <use xlink:href="#DejaVuSans-63"/>
      <use xlink:href="#DejaVuSans-6f" x="54.980469"/>
      <use xlink:href="#DejaVuSans-75" x="116.162109"/>
      <use xlink:href="#DejaVuSans-6e" x="179.541016"/>
      <use xlink:href="#DejaVuSans-74" x="242.919922"/>
     </g>
    </g>
   </g>
   <g id="line2d_31">
    <path d="M 69.218182 228.209506 
L 69.813805 230.000188 
L 70.409429 227.314165 
L 71.005052 232.558306 
L 71.600676 226.930447 
L 72.1963 229.232753 
L 73.387547 228.976941 
L 73.98317 229.744376 
L 74.578794 228.593224 
L 75.174417 230.000188 
L 75.770041 228.209506 
L 76.365664 227.569976 
L 76.961288 231.279247 
L 77.556912 226.418824 
L 78.152535 225.779294 
L 78.748159 229.872282 
L 79.343782 224.628141 
L 79.939406 226.674635 
L 80.535029 226.674635 
L 81.130653 229.744376 
L 81.726276 227.569976 
L 82.3219 229.488565 
L 82.917524 228.849035 
L 84.108771 226.930447 
L 84.704394 229.616471 
L 85.300018 229.232753 
L 85.895641 229.232753 
L 86.491265 227.697882 
L 87.086888 227.058353 
L 87.682512 228.721129 
L 88.278136 226.035106 
L 88.873759 231.662965 
L 89.469383 227.953694 
L 90.065006 229.616471 
L 90.66063 227.953694 
L 91.256253 227.697882 
L 91.851877 228.721129 
L 92.4475 231.535059 
L 93.043124 229.360659 
L 93.638748 229.104847 
L 94.234371 229.616471 
L 94.829995 227.058353 
L 95.425618 227.314165 
L 96.021242 231.662965 
L 96.616865 227.953694 
L 97.212489 225.9072 
L 97.808112 226.802541 
L 98.403736 224.244424 
L 98.99936 228.209506 
L 99.594983 229.360659 
L 100.190607 224.372329 
L 100.78623 228.209506 
L 101.381854 228.593224 
L 101.977477 230.767624 
L 102.573101 229.744376 
L 103.764348 226.930447 
L 104.359972 229.872282 
L 104.955595 227.953694 
L 105.551219 226.802541 
L 106.146842 229.232753 
L 106.742466 230.511812 
L 107.338089 229.488565 
L 107.933713 227.569976 
L 108.529336 227.314165 
L 109.12496 226.163012 
L 109.720584 225.779294 
L 110.316207 228.593224 
L 110.911831 224.116518 
L 111.507454 231.407153 
L 112.103078 228.337412 
L 112.698701 231.535059 
L 113.294325 227.186259 
L 113.889948 229.104847 
L 114.485572 227.186259 
L 115.081196 225.779294 
L 115.676819 230.000188 
L 116.272443 229.488565 
L 116.868066 225.651388 
L 117.46369 228.593224 
L 118.059313 228.0816 
L 118.654937 228.209506 
L 119.25056 228.721129 
L 119.846184 227.697882 
L 120.441808 228.337412 
L 121.037431 229.744376 
L 121.633055 227.825788 
L 122.228678 226.546729 
L 122.824302 226.674635 
L 123.419925 228.0816 
L 124.015549 229.104847 
L 124.611172 230.383906 
L 125.206796 225.9072 
L 125.802419 230.767624 
L 126.398043 226.290918 
L 126.993667 226.546729 
L 127.58929 227.697882 
L 128.184914 228.337412 
L 128.780537 231.151341 
L 129.376161 227.825788 
L 129.971784 228.976941 
L 130.567408 227.697882 
L 131.163031 224.883953 
L 131.758655 228.209506 
L 132.354279 228.337412 
L 132.949902 227.697882 
L 133.545526 225.523482 
L 134.141149 227.186259 
L 134.736773 230.128094 
L 135.332396 228.593224 
L 135.92802 226.418824 
L 136.523643 227.058353 
L 137.119267 230.256 
L 137.714891 227.953694 
L 138.310514 226.674635 
L 138.906138 226.674635 
L 139.501761 231.790871 
L 140.097385 228.849035 
L 140.693008 224.756047 
L 141.288632 222.197929 
L 141.884255 230.895529 
L 142.479879 230.639718 
L 143.075503 232.686212 
L 143.671126 228.976941 
L 144.26675 229.744376 
L 144.862373 228.337412 
L 145.457997 229.232753 
L 146.05362 229.104847 
L 146.649244 228.337412 
L 147.244867 226.674635 
L 147.840491 230.128094 
L 148.436115 228.976941 
L 149.031738 225.651388 
L 149.627362 228.849035 
L 150.222985 228.593224 
L 150.818609 228.209506 
L 151.414232 227.314165 
L 152.009856 227.697882 
L 152.605479 229.872282 
L 153.201103 227.314165 
L 153.796727 228.593224 
L 154.39235 229.104847 
L 154.987974 227.314165 
L 156.179221 230.256 
L 156.774844 228.593224 
L 157.370468 231.279247 
L 157.966091 231.535059 
L 158.561715 227.442071 
L 159.157339 228.337412 
L 159.752962 231.535059 
L 160.348586 228.465318 
L 160.944209 226.674635 
L 161.539833 227.697882 
L 162.135456 227.314165 
L 162.73108 229.744376 
L 163.326703 227.825788 
L 163.922327 229.488565 
L 164.517951 227.825788 
L 165.113574 227.314165 
L 165.709198 229.616471 
L 166.304821 229.232753 
L 166.900445 228.465318 
L 167.496068 225.523482 
L 168.091692 230.000188 
L 168.687315 231.279247 
L 169.878563 228.721129 
L 170.474186 229.616471 
L 171.665433 225.779294 
L 172.261057 230.000188 
L 172.85668 231.662965 
L 173.452304 226.418824 
L 174.047927 229.232753 
L 174.643551 230.000188 
L 175.239175 225.523482 
L 175.834798 225.011859 
L 176.430422 226.290918 
L 177.026045 228.849035 
L 177.621669 229.488565 
L 178.217292 232.302494 
L 178.812916 227.186259 
L 179.408539 227.953694 
L 180.004163 231.023435 
L 180.599787 229.232753 
L 181.19541 229.488565 
L 181.791034 227.186259 
L 182.386657 228.337412 
L 182.982281 231.790871 
L 183.577904 227.953694 
L 184.173528 227.058353 
L 184.769151 228.849035 
L 185.364775 226.930447 
L 185.960399 227.314165 
L 186.556022 230.128094 
L 187.151646 226.418824 
L 187.747269 230.767624 
L 188.342893 228.337412 
L 188.938516 229.616471 
L 189.53414 228.465318 
L 190.129763 226.930447 
L 190.725387 223.988612 
L 191.32101 228.209506 
L 191.916634 226.290918 
L 192.512258 227.058353 
L 193.107881 227.186259 
L 193.703505 230.256 
L 194.299128 230.256 
L 194.894752 227.058353 
L 195.490375 227.442071 
L 196.085999 226.802541 
L 196.681622 230.256 
L 197.277246 226.418824 
L 197.87287 230.511812 
L 198.468493 228.721129 
L 199.064117 228.849035 
L 199.65974 224.116518 
L 200.255364 226.290918 
L 200.850987 229.360659 
L 201.446611 228.337412 
L 202.042234 226.035106 
L 202.637858 228.849035 
L 203.233482 228.209506 
L 203.829105 228.849035 
L 205.020352 230.895529 
L 206.211599 228.721129 
L 207.402846 229.488565 
L 207.99847 226.163012 
L 208.594094 229.616471 
L 209.189717 226.930447 
L 209.785341 231.151341 
L 210.380964 230.256 
L 210.976588 231.023435 
L 211.572211 227.058353 
L 212.763458 229.104847 
L 213.359082 228.337412 
L 213.954706 230.511812 
L 214.550329 230.511812 
L 215.145953 229.360659 
L 215.741576 227.697882 
L 216.3372 231.279247 
L 216.932823 227.569976 
L 217.528447 228.721129 
L 218.12407 227.953694 
L 218.719694 229.360659 
L 219.315318 232.4304 
L 219.910941 227.314165 
L 220.506565 229.360659 
L 221.102188 232.174588 
L 221.697812 229.488565 
L 222.293435 227.569976 
L 222.889059 226.418824 
L 223.484682 229.872282 
L 224.080306 227.058353 
L 224.67593 230.767624 
L 225.271553 224.244424 
L 225.867177 219.511906 
L 226.4628 200.965553 
L 227.058424 198.535341 
L 227.654047 209.535247 
L 228.249671 215.674729 
L 228.845294 217.977035 
L 229.440918 214.011953 
L 230.036542 211.837553 
L 230.632165 202.244612 
L 231.227789 204.1632 
L 231.823412 203.267859 
L 232.419036 208.000376 
L 233.014659 207.744565 
L 233.610283 216.442165 
L 234.205906 215.291012 
L 234.80153 223.349082 
L 235.397154 225.011859 
L 235.992777 225.139765 
L 236.588401 228.976941 
L 237.184024 229.232753 
L 237.779648 227.058353 
L 238.375271 228.0816 
L 239.566518 229.104847 
L 240.162142 229.232753 
L 240.757766 226.418824 
L 241.353389 229.872282 
L 241.949013 230.128094 
L 242.544636 227.442071 
L 243.14026 227.953694 
L 243.735883 226.290918 
L 244.331507 228.209506 
L 244.92713 229.488565 
L 246.118378 226.674635 
L 246.714001 227.697882 
L 247.309625 229.872282 
L 247.905248 227.697882 
L 248.500872 223.476988 
L 249.096495 227.953694 
L 249.692119 230.256 
L 250.883366 226.290918 
L 251.47899 230.128094 
L 252.074613 231.407153 
L 252.670237 229.360659 
L 253.26586 229.104847 
L 253.861484 228.209506 
L 254.457107 229.488565 
L 255.052731 224.628141 
L 255.648354 231.535059 
L 256.243978 226.418824 
L 256.839601 229.104847 
L 258.030849 226.674635 
L 258.626472 230.383906 
L 259.222096 228.849035 
L 259.817719 226.035106 
L 260.413343 228.465318 
L 261.008966 227.569976 
L 261.60459 228.465318 
L 262.200213 229.616471 
L 262.795837 228.0816 
L 263.391461 230.128094 
L 264.582708 225.779294 
L 265.178331 227.953694 
L 265.773955 231.407153 
L 266.369578 230.128094 
L 266.965202 226.546729 
L 267.560825 231.535059 
L 268.156449 229.104847 
L 268.752073 228.976941 
L 269.347696 232.4304 
L 269.94332 224.628141 
L 270.538943 229.104847 
L 271.134567 226.802541 
L 271.73019 231.535059 
L 272.325814 226.802541 
L 272.921437 227.186259 
L 273.517061 228.849035 
L 274.112685 229.360659 
L 274.708308 229.360659 
L 275.303932 225.651388 
L 276.495179 230.383906 
L 277.686426 225.9072 
L 278.282049 228.976941 
L 278.877673 228.209506 
L 279.473297 227.186259 
L 280.06892 229.744376 
L 280.664544 226.674635 
L 281.260167 227.697882 
L 281.855791 229.232753 
L 282.451414 225.011859 
L 283.047038 226.930447 
L 283.642661 228.0816 
L 284.238285 229.744376 
L 284.833909 229.488565 
L 285.429532 229.744376 
L 286.025156 226.418824 
L 286.620779 228.337412 
L 287.216403 228.465318 
L 287.812026 228.465318 
L 288.40765 230.000188 
L 289.003273 225.651388 
L 289.598897 229.232753 
L 290.194521 230.767624 
L 290.790144 230.383906 
L 291.385768 230.767624 
L 291.981391 230.639718 
L 292.577015 228.465318 
L 293.172638 229.616471 
L 293.768262 226.035106 
L 294.363885 227.058353 
L 294.959509 227.825788 
L 295.555133 227.314165 
L 296.150756 227.697882 
L 296.74638 228.465318 
L 297.342003 228.465318 
L 297.937627 227.186259 
L 298.53325 227.442071 
L 299.128874 228.849035 
L 299.724497 229.232753 
L 300.320121 227.442071 
L 300.915745 228.465318 
L 301.511368 227.953694 
L 302.106992 228.0816 
L 302.702615 227.569976 
L 303.298239 230.256 
L 303.893862 227.697882 
L 304.489486 227.314165 
L 305.085109 229.360659 
L 305.680733 229.872282 
L 306.276357 228.209506 
L 306.87198 228.593224 
L 307.467604 228.593224 
L 308.658851 227.186259 
L 309.254474 230.639718 
L 310.445721 227.569976 
L 311.041345 227.058353 
L 311.636969 228.721129 
L 312.232592 228.0816 
L 312.828216 226.290918 
L 313.423839 229.232753 
L 314.019463 227.825788 
L 314.615086 228.465318 
L 315.21071 227.569976 
L 315.806333 229.744376 
L 316.401957 226.035106 
L 316.997581 228.721129 
L 317.593204 226.290918 
L 318.188828 225.779294 
L 318.784451 227.314165 
L 319.380075 229.360659 
L 319.975698 227.697882 
L 321.166945 230.383906 
L 321.762569 227.825788 
L 322.358192 228.593224 
L 322.953816 226.163012 
L 323.54944 229.232753 
L 324.145063 227.314165 
L 324.740687 227.058353 
L 325.33631 229.744376 
L 325.931934 230.256 
L 326.527557 224.883953 
L 327.123181 229.616471 
L 327.718804 228.209506 
L 328.314428 226.035106 
L 328.910052 228.721129 
L 329.505675 230.383906 
L 330.696922 226.418824 
L 331.292546 227.058353 
L 331.888169 226.802541 
L 332.483793 229.104847 
L 333.079416 226.418824 
L 333.67504 228.721129 
L 334.270664 227.314165 
L 334.866287 227.697882 
L 335.461911 228.721129 
L 336.057534 227.442071 
L 336.653158 229.104847 
L 337.248781 227.442071 
L 337.844405 227.697882 
L 338.440028 229.616471 
L 339.035652 227.825788 
L 339.631276 232.302494 
L 340.226899 226.418824 
L 340.822523 227.953694 
L 341.418146 228.849035 
L 342.01377 231.407153 
L 342.609393 227.825788 
L 343.205017 227.442071 
L 344.396264 231.535059 
L 344.991888 225.651388 
L 345.587511 227.953694 
L 346.183135 228.465318 
L 346.778758 229.616471 
L 347.970005 225.779294 
L 348.565629 228.465318 
L 349.161252 226.546729 
L 349.756876 227.186259 
L 350.3525 228.976941 
L 350.948123 227.697882 
L 351.543747 227.058353 
L 352.13937 230.511812 
L 352.734994 227.569976 
L 353.330617 230.128094 
L 353.926241 227.186259 
L 354.521864 226.163012 
L 355.117488 226.035106 
L 355.713112 229.872282 
L 356.308735 227.953694 
L 356.904359 231.662965 
L 357.499982 227.058353 
L 358.095606 230.767624 
L 358.691229 226.802541 
L 359.286853 229.488565 
L 359.882476 227.825788 
L 360.4781 228.849035 
L 361.073724 227.058353 
L 361.669347 228.0816 
L 362.264971 227.569976 
L 362.860594 228.209506 
L 363.456218 227.314165 
L 364.051841 230.128094 
L 364.647465 230.383906 
L 365.243088 228.976941 
L 365.838712 228.209506 
L 366.434336 230.000188 
L 367.029959 229.232753 
L 367.625583 230.383906 
L 368.221206 228.721129 
L 368.81683 230.000188 
L 369.412453 227.058353 
L 370.008077 225.9072 
L 371.199324 227.314165 
L 371.794948 230.128094 
L 372.390571 228.0816 
L 372.986195 229.616471 
L 373.581818 229.232753 
L 373.581818 229.232753 
" clip-path="url(#pbf649186a1)" style="fill: none; stroke: #1f77b4; stroke-width: 1.5; stroke-linecap: square"/>
   </g>
   <g id="line2d_32">
    <path d="M 69.218182 144.047435 
L 69.813805 144.942776 
L 70.409429 134.710306 
L 71.005052 142.896282 
L 71.600676 148.524141 
L 72.1963 143.791624 
L 72.791923 140.082353 
L 73.387547 142.896282 
L 73.98317 142.896282 
L 74.578794 140.593976 
L 75.174417 141.1056 
L 75.770041 146.605553 
L 76.365664 142.896282 
L 76.961288 136.884706 
L 77.556912 143.535812 
L 78.152535 147.6288 
L 78.748159 154.535718 
L 79.343782 134.710306 
L 80.535029 142.896282 
L 81.130653 145.582306 
L 81.726276 140.849788 
L 82.3219 141.1056 
L 82.917524 142.384659 
L 83.513147 139.570729 
L 84.108771 140.849788 
L 84.704394 140.849788 
L 85.300018 145.582306 
L 85.895641 147.500894 
L 86.491265 144.047435 
L 87.086888 139.826541 
L 88.278136 146.477647 
L 88.873759 147.245082 
L 89.469383 138.9312 
L 90.065006 149.163671 
L 90.66063 137.396329 
L 91.256253 139.954447 
L 91.851877 140.082353 
L 92.4475 139.698635 
L 93.043124 137.524235 
L 93.638748 144.175341 
L 94.234371 140.210259 
L 94.829995 144.559059 
L 95.425618 139.954447 
L 96.021242 140.849788 
L 96.616865 143.919529 
L 97.212489 145.582306 
L 98.99936 134.070776 
L 99.594983 143.535812 
L 100.190607 136.628894 
L 100.78623 145.582306 
L 101.381854 147.6288 
L 101.977477 139.059106 
L 103.168724 150.314824 
L 103.764348 147.372988 
L 104.359972 136.373082 
L 104.955595 139.826541 
L 105.551219 137.652141 
L 106.146842 142.512565 
L 106.742466 145.838118 
L 107.338089 142.512565 
L 107.933713 132.280094 
L 108.529336 146.605553 
L 109.12496 142.896282 
L 110.316207 141.489318 
L 110.911831 150.826447 
L 111.507454 148.140424 
L 112.103078 136.117271 
L 112.698701 145.4544 
L 113.889948 143.152094 
L 114.485572 138.291671 
L 115.081196 150.442729 
L 115.676819 137.780047 
L 116.272443 141.361412 
L 116.868066 140.466071 
L 117.46369 134.454494 
L 118.059313 140.849788 
L 118.654937 140.466071 
L 119.25056 139.570729 
L 119.846184 143.535812 
L 120.441808 136.628894 
L 121.037431 137.907953 
L 121.633055 144.686965 
L 122.228678 142.512565 
L 123.419925 143.28 
L 124.015549 143.407906 
L 124.611172 137.524235 
L 125.206796 135.349835 
L 125.802419 140.977694 
L 126.398043 145.326494 
L 126.993667 146.093929 
L 127.58929 142.128847 
L 128.184914 142.384659 
L 128.780537 144.303247 
L 129.376161 127.675482 
L 129.971784 140.593976 
L 130.567408 136.628894 
L 131.163031 139.314918 
L 131.758655 143.407906 
L 132.354279 143.28 
L 132.949902 141.617224 
L 133.545526 136.117271 
L 134.141149 143.024188 
L 134.736773 136.884706 
L 135.332396 140.210259 
L 135.92802 147.756706 
L 136.523643 140.977694 
L 137.119267 140.082353 
L 137.714891 136.373082 
L 138.310514 140.210259 
L 138.906138 149.8032 
L 140.097385 139.570729 
L 140.693008 145.838118 
L 141.288632 133.431247 
L 141.884255 142.512565 
L 142.479879 139.187012 
L 143.075503 143.024188 
L 143.671126 135.094024 
L 144.26675 138.419576 
L 144.862373 148.140424 
L 145.457997 141.745129 
L 146.05362 139.187012 
L 146.649244 151.9776 
L 147.244867 141.1056 
L 147.840491 141.361412 
L 148.436115 136.884706 
L 149.031738 140.210259 
L 149.627362 140.977694 
L 150.222985 140.466071 
L 150.818609 145.710212 
L 151.414232 147.756706 
L 152.009856 139.570729 
L 152.605479 142.896282 
L 153.201103 142.512565 
L 153.796727 141.873035 
L 154.39235 132.791718 
L 154.987974 135.477741 
L 155.583597 145.838118 
L 156.179221 139.698635 
L 157.370468 136.373082 
L 157.966091 147.6288 
L 158.561715 145.326494 
L 159.157339 146.605553 
L 159.752962 133.303341 
L 160.348586 141.745129 
L 160.944209 136.7568 
L 161.539833 133.942871 
L 162.135456 136.117271 
L 162.73108 137.396329 
L 163.326703 151.210165 
L 163.922327 140.721882 
L 164.517951 140.849788 
L 165.113574 141.617224 
L 165.709198 139.954447 
L 166.304821 141.489318 
L 166.900445 143.791624 
L 167.496068 140.977694 
L 168.091692 147.245082 
L 168.687315 145.326494 
L 169.878563 140.849788 
L 170.474186 146.733459 
L 171.06981 145.838118 
L 171.665433 138.035859 
L 172.261057 141.361412 
L 172.85668 154.152 
L 173.452304 139.059106 
L 174.047927 142.896282 
L 174.643551 138.9312 
L 175.239175 147.372988 
L 175.834798 142.512565 
L 176.430422 140.466071 
L 177.026045 140.849788 
L 177.621669 143.152094 
L 178.217292 147.372988 
L 178.812916 137.780047 
L 179.408539 146.221835 
L 180.004163 137.652141 
L 180.599787 141.745129 
L 181.19541 143.535812 
L 181.791034 137.780047 
L 182.982281 148.012518 
L 183.577904 149.035765 
L 184.173528 138.675388 
L 184.769151 140.338165 
L 185.364775 149.163671 
L 185.960399 139.698635 
L 186.556022 142.640471 
L 187.151646 137.268424 
L 187.747269 135.094024 
L 188.342893 138.9312 
L 188.938516 149.8032 
L 189.53414 140.977694 
L 190.129763 147.756706 
L 190.725387 146.221835 
L 191.32101 136.628894 
L 191.916634 144.559059 
L 192.512258 141.361412 
L 193.107881 144.814871 
L 193.703505 144.942776 
L 194.299128 142.000941 
L 194.894752 146.221835 
L 195.490375 142.768376 
L 196.085999 145.070682 
L 196.681622 139.442824 
L 197.277246 138.675388 
L 197.87287 126.780141 
L 198.468493 107.850071 
L 199.064117 101.9664 
L 199.65974 127.931294 
L 200.255364 132.663812 
L 200.850987 129.466165 
L 201.446611 122.047624 
L 202.042234 121.408094 
L 202.637858 101.582682 
L 203.829105 109.640753 
L 204.424729 120.384847 
L 205.020352 114.756988 
L 205.615976 128.954541 
L 206.211599 133.175435 
L 206.807223 139.059106 
L 207.402846 128.826635 
L 207.99847 132.280094 
L 208.594094 142.512565 
L 209.189717 133.687059 
L 209.785341 145.4544 
L 210.380964 147.884612 
L 210.976588 141.617224 
L 211.572211 146.861365 
L 212.167835 136.628894 
L 212.763458 145.4544 
L 213.359082 143.663718 
L 213.954706 140.593976 
L 214.550329 146.733459 
L 215.145953 149.291576 
L 215.741576 143.535812 
L 216.3372 144.047435 
L 216.932823 146.221835 
L 217.528447 139.442824 
L 218.12407 146.093929 
L 218.719694 141.489318 
L 219.315318 147.117176 
L 219.910941 138.035859 
L 220.506565 146.733459 
L 221.102188 142.768376 
L 221.697812 141.873035 
L 222.293435 146.605553 
L 222.889059 148.268329 
L 223.484682 144.175341 
L 224.080306 143.024188 
L 224.67593 139.954447 
L 225.271553 143.791624 
L 225.867177 142.000941 
L 226.4628 148.012518 
L 227.058424 144.559059 
L 227.654047 142.384659 
L 228.249671 136.373082 
L 228.845294 142.256753 
L 229.440918 143.28 
L 230.036542 137.907953 
L 230.632165 147.500894 
L 231.227789 143.535812 
L 231.823412 138.547482 
L 232.419036 142.512565 
L 233.014659 145.710212 
L 233.610283 146.861365 
L 234.205906 137.524235 
L 234.80153 147.884612 
L 235.397154 149.163671 
L 235.992777 140.338165 
L 236.588401 138.803294 
L 237.184024 141.489318 
L 237.779648 138.291671 
L 238.375271 136.628894 
L 238.970895 141.1056 
L 239.566518 137.907953 
L 240.162142 136.628894 
L 240.757766 143.535812 
L 241.353389 144.814871 
L 241.949013 140.593976 
L 242.544636 140.593976 
L 243.14026 134.326588 
L 243.735883 143.152094 
L 244.331507 139.954447 
L 244.92713 143.919529 
L 246.118378 149.291576 
L 246.714001 144.686965 
L 247.309625 141.489318 
L 247.905248 136.7568 
L 248.500872 143.791624 
L 249.096495 145.710212 
L 249.692119 141.745129 
L 250.287742 145.4544 
L 250.883366 145.710212 
L 251.47899 146.093929 
L 252.074613 139.826541 
L 252.670237 138.675388 
L 253.26586 140.593976 
L 253.861484 136.7568 
L 254.457107 149.547388 
L 255.052731 139.570729 
L 255.648354 144.559059 
L 256.243978 143.024188 
L 256.839601 143.919529 
L 257.435225 147.6288 
L 258.030849 143.535812 
L 258.626472 140.849788 
L 259.222096 140.210259 
L 259.817719 135.349835 
L 260.413343 135.605647 
L 261.008966 147.117176 
L 261.60459 138.291671 
L 262.200213 138.291671 
L 262.795837 142.640471 
L 263.391461 142.128847 
L 263.987084 138.547482 
L 264.582708 144.814871 
L 265.178331 144.303247 
L 265.773955 137.268424 
L 266.369578 145.966024 
L 266.965202 135.349835 
L 267.560825 147.756706 
L 268.156449 143.791624 
L 268.752073 148.652047 
L 269.347696 136.245176 
L 269.94332 141.617224 
L 270.538943 148.012518 
L 271.134567 145.582306 
L 271.73019 145.4544 
L 272.325814 140.977694 
L 272.921437 143.791624 
L 273.517061 141.361412 
L 274.112685 140.082353 
L 274.708308 137.140518 
L 275.303932 138.419576 
L 275.899555 141.361412 
L 276.495179 146.349741 
L 277.090802 145.966024 
L 277.686426 143.152094 
L 278.282049 148.907859 
L 279.473297 140.593976 
L 280.06892 140.466071 
L 280.664544 143.024188 
L 281.260167 147.372988 
L 281.855791 140.977694 
L 282.451414 143.791624 
L 283.047038 138.547482 
L 283.642661 143.28 
L 284.238285 142.768376 
L 284.833909 141.745129 
L 285.429532 142.000941 
L 286.025156 143.152094 
L 286.620779 134.838212 
L 287.216403 143.152094 
L 287.812026 143.663718 
L 288.40765 144.942776 
L 289.003273 149.547388 
L 289.598897 137.652141 
L 290.194521 140.977694 
L 291.385768 143.152094 
L 291.981391 140.977694 
L 292.577015 143.535812 
L 293.172638 141.1056 
L 293.768262 147.372988 
L 294.363885 148.524141 
L 294.959509 134.326588 
L 295.555133 143.919529 
L 296.150756 142.384659 
L 297.342003 137.907953 
L 297.937627 141.233506 
L 298.53325 143.407906 
L 299.128874 141.233506 
L 299.724497 145.070682 
L 300.320121 142.256753 
L 300.915745 142.768376 
L 301.511368 135.221929 
L 302.106992 136.628894 
L 302.702615 137.268424 
L 303.298239 142.640471 
L 303.893862 145.4544 
L 304.489486 138.547482 
L 305.085109 143.791624 
L 305.680733 144.431153 
L 306.276357 148.907859 
L 306.87198 139.442824 
L 307.467604 147.500894 
L 308.063227 144.942776 
L 309.254474 138.9312 
L 309.850098 139.187012 
L 310.445721 142.000941 
L 311.041345 141.361412 
L 311.636969 137.780047 
L 312.232592 132.535906 
L 312.828216 139.187012 
L 313.423839 134.198682 
L 314.019463 143.28 
L 314.615086 144.559059 
L 315.21071 136.628894 
L 315.806333 146.861365 
L 316.401957 140.210259 
L 316.997581 137.780047 
L 317.593204 140.466071 
L 318.784451 143.535812 
L 319.380075 149.675294 
L 319.975698 143.535812 
L 320.571322 147.884612 
L 321.166945 139.059106 
L 321.762569 141.745129 
L 322.358192 133.814965 
L 323.54944 146.477647 
L 324.145063 141.1056 
L 324.740687 148.012518 
L 325.33631 137.140518 
L 325.931934 144.431153 
L 326.527557 148.524141 
L 327.123181 136.628894 
L 327.718804 147.6288 
L 328.314428 139.059106 
L 328.910052 142.896282 
L 329.505675 139.187012 
L 330.101299 143.663718 
L 330.696922 145.4544 
L 331.292546 146.733459 
L 331.888169 145.198588 
L 332.483793 136.628894 
L 333.079416 140.210259 
L 333.67504 143.024188 
L 334.270664 139.187012 
L 334.866287 149.931106 
L 335.461911 132.152188 
L 336.057534 139.059106 
L 336.653158 148.396235 
L 337.248781 141.745129 
L 337.844405 138.803294 
L 338.440028 148.268329 
L 339.035652 138.675388 
L 339.631276 141.489318 
L 340.226899 146.093929 
L 340.822523 134.454494 
L 341.418146 138.675388 
L 342.01377 144.047435 
L 342.609393 143.28 
L 343.205017 143.28 
L 343.80064 144.303247 
L 344.396264 145.710212 
L 345.587511 135.349835 
L 346.183135 143.663718 
L 346.778758 146.861365 
L 347.374382 132.663812 
L 347.970005 145.326494 
L 348.565629 151.721788 
L 349.161252 140.338165 
L 349.756876 138.547482 
L 350.3525 139.570729 
L 350.948123 142.000941 
L 351.543747 137.012612 
L 352.13937 143.024188 
L 352.734994 144.175341 
L 353.330617 135.733553 
L 353.926241 147.756706 
L 354.521864 146.221835 
L 355.117488 146.605553 
L 355.713112 138.163765 
L 356.308735 145.4544 
L 356.904359 137.524235 
L 357.499982 142.384659 
L 358.095606 141.233506 
L 358.691229 144.175341 
L 359.286853 136.628894 
L 359.882476 144.047435 
L 360.4781 137.268424 
L 361.073724 139.826541 
L 361.669347 143.024188 
L 362.264971 149.8032 
L 362.860594 137.524235 
L 363.456218 142.128847 
L 364.051841 139.187012 
L 364.647465 144.047435 
L 365.243088 136.373082 
L 365.838712 143.152094 
L 366.434336 143.663718 
L 367.029959 143.535812 
L 367.625583 142.256753 
L 368.221206 137.396329 
L 368.81683 139.698635 
L 369.412453 140.593976 
L 370.008077 137.780047 
L 370.6037 145.710212 
L 371.199324 143.152094 
L 371.794948 148.396235 
L 372.390571 139.954447 
L 372.986195 142.128847 
L 373.581818 147.6288 
L 373.581818 147.6288 
" clip-path="url(#pbf649186a1)" style="fill: none; stroke: #ff7f0e; stroke-width: 1.5; stroke-linecap: square"/>
   </g>
   <g id="line2d_33">
    <path d="M 69.218182 246.883765 
L 69.813805 245.732612 
L 70.409429 244.965176 
L 71.005052 246.500047 
L 71.600676 246.244235 
L 72.1963 245.604706 
L 72.791923 246.372141 
L 73.387547 244.581459 
L 73.98317 245.093082 
L 74.578794 247.267482 
L 75.174417 244.581459 
L 75.770041 245.220988 
L 76.365664 247.139576 
L 76.961288 244.581459 
L 77.556912 246.500047 
L 78.152535 246.500047 
L 78.748159 245.988424 
L 79.343782 245.732612 
L 79.939406 245.604706 
L 80.535029 245.093082 
L 81.130653 245.860518 
L 82.3219 244.709365 
L 82.917524 244.709365 
L 83.513147 245.860518 
L 84.108771 245.860518 
L 84.704394 247.267482 
L 85.300018 247.267482 
L 85.895641 246.244235 
L 86.491265 246.500047 
L 87.086888 244.069835 
L 87.682512 245.093082 
L 88.278136 246.755859 
L 88.873759 245.4768 
L 89.469383 246.755859 
L 90.065006 246.372141 
L 90.66063 245.093082 
L 91.256253 245.604706 
L 91.851877 245.604706 
L 92.4475 244.709365 
L 93.043124 245.860518 
L 93.638748 246.500047 
L 94.234371 244.965176 
L 94.829995 246.116329 
L 95.425618 244.581459 
L 96.021242 245.988424 
L 96.616865 246.627953 
L 97.212489 246.500047 
L 97.808112 247.139576 
L 98.403736 245.093082 
L 99.594983 245.604706 
L 100.78623 247.267482 
L 101.381854 247.139576 
L 101.977477 245.604706 
L 103.168724 247.011671 
L 103.764348 244.453553 
L 104.359972 245.988424 
L 104.955595 245.348894 
L 105.551219 246.116329 
L 106.146842 246.372141 
L 106.742466 246.244235 
L 107.338089 244.069835 
L 107.933713 246.244235 
L 108.529336 243.686118 
L 109.720584 245.604706 
L 110.316207 245.988424 
L 110.911831 247.395388 
L 111.507454 246.244235 
L 112.103078 246.627953 
L 112.698701 242.151247 
L 113.294325 245.4768 
L 113.889948 245.4768 
L 114.485572 244.453553 
L 115.081196 245.988424 
L 115.676819 245.860518 
L 116.272443 245.988424 
L 116.868066 246.627953 
L 117.46369 245.348894 
L 118.059313 246.755859 
L 118.654937 244.965176 
L 119.25056 245.860518 
L 119.846184 245.732612 
L 120.441808 245.093082 
L 121.037431 245.4768 
L 121.633055 245.220988 
L 122.228678 246.755859 
L 122.824302 244.581459 
L 123.419925 245.988424 
L 124.015549 246.244235 
L 124.611172 244.453553 
L 125.206796 246.116329 
L 125.802419 245.348894 
L 126.398043 246.116329 
L 126.993667 245.220988 
L 127.58929 244.965176 
L 128.184914 244.197741 
L 128.780537 244.581459 
L 129.376161 245.4768 
L 129.971784 245.732612 
L 130.567408 247.139576 
L 131.163031 244.709365 
L 131.758655 244.965176 
L 132.354279 245.093082 
L 132.949902 246.372141 
L 133.545526 244.709365 
L 134.141149 245.4768 
L 134.736773 245.4768 
L 135.332396 246.116329 
L 135.92802 245.604706 
L 136.523643 246.627953 
L 137.119267 245.988424 
L 137.714891 244.325647 
L 138.310514 246.244235 
L 138.906138 247.011671 
L 139.501761 245.732612 
L 140.097385 245.732612 
L 140.693008 246.627953 
L 141.288632 246.372141 
L 142.479879 246.116329 
L 143.075503 244.453553 
L 143.671126 244.837271 
L 144.26675 243.941929 
L 144.862373 246.116329 
L 145.457997 245.348894 
L 146.05362 246.116329 
L 146.649244 245.988424 
L 147.244867 245.348894 
L 147.840491 245.348894 
L 148.436115 244.325647 
L 149.031738 246.244235 
L 149.627362 246.372141 
L 150.222985 244.325647 
L 150.818609 244.709365 
L 151.414232 243.686118 
L 152.009856 245.093082 
L 152.605479 244.837271 
L 153.201103 245.988424 
L 153.796727 245.4768 
L 154.39235 246.372141 
L 155.583597 245.348894 
L 156.179221 246.500047 
L 156.774844 246.883765 
L 157.370468 245.732612 
L 157.966091 245.860518 
L 158.561715 244.837271 
L 159.157339 246.627953 
L 159.752962 246.500047 
L 160.348586 246.500047 
L 160.944209 245.604706 
L 161.539833 245.4768 
L 162.73108 246.755859 
L 163.326703 246.244235 
L 163.922327 244.965176 
L 164.517951 245.604706 
L 165.113574 246.500047 
L 165.709198 245.860518 
L 166.304821 244.965176 
L 166.900445 245.4768 
L 167.496068 247.907012 
L 168.091692 245.604706 
L 168.687315 247.139576 
L 169.282939 246.116329 
L 169.878563 246.372141 
L 170.474186 244.581459 
L 171.06981 244.453553 
L 171.665433 245.988424 
L 172.261057 246.116329 
L 172.85668 245.860518 
L 173.452304 245.732612 
L 174.047927 245.988424 
L 174.643551 246.372141 
L 175.239175 246.372141 
L 175.834798 245.093082 
L 176.430422 245.732612 
L 177.026045 244.837271 
L 177.621669 245.604706 
L 178.812916 246.500047 
L 180.004163 244.837271 
L 180.599787 245.348894 
L 181.19541 246.372141 
L 182.386657 246.627953 
L 182.982281 246.116329 
L 183.577904 246.116329 
L 184.173528 245.220988 
L 184.769151 245.988424 
L 185.364775 244.453553 
L 185.960399 246.627953 
L 186.556022 246.883765 
L 187.151646 246.244235 
L 187.747269 246.116329 
L 188.342893 244.837271 
L 188.938516 244.453553 
L 189.53414 246.372141 
L 190.725387 245.4768 
L 191.32101 244.709365 
L 191.916634 245.604706 
L 192.512258 244.965176 
L 193.107881 242.534965 
L 193.703505 245.604706 
L 194.299128 245.220988 
L 194.894752 247.395388 
L 195.490375 245.860518 
L 196.085999 246.500047 
L 196.681622 245.604706 
L 197.277246 247.523294 
L 197.87287 246.244235 
L 198.468493 245.604706 
L 199.064117 245.604706 
L 199.65974 244.197741 
L 200.850987 246.500047 
L 201.446611 246.627953 
L 202.042234 244.837271 
L 202.637858 245.4768 
L 203.233482 245.093082 
L 203.829105 244.325647 
L 204.424729 245.732612 
L 205.020352 244.965176 
L 205.615976 246.116329 
L 206.211599 244.709365 
L 206.807223 244.581459 
L 207.402846 247.139576 
L 207.99847 245.220988 
L 208.594094 245.988424 
L 209.189717 246.116329 
L 209.785341 244.709365 
L 210.380964 246.372141 
L 210.976588 245.4768 
L 211.572211 245.732612 
L 212.167835 245.4768 
L 212.763458 245.860518 
L 213.359082 246.755859 
L 213.954706 246.244235 
L 214.550329 247.523294 
L 215.145953 245.348894 
L 215.741576 246.755859 
L 216.3372 245.860518 
L 216.932823 245.348894 
L 217.528447 244.325647 
L 218.12407 245.988424 
L 218.719694 246.244235 
L 219.910941 245.093082 
L 220.506565 244.453553 
L 221.102188 244.709365 
L 221.697812 245.860518 
L 222.293435 245.220988 
L 222.889059 246.116329 
L 223.484682 246.244235 
L 224.080306 244.837271 
L 225.271553 246.244235 
L 225.867177 247.395388 
L 226.4628 247.139576 
L 227.058424 245.348894 
L 227.654047 247.267482 
L 228.249671 244.581459 
L 228.845294 245.732612 
L 229.440918 245.093082 
L 230.036542 245.220988 
L 230.632165 246.500047 
L 231.227789 246.244235 
L 231.823412 245.860518 
L 232.419036 247.011671 
L 233.014659 243.941929 
L 233.610283 245.093082 
L 234.205906 244.581459 
L 234.80153 246.244235 
L 235.397154 244.709365 
L 236.588401 245.988424 
L 237.184024 246.116329 
L 237.779648 246.755859 
L 238.375271 245.732612 
L 238.970895 246.500047 
L 239.566518 245.220988 
L 240.162142 245.348894 
L 240.757766 246.372141 
L 241.353389 246.244235 
L 241.949013 245.093082 
L 242.544636 244.325647 
L 243.14026 245.732612 
L 243.735883 245.348894 
L 244.331507 244.325647 
L 244.92713 245.860518 
L 245.522754 243.046588 
L 246.118378 239.465224 
L 246.714001 240.488471 
L 247.309625 242.534965 
L 247.905248 242.918682 
L 248.500872 244.069835 
L 249.096495 243.686118 
L 249.692119 241.767529 
L 250.287742 242.662871 
L 250.883366 240.360565 
L 251.47899 242.407059 
L 252.074613 241.639624 
L 252.670237 242.534965 
L 253.26586 241.767529 
L 253.861484 243.814024 
L 254.457107 244.069835 
L 255.052731 245.348894 
L 255.648354 245.988424 
L 256.243978 245.093082 
L 256.839601 245.860518 
L 257.435225 244.709365 
L 258.030849 244.837271 
L 258.626472 245.093082 
L 259.222096 246.755859 
L 259.817719 245.988424 
L 260.413343 246.500047 
L 261.008966 245.220988 
L 261.60459 245.988424 
L 262.200213 245.348894 
L 262.795837 245.860518 
L 263.391461 247.139576 
L 263.987084 247.907012 
L 264.582708 245.348894 
L 265.178331 245.860518 
L 265.773955 245.220988 
L 266.369578 245.4768 
L 266.965202 245.4768 
L 267.560825 245.348894 
L 268.156449 247.267482 
L 268.752073 246.372141 
L 269.347696 246.372141 
L 269.94332 246.755859 
L 270.538943 244.581459 
L 271.73019 245.4768 
L 272.325814 245.732612 
L 272.921437 245.4768 
L 273.517061 245.732612 
L 274.112685 245.220988 
L 274.708308 245.604706 
L 275.303932 246.244235 
L 275.899555 245.732612 
L 276.495179 246.372141 
L 277.090802 245.860518 
L 277.686426 245.604706 
L 278.282049 246.500047 
L 278.877673 243.941929 
L 279.473297 245.604706 
L 280.06892 245.860518 
L 280.664544 247.139576 
L 281.260167 244.453553 
L 281.855791 245.604706 
L 282.451414 246.116329 
L 283.047038 246.372141 
L 283.642661 244.069835 
L 284.238285 245.220988 
L 284.833909 246.116329 
L 285.429532 244.965176 
L 286.025156 244.965176 
L 286.620779 248.034918 
L 287.216403 244.581459 
L 287.812026 245.604706 
L 288.40765 245.348894 
L 289.003273 246.883765 
L 289.598897 243.941929 
L 290.194521 246.500047 
L 290.790144 243.558212 
L 291.385768 246.116329 
L 292.577015 244.453553 
L 293.172638 246.500047 
L 293.768262 247.139576 
L 294.363885 245.093082 
L 294.959509 245.604706 
L 295.555133 246.883765 
L 296.74638 245.732612 
L 297.342003 245.860518 
L 297.937627 244.709365 
L 298.53325 245.732612 
L 299.128874 246.372141 
L 299.724497 246.627953 
L 300.320121 245.4768 
L 301.511368 244.581459 
L 302.106992 245.4768 
L 302.702615 245.604706 
L 303.298239 245.220988 
L 303.893862 246.627953 
L 304.489486 244.709365 
L 305.085109 246.244235 
L 305.680733 245.348894 
L 306.276357 245.732612 
L 306.87198 246.883765 
L 307.467604 245.860518 
L 308.063227 244.325647 
L 308.658851 245.348894 
L 309.254474 246.627953 
L 309.850098 247.011671 
L 310.445721 245.860518 
L 311.041345 246.116329 
L 311.636969 246.627953 
L 312.232592 246.116329 
L 312.828216 244.965176 
L 313.423839 244.709365 
L 314.019463 246.244235 
L 314.615086 246.627953 
L 315.21071 245.604706 
L 315.806333 244.837271 
L 316.401957 245.4768 
L 316.997581 245.604706 
L 317.593204 244.709365 
L 318.188828 245.732612 
L 318.784451 246.116329 
L 319.380075 245.860518 
L 319.975698 246.116329 
L 320.571322 247.011671 
L 321.166945 244.581459 
L 321.762569 246.116329 
L 322.358192 245.860518 
L 322.953816 245.732612 
L 323.54944 245.4768 
L 324.145063 245.093082 
L 324.740687 246.500047 
L 325.33631 244.709365 
L 325.931934 247.395388 
L 327.123181 245.348894 
L 327.718804 245.348894 
L 328.314428 245.220988 
L 328.910052 246.116329 
L 329.505675 244.709365 
L 330.101299 245.988424 
L 330.696922 245.732612 
L 331.292546 244.965176 
L 331.888169 245.348894 
L 332.483793 247.011671 
L 333.079416 246.244235 
L 333.67504 244.069835 
L 334.270664 245.220988 
L 334.866287 244.197741 
L 335.461911 244.453553 
L 336.057534 246.372141 
L 336.653158 245.093082 
L 337.248781 244.325647 
L 337.844405 245.988424 
L 338.440028 245.860518 
L 339.035652 245.220988 
L 339.631276 245.988424 
L 340.226899 246.372141 
L 340.822523 244.709365 
L 342.01377 245.988424 
L 342.609393 245.093082 
L 343.205017 245.732612 
L 343.80064 245.220988 
L 344.396264 246.244235 
L 344.991888 245.093082 
L 345.587511 246.500047 
L 346.183135 246.372141 
L 346.778758 244.581459 
L 347.374382 244.709365 
L 347.970005 245.988424 
L 348.565629 246.883765 
L 349.161252 245.732612 
L 349.756876 245.604706 
L 350.3525 245.860518 
L 350.948123 245.093082 
L 351.543747 247.6512 
L 352.13937 245.093082 
L 353.330617 245.988424 
L 353.926241 246.244235 
L 354.521864 245.988424 
L 355.117488 245.860518 
L 355.713112 246.627953 
L 356.904359 245.4768 
L 357.499982 246.755859 
L 358.095606 245.732612 
L 358.691229 245.220988 
L 359.286853 245.093082 
L 359.882476 246.116329 
L 360.4781 245.860518 
L 361.073724 244.709365 
L 361.669347 245.220988 
L 362.264971 245.348894 
L 362.860594 246.883765 
L 363.456218 245.732612 
L 364.051841 245.348894 
L 364.647465 244.709365 
L 365.243088 245.220988 
L 365.838712 245.093082 
L 366.434336 245.4768 
L 367.029959 244.965176 
L 367.625583 246.500047 
L 368.221206 245.860518 
L 368.81683 245.988424 
L 369.412453 245.732612 
L 370.008077 245.348894 
L 370.6037 244.453553 
L 371.199324 247.267482 
L 371.794948 246.372141 
L 372.390571 246.116329 
L 372.986195 245.220988 
L 373.581818 246.500047 
L 373.581818 246.500047 
" clip-path="url(#pbf649186a1)" style="fill: none; stroke: #2ca02c; stroke-width: 1.5; stroke-linecap: square"/>
   </g>
   <g id="patch_3">
    <path d="M 54 252 
L 54 34.56 
" style="fill: none; stroke: #000000; stroke-width: 0.8; stroke-linejoin: miter; stroke-linecap: square"/>
   </g>
   <g id="patch_4">
    <path d="M 388.8 252 
L 388.8 34.56 
" style="fill: none; stroke: #000000; stroke-width: 0.8; stroke-linejoin: miter; stroke-linecap: square"/>
   </g>
   <g id="patch_5">
    <path d="M 54 252 
L 388.8 252 
" style="fill: none; stroke: #000000; stroke-width: 0.8; stroke-linejoin: miter; stroke-linecap: square"/>
   </g>
   <g id="patch_6">
    <path d="M 54 34.56 
L 388.8 34.56 
" style="fill: none; stroke: #000000; stroke-width: 0.8; stroke-linejoin: miter; stroke-linecap: square"/>
   </g>
   <g id="text_18">
    <!-- Label 15 -->
    <g transform="translate(195.670312 28.56)scale(0.12 -0.12)">
     <defs>
      <path id="DejaVuSans-4c" d="M 628 4666 
L 1259 4666 
L 1259 531 
L 3531 531 
L 3531 0 
L 628 0 
L 628 4666 
z
" transform="scale(0.015625)"/>
      <path id="DejaVuSans-61" d="M 2194 1759 
Q 1497 1759 1228 1600 
Q 959 1441 959 1056 
Q 959 750 1161 570 
Q 1363 391 1709 391 
Q 2188 391 2477 730 
Q 2766 1069 2766 1631 
L 2766 1759 
L 2194 1759 
z
M 3341 1997 
L 3341 0 
L 2766 0 
L 2766 531 
Q 2569 213 2275 61 
Q 1981 -91 1556 -91 
Q 1019 -91 701 211 
Q 384 513 384 1019 
Q 384 1609 779 1909 
Q 1175 2209 1959 2209 
L 2766 2209 
L 2766 2266 
Q 2766 2663 2505 2880 
Q 2244 3097 1772 3097 
Q 1472 3097 1187 3025 
Q 903 2953 641 2809 
L 641 3341 
Q 956 3463 1253 3523 
Q 1550 3584 1831 3584 
Q 2591 3584 2966 3190 
Q 3341 2797 3341 1997 
z
" transform="scale(0.015625)"/>
      <path id="DejaVuSans-65" d="M 3597 1894 
L 3597 1613 
L 953 1613 
Q 991 1019 1311 708 
Q 1631 397 2203 397 
Q 2534 397 2845 478 
Q 3156 559 3463 722 
L 3463 178 
Q 3153 47 2828 -22 
Q 2503 -91 2169 -91 
Q 1331 -91 842 396 
Q 353 884 353 1716 
Q 353 2575 817 3079 
Q 1281 3584 2069 3584 
Q 2775 3584 3186 3129 
Q 3597 2675 3597 1894 
z
M 3022 2063 
Q 3016 2534 2758 2815 
Q 2500 3097 2075 3097 
Q 1594 3097 1305 2825 
Q 1016 2553 972 2059 
L 3022 2063 
z
" transform="scale(0.015625)"/>
      <path id="DejaVuSans-6c" d="M 603 4863 
L 1178 4863 
L 1178 0 
L 603 0 
L 603 4863 
z
" transform="scale(0.015625)"/>
      <path id="DejaVuSans-20" transform="scale(0.015625)"/>
     </defs>
     <use xlink:href="#DejaVuSans-4c"/>
     <use xlink:href="#DejaVuSans-61" x="55.712891"/>
     <use xlink:href="#DejaVuSans-62" x="116.992188"/>
     <use xlink:href="#DejaVuSans-65" x="180.46875"/>
     <use xlink:href="#DejaVuSans-6c" x="241.992188"/>
     <use xlink:href="#DejaVuSans-20" x="269.775391"/>
     <use xlink:href="#DejaVuSans-31" x="301.5625"/>
     <use xlink:href="#DejaVuSans-35" x="365.185547"/>
    </g>
   </g>
   <g id="legend_1">
    <g id="patch_7">
     <path d="M 309.070312 101.2725 
L 381.8 101.2725 
Q 383.8 101.2725 383.8 99.2725 
L 383.8 41.56 
Q 383.8 39.56 381.8 39.56 
L 309.070312 39.56 
Q 307.070312 39.56 307.070312 41.56 
L 307.070312 99.2725 
Q 307.070312 101.2725 309.070312 101.2725 
z
" style="fill: #ffffff; opacity: 0.8; stroke: #cccccc; stroke-linejoin: miter"/>
    </g>
    <g id="text_19">
     <!-- Trace number -->
     <g transform="translate(311.070312 51.158437)scale(0.1 -0.1)">
      <defs>
       <path id="DejaVuSans-54" d="M -19 4666 
L 3928 4666 
L 3928 4134 
L 2272 4134 
L 2272 0 
L 1638 0 
L 1638 4134 
L -19 4134 
L -19 4666 
z
" transform="scale(0.015625)"/>
       <path id="DejaVuSans-72" d="M 2631 2963 
Q 2534 3019 2420 3045 
Q 2306 3072 2169 3072 
Q 1681 3072 1420 2755 
Q 1159 2438 1159 1844 
L 1159 0 
L 581 0 
L 581 3500 
L 1159 3500 
L 1159 2956 
Q 1341 3275 1631 3429 
Q 1922 3584 2338 3584 
Q 2397 3584 2469 3576 
Q 2541 3569 2628 3553 
L 2631 2963 
z
" transform="scale(0.015625)"/>
       <path id="DejaVuSans-6d" d="M 3328 2828 
Q 3544 3216 3844 3400 
Q 4144 3584 4550 3584 
Q 5097 3584 5394 3201 
Q 5691 2819 5691 2113 
L 5691 0 
L 5113 0 
L 5113 2094 
Q 5113 2597 4934 2840 
Q 4756 3084 4391 3084 
Q 3944 3084 3684 2787 
Q 3425 2491 3425 1978 
L 3425 0 
L 2847 0 
L 2847 2094 
Q 2847 2600 2669 2842 
Q 2491 3084 2119 3084 
Q 1678 3084 1418 2786 
Q 1159 2488 1159 1978 
L 1159 0 
L 581 0 
L 581 3500 
L 1159 3500 
L 1159 2956 
Q 1356 3278 1631 3431 
Q 1906 3584 2284 3584 
Q 2666 3584 2933 3390 
Q 3200 3197 3328 2828 
z
" transform="scale(0.015625)"/>
      </defs>
      <use xlink:href="#DejaVuSans-54"/>
      <use xlink:href="#DejaVuSans-72" x="46.333984"/>
      <use xlink:href="#DejaVuSans-61" x="87.447266"/>
      <use xlink:href="#DejaVuSans-63" x="148.726562"/>
      <use xlink:href="#DejaVuSans-65" x="203.707031"/>
      <use xlink:href="#DejaVuSans-20" x="265.230469"/>
      <use xlink:href="#DejaVuSans-6e" x="297.017578"/>
      <use xlink:href="#DejaVuSans-75" x="360.396484"/>
      <use xlink:href="#DejaVuSans-6d" x="423.775391"/>
      <use xlink:href="#DejaVuSans-62" x="521.1875"/>
      <use xlink:href="#DejaVuSans-65" x="584.664062"/>
      <use xlink:href="#DejaVuSans-72" x="646.1875"/>
     </g>
    </g>
    <g id="line2d_34">
     <path d="M 325.072656 62.336562 
L 335.072656 62.336562 
L 345.072656 62.336562 
" style="fill: none; stroke: #1f77b4; stroke-width: 1.5; stroke-linecap: square"/>
    </g>
    <g id="text_20">
     <!-- 6 -->
     <g transform="translate(353.072656 65.836562)scale(0.1 -0.1)">
      <use xlink:href="#DejaVuSans-36"/>
     </g>
    </g>
    <g id="line2d_35">
     <path d="M 325.072656 77.014687 
L 335.072656 77.014687 
L 345.072656 77.014687 
" style="fill: none; stroke: #ff7f0e; stroke-width: 1.5; stroke-linecap: square"/>
    </g>
    <g id="text_21">
     <!-- 9 -->
     <g transform="translate(353.072656 80.514687)scale(0.1 -0.1)">
      <defs>
       <path id="DejaVuSans-39" d="M 703 97 
L 703 672 
Q 941 559 1184 500 
Q 1428 441 1663 441 
Q 2288 441 2617 861 
Q 2947 1281 2994 2138 
Q 2813 1869 2534 1725 
Q 2256 1581 1919 1581 
Q 1219 1581 811 2004 
Q 403 2428 403 3163 
Q 403 3881 828 4315 
Q 1253 4750 1959 4750 
Q 2769 4750 3195 4129 
Q 3622 3509 3622 2328 
Q 3622 1225 3098 567 
Q 2575 -91 1691 -91 
Q 1453 -91 1209 -44 
Q 966 3 703 97 
z
M 1959 2075 
Q 2384 2075 2632 2365 
Q 2881 2656 2881 3163 
Q 2881 3666 2632 3958 
Q 2384 4250 1959 4250 
Q 1534 4250 1286 3958 
Q 1038 3666 1038 3163 
Q 1038 2656 1286 2365 
Q 1534 2075 1959 2075 
z
" transform="scale(0.015625)"/>
      </defs>
      <use xlink:href="#DejaVuSans-39"/>
     </g>
    </g>
    <g id="line2d_36">
     <path d="M 325.072656 91.692813 
L 335.072656 91.692813 
L 345.072656 91.692813 
" style="fill: none; stroke: #2ca02c; stroke-width: 1.5; stroke-linecap: square"/>
    </g>
    <g id="text_22">
     <!-- 41 -->
     <g transform="translate(353.072656 95.192813)scale(0.1 -0.1)">
      <use xlink:href="#DejaVuSans-34"/>
      <use xlink:href="#DejaVuSans-31" x="63.623047"/>
     </g>
    </g>
   </g>
  </g>
 </g>
 <defs>
  <clipPath id="pbf649186a1">
   <rect x="54" y="34.56" width="334.8" height="217.44"/>
  </clipPath>
 </defs>
</svg>
