<?xml version="1.0" encoding="utf-8" standalone="no"?>
<!DOCTYPE svg PUBLIC "-//W3C//DTD SVG 1.1//EN"
  "http://www.w3.org/Graphics/SVG/1.1/DTD/svg11.dtd">
<svg xmlns:xlink="http://www.w3.org/1999/xlink" width="432pt" height="288pt" viewBox="0 0 432 288" xmlns="http://www.w3.org/2000/svg" version="1.1">
 <metadata>
  <rdf:RDF xmlns:dc="http://purl.org/dc/elements/1.1/" xmlns:cc="http://creativecommons.org/ns#" xmlns:rdf="http://www.w3.org/1999/02/22-rdf-syntax-ns#">
   <cc:Work>
    <dc:type rdf:resource="http://purl.org/dc/dcmitype/StillImage"/>
    <dc:date>2022-03-30T13:12:48.657175</dc:date>
    <dc:format>image/svg+xml</dc:format>
    <dc:creator>
     <cc:Agent>
      <dc:title>Matplotlib v3.5.1, https://matplotlib.org/</dc:title>
     </cc:Agent>
    </dc:creator>
   </cc:Work>
  </rdf:RDF>
 </metadata>
 <defs>
  <style type="text/css">*{stroke-linejoin: round; stroke-linecap: butt}</style>
 </defs>
 <g id="figure_1">
  <g id="patch_1">
   <path d="M 0 288 
L 432 288 
L 432 0 
L 0 0 
z
" style="fill: #ffffff"/>
  </g>
  <g id="axes_1">
   <g id="patch_2">
    <path d="M 54 252 
L 388.8 252 
L 388.8 34.56 
L 54 34.56 
z
" style="fill: #ffffff"/>
   </g>
   <g id="matplotlib.axis_1">
    <g id="xtick_1">
     <g id="line2d_1">
      <path d="M 69.218182 252 
L 69.218182 34.56 
" clip-path="url(#pd7067cfcaa)" style="fill: none; stroke: #b0b0b0; stroke-width: 0.8; stroke-linecap: square"/>
     </g>
     <g id="line2d_2">
      <defs>
       <path id="m8cb0bef6be" d="M 0 0 
L 0 3.5 
" style="stroke: #000000; stroke-width: 0.8"/>
      </defs>
      <g>
       <use xlink:href="#m8cb0bef6be" x="69.218182" y="252" style="stroke: #000000; stroke-width: 0.8"/>
      </g>
     </g>
     <g id="text_1">
      <!-- 0 -->
      <g transform="translate(66.036932 266.598437)scale(0.1 -0.1)">
       <defs>
        <path id="DejaVuSans-30" d="M 2034 4250 
Q 1547 4250 1301 3770 
Q 1056 3291 1056 2328 
Q 1056 1369 1301 889 
Q 1547 409 2034 409 
Q 2525 409 2770 889 
Q 3016 1369 3016 2328 
Q 3016 3291 2770 3770 
Q 2525 4250 2034 4250 
z
M 2034 4750 
Q 2819 4750 3233 4129 
Q 3647 3509 3647 2328 
Q 3647 1150 3233 529 
Q 2819 -91 2034 -91 
Q 1250 -91 836 529 
Q 422 1150 422 2328 
Q 422 3509 836 4129 
Q 1250 4750 2034 4750 
z
" transform="scale(0.015625)"/>
       </defs>
       <use xlink:href="#DejaVuSans-30"/>
      </g>
     </g>
    </g>
    <g id="xtick_2">
     <g id="line2d_3">
      <path d="M 128.780537 252 
L 128.780537 34.56 
" clip-path="url(#pd7067cfcaa)" style="fill: none; stroke: #b0b0b0; stroke-width: 0.8; stroke-linecap: square"/>
     </g>
     <g id="line2d_4">
      <g>
       <use xlink:href="#m8cb0bef6be" x="128.780537" y="252" style="stroke: #000000; stroke-width: 0.8"/>
      </g>
     </g>
     <g id="text_2">
      <!-- 100 -->
      <g transform="translate(119.236787 266.598437)scale(0.1 -0.1)">
       <defs>
        <path id="DejaVuSans-31" d="M 794 531 
L 1825 531 
L 1825 4091 
L 703 3866 
L 703 4441 
L 1819 4666 
L 2450 4666 
L 2450 531 
L 3481 531 
L 3481 0 
L 794 0 
L 794 531 
z
" transform="scale(0.015625)"/>
       </defs>
       <use xlink:href="#DejaVuSans-31"/>
       <use xlink:href="#DejaVuSans-30" x="63.623047"/>
       <use xlink:href="#DejaVuSans-30" x="127.246094"/>
      </g>
     </g>
    </g>
    <g id="xtick_3">
     <g id="line2d_5">
      <path d="M 188.342893 252 
L 188.342893 34.56 
" clip-path="url(#pd7067cfcaa)" style="fill: none; stroke: #b0b0b0; stroke-width: 0.8; stroke-linecap: square"/>
     </g>
     <g id="line2d_6">
      <g>
       <use xlink:href="#m8cb0bef6be" x="188.342893" y="252" style="stroke: #000000; stroke-width: 0.8"/>
      </g>
     </g>
     <g id="text_3">
      <!-- 200 -->
      <g transform="translate(178.799143 266.598437)scale(0.1 -0.1)">
       <defs>
        <path id="DejaVuSans-32" d="M 1228 531 
L 3431 531 
L 3431 0 
L 469 0 
L 469 531 
Q 828 903 1448 1529 
Q 2069 2156 2228 2338 
Q 2531 2678 2651 2914 
Q 2772 3150 2772 3378 
Q 2772 3750 2511 3984 
Q 2250 4219 1831 4219 
Q 1534 4219 1204 4116 
Q 875 4013 500 3803 
L 500 4441 
Q 881 4594 1212 4672 
Q 1544 4750 1819 4750 
Q 2544 4750 2975 4387 
Q 3406 4025 3406 3419 
Q 3406 3131 3298 2873 
Q 3191 2616 2906 2266 
Q 2828 2175 2409 1742 
Q 1991 1309 1228 531 
z
" transform="scale(0.015625)"/>
       </defs>
       <use xlink:href="#DejaVuSans-32"/>
       <use xlink:href="#DejaVuSans-30" x="63.623047"/>
       <use xlink:href="#DejaVuSans-30" x="127.246094"/>
      </g>
     </g>
    </g>
    <g id="xtick_4">
     <g id="line2d_7">
      <path d="M 247.905248 252 
L 247.905248 34.56 
" clip-path="url(#pd7067cfcaa)" style="fill: none; stroke: #b0b0b0; stroke-width: 0.8; stroke-linecap: square"/>
     </g>
     <g id="line2d_8">
      <g>
       <use xlink:href="#m8cb0bef6be" x="247.905248" y="252" style="stroke: #000000; stroke-width: 0.8"/>
      </g>
     </g>
     <g id="text_4">
      <!-- 300 -->
      <g transform="translate(238.361498 266.598437)scale(0.1 -0.1)">
       <defs>
        <path id="DejaVuSans-33" d="M 2597 2516 
Q 3050 2419 3304 2112 
Q 3559 1806 3559 1356 
Q 3559 666 3084 287 
Q 2609 -91 1734 -91 
Q 1441 -91 1130 -33 
Q 819 25 488 141 
L 488 750 
Q 750 597 1062 519 
Q 1375 441 1716 441 
Q 2309 441 2620 675 
Q 2931 909 2931 1356 
Q 2931 1769 2642 2001 
Q 2353 2234 1838 2234 
L 1294 2234 
L 1294 2753 
L 1863 2753 
Q 2328 2753 2575 2939 
Q 2822 3125 2822 3475 
Q 2822 3834 2567 4026 
Q 2313 4219 1838 4219 
Q 1578 4219 1281 4162 
Q 984 4106 628 3988 
L 628 4550 
Q 988 4650 1302 4700 
Q 1616 4750 1894 4750 
Q 2613 4750 3031 4423 
Q 3450 4097 3450 3541 
Q 3450 3153 3228 2886 
Q 3006 2619 2597 2516 
z
" transform="scale(0.015625)"/>
       </defs>
       <use xlink:href="#DejaVuSans-33"/>
       <use xlink:href="#DejaVuSans-30" x="63.623047"/>
       <use xlink:href="#DejaVuSans-30" x="127.246094"/>
      </g>
     </g>
    </g>
    <g id="xtick_5">
     <g id="line2d_9">
      <path d="M 307.467604 252 
L 307.467604 34.56 
" clip-path="url(#pd7067cfcaa)" style="fill: none; stroke: #b0b0b0; stroke-width: 0.8; stroke-linecap: square"/>
     </g>
     <g id="line2d_10">
      <g>
       <use xlink:href="#m8cb0bef6be" x="307.467604" y="252" style="stroke: #000000; stroke-width: 0.8"/>
      </g>
     </g>
     <g id="text_5">
      <!-- 400 -->
      <g transform="translate(297.923854 266.598437)scale(0.1 -0.1)">
       <defs>
        <path id="DejaVuSans-34" d="M 2419 4116 
L 825 1625 
L 2419 1625 
L 2419 4116 
z
M 2253 4666 
L 3047 4666 
L 3047 1625 
L 3713 1625 
L 3713 1100 
L 3047 1100 
L 3047 0 
L 2419 0 
L 2419 1100 
L 313 1100 
L 313 1709 
L 2253 4666 
z
" transform="scale(0.015625)"/>
       </defs>
       <use xlink:href="#DejaVuSans-34"/>
       <use xlink:href="#DejaVuSans-30" x="63.623047"/>
       <use xlink:href="#DejaVuSans-30" x="127.246094"/>
      </g>
     </g>
    </g>
    <g id="xtick_6">
     <g id="line2d_11">
      <path d="M 367.029959 252 
L 367.029959 34.56 
" clip-path="url(#pd7067cfcaa)" style="fill: none; stroke: #b0b0b0; stroke-width: 0.8; stroke-linecap: square"/>
     </g>
     <g id="line2d_12">
      <g>
       <use xlink:href="#m8cb0bef6be" x="367.029959" y="252" style="stroke: #000000; stroke-width: 0.8"/>
      </g>
     </g>
     <g id="text_6">
      <!-- 500 -->
      <g transform="translate(357.486209 266.598437)scale(0.1 -0.1)">
       <defs>
        <path id="DejaVuSans-35" d="M 691 4666 
L 3169 4666 
L 3169 4134 
L 1269 4134 
L 1269 2991 
Q 1406 3038 1543 3061 
Q 1681 3084 1819 3084 
Q 2600 3084 3056 2656 
Q 3513 2228 3513 1497 
Q 3513 744 3044 326 
Q 2575 -91 1722 -91 
Q 1428 -91 1123 -41 
Q 819 9 494 109 
L 494 744 
Q 775 591 1075 516 
Q 1375 441 1709 441 
Q 2250 441 2565 725 
Q 2881 1009 2881 1497 
Q 2881 1984 2565 2268 
Q 2250 2553 1709 2553 
Q 1456 2553 1204 2497 
Q 953 2441 691 2322 
L 691 4666 
z
" transform="scale(0.015625)"/>
       </defs>
       <use xlink:href="#DejaVuSans-35"/>
       <use xlink:href="#DejaVuSans-30" x="63.623047"/>
       <use xlink:href="#DejaVuSans-30" x="127.246094"/>
      </g>
     </g>
    </g>
    <g id="text_7">
     <!-- bin -->
     <g transform="translate(213.667969 280.276563)scale(0.1 -0.1)">
      <defs>
       <path id="DejaVuSans-62" d="M 3116 1747 
Q 3116 2381 2855 2742 
Q 2594 3103 2138 3103 
Q 1681 3103 1420 2742 
Q 1159 2381 1159 1747 
Q 1159 1113 1420 752 
Q 1681 391 2138 391 
Q 2594 391 2855 752 
Q 3116 1113 3116 1747 
z
M 1159 2969 
Q 1341 3281 1617 3432 
Q 1894 3584 2278 3584 
Q 2916 3584 3314 3078 
Q 3713 2572 3713 1747 
Q 3713 922 3314 415 
Q 2916 -91 2278 -91 
Q 1894 -91 1617 61 
Q 1341 213 1159 525 
L 1159 0 
L 581 0 
L 581 4863 
L 1159 4863 
L 1159 2969 
z
" transform="scale(0.015625)"/>
       <path id="DejaVuSans-69" d="M 603 3500 
L 1178 3500 
L 1178 0 
L 603 0 
L 603 3500 
z
M 603 4863 
L 1178 4863 
L 1178 4134 
L 603 4134 
L 603 4863 
z
" transform="scale(0.015625)"/>
       <path id="DejaVuSans-6e" d="M 3513 2113 
L 3513 0 
L 2938 0 
L 2938 2094 
Q 2938 2591 2744 2837 
Q 2550 3084 2163 3084 
Q 1697 3084 1428 2787 
Q 1159 2491 1159 1978 
L 1159 0 
L 581 0 
L 581 3500 
L 1159 3500 
L 1159 2956 
Q 1366 3272 1645 3428 
Q 1925 3584 2291 3584 
Q 2894 3584 3203 3211 
Q 3513 2838 3513 2113 
z
" transform="scale(0.015625)"/>
      </defs>
      <use xlink:href="#DejaVuSans-62"/>
      <use xlink:href="#DejaVuSans-69" x="63.476562"/>
      <use xlink:href="#DejaVuSans-6e" x="91.259766"/>
     </g>
    </g>
   </g>
   <g id="matplotlib.axis_2">
    <g id="ytick_1">
     <g id="line2d_13">
      <path d="M 54 252 
L 388.8 252 
" clip-path="url(#pd7067cfcaa)" style="fill: none; stroke: #b0b0b0; stroke-width: 0.8; stroke-linecap: square"/>
     </g>
     <g id="line2d_14">
      <defs>
       <path id="mb4feb602d7" d="M 0 0 
L -3.5 0 
" style="stroke: #000000; stroke-width: 0.8"/>
      </defs>
      <g>
       <use xlink:href="#mb4feb602d7" x="54" y="252" style="stroke: #000000; stroke-width: 0.8"/>
      </g>
     </g>
     <g id="text_8">
      <!-- 0 -->
      <g transform="translate(40.6375 255.799219)scale(0.1 -0.1)">
       <use xlink:href="#DejaVuSans-30"/>
      </g>
     </g>
    </g>
    <g id="ytick_2">
     <g id="line2d_15">
      <path d="M 54 226.418824 
L 388.8 226.418824 
" clip-path="url(#pd7067cfcaa)" style="fill: none; stroke: #b0b0b0; stroke-width: 0.8; stroke-linecap: square"/>
     </g>
     <g id="line2d_16">
      <g>
       <use xlink:href="#mb4feb602d7" x="54" y="226.418824" style="stroke: #000000; stroke-width: 0.8"/>
      </g>
     </g>
     <g id="text_9">
      <!-- 200 -->
      <g transform="translate(27.9125 230.218042)scale(0.1 -0.1)">
       <use xlink:href="#DejaVuSans-32"/>
       <use xlink:href="#DejaVuSans-30" x="63.623047"/>
       <use xlink:href="#DejaVuSans-30" x="127.246094"/>
      </g>
     </g>
    </g>
    <g id="ytick_3">
     <g id="line2d_17">
      <path d="M 54 200.837647 
L 388.8 200.837647 
" clip-path="url(#pd7067cfcaa)" style="fill: none; stroke: #b0b0b0; stroke-width: 0.8; stroke-linecap: square"/>
     </g>
     <g id="line2d_18">
      <g>
       <use xlink:href="#mb4feb602d7" x="54" y="200.837647" style="stroke: #000000; stroke-width: 0.8"/>
      </g>
     </g>
     <g id="text_10">
      <!-- 400 -->
      <g transform="translate(27.9125 204.636866)scale(0.1 -0.1)">
       <use xlink:href="#DejaVuSans-34"/>
       <use xlink:href="#DejaVuSans-30" x="63.623047"/>
       <use xlink:href="#DejaVuSans-30" x="127.246094"/>
      </g>
     </g>
    </g>
    <g id="ytick_4">
     <g id="line2d_19">
      <path d="M 54 175.256471 
L 388.8 175.256471 
" clip-path="url(#pd7067cfcaa)" style="fill: none; stroke: #b0b0b0; stroke-width: 0.8; stroke-linecap: square"/>
     </g>
     <g id="line2d_20">
      <g>
       <use xlink:href="#mb4feb602d7" x="54" y="175.256471" style="stroke: #000000; stroke-width: 0.8"/>
      </g>
     </g>
     <g id="text_11">
      <!-- 600 -->
      <g transform="translate(27.9125 179.055689)scale(0.1 -0.1)">
       <defs>
        <path id="DejaVuSans-36" d="M 2113 2584 
Q 1688 2584 1439 2293 
Q 1191 2003 1191 1497 
Q 1191 994 1439 701 
Q 1688 409 2113 409 
Q 2538 409 2786 701 
Q 3034 994 3034 1497 
Q 3034 2003 2786 2293 
Q 2538 2584 2113 2584 
z
M 3366 4563 
L 3366 3988 
Q 3128 4100 2886 4159 
Q 2644 4219 2406 4219 
Q 1781 4219 1451 3797 
Q 1122 3375 1075 2522 
Q 1259 2794 1537 2939 
Q 1816 3084 2150 3084 
Q 2853 3084 3261 2657 
Q 3669 2231 3669 1497 
Q 3669 778 3244 343 
Q 2819 -91 2113 -91 
Q 1303 -91 875 529 
Q 447 1150 447 2328 
Q 447 3434 972 4092 
Q 1497 4750 2381 4750 
Q 2619 4750 2861 4703 
Q 3103 4656 3366 4563 
z
" transform="scale(0.015625)"/>
       </defs>
       <use xlink:href="#DejaVuSans-36"/>
       <use xlink:href="#DejaVuSans-30" x="63.623047"/>
       <use xlink:href="#DejaVuSans-30" x="127.246094"/>
      </g>
     </g>
    </g>
    <g id="ytick_5">
     <g id="line2d_21">
      <path d="M 54 149.675294 
L 388.8 149.675294 
" clip-path="url(#pd7067cfcaa)" style="fill: none; stroke: #b0b0b0; stroke-width: 0.8; stroke-linecap: square"/>
     </g>
     <g id="line2d_22">
      <g>
       <use xlink:href="#mb4feb602d7" x="54" y="149.675294" style="stroke: #000000; stroke-width: 0.8"/>
      </g>
     </g>
     <g id="text_12">
      <!-- 800 -->
      <g transform="translate(27.9125 153.474513)scale(0.1 -0.1)">
       <defs>
        <path id="DejaVuSans-38" d="M 2034 2216 
Q 1584 2216 1326 1975 
Q 1069 1734 1069 1313 
Q 1069 891 1326 650 
Q 1584 409 2034 409 
Q 2484 409 2743 651 
Q 3003 894 3003 1313 
Q 3003 1734 2745 1975 
Q 2488 2216 2034 2216 
z
M 1403 2484 
Q 997 2584 770 2862 
Q 544 3141 544 3541 
Q 544 4100 942 4425 
Q 1341 4750 2034 4750 
Q 2731 4750 3128 4425 
Q 3525 4100 3525 3541 
Q 3525 3141 3298 2862 
Q 3072 2584 2669 2484 
Q 3125 2378 3379 2068 
Q 3634 1759 3634 1313 
Q 3634 634 3220 271 
Q 2806 -91 2034 -91 
Q 1263 -91 848 271 
Q 434 634 434 1313 
Q 434 1759 690 2068 
Q 947 2378 1403 2484 
z
M 1172 3481 
Q 1172 3119 1398 2916 
Q 1625 2713 2034 2713 
Q 2441 2713 2670 2916 
Q 2900 3119 2900 3481 
Q 2900 3844 2670 4047 
Q 2441 4250 2034 4250 
Q 1625 4250 1398 4047 
Q 1172 3844 1172 3481 
z
" transform="scale(0.015625)"/>
       </defs>
       <use xlink:href="#DejaVuSans-38"/>
       <use xlink:href="#DejaVuSans-30" x="63.623047"/>
       <use xlink:href="#DejaVuSans-30" x="127.246094"/>
      </g>
     </g>
    </g>
    <g id="ytick_6">
     <g id="line2d_23">
      <path d="M 54 124.094118 
L 388.8 124.094118 
" clip-path="url(#pd7067cfcaa)" style="fill: none; stroke: #b0b0b0; stroke-width: 0.8; stroke-linecap: square"/>
     </g>
     <g id="line2d_24">
      <g>
       <use xlink:href="#mb4feb602d7" x="54" y="124.094118" style="stroke: #000000; stroke-width: 0.8"/>
      </g>
     </g>
     <g id="text_13">
      <!-- 1000 -->
      <g transform="translate(21.55 127.893336)scale(0.1 -0.1)">
       <use xlink:href="#DejaVuSans-31"/>
       <use xlink:href="#DejaVuSans-30" x="63.623047"/>
       <use xlink:href="#DejaVuSans-30" x="127.246094"/>
       <use xlink:href="#DejaVuSans-30" x="190.869141"/>
      </g>
     </g>
    </g>
    <g id="ytick_7">
     <g id="line2d_25">
      <path d="M 54 98.512941 
L 388.8 98.512941 
" clip-path="url(#pd7067cfcaa)" style="fill: none; stroke: #b0b0b0; stroke-width: 0.8; stroke-linecap: square"/>
     </g>
     <g id="line2d_26">
      <g>
       <use xlink:href="#mb4feb602d7" x="54" y="98.512941" style="stroke: #000000; stroke-width: 0.8"/>
      </g>
     </g>
     <g id="text_14">
      <!-- 1200 -->
      <g transform="translate(21.55 102.31216)scale(0.1 -0.1)">
       <use xlink:href="#DejaVuSans-31"/>
       <use xlink:href="#DejaVuSans-32" x="63.623047"/>
       <use xlink:href="#DejaVuSans-30" x="127.246094"/>
       <use xlink:href="#DejaVuSans-30" x="190.869141"/>
      </g>
     </g>
    </g>
    <g id="ytick_8">
     <g id="line2d_27">
      <path d="M 54 72.931765 
L 388.8 72.931765 
" clip-path="url(#pd7067cfcaa)" style="fill: none; stroke: #b0b0b0; stroke-width: 0.8; stroke-linecap: square"/>
     </g>
     <g id="line2d_28">
      <g>
       <use xlink:href="#mb4feb602d7" x="54" y="72.931765" style="stroke: #000000; stroke-width: 0.8"/>
      </g>
     </g>
     <g id="text_15">
      <!-- 1400 -->
      <g transform="translate(21.55 76.730983)scale(0.1 -0.1)">
       <use xlink:href="#DejaVuSans-31"/>
       <use xlink:href="#DejaVuSans-34" x="63.623047"/>
       <use xlink:href="#DejaVuSans-30" x="127.246094"/>
       <use xlink:href="#DejaVuSans-30" x="190.869141"/>
      </g>
     </g>
    </g>
    <g id="ytick_9">
     <g id="line2d_29">
      <path d="M 54 47.350588 
L 388.8 47.350588 
" clip-path="url(#pd7067cfcaa)" style="fill: none; stroke: #b0b0b0; stroke-width: 0.8; stroke-linecap: square"/>
     </g>
     <g id="line2d_30">
      <g>
       <use xlink:href="#mb4feb602d7" x="54" y="47.350588" style="stroke: #000000; stroke-width: 0.8"/>
      </g>
     </g>
     <g id="text_16">
      <!-- 1600 -->
      <g transform="translate(21.55 51.149807)scale(0.1 -0.1)">
       <use xlink:href="#DejaVuSans-31"/>
       <use xlink:href="#DejaVuSans-36" x="63.623047"/>
       <use xlink:href="#DejaVuSans-30" x="127.246094"/>
       <use xlink:href="#DejaVuSans-30" x="190.869141"/>
      </g>
     </g>
    </g>
    <g id="text_17">
     <!-- count -->
     <g transform="translate(15.470312 157.38625)rotate(-90)scale(0.1 -0.1)">
      <defs>
       <path id="DejaVuSans-63" d="M 3122 3366 
L 3122 2828 
Q 2878 2963 2633 3030 
Q 2388 3097 2138 3097 
Q 1578 3097 1268 2742 
Q 959 2388 959 1747 
Q 959 1106 1268 751 
Q 1578 397 2138 397 
Q 2388 397 2633 464 
Q 2878 531 3122 666 
L 3122 134 
Q 2881 22 2623 -34 
Q 2366 -91 2075 -91 
Q 1284 -91 818 406 
Q 353 903 353 1747 
Q 353 2603 823 3093 
Q 1294 3584 2113 3584 
Q 2378 3584 2631 3529 
Q 2884 3475 3122 3366 
z
" transform="scale(0.015625)"/>
       <path id="DejaVuSans-6f" d="M 1959 3097 
Q 1497 3097 1228 2736 
Q 959 2375 959 1747 
Q 959 1119 1226 758 
Q 1494 397 1959 397 
Q 2419 397 2687 759 
Q 2956 1122 2956 1747 
Q 2956 2369 2687 2733 
Q 2419 3097 1959 3097 
z
M 1959 3584 
Q 2709 3584 3137 3096 
Q 3566 2609 3566 1747 
Q 3566 888 3137 398 
Q 2709 -91 1959 -91 
Q 1206 -91 779 398 
Q 353 888 353 1747 
Q 353 2609 779 3096 
Q 1206 3584 1959 3584 
z
" transform="scale(0.015625)"/>
       <path id="DejaVuSans-75" d="M 544 1381 
L 544 3500 
L 1119 3500 
L 1119 1403 
Q 1119 906 1312 657 
Q 1506 409 1894 409 
Q 2359 409 2629 706 
Q 2900 1003 2900 1516 
L 2900 3500 
L 3475 3500 
L 3475 0 
L 2900 0 
L 2900 538 
Q 2691 219 2414 64 
Q 2138 -91 1772 -91 
Q 1169 -91 856 284 
Q 544 659 544 1381 
z
M 1991 3584 
L 1991 3584 
z
" transform="scale(0.015625)"/>
       <path id="DejaVuSans-74" d="M 1172 4494 
L 1172 3500 
L 2356 3500 
L 2356 3053 
L 1172 3053 
L 1172 1153 
Q 1172 725 1289 603 
Q 1406 481 1766 481 
L 2356 481 
L 2356 0 
L 1766 0 
Q 1100 0 847 248 
Q 594 497 594 1153 
L 594 3053 
L 172 3053 
L 172 3500 
L 594 3500 
L 594 4494 
L 1172 4494 
z
" transform="scale(0.015625)"/>
      </defs>
      <use xlink:href="#DejaVuSans-63"/>
      <use xlink:href="#DejaVuSans-6f" x="54.980469"/>
      <use xlink:href="#DejaVuSans-75" x="116.162109"/>
      <use xlink:href="#DejaVuSans-6e" x="179.541016"/>
      <use xlink:href="#DejaVuSans-74" x="242.919922"/>
     </g>
    </g>
   </g>
   <g id="line2d_31">
    <path d="M 69.218182 250.976753 
L 69.813805 250.848847 
L 70.409429 250.848847 
L 71.005052 251.232565 
L 71.600676 250.209318 
L 72.791923 251.232565 
L 73.387547 251.232565 
L 73.98317 250.465129 
L 74.578794 250.720941 
L 75.174417 251.104659 
L 76.365664 250.593035 
L 76.961288 250.848847 
L 77.556912 251.232565 
L 78.152535 250.593035 
L 78.748159 250.848847 
L 79.343782 250.593035 
L 79.939406 251.488376 
L 80.535029 250.465129 
L 81.130653 250.465129 
L 81.726276 250.848847 
L 82.3219 251.616282 
L 82.917524 251.104659 
L 83.513147 251.360471 
L 84.108771 251.360471 
L 84.704394 251.232565 
L 85.300018 251.488376 
L 85.895641 250.976753 
L 86.491265 251.104659 
L 87.086888 250.337224 
L 87.682512 251.232565 
L 88.278136 250.976753 
L 88.873759 251.744188 
L 89.469383 250.720941 
L 90.065006 251.232565 
L 90.66063 250.976753 
L 91.256253 251.360471 
L 91.851877 251.104659 
L 92.4475 250.976753 
L 93.043124 250.593035 
L 93.638748 251.104659 
L 94.234371 250.848847 
L 94.829995 250.720941 
L 95.425618 251.360471 
L 96.021242 251.232565 
L 96.616865 251.488376 
L 97.212489 251.104659 
L 97.808112 251.104659 
L 98.403736 250.593035 
L 98.99936 250.976753 
L 99.594983 250.593035 
L 100.190607 251.488376 
L 100.78623 251.104659 
L 101.381854 250.976753 
L 101.977477 250.720941 
L 102.573101 251.360471 
L 103.168724 251.616282 
L 103.764348 251.360471 
L 104.359972 251.488376 
L 104.955595 250.976753 
L 105.551219 249.8256 
L 106.146842 250.720941 
L 107.338089 250.976753 
L 107.933713 251.360471 
L 108.529336 251.360471 
L 109.12496 251.488376 
L 109.720584 251.104659 
L 110.316207 251.104659 
L 110.911831 251.488376 
L 111.507454 250.848847 
L 112.103078 250.848847 
L 112.698701 251.104659 
L 113.294325 250.976753 
L 113.889948 251.104659 
L 114.485572 251.360471 
L 115.081196 250.848847 
L 115.676819 250.593035 
L 116.272443 251.104659 
L 117.46369 250.081412 
L 118.059313 250.976753 
L 118.654937 251.488376 
L 119.25056 251.232565 
L 119.846184 250.848847 
L 120.441808 250.976753 
L 121.037431 251.360471 
L 121.633055 251.104659 
L 122.228678 251.488376 
L 122.824302 251.488376 
L 123.419925 251.616282 
L 124.015549 251.360471 
L 124.611172 250.465129 
L 125.206796 251.744188 
L 125.802419 250.976753 
L 126.398043 251.360471 
L 126.993667 250.976753 
L 127.58929 251.232565 
L 128.184914 250.593035 
L 129.376161 251.232565 
L 129.971784 251.488376 
L 130.567408 251.360471 
L 131.163031 251.616282 
L 131.758655 250.593035 
L 132.354279 250.976753 
L 132.949902 250.720941 
L 133.545526 251.232565 
L 134.141149 250.848847 
L 134.736773 251.360471 
L 135.332396 250.593035 
L 135.92802 251.360471 
L 136.523643 251.104659 
L 137.119267 251.360471 
L 138.906138 250.976753 
L 139.501761 251.360471 
L 140.097385 251.360471 
L 140.693008 250.465129 
L 141.288632 251.488376 
L 141.884255 250.976753 
L 142.479879 250.976753 
L 143.075503 250.720941 
L 143.671126 251.488376 
L 144.26675 250.976753 
L 144.862373 251.488376 
L 145.457997 250.337224 
L 146.05362 250.465129 
L 146.649244 250.337224 
L 147.244867 249.953506 
L 147.840491 251.488376 
L 148.436115 250.976753 
L 149.031738 250.848847 
L 149.627362 251.232565 
L 150.222985 251.360471 
L 150.818609 250.593035 
L 151.414232 250.976753 
L 152.009856 250.848847 
L 152.605479 250.848847 
L 153.201103 250.209318 
L 153.796727 250.976753 
L 154.39235 251.104659 
L 154.987974 250.976753 
L 155.583597 250.976753 
L 156.179221 250.720941 
L 156.774844 251.232565 
L 157.966091 251.232565 
L 158.561715 251.104659 
L 159.157339 251.360471 
L 159.752962 250.593035 
L 160.348586 251.616282 
L 160.944209 250.976753 
L 161.539833 251.360471 
L 162.135456 250.848847 
L 162.73108 251.104659 
L 163.922327 251.104659 
L 164.517951 250.720941 
L 165.113574 246.116329 
L 165.709198 234.988518 
L 166.304821 212.988706 
L 166.900445 179.605271 
L 167.496068 175.640188 
L 168.091692 198.791153 
L 168.687315 229.872282 
L 169.282939 245.220988 
L 169.878563 250.337224 
L 170.474186 251.104659 
L 171.06981 250.593035 
L 171.665433 251.360471 
L 172.261057 251.360471 
L 172.85668 251.104659 
L 173.452304 250.976753 
L 174.047927 250.209318 
L 174.643551 251.360471 
L 175.239175 250.720941 
L 175.834798 251.488376 
L 176.430422 251.360471 
L 177.621669 251.360471 
L 178.217292 250.593035 
L 178.812916 250.465129 
L 179.408539 251.360471 
L 180.599787 250.720941 
L 181.19541 251.104659 
L 181.791034 250.337224 
L 182.386657 250.848847 
L 182.982281 250.976753 
L 183.577904 250.976753 
L 184.173528 250.465129 
L 184.769151 251.232565 
L 185.364775 250.720941 
L 185.960399 250.848847 
L 186.556022 251.104659 
L 187.151646 250.848847 
L 187.747269 251.488376 
L 188.342893 251.744188 
L 188.938516 250.465129 
L 189.53414 250.848847 
L 190.129763 250.465129 
L 190.725387 251.616282 
L 191.916634 250.465129 
L 192.512258 250.976753 
L 193.107881 251.872094 
L 193.703505 251.104659 
L 194.299128 250.976753 
L 194.894752 250.337224 
L 195.490375 250.976753 
L 196.085999 250.720941 
L 196.681622 251.104659 
L 197.277246 251.104659 
L 197.87287 250.848847 
L 198.468493 250.720941 
L 199.064117 251.616282 
L 200.255364 250.720941 
L 200.850987 251.488376 
L 201.446611 251.616282 
L 202.042234 250.593035 
L 202.637858 251.744188 
L 203.233482 250.848847 
L 203.829105 250.976753 
L 204.424729 250.593035 
L 205.020352 251.104659 
L 205.615976 250.720941 
L 206.211599 251.232565 
L 206.807223 250.720941 
L 207.402846 250.465129 
L 207.99847 250.976753 
L 208.594094 250.720941 
L 209.189717 251.232565 
L 209.785341 251.104659 
L 210.380964 251.104659 
L 210.976588 251.488376 
L 211.572211 251.616282 
L 212.167835 250.976753 
L 212.763458 251.360471 
L 213.359082 250.593035 
L 213.954706 251.104659 
L 215.145953 251.104659 
L 215.741576 250.593035 
L 216.3372 251.488376 
L 216.932823 251.232565 
L 217.528447 251.616282 
L 218.12407 251.232565 
L 218.719694 251.744188 
L 219.315318 251.232565 
L 219.910941 249.953506 
L 220.506565 251.232565 
L 221.102188 250.976753 
L 221.697812 250.848847 
L 222.293435 250.465129 
L 222.889059 250.720941 
L 223.484682 250.720941 
L 224.080306 251.360471 
L 225.271553 251.104659 
L 225.867177 250.848847 
L 226.4628 250.976753 
L 227.058424 251.360471 
L 227.654047 250.848847 
L 228.249671 250.593035 
L 228.845294 250.848847 
L 229.440918 251.872094 
L 230.036542 251.232565 
L 230.632165 250.337224 
L 231.227789 250.593035 
L 231.823412 251.232565 
L 232.419036 251.104659 
L 233.014659 251.232565 
L 233.610283 251.488376 
L 234.80153 251.232565 
L 235.397154 250.976753 
L 235.992777 251.488376 
L 236.588401 250.720941 
L 237.184024 251.360471 
L 237.779648 251.360471 
L 238.375271 251.488376 
L 238.970895 250.337224 
L 239.566518 251.360471 
L 240.162142 251.616282 
L 240.757766 251.232565 
L 241.353389 250.465129 
L 242.544636 251.104659 
L 243.14026 251.232565 
L 243.735883 250.976753 
L 244.331507 251.104659 
L 244.92713 250.720941 
L 245.522754 250.976753 
L 246.118378 251.360471 
L 246.714001 250.848847 
L 247.309625 250.976753 
L 247.905248 251.488376 
L 248.500872 251.232565 
L 249.096495 250.848847 
L 249.692119 251.232565 
L 250.287742 250.848847 
L 250.883366 250.976753 
L 251.47899 250.593035 
L 252.074613 251.232565 
L 252.670237 251.232565 
L 253.26586 251.360471 
L 254.457107 251.104659 
L 255.648354 250.081412 
L 256.243978 250.720941 
L 256.839601 250.720941 
L 257.435225 250.848847 
L 258.030849 251.488376 
L 258.626472 250.720941 
L 259.222096 250.465129 
L 259.817719 250.848847 
L 260.413343 251.488376 
L 261.008966 251.360471 
L 261.60459 250.848847 
L 262.200213 251.488376 
L 262.795837 250.976753 
L 263.391461 250.720941 
L 263.987084 251.104659 
L 264.582708 251.104659 
L 265.178331 250.848847 
L 265.773955 251.232565 
L 266.369578 250.848847 
L 266.965202 250.848847 
L 267.560825 250.720941 
L 268.752073 251.360471 
L 269.347696 251.488376 
L 269.94332 251.232565 
L 270.538943 251.360471 
L 271.134567 251.104659 
L 271.73019 251.872094 
L 272.325814 250.976753 
L 272.921437 251.488376 
L 273.517061 250.976753 
L 274.112685 250.720941 
L 274.708308 250.720941 
L 275.303932 251.360471 
L 275.899555 251.232565 
L 276.495179 251.360471 
L 277.090802 250.720941 
L 277.686426 250.976753 
L 278.282049 251.744188 
L 278.877673 251.488376 
L 279.473297 250.720941 
L 280.664544 251.232565 
L 281.260167 250.081412 
L 281.855791 251.232565 
L 282.451414 250.848847 
L 283.047038 251.232565 
L 283.642661 251.360471 
L 284.238285 250.337224 
L 284.833909 251.488376 
L 285.429532 250.593035 
L 286.025156 250.976753 
L 286.620779 250.593035 
L 287.216403 251.616282 
L 287.812026 251.744188 
L 288.40765 251.488376 
L 289.003273 250.976753 
L 289.598897 251.104659 
L 290.194521 250.976753 
L 290.790144 251.232565 
L 291.385768 251.360471 
L 291.981391 251.104659 
L 292.577015 250.337224 
L 293.172638 251.488376 
L 293.768262 250.848847 
L 294.363885 251.616282 
L 294.959509 250.720941 
L 295.555133 250.465129 
L 296.150756 251.360471 
L 296.74638 251.104659 
L 297.342003 251.488376 
L 297.937627 251.104659 
L 298.53325 250.976753 
L 299.128874 250.976753 
L 299.724497 251.488376 
L 300.320121 250.848847 
L 300.915745 250.720941 
L 301.511368 251.616282 
L 302.106992 250.976753 
L 302.702615 251.104659 
L 303.298239 250.720941 
L 303.893862 250.720941 
L 304.489486 250.976753 
L 305.085109 250.976753 
L 305.680733 250.081412 
L 306.276357 251.232565 
L 306.87198 251.488376 
L 307.467604 250.593035 
L 308.063227 250.209318 
L 309.254474 251.104659 
L 309.850098 250.465129 
L 310.445721 251.232565 
L 311.041345 251.360471 
L 311.636969 250.848847 
L 312.232592 250.976753 
L 312.828216 251.488376 
L 313.423839 250.976753 
L 314.019463 251.104659 
L 314.615086 250.720941 
L 315.21071 250.848847 
L 315.806333 250.848847 
L 316.401957 251.360471 
L 316.997581 250.976753 
L 317.593204 251.872094 
L 318.188828 250.720941 
L 318.784451 250.593035 
L 319.380075 250.976753 
L 319.975698 250.720941 
L 320.571322 250.337224 
L 321.166945 250.720941 
L 321.762569 251.360471 
L 322.358192 250.848847 
L 322.953816 250.848847 
L 323.54944 250.976753 
L 324.145063 251.488376 
L 324.740687 250.593035 
L 325.33631 250.720941 
L 325.931934 250.976753 
L 326.527557 250.337224 
L 327.123181 251.232565 
L 327.718804 250.976753 
L 328.314428 250.976753 
L 328.910052 250.720941 
L 329.505675 250.720941 
L 330.101299 251.616282 
L 330.696922 251.232565 
L 331.292546 250.465129 
L 331.888169 251.360471 
L 333.079416 251.360471 
L 333.67504 252 
L 334.270664 251.488376 
L 334.866287 251.232565 
L 335.461911 250.593035 
L 336.057534 251.104659 
L 336.653158 251.104659 
L 337.248781 251.360471 
L 337.844405 250.848847 
L 338.440028 251.616282 
L 339.035652 250.976753 
L 339.631276 250.976753 
L 340.226899 250.848847 
L 340.822523 250.848847 
L 341.418146 251.360471 
L 342.609393 251.360471 
L 343.205017 250.720941 
L 343.80064 250.593035 
L 344.396264 251.360471 
L 344.991888 250.337224 
L 345.587511 251.104659 
L 346.183135 250.848847 
L 346.778758 250.976753 
L 347.374382 250.848847 
L 347.970005 250.209318 
L 348.565629 250.848847 
L 349.161252 250.848847 
L 349.756876 250.976753 
L 350.3525 251.232565 
L 350.948123 250.465129 
L 351.543747 251.360471 
L 352.13937 250.593035 
L 352.734994 251.104659 
L 353.330617 250.465129 
L 353.926241 251.360471 
L 354.521864 251.232565 
L 355.117488 251.488376 
L 355.713112 251.616282 
L 356.904359 250.720941 
L 358.095606 251.360471 
L 358.691229 251.232565 
L 359.882476 250.720941 
L 360.4781 251.744188 
L 361.073724 250.720941 
L 361.669347 251.360471 
L 362.264971 250.720941 
L 362.860594 251.360471 
L 363.456218 250.976753 
L 364.051841 251.104659 
L 364.647465 251.360471 
L 365.243088 251.232565 
L 365.838712 251.232565 
L 366.434336 250.593035 
L 367.029959 250.720941 
L 367.625583 250.720941 
L 368.221206 251.616282 
L 368.81683 250.465129 
L 370.008077 251.232565 
L 370.6037 251.104659 
L 371.199324 251.104659 
L 371.794948 251.488376 
L 372.390571 251.232565 
L 372.986195 251.104659 
L 373.581818 250.081412 
L 373.581818 250.081412 
" clip-path="url(#pd7067cfcaa)" style="fill: none; stroke: #1f77b4; stroke-width: 1.5; stroke-linecap: square"/>
   </g>
   <g id="line2d_32">
    <path d="M 69.218182 223.604894 
L 69.813805 225.011859 
L 70.409429 224.116518 
L 71.005052 228.209506 
L 71.600676 224.116518 
L 72.1963 226.802541 
L 72.791923 225.139765 
L 73.387547 227.825788 
L 73.98317 224.756047 
L 74.578794 227.058353 
L 75.174417 225.395576 
L 75.770041 226.418824 
L 76.365664 223.604894 
L 76.961288 228.209506 
L 77.556912 222.197929 
L 78.152535 228.0816 
L 78.748159 227.569976 
L 79.343782 225.139765 
L 79.939406 226.290918 
L 80.535029 227.697882 
L 81.130653 222.453741 
L 81.726276 225.651388 
L 82.3219 223.988612 
L 82.917524 225.9072 
L 83.513147 226.546729 
L 84.108771 226.035106 
L 84.704394 227.058353 
L 85.300018 228.465318 
L 85.895641 226.290918 
L 86.491265 227.825788 
L 87.086888 226.674635 
L 87.682512 226.035106 
L 88.278136 221.814212 
L 88.873759 226.163012 
L 89.469383 226.035106 
L 90.065006 226.035106 
L 90.66063 227.058353 
L 91.256253 227.569976 
L 91.851877 225.395576 
L 92.4475 226.546729 
L 93.043124 228.337412 
L 93.638748 226.035106 
L 94.234371 224.756047 
L 94.829995 221.5584 
L 95.425618 222.325835 
L 96.021242 226.163012 
L 96.616865 226.418824 
L 97.212489 226.546729 
L 97.808112 222.965365 
L 98.403736 227.697882 
L 98.99936 225.011859 
L 99.594983 224.883953 
L 100.78623 224.116518 
L 101.381854 223.221176 
L 101.977477 222.070024 
L 102.573101 225.651388 
L 103.168724 225.139765 
L 103.764348 229.104847 
L 104.359972 225.011859 
L 104.955595 225.395576 
L 105.551219 223.093271 
L 106.146842 225.651388 
L 106.742466 222.837459 
L 107.338089 223.604894 
L 107.933713 227.314165 
L 108.529336 226.290918 
L 109.12496 224.372329 
L 109.720584 222.965365 
L 110.316207 226.418824 
L 110.911831 225.651388 
L 111.507454 223.221176 
L 112.103078 225.395576 
L 112.698701 224.756047 
L 113.294325 226.546729 
L 113.889948 226.802541 
L 114.485572 224.500235 
L 115.081196 225.523482 
L 115.676819 223.7328 
L 116.272443 225.011859 
L 116.868066 225.523482 
L 117.46369 228.0816 
L 118.059313 224.116518 
L 118.654937 227.314165 
L 119.25056 223.860706 
L 119.846184 224.116518 
L 120.441808 224.883953 
L 121.633055 224.116518 
L 122.228678 227.186259 
L 122.824302 226.674635 
L 123.419925 226.546729 
L 124.015549 224.244424 
L 124.611172 224.372329 
L 125.206796 226.418824 
L 125.802419 221.814212 
L 126.398043 225.395576 
L 126.993667 225.651388 
L 127.58929 227.569976 
L 128.184914 225.651388 
L 128.780537 225.267671 
L 129.376161 225.395576 
L 129.971784 224.883953 
L 130.567408 225.9072 
L 131.163031 223.476988 
L 131.758655 225.651388 
L 132.354279 222.581647 
L 132.949902 226.802541 
L 133.545526 223.860706 
L 134.141149 224.628141 
L 134.736773 225.139765 
L 135.332396 226.802541 
L 135.92802 225.9072 
L 136.523643 228.721129 
L 137.714891 222.197929 
L 138.906138 227.697882 
L 139.501761 226.674635 
L 140.097385 224.372329 
L 140.693008 226.674635 
L 141.288632 224.628141 
L 141.884255 227.569976 
L 142.479879 223.604894 
L 143.075503 225.011859 
L 143.671126 226.035106 
L 144.862373 226.290918 
L 145.457997 223.860706 
L 146.05362 230.000188 
L 146.649244 224.756047 
L 148.436115 226.930447 
L 149.031738 222.197929 
L 149.627362 225.011859 
L 150.222985 226.290918 
L 150.818609 224.372329 
L 151.414232 224.244424 
L 152.009856 226.035106 
L 152.605479 224.116518 
L 153.201103 229.360659 
L 153.796727 229.744376 
L 154.39235 225.267671 
L 154.987974 226.930447 
L 155.583597 226.674635 
L 156.179221 226.802541 
L 156.774844 224.372329 
L 157.370468 226.290918 
L 157.966091 226.035106 
L 158.561715 224.372329 
L 159.157339 226.035106 
L 159.752962 228.976941 
L 160.348586 228.0816 
L 160.944209 225.139765 
L 161.539833 227.825788 
L 162.135456 223.093271 
L 162.73108 225.395576 
L 163.326703 224.500235 
L 163.922327 224.116518 
L 164.517951 226.418824 
L 165.113574 222.581647 
L 165.709198 226.674635 
L 166.304821 221.174682 
L 166.900445 222.325835 
L 167.496068 226.418824 
L 168.091692 223.476988 
L 168.687315 224.628141 
L 169.282939 225.139765 
L 169.878563 222.709553 
L 170.474186 224.116518 
L 171.06981 224.372329 
L 172.261057 227.697882 
L 172.85668 223.476988 
L 173.452304 226.930447 
L 174.047927 223.988612 
L 174.643551 228.0816 
L 175.239175 227.058353 
L 175.834798 226.418824 
L 176.430422 224.756047 
L 177.026045 223.476988 
L 177.621669 227.314165 
L 178.217292 225.395576 
L 178.812916 224.628141 
L 179.408539 223.476988 
L 180.004163 225.523482 
L 180.599787 225.523482 
L 181.19541 225.011859 
L 181.791034 227.186259 
L 182.386657 227.186259 
L 182.982281 228.337412 
L 183.577904 224.372329 
L 184.173528 222.965365 
L 184.769151 224.628141 
L 185.364775 222.581647 
L 185.960399 221.686306 
L 186.556022 226.802541 
L 187.151646 224.116518 
L 187.747269 227.825788 
L 188.938516 223.604894 
L 189.53414 226.418824 
L 190.129763 225.651388 
L 190.725387 222.837459 
L 191.32101 226.546729 
L 191.916634 221.174682 
L 192.512258 222.709553 
L 193.107881 227.186259 
L 193.703505 224.628141 
L 194.299128 228.337412 
L 194.894752 223.7328 
L 195.490375 228.721129 
L 196.085999 225.011859 
L 196.681622 224.244424 
L 197.277246 224.756047 
L 197.87287 225.011859 
L 199.064117 227.314165 
L 199.65974 226.163012 
L 200.255364 224.116518 
L 200.850987 219.384 
L 202.042234 225.139765 
L 202.637858 226.546729 
L 203.233482 228.976941 
L 203.829105 223.860706 
L 205.020352 228.0816 
L 205.615976 226.163012 
L 206.211599 222.837459 
L 206.807223 222.965365 
L 207.402846 222.325835 
L 207.99847 226.546729 
L 208.594094 225.9072 
L 209.189717 226.546729 
L 209.785341 224.500235 
L 210.380964 224.628141 
L 210.976588 225.139765 
L 211.572211 222.709553 
L 212.167835 225.779294 
L 212.763458 223.093271 
L 213.359082 215.802635 
L 214.550329 171.675106 
L 215.145953 173.849506 
L 216.3372 210.6864 
L 216.932823 221.046776 
L 217.528447 226.546729 
L 218.12407 221.5584 
L 219.315318 227.314165 
L 219.910941 224.756047 
L 220.506565 227.442071 
L 221.102188 224.116518 
L 221.697812 226.418824 
L 222.293435 226.930447 
L 222.889059 223.476988 
L 223.484682 225.139765 
L 224.080306 222.197929 
L 224.67593 222.453741 
L 225.271553 222.837459 
L 225.867177 228.0816 
L 226.4628 222.709553 
L 227.058424 225.011859 
L 227.654047 226.418824 
L 228.249671 224.756047 
L 228.845294 227.697882 
L 229.440918 227.442071 
L 230.036542 224.500235 
L 230.632165 224.500235 
L 231.227789 228.0816 
L 231.823412 222.709553 
L 232.419036 225.395576 
L 233.014659 224.628141 
L 233.610283 227.186259 
L 234.205906 226.163012 
L 234.80153 223.988612 
L 235.397154 224.244424 
L 235.992777 226.674635 
L 236.588401 227.442071 
L 237.184024 225.139765 
L 237.779648 228.721129 
L 239.566518 222.070024 
L 240.162142 223.7328 
L 240.757766 222.709553 
L 241.353389 224.500235 
L 241.949013 225.523482 
L 242.544636 222.709553 
L 243.14026 228.465318 
L 243.735883 226.290918 
L 244.331507 225.395576 
L 244.92713 223.604894 
L 245.522754 225.523482 
L 246.118378 226.930447 
L 246.714001 222.197929 
L 247.309625 226.163012 
L 247.905248 225.9072 
L 248.500872 224.756047 
L 249.096495 225.139765 
L 249.692119 226.290918 
L 250.287742 222.453741 
L 250.883366 224.628141 
L 251.47899 221.430494 
L 252.074613 229.616471 
L 252.670237 225.523482 
L 253.26586 222.837459 
L 253.861484 226.290918 
L 254.457107 221.5584 
L 255.052731 226.674635 
L 255.648354 222.837459 
L 256.243978 224.883953 
L 256.839601 225.395576 
L 257.435225 224.244424 
L 258.626472 226.930447 
L 259.222096 223.860706 
L 259.817719 228.209506 
L 260.413343 224.628141 
L 261.008966 224.883953 
L 261.60459 226.418824 
L 262.200213 226.163012 
L 262.795837 227.442071 
L 263.391461 225.651388 
L 263.987084 222.709553 
L 264.582708 228.337412 
L 265.178331 220.918871 
L 265.773955 222.837459 
L 266.369578 225.139765 
L 266.965202 223.988612 
L 267.560825 227.058353 
L 268.156449 224.883953 
L 268.752073 226.802541 
L 269.347696 222.325835 
L 269.94332 224.628141 
L 270.538943 225.267671 
L 271.134567 226.674635 
L 271.73019 224.244424 
L 272.325814 229.872282 
L 272.921437 223.349082 
L 273.517061 226.035106 
L 274.112685 227.825788 
L 274.708308 227.442071 
L 275.303932 224.883953 
L 275.899555 222.965365 
L 276.495179 228.337412 
L 277.090802 228.976941 
L 277.686426 224.883953 
L 278.282049 226.802541 
L 278.877673 222.837459 
L 279.473297 223.093271 
L 280.06892 224.372329 
L 280.664544 228.337412 
L 281.260167 222.197929 
L 281.855791 226.418824 
L 282.451414 224.756047 
L 283.047038 221.686306 
L 283.642661 225.139765 
L 284.238285 226.930447 
L 284.833909 225.9072 
L 285.429532 223.093271 
L 286.025156 226.163012 
L 286.620779 224.883953 
L 287.216403 224.628141 
L 287.812026 226.418824 
L 288.40765 228.593224 
L 289.003273 228.465318 
L 289.598897 227.058353 
L 290.194521 221.430494 
L 291.385768 225.267671 
L 291.981391 225.267671 
L 292.577015 223.860706 
L 293.172638 224.883953 
L 293.768262 224.883953 
L 294.363885 224.116518 
L 294.959509 223.988612 
L 295.555133 225.267671 
L 296.150756 221.686306 
L 296.74638 224.500235 
L 297.342003 225.651388 
L 297.937627 225.395576 
L 298.53325 225.9072 
L 299.128874 224.883953 
L 299.724497 227.825788 
L 300.320121 223.349082 
L 300.915745 226.290918 
L 301.511368 223.476988 
L 302.106992 228.721129 
L 302.702615 226.035106 
L 303.298239 225.139765 
L 303.893862 225.9072 
L 304.489486 225.139765 
L 305.085109 226.290918 
L 305.680733 223.476988 
L 306.276357 226.546729 
L 306.87198 225.267671 
L 307.467604 224.883953 
L 308.063227 224.116518 
L 308.658851 227.825788 
L 309.254474 227.058353 
L 309.850098 223.093271 
L 310.445721 229.232753 
L 311.041345 225.267671 
L 311.636969 226.290918 
L 312.232592 224.116518 
L 312.828216 224.628141 
L 313.423839 223.349082 
L 314.019463 223.349082 
L 314.615086 224.883953 
L 315.21071 226.930447 
L 315.806333 225.395576 
L 316.401957 225.267671 
L 316.997581 224.883953 
L 317.593204 227.697882 
L 318.188828 220.918871 
L 318.784451 226.674635 
L 319.380075 224.756047 
L 319.975698 225.395576 
L 321.166945 223.988612 
L 321.762569 224.883953 
L 322.358192 225.523482 
L 322.953816 224.628141 
L 323.54944 225.011859 
L 324.145063 227.058353 
L 324.740687 226.930447 
L 325.33631 226.674635 
L 325.931934 224.883953 
L 326.527557 228.209506 
L 327.123181 225.011859 
L 327.718804 227.569976 
L 328.314428 228.593224 
L 328.910052 224.756047 
L 329.505675 223.093271 
L 330.101299 223.093271 
L 330.696922 225.523482 
L 331.292546 223.7328 
L 331.888169 225.395576 
L 332.483793 225.651388 
L 333.079416 227.186259 
L 333.67504 225.139765 
L 334.270664 224.628141 
L 334.866287 224.756047 
L 335.461911 227.186259 
L 336.057534 227.697882 
L 336.653158 226.290918 
L 337.248781 222.709553 
L 337.844405 226.930447 
L 338.440028 227.314165 
L 339.035652 222.837459 
L 339.631276 228.593224 
L 340.226899 225.523482 
L 340.822523 226.546729 
L 341.418146 225.267671 
L 342.01377 225.523482 
L 343.205017 226.546729 
L 343.80064 222.709553 
L 344.396264 230.511812 
L 344.991888 226.930447 
L 345.587511 225.9072 
L 346.183135 226.163012 
L 346.778758 225.9072 
L 347.374382 227.058353 
L 347.970005 222.197929 
L 348.565629 224.500235 
L 349.161252 225.779294 
L 349.756876 225.139765 
L 350.3525 227.058353 
L 350.948123 223.7328 
L 351.543747 226.163012 
L 352.13937 226.802541 
L 352.734994 225.9072 
L 353.330617 221.686306 
L 353.926241 225.651388 
L 354.521864 226.546729 
L 355.117488 223.604894 
L 355.713112 226.163012 
L 356.308735 225.395576 
L 356.904359 223.476988 
L 357.499982 227.442071 
L 358.095606 223.860706 
L 358.691229 227.058353 
L 359.286853 225.267671 
L 359.882476 225.9072 
L 360.4781 224.372329 
L 361.073724 224.883953 
L 361.669347 226.418824 
L 362.264971 227.442071 
L 362.860594 226.802541 
L 363.456218 222.453741 
L 364.051841 227.569976 
L 364.647465 224.756047 
L 365.243088 224.372329 
L 365.838712 228.0816 
L 366.434336 222.965365 
L 367.029959 225.9072 
L 367.625583 226.674635 
L 368.221206 223.988612 
L 368.81683 223.604894 
L 369.412453 225.267671 
L 370.008077 225.9072 
L 370.6037 222.070024 
L 371.199324 226.290918 
L 371.794948 224.372329 
L 372.390571 227.442071 
L 372.986195 226.418824 
L 373.581818 223.221176 
L 373.581818 223.221176 
" clip-path="url(#pd7067cfcaa)" style="fill: none; stroke: #ff7f0e; stroke-width: 1.5; stroke-linecap: square"/>
   </g>
   <g id="line2d_33">
    <path d="M 69.218182 237.930353 
L 69.813805 237.290824 
L 71.005052 238.314071 
L 71.600676 236.267576 
L 72.1963 238.825694 
L 73.387547 235.883859 
L 73.98317 237.290824 
L 74.578794 236.523388 
L 75.174417 236.7792 
L 75.770041 237.290824 
L 76.365664 234.988518 
L 77.556912 238.058259 
L 78.152535 237.418729 
L 78.748159 238.186165 
L 79.343782 234.093176 
L 79.939406 237.802447 
L 80.535029 235.244329 
L 81.130653 238.825694 
L 81.726276 240.104753 
L 82.3219 234.988518 
L 82.917524 235.244329 
L 83.513147 236.651294 
L 84.108771 235.372235 
L 84.704394 238.441976 
L 85.300018 238.9536 
L 85.895641 237.162918 
L 86.491265 238.314071 
L 87.086888 238.697788 
L 87.682512 238.314071 
L 88.278136 238.186165 
L 88.873759 238.825694 
L 89.469383 238.569882 
L 90.065006 237.930353 
L 90.66063 236.395482 
L 91.256253 236.907106 
L 91.851877 238.058259 
L 92.4475 239.465224 
L 93.043124 238.186165 
L 93.638748 236.267576 
L 94.234371 239.081506 
L 95.425618 235.883859 
L 96.021242 238.441976 
L 96.616865 238.441976 
L 97.212489 235.883859 
L 97.808112 238.825694 
L 98.403736 239.721035 
L 98.99936 236.651294 
L 99.594983 238.441976 
L 100.190607 237.418729 
L 100.78623 239.209412 
L 101.381854 236.907106 
L 101.977477 239.976847 
L 102.573101 237.290824 
L 103.764348 238.441976 
L 104.359972 238.314071 
L 104.955595 236.139671 
L 105.551219 235.372235 
L 106.146842 238.9536 
L 106.742466 236.267576 
L 107.338089 237.802447 
L 108.529336 238.697788 
L 109.12496 235.372235 
L 110.316207 238.569882 
L 110.911831 239.465224 
L 111.507454 237.162918 
L 112.103078 237.162918 
L 112.698701 236.267576 
L 113.294325 238.441976 
L 113.889948 239.337318 
L 114.485572 236.523388 
L 115.081196 237.546635 
L 115.676819 236.267576 
L 116.272443 238.058259 
L 117.46369 236.7792 
L 118.059313 239.593129 
L 118.654937 237.162918 
L 119.25056 235.755953 
L 119.846184 236.139671 
L 120.441808 238.9536 
L 121.037431 239.721035 
L 121.633055 235.628047 
L 122.228678 236.011765 
L 122.824302 236.7792 
L 123.419925 238.314071 
L 124.015549 238.569882 
L 124.611172 239.721035 
L 125.206796 238.825694 
L 125.802419 236.907106 
L 126.398043 237.290824 
L 126.993667 238.314071 
L 127.58929 236.267576 
L 128.184914 237.546635 
L 128.780537 237.674541 
L 129.376161 236.395482 
L 129.971784 238.441976 
L 130.567408 239.209412 
L 131.163031 238.441976 
L 131.758655 239.465224 
L 132.354279 237.162918 
L 132.949902 236.267576 
L 133.545526 236.011765 
L 134.141149 235.883859 
L 134.736773 237.290824 
L 135.332396 240.232659 
L 135.92802 240.488471 
L 136.523643 235.244329 
L 137.119267 235.500141 
L 137.714891 236.651294 
L 138.310514 238.825694 
L 138.906138 235.755953 
L 139.501761 238.697788 
L 140.097385 238.697788 
L 141.288632 236.7792 
L 141.884255 240.616376 
L 142.479879 238.186165 
L 143.075503 238.058259 
L 143.671126 237.802447 
L 144.26675 235.628047 
L 144.862373 237.930353 
L 145.457997 239.721035 
L 146.05362 237.162918 
L 146.649244 236.651294 
L 147.244867 237.290824 
L 147.840491 237.546635 
L 148.436115 236.395482 
L 149.031738 238.186165 
L 149.627362 236.7792 
L 150.222985 237.546635 
L 150.818609 237.802447 
L 151.414232 238.697788 
L 152.009856 236.907106 
L 152.605479 237.418729 
L 153.201103 236.651294 
L 153.796727 239.465224 
L 154.987974 233.069929 
L 155.583597 237.290824 
L 156.179221 237.162918 
L 156.774844 237.546635 
L 157.370468 236.651294 
L 157.966091 238.441976 
L 158.561715 237.674541 
L 159.157339 239.081506 
L 160.348586 237.674541 
L 160.944209 235.116424 
L 161.539833 234.221082 
L 162.135456 237.162918 
L 162.73108 239.209412 
L 163.326703 235.755953 
L 163.922327 239.593129 
L 164.517951 237.674541 
L 165.113574 238.058259 
L 165.709198 236.267576 
L 166.304821 236.7792 
L 166.900445 236.523388 
L 167.496068 234.093176 
L 168.091692 236.011765 
L 168.687315 236.7792 
L 169.282939 240.232659 
L 169.878563 238.9536 
L 170.474186 236.523388 
L 171.06981 237.546635 
L 171.665433 234.476894 
L 172.261057 234.732706 
L 172.85668 237.546635 
L 173.452304 237.162918 
L 174.047927 239.721035 
L 174.643551 237.418729 
L 175.239175 238.058259 
L 175.834798 237.290824 
L 176.430422 239.081506 
L 177.026045 237.930353 
L 177.621669 241.895435 
L 178.217292 237.290824 
L 178.812916 238.825694 
L 179.408539 238.186165 
L 180.004163 238.441976 
L 180.599787 239.337318 
L 181.19541 236.523388 
L 181.791034 238.314071 
L 182.386657 236.011765 
L 182.982281 236.7792 
L 183.577904 238.314071 
L 184.173528 240.488471 
L 184.769151 236.907106 
L 186.556022 238.441976 
L 187.151646 237.930353 
L 187.747269 238.186165 
L 188.342893 240.488471 
L 188.938516 235.500141 
L 189.53414 235.372235 
L 190.129763 237.162918 
L 190.725387 238.441976 
L 191.32101 232.046682 
L 191.916634 221.942118 
L 192.512258 204.546918 
L 193.107881 198.663247 
L 193.703505 209.791059 
L 194.299128 223.988612 
L 194.894752 234.860612 
L 195.490375 237.162918 
L 196.085999 237.802447 
L 196.681622 236.139671 
L 197.277246 236.907106 
L 197.87287 239.465224 
L 198.468493 238.441976 
L 199.064117 238.9536 
L 199.65974 234.476894 
L 200.255364 236.267576 
L 200.850987 236.139671 
L 201.446611 237.674541 
L 202.042234 235.755953 
L 202.637858 238.186165 
L 203.233482 239.593129 
L 203.829105 235.500141 
L 204.424729 238.569882 
L 205.020352 237.418729 
L 205.615976 237.674541 
L 206.211599 238.569882 
L 206.807223 238.058259 
L 207.402846 238.697788 
L 207.99847 238.697788 
L 208.594094 236.267576 
L 209.189717 239.721035 
L 209.785341 237.162918 
L 210.380964 236.267576 
L 210.976588 236.907106 
L 211.572211 236.011765 
L 212.167835 238.058259 
L 212.763458 237.418729 
L 213.359082 239.337318 
L 213.954706 237.546635 
L 214.550329 236.523388 
L 215.145953 236.267576 
L 216.3372 238.697788 
L 216.932823 234.988518 
L 217.528447 238.186165 
L 218.12407 237.290824 
L 218.719694 236.7792 
L 219.315318 237.802447 
L 219.910941 240.616376 
L 220.506565 237.418729 
L 221.102188 238.569882 
L 221.697812 237.290824 
L 222.293435 238.569882 
L 222.889059 238.186165 
L 223.484682 237.546635 
L 224.080306 238.186165 
L 224.67593 235.116424 
L 225.271553 238.697788 
L 225.867177 237.418729 
L 226.4628 235.755953 
L 227.654047 240.616376 
L 228.249671 240.872188 
L 228.845294 236.651294 
L 229.440918 235.372235 
L 230.036542 239.976847 
L 230.632165 236.523388 
L 231.227789 236.395482 
L 231.823412 235.500141 
L 232.419036 236.267576 
L 233.014659 236.011765 
L 233.610283 237.930353 
L 234.205906 239.337318 
L 234.80153 234.988518 
L 235.992777 239.465224 
L 236.588401 238.9536 
L 237.184024 237.546635 
L 237.779648 234.860612 
L 238.375271 237.290824 
L 238.970895 237.035012 
L 240.162142 238.697788 
L 240.757766 239.976847 
L 241.353389 235.244329 
L 241.949013 236.651294 
L 242.544636 236.7792 
L 243.14026 236.651294 
L 243.735883 234.860612 
L 244.331507 235.372235 
L 244.92713 237.674541 
L 245.522754 238.569882 
L 246.118378 237.162918 
L 246.714001 237.290824 
L 247.309625 236.395482 
L 247.905248 237.290824 
L 248.500872 237.930353 
L 249.096495 238.825694 
L 249.692119 235.628047 
L 250.883366 237.674541 
L 251.47899 237.418729 
L 252.074613 238.058259 
L 252.670237 234.732706 
L 253.861484 238.9536 
L 254.457107 241.767529 
L 255.052731 237.162918 
L 255.648354 238.697788 
L 256.243978 239.337318 
L 256.839601 239.721035 
L 257.435225 236.907106 
L 258.030849 237.546635 
L 258.626472 235.244329 
L 259.222096 239.593129 
L 259.817719 237.930353 
L 260.413343 238.441976 
L 261.008966 237.674541 
L 261.60459 237.802447 
L 262.200213 234.348988 
L 263.391461 239.848941 
L 263.987084 238.186165 
L 264.582708 238.058259 
L 265.178331 233.709459 
L 265.773955 238.569882 
L 266.369578 237.162918 
L 266.965202 236.7792 
L 267.560825 237.546635 
L 268.156449 237.418729 
L 268.752073 238.825694 
L 269.347696 238.314071 
L 269.94332 240.360565 
L 270.538943 237.418729 
L 271.134567 236.139671 
L 271.73019 237.546635 
L 272.325814 237.546635 
L 272.921437 241.000094 
L 273.517061 237.930353 
L 274.112685 236.395482 
L 274.708308 236.267576 
L 275.303932 235.883859 
L 275.899555 234.221082 
L 276.495179 237.290824 
L 277.090802 237.674541 
L 277.686426 236.907106 
L 278.282049 237.290824 
L 278.877673 239.593129 
L 279.473297 237.930353 
L 280.06892 238.441976 
L 280.664544 237.802447 
L 281.260167 237.930353 
L 281.855791 237.802447 
L 282.451414 237.418729 
L 283.047038 236.395482 
L 283.642661 239.081506 
L 284.238285 237.930353 
L 284.833909 233.069929 
L 285.429532 237.802447 
L 286.025156 237.162918 
L 286.620779 237.418729 
L 287.216403 235.372235 
L 287.812026 237.674541 
L 288.40765 239.337318 
L 289.003273 237.546635 
L 289.598897 238.825694 
L 290.194521 236.523388 
L 290.790144 237.802447 
L 291.385768 237.035012 
L 291.981391 236.651294 
L 292.577015 238.314071 
L 293.172638 234.732706 
L 293.768262 237.546635 
L 294.363885 238.058259 
L 294.959509 239.209412 
L 295.555133 238.825694 
L 296.150756 238.058259 
L 296.74638 237.546635 
L 297.342003 238.569882 
L 297.937627 237.418729 
L 298.53325 237.418729 
L 299.128874 238.9536 
L 299.724497 236.907106 
L 300.320121 238.9536 
L 300.915745 237.418729 
L 301.511368 239.081506 
L 302.106992 236.267576 
L 302.702615 236.907106 
L 303.298239 238.697788 
L 303.893862 238.441976 
L 304.489486 237.035012 
L 305.085109 236.7792 
L 306.276357 238.697788 
L 306.87198 236.139671 
L 307.467604 236.7792 
L 308.063227 238.697788 
L 308.658851 237.290824 
L 309.254474 236.7792 
L 309.850098 237.802447 
L 310.445721 236.267576 
L 311.041345 236.907106 
L 311.636969 237.035012 
L 312.232592 234.732706 
L 313.423839 237.290824 
L 314.019463 238.569882 
L 314.615086 235.883859 
L 315.21071 236.395482 
L 315.806333 236.523388 
L 316.401957 238.569882 
L 316.997581 239.209412 
L 317.593204 240.744282 
L 318.784451 233.325741 
L 319.380075 235.500141 
L 319.975698 235.755953 
L 320.571322 236.7792 
L 321.166945 237.035012 
L 321.762569 235.244329 
L 322.358192 238.058259 
L 322.953816 237.802447 
L 323.54944 235.244329 
L 324.145063 238.697788 
L 324.740687 235.628047 
L 325.33631 238.825694 
L 325.931934 235.372235 
L 326.527557 237.930353 
L 327.123181 236.651294 
L 327.718804 236.7792 
L 328.314428 237.930353 
L 328.910052 234.860612 
L 329.505675 237.802447 
L 330.101299 239.465224 
L 330.696922 236.651294 
L 331.292546 236.651294 
L 331.888169 237.418729 
L 332.483793 235.500141 
L 333.079416 236.395482 
L 333.67504 236.011765 
L 334.270664 236.651294 
L 335.461911 241.000094 
L 336.057534 236.7792 
L 336.653158 236.651294 
L 337.248781 237.930353 
L 337.844405 236.011765 
L 338.440028 237.674541 
L 339.035652 239.848941 
L 340.226899 235.628047 
L 340.822523 236.7792 
L 341.418146 234.6048 
L 342.01377 239.209412 
L 342.609393 236.7792 
L 343.205017 236.907106 
L 343.80064 239.209412 
L 344.396264 237.290824 
L 344.991888 238.441976 
L 345.587511 235.883859 
L 346.183135 237.162918 
L 346.778758 239.081506 
L 347.374382 240.104753 
L 347.970005 239.976847 
L 348.565629 238.186165 
L 349.161252 239.465224 
L 349.756876 237.546635 
L 350.3525 236.011765 
L 350.948123 236.139671 
L 351.543747 238.825694 
L 352.13937 239.209412 
L 352.734994 237.035012 
L 353.330617 239.081506 
L 353.926241 236.651294 
L 354.521864 238.569882 
L 355.117488 238.441976 
L 355.713112 237.546635 
L 356.308735 236.267576 
L 356.904359 239.848941 
L 357.499982 238.058259 
L 358.095606 237.802447 
L 358.691229 238.441976 
L 359.286853 238.186165 
L 359.882476 235.883859 
L 360.4781 234.093176 
L 361.073724 237.930353 
L 361.669347 237.290824 
L 362.264971 238.058259 
L 362.860594 237.162918 
L 363.456218 237.418729 
L 364.051841 237.035012 
L 364.647465 235.755953 
L 365.243088 238.314071 
L 365.838712 234.860612 
L 366.434336 235.755953 
L 367.029959 238.186165 
L 367.625583 236.267576 
L 368.221206 235.628047 
L 368.81683 238.186165 
L 369.412453 236.907106 
L 370.008077 238.186165 
L 370.6037 237.418729 
L 371.199324 235.755953 
L 371.794948 240.104753 
L 372.390571 237.546635 
L 372.986195 240.488471 
L 373.581818 239.209412 
L 373.581818 239.209412 
" clip-path="url(#pd7067cfcaa)" style="fill: none; stroke: #2ca02c; stroke-width: 1.5; stroke-linecap: square"/>
   </g>
   <g id="patch_3">
    <path d="M 54 252 
L 54 34.56 
" style="fill: none; stroke: #000000; stroke-width: 0.8; stroke-linejoin: miter; stroke-linecap: square"/>
   </g>
   <g id="patch_4">
    <path d="M 388.8 252 
L 388.8 34.56 
" style="fill: none; stroke: #000000; stroke-width: 0.8; stroke-linejoin: miter; stroke-linecap: square"/>
   </g>
   <g id="patch_5">
    <path d="M 54 252 
L 388.8 252 
" style="fill: none; stroke: #000000; stroke-width: 0.8; stroke-linejoin: miter; stroke-linecap: square"/>
   </g>
   <g id="patch_6">
    <path d="M 54 34.56 
L 388.8 34.56 
" style="fill: none; stroke: #000000; stroke-width: 0.8; stroke-linejoin: miter; stroke-linecap: square"/>
   </g>
   <g id="text_18">
    <!-- Label 16 -->
    <g transform="translate(195.670312 28.56)scale(0.12 -0.12)">
     <defs>
      <path id="DejaVuSans-4c" d="M 628 4666 
L 1259 4666 
L 1259 531 
L 3531 531 
L 3531 0 
L 628 0 
L 628 4666 
z
" transform="scale(0.015625)"/>
      <path id="DejaVuSans-61" d="M 2194 1759 
Q 1497 1759 1228 1600 
Q 959 1441 959 1056 
Q 959 750 1161 570 
Q 1363 391 1709 391 
Q 2188 391 2477 730 
Q 2766 1069 2766 1631 
L 2766 1759 
L 2194 1759 
z
M 3341 1997 
L 3341 0 
L 2766 0 
L 2766 531 
Q 2569 213 2275 61 
Q 1981 -91 1556 -91 
Q 1019 -91 701 211 
Q 384 513 384 1019 
Q 384 1609 779 1909 
Q 1175 2209 1959 2209 
L 2766 2209 
L 2766 2266 
Q 2766 2663 2505 2880 
Q 2244 3097 1772 3097 
Q 1472 3097 1187 3025 
Q 903 2953 641 2809 
L 641 3341 
Q 956 3463 1253 3523 
Q 1550 3584 1831 3584 
Q 2591 3584 2966 3190 
Q 3341 2797 3341 1997 
z
" transform="scale(0.015625)"/>
      <path id="DejaVuSans-65" d="M 3597 1894 
L 3597 1613 
L 953 1613 
Q 991 1019 1311 708 
Q 1631 397 2203 397 
Q 2534 397 2845 478 
Q 3156 559 3463 722 
L 3463 178 
Q 3153 47 2828 -22 
Q 2503 -91 2169 -91 
Q 1331 -91 842 396 
Q 353 884 353 1716 
Q 353 2575 817 3079 
Q 1281 3584 2069 3584 
Q 2775 3584 3186 3129 
Q 3597 2675 3597 1894 
z
M 3022 2063 
Q 3016 2534 2758 2815 
Q 2500 3097 2075 3097 
Q 1594 3097 1305 2825 
Q 1016 2553 972 2059 
L 3022 2063 
z
" transform="scale(0.015625)"/>
      <path id="DejaVuSans-6c" d="M 603 4863 
L 1178 4863 
L 1178 0 
L 603 0 
L 603 4863 
z
" transform="scale(0.015625)"/>
      <path id="DejaVuSans-20" transform="scale(0.015625)"/>
     </defs>
     <use xlink:href="#DejaVuSans-4c"/>
     <use xlink:href="#DejaVuSans-61" x="55.712891"/>
     <use xlink:href="#DejaVuSans-62" x="116.992188"/>
     <use xlink:href="#DejaVuSans-65" x="180.46875"/>
     <use xlink:href="#DejaVuSans-6c" x="241.992188"/>
     <use xlink:href="#DejaVuSans-20" x="269.775391"/>
     <use xlink:href="#DejaVuSans-31" x="301.5625"/>
     <use xlink:href="#DejaVuSans-36" x="365.185547"/>
    </g>
   </g>
   <g id="legend_1">
    <g id="patch_7">
     <path d="M 309.070312 101.2725 
L 381.8 101.2725 
Q 383.8 101.2725 383.8 99.2725 
L 383.8 41.56 
Q 383.8 39.56 381.8 39.56 
L 309.070312 39.56 
Q 307.070312 39.56 307.070312 41.56 
L 307.070312 99.2725 
Q 307.070312 101.2725 309.070312 101.2725 
z
" style="fill: #ffffff; opacity: 0.8; stroke: #cccccc; stroke-linejoin: miter"/>
    </g>
    <g id="text_19">
     <!-- Trace number -->
     <g transform="translate(311.070312 51.158437)scale(0.1 -0.1)">
      <defs>
       <path id="DejaVuSans-54" d="M -19 4666 
L 3928 4666 
L 3928 4134 
L 2272 4134 
L 2272 0 
L 1638 0 
L 1638 4134 
L -19 4134 
L -19 4666 
z
" transform="scale(0.015625)"/>
       <path id="DejaVuSans-72" d="M 2631 2963 
Q 2534 3019 2420 3045 
Q 2306 3072 2169 3072 
Q 1681 3072 1420 2755 
Q 1159 2438 1159 1844 
L 1159 0 
L 581 0 
L 581 3500 
L 1159 3500 
L 1159 2956 
Q 1341 3275 1631 3429 
Q 1922 3584 2338 3584 
Q 2397 3584 2469 3576 
Q 2541 3569 2628 3553 
L 2631 2963 
z
" transform="scale(0.015625)"/>
       <path id="DejaVuSans-6d" d="M 3328 2828 
Q 3544 3216 3844 3400 
Q 4144 3584 4550 3584 
Q 5097 3584 5394 3201 
Q 5691 2819 5691 2113 
L 5691 0 
L 5113 0 
L 5113 2094 
Q 5113 2597 4934 2840 
Q 4756 3084 4391 3084 
Q 3944 3084 3684 2787 
Q 3425 2491 3425 1978 
L 3425 0 
L 2847 0 
L 2847 2094 
Q 2847 2600 2669 2842 
Q 2491 3084 2119 3084 
Q 1678 3084 1418 2786 
Q 1159 2488 1159 1978 
L 1159 0 
L 581 0 
L 581 3500 
L 1159 3500 
L 1159 2956 
Q 1356 3278 1631 3431 
Q 1906 3584 2284 3584 
Q 2666 3584 2933 3390 
Q 3200 3197 3328 2828 
z
" transform="scale(0.015625)"/>
      </defs>
      <use xlink:href="#DejaVuSans-54"/>
      <use xlink:href="#DejaVuSans-72" x="46.333984"/>
      <use xlink:href="#DejaVuSans-61" x="87.447266"/>
      <use xlink:href="#DejaVuSans-63" x="148.726562"/>
      <use xlink:href="#DejaVuSans-65" x="203.707031"/>
      <use xlink:href="#DejaVuSans-20" x="265.230469"/>
      <use xlink:href="#DejaVuSans-6e" x="297.017578"/>
      <use xlink:href="#DejaVuSans-75" x="360.396484"/>
      <use xlink:href="#DejaVuSans-6d" x="423.775391"/>
      <use xlink:href="#DejaVuSans-62" x="521.1875"/>
      <use xlink:href="#DejaVuSans-65" x="584.664062"/>
      <use xlink:href="#DejaVuSans-72" x="646.1875"/>
     </g>
    </g>
    <g id="line2d_34">
     <path d="M 325.072656 62.336562 
L 335.072656 62.336562 
L 345.072656 62.336562 
" style="fill: none; stroke: #1f77b4; stroke-width: 1.5; stroke-linecap: square"/>
    </g>
    <g id="text_20">
     <!-- 11 -->
     <g transform="translate(353.072656 65.836562)scale(0.1 -0.1)">
      <use xlink:href="#DejaVuSans-31"/>
      <use xlink:href="#DejaVuSans-31" x="63.623047"/>
     </g>
    </g>
    <g id="line2d_35">
     <path d="M 325.072656 77.014687 
L 335.072656 77.014687 
L 345.072656 77.014687 
" style="fill: none; stroke: #ff7f0e; stroke-width: 1.5; stroke-linecap: square"/>
    </g>
    <g id="text_21">
     <!-- 13 -->
     <g transform="translate(353.072656 80.514687)scale(0.1 -0.1)">
      <use xlink:href="#DejaVuSans-31"/>
      <use xlink:href="#DejaVuSans-33" x="63.623047"/>
     </g>
    </g>
    <g id="line2d_36">
     <path d="M 325.072656 91.692813 
L 335.072656 91.692813 
L 345.072656 91.692813 
" style="fill: none; stroke: #2ca02c; stroke-width: 1.5; stroke-linecap: square"/>
    </g>
    <g id="text_22">
     <!-- 29 -->
     <g transform="translate(353.072656 95.192813)scale(0.1 -0.1)">
      <defs>
       <path id="DejaVuSans-39" d="M 703 97 
L 703 672 
Q 941 559 1184 500 
Q 1428 441 1663 441 
Q 2288 441 2617 861 
Q 2947 1281 2994 2138 
Q 2813 1869 2534 1725 
Q 2256 1581 1919 1581 
Q 1219 1581 811 2004 
Q 403 2428 403 3163 
Q 403 3881 828 4315 
Q 1253 4750 1959 4750 
Q 2769 4750 3195 4129 
Q 3622 3509 3622 2328 
Q 3622 1225 3098 567 
Q 2575 -91 1691 -91 
Q 1453 -91 1209 -44 
Q 966 3 703 97 
z
M 1959 2075 
Q 2384 2075 2632 2365 
Q 2881 2656 2881 3163 
Q 2881 3666 2632 3958 
Q 2384 4250 1959 4250 
Q 1534 4250 1286 3958 
Q 1038 3666 1038 3163 
Q 1038 2656 1286 2365 
Q 1534 2075 1959 2075 
z
" transform="scale(0.015625)"/>
      </defs>
      <use xlink:href="#DejaVuSans-32"/>
      <use xlink:href="#DejaVuSans-39" x="63.623047"/>
     </g>
    </g>
   </g>
  </g>
 </g>
 <defs>
  <clipPath id="pd7067cfcaa">
   <rect x="54" y="34.56" width="334.8" height="217.44"/>
  </clipPath>
 </defs>
</svg>
