<?xml version="1.0" encoding="utf-8" standalone="no"?>
<!DOCTYPE svg PUBLIC "-//W3C//DTD SVG 1.1//EN"
  "http://www.w3.org/Graphics/SVG/1.1/DTD/svg11.dtd">
<svg xmlns:xlink="http://www.w3.org/1999/xlink" width="432pt" height="288pt" viewBox="0 0 432 288" xmlns="http://www.w3.org/2000/svg" version="1.1">
 <metadata>
  <rdf:RDF xmlns:dc="http://purl.org/dc/elements/1.1/" xmlns:cc="http://creativecommons.org/ns#" xmlns:rdf="http://www.w3.org/1999/02/22-rdf-syntax-ns#">
   <cc:Work>
    <dc:type rdf:resource="http://purl.org/dc/dcmitype/StillImage"/>
    <dc:date>2022-03-30T13:12:47.754887</dc:date>
    <dc:format>image/svg+xml</dc:format>
    <dc:creator>
     <cc:Agent>
      <dc:title>Matplotlib v3.5.1, https://matplotlib.org/</dc:title>
     </cc:Agent>
    </dc:creator>
   </cc:Work>
  </rdf:RDF>
 </metadata>
 <defs>
  <style type="text/css">*{stroke-linejoin: round; stroke-linecap: butt}</style>
 </defs>
 <g id="figure_1">
  <g id="patch_1">
   <path d="M 0 288 
L 432 288 
L 432 0 
L 0 0 
z
" style="fill: #ffffff"/>
  </g>
  <g id="axes_1">
   <g id="patch_2">
    <path d="M 54 252 
L 388.8 252 
L 388.8 34.56 
L 54 34.56 
z
" style="fill: #ffffff"/>
   </g>
   <g id="matplotlib.axis_1">
    <g id="xtick_1">
     <g id="line2d_1">
      <path d="M 69.218182 252 
L 69.218182 34.56 
" clip-path="url(#p2611bfe7a3)" style="fill: none; stroke: #b0b0b0; stroke-width: 0.8; stroke-linecap: square"/>
     </g>
     <g id="line2d_2">
      <defs>
       <path id="mab992dafc5" d="M 0 0 
L 0 3.5 
" style="stroke: #000000; stroke-width: 0.8"/>
      </defs>
      <g>
       <use xlink:href="#mab992dafc5" x="69.218182" y="252" style="stroke: #000000; stroke-width: 0.8"/>
      </g>
     </g>
     <g id="text_1">
      <!-- 0 -->
      <g transform="translate(66.036932 266.598437)scale(0.1 -0.1)">
       <defs>
        <path id="DejaVuSans-30" d="M 2034 4250 
Q 1547 4250 1301 3770 
Q 1056 3291 1056 2328 
Q 1056 1369 1301 889 
Q 1547 409 2034 409 
Q 2525 409 2770 889 
Q 3016 1369 3016 2328 
Q 3016 3291 2770 3770 
Q 2525 4250 2034 4250 
z
M 2034 4750 
Q 2819 4750 3233 4129 
Q 3647 3509 3647 2328 
Q 3647 1150 3233 529 
Q 2819 -91 2034 -91 
Q 1250 -91 836 529 
Q 422 1150 422 2328 
Q 422 3509 836 4129 
Q 1250 4750 2034 4750 
z
" transform="scale(0.015625)"/>
       </defs>
       <use xlink:href="#DejaVuSans-30"/>
      </g>
     </g>
    </g>
    <g id="xtick_2">
     <g id="line2d_3">
      <path d="M 128.780537 252 
L 128.780537 34.56 
" clip-path="url(#p2611bfe7a3)" style="fill: none; stroke: #b0b0b0; stroke-width: 0.8; stroke-linecap: square"/>
     </g>
     <g id="line2d_4">
      <g>
       <use xlink:href="#mab992dafc5" x="128.780537" y="252" style="stroke: #000000; stroke-width: 0.8"/>
      </g>
     </g>
     <g id="text_2">
      <!-- 100 -->
      <g transform="translate(119.236787 266.598437)scale(0.1 -0.1)">
       <defs>
        <path id="DejaVuSans-31" d="M 794 531 
L 1825 531 
L 1825 4091 
L 703 3866 
L 703 4441 
L 1819 4666 
L 2450 4666 
L 2450 531 
L 3481 531 
L 3481 0 
L 794 0 
L 794 531 
z
" transform="scale(0.015625)"/>
       </defs>
       <use xlink:href="#DejaVuSans-31"/>
       <use xlink:href="#DejaVuSans-30" x="63.623047"/>
       <use xlink:href="#DejaVuSans-30" x="127.246094"/>
      </g>
     </g>
    </g>
    <g id="xtick_3">
     <g id="line2d_5">
      <path d="M 188.342893 252 
L 188.342893 34.56 
" clip-path="url(#p2611bfe7a3)" style="fill: none; stroke: #b0b0b0; stroke-width: 0.8; stroke-linecap: square"/>
     </g>
     <g id="line2d_6">
      <g>
       <use xlink:href="#mab992dafc5" x="188.342893" y="252" style="stroke: #000000; stroke-width: 0.8"/>
      </g>
     </g>
     <g id="text_3">
      <!-- 200 -->
      <g transform="translate(178.799143 266.598437)scale(0.1 -0.1)">
       <defs>
        <path id="DejaVuSans-32" d="M 1228 531 
L 3431 531 
L 3431 0 
L 469 0 
L 469 531 
Q 828 903 1448 1529 
Q 2069 2156 2228 2338 
Q 2531 2678 2651 2914 
Q 2772 3150 2772 3378 
Q 2772 3750 2511 3984 
Q 2250 4219 1831 4219 
Q 1534 4219 1204 4116 
Q 875 4013 500 3803 
L 500 4441 
Q 881 4594 1212 4672 
Q 1544 4750 1819 4750 
Q 2544 4750 2975 4387 
Q 3406 4025 3406 3419 
Q 3406 3131 3298 2873 
Q 3191 2616 2906 2266 
Q 2828 2175 2409 1742 
Q 1991 1309 1228 531 
z
" transform="scale(0.015625)"/>
       </defs>
       <use xlink:href="#DejaVuSans-32"/>
       <use xlink:href="#DejaVuSans-30" x="63.623047"/>
       <use xlink:href="#DejaVuSans-30" x="127.246094"/>
      </g>
     </g>
    </g>
    <g id="xtick_4">
     <g id="line2d_7">
      <path d="M 247.905248 252 
L 247.905248 34.56 
" clip-path="url(#p2611bfe7a3)" style="fill: none; stroke: #b0b0b0; stroke-width: 0.8; stroke-linecap: square"/>
     </g>
     <g id="line2d_8">
      <g>
       <use xlink:href="#mab992dafc5" x="247.905248" y="252" style="stroke: #000000; stroke-width: 0.8"/>
      </g>
     </g>
     <g id="text_4">
      <!-- 300 -->
      <g transform="translate(238.361498 266.598437)scale(0.1 -0.1)">
       <defs>
        <path id="DejaVuSans-33" d="M 2597 2516 
Q 3050 2419 3304 2112 
Q 3559 1806 3559 1356 
Q 3559 666 3084 287 
Q 2609 -91 1734 -91 
Q 1441 -91 1130 -33 
Q 819 25 488 141 
L 488 750 
Q 750 597 1062 519 
Q 1375 441 1716 441 
Q 2309 441 2620 675 
Q 2931 909 2931 1356 
Q 2931 1769 2642 2001 
Q 2353 2234 1838 2234 
L 1294 2234 
L 1294 2753 
L 1863 2753 
Q 2328 2753 2575 2939 
Q 2822 3125 2822 3475 
Q 2822 3834 2567 4026 
Q 2313 4219 1838 4219 
Q 1578 4219 1281 4162 
Q 984 4106 628 3988 
L 628 4550 
Q 988 4650 1302 4700 
Q 1616 4750 1894 4750 
Q 2613 4750 3031 4423 
Q 3450 4097 3450 3541 
Q 3450 3153 3228 2886 
Q 3006 2619 2597 2516 
z
" transform="scale(0.015625)"/>
       </defs>
       <use xlink:href="#DejaVuSans-33"/>
       <use xlink:href="#DejaVuSans-30" x="63.623047"/>
       <use xlink:href="#DejaVuSans-30" x="127.246094"/>
      </g>
     </g>
    </g>
    <g id="xtick_5">
     <g id="line2d_9">
      <path d="M 307.467604 252 
L 307.467604 34.56 
" clip-path="url(#p2611bfe7a3)" style="fill: none; stroke: #b0b0b0; stroke-width: 0.8; stroke-linecap: square"/>
     </g>
     <g id="line2d_10">
      <g>
       <use xlink:href="#mab992dafc5" x="307.467604" y="252" style="stroke: #000000; stroke-width: 0.8"/>
      </g>
     </g>
     <g id="text_5">
      <!-- 400 -->
      <g transform="translate(297.923854 266.598437)scale(0.1 -0.1)">
       <defs>
        <path id="DejaVuSans-34" d="M 2419 4116 
L 825 1625 
L 2419 1625 
L 2419 4116 
z
M 2253 4666 
L 3047 4666 
L 3047 1625 
L 3713 1625 
L 3713 1100 
L 3047 1100 
L 3047 0 
L 2419 0 
L 2419 1100 
L 313 1100 
L 313 1709 
L 2253 4666 
z
" transform="scale(0.015625)"/>
       </defs>
       <use xlink:href="#DejaVuSans-34"/>
       <use xlink:href="#DejaVuSans-30" x="63.623047"/>
       <use xlink:href="#DejaVuSans-30" x="127.246094"/>
      </g>
     </g>
    </g>
    <g id="xtick_6">
     <g id="line2d_11">
      <path d="M 367.029959 252 
L 367.029959 34.56 
" clip-path="url(#p2611bfe7a3)" style="fill: none; stroke: #b0b0b0; stroke-width: 0.8; stroke-linecap: square"/>
     </g>
     <g id="line2d_12">
      <g>
       <use xlink:href="#mab992dafc5" x="367.029959" y="252" style="stroke: #000000; stroke-width: 0.8"/>
      </g>
     </g>
     <g id="text_6">
      <!-- 500 -->
      <g transform="translate(357.486209 266.598437)scale(0.1 -0.1)">
       <defs>
        <path id="DejaVuSans-35" d="M 691 4666 
L 3169 4666 
L 3169 4134 
L 1269 4134 
L 1269 2991 
Q 1406 3038 1543 3061 
Q 1681 3084 1819 3084 
Q 2600 3084 3056 2656 
Q 3513 2228 3513 1497 
Q 3513 744 3044 326 
Q 2575 -91 1722 -91 
Q 1428 -91 1123 -41 
Q 819 9 494 109 
L 494 744 
Q 775 591 1075 516 
Q 1375 441 1709 441 
Q 2250 441 2565 725 
Q 2881 1009 2881 1497 
Q 2881 1984 2565 2268 
Q 2250 2553 1709 2553 
Q 1456 2553 1204 2497 
Q 953 2441 691 2322 
L 691 4666 
z
" transform="scale(0.015625)"/>
       </defs>
       <use xlink:href="#DejaVuSans-35"/>
       <use xlink:href="#DejaVuSans-30" x="63.623047"/>
       <use xlink:href="#DejaVuSans-30" x="127.246094"/>
      </g>
     </g>
    </g>
    <g id="text_7">
     <!-- bin -->
     <g transform="translate(213.667969 280.276563)scale(0.1 -0.1)">
      <defs>
       <path id="DejaVuSans-62" d="M 3116 1747 
Q 3116 2381 2855 2742 
Q 2594 3103 2138 3103 
Q 1681 3103 1420 2742 
Q 1159 2381 1159 1747 
Q 1159 1113 1420 752 
Q 1681 391 2138 391 
Q 2594 391 2855 752 
Q 3116 1113 3116 1747 
z
M 1159 2969 
Q 1341 3281 1617 3432 
Q 1894 3584 2278 3584 
Q 2916 3584 3314 3078 
Q 3713 2572 3713 1747 
Q 3713 922 3314 415 
Q 2916 -91 2278 -91 
Q 1894 -91 1617 61 
Q 1341 213 1159 525 
L 1159 0 
L 581 0 
L 581 4863 
L 1159 4863 
L 1159 2969 
z
" transform="scale(0.015625)"/>
       <path id="DejaVuSans-69" d="M 603 3500 
L 1178 3500 
L 1178 0 
L 603 0 
L 603 3500 
z
M 603 4863 
L 1178 4863 
L 1178 4134 
L 603 4134 
L 603 4863 
z
" transform="scale(0.015625)"/>
       <path id="DejaVuSans-6e" d="M 3513 2113 
L 3513 0 
L 2938 0 
L 2938 2094 
Q 2938 2591 2744 2837 
Q 2550 3084 2163 3084 
Q 1697 3084 1428 2787 
Q 1159 2491 1159 1978 
L 1159 0 
L 581 0 
L 581 3500 
L 1159 3500 
L 1159 2956 
Q 1366 3272 1645 3428 
Q 1925 3584 2291 3584 
Q 2894 3584 3203 3211 
Q 3513 2838 3513 2113 
z
" transform="scale(0.015625)"/>
      </defs>
      <use xlink:href="#DejaVuSans-62"/>
      <use xlink:href="#DejaVuSans-69" x="63.476562"/>
      <use xlink:href="#DejaVuSans-6e" x="91.259766"/>
     </g>
    </g>
   </g>
   <g id="matplotlib.axis_2">
    <g id="ytick_1">
     <g id="line2d_13">
      <path d="M 54 252 
L 388.8 252 
" clip-path="url(#p2611bfe7a3)" style="fill: none; stroke: #b0b0b0; stroke-width: 0.8; stroke-linecap: square"/>
     </g>
     <g id="line2d_14">
      <defs>
       <path id="ma5bda598bb" d="M 0 0 
L -3.5 0 
" style="stroke: #000000; stroke-width: 0.8"/>
      </defs>
      <g>
       <use xlink:href="#ma5bda598bb" x="54" y="252" style="stroke: #000000; stroke-width: 0.8"/>
      </g>
     </g>
     <g id="text_8">
      <!-- 0 -->
      <g transform="translate(40.6375 255.799219)scale(0.1 -0.1)">
       <use xlink:href="#DejaVuSans-30"/>
      </g>
     </g>
    </g>
    <g id="ytick_2">
     <g id="line2d_15">
      <path d="M 54 226.418824 
L 388.8 226.418824 
" clip-path="url(#p2611bfe7a3)" style="fill: none; stroke: #b0b0b0; stroke-width: 0.8; stroke-linecap: square"/>
     </g>
     <g id="line2d_16">
      <g>
       <use xlink:href="#ma5bda598bb" x="54" y="226.418824" style="stroke: #000000; stroke-width: 0.8"/>
      </g>
     </g>
     <g id="text_9">
      <!-- 200 -->
      <g transform="translate(27.9125 230.218042)scale(0.1 -0.1)">
       <use xlink:href="#DejaVuSans-32"/>
       <use xlink:href="#DejaVuSans-30" x="63.623047"/>
       <use xlink:href="#DejaVuSans-30" x="127.246094"/>
      </g>
     </g>
    </g>
    <g id="ytick_3">
     <g id="line2d_17">
      <path d="M 54 200.837647 
L 388.8 200.837647 
" clip-path="url(#p2611bfe7a3)" style="fill: none; stroke: #b0b0b0; stroke-width: 0.8; stroke-linecap: square"/>
     </g>
     <g id="line2d_18">
      <g>
       <use xlink:href="#ma5bda598bb" x="54" y="200.837647" style="stroke: #000000; stroke-width: 0.8"/>
      </g>
     </g>
     <g id="text_10">
      <!-- 400 -->
      <g transform="translate(27.9125 204.636866)scale(0.1 -0.1)">
       <use xlink:href="#DejaVuSans-34"/>
       <use xlink:href="#DejaVuSans-30" x="63.623047"/>
       <use xlink:href="#DejaVuSans-30" x="127.246094"/>
      </g>
     </g>
    </g>
    <g id="ytick_4">
     <g id="line2d_19">
      <path d="M 54 175.256471 
L 388.8 175.256471 
" clip-path="url(#p2611bfe7a3)" style="fill: none; stroke: #b0b0b0; stroke-width: 0.8; stroke-linecap: square"/>
     </g>
     <g id="line2d_20">
      <g>
       <use xlink:href="#ma5bda598bb" x="54" y="175.256471" style="stroke: #000000; stroke-width: 0.8"/>
      </g>
     </g>
     <g id="text_11">
      <!-- 600 -->
      <g transform="translate(27.9125 179.055689)scale(0.1 -0.1)">
       <defs>
        <path id="DejaVuSans-36" d="M 2113 2584 
Q 1688 2584 1439 2293 
Q 1191 2003 1191 1497 
Q 1191 994 1439 701 
Q 1688 409 2113 409 
Q 2538 409 2786 701 
Q 3034 994 3034 1497 
Q 3034 2003 2786 2293 
Q 2538 2584 2113 2584 
z
M 3366 4563 
L 3366 3988 
Q 3128 4100 2886 4159 
Q 2644 4219 2406 4219 
Q 1781 4219 1451 3797 
Q 1122 3375 1075 2522 
Q 1259 2794 1537 2939 
Q 1816 3084 2150 3084 
Q 2853 3084 3261 2657 
Q 3669 2231 3669 1497 
Q 3669 778 3244 343 
Q 2819 -91 2113 -91 
Q 1303 -91 875 529 
Q 447 1150 447 2328 
Q 447 3434 972 4092 
Q 1497 4750 2381 4750 
Q 2619 4750 2861 4703 
Q 3103 4656 3366 4563 
z
" transform="scale(0.015625)"/>
       </defs>
       <use xlink:href="#DejaVuSans-36"/>
       <use xlink:href="#DejaVuSans-30" x="63.623047"/>
       <use xlink:href="#DejaVuSans-30" x="127.246094"/>
      </g>
     </g>
    </g>
    <g id="ytick_5">
     <g id="line2d_21">
      <path d="M 54 149.675294 
L 388.8 149.675294 
" clip-path="url(#p2611bfe7a3)" style="fill: none; stroke: #b0b0b0; stroke-width: 0.8; stroke-linecap: square"/>
     </g>
     <g id="line2d_22">
      <g>
       <use xlink:href="#ma5bda598bb" x="54" y="149.675294" style="stroke: #000000; stroke-width: 0.8"/>
      </g>
     </g>
     <g id="text_12">
      <!-- 800 -->
      <g transform="translate(27.9125 153.474513)scale(0.1 -0.1)">
       <defs>
        <path id="DejaVuSans-38" d="M 2034 2216 
Q 1584 2216 1326 1975 
Q 1069 1734 1069 1313 
Q 1069 891 1326 650 
Q 1584 409 2034 409 
Q 2484 409 2743 651 
Q 3003 894 3003 1313 
Q 3003 1734 2745 1975 
Q 2488 2216 2034 2216 
z
M 1403 2484 
Q 997 2584 770 2862 
Q 544 3141 544 3541 
Q 544 4100 942 4425 
Q 1341 4750 2034 4750 
Q 2731 4750 3128 4425 
Q 3525 4100 3525 3541 
Q 3525 3141 3298 2862 
Q 3072 2584 2669 2484 
Q 3125 2378 3379 2068 
Q 3634 1759 3634 1313 
Q 3634 634 3220 271 
Q 2806 -91 2034 -91 
Q 1263 -91 848 271 
Q 434 634 434 1313 
Q 434 1759 690 2068 
Q 947 2378 1403 2484 
z
M 1172 3481 
Q 1172 3119 1398 2916 
Q 1625 2713 2034 2713 
Q 2441 2713 2670 2916 
Q 2900 3119 2900 3481 
Q 2900 3844 2670 4047 
Q 2441 4250 2034 4250 
Q 1625 4250 1398 4047 
Q 1172 3844 1172 3481 
z
" transform="scale(0.015625)"/>
       </defs>
       <use xlink:href="#DejaVuSans-38"/>
       <use xlink:href="#DejaVuSans-30" x="63.623047"/>
       <use xlink:href="#DejaVuSans-30" x="127.246094"/>
      </g>
     </g>
    </g>
    <g id="ytick_6">
     <g id="line2d_23">
      <path d="M 54 124.094118 
L 388.8 124.094118 
" clip-path="url(#p2611bfe7a3)" style="fill: none; stroke: #b0b0b0; stroke-width: 0.8; stroke-linecap: square"/>
     </g>
     <g id="line2d_24">
      <g>
       <use xlink:href="#ma5bda598bb" x="54" y="124.094118" style="stroke: #000000; stroke-width: 0.8"/>
      </g>
     </g>
     <g id="text_13">
      <!-- 1000 -->
      <g transform="translate(21.55 127.893336)scale(0.1 -0.1)">
       <use xlink:href="#DejaVuSans-31"/>
       <use xlink:href="#DejaVuSans-30" x="63.623047"/>
       <use xlink:href="#DejaVuSans-30" x="127.246094"/>
       <use xlink:href="#DejaVuSans-30" x="190.869141"/>
      </g>
     </g>
    </g>
    <g id="ytick_7">
     <g id="line2d_25">
      <path d="M 54 98.512941 
L 388.8 98.512941 
" clip-path="url(#p2611bfe7a3)" style="fill: none; stroke: #b0b0b0; stroke-width: 0.8; stroke-linecap: square"/>
     </g>
     <g id="line2d_26">
      <g>
       <use xlink:href="#ma5bda598bb" x="54" y="98.512941" style="stroke: #000000; stroke-width: 0.8"/>
      </g>
     </g>
     <g id="text_14">
      <!-- 1200 -->
      <g transform="translate(21.55 102.31216)scale(0.1 -0.1)">
       <use xlink:href="#DejaVuSans-31"/>
       <use xlink:href="#DejaVuSans-32" x="63.623047"/>
       <use xlink:href="#DejaVuSans-30" x="127.246094"/>
       <use xlink:href="#DejaVuSans-30" x="190.869141"/>
      </g>
     </g>
    </g>
    <g id="ytick_8">
     <g id="line2d_27">
      <path d="M 54 72.931765 
L 388.8 72.931765 
" clip-path="url(#p2611bfe7a3)" style="fill: none; stroke: #b0b0b0; stroke-width: 0.8; stroke-linecap: square"/>
     </g>
     <g id="line2d_28">
      <g>
       <use xlink:href="#ma5bda598bb" x="54" y="72.931765" style="stroke: #000000; stroke-width: 0.8"/>
      </g>
     </g>
     <g id="text_15">
      <!-- 1400 -->
      <g transform="translate(21.55 76.730983)scale(0.1 -0.1)">
       <use xlink:href="#DejaVuSans-31"/>
       <use xlink:href="#DejaVuSans-34" x="63.623047"/>
       <use xlink:href="#DejaVuSans-30" x="127.246094"/>
       <use xlink:href="#DejaVuSans-30" x="190.869141"/>
      </g>
     </g>
    </g>
    <g id="ytick_9">
     <g id="line2d_29">
      <path d="M 54 47.350588 
L 388.8 47.350588 
" clip-path="url(#p2611bfe7a3)" style="fill: none; stroke: #b0b0b0; stroke-width: 0.8; stroke-linecap: square"/>
     </g>
     <g id="line2d_30">
      <g>
       <use xlink:href="#ma5bda598bb" x="54" y="47.350588" style="stroke: #000000; stroke-width: 0.8"/>
      </g>
     </g>
     <g id="text_16">
      <!-- 1600 -->
      <g transform="translate(21.55 51.149807)scale(0.1 -0.1)">
       <use xlink:href="#DejaVuSans-31"/>
       <use xlink:href="#DejaVuSans-36" x="63.623047"/>
       <use xlink:href="#DejaVuSans-30" x="127.246094"/>
       <use xlink:href="#DejaVuSans-30" x="190.869141"/>
      </g>
     </g>
    </g>
    <g id="text_17">
     <!-- count -->
     <g transform="translate(15.470312 157.38625)rotate(-90)scale(0.1 -0.1)">
      <defs>
       <path id="DejaVuSans-63" d="M 3122 3366 
L 3122 2828 
Q 2878 2963 2633 3030 
Q 2388 3097 2138 3097 
Q 1578 3097 1268 2742 
Q 959 2388 959 1747 
Q 959 1106 1268 751 
Q 1578 397 2138 397 
Q 2388 397 2633 464 
Q 2878 531 3122 666 
L 3122 134 
Q 2881 22 2623 -34 
Q 2366 -91 2075 -91 
Q 1284 -91 818 406 
Q 353 903 353 1747 
Q 353 2603 823 3093 
Q 1294 3584 2113 3584 
Q 2378 3584 2631 3529 
Q 2884 3475 3122 3366 
z
" transform="scale(0.015625)"/>
       <path id="DejaVuSans-6f" d="M 1959 3097 
Q 1497 3097 1228 2736 
Q 959 2375 959 1747 
Q 959 1119 1226 758 
Q 1494 397 1959 397 
Q 2419 397 2687 759 
Q 2956 1122 2956 1747 
Q 2956 2369 2687 2733 
Q 2419 3097 1959 3097 
z
M 1959 3584 
Q 2709 3584 3137 3096 
Q 3566 2609 3566 1747 
Q 3566 888 3137 398 
Q 2709 -91 1959 -91 
Q 1206 -91 779 398 
Q 353 888 353 1747 
Q 353 2609 779 3096 
Q 1206 3584 1959 3584 
z
" transform="scale(0.015625)"/>
       <path id="DejaVuSans-75" d="M 544 1381 
L 544 3500 
L 1119 3500 
L 1119 1403 
Q 1119 906 1312 657 
Q 1506 409 1894 409 
Q 2359 409 2629 706 
Q 2900 1003 2900 1516 
L 2900 3500 
L 3475 3500 
L 3475 0 
L 2900 0 
L 2900 538 
Q 2691 219 2414 64 
Q 2138 -91 1772 -91 
Q 1169 -91 856 284 
Q 544 659 544 1381 
z
M 1991 3584 
L 1991 3584 
z
" transform="scale(0.015625)"/>
       <path id="DejaVuSans-74" d="M 1172 4494 
L 1172 3500 
L 2356 3500 
L 2356 3053 
L 1172 3053 
L 1172 1153 
Q 1172 725 1289 603 
Q 1406 481 1766 481 
L 2356 481 
L 2356 0 
L 1766 0 
Q 1100 0 847 248 
Q 594 497 594 1153 
L 594 3053 
L 172 3053 
L 172 3500 
L 594 3500 
L 594 4494 
L 1172 4494 
z
" transform="scale(0.015625)"/>
      </defs>
      <use xlink:href="#DejaVuSans-63"/>
      <use xlink:href="#DejaVuSans-6f" x="54.980469"/>
      <use xlink:href="#DejaVuSans-75" x="116.162109"/>
      <use xlink:href="#DejaVuSans-6e" x="179.541016"/>
      <use xlink:href="#DejaVuSans-74" x="242.919922"/>
     </g>
    </g>
   </g>
   <g id="line2d_31">
    <path d="M 69.218182 207.872471 
L 69.813805 205.186447 
L 70.409429 201.221365 
L 71.005052 211.453835 
L 71.600676 208.128282 
L 72.1963 209.407341 
L 72.791923 209.918965 
L 73.387547 205.825976 
L 73.98317 204.291106 
L 74.578794 201.9888 
L 75.174417 209.663153 
L 75.770041 204.419012 
L 76.365664 205.442259 
L 76.961288 198.023718 
L 77.556912 202.372518 
L 78.152535 209.023624 
L 78.748159 206.081788 
L 79.343782 204.1632 
L 79.939406 204.802729 
L 80.535029 211.581741 
L 81.130653 205.058541 
L 81.726276 203.395765 
L 82.3219 205.698071 
L 82.917524 206.849224 
L 83.513147 199.302776 
L 84.108771 204.035294 
L 84.704394 202.884141 
L 85.300018 202.628329 
L 85.895641 204.419012 
L 86.491265 206.593412 
L 87.682512 209.151529 
L 88.278136 202.116706 
L 88.873759 208.767812 
L 89.469383 206.209694 
L 90.065006 208.256188 
L 90.66063 209.279435 
L 91.256253 209.535247 
L 91.851877 212.221271 
L 92.4475 205.314353 
L 93.043124 203.267859 
L 93.638748 208.256188 
L 94.234371 204.035294 
L 94.829995 210.046871 
L 95.425618 206.3376 
L 96.021242 206.3376 
L 97.212489 208.256188 
L 97.808112 203.907388 
L 98.403736 204.802729 
L 98.99936 207.488753 
L 99.594983 204.035294 
L 100.190607 210.430588 
L 100.78623 202.628329 
L 101.381854 202.372518 
L 101.977477 204.291106 
L 102.573101 203.012047 
L 103.168724 210.174776 
L 103.764348 205.953882 
L 104.359972 205.186447 
L 104.955595 207.360847 
L 105.551219 205.698071 
L 106.146842 205.186447 
L 106.742466 206.593412 
L 107.338089 207.616659 
L 107.933713 202.500424 
L 108.529336 206.465506 
L 109.12496 202.244612 
L 109.720584 205.186447 
L 110.316207 209.407341 
L 110.911831 206.209694 
L 111.507454 205.314353 
L 112.103078 205.058541 
L 112.698701 204.674824 
L 113.294325 206.209694 
L 113.889948 204.674824 
L 114.485572 207.744565 
L 115.676819 206.593412 
L 116.272443 208.256188 
L 116.868066 203.395765 
L 118.059313 208.639906 
L 118.654937 199.686494 
L 119.25056 205.953882 
L 119.846184 208.000376 
L 120.441808 204.546918 
L 121.037431 202.372518 
L 121.633055 205.442259 
L 122.228678 209.407341 
L 122.824302 205.570165 
L 123.419925 205.570165 
L 124.015549 203.779482 
L 124.611172 204.930635 
L 125.206796 203.012047 
L 125.802419 204.546918 
L 126.398043 203.139953 
L 126.993667 200.070212 
L 127.58929 204.035294 
L 128.184914 203.779482 
L 129.376161 207.744565 
L 129.971784 210.430588 
L 130.567408 208.384094 
L 131.163031 202.372518 
L 131.758655 205.314353 
L 132.354279 207.616659 
L 132.949902 206.081788 
L 133.545526 208.512 
L 134.141149 205.825976 
L 134.736773 209.023624 
L 135.92802 199.558588 
L 136.523643 205.570165 
L 137.119267 206.721318 
L 137.714891 208.384094 
L 138.310514 204.802729 
L 138.906138 207.744565 
L 139.501761 207.488753 
L 140.097385 208.000376 
L 140.693008 205.442259 
L 141.288632 205.698071 
L 141.884255 205.825976 
L 142.479879 204.930635 
L 143.075503 208.639906 
L 143.671126 205.442259 
L 144.26675 204.1632 
L 144.862373 205.442259 
L 145.457997 207.744565 
L 146.05362 201.732988 
L 146.649244 208.256188 
L 147.244867 209.663153 
L 147.840491 201.605082 
L 148.436115 209.023624 
L 149.031738 209.791059 
L 149.627362 206.3376 
L 151.414232 204.035294 
L 152.009856 204.419012 
L 152.605479 207.360847 
L 153.201103 208.639906 
L 153.796727 206.465506 
L 154.39235 205.186447 
L 154.987974 206.849224 
L 155.583597 207.872471 
L 156.179221 204.291106 
L 156.774844 202.116706 
L 157.370468 208.128282 
L 157.966091 211.198024 
L 159.157339 206.209694 
L 159.752962 205.953882 
L 160.348586 204.291106 
L 160.944209 203.907388 
L 161.539833 209.663153 
L 162.135456 208.895718 
L 163.326703 203.139953 
L 163.922327 208.128282 
L 164.517951 207.105035 
L 165.113574 203.139953 
L 165.709198 204.035294 
L 166.304821 206.209694 
L 166.900445 203.139953 
L 167.496068 204.802729 
L 168.091692 202.884141 
L 168.687315 203.523671 
L 169.282939 204.674824 
L 169.878563 211.453835 
L 170.474186 205.698071 
L 171.06981 207.744565 
L 171.665433 205.058541 
L 172.261057 206.721318 
L 172.85668 205.186447 
L 173.452304 204.674824 
L 174.047927 205.442259 
L 174.643551 206.593412 
L 175.239175 203.012047 
L 176.430422 207.872471 
L 177.026045 205.314353 
L 177.621669 211.581741 
L 178.217292 199.8144 
L 178.812916 200.581835 
L 179.408539 208.512 
L 180.004163 206.3376 
L 180.599787 207.360847 
L 181.19541 208.000376 
L 181.791034 204.035294 
L 182.386657 204.546918 
L 182.982281 206.721318 
L 184.173528 207.744565 
L 184.769151 201.732988 
L 185.364775 204.1632 
L 185.960399 211.581741 
L 186.556022 209.279435 
L 187.151646 204.802729 
L 187.747269 208.767812 
L 188.342893 206.849224 
L 188.938516 205.698071 
L 189.53414 205.058541 
L 190.129763 207.488753 
L 190.725387 207.616659 
L 191.32101 204.035294 
L 191.916634 206.977129 
L 192.512258 204.930635 
L 193.107881 207.616659 
L 193.703505 202.372518 
L 194.299128 205.058541 
L 194.894752 204.1632 
L 195.490375 206.081788 
L 196.085999 203.907388 
L 196.681622 206.081788 
L 197.277246 206.3376 
L 197.87287 210.302682 
L 198.468493 206.593412 
L 199.064117 206.849224 
L 199.65974 200.581835 
L 200.255364 207.872471 
L 200.850987 203.395765 
L 201.446611 203.012047 
L 202.042234 208.000376 
L 202.637858 203.395765 
L 203.233482 208.639906 
L 203.829105 204.930635 
L 204.424729 203.267859 
L 205.020352 205.953882 
L 205.615976 204.930635 
L 206.211599 206.977129 
L 206.807223 199.302776 
L 207.402846 156.198494 
L 207.99847 131.512659 
L 208.594094 172.954165 
L 209.189717 197.64 
L 209.785341 205.186447 
L 210.380964 209.407341 
L 210.976588 206.465506 
L 211.572211 207.616659 
L 212.167835 207.105035 
L 212.763458 209.663153 
L 213.359082 207.360847 
L 213.954706 206.081788 
L 214.550329 205.186447 
L 215.145953 210.302682 
L 215.741576 204.291106 
L 216.3372 206.209694 
L 216.932823 206.3376 
L 217.528447 205.953882 
L 218.12407 207.616659 
L 218.719694 206.977129 
L 219.315318 207.616659 
L 219.910941 206.593412 
L 220.506565 201.732988 
L 221.102188 203.651576 
L 221.697812 208.128282 
L 222.293435 208.512 
L 222.889059 209.918965 
L 223.484682 200.965553 
L 224.080306 205.442259 
L 224.67593 207.488753 
L 225.271553 203.012047 
L 225.867177 201.221365 
L 226.4628 206.465506 
L 227.058424 210.430588 
L 227.654047 205.953882 
L 228.249671 199.8144 
L 228.845294 202.628329 
L 229.440918 206.849224 
L 230.036542 207.105035 
L 230.632165 201.221365 
L 231.227789 207.616659 
L 231.823412 203.139953 
L 232.419036 204.1632 
L 233.014659 206.721318 
L 233.610283 208.767812 
L 234.205906 200.453929 
L 234.80153 203.267859 
L 235.397154 205.058541 
L 235.992777 207.744565 
L 236.588401 205.442259 
L 237.184024 209.791059 
L 237.779648 204.419012 
L 238.375271 206.209694 
L 238.970895 209.151529 
L 239.566518 206.593412 
L 240.162142 204.674824 
L 240.757766 205.953882 
L 241.353389 202.628329 
L 241.949013 208.128282 
L 242.544636 204.802729 
L 243.14026 204.1632 
L 243.735883 199.430682 
L 244.331507 208.512 
L 244.92713 204.802729 
L 245.522754 199.686494 
L 246.118378 205.698071 
L 246.714001 203.267859 
L 247.309625 205.825976 
L 248.500872 208.512 
L 249.096495 205.314353 
L 249.692119 206.3376 
L 250.287742 205.058541 
L 250.883366 207.488753 
L 251.47899 207.616659 
L 252.074613 205.442259 
L 252.670237 208.512 
L 253.26586 206.721318 
L 253.861484 209.918965 
L 254.457107 203.139953 
L 255.052731 206.721318 
L 255.648354 206.721318 
L 256.243978 205.314353 
L 256.839601 204.674824 
L 257.435225 204.546918 
L 258.030849 207.872471 
L 258.626472 207.488753 
L 259.222096 205.698071 
L 259.817719 209.918965 
L 260.413343 205.698071 
L 261.008966 204.1632 
L 261.60459 203.395765 
L 262.200213 203.907388 
L 262.795837 208.384094 
L 263.391461 204.674824 
L 264.582708 171.803012 
L 265.178331 204.035294 
L 265.773955 203.395765 
L 266.369578 204.930635 
L 266.965202 208.000376 
L 267.560825 204.419012 
L 268.156449 203.779482 
L 268.752073 205.058541 
L 269.347696 209.535247 
L 269.94332 204.930635 
L 270.538943 206.593412 
L 271.134567 204.930635 
L 271.73019 211.070118 
L 272.921437 206.721318 
L 273.517061 206.977129 
L 274.112685 201.860894 
L 274.708308 206.721318 
L 275.303932 203.139953 
L 275.899555 202.244612 
L 276.495179 205.314353 
L 277.090802 206.721318 
L 277.686426 205.698071 
L 278.282049 207.872471 
L 278.877673 208.639906 
L 279.473297 204.802729 
L 280.06892 207.872471 
L 280.664544 205.953882 
L 281.260167 206.721318 
L 281.855791 206.3376 
L 282.451414 204.674824 
L 283.047038 205.442259 
L 283.642661 205.825976 
L 284.238285 202.116706 
L 284.833909 207.105035 
L 285.429532 207.488753 
L 286.025156 211.198024 
L 286.620779 205.698071 
L 287.216403 205.058541 
L 287.812026 203.651576 
L 288.40765 209.279435 
L 289.003273 207.872471 
L 289.598897 204.802729 
L 290.194521 208.000376 
L 290.790144 202.116706 
L 291.385768 208.000376 
L 291.981391 206.593412 
L 292.577015 204.035294 
L 293.172638 203.012047 
L 293.768262 205.825976 
L 294.363885 206.3376 
L 294.959509 205.698071 
L 295.555133 202.244612 
L 296.150756 203.395765 
L 296.74638 201.349271 
L 297.342003 207.232941 
L 297.937627 206.849224 
L 298.53325 200.070212 
L 299.128874 207.232941 
L 299.724497 210.174776 
L 300.320121 205.442259 
L 300.915745 206.3376 
L 301.511368 203.012047 
L 302.106992 206.721318 
L 302.702615 208.256188 
L 303.298239 200.326024 
L 303.893862 206.977129 
L 304.489486 204.802729 
L 305.085109 203.139953 
L 305.680733 210.174776 
L 306.276357 205.953882 
L 306.87198 205.442259 
L 307.467604 208.000376 
L 308.063227 205.953882 
L 308.658851 207.232941 
L 309.254474 208.000376 
L 309.850098 204.1632 
L 310.445721 208.512 
L 311.041345 204.035294 
L 311.636969 209.407341 
L 312.232592 211.837553 
L 312.828216 203.523671 
L 314.019463 207.616659 
L 314.615086 208.895718 
L 315.21071 204.802729 
L 316.401957 208.384094 
L 316.997581 202.500424 
L 317.593204 206.081788 
L 318.188828 204.546918 
L 318.784451 206.721318 
L 319.380075 202.116706 
L 320.571322 208.000376 
L 321.166945 205.570165 
L 321.762569 202.244612 
L 322.953816 207.360847 
L 323.54944 209.023624 
L 324.145063 206.081788 
L 324.740687 206.081788 
L 325.33631 205.314353 
L 325.931934 200.453929 
L 326.527557 205.698071 
L 327.123181 205.570165 
L 327.718804 201.9888 
L 328.910052 205.953882 
L 329.505675 204.291106 
L 330.696922 209.791059 
L 331.292546 201.093459 
L 331.888169 207.232941 
L 332.483793 208.384094 
L 333.079416 204.419012 
L 333.67504 213.372424 
L 334.270664 208.000376 
L 335.461911 205.953882 
L 336.057534 208.639906 
L 336.653158 209.151529 
L 337.248781 209.151529 
L 337.844405 207.872471 
L 339.035652 209.279435 
L 339.631276 207.360847 
L 340.226899 209.407341 
L 340.822523 209.151529 
L 341.418146 206.209694 
L 342.01377 204.930635 
L 342.609393 206.849224 
L 343.205017 205.442259 
L 343.80064 209.279435 
L 344.396264 203.651576 
L 344.991888 208.895718 
L 345.587511 202.884141 
L 346.183135 210.174776 
L 346.778758 208.639906 
L 347.374382 204.930635 
L 347.970005 203.651576 
L 348.565629 209.279435 
L 349.161252 204.1632 
L 349.756876 207.744565 
L 350.3525 208.000376 
L 350.948123 202.628329 
L 351.543747 207.872471 
L 352.13937 204.1632 
L 352.734994 204.419012 
L 353.330617 202.628329 
L 353.926241 205.570165 
L 354.521864 210.046871 
L 355.117488 205.442259 
L 355.713112 203.523671 
L 356.308735 206.3376 
L 356.904359 208.512 
L 357.499982 207.105035 
L 358.095606 200.837647 
L 358.691229 204.802729 
L 359.286853 204.419012 
L 359.882476 203.779482 
L 360.4781 205.825976 
L 361.073724 206.3376 
L 361.669347 204.674824 
L 362.264971 206.081788 
L 362.860594 205.953882 
L 363.456218 207.744565 
L 364.051841 205.442259 
L 364.647465 205.186447 
L 365.243088 204.802729 
L 365.838712 206.209694 
L 366.434336 208.895718 
L 367.029959 204.674824 
L 367.625583 208.512 
L 368.221206 203.651576 
L 368.81683 203.907388 
L 369.412453 206.209694 
L 370.008077 207.488753 
L 370.6037 207.488753 
L 371.199324 204.674824 
L 371.794948 205.186447 
L 372.390571 210.174776 
L 372.986195 206.593412 
L 373.581818 205.058541 
L 373.581818 205.058541 
" clip-path="url(#p2611bfe7a3)" style="fill: none; stroke: #1f77b4; stroke-width: 1.5; stroke-linecap: square"/>
   </g>
   <g id="line2d_32">
    <path d="M 69.218182 231.279247 
L 69.813805 232.302494 
L 70.409429 227.697882 
L 71.005052 230.000188 
L 71.600676 228.593224 
L 72.1963 232.814118 
L 72.791923 234.093176 
L 73.387547 231.535059 
L 73.98317 231.662965 
L 75.174417 233.325741 
L 75.770041 229.744376 
L 76.365664 229.232753 
L 76.961288 232.4304 
L 77.556912 232.046682 
L 78.152535 233.581553 
L 78.748159 233.325741 
L 79.343782 234.093176 
L 79.939406 230.639718 
L 80.535029 232.302494 
L 81.130653 232.942024 
L 81.726276 232.558306 
L 82.3219 234.476894 
L 82.917524 229.488565 
L 83.513147 232.302494 
L 84.108771 233.837365 
L 84.704394 230.895529 
L 85.300018 232.814118 
L 85.895641 231.279247 
L 86.491265 234.093176 
L 87.086888 232.558306 
L 87.682512 229.360659 
L 88.278136 231.279247 
L 88.873759 227.697882 
L 90.065006 232.814118 
L 90.66063 233.069929 
L 91.256253 230.383906 
L 91.851877 231.535059 
L 92.4475 230.639718 
L 93.043124 234.093176 
L 93.638748 228.465318 
L 94.234371 230.767624 
L 94.829995 231.918776 
L 95.425618 232.302494 
L 96.021242 232.174588 
L 96.616865 231.662965 
L 97.212489 230.895529 
L 97.808112 234.221082 
L 98.403736 233.709459 
L 98.99936 236.7792 
L 99.594983 231.918776 
L 100.190607 231.023435 
L 100.78623 231.023435 
L 101.381854 234.348988 
L 101.977477 233.965271 
L 102.573101 232.558306 
L 103.168724 230.639718 
L 103.764348 231.279247 
L 104.359972 230.639718 
L 104.955595 233.453647 
L 105.551219 232.942024 
L 106.146842 231.151341 
L 106.742466 233.197835 
L 107.338089 234.221082 
L 107.933713 232.174588 
L 108.529336 231.662965 
L 109.12496 230.767624 
L 109.720584 231.790871 
L 110.316207 232.558306 
L 110.911831 229.360659 
L 111.507454 234.348988 
L 112.103078 233.709459 
L 112.698701 231.790871 
L 113.294325 233.453647 
L 113.889948 231.151341 
L 114.485572 229.360659 
L 115.081196 233.837365 
L 115.676819 234.860612 
L 116.272443 231.790871 
L 116.868066 233.069929 
L 117.46369 233.069929 
L 118.059313 233.197835 
L 118.654937 232.686212 
L 119.25056 231.918776 
L 119.846184 229.616471 
L 120.441808 230.895529 
L 121.037431 233.581553 
L 122.228678 229.872282 
L 122.824302 231.407153 
L 123.419925 232.558306 
L 124.015549 231.023435 
L 124.611172 234.221082 
L 125.206796 233.965271 
L 125.802419 231.918776 
L 126.398043 232.942024 
L 126.993667 233.709459 
L 127.58929 233.069929 
L 128.184914 230.256 
L 128.780537 231.918776 
L 129.376161 229.104847 
L 129.971784 232.302494 
L 130.567408 233.453647 
L 131.163031 231.535059 
L 131.758655 231.535059 
L 132.354279 231.918776 
L 132.949902 229.616471 
L 133.545526 231.023435 
L 134.141149 231.023435 
L 134.736773 231.535059 
L 135.332396 230.639718 
L 135.92802 231.662965 
L 136.523643 231.279247 
L 137.714891 232.558306 
L 138.310514 233.709459 
L 138.906138 232.174588 
L 139.501761 234.732706 
L 140.097385 233.197835 
L 140.693008 233.325741 
L 141.288632 229.872282 
L 141.884255 233.709459 
L 142.479879 230.128094 
L 143.075503 230.511812 
L 143.671126 232.942024 
L 144.26675 228.976941 
L 144.862373 235.244329 
L 145.457997 232.686212 
L 146.05362 232.302494 
L 146.649244 231.151341 
L 147.244867 231.662965 
L 150.222985 232.302494 
L 150.818609 231.662965 
L 151.414232 232.686212 
L 152.009856 232.4304 
L 152.605479 232.302494 
L 153.201103 230.383906 
L 153.796727 232.686212 
L 154.39235 228.465318 
L 154.987974 234.348988 
L 155.583597 231.790871 
L 156.179221 232.046682 
L 156.774844 231.918776 
L 157.370468 232.174588 
L 157.966091 230.639718 
L 158.561715 233.581553 
L 159.157339 232.4304 
L 159.752962 234.221082 
L 160.348586 232.046682 
L 160.944209 232.4304 
L 161.539833 230.767624 
L 162.135456 233.069929 
L 162.73108 232.302494 
L 163.326703 231.918776 
L 163.922327 230.256 
L 164.517951 229.232753 
L 165.113574 232.046682 
L 165.709198 230.511812 
L 166.304821 232.046682 
L 166.900445 234.860612 
L 167.496068 231.151341 
L 168.091692 231.918776 
L 168.687315 230.128094 
L 169.282939 230.511812 
L 169.878563 233.965271 
L 170.474186 234.6048 
L 171.06981 233.325741 
L 171.665433 231.407153 
L 172.261057 231.535059 
L 172.85668 232.302494 
L 173.452304 233.453647 
L 174.047927 228.0816 
L 174.643551 235.116424 
L 175.239175 230.895529 
L 175.834798 229.488565 
L 176.430422 232.558306 
L 177.026045 231.023435 
L 177.621669 234.348988 
L 178.217292 230.895529 
L 178.812916 232.686212 
L 179.408539 232.942024 
L 180.004163 230.895529 
L 181.791034 232.4304 
L 182.386657 233.837365 
L 182.982281 231.151341 
L 183.577904 233.581553 
L 184.173528 232.302494 
L 184.769151 233.453647 
L 185.364775 233.069929 
L 185.960399 232.174588 
L 186.556022 230.639718 
L 187.151646 231.918776 
L 187.747269 229.232753 
L 188.342893 231.279247 
L 188.938516 229.104847 
L 189.53414 232.4304 
L 190.129763 234.732706 
L 190.725387 233.965271 
L 191.32101 232.046682 
L 191.916634 230.895529 
L 192.512258 234.093176 
L 193.107881 231.151341 
L 193.703505 230.767624 
L 194.299128 228.337412 
L 194.894752 230.000188 
L 195.490375 231.151341 
L 196.085999 231.790871 
L 196.681622 227.442071 
L 197.277246 230.383906 
L 197.87287 230.511812 
L 198.468493 231.535059 
L 199.064117 231.151341 
L 199.65974 232.174588 
L 200.255364 231.023435 
L 200.850987 233.709459 
L 201.446611 235.116424 
L 202.042234 228.849035 
L 202.637858 212.988706 
L 203.233482 202.628329 
L 204.424729 230.895529 
L 205.020352 231.662965 
L 205.615976 229.616471 
L 206.807223 230.895529 
L 207.402846 232.174588 
L 207.99847 233.837365 
L 208.594094 229.616471 
L 209.189717 232.942024 
L 209.785341 232.4304 
L 210.380964 233.069929 
L 210.976588 231.407153 
L 211.572211 233.197835 
L 212.167835 230.000188 
L 212.763458 229.232753 
L 213.359082 231.023435 
L 213.954706 229.872282 
L 215.145953 233.965271 
L 215.741576 230.639718 
L 216.3372 233.581553 
L 216.932823 232.814118 
L 217.528447 231.151341 
L 218.12407 230.895529 
L 218.719694 233.325741 
L 219.315318 232.942024 
L 219.910941 231.407153 
L 220.506565 234.348988 
L 221.102188 233.709459 
L 221.697812 228.849035 
L 222.293435 231.535059 
L 222.889059 233.197835 
L 223.484682 228.593224 
L 224.080306 234.221082 
L 225.271553 232.302494 
L 225.867177 231.407153 
L 226.4628 233.837365 
L 227.058424 232.686212 
L 227.654047 229.872282 
L 228.249671 228.849035 
L 229.440918 233.325741 
L 230.036542 235.116424 
L 230.632165 231.790871 
L 231.227789 230.511812 
L 231.823412 234.6048 
L 232.419036 234.476894 
L 233.014659 230.511812 
L 233.610283 235.116424 
L 234.205906 228.593224 
L 234.80153 232.302494 
L 235.397154 232.174588 
L 235.992777 229.360659 
L 236.588401 232.4304 
L 237.184024 233.837365 
L 237.779648 231.662965 
L 238.375271 234.348988 
L 239.566518 228.976941 
L 240.162142 233.197835 
L 240.757766 232.302494 
L 241.353389 233.325741 
L 241.949013 232.942024 
L 242.544636 232.046682 
L 243.14026 232.814118 
L 243.735883 231.279247 
L 244.331507 231.151341 
L 244.92713 235.116424 
L 245.522754 230.639718 
L 246.118378 231.790871 
L 246.714001 231.023435 
L 247.309625 233.325741 
L 247.905248 232.558306 
L 248.500872 229.616471 
L 249.096495 230.511812 
L 249.692119 234.732706 
L 250.287742 230.639718 
L 250.883366 230.383906 
L 251.47899 232.046682 
L 252.074613 229.616471 
L 252.670237 231.662965 
L 253.26586 230.767624 
L 254.457107 231.790871 
L 255.052731 230.511812 
L 255.648354 233.709459 
L 256.243978 232.302494 
L 256.839601 232.4304 
L 257.435225 231.407153 
L 258.030849 231.279247 
L 258.626472 233.069929 
L 259.222096 226.290918 
L 259.817719 220.790965 
L 260.413343 229.744376 
L 261.008966 232.686212 
L 261.60459 230.128094 
L 262.200213 231.918776 
L 262.795837 231.023435 
L 263.391461 229.232753 
L 263.987084 230.639718 
L 264.582708 230.767624 
L 265.178331 231.407153 
L 265.773955 233.581553 
L 266.369578 231.279247 
L 266.965202 233.453647 
L 267.560825 229.488565 
L 268.156449 232.046682 
L 268.752073 234.093176 
L 269.347696 232.174588 
L 269.94332 231.151341 
L 270.538943 231.662965 
L 271.134567 230.511812 
L 271.73019 231.535059 
L 272.325814 231.662965 
L 272.921437 231.535059 
L 273.517061 234.348988 
L 274.112685 229.744376 
L 274.708308 233.325741 
L 275.303932 231.918776 
L 275.899555 227.697882 
L 276.495179 233.453647 
L 277.090802 232.558306 
L 277.686426 230.767624 
L 278.282049 230.639718 
L 279.473297 233.581553 
L 280.06892 231.662965 
L 280.664544 232.814118 
L 281.260167 231.279247 
L 281.855791 232.174588 
L 282.451414 235.116424 
L 283.047038 230.383906 
L 283.642661 233.581553 
L 284.238285 233.197835 
L 285.429532 231.790871 
L 286.620779 231.535059 
L 287.216403 232.046682 
L 288.40765 231.790871 
L 289.003273 231.535059 
L 289.598897 234.732706 
L 290.194521 231.407153 
L 290.790144 234.732706 
L 291.385768 234.093176 
L 291.981391 233.069929 
L 292.577015 234.221082 
L 293.172638 230.128094 
L 293.768262 229.232753 
L 294.363885 234.860612 
L 294.959509 233.197835 
L 295.555133 232.814118 
L 296.74638 231.407153 
L 297.342003 233.581553 
L 297.937627 232.686212 
L 298.53325 232.814118 
L 299.128874 231.918776 
L 299.724497 233.325741 
L 300.320121 229.232753 
L 300.915745 231.790871 
L 301.511368 232.558306 
L 302.106992 230.895529 
L 302.702615 230.639718 
L 303.298239 233.965271 
L 303.893862 231.535059 
L 304.489486 233.453647 
L 305.085109 231.151341 
L 305.680733 230.383906 
L 306.276357 228.976941 
L 306.87198 231.023435 
L 307.467604 231.662965 
L 308.063227 229.232753 
L 308.658851 231.918776 
L 309.254474 232.814118 
L 309.850098 232.814118 
L 310.445721 233.581553 
L 311.041345 232.942024 
L 311.636969 233.197835 
L 312.232592 234.093176 
L 312.828216 230.128094 
L 313.423839 233.837365 
L 314.019463 232.046682 
L 314.615086 233.069929 
L 315.21071 232.686212 
L 315.806333 230.256 
L 316.401957 233.453647 
L 316.997581 232.942024 
L 317.593204 229.616471 
L 318.188828 230.895529 
L 318.784451 233.581553 
L 319.380075 232.558306 
L 319.975698 232.814118 
L 320.571322 234.093176 
L 321.166945 232.4304 
L 321.762569 233.709459 
L 322.358192 233.069929 
L 322.953816 233.069929 
L 323.54944 232.814118 
L 324.145063 230.895529 
L 324.740687 229.872282 
L 325.33631 232.302494 
L 325.931934 232.302494 
L 326.527557 229.488565 
L 327.123181 230.128094 
L 327.718804 232.686212 
L 328.314428 233.581553 
L 328.910052 231.662965 
L 329.505675 233.325741 
L 330.101299 230.767624 
L 330.696922 234.476894 
L 331.292546 234.221082 
L 331.888169 229.232753 
L 332.483793 231.918776 
L 333.079416 230.128094 
L 333.67504 231.790871 
L 334.270664 232.558306 
L 334.866287 234.348988 
L 335.461911 232.4304 
L 336.057534 234.221082 
L 336.653158 231.407153 
L 337.248781 234.348988 
L 337.844405 233.325741 
L 338.440028 232.942024 
L 339.035652 230.256 
L 339.631276 231.918776 
L 340.226899 227.953694 
L 340.822523 230.383906 
L 341.418146 231.790871 
L 342.01377 233.965271 
L 342.609393 232.174588 
L 343.205017 232.686212 
L 343.80064 232.174588 
L 344.396264 231.023435 
L 344.991888 231.535059 
L 345.587511 231.790871 
L 346.183135 231.918776 
L 346.778758 226.674635 
L 347.374382 235.244329 
L 347.970005 230.000188 
L 348.565629 230.511812 
L 349.161252 231.918776 
L 349.756876 230.000188 
L 350.3525 230.256 
L 350.948123 226.930447 
L 352.13937 232.302494 
L 352.734994 228.337412 
L 353.330617 227.569976 
L 354.521864 234.476894 
L 355.117488 231.662965 
L 355.713112 232.046682 
L 356.308735 231.790871 
L 356.904359 231.918776 
L 357.499982 230.639718 
L 358.095606 232.302494 
L 358.691229 231.662965 
L 359.286853 231.918776 
L 359.882476 230.511812 
L 361.073724 232.558306 
L 361.669347 232.174588 
L 362.264971 233.325741 
L 362.860594 233.581553 
L 363.456218 232.174588 
L 364.051841 231.535059 
L 364.647465 230.000188 
L 365.243088 232.4304 
L 366.434336 231.023435 
L 367.029959 232.558306 
L 367.625583 230.511812 
L 368.221206 234.860612 
L 369.412453 231.151341 
L 370.008077 231.918776 
L 370.6037 233.709459 
L 371.199324 231.023435 
L 371.794948 233.453647 
L 372.390571 233.837365 
L 372.986195 235.883859 
L 373.581818 232.174588 
L 373.581818 232.174588 
" clip-path="url(#p2611bfe7a3)" style="fill: none; stroke: #ff7f0e; stroke-width: 1.5; stroke-linecap: square"/>
   </g>
   <g id="line2d_33">
    <path d="M 69.218182 234.6048 
L 69.813805 234.732706 
L 70.409429 234.732706 
L 71.005052 237.162918 
L 72.1963 234.093176 
L 73.387547 238.825694 
L 73.98317 238.441976 
L 74.578794 237.162918 
L 75.770041 235.372235 
L 76.365664 236.011765 
L 76.961288 234.6048 
L 77.556912 239.721035 
L 78.152535 235.883859 
L 78.748159 238.569882 
L 79.343782 235.883859 
L 79.939406 237.035012 
L 80.535029 234.348988 
L 81.130653 236.523388 
L 81.726276 236.267576 
L 82.3219 238.186165 
L 82.917524 235.883859 
L 83.513147 235.628047 
L 84.704394 235.883859 
L 85.300018 237.418729 
L 85.895641 234.860612 
L 86.491265 235.628047 
L 87.086888 237.290824 
L 87.682512 234.093176 
L 88.278136 237.035012 
L 88.873759 236.011765 
L 89.469383 236.139671 
L 90.065006 236.395482 
L 90.66063 234.6048 
L 91.256253 236.011765 
L 91.851877 236.267576 
L 92.4475 235.116424 
L 93.043124 237.035012 
L 93.638748 236.395482 
L 94.234371 235.500141 
L 94.829995 234.860612 
L 95.425618 234.6048 
L 96.021242 235.628047 
L 96.616865 235.883859 
L 97.212489 237.035012 
L 97.808112 236.139671 
L 98.403736 234.348988 
L 98.99936 234.6048 
L 99.594983 236.907106 
L 100.190607 236.907106 
L 101.381854 233.581553 
L 101.977477 237.035012 
L 102.573101 235.500141 
L 103.168724 235.883859 
L 103.764348 234.732706 
L 104.359972 234.6048 
L 104.955595 235.628047 
L 105.551219 239.976847 
L 106.146842 236.011765 
L 106.742466 237.546635 
L 107.338089 236.7792 
L 107.933713 236.267576 
L 108.529336 238.058259 
L 109.12496 236.011765 
L 109.720584 236.139671 
L 110.316207 237.930353 
L 110.911831 235.372235 
L 111.507454 238.569882 
L 112.103078 234.093176 
L 112.698701 235.372235 
L 113.294325 237.418729 
L 113.889948 235.244329 
L 114.485572 233.837365 
L 115.081196 233.965271 
L 115.676819 236.395482 
L 116.272443 236.907106 
L 116.868066 236.139671 
L 118.059313 235.883859 
L 118.654937 234.732706 
L 119.25056 237.546635 
L 119.846184 236.267576 
L 120.441808 238.314071 
L 121.037431 238.697788 
L 121.633055 237.290824 
L 122.228678 236.267576 
L 122.824302 237.802447 
L 123.419925 234.221082 
L 124.015549 235.500141 
L 124.611172 237.546635 
L 125.206796 236.523388 
L 125.802419 236.011765 
L 126.398043 233.581553 
L 126.993667 234.476894 
L 127.58929 239.209412 
L 128.184914 238.697788 
L 128.780537 236.651294 
L 129.376161 236.395482 
L 129.971784 237.290824 
L 130.567408 237.546635 
L 131.163031 234.988518 
L 131.758655 236.907106 
L 132.354279 238.314071 
L 132.949902 234.093176 
L 133.545526 239.209412 
L 134.141149 235.500141 
L 134.736773 237.802447 
L 135.92802 235.116424 
L 136.523643 235.628047 
L 137.119267 232.686212 
L 137.714891 237.674541 
L 138.310514 235.500141 
L 138.906138 236.395482 
L 140.097385 236.907106 
L 140.693008 235.372235 
L 141.288632 236.907106 
L 141.884255 240.232659 
L 142.479879 235.755953 
L 143.075503 235.755953 
L 143.671126 236.651294 
L 144.26675 239.337318 
L 144.862373 234.860612 
L 145.457997 237.674541 
L 146.05362 237.418729 
L 146.649244 236.651294 
L 147.244867 236.139671 
L 147.840491 236.395482 
L 148.436115 234.476894 
L 149.031738 234.348988 
L 149.627362 234.348988 
L 150.222985 237.802447 
L 150.818609 237.418729 
L 151.414232 235.628047 
L 152.009856 235.500141 
L 152.605479 235.628047 
L 153.201103 236.267576 
L 153.796727 235.883859 
L 154.39235 236.267576 
L 154.987974 238.569882 
L 155.583597 236.139671 
L 156.179221 235.372235 
L 157.370468 240.488471 
L 157.966091 235.628047 
L 158.561715 236.523388 
L 159.157339 236.267576 
L 159.752962 234.732706 
L 160.348586 236.011765 
L 160.944209 236.011765 
L 161.539833 235.755953 
L 162.135456 236.907106 
L 162.73108 239.081506 
L 163.326703 235.883859 
L 163.922327 237.418729 
L 164.517951 235.755953 
L 165.709198 234.476894 
L 166.304821 236.139671 
L 166.900445 236.139671 
L 167.496068 238.825694 
L 168.687315 234.476894 
L 169.282939 238.186165 
L 169.878563 236.267576 
L 170.474186 236.139671 
L 171.06981 236.395482 
L 171.665433 234.988518 
L 172.261057 236.011765 
L 172.85668 235.628047 
L 173.452304 236.139671 
L 174.047927 234.860612 
L 174.643551 237.162918 
L 175.239175 235.883859 
L 175.834798 239.337318 
L 176.430422 235.755953 
L 177.026045 234.348988 
L 177.621669 237.418729 
L 178.217292 237.546635 
L 178.812916 234.093176 
L 179.408539 236.011765 
L 180.004163 235.628047 
L 180.599787 238.441976 
L 181.19541 234.988518 
L 181.791034 235.883859 
L 182.386657 238.697788 
L 182.982281 237.674541 
L 183.577904 229.744376 
L 184.769151 152.233412 
L 185.364775 201.221365 
L 185.960399 234.476894 
L 186.556022 235.116424 
L 187.151646 237.290824 
L 187.747269 238.314071 
L 188.342893 233.581553 
L 188.938516 237.035012 
L 189.53414 236.651294 
L 190.129763 234.6048 
L 190.725387 234.221082 
L 191.32101 233.325741 
L 191.916634 234.732706 
L 192.512258 237.674541 
L 193.107881 237.674541 
L 193.703505 235.244329 
L 194.299128 235.883859 
L 194.894752 238.314071 
L 195.490375 237.035012 
L 196.085999 236.395482 
L 196.681622 237.418729 
L 197.277246 235.628047 
L 197.87287 238.186165 
L 198.468493 233.325741 
L 199.064117 234.860612 
L 199.65974 235.500141 
L 200.255364 236.395482 
L 200.850987 237.035012 
L 201.446611 236.523388 
L 202.042234 237.035012 
L 202.637858 237.802447 
L 203.233482 234.988518 
L 203.829105 236.139671 
L 204.424729 236.395482 
L 205.020352 236.7792 
L 205.615976 233.453647 
L 206.211599 237.930353 
L 206.807223 235.372235 
L 207.402846 238.058259 
L 207.99847 237.802447 
L 208.594094 237.035012 
L 209.189717 237.930353 
L 209.785341 236.7792 
L 210.380964 236.651294 
L 210.976588 236.267576 
L 211.572211 236.139671 
L 212.167835 237.802447 
L 212.763458 237.035012 
L 213.359082 237.930353 
L 213.954706 233.709459 
L 214.550329 237.674541 
L 215.145953 238.314071 
L 215.741576 236.7792 
L 216.3372 238.058259 
L 216.932823 233.453647 
L 217.528447 237.418729 
L 218.12407 236.395482 
L 218.719694 237.802447 
L 219.315318 235.500141 
L 219.910941 234.860612 
L 220.506565 234.860612 
L 221.102188 233.581553 
L 221.697812 239.848941 
L 222.293435 236.395482 
L 222.889059 235.116424 
L 223.484682 235.628047 
L 224.080306 237.674541 
L 224.67593 236.011765 
L 225.271553 235.755953 
L 225.867177 236.139671 
L 226.4628 237.546635 
L 227.058424 237.802447 
L 227.654047 234.476894 
L 228.249671 235.244329 
L 228.845294 237.546635 
L 229.440918 235.500141 
L 230.036542 235.755953 
L 230.632165 233.837365 
L 231.227789 236.011765 
L 231.823412 234.093176 
L 232.419036 237.418729 
L 233.014659 237.802447 
L 233.610283 235.116424 
L 234.205906 235.628047 
L 234.80153 237.930353 
L 235.397154 236.651294 
L 235.992777 238.441976 
L 236.588401 237.418729 
L 237.184024 237.674541 
L 238.970895 236.139671 
L 239.566518 234.732706 
L 240.162142 232.942024 
L 241.353389 205.186447 
L 241.949013 229.616471 
L 242.544636 234.6048 
L 243.14026 235.244329 
L 243.735883 237.802447 
L 244.331507 235.500141 
L 244.92713 237.546635 
L 245.522754 238.825694 
L 246.118378 235.244329 
L 246.714001 234.860612 
L 247.309625 237.162918 
L 247.905248 234.732706 
L 248.500872 236.395482 
L 249.096495 235.116424 
L 250.287742 234.093176 
L 250.883366 234.988518 
L 252.074613 236.139671 
L 252.670237 238.186165 
L 253.26586 237.930353 
L 253.861484 234.476894 
L 255.052731 235.372235 
L 255.648354 238.314071 
L 256.243978 235.372235 
L 256.839601 235.500141 
L 257.435225 236.907106 
L 258.030849 238.825694 
L 258.626472 237.674541 
L 259.222096 237.035012 
L 259.817719 239.721035 
L 260.413343 236.7792 
L 261.008966 233.069929 
L 261.60459 236.651294 
L 262.200213 237.546635 
L 262.795837 238.058259 
L 263.391461 237.162918 
L 263.987084 236.011765 
L 264.582708 233.965271 
L 265.178331 236.907106 
L 265.773955 234.860612 
L 266.369578 234.348988 
L 266.965202 236.907106 
L 267.560825 236.523388 
L 268.156449 239.081506 
L 268.752073 237.802447 
L 269.347696 237.674541 
L 270.538943 238.186165 
L 271.134567 235.500141 
L 271.73019 236.139671 
L 272.325814 237.035012 
L 272.921437 236.139671 
L 273.517061 237.418729 
L 274.112685 237.802447 
L 274.708308 237.290824 
L 275.303932 237.546635 
L 275.899555 231.662965 
L 276.495179 236.011765 
L 277.090802 236.907106 
L 277.686426 236.907106 
L 278.282049 236.651294 
L 278.877673 236.651294 
L 279.473297 240.744282 
L 280.06892 234.988518 
L 280.664544 235.372235 
L 281.260167 236.523388 
L 281.855791 236.395482 
L 282.451414 239.976847 
L 283.047038 235.244329 
L 283.642661 236.395482 
L 284.238285 236.523388 
L 284.833909 238.825694 
L 286.025156 237.035012 
L 286.620779 237.930353 
L 287.216403 237.546635 
L 287.812026 235.500141 
L 288.40765 238.825694 
L 289.003273 235.755953 
L 289.598897 234.6048 
L 290.194521 240.104753 
L 290.790144 236.907106 
L 291.385768 235.244329 
L 291.981391 235.500141 
L 292.577015 237.674541 
L 293.172638 238.9536 
L 293.768262 238.186165 
L 294.363885 235.883859 
L 294.959509 235.116424 
L 295.555133 236.907106 
L 296.150756 237.418729 
L 296.74638 237.546635 
L 297.342003 234.348988 
L 297.937627 233.581553 
L 299.128874 237.162918 
L 299.724497 237.418729 
L 300.320121 234.6048 
L 300.915745 238.441976 
L 301.511368 238.058259 
L 302.106992 236.7792 
L 302.702615 236.395482 
L 303.298239 237.418729 
L 303.893862 235.116424 
L 304.489486 235.244329 
L 305.085109 236.395482 
L 305.680733 232.942024 
L 306.276357 236.651294 
L 306.87198 237.162918 
L 307.467604 235.500141 
L 308.063227 236.011765 
L 308.658851 236.907106 
L 309.254474 236.651294 
L 309.850098 236.267576 
L 310.445721 238.314071 
L 311.041345 235.244329 
L 311.636969 238.441976 
L 312.232592 237.802447 
L 312.828216 239.209412 
L 313.423839 237.418729 
L 314.019463 236.651294 
L 314.615086 236.267576 
L 315.21071 236.7792 
L 315.806333 235.755953 
L 316.401957 236.651294 
L 316.997581 233.709459 
L 317.593204 237.162918 
L 318.188828 238.058259 
L 318.784451 237.418729 
L 319.380075 237.546635 
L 319.975698 233.069929 
L 320.571322 236.523388 
L 321.166945 234.732706 
L 321.762569 236.267576 
L 322.358192 236.011765 
L 322.953816 237.162918 
L 323.54944 236.523388 
L 324.145063 234.6048 
L 324.740687 235.244329 
L 325.33631 236.7792 
L 325.931934 234.6048 
L 326.527557 235.883859 
L 327.123181 239.337318 
L 327.718804 235.116424 
L 328.314428 239.209412 
L 328.910052 235.372235 
L 329.505675 238.058259 
L 330.101299 238.697788 
L 330.696922 234.093176 
L 331.292546 236.523388 
L 331.888169 238.186165 
L 332.483793 235.755953 
L 333.079416 236.139671 
L 333.67504 236.907106 
L 334.270664 236.907106 
L 334.866287 234.348988 
L 335.461911 235.500141 
L 336.057534 237.290824 
L 336.653158 236.523388 
L 337.248781 235.244329 
L 337.844405 234.476894 
L 338.440028 236.267576 
L 339.035652 234.988518 
L 339.631276 235.244329 
L 340.226899 237.930353 
L 340.822523 235.628047 
L 341.418146 234.476894 
L 342.01377 237.802447 
L 343.205017 235.883859 
L 344.396264 235.244329 
L 344.991888 237.290824 
L 345.587511 235.372235 
L 346.183135 236.011765 
L 346.778758 237.418729 
L 347.374382 237.418729 
L 347.970005 234.221082 
L 348.565629 234.988518 
L 349.161252 235.372235 
L 349.756876 238.186165 
L 350.3525 235.628047 
L 350.948123 235.628047 
L 351.543747 239.848941 
L 352.13937 237.035012 
L 352.734994 237.674541 
L 353.330617 235.628047 
L 353.926241 237.035012 
L 354.521864 236.011765 
L 355.117488 234.093176 
L 355.713112 231.662965 
L 356.904359 237.035012 
L 357.499982 235.883859 
L 358.095606 239.337318 
L 358.691229 238.697788 
L 359.286853 236.267576 
L 359.882476 235.500141 
L 360.4781 236.7792 
L 361.073724 235.244329 
L 361.669347 239.976847 
L 362.264971 235.500141 
L 362.860594 234.988518 
L 363.456218 239.209412 
L 364.051841 234.860612 
L 364.647465 232.174588 
L 365.243088 236.267576 
L 365.838712 237.546635 
L 366.434336 235.244329 
L 367.029959 238.441976 
L 367.625583 236.139671 
L 368.221206 235.500141 
L 368.81683 239.721035 
L 369.412453 238.314071 
L 370.6037 233.581553 
L 371.199324 235.755953 
L 371.794948 237.035012 
L 372.390571 236.139671 
L 372.986195 237.546635 
L 373.581818 236.651294 
L 373.581818 236.651294 
" clip-path="url(#p2611bfe7a3)" style="fill: none; stroke: #2ca02c; stroke-width: 1.5; stroke-linecap: square"/>
   </g>
   <g id="patch_3">
    <path d="M 54 252 
L 54 34.56 
" style="fill: none; stroke: #000000; stroke-width: 0.8; stroke-linejoin: miter; stroke-linecap: square"/>
   </g>
   <g id="patch_4">
    <path d="M 388.8 252 
L 388.8 34.56 
" style="fill: none; stroke: #000000; stroke-width: 0.8; stroke-linejoin: miter; stroke-linecap: square"/>
   </g>
   <g id="patch_5">
    <path d="M 54 252 
L 388.8 252 
" style="fill: none; stroke: #000000; stroke-width: 0.8; stroke-linejoin: miter; stroke-linecap: square"/>
   </g>
   <g id="patch_6">
    <path d="M 54 34.56 
L 388.8 34.56 
" style="fill: none; stroke: #000000; stroke-width: 0.8; stroke-linejoin: miter; stroke-linecap: square"/>
   </g>
   <g id="text_18">
    <!-- Label 8 -->
    <g transform="translate(199.487813 28.56)scale(0.12 -0.12)">
     <defs>
      <path id="DejaVuSans-4c" d="M 628 4666 
L 1259 4666 
L 1259 531 
L 3531 531 
L 3531 0 
L 628 0 
L 628 4666 
z
" transform="scale(0.015625)"/>
      <path id="DejaVuSans-61" d="M 2194 1759 
Q 1497 1759 1228 1600 
Q 959 1441 959 1056 
Q 959 750 1161 570 
Q 1363 391 1709 391 
Q 2188 391 2477 730 
Q 2766 1069 2766 1631 
L 2766 1759 
L 2194 1759 
z
M 3341 1997 
L 3341 0 
L 2766 0 
L 2766 531 
Q 2569 213 2275 61 
Q 1981 -91 1556 -91 
Q 1019 -91 701 211 
Q 384 513 384 1019 
Q 384 1609 779 1909 
Q 1175 2209 1959 2209 
L 2766 2209 
L 2766 2266 
Q 2766 2663 2505 2880 
Q 2244 3097 1772 3097 
Q 1472 3097 1187 3025 
Q 903 2953 641 2809 
L 641 3341 
Q 956 3463 1253 3523 
Q 1550 3584 1831 3584 
Q 2591 3584 2966 3190 
Q 3341 2797 3341 1997 
z
" transform="scale(0.015625)"/>
      <path id="DejaVuSans-65" d="M 3597 1894 
L 3597 1613 
L 953 1613 
Q 991 1019 1311 708 
Q 1631 397 2203 397 
Q 2534 397 2845 478 
Q 3156 559 3463 722 
L 3463 178 
Q 3153 47 2828 -22 
Q 2503 -91 2169 -91 
Q 1331 -91 842 396 
Q 353 884 353 1716 
Q 353 2575 817 3079 
Q 1281 3584 2069 3584 
Q 2775 3584 3186 3129 
Q 3597 2675 3597 1894 
z
M 3022 2063 
Q 3016 2534 2758 2815 
Q 2500 3097 2075 3097 
Q 1594 3097 1305 2825 
Q 1016 2553 972 2059 
L 3022 2063 
z
" transform="scale(0.015625)"/>
      <path id="DejaVuSans-6c" d="M 603 4863 
L 1178 4863 
L 1178 0 
L 603 0 
L 603 4863 
z
" transform="scale(0.015625)"/>
      <path id="DejaVuSans-20" transform="scale(0.015625)"/>
     </defs>
     <use xlink:href="#DejaVuSans-4c"/>
     <use xlink:href="#DejaVuSans-61" x="55.712891"/>
     <use xlink:href="#DejaVuSans-62" x="116.992188"/>
     <use xlink:href="#DejaVuSans-65" x="180.46875"/>
     <use xlink:href="#DejaVuSans-6c" x="241.992188"/>
     <use xlink:href="#DejaVuSans-20" x="269.775391"/>
     <use xlink:href="#DejaVuSans-38" x="301.5625"/>
    </g>
   </g>
   <g id="legend_1">
    <g id="patch_7">
     <path d="M 309.070312 101.2725 
L 381.8 101.2725 
Q 383.8 101.2725 383.8 99.2725 
L 383.8 41.56 
Q 383.8 39.56 381.8 39.56 
L 309.070312 39.56 
Q 307.070312 39.56 307.070312 41.56 
L 307.070312 99.2725 
Q 307.070312 101.2725 309.070312 101.2725 
z
" style="fill: #ffffff; opacity: 0.8; stroke: #cccccc; stroke-linejoin: miter"/>
    </g>
    <g id="text_19">
     <!-- Trace number -->
     <g transform="translate(311.070312 51.158437)scale(0.1 -0.1)">
      <defs>
       <path id="DejaVuSans-54" d="M -19 4666 
L 3928 4666 
L 3928 4134 
L 2272 4134 
L 2272 0 
L 1638 0 
L 1638 4134 
L -19 4134 
L -19 4666 
z
" transform="scale(0.015625)"/>
       <path id="DejaVuSans-72" d="M 2631 2963 
Q 2534 3019 2420 3045 
Q 2306 3072 2169 3072 
Q 1681 3072 1420 2755 
Q 1159 2438 1159 1844 
L 1159 0 
L 581 0 
L 581 3500 
L 1159 3500 
L 1159 2956 
Q 1341 3275 1631 3429 
Q 1922 3584 2338 3584 
Q 2397 3584 2469 3576 
Q 2541 3569 2628 3553 
L 2631 2963 
z
" transform="scale(0.015625)"/>
       <path id="DejaVuSans-6d" d="M 3328 2828 
Q 3544 3216 3844 3400 
Q 4144 3584 4550 3584 
Q 5097 3584 5394 3201 
Q 5691 2819 5691 2113 
L 5691 0 
L 5113 0 
L 5113 2094 
Q 5113 2597 4934 2840 
Q 4756 3084 4391 3084 
Q 3944 3084 3684 2787 
Q 3425 2491 3425 1978 
L 3425 0 
L 2847 0 
L 2847 2094 
Q 2847 2600 2669 2842 
Q 2491 3084 2119 3084 
Q 1678 3084 1418 2786 
Q 1159 2488 1159 1978 
L 1159 0 
L 581 0 
L 581 3500 
L 1159 3500 
L 1159 2956 
Q 1356 3278 1631 3431 
Q 1906 3584 2284 3584 
Q 2666 3584 2933 3390 
Q 3200 3197 3328 2828 
z
" transform="scale(0.015625)"/>
      </defs>
      <use xlink:href="#DejaVuSans-54"/>
      <use xlink:href="#DejaVuSans-72" x="46.333984"/>
      <use xlink:href="#DejaVuSans-61" x="87.447266"/>
      <use xlink:href="#DejaVuSans-63" x="148.726562"/>
      <use xlink:href="#DejaVuSans-65" x="203.707031"/>
      <use xlink:href="#DejaVuSans-20" x="265.230469"/>
      <use xlink:href="#DejaVuSans-6e" x="297.017578"/>
      <use xlink:href="#DejaVuSans-75" x="360.396484"/>
      <use xlink:href="#DejaVuSans-6d" x="423.775391"/>
      <use xlink:href="#DejaVuSans-62" x="521.1875"/>
      <use xlink:href="#DejaVuSans-65" x="584.664062"/>
      <use xlink:href="#DejaVuSans-72" x="646.1875"/>
     </g>
    </g>
    <g id="line2d_34">
     <path d="M 325.072656 62.336562 
L 335.072656 62.336562 
L 345.072656 62.336562 
" style="fill: none; stroke: #1f77b4; stroke-width: 1.5; stroke-linecap: square"/>
    </g>
    <g id="text_20">
     <!-- 14 -->
     <g transform="translate(353.072656 65.836562)scale(0.1 -0.1)">
      <use xlink:href="#DejaVuSans-31"/>
      <use xlink:href="#DejaVuSans-34" x="63.623047"/>
     </g>
    </g>
    <g id="line2d_35">
     <path d="M 325.072656 77.014687 
L 335.072656 77.014687 
L 345.072656 77.014687 
" style="fill: none; stroke: #ff7f0e; stroke-width: 1.5; stroke-linecap: square"/>
    </g>
    <g id="text_21">
     <!-- 24 -->
     <g transform="translate(353.072656 80.514687)scale(0.1 -0.1)">
      <use xlink:href="#DejaVuSans-32"/>
      <use xlink:href="#DejaVuSans-34" x="63.623047"/>
     </g>
    </g>
    <g id="line2d_36">
     <path d="M 325.072656 91.692813 
L 335.072656 91.692813 
L 345.072656 91.692813 
" style="fill: none; stroke: #2ca02c; stroke-width: 1.5; stroke-linecap: square"/>
    </g>
    <g id="text_22">
     <!-- 53 -->
     <g transform="translate(353.072656 95.192813)scale(0.1 -0.1)">
      <use xlink:href="#DejaVuSans-35"/>
      <use xlink:href="#DejaVuSans-33" x="63.623047"/>
     </g>
    </g>
   </g>
  </g>
 </g>
 <defs>
  <clipPath id="p2611bfe7a3">
   <rect x="54" y="34.56" width="334.8" height="217.44"/>
  </clipPath>
 </defs>
</svg>
