<?xml version="1.0" encoding="utf-8" standalone="no"?>
<!DOCTYPE svg PUBLIC "-//W3C//DTD SVG 1.1//EN"
  "http://www.w3.org/Graphics/SVG/1.1/DTD/svg11.dtd">
<svg xmlns:xlink="http://www.w3.org/1999/xlink" width="432pt" height="288pt" viewBox="0 0 432 288" xmlns="http://www.w3.org/2000/svg" version="1.1">
 <metadata>
  <rdf:RDF xmlns:dc="http://purl.org/dc/elements/1.1/" xmlns:cc="http://creativecommons.org/ns#" xmlns:rdf="http://www.w3.org/1999/02/22-rdf-syntax-ns#">
   <cc:Work>
    <dc:type rdf:resource="http://purl.org/dc/dcmitype/StillImage"/>
    <dc:date>2022-03-30T13:12:48.088257</dc:date>
    <dc:format>image/svg+xml</dc:format>
    <dc:creator>
     <cc:Agent>
      <dc:title>Matplotlib v3.5.1, https://matplotlib.org/</dc:title>
     </cc:Agent>
    </dc:creator>
   </cc:Work>
  </rdf:RDF>
 </metadata>
 <defs>
  <style type="text/css">*{stroke-linejoin: round; stroke-linecap: butt}</style>
 </defs>
 <g id="figure_1">
  <g id="patch_1">
   <path d="M 0 288 
L 432 288 
L 432 0 
L 0 0 
z
" style="fill: #ffffff"/>
  </g>
  <g id="axes_1">
   <g id="patch_2">
    <path d="M 54 252 
L 388.8 252 
L 388.8 34.56 
L 54 34.56 
z
" style="fill: #ffffff"/>
   </g>
   <g id="matplotlib.axis_1">
    <g id="xtick_1">
     <g id="line2d_1">
      <path d="M 69.218182 252 
L 69.218182 34.56 
" clip-path="url(#p8cf175fe34)" style="fill: none; stroke: #b0b0b0; stroke-width: 0.8; stroke-linecap: square"/>
     </g>
     <g id="line2d_2">
      <defs>
       <path id="m4a7fa84f86" d="M 0 0 
L 0 3.5 
" style="stroke: #000000; stroke-width: 0.8"/>
      </defs>
      <g>
       <use xlink:href="#m4a7fa84f86" x="69.218182" y="252" style="stroke: #000000; stroke-width: 0.8"/>
      </g>
     </g>
     <g id="text_1">
      <!-- 0 -->
      <g transform="translate(66.036932 266.598437)scale(0.1 -0.1)">
       <defs>
        <path id="DejaVuSans-30" d="M 2034 4250 
Q 1547 4250 1301 3770 
Q 1056 3291 1056 2328 
Q 1056 1369 1301 889 
Q 1547 409 2034 409 
Q 2525 409 2770 889 
Q 3016 1369 3016 2328 
Q 3016 3291 2770 3770 
Q 2525 4250 2034 4250 
z
M 2034 4750 
Q 2819 4750 3233 4129 
Q 3647 3509 3647 2328 
Q 3647 1150 3233 529 
Q 2819 -91 2034 -91 
Q 1250 -91 836 529 
Q 422 1150 422 2328 
Q 422 3509 836 4129 
Q 1250 4750 2034 4750 
z
" transform="scale(0.015625)"/>
       </defs>
       <use xlink:href="#DejaVuSans-30"/>
      </g>
     </g>
    </g>
    <g id="xtick_2">
     <g id="line2d_3">
      <path d="M 128.780537 252 
L 128.780537 34.56 
" clip-path="url(#p8cf175fe34)" style="fill: none; stroke: #b0b0b0; stroke-width: 0.8; stroke-linecap: square"/>
     </g>
     <g id="line2d_4">
      <g>
       <use xlink:href="#m4a7fa84f86" x="128.780537" y="252" style="stroke: #000000; stroke-width: 0.8"/>
      </g>
     </g>
     <g id="text_2">
      <!-- 100 -->
      <g transform="translate(119.236787 266.598437)scale(0.1 -0.1)">
       <defs>
        <path id="DejaVuSans-31" d="M 794 531 
L 1825 531 
L 1825 4091 
L 703 3866 
L 703 4441 
L 1819 4666 
L 2450 4666 
L 2450 531 
L 3481 531 
L 3481 0 
L 794 0 
L 794 531 
z
" transform="scale(0.015625)"/>
       </defs>
       <use xlink:href="#DejaVuSans-31"/>
       <use xlink:href="#DejaVuSans-30" x="63.623047"/>
       <use xlink:href="#DejaVuSans-30" x="127.246094"/>
      </g>
     </g>
    </g>
    <g id="xtick_3">
     <g id="line2d_5">
      <path d="M 188.342893 252 
L 188.342893 34.56 
" clip-path="url(#p8cf175fe34)" style="fill: none; stroke: #b0b0b0; stroke-width: 0.8; stroke-linecap: square"/>
     </g>
     <g id="line2d_6">
      <g>
       <use xlink:href="#m4a7fa84f86" x="188.342893" y="252" style="stroke: #000000; stroke-width: 0.8"/>
      </g>
     </g>
     <g id="text_3">
      <!-- 200 -->
      <g transform="translate(178.799143 266.598437)scale(0.1 -0.1)">
       <defs>
        <path id="DejaVuSans-32" d="M 1228 531 
L 3431 531 
L 3431 0 
L 469 0 
L 469 531 
Q 828 903 1448 1529 
Q 2069 2156 2228 2338 
Q 2531 2678 2651 2914 
Q 2772 3150 2772 3378 
Q 2772 3750 2511 3984 
Q 2250 4219 1831 4219 
Q 1534 4219 1204 4116 
Q 875 4013 500 3803 
L 500 4441 
Q 881 4594 1212 4672 
Q 1544 4750 1819 4750 
Q 2544 4750 2975 4387 
Q 3406 4025 3406 3419 
Q 3406 3131 3298 2873 
Q 3191 2616 2906 2266 
Q 2828 2175 2409 1742 
Q 1991 1309 1228 531 
z
" transform="scale(0.015625)"/>
       </defs>
       <use xlink:href="#DejaVuSans-32"/>
       <use xlink:href="#DejaVuSans-30" x="63.623047"/>
       <use xlink:href="#DejaVuSans-30" x="127.246094"/>
      </g>
     </g>
    </g>
    <g id="xtick_4">
     <g id="line2d_7">
      <path d="M 247.905248 252 
L 247.905248 34.56 
" clip-path="url(#p8cf175fe34)" style="fill: none; stroke: #b0b0b0; stroke-width: 0.8; stroke-linecap: square"/>
     </g>
     <g id="line2d_8">
      <g>
       <use xlink:href="#m4a7fa84f86" x="247.905248" y="252" style="stroke: #000000; stroke-width: 0.8"/>
      </g>
     </g>
     <g id="text_4">
      <!-- 300 -->
      <g transform="translate(238.361498 266.598437)scale(0.1 -0.1)">
       <defs>
        <path id="DejaVuSans-33" d="M 2597 2516 
Q 3050 2419 3304 2112 
Q 3559 1806 3559 1356 
Q 3559 666 3084 287 
Q 2609 -91 1734 -91 
Q 1441 -91 1130 -33 
Q 819 25 488 141 
L 488 750 
Q 750 597 1062 519 
Q 1375 441 1716 441 
Q 2309 441 2620 675 
Q 2931 909 2931 1356 
Q 2931 1769 2642 2001 
Q 2353 2234 1838 2234 
L 1294 2234 
L 1294 2753 
L 1863 2753 
Q 2328 2753 2575 2939 
Q 2822 3125 2822 3475 
Q 2822 3834 2567 4026 
Q 2313 4219 1838 4219 
Q 1578 4219 1281 4162 
Q 984 4106 628 3988 
L 628 4550 
Q 988 4650 1302 4700 
Q 1616 4750 1894 4750 
Q 2613 4750 3031 4423 
Q 3450 4097 3450 3541 
Q 3450 3153 3228 2886 
Q 3006 2619 2597 2516 
z
" transform="scale(0.015625)"/>
       </defs>
       <use xlink:href="#DejaVuSans-33"/>
       <use xlink:href="#DejaVuSans-30" x="63.623047"/>
       <use xlink:href="#DejaVuSans-30" x="127.246094"/>
      </g>
     </g>
    </g>
    <g id="xtick_5">
     <g id="line2d_9">
      <path d="M 307.467604 252 
L 307.467604 34.56 
" clip-path="url(#p8cf175fe34)" style="fill: none; stroke: #b0b0b0; stroke-width: 0.8; stroke-linecap: square"/>
     </g>
     <g id="line2d_10">
      <g>
       <use xlink:href="#m4a7fa84f86" x="307.467604" y="252" style="stroke: #000000; stroke-width: 0.8"/>
      </g>
     </g>
     <g id="text_5">
      <!-- 400 -->
      <g transform="translate(297.923854 266.598437)scale(0.1 -0.1)">
       <defs>
        <path id="DejaVuSans-34" d="M 2419 4116 
L 825 1625 
L 2419 1625 
L 2419 4116 
z
M 2253 4666 
L 3047 4666 
L 3047 1625 
L 3713 1625 
L 3713 1100 
L 3047 1100 
L 3047 0 
L 2419 0 
L 2419 1100 
L 313 1100 
L 313 1709 
L 2253 4666 
z
" transform="scale(0.015625)"/>
       </defs>
       <use xlink:href="#DejaVuSans-34"/>
       <use xlink:href="#DejaVuSans-30" x="63.623047"/>
       <use xlink:href="#DejaVuSans-30" x="127.246094"/>
      </g>
     </g>
    </g>
    <g id="xtick_6">
     <g id="line2d_11">
      <path d="M 367.029959 252 
L 367.029959 34.56 
" clip-path="url(#p8cf175fe34)" style="fill: none; stroke: #b0b0b0; stroke-width: 0.8; stroke-linecap: square"/>
     </g>
     <g id="line2d_12">
      <g>
       <use xlink:href="#m4a7fa84f86" x="367.029959" y="252" style="stroke: #000000; stroke-width: 0.8"/>
      </g>
     </g>
     <g id="text_6">
      <!-- 500 -->
      <g transform="translate(357.486209 266.598437)scale(0.1 -0.1)">
       <defs>
        <path id="DejaVuSans-35" d="M 691 4666 
L 3169 4666 
L 3169 4134 
L 1269 4134 
L 1269 2991 
Q 1406 3038 1543 3061 
Q 1681 3084 1819 3084 
Q 2600 3084 3056 2656 
Q 3513 2228 3513 1497 
Q 3513 744 3044 326 
Q 2575 -91 1722 -91 
Q 1428 -91 1123 -41 
Q 819 9 494 109 
L 494 744 
Q 775 591 1075 516 
Q 1375 441 1709 441 
Q 2250 441 2565 725 
Q 2881 1009 2881 1497 
Q 2881 1984 2565 2268 
Q 2250 2553 1709 2553 
Q 1456 2553 1204 2497 
Q 953 2441 691 2322 
L 691 4666 
z
" transform="scale(0.015625)"/>
       </defs>
       <use xlink:href="#DejaVuSans-35"/>
       <use xlink:href="#DejaVuSans-30" x="63.623047"/>
       <use xlink:href="#DejaVuSans-30" x="127.246094"/>
      </g>
     </g>
    </g>
    <g id="text_7">
     <!-- bin -->
     <g transform="translate(213.667969 280.276563)scale(0.1 -0.1)">
      <defs>
       <path id="DejaVuSans-62" d="M 3116 1747 
Q 3116 2381 2855 2742 
Q 2594 3103 2138 3103 
Q 1681 3103 1420 2742 
Q 1159 2381 1159 1747 
Q 1159 1113 1420 752 
Q 1681 391 2138 391 
Q 2594 391 2855 752 
Q 3116 1113 3116 1747 
z
M 1159 2969 
Q 1341 3281 1617 3432 
Q 1894 3584 2278 3584 
Q 2916 3584 3314 3078 
Q 3713 2572 3713 1747 
Q 3713 922 3314 415 
Q 2916 -91 2278 -91 
Q 1894 -91 1617 61 
Q 1341 213 1159 525 
L 1159 0 
L 581 0 
L 581 4863 
L 1159 4863 
L 1159 2969 
z
" transform="scale(0.015625)"/>
       <path id="DejaVuSans-69" d="M 603 3500 
L 1178 3500 
L 1178 0 
L 603 0 
L 603 3500 
z
M 603 4863 
L 1178 4863 
L 1178 4134 
L 603 4134 
L 603 4863 
z
" transform="scale(0.015625)"/>
       <path id="DejaVuSans-6e" d="M 3513 2113 
L 3513 0 
L 2938 0 
L 2938 2094 
Q 2938 2591 2744 2837 
Q 2550 3084 2163 3084 
Q 1697 3084 1428 2787 
Q 1159 2491 1159 1978 
L 1159 0 
L 581 0 
L 581 3500 
L 1159 3500 
L 1159 2956 
Q 1366 3272 1645 3428 
Q 1925 3584 2291 3584 
Q 2894 3584 3203 3211 
Q 3513 2838 3513 2113 
z
" transform="scale(0.015625)"/>
      </defs>
      <use xlink:href="#DejaVuSans-62"/>
      <use xlink:href="#DejaVuSans-69" x="63.476562"/>
      <use xlink:href="#DejaVuSans-6e" x="91.259766"/>
     </g>
    </g>
   </g>
   <g id="matplotlib.axis_2">
    <g id="ytick_1">
     <g id="line2d_13">
      <path d="M 54 252 
L 388.8 252 
" clip-path="url(#p8cf175fe34)" style="fill: none; stroke: #b0b0b0; stroke-width: 0.8; stroke-linecap: square"/>
     </g>
     <g id="line2d_14">
      <defs>
       <path id="m62835b205f" d="M 0 0 
L -3.5 0 
" style="stroke: #000000; stroke-width: 0.8"/>
      </defs>
      <g>
       <use xlink:href="#m62835b205f" x="54" y="252" style="stroke: #000000; stroke-width: 0.8"/>
      </g>
     </g>
     <g id="text_8">
      <!-- 0 -->
      <g transform="translate(40.6375 255.799219)scale(0.1 -0.1)">
       <use xlink:href="#DejaVuSans-30"/>
      </g>
     </g>
    </g>
    <g id="ytick_2">
     <g id="line2d_15">
      <path d="M 54 226.418824 
L 388.8 226.418824 
" clip-path="url(#p8cf175fe34)" style="fill: none; stroke: #b0b0b0; stroke-width: 0.8; stroke-linecap: square"/>
     </g>
     <g id="line2d_16">
      <g>
       <use xlink:href="#m62835b205f" x="54" y="226.418824" style="stroke: #000000; stroke-width: 0.8"/>
      </g>
     </g>
     <g id="text_9">
      <!-- 200 -->
      <g transform="translate(27.9125 230.218042)scale(0.1 -0.1)">
       <use xlink:href="#DejaVuSans-32"/>
       <use xlink:href="#DejaVuSans-30" x="63.623047"/>
       <use xlink:href="#DejaVuSans-30" x="127.246094"/>
      </g>
     </g>
    </g>
    <g id="ytick_3">
     <g id="line2d_17">
      <path d="M 54 200.837647 
L 388.8 200.837647 
" clip-path="url(#p8cf175fe34)" style="fill: none; stroke: #b0b0b0; stroke-width: 0.8; stroke-linecap: square"/>
     </g>
     <g id="line2d_18">
      <g>
       <use xlink:href="#m62835b205f" x="54" y="200.837647" style="stroke: #000000; stroke-width: 0.8"/>
      </g>
     </g>
     <g id="text_10">
      <!-- 400 -->
      <g transform="translate(27.9125 204.636866)scale(0.1 -0.1)">
       <use xlink:href="#DejaVuSans-34"/>
       <use xlink:href="#DejaVuSans-30" x="63.623047"/>
       <use xlink:href="#DejaVuSans-30" x="127.246094"/>
      </g>
     </g>
    </g>
    <g id="ytick_4">
     <g id="line2d_19">
      <path d="M 54 175.256471 
L 388.8 175.256471 
" clip-path="url(#p8cf175fe34)" style="fill: none; stroke: #b0b0b0; stroke-width: 0.8; stroke-linecap: square"/>
     </g>
     <g id="line2d_20">
      <g>
       <use xlink:href="#m62835b205f" x="54" y="175.256471" style="stroke: #000000; stroke-width: 0.8"/>
      </g>
     </g>
     <g id="text_11">
      <!-- 600 -->
      <g transform="translate(27.9125 179.055689)scale(0.1 -0.1)">
       <defs>
        <path id="DejaVuSans-36" d="M 2113 2584 
Q 1688 2584 1439 2293 
Q 1191 2003 1191 1497 
Q 1191 994 1439 701 
Q 1688 409 2113 409 
Q 2538 409 2786 701 
Q 3034 994 3034 1497 
Q 3034 2003 2786 2293 
Q 2538 2584 2113 2584 
z
M 3366 4563 
L 3366 3988 
Q 3128 4100 2886 4159 
Q 2644 4219 2406 4219 
Q 1781 4219 1451 3797 
Q 1122 3375 1075 2522 
Q 1259 2794 1537 2939 
Q 1816 3084 2150 3084 
Q 2853 3084 3261 2657 
Q 3669 2231 3669 1497 
Q 3669 778 3244 343 
Q 2819 -91 2113 -91 
Q 1303 -91 875 529 
Q 447 1150 447 2328 
Q 447 3434 972 4092 
Q 1497 4750 2381 4750 
Q 2619 4750 2861 4703 
Q 3103 4656 3366 4563 
z
" transform="scale(0.015625)"/>
       </defs>
       <use xlink:href="#DejaVuSans-36"/>
       <use xlink:href="#DejaVuSans-30" x="63.623047"/>
       <use xlink:href="#DejaVuSans-30" x="127.246094"/>
      </g>
     </g>
    </g>
    <g id="ytick_5">
     <g id="line2d_21">
      <path d="M 54 149.675294 
L 388.8 149.675294 
" clip-path="url(#p8cf175fe34)" style="fill: none; stroke: #b0b0b0; stroke-width: 0.8; stroke-linecap: square"/>
     </g>
     <g id="line2d_22">
      <g>
       <use xlink:href="#m62835b205f" x="54" y="149.675294" style="stroke: #000000; stroke-width: 0.8"/>
      </g>
     </g>
     <g id="text_12">
      <!-- 800 -->
      <g transform="translate(27.9125 153.474513)scale(0.1 -0.1)">
       <defs>
        <path id="DejaVuSans-38" d="M 2034 2216 
Q 1584 2216 1326 1975 
Q 1069 1734 1069 1313 
Q 1069 891 1326 650 
Q 1584 409 2034 409 
Q 2484 409 2743 651 
Q 3003 894 3003 1313 
Q 3003 1734 2745 1975 
Q 2488 2216 2034 2216 
z
M 1403 2484 
Q 997 2584 770 2862 
Q 544 3141 544 3541 
Q 544 4100 942 4425 
Q 1341 4750 2034 4750 
Q 2731 4750 3128 4425 
Q 3525 4100 3525 3541 
Q 3525 3141 3298 2862 
Q 3072 2584 2669 2484 
Q 3125 2378 3379 2068 
Q 3634 1759 3634 1313 
Q 3634 634 3220 271 
Q 2806 -91 2034 -91 
Q 1263 -91 848 271 
Q 434 634 434 1313 
Q 434 1759 690 2068 
Q 947 2378 1403 2484 
z
M 1172 3481 
Q 1172 3119 1398 2916 
Q 1625 2713 2034 2713 
Q 2441 2713 2670 2916 
Q 2900 3119 2900 3481 
Q 2900 3844 2670 4047 
Q 2441 4250 2034 4250 
Q 1625 4250 1398 4047 
Q 1172 3844 1172 3481 
z
" transform="scale(0.015625)"/>
       </defs>
       <use xlink:href="#DejaVuSans-38"/>
       <use xlink:href="#DejaVuSans-30" x="63.623047"/>
       <use xlink:href="#DejaVuSans-30" x="127.246094"/>
      </g>
     </g>
    </g>
    <g id="ytick_6">
     <g id="line2d_23">
      <path d="M 54 124.094118 
L 388.8 124.094118 
" clip-path="url(#p8cf175fe34)" style="fill: none; stroke: #b0b0b0; stroke-width: 0.8; stroke-linecap: square"/>
     </g>
     <g id="line2d_24">
      <g>
       <use xlink:href="#m62835b205f" x="54" y="124.094118" style="stroke: #000000; stroke-width: 0.8"/>
      </g>
     </g>
     <g id="text_13">
      <!-- 1000 -->
      <g transform="translate(21.55 127.893336)scale(0.1 -0.1)">
       <use xlink:href="#DejaVuSans-31"/>
       <use xlink:href="#DejaVuSans-30" x="63.623047"/>
       <use xlink:href="#DejaVuSans-30" x="127.246094"/>
       <use xlink:href="#DejaVuSans-30" x="190.869141"/>
      </g>
     </g>
    </g>
    <g id="ytick_7">
     <g id="line2d_25">
      <path d="M 54 98.512941 
L 388.8 98.512941 
" clip-path="url(#p8cf175fe34)" style="fill: none; stroke: #b0b0b0; stroke-width: 0.8; stroke-linecap: square"/>
     </g>
     <g id="line2d_26">
      <g>
       <use xlink:href="#m62835b205f" x="54" y="98.512941" style="stroke: #000000; stroke-width: 0.8"/>
      </g>
     </g>
     <g id="text_14">
      <!-- 1200 -->
      <g transform="translate(21.55 102.31216)scale(0.1 -0.1)">
       <use xlink:href="#DejaVuSans-31"/>
       <use xlink:href="#DejaVuSans-32" x="63.623047"/>
       <use xlink:href="#DejaVuSans-30" x="127.246094"/>
       <use xlink:href="#DejaVuSans-30" x="190.869141"/>
      </g>
     </g>
    </g>
    <g id="ytick_8">
     <g id="line2d_27">
      <path d="M 54 72.931765 
L 388.8 72.931765 
" clip-path="url(#p8cf175fe34)" style="fill: none; stroke: #b0b0b0; stroke-width: 0.8; stroke-linecap: square"/>
     </g>
     <g id="line2d_28">
      <g>
       <use xlink:href="#m62835b205f" x="54" y="72.931765" style="stroke: #000000; stroke-width: 0.8"/>
      </g>
     </g>
     <g id="text_15">
      <!-- 1400 -->
      <g transform="translate(21.55 76.730983)scale(0.1 -0.1)">
       <use xlink:href="#DejaVuSans-31"/>
       <use xlink:href="#DejaVuSans-34" x="63.623047"/>
       <use xlink:href="#DejaVuSans-30" x="127.246094"/>
       <use xlink:href="#DejaVuSans-30" x="190.869141"/>
      </g>
     </g>
    </g>
    <g id="ytick_9">
     <g id="line2d_29">
      <path d="M 54 47.350588 
L 388.8 47.350588 
" clip-path="url(#p8cf175fe34)" style="fill: none; stroke: #b0b0b0; stroke-width: 0.8; stroke-linecap: square"/>
     </g>
     <g id="line2d_30">
      <g>
       <use xlink:href="#m62835b205f" x="54" y="47.350588" style="stroke: #000000; stroke-width: 0.8"/>
      </g>
     </g>
     <g id="text_16">
      <!-- 1600 -->
      <g transform="translate(21.55 51.149807)scale(0.1 -0.1)">
       <use xlink:href="#DejaVuSans-31"/>
       <use xlink:href="#DejaVuSans-36" x="63.623047"/>
       <use xlink:href="#DejaVuSans-30" x="127.246094"/>
       <use xlink:href="#DejaVuSans-30" x="190.869141"/>
      </g>
     </g>
    </g>
    <g id="text_17">
     <!-- count -->
     <g transform="translate(15.470312 157.38625)rotate(-90)scale(0.1 -0.1)">
      <defs>
       <path id="DejaVuSans-63" d="M 3122 3366 
L 3122 2828 
Q 2878 2963 2633 3030 
Q 2388 3097 2138 3097 
Q 1578 3097 1268 2742 
Q 959 2388 959 1747 
Q 959 1106 1268 751 
Q 1578 397 2138 397 
Q 2388 397 2633 464 
Q 2878 531 3122 666 
L 3122 134 
Q 2881 22 2623 -34 
Q 2366 -91 2075 -91 
Q 1284 -91 818 406 
Q 353 903 353 1747 
Q 353 2603 823 3093 
Q 1294 3584 2113 3584 
Q 2378 3584 2631 3529 
Q 2884 3475 3122 3366 
z
" transform="scale(0.015625)"/>
       <path id="DejaVuSans-6f" d="M 1959 3097 
Q 1497 3097 1228 2736 
Q 959 2375 959 1747 
Q 959 1119 1226 758 
Q 1494 397 1959 397 
Q 2419 397 2687 759 
Q 2956 1122 2956 1747 
Q 2956 2369 2687 2733 
Q 2419 3097 1959 3097 
z
M 1959 3584 
Q 2709 3584 3137 3096 
Q 3566 2609 3566 1747 
Q 3566 888 3137 398 
Q 2709 -91 1959 -91 
Q 1206 -91 779 398 
Q 353 888 353 1747 
Q 353 2609 779 3096 
Q 1206 3584 1959 3584 
z
" transform="scale(0.015625)"/>
       <path id="DejaVuSans-75" d="M 544 1381 
L 544 3500 
L 1119 3500 
L 1119 1403 
Q 1119 906 1312 657 
Q 1506 409 1894 409 
Q 2359 409 2629 706 
Q 2900 1003 2900 1516 
L 2900 3500 
L 3475 3500 
L 3475 0 
L 2900 0 
L 2900 538 
Q 2691 219 2414 64 
Q 2138 -91 1772 -91 
Q 1169 -91 856 284 
Q 544 659 544 1381 
z
M 1991 3584 
L 1991 3584 
z
" transform="scale(0.015625)"/>
       <path id="DejaVuSans-74" d="M 1172 4494 
L 1172 3500 
L 2356 3500 
L 2356 3053 
L 1172 3053 
L 1172 1153 
Q 1172 725 1289 603 
Q 1406 481 1766 481 
L 2356 481 
L 2356 0 
L 1766 0 
Q 1100 0 847 248 
Q 594 497 594 1153 
L 594 3053 
L 172 3053 
L 172 3500 
L 594 3500 
L 594 4494 
L 1172 4494 
z
" transform="scale(0.015625)"/>
      </defs>
      <use xlink:href="#DejaVuSans-63"/>
      <use xlink:href="#DejaVuSans-6f" x="54.980469"/>
      <use xlink:href="#DejaVuSans-75" x="116.162109"/>
      <use xlink:href="#DejaVuSans-6e" x="179.541016"/>
      <use xlink:href="#DejaVuSans-74" x="242.919922"/>
     </g>
    </g>
   </g>
   <g id="line2d_31">
    <path d="M 69.218182 246.500047 
L 69.813805 245.093082 
L 70.409429 246.627953 
L 71.005052 245.220988 
L 71.600676 245.4768 
L 72.1963 245.604706 
L 72.791923 245.4768 
L 73.387547 245.860518 
L 73.98317 245.860518 
L 74.578794 246.372141 
L 75.174417 246.116329 
L 75.770041 246.372141 
L 76.961288 243.558212 
L 77.556912 247.139576 
L 78.152535 246.883765 
L 78.748159 244.709365 
L 79.343782 247.523294 
L 79.939406 245.4768 
L 80.535029 244.581459 
L 81.130653 246.500047 
L 81.726276 244.581459 
L 82.3219 245.988424 
L 82.917524 247.011671 
L 83.513147 246.372141 
L 84.108771 246.627953 
L 84.704394 246.755859 
L 85.895641 244.453553 
L 86.491265 245.220988 
L 87.086888 244.965176 
L 87.682512 246.500047 
L 88.278136 245.604706 
L 88.873759 246.244235 
L 89.469383 246.627953 
L 90.065006 244.837271 
L 90.66063 245.860518 
L 91.256253 244.325647 
L 91.851877 244.069835 
L 92.4475 243.686118 
L 93.043124 247.011671 
L 93.638748 244.581459 
L 94.234371 245.093082 
L 94.829995 245.348894 
L 95.425618 245.732612 
L 96.021242 246.755859 
L 96.616865 246.627953 
L 97.212489 245.860518 
L 97.808112 245.732612 
L 98.403736 245.4768 
L 98.99936 246.244235 
L 99.594983 245.604706 
L 100.190607 245.860518 
L 100.78623 244.069835 
L 101.381854 244.325647 
L 101.977477 246.116329 
L 102.573101 244.709365 
L 103.168724 246.500047 
L 103.764348 245.093082 
L 104.359972 245.988424 
L 104.955595 245.988424 
L 106.146842 245.093082 
L 106.742466 246.755859 
L 107.338089 247.6512 
L 107.933713 247.267482 
L 108.529336 245.604706 
L 109.12496 245.220988 
L 109.720584 246.500047 
L 110.316207 246.244235 
L 110.911831 244.837271 
L 111.507454 245.988424 
L 112.103078 246.627953 
L 112.698701 246.372141 
L 113.294325 244.709365 
L 113.889948 246.244235 
L 114.485572 245.093082 
L 115.081196 244.837271 
L 115.676819 245.4768 
L 116.272443 245.220988 
L 116.868066 244.837271 
L 117.46369 245.732612 
L 118.059313 245.988424 
L 118.654937 244.837271 
L 119.25056 246.500047 
L 119.846184 246.372141 
L 120.441808 245.093082 
L 121.037431 245.348894 
L 121.633055 245.732612 
L 122.228678 245.4768 
L 122.824302 245.093082 
L 123.419925 245.093082 
L 124.015549 245.860518 
L 124.611172 246.883765 
L 125.206796 246.500047 
L 125.802419 245.093082 
L 126.398043 246.116329 
L 126.993667 245.860518 
L 127.58929 245.860518 
L 128.184914 244.581459 
L 128.780537 245.732612 
L 129.376161 245.604706 
L 129.971784 244.709365 
L 130.567408 245.4768 
L 131.163031 244.965176 
L 131.758655 247.267482 
L 132.354279 244.197741 
L 132.949902 246.244235 
L 133.545526 244.581459 
L 134.141149 246.627953 
L 134.736773 245.732612 
L 135.332396 246.500047 
L 135.92802 245.732612 
L 136.523643 245.988424 
L 137.714891 246.755859 
L 138.310514 246.755859 
L 138.906138 247.011671 
L 139.501761 244.581459 
L 140.097385 246.372141 
L 140.693008 245.860518 
L 141.288632 246.116329 
L 141.884255 246.883765 
L 142.479879 245.988424 
L 143.075503 245.348894 
L 143.671126 245.988424 
L 144.26675 245.348894 
L 144.862373 246.372141 
L 146.05362 245.732612 
L 146.649244 244.837271 
L 147.244867 247.011671 
L 147.840491 245.348894 
L 148.436115 245.093082 
L 149.031738 246.116329 
L 149.627362 245.4768 
L 150.222985 247.395388 
L 150.818609 246.372141 
L 151.414232 247.395388 
L 152.009856 245.732612 
L 152.605479 246.116329 
L 153.201103 244.965176 
L 153.796727 245.604706 
L 154.39235 245.4768 
L 154.987974 243.174494 
L 155.583597 245.604706 
L 156.179221 243.941929 
L 156.774844 245.093082 
L 157.370468 245.4768 
L 157.966091 246.627953 
L 159.157339 245.4768 
L 159.752962 245.4768 
L 160.348586 245.604706 
L 160.944209 244.965176 
L 161.539833 244.069835 
L 162.135456 246.116329 
L 162.73108 245.093082 
L 163.326703 244.837271 
L 163.922327 245.093082 
L 165.113574 246.244235 
L 165.709198 246.755859 
L 166.900445 245.348894 
L 167.496068 246.883765 
L 168.091692 245.348894 
L 168.687315 244.965176 
L 169.282939 246.500047 
L 169.878563 245.988424 
L 170.474186 245.093082 
L 171.06981 245.988424 
L 171.665433 244.837271 
L 172.261057 246.627953 
L 172.85668 245.220988 
L 173.452304 246.883765 
L 174.047927 244.709365 
L 174.643551 246.372141 
L 175.239175 245.348894 
L 175.834798 245.093082 
L 176.430422 246.244235 
L 177.026045 246.500047 
L 177.621669 245.220988 
L 178.217292 247.395388 
L 178.812916 247.011671 
L 179.408539 245.348894 
L 180.004163 246.116329 
L 180.599787 244.581459 
L 181.19541 245.988424 
L 181.791034 245.860518 
L 182.386657 245.093082 
L 182.982281 246.244235 
L 183.577904 245.860518 
L 184.173528 245.093082 
L 184.769151 246.244235 
L 185.364775 245.220988 
L 185.960399 246.116329 
L 186.556022 245.732612 
L 187.151646 245.604706 
L 187.747269 245.348894 
L 188.342893 246.116329 
L 188.938516 247.395388 
L 189.53414 246.116329 
L 190.725387 247.011671 
L 191.32101 244.453553 
L 191.916634 245.348894 
L 192.512258 245.732612 
L 194.299128 245.348894 
L 194.894752 245.4768 
L 195.490375 244.581459 
L 196.085999 242.918682 
L 196.681622 238.441976 
L 197.277246 237.546635 
L 197.87287 227.186259 
L 198.468493 222.709553 
L 199.064117 216.442165 
L 199.65974 215.546824 
L 200.255364 206.593412 
L 200.850987 211.070118 
L 201.446611 213.500329 
L 202.637858 223.093271 
L 203.233482 232.814118 
L 203.829105 235.116424 
L 204.424729 241.511718 
L 205.020352 242.151247 
L 205.615976 243.558212 
L 206.211599 245.732612 
L 206.807223 245.604706 
L 207.402846 245.988424 
L 207.99847 245.220988 
L 209.189717 246.627953 
L 209.785341 246.500047 
L 210.380964 244.965176 
L 210.976588 245.988424 
L 211.572211 246.244235 
L 212.763458 245.093082 
L 213.359082 247.267482 
L 213.954706 245.604706 
L 214.550329 245.220988 
L 215.145953 245.604706 
L 215.741576 248.674447 
L 216.3372 244.453553 
L 216.932823 245.732612 
L 217.528447 244.709365 
L 218.12407 244.965176 
L 218.719694 247.011671 
L 219.315318 243.941929 
L 219.910941 244.325647 
L 220.506565 243.174494 
L 221.697812 244.581459 
L 222.293435 241.511718 
L 222.889059 243.686118 
L 223.484682 244.581459 
L 224.080306 242.023341 
L 224.67593 241.128 
L 225.271553 242.918682 
L 225.867177 243.174494 
L 226.4628 244.837271 
L 227.058424 243.558212 
L 227.654047 244.837271 
L 229.440918 243.558212 
L 230.036542 244.837271 
L 230.632165 244.197741 
L 231.227789 244.197741 
L 231.823412 244.453553 
L 232.419036 246.244235 
L 233.610283 246.755859 
L 234.205906 246.244235 
L 234.80153 245.348894 
L 235.397154 245.988424 
L 235.992777 246.244235 
L 236.588401 246.755859 
L 237.184024 245.4768 
L 237.779648 245.220988 
L 238.375271 245.348894 
L 238.970895 245.860518 
L 239.566518 246.627953 
L 240.162142 243.941929 
L 240.757766 246.627953 
L 241.353389 247.6512 
L 241.949013 244.197741 
L 242.544636 244.069835 
L 243.735883 245.220988 
L 244.331507 245.348894 
L 245.522754 247.139576 
L 246.118378 245.604706 
L 246.714001 246.627953 
L 247.309625 246.500047 
L 247.905248 245.860518 
L 248.500872 244.581459 
L 249.096495 245.348894 
L 249.692119 245.860518 
L 250.287742 247.6512 
L 250.883366 245.604706 
L 251.47899 247.139576 
L 252.074613 246.372141 
L 252.670237 244.581459 
L 253.26586 245.860518 
L 253.861484 246.244235 
L 255.052731 243.814024 
L 255.648354 245.988424 
L 256.243978 246.372141 
L 256.839601 246.244235 
L 257.435225 246.372141 
L 258.030849 244.581459 
L 258.626472 245.348894 
L 259.222096 246.627953 
L 259.817719 246.116329 
L 260.413343 244.837271 
L 261.008966 245.604706 
L 261.60459 244.325647 
L 262.200213 245.860518 
L 262.795837 247.011671 
L 263.391461 245.860518 
L 263.987084 246.116329 
L 264.582708 245.988424 
L 265.178331 244.581459 
L 265.773955 247.267482 
L 266.369578 245.732612 
L 266.965202 245.732612 
L 268.156449 246.883765 
L 268.752073 246.500047 
L 269.94332 244.453553 
L 270.538943 245.4768 
L 271.134567 245.988424 
L 271.73019 245.860518 
L 272.325814 246.627953 
L 272.921437 245.4768 
L 273.517061 245.4768 
L 274.112685 245.732612 
L 274.708308 246.372141 
L 275.303932 245.4768 
L 275.899555 244.069835 
L 276.495179 244.965176 
L 277.090802 246.116329 
L 277.686426 245.093082 
L 278.282049 244.965176 
L 278.877673 245.988424 
L 279.473297 246.627953 
L 280.06892 246.755859 
L 280.664544 245.860518 
L 281.260167 246.883765 
L 282.451414 244.709365 
L 283.047038 244.069835 
L 283.642661 247.139576 
L 284.238285 244.197741 
L 284.833909 246.244235 
L 285.429532 245.732612 
L 286.025156 246.500047 
L 286.620779 246.883765 
L 287.216403 243.814024 
L 287.812026 246.372141 
L 288.40765 245.348894 
L 289.003273 246.116329 
L 289.598897 245.604706 
L 290.790144 246.500047 
L 291.385768 245.4768 
L 291.981391 247.011671 
L 292.577015 246.244235 
L 293.172638 247.395388 
L 293.768262 245.4768 
L 294.363885 246.244235 
L 294.959509 245.220988 
L 295.555133 245.220988 
L 296.150756 246.500047 
L 296.74638 245.348894 
L 297.342003 246.500047 
L 297.937627 245.348894 
L 298.53325 246.755859 
L 299.128874 245.4768 
L 299.724497 246.755859 
L 300.320121 247.395388 
L 300.915745 245.860518 
L 301.511368 246.244235 
L 302.106992 245.732612 
L 302.702615 247.267482 
L 303.298239 245.348894 
L 303.893862 246.372141 
L 304.489486 244.581459 
L 305.085109 244.965176 
L 305.680733 245.988424 
L 306.276357 245.220988 
L 306.87198 247.011671 
L 307.467604 246.372141 
L 308.063227 244.965176 
L 308.658851 245.220988 
L 309.254474 244.581459 
L 309.850098 243.558212 
L 310.445721 245.988424 
L 311.041345 247.779106 
L 311.636969 246.116329 
L 312.232592 245.4768 
L 312.828216 245.220988 
L 313.423839 246.627953 
L 314.019463 244.837271 
L 314.615086 245.604706 
L 315.21071 247.267482 
L 315.806333 245.988424 
L 316.401957 246.372141 
L 317.593204 245.220988 
L 318.188828 245.4768 
L 318.784451 245.860518 
L 319.380075 245.860518 
L 319.975698 244.837271 
L 320.571322 247.395388 
L 321.166945 245.732612 
L 321.762569 245.732612 
L 322.358192 247.267482 
L 322.953816 245.4768 
L 323.54944 245.093082 
L 324.145063 246.372141 
L 325.33631 247.907012 
L 325.931934 245.604706 
L 326.527557 244.837271 
L 327.123181 245.860518 
L 327.718804 245.604706 
L 328.314428 245.220988 
L 328.910052 244.581459 
L 330.101299 247.267482 
L 330.696922 247.139576 
L 331.292546 246.755859 
L 331.888169 246.755859 
L 332.483793 245.4768 
L 333.079416 245.348894 
L 333.67504 245.348894 
L 334.270664 246.372141 
L 334.866287 245.348894 
L 335.461911 245.988424 
L 336.057534 243.558212 
L 336.653158 245.732612 
L 337.248781 245.604706 
L 338.440028 246.500047 
L 339.035652 245.220988 
L 339.631276 246.500047 
L 340.226899 246.116329 
L 340.822523 246.500047 
L 341.418146 246.372141 
L 342.01377 244.837271 
L 342.609393 246.755859 
L 343.80064 244.581459 
L 344.396264 245.348894 
L 344.991888 244.709365 
L 345.587511 244.837271 
L 346.778758 244.837271 
L 347.374382 245.732612 
L 347.970005 246.372141 
L 348.565629 243.046588 
L 349.161252 243.046588 
L 349.756876 246.627953 
L 350.3525 245.220988 
L 350.948123 246.627953 
L 351.543747 245.988424 
L 352.13937 244.453553 
L 352.734994 245.220988 
L 353.330617 246.500047 
L 353.926241 245.348894 
L 354.521864 245.988424 
L 355.117488 244.709365 
L 355.713112 246.627953 
L 356.308735 245.988424 
L 356.904359 244.965176 
L 357.499982 244.197741 
L 358.095606 244.069835 
L 358.691229 245.732612 
L 359.286853 245.860518 
L 359.882476 247.011671 
L 360.4781 247.395388 
L 361.073724 245.604706 
L 361.669347 244.837271 
L 362.264971 246.116329 
L 362.860594 242.790776 
L 363.456218 244.837271 
L 364.051841 245.093082 
L 364.647465 245.860518 
L 365.243088 247.267482 
L 365.838712 245.732612 
L 366.434336 244.709365 
L 367.029959 245.4768 
L 367.625583 244.197741 
L 368.221206 245.4768 
L 368.81683 245.860518 
L 369.412453 246.627953 
L 370.008077 246.244235 
L 371.199324 244.325647 
L 372.390571 245.348894 
L 372.986195 246.627953 
L 373.581818 246.500047 
L 373.581818 246.500047 
" clip-path="url(#p8cf175fe34)" style="fill: none; stroke: #1f77b4; stroke-width: 1.5; stroke-linecap: square"/>
   </g>
   <g id="line2d_32">
    <path d="M 69.218182 232.558306 
L 69.813805 236.7792 
L 70.409429 233.197835 
L 71.005052 236.7792 
L 71.600676 233.197835 
L 72.1963 235.244329 
L 72.791923 233.453647 
L 73.387547 235.628047 
L 73.98317 232.942024 
L 74.578794 232.4304 
L 75.174417 234.860612 
L 75.770041 233.453647 
L 76.365664 234.093176 
L 76.961288 236.139671 
L 77.556912 234.6048 
L 78.152535 234.221082 
L 78.748159 231.790871 
L 79.343782 234.732706 
L 79.939406 232.302494 
L 80.535029 233.069929 
L 81.130653 236.7792 
L 81.726276 235.244329 
L 82.3219 234.988518 
L 82.917524 235.883859 
L 83.513147 236.523388 
L 84.108771 233.965271 
L 84.704394 234.476894 
L 85.300018 233.069929 
L 85.895641 235.628047 
L 86.491265 233.965271 
L 87.086888 233.197835 
L 87.682512 235.244329 
L 88.278136 233.197835 
L 88.873759 235.116424 
L 89.469383 233.197835 
L 90.065006 235.755953 
L 90.66063 234.6048 
L 91.256253 236.907106 
L 91.851877 232.302494 
L 92.4475 235.628047 
L 93.043124 233.581553 
L 93.638748 235.372235 
L 94.234371 232.814118 
L 94.829995 236.651294 
L 95.425618 233.965271 
L 96.021242 234.860612 
L 96.616865 233.965271 
L 97.212489 233.325741 
L 97.808112 232.942024 
L 98.403736 235.116424 
L 98.99936 234.732706 
L 100.190607 231.918776 
L 100.78623 233.837365 
L 101.381854 233.965271 
L 101.977477 234.860612 
L 102.573101 234.348988 
L 103.168724 235.116424 
L 103.764348 234.476894 
L 104.359972 235.116424 
L 104.955595 236.011765 
L 105.551219 237.418729 
L 106.146842 235.500141 
L 106.742466 235.628047 
L 107.338089 235.883859 
L 107.933713 231.535059 
L 108.529336 234.860612 
L 109.12496 233.069929 
L 109.720584 234.093176 
L 110.316207 233.197835 
L 110.911831 233.581553 
L 111.507454 235.372235 
L 112.103078 235.628047 
L 112.698701 231.918776 
L 113.294325 236.395482 
L 113.889948 233.837365 
L 114.485572 232.4304 
L 115.081196 234.860612 
L 115.676819 234.732706 
L 116.272443 235.244329 
L 116.868066 234.860612 
L 117.46369 235.116424 
L 118.059313 233.453647 
L 118.654937 233.197835 
L 119.25056 234.476894 
L 119.846184 234.732706 
L 120.441808 235.628047 
L 121.037431 236.011765 
L 121.633055 235.244329 
L 122.228678 231.279247 
L 122.824302 233.069929 
L 123.419925 235.755953 
L 124.015549 234.732706 
L 124.611172 230.000188 
L 125.206796 235.372235 
L 125.802419 232.302494 
L 126.398043 235.500141 
L 126.993667 235.372235 
L 127.58929 231.279247 
L 128.184914 234.348988 
L 128.780537 232.302494 
L 129.376161 234.476894 
L 129.971784 234.093176 
L 130.567408 233.069929 
L 131.163031 232.4304 
L 131.758655 234.732706 
L 132.354279 235.755953 
L 132.949902 232.174588 
L 133.545526 233.325741 
L 134.141149 235.628047 
L 135.332396 231.279247 
L 135.92802 235.883859 
L 136.523643 235.244329 
L 137.119267 234.348988 
L 137.714891 234.988518 
L 138.906138 233.709459 
L 139.501761 235.116424 
L 140.097385 233.581553 
L 140.693008 233.709459 
L 141.288632 235.116424 
L 141.884255 234.093176 
L 142.479879 234.093176 
L 143.075503 233.709459 
L 144.26675 235.755953 
L 144.862373 235.755953 
L 145.457997 233.581553 
L 146.05362 234.6048 
L 146.649244 234.6048 
L 147.244867 235.372235 
L 147.840491 235.116424 
L 148.436115 235.244329 
L 149.031738 234.732706 
L 149.627362 235.755953 
L 150.222985 235.500141 
L 150.818609 234.988518 
L 151.414232 234.860612 
L 152.009856 234.348988 
L 152.605479 230.767624 
L 153.201103 236.523388 
L 153.796727 231.790871 
L 154.39235 233.837365 
L 154.987974 234.988518 
L 155.583597 234.476894 
L 156.179221 234.221082 
L 156.774844 234.732706 
L 157.370468 232.686212 
L 157.966091 234.860612 
L 158.561715 233.709459 
L 159.157339 232.174588 
L 159.752962 234.348988 
L 160.348586 237.162918 
L 160.944209 233.965271 
L 161.539833 233.581553 
L 162.135456 234.221082 
L 162.73108 232.558306 
L 163.326703 235.372235 
L 163.922327 231.918776 
L 164.517951 231.535059 
L 165.113574 233.197835 
L 165.709198 235.500141 
L 166.304821 235.628047 
L 166.900445 232.558306 
L 167.496068 235.244329 
L 168.091692 234.221082 
L 168.687315 232.046682 
L 169.282939 234.476894 
L 169.878563 234.221082 
L 170.474186 235.755953 
L 171.06981 233.709459 
L 171.665433 235.883859 
L 172.261057 232.174588 
L 172.85668 235.372235 
L 173.452304 234.476894 
L 174.643551 234.732706 
L 175.239175 235.883859 
L 175.834798 232.942024 
L 176.430422 237.674541 
L 177.026045 236.139671 
L 177.621669 235.883859 
L 178.217292 234.476894 
L 178.812916 233.837365 
L 179.408539 234.221082 
L 180.004163 235.372235 
L 180.599787 234.860612 
L 181.19541 233.837365 
L 181.791034 234.6048 
L 182.386657 234.476894 
L 182.982281 233.325741 
L 183.577904 235.628047 
L 184.173528 234.860612 
L 184.769151 235.628047 
L 185.364775 235.628047 
L 185.960399 233.325741 
L 187.151646 235.244329 
L 187.747269 233.453647 
L 188.342893 232.686212 
L 188.938516 232.942024 
L 189.53414 236.011765 
L 190.725387 233.069929 
L 191.32101 235.883859 
L 191.916634 233.837365 
L 192.512258 234.093176 
L 193.107881 232.302494 
L 193.703505 236.523388 
L 194.299128 233.965271 
L 194.894752 235.628047 
L 195.490375 233.581553 
L 196.085999 234.221082 
L 196.681622 237.035012 
L 197.277246 233.837365 
L 197.87287 233.709459 
L 198.468493 234.732706 
L 199.064117 236.139671 
L 199.65974 235.244329 
L 200.255364 235.883859 
L 200.850987 232.174588 
L 201.446611 234.732706 
L 202.042234 237.930353 
L 202.637858 234.348988 
L 203.233482 233.197835 
L 203.829105 234.476894 
L 204.424729 236.139671 
L 205.020352 230.895529 
L 206.211599 233.069929 
L 206.807223 235.500141 
L 207.402846 235.755953 
L 207.99847 233.965271 
L 209.189717 233.069929 
L 209.785341 234.221082 
L 210.380964 229.232753 
L 210.976588 231.151341 
L 211.572211 222.581647 
L 212.167835 216.570071 
L 213.359082 189.581929 
L 213.954706 181.268047 
L 215.145953 142.256753 
L 215.741576 141.361412 
L 216.3372 144.942776 
L 216.932823 146.221835 
L 218.12407 179.349459 
L 218.719694 195.4656 
L 219.315318 205.442259 
L 219.910941 219.895624 
L 220.506565 227.953694 
L 221.102188 227.186259 
L 221.697812 230.639718 
L 222.293435 230.895529 
L 223.484682 235.500141 
L 224.080306 236.651294 
L 224.67593 237.546635 
L 225.867177 233.965271 
L 227.058424 233.453647 
L 227.654047 233.453647 
L 228.249671 231.535059 
L 228.845294 235.116424 
L 229.440918 235.883859 
L 230.036542 234.6048 
L 230.632165 233.837365 
L 231.227789 231.279247 
L 231.823412 234.6048 
L 232.419036 233.709459 
L 233.014659 235.500141 
L 233.610283 232.558306 
L 234.205906 234.093176 
L 235.397154 231.407153 
L 235.992777 233.325741 
L 236.588401 228.721129 
L 237.184024 230.511812 
L 237.779648 229.488565 
L 238.375271 225.779294 
L 238.970895 232.302494 
L 240.162142 226.418824 
L 240.757766 227.186259 
L 241.353389 227.697882 
L 241.949013 228.849035 
L 242.544636 227.442071 
L 243.735883 231.151341 
L 244.331507 230.000188 
L 245.522754 236.267576 
L 246.118378 230.256 
L 246.714001 232.558306 
L 247.309625 232.686212 
L 247.905248 234.476894 
L 248.500872 231.918776 
L 249.096495 233.197835 
L 249.692119 231.662965 
L 250.287742 235.244329 
L 250.883366 232.686212 
L 251.47899 232.686212 
L 252.074613 234.860612 
L 252.670237 232.046682 
L 253.861484 235.500141 
L 254.457107 232.814118 
L 255.052731 236.395482 
L 255.648354 233.581553 
L 256.243978 233.837365 
L 256.839601 232.558306 
L 257.435225 233.709459 
L 258.030849 233.965271 
L 258.626472 234.348988 
L 259.222096 233.197835 
L 259.817719 234.732706 
L 260.413343 235.500141 
L 261.008966 232.174588 
L 261.60459 236.011765 
L 262.200213 236.139671 
L 262.795837 234.860612 
L 263.391461 234.860612 
L 263.987084 234.348988 
L 264.582708 236.139671 
L 265.178331 233.837365 
L 265.773955 234.476894 
L 266.369578 233.581553 
L 266.965202 237.290824 
L 267.560825 232.046682 
L 268.156449 234.221082 
L 268.752073 233.453647 
L 269.347696 234.093176 
L 269.94332 233.837365 
L 270.538943 235.116424 
L 271.134567 232.686212 
L 271.73019 234.221082 
L 272.325814 233.581553 
L 272.921437 233.709459 
L 273.517061 232.302494 
L 274.112685 232.686212 
L 274.708308 231.407153 
L 275.303932 236.011765 
L 275.899555 234.093176 
L 276.495179 236.139671 
L 277.090802 235.500141 
L 277.686426 233.581553 
L 278.282049 231.151341 
L 278.877673 232.302494 
L 279.473297 232.814118 
L 280.06892 235.244329 
L 281.260167 235.500141 
L 281.855791 236.139671 
L 282.451414 233.453647 
L 283.047038 235.755953 
L 283.642661 233.837365 
L 284.238285 235.372235 
L 284.833909 234.221082 
L 285.429532 234.221082 
L 286.025156 233.709459 
L 286.620779 237.802447 
L 287.216403 233.965271 
L 287.812026 233.581553 
L 288.40765 236.523388 
L 289.003273 235.883859 
L 289.598897 233.709459 
L 290.194521 233.197835 
L 290.790144 232.4304 
L 291.385768 234.476894 
L 291.981391 235.883859 
L 292.577015 233.837365 
L 293.172638 234.476894 
L 293.768262 234.860612 
L 294.363885 234.476894 
L 294.959509 233.581553 
L 295.555133 234.860612 
L 296.150756 236.523388 
L 296.74638 235.500141 
L 297.342003 233.581553 
L 297.937627 235.372235 
L 298.53325 236.7792 
L 299.128874 233.837365 
L 299.724497 236.651294 
L 300.320121 231.918776 
L 300.915745 232.814118 
L 301.511368 234.093176 
L 302.106992 233.837365 
L 302.702615 232.814118 
L 303.298239 235.500141 
L 303.893862 235.116424 
L 304.489486 233.197835 
L 305.085109 234.093176 
L 305.680733 233.965271 
L 306.276357 236.139671 
L 306.87198 234.476894 
L 307.467604 234.6048 
L 308.063227 232.942024 
L 308.658851 234.6048 
L 309.254474 234.732706 
L 309.850098 233.453647 
L 310.445721 235.883859 
L 311.041345 234.860612 
L 311.636969 232.558306 
L 312.232592 233.325741 
L 313.423839 232.174588 
L 314.019463 232.686212 
L 314.615086 235.500141 
L 315.21071 234.476894 
L 315.806333 232.814118 
L 316.401957 231.918776 
L 316.997581 232.302494 
L 317.593204 233.581553 
L 318.188828 233.581553 
L 318.784451 236.651294 
L 319.380075 233.837365 
L 319.975698 234.988518 
L 320.571322 236.523388 
L 321.166945 231.662965 
L 321.762569 234.732706 
L 322.953816 233.325741 
L 323.54944 233.837365 
L 324.145063 232.942024 
L 324.740687 233.965271 
L 325.33631 235.372235 
L 325.931934 236.395482 
L 326.527557 232.046682 
L 327.123181 234.093176 
L 327.718804 237.035012 
L 328.314428 236.011765 
L 328.910052 232.302494 
L 329.505675 234.221082 
L 330.101299 234.988518 
L 330.696922 233.197835 
L 331.292546 230.639718 
L 331.888169 233.325741 
L 332.483793 234.221082 
L 333.079416 234.860612 
L 333.67504 232.814118 
L 334.270664 236.267576 
L 334.866287 233.965271 
L 335.461911 232.4304 
L 336.057534 235.116424 
L 336.653158 231.790871 
L 337.248781 236.139671 
L 337.844405 234.221082 
L 338.440028 233.709459 
L 339.035652 234.093176 
L 340.226899 232.046682 
L 340.822523 235.244329 
L 341.418146 230.767624 
L 342.01377 236.907106 
L 342.609393 231.535059 
L 343.205017 235.628047 
L 343.80064 233.069929 
L 344.396264 234.221082 
L 344.991888 231.535059 
L 345.587511 236.267576 
L 346.183135 236.395482 
L 346.778758 232.302494 
L 347.374382 232.558306 
L 347.970005 233.965271 
L 348.565629 232.4304 
L 349.161252 235.372235 
L 349.756876 236.267576 
L 350.3525 233.325741 
L 350.948123 232.686212 
L 351.543747 235.500141 
L 352.13937 231.151341 
L 352.734994 233.069929 
L 353.330617 233.453647 
L 353.926241 234.732706 
L 354.521864 232.686212 
L 355.117488 234.988518 
L 355.713112 236.395482 
L 356.308735 236.011765 
L 356.904359 229.872282 
L 357.499982 234.988518 
L 358.095606 233.453647 
L 358.691229 232.4304 
L 359.286853 234.476894 
L 359.882476 233.837365 
L 360.4781 235.883859 
L 361.073724 235.244329 
L 361.669347 233.197835 
L 362.264971 233.325741 
L 362.860594 234.732706 
L 363.456218 234.860612 
L 364.051841 235.500141 
L 364.647465 234.6048 
L 365.243088 234.221082 
L 365.838712 233.453647 
L 367.029959 234.348988 
L 367.625583 235.755953 
L 368.221206 236.011765 
L 368.81683 232.686212 
L 369.412453 234.6048 
L 370.008077 232.174588 
L 370.6037 236.907106 
L 371.199324 233.709459 
L 371.794948 232.302494 
L 372.390571 233.325741 
L 373.581818 234.221082 
L 373.581818 234.221082 
" clip-path="url(#p8cf175fe34)" style="fill: none; stroke: #ff7f0e; stroke-width: 1.5; stroke-linecap: square"/>
   </g>
   <g id="line2d_33">
    <path d="M 69.218182 239.848941 
L 69.813805 239.721035 
L 70.409429 237.418729 
L 71.005052 239.465224 
L 71.600676 239.337318 
L 72.1963 239.337318 
L 72.791923 239.721035 
L 73.387547 239.081506 
L 73.98317 239.081506 
L 74.578794 238.825694 
L 75.174417 237.162918 
L 75.770041 239.081506 
L 76.365664 239.976847 
L 76.961288 238.441976 
L 77.556912 240.488471 
L 78.152535 239.081506 
L 78.748159 239.848941 
L 79.343782 239.721035 
L 79.939406 239.337318 
L 80.535029 238.058259 
L 81.130653 235.372235 
L 81.726276 240.232659 
L 82.3219 239.465224 
L 82.917524 237.930353 
L 83.513147 239.465224 
L 84.108771 237.674541 
L 84.704394 238.186165 
L 85.300018 237.546635 
L 85.895641 239.976847 
L 86.491265 241.000094 
L 87.682512 237.290824 
L 88.278136 236.651294 
L 88.873759 239.848941 
L 89.469383 240.232659 
L 90.065006 239.976847 
L 90.66063 239.976847 
L 91.256253 239.848941 
L 91.851877 240.104753 
L 92.4475 240.104753 
L 93.043124 239.465224 
L 93.638748 239.976847 
L 94.234371 240.744282 
L 94.829995 239.081506 
L 96.021242 240.488471 
L 96.616865 237.674541 
L 97.212489 238.441976 
L 97.808112 241.128 
L 98.403736 238.314071 
L 98.99936 237.162918 
L 99.594983 241.255906 
L 100.190607 239.209412 
L 100.78623 240.360565 
L 101.381854 238.697788 
L 101.977477 238.058259 
L 102.573101 239.721035 
L 103.168724 239.209412 
L 103.764348 237.418729 
L 104.359972 238.825694 
L 104.955595 238.825694 
L 105.551219 237.162918 
L 106.742466 242.279153 
L 107.338089 239.593129 
L 107.933713 239.976847 
L 108.529336 239.081506 
L 109.12496 239.337318 
L 109.720584 238.825694 
L 110.316207 236.395482 
L 110.911831 239.593129 
L 111.507454 239.976847 
L 112.103078 239.209412 
L 112.698701 238.058259 
L 113.294325 238.825694 
L 113.889948 238.9536 
L 115.676819 237.162918 
L 116.272443 239.081506 
L 116.868066 240.488471 
L 117.46369 239.976847 
L 118.059313 235.500141 
L 118.654937 241.639624 
L 119.25056 241.128 
L 119.846184 240.232659 
L 120.441808 238.186165 
L 121.037431 238.9536 
L 121.633055 241.000094 
L 122.228678 237.546635 
L 122.824302 240.872188 
L 123.419925 240.104753 
L 124.015549 237.546635 
L 125.206796 237.546635 
L 125.802419 239.976847 
L 126.398043 241.639624 
L 126.993667 239.721035 
L 127.58929 240.232659 
L 128.184914 238.441976 
L 128.780537 238.058259 
L 129.376161 237.035012 
L 129.971784 240.744282 
L 130.567408 236.267576 
L 131.163031 235.372235 
L 131.758655 239.848941 
L 132.354279 239.081506 
L 132.949902 238.825694 
L 133.545526 241.639624 
L 134.141149 238.9536 
L 134.736773 237.674541 
L 135.332396 239.081506 
L 135.92802 240.104753 
L 136.523643 238.9536 
L 137.119267 239.081506 
L 137.714891 238.441976 
L 138.310514 240.744282 
L 138.906138 237.035012 
L 139.501761 240.744282 
L 140.097385 240.616376 
L 140.693008 240.744282 
L 141.288632 237.930353 
L 141.884255 240.360565 
L 142.479879 240.104753 
L 143.075503 238.697788 
L 143.671126 238.9536 
L 144.26675 238.058259 
L 144.862373 240.744282 
L 145.457997 237.930353 
L 146.05362 240.744282 
L 146.649244 237.418729 
L 147.244867 238.314071 
L 147.840491 236.523388 
L 148.436115 237.418729 
L 149.031738 239.848941 
L 149.627362 240.104753 
L 150.222985 240.616376 
L 150.818609 237.418729 
L 151.414232 237.546635 
L 152.009856 238.441976 
L 152.605479 237.418729 
L 153.201103 238.314071 
L 153.796727 237.418729 
L 154.39235 238.9536 
L 154.987974 239.976847 
L 155.583597 239.337318 
L 156.179221 240.488471 
L 156.774844 238.186165 
L 157.370468 239.465224 
L 157.966091 239.848941 
L 158.561715 240.616376 
L 159.157339 239.081506 
L 159.752962 240.616376 
L 160.348586 238.697788 
L 160.944209 240.744282 
L 161.539833 236.907106 
L 162.135456 239.337318 
L 162.73108 239.721035 
L 163.326703 238.9536 
L 163.922327 238.9536 
L 164.517951 239.976847 
L 165.113574 240.104753 
L 165.709198 237.930353 
L 166.304821 237.674541 
L 166.900445 242.151247 
L 167.496068 239.465224 
L 168.091692 235.244329 
L 168.687315 242.407059 
L 169.282939 242.023341 
L 169.878563 238.697788 
L 170.474186 239.848941 
L 171.06981 237.162918 
L 171.665433 237.802447 
L 172.261057 239.593129 
L 172.85668 240.104753 
L 173.452304 241.767529 
L 174.047927 240.872188 
L 174.643551 239.721035 
L 175.239175 239.593129 
L 175.834798 235.628047 
L 176.430422 239.721035 
L 177.026045 240.104753 
L 177.621669 239.721035 
L 178.217292 240.616376 
L 178.812916 239.593129 
L 179.408539 237.162918 
L 180.004163 237.802447 
L 180.599787 240.488471 
L 181.19541 238.697788 
L 181.791034 242.151247 
L 182.386657 240.488471 
L 182.982281 239.593129 
L 183.577904 239.976847 
L 184.173528 239.465224 
L 184.769151 239.465224 
L 185.364775 241.255906 
L 185.960399 238.569882 
L 186.556022 237.674541 
L 187.151646 240.488471 
L 187.747269 237.930353 
L 188.342893 242.534965 
L 188.938516 239.081506 
L 189.53414 239.593129 
L 190.129763 240.744282 
L 190.725387 238.314071 
L 191.32101 237.674541 
L 191.916634 235.116424 
L 192.512258 235.116424 
L 193.107881 233.965271 
L 193.703505 230.511812 
L 194.894752 218.488659 
L 195.490375 217.849129 
L 196.085999 212.349176 
L 196.681622 216.058447 
L 197.277246 218.744471 
L 197.87287 222.453741 
L 198.468493 228.209506 
L 199.65974 232.174588 
L 200.255364 234.221082 
L 200.850987 237.290824 
L 201.446611 238.441976 
L 202.042234 238.825694 
L 203.233482 241.767529 
L 203.829105 238.441976 
L 204.424729 239.337318 
L 205.020352 237.674541 
L 205.615976 239.976847 
L 206.211599 238.9536 
L 206.807223 241.767529 
L 207.402846 237.418729 
L 207.99847 240.872188 
L 208.594094 238.314071 
L 209.189717 237.162918 
L 209.785341 239.593129 
L 210.380964 239.721035 
L 210.976588 240.104753 
L 211.572211 241.383812 
L 212.167835 240.872188 
L 212.763458 238.825694 
L 213.359082 239.848941 
L 213.954706 239.721035 
L 214.550329 238.9536 
L 215.145953 239.337318 
L 215.741576 237.930353 
L 216.3372 236.907106 
L 216.932823 238.9536 
L 217.528447 238.441976 
L 218.12407 236.139671 
L 218.719694 238.314071 
L 219.315318 237.674541 
L 219.910941 237.546635 
L 220.506565 236.395482 
L 221.102188 236.011765 
L 221.697812 238.825694 
L 222.293435 239.337318 
L 223.484682 238.441976 
L 224.080306 237.290824 
L 225.271553 237.802447 
L 225.867177 239.848941 
L 226.4628 239.465224 
L 227.058424 238.058259 
L 227.654047 241.128 
L 228.249671 238.314071 
L 228.845294 239.337318 
L 229.440918 241.383812 
L 230.036542 237.546635 
L 230.632165 239.721035 
L 231.227789 237.035012 
L 231.823412 241.511718 
L 232.419036 240.744282 
L 233.014659 240.872188 
L 233.610283 240.232659 
L 234.205906 240.872188 
L 234.80153 239.209412 
L 235.397154 239.593129 
L 235.992777 238.441976 
L 236.588401 239.721035 
L 237.184024 240.232659 
L 237.779648 241.000094 
L 238.375271 237.674541 
L 238.970895 239.976847 
L 239.566518 236.7792 
L 240.162142 237.418729 
L 240.757766 239.209412 
L 241.353389 239.593129 
L 241.949013 238.058259 
L 243.14026 239.848941 
L 243.735883 241.128 
L 244.331507 240.232659 
L 244.92713 240.232659 
L 245.522754 239.721035 
L 246.118378 241.000094 
L 246.714001 237.546635 
L 247.309625 241.128 
L 247.905248 239.081506 
L 248.500872 239.465224 
L 249.096495 238.9536 
L 249.692119 238.697788 
L 250.287742 239.721035 
L 250.883366 238.058259 
L 251.47899 237.930353 
L 252.074613 239.209412 
L 252.670237 238.697788 
L 253.26586 238.441976 
L 253.861484 241.639624 
L 254.457107 239.081506 
L 255.052731 240.616376 
L 255.648354 238.9536 
L 256.243978 239.976847 
L 256.839601 240.104753 
L 257.435225 239.337318 
L 258.030849 239.465224 
L 258.626472 238.9536 
L 259.222096 238.9536 
L 259.817719 239.848941 
L 261.60459 238.441976 
L 262.200213 238.697788 
L 263.391461 238.186165 
L 263.987084 238.697788 
L 264.582708 238.441976 
L 265.178331 237.674541 
L 265.773955 241.128 
L 266.369578 238.314071 
L 266.965202 240.360565 
L 267.560825 238.186165 
L 268.156449 239.337318 
L 268.752073 239.465224 
L 269.347696 238.825694 
L 269.94332 239.081506 
L 270.538943 237.418729 
L 271.134567 239.976847 
L 271.73019 237.418729 
L 272.325814 241.128 
L 272.921437 240.488471 
L 273.517061 239.465224 
L 274.112685 241.767529 
L 274.708308 239.721035 
L 275.303932 240.232659 
L 275.899555 240.104753 
L 276.495179 238.9536 
L 277.090802 238.569882 
L 277.686426 241.128 
L 278.282049 238.9536 
L 278.877673 237.802447 
L 279.473297 240.104753 
L 280.06892 238.825694 
L 280.664544 239.081506 
L 281.260167 238.697788 
L 281.855791 238.569882 
L 282.451414 238.058259 
L 283.047038 240.104753 
L 283.642661 237.162918 
L 284.238285 239.976847 
L 284.833909 240.232659 
L 285.429532 239.848941 
L 286.025156 240.104753 
L 286.620779 239.721035 
L 287.216403 238.441976 
L 287.812026 239.848941 
L 288.40765 236.011765 
L 289.003273 237.802447 
L 290.194521 239.976847 
L 291.385768 238.441976 
L 291.981391 238.697788 
L 292.577015 241.000094 
L 293.172638 239.976847 
L 293.768262 241.639624 
L 294.363885 242.790776 
L 294.959509 240.872188 
L 295.555133 239.593129 
L 296.150756 239.976847 
L 296.74638 239.209412 
L 297.342003 239.337318 
L 297.937627 235.755953 
L 299.128874 239.848941 
L 299.724497 240.104753 
L 300.320121 237.930353 
L 300.915745 238.697788 
L 301.511368 238.441976 
L 302.106992 239.721035 
L 302.702615 238.697788 
L 303.298239 239.593129 
L 303.893862 240.104753 
L 304.489486 238.058259 
L 305.085109 236.907106 
L 305.680733 239.209412 
L 306.276357 238.186165 
L 306.87198 239.848941 
L 307.467604 239.081506 
L 308.063227 238.697788 
L 308.658851 237.674541 
L 309.254474 240.616376 
L 309.850098 241.511718 
L 310.445721 236.907106 
L 311.041345 237.290824 
L 311.636969 238.825694 
L 312.232592 237.418729 
L 312.828216 238.314071 
L 313.423839 240.872188 
L 314.019463 241.255906 
L 314.615086 241.128 
L 315.21071 238.9536 
L 315.806333 238.058259 
L 316.401957 238.569882 
L 316.997581 237.930353 
L 317.593204 242.279153 
L 318.188828 238.314071 
L 318.784451 239.848941 
L 319.380075 239.209412 
L 319.975698 238.9536 
L 321.166945 237.035012 
L 321.762569 237.802447 
L 322.358192 239.337318 
L 322.953816 241.767529 
L 323.54944 240.488471 
L 324.145063 238.058259 
L 324.740687 239.976847 
L 325.33631 238.314071 
L 325.931934 240.872188 
L 326.527557 238.825694 
L 327.123181 240.488471 
L 327.718804 238.825694 
L 328.314428 239.848941 
L 328.910052 240.232659 
L 329.505675 240.232659 
L 330.101299 236.651294 
L 330.696922 239.976847 
L 331.292546 238.697788 
L 331.888169 239.337318 
L 332.483793 238.441976 
L 333.079416 238.186165 
L 333.67504 240.488471 
L 334.270664 238.058259 
L 334.866287 238.825694 
L 335.461911 239.337318 
L 336.057534 238.569882 
L 336.653158 239.593129 
L 337.248781 240.872188 
L 337.844405 238.058259 
L 338.440028 240.488471 
L 339.035652 238.825694 
L 339.631276 240.744282 
L 340.226899 238.825694 
L 340.822523 239.209412 
L 341.418146 239.337318 
L 342.01377 238.186165 
L 342.609393 240.104753 
L 343.205017 240.360565 
L 343.80064 235.372235 
L 344.396264 240.104753 
L 344.991888 241.255906 
L 345.587511 239.337318 
L 346.183135 241.000094 
L 346.778758 238.569882 
L 347.374382 239.209412 
L 347.970005 240.744282 
L 348.565629 237.930353 
L 349.756876 238.9536 
L 350.3525 238.569882 
L 350.948123 240.616376 
L 351.543747 239.976847 
L 352.13937 241.000094 
L 353.330617 237.674541 
L 353.926241 239.976847 
L 354.521864 240.488471 
L 355.117488 236.267576 
L 355.713112 239.337318 
L 356.308735 239.465224 
L 356.904359 240.872188 
L 357.499982 240.232659 
L 358.095606 240.232659 
L 358.691229 239.337318 
L 359.286853 240.488471 
L 359.882476 237.802447 
L 360.4781 240.744282 
L 361.073724 239.081506 
L 361.669347 239.465224 
L 362.264971 239.593129 
L 362.860594 238.569882 
L 363.456218 241.000094 
L 364.051841 238.569882 
L 364.647465 238.441976 
L 365.243088 237.546635 
L 365.838712 240.232659 
L 366.434336 237.290824 
L 367.029959 239.848941 
L 367.625583 239.465224 
L 368.221206 239.721035 
L 368.81683 240.872188 
L 369.412453 237.930353 
L 370.008077 238.9536 
L 370.6037 240.744282 
L 371.199324 239.465224 
L 371.794948 241.511718 
L 372.390571 240.616376 
L 372.986195 239.976847 
L 373.581818 240.104753 
L 373.581818 240.104753 
" clip-path="url(#p8cf175fe34)" style="fill: none; stroke: #2ca02c; stroke-width: 1.5; stroke-linecap: square"/>
   </g>
   <g id="patch_3">
    <path d="M 54 252 
L 54 34.56 
" style="fill: none; stroke: #000000; stroke-width: 0.8; stroke-linejoin: miter; stroke-linecap: square"/>
   </g>
   <g id="patch_4">
    <path d="M 388.8 252 
L 388.8 34.56 
" style="fill: none; stroke: #000000; stroke-width: 0.8; stroke-linejoin: miter; stroke-linecap: square"/>
   </g>
   <g id="patch_5">
    <path d="M 54 252 
L 388.8 252 
" style="fill: none; stroke: #000000; stroke-width: 0.8; stroke-linejoin: miter; stroke-linecap: square"/>
   </g>
   <g id="patch_6">
    <path d="M 54 34.56 
L 388.8 34.56 
" style="fill: none; stroke: #000000; stroke-width: 0.8; stroke-linejoin: miter; stroke-linecap: square"/>
   </g>
   <g id="text_18">
    <!-- Label 11 -->
    <g transform="translate(195.670312 28.56)scale(0.12 -0.12)">
     <defs>
      <path id="DejaVuSans-4c" d="M 628 4666 
L 1259 4666 
L 1259 531 
L 3531 531 
L 3531 0 
L 628 0 
L 628 4666 
z
" transform="scale(0.015625)"/>
      <path id="DejaVuSans-61" d="M 2194 1759 
Q 1497 1759 1228 1600 
Q 959 1441 959 1056 
Q 959 750 1161 570 
Q 1363 391 1709 391 
Q 2188 391 2477 730 
Q 2766 1069 2766 1631 
L 2766 1759 
L 2194 1759 
z
M 3341 1997 
L 3341 0 
L 2766 0 
L 2766 531 
Q 2569 213 2275 61 
Q 1981 -91 1556 -91 
Q 1019 -91 701 211 
Q 384 513 384 1019 
Q 384 1609 779 1909 
Q 1175 2209 1959 2209 
L 2766 2209 
L 2766 2266 
Q 2766 2663 2505 2880 
Q 2244 3097 1772 3097 
Q 1472 3097 1187 3025 
Q 903 2953 641 2809 
L 641 3341 
Q 956 3463 1253 3523 
Q 1550 3584 1831 3584 
Q 2591 3584 2966 3190 
Q 3341 2797 3341 1997 
z
" transform="scale(0.015625)"/>
      <path id="DejaVuSans-65" d="M 3597 1894 
L 3597 1613 
L 953 1613 
Q 991 1019 1311 708 
Q 1631 397 2203 397 
Q 2534 397 2845 478 
Q 3156 559 3463 722 
L 3463 178 
Q 3153 47 2828 -22 
Q 2503 -91 2169 -91 
Q 1331 -91 842 396 
Q 353 884 353 1716 
Q 353 2575 817 3079 
Q 1281 3584 2069 3584 
Q 2775 3584 3186 3129 
Q 3597 2675 3597 1894 
z
M 3022 2063 
Q 3016 2534 2758 2815 
Q 2500 3097 2075 3097 
Q 1594 3097 1305 2825 
Q 1016 2553 972 2059 
L 3022 2063 
z
" transform="scale(0.015625)"/>
      <path id="DejaVuSans-6c" d="M 603 4863 
L 1178 4863 
L 1178 0 
L 603 0 
L 603 4863 
z
" transform="scale(0.015625)"/>
      <path id="DejaVuSans-20" transform="scale(0.015625)"/>
     </defs>
     <use xlink:href="#DejaVuSans-4c"/>
     <use xlink:href="#DejaVuSans-61" x="55.712891"/>
     <use xlink:href="#DejaVuSans-62" x="116.992188"/>
     <use xlink:href="#DejaVuSans-65" x="180.46875"/>
     <use xlink:href="#DejaVuSans-6c" x="241.992188"/>
     <use xlink:href="#DejaVuSans-20" x="269.775391"/>
     <use xlink:href="#DejaVuSans-31" x="301.5625"/>
     <use xlink:href="#DejaVuSans-31" x="365.185547"/>
    </g>
   </g>
   <g id="legend_1">
    <g id="patch_7">
     <path d="M 309.070312 101.2725 
L 381.8 101.2725 
Q 383.8 101.2725 383.8 99.2725 
L 383.8 41.56 
Q 383.8 39.56 381.8 39.56 
L 309.070312 39.56 
Q 307.070312 39.56 307.070312 41.56 
L 307.070312 99.2725 
Q 307.070312 101.2725 309.070312 101.2725 
z
" style="fill: #ffffff; opacity: 0.8; stroke: #cccccc; stroke-linejoin: miter"/>
    </g>
    <g id="text_19">
     <!-- Trace number -->
     <g transform="translate(311.070312 51.158437)scale(0.1 -0.1)">
      <defs>
       <path id="DejaVuSans-54" d="M -19 4666 
L 3928 4666 
L 3928 4134 
L 2272 4134 
L 2272 0 
L 1638 0 
L 1638 4134 
L -19 4134 
L -19 4666 
z
" transform="scale(0.015625)"/>
       <path id="DejaVuSans-72" d="M 2631 2963 
Q 2534 3019 2420 3045 
Q 2306 3072 2169 3072 
Q 1681 3072 1420 2755 
Q 1159 2438 1159 1844 
L 1159 0 
L 581 0 
L 581 3500 
L 1159 3500 
L 1159 2956 
Q 1341 3275 1631 3429 
Q 1922 3584 2338 3584 
Q 2397 3584 2469 3576 
Q 2541 3569 2628 3553 
L 2631 2963 
z
" transform="scale(0.015625)"/>
       <path id="DejaVuSans-6d" d="M 3328 2828 
Q 3544 3216 3844 3400 
Q 4144 3584 4550 3584 
Q 5097 3584 5394 3201 
Q 5691 2819 5691 2113 
L 5691 0 
L 5113 0 
L 5113 2094 
Q 5113 2597 4934 2840 
Q 4756 3084 4391 3084 
Q 3944 3084 3684 2787 
Q 3425 2491 3425 1978 
L 3425 0 
L 2847 0 
L 2847 2094 
Q 2847 2600 2669 2842 
Q 2491 3084 2119 3084 
Q 1678 3084 1418 2786 
Q 1159 2488 1159 1978 
L 1159 0 
L 581 0 
L 581 3500 
L 1159 3500 
L 1159 2956 
Q 1356 3278 1631 3431 
Q 1906 3584 2284 3584 
Q 2666 3584 2933 3390 
Q 3200 3197 3328 2828 
z
" transform="scale(0.015625)"/>
      </defs>
      <use xlink:href="#DejaVuSans-54"/>
      <use xlink:href="#DejaVuSans-72" x="46.333984"/>
      <use xlink:href="#DejaVuSans-61" x="87.447266"/>
      <use xlink:href="#DejaVuSans-63" x="148.726562"/>
      <use xlink:href="#DejaVuSans-65" x="203.707031"/>
      <use xlink:href="#DejaVuSans-20" x="265.230469"/>
      <use xlink:href="#DejaVuSans-6e" x="297.017578"/>
      <use xlink:href="#DejaVuSans-75" x="360.396484"/>
      <use xlink:href="#DejaVuSans-6d" x="423.775391"/>
      <use xlink:href="#DejaVuSans-62" x="521.1875"/>
      <use xlink:href="#DejaVuSans-65" x="584.664062"/>
      <use xlink:href="#DejaVuSans-72" x="646.1875"/>
     </g>
    </g>
    <g id="line2d_34">
     <path d="M 325.072656 62.336562 
L 335.072656 62.336562 
L 345.072656 62.336562 
" style="fill: none; stroke: #1f77b4; stroke-width: 1.5; stroke-linecap: square"/>
    </g>
    <g id="text_20">
     <!-- 30 -->
     <g transform="translate(353.072656 65.836562)scale(0.1 -0.1)">
      <use xlink:href="#DejaVuSans-33"/>
      <use xlink:href="#DejaVuSans-30" x="63.623047"/>
     </g>
    </g>
    <g id="line2d_35">
     <path d="M 325.072656 77.014687 
L 335.072656 77.014687 
L 345.072656 77.014687 
" style="fill: none; stroke: #ff7f0e; stroke-width: 1.5; stroke-linecap: square"/>
    </g>
    <g id="text_21">
     <!-- 67 -->
     <g transform="translate(353.072656 80.514687)scale(0.1 -0.1)">
      <defs>
       <path id="DejaVuSans-37" d="M 525 4666 
L 3525 4666 
L 3525 4397 
L 1831 0 
L 1172 0 
L 2766 4134 
L 525 4134 
L 525 4666 
z
" transform="scale(0.015625)"/>
      </defs>
      <use xlink:href="#DejaVuSans-36"/>
      <use xlink:href="#DejaVuSans-37" x="63.623047"/>
     </g>
    </g>
    <g id="line2d_36">
     <path d="M 325.072656 91.692813 
L 335.072656 91.692813 
L 345.072656 91.692813 
" style="fill: none; stroke: #2ca02c; stroke-width: 1.5; stroke-linecap: square"/>
    </g>
    <g id="text_22">
     <!-- 89 -->
     <g transform="translate(353.072656 95.192813)scale(0.1 -0.1)">
      <defs>
       <path id="DejaVuSans-39" d="M 703 97 
L 703 672 
Q 941 559 1184 500 
Q 1428 441 1663 441 
Q 2288 441 2617 861 
Q 2947 1281 2994 2138 
Q 2813 1869 2534 1725 
Q 2256 1581 1919 1581 
Q 1219 1581 811 2004 
Q 403 2428 403 3163 
Q 403 3881 828 4315 
Q 1253 4750 1959 4750 
Q 2769 4750 3195 4129 
Q 3622 3509 3622 2328 
Q 3622 1225 3098 567 
Q 2575 -91 1691 -91 
Q 1453 -91 1209 -44 
Q 966 3 703 97 
z
M 1959 2075 
Q 2384 2075 2632 2365 
Q 2881 2656 2881 3163 
Q 2881 3666 2632 3958 
Q 2384 4250 1959 4250 
Q 1534 4250 1286 3958 
Q 1038 3666 1038 3163 
Q 1038 2656 1286 2365 
Q 1534 2075 1959 2075 
z
" transform="scale(0.015625)"/>
      </defs>
      <use xlink:href="#DejaVuSans-38"/>
      <use xlink:href="#DejaVuSans-39" x="63.623047"/>
     </g>
    </g>
   </g>
  </g>
 </g>
 <defs>
  <clipPath id="p8cf175fe34">
   <rect x="54" y="34.56" width="334.8" height="217.44"/>
  </clipPath>
 </defs>
</svg>
